G04 #@! TF.GenerationSoftware,KiCad,Pcbnew,(5.99.0-10394-g2e15de97e0)*
G04 #@! TF.CreationDate,2021-04-26T16:14:31+02:00*
G04 #@! TF.ProjectId,TFI2CEXT01A,54464932-4345-4585-9430-31412e6b6963,REV*
G04 #@! TF.SameCoordinates,PX78dfd90PY8290510*
G04 #@! TF.FileFunction,Copper,L2,Bot*
G04 #@! TF.FilePolarity,Positive*
%FSLAX46Y46*%
G04 Gerber Fmt 4.6, Leading zero omitted, Abs format (unit mm)*
G04 Created by KiCad (PCBNEW (5.99.0-10394-g2e15de97e0)) date 2021-04-26 16:14:31*
%MOMM*%
%LPD*%
G01*
G04 APERTURE LIST*
G04 Aperture macros list*
%AMRoundRect*
0 Rectangle with rounded corners*
0 $1 Rounding radius*
0 $2 $3 $4 $5 $6 $7 $8 $9 X,Y pos of 4 corners*
0 Add a 4 corners polygon primitive as box body*
4,1,4,$2,$3,$4,$5,$6,$7,$8,$9,$2,$3,0*
0 Add four circle primitives for the rounded corners*
1,1,$1+$1,$2,$3*
1,1,$1+$1,$4,$5*
1,1,$1+$1,$6,$7*
1,1,$1+$1,$8,$9*
0 Add four rect primitives between the rounded corners*
20,1,$1+$1,$2,$3,$4,$5,0*
20,1,$1+$1,$4,$5,$6,$7,0*
20,1,$1+$1,$6,$7,$8,$9,0*
20,1,$1+$1,$8,$9,$2,$3,0*%
G04 Aperture macros list end*
G04 #@! TA.AperFunction,SMDPad,CuDef*
%ADD10RoundRect,0.218750X0.218750X0.256250X-0.218750X0.256250X-0.218750X-0.256250X0.218750X-0.256250X0*%
G04 #@! TD*
G04 #@! TA.AperFunction,SMDPad,CuDef*
%ADD11R,0.450000X1.450000*%
G04 #@! TD*
G04 #@! TA.AperFunction,SMDPad,CuDef*
%ADD12R,0.950000X1.500000*%
G04 #@! TD*
G04 #@! TA.AperFunction,SMDPad,CuDef*
%ADD13RoundRect,0.218750X0.256250X-0.218750X0.256250X0.218750X-0.256250X0.218750X-0.256250X-0.218750X0*%
G04 #@! TD*
G04 #@! TA.AperFunction,SMDPad,CuDef*
%ADD14R,0.700000X0.600000*%
G04 #@! TD*
G04 #@! TA.AperFunction,SMDPad,CuDef*
%ADD15RoundRect,0.150000X0.700000X-0.150000X0.700000X0.150000X-0.700000X0.150000X-0.700000X-0.150000X0*%
G04 #@! TD*
G04 #@! TA.AperFunction,SMDPad,CuDef*
%ADD16RoundRect,0.250000X1.100000X-0.250000X1.100000X0.250000X-1.100000X0.250000X-1.100000X-0.250000X0*%
G04 #@! TD*
G04 #@! TA.AperFunction,SMDPad,CuDef*
%ADD17RoundRect,0.150000X0.150000X-0.512500X0.150000X0.512500X-0.150000X0.512500X-0.150000X-0.512500X0*%
G04 #@! TD*
G04 #@! TA.AperFunction,SMDPad,CuDef*
%ADD18RoundRect,0.218750X-0.256250X0.218750X-0.256250X-0.218750X0.256250X-0.218750X0.256250X0.218750X0*%
G04 #@! TD*
G04 #@! TA.AperFunction,SMDPad,CuDef*
%ADD19RoundRect,0.150000X-0.700000X0.150000X-0.700000X-0.150000X0.700000X-0.150000X0.700000X0.150000X0*%
G04 #@! TD*
G04 #@! TA.AperFunction,SMDPad,CuDef*
%ADD20RoundRect,0.250000X-1.100000X0.250000X-1.100000X-0.250000X1.100000X-0.250000X1.100000X0.250000X0*%
G04 #@! TD*
G04 #@! TA.AperFunction,SMDPad,CuDef*
%ADD21R,1.397000X0.889000*%
G04 #@! TD*
G04 #@! TA.AperFunction,ViaPad*
%ADD22C,0.800000*%
G04 #@! TD*
G04 #@! TA.AperFunction,Conductor*
%ADD23C,0.400000*%
G04 #@! TD*
G04 APERTURE END LIST*
D10*
G04 #@! TO.P,R4,1*
G04 #@! TO.N,+3V3*
X-113258500Y139446000D03*
G04 #@! TO.P,R4,2*
G04 #@! TO.N,Net-(D3-Pad2)*
X-114833500Y139446000D03*
G04 #@! TD*
D11*
G04 #@! TO.P,U2,1,EN*
G04 #@! TO.N,+3V3*
X-111039000Y142206000D03*
G04 #@! TO.P,U2,2,SCLout*
G04 #@! TO.N,/SCLout*
X-111689000Y142206000D03*
G04 #@! TO.P,U2,3,SCLin*
G04 #@! TO.N,/SCLin*
X-112339000Y142206000D03*
G04 #@! TO.P,U2,4,GND*
G04 #@! TO.N,GND*
X-112989000Y142206000D03*
G04 #@! TO.P,U2,5,READY*
G04 #@! TO.N,Net-(D3-Pad2)*
X-112989000Y146606000D03*
G04 #@! TO.P,U2,6,SDAin*
G04 #@! TO.N,/SDAin*
X-112339000Y146606000D03*
G04 #@! TO.P,U2,7,SDAout*
G04 #@! TO.N,/SDAout*
X-111689000Y146606000D03*
G04 #@! TO.P,U2,8,VCC*
G04 #@! TO.N,+3V3*
X-111039000Y146606000D03*
G04 #@! TD*
D12*
G04 #@! TO.P,D1,1,K*
G04 #@! TO.N,GND*
X-120321000Y149906000D03*
G04 #@! TO.P,D1,2,A*
G04 #@! TO.N,Net-(D1-Pad2)*
X-116171000Y149906000D03*
G04 #@! TD*
D13*
G04 #@! TO.P,C2,1*
G04 #@! TO.N,+5V*
X-115570000Y141478000D03*
G04 #@! TO.P,C2,2*
G04 #@! TO.N,GND*
X-115570000Y143053000D03*
G04 #@! TD*
D14*
G04 #@! TO.P,D2,1,K*
G04 #@! TO.N,+5V*
X-119380000Y146301000D03*
G04 #@! TO.P,D2,2,A*
G04 #@! TO.N,GND*
X-119380000Y147701000D03*
G04 #@! TD*
D13*
G04 #@! TO.P,R5,1*
G04 #@! TO.N,+3V3*
X-109474000Y138531500D03*
G04 #@! TO.P,R5,2*
G04 #@! TO.N,/SCLout*
X-109474000Y140106500D03*
G04 #@! TD*
G04 #@! TO.P,C3,1*
G04 #@! TO.N,+3V3*
X-115443000Y145618000D03*
G04 #@! TO.P,C3,2*
G04 #@! TO.N,GND*
X-115443000Y147193000D03*
G04 #@! TD*
D15*
G04 #@! TO.P,J1,1*
G04 #@! TO.N,+5V*
X-122096000Y142531000D03*
G04 #@! TO.P,J1,2*
G04 #@! TO.N,/SCLin*
X-122096000Y143781000D03*
G04 #@! TO.P,J1,3*
G04 #@! TO.N,/SDAin*
X-122096000Y145031000D03*
G04 #@! TO.P,J1,4*
G04 #@! TO.N,GND*
X-122096000Y146281000D03*
D16*
G04 #@! TO.P,J1,MP*
X-125296000Y148131000D03*
X-125296000Y140681000D03*
G04 #@! TD*
D17*
G04 #@! TO.P,U1,1,VIN*
G04 #@! TO.N,+5V*
X-117287000Y141864500D03*
G04 #@! TO.P,U1,2,GND*
G04 #@! TO.N,GND*
X-118237000Y141864500D03*
G04 #@! TO.P,U1,3,EN*
G04 #@! TO.N,+5V*
X-119187000Y141864500D03*
G04 #@! TO.P,U1,4,NC*
G04 #@! TO.N,unconnected-(U1-Pad4)*
X-119187000Y144139500D03*
G04 #@! TO.P,U1,5,VOUT*
G04 #@! TO.N,+3V3*
X-117287000Y144139500D03*
G04 #@! TD*
D12*
G04 #@! TO.P,D3,1,K*
G04 #@! TO.N,GND*
X-120321000Y138906000D03*
G04 #@! TO.P,D3,2,A*
G04 #@! TO.N,Net-(D3-Pad2)*
X-116171000Y138906000D03*
G04 #@! TD*
D10*
G04 #@! TO.P,R1,1*
G04 #@! TO.N,+5V*
X-113233000Y149606000D03*
G04 #@! TO.P,R1,2*
G04 #@! TO.N,Net-(D1-Pad2)*
X-114808000Y149606000D03*
G04 #@! TD*
D18*
G04 #@! TO.P,R6,1*
G04 #@! TO.N,+3V3*
X-109474000Y150241000D03*
G04 #@! TO.P,R6,2*
G04 #@! TO.N,/SDAout*
X-109474000Y148666000D03*
G04 #@! TD*
D13*
G04 #@! TO.P,R2,1*
G04 #@! TO.N,+3V3*
X-111506000Y138531500D03*
G04 #@! TO.P,R2,2*
G04 #@! TO.N,/SCLin*
X-111506000Y140106500D03*
G04 #@! TD*
D18*
G04 #@! TO.P,R3,1*
G04 #@! TO.N,+3V3*
X-111506000Y150241000D03*
G04 #@! TO.P,R3,2*
G04 #@! TO.N,/SDAin*
X-111506000Y148666000D03*
G04 #@! TD*
D19*
G04 #@! TO.P,J3,1*
G04 #@! TO.N,+5V*
X-106396000Y146281000D03*
G04 #@! TO.P,J3,2*
G04 #@! TO.N,/SCLout*
X-106396000Y145031000D03*
G04 #@! TO.P,J3,3*
G04 #@! TO.N,/SDAout*
X-106396000Y143781000D03*
G04 #@! TO.P,J3,4*
G04 #@! TO.N,GND*
X-106396000Y142531000D03*
D20*
G04 #@! TO.P,J3,MP*
X-103196000Y140681000D03*
X-103196000Y148131000D03*
G04 #@! TD*
D21*
G04 #@! TO.P,C1,1*
G04 #@! TO.N,+5V*
X-117221000Y145796000D03*
G04 #@! TO.P,C1,2*
G04 #@! TO.N,GND*
X-117221000Y147701000D03*
G04 #@! TD*
D13*
G04 #@! TO.P,C4,1*
G04 #@! TO.N,+3V3*
X-109093000Y145516500D03*
G04 #@! TO.P,C4,2*
G04 #@! TO.N,GND*
X-109093000Y147091500D03*
G04 #@! TD*
D22*
G04 #@! TO.N,GND*
X-103632000Y138938000D03*
X-123698000Y138938000D03*
X-103632000Y149860000D03*
X-105791000Y139573000D03*
X-123698000Y149860000D03*
X-122301000Y138811000D03*
X-120523000Y141224000D03*
X-109728000Y147536500D03*
X-122047000Y148209000D03*
X-102743000Y143510000D03*
X-107061000Y140970000D03*
X-120523000Y148209000D03*
X-102743000Y146558000D03*
X-106426000Y149479000D03*
X-118519002Y145415000D03*
X-125730000Y138938000D03*
X-122682000Y149733000D03*
X-107061000Y138303000D03*
X-122174000Y140716000D03*
X-125730000Y149860000D03*
X-102743000Y142494000D03*
X-105791000Y140970000D03*
X-102616000Y149860000D03*
X-102616000Y138938000D03*
X-125730000Y144526000D03*
X-105283000Y149860000D03*
X-107061000Y139573000D03*
X-106426000Y150495000D03*
X-107696000Y150495000D03*
X-125489629Y146116907D03*
X-125730000Y142367000D03*
X-102743000Y145542000D03*
X-113538000Y140589000D03*
X-118237000Y142981500D03*
X-102743000Y144526000D03*
G04 #@! TO.N,+3V3*
X-110182500Y146606000D03*
X-114457125Y146600000D03*
G04 #@! TO.N,+5V*
X-120269000Y146304000D03*
X-113792000Y148336000D03*
X-106426000Y147320000D03*
X-123571000Y142621000D03*
G04 #@! TO.N,/SDAin*
X-123825000Y143764000D03*
X-113535443Y143773778D03*
G04 #@! TO.N,/SCLin*
X-120393000Y145031000D03*
X-112395000Y143764000D03*
G04 #@! TO.N,/SCLout*
X-110871000Y143764000D03*
X-108094000Y143781000D03*
G04 #@! TO.N,/SDAout*
X-111606961Y145022566D03*
X-104946500Y143825798D03*
G04 #@! TD*
D23*
G04 #@! TO.N,GND*
X-118319011Y145215009D02*
X-118519002Y145415000D01*
X-109283000Y147091500D02*
X-109728000Y147536500D01*
X-117221000Y147701000D02*
X-116165511Y148756489D01*
X-109093000Y147091500D02*
X-109283000Y147091500D01*
X-112989000Y142206000D02*
X-112989000Y141138000D01*
X-118237000Y142981500D02*
X-118319011Y143063511D01*
X-115443000Y148756489D02*
X-115443000Y147193000D01*
X-121031000Y140716000D02*
X-120523000Y141224000D01*
X-118319011Y143063511D02*
X-118319011Y145215009D01*
X-119380000Y147701000D02*
X-117221000Y147701000D01*
X-125730000Y144526000D02*
X-125730000Y142367000D01*
X-118237000Y141864500D02*
X-118237000Y142981500D01*
X-125296000Y146310536D02*
X-125489629Y146116907D01*
X-112989000Y141138000D02*
X-113538000Y140589000D01*
X-122174000Y140716000D02*
X-121031000Y140716000D01*
X-125296000Y148131000D02*
X-125296000Y146310536D01*
X-116165511Y148756489D02*
X-115443000Y148756489D01*
G04 #@! TO.N,+3V3*
X-117175000Y144575000D02*
X-116325000Y144575000D01*
X-108599480Y141124480D02*
X-109093000Y141618000D01*
X-115443000Y145618000D02*
X-114465600Y146595400D01*
X-109918000Y141618000D02*
X-109093000Y141618000D01*
X-113258500Y139446000D02*
X-112420500Y139446000D01*
X-117287000Y144139500D02*
X-117287000Y144463000D01*
X-109093000Y141618000D02*
X-109093000Y143256000D01*
X-111506000Y138531500D02*
X-109474000Y138531500D01*
X-115443000Y145618000D02*
X-115443000Y145457000D01*
X-110506000Y142206000D02*
X-109918000Y141618000D01*
X-111039000Y146606000D02*
X-110182500Y146606000D01*
X-111039000Y142206000D02*
X-110506000Y142206000D01*
X-115443000Y145457000D02*
X-116325000Y144575000D01*
X-114465600Y146595400D02*
X-114457125Y146595400D01*
X-110617000Y150241000D02*
X-109474000Y150241000D01*
X-117287000Y143758500D02*
X-117287000Y143788000D01*
X-110182500Y146606000D02*
X-109093000Y145516500D01*
X-109474000Y138531500D02*
X-108599480Y139406020D01*
X-117287000Y144463000D02*
X-117175000Y144575000D01*
X-108218480Y146391020D02*
X-108218480Y148985480D01*
X-109093000Y143256000D02*
X-109093000Y145516500D01*
X-108599480Y139406020D02*
X-108599480Y141124480D01*
X-109093000Y145516500D02*
X-108218480Y146391020D01*
X-111506000Y150241000D02*
X-109474000Y150241000D01*
X-108218480Y148985480D02*
X-109474000Y150241000D01*
X-112420500Y139446000D02*
X-111506000Y138531500D01*
G04 #@! TO.N,+5V*
X-115956500Y141864500D02*
X-115570000Y141478000D01*
X-117686520Y140802480D02*
X-117287000Y141202000D01*
X-123481000Y142531000D02*
X-123571000Y142621000D01*
X-117287000Y141864500D02*
X-115956500Y141864500D01*
X-106426000Y147320000D02*
X-106426000Y146311000D01*
X-117287000Y141202000D02*
X-117287000Y141864500D01*
X-119380000Y146301000D02*
X-120266000Y146301000D01*
X-113792000Y148336000D02*
X-113792000Y149047000D01*
X-122096000Y142531000D02*
X-123481000Y142531000D01*
X-120266000Y146301000D02*
X-120269000Y146304000D01*
X-119187000Y141864500D02*
X-119187000Y141202000D01*
X-113792000Y149047000D02*
X-113233000Y149606000D01*
X-117726000Y146301000D02*
X-117221000Y145796000D01*
X-119380000Y146301000D02*
X-117726000Y146301000D01*
X-119853500Y142531000D02*
X-119187000Y141864500D01*
X-122096000Y142531000D02*
X-122081480Y142545520D01*
X-119187000Y141202000D02*
X-118787480Y140802480D01*
X-106426000Y146311000D02*
X-106396000Y146281000D01*
X-118787480Y140802480D02*
X-117686520Y140802480D01*
X-122096000Y142531000D02*
X-119853500Y142531000D01*
G04 #@! TO.N,Net-(D1-Pad2)*
X-114808000Y149606000D02*
X-115871000Y149606000D01*
X-115871000Y149606000D02*
X-116171000Y149906000D01*
G04 #@! TO.N,Net-(D3-Pad2)*
X-114427000Y139852500D02*
X-114833500Y139446000D01*
X-114427000Y144668000D02*
X-114427000Y139852500D01*
X-114833500Y139446000D02*
X-115631000Y139446000D01*
X-112989000Y146106000D02*
X-114427000Y144668000D01*
X-115631000Y139446000D02*
X-116171000Y138906000D01*
X-112989000Y146606000D02*
X-112989000Y146106000D01*
G04 #@! TO.N,/SDAin*
X-122096000Y145031000D02*
X-123447000Y145031000D01*
X-112406472Y144902749D02*
X-112406472Y145406332D01*
X-123825000Y144653000D02*
X-123825000Y143764000D01*
X-111506000Y148666000D02*
X-112339000Y147833000D01*
X-112339000Y147833000D02*
X-112339000Y146606000D01*
X-113535443Y143773778D02*
X-112406472Y144902749D01*
X-112339000Y145473804D02*
X-112339000Y146606000D01*
X-112406472Y145406332D02*
X-112339000Y145473804D01*
X-123447000Y145031000D02*
X-123825000Y144653000D01*
G04 #@! TO.N,/SCLin*
X-120633000Y143781000D02*
X-120393000Y144021000D01*
X-112339000Y143708000D02*
X-112339000Y142206000D01*
X-112395000Y143764000D02*
X-112339000Y143708000D01*
X-112339000Y142206000D02*
X-112339000Y140939500D01*
X-112339000Y140939500D02*
X-111506000Y140106500D01*
X-122096000Y143781000D02*
X-120633000Y143781000D01*
X-120393000Y144021000D02*
X-120393000Y145031000D01*
G04 #@! TO.N,/SCLout*
X-111689000Y141186880D02*
X-111445640Y140943520D01*
X-110311020Y140943520D02*
X-109474000Y140106500D01*
X-111689000Y142206000D02*
X-111689000Y141186880D01*
X-108094000Y144356000D02*
X-108094000Y143781000D01*
X-111689000Y143225120D02*
X-111689000Y142206000D01*
X-111445640Y140943520D02*
X-110311020Y140943520D01*
X-110871000Y143764000D02*
X-111150120Y143764000D01*
X-111150120Y143764000D02*
X-111689000Y143225120D01*
X-106396000Y145031000D02*
X-107419000Y145031000D01*
X-107419000Y145031000D02*
X-108094000Y144356000D01*
G04 #@! TO.N,/SDAout*
X-111606961Y145022566D02*
X-111689000Y145104605D01*
X-104946500Y143825798D02*
X-104991298Y143781000D01*
X-111689000Y145104605D02*
X-111689000Y146606000D01*
X-104991298Y143781000D02*
X-106396000Y143781000D01*
X-111689000Y146606000D02*
X-111689000Y147518000D01*
X-111378020Y147828980D02*
X-110986584Y147828980D01*
X-111689000Y147518000D02*
X-111378020Y147828980D01*
X-110149564Y148666000D02*
X-109474000Y148666000D01*
X-110986584Y147828980D02*
X-110149564Y148666000D01*
G04 #@! TD*
G04 #@! TA.AperFunction,Conductor*
G04 #@! TO.N,GND*
G36*
X-105877630Y151388687D02*
G01*
X-105855123Y151355787D01*
X-105814756Y151236869D01*
X-105813460Y151234375D01*
X-105813460Y151234374D01*
X-105712334Y151039700D01*
X-105695492Y151007277D01*
X-105693839Y151005015D01*
X-105693837Y151005011D01*
X-105547970Y150805344D01*
X-105542872Y150798366D01*
X-105458188Y150713237D01*
X-105386825Y150641500D01*
X-105360409Y150614945D01*
X-105152300Y150461234D01*
X-104923336Y150340769D01*
X-104920680Y150339852D01*
X-104920678Y150339851D01*
X-104698376Y150263090D01*
X-104678784Y150256325D01*
X-104676023Y150255821D01*
X-104676020Y150255820D01*
X-104571773Y150236781D01*
X-104424273Y150209843D01*
X-104421911Y150209719D01*
X-104421909Y150209719D01*
X-104342366Y150205550D01*
X-104342352Y150205550D01*
X-104341405Y150205500D01*
X-104180271Y150205500D01*
X-104108777Y150210939D01*
X-103990819Y150219911D01*
X-103990813Y150219912D01*
X-103988025Y150220124D01*
X-103735986Y150278543D01*
X-103733374Y150279585D01*
X-103498292Y150373373D01*
X-103498286Y150373376D01*
X-103495684Y150374414D01*
X-103493265Y150375836D01*
X-103493261Y150375838D01*
X-103275073Y150504104D01*
X-103275069Y150504107D01*
X-103272648Y150505530D01*
X-103139451Y150613969D01*
X-103074190Y150667100D01*
X-103072011Y150668874D01*
X-102898391Y150860687D01*
X-102755781Y151076555D01*
X-102647466Y151311510D01*
X-102646691Y151314206D01*
X-102646687Y151314215D01*
X-102635684Y151352460D01*
X-102605895Y151393385D01*
X-102564569Y151406000D01*
X-102320000Y151406000D01*
X-102272434Y151388687D01*
X-102247124Y151344850D01*
X-102246000Y151332000D01*
X-102246000Y149213000D01*
X-102263313Y149165434D01*
X-102307150Y149140124D01*
X-102320000Y149139000D01*
X-102928952Y149139000D01*
X-102938948Y149135362D01*
X-102942000Y149130075D01*
X-102942000Y147136048D01*
X-102938362Y147126052D01*
X-102933075Y147123000D01*
X-102320000Y147123000D01*
X-102272434Y147105687D01*
X-102247124Y147061850D01*
X-102246000Y147049000D01*
X-102246000Y141763000D01*
X-102263313Y141715434D01*
X-102307150Y141690124D01*
X-102320000Y141689000D01*
X-102928952Y141689000D01*
X-102938948Y141685362D01*
X-102942000Y141680075D01*
X-102942000Y139686048D01*
X-102938362Y139676052D01*
X-102933075Y139673000D01*
X-102320000Y139673000D01*
X-102272434Y139655687D01*
X-102247124Y139611850D01*
X-102246000Y139599000D01*
X-102246000Y137480000D01*
X-102263313Y137432434D01*
X-102307150Y137407124D01*
X-102320000Y137406000D01*
X-102566804Y137406000D01*
X-102614370Y137423313D01*
X-102636877Y137456213D01*
X-102651907Y137500490D01*
X-102677244Y137575131D01*
X-102722592Y137662430D01*
X-102795215Y137802234D01*
X-102795215Y137802235D01*
X-102796508Y137804723D01*
X-102809538Y137822560D01*
X-102947471Y138011366D01*
X-102947472Y138011367D01*
X-102949128Y138013634D01*
X-103072519Y138137673D01*
X-103129609Y138195063D01*
X-103129612Y138195065D01*
X-103131591Y138197055D01*
X-103339700Y138350766D01*
X-103568664Y138471231D01*
X-103571320Y138472148D01*
X-103571322Y138472149D01*
X-103810557Y138554757D01*
X-103810559Y138554757D01*
X-103813216Y138555675D01*
X-103815977Y138556179D01*
X-103815980Y138556180D01*
X-103920227Y138575219D01*
X-104067727Y138602157D01*
X-104070089Y138602281D01*
X-104070091Y138602281D01*
X-104149634Y138606450D01*
X-104149648Y138606450D01*
X-104150595Y138606500D01*
X-104311729Y138606500D01*
X-104383223Y138601061D01*
X-104501181Y138592089D01*
X-104501187Y138592088D01*
X-104503975Y138591876D01*
X-104756014Y138533457D01*
X-104758625Y138532415D01*
X-104758626Y138532415D01*
X-104993708Y138438627D01*
X-104993714Y138438624D01*
X-104996316Y138437586D01*
X-104998735Y138436164D01*
X-104998739Y138436162D01*
X-105216927Y138307896D01*
X-105216931Y138307893D01*
X-105219352Y138306470D01*
X-105221531Y138304696D01*
X-105353747Y138197055D01*
X-105419989Y138143126D01*
X-105421876Y138141041D01*
X-105579519Y137966879D01*
X-105593609Y137951313D01*
X-105736219Y137735445D01*
X-105844534Y137500490D01*
X-105845309Y137497794D01*
X-105845313Y137497785D01*
X-105856316Y137459540D01*
X-105886105Y137418615D01*
X-105927431Y137406000D01*
X-112566804Y137406000D01*
X-112614370Y137423313D01*
X-112636877Y137456213D01*
X-112651907Y137500490D01*
X-112677244Y137575131D01*
X-112722592Y137662430D01*
X-112795215Y137802234D01*
X-112795215Y137802235D01*
X-112796508Y137804723D01*
X-112809538Y137822560D01*
X-112947471Y138011366D01*
X-112947472Y138011367D01*
X-112949128Y138013634D01*
X-113072519Y138137673D01*
X-113129609Y138195063D01*
X-113129612Y138195065D01*
X-113131591Y138197055D01*
X-113339700Y138350766D01*
X-113568664Y138471231D01*
X-113571320Y138472148D01*
X-113571322Y138472149D01*
X-113810557Y138554757D01*
X-113810559Y138554757D01*
X-113813216Y138555675D01*
X-113815977Y138556179D01*
X-113815980Y138556180D01*
X-113920227Y138575219D01*
X-114067727Y138602157D01*
X-114070089Y138602281D01*
X-114070091Y138602281D01*
X-114149634Y138606450D01*
X-114149648Y138606450D01*
X-114150595Y138606500D01*
X-114311729Y138606500D01*
X-114383223Y138601061D01*
X-114501181Y138592089D01*
X-114501187Y138592088D01*
X-114503975Y138591876D01*
X-114756014Y138533457D01*
X-114758625Y138532415D01*
X-114758626Y138532415D01*
X-114993708Y138438627D01*
X-114993714Y138438624D01*
X-114996316Y138437586D01*
X-114998735Y138436164D01*
X-114998739Y138436162D01*
X-115216927Y138307896D01*
X-115216931Y138307893D01*
X-115219352Y138306470D01*
X-115221531Y138304696D01*
X-115369780Y138184003D01*
X-115417598Y138167398D01*
X-115464902Y138185415D01*
X-115489558Y138229623D01*
X-115490500Y138241390D01*
X-115490500Y138856755D01*
X-115473187Y138904321D01*
X-115429350Y138929631D01*
X-115379500Y138920841D01*
X-115364174Y138909081D01*
X-115301618Y138846525D01*
X-115296428Y138843881D01*
X-115296426Y138843879D01*
X-115191512Y138790423D01*
X-115183350Y138786264D01*
X-115177598Y138785353D01*
X-115177595Y138785352D01*
X-115086692Y138770955D01*
X-115083819Y138770500D01*
X-114583181Y138770500D01*
X-114580308Y138770955D01*
X-114489405Y138785352D01*
X-114489402Y138785353D01*
X-114483650Y138786264D01*
X-114475488Y138790423D01*
X-114370574Y138843879D01*
X-114370572Y138843881D01*
X-114365382Y138846525D01*
X-114271525Y138940382D01*
X-114268881Y138945572D01*
X-114268879Y138945574D01*
X-114213910Y139053457D01*
X-114211264Y139058650D01*
X-114210353Y139064402D01*
X-114210352Y139064405D01*
X-114195955Y139155308D01*
X-114195500Y139158181D01*
X-114195500Y139486945D01*
X-114178187Y139534511D01*
X-114173826Y139539271D01*
X-114098944Y139614153D01*
X-114096302Y139619339D01*
X-114096298Y139619344D01*
X-114087099Y139637398D01*
X-114081032Y139647299D01*
X-114069119Y139663696D01*
X-114069117Y139663700D01*
X-114065697Y139668407D01*
X-114063212Y139676052D01*
X-114057634Y139693221D01*
X-114053191Y139703947D01*
X-114043990Y139722005D01*
X-114043988Y139722010D01*
X-114041347Y139727194D01*
X-114040594Y139731947D01*
X-114009715Y139771472D01*
X-113970448Y139779819D01*
X-114007486Y139799513D01*
X-114026492Y139849028D01*
X-114026492Y139915934D01*
X-114026497Y139915951D01*
X-114026500Y139915985D01*
X-114026500Y141972075D01*
X-113727000Y141972075D01*
X-113727000Y141482335D01*
X-113726904Y141479662D01*
X-113722061Y141411951D01*
X-113720660Y141404184D01*
X-113682134Y141272976D01*
X-113677778Y141263436D01*
X-113604561Y141149508D01*
X-113597700Y141141590D01*
X-113495346Y141052901D01*
X-113486539Y141047240D01*
X-113363344Y140990979D01*
X-113353288Y140988027D01*
X-113226914Y140969857D01*
X-113216505Y140972035D01*
X-113214000Y140975220D01*
X-113214000Y141967952D01*
X-113217638Y141977948D01*
X-113222925Y141981000D01*
X-113713952Y141981000D01*
X-113723948Y141977362D01*
X-113727000Y141972075D01*
X-114026500Y141972075D01*
X-114026500Y143243836D01*
X-114009187Y143291402D01*
X-113965350Y143316712D01*
X-113915500Y143307922D01*
X-113907452Y143302544D01*
X-113842041Y143252352D01*
X-113842037Y143252350D01*
X-113838193Y143249400D01*
X-113787715Y143228491D01*
X-113731293Y143205120D01*
X-113693973Y143170922D01*
X-113687366Y143120736D01*
X-113692299Y143106013D01*
X-113704020Y143080347D01*
X-113706973Y143070288D01*
X-113726623Y142933620D01*
X-113727000Y142928351D01*
X-113727000Y142444048D01*
X-113723362Y142434052D01*
X-113718075Y142431000D01*
X-112843500Y142431000D01*
X-112795934Y142413687D01*
X-112770624Y142369850D01*
X-112769500Y142357000D01*
X-112769500Y141481000D01*
X-112768790Y141477431D01*
X-112768790Y141477430D01*
X-112765422Y141460499D01*
X-112764000Y141446062D01*
X-112764000Y140981048D01*
X-112753986Y140953535D01*
X-112743971Y140941601D01*
X-112739507Y140916289D01*
X-112739507Y140876066D01*
X-112737708Y140870530D01*
X-112737708Y140870528D01*
X-112731445Y140851250D01*
X-112728735Y140839963D01*
X-112724653Y140814194D01*
X-112722008Y140809003D01*
X-112722007Y140809000D01*
X-112712809Y140790948D01*
X-112708365Y140780220D01*
X-112702384Y140761813D01*
X-112700303Y140755407D01*
X-112696881Y140750698D01*
X-112696879Y140750693D01*
X-112684968Y140734299D01*
X-112678901Y140724398D01*
X-112669702Y140706344D01*
X-112669698Y140706339D01*
X-112667056Y140701153D01*
X-112577347Y140611444D01*
X-112577332Y140611437D01*
X-112577308Y140611416D01*
X-112203174Y140237282D01*
X-112181782Y140191406D01*
X-112181500Y140184956D01*
X-112181500Y139894480D01*
X-112198813Y139846914D01*
X-112242650Y139821604D01*
X-112284267Y139827824D01*
X-112284467Y139827209D01*
X-112288139Y139828402D01*
X-112289094Y139828545D01*
X-112295194Y139831653D01*
X-112314740Y139834749D01*
X-112320963Y139835735D01*
X-112332250Y139838445D01*
X-112351528Y139844708D01*
X-112351530Y139844708D01*
X-112357066Y139846507D01*
X-112483934Y139846507D01*
X-112483949Y139846502D01*
X-112483979Y139846500D01*
X-112597617Y139846500D01*
X-112645183Y139863813D01*
X-112663551Y139886904D01*
X-112670588Y139900715D01*
X-112696525Y139951618D01*
X-112790382Y140045475D01*
X-112795572Y140048119D01*
X-112795574Y140048121D01*
X-112903457Y140103090D01*
X-112908650Y140105736D01*
X-112914402Y140106647D01*
X-112914405Y140106648D01*
X-113005308Y140121045D01*
X-113008181Y140121500D01*
X-113508819Y140121500D01*
X-113511692Y140121045D01*
X-113602595Y140106648D01*
X-113602598Y140106647D01*
X-113608350Y140105736D01*
X-113613543Y140103090D01*
X-113721426Y140048121D01*
X-113721428Y140048119D01*
X-113726618Y140045475D01*
X-113820475Y139951618D01*
X-113823118Y139946430D01*
X-113823121Y139946426D01*
X-113874949Y139844708D01*
X-113880736Y139833350D01*
X-113881648Y139827595D01*
X-113882114Y139826159D01*
X-113913279Y139786272D01*
X-113952545Y139777926D01*
X-113915508Y139758233D01*
X-113896500Y139708717D01*
X-113896500Y139158181D01*
X-113896045Y139155308D01*
X-113881648Y139064405D01*
X-113881647Y139064402D01*
X-113880736Y139058650D01*
X-113878090Y139053457D01*
X-113823121Y138945574D01*
X-113823119Y138945572D01*
X-113820475Y138940382D01*
X-113726618Y138846525D01*
X-113721428Y138843881D01*
X-113721426Y138843879D01*
X-113616512Y138790423D01*
X-113608350Y138786264D01*
X-113602598Y138785353D01*
X-113602595Y138785352D01*
X-113511692Y138770955D01*
X-113508819Y138770500D01*
X-113008181Y138770500D01*
X-113005308Y138770955D01*
X-112914405Y138785352D01*
X-112914402Y138785353D01*
X-112908650Y138786264D01*
X-112900488Y138790423D01*
X-112795574Y138843879D01*
X-112795572Y138843881D01*
X-112790382Y138846525D01*
X-112696525Y138940382D01*
X-112693882Y138945570D01*
X-112693880Y138945572D01*
X-112670109Y138992225D01*
X-112633089Y139026747D01*
X-112582539Y139029396D01*
X-112551849Y139010956D01*
X-112203174Y138662281D01*
X-112181782Y138616405D01*
X-112181500Y138609956D01*
X-112181500Y138281181D01*
X-112181045Y138278308D01*
X-112166648Y138187405D01*
X-112166647Y138187402D01*
X-112165736Y138181650D01*
X-112163090Y138176457D01*
X-112108121Y138068574D01*
X-112108119Y138068572D01*
X-112105475Y138063382D01*
X-112011618Y137969525D01*
X-112006428Y137966881D01*
X-112006426Y137966879D01*
X-111936633Y137931318D01*
X-111893350Y137909264D01*
X-111887598Y137908353D01*
X-111887595Y137908352D01*
X-111796692Y137893955D01*
X-111793819Y137893500D01*
X-111218181Y137893500D01*
X-111215308Y137893955D01*
X-111124405Y137908352D01*
X-111124402Y137908353D01*
X-111118650Y137909264D01*
X-111075367Y137931318D01*
X-111005574Y137966879D01*
X-111005572Y137966881D01*
X-111000382Y137969525D01*
X-110906525Y138063382D01*
X-110903881Y138068571D01*
X-110892658Y138090596D01*
X-110855638Y138125118D01*
X-110826724Y138131000D01*
X-110153276Y138131000D01*
X-110105710Y138113687D01*
X-110087342Y138090596D01*
X-110076119Y138068571D01*
X-110073475Y138063382D01*
X-109979618Y137969525D01*
X-109974428Y137966881D01*
X-109974426Y137966879D01*
X-109904633Y137931318D01*
X-109861350Y137909264D01*
X-109855598Y137908353D01*
X-109855595Y137908352D01*
X-109764692Y137893955D01*
X-109761819Y137893500D01*
X-109186181Y137893500D01*
X-109183308Y137893955D01*
X-109092405Y137908352D01*
X-109092402Y137908353D01*
X-109086650Y137909264D01*
X-109043367Y137931318D01*
X-108973574Y137966879D01*
X-108973572Y137966881D01*
X-108968382Y137969525D01*
X-108874525Y138063382D01*
X-108871881Y138068572D01*
X-108871879Y138068574D01*
X-108816910Y138176457D01*
X-108814264Y138181650D01*
X-108813353Y138187402D01*
X-108813352Y138187405D01*
X-108798955Y138278308D01*
X-108798500Y138281181D01*
X-108798500Y138609956D01*
X-108781187Y138657522D01*
X-108776826Y138662282D01*
X-108361172Y139077936D01*
X-108361148Y139077957D01*
X-108361133Y139077964D01*
X-108271424Y139167673D01*
X-108268782Y139172859D01*
X-108268778Y139172864D01*
X-108259579Y139190918D01*
X-108253512Y139200819D01*
X-108241601Y139217213D01*
X-108241599Y139217218D01*
X-108238177Y139221927D01*
X-108230115Y139246740D01*
X-108225671Y139257468D01*
X-108216473Y139275520D01*
X-108216472Y139275523D01*
X-108213827Y139280714D01*
X-108209745Y139306483D01*
X-108207035Y139317770D01*
X-108200772Y139337048D01*
X-108200772Y139337050D01*
X-108198973Y139342586D01*
X-108198973Y139469454D01*
X-108198978Y139469469D01*
X-108198980Y139469499D01*
X-108198980Y140418075D01*
X-105054000Y140418075D01*
X-105054000Y140390257D01*
X-105053752Y140385987D01*
X-105039033Y140259744D01*
X-105037067Y140251428D01*
X-104979709Y140093406D01*
X-104975880Y140085761D01*
X-104883705Y139945171D01*
X-104878223Y139938615D01*
X-104756175Y139822998D01*
X-104749341Y139817885D01*
X-104603961Y139733441D01*
X-104596133Y139730037D01*
X-104434754Y139681161D01*
X-104427329Y139679721D01*
X-104353671Y139673147D01*
X-104350369Y139673000D01*
X-103463048Y139673000D01*
X-103453052Y139676638D01*
X-103450000Y139681925D01*
X-103450000Y140413952D01*
X-103453638Y140423948D01*
X-103458925Y140427000D01*
X-105040952Y140427000D01*
X-105050948Y140423362D01*
X-105054000Y140418075D01*
X-108198980Y140418075D01*
X-108198980Y140985369D01*
X-105054000Y140985369D01*
X-105054000Y140948048D01*
X-105050362Y140938052D01*
X-105045075Y140935000D01*
X-103463048Y140935000D01*
X-103453052Y140938638D01*
X-103450000Y140943925D01*
X-103450000Y141675952D01*
X-103453638Y141685948D01*
X-103458925Y141689000D01*
X-104336743Y141689000D01*
X-104341013Y141688752D01*
X-104467256Y141674033D01*
X-104475572Y141672067D01*
X-104633594Y141614709D01*
X-104641239Y141610880D01*
X-104781829Y141518705D01*
X-104788385Y141513223D01*
X-104904002Y141391175D01*
X-104909115Y141384341D01*
X-104993559Y141238961D01*
X-104996963Y141231133D01*
X-105045839Y141069754D01*
X-105047279Y141062329D01*
X-105053853Y140988671D01*
X-105054000Y140985369D01*
X-108198980Y140985369D01*
X-108198980Y141060995D01*
X-108198977Y141061029D01*
X-108198972Y141061046D01*
X-108198972Y141187914D01*
X-108207037Y141212735D01*
X-108209746Y141224020D01*
X-108212916Y141244036D01*
X-108212916Y141244038D01*
X-108213827Y141249786D01*
X-108216468Y141254970D01*
X-108216470Y141254975D01*
X-108225671Y141273033D01*
X-108230114Y141283759D01*
X-108236378Y141303038D01*
X-108236379Y141303041D01*
X-108238177Y141308573D01*
X-108241597Y141313280D01*
X-108241599Y141313284D01*
X-108253512Y141329681D01*
X-108259579Y141339582D01*
X-108268778Y141357636D01*
X-108268782Y141357641D01*
X-108271424Y141362827D01*
X-108361133Y141452536D01*
X-108361148Y141452543D01*
X-108361172Y141452564D01*
X-108670826Y141762218D01*
X-108692218Y141808094D01*
X-108692500Y141814544D01*
X-108692500Y142269677D01*
X-107744937Y142269677D01*
X-107738755Y142220740D01*
X-107736456Y142211788D01*
X-107678706Y142065928D01*
X-107674253Y142057829D01*
X-107582043Y141930913D01*
X-107575718Y141924177D01*
X-107454843Y141824180D01*
X-107447039Y141819228D01*
X-107305092Y141752433D01*
X-107296304Y141749577D01*
X-107160408Y141723653D01*
X-107153499Y141723000D01*
X-106663048Y141723000D01*
X-106653052Y141726638D01*
X-106650000Y141731925D01*
X-106650000Y142263952D01*
X-106651501Y142268075D01*
X-106142000Y142268075D01*
X-106142000Y141736048D01*
X-106138362Y141726052D01*
X-106133075Y141723000D01*
X-105658739Y141723000D01*
X-105654123Y141723290D01*
X-105535734Y141738246D01*
X-105526790Y141740543D01*
X-105380928Y141798294D01*
X-105372829Y141802747D01*
X-105245913Y141894957D01*
X-105239177Y141901282D01*
X-105139180Y142022157D01*
X-105134228Y142029961D01*
X-105067433Y142171908D01*
X-105064577Y142180696D01*
X-105048651Y142264182D01*
X-105050352Y142274683D01*
X-105053036Y142277000D01*
X-106128952Y142277000D01*
X-106138948Y142273362D01*
X-106142000Y142268075D01*
X-106651501Y142268075D01*
X-106653638Y142273948D01*
X-106658925Y142277000D01*
X-107732814Y142277000D01*
X-107742810Y142273362D01*
X-107744937Y142269677D01*
X-108692500Y142269677D01*
X-108692500Y143356851D01*
X-108675187Y143404417D01*
X-108631350Y143429727D01*
X-108581500Y143420937D01*
X-108559792Y143401899D01*
X-108542918Y143379909D01*
X-108522153Y143352847D01*
X-108518302Y143349892D01*
X-108400598Y143259574D01*
X-108400594Y143259572D01*
X-108396750Y143256622D01*
X-108250715Y143196132D01*
X-108245913Y143195500D01*
X-108245910Y143195499D01*
X-108098808Y143176133D01*
X-108094000Y143175500D01*
X-108089192Y143176133D01*
X-107942090Y143195499D01*
X-107942087Y143195500D01*
X-107937285Y143196132D01*
X-107791250Y143256622D01*
X-107787406Y143259572D01*
X-107787402Y143259574D01*
X-107669698Y143349892D01*
X-107665847Y143352847D01*
X-107661632Y143358340D01*
X-107572574Y143474402D01*
X-107572572Y143474406D01*
X-107569622Y143478250D01*
X-107560761Y143499642D01*
X-107526563Y143536962D01*
X-107476377Y143543569D01*
X-107433686Y143516371D01*
X-107427272Y143506467D01*
X-107376900Y143413112D01*
X-107372409Y143408960D01*
X-107372407Y143408958D01*
X-107360361Y143397823D01*
X-107337184Y143352822D01*
X-107348357Y143303451D01*
X-107383352Y143274681D01*
X-107411072Y143263706D01*
X-107419171Y143259253D01*
X-107546087Y143167043D01*
X-107552823Y143160718D01*
X-107652820Y143039843D01*
X-107657772Y143032039D01*
X-107724567Y142890092D01*
X-107727423Y142881304D01*
X-107743349Y142797818D01*
X-107741648Y142787317D01*
X-107738964Y142785000D01*
X-105059186Y142785000D01*
X-105049190Y142788638D01*
X-105047063Y142792323D01*
X-105053245Y142841260D01*
X-105055544Y142850212D01*
X-105113294Y142996072D01*
X-105117747Y143004171D01*
X-105209953Y143131082D01*
X-105211429Y143132654D01*
X-105211910Y143133776D01*
X-105212694Y143134855D01*
X-105212449Y143135033D01*
X-105231371Y143179179D01*
X-105216743Y143227638D01*
X-105174388Y143255357D01*
X-105129169Y143251680D01*
X-105110231Y143243836D01*
X-105103215Y143240930D01*
X-105098413Y143240298D01*
X-105098410Y143240297D01*
X-104951308Y143220931D01*
X-104946500Y143220298D01*
X-104941692Y143220931D01*
X-104794590Y143240297D01*
X-104794587Y143240298D01*
X-104789785Y143240930D01*
X-104643750Y143301420D01*
X-104639906Y143304370D01*
X-104639902Y143304372D01*
X-104522198Y143394690D01*
X-104518347Y143397645D01*
X-104500474Y143420937D01*
X-104425074Y143519200D01*
X-104425072Y143519204D01*
X-104422122Y143523048D01*
X-104361632Y143669083D01*
X-104360201Y143679946D01*
X-104341633Y143820990D01*
X-104341000Y143825798D01*
X-104350202Y143895694D01*
X-104360999Y143977708D01*
X-104361000Y143977711D01*
X-104361632Y143982513D01*
X-104422122Y144128548D01*
X-104425072Y144132392D01*
X-104425074Y144132396D01*
X-104515392Y144250100D01*
X-104518347Y144253951D01*
X-104522198Y144256906D01*
X-104639902Y144347224D01*
X-104639906Y144347226D01*
X-104643750Y144350176D01*
X-104789785Y144410666D01*
X-104794587Y144411298D01*
X-104794590Y144411299D01*
X-104941692Y144430665D01*
X-104946500Y144431298D01*
X-104951308Y144430665D01*
X-105098410Y144411299D01*
X-105098413Y144411298D01*
X-105103215Y144410666D01*
X-105249250Y144350176D01*
X-105253094Y144347226D01*
X-105253098Y144347224D01*
X-105317044Y144298156D01*
X-105374653Y144253951D01*
X-105377605Y144250104D01*
X-105377606Y144250103D01*
X-105389224Y144234962D01*
X-105431916Y144207765D01*
X-105482102Y144214372D01*
X-105491143Y144220734D01*
X-105491218Y144220619D01*
X-105496328Y144223975D01*
X-105500822Y144228130D01*
X-105565911Y144256905D01*
X-105602666Y144273154D01*
X-105602668Y144273154D01*
X-105607591Y144275331D01*
X-105656422Y144281500D01*
X-107126039Y144281500D01*
X-107175083Y144273337D01*
X-107205123Y144268337D01*
X-107205125Y144268336D01*
X-107211153Y144267333D01*
X-107313888Y144211900D01*
X-107339352Y144184354D01*
X-107386913Y144132903D01*
X-107393130Y144126178D01*
X-107411584Y144084434D01*
X-107423426Y144057648D01*
X-107458493Y144021144D01*
X-107508820Y144015720D01*
X-107550860Y144043916D01*
X-107559474Y144059251D01*
X-107567765Y144079269D01*
X-107567768Y144079275D01*
X-107569622Y144083750D01*
X-107572572Y144087594D01*
X-107572574Y144087598D01*
X-107630078Y144162538D01*
X-107645300Y144210814D01*
X-107623696Y144259912D01*
X-107332975Y144550633D01*
X-107287099Y144572025D01*
X-107250729Y144565988D01*
X-107218834Y144551888D01*
X-107189334Y144538846D01*
X-107189332Y144538846D01*
X-107184409Y144536669D01*
X-107135578Y144530500D01*
X-105665961Y144530500D01*
X-105608327Y144540093D01*
X-105586877Y144543663D01*
X-105586875Y144543664D01*
X-105580847Y144544667D01*
X-105478112Y144600100D01*
X-105398870Y144685822D01*
X-105366701Y144758589D01*
X-105353846Y144787666D01*
X-105353846Y144787668D01*
X-105351669Y144792591D01*
X-105345500Y144841422D01*
X-105345500Y145211039D01*
X-105355199Y145269308D01*
X-105358663Y145290123D01*
X-105358664Y145290125D01*
X-105359667Y145296153D01*
X-105415100Y145398888D01*
X-105500822Y145478130D01*
X-105569630Y145508549D01*
X-105602666Y145523154D01*
X-105602668Y145523154D01*
X-105607591Y145525331D01*
X-105656422Y145531500D01*
X-107126039Y145531500D01*
X-107175083Y145523337D01*
X-107205123Y145518337D01*
X-107205125Y145518336D01*
X-107211153Y145517333D01*
X-107313888Y145461900D01*
X-107318039Y145457410D01*
X-107318041Y145457408D01*
X-107320011Y145455276D01*
X-107322325Y145454084D01*
X-107322872Y145453660D01*
X-107322951Y145453762D01*
X-107365012Y145432099D01*
X-107374351Y145431507D01*
X-107482434Y145431507D01*
X-107507249Y145423444D01*
X-107518530Y145420736D01*
X-107544306Y145416653D01*
X-107549496Y145414009D01*
X-107549501Y145414007D01*
X-107567556Y145404807D01*
X-107578284Y145400363D01*
X-107597554Y145394102D01*
X-107597555Y145394101D01*
X-107603093Y145392302D01*
X-107624206Y145376963D01*
X-107634094Y145370904D01*
X-107657347Y145359056D01*
X-107747056Y145269347D01*
X-107747063Y145269332D01*
X-107747084Y145269308D01*
X-108332308Y144684084D01*
X-108332332Y144684063D01*
X-108332347Y144684056D01*
X-108422056Y144594347D01*
X-108424698Y144589161D01*
X-108424702Y144589156D01*
X-108433901Y144571102D01*
X-108439968Y144561201D01*
X-108451879Y144544807D01*
X-108451881Y144544802D01*
X-108455303Y144540093D01*
X-108457102Y144534556D01*
X-108457103Y144534554D01*
X-108463365Y144515280D01*
X-108467809Y144504552D01*
X-108477007Y144486500D01*
X-108477008Y144486497D01*
X-108479653Y144481306D01*
X-108480564Y144475553D01*
X-108483735Y144455537D01*
X-108486445Y144444250D01*
X-108492708Y144424972D01*
X-108494507Y144419434D01*
X-108494507Y144292566D01*
X-108494502Y144292551D01*
X-108494500Y144292521D01*
X-108494500Y144266562D01*
X-108511813Y144218996D01*
X-108516174Y144214236D01*
X-108518302Y144212108D01*
X-108522153Y144209153D01*
X-108525108Y144205302D01*
X-108559792Y144160101D01*
X-108602484Y144132903D01*
X-108652669Y144139510D01*
X-108686867Y144176830D01*
X-108692500Y144205149D01*
X-108692500Y144855617D01*
X-108675187Y144903183D01*
X-108652096Y144921551D01*
X-108606123Y144944976D01*
X-108587382Y144954525D01*
X-108493525Y145048382D01*
X-108490881Y145053572D01*
X-108490879Y145053574D01*
X-108435910Y145161457D01*
X-108433264Y145166650D01*
X-108432353Y145172402D01*
X-108432352Y145172405D01*
X-108417955Y145263308D01*
X-108417500Y145266181D01*
X-108417500Y145594956D01*
X-108400187Y145642522D01*
X-108395826Y145647282D01*
X-107980172Y146062936D01*
X-107980148Y146062957D01*
X-107980133Y146062964D01*
X-107890424Y146152673D01*
X-107887782Y146157859D01*
X-107887778Y146157864D01*
X-107878579Y146175918D01*
X-107872512Y146185819D01*
X-107860601Y146202213D01*
X-107860599Y146202218D01*
X-107857177Y146206927D01*
X-107852858Y146220218D01*
X-107849115Y146231740D01*
X-107844671Y146242468D01*
X-107835473Y146260520D01*
X-107835472Y146260523D01*
X-107832827Y146265714D01*
X-107828745Y146291483D01*
X-107826035Y146302770D01*
X-107819772Y146322048D01*
X-107819772Y146322050D01*
X-107817973Y146327586D01*
X-107817973Y146454454D01*
X-107817978Y146454469D01*
X-107817980Y146454499D01*
X-107817980Y146470578D01*
X-107446500Y146470578D01*
X-107446500Y146100961D01*
X-107441963Y146073704D01*
X-107433521Y146022987D01*
X-107432333Y146015847D01*
X-107376900Y145913112D01*
X-107291178Y145833870D01*
X-107267275Y145823303D01*
X-107189334Y145788846D01*
X-107189332Y145788846D01*
X-107184409Y145786669D01*
X-107135578Y145780500D01*
X-105665961Y145780500D01*
X-105615819Y145788846D01*
X-105586877Y145793663D01*
X-105586875Y145793664D01*
X-105580847Y145794667D01*
X-105478112Y145850100D01*
X-105398870Y145935822D01*
X-105368265Y146005050D01*
X-105353846Y146037666D01*
X-105353846Y146037668D01*
X-105351669Y146042591D01*
X-105345500Y146091422D01*
X-105345500Y146461039D01*
X-105354326Y146514065D01*
X-105358663Y146540123D01*
X-105358664Y146540125D01*
X-105359667Y146546153D01*
X-105415100Y146648888D01*
X-105486407Y146714805D01*
X-105496328Y146723976D01*
X-105496329Y146723977D01*
X-105500822Y146728130D01*
X-105575611Y146761193D01*
X-105602666Y146773154D01*
X-105602668Y146773154D01*
X-105607591Y146775331D01*
X-105656422Y146781500D01*
X-105932462Y146781500D01*
X-105980028Y146798813D01*
X-106005338Y146842650D01*
X-105996548Y146892500D01*
X-105991170Y146900548D01*
X-105904574Y147013402D01*
X-105904572Y147013406D01*
X-105901622Y147017250D01*
X-105841132Y147163285D01*
X-105838926Y147180037D01*
X-105821133Y147315192D01*
X-105820500Y147320000D01*
X-105830988Y147399662D01*
X-105840499Y147471910D01*
X-105840500Y147471913D01*
X-105841132Y147476715D01*
X-105901622Y147622750D01*
X-105904572Y147626594D01*
X-105904574Y147626598D01*
X-105994892Y147744302D01*
X-105997847Y147748153D01*
X-106025813Y147769612D01*
X-106119402Y147841426D01*
X-106119406Y147841428D01*
X-106123250Y147844378D01*
X-106180459Y147868075D01*
X-105054000Y147868075D01*
X-105054000Y147840257D01*
X-105053752Y147835987D01*
X-105039033Y147709744D01*
X-105037067Y147701428D01*
X-104979709Y147543406D01*
X-104975880Y147535761D01*
X-104883705Y147395171D01*
X-104878223Y147388615D01*
X-104756175Y147272998D01*
X-104749341Y147267885D01*
X-104603961Y147183441D01*
X-104596133Y147180037D01*
X-104434754Y147131161D01*
X-104427329Y147129721D01*
X-104353671Y147123147D01*
X-104350369Y147123000D01*
X-103463048Y147123000D01*
X-103453052Y147126638D01*
X-103450000Y147131925D01*
X-103450000Y147863952D01*
X-103453638Y147873948D01*
X-103458925Y147877000D01*
X-105040952Y147877000D01*
X-105050948Y147873362D01*
X-105054000Y147868075D01*
X-106180459Y147868075D01*
X-106269285Y147904868D01*
X-106274087Y147905500D01*
X-106274090Y147905501D01*
X-106421192Y147924867D01*
X-106426000Y147925500D01*
X-106430808Y147924867D01*
X-106577910Y147905501D01*
X-106577913Y147905500D01*
X-106582715Y147904868D01*
X-106728750Y147844378D01*
X-106732594Y147841428D01*
X-106732598Y147841426D01*
X-106826187Y147769612D01*
X-106854153Y147748153D01*
X-106857108Y147744302D01*
X-106947426Y147626598D01*
X-106947428Y147626594D01*
X-106950378Y147622750D01*
X-107010868Y147476715D01*
X-107011500Y147471913D01*
X-107011501Y147471910D01*
X-107021012Y147399662D01*
X-107031500Y147320000D01*
X-107030867Y147315192D01*
X-107013073Y147180037D01*
X-107010868Y147163285D01*
X-106950378Y147017250D01*
X-106947428Y147013406D01*
X-106947426Y147013402D01*
X-106860830Y146900548D01*
X-106845608Y146852272D01*
X-106864980Y146805506D01*
X-106909879Y146782133D01*
X-106919538Y146781500D01*
X-107126039Y146781500D01*
X-107175083Y146773337D01*
X-107205123Y146768337D01*
X-107205125Y146768336D01*
X-107211153Y146767333D01*
X-107313888Y146711900D01*
X-107318041Y146707407D01*
X-107388391Y146631304D01*
X-107393130Y146626178D01*
X-107395604Y146620581D01*
X-107433438Y146535000D01*
X-107440331Y146519409D01*
X-107446500Y146470578D01*
X-107817980Y146470578D01*
X-107817980Y148435369D01*
X-105054000Y148435369D01*
X-105054000Y148398048D01*
X-105050362Y148388052D01*
X-105045075Y148385000D01*
X-103463048Y148385000D01*
X-103453052Y148388638D01*
X-103450000Y148393925D01*
X-103450000Y149125952D01*
X-103453638Y149135948D01*
X-103458925Y149139000D01*
X-104336743Y149139000D01*
X-104341013Y149138752D01*
X-104467256Y149124033D01*
X-104475572Y149122067D01*
X-104633594Y149064709D01*
X-104641239Y149060880D01*
X-104781829Y148968705D01*
X-104788385Y148963223D01*
X-104904002Y148841175D01*
X-104909115Y148834341D01*
X-104993559Y148688961D01*
X-104996963Y148681133D01*
X-105045839Y148519754D01*
X-105047279Y148512329D01*
X-105053853Y148438671D01*
X-105054000Y148435369D01*
X-107817980Y148435369D01*
X-107817980Y148922001D01*
X-107817978Y148922031D01*
X-107817973Y148922046D01*
X-107817973Y149048914D01*
X-107826036Y149073729D01*
X-107828745Y149085013D01*
X-107829052Y149086951D01*
X-107832827Y149110786D01*
X-107835471Y149115976D01*
X-107835473Y149115981D01*
X-107844673Y149134036D01*
X-107849117Y149144764D01*
X-107855379Y149164036D01*
X-107857178Y149169573D01*
X-107872510Y149190676D01*
X-107878576Y149200576D01*
X-107887778Y149218636D01*
X-107887782Y149218641D01*
X-107890424Y149223827D01*
X-107980133Y149313536D01*
X-107980146Y149313543D01*
X-107980169Y149313562D01*
X-108776826Y150110218D01*
X-108798218Y150156094D01*
X-108798500Y150162544D01*
X-108798500Y150491319D01*
X-108812246Y150578109D01*
X-108813352Y150585095D01*
X-108813353Y150585098D01*
X-108814264Y150590850D01*
X-108838940Y150639279D01*
X-108871879Y150703926D01*
X-108871881Y150703929D01*
X-108874525Y150709118D01*
X-108968382Y150802975D01*
X-108973572Y150805619D01*
X-108973574Y150805621D01*
X-109081457Y150860590D01*
X-109086650Y150863236D01*
X-109092402Y150864147D01*
X-109092405Y150864148D01*
X-109183308Y150878545D01*
X-109186181Y150879000D01*
X-109761819Y150879000D01*
X-109764692Y150878545D01*
X-109855595Y150864148D01*
X-109855598Y150864147D01*
X-109861350Y150863236D01*
X-109866543Y150860590D01*
X-109974426Y150805621D01*
X-109974428Y150805619D01*
X-109979618Y150802975D01*
X-110073475Y150709118D01*
X-110076119Y150703929D01*
X-110087342Y150681904D01*
X-110124362Y150647382D01*
X-110153276Y150641500D01*
X-110826724Y150641500D01*
X-110874290Y150658813D01*
X-110892658Y150681904D01*
X-110903881Y150703929D01*
X-110906525Y150709118D01*
X-111000382Y150802975D01*
X-111005572Y150805619D01*
X-111005574Y150805621D01*
X-111113457Y150860590D01*
X-111118650Y150863236D01*
X-111124402Y150864147D01*
X-111124405Y150864148D01*
X-111215308Y150878545D01*
X-111218181Y150879000D01*
X-111793819Y150879000D01*
X-111796692Y150878545D01*
X-111887595Y150864148D01*
X-111887598Y150864147D01*
X-111893350Y150863236D01*
X-111898543Y150860590D01*
X-112006426Y150805621D01*
X-112006428Y150805619D01*
X-112011618Y150802975D01*
X-112105475Y150709118D01*
X-112108119Y150703929D01*
X-112108121Y150703926D01*
X-112141060Y150639279D01*
X-112165736Y150590850D01*
X-112166647Y150585098D01*
X-112166648Y150585095D01*
X-112167754Y150578109D01*
X-112181500Y150491319D01*
X-112181500Y149990681D01*
X-112181045Y149987808D01*
X-112166648Y149896905D01*
X-112166647Y149896902D01*
X-112165736Y149891150D01*
X-112163090Y149885957D01*
X-112108121Y149778074D01*
X-112108119Y149778072D01*
X-112105475Y149772882D01*
X-112011618Y149679025D01*
X-112006428Y149676381D01*
X-112006426Y149676379D01*
X-111958579Y149652000D01*
X-111893350Y149618764D01*
X-111887598Y149617853D01*
X-111887595Y149617852D01*
X-111796692Y149603455D01*
X-111793819Y149603000D01*
X-111218181Y149603000D01*
X-111215308Y149603455D01*
X-111124405Y149617852D01*
X-111124402Y149617853D01*
X-111118650Y149618764D01*
X-111053421Y149652000D01*
X-111005574Y149676379D01*
X-111005572Y149676381D01*
X-111000382Y149679025D01*
X-110906525Y149772882D01*
X-110903881Y149778071D01*
X-110892658Y149800096D01*
X-110855638Y149834618D01*
X-110826724Y149840500D01*
X-110153276Y149840500D01*
X-110105710Y149823187D01*
X-110087342Y149800096D01*
X-110076119Y149778071D01*
X-110073475Y149772882D01*
X-109979618Y149679025D01*
X-109974428Y149676381D01*
X-109974426Y149676379D01*
X-109926579Y149652000D01*
X-109861350Y149618764D01*
X-109855598Y149617853D01*
X-109855595Y149617852D01*
X-109764692Y149603455D01*
X-109761819Y149603000D01*
X-109433044Y149603000D01*
X-109385478Y149585687D01*
X-109380718Y149581326D01*
X-109229719Y149430326D01*
X-109208327Y149384449D01*
X-109221428Y149335555D01*
X-109262893Y149306521D01*
X-109282045Y149304000D01*
X-109761819Y149304000D01*
X-109764692Y149303545D01*
X-109855595Y149289148D01*
X-109855598Y149289147D01*
X-109861350Y149288236D01*
X-109866543Y149285590D01*
X-109974426Y149230621D01*
X-109974428Y149230619D01*
X-109979618Y149227975D01*
X-110073475Y149134118D01*
X-110079615Y149122067D01*
X-110087338Y149106911D01*
X-110124359Y149072389D01*
X-110153272Y149066507D01*
X-110212998Y149066507D01*
X-110218534Y149064708D01*
X-110218536Y149064708D01*
X-110237814Y149058445D01*
X-110249101Y149055735D01*
X-110255324Y149054749D01*
X-110274870Y149051653D01*
X-110280061Y149049008D01*
X-110280064Y149049007D01*
X-110298116Y149039809D01*
X-110308844Y149035365D01*
X-110328118Y149029103D01*
X-110328120Y149029102D01*
X-110333657Y149027303D01*
X-110338366Y149023881D01*
X-110338371Y149023879D01*
X-110354765Y149011968D01*
X-110364666Y149005901D01*
X-110382720Y148996702D01*
X-110382725Y148996698D01*
X-110387911Y148994056D01*
X-110477620Y148904347D01*
X-110477627Y148904332D01*
X-110477648Y148904308D01*
X-110704174Y148677782D01*
X-110750050Y148656390D01*
X-110798945Y148669491D01*
X-110827979Y148710955D01*
X-110830500Y148730108D01*
X-110830500Y148916319D01*
X-110832818Y148930955D01*
X-110845352Y149010095D01*
X-110845353Y149010098D01*
X-110846264Y149015850D01*
X-110858472Y149039809D01*
X-110903879Y149128926D01*
X-110903882Y149128930D01*
X-110906525Y149134118D01*
X-111000382Y149227975D01*
X-111005572Y149230619D01*
X-111005574Y149230621D01*
X-111113457Y149285590D01*
X-111118650Y149288236D01*
X-111124402Y149289147D01*
X-111124405Y149289148D01*
X-111215308Y149303545D01*
X-111218181Y149304000D01*
X-111793819Y149304000D01*
X-111796692Y149303545D01*
X-111887595Y149289148D01*
X-111887598Y149289147D01*
X-111893350Y149288236D01*
X-111898543Y149285590D01*
X-112006426Y149230621D01*
X-112006428Y149230619D01*
X-112011618Y149227975D01*
X-112105475Y149134118D01*
X-112108118Y149128930D01*
X-112108121Y149128926D01*
X-112153528Y149039809D01*
X-112165736Y149015850D01*
X-112166647Y149010098D01*
X-112166648Y149010095D01*
X-112179182Y148930955D01*
X-112181500Y148916319D01*
X-112181500Y148587544D01*
X-112198813Y148539978D01*
X-112203174Y148535218D01*
X-112577308Y148161084D01*
X-112577332Y148161063D01*
X-112577347Y148161056D01*
X-112667056Y148071347D01*
X-112669698Y148066161D01*
X-112669702Y148066156D01*
X-112678901Y148048102D01*
X-112684968Y148038201D01*
X-112696879Y148021807D01*
X-112696881Y148021802D01*
X-112700303Y148017093D01*
X-112702102Y148011556D01*
X-112702103Y148011554D01*
X-112708365Y147992280D01*
X-112712809Y147981552D01*
X-112722007Y147963500D01*
X-112722008Y147963497D01*
X-112724653Y147958306D01*
X-112725564Y147952553D01*
X-112728735Y147932537D01*
X-112731445Y147921250D01*
X-112737708Y147901972D01*
X-112739507Y147896434D01*
X-112739507Y147769566D01*
X-112739502Y147769551D01*
X-112739500Y147769521D01*
X-112739500Y147610500D01*
X-112756813Y147562934D01*
X-112800650Y147537624D01*
X-112813500Y147536500D01*
X-113214000Y147536500D01*
X-113217569Y147535790D01*
X-113217570Y147535790D01*
X-113285494Y147522279D01*
X-113285496Y147522278D01*
X-113292641Y147520857D01*
X-113359310Y147476310D01*
X-113403857Y147409641D01*
X-113405278Y147402496D01*
X-113405279Y147402494D01*
X-113412156Y147367921D01*
X-113419500Y147331000D01*
X-113419500Y146272544D01*
X-113436813Y146224978D01*
X-113441174Y146220218D01*
X-114665308Y144996084D01*
X-114665332Y144996063D01*
X-114665347Y144996056D01*
X-114755056Y144906347D01*
X-114757698Y144901161D01*
X-114757702Y144901156D01*
X-114766901Y144883102D01*
X-114772968Y144873201D01*
X-114784879Y144856807D01*
X-114784881Y144856802D01*
X-114788303Y144852093D01*
X-114790102Y144846556D01*
X-114790103Y144846554D01*
X-114796365Y144827280D01*
X-114800809Y144816552D01*
X-114810007Y144798500D01*
X-114810008Y144798497D01*
X-114812653Y144793306D01*
X-114813564Y144787553D01*
X-114816735Y144767537D01*
X-114819445Y144756250D01*
X-114822991Y144745334D01*
X-114827507Y144731434D01*
X-114827507Y144604566D01*
X-114827502Y144604551D01*
X-114827500Y144604521D01*
X-114827500Y143958415D01*
X-114844813Y143910849D01*
X-114888650Y143885539D01*
X-114938668Y143894426D01*
X-115018250Y143940651D01*
X-115026078Y143944055D01*
X-115180530Y143990833D01*
X-115187955Y143992273D01*
X-115256079Y143998353D01*
X-115259381Y143998500D01*
X-115302952Y143998500D01*
X-115312948Y143994862D01*
X-115316000Y143989575D01*
X-115316000Y142873000D01*
X-115333313Y142825434D01*
X-115377150Y142800124D01*
X-115390000Y142799000D01*
X-116539952Y142799000D01*
X-116549948Y142795362D01*
X-116552819Y142790389D01*
X-116552752Y142789234D01*
X-116538872Y142670182D01*
X-116536907Y142661869D01*
X-116482016Y142510648D01*
X-116478187Y142503003D01*
X-116397264Y142379574D01*
X-116385662Y142330302D01*
X-116408446Y142285100D01*
X-116459149Y142265000D01*
X-116712500Y142265000D01*
X-116760066Y142282313D01*
X-116785376Y142326150D01*
X-116786500Y142339000D01*
X-116786500Y142407039D01*
X-116796028Y142464285D01*
X-116799663Y142486123D01*
X-116799664Y142486125D01*
X-116800667Y142492153D01*
X-116856100Y142594888D01*
X-116928558Y142661869D01*
X-116937328Y142669976D01*
X-116937329Y142669977D01*
X-116941822Y142674130D01*
X-117030499Y142713333D01*
X-117043666Y142719154D01*
X-117043668Y142719154D01*
X-117048591Y142721331D01*
X-117097422Y142727500D01*
X-117467039Y142727500D01*
X-117470050Y142726999D01*
X-117470060Y142726998D01*
X-117476837Y142725870D01*
X-117526600Y142735139D01*
X-117548851Y142755370D01*
X-117600957Y142827087D01*
X-117607282Y142833823D01*
X-117728157Y142933820D01*
X-117735961Y142938772D01*
X-117877908Y143005567D01*
X-117886696Y143008423D01*
X-117970182Y143024349D01*
X-117980683Y143022648D01*
X-117983000Y143019964D01*
X-117983000Y141684500D01*
X-118000313Y141636934D01*
X-118044150Y141611624D01*
X-118057000Y141610500D01*
X-118417000Y141610500D01*
X-118464566Y141627813D01*
X-118489876Y141671650D01*
X-118491000Y141684500D01*
X-118491000Y143013814D01*
X-118494638Y143023810D01*
X-118498323Y143025937D01*
X-118547260Y143019755D01*
X-118556212Y143017456D01*
X-118702072Y142959706D01*
X-118710171Y142955253D01*
X-118837087Y142863043D01*
X-118843823Y142856718D01*
X-118929208Y142753504D01*
X-118972867Y142727889D01*
X-118992780Y142727334D01*
X-118992797Y142727062D01*
X-118995106Y142727207D01*
X-118997422Y142727500D01*
X-119367039Y142727500D01*
X-119429419Y142717117D01*
X-119479182Y142726385D01*
X-119493895Y142737787D01*
X-119525416Y142769308D01*
X-119525437Y142769332D01*
X-119525444Y142769347D01*
X-119615153Y142859056D01*
X-119620339Y142861698D01*
X-119620344Y142861702D01*
X-119638398Y142870901D01*
X-119648299Y142876968D01*
X-119664693Y142888879D01*
X-119664698Y142888881D01*
X-119669407Y142892303D01*
X-119674944Y142894102D01*
X-119674946Y142894103D01*
X-119694220Y142900365D01*
X-119704948Y142904809D01*
X-119723000Y142914007D01*
X-119723003Y142914008D01*
X-119728194Y142916653D01*
X-119747740Y142919749D01*
X-119753963Y142920735D01*
X-119765250Y142923445D01*
X-119784528Y142929708D01*
X-119784530Y142929708D01*
X-119790066Y142931507D01*
X-119916934Y142931507D01*
X-119916949Y142931502D01*
X-119916979Y142931500D01*
X-121121416Y142931500D01*
X-121171648Y142951161D01*
X-121180891Y142959706D01*
X-121183406Y142962030D01*
X-121196328Y142973976D01*
X-121196329Y142973977D01*
X-121200822Y142978130D01*
X-121289499Y143017333D01*
X-121302666Y143023154D01*
X-121302668Y143023154D01*
X-121307591Y143025331D01*
X-121356422Y143031500D01*
X-122826039Y143031500D01*
X-122872240Y143023810D01*
X-122905123Y143018337D01*
X-122905125Y143018336D01*
X-122911153Y143017333D01*
X-122916534Y143014430D01*
X-122916533Y143014430D01*
X-123002266Y142968171D01*
X-123052348Y142960820D01*
X-123096113Y142988248D01*
X-123139892Y143045302D01*
X-123142847Y143049153D01*
X-123170340Y143070249D01*
X-123264402Y143142426D01*
X-123264406Y143142428D01*
X-123268250Y143145378D01*
X-123394554Y143197695D01*
X-123431874Y143231893D01*
X-123438481Y143282079D01*
X-123411283Y143324770D01*
X-123400698Y143332892D01*
X-123396847Y143335847D01*
X-123379663Y143358241D01*
X-123303574Y143457402D01*
X-123303572Y143457406D01*
X-123300622Y143461250D01*
X-123272616Y143528862D01*
X-123238418Y143566182D01*
X-123188232Y143572789D01*
X-123145541Y143545591D01*
X-123134239Y143524513D01*
X-123133337Y143521878D01*
X-123132333Y143515847D01*
X-123076900Y143413112D01*
X-123040982Y143379909D01*
X-123017204Y143357929D01*
X-122991178Y143333870D01*
X-122932483Y143307922D01*
X-122889334Y143288846D01*
X-122889332Y143288846D01*
X-122884409Y143286669D01*
X-122835578Y143280500D01*
X-121365961Y143280500D01*
X-121315819Y143288846D01*
X-121286877Y143293663D01*
X-121286875Y143293664D01*
X-121280847Y143294667D01*
X-121178112Y143350100D01*
X-121173131Y143355488D01*
X-121171980Y143356733D01*
X-121169658Y143357929D01*
X-121169128Y143358340D01*
X-121169051Y143358241D01*
X-121126978Y143379909D01*
X-121117642Y143380500D01*
X-120696479Y143380500D01*
X-120696449Y143380498D01*
X-120696434Y143380493D01*
X-120569566Y143380493D01*
X-120564030Y143382292D01*
X-120564028Y143382292D01*
X-120544750Y143388555D01*
X-120533463Y143391265D01*
X-120527240Y143392251D01*
X-120507694Y143395347D01*
X-120502503Y143397992D01*
X-120502500Y143397993D01*
X-120484448Y143407191D01*
X-120473720Y143411635D01*
X-120454446Y143417897D01*
X-120454444Y143417898D01*
X-120448907Y143419697D01*
X-120444198Y143423119D01*
X-120444193Y143423121D01*
X-120427799Y143435032D01*
X-120417898Y143441099D01*
X-120399844Y143450298D01*
X-120399839Y143450302D01*
X-120394653Y143452944D01*
X-120304944Y143542653D01*
X-120304937Y143542668D01*
X-120304916Y143542692D01*
X-120154692Y143692916D01*
X-120154668Y143692937D01*
X-120154653Y143692944D01*
X-120064944Y143782653D01*
X-120053096Y143805906D01*
X-120047037Y143815794D01*
X-120031698Y143836907D01*
X-120028003Y143848277D01*
X-120023637Y143861716D01*
X-120019193Y143872444D01*
X-120009993Y143890499D01*
X-120009991Y143890504D01*
X-120007347Y143895694D01*
X-120003264Y143921470D01*
X-120000556Y143932751D01*
X-119992493Y143957566D01*
X-119992493Y144084434D01*
X-119992498Y144084449D01*
X-119992500Y144084479D01*
X-119992500Y144545438D01*
X-119975187Y144593004D01*
X-119970826Y144597764D01*
X-119968698Y144599892D01*
X-119964847Y144602847D01*
X-119960259Y144608826D01*
X-119896761Y144691578D01*
X-119687500Y144691578D01*
X-119687500Y143596961D01*
X-119682377Y143566182D01*
X-119675197Y143523048D01*
X-119673333Y143511847D01*
X-119617900Y143409112D01*
X-119597608Y143390354D01*
X-119549221Y143345625D01*
X-119532178Y143329870D01*
X-119482531Y143307922D01*
X-119430334Y143284846D01*
X-119430332Y143284846D01*
X-119425409Y143282669D01*
X-119376578Y143276500D01*
X-119006961Y143276500D01*
X-118956819Y143284846D01*
X-118927877Y143289663D01*
X-118927875Y143289664D01*
X-118921847Y143290667D01*
X-118819112Y143346100D01*
X-118771142Y143397993D01*
X-118744024Y143427328D01*
X-118744023Y143427329D01*
X-118739870Y143431822D01*
X-118706873Y143506462D01*
X-118694846Y143533666D01*
X-118694846Y143533668D01*
X-118692669Y143538591D01*
X-118686500Y143587422D01*
X-118686500Y144682039D01*
X-118695643Y144736972D01*
X-118699663Y144761123D01*
X-118699664Y144761125D01*
X-118700667Y144767153D01*
X-118756100Y144869888D01*
X-118841822Y144949130D01*
X-118930499Y144988333D01*
X-118943666Y144994154D01*
X-118943668Y144994154D01*
X-118948591Y144996331D01*
X-118997422Y145002500D01*
X-119367039Y145002500D01*
X-119405958Y144996022D01*
X-119446123Y144989337D01*
X-119446125Y144989336D01*
X-119452153Y144988333D01*
X-119554888Y144932900D01*
X-119584232Y144901156D01*
X-119619585Y144862912D01*
X-119634130Y144847178D01*
X-119655650Y144798500D01*
X-119678512Y144746785D01*
X-119681331Y144740409D01*
X-119687500Y144691578D01*
X-119896761Y144691578D01*
X-119871574Y144724402D01*
X-119871572Y144724406D01*
X-119868622Y144728250D01*
X-119808132Y144874285D01*
X-119805885Y144891347D01*
X-119788133Y145026192D01*
X-119787500Y145031000D01*
X-119792422Y145068385D01*
X-119807499Y145182910D01*
X-119807500Y145182913D01*
X-119808132Y145187715D01*
X-119868622Y145333750D01*
X-119871572Y145337594D01*
X-119871574Y145337598D01*
X-119961892Y145455302D01*
X-119964847Y145459153D01*
X-119989578Y145478130D01*
X-120086402Y145552426D01*
X-120086406Y145552428D01*
X-120090250Y145555378D01*
X-120112641Y145564653D01*
X-120140404Y145576153D01*
X-120177724Y145610351D01*
X-120184331Y145660537D01*
X-120157133Y145703229D01*
X-120121742Y145717887D01*
X-120117091Y145718499D01*
X-120117089Y145718500D01*
X-120112285Y145719132D01*
X-119966250Y145779622D01*
X-119962405Y145782572D01*
X-119962402Y145782574D01*
X-119913000Y145820482D01*
X-119864724Y145835704D01*
X-119826840Y145823303D01*
X-119814700Y145815191D01*
X-119814698Y145815190D01*
X-119808641Y145811143D01*
X-119801496Y145809722D01*
X-119801494Y145809721D01*
X-119733570Y145796210D01*
X-119733569Y145796210D01*
X-119730000Y145795500D01*
X-119030000Y145795500D01*
X-119026431Y145796210D01*
X-119026430Y145796210D01*
X-118958506Y145809721D01*
X-118958504Y145809722D01*
X-118951359Y145811143D01*
X-118901350Y145844558D01*
X-118890751Y145851640D01*
X-118884690Y145855690D01*
X-118876724Y145867612D01*
X-118835902Y145897544D01*
X-118815195Y145900500D01*
X-118199000Y145900500D01*
X-118151434Y145883187D01*
X-118126124Y145839350D01*
X-118125000Y145826500D01*
X-118125000Y145351500D01*
X-118124290Y145347931D01*
X-118124290Y145347930D01*
X-118112843Y145290386D01*
X-118109357Y145272859D01*
X-118064810Y145206190D01*
X-117998141Y145161643D01*
X-117990996Y145160222D01*
X-117990994Y145160221D01*
X-117923070Y145146710D01*
X-117923069Y145146710D01*
X-117919500Y145146000D01*
X-117500193Y145146000D01*
X-117452627Y145128687D01*
X-117427317Y145084850D01*
X-117436107Y145035000D01*
X-117474884Y145002463D01*
X-117488043Y144999004D01*
X-117546123Y144989337D01*
X-117546125Y144989336D01*
X-117552153Y144988333D01*
X-117654888Y144932900D01*
X-117684232Y144901156D01*
X-117719585Y144862912D01*
X-117734130Y144847178D01*
X-117755650Y144798500D01*
X-117778512Y144746785D01*
X-117781331Y144740409D01*
X-117787500Y144691578D01*
X-117787500Y143596961D01*
X-117782377Y143566182D01*
X-117775197Y143523048D01*
X-117773333Y143511847D01*
X-117717900Y143409112D01*
X-117697608Y143390354D01*
X-117649221Y143345625D01*
X-117632178Y143329870D01*
X-117582531Y143307922D01*
X-117530334Y143284846D01*
X-117530332Y143284846D01*
X-117525409Y143282669D01*
X-117476578Y143276500D01*
X-117106961Y143276500D01*
X-117056819Y143284846D01*
X-117027877Y143289663D01*
X-117027875Y143289664D01*
X-117021847Y143290667D01*
X-116956143Y143326119D01*
X-116553000Y143326119D01*
X-116553000Y143320048D01*
X-116549362Y143310052D01*
X-116544075Y143307000D01*
X-115837048Y143307000D01*
X-115827052Y143310638D01*
X-115824000Y143315925D01*
X-115824000Y143985452D01*
X-115827638Y143995448D01*
X-115832925Y143998500D01*
X-115866995Y143998500D01*
X-115871266Y143998252D01*
X-115990318Y143984372D01*
X-115998631Y143982407D01*
X-116149852Y143927516D01*
X-116157497Y143923687D01*
X-116292034Y143835481D01*
X-116298590Y143829999D01*
X-116409229Y143713206D01*
X-116414342Y143706372D01*
X-116495151Y143567250D01*
X-116498555Y143559422D01*
X-116545333Y143404970D01*
X-116546773Y143397545D01*
X-116552853Y143329421D01*
X-116553000Y143326119D01*
X-116956143Y143326119D01*
X-116919112Y143346100D01*
X-116871142Y143397993D01*
X-116844024Y143427328D01*
X-116844023Y143427329D01*
X-116839870Y143431822D01*
X-116806873Y143506462D01*
X-116794846Y143533666D01*
X-116794846Y143533668D01*
X-116792669Y143538591D01*
X-116786500Y143587422D01*
X-116786500Y144100500D01*
X-116769187Y144148066D01*
X-116725350Y144173376D01*
X-116712500Y144174500D01*
X-116388479Y144174500D01*
X-116388449Y144174498D01*
X-116388434Y144174493D01*
X-116261566Y144174493D01*
X-116256030Y144176292D01*
X-116256028Y144176292D01*
X-116236750Y144182555D01*
X-116225463Y144185265D01*
X-116215193Y144186892D01*
X-116199694Y144189347D01*
X-116194503Y144191992D01*
X-116194500Y144191993D01*
X-116176448Y144201191D01*
X-116165720Y144205635D01*
X-116146446Y144211897D01*
X-116146444Y144211898D01*
X-116140907Y144213697D01*
X-116136198Y144217119D01*
X-116136193Y144217121D01*
X-116119799Y144229032D01*
X-116109898Y144235099D01*
X-116091844Y144244298D01*
X-116091839Y144244302D01*
X-116086653Y144246944D01*
X-115996944Y144336653D01*
X-115996937Y144336668D01*
X-115996916Y144336692D01*
X-115375281Y144958326D01*
X-115329404Y144979718D01*
X-115322955Y144980000D01*
X-115155181Y144980000D01*
X-115148728Y144981022D01*
X-115061405Y144994852D01*
X-115061402Y144994853D01*
X-115055650Y144995764D01*
X-115042430Y145002500D01*
X-114942574Y145053379D01*
X-114942572Y145053381D01*
X-114937382Y145056025D01*
X-114843525Y145149882D01*
X-114840881Y145155072D01*
X-114840879Y145155074D01*
X-114785910Y145262957D01*
X-114783264Y145268150D01*
X-114782353Y145273902D01*
X-114782352Y145273905D01*
X-114767955Y145364808D01*
X-114767500Y145367681D01*
X-114767500Y145696456D01*
X-114750187Y145744022D01*
X-114745826Y145748782D01*
X-114520911Y145973696D01*
X-114475034Y145995088D01*
X-114466783Y145994909D01*
X-114466783Y145995133D01*
X-114461934Y145995133D01*
X-114457125Y145994500D01*
X-114452317Y145995133D01*
X-114305215Y146014499D01*
X-114305212Y146014500D01*
X-114300410Y146015132D01*
X-114154375Y146075622D01*
X-114150531Y146078572D01*
X-114150527Y146078574D01*
X-114032823Y146168892D01*
X-114028972Y146171847D01*
X-113997804Y146212466D01*
X-113935699Y146293402D01*
X-113935697Y146293406D01*
X-113932747Y146297250D01*
X-113872257Y146443285D01*
X-113870792Y146454408D01*
X-113852258Y146595192D01*
X-113851625Y146600000D01*
X-113864988Y146701500D01*
X-113871624Y146751910D01*
X-113871625Y146751913D01*
X-113872257Y146756715D01*
X-113932747Y146902750D01*
X-113935697Y146906594D01*
X-113935699Y146906598D01*
X-114026017Y147024302D01*
X-114028972Y147028153D01*
X-114056140Y147049000D01*
X-114150527Y147121426D01*
X-114150531Y147121428D01*
X-114154375Y147124378D01*
X-114300410Y147184868D01*
X-114305212Y147185500D01*
X-114305215Y147185501D01*
X-114395659Y147197408D01*
X-114440559Y147220781D01*
X-114460000Y147270775D01*
X-114460000Y147452495D01*
X-114460248Y147456766D01*
X-114474128Y147575818D01*
X-114476093Y147584131D01*
X-114530984Y147735352D01*
X-114534813Y147742997D01*
X-114623019Y147877534D01*
X-114628501Y147884090D01*
X-114745294Y147994729D01*
X-114752128Y147999842D01*
X-114891250Y148080651D01*
X-114899078Y148084055D01*
X-115053530Y148130833D01*
X-115060955Y148132273D01*
X-115129079Y148138353D01*
X-115132381Y148138500D01*
X-115175952Y148138500D01*
X-115185948Y148134862D01*
X-115189000Y148129575D01*
X-115189000Y147013000D01*
X-115206313Y146965434D01*
X-115250150Y146940124D01*
X-115263000Y146939000D01*
X-115623000Y146939000D01*
X-115670566Y146956313D01*
X-115695876Y147000150D01*
X-115697000Y147013000D01*
X-115697000Y148125452D01*
X-115700638Y148135448D01*
X-115705925Y148138500D01*
X-115739995Y148138500D01*
X-115744266Y148138252D01*
X-115863318Y148124372D01*
X-115871631Y148122407D01*
X-115912329Y148107634D01*
X-115962948Y148107678D01*
X-116001696Y148140249D01*
X-116011389Y148171913D01*
X-116014439Y148214549D01*
X-116015840Y148222316D01*
X-116054366Y148353524D01*
X-116058722Y148363064D01*
X-116131939Y148476992D01*
X-116138800Y148484910D01*
X-116241154Y148573599D01*
X-116249961Y148579260D01*
X-116373156Y148635521D01*
X-116383212Y148638473D01*
X-116519880Y148658123D01*
X-116525149Y148658500D01*
X-117120610Y148658500D01*
X-117168176Y148675813D01*
X-117193486Y148719650D01*
X-117184696Y148769500D01*
X-117169547Y148788008D01*
X-117168495Y148788935D01*
X-117127067Y148825459D01*
X-117062267Y148904347D01*
X-116970589Y149015957D01*
X-116970586Y149015962D01*
X-116968702Y149018255D01*
X-116948100Y149053653D01*
X-116909211Y149086055D01*
X-116858592Y149085879D01*
X-116822616Y149057543D01*
X-116791310Y149010690D01*
X-116724641Y148966143D01*
X-116717496Y148964722D01*
X-116717494Y148964721D01*
X-116649570Y148951210D01*
X-116649569Y148951210D01*
X-116646000Y148950500D01*
X-115696000Y148950500D01*
X-115692431Y148951210D01*
X-115692430Y148951210D01*
X-115624506Y148964721D01*
X-115624504Y148964722D01*
X-115617359Y148966143D01*
X-115550690Y149010690D01*
X-115506143Y149077359D01*
X-115504721Y149084506D01*
X-115501932Y149091240D01*
X-115498736Y149089916D01*
X-115479745Y149121165D01*
X-115431802Y149137404D01*
X-115384637Y149119027D01*
X-115373596Y149106917D01*
X-115372621Y149105575D01*
X-115369975Y149100382D01*
X-115276118Y149006525D01*
X-115270928Y149003881D01*
X-115270926Y149003879D01*
X-115194074Y148964721D01*
X-115157850Y148946264D01*
X-115152098Y148945353D01*
X-115152095Y148945352D01*
X-115063484Y148931318D01*
X-115058319Y148930500D01*
X-114557681Y148930500D01*
X-114552516Y148931318D01*
X-114463905Y148945352D01*
X-114463902Y148945353D01*
X-114458150Y148946264D01*
X-114421926Y148964721D01*
X-114345074Y149003879D01*
X-114345072Y149003881D01*
X-114339882Y149006525D01*
X-114318826Y149027581D01*
X-114272950Y149048973D01*
X-114224055Y149035872D01*
X-114195021Y148994408D01*
X-114192500Y148975255D01*
X-114192500Y148821562D01*
X-114209813Y148773996D01*
X-114214174Y148769236D01*
X-114216302Y148767108D01*
X-114220153Y148764153D01*
X-114223108Y148760302D01*
X-114313426Y148642598D01*
X-114313428Y148642594D01*
X-114316378Y148638750D01*
X-114376868Y148492715D01*
X-114377500Y148487913D01*
X-114377501Y148487910D01*
X-114394748Y148356902D01*
X-114397500Y148336000D01*
X-114396867Y148331192D01*
X-114379316Y148197882D01*
X-114376868Y148179285D01*
X-114316378Y148033250D01*
X-114313428Y148029406D01*
X-114313426Y148029402D01*
X-114225736Y147915123D01*
X-114220153Y147907847D01*
X-114216302Y147904892D01*
X-114098598Y147814574D01*
X-114098594Y147814572D01*
X-114094750Y147811622D01*
X-113948715Y147751132D01*
X-113943913Y147750500D01*
X-113943910Y147750499D01*
X-113796808Y147731133D01*
X-113792000Y147730500D01*
X-113787192Y147731133D01*
X-113640090Y147750499D01*
X-113640087Y147750500D01*
X-113635285Y147751132D01*
X-113489250Y147811622D01*
X-113485406Y147814572D01*
X-113485402Y147814574D01*
X-113367698Y147904892D01*
X-113363847Y147907847D01*
X-113358264Y147915123D01*
X-113270574Y148029402D01*
X-113270572Y148029406D01*
X-113267622Y148033250D01*
X-113207132Y148179285D01*
X-113204683Y148197882D01*
X-113187133Y148331192D01*
X-113186500Y148336000D01*
X-113189252Y148356902D01*
X-113206499Y148487910D01*
X-113206500Y148487913D01*
X-113207132Y148492715D01*
X-113267622Y148638750D01*
X-113270572Y148642594D01*
X-113270574Y148642598D01*
X-113360892Y148760302D01*
X-113363847Y148764153D01*
X-113367698Y148767108D01*
X-113369826Y148769236D01*
X-113391218Y148815112D01*
X-113391500Y148821562D01*
X-113391500Y148850456D01*
X-113374187Y148898022D01*
X-113369826Y148902782D01*
X-113363782Y148908826D01*
X-113317906Y148930218D01*
X-113311456Y148930500D01*
X-112982681Y148930500D01*
X-112977516Y148931318D01*
X-112888905Y148945352D01*
X-112888902Y148945353D01*
X-112883150Y148946264D01*
X-112846926Y148964721D01*
X-112770074Y149003879D01*
X-112770072Y149003881D01*
X-112764882Y149006525D01*
X-112671025Y149100382D01*
X-112668381Y149105572D01*
X-112668379Y149105574D01*
X-112613410Y149213457D01*
X-112610764Y149218650D01*
X-112609853Y149224402D01*
X-112609852Y149224405D01*
X-112595455Y149315308D01*
X-112595000Y149318181D01*
X-112595000Y149893819D01*
X-112595489Y149896905D01*
X-112609852Y149987595D01*
X-112609853Y149987598D01*
X-112610764Y149993350D01*
X-112617464Y150006500D01*
X-112668379Y150106426D01*
X-112668381Y150106428D01*
X-112671025Y150111618D01*
X-112764882Y150205475D01*
X-112770072Y150208119D01*
X-112770074Y150208121D01*
X-112877957Y150263090D01*
X-112883150Y150265736D01*
X-112888902Y150266647D01*
X-112888905Y150266648D01*
X-112979808Y150281045D01*
X-112982681Y150281500D01*
X-113381840Y150281500D01*
X-113429406Y150298813D01*
X-113454716Y150342650D01*
X-113445926Y150392500D01*
X-113419342Y150419293D01*
X-113275073Y150504104D01*
X-113275069Y150504107D01*
X-113272648Y150505530D01*
X-113139451Y150613969D01*
X-113074190Y150667100D01*
X-113072011Y150668874D01*
X-112898391Y150860687D01*
X-112755781Y151076555D01*
X-112647466Y151311510D01*
X-112646691Y151314206D01*
X-112646687Y151314215D01*
X-112635684Y151352460D01*
X-112605895Y151393385D01*
X-112564569Y151406000D01*
X-105925196Y151406000D01*
X-105877630Y151388687D01*
G37*
G04 #@! TD.AperFunction*
G04 #@! TA.AperFunction,Conductor*
G36*
X-125877630Y151388687D02*
G01*
X-125855123Y151355787D01*
X-125814756Y151236869D01*
X-125813460Y151234375D01*
X-125813460Y151234374D01*
X-125712334Y151039700D01*
X-125695492Y151007277D01*
X-125693839Y151005015D01*
X-125693837Y151005011D01*
X-125547970Y150805344D01*
X-125542872Y150798366D01*
X-125458188Y150713237D01*
X-125386825Y150641500D01*
X-125360409Y150614945D01*
X-125152300Y150461234D01*
X-124923336Y150340769D01*
X-124920680Y150339852D01*
X-124920678Y150339851D01*
X-124698376Y150263090D01*
X-124678784Y150256325D01*
X-124676023Y150255821D01*
X-124676020Y150255820D01*
X-124571773Y150236781D01*
X-124424273Y150209843D01*
X-124421911Y150209719D01*
X-124421909Y150209719D01*
X-124342366Y150205550D01*
X-124342352Y150205550D01*
X-124341405Y150205500D01*
X-124180271Y150205500D01*
X-124108777Y150210939D01*
X-123990819Y150219911D01*
X-123990813Y150219912D01*
X-123988025Y150220124D01*
X-123735986Y150278543D01*
X-123733374Y150279585D01*
X-123498292Y150373373D01*
X-123498286Y150373376D01*
X-123495684Y150374414D01*
X-123493265Y150375836D01*
X-123493261Y150375838D01*
X-123275073Y150504104D01*
X-123275069Y150504107D01*
X-123272648Y150505530D01*
X-123139451Y150613969D01*
X-123091078Y150653351D01*
X-121309000Y150653351D01*
X-121309000Y150173048D01*
X-121305362Y150163052D01*
X-121300075Y150160000D01*
X-120588048Y150160000D01*
X-120578052Y150163638D01*
X-120575000Y150168925D01*
X-120575000Y151155952D01*
X-120578638Y151165948D01*
X-120583925Y151169000D01*
X-120794665Y151169000D01*
X-120797338Y151168904D01*
X-120865049Y151164061D01*
X-120872816Y151162660D01*
X-121004024Y151124134D01*
X-121013564Y151119778D01*
X-121127492Y151046561D01*
X-121135410Y151039700D01*
X-121224099Y150937346D01*
X-121229760Y150928539D01*
X-121286021Y150805344D01*
X-121288973Y150795288D01*
X-121308623Y150658620D01*
X-121309000Y150653351D01*
X-123091078Y150653351D01*
X-123074190Y150667100D01*
X-123072011Y150668874D01*
X-122898391Y150860687D01*
X-122755781Y151076555D01*
X-122647466Y151311510D01*
X-122646691Y151314206D01*
X-122646687Y151314215D01*
X-122635684Y151352460D01*
X-122605895Y151393385D01*
X-122564569Y151406000D01*
X-119030081Y151406000D01*
X-118982515Y151388687D01*
X-118957205Y151344850D01*
X-118965995Y151295000D01*
X-118990648Y151269382D01*
X-119177781Y151151538D01*
X-119359789Y150991076D01*
X-119406918Y150972606D01*
X-119454893Y150988751D01*
X-119458263Y150991987D01*
X-119458300Y150991944D01*
X-119564654Y151084099D01*
X-119573461Y151089760D01*
X-119696656Y151146021D01*
X-119706712Y151148973D01*
X-119843380Y151168623D01*
X-119848649Y151169000D01*
X-120053952Y151169000D01*
X-120063948Y151165362D01*
X-120067000Y151160075D01*
X-120067000Y148656048D01*
X-120063362Y148646052D01*
X-120058075Y148643000D01*
X-119860569Y148643000D01*
X-119813003Y148625687D01*
X-119787693Y148581850D01*
X-119796483Y148532000D01*
X-119839721Y148497997D01*
X-119938031Y148469131D01*
X-119947564Y148464778D01*
X-120061492Y148391561D01*
X-120069410Y148384700D01*
X-120158099Y148282346D01*
X-120163760Y148273539D01*
X-120220021Y148150344D01*
X-120222973Y148140288D01*
X-120242623Y148003620D01*
X-120243000Y147998351D01*
X-120243000Y147968048D01*
X-120239362Y147958052D01*
X-120234075Y147955000D01*
X-119647048Y147955000D01*
X-119637052Y147958638D01*
X-119634000Y147963925D01*
X-119634000Y148500952D01*
X-119637638Y148510948D01*
X-119642925Y148514000D01*
X-119715431Y148514000D01*
X-119762997Y148531313D01*
X-119788307Y148575150D01*
X-119779517Y148625000D01*
X-119736279Y148659003D01*
X-119637969Y148687869D01*
X-119628436Y148692222D01*
X-119514508Y148765439D01*
X-119506590Y148772300D01*
X-119465105Y148820176D01*
X-119420872Y148844786D01*
X-119371168Y148835207D01*
X-119355414Y148822561D01*
X-119353159Y148820176D01*
X-119296539Y148760302D01*
X-119286833Y148750038D01*
X-119247087Y148719650D01*
X-119128780Y148629198D01*
X-119101508Y148586554D01*
X-119109640Y148533411D01*
X-119126000Y148505075D01*
X-119126000Y147521000D01*
X-119143313Y147473434D01*
X-119187150Y147448124D01*
X-119200000Y147447000D01*
X-120229952Y147447000D01*
X-120239948Y147443362D01*
X-120243000Y147438075D01*
X-120243000Y147402335D01*
X-120242904Y147399662D01*
X-120238061Y147331951D01*
X-120236660Y147324184D01*
X-120198134Y147192976D01*
X-120193778Y147183436D01*
X-120120561Y147069508D01*
X-120113700Y147061590D01*
X-120065266Y147019622D01*
X-120040655Y146975388D01*
X-120050234Y146925684D01*
X-120089522Y146893766D01*
X-120123383Y146890329D01*
X-120269000Y146909500D01*
X-120273808Y146908867D01*
X-120420910Y146889501D01*
X-120420913Y146889500D01*
X-120425715Y146888868D01*
X-120571750Y146828378D01*
X-120575594Y146825428D01*
X-120575598Y146825426D01*
X-120678388Y146746552D01*
X-120697153Y146732153D01*
X-120698220Y146730762D01*
X-120743024Y146709870D01*
X-120791919Y146722971D01*
X-120814322Y146747941D01*
X-120817747Y146754171D01*
X-120909957Y146881087D01*
X-120916282Y146887823D01*
X-121037157Y146987820D01*
X-121044961Y146992772D01*
X-121186908Y147059567D01*
X-121195696Y147062423D01*
X-121331592Y147088347D01*
X-121338501Y147089000D01*
X-121828952Y147089000D01*
X-121838948Y147085362D01*
X-121842000Y147080075D01*
X-121842000Y146101000D01*
X-121859313Y146053434D01*
X-121903150Y146028124D01*
X-121916000Y146027000D01*
X-123432814Y146027000D01*
X-123442810Y146023362D01*
X-123444937Y146019677D01*
X-123438755Y145970740D01*
X-123436456Y145961788D01*
X-123378706Y145815928D01*
X-123374253Y145807829D01*
X-123282043Y145680913D01*
X-123275718Y145674177D01*
X-123154840Y145574178D01*
X-123145073Y145567980D01*
X-123114188Y145527875D01*
X-123116308Y145477301D01*
X-123150440Y145439921D01*
X-123184724Y145431500D01*
X-123383515Y145431500D01*
X-123383549Y145431503D01*
X-123383566Y145431508D01*
X-123510434Y145431508D01*
X-123535255Y145423443D01*
X-123546539Y145420734D01*
X-123551999Y145419869D01*
X-123566556Y145417564D01*
X-123566558Y145417564D01*
X-123572306Y145416653D01*
X-123577490Y145414012D01*
X-123577495Y145414010D01*
X-123595553Y145404809D01*
X-123606279Y145400366D01*
X-123625558Y145394102D01*
X-123625561Y145394101D01*
X-123631093Y145392303D01*
X-123635800Y145388883D01*
X-123635804Y145388881D01*
X-123652201Y145376968D01*
X-123662102Y145370901D01*
X-123680156Y145361702D01*
X-123680160Y145361699D01*
X-123685347Y145359056D01*
X-123775056Y145269347D01*
X-123775063Y145269332D01*
X-123775084Y145269308D01*
X-124063308Y144981084D01*
X-124063332Y144981063D01*
X-124063347Y144981056D01*
X-124153056Y144891347D01*
X-124155698Y144886161D01*
X-124155702Y144886156D01*
X-124164901Y144868102D01*
X-124170968Y144858201D01*
X-124182879Y144841807D01*
X-124182881Y144841802D01*
X-124186303Y144837093D01*
X-124188102Y144831556D01*
X-124188103Y144831554D01*
X-124194365Y144812280D01*
X-124198809Y144801552D01*
X-124208007Y144783500D01*
X-124208008Y144783497D01*
X-124210653Y144778306D01*
X-124213270Y144761785D01*
X-124214735Y144752537D01*
X-124217445Y144741250D01*
X-124222953Y144724295D01*
X-124225507Y144716434D01*
X-124225507Y144589566D01*
X-124225502Y144589551D01*
X-124225500Y144589521D01*
X-124225500Y144249562D01*
X-124242813Y144201996D01*
X-124247174Y144197236D01*
X-124249302Y144195108D01*
X-124253153Y144192153D01*
X-124256108Y144188302D01*
X-124346426Y144070598D01*
X-124346428Y144070594D01*
X-124349378Y144066750D01*
X-124409868Y143920715D01*
X-124410500Y143915913D01*
X-124410501Y143915910D01*
X-124427361Y143787840D01*
X-124430500Y143764000D01*
X-124429867Y143759192D01*
X-124417414Y143664605D01*
X-124409868Y143607285D01*
X-124349378Y143461250D01*
X-124346428Y143457406D01*
X-124346426Y143457402D01*
X-124270337Y143358241D01*
X-124253153Y143335847D01*
X-124249302Y143332892D01*
X-124131598Y143242574D01*
X-124131594Y143242572D01*
X-124127750Y143239622D01*
X-124022756Y143196132D01*
X-124001446Y143187305D01*
X-123964126Y143153107D01*
X-123957519Y143102921D01*
X-123984717Y143060230D01*
X-123999153Y143049153D01*
X-124002108Y143045302D01*
X-124092426Y142927598D01*
X-124092428Y142927594D01*
X-124095378Y142923750D01*
X-124155868Y142777715D01*
X-124156500Y142772913D01*
X-124156501Y142772910D01*
X-124171642Y142657900D01*
X-124176500Y142621000D01*
X-124175867Y142616192D01*
X-124160245Y142497533D01*
X-124155868Y142464285D01*
X-124095378Y142318250D01*
X-124092428Y142314406D01*
X-124092426Y142314402D01*
X-124024441Y142225803D01*
X-123999153Y142192847D01*
X-123995302Y142189892D01*
X-123877598Y142099574D01*
X-123877594Y142099572D01*
X-123873750Y142096622D01*
X-123727715Y142036132D01*
X-123722913Y142035500D01*
X-123722910Y142035499D01*
X-123575808Y142016133D01*
X-123571000Y142015500D01*
X-123566192Y142016133D01*
X-123419090Y142035499D01*
X-123419087Y142035500D01*
X-123414285Y142036132D01*
X-123268250Y142096622D01*
X-123264405Y142099572D01*
X-123264402Y142099574D01*
X-123244028Y142115208D01*
X-123198980Y142130500D01*
X-123070584Y142130500D01*
X-123020353Y142110839D01*
X-122991178Y142083870D01*
X-122950593Y142065928D01*
X-122889334Y142038846D01*
X-122889332Y142038846D01*
X-122884409Y142036669D01*
X-122835578Y142030500D01*
X-121365961Y142030500D01*
X-121309036Y142039975D01*
X-121286877Y142043663D01*
X-121286875Y142043664D01*
X-121280847Y142044667D01*
X-121178112Y142100100D01*
X-121171981Y142106733D01*
X-121169658Y142107929D01*
X-121169128Y142108340D01*
X-121169051Y142108241D01*
X-121126978Y142129909D01*
X-121117642Y142130500D01*
X-120050044Y142130500D01*
X-120002478Y142113187D01*
X-119997718Y142108826D01*
X-119709174Y141820281D01*
X-119687782Y141774404D01*
X-119687500Y141767955D01*
X-119687500Y141321961D01*
X-119684350Y141303038D01*
X-119676350Y141254975D01*
X-119673333Y141236847D01*
X-119617900Y141134112D01*
X-119613408Y141129960D01*
X-119613406Y141129957D01*
X-119592704Y141110820D01*
X-119573243Y141080418D01*
X-119572653Y141076694D01*
X-119570009Y141071505D01*
X-119570008Y141071502D01*
X-119560809Y141053448D01*
X-119556365Y141042721D01*
X-119548303Y141017907D01*
X-119544881Y141013198D01*
X-119544879Y141013193D01*
X-119532968Y140996799D01*
X-119526901Y140986898D01*
X-119517702Y140968844D01*
X-119517698Y140968839D01*
X-119515056Y140963653D01*
X-119425347Y140873944D01*
X-119425332Y140873937D01*
X-119425308Y140873916D01*
X-119115564Y140564172D01*
X-119115543Y140564148D01*
X-119115536Y140564133D01*
X-119025827Y140474424D01*
X-119020641Y140471782D01*
X-119020636Y140471778D01*
X-119002582Y140462579D01*
X-118992681Y140456512D01*
X-118976284Y140444599D01*
X-118976280Y140444597D01*
X-118971573Y140441177D01*
X-118966041Y140439379D01*
X-118966040Y140439379D01*
X-118947937Y140433497D01*
X-118908050Y140402332D01*
X-118897526Y140352819D01*
X-118921291Y140308125D01*
X-118941892Y140295002D01*
X-118963913Y140285655D01*
X-118963915Y140285654D01*
X-118966657Y140284490D01*
X-119177781Y140151538D01*
X-119359789Y139991076D01*
X-119406918Y139972606D01*
X-119454893Y139988751D01*
X-119458263Y139991987D01*
X-119458300Y139991944D01*
X-119564654Y140084099D01*
X-119573461Y140089760D01*
X-119696656Y140146021D01*
X-119706712Y140148973D01*
X-119843380Y140168623D01*
X-119848649Y140169000D01*
X-120053952Y140169000D01*
X-120063948Y140165362D01*
X-120067000Y140160075D01*
X-120067000Y137656048D01*
X-120063362Y137646052D01*
X-120058075Y137643000D01*
X-119847335Y137643000D01*
X-119844662Y137643096D01*
X-119776951Y137647939D01*
X-119769184Y137649340D01*
X-119637976Y137687866D01*
X-119628436Y137692222D01*
X-119514508Y137765439D01*
X-119506590Y137772300D01*
X-119465105Y137820176D01*
X-119420872Y137844786D01*
X-119371168Y137835207D01*
X-119355414Y137822561D01*
X-119286833Y137750038D01*
X-119088627Y137598499D01*
X-119049699Y137577626D01*
X-118989255Y137545216D01*
X-118955516Y137507481D01*
X-118953926Y137456887D01*
X-118985229Y137417108D01*
X-119024224Y137406000D01*
X-122566804Y137406000D01*
X-122614370Y137423313D01*
X-122636877Y137456213D01*
X-122651907Y137500490D01*
X-122677244Y137575131D01*
X-122722592Y137662430D01*
X-122795215Y137802234D01*
X-122795215Y137802235D01*
X-122796508Y137804723D01*
X-122809538Y137822560D01*
X-122947471Y138011366D01*
X-122947472Y138011367D01*
X-122949128Y138013634D01*
X-123072519Y138137673D01*
X-123129609Y138195063D01*
X-123129612Y138195065D01*
X-123131591Y138197055D01*
X-123339700Y138350766D01*
X-123568664Y138471231D01*
X-123571320Y138472148D01*
X-123571322Y138472149D01*
X-123810557Y138554757D01*
X-123810559Y138554757D01*
X-123813216Y138555675D01*
X-123815977Y138556179D01*
X-123815980Y138556180D01*
X-123920227Y138575219D01*
X-124067727Y138602157D01*
X-124070089Y138602281D01*
X-124070091Y138602281D01*
X-124149634Y138606450D01*
X-124149648Y138606450D01*
X-124150595Y138606500D01*
X-124311729Y138606500D01*
X-124383223Y138601061D01*
X-124501181Y138592089D01*
X-124501187Y138592088D01*
X-124503975Y138591876D01*
X-124756014Y138533457D01*
X-124758625Y138532415D01*
X-124758626Y138532415D01*
X-124993708Y138438627D01*
X-124993714Y138438624D01*
X-124996316Y138437586D01*
X-124998735Y138436164D01*
X-124998739Y138436162D01*
X-125216927Y138307896D01*
X-125216931Y138307893D01*
X-125219352Y138306470D01*
X-125221531Y138304696D01*
X-125353747Y138197055D01*
X-125419989Y138143126D01*
X-125421876Y138141041D01*
X-125579519Y137966879D01*
X-125593609Y137951313D01*
X-125736219Y137735445D01*
X-125844534Y137500490D01*
X-125845309Y137497794D01*
X-125845313Y137497785D01*
X-125856316Y137459540D01*
X-125886105Y137418615D01*
X-125927431Y137406000D01*
X-126172000Y137406000D01*
X-126219566Y137423313D01*
X-126244876Y137467150D01*
X-126246000Y137480000D01*
X-126246000Y138643075D01*
X-121309000Y138643075D01*
X-121309000Y138157335D01*
X-121308904Y138154662D01*
X-121304061Y138086951D01*
X-121302660Y138079184D01*
X-121264134Y137947976D01*
X-121259778Y137938436D01*
X-121186561Y137824508D01*
X-121179700Y137816590D01*
X-121077346Y137727901D01*
X-121068539Y137722240D01*
X-120945344Y137665979D01*
X-120935288Y137663027D01*
X-120798620Y137643377D01*
X-120793351Y137643000D01*
X-120588048Y137643000D01*
X-120578052Y137646638D01*
X-120575000Y137651925D01*
X-120575000Y138638952D01*
X-120578638Y138648948D01*
X-120583925Y138652000D01*
X-121295952Y138652000D01*
X-121305948Y138648362D01*
X-121309000Y138643075D01*
X-126246000Y138643075D01*
X-126246000Y139599000D01*
X-126228687Y139646566D01*
X-126216935Y139653351D01*
X-121309000Y139653351D01*
X-121309000Y139173048D01*
X-121305362Y139163052D01*
X-121300075Y139160000D01*
X-120588048Y139160000D01*
X-120578052Y139163638D01*
X-120575000Y139168925D01*
X-120575000Y140155952D01*
X-120578638Y140165948D01*
X-120583925Y140169000D01*
X-120794665Y140169000D01*
X-120797338Y140168904D01*
X-120865049Y140164061D01*
X-120872816Y140162660D01*
X-121004024Y140124134D01*
X-121013564Y140119778D01*
X-121127492Y140046561D01*
X-121135410Y140039700D01*
X-121224099Y139937346D01*
X-121229760Y139928539D01*
X-121286021Y139805344D01*
X-121288973Y139795288D01*
X-121308623Y139658620D01*
X-121309000Y139653351D01*
X-126216935Y139653351D01*
X-126184850Y139671876D01*
X-126172000Y139673000D01*
X-125563048Y139673000D01*
X-125553052Y139676638D01*
X-125550000Y139681925D01*
X-125550000Y140418075D01*
X-125042000Y140418075D01*
X-125042000Y139686048D01*
X-125038362Y139676052D01*
X-125033075Y139673000D01*
X-124155257Y139673000D01*
X-124150987Y139673248D01*
X-124024744Y139687967D01*
X-124016428Y139689933D01*
X-123858406Y139747291D01*
X-123850761Y139751120D01*
X-123710171Y139843295D01*
X-123703615Y139848777D01*
X-123587998Y139970825D01*
X-123582885Y139977659D01*
X-123498441Y140123039D01*
X-123495037Y140130867D01*
X-123446161Y140292246D01*
X-123444721Y140299671D01*
X-123438147Y140373329D01*
X-123438000Y140376631D01*
X-123438000Y140413952D01*
X-123441638Y140423948D01*
X-123446925Y140427000D01*
X-125028952Y140427000D01*
X-125038948Y140423362D01*
X-125042000Y140418075D01*
X-125550000Y140418075D01*
X-125550000Y141675952D01*
X-125551501Y141680075D01*
X-125042000Y141680075D01*
X-125042000Y140948048D01*
X-125038362Y140938052D01*
X-125033075Y140935000D01*
X-123451048Y140935000D01*
X-123441052Y140938638D01*
X-123438000Y140943925D01*
X-123438000Y140971743D01*
X-123438248Y140976013D01*
X-123452967Y141102256D01*
X-123454933Y141110572D01*
X-123512291Y141268594D01*
X-123516120Y141276239D01*
X-123608295Y141416829D01*
X-123613777Y141423385D01*
X-123735825Y141539002D01*
X-123742659Y141544115D01*
X-123888039Y141628559D01*
X-123895867Y141631963D01*
X-124057246Y141680839D01*
X-124064671Y141682279D01*
X-124138329Y141688853D01*
X-124141631Y141689000D01*
X-125028952Y141689000D01*
X-125038948Y141685362D01*
X-125042000Y141680075D01*
X-125551501Y141680075D01*
X-125553638Y141685948D01*
X-125558925Y141689000D01*
X-126172000Y141689000D01*
X-126219566Y141706313D01*
X-126244876Y141750150D01*
X-126246000Y141763000D01*
X-126246000Y146547818D01*
X-123443349Y146547818D01*
X-123441648Y146537317D01*
X-123438964Y146535000D01*
X-122363048Y146535000D01*
X-122353052Y146538638D01*
X-122350000Y146543925D01*
X-122350000Y147075952D01*
X-122353638Y147085948D01*
X-122358925Y147089000D01*
X-122833261Y147089000D01*
X-122837877Y147088710D01*
X-122956266Y147073754D01*
X-122965210Y147071457D01*
X-123111072Y147013706D01*
X-123119171Y147009253D01*
X-123246087Y146917043D01*
X-123252823Y146910718D01*
X-123352820Y146789843D01*
X-123357772Y146782039D01*
X-123424567Y146640092D01*
X-123427423Y146631304D01*
X-123443349Y146547818D01*
X-126246000Y146547818D01*
X-126246000Y147049000D01*
X-126228687Y147096566D01*
X-126184850Y147121876D01*
X-126172000Y147123000D01*
X-125563048Y147123000D01*
X-125553052Y147126638D01*
X-125550000Y147131925D01*
X-125550000Y147868075D01*
X-125042000Y147868075D01*
X-125042000Y147136048D01*
X-125038362Y147126052D01*
X-125033075Y147123000D01*
X-124155257Y147123000D01*
X-124150987Y147123248D01*
X-124024744Y147137967D01*
X-124016428Y147139933D01*
X-123858406Y147197291D01*
X-123850761Y147201120D01*
X-123710171Y147293295D01*
X-123703615Y147298777D01*
X-123587998Y147420825D01*
X-123582885Y147427659D01*
X-123498441Y147573039D01*
X-123495037Y147580867D01*
X-123446161Y147742246D01*
X-123444721Y147749671D01*
X-123438147Y147823329D01*
X-123438000Y147826631D01*
X-123438000Y147863952D01*
X-123441638Y147873948D01*
X-123446925Y147877000D01*
X-125028952Y147877000D01*
X-125038948Y147873362D01*
X-125042000Y147868075D01*
X-125550000Y147868075D01*
X-125550000Y149125952D01*
X-125551501Y149130075D01*
X-125042000Y149130075D01*
X-125042000Y148398048D01*
X-125038362Y148388052D01*
X-125033075Y148385000D01*
X-123451048Y148385000D01*
X-123441052Y148388638D01*
X-123438000Y148393925D01*
X-123438000Y148421743D01*
X-123438248Y148426013D01*
X-123452967Y148552256D01*
X-123454933Y148560572D01*
X-123512291Y148718594D01*
X-123516120Y148726239D01*
X-123608295Y148866829D01*
X-123613777Y148873385D01*
X-123735825Y148989002D01*
X-123742659Y148994115D01*
X-123888039Y149078559D01*
X-123895867Y149081963D01*
X-124057246Y149130839D01*
X-124064671Y149132279D01*
X-124138329Y149138853D01*
X-124141631Y149139000D01*
X-125028952Y149139000D01*
X-125038948Y149135362D01*
X-125042000Y149130075D01*
X-125551501Y149130075D01*
X-125553638Y149135948D01*
X-125558925Y149139000D01*
X-126172000Y149139000D01*
X-126219566Y149156313D01*
X-126244876Y149200150D01*
X-126246000Y149213000D01*
X-126246000Y149643075D01*
X-121309000Y149643075D01*
X-121309000Y149157335D01*
X-121308904Y149154662D01*
X-121304061Y149086951D01*
X-121302660Y149079184D01*
X-121264134Y148947976D01*
X-121259778Y148938436D01*
X-121186561Y148824508D01*
X-121179700Y148816590D01*
X-121077346Y148727901D01*
X-121068539Y148722240D01*
X-120945344Y148665979D01*
X-120935288Y148663027D01*
X-120798620Y148643377D01*
X-120793351Y148643000D01*
X-120588048Y148643000D01*
X-120578052Y148646638D01*
X-120575000Y148651925D01*
X-120575000Y149638952D01*
X-120578638Y149648948D01*
X-120583925Y149652000D01*
X-121295952Y149652000D01*
X-121305948Y149648362D01*
X-121309000Y149643075D01*
X-126246000Y149643075D01*
X-126246000Y151332000D01*
X-126228687Y151379566D01*
X-126184850Y151404876D01*
X-126172000Y151406000D01*
X-125925196Y151406000D01*
X-125877630Y151388687D01*
G37*
G04 #@! TD.AperFunction*
G04 #@! TA.AperFunction,Conductor*
G36*
X-116993434Y147937687D02*
G01*
X-116968124Y147893850D01*
X-116967000Y147881000D01*
X-116967000Y146756548D01*
X-116963362Y146746552D01*
X-116958075Y146743500D01*
X-116523835Y146743500D01*
X-116521162Y146743596D01*
X-116449492Y146748722D01*
X-116449363Y146746913D01*
X-116405896Y146739421D01*
X-116373090Y146700442D01*
X-116355016Y146650648D01*
X-116351187Y146643003D01*
X-116262981Y146508466D01*
X-116257499Y146501910D01*
X-116140706Y146391271D01*
X-116133872Y146386158D01*
X-115994750Y146305349D01*
X-115986922Y146301945D01*
X-115982129Y146300494D01*
X-115941621Y146270139D01*
X-115930103Y146220848D01*
X-115951249Y146177344D01*
X-116042475Y146086118D01*
X-116045119Y146080928D01*
X-116045121Y146080926D01*
X-116088949Y145994909D01*
X-116102736Y145967850D01*
X-116103647Y145962098D01*
X-116103648Y145962095D01*
X-116113403Y145900500D01*
X-116118500Y145868319D01*
X-116118500Y145378544D01*
X-116135813Y145330978D01*
X-116140174Y145326218D01*
X-116194689Y145271703D01*
X-116240565Y145250311D01*
X-116289460Y145263412D01*
X-116318494Y145304876D01*
X-116319593Y145338465D01*
X-116317000Y145351500D01*
X-116317000Y146240500D01*
X-116322015Y146265714D01*
X-116331221Y146311994D01*
X-116331222Y146311996D01*
X-116332643Y146319141D01*
X-116377190Y146385810D01*
X-116443859Y146430357D01*
X-116451004Y146431778D01*
X-116451006Y146431779D01*
X-116518930Y146445290D01*
X-116518931Y146445290D01*
X-116522500Y146446000D01*
X-117273956Y146446000D01*
X-117321522Y146463313D01*
X-117326282Y146467674D01*
X-117397916Y146539308D01*
X-117397937Y146539332D01*
X-117397944Y146539347D01*
X-117487653Y146629056D01*
X-117486131Y146630578D01*
X-117509473Y146665174D01*
X-117504188Y146715517D01*
X-117486376Y146732722D01*
X-117475000Y146752425D01*
X-117475000Y147881000D01*
X-117457687Y147928566D01*
X-117413850Y147953876D01*
X-117401000Y147955000D01*
X-117041000Y147955000D01*
X-116993434Y147937687D01*
G37*
G04 #@! TD.AperFunction*
G04 #@! TA.AperFunction,Conductor*
G36*
X-110019937Y148142755D02*
G01*
X-110010059Y148134466D01*
X-109979618Y148104025D01*
X-109974428Y148101381D01*
X-109974426Y148101379D01*
X-109869864Y148048102D01*
X-109861350Y148043764D01*
X-109855598Y148042853D01*
X-109855595Y148042852D01*
X-109804640Y148034782D01*
X-109760367Y148010241D01*
X-109742227Y147962984D01*
X-109758707Y147915123D01*
X-109775642Y147899808D01*
X-109815034Y147873981D01*
X-109821590Y147868499D01*
X-109932229Y147751706D01*
X-109937342Y147744872D01*
X-110018151Y147605750D01*
X-110021555Y147597922D01*
X-110068333Y147443470D01*
X-110069773Y147436045D01*
X-110075853Y147367921D01*
X-110076000Y147364619D01*
X-110076000Y147281860D01*
X-110093313Y147234294D01*
X-110137150Y147208984D01*
X-110159659Y147208493D01*
X-110177692Y147210867D01*
X-110182500Y147211500D01*
X-110187308Y147210867D01*
X-110334410Y147191501D01*
X-110334413Y147191500D01*
X-110339215Y147190868D01*
X-110485250Y147130378D01*
X-110489097Y147127426D01*
X-110489454Y147127152D01*
X-110489713Y147127070D01*
X-110493297Y147125001D01*
X-110493756Y147125796D01*
X-110537731Y147111933D01*
X-110584496Y147131306D01*
X-110607867Y147176206D01*
X-110608500Y147185862D01*
X-110608500Y147331000D01*
X-110615844Y147367921D01*
X-110622721Y147402494D01*
X-110622722Y147402496D01*
X-110624143Y147409641D01*
X-110668690Y147476310D01*
X-110670641Y147477614D01*
X-110690842Y147520935D01*
X-110677741Y147569830D01*
X-110669450Y147579711D01*
X-110658528Y147590633D01*
X-110658521Y147590648D01*
X-110658500Y147590672D01*
X-110114708Y148134464D01*
X-110068832Y148155856D01*
X-110019937Y148142755D01*
G37*
G04 #@! TD.AperFunction*
G04 #@! TD*
M02*
