G04 #@! TF.GenerationSoftware,KiCad,Pcbnew,(5.99.0-10394-g2e15de97e0)*
G04 #@! TF.CreationDate,2021-04-26T16:14:32+02:00*
G04 #@! TF.ProjectId,TFI2CEXT01A,54464932-4345-4585-9430-31412e6b6963,REV*
G04 #@! TF.SameCoordinates,PX78dfd90PY8290510*
G04 #@! TF.FileFunction,Soldermask,Bot*
G04 #@! TF.FilePolarity,Negative*
%FSLAX46Y46*%
G04 Gerber Fmt 4.6, Leading zero omitted, Abs format (unit mm)*
G04 Created by KiCad (PCBNEW (5.99.0-10394-g2e15de97e0)) date 2021-04-26 16:14:32*
%MOMM*%
%LPD*%
G01*
G04 APERTURE LIST*
G04 Aperture macros list*
%AMRoundRect*
0 Rectangle with rounded corners*
0 $1 Rounding radius*
0 $2 $3 $4 $5 $6 $7 $8 $9 X,Y pos of 4 corners*
0 Add a 4 corners polygon primitive as box body*
4,1,4,$2,$3,$4,$5,$6,$7,$8,$9,$2,$3,0*
0 Add four circle primitives for the rounded corners*
1,1,$1+$1,$2,$3*
1,1,$1+$1,$4,$5*
1,1,$1+$1,$6,$7*
1,1,$1+$1,$8,$9*
0 Add four rect primitives between the rounded corners*
20,1,$1+$1,$2,$3,$4,$5,0*
20,1,$1+$1,$4,$5,$6,$7,0*
20,1,$1+$1,$6,$7,$8,$9,0*
20,1,$1+$1,$8,$9,$2,$3,0*%
G04 Aperture macros list end*
%ADD10C,3.000000*%
%ADD11RoundRect,0.318750X0.318750X0.356250X-0.318750X0.356250X-0.318750X-0.356250X0.318750X-0.356250X0*%
%ADD12RoundRect,0.200000X0.225000X0.725000X-0.225000X0.725000X-0.225000X-0.725000X0.225000X-0.725000X0*%
%ADD13C,2.700000*%
%ADD14RoundRect,0.200000X0.475000X0.750000X-0.475000X0.750000X-0.475000X-0.750000X0.475000X-0.750000X0*%
%ADD15RoundRect,0.318750X0.356250X-0.318750X0.356250X0.318750X-0.356250X0.318750X-0.356250X-0.318750X0*%
%ADD16RoundRect,0.200000X-0.350000X0.300000X-0.350000X-0.300000X0.350000X-0.300000X0.350000X0.300000X0*%
%ADD17RoundRect,0.250000X0.800000X-0.250000X0.800000X0.250000X-0.800000X0.250000X-0.800000X-0.250000X0*%
%ADD18RoundRect,0.350000X1.200000X-0.350000X1.200000X0.350000X-1.200000X0.350000X-1.200000X-0.350000X0*%
%ADD19RoundRect,0.250000X0.250000X-0.612500X0.250000X0.612500X-0.250000X0.612500X-0.250000X-0.612500X0*%
%ADD20RoundRect,0.318750X-0.356250X0.318750X-0.356250X-0.318750X0.356250X-0.318750X0.356250X0.318750X0*%
%ADD21RoundRect,0.250000X-0.800000X0.250000X-0.800000X-0.250000X0.800000X-0.250000X0.800000X0.250000X0*%
%ADD22RoundRect,0.350000X-1.200000X0.350000X-1.200000X-0.350000X1.200000X-0.350000X1.200000X0.350000X0*%
%ADD23RoundRect,0.200000X0.698500X-0.444500X0.698500X0.444500X-0.698500X0.444500X-0.698500X-0.444500X0*%
G04 APERTURE END LIST*
D10*
G04 #@! TO.C,M3*
X-124246000Y136906000D03*
G04 #@! TD*
G04 #@! TO.C,M4*
X-124246000Y151906000D03*
G04 #@! TD*
G04 #@! TO.C,M5*
X-104246000Y151906000D03*
G04 #@! TD*
G04 #@! TO.C,M2*
X-114246000Y151906000D03*
G04 #@! TD*
G04 #@! TO.C,M6*
X-104246000Y136906000D03*
G04 #@! TD*
G04 #@! TO.C,M1*
X-114246000Y136906000D03*
G04 #@! TD*
D11*
G04 #@! TO.C,R4*
X-113258500Y139446000D03*
X-114833500Y139446000D03*
G04 #@! TD*
D12*
G04 #@! TO.C,U2*
X-111039000Y142206000D03*
X-111689000Y142206000D03*
X-112339000Y142206000D03*
X-112989000Y142206000D03*
X-112989000Y146606000D03*
X-112339000Y146606000D03*
X-111689000Y146606000D03*
X-111039000Y146606000D03*
G04 #@! TD*
D13*
G04 #@! TO.C,D1*
X-118246000Y149906000D03*
D14*
X-120321000Y149906000D03*
X-116171000Y149906000D03*
G04 #@! TD*
D15*
G04 #@! TO.C,C2*
X-115570000Y141478000D03*
X-115570000Y143053000D03*
G04 #@! TD*
D16*
G04 #@! TO.C,D2*
X-119380000Y146301000D03*
X-119380000Y147701000D03*
G04 #@! TD*
D15*
G04 #@! TO.C,R5*
X-109474000Y138531500D03*
X-109474000Y140106500D03*
G04 #@! TD*
G04 #@! TO.C,C3*
X-115443000Y145618000D03*
X-115443000Y147193000D03*
G04 #@! TD*
D17*
G04 #@! TO.C,J1*
X-122096000Y142531000D03*
X-122096000Y143781000D03*
X-122096000Y145031000D03*
X-122096000Y146281000D03*
D18*
X-125296000Y148131000D03*
X-125296000Y140681000D03*
G04 #@! TD*
D19*
G04 #@! TO.C,U1*
X-117287000Y141864500D03*
X-118237000Y141864500D03*
X-119187000Y141864500D03*
X-119187000Y144139500D03*
X-117287000Y144139500D03*
G04 #@! TD*
D13*
G04 #@! TO.C,D3*
X-118246000Y138906000D03*
D14*
X-120321000Y138906000D03*
X-116171000Y138906000D03*
G04 #@! TD*
D11*
G04 #@! TO.C,R1*
X-113233000Y149606000D03*
X-114808000Y149606000D03*
G04 #@! TD*
D20*
G04 #@! TO.C,R6*
X-109474000Y150241000D03*
X-109474000Y148666000D03*
G04 #@! TD*
D15*
G04 #@! TO.C,R2*
X-111506000Y138531500D03*
X-111506000Y140106500D03*
G04 #@! TD*
D20*
G04 #@! TO.C,R3*
X-111506000Y150241000D03*
X-111506000Y148666000D03*
G04 #@! TD*
D21*
G04 #@! TO.C,J3*
X-106396000Y146281000D03*
X-106396000Y145031000D03*
X-106396000Y143781000D03*
X-106396000Y142531000D03*
D22*
X-103196000Y140681000D03*
X-103196000Y148131000D03*
G04 #@! TD*
D23*
G04 #@! TO.C,C1*
X-117221000Y145796000D03*
X-117221000Y147701000D03*
G04 #@! TD*
D15*
G04 #@! TO.C,C4*
X-109093000Y145516500D03*
X-109093000Y147091500D03*
G04 #@! TD*
M02*
