G04 #@! TF.GenerationSoftware,KiCad,Pcbnew,5.99.0-unknown-4d227d2d2b~128~ubuntu18.04.1*
G04 #@! TF.CreationDate,2021-05-25T15:01:51+02:00*
G04 #@! TF.ProjectId,TFI2CEXT01A,54464932-4345-4585-9430-31412e6b6963,REV*
G04 #@! TF.SameCoordinates,PX78dfd90PY8290510*
G04 #@! TF.FileFunction,OtherDrawing,Comment*
%FSLAX46Y46*%
G04 Gerber Fmt 4.6, Leading zero omitted, Abs format (unit mm)*
G04 Created by KiCad (PCBNEW 5.99.0-unknown-4d227d2d2b~128~ubuntu18.04.1) date 2021-05-25 15:01:51*
%MOMM*%
%LPD*%
G01*
G04 APERTURE LIST*
%ADD10C,0.150000*%
%ADD11C,0.100000*%
G04 APERTURE END LIST*
D10*
X-99822620Y142501238D02*
X-99822620Y141929809D01*
X-99822620Y142215523D02*
X-100822620Y142215523D01*
X-100679762Y142120285D01*
X-100584524Y142025047D01*
X-100536905Y141929809D01*
X-100822620Y143406000D02*
X-100822620Y142929809D01*
X-100346429Y142882190D01*
X-100394048Y142929809D01*
X-100441667Y143025047D01*
X-100441667Y143263142D01*
X-100394048Y143358380D01*
X-100346429Y143406000D01*
X-100251191Y143453619D01*
X-100013096Y143453619D01*
X-99917858Y143406000D01*
X-99870239Y143358380D01*
X-99822620Y143263142D01*
X-99822620Y143025047D01*
X-99870239Y142929809D01*
X-99917858Y142882190D01*
X-99822620Y144644095D02*
X-100489286Y144644095D01*
X-100394048Y144644095D02*
X-100441667Y144691714D01*
X-100489286Y144786952D01*
X-100489286Y144929809D01*
X-100441667Y145025047D01*
X-100346429Y145072666D01*
X-99822620Y145072666D01*
X-100346429Y145072666D02*
X-100441667Y145120285D01*
X-100489286Y145215523D01*
X-100489286Y145358380D01*
X-100441667Y145453619D01*
X-100346429Y145501238D01*
X-99822620Y145501238D01*
X-99822620Y145977428D02*
X-100489286Y145977428D01*
X-100394048Y145977428D02*
X-100441667Y146025047D01*
X-100489286Y146120285D01*
X-100489286Y146263142D01*
X-100441667Y146358380D01*
X-100346429Y146406000D01*
X-99822620Y146406000D01*
X-100346429Y146406000D02*
X-100441667Y146453619D01*
X-100489286Y146548857D01*
X-100489286Y146691714D01*
X-100441667Y146786952D01*
X-100346429Y146834571D01*
X-99822620Y146834571D01*
D11*
X-101246000Y136906000D02*
X-98538580Y136906000D01*
X-101246000Y151906000D02*
X-98538580Y151906000D01*
X-99125000Y136906000D02*
X-99125000Y151906000D01*
X-99125000Y136906000D02*
X-99125000Y151906000D01*
X-99125000Y136906000D02*
X-98538579Y138032504D01*
X-99125000Y136906000D02*
X-99711421Y138032504D01*
X-99125000Y151906000D02*
X-99711421Y150779496D01*
X-99125000Y151906000D02*
X-98538579Y150779496D01*
D10*
X-121150762Y154722619D02*
X-121722191Y154722619D01*
X-121436477Y154722619D02*
X-121436477Y155722619D01*
X-121531715Y155579761D01*
X-121626953Y155484523D01*
X-121722191Y155436904D01*
X-120531715Y155722619D02*
X-120436477Y155722619D01*
X-120341239Y155675000D01*
X-120293620Y155627380D01*
X-120246000Y155532142D01*
X-120198381Y155341666D01*
X-120198381Y155103571D01*
X-120246000Y154913095D01*
X-120293620Y154817857D01*
X-120341239Y154770238D01*
X-120436477Y154722619D01*
X-120531715Y154722619D01*
X-120626953Y154770238D01*
X-120674572Y154817857D01*
X-120722191Y154913095D01*
X-120769810Y155103571D01*
X-120769810Y155341666D01*
X-120722191Y155532142D01*
X-120674572Y155627380D01*
X-120626953Y155675000D01*
X-120531715Y155722619D01*
X-119007905Y154722619D02*
X-119007905Y155389285D01*
X-119007905Y155294047D02*
X-118960286Y155341666D01*
X-118865048Y155389285D01*
X-118722191Y155389285D01*
X-118626953Y155341666D01*
X-118579334Y155246428D01*
X-118579334Y154722619D01*
X-118579334Y155246428D02*
X-118531715Y155341666D01*
X-118436477Y155389285D01*
X-118293620Y155389285D01*
X-118198381Y155341666D01*
X-118150762Y155246428D01*
X-118150762Y154722619D01*
X-117674572Y154722619D02*
X-117674572Y155389285D01*
X-117674572Y155294047D02*
X-117626953Y155341666D01*
X-117531715Y155389285D01*
X-117388858Y155389285D01*
X-117293620Y155341666D01*
X-117246000Y155246428D01*
X-117246000Y154722619D01*
X-117246000Y155246428D02*
X-117198381Y155341666D01*
X-117103143Y155389285D01*
X-116960286Y155389285D01*
X-116865048Y155341666D01*
X-116817429Y155246428D01*
X-116817429Y154722619D01*
D11*
X-124246000Y152406000D02*
X-124246000Y154611420D01*
X-114246000Y152406000D02*
X-114246000Y154611420D01*
X-124246000Y154025000D02*
X-114246000Y154025000D01*
X-124246000Y154025000D02*
X-114246000Y154025000D01*
X-124246000Y154025000D02*
X-123119496Y153438579D01*
X-124246000Y154025000D02*
X-123119496Y154611421D01*
X-114246000Y154025000D02*
X-115372504Y154611421D01*
X-114246000Y154025000D02*
X-115372504Y153438579D01*
D10*
X-128210285Y155627380D02*
X-128162666Y155675000D01*
X-128067428Y155722619D01*
X-127829333Y155722619D01*
X-127734095Y155675000D01*
X-127686476Y155627380D01*
X-127638857Y155532142D01*
X-127638857Y155436904D01*
X-127686476Y155294047D01*
X-128257904Y154722619D01*
X-127638857Y154722619D01*
X-127210285Y154817857D02*
X-127162666Y154770238D01*
X-127210285Y154722619D01*
X-127257904Y154770238D01*
X-127210285Y154817857D01*
X-127210285Y154722619D01*
X-126257905Y155722619D02*
X-126734096Y155722619D01*
X-126781714Y155246428D01*
X-126734096Y155294047D01*
X-126638858Y155341666D01*
X-126400762Y155341666D01*
X-126305524Y155294047D01*
X-126257905Y155246428D01*
X-126210286Y155151190D01*
X-126210286Y154913095D01*
X-126257905Y154817857D01*
X-126305524Y154770238D01*
X-126400762Y154722619D01*
X-126638858Y154722619D01*
X-126734096Y154770238D01*
X-126781714Y154817857D01*
X-125019810Y154722619D02*
X-125019810Y155389285D01*
X-125019810Y155294047D02*
X-124972191Y155341666D01*
X-124876953Y155389285D01*
X-124734096Y155389285D01*
X-124638858Y155341666D01*
X-124591239Y155246428D01*
X-124591239Y154722619D01*
X-124591239Y155246428D02*
X-124543620Y155341666D01*
X-124448381Y155389285D01*
X-124305524Y155389285D01*
X-124210286Y155341666D01*
X-124162667Y155246428D01*
X-124162667Y154722619D01*
X-123686477Y154722619D02*
X-123686477Y155389285D01*
X-123686477Y155294047D02*
X-123638858Y155341666D01*
X-123543620Y155389285D01*
X-123400762Y155389285D01*
X-123305524Y155341666D01*
X-123257905Y155246428D01*
X-123257905Y154722619D01*
X-123257905Y155246428D02*
X-123210286Y155341666D01*
X-123115048Y155389285D01*
X-122972191Y155389285D01*
X-122876953Y155341666D01*
X-122829334Y155246428D01*
X-122829334Y154722619D01*
D11*
X-126746000Y152406000D02*
X-126746000Y154611420D01*
X-124246000Y152406000D02*
X-124246000Y154611420D01*
X-126746000Y154025000D02*
X-124246000Y154025000D01*
X-126746000Y154025000D02*
X-124246000Y154025000D01*
X-126746000Y154025000D02*
X-125619496Y153438579D01*
X-126746000Y154025000D02*
X-125619496Y154611421D01*
X-124246000Y154025000D02*
X-125372504Y154611421D01*
X-124246000Y154025000D02*
X-125372504Y153438579D01*
D10*
X-111150762Y154722619D02*
X-111722191Y154722619D01*
X-111436477Y154722619D02*
X-111436477Y155722619D01*
X-111531715Y155579761D01*
X-111626953Y155484523D01*
X-111722191Y155436904D01*
X-110531715Y155722619D02*
X-110436477Y155722619D01*
X-110341239Y155675000D01*
X-110293620Y155627380D01*
X-110246000Y155532142D01*
X-110198381Y155341666D01*
X-110198381Y155103571D01*
X-110246000Y154913095D01*
X-110293620Y154817857D01*
X-110341239Y154770238D01*
X-110436477Y154722619D01*
X-110531715Y154722619D01*
X-110626953Y154770238D01*
X-110674572Y154817857D01*
X-110722191Y154913095D01*
X-110769810Y155103571D01*
X-110769810Y155341666D01*
X-110722191Y155532142D01*
X-110674572Y155627380D01*
X-110626953Y155675000D01*
X-110531715Y155722619D01*
X-109007905Y154722619D02*
X-109007905Y155389285D01*
X-109007905Y155294047D02*
X-108960286Y155341666D01*
X-108865048Y155389285D01*
X-108722191Y155389285D01*
X-108626953Y155341666D01*
X-108579334Y155246428D01*
X-108579334Y154722619D01*
X-108579334Y155246428D02*
X-108531715Y155341666D01*
X-108436477Y155389285D01*
X-108293620Y155389285D01*
X-108198381Y155341666D01*
X-108150762Y155246428D01*
X-108150762Y154722619D01*
X-107674572Y154722619D02*
X-107674572Y155389285D01*
X-107674572Y155294047D02*
X-107626953Y155341666D01*
X-107531715Y155389285D01*
X-107388858Y155389285D01*
X-107293620Y155341666D01*
X-107246000Y155246428D01*
X-107246000Y154722619D01*
X-107246000Y155246428D02*
X-107198381Y155341666D01*
X-107103143Y155389285D01*
X-106960286Y155389285D01*
X-106865048Y155341666D01*
X-106817429Y155246428D01*
X-106817429Y154722619D01*
D11*
X-114246000Y152406000D02*
X-114246000Y154611420D01*
X-104246000Y152406000D02*
X-104246000Y154611420D01*
X-114246000Y154025000D02*
X-104246000Y154025000D01*
X-114246000Y154025000D02*
X-104246000Y154025000D01*
X-114246000Y154025000D02*
X-113119496Y153438579D01*
X-114246000Y154025000D02*
X-113119496Y154611421D01*
X-104246000Y154025000D02*
X-105372504Y154611421D01*
X-104246000Y154025000D02*
X-105372504Y153438579D01*
D10*
X-116722191Y133627381D02*
X-116674572Y133675000D01*
X-116579334Y133722620D01*
X-116341239Y133722620D01*
X-116246000Y133675000D01*
X-116198381Y133627381D01*
X-116150762Y133532143D01*
X-116150762Y133436905D01*
X-116198381Y133294048D01*
X-116769810Y132722620D01*
X-116150762Y132722620D01*
X-115246000Y133722620D02*
X-115722191Y133722620D01*
X-115769810Y133246429D01*
X-115722191Y133294048D01*
X-115626953Y133341667D01*
X-115388858Y133341667D01*
X-115293620Y133294048D01*
X-115246000Y133246429D01*
X-115198381Y133151191D01*
X-115198381Y132913096D01*
X-115246000Y132817858D01*
X-115293620Y132770239D01*
X-115388858Y132722620D01*
X-115626953Y132722620D01*
X-115722191Y132770239D01*
X-115769810Y132817858D01*
X-114007905Y132722620D02*
X-114007905Y133389286D01*
X-114007905Y133294048D02*
X-113960286Y133341667D01*
X-113865048Y133389286D01*
X-113722191Y133389286D01*
X-113626953Y133341667D01*
X-113579334Y133246429D01*
X-113579334Y132722620D01*
X-113579334Y133246429D02*
X-113531715Y133341667D01*
X-113436477Y133389286D01*
X-113293620Y133389286D01*
X-113198381Y133341667D01*
X-113150762Y133246429D01*
X-113150762Y132722620D01*
X-112674572Y132722620D02*
X-112674572Y133389286D01*
X-112674572Y133294048D02*
X-112626953Y133341667D01*
X-112531715Y133389286D01*
X-112388858Y133389286D01*
X-112293620Y133341667D01*
X-112246000Y133246429D01*
X-112246000Y132722620D01*
X-112246000Y133246429D02*
X-112198381Y133341667D01*
X-112103143Y133389286D01*
X-111960286Y133389286D01*
X-111865048Y133341667D01*
X-111817429Y133246429D01*
X-111817429Y132722620D01*
D11*
X-126746000Y136406000D02*
X-126746000Y131438580D01*
X-101746000Y136406000D02*
X-101746000Y131438580D01*
X-126746000Y132025000D02*
X-101746000Y132025000D01*
X-126746000Y132025000D02*
X-101746000Y132025000D01*
X-126746000Y132025000D02*
X-125619496Y131438579D01*
X-126746000Y132025000D02*
X-125619496Y132611421D01*
X-101746000Y132025000D02*
X-102872504Y132611421D01*
X-101746000Y132025000D02*
X-102872504Y131438579D01*
M02*
