G04 #@! TF.GenerationSoftware,KiCad,Pcbnew,(5.99.0-10394-g2e15de97e0)*
G04 #@! TF.CreationDate,2021-04-26T16:14:32+02:00*
G04 #@! TF.ProjectId,TFI2CEXT01A,54464932-4345-4585-9430-31412e6b6963,REV*
G04 #@! TF.SameCoordinates,PX78dfd90PY8290510*
G04 #@! TF.FileFunction,Legend,Bot*
G04 #@! TF.FilePolarity,Positive*
%FSLAX46Y46*%
G04 Gerber Fmt 4.6, Leading zero omitted, Abs format (unit mm)*
G04 Created by KiCad (PCBNEW (5.99.0-10394-g2e15de97e0)) date 2021-04-26 16:14:32*
%MOMM*%
%LPD*%
G01*
G04 APERTURE LIST*
%ADD10C,0.150000*%
%ADD11C,0.120000*%
G04 APERTURE END LIST*
D10*
G04 #@! TO.C,J1*
X-121832620Y141303333D02*
X-121118334Y141303333D01*
X-120975477Y141350952D01*
X-120880239Y141446190D01*
X-120832620Y141589047D01*
X-120832620Y141684285D01*
X-120832620Y140303333D02*
X-120832620Y140874761D01*
X-120832620Y140589047D02*
X-121832620Y140589047D01*
X-121689762Y140684285D01*
X-121594524Y140779523D01*
X-121546905Y140874761D01*
G04 #@! TO.C,J3*
X-107989620Y148796333D02*
X-107275334Y148796333D01*
X-107132477Y148843952D01*
X-107037239Y148939190D01*
X-106989620Y149082047D01*
X-106989620Y149177285D01*
X-107989620Y148415380D02*
X-107989620Y147796333D01*
X-107608667Y148129666D01*
X-107608667Y147986809D01*
X-107561048Y147891571D01*
X-107513429Y147843952D01*
X-107418191Y147796333D01*
X-107180096Y147796333D01*
X-107084858Y147843952D01*
X-107037239Y147891571D01*
X-106989620Y147986809D01*
X-106989620Y148272523D01*
X-107037239Y148367761D01*
X-107084858Y148415380D01*
D11*
G04 #@! TO.C,R4*
X-113883221Y138936000D02*
X-114208779Y138936000D01*
X-113883221Y139956000D02*
X-114208779Y139956000D01*
G04 #@! TO.C,U2*
X-113634000Y145406000D02*
X-113634000Y143406000D01*
X-110394000Y144406000D02*
X-110394000Y141406000D01*
G04 #@! TO.C,C2*
X-115060000Y142102721D02*
X-115060000Y142428279D01*
X-116080000Y142102721D02*
X-116080000Y142428279D01*
G04 #@! TO.C,D2*
X-119980000Y147701000D02*
X-119980000Y145851000D01*
X-118780000Y145851000D02*
X-119980000Y145851000D01*
X-118780000Y147701000D02*
X-118780000Y145851000D01*
G04 #@! TO.C,R5*
X-108964000Y139156221D02*
X-108964000Y139481779D01*
X-109984000Y139156221D02*
X-109984000Y139481779D01*
G04 #@! TO.C,C3*
X-114933000Y146242721D02*
X-114933000Y146568279D01*
X-115953000Y146242721D02*
X-115953000Y146568279D01*
G04 #@! TO.C,J1*
X-123686000Y140171000D02*
X-122236000Y140171000D01*
X-122236000Y141971000D02*
X-121246000Y141971000D01*
X-123686000Y148641000D02*
X-122236000Y148641000D01*
X-122236000Y148641000D02*
X-122236000Y146841000D01*
X-126506000Y141441000D02*
X-126506000Y147371000D01*
X-122236000Y140171000D02*
X-122236000Y141971000D01*
G04 #@! TO.C,U1*
X-119797000Y143002000D02*
X-119797000Y143802000D01*
X-116677000Y143002000D02*
X-116677000Y143802000D01*
X-119797000Y143002000D02*
X-119797000Y142202000D01*
X-116677000Y143002000D02*
X-116677000Y141202000D01*
G04 #@! TO.C,R1*
X-113857721Y150116000D02*
X-114183279Y150116000D01*
X-113857721Y149096000D02*
X-114183279Y149096000D01*
G04 #@! TO.C,R6*
X-108964000Y149616279D02*
X-108964000Y149290721D01*
X-109984000Y149616279D02*
X-109984000Y149290721D01*
G04 #@! TO.C,R2*
X-110996000Y139156221D02*
X-110996000Y139481779D01*
X-112016000Y139156221D02*
X-112016000Y139481779D01*
G04 #@! TO.C,R3*
X-112016000Y149616279D02*
X-112016000Y149290721D01*
X-110996000Y149616279D02*
X-110996000Y149290721D01*
G04 #@! TO.C,J3*
X-101986000Y147371000D02*
X-101986000Y141441000D01*
X-104806000Y148641000D02*
X-106256000Y148641000D01*
X-106256000Y140171000D02*
X-106256000Y141971000D01*
X-104806000Y140171000D02*
X-106256000Y140171000D01*
X-106256000Y146841000D02*
X-107246000Y146841000D01*
X-106256000Y148641000D02*
X-106256000Y146841000D01*
D10*
G04 #@! TO.C,C1*
X-117983000Y145224500D02*
X-116459000Y145224500D01*
X-116459000Y148272500D02*
X-117983000Y148272500D01*
D11*
X-117983000Y146367500D02*
X-117983000Y147129500D01*
X-116459000Y146367500D02*
X-116459000Y147129500D01*
G04 #@! TO.C,C4*
X-108583000Y146141221D02*
X-108583000Y146466779D01*
X-109603000Y146141221D02*
X-109603000Y146466779D01*
G04 #@! TD*
M02*
