<?xml version='1.0' encoding='ASCII' standalone='yes'?>
<svg xmlns:svg="http://www.w3.org/2000/svg" xmlns="http://www.w3.org/2000/svg" xmlns:xlink="http://www.w3.org/1999/xlink" version="1.1" width="297.0022mm" height="210.0072mm" viewBox="0.0000 0.0000 297.0022 210.0072">
<title>SVG Image created as TFI2CEXT01-B_Fab.svg date 2023/09/27 16:15:05 </title>
  <desc>Image generated by PCBNEW </desc>
<g style="fill:#000084; fill-opacity:1.0000;stroke:#000084; stroke-opacity:1.0000; stroke-linecap:round; stroke-linejoin:round;" transform="translate(0 0) scale(1 1)">
</g>
<g style="fill:#000084; fill-opacity:0.0;  stroke:#000084; stroke-width:0.0000; stroke-opacity:1;  stroke-linecap:round; stroke-linejoin:round;">
</g>
<g style="fill:#000084; fill-opacity:0.01;  stroke:#000084; stroke-width:1.7714; stroke-opacity:1;  stroke-linecap:round; stroke-linejoin:round;">
<text x="150.8629" y="186.3686" transform="scale(-1 1) translate(-301.725855 0)" textLength="48.5018" font-size="15.7455" lengthAdjust="spacingAndGlyphs" text-anchor="middle" opacity="0.01" style="font-family:monospace">287R</text>
<g class="stroked-text"><desc>287R</desc>
<path d="M171.3883 175.1506 L170.8260 174.5883 "/>
<path d="M170.8260 174.5883 L169.7013 174.0259 "/>
<path d="M169.7013 174.0259 L166.8896 174.0259 "/>
<path d="M166.8896 174.0259 L165.7649 174.5883 "/>
<path d="M165.7649 174.5883 L165.2026 175.1506 "/>
<path d="M165.2026 175.1506 L164.6403 176.2753 "/>
<path d="M164.6403 176.2753 L164.6403 177.4000 "/>
<path d="M164.6403 177.4000 L165.2026 179.0870 "/>
<path d="M165.2026 179.0870 L171.9507 185.8351 "/>
<path d="M171.9507 185.8351 L164.6403 185.8351 "/>
<path d="M157.8922 179.0870 L159.0168 178.5246 "/>
<path d="M159.0168 178.5246 L159.5792 177.9623 "/>
<path d="M159.5792 177.9623 L160.1415 176.8376 "/>
<path d="M160.1415 176.8376 L160.1415 176.2753 "/>
<path d="M160.1415 176.2753 L159.5792 175.1506 "/>
<path d="M159.5792 175.1506 L159.0168 174.5883 "/>
<path d="M159.0168 174.5883 L157.8922 174.0259 "/>
<path d="M157.8922 174.0259 L155.6428 174.0259 "/>
<path d="M155.6428 174.0259 L154.5181 174.5883 "/>
<path d="M154.5181 174.5883 L153.9558 175.1506 "/>
<path d="M153.9558 175.1506 L153.3934 176.2753 "/>
<path d="M153.3934 176.2753 L153.3934 176.8376 "/>
<path d="M153.3934 176.8376 L153.9558 177.9623 "/>
<path d="M153.9558 177.9623 L154.5181 178.5246 "/>
<path d="M154.5181 178.5246 L155.6428 179.0870 "/>
<path d="M155.6428 179.0870 L157.8922 179.0870 "/>
<path d="M157.8922 179.0870 L159.0168 179.6493 "/>
<path d="M159.0168 179.6493 L159.5792 180.2117 "/>
<path d="M159.5792 180.2117 L160.1415 181.3363 "/>
<path d="M160.1415 181.3363 L160.1415 183.5857 "/>
<path d="M160.1415 183.5857 L159.5792 184.7104 "/>
<path d="M159.5792 184.7104 L159.0168 185.2727 "/>
<path d="M159.0168 185.2727 L157.8922 185.8351 "/>
<path d="M157.8922 185.8351 L155.6428 185.8351 "/>
<path d="M155.6428 185.8351 L154.5181 185.2727 "/>
<path d="M154.5181 185.2727 L153.9558 184.7104 "/>
<path d="M153.9558 184.7104 L153.3934 183.5857 "/>
<path d="M153.3934 183.5857 L153.3934 181.3363 "/>
<path d="M153.3934 181.3363 L153.9558 180.2117 "/>
<path d="M153.9558 180.2117 L154.5181 179.6493 "/>
<path d="M154.5181 179.6493 L155.6428 179.0870 "/>
<path d="M149.4571 174.0259 L141.5843 174.0259 "/>
<path d="M141.5843 174.0259 L146.6454 185.8351 "/>
<path d="M130.3375 185.8351 L134.2739 180.2117 "/>
<path d="M137.0856 185.8351 L137.0856 174.0259 "/>
<path d="M137.0856 174.0259 L132.5869 174.0259 "/>
<path d="M132.5869 174.0259 L131.4622 174.5883 "/>
<path d="M131.4622 174.5883 L130.8998 175.1506 "/>
<path d="M130.8998 175.1506 L130.3375 176.2753 "/>
<path d="M130.3375 176.2753 L130.3375 177.9623 "/>
<path d="M130.3375 177.9623 L130.8998 179.0870 "/>
<path d="M130.8998 179.0870 L131.4622 179.6493 "/>
<path d="M131.4622 179.6493 L132.5869 180.2117 "/>
<path d="M132.5869 180.2117 L137.0856 180.2117 "/>
</g></g>
<g style="fill:#000084; fill-opacity:0.01;  stroke:#000084; stroke-width:0.7085; stroke-opacity:1;  stroke-linecap:round; stroke-linejoin:round;">
<text x="150.8629" y="165.9388" transform="scale(-1 1) translate(-301.725855 0)" textLength="10.4033" font-size="6.2982" lengthAdjust="spacingAndGlyphs" text-anchor="middle" opacity="0.01" style="font-family:monospace">R4</text>
<g class="stroked-text"><desc>R4</desc>
<path d="M151.6502 165.7254 L153.2247 163.4760 "/>
<path d="M154.3494 165.7254 L154.3494 161.0017 "/>
<path d="M154.3494 161.0017 L152.5499 161.0017 "/>
<path d="M152.5499 161.0017 L152.1001 161.2267 "/>
<path d="M152.1001 161.2267 L151.8751 161.4516 "/>
<path d="M151.8751 161.4516 L151.6502 161.9015 "/>
<path d="M151.6502 161.9015 L151.6502 162.5763 "/>
<path d="M151.6502 162.5763 L151.8751 163.0261 "/>
<path d="M151.8751 163.0261 L152.1001 163.2511 "/>
<path d="M152.1001 163.2511 L152.5499 163.4760 "/>
<path d="M152.5499 163.4760 L154.3494 163.4760 "/>
<path d="M147.6013 162.5763 L147.6013 165.7254 "/>
<path d="M148.7260 160.7768 L149.8507 164.1508 "/>
<path d="M149.8507 164.1508 L146.9265 164.1508 "/>
</g></g>
<g style="fill:#000084; fill-opacity:0.0;  stroke:#000084; stroke-width:1.1809; stroke-opacity:1;  stroke-linecap:round; stroke-linejoin:round;">
<g transform="rotate(-90.000000 174.8591 105.0036)">
<text x="174.8591" y="107.9559" transform="scale(-1 1) translate(-349.718220 0)" textLength="14.1710" font-size="7.8728" lengthAdjust="spacingAndGlyphs" text-anchor="middle" opacity="0.01" style="font-family:monospace">U2</text>
</g>
<g class="stroked-text"><desc>U2</desc>
<path d="M171.6247 100.5049 L176.4046 100.5049 "/>
<path d="M176.4046 100.5049 L176.9669 100.7861 "/>
<path d="M176.9669 100.7861 L177.2481 101.0672 "/>
<path d="M177.2481 101.0672 L177.5293 101.6296 "/>
<path d="M177.5293 101.6296 L177.5293 102.7542 "/>
<path d="M177.5293 102.7542 L177.2481 103.3166 "/>
<path d="M177.2481 103.3166 L176.9669 103.5978 "/>
<path d="M176.9669 103.5978 L176.4046 103.8789 "/>
<path d="M176.4046 103.8789 L171.6247 103.8789 "/>
<path d="M172.1870 106.4095 L171.9059 106.6906 "/>
<path d="M171.9059 106.6906 L171.6247 107.2530 "/>
<path d="M171.6247 107.2530 L171.6247 108.6588 "/>
<path d="M171.6247 108.6588 L171.9059 109.2212 "/>
<path d="M171.9059 109.2212 L172.1870 109.5023 "/>
<path d="M172.1870 109.5023 L172.7494 109.7835 "/>
<path d="M172.7494 109.7835 L173.3117 109.7835 "/>
<path d="M173.3117 109.7835 L174.1552 109.5023 "/>
<path d="M174.1552 109.5023 L177.5293 106.1283 "/>
<path d="M177.5293 106.1283 L177.5293 109.7835 "/>
</g></g>
<g style="fill:#000084; fill-opacity:0.01;  stroke:#000084; stroke-width:1.7714; stroke-opacity:1;  stroke-linecap:round; stroke-linejoin:round;">
<text x="79.3680" y="48.1520" transform="scale(-1 1) translate(-158.736002 0)" textLength="17.3122" font-size="19.9968" lengthAdjust="spacingAndGlyphs" text-anchor="middle" opacity="0.01" style="font-family:monospace">K</text>
<g class="stroked-text"><desc>K</desc>
<path d="M83.2959 47.4993 L83.2959 32.5017 "/>
<path d="M74.7259 47.4993 L81.1534 38.9292 "/>
<path d="M74.7259 32.5017 L83.2959 41.0717 "/>
</g><g transform="rotate(-90.000000 115.9787 130.2811)">
<text x="115.9787" y="136.1856" transform="scale(-1 1) translate(-231.957425 0)" textLength="57.4993" font-size="15.7455" lengthAdjust="spacingAndGlyphs" text-anchor="middle" opacity="0.01" style="font-family:monospace">100nF</text>
</g>
<g class="stroked-text"><desc>100nF</desc>
<path d="M121.3497 112.0050 L121.3497 105.2569 "/>
<path d="M121.3497 108.6310 L109.5406 108.6310 "/>
<path d="M109.5406 108.6310 L111.2276 107.5063 "/>
<path d="M111.2276 107.5063 L112.3523 106.3816 "/>
<path d="M112.3523 106.3816 L112.9146 105.2569 "/>
<path d="M109.5406 119.3154 L109.5406 120.4401 "/>
<path d="M109.5406 120.4401 L110.1029 121.5648 "/>
<path d="M110.1029 121.5648 L110.6653 122.1271 "/>
<path d="M110.6653 122.1271 L111.7899 122.6895 "/>
<path d="M111.7899 122.6895 L114.0393 123.2518 "/>
<path d="M114.0393 123.2518 L116.8510 123.2518 "/>
<path d="M116.8510 123.2518 L119.1004 122.6895 "/>
<path d="M119.1004 122.6895 L120.2250 122.1271 "/>
<path d="M120.2250 122.1271 L120.7874 121.5648 "/>
<path d="M120.7874 121.5648 L121.3497 120.4401 "/>
<path d="M121.3497 120.4401 L121.3497 119.3154 "/>
<path d="M121.3497 119.3154 L120.7874 118.1908 "/>
<path d="M120.7874 118.1908 L120.2250 117.6284 "/>
<path d="M120.2250 117.6284 L119.1004 117.0661 "/>
<path d="M119.1004 117.0661 L116.8510 116.5037 "/>
<path d="M116.8510 116.5037 L114.0393 116.5037 "/>
<path d="M114.0393 116.5037 L111.7899 117.0661 "/>
<path d="M111.7899 117.0661 L110.6653 117.6284 "/>
<path d="M110.6653 117.6284 L110.1029 118.1908 "/>
<path d="M110.1029 118.1908 L109.5406 119.3154 "/>
<path d="M109.5406 130.5623 L109.5406 131.6869 "/>
<path d="M109.5406 131.6869 L110.1029 132.8116 "/>
<path d="M110.1029 132.8116 L110.6653 133.3739 "/>
<path d="M110.6653 133.3739 L111.7899 133.9363 "/>
<path d="M111.7899 133.9363 L114.0393 134.4986 "/>
<path d="M114.0393 134.4986 L116.8510 134.4986 "/>
<path d="M116.8510 134.4986 L119.1004 133.9363 "/>
<path d="M119.1004 133.9363 L120.2250 133.3739 "/>
<path d="M120.2250 133.3739 L120.7874 132.8116 "/>
<path d="M120.7874 132.8116 L121.3497 131.6869 "/>
<path d="M121.3497 131.6869 L121.3497 130.5623 "/>
<path d="M121.3497 130.5623 L120.7874 129.4376 "/>
<path d="M120.7874 129.4376 L120.2250 128.8752 "/>
<path d="M120.2250 128.8752 L119.1004 128.3129 "/>
<path d="M119.1004 128.3129 L116.8510 127.7506 "/>
<path d="M116.8510 127.7506 L114.0393 127.7506 "/>
<path d="M114.0393 127.7506 L111.7899 128.3129 "/>
<path d="M111.7899 128.3129 L110.6653 128.8752 "/>
<path d="M110.6653 128.8752 L110.1029 129.4376 "/>
<path d="M110.1029 129.4376 L109.5406 130.5623 "/>
<path d="M113.4770 139.5597 L121.3497 139.5597 "/>
<path d="M114.6016 139.5597 L114.0393 140.1220 "/>
<path d="M114.0393 140.1220 L113.4770 141.2467 "/>
<path d="M113.4770 141.2467 L113.4770 142.9337 "/>
<path d="M113.4770 142.9337 L114.0393 144.0584 "/>
<path d="M114.0393 144.0584 L115.1640 144.6208 "/>
<path d="M115.1640 144.6208 L121.3497 144.6208 "/>
<path d="M115.1640 154.1805 L115.1640 150.2442 "/>
<path d="M121.3497 150.2442 L109.5406 150.2442 "/>
<path d="M109.5406 150.2442 L109.5406 155.8676 "/>
</g></g>
<g style="fill:#000084; fill-opacity:0.0;  stroke:#000084; stroke-width:0.7085; stroke-opacity:1;  stroke-linecap:round; stroke-linejoin:round;">
<g transform="rotate(-90.000000 132.8658 130.2811)">
<text x="132.8658" y="132.6429" transform="scale(-1 1) translate(-265.731580 0)" textLength="10.4033" font-size="6.2982" lengthAdjust="spacingAndGlyphs" text-anchor="middle" opacity="0.01" style="font-family:monospace">C2</text>
</g>
<g class="stroked-text"><desc>C2</desc>
<path d="M134.5643 129.4938 L134.7893 129.2689 "/>
<path d="M134.7893 129.2689 L135.0142 128.5941 "/>
<path d="M135.0142 128.5941 L135.0142 128.1442 "/>
<path d="M135.0142 128.1442 L134.7893 127.4694 "/>
<path d="M134.7893 127.4694 L134.3394 127.0195 "/>
<path d="M134.3394 127.0195 L133.8895 126.7946 "/>
<path d="M133.8895 126.7946 L132.9898 126.5696 "/>
<path d="M132.9898 126.5696 L132.3150 126.5696 "/>
<path d="M132.3150 126.5696 L131.4152 126.7946 "/>
<path d="M131.4152 126.7946 L130.9653 127.0195 "/>
<path d="M130.9653 127.0195 L130.5155 127.4694 "/>
<path d="M130.5155 127.4694 L130.2905 128.1442 "/>
<path d="M130.2905 128.1442 L130.2905 128.5941 "/>
<path d="M130.2905 128.5941 L130.5155 129.2689 "/>
<path d="M130.5155 129.2689 L130.7404 129.4938 "/>
<path d="M130.7404 131.2933 L130.5155 131.5182 "/>
<path d="M130.5155 131.5182 L130.2905 131.9681 "/>
<path d="M130.2905 131.9681 L130.2905 133.0928 "/>
<path d="M130.2905 133.0928 L130.5155 133.5427 "/>
<path d="M130.5155 133.5427 L130.7404 133.7676 "/>
<path d="M130.7404 133.7676 L131.1903 133.9925 "/>
<path d="M131.1903 133.9925 L131.6402 133.9925 "/>
<path d="M131.6402 133.9925 L132.3150 133.7676 "/>
<path d="M132.3150 133.7676 L135.0142 131.0684 "/>
<path d="M135.0142 131.0684 L135.0142 133.9925 "/>
</g></g>
<g style="fill:#000084; fill-opacity:0.0;  stroke:#000084; stroke-width:1.7714; stroke-opacity:1;  stroke-linecap:round; stroke-linejoin:round;">
<g transform="rotate(-90.000000 72.8753 74.3589)">
<text x="72.8753" y="80.2634" transform="scale(-1 1) translate(-145.750666 0)" textLength="26.0082" font-size="15.7455" lengthAdjust="spacingAndGlyphs" text-anchor="middle" opacity="0.01" style="font-family:monospace">D2</text>
</g>
<g class="stroked-text"><desc>D2</desc>
<path d="M78.2464 65.6426 L66.4372 65.6426 "/>
<path d="M66.4372 65.6426 L66.4372 68.4543 "/>
<path d="M66.4372 68.4543 L66.9996 70.1413 "/>
<path d="M66.9996 70.1413 L68.1242 71.2660 "/>
<path d="M68.1242 71.2660 L69.2489 71.8283 "/>
<path d="M69.2489 71.8283 L71.4983 72.3907 "/>
<path d="M71.4983 72.3907 L73.1853 72.3907 "/>
<path d="M73.1853 72.3907 L75.4346 71.8283 "/>
<path d="M75.4346 71.8283 L76.5593 71.2660 "/>
<path d="M76.5593 71.2660 L77.6840 70.1413 "/>
<path d="M77.6840 70.1413 L78.2464 68.4543 "/>
<path d="M78.2464 68.4543 L78.2464 65.6426 "/>
<path d="M67.5619 76.8894 L66.9996 77.4518 "/>
<path d="M66.9996 77.4518 L66.4372 78.5764 "/>
<path d="M66.4372 78.5764 L66.4372 81.3881 "/>
<path d="M66.4372 81.3881 L66.9996 82.5128 "/>
<path d="M66.9996 82.5128 L67.5619 83.0752 "/>
<path d="M67.5619 83.0752 L68.6866 83.6375 "/>
<path d="M68.6866 83.6375 L69.8112 83.6375 "/>
<path d="M69.8112 83.6375 L71.4983 83.0752 "/>
<path d="M71.4983 83.0752 L78.2464 76.3271 "/>
<path d="M78.2464 76.3271 L78.2464 83.6375 "/>
</g><g transform="rotate(-90.000000 187.9673 165.0767)">
<text x="187.9673" y="170.9813" transform="scale(-1 1) translate(-375.934523 0)" textLength="35.0057" font-size="15.7455" lengthAdjust="spacingAndGlyphs" text-anchor="middle" opacity="0.01" style="font-family:monospace">10k</text>
</g>
<g class="stroked-text"><desc>10k</desc>
<path d="M193.3383 158.0475 L193.3383 151.2994 "/>
<path d="M193.3383 154.6734 L181.5291 154.6734 "/>
<path d="M181.5291 154.6734 L183.2162 153.5488 "/>
<path d="M183.2162 153.5488 L184.3408 152.4241 "/>
<path d="M184.3408 152.4241 L184.9032 151.2994 "/>
<path d="M181.5291 165.3579 L181.5291 166.4826 "/>
<path d="M181.5291 166.4826 L182.0915 167.6073 "/>
<path d="M182.0915 167.6073 L182.6538 168.1696 "/>
<path d="M182.6538 168.1696 L183.7785 168.7319 "/>
<path d="M183.7785 168.7319 L186.0279 169.2943 "/>
<path d="M186.0279 169.2943 L188.8396 169.2943 "/>
<path d="M188.8396 169.2943 L191.0889 168.7319 "/>
<path d="M191.0889 168.7319 L192.2136 168.1696 "/>
<path d="M192.2136 168.1696 L192.7759 167.6073 "/>
<path d="M192.7759 167.6073 L193.3383 166.4826 "/>
<path d="M193.3383 166.4826 L193.3383 165.3579 "/>
<path d="M193.3383 165.3579 L192.7759 164.2332 "/>
<path d="M192.7759 164.2332 L192.2136 163.6709 "/>
<path d="M192.2136 163.6709 L191.0889 163.1085 "/>
<path d="M191.0889 163.1085 L188.8396 162.5462 "/>
<path d="M188.8396 162.5462 L186.0279 162.5462 "/>
<path d="M186.0279 162.5462 L183.7785 163.1085 "/>
<path d="M183.7785 163.1085 L182.6538 163.6709 "/>
<path d="M182.6538 163.6709 L182.0915 164.2332 "/>
<path d="M182.0915 164.2332 L181.5291 165.3579 "/>
<path d="M193.3383 174.3553 L181.5291 174.3553 "/>
<path d="M188.8396 175.4800 L193.3383 178.8541 "/>
<path d="M185.4655 178.8541 L189.9642 174.3553 "/>
</g></g>
<g style="fill:#000084; fill-opacity:0.0;  stroke:#000084; stroke-width:0.7085; stroke-opacity:1;  stroke-linecap:round; stroke-linejoin:round;">
<g transform="rotate(-90.000000 204.8543 165.0767)">
<text x="204.8543" y="167.4386" transform="scale(-1 1) translate(-409.708678 0)" textLength="10.4033" font-size="6.2982" lengthAdjust="spacingAndGlyphs" text-anchor="middle" opacity="0.01" style="font-family:monospace">R5</text>
</g>
<g class="stroked-text"><desc>R5</desc>
<path d="M207.0027 164.2895 L204.7534 162.7149 "/>
<path d="M207.0027 161.5902 L202.2791 161.5902 "/>
<path d="M202.2791 161.5902 L202.2791 163.3897 "/>
<path d="M202.2791 163.3897 L202.5040 163.8396 "/>
<path d="M202.5040 163.8396 L202.7290 164.0645 "/>
<path d="M202.7290 164.0645 L203.1788 164.2895 "/>
<path d="M203.1788 164.2895 L203.8536 164.2895 "/>
<path d="M203.8536 164.2895 L204.3035 164.0645 "/>
<path d="M204.3035 164.0645 L204.5284 163.8396 "/>
<path d="M204.5284 163.8396 L204.7534 163.3897 "/>
<path d="M204.7534 163.3897 L204.7534 161.5902 "/>
<path d="M202.2791 168.5632 L202.2791 166.3139 "/>
<path d="M202.2791 166.3139 L204.5284 166.0889 "/>
<path d="M204.5284 166.0889 L204.3035 166.3139 "/>
<path d="M204.3035 166.3139 L204.0786 166.7638 "/>
<path d="M204.0786 166.7638 L204.0786 167.8884 "/>
<path d="M204.0786 167.8884 L204.3035 168.3383 "/>
<path d="M204.3035 168.3383 L204.5284 168.5632 "/>
<path d="M204.5284 168.5632 L204.9783 168.7882 "/>
<path d="M204.9783 168.7882 L206.1030 168.7882 "/>
<path d="M206.1030 168.7882 L206.5529 168.5632 "/>
<path d="M206.5529 168.5632 L206.7778 168.3383 "/>
<path d="M206.7778 168.3383 L207.0027 167.8884 "/>
<path d="M207.0027 167.8884 L207.0027 166.7638 "/>
<path d="M207.0027 166.7638 L206.7778 166.3139 "/>
<path d="M206.7778 166.3139 L206.5529 166.0889 "/>
</g></g>
<g style="fill:#000084; fill-opacity:0.0;  stroke:#000084; stroke-width:1.7714; stroke-opacity:1;  stroke-linecap:round; stroke-linejoin:round;">
<g transform="rotate(-90.000000 117.4785 81.3912)">
<text x="117.4785" y="87.2958" transform="scale(-1 1) translate(-234.956948 0)" textLength="35.0057" font-size="15.7455" lengthAdjust="spacingAndGlyphs" text-anchor="middle" opacity="0.01" style="font-family:monospace">1uF</text>
</g>
<g class="stroked-text"><desc>1uF</desc>
<path d="M122.8495 74.3620 L122.8495 67.6139 "/>
<path d="M122.8495 70.9879 L111.0404 70.9879 "/>
<path d="M111.0404 70.9879 L112.7274 69.8632 "/>
<path d="M112.7274 69.8632 L113.8521 68.7386 "/>
<path d="M113.8521 68.7386 L114.4144 67.6139 "/>
<path d="M114.9767 84.4841 L122.8495 84.4841 "/>
<path d="M114.9767 79.4230 L121.1625 79.4230 "/>
<path d="M121.1625 79.4230 L122.2872 79.9854 "/>
<path d="M122.2872 79.9854 L122.8495 81.1101 "/>
<path d="M122.8495 81.1101 L122.8495 82.7971 "/>
<path d="M122.8495 82.7971 L122.2872 83.9217 "/>
<path d="M122.2872 83.9217 L121.7248 84.4841 "/>
<path d="M116.6637 94.0439 L116.6637 90.1075 "/>
<path d="M122.8495 90.1075 L111.0404 90.1075 "/>
<path d="M111.0404 90.1075 L111.0404 95.7309 "/>
</g></g>
<g style="fill:#000084; fill-opacity:0.0;  stroke:#000084; stroke-width:0.7085; stroke-opacity:1;  stroke-linecap:round; stroke-linejoin:round;">
<g transform="rotate(-90.000000 134.3656 81.3912)">
<text x="134.3656" y="83.7530" transform="scale(-1 1) translate(-268.731103 0)" textLength="10.4033" font-size="6.2982" lengthAdjust="spacingAndGlyphs" text-anchor="middle" opacity="0.01" style="font-family:monospace">C3</text>
</g>
<g class="stroked-text"><desc>C3</desc>
<path d="M136.0641 80.6039 L136.2890 80.3790 "/>
<path d="M136.2890 80.3790 L136.5140 79.7042 "/>
<path d="M136.5140 79.7042 L136.5140 79.2543 "/>
<path d="M136.5140 79.2543 L136.2890 78.5795 "/>
<path d="M136.2890 78.5795 L135.8391 78.1296 "/>
<path d="M135.8391 78.1296 L135.3893 77.9047 "/>
<path d="M135.3893 77.9047 L134.4895 77.6798 "/>
<path d="M134.4895 77.6798 L133.8147 77.6798 "/>
<path d="M133.8147 77.6798 L132.9150 77.9047 "/>
<path d="M132.9150 77.9047 L132.4651 78.1296 "/>
<path d="M132.4651 78.1296 L132.0152 78.5795 "/>
<path d="M132.0152 78.5795 L131.7903 79.2543 "/>
<path d="M131.7903 79.2543 L131.7903 79.7042 "/>
<path d="M131.7903 79.7042 L132.0152 80.3790 "/>
<path d="M132.0152 80.3790 L132.2402 80.6039 "/>
<path d="M131.7903 82.1785 L131.7903 85.1027 "/>
<path d="M131.7903 85.1027 L133.5898 83.5281 "/>
<path d="M133.5898 83.5281 L133.5898 84.2029 "/>
<path d="M133.5898 84.2029 L133.8147 84.6528 "/>
<path d="M133.8147 84.6528 L134.0397 84.8777 "/>
<path d="M134.0397 84.8777 L134.4895 85.1027 "/>
<path d="M134.4895 85.1027 L135.6142 85.1027 "/>
<path d="M135.6142 85.1027 L136.0641 84.8777 "/>
<path d="M136.0641 84.8777 L136.2890 84.6528 "/>
<path d="M136.2890 84.6528 L136.5140 84.2029 "/>
<path d="M136.5140 84.2029 L136.5140 82.8533 "/>
<path d="M136.5140 82.8533 L136.2890 82.4034 "/>
<path d="M136.2890 82.4034 L136.0641 82.1785 "/>
</g></g>
<g style="fill:#000084; fill-opacity:0.0;  stroke:#000084; stroke-width:1.7714; stroke-opacity:1;  stroke-linecap:round; stroke-linejoin:round;">
<g transform="rotate(-90.000000 33.9524 105.0036)">
<text x="33.9524" y="110.9082" transform="scale(-1 1) translate(-67.904781 0)" textLength="23.1965" font-size="15.7455" lengthAdjust="spacingAndGlyphs" text-anchor="middle" opacity="0.01" style="font-family:monospace">J1</text>
</g>
<g class="stroked-text"><desc>J1</desc>
<path d="M27.5143 101.0672 L35.9494 101.0672 "/>
<path d="M35.9494 101.0672 L37.6364 100.5049 "/>
<path d="M37.6364 100.5049 L38.7611 99.3802 "/>
<path d="M38.7611 99.3802 L39.3234 97.6932 "/>
<path d="M39.3234 97.6932 L39.3234 96.5685 "/>
<path d="M39.3234 112.8764 L39.3234 106.1283 "/>
<path d="M39.3234 109.5023 L27.5143 109.5023 "/>
<path d="M27.5143 109.5023 L29.2013 108.3777 "/>
<path d="M29.2013 108.3777 L30.3260 107.2530 "/>
<path d="M30.3260 107.2530 L30.8883 106.1283 "/>
</g></g>
<g style="fill:#000084; fill-opacity:0.0;  stroke:#000084; stroke-width:0.7085; stroke-opacity:1;  stroke-linecap:round; stroke-linejoin:round;">
<g transform="rotate(-90.000000 101.3708 121.5836)">
<text x="101.3708" y="123.9455" transform="scale(-1 1) translate(-202.741600 0)" textLength="10.6282" font-size="6.2982" lengthAdjust="spacingAndGlyphs" text-anchor="middle" opacity="0.01" style="font-family:monospace">U1</text>
</g>
<g class="stroked-text"><desc>U1</desc>
<path d="M98.7955 117.9847 L102.6195 117.9847 "/>
<path d="M102.6195 117.9847 L103.0693 118.2096 "/>
<path d="M103.0693 118.2096 L103.2943 118.4345 "/>
<path d="M103.2943 118.4345 L103.5192 118.8844 "/>
<path d="M103.5192 118.8844 L103.5192 119.7842 "/>
<path d="M103.5192 119.7842 L103.2943 120.2340 "/>
<path d="M103.2943 120.2340 L103.0693 120.4590 "/>
<path d="M103.0693 120.4590 L102.6195 120.6839 "/>
<path d="M102.6195 120.6839 L98.7955 120.6839 "/>
<path d="M103.5192 125.4076 L103.5192 122.7083 "/>
<path d="M103.5192 124.0580 L98.7955 124.0580 "/>
<path d="M98.7955 124.0580 L99.4704 123.6081 "/>
<path d="M99.4704 123.6081 L99.9202 123.1582 "/>
<path d="M99.9202 123.1582 L100.1452 122.7083 "/>
</g></g>
<g style="fill:#000084; fill-opacity:0.01;  stroke:#000084; stroke-width:1.7714; stroke-opacity:1;  stroke-linecap:round; stroke-linejoin:round;">
<text x="79.3680" y="178.0526" transform="scale(-1 1) translate(-158.736002 0)" textLength="17.3122" font-size="19.9968" lengthAdjust="spacingAndGlyphs" text-anchor="middle" opacity="0.01" style="font-family:monospace">K</text>
<g class="stroked-text"><desc>K</desc>
<path d="M83.2959 177.3999 L83.2959 162.4023 "/>
<path d="M74.7259 177.3999 L81.1534 168.8298 "/>
<path d="M74.7259 162.4023 L83.2959 170.9723 "/>
</g><text x="151.1641" y="66.3877" transform="scale(-1 1) translate(-302.328121 0)" textLength="48.5018" font-size="15.7455" lengthAdjust="spacingAndGlyphs" text-anchor="middle" opacity="0.01" style="font-family:monospace">130R</text>
<g class="stroked-text"><desc>130R</desc>
<path d="M164.9414 65.8542 L171.6895 65.8542 "/>
<path d="M168.3154 65.8542 L168.3154 54.0450 "/>
<path d="M168.3154 54.0450 L169.4401 55.7320 "/>
<path d="M169.4401 55.7320 L170.5648 56.8567 "/>
<path d="M170.5648 56.8567 L171.6895 57.4191 "/>
<path d="M161.0050 54.0450 L153.6946 54.0450 "/>
<path d="M153.6946 54.0450 L157.6310 58.5437 "/>
<path d="M157.6310 58.5437 L155.9439 58.5437 "/>
<path d="M155.9439 58.5437 L154.8193 59.1061 "/>
<path d="M154.8193 59.1061 L154.2569 59.6684 "/>
<path d="M154.2569 59.6684 L153.6946 60.7931 "/>
<path d="M153.6946 60.7931 L153.6946 63.6048 "/>
<path d="M153.6946 63.6048 L154.2569 64.7295 "/>
<path d="M154.2569 64.7295 L154.8193 65.2918 "/>
<path d="M154.8193 65.2918 L155.9439 65.8542 "/>
<path d="M155.9439 65.8542 L159.3180 65.8542 "/>
<path d="M159.3180 65.8542 L160.4427 65.2918 "/>
<path d="M160.4427 65.2918 L161.0050 64.7295 "/>
<path d="M146.3842 54.0450 L145.2595 54.0450 "/>
<path d="M145.2595 54.0450 L144.1348 54.6074 "/>
<path d="M144.1348 54.6074 L143.5725 55.1697 "/>
<path d="M143.5725 55.1697 L143.0101 56.2944 "/>
<path d="M143.0101 56.2944 L142.4478 58.5437 "/>
<path d="M142.4478 58.5437 L142.4478 61.3554 "/>
<path d="M142.4478 61.3554 L143.0101 63.6048 "/>
<path d="M143.0101 63.6048 L143.5725 64.7295 "/>
<path d="M143.5725 64.7295 L144.1348 65.2918 "/>
<path d="M144.1348 65.2918 L145.2595 65.8542 "/>
<path d="M145.2595 65.8542 L146.3842 65.8542 "/>
<path d="M146.3842 65.8542 L147.5088 65.2918 "/>
<path d="M147.5088 65.2918 L148.0712 64.7295 "/>
<path d="M148.0712 64.7295 L148.6335 63.6048 "/>
<path d="M148.6335 63.6048 L149.1959 61.3554 "/>
<path d="M149.1959 61.3554 L149.1959 58.5437 "/>
<path d="M149.1959 58.5437 L148.6335 56.2944 "/>
<path d="M148.6335 56.2944 L148.0712 55.1697 "/>
<path d="M148.0712 55.1697 L147.5088 54.6074 "/>
<path d="M147.5088 54.6074 L146.3842 54.0450 "/>
<path d="M130.6386 65.8542 L134.5750 60.2307 "/>
<path d="M137.3867 65.8542 L137.3867 54.0450 "/>
<path d="M137.3867 54.0450 L132.8880 54.0450 "/>
<path d="M132.8880 54.0450 L131.7633 54.6074 "/>
<path d="M131.7633 54.6074 L131.2010 55.1697 "/>
<path d="M131.2010 55.1697 L130.6386 56.2944 "/>
<path d="M130.6386 56.2944 L130.6386 57.9814 "/>
<path d="M130.6386 57.9814 L131.2010 59.1061 "/>
<path d="M131.2010 59.1061 L131.7633 59.6684 "/>
<path d="M131.7633 59.6684 L132.8880 60.2307 "/>
<path d="M132.8880 60.2307 L137.3867 60.2307 "/>
</g></g>
<g style="fill:#000084; fill-opacity:0.01;  stroke:#000084; stroke-width:0.7085; stroke-opacity:1;  stroke-linecap:round; stroke-linejoin:round;">
<text x="151.1641" y="45.9579" transform="scale(-1 1) translate(-302.328121 0)" textLength="10.4033" font-size="6.2982" lengthAdjust="spacingAndGlyphs" text-anchor="middle" opacity="0.01" style="font-family:monospace">R1</text>
<g class="stroked-text"><desc>R1</desc>
<path d="M151.9513 45.7445 L153.5259 43.4951 "/>
<path d="M154.6506 45.7445 L154.6506 41.0208 "/>
<path d="M154.6506 41.0208 L152.8511 41.0208 "/>
<path d="M152.8511 41.0208 L152.4012 41.2457 "/>
<path d="M152.4012 41.2457 L152.1763 41.4707 "/>
<path d="M152.1763 41.4707 L151.9513 41.9206 "/>
<path d="M151.9513 41.9206 L151.9513 42.5954 "/>
<path d="M151.9513 42.5954 L152.1763 43.0452 "/>
<path d="M152.1763 43.0452 L152.4012 43.2702 "/>
<path d="M152.4012 43.2702 L152.8511 43.4951 "/>
<path d="M152.8511 43.4951 L154.6506 43.4951 "/>
<path d="M147.4526 45.7445 L150.1518 45.7445 "/>
<path d="M148.8022 45.7445 L148.8022 41.0208 "/>
<path d="M148.8022 41.0208 L149.2521 41.6956 "/>
<path d="M149.2521 41.6956 L149.7020 42.1455 "/>
<path d="M149.7020 42.1455 L150.1518 42.3704 "/>
</g></g>
<g style="fill:#000084; fill-opacity:0.0;  stroke:#000084; stroke-width:1.7714; stroke-opacity:1;  stroke-linecap:round; stroke-linejoin:round;">
<g transform="rotate(-90.000000 221.7414 45.3969)">
<text x="221.7414" y="51.3015" transform="scale(-1 1) translate(-443.482833 0)" textLength="35.0057" font-size="15.7455" lengthAdjust="spacingAndGlyphs" text-anchor="middle" opacity="0.01" style="font-family:monospace">10k</text>
</g>
<g class="stroked-text"><desc>10k</desc>
<path d="M227.1124 38.3677 L227.1124 31.6196 "/>
<path d="M227.1124 34.9937 L215.3033 34.9937 "/>
<path d="M215.3033 34.9937 L216.9903 33.8690 "/>
<path d="M216.9903 33.8690 L218.1150 32.7443 "/>
<path d="M218.1150 32.7443 L218.6773 31.6196 "/>
<path d="M215.3033 45.6781 L215.3033 46.8028 "/>
<path d="M215.3033 46.8028 L215.8656 47.9275 "/>
<path d="M215.8656 47.9275 L216.4280 48.4898 "/>
<path d="M216.4280 48.4898 L217.5527 49.0522 "/>
<path d="M217.5527 49.0522 L219.8020 49.6145 "/>
<path d="M219.8020 49.6145 L222.6137 49.6145 "/>
<path d="M222.6137 49.6145 L224.8631 49.0522 "/>
<path d="M224.8631 49.0522 L225.9877 48.4898 "/>
<path d="M225.9877 48.4898 L226.5501 47.9275 "/>
<path d="M226.5501 47.9275 L227.1124 46.8028 "/>
<path d="M227.1124 46.8028 L227.1124 45.6781 "/>
<path d="M227.1124 45.6781 L226.5501 44.5534 "/>
<path d="M226.5501 44.5534 L225.9877 43.9911 "/>
<path d="M225.9877 43.9911 L224.8631 43.4288 "/>
<path d="M224.8631 43.4288 L222.6137 42.8664 "/>
<path d="M222.6137 42.8664 L219.8020 42.8664 "/>
<path d="M219.8020 42.8664 L217.5527 43.4288 "/>
<path d="M217.5527 43.4288 L216.4280 43.9911 "/>
<path d="M216.4280 43.9911 L215.8656 44.5534 "/>
<path d="M215.8656 44.5534 L215.3033 45.6781 "/>
<path d="M227.1124 54.6756 L215.3033 54.6756 "/>
<path d="M222.6137 55.8002 L227.1124 59.1743 "/>
<path d="M219.2397 59.1743 L223.7384 54.6756 "/>
</g></g>
<g style="fill:#000084; fill-opacity:0.0;  stroke:#000084; stroke-width:0.7085; stroke-opacity:1;  stroke-linecap:round; stroke-linejoin:round;">
<g transform="rotate(-90.000000 204.8543 45.3969)">
<text x="204.8543" y="47.7588" transform="scale(-1 1) translate(-409.708678 0)" textLength="10.4033" font-size="6.2982" lengthAdjust="spacingAndGlyphs" text-anchor="middle" opacity="0.01" style="font-family:monospace">R6</text>
</g>
<g class="stroked-text"><desc>R6</desc>
<path d="M207.0027 44.6097 L204.7534 43.0351 "/>
<path d="M207.0027 41.9104 L202.2791 41.9104 "/>
<path d="M202.2791 41.9104 L202.2791 43.7099 "/>
<path d="M202.2791 43.7099 L202.5040 44.1598 "/>
<path d="M202.5040 44.1598 L202.7290 44.3847 "/>
<path d="M202.7290 44.3847 L203.1788 44.6097 "/>
<path d="M203.1788 44.6097 L203.8536 44.6097 "/>
<path d="M203.8536 44.6097 L204.3035 44.3847 "/>
<path d="M204.3035 44.3847 L204.5284 44.1598 "/>
<path d="M204.5284 44.1598 L204.7534 43.7099 "/>
<path d="M204.7534 43.7099 L204.7534 41.9104 "/>
<path d="M202.2791 48.6585 L202.2791 47.7588 "/>
<path d="M202.2791 47.7588 L202.5040 47.3089 "/>
<path d="M202.5040 47.3089 L202.7290 47.0840 "/>
<path d="M202.7290 47.0840 L203.4038 46.6341 "/>
<path d="M203.4038 46.6341 L204.3035 46.4092 "/>
<path d="M204.3035 46.4092 L206.1030 46.4092 "/>
<path d="M206.1030 46.4092 L206.5529 46.6341 "/>
<path d="M206.5529 46.6341 L206.7778 46.8590 "/>
<path d="M206.7778 46.8590 L207.0027 47.3089 "/>
<path d="M207.0027 47.3089 L207.0027 48.2087 "/>
<path d="M207.0027 48.2087 L206.7778 48.6585 "/>
<path d="M206.7778 48.6585 L206.5529 48.8835 "/>
<path d="M206.5529 48.8835 L206.1030 49.1084 "/>
<path d="M206.1030 49.1084 L204.9783 49.1084 "/>
<path d="M204.9783 49.1084 L204.5284 48.8835 "/>
<path d="M204.5284 48.8835 L204.3035 48.6585 "/>
<path d="M204.3035 48.6585 L204.0786 48.2087 "/>
<path d="M204.0786 48.2087 L204.0786 47.3089 "/>
<path d="M204.0786 47.3089 L204.3035 46.8590 "/>
<path d="M204.3035 46.8590 L204.5284 46.6341 "/>
<path d="M204.5284 46.6341 L204.9783 46.4092 "/>
</g></g>
<g style="fill:#000084; fill-opacity:0.0;  stroke:#000084; stroke-width:1.7714; stroke-opacity:1;  stroke-linecap:round; stroke-linejoin:round;">
<g transform="rotate(-90.000000 163.9711 165.0767)">
<text x="163.9711" y="170.9813" transform="scale(-1 1) translate(-327.942157 0)" textLength="35.0057" font-size="15.7455" lengthAdjust="spacingAndGlyphs" text-anchor="middle" opacity="0.01" style="font-family:monospace">10k</text>
</g>
<g class="stroked-text"><desc>10k</desc>
<path d="M169.3421 158.0475 L169.3421 151.2994 "/>
<path d="M169.3421 154.6734 L157.5330 154.6734 "/>
<path d="M157.5330 154.6734 L159.2200 153.5488 "/>
<path d="M159.2200 153.5488 L160.3447 152.4241 "/>
<path d="M160.3447 152.4241 L160.9070 151.2994 "/>
<path d="M157.5330 165.3579 L157.5330 166.4826 "/>
<path d="M157.5330 166.4826 L158.0953 167.6073 "/>
<path d="M158.0953 167.6073 L158.6576 168.1696 "/>
<path d="M158.6576 168.1696 L159.7823 168.7319 "/>
<path d="M159.7823 168.7319 L162.0317 169.2943 "/>
<path d="M162.0317 169.2943 L164.8434 169.2943 "/>
<path d="M164.8434 169.2943 L167.0927 168.7319 "/>
<path d="M167.0927 168.7319 L168.2174 168.1696 "/>
<path d="M168.2174 168.1696 L168.7798 167.6073 "/>
<path d="M168.7798 167.6073 L169.3421 166.4826 "/>
<path d="M169.3421 166.4826 L169.3421 165.3579 "/>
<path d="M169.3421 165.3579 L168.7798 164.2332 "/>
<path d="M168.7798 164.2332 L168.2174 163.6709 "/>
<path d="M168.2174 163.6709 L167.0927 163.1085 "/>
<path d="M167.0927 163.1085 L164.8434 162.5462 "/>
<path d="M164.8434 162.5462 L162.0317 162.5462 "/>
<path d="M162.0317 162.5462 L159.7823 163.1085 "/>
<path d="M159.7823 163.1085 L158.6576 163.6709 "/>
<path d="M158.6576 163.6709 L158.0953 164.2332 "/>
<path d="M158.0953 164.2332 L157.5330 165.3579 "/>
<path d="M169.3421 174.3553 L157.5330 174.3553 "/>
<path d="M164.8434 175.4800 L169.3421 178.8541 "/>
<path d="M161.4693 178.8541 L165.9681 174.3553 "/>
</g></g>
<g style="fill:#000084; fill-opacity:0.0;  stroke:#000084; stroke-width:0.7085; stroke-opacity:1;  stroke-linecap:round; stroke-linejoin:round;">
<g transform="rotate(-90.000000 180.8582 165.0767)">
<text x="180.8582" y="167.4386" transform="scale(-1 1) translate(-361.716312 0)" textLength="10.4033" font-size="6.2982" lengthAdjust="spacingAndGlyphs" text-anchor="middle" opacity="0.01" style="font-family:monospace">R2</text>
</g>
<g class="stroked-text"><desc>R2</desc>
<path d="M183.0066 164.2895 L180.7572 162.7149 "/>
<path d="M183.0066 161.5902 L178.2829 161.5902 "/>
<path d="M178.2829 161.5902 L178.2829 163.3897 "/>
<path d="M178.2829 163.3897 L178.5078 163.8396 "/>
<path d="M178.5078 163.8396 L178.7328 164.0645 "/>
<path d="M178.7328 164.0645 L179.1827 164.2895 "/>
<path d="M179.1827 164.2895 L179.8574 164.2895 "/>
<path d="M179.8574 164.2895 L180.3073 164.0645 "/>
<path d="M180.3073 164.0645 L180.5323 163.8396 "/>
<path d="M180.5323 163.8396 L180.7572 163.3897 "/>
<path d="M180.7572 163.3897 L180.7572 161.5902 "/>
<path d="M178.7328 166.0889 L178.5078 166.3139 "/>
<path d="M178.5078 166.3139 L178.2829 166.7638 "/>
<path d="M178.2829 166.7638 L178.2829 167.8884 "/>
<path d="M178.2829 167.8884 L178.5078 168.3383 "/>
<path d="M178.5078 168.3383 L178.7328 168.5632 "/>
<path d="M178.7328 168.5632 L179.1827 168.7882 "/>
<path d="M179.1827 168.7882 L179.6325 168.7882 "/>
<path d="M179.6325 168.7882 L180.3073 168.5632 "/>
<path d="M180.3073 168.5632 L183.0066 165.8640 "/>
<path d="M183.0066 165.8640 L183.0066 168.7882 "/>
</g></g>
<g style="fill:#000084; fill-opacity:0.0;  stroke:#000084; stroke-width:1.7714; stroke-opacity:1;  stroke-linecap:round; stroke-linejoin:round;">
<g transform="rotate(-90.000000 197.7452 45.3969)">
<text x="197.7452" y="51.3015" transform="scale(-1 1) translate(-395.490467 0)" textLength="35.0057" font-size="15.7455" lengthAdjust="spacingAndGlyphs" text-anchor="middle" opacity="0.01" style="font-family:monospace">10k</text>
</g>
<g class="stroked-text"><desc>10k</desc>
<path d="M203.1163 38.3677 L203.1163 31.6196 "/>
<path d="M203.1163 34.9937 L191.3071 34.9937 "/>
<path d="M191.3071 34.9937 L192.9941 33.8690 "/>
<path d="M192.9941 33.8690 L194.1188 32.7443 "/>
<path d="M194.1188 32.7443 L194.6811 31.6196 "/>
<path d="M191.3071 45.6781 L191.3071 46.8028 "/>
<path d="M191.3071 46.8028 L191.8695 47.9275 "/>
<path d="M191.8695 47.9275 L192.4318 48.4898 "/>
<path d="M192.4318 48.4898 L193.5565 49.0522 "/>
<path d="M193.5565 49.0522 L195.8058 49.6145 "/>
<path d="M195.8058 49.6145 L198.6175 49.6145 "/>
<path d="M198.6175 49.6145 L200.8669 49.0522 "/>
<path d="M200.8669 49.0522 L201.9916 48.4898 "/>
<path d="M201.9916 48.4898 L202.5539 47.9275 "/>
<path d="M202.5539 47.9275 L203.1163 46.8028 "/>
<path d="M203.1163 46.8028 L203.1163 45.6781 "/>
<path d="M203.1163 45.6781 L202.5539 44.5534 "/>
<path d="M202.5539 44.5534 L201.9916 43.9911 "/>
<path d="M201.9916 43.9911 L200.8669 43.4288 "/>
<path d="M200.8669 43.4288 L198.6175 42.8664 "/>
<path d="M198.6175 42.8664 L195.8058 42.8664 "/>
<path d="M195.8058 42.8664 L193.5565 43.4288 "/>
<path d="M193.5565 43.4288 L192.4318 43.9911 "/>
<path d="M192.4318 43.9911 L191.8695 44.5534 "/>
<path d="M191.8695 44.5534 L191.3071 45.6781 "/>
<path d="M203.1163 54.6756 L191.3071 54.6756 "/>
<path d="M198.6175 55.8002 L203.1163 59.1743 "/>
<path d="M195.2435 59.1743 L199.7422 54.6756 "/>
</g></g>
<g style="fill:#000084; fill-opacity:0.0;  stroke:#000084; stroke-width:0.7085; stroke-opacity:1;  stroke-linecap:round; stroke-linejoin:round;">
<g transform="rotate(-90.000000 180.8582 45.3969)">
<text x="180.8582" y="47.7588" transform="scale(-1 1) translate(-361.716312 0)" textLength="10.4033" font-size="6.2982" lengthAdjust="spacingAndGlyphs" text-anchor="middle" opacity="0.01" style="font-family:monospace">R3</text>
</g>
<g class="stroked-text"><desc>R3</desc>
<path d="M183.0066 44.6097 L180.7572 43.0351 "/>
<path d="M183.0066 41.9104 L178.2829 41.9104 "/>
<path d="M178.2829 41.9104 L178.2829 43.7099 "/>
<path d="M178.2829 43.7099 L178.5078 44.1598 "/>
<path d="M178.5078 44.1598 L178.7328 44.3847 "/>
<path d="M178.7328 44.3847 L179.1827 44.6097 "/>
<path d="M179.1827 44.6097 L179.8574 44.6097 "/>
<path d="M179.8574 44.6097 L180.3073 44.3847 "/>
<path d="M180.3073 44.3847 L180.5323 44.1598 "/>
<path d="M180.5323 44.1598 L180.7572 43.7099 "/>
<path d="M180.7572 43.7099 L180.7572 41.9104 "/>
<path d="M178.2829 46.1842 L178.2829 49.1084 "/>
<path d="M178.2829 49.1084 L180.0824 47.5338 "/>
<path d="M180.0824 47.5338 L180.0824 48.2087 "/>
<path d="M180.0824 48.2087 L180.3073 48.6585 "/>
<path d="M180.3073 48.6585 L180.5323 48.8835 "/>
<path d="M180.5323 48.8835 L180.9821 49.1084 "/>
<path d="M180.9821 49.1084 L182.1068 49.1084 "/>
<path d="M182.1068 49.1084 L182.5567 48.8835 "/>
<path d="M182.5567 48.8835 L182.7816 48.6585 "/>
<path d="M182.7816 48.6585 L183.0066 48.2087 "/>
<path d="M183.0066 48.2087 L183.0066 46.8590 "/>
<path d="M183.0066 46.8590 L182.7816 46.4092 "/>
<path d="M182.7816 46.4092 L182.5567 46.1842 "/>
</g></g>
<g style="fill:#000084; fill-opacity:0.0;  stroke:#000084; stroke-width:1.7714; stroke-opacity:1;  stroke-linecap:round; stroke-linejoin:round;">
<g transform="rotate(-90.000000 263.0498 105.0036)">
<text x="263.0498" y="110.9082" transform="scale(-1 1) translate(-526.099612 0)" textLength="23.1965" font-size="15.7455" lengthAdjust="spacingAndGlyphs" text-anchor="middle" opacity="0.01" style="font-family:monospace">J3</text>
</g>
<g class="stroked-text"><desc>J3</desc>
<path d="M256.6117 101.0672 L265.0468 101.0672 "/>
<path d="M265.0468 101.0672 L266.7338 100.5049 "/>
<path d="M266.7338 100.5049 L267.8585 99.3802 "/>
<path d="M267.8585 99.3802 L268.4208 97.6932 "/>
<path d="M268.4208 97.6932 L268.4208 96.5685 "/>
<path d="M256.6117 105.5660 L256.6117 112.8764 "/>
<path d="M256.6117 112.8764 L261.1104 108.9400 "/>
<path d="M261.1104 108.9400 L261.1104 110.6270 "/>
<path d="M261.1104 110.6270 L261.6727 111.7517 "/>
<path d="M261.6727 111.7517 L262.2351 112.3140 "/>
<path d="M262.2351 112.3140 L263.3598 112.8764 "/>
<path d="M263.3598 112.8764 L266.1715 112.8764 "/>
<path d="M266.1715 112.8764 L267.2961 112.3140 "/>
<path d="M267.2961 112.3140 L267.8585 111.7517 "/>
<path d="M267.8585 111.7517 L268.4208 110.6270 "/>
<path d="M268.4208 110.6270 L268.4208 107.2530 "/>
<path d="M268.4208 107.2530 L267.8585 106.1283 "/>
<path d="M267.8585 106.1283 L267.2961 105.5660 "/>
</g><g transform="rotate(-90.000000 93.5295 77.3407)">
<text x="93.5295" y="83.2453" transform="scale(-1 1) translate(-187.059055 0)" textLength="46.2525" font-size="15.7455" lengthAdjust="spacingAndGlyphs" text-anchor="middle" opacity="0.01" style="font-family:monospace">10uF</text>
</g>
<g class="stroked-text"><desc>10uF</desc>
<path d="M98.9006 64.6880 L98.9006 57.9400 "/>
<path d="M98.9006 61.3140 L87.0914 61.3140 "/>
<path d="M87.0914 61.3140 L88.7784 60.1893 "/>
<path d="M88.7784 60.1893 L89.9031 59.0646 "/>
<path d="M89.9031 59.0646 L90.4654 57.9400 "/>
<path d="M87.0914 71.9985 L87.0914 73.1231 "/>
<path d="M87.0914 73.1231 L87.6537 74.2478 "/>
<path d="M87.6537 74.2478 L88.2161 74.8102 "/>
<path d="M88.2161 74.8102 L89.3408 75.3725 "/>
<path d="M89.3408 75.3725 L91.5901 75.9348 "/>
<path d="M91.5901 75.9348 L94.4018 75.9348 "/>
<path d="M94.4018 75.9348 L96.6512 75.3725 "/>
<path d="M96.6512 75.3725 L97.7759 74.8102 "/>
<path d="M97.7759 74.8102 L98.3382 74.2478 "/>
<path d="M98.3382 74.2478 L98.9006 73.1231 "/>
<path d="M98.9006 73.1231 L98.9006 71.9985 "/>
<path d="M98.9006 71.9985 L98.3382 70.8738 "/>
<path d="M98.3382 70.8738 L97.7759 70.3114 "/>
<path d="M97.7759 70.3114 L96.6512 69.7491 "/>
<path d="M96.6512 69.7491 L94.4018 69.1868 "/>
<path d="M94.4018 69.1868 L91.5901 69.1868 "/>
<path d="M91.5901 69.1868 L89.3408 69.7491 "/>
<path d="M89.3408 69.7491 L88.2161 70.3114 "/>
<path d="M88.2161 70.3114 L87.6537 70.8738 "/>
<path d="M87.6537 70.8738 L87.0914 71.9985 "/>
<path d="M91.0278 86.0570 L98.9006 86.0570 "/>
<path d="M91.0278 80.9959 L97.2135 80.9959 "/>
<path d="M97.2135 80.9959 L98.3382 81.5582 "/>
<path d="M98.3382 81.5582 L98.9006 82.6829 "/>
<path d="M98.9006 82.6829 L98.9006 84.3699 "/>
<path d="M98.9006 84.3699 L98.3382 85.4946 "/>
<path d="M98.3382 85.4946 L97.7759 86.0570 "/>
<path d="M92.7148 95.6167 L92.7148 91.6804 "/>
<path d="M98.9006 91.6804 L87.0914 91.6804 "/>
<path d="M87.0914 91.6804 L87.0914 97.3038 "/>
</g></g>
<g style="fill:#000084; fill-opacity:0.0;  stroke:#000084; stroke-width:0.9447; stroke-opacity:1;  stroke-linecap:round; stroke-linejoin:round;">
<g transform="rotate(-90.000000 113.3689 77.3407)">
<text x="113.3689" y="80.2930" transform="scale(-1 1) translate(-226.737783 0)" textLength="13.1812" font-size="7.8728" lengthAdjust="spacingAndGlyphs" text-anchor="middle" opacity="0.01" style="font-family:monospace">C1</text>
</g>
<g class="stroked-text"><desc>C1</desc>
<path d="M115.4890 76.3566 L115.7702 76.0754 "/>
<path d="M115.7702 76.0754 L116.0513 75.2319 "/>
<path d="M116.0513 75.2319 L116.0513 74.6696 "/>
<path d="M116.0513 74.6696 L115.7702 73.8261 "/>
<path d="M115.7702 73.8261 L115.2078 73.2637 "/>
<path d="M115.2078 73.2637 L114.6455 72.9825 "/>
<path d="M114.6455 72.9825 L113.5208 72.7014 "/>
<path d="M113.5208 72.7014 L112.6773 72.7014 "/>
<path d="M112.6773 72.7014 L111.5526 72.9825 "/>
<path d="M111.5526 72.9825 L110.9903 73.2637 "/>
<path d="M110.9903 73.2637 L110.4279 73.8261 "/>
<path d="M110.4279 73.8261 L110.1468 74.6696 "/>
<path d="M110.1468 74.6696 L110.1468 75.2319 "/>
<path d="M110.1468 75.2319 L110.4279 76.0754 "/>
<path d="M110.4279 76.0754 L110.7091 76.3566 "/>
<path d="M116.0513 81.9800 L116.0513 78.6060 "/>
<path d="M116.0513 80.2930 L110.1468 80.2930 "/>
<path d="M110.1468 80.2930 L110.9903 79.7306 "/>
<path d="M110.9903 79.7306 L111.5526 79.1683 "/>
<path d="M111.5526 79.1683 L111.8338 78.6060 "/>
</g></g>
<g style="fill:#000084; fill-opacity:0.0;  stroke:#000084; stroke-width:1.7714; stroke-opacity:1;  stroke-linecap:round; stroke-linejoin:round;">
<g transform="rotate(-90.000000 192.4665 82.5898)">
<text x="192.4665" y="88.4944" transform="scale(-1 1) translate(-384.933091 0)" textLength="57.4993" font-size="15.7455" lengthAdjust="spacingAndGlyphs" text-anchor="middle" opacity="0.01" style="font-family:monospace">100nF</text>
</g>
<g class="stroked-text"><desc>100nF</desc>
<path d="M197.8376 64.3138 L197.8376 57.5657 "/>
<path d="M197.8376 60.9397 L186.0284 60.9397 "/>
<path d="M186.0284 60.9397 L187.7154 59.8151 "/>
<path d="M187.7154 59.8151 L188.8401 58.6904 "/>
<path d="M188.8401 58.6904 L189.4025 57.5657 "/>
<path d="M186.0284 71.6242 L186.0284 72.7489 "/>
<path d="M186.0284 72.7489 L186.5908 73.8736 "/>
<path d="M186.5908 73.8736 L187.1531 74.4359 "/>
<path d="M187.1531 74.4359 L188.2778 74.9983 "/>
<path d="M188.2778 74.9983 L190.5271 75.5606 "/>
<path d="M190.5271 75.5606 L193.3388 75.5606 "/>
<path d="M193.3388 75.5606 L195.5882 74.9983 "/>
<path d="M195.5882 74.9983 L196.7129 74.4359 "/>
<path d="M196.7129 74.4359 L197.2752 73.8736 "/>
<path d="M197.2752 73.8736 L197.8376 72.7489 "/>
<path d="M197.8376 72.7489 L197.8376 71.6242 "/>
<path d="M197.8376 71.6242 L197.2752 70.4995 "/>
<path d="M197.2752 70.4995 L196.7129 69.9372 "/>
<path d="M196.7129 69.9372 L195.5882 69.3749 "/>
<path d="M195.5882 69.3749 L193.3388 68.8125 "/>
<path d="M193.3388 68.8125 L190.5271 68.8125 "/>
<path d="M190.5271 68.8125 L188.2778 69.3749 "/>
<path d="M188.2778 69.3749 L187.1531 69.9372 "/>
<path d="M187.1531 69.9372 L186.5908 70.4995 "/>
<path d="M186.5908 70.4995 L186.0284 71.6242 "/>
<path d="M186.0284 82.8710 L186.0284 83.9957 "/>
<path d="M186.0284 83.9957 L186.5908 85.1204 "/>
<path d="M186.5908 85.1204 L187.1531 85.6827 "/>
<path d="M187.1531 85.6827 L188.2778 86.2451 "/>
<path d="M188.2778 86.2451 L190.5271 86.8074 "/>
<path d="M190.5271 86.8074 L193.3388 86.8074 "/>
<path d="M193.3388 86.8074 L195.5882 86.2451 "/>
<path d="M195.5882 86.2451 L196.7129 85.6827 "/>
<path d="M196.7129 85.6827 L197.2752 85.1204 "/>
<path d="M197.2752 85.1204 L197.8376 83.9957 "/>
<path d="M197.8376 83.9957 L197.8376 82.8710 "/>
<path d="M197.8376 82.8710 L197.2752 81.7463 "/>
<path d="M197.2752 81.7463 L196.7129 81.1840 "/>
<path d="M196.7129 81.1840 L195.5882 80.6217 "/>
<path d="M195.5882 80.6217 L193.3388 80.0593 "/>
<path d="M193.3388 80.0593 L190.5271 80.0593 "/>
<path d="M190.5271 80.0593 L188.2778 80.6217 "/>
<path d="M188.2778 80.6217 L187.1531 81.1840 "/>
<path d="M187.1531 81.1840 L186.5908 81.7463 "/>
<path d="M186.5908 81.7463 L186.0284 82.8710 "/>
<path d="M189.9648 91.8685 L197.8376 91.8685 "/>
<path d="M191.0895 91.8685 L190.5271 92.4308 "/>
<path d="M190.5271 92.4308 L189.9648 93.5555 "/>
<path d="M189.9648 93.5555 L189.9648 95.2425 "/>
<path d="M189.9648 95.2425 L190.5271 96.3672 "/>
<path d="M190.5271 96.3672 L191.6518 96.9295 "/>
<path d="M191.6518 96.9295 L197.8376 96.9295 "/>
<path d="M191.6518 106.4893 L191.6518 102.5529 "/>
<path d="M197.8376 102.5529 L186.0284 102.5529 "/>
<path d="M186.0284 102.5529 L186.0284 108.1763 "/>
</g></g>
<g style="fill:#000084; fill-opacity:0.0;  stroke:#000084; stroke-width:0.7085; stroke-opacity:1;  stroke-linecap:round; stroke-linejoin:round;">
<g transform="rotate(-90.000000 209.3536 82.5898)">
<text x="209.3536" y="84.9517" transform="scale(-1 1) translate(-418.707246 0)" textLength="10.4033" font-size="6.2982" lengthAdjust="spacingAndGlyphs" text-anchor="middle" opacity="0.01" style="font-family:monospace">C4</text>
</g>
<g class="stroked-text"><desc>C4</desc>
<path d="M211.0522 81.8026 L211.2771 81.5776 "/>
<path d="M211.2771 81.5776 L211.5020 80.9028 "/>
<path d="M211.5020 80.9028 L211.5020 80.4530 "/>
<path d="M211.5020 80.4530 L211.2771 79.7781 "/>
<path d="M211.2771 79.7781 L210.8272 79.3283 "/>
<path d="M210.8272 79.3283 L210.3773 79.1033 "/>
<path d="M210.3773 79.1033 L209.4776 78.8784 "/>
<path d="M209.4776 78.8784 L208.8028 78.8784 "/>
<path d="M208.8028 78.8784 L207.9030 79.1033 "/>
<path d="M207.9030 79.1033 L207.4532 79.3283 "/>
<path d="M207.4532 79.3283 L207.0033 79.7781 "/>
<path d="M207.0033 79.7781 L206.7784 80.4530 "/>
<path d="M206.7784 80.4530 L206.7784 80.9028 "/>
<path d="M206.7784 80.9028 L207.0033 81.5776 "/>
<path d="M207.0033 81.5776 L207.2282 81.8026 "/>
<path d="M208.3529 85.8514 L211.5020 85.8514 "/>
<path d="M206.5534 84.7267 L209.9275 83.6021 "/>
<path d="M209.9275 83.6021 L209.9275 86.5262 "/>
</g></g>
<g style="fill:#000084; fill-opacity:0.0;  stroke:#000084; stroke-width:1.1809; stroke-opacity:1;  stroke-linecap:round; stroke-linejoin:round;">
<path d="M160.3102 168.4482 L160.3102 158.7057 "/>
<path d="M160.3102 158.7057 L141.4156 158.7057 "/>
<path d="M141.4156 168.4482 L160.3102 168.4482 "/>
<path d="M141.4156 158.7057 L141.4156 168.4482 "/>
<path d="M157.1454 122.7173 L180.7637 122.7173 "/>
<path d="M192.5728 110.9082 L180.7637 122.7173 "/>
<path d="M192.5728 110.9082 L192.5728 87.2899 "/>
<path d="M157.1454 87.2899 L157.1454 122.7173 "/>
<path d="M192.5728 87.2899 L157.1454 87.2899 "/>
</g>
<g style="fill:#000084; fill-opacity:0.0;  stroke:#000084; stroke-width:1.7714; stroke-opacity:1;  stroke-linecap:round; stroke-linejoin:round;">
<path d="M130.7874 54.2243 L130.7874 25.8823 "/>
<path d="M130.7874 25.8823 L71.7417 25.8823 "/>
<path d="M71.7417 54.2243 L130.7874 54.2243 "/>
<path d="M71.7417 25.8823 L71.7417 54.2243 "/>
</g>
<g style="fill:#000084; fill-opacity:0.0;  stroke:#000084; stroke-width:1.1809; stroke-opacity:1;  stroke-linecap:round; stroke-linejoin:round;">
<path d="M127.9945 139.7284 L137.7371 139.7284 "/>
<path d="M137.7371 139.7284 L137.7371 120.8338 "/>
<path d="M127.9945 120.8338 L127.9945 139.7284 "/>
<path d="M137.7371 120.8338 L127.9945 120.8338 "/>
<path d="M82.5588 82.0348 L93.1871 82.0348 "/>
<path d="M93.1871 82.0348 L93.1871 66.6829 "/>
<path d="M85.5111 76.7207 L90.2348 76.7207 "/>
<path d="M87.8729 76.7207 L87.8729 78.4921 "/>
<path d="M87.8729 76.7207 L85.5111 73.1780 "/>
<path d="M85.5111 73.1780 L90.2348 73.1780 "/>
<path d="M87.8729 73.1780 L87.8729 71.4066 "/>
<path d="M90.2348 73.1780 L87.8729 76.7207 "/>
<path d="M82.5588 66.6829 L82.5588 82.0348 "/>
<path d="M93.1871 66.6829 L82.5588 66.6829 "/>
<path d="M199.9831 174.5240 L209.7256 174.5240 "/>
<path d="M209.7256 174.5240 L209.7256 155.6294 "/>
<path d="M199.9831 155.6294 L199.9831 174.5240 "/>
<path d="M209.7256 155.6294 L199.9831 155.6294 "/>
<path d="M129.4943 90.8385 L139.2368 90.8385 "/>
<path d="M139.2368 90.8385 L139.2368 71.9439 "/>
<path d="M129.4943 71.9439 L129.4943 90.8385 "/>
<path d="M139.2368 71.9439 L129.4943 71.9439 "/>
<path d="M5.0200 153.7163 L5.0200 56.2909 "/>
<path d="M52.8470 153.7163 L5.0200 153.7163 "/>
<path d="M52.8470 153.7163 L52.8470 56.2909 "/>
<path d="M52.8470 133.0503 L44.4967 127.1457 "/>
<path d="M44.4967 127.1457 L52.8470 121.2412 "/>
<path d="M52.8470 56.2909 L5.0200 56.2909 "/>
<path d="M84.2475 131.0310 L113.7704 131.0310 "/>
<path d="M113.7704 131.0310 L118.4941 126.3073 "/>
<path d="M118.4941 126.3073 L118.4941 112.1363 "/>
<path d="M84.2475 112.1363 L84.2475 131.0310 "/>
<path d="M118.4941 112.1363 L84.2475 112.1363 "/>
</g>
<g style="fill:#000084; fill-opacity:0.0;  stroke:#000084; stroke-width:1.7714; stroke-opacity:1;  stroke-linecap:round; stroke-linejoin:round;">
<path d="M130.7874 184.1249 L130.7874 155.7829 "/>
<path d="M130.7874 155.7829 L71.7417 155.7829 "/>
<path d="M71.7417 184.1249 L130.7874 184.1249 "/>
<path d="M71.7417 155.7829 L71.7417 184.1249 "/>
</g>
<g style="fill:#000084; fill-opacity:0.0;  stroke:#000084; stroke-width:1.1809; stroke-opacity:1;  stroke-linecap:round; stroke-linejoin:round;">
<path d="M160.6114 48.4673 L160.6114 38.7248 "/>
<path d="M160.6114 38.7248 L141.7167 38.7248 "/>
<path d="M141.7167 48.4673 L160.6114 48.4673 "/>
<path d="M141.7167 38.7248 L141.7167 48.4673 "/>
<path d="M209.7256 35.9496 L199.9831 35.9496 "/>
<path d="M199.9831 35.9496 L199.9831 54.8443 "/>
<path d="M209.7256 54.8443 L209.7256 35.9496 "/>
<path d="M199.9831 54.8443 L209.7256 54.8443 "/>
<path d="M175.9869 174.5240 L185.7294 174.5240 "/>
<path d="M185.7294 174.5240 L185.7294 155.6294 "/>
<path d="M175.9869 155.6294 L175.9869 174.5240 "/>
<path d="M185.7294 155.6294 L175.9869 155.6294 "/>
<path d="M185.7294 35.9496 L175.9869 35.9496 "/>
<path d="M175.9869 35.9496 L175.9869 54.8443 "/>
<path d="M185.7294 54.8443 L185.7294 35.9496 "/>
<path d="M175.9869 54.8443 L185.7294 54.8443 "/>
<path d="M291.9822 56.2909 L291.9822 153.7163 "/>
<path d="M244.1552 56.2909 L291.9822 56.2909 "/>
<path d="M244.1552 56.2909 L244.1552 153.7163 "/>
<path d="M244.1552 76.9569 L252.5055 82.8615 "/>
<path d="M252.5055 82.8615 L244.1552 88.7660 "/>
<path d="M244.1552 153.7163 L291.9822 153.7163 "/>
<path d="M105.9882 89.1498 L120.7496 89.1498 "/>
<path d="M120.7496 89.1498 L120.7496 65.5315 "/>
<path d="M105.9882 65.5315 L105.9882 89.1498 "/>
<path d="M120.7496 65.5315 L105.9882 65.5315 "/>
<path d="M204.4824 92.0372 L214.2249 92.0372 "/>
<path d="M214.2249 92.0372 L214.2249 73.1425 "/>
<path d="M204.4824 73.1425 L204.4824 92.0372 "/>
<path d="M214.2249 73.1425 L204.4824 73.1425 "/>
<g>
</g>
<g>
</g>
<g>
</g>
<g>
</g>
<g>
</g>
<g>
</g>
<g>
</g>
<g>
</g>
<g>
</g>
<g>
</g>
<g>
</g>
<g>
</g>
<g>
</g>
<g>
</g>
<g>
</g>
<g>
</g>
<g>
</g>
<g>
</g>
<g>
</g>
<g>
</g>
<g>
</g>
<g>
</g>
<g>
</g>
<g>
</g>
<g>
</g>
<g>
</g>
<g>
</g>
<g>
</g>
<g>
</g>
</g> 
<svg:g><svg:g><svg:title>SVG Image created as TFI2CEXT01-Edge_Cuts.svg date 2023/09/27 16:15:05 </svg:title>
  <svg:desc>Image generated by PCBNEW </svg:desc>
<svg:g style="fill:#C2C200; fill-opacity:1.0000;stroke:#C2C200; stroke-opacity:1.0000; stroke-linecap:round; stroke-linejoin:round;" transform="translate(0 0) scale(1 1)">
</svg:g>
<svg:g style="fill:#C2C200; fill-opacity:0.0;  stroke:#C2C200; stroke-width:0.0000; stroke-opacity:1;  stroke-linecap:round; stroke-linejoin:round;">
</svg:g>
<svg:g style="fill:#C2C200; fill-opacity:0.0;  stroke:#C2C200; stroke-width:1.7714; stroke-opacity:1;  stroke-linecap:round; stroke-linejoin:round;">
<svg:path d="M0.8868 16.4350 L296.1154 16.4350 "/>
<svg:path d="M296.1154 16.4350 L296.1154 193.5722 "/>
<svg:path d="M0.8868 16.4350 L0.8868 193.5722 "/>
<svg:path d="M0.8868 193.5722 L296.1154 193.5722 "/>
</svg:g>
<svg:g style="fill:#C2C200; fill-opacity:0.0;  stroke:#C2C200; stroke-width:0.5905; stroke-opacity:1;  stroke-linecap:round; stroke-linejoin:round;">
<svg:path d="M114.2546 31.7869 L114.2546 48.3197 "/>
<svg:path d="M110.7118 51.8624 L91.8172 51.8624 "/>
<svg:path d="M91.8172 28.2442 L110.7118 28.2442 "/>
<svg:path d="M88.2745 48.3197 L88.2745 31.7869 "/>
<svg:path d="M110.7118 51.8624 A3.5427 3.5427 0.0 0 0 114.2546 48.3197"/>
<svg:path d="M114.2546 31.7869 A3.5427 3.5427 0.0 0 0 110.7118 28.2442"/>
<svg:path d="M88.2745 48.3197 A3.5427 3.5427 0.0 0 0 91.8172 51.8624"/>
<svg:path d="M91.8172 28.2442 A3.5427 3.5427 0.0 0 0 88.2745 31.7869"/>
<svg:path d="M114.2546 161.6875 L114.2546 178.2203 "/>
<svg:path d="M110.7118 181.7630 L91.8172 181.7630 "/>
<svg:path d="M91.8172 158.1448 L110.7118 158.1448 "/>
<svg:path d="M88.2745 178.2203 L88.2745 161.6875 "/>
<svg:path d="M110.7118 181.7630 A3.5427 3.5427 0.0 0 0 114.2546 178.2203"/>
<svg:path d="M114.2546 161.6875 A3.5427 3.5427 0.0 0 0 110.7118 158.1448"/>
<svg:path d="M88.2745 178.2203 A3.5427 3.5427 0.0 0 0 91.8172 181.7630"/>
<svg:path d="M91.8172 158.1448 A3.5427 3.5427 0.0 0 0 88.2745 161.6875"/>
<svg:g>
</svg:g>
<svg:g>
</svg:g>
<svg:g>
</svg:g>
<svg:g>
</svg:g>
<svg:g>
</svg:g>
<svg:g>
</svg:g>
<svg:g>
</svg:g>
<svg:g>
</svg:g>
<svg:g>
</svg:g>
<svg:g>
</svg:g>
<svg:g>
</svg:g>
<svg:g>
</svg:g>
<svg:g>
</svg:g>
<svg:g>
</svg:g>
<svg:g>
</svg:g>
<svg:g>
</svg:g>
<svg:g>
</svg:g>
<svg:g>
</svg:g>
<svg:g>
</svg:g>
<svg:g>
</svg:g>
<svg:g>
</svg:g>
<svg:g>
</svg:g>
<svg:g>
</svg:g>
<svg:g>
</svg:g>
<svg:g>
</svg:g>
<svg:g>
</svg:g>
<svg:g>
</svg:g>
<svg:g>
</svg:g>
<svg:g>
</svg:g>
</svg:g> 
</svg:g></svg:g></svg>
