<?xml version='1.0' encoding='ASCII' standalone='yes'?>
<svg xmlns:svg="http://www.w3.org/2000/svg" xmlns="http://www.w3.org/2000/svg" xmlns:xlink="http://www.w3.org/1999/xlink" version="1.1" width="297.0022mm" height="210.0072mm" viewBox="0.0000 0.0000 297.0022 210.0072">
<title>SVG Image created as TFI2CEXT01-F_Fab.svg date 2023/10/02 10:14:48 </title>
  <desc>Image generated by PCBNEW </desc>
<g style="fill:#848484; fill-opacity:1.0000;stroke:#848484; stroke-opacity:1.0000; stroke-linecap:round; stroke-linejoin:round;" transform="translate(0 0) scale(1 1)">
</g>
<g style="fill:#848484; fill-opacity:0.0;  stroke:#848484; stroke-width:0.0000; stroke-opacity:1;  stroke-linecap:round; stroke-linejoin:round;">
</g>
<g style="fill:#848484; fill-opacity:0.01;  stroke:#848484; stroke-width:1.7714; stroke-opacity:1;  stroke-linecap:round; stroke-linejoin:round;">
<g transform="rotate(-90.000000 263.0498 105.0036)">
<text x="263.0498" y="110.9082" textLength="23.1965" font-size="15.7455" lengthAdjust="spacingAndGlyphs" text-anchor="middle" opacity="0.01" style="font-family:monospace">J2</text>
</g>
<g class="stroked-text"><desc>J2</desc>
<path d="M269.4879 108.9400 L261.0528 108.9400 "/>
<path d="M261.0528 108.9400 L259.3658 109.5023 "/>
<path d="M259.3658 109.5023 L258.2411 110.6270 "/>
<path d="M258.2411 110.6270 L257.6788 112.3140 "/>
<path d="M257.6788 112.3140 L257.6788 113.4387 "/>
<path d="M268.3633 103.8789 L268.9256 103.3166 "/>
<path d="M268.9256 103.3166 L269.4879 102.1919 "/>
<path d="M269.4879 102.1919 L269.4879 99.3802 "/>
<path d="M269.4879 99.3802 L268.9256 98.2555 "/>
<path d="M268.9256 98.2555 L268.3633 97.6932 "/>
<path d="M268.3633 97.6932 L267.2386 97.1308 "/>
<path d="M267.2386 97.1308 L266.1139 97.1308 "/>
<path d="M266.1139 97.1308 L264.4269 97.6932 "/>
<path d="M264.4269 97.6932 L257.6788 104.4413 "/>
<path d="M257.6788 104.4413 L257.6788 97.1308 "/>
</g><g transform="rotate(-90.000000 33.9524 105.0036)">
<text x="33.9524" y="110.9082" textLength="23.1965" font-size="15.7455" lengthAdjust="spacingAndGlyphs" text-anchor="middle" opacity="0.01" style="font-family:monospace">J4</text>
</g>
<g class="stroked-text"><desc>J4</desc>
<path d="M40.3905 108.9400 L31.9554 108.9400 "/>
<path d="M31.9554 108.9400 L30.2684 109.5023 "/>
<path d="M30.2684 109.5023 L29.1437 110.6270 "/>
<path d="M29.1437 110.6270 L28.5814 112.3140 "/>
<path d="M28.5814 112.3140 L28.5814 113.4387 "/>
<path d="M36.4541 98.2555 L28.5814 98.2555 "/>
<path d="M40.9529 101.0672 L32.5178 103.8789 "/>
<path d="M32.5178 103.8789 L32.5178 96.5685 "/>
</g><text x="219.7339" y="46.5578" transform="scale(-1 1) translate(-439.467730 0)" textLength="14.7614" font-size="15.7455" lengthAdjust="spacingAndGlyphs" text-anchor="middle" opacity="0.01" style="font-family:monospace">K</text>
<g class="stroked-text"><desc>K</desc>
<path d="M216.6410 46.0242 L216.6410 34.2151 "/>
<path d="M223.3891 46.0242 L218.3280 39.2762 "/>
<path d="M223.3891 34.2151 L216.6410 40.9632 "/>
</g><text x="219.7339" y="176.4584" transform="scale(-1 1) translate(-439.467730 0)" textLength="14.7614" font-size="15.7455" lengthAdjust="spacingAndGlyphs" text-anchor="middle" opacity="0.01" style="font-family:monospace">K</text>
<g class="stroked-text"><desc>K</desc>
<path d="M216.6410 175.9248 L216.6410 164.1157 "/>
<path d="M223.3891 175.9248 L218.3280 169.1768 "/>
<path d="M223.3891 164.1157 L216.6410 170.8638 "/>
</g></g>
<g style="fill:#848484; fill-opacity:0.0;  stroke:#848484; stroke-width:1.1809; stroke-opacity:1;  stroke-linecap:round; stroke-linejoin:round;">
<path d="M244.1552 56.2909 L291.9822 56.2909 "/>
<path d="M244.1552 56.2909 L244.1552 153.7163 "/>
<path d="M291.9822 56.2909 L291.9822 153.7163 "/>
<path d="M244.1552 76.9569 L252.5055 82.8615 "/>
<path d="M252.5055 82.8615 L244.1552 88.7660 "/>
<path d="M244.1552 153.7163 L291.9822 153.7163 "/>
<path d="M52.8470 153.7163 L5.0200 153.7163 "/>
<path d="M52.8470 153.7163 L52.8470 56.2909 "/>
<path d="M5.0200 153.7163 L5.0200 56.2909 "/>
<path d="M52.8470 133.0503 L44.4967 127.1457 "/>
<path d="M44.4967 127.1457 L52.8470 121.2412 "/>
<path d="M52.8470 56.2909 L5.0200 56.2909 "/>
<g>
</g>
<g>
</g>
<g>
</g>
<g>
</g>
<g>
</g>
<g>
</g>
<g>
</g>
<g>
</g>
<g>
</g>
<g>
</g>
<g>
</g>
<g>
</g>
<g>
</g>
<g>
</g>
<g>
</g>
<g>
</g>
<g>
</g>
<g>
</g>
<g>
</g>
<g>
</g>
<g>
</g>
<g>
</g>
<g>
</g>
<g>
</g>
<g>
</g>
<g>
</g>
<g>
</g>
<g>
</g>
<g>
</g>
</g> 
<svg:g><svg:g><svg:title>SVG Image created as TFI2CEXT01-Edge_Cuts.svg date 2023/10/02 10:14:48 </svg:title>
  <svg:desc>Image generated by PCBNEW </svg:desc>
<svg:g style="fill:#C2C200; fill-opacity:1.0000;stroke:#C2C200; stroke-opacity:1.0000; stroke-linecap:round; stroke-linejoin:round;" transform="translate(0 0) scale(1 1)">
</svg:g>
<svg:g style="fill:#C2C200; fill-opacity:0.0;  stroke:#C2C200; stroke-width:0.0000; stroke-opacity:1;  stroke-linecap:round; stroke-linejoin:round;">
</svg:g>
<svg:g style="fill:#C2C200; fill-opacity:0.0;  stroke:#C2C200; stroke-width:1.7714; stroke-opacity:1;  stroke-linecap:round; stroke-linejoin:round;">
<svg:path d="M296.1154 16.4350 L0.8868 16.4350 "/>
<svg:path d="M0.8868 16.4350 L0.8868 193.5722 "/>
<svg:path d="M296.1154 16.4350 L296.1154 193.5722 "/>
<svg:path d="M296.1154 193.5722 L0.8868 193.5722 "/>
</svg:g>
<svg:g style="fill:#C2C200; fill-opacity:0.0;  stroke:#C2C200; stroke-width:0.5905; stroke-opacity:1;  stroke-linecap:round; stroke-linejoin:round;">
<svg:path d="M182.7476 31.7869 L182.7476 48.3197 "/>
<svg:path d="M186.2904 51.8624 L205.1850 51.8624 "/>
<svg:path d="M205.1850 28.2442 L186.2904 28.2442 "/>
<svg:path d="M208.7277 48.3197 L208.7277 31.7869 "/>
<svg:path d="M182.7476 48.3197 A3.5427 3.5427 0.0 0 0 186.2904 51.8624"/>
<svg:path d="M186.2904 28.2442 A3.5427 3.5427 0.0 0 0 182.7476 31.7869"/>
<svg:path d="M205.1850 51.8624 A3.5427 3.5427 0.0 0 0 208.7277 48.3197"/>
<svg:path d="M208.7277 31.7869 A3.5427 3.5427 0.0 0 0 205.1850 28.2442"/>
<svg:path d="M182.7476 161.6875 L182.7476 178.2203 "/>
<svg:path d="M186.2904 181.7630 L205.1850 181.7630 "/>
<svg:path d="M205.1850 158.1448 L186.2904 158.1448 "/>
<svg:path d="M208.7277 178.2203 L208.7277 161.6875 "/>
<svg:path d="M182.7476 178.2203 A3.5427 3.5427 0.0 0 0 186.2904 181.7630"/>
<svg:path d="M186.2904 158.1448 A3.5427 3.5427 0.0 0 0 182.7476 161.6875"/>
<svg:path d="M205.1850 181.7630 A3.5427 3.5427 0.0 0 0 208.7277 178.2203"/>
<svg:path d="M208.7277 161.6875 A3.5427 3.5427 0.0 0 0 205.1850 158.1448"/>
<svg:g>
</svg:g>
<svg:g>
</svg:g>
<svg:g>
</svg:g>
<svg:g>
</svg:g>
<svg:g>
</svg:g>
<svg:g>
</svg:g>
<svg:g>
</svg:g>
<svg:g>
</svg:g>
<svg:g>
</svg:g>
<svg:g>
</svg:g>
<svg:g>
</svg:g>
<svg:g>
</svg:g>
<svg:g>
</svg:g>
<svg:g>
</svg:g>
<svg:g>
</svg:g>
<svg:g>
</svg:g>
<svg:g>
</svg:g>
<svg:g>
</svg:g>
<svg:g>
</svg:g>
<svg:g>
</svg:g>
<svg:g>
</svg:g>
<svg:g>
</svg:g>
<svg:g>
</svg:g>
<svg:g>
</svg:g>
<svg:g>
</svg:g>
<svg:g>
</svg:g>
<svg:g>
</svg:g>
<svg:g>
</svg:g>
<svg:g>
</svg:g>
</svg:g> 
</svg:g></svg:g></svg>
