  0
SECTION
  2
HEADER
  9
$ANGBASE
  50
0.0
  9
$ANGDIR
  70
1
  9
$MEASUREMENT
  70
0
  0
ENDSEC
  0
SECTION
  2
TABLES
  0
TABLE
  2
LTYPE
  70
4
  0
LTYPE
  5
40F
  2
CONTINUOUS
  70
0
  3
Solid line
  72
65
  73
0
  40
0.0
  0
LTYPE
  5
410
  2
DASHDOT
 70
0
  3
Dash Dot ____ _ ____ _
 72
65
 73
4
 40
2.0
 49
1.25
 49
-0.25
 49
0.25
 49
-0.25
  0
LTYPE
  5
411
  2
DASHED
 70
0
  3
Dashed __ __ __ __ __
 72
65
 73
2
 40
0.75
 49
0.5
 49
-0.25
  0
LTYPE
  5
43B
  2
DOTTED
 70
0
  3
Dotted .  .  .  .
 72
65
 73
2
 40
0.2
 49
0.0
 49
-0.2
  0
ENDTAB
  0
TABLE
  2
STYLE
  70
4
  0
STYLE
  2
KICAD
  70
0
  40
0
  41
1
  42
1
  50
0
  71
0
  3
isocp.shx
  0
STYLE
  2
KICADB
  70
0
  40
0
  41
1
  42
1
  50
0
  71
0
  3
isocp.shx
  0
STYLE
  2
KICADI
  70
0
  40
0
  41
1
  42
1
  50
15
  71
0
  3
isocp.shx
  0
STYLE
  2
KICADBI
  70
0
  40
0
  41
1
  42
1
  50
15
  71
0
  3
isocp.shx
  0
ENDTAB
  0
TABLE
  2
LAYER
  70
1
  0
LAYER
  2
BLACK
  70
0
  62
7
  6
CONTINUOUS
  0
ENDTAB
  0
ENDSEC
  0
SECTION
  2
ENTITIES
0
LINE
8
BLACK
6
CONTINUOUS
10
-4.7458998425196848
20
5.49065905511811
11
-4.728522165354331
21
5.4733420866141733
0
LINE
8
BLACK
6
CONTINUOUS
10
-4.728522165354331
20
5.4733420866141733
11
-4.728468976377953
21
5.4733022440944881
0
LINE
8
BLACK
6
CONTINUOUS
10
-4.728468976377953
20
5.4733022440944881
11
-4.7284500787401571
21
5.4732702755905507
0
LINE
8
BLACK
6
CONTINUOUS
10
-4.7284500787401571
20
5.4732702755905507
11
-4.7279740551181098
21
5.4727959055118109
0
LINE
8
BLACK
6
CONTINUOUS
10
-4.7279740551181098
20
5.4727959055118109
11
-4.7279959055118113
21
5.4882039370078735
0
LINE
8
BLACK
6
CONTINUOUS
10
-4.7279959055118113
20
5.4882039370078735
11
-4.7279391732283464
21
5.4887800000000002
0
LINE
8
BLACK
6
CONTINUOUS
10
-4.7279391732283464
20
5.4887800000000002
11
-4.7274982677165349
21
5.4898444094488186
0
LINE
8
BLACK
6
CONTINUOUS
10
-4.7274982677165349
20
5.4898444094488186
11
-4.7266836220472443
21
5.49065905511811
0
LINE
8
BLACK
6
CONTINUOUS
10
-4.7266836220472443
20
5.49065905511811
11
-4.7256192125984251
21
5.4910999606299216
0
LINE
8
BLACK
6
CONTINUOUS
10
-4.7256192125984251
20
5.4910999606299216
11
-4.7244670866141734
21
5.4910999606299216
0
LINE
8
BLACK
6
CONTINUOUS
10
-4.7244670866141734
20
5.4910999606299216
11
-4.7234026771653541
21
5.49065905511811
0
LINE
8
BLACK
6
CONTINUOUS
10
-4.7234026771653541
20
5.49065905511811
11
-4.7225880314960627
21
5.4898444094488186
0
LINE
8
BLACK
6
CONTINUOUS
10
-4.7225880314960627
20
5.4898444094488186
11
-4.722147125984252
21
5.4887800000000002
0
LINE
8
BLACK
6
CONTINUOUS
10
-4.722147125984252
20
5.4887800000000002
11
-4.7220903937007872
21
5.448833858267716
0
LINE
8
BLACK
6
CONTINUOUS
10
-4.7220903937007872
20
5.448833858267716
11
-4.722147125984252
21
5.4482577952755902
0
LINE
8
BLACK
6
CONTINUOUS
10
-4.722147125984252
20
5.4482577952755902
11
-4.7225880314960627
21
5.4471933858267718
0
LINE
8
BLACK
6
CONTINUOUS
10
-4.7225880314960627
20
5.4471933858267718
11
-4.7234026771653541
21
5.4463787401574804
0
LINE
8
BLACK
6
CONTINUOUS
10
-4.7234026771653541
20
5.4463787401574804
11
-4.7244670866141734
21
5.4459378346456688
0
LINE
8
BLACK
6
CONTINUOUS
10
-4.7244670866141734
20
5.4459378346456688
11
-4.7256192125984251
21
5.4459378346456688
0
LINE
8
BLACK
6
CONTINUOUS
10
-4.7256192125984251
20
5.4459378346456688
11
-4.7266836220472443
21
5.4463787401574804
0
LINE
8
BLACK
6
CONTINUOUS
10
-4.7266836220472443
20
5.4463787401574804
11
-4.7274982677165349
21
5.4471933858267718
0
LINE
8
BLACK
6
CONTINUOUS
10
-4.7274982677165349
20
5.4471933858267718
11
-4.7279391732283464
21
5.4482577952755902
0
LINE
8
BLACK
6
CONTINUOUS
10
-4.7279391732283464
20
5.4482577952755902
11
-4.7279622834645672
21
5.464525826771653
0
LINE
8
BLACK
6
CONTINUOUS
10
-4.7279622834645672
20
5.464525826771653
11
-4.7303540551181102
21
5.4669092125984253
0
LINE
8
BLACK
6
CONTINUOUS
10
-4.7303540551181102
20
5.4669092125984253
11
-4.7451781102362203
21
5.4470622047244097
0
LINE
8
BLACK
6
CONTINUOUS
10
-4.7451781102362203
20
5.4470622047244097
11
-4.7455691338582673
21
5.4466353937007872
0
LINE
8
BLACK
6
CONTINUOUS
10
-4.7455691338582673
20
5.4466353937007872
11
-4.7465605118110235
21
5.4460484251968504
0
LINE
8
BLACK
6
CONTINUOUS
10
-4.7465605118110235
20
5.4460484251968504
11
-4.7477010236220467
21
5.4458854724409447
0
LINE
8
BLACK
6
CONTINUOUS
10
-4.7477010236220467
20
5.4458854724409447
11
-4.7488170866141735
21
5.4461714173228346
0
LINE
8
BLACK
6
CONTINUOUS
10
-4.7488170866141735
20
5.4461714173228346
11
-4.7497387795275587
21
5.4468626771653543
0
LINE
8
BLACK
6
CONTINUOUS
10
-4.7497387795275587
20
5.4468626771653543
11
-4.7503257480314955
21
5.4478540551181105
0
LINE
8
BLACK
6
CONTINUOUS
10
-4.7503257480314955
20
5.4478540551181105
11
-4.7504887007874013
21
5.4489945669291338
0
LINE
8
BLACK
6
CONTINUOUS
10
-4.7504887007874013
20
5.4489945669291338
11
-4.7502027559055113
21
5.4501106299212596
0
LINE
8
BLACK
6
CONTINUOUS
10
-4.7502027559055113
20
5.4501106299212596
11
-4.7345400393700787
21
5.4710805511811023
0
LINE
8
BLACK
6
CONTINUOUS
10
-4.7345400393700787
20
5.4710805511811023
11
-4.7496282283464568
21
5.4861160236220474
0
LINE
8
BLACK
6
CONTINUOUS
10
-4.7496282283464568
20
5.4861160236220474
11
-4.7499954330708665
21
5.4865634645669292
0
LINE
8
BLACK
6
CONTINUOUS
10
-4.7499954330708665
20
5.4865634645669292
11
-4.7504363385826771
21
5.4876279133858263
0
LINE
8
BLACK
6
CONTINUOUS
10
-4.7504363385826771
20
5.4876279133858263
11
-4.7504363385826771
21
5.4887799606299215
0
LINE
8
BLACK
6
CONTINUOUS
10
-4.7504363385826771
20
5.4887799606299215
11
-4.7499954330708665
21
5.4898444094488186
0
LINE
8
BLACK
6
CONTINUOUS
10
-4.7499954330708665
20
5.4898444094488186
11
-4.749180787401575
21
5.49065905511811
0
LINE
8
BLACK
6
CONTINUOUS
10
-4.749180787401575
20
5.49065905511811
11
-4.748116338582677
21
5.4910999606299216
0
LINE
8
BLACK
6
CONTINUOUS
10
-4.748116338582677
20
5.4910999606299216
11
-4.7469642913385828
21
5.4910999606299216
0
LINE
8
BLACK
6
CONTINUOUS
10
-4.7469642913385828
20
5.4910999606299216
11
-4.7458998425196848
21
5.49065905511811
0
LINE
8
BLACK
6
CONTINUOUS
10
-4.8728146062992126
20
5.675076220472441
11
-4.872736850393701
21
5.6750817716535433
0
LINE
8
BLACK
6
CONTINUOUS
10
-4.872736850393701
20
5.6750817716535433
11
-4.8726783464566932
21
5.6750627952755908
0
LINE
8
BLACK
6
CONTINUOUS
10
-4.8726783464566932
20
5.6750627952755908
11
-4.8725300787401578
21
5.6750482283464567
0
LINE
8
BLACK
6
CONTINUOUS
10
-4.8725300787401578
20
5.6750482283464567
11
-4.872161456692913
21
5.6748955118110231
0
LINE
8
BLACK
6
CONTINUOUS
10
-4.872161456692913
20
5.6748955118110231
11
-4.86654811023622
21
5.673078661417323
0
LINE
8
BLACK
6
CONTINUOUS
10
-4.86654811023622
20
5.673078661417323
11
-4.8660195669291335
21
5.6728426771653542
0
LINE
8
BLACK
6
CONTINUOUS
10
-4.8660195669291335
20
5.6728426771653542
11
-4.8659394881889764
21
5.6727731889763779
0
LINE
8
BLACK
6
CONTINUOUS
10
-4.8659394881889764
20
5.6727731889763779
11
-4.8658414173228346
21
5.6727325984251964
0
LINE
8
BLACK
6
CONTINUOUS
10
-4.8658414173228346
20
5.6727325984251964
11
-4.8654500787401576
21
5.6723487401574806
0
LINE
8
BLACK
6
CONTINUOUS
10
-4.8654500787401576
20
5.6723487401574806
11
-4.8651492125984248
21
5.6720877952755906
0
LINE
8
BLACK
6
CONTINUOUS
10
-4.8651492125984248
20
5.6720877952755906
11
-4.865115708661417
21
5.6720207480314961
0
LINE
8
BLACK
6
CONTINUOUS
10
-4.865115708661417
20
5.6720207480314961
11
-4.8616443700787402
21
5.6686158267716538
0
LINE
8
BLACK
6
CONTINUOUS
10
-4.8616443700787402
20
5.6686158267716538
11
-4.8612771259842518
21
5.668168385826772
0
LINE
8
BLACK
6
CONTINUOUS
10
-4.8612771259842518
20
5.668168385826772
11
-4.8612365354330711
21
5.6680703149606302
0
LINE
8
BLACK
6
CONTINUOUS
10
-4.8612365354330711
20
5.6680703149606302
11
-4.861167047244094
21
5.6679902362204722
0
LINE
8
BLACK
6
CONTINUOUS
10
-4.861167047244094
20
5.6679902362204722
11
-4.8609920472440944
21
5.667480039370079
0
LINE
8
BLACK
6
CONTINUOUS
10
-4.8609920472440944
20
5.667480039370079
11
-4.8608362598425199
21
5.6671039763779527
0
LINE
8
BLACK
6
CONTINUOUS
10
-4.8608362598425199
20
5.6671039763779527
11
-4.8608362598425199
21
5.6670259842519686
0
LINE
8
BLACK
6
CONTINUOUS
10
-4.8608362598425199
20
5.6670259842519686
11
-4.8590562992125985
21
5.661837401574803
0
LINE
8
BLACK
6
CONTINUOUS
10
-4.8590562992125985
20
5.661837401574803
11
-4.8589913779527558
21
5.6615517322834643
0
LINE
8
BLACK
6
CONTINUOUS
10
-4.8589913779527558
20
5.6615517322834643
11
-4.8589614960629923
21
5.66147968503937
0
LINE
8
BLACK
6
CONTINUOUS
10
-4.8589614960629923
20
5.66147968503937
11
-4.8589607086614173
21
5.6614168110236216
0
LINE
8
BLACK
6
CONTINUOUS
10
-4.8589607086614173
20
5.6614168110236216
11
-4.8589279527559057
21
5.6612729527559056
0
LINE
8
BLACK
6
CONTINUOUS
10
-4.8589279527559057
20
5.6612729527559056
11
-4.8589540157480311
21
5.6609067716535435
0
LINE
8
BLACK
6
CONTINUOUS
10
-4.8589540157480311
20
5.6609067716535435
11
-4.8589047637795275
21
5.6571540944881891
0
LINE
8
BLACK
6
CONTINUOUS
10
-4.8589047637795275
20
5.6571540944881891
11
-4.8589614960629923
21
5.6565780314960632
0
LINE
8
BLACK
6
CONTINUOUS
10
-4.8589614960629923
20
5.6565780314960632
11
-4.859402401574803
21
5.6555136220472439
0
LINE
8
BLACK
6
CONTINUOUS
10
-4.859402401574803
20
5.6555136220472439
11
-4.8602170472440944
21
5.6546989763779525
0
LINE
8
BLACK
6
CONTINUOUS
10
-4.8602170472440944
20
5.6546989763779525
11
-4.8612814566929137
21
5.6542580708661418
0
LINE
8
BLACK
6
CONTINUOUS
10
-4.8612814566929137
20
5.6542580708661418
11
-4.8624335826771654
21
5.6542580708661418
0
LINE
8
BLACK
6
CONTINUOUS
10
-4.8624335826771654
20
5.6542580708661418
11
-4.8634979921259838
21
5.6546989763779525
0
LINE
8
BLACK
6
CONTINUOUS
10
-4.8634979921259838
20
5.6546989763779525
11
-4.8643126377952752
21
5.6555136220472439
0
LINE
8
BLACK
6
CONTINUOUS
10
-4.8643126377952752
20
5.6555136220472439
11
-4.8647535433070868
21
5.6565780314960632
0
LINE
8
BLACK
6
CONTINUOUS
10
-4.8647535433070868
20
5.6565780314960632
11
-4.8648057480314959
21
5.6605577165354326
0
LINE
8
BLACK
6
CONTINUOUS
10
-4.8648057480314959
20
5.6605577165354326
11
-4.8663355905511807
21
5.6650171653543309
0
LINE
8
BLACK
6
CONTINUOUS
10
-4.8663355905511807
20
5.6650171653543309
11
-4.8691355118110238
21
5.6677635433070863
0
LINE
8
BLACK
6
CONTINUOUS
10
-4.8691355118110238
20
5.6677635433070863
11
-4.8737396062992122
21
5.6692537795275593
0
LINE
8
BLACK
6
CONTINUOUS
10
-4.8737396062992122
20
5.6692537795275593
11
-4.901227598425197
21
5.6691994488188975
0
LINE
8
BLACK
6
CONTINUOUS
10
-4.901227598425197
20
5.6691994488188975
11
-4.9018036614173228
21
5.6692561811023623
0
LINE
8
BLACK
6
CONTINUOUS
10
-4.9018036614173228
20
5.6692561811023623
11
-4.9028680708661412
21
5.6696970866141729
0
LINE
8
BLACK
6
CONTINUOUS
10
-4.9028680708661412
20
5.6696970866141729
11
-4.9036827165354326
21
5.6705117322834644
0
LINE
8
BLACK
6
CONTINUOUS
10
-4.9036827165354326
20
5.6705117322834644
11
-4.9041236220472442
21
5.6715761417322836
0
LINE
8
BLACK
6
CONTINUOUS
10
-4.9041236220472442
20
5.6715761417322836
11
-4.9041236220472442
21
5.6727282677165354
0
LINE
8
BLACK
6
CONTINUOUS
10
-4.9041236220472442
20
5.6727282677165354
11
-4.9036827165354326
21
5.6737926771653546
0
LINE
8
BLACK
6
CONTINUOUS
10
-4.9036827165354326
20
5.6737926771653546
11
-4.9028680708661412
21
5.6746073228346452
0
LINE
8
BLACK
6
CONTINUOUS
10
-4.9028680708661412
20
5.6746073228346452
11
-4.9018036614173228
21
5.6750482283464567
0
LINE
8
BLACK
6
CONTINUOUS
10
-4.9018036614173228
20
5.6750482283464567
11
-4.8731061417322836
21
5.6751049606299215
0
LINE
8
BLACK
6
CONTINUOUS
10
-4.8731061417322836
20
5.6751049606299215
11
-4.8728146062992126
21
5.675076220472441
0
LINE
8
BLACK
6
CONTINUOUS
10
-4.8896874803149606
20
5.7144462992125984
11
-4.889609724409449
21
5.7144518503937007
0
LINE
8
BLACK
6
CONTINUOUS
10
-4.889609724409449
20
5.7144518503937007
11
-4.8895512204724412
21
5.7144328740157482
0
LINE
8
BLACK
6
CONTINUOUS
10
-4.8895512204724412
20
5.7144328740157482
11
-4.8894029527559058
21
5.7144183070866141
0
LINE
8
BLACK
6
CONTINUOUS
10
-4.8894029527559058
20
5.7144183070866141
11
-4.889034330708661
21
5.7142655905511806
0
LINE
8
BLACK
6
CONTINUOUS
10
-4.889034330708661
20
5.7142655905511806
11
-4.883420984251968
21
5.7124487401574804
0
LINE
8
BLACK
6
CONTINUOUS
10
-4.883420984251968
20
5.7124487401574804
11
-4.8828924409448815
21
5.7122127559055116
0
LINE
8
BLACK
6
CONTINUOUS
10
-4.8828924409448815
20
5.7122127559055116
11
-4.8828123228346456
21
5.7121432283464566
0
LINE
8
BLACK
6
CONTINUOUS
10
-4.8828123228346456
20
5.7121432283464566
11
-4.8827142519685038
21
5.7121026377952751
0
LINE
8
BLACK
6
CONTINUOUS
10
-4.8827142519685038
20
5.7121026377952751
11
-4.8823703149606299
21
5.7117598818897637
0
LINE
8
BLACK
6
CONTINUOUS
10
-4.8823703149606299
20
5.7117598818897637
11
-4.8820220866141728
21
5.711457874015748
0
LINE
8
BLACK
6
CONTINUOUS
10
-4.8820220866141728
20
5.711457874015748
11
-4.8819772834645665
21
5.7113681889763779
0
LINE
8
BLACK
6
CONTINUOUS
10
-4.8819772834645665
20
5.7113681889763779
11
-4.8647709448818892
21
5.6942220866141735
0
LINE
8
BLACK
6
CONTINUOUS
10
-4.8647709448818892
20
5.6942220866141735
11
-4.8648102755905507
21
5.7115222834645669
0
LINE
8
BLACK
6
CONTINUOUS
10
-4.8648102755905507
20
5.7115222834645669
11
-4.8647535433070868
21
5.7120983464566928
0
LINE
8
BLACK
6
CONTINUOUS
10
-4.8647535433070868
20
5.7120983464566928
11
-4.8643126377952752
21
5.713162755905512
0
LINE
8
BLACK
6
CONTINUOUS
10
-4.8643126377952752
20
5.713162755905512
11
-4.8634979921259838
21
5.7139774015748026
0
LINE
8
BLACK
6
CONTINUOUS
10
-4.8634979921259838
20
5.7139774015748026
11
-4.8624335826771654
21
5.7144183070866141
0
LINE
8
BLACK
6
CONTINUOUS
10
-4.8624335826771654
20
5.7144183070866141
11
-4.8612814566929137
21
5.7144183070866141
0
LINE
8
BLACK
6
CONTINUOUS
10
-4.8612814566929137
20
5.7144183070866141
11
-4.8602170472440944
21
5.7139774015748026
0
LINE
8
BLACK
6
CONTINUOUS
10
-4.8602170472440944
20
5.7139774015748026
11
-4.859402401574803
21
5.713162755905512
0
LINE
8
BLACK
6
CONTINUOUS
10
-4.859402401574803
20
5.713162755905512
11
-4.8589614960629923
21
5.7120983464566928
0
LINE
8
BLACK
6
CONTINUOUS
10
-4.8589614960629923
20
5.7120983464566928
11
-4.8589047637795275
21
5.6871503543307087
0
LINE
8
BLACK
6
CONTINUOUS
10
-4.8589047637795275
20
5.6871503543307087
11
-4.8589614960629923
21
5.6865742913385828
0
LINE
8
BLACK
6
CONTINUOUS
10
-4.8589614960629923
20
5.6865742913385828
11
-4.8590906299212602
21
5.6862625196850392
0
LINE
8
BLACK
6
CONTINUOUS
10
-4.8590906299212602
20
5.6862625196850392
11
-4.8594023622047242
21
5.6855098818897636
0
LINE
8
BLACK
6
CONTINUOUS
10
-4.8594023622047242
20
5.6855098818897636
11
-4.8602170472440944
21
5.6846952362204721
0
LINE
8
BLACK
6
CONTINUOUS
10
-4.8602170472440944
20
5.6846952362204721
11
-4.8612814566929137
21
5.6842543307086615
0
LINE
8
BLACK
6
CONTINUOUS
10
-4.8612814566929137
20
5.6842543307086615
11
-4.8624335433070867
21
5.6842543307086615
0
LINE
8
BLACK
6
CONTINUOUS
10
-4.8624335433070867
20
5.6842543307086615
11
-4.8624335826771654
21
5.6842543307086615
0
LINE
8
BLACK
6
CONTINUOUS
10
-4.8624335826771654
20
5.6842543307086615
11
-4.8627453543307082
21
5.6843834251968506
0
LINE
8
BLACK
6
CONTINUOUS
10
-4.8627453543307082
20
5.6843834251968506
11
-4.8634979921259838
21
5.6846951968503934
0
LINE
8
BLACK
6
CONTINUOUS
10
-4.8634979921259838
20
5.6846951968503934
11
-4.8860185039370077
21
5.7071368897637793
0
LINE
8
BLACK
6
CONTINUOUS
10
-4.8860185039370077
20
5.7071368897637793
11
-4.8905724803149608
21
5.7086109055118106
0
LINE
8
BLACK
6
CONTINUOUS
10
-4.8905724803149608
20
5.7086109055118106
11
-4.8931064566929132
21
5.708577677165354
0
LINE
8
BLACK
6
CONTINUOUS
10
-4.8931064566929132
20
5.708577677165354
11
-4.8958222440944885
21
5.7071791732283463
0
LINE
8
BLACK
6
CONTINUOUS
10
-4.8958222440944885
20
5.7071791732283463
11
-4.8970129527559054
21
5.7059458267716536
0
LINE
8
BLACK
6
CONTINUOUS
10
-4.8970129527559054
20
5.7059458267716536
11
-4.898323858267716
21
5.7032441732283461
0
LINE
8
BLACK
6
CONTINUOUS
10
-4.898323858267716
20
5.7032441732283461
11
-4.898278346456693
21
5.695262440944882
0
LINE
8
BLACK
6
CONTINUOUS
10
-4.898278346456693
20
5.695262440944882
11
-4.8968845275590551
21
5.6925557086614171
0
LINE
8
BLACK
6
CONTINUOUS
10
-4.8968845275590551
20
5.6925557086614171
11
-4.8953901574803149
21
5.6911130314960632
0
LINE
8
BLACK
6
CONTINUOUS
10
-4.8953901574803149
20
5.6911130314960632
11
-4.8950229527559053
21
5.6906655905511814
0
LINE
8
BLACK
6
CONTINUOUS
10
-4.8950229527559053
20
5.6906655905511814
11
-4.8945820472440946
21
5.6896011811023621
0
LINE
8
BLACK
6
CONTINUOUS
10
-4.8945820472440946
20
5.6896011811023621
11
-4.8945820472440946
21
5.6884490944881891
0
LINE
8
BLACK
6
CONTINUOUS
10
-4.8945820472440946
20
5.6884490944881891
11
-4.8950229527559053
21
5.6873846850393699
0
LINE
8
BLACK
6
CONTINUOUS
10
-4.8950229527559053
20
5.6873846850393699
11
-4.8958376377952755
21
5.6865699999999997
0
LINE
8
BLACK
6
CONTINUOUS
10
-4.8958376377952755
20
5.6865699999999997
11
-4.8969020472440947
21
5.686129094488189
0
LINE
8
BLACK
6
CONTINUOUS
10
-4.8969020472440947
20
5.686129094488189
11
-4.8980541338582677
21
5.686129094488189
0
LINE
8
BLACK
6
CONTINUOUS
10
-4.8980541338582677
20
5.686129094488189
11
-4.8991185433070861
21
5.6865699999999997
0
LINE
8
BLACK
6
CONTINUOUS
10
-4.8991185433070861
20
5.6865699999999997
11
-4.9014407480314963
21
5.6888119685039369
0
LINE
8
BLACK
6
CONTINUOUS
10
-4.9014407480314963
20
5.6888119685039369
11
-4.9016265354330706
21
5.689038307086614
0
LINE
8
BLACK
6
CONTINUOUS
10
-4.9016265354330706
20
5.689038307086614
11
-4.9016855118110234
21
5.6890894881889764
0
LINE
8
BLACK
6
CONTINUOUS
10
-4.9016855118110234
20
5.6890894881889764
11
-4.9017141732283465
21
5.6891451181102362
0
LINE
8
BLACK
6
CONTINUOUS
10
-4.9017141732283465
20
5.6891451181102362
11
-4.9018079527559051
21
5.6892594094488187
0
LINE
8
BLACK
6
CONTINUOUS
10
-4.9018079527559051
20
5.6892594094488187
11
-4.9019516141732282
21
5.6896061811023619
0
LINE
8
BLACK
6
CONTINUOUS
10
-4.9019516141732282
20
5.6896061811023619
11
-4.9038686220472441
21
5.6933288976377954
0
LINE
8
BLACK
6
CONTINUOUS
10
-4.9038686220472441
20
5.6933288976377954
11
-4.9040755118110235
21
5.6938695275590554
0
LINE
8
BLACK
6
CONTINUOUS
10
-4.9040755118110235
20
5.6938695275590554
11
-4.9040830314960626
21
5.69397531496063
0
LINE
8
BLACK
6
CONTINUOUS
10
-4.9040830314960626
20
5.69397531496063
11
-4.9041236220472442
21
5.6940733464566931
0
LINE
8
BLACK
6
CONTINUOUS
10
-4.9041236220472442
20
5.6940733464566931
11
-4.9041265748031497
21
5.6945879133858268
0
LINE
8
BLACK
6
CONTINUOUS
10
-4.9041265748031497
20
5.6945879133858268
11
-4.9041571653543308
21
5.6950187401574803
0
LINE
8
BLACK
6
CONTINUOUS
10
-4.9041571653543308
20
5.6950187401574803
11
-4.9041294881889765
21
5.695101771653543
0
LINE
8
BLACK
6
CONTINUOUS
10
-4.9041294881889765
20
5.695101771653543
11
-4.904180354330709
21
5.7040232283464567
0
LINE
8
BLACK
6
CONTINUOUS
10
-4.904180354330709
20
5.7040232283464567
11
-4.9041236220472442
21
5.7045992913385826
0
LINE
8
BLACK
6
CONTINUOUS
10
-4.9041236220472442
20
5.7045992913385826
11
-4.9040830314960626
21
5.7046972834645668
0
LINE
8
BLACK
6
CONTINUOUS
10
-4.9040830314960626
20
5.7046972834645668
11
-4.9040755118110235
21
5.7048031102362202
0
LINE
8
BLACK
6
CONTINUOUS
10
-4.9040755118110235
20
5.7048031102362202
11
-4.9038273228346458
21
5.7053146456692909
0
LINE
8
BLACK
6
CONTINUOUS
10
-4.9038273228346458
20
5.7053146456692909
11
-4.9036827165354326
21
5.7056637007874018
0
LINE
8
BLACK
6
CONTINUOUS
10
-4.9036827165354326
20
5.7056637007874018
11
-4.9036346062992129
21
5.7057118110236216
0
LINE
8
BLACK
6
CONTINUOUS
10
-4.9036346062992129
20
5.7057118110236216
11
-4.9019938582677165
21
5.7090932677165354
0
LINE
8
BLACK
6
CONTINUOUS
10
-4.9019938582677165
20
5.7090932677165354
11
-4.9018377952755907
21
5.7093412598425193
0
LINE
8
BLACK
6
CONTINUOUS
10
-4.9018377952755907
20
5.7093412598425193
11
-4.9018079527559051
21
5.7094132283464569
0
LINE
8
BLACK
6
CONTINUOUS
10
-4.9018079527559051
20
5.7094132283464569
11
-4.9017634645669288
21
5.7094592913385824
0
LINE
8
BLACK
6
CONTINUOUS
10
-4.9017634645669288
20
5.7094592913385824
11
-4.9016855118110234
21
5.7095831496062992
0
LINE
8
BLACK
6
CONTINUOUS
10
-4.9016855118110234
20
5.7095831496062992
11
-4.9014298425196845
21
5.709804881889764
0
LINE
8
BLACK
6
CONTINUOUS
10
-4.9014298425196845
20
5.709804881889764
11
-4.8995659842519688
21
5.7117354330708663
0
LINE
8
BLACK
6
CONTINUOUS
10
-4.8995659842519688
20
5.7117354330708663
11
-4.8993396456692908
21
5.7119211811023618
0
LINE
8
BLACK
6
CONTINUOUS
10
-4.8993396456692908
20
5.7119211811023618
11
-4.8992884645669292
21
5.7119801968503934
0
LINE
8
BLACK
6
CONTINUOUS
10
-4.8992884645669292
20
5.7119801968503934
11
-4.8992328346456695
21
5.7120088188976377
0
LINE
8
BLACK
6
CONTINUOUS
10
-4.8992328346456695
20
5.7120088188976377
11
-4.8991185433070861
21
5.7121026377952751
0
LINE
8
BLACK
6
CONTINUOUS
10
-4.8991185433070861
20
5.7121026377952751
11
-4.8987716929133853
21
5.7122462992125982
0
LINE
8
BLACK
6
CONTINUOUS
10
-4.8987716929133853
20
5.7122462992125982
11
-4.8950490551181103
21
5.714163307086614
0
LINE
8
BLACK
6
CONTINUOUS
10
-4.8950490551181103
20
5.714163307086614
11
-4.894508464566929
21
5.7143701968503935
0
LINE
8
BLACK
6
CONTINUOUS
10
-4.894508464566929
20
5.7143701968503935
11
-4.8944025984251969
21
5.7143777165354326
0
LINE
8
BLACK
6
CONTINUOUS
10
-4.8944025984251969
20
5.7143777165354326
11
-4.8943046062992126
21
5.7144183070866141
0
LINE
8
BLACK
6
CONTINUOUS
10
-4.8943046062992126
20
5.7144183070866141
11
-4.8937242519685036
21
5.7144259055118107
0
LINE
8
BLACK
6
CONTINUOUS
10
-4.8937242519685036
20
5.7144259055118107
11
-4.8933592519685041
21
5.7144518503937007
0
LINE
8
BLACK
6
CONTINUOUS
10
-4.8933592519685041
20
5.7144518503937007
11
-4.893298228346457
21
5.7144314960629918
0
LINE
8
BLACK
6
CONTINUOUS
10
-4.893298228346457
20
5.7144314960629918
11
-4.8899790157480316
21
5.7144750393700789
0
LINE
8
BLACK
6
CONTINUOUS
10
-4.8899790157480316
20
5.7144750393700789
11
-4.8896874803149606
21
5.7144462992125984
0
LINE
8
BLACK
6
CONTINUOUS
10
-4.8160183464566932
20
5.849495826771653
11
-4.8149529921259839
21
5.8484304724409446
0
LINE
8
BLACK
6
CONTINUOUS
10
-4.8149529921259839
20
5.8484304724409446
11
-4.8149211811023624
21
5.7793126377952753
0
LINE
8
BLACK
6
CONTINUOUS
10
-4.8149211811023624
20
5.7793126377952753
11
-4.8148517716535428
21
5.779214488188976
0
LINE
8
BLACK
6
CONTINUOUS
10
-4.8148517716535428
20
5.779214488188976
11
-4.8149209842519687
21
5.778811299212598
0
LINE
8
BLACK
6
CONTINUOUS
10
-4.8149209842519687
20
5.778811299212598
11
-4.8149027559055115
21
5.7392715748031495
0
LINE
8
BLACK
6
CONTINUOUS
10
-4.8149027559055115
20
5.7392715748031495
11
-4.8148517716535428
21
5.7389744881889762
0
LINE
8
BLACK
6
CONTINUOUS
10
-4.8148517716535428
20
5.7389744881889762
11
-4.8149025984251965
21
5.7389025984251969
0
LINE
8
BLACK
6
CONTINUOUS
10
-4.8149025984251965
20
5.7389025984251969
11
-4.8148031496062993
21
5.5228740157480312
0
LINE
8
BLACK
6
CONTINUOUS
10
-4.8148031496062993
20
5.5228740157480312
11
-4.8149529921259839
21
5.5221207086614168
0
LINE
8
BLACK
6
CONTINUOUS
10
-4.8149529921259839
20
5.5221207086614168
11
-4.8160183464566932
21
5.5210553543307084
0
LINE
8
BLACK
6
CONTINUOUS
10
-4.8160183464566932
20
5.5210553543307084
11
-4.9762204724409447
21
5.5209055118110237
0
LINE
8
BLACK
6
CONTINUOUS
10
-4.9762204724409447
20
5.5209055118110237
11
-4.976973779527559
21
5.5210553543307084
0
LINE
8
BLACK
6
CONTINUOUS
10
-4.976973779527559
20
5.5210553543307084
11
-4.9780391338582675
21
5.5221207086614168
0
LINE
8
BLACK
6
CONTINUOUS
10
-4.9780391338582675
20
5.5221207086614168
11
-4.978188976377953
21
5.8476771653543302
0
LINE
8
BLACK
6
CONTINUOUS
10
-4.978188976377953
20
5.8476771653543302
11
-4.9780391338582675
21
5.8484304724409446
0
LINE
8
BLACK
6
CONTINUOUS
10
-4.9780391338582675
20
5.8484304724409446
11
-4.976973779527559
21
5.849495826771653
0
LINE
8
BLACK
6
CONTINUOUS
10
-4.976973779527559
20
5.849495826771653
11
-4.8167716535433067
21
5.8496456692913386
0
LINE
8
BLACK
6
CONTINUOUS
10
-4.8167716535433067
20
5.8496456692913386
11
-4.8160183464566932
21
5.849495826771653
0
LINE
8
BLACK
6
CONTINUOUS
10
-4.9744005905511806
20
5.8457103543307083
11
-4.9742528346456689
21
5.5246951968503932
0
LINE
8
BLACK
6
CONTINUOUS
10
-4.9742528346456689
20
5.5246951968503932
11
-4.8185915748031496
21
5.5248407874015744
0
LINE
8
BLACK
6
CONTINUOUS
10
-4.8185915748031496
20
5.5248407874015744
11
-4.8186899212598426
21
5.7385288976377948
0
LINE
8
BLACK
6
CONTINUOUS
10
-4.8186899212598426
20
5.7385288976377948
11
-4.8457470472440942
21
5.7574872047244092
0
LINE
8
BLACK
6
CONTINUOUS
10
-4.8457470472440942
20
5.7574872047244092
11
-4.8462755905511807
21
5.7580444881889763
0
LINE
8
BLACK
6
CONTINUOUS
10
-4.8462755905511807
20
5.7580444881889763
11
-4.8463333464566931
21
5.7583808661417324
0
LINE
8
BLACK
6
CONTINUOUS
10
-4.8463333464566931
20
5.7583808661417324
11
-4.8465303543307083
21
5.7586595669291336
0
LINE
8
BLACK
6
CONTINUOUS
10
-4.8465303543307083
20
5.7586595669291336
11
-4.846455748031496
21
5.7590944881889765
0
LINE
8
BLACK
6
CONTINUOUS
10
-4.846455748031496
20
5.7590944881889765
11
-4.8465303543307083
21
5.7595294094488185
0
LINE
8
BLACK
6
CONTINUOUS
10
-4.8465303543307083
20
5.7595294094488185
11
-4.8463333464566931
21
5.7598080708661419
0
LINE
8
BLACK
6
CONTINUOUS
10
-4.8463333464566931
20
5.7598080708661419
11
-4.8462755905511807
21
5.7601444881889758
0
LINE
8
BLACK
6
CONTINUOUS
10
-4.8462755905511807
20
5.7601444881889758
11
-4.8459119685039367
21
5.7604039370078741
0
LINE
8
BLACK
6
CONTINUOUS
10
-4.8459119685039367
20
5.7604039370078741
11
-4.8456605118110234
21
5.760759566929134
0
LINE
8
BLACK
6
CONTINUOUS
10
-4.8456605118110234
20
5.760759566929134
11
-4.8453355118110233
21
5.76081531496063
0
LINE
8
BLACK
6
CONTINUOUS
10
-4.8453355118110233
20
5.76081531496063
11
-4.8187089370078739
21
5.7798153937007877
0
LINE
8
BLACK
6
CONTINUOUS
10
-4.8187089370078739
20
5.7798153937007877
11
-4.8187393307086612
21
5.8458559448818894
0
LINE
8
BLACK
6
CONTINUOUS
10
-4.8187393307086612
20
5.8458559448818894
11
-4.9744005905511806
21
5.8457103543307083
0
LINE
8
BLACK
6
CONTINUOUS
10
-4.8413275984251971
20
5.7590187795275591
11
-4.8186920866141731
21
5.7431586220472441
0
LINE
8
BLACK
6
CONTINUOUS
10
-4.8186920866141731
20
5.7431586220472441
11
-4.8187068110236222
21
5.7751604724409447
0
LINE
8
BLACK
6
CONTINUOUS
10
-4.8187068110236222
20
5.7751604724409447
11
-4.8413275984251971
21
5.7590187795275591
0
LINE
8
BLACK
6
CONTINUOUS
10
-4.1090350787401571
20
5.675076220472441
11
-4.1089573228346454
21
5.6750817716535433
0
LINE
8
BLACK
6
CONTINUOUS
10
-4.1089573228346454
20
5.6750817716535433
11
-4.1088988188976376
21
5.6750627952755908
0
LINE
8
BLACK
6
CONTINUOUS
10
-4.1088988188976376
20
5.6750627952755908
11
-4.1087505511811022
21
5.6750482283464567
0
LINE
8
BLACK
6
CONTINUOUS
10
-4.1087505511811022
20
5.6750482283464567
11
-4.1083819291338584
21
5.6748955118110231
0
LINE
8
BLACK
6
CONTINUOUS
10
-4.1083819291338584
20
5.6748955118110231
11
-4.1027685826771654
21
5.673078661417323
0
LINE
8
BLACK
6
CONTINUOUS
10
-4.1027685826771654
20
5.673078661417323
11
-4.1022400393700789
21
5.6728426771653542
0
LINE
8
BLACK
6
CONTINUOUS
10
-4.1022400393700789
20
5.6728426771653542
11
-4.1021599606299208
21
5.6727731889763779
0
LINE
8
BLACK
6
CONTINUOUS
10
-4.1021599606299208
20
5.6727731889763779
11
-4.1020618897637791
21
5.6727325984251964
0
LINE
8
BLACK
6
CONTINUOUS
10
-4.1020618897637791
20
5.6727325984251964
11
-4.101670551181102
21
5.6723487401574806
0
LINE
8
BLACK
6
CONTINUOUS
10
-4.101670551181102
20
5.6723487401574806
11
-4.1013696850393702
21
5.6720877952755906
0
LINE
8
BLACK
6
CONTINUOUS
10
-4.1013696850393702
20
5.6720877952755906
11
-4.1013361811023623
21
5.6720207480314961
0
LINE
8
BLACK
6
CONTINUOUS
10
-4.1013361811023623
20
5.6720207480314961
11
-4.0978648425196846
21
5.6686158267716538
0
LINE
8
BLACK
6
CONTINUOUS
10
-4.0978648425196846
20
5.6686158267716538
11
-4.0974975984251971
21
5.668168385826772
0
LINE
8
BLACK
6
CONTINUOUS
10
-4.0974975984251971
20
5.668168385826772
11
-4.0974570078740156
21
5.6680703149606302
0
LINE
8
BLACK
6
CONTINUOUS
10
-4.0974570078740156
20
5.6680703149606302
11
-4.0973875196850393
21
5.6679902362204722
0
LINE
8
BLACK
6
CONTINUOUS
10
-4.0973875196850393
20
5.6679902362204722
11
-4.0972125196850389
21
5.667480039370079
0
LINE
8
BLACK
6
CONTINUOUS
10
-4.0972125196850389
20
5.667480039370079
11
-4.0970567322834643
21
5.6671039763779527
0
LINE
8
BLACK
6
CONTINUOUS
10
-4.0970567322834643
20
5.6671039763779527
11
-4.0970567322834643
21
5.6670259842519686
0
LINE
8
BLACK
6
CONTINUOUS
10
-4.0970567322834643
20
5.6670259842519686
11
-4.095276771653543
21
5.661837401574803
0
LINE
8
BLACK
6
CONTINUOUS
10
-4.095276771653543
20
5.661837401574803
11
-4.0952118503937003
21
5.6615517322834643
0
LINE
8
BLACK
6
CONTINUOUS
10
-4.0952118503937003
20
5.6615517322834643
11
-4.0951819685039368
21
5.66147968503937
0
LINE
8
BLACK
6
CONTINUOUS
10
-4.0951819685039368
20
5.66147968503937
11
-4.0951811811023617
21
5.6614168110236216
0
LINE
8
BLACK
6
CONTINUOUS
10
-4.0951811811023617
20
5.6614168110236216
11
-4.0951484251968502
21
5.6612729527559056
0
LINE
8
BLACK
6
CONTINUOUS
10
-4.0951484251968502
20
5.6612729527559056
11
-4.0951744881889764
21
5.6609067716535435
0
LINE
8
BLACK
6
CONTINUOUS
10
-4.0951744881889764
20
5.6609067716535435
11
-4.095125236220472
21
5.6571540944881891
0
LINE
8
BLACK
6
CONTINUOUS
10
-4.095125236220472
20
5.6571540944881891
11
-4.0951819685039368
21
5.6565780314960632
0
LINE
8
BLACK
6
CONTINUOUS
10
-4.0951819685039368
20
5.6565780314960632
11
-4.0956228740157483
21
5.6555136220472439
0
LINE
8
BLACK
6
CONTINUOUS
10
-4.0956228740157483
20
5.6555136220472439
11
-4.0964375196850389
21
5.6546989763779525
0
LINE
8
BLACK
6
CONTINUOUS
10
-4.0964375196850389
20
5.6546989763779525
11
-4.0975019291338581
21
5.6542580708661418
0
LINE
8
BLACK
6
CONTINUOUS
10
-4.0975019291338581
20
5.6542580708661418
11
-4.0986540551181099
21
5.6542580708661418
0
LINE
8
BLACK
6
CONTINUOUS
10
-4.0986540551181099
20
5.6542580708661418
11
-4.0997184645669291
21
5.6546989763779525
0
LINE
8
BLACK
6
CONTINUOUS
10
-4.0997184645669291
20
5.6546989763779525
11
-4.1005331102362206
21
5.6555136220472439
0
LINE
8
BLACK
6
CONTINUOUS
10
-4.1005331102362206
20
5.6555136220472439
11
-4.1009740157480312
21
5.6565780314960632
0
LINE
8
BLACK
6
CONTINUOUS
10
-4.1009740157480312
20
5.6565780314960632
11
-4.1010262204724413
21
5.6605577165354326
0
LINE
8
BLACK
6
CONTINUOUS
10
-4.1010262204724413
20
5.6605577165354326
11
-4.1025560629921261
21
5.6650171653543309
0
LINE
8
BLACK
6
CONTINUOUS
10
-4.1025560629921261
20
5.6650171653543309
11
-4.1053559842519682
21
5.6677635433070863
0
LINE
8
BLACK
6
CONTINUOUS
10
-4.1053559842519682
20
5.6677635433070863
11
-4.1099600787401576
21
5.6692537795275593
0
LINE
8
BLACK
6
CONTINUOUS
10
-4.1099600787401576
20
5.6692537795275593
11
-4.1374480708661414
21
5.6691994488188975
0
LINE
8
BLACK
6
CONTINUOUS
10
-4.1374480708661414
20
5.6691994488188975
11
-4.1380241338582673
21
5.6692561811023623
0
LINE
8
BLACK
6
CONTINUOUS
10
-4.1380241338582673
20
5.6692561811023623
11
-4.1390885433070865
21
5.6696970866141729
0
LINE
8
BLACK
6
CONTINUOUS
10
-4.1390885433070865
20
5.6696970866141729
11
-4.139903188976378
21
5.6705117322834644
0
LINE
8
BLACK
6
CONTINUOUS
10
-4.139903188976378
20
5.6705117322834644
11
-4.1403440944881886
21
5.6715761417322836
0
LINE
8
BLACK
6
CONTINUOUS
10
-4.1403440944881886
20
5.6715761417322836
11
-4.1403440944881886
21
5.6727282677165354
0
LINE
8
BLACK
6
CONTINUOUS
10
-4.1403440944881886
20
5.6727282677165354
11
-4.139903188976378
21
5.6737926771653546
0
LINE
8
BLACK
6
CONTINUOUS
10
-4.139903188976378
20
5.6737926771653546
11
-4.1390885433070865
21
5.6746073228346452
0
LINE
8
BLACK
6
CONTINUOUS
10
-4.1390885433070865
20
5.6746073228346452
11
-4.1380241338582673
21
5.6750482283464567
0
LINE
8
BLACK
6
CONTINUOUS
10
-4.1380241338582673
20
5.6750482283464567
11
-4.1093266141732281
21
5.6751049606299215
0
LINE
8
BLACK
6
CONTINUOUS
10
-4.1093266141732281
20
5.6751049606299215
11
-4.1090350787401571
21
5.675076220472441
0
LINE
8
BLACK
6
CONTINUOUS
10
-4.1095609055118105
20
5.7158521653543302
11
-4.10874625984252
21
5.7150375196850396
0
LINE
8
BLACK
6
CONTINUOUS
10
-4.10874625984252
20
5.7150375196850396
11
-4.1083053543307084
21
5.7139731102362203
0
LINE
8
BLACK
6
CONTINUOUS
10
-4.1083053543307084
20
5.7139731102362203
11
-4.1082979527559056
21
5.7107038582677161
0
LINE
8
BLACK
6
CONTINUOUS
10
-4.1082979527559056
20
5.7107038582677161
11
-4.098077992125984
21
5.7107255118110238
0
LINE
8
BLACK
6
CONTINUOUS
10
-4.098077992125984
20
5.7107255118110238
11
-4.0975019291338581
21
5.710668779527559
0
LINE
8
BLACK
6
CONTINUOUS
10
-4.0975019291338581
20
5.710668779527559
11
-4.0964375196850389
21
5.7102278740157475
0
LINE
8
BLACK
6
CONTINUOUS
10
-4.0964375196850389
20
5.7102278740157475
11
-4.0956228740157483
21
5.7094132283464569
0
LINE
8
BLACK
6
CONTINUOUS
10
-4.0956228740157483
20
5.7094132283464569
11
-4.0951819685039368
21
5.7083488188976377
0
LINE
8
BLACK
6
CONTINUOUS
10
-4.0951819685039368
20
5.7083488188976377
11
-4.0951819685039368
21
5.7071966929133859
0
LINE
8
BLACK
6
CONTINUOUS
10
-4.0951819685039368
20
5.7071966929133859
11
-4.0956228740157483
21
5.7061322834645667
0
LINE
8
BLACK
6
CONTINUOUS
10
-4.0956228740157483
20
5.7061322834645667
11
-4.0964375196850389
21
5.7053176377952752
0
LINE
8
BLACK
6
CONTINUOUS
10
-4.0964375196850389
20
5.7053176377952752
11
-4.0975019291338581
21
5.7048767322834646
0
LINE
8
BLACK
6
CONTINUOUS
10
-4.0975019291338581
20
5.7048767322834646
11
-4.1082846456692916
21
5.7048538976377952
0
LINE
8
BLACK
6
CONTINUOUS
10
-4.1082846456692916
20
5.7048538976377952
11
-4.1082486220472436
21
5.6890251181102363
0
LINE
8
BLACK
6
CONTINUOUS
10
-4.1082486220472436
20
5.6890251181102363
11
-4.1082773622047242
21
5.6887335433070865
0
LINE
8
BLACK
6
CONTINUOUS
10
-4.1082773622047242
20
5.6887335433070865
11
-4.1082718110236218
21
5.6886558267716536
0
LINE
8
BLACK
6
CONTINUOUS
10
-4.1082718110236218
20
5.6886558267716536
11
-4.1082905511811019
21
5.6885996850393701
0
LINE
8
BLACK
6
CONTINUOUS
10
-4.1082905511811019
20
5.6885996850393701
11
-4.1083053543307084
21
5.6884490551181104
0
LINE
8
BLACK
6
CONTINUOUS
10
-4.1083053543307084
20
5.6884490551181104
11
-4.1084865354330704
21
5.688011653543307
0
LINE
8
BLACK
6
CONTINUOUS
10
-4.1084865354330704
20
5.688011653543307
11
-4.1086361417322834
21
5.6875628346456688
0
LINE
8
BLACK
6
CONTINUOUS
10
-4.1086361417322834
20
5.6875628346456688
11
-4.1087056692913384
21
5.6874826771653542
0
LINE
8
BLACK
6
CONTINUOUS
10
-4.1087056692913384
20
5.6874826771653542
11
-4.10874625984252
21
5.6873846456692911
0
LINE
8
BLACK
6
CONTINUOUS
10
-4.10874625984252
20
5.6873846456692911
11
-4.1090810236220472
21
5.6870498818897639
0
LINE
8
BLACK
6
CONTINUOUS
10
-4.1090810236220472
20
5.6870498818897639
11
-4.109391023622047
21
5.6866924409448814
0
LINE
8
BLACK
6
CONTINUOUS
10
-4.109391023622047
20
5.6866924409448814
11
-4.1094859055118107
21
5.6866449999999995
0
LINE
8
BLACK
6
CONTINUOUS
10
-4.1094859055118107
20
5.6866449999999995
11
-4.1095609055118105
21
5.6865699999999997
0
LINE
8
BLACK
6
CONTINUOUS
10
-4.1095609055118105
20
5.6865699999999997
11
-4.1099983858267715
21
5.6863887795275589
0
LINE
8
BLACK
6
CONTINUOUS
10
-4.1099983858267715
20
5.6863887795275589
11
-4.1104214960629921
21
5.6861772440944884
0
LINE
8
BLACK
6
CONTINUOUS
10
-4.1104214960629921
20
5.6861772440944884
11
-4.110527244094488
21
5.6861697244094485
0
LINE
8
BLACK
6
CONTINUOUS
10
-4.110527244094488
20
5.6861697244094485
11
-4.1106253149606298
21
5.686129094488189
0
LINE
8
BLACK
6
CONTINUOUS
10
-4.1106253149606298
20
5.686129094488189
11
-4.1110988582677166
21
5.686129094488189
0
LINE
8
BLACK
6
CONTINUOUS
10
-4.1110988582677166
20
5.686129094488189
11
-4.1115707086614171
21
5.6860955511811024
0
LINE
8
BLACK
6
CONTINUOUS
10
-4.1115707086614171
20
5.6860955511811024
11
-4.1116719685039369
21
5.686129094488189
0
LINE
8
BLACK
6
CONTINUOUS
10
-4.1116719685039369
20
5.686129094488189
11
-4.1117774409448815
21
5.686129094488189
0
LINE
8
BLACK
6
CONTINUOUS
10
-4.1117774409448815
20
5.686129094488189
11
-4.1121985039370079
21
5.6863034645669286
0
LINE
8
BLACK
6
CONTINUOUS
10
-4.1121985039370079
20
5.6863034645669286
11
-4.1402565748031499
21
5.695597716535433
0
LINE
8
BLACK
6
CONTINUOUS
10
-4.1402565748031499
20
5.695597716535433
11
-4.1407851574803152
21
5.6958337007874018
0
LINE
8
BLACK
6
CONTINUOUS
10
-4.1407851574803152
20
5.6958337007874018
11
-4.1416555118110239
21
5.6965885826771654
0
LINE
8
BLACK
6
CONTINUOUS
10
-4.1416555118110239
20
5.6965885826771654
11
-4.1421707086614168
21
5.6976190157480318
0
LINE
8
BLACK
6
CONTINUOUS
10
-4.1421707086614168
20
5.6976190157480318
11
-4.1422524015748028
21
5.6987682283464567
0
LINE
8
BLACK
6
CONTINUOUS
10
-4.1422524015748028
20
5.6987682283464567
11
-4.1418880708661421
21
5.6998612598425193
0
LINE
8
BLACK
6
CONTINUOUS
10
-4.1418880708661421
20
5.6998612598425193
11
-4.1411331889763776
21
5.700731614173228
0
LINE
8
BLACK
6
CONTINUOUS
10
-4.1411331889763776
20
5.700731614173228
11
-4.1401027559055121
21
5.7012468110236219
0
LINE
8
BLACK
6
CONTINUOUS
10
-4.1401027559055121
20
5.7012468110236219
11
-4.1389535433070863
21
5.7013285039370079
0
LINE
8
BLACK
6
CONTINUOUS
10
-4.1389535433070863
20
5.7013285039370079
11
-4.1141079921259838
21
5.6930984251968502
0
LINE
8
BLACK
6
CONTINUOUS
10
-4.1141079921259838
20
5.6930984251968502
11
-4.1141346850393701
21
5.7048415354330704
0
LINE
8
BLACK
6
CONTINUOUS
10
-4.1141346850393701
20
5.7048415354330704
11
-4.1243247244094485
21
5.7048199999999998
0
LINE
8
BLACK
6
CONTINUOUS
10
-4.1243247244094485
20
5.7048199999999998
11
-4.1249007874015744
21
5.7048767322834646
0
LINE
8
BLACK
6
CONTINUOUS
10
-4.1249007874015744
20
5.7048767322834646
11
-4.1259651968503936
21
5.7053176377952752
0
LINE
8
BLACK
6
CONTINUOUS
10
-4.1259651968503936
20
5.7053176377952752
11
-4.1267798425196851
21
5.7061322834645667
0
LINE
8
BLACK
6
CONTINUOUS
10
-4.1267798425196851
20
5.7061322834645667
11
-4.1272207480314957
21
5.7071966929133859
0
LINE
8
BLACK
6
CONTINUOUS
10
-4.1272207480314957
20
5.7071966929133859
11
-4.1272207480314957
21
5.7083488188976377
0
LINE
8
BLACK
6
CONTINUOUS
10
-4.1272207480314957
20
5.7083488188976377
11
-4.1267798425196851
21
5.7094132283464569
0
LINE
8
BLACK
6
CONTINUOUS
10
-4.1267798425196851
20
5.7094132283464569
11
-4.1259651968503936
21
5.7102278740157475
0
LINE
8
BLACK
6
CONTINUOUS
10
-4.1259651968503936
20
5.7102278740157475
11
-4.1249007874015744
21
5.710668779527559
0
LINE
8
BLACK
6
CONTINUOUS
10
-4.1249007874015744
20
5.710668779527559
11
-4.114147992125984
21
5.7106914960629922
0
LINE
8
BLACK
6
CONTINUOUS
10
-4.114147992125984
20
5.7106914960629922
11
-4.1141541338582677
21
5.7133970472440945
0
LINE
8
BLACK
6
CONTINUOUS
10
-4.1141541338582677
20
5.7133970472440945
11
-4.1140974015748029
21
5.7139731102362203
0
LINE
8
BLACK
6
CONTINUOUS
10
-4.1140974015748029
20
5.7139731102362203
11
-4.1136564960629922
21
5.7150375196850396
0
LINE
8
BLACK
6
CONTINUOUS
10
-4.1136564960629922
20
5.7150375196850396
11
-4.1128418503937008
21
5.7158521653543302
0
LINE
8
BLACK
6
CONTINUOUS
10
-4.1128418503937008
20
5.7158521653543302
11
-4.1117774409448815
21
5.7162930708661417
0
LINE
8
BLACK
6
CONTINUOUS
10
-4.1117774409448815
20
5.7162930708661417
11
-4.1106253149606298
21
5.7162930708661417
0
LINE
8
BLACK
6
CONTINUOUS
10
-4.1106253149606298
20
5.7162930708661417
11
-4.1095609055118105
21
5.7158521653543302
0
LINE
8
BLACK
6
CONTINUOUS
10
-4.0187742519685035
20
5.849495826771653
11
-4.017708897637795
21
5.8484304724409446
0
LINE
8
BLACK
6
CONTINUOUS
10
-4.017708897637795
20
5.8484304724409446
11
-4.0175590551181104
21
5.5228740157480312
0
LINE
8
BLACK
6
CONTINUOUS
10
-4.0175590551181104
20
5.5228740157480312
11
-4.017708897637795
21
5.5221207086614168
0
LINE
8
BLACK
6
CONTINUOUS
10
-4.017708897637795
20
5.5221207086614168
11
-4.0187742519685035
21
5.5210553543307084
0
LINE
8
BLACK
6
CONTINUOUS
10
-4.0187742519685035
20
5.5210553543307084
11
-4.1789763779527558
21
5.5209055118110237
0
LINE
8
BLACK
6
CONTINUOUS
10
-4.1789763779527558
20
5.5209055118110237
11
-4.1797296850393701
21
5.5210553543307084
0
LINE
8
BLACK
6
CONTINUOUS
10
-4.1797296850393701
20
5.5210553543307084
11
-4.1807950393700786
21
5.5221207086614168
0
LINE
8
BLACK
6
CONTINUOUS
10
-4.1807950393700786
20
5.5221207086614168
11
-4.1808268897637797
21
5.5912386220472436
0
LINE
8
BLACK
6
CONTINUOUS
10
-4.1808268897637797
20
5.5912386220472436
11
-4.1808962204724409
21
5.5913367322834642
0
LINE
8
BLACK
6
CONTINUOUS
10
-4.1808962204724409
20
5.5913367322834642
11
-4.1808270866141735
21
5.5917396850393697
0
LINE
8
BLACK
6
CONTINUOUS
10
-4.1808270866141735
20
5.5917396850393697
11
-4.1808453149606297
21
5.631279724409449
0
LINE
8
BLACK
6
CONTINUOUS
10
-4.1808453149606297
20
5.631279724409449
11
-4.1808962204724409
21
5.6315766535433074
0
LINE
8
BLACK
6
CONTINUOUS
10
-4.1808962204724409
20
5.6315766535433074
11
-4.1808454724409447
21
5.6316484251968504
0
LINE
8
BLACK
6
CONTINUOUS
10
-4.1808454724409447
20
5.6316484251968504
11
-4.1809448818897641
21
5.8476771653543302
0
LINE
8
BLACK
6
CONTINUOUS
10
-4.1809448818897641
20
5.8476771653543302
11
-4.1807950393700786
21
5.8484304724409446
0
LINE
8
BLACK
6
CONTINUOUS
10
-4.1807950393700786
20
5.8484304724409446
11
-4.1797296850393701
21
5.849495826771653
0
LINE
8
BLACK
6
CONTINUOUS
10
-4.1797296850393701
20
5.849495826771653
11
-4.0195275590551178
21
5.8496456692913386
0
LINE
8
BLACK
6
CONTINUOUS
10
-4.0195275590551178
20
5.8496456692913386
11
-4.0187742519685035
21
5.849495826771653
0
LINE
8
BLACK
6
CONTINUOUS
10
-4.1771564960629917
20
5.8457103543307083
11
-4.1770581496062995
21
5.6320222047244091
0
LINE
8
BLACK
6
CONTINUOUS
10
-4.1770581496062995
20
5.6320222047244091
11
-4.1500009842519683
21
5.6130639763779531
0
LINE
8
BLACK
6
CONTINUOUS
10
-4.1500009842519683
20
5.6130639763779531
11
-4.1494724409448818
21
5.612506692913386
0
LINE
8
BLACK
6
CONTINUOUS
10
-4.1494724409448818
20
5.612506692913386
11
-4.1494147637795278
21
5.6121703543307087
0
LINE
8
BLACK
6
CONTINUOUS
10
-4.1494147637795278
20
5.6121703543307087
11
-4.1492176377952754
21
5.6118916535433065
0
LINE
8
BLACK
6
CONTINUOUS
10
-4.1492176377952754
20
5.6118916535433065
11
-4.1492922834645665
21
5.6114566929133858
0
LINE
8
BLACK
6
CONTINUOUS
10
-4.1492922834645665
20
5.6114566929133858
11
-4.1492176377952754
21
5.6110217322834641
0
LINE
8
BLACK
6
CONTINUOUS
10
-4.1492176377952754
20
5.6110217322834641
11
-4.1494147637795278
21
5.6107429921259842
0
LINE
8
BLACK
6
CONTINUOUS
10
-4.1494147637795278
20
5.6107429921259842
11
-4.1494724409448818
21
5.6104066929133856
0
LINE
8
BLACK
6
CONTINUOUS
10
-4.1494724409448818
20
5.6104066929133856
11
-4.1498359842519683
21
5.6101472440944882
0
LINE
8
BLACK
6
CONTINUOUS
10
-4.1498359842519683
20
5.6101472440944882
11
-4.1500874803149603
21
5.6097916141732282
0
LINE
8
BLACK
6
CONTINUOUS
10
-4.1500874803149603
20
5.6097916141732282
11
-4.1504125984251967
21
5.6097358267716535
0
LINE
8
BLACK
6
CONTINUOUS
10
-4.1504125984251967
20
5.6097358267716535
11
-4.1770391338582673
21
5.5907357480314959
0
LINE
8
BLACK
6
CONTINUOUS
10
-4.1770391338582673
20
5.5907357480314959
11
-4.17700874015748
21
5.5246951968503932
0
LINE
8
BLACK
6
CONTINUOUS
10
-4.17700874015748
20
5.5246951968503932
11
-4.0213474803149607
21
5.5248407874015744
0
LINE
8
BLACK
6
CONTINUOUS
10
-4.0213474803149607
20
5.5248407874015744
11
-4.0214952362204723
21
5.8458559448818894
0
LINE
8
BLACK
6
CONTINUOUS
10
-4.0214952362204723
20
5.8458559448818894
11
-4.1771564960629917
21
5.8457103543307083
0
LINE
8
BLACK
6
CONTINUOUS
10
-4.1770412598425199
20
5.5953906692913389
11
-4.154420472440945
21
5.6115323228346456
0
LINE
8
BLACK
6
CONTINUOUS
10
-4.154420472440945
20
5.6115323228346456
11
-4.1770559842519681
21
5.6273925196850394
0
LINE
8
BLACK
6
CONTINUOUS
10
-4.1770559842519681
20
5.6273925196850394
11
-4.1770412598425199
21
5.5953906692913389
0
LINE
8
BLACK
6
CONTINUOUS
10
-4.7458998425196848
20
5.9237299212598424
11
-4.728522165354331
21
5.9064129527559057
0
LINE
8
BLACK
6
CONTINUOUS
10
-4.728522165354331
20
5.9064129527559057
11
-4.728468976377953
21
5.9063731102362205
0
LINE
8
BLACK
6
CONTINUOUS
10
-4.728468976377953
20
5.9063731102362205
11
-4.7284500787401571
21
5.9063411417322831
0
LINE
8
BLACK
6
CONTINUOUS
10
-4.7284500787401571
20
5.9063411417322831
11
-4.7279740551181098
21
5.9058667716535433
0
LINE
8
BLACK
6
CONTINUOUS
10
-4.7279740551181098
20
5.9058667716535433
11
-4.7279959055118113
21
5.9212748031496059
0
LINE
8
BLACK
6
CONTINUOUS
10
-4.7279959055118113
20
5.9212748031496059
11
-4.7279391732283464
21
5.9218508661417317
0
LINE
8
BLACK
6
CONTINUOUS
10
-4.7279391732283464
20
5.9218508661417317
11
-4.7274982677165349
21
5.922915275590551
0
LINE
8
BLACK
6
CONTINUOUS
10
-4.7274982677165349
20
5.922915275590551
11
-4.7266836220472443
21
5.9237299212598424
0
LINE
8
BLACK
6
CONTINUOUS
10
-4.7266836220472443
20
5.9237299212598424
11
-4.7256192125984251
21
5.9241708267716531
0
LINE
8
BLACK
6
CONTINUOUS
10
-4.7256192125984251
20
5.9241708267716531
11
-4.7244670866141734
21
5.9241708267716531
0
LINE
8
BLACK
6
CONTINUOUS
10
-4.7244670866141734
20
5.9241708267716531
11
-4.7234026771653541
21
5.9237299212598424
0
LINE
8
BLACK
6
CONTINUOUS
10
-4.7234026771653541
20
5.9237299212598424
11
-4.7225880314960627
21
5.922915275590551
0
LINE
8
BLACK
6
CONTINUOUS
10
-4.7225880314960627
20
5.922915275590551
11
-4.722147125984252
21
5.9218508661417317
0
LINE
8
BLACK
6
CONTINUOUS
10
-4.722147125984252
20
5.9218508661417317
11
-4.7220903937007872
21
5.8819047244094484
0
LINE
8
BLACK
6
CONTINUOUS
10
-4.7220903937007872
20
5.8819047244094484
11
-4.722147125984252
21
5.8813286614173226
0
LINE
8
BLACK
6
CONTINUOUS
10
-4.722147125984252
20
5.8813286614173226
11
-4.7225880314960627
21
5.8802642519685042
0
LINE
8
BLACK
6
CONTINUOUS
10
-4.7225880314960627
20
5.8802642519685042
11
-4.7234026771653541
21
5.8794496062992128
0
LINE
8
BLACK
6
CONTINUOUS
10
-4.7234026771653541
20
5.8794496062992128
11
-4.7244670866141734
21
5.8790087007874012
0
LINE
8
BLACK
6
CONTINUOUS
10
-4.7244670866141734
20
5.8790087007874012
11
-4.7256192125984251
21
5.8790087007874012
0
LINE
8
BLACK
6
CONTINUOUS
10
-4.7256192125984251
20
5.8790087007874012
11
-4.7266836220472443
21
5.8794496062992128
0
LINE
8
BLACK
6
CONTINUOUS
10
-4.7266836220472443
20
5.8794496062992128
11
-4.7274982677165349
21
5.8802642519685042
0
LINE
8
BLACK
6
CONTINUOUS
10
-4.7274982677165349
20
5.8802642519685042
11
-4.7279391732283464
21
5.8813286614173226
0
LINE
8
BLACK
6
CONTINUOUS
10
-4.7279391732283464
20
5.8813286614173226
11
-4.7279622834645672
21
5.8975966929133854
0
LINE
8
BLACK
6
CONTINUOUS
10
-4.7279622834645672
20
5.8975966929133854
11
-4.7303540551181102
21
5.8999800787401577
0
LINE
8
BLACK
6
CONTINUOUS
10
-4.7303540551181102
20
5.8999800787401577
11
-4.7451781102362203
21
5.8801330708661412
0
LINE
8
BLACK
6
CONTINUOUS
10
-4.7451781102362203
20
5.8801330708661412
11
-4.7455691338582673
21
5.8797062598425196
0
LINE
8
BLACK
6
CONTINUOUS
10
-4.7455691338582673
20
5.8797062598425196
11
-4.7465605118110235
21
5.8791192913385828
0
LINE
8
BLACK
6
CONTINUOUS
10
-4.7465605118110235
20
5.8791192913385828
11
-4.7477010236220467
21
5.8789563385826771
0
LINE
8
BLACK
6
CONTINUOUS
10
-4.7477010236220467
20
5.8789563385826771
11
-4.7488170866141735
21
5.879242283464567
0
LINE
8
BLACK
6
CONTINUOUS
10
-4.7488170866141735
20
5.879242283464567
11
-4.7497387795275587
21
5.8799335433070867
0
LINE
8
BLACK
6
CONTINUOUS
10
-4.7497387795275587
20
5.8799335433070867
11
-4.7503257480314955
21
5.880924921259842
0
LINE
8
BLACK
6
CONTINUOUS
10
-4.7503257480314955
20
5.880924921259842
11
-4.7504887007874013
21
5.8820654330708662
0
LINE
8
BLACK
6
CONTINUOUS
10
-4.7504887007874013
20
5.8820654330708662
11
-4.7502027559055113
21
5.883181496062992
0
LINE
8
BLACK
6
CONTINUOUS
10
-4.7502027559055113
20
5.883181496062992
11
-4.7345400393700787
21
5.9041514173228347
0
LINE
8
BLACK
6
CONTINUOUS
10
-4.7345400393700787
20
5.9041514173228347
11
-4.7496282283464568
21
5.9191868897637798
0
LINE
8
BLACK
6
CONTINUOUS
10
-4.7496282283464568
20
5.9191868897637798
11
-4.7499954330708665
21
5.9196343307086616
0
LINE
8
BLACK
6
CONTINUOUS
10
-4.7499954330708665
20
5.9196343307086616
11
-4.7504363385826771
21
5.9206987795275587
0
LINE
8
BLACK
6
CONTINUOUS
10
-4.7504363385826771
20
5.9206987795275587
11
-4.7504363385826771
21
5.921850826771653
0
LINE
8
BLACK
6
CONTINUOUS
10
-4.7504363385826771
20
5.921850826771653
11
-4.7499954330708665
21
5.922915275590551
0
LINE
8
BLACK
6
CONTINUOUS
10
-4.7499954330708665
20
5.922915275590551
11
-4.749180787401575
21
5.9237299212598424
0
LINE
8
BLACK
6
CONTINUOUS
10
-4.749180787401575
20
5.9237299212598424
11
-4.748116338582677
21
5.9241708267716531
0
LINE
8
BLACK
6
CONTINUOUS
10
-4.748116338582677
20
5.9241708267716531
11
-4.7469642913385828
21
5.9241708267716531
0
LINE
8
BLACK
6
CONTINUOUS
10
-4.7469642913385828
20
5.9241708267716531
11
-4.7458998425196848
21
5.9237299212598424
  0
ENDSEC
  0
EOF
