  0
SECTION
  2
HEADER
  9
$ANGBASE
  50
0.0
  9
$ANGDIR
  70
1
  9
$MEASUREMENT
  70
0
  0
ENDSEC
  0
SECTION
  2
TABLES
  0
TABLE
  2
LTYPE
  70
4
  0
LTYPE
  5
40F
  2
CONTINUOUS
  70
0
  3
Solid line
  72
65
  73
0
  40
0.0
  0
LTYPE
  5
410
  2
DASHDOT
 70
0
  3
Dash Dot ____ _ ____ _
 72
65
 73
4
 40
2.0
 49
1.25
 49
-0.25
 49
0.25
 49
-0.25
  0
LTYPE
  5
411
  2
DASHED
 70
0
  3
Dashed __ __ __ __ __
 72
65
 73
2
 40
0.75
 49
0.5
 49
-0.25
  0
LTYPE
  5
43B
  2
DOTTED
 70
0
  3
Dotted .  .  .  .
 72
65
 73
2
 40
0.2
 49
0.0
 49
-0.2
  0
ENDTAB
  0
TABLE
  2
STYLE
  70
4
  0
STYLE
  2
KICAD
  70
0
  40
0
  41
1
  42
1
  50
0
  71
0
  3
isocp.shx
  0
STYLE
  2
KICADB
  70
0
  40
0
  41
1
  42
1
  50
0
  71
0
  3
isocp.shx
  0
STYLE
  2
KICADI
  70
0
  40
0
  41
1
  42
1
  50
15
  71
0
  3
isocp.shx
  0
STYLE
  2
KICADBI
  70
0
  40
0
  41
1
  42
1
  50
15
  71
0
  3
isocp.shx
  0
ENDTAB
  0
TABLE
  2
LAYER
  70
1
  0
LAYER
  2
BLACK
  70
0
  62
7
  6
CONTINUOUS
  0
ENDTAB
  0
ENDSEC
  0
SECTION
  2
ENTITIES
0
LINE
8
BLACK
6
CONTINUOUS
10
-4.36126
20
5.54425
11
-4.36056
21
5.54396
0
LINE
8
BLACK
6
CONTINUOUS
10
-4.36056
20
5.54396
11
-4.36028
21
5.54327
0
LINE
8
BLACK
6
CONTINUOUS
10
-4.36028
20
5.54327
11
-4.36028
21
5.42673
0
LINE
8
BLACK
6
CONTINUOUS
10
-4.36028
20
5.42673
11
-4.36056
21
5.42604
0
LINE
8
BLACK
6
CONTINUOUS
10
-4.36056
20
5.42604
11
-4.36126
21
5.42575
0
LINE
8
BLACK
6
CONTINUOUS
10
-4.36126
20
5.42575
11
-4.41874
21
5.42575
0
LINE
8
BLACK
6
CONTINUOUS
10
-4.41874
20
5.42575
11
-4.41944
21
5.42604
0
LINE
8
BLACK
6
CONTINUOUS
10
-4.41944
20
5.42604
11
-4.41972
21
5.42673
0
LINE
8
BLACK
6
CONTINUOUS
10
-4.41972
20
5.42673
11
-4.41972
21
5.54327
0
LINE
8
BLACK
6
CONTINUOUS
10
-4.41972
20
5.54327
11
-4.41944
21
5.54396
0
LINE
8
BLACK
6
CONTINUOUS
10
-4.41944
20
5.54396
11
-4.41874
21
5.54425
0
LINE
8
BLACK
6
CONTINUOUS
10
-4.41874
20
5.54425
11
-4.36126
21
5.54425
0
LINE
8
BLACK
6
CONTINUOUS
10
-4.41776
20
5.54228
11
-4.41776
21
5.42772
0
LINE
8
BLACK
6
CONTINUOUS
10
-4.41776
20
5.42772
11
-4.36224
21
5.42772
0
LINE
8
BLACK
6
CONTINUOUS
10
-4.36224
20
5.42772
11
-4.36224
21
5.54228
0
LINE
8
BLACK
6
CONTINUOUS
10
-4.36224
20
5.54228
11
-4.41776
21
5.54228
0
LINE
8
BLACK
6
CONTINUOUS
10
-4.28126
20
5.54425
11
-4.28056
21
5.54396
0
LINE
8
BLACK
6
CONTINUOUS
10
-4.28056
20
5.54396
11
-4.28028
21
5.54327
0
LINE
8
BLACK
6
CONTINUOUS
10
-4.28028
20
5.54327
11
-4.28028
21
5.42673
0
LINE
8
BLACK
6
CONTINUOUS
10
-4.28028
20
5.42673
11
-4.28056
21
5.42604
0
LINE
8
BLACK
6
CONTINUOUS
10
-4.28056
20
5.42604
11
-4.28126
21
5.42575
0
LINE
8
BLACK
6
CONTINUOUS
10
-4.28126
20
5.42575
11
-4.33874
21
5.42575
0
LINE
8
BLACK
6
CONTINUOUS
10
-4.33874
20
5.42575
11
-4.33944
21
5.42604
0
LINE
8
BLACK
6
CONTINUOUS
10
-4.33944
20
5.42604
11
-4.33972
21
5.42673
0
LINE
8
BLACK
6
CONTINUOUS
10
-4.33972
20
5.42673
11
-4.33972
21
5.54327
0
LINE
8
BLACK
6
CONTINUOUS
10
-4.33972
20
5.54327
11
-4.33944
21
5.54396
0
LINE
8
BLACK
6
CONTINUOUS
10
-4.33944
20
5.54396
11
-4.33874
21
5.54425
0
LINE
8
BLACK
6
CONTINUOUS
10
-4.33874
20
5.54425
11
-4.28126
21
5.54425
0
LINE
8
BLACK
6
CONTINUOUS
10
-4.33776
20
5.54228
11
-4.33776
21
5.42772
0
LINE
8
BLACK
6
CONTINUOUS
10
-4.33776
20
5.42772
11
-4.28224
21
5.42772
0
LINE
8
BLACK
6
CONTINUOUS
10
-4.28224
20
5.42772
11
-4.28224
21
5.54228
0
LINE
8
BLACK
6
CONTINUOUS
10
-4.28224
20
5.54228
11
-4.33776
21
5.54228
0
LINE
8
BLACK
6
CONTINUOUS
10
-4.43173
20
5.51972
11
-4.43104
21
5.51944
0
LINE
8
BLACK
6
CONTINUOUS
10
-4.43104
20
5.51944
11
-4.43075
21
5.51874
0
LINE
8
BLACK
6
CONTINUOUS
10
-4.43075
20
5.51874
11
-4.43075
21
5.46126
0
LINE
8
BLACK
6
CONTINUOUS
10
-4.43075
20
5.46126
11
-4.43104
21
5.46056
0
LINE
8
BLACK
6
CONTINUOUS
10
-4.43104
20
5.46056
11
-4.43173
21
5.46028
0
LINE
8
BLACK
6
CONTINUOUS
10
-4.43173
20
5.46028
11
-4.54827
21
5.46028
0
LINE
8
BLACK
6
CONTINUOUS
10
-4.54827
20
5.46028
11
-4.54896
21
5.46056
0
LINE
8
BLACK
6
CONTINUOUS
10
-4.54896
20
5.46056
11
-4.54925
21
5.46126
0
LINE
8
BLACK
6
CONTINUOUS
10
-4.54925
20
5.46126
11
-4.54925
21
5.51874
0
LINE
8
BLACK
6
CONTINUOUS
10
-4.54925
20
5.51874
11
-4.54896
21
5.51944
0
LINE
8
BLACK
6
CONTINUOUS
10
-4.54896
20
5.51944
11
-4.54827
21
5.51972
0
LINE
8
BLACK
6
CONTINUOUS
10
-4.54827
20
5.51972
11
-4.43173
21
5.51972
0
LINE
8
BLACK
6
CONTINUOUS
10
-4.54728
20
5.51776
11
-4.54728
21
5.46224
0
LINE
8
BLACK
6
CONTINUOUS
10
-4.54728
20
5.46224
11
-4.43272
21
5.46224
0
LINE
8
BLACK
6
CONTINUOUS
10
-4.43272
20
5.46224
11
-4.43272
21
5.51776
0
LINE
8
BLACK
6
CONTINUOUS
10
-4.43272
20
5.51776
11
-4.54728
21
5.51776
0
LINE
8
BLACK
6
CONTINUOUS
10
-4.75378
20
5.87209
11
-4.75308
21
5.8718
0
LINE
8
BLACK
6
CONTINUOUS
10
-4.75308
20
5.8718
11
-4.7528
21
5.8711
0
LINE
8
BLACK
6
CONTINUOUS
10
-4.7528
20
5.8711
11
-4.7528
21
5.49945
0
LINE
8
BLACK
6
CONTINUOUS
10
-4.7528
20
5.49945
11
-4.75308
21
5.49875
0
LINE
8
BLACK
6
CONTINUOUS
10
-4.75308
20
5.49875
11
-4.75378
21
5.49846
0
LINE
8
BLACK
6
CONTINUOUS
10
-4.75378
20
5.49846
11
-5.00575
21
5.49846
0
LINE
8
BLACK
6
CONTINUOUS
10
-5.00575
20
5.49846
11
-5.00644
21
5.49875
0
LINE
8
BLACK
6
CONTINUOUS
10
-5.00644
20
5.49875
11
-5.00673
21
5.49945
0
LINE
8
BLACK
6
CONTINUOUS
10
-5.00673
20
5.49945
11
-5.00673
21
5.8711
0
LINE
8
BLACK
6
CONTINUOUS
10
-5.00673
20
5.8711
11
-5.00644
21
5.8718
0
LINE
8
BLACK
6
CONTINUOUS
10
-5.00644
20
5.8718
11
-5.00575
21
5.87209
0
LINE
8
BLACK
6
CONTINUOUS
10
-5.00575
20
5.87209
11
-4.75378
21
5.87209
0
LINE
8
BLACK
6
CONTINUOUS
10
-5.00476
20
5.87012
11
-5.00476
21
5.50043
0
LINE
8
BLACK
6
CONTINUOUS
10
-5.00476
20
5.50043
11
-4.75476
21
5.50043
0
LINE
8
BLACK
6
CONTINUOUS
10
-4.75476
20
5.50043
11
-4.75476
21
5.87012
0
LINE
8
BLACK
6
CONTINUOUS
10
-4.75476
20
5.87012
11
-5.00476
21
5.87012
0
LINE
8
BLACK
6
CONTINUOUS
10
-3.99
20
5.87209
11
-3.9893
21
5.8718
0
LINE
8
BLACK
6
CONTINUOUS
10
-3.9893
20
5.8718
11
-3.98902
21
5.8711
0
LINE
8
BLACK
6
CONTINUOUS
10
-3.98902
20
5.8711
11
-3.98902
21
5.49945
0
LINE
8
BLACK
6
CONTINUOUS
10
-3.98902
20
5.49945
11
-3.9893
21
5.49875
0
LINE
8
BLACK
6
CONTINUOUS
10
-3.9893
20
5.49875
11
-3.99
21
5.49846
0
LINE
8
BLACK
6
CONTINUOUS
10
-3.99
20
5.49846
11
-4.24197
21
5.49846
0
LINE
8
BLACK
6
CONTINUOUS
10
-4.24197
20
5.49846
11
-4.24266
21
5.49875
0
LINE
8
BLACK
6
CONTINUOUS
10
-4.24266
20
5.49875
11
-4.24295
21
5.49945
0
LINE
8
BLACK
6
CONTINUOUS
10
-4.24295
20
5.49945
11
-4.24295
21
5.8711
0
LINE
8
BLACK
6
CONTINUOUS
10
-4.24295
20
5.8711
11
-4.24266
21
5.8718
0
LINE
8
BLACK
6
CONTINUOUS
10
-4.24266
20
5.8718
11
-4.24197
21
5.87209
0
LINE
8
BLACK
6
CONTINUOUS
10
-4.24197
20
5.87209
11
-3.99
21
5.87209
0
LINE
8
BLACK
6
CONTINUOUS
10
-4.24098
20
5.87012
11
-4.24098
21
5.50043
0
LINE
8
BLACK
6
CONTINUOUS
10
-4.24098
20
5.50043
11
-3.99098
21
5.50043
0
LINE
8
BLACK
6
CONTINUOUS
10
-3.99098
20
5.50043
11
-3.99098
21
5.87012
0
LINE
8
BLACK
6
CONTINUOUS
10
-3.99098
20
5.87012
11
-4.24098
21
5.87012
0
LINE
8
BLACK
6
CONTINUOUS
10
-4.52126
20
5.66026
11
-4.52056
21
5.65997
0
LINE
8
BLACK
6
CONTINUOUS
10
-4.52056
20
5.65997
11
-4.52028
21
5.65927
0
LINE
8
BLACK
6
CONTINUOUS
10
-4.52028
20
5.65927
11
-4.52028
21
5.54274
0
LINE
8
BLACK
6
CONTINUOUS
10
-4.52028
20
5.54274
11
-4.52056
21
5.54204
0
LINE
8
BLACK
6
CONTINUOUS
10
-4.52056
20
5.54204
11
-4.52126
21
5.54175
0
LINE
8
BLACK
6
CONTINUOUS
10
-4.52126
20
5.54175
11
-4.57874
21
5.54175
0
LINE
8
BLACK
6
CONTINUOUS
10
-4.57874
20
5.54175
11
-4.57944
21
5.54204
0
LINE
8
BLACK
6
CONTINUOUS
10
-4.57944
20
5.54204
11
-4.57972
21
5.54274
0
LINE
8
BLACK
6
CONTINUOUS
10
-4.57972
20
5.54274
11
-4.57972
21
5.65927
0
LINE
8
BLACK
6
CONTINUOUS
10
-4.57972
20
5.65927
11
-4.57944
21
5.65997
0
LINE
8
BLACK
6
CONTINUOUS
10
-4.57944
20
5.65997
11
-4.57874
21
5.66026
0
LINE
8
BLACK
6
CONTINUOUS
10
-4.57874
20
5.66026
11
-4.52126
21
5.66026
0
LINE
8
BLACK
6
CONTINUOUS
10
-4.57776
20
5.65829
11
-4.57776
21
5.54372
0
LINE
8
BLACK
6
CONTINUOUS
10
-4.57776
20
5.54372
11
-4.52224
21
5.54372
0
LINE
8
BLACK
6
CONTINUOUS
10
-4.52224
20
5.54372
11
-4.52224
21
5.65829
0
LINE
8
BLACK
6
CONTINUOUS
10
-4.52224
20
5.65829
11
-4.57776
21
5.65829
0
LINE
8
BLACK
6
CONTINUOUS
10
-4.3411
20
5.82327
11
-4.34041
21
5.82298
0
LINE
8
BLACK
6
CONTINUOUS
10
-4.34041
20
5.82298
11
-4.34012
21
5.82228
0
LINE
8
BLACK
6
CONTINUOUS
10
-4.34012
20
5.82228
11
-4.34012
21
5.54827
0
LINE
8
BLACK
6
CONTINUOUS
10
-4.34012
20
5.54827
11
-4.34041
21
5.54757
0
LINE
8
BLACK
6
CONTINUOUS
10
-4.34041
20
5.54757
11
-4.3411
21
5.54728
0
LINE
8
BLACK
6
CONTINUOUS
10
-4.3411
20
5.54728
11
-4.4789
21
5.54728
0
LINE
8
BLACK
6
CONTINUOUS
10
-4.4789
20
5.54728
11
-4.47959
21
5.54757
0
LINE
8
BLACK
6
CONTINUOUS
10
-4.47959
20
5.54757
11
-4.47988
21
5.54827
0
LINE
8
BLACK
6
CONTINUOUS
10
-4.47988
20
5.54827
11
-4.47988
21
5.82228
0
LINE
8
BLACK
6
CONTINUOUS
10
-4.47988
20
5.82228
11
-4.47959
21
5.82298
0
LINE
8
BLACK
6
CONTINUOUS
10
-4.47959
20
5.82298
11
-4.4789
21
5.82327
0
LINE
8
BLACK
6
CONTINUOUS
10
-4.4789
20
5.82327
11
-4.3411
21
5.82327
0
LINE
8
BLACK
6
CONTINUOUS
10
-4.47791
20
5.8213
11
-4.47791
21
5.54925
0
LINE
8
BLACK
6
CONTINUOUS
10
-4.47791
20
5.54925
11
-4.34209
21
5.54925
0
LINE
8
BLACK
6
CONTINUOUS
10
-4.34209
20
5.54925
11
-4.34209
21
5.8213
0
LINE
8
BLACK
6
CONTINUOUS
10
-4.34209
20
5.8213
11
-4.47791
21
5.8213
0
LINE
8
BLACK
6
CONTINUOUS
10
-4.57642
20
5.84541
11
-4.57572
21
5.84513
0
LINE
8
BLACK
6
CONTINUOUS
10
-4.57572
20
5.84513
11
-4.57543
21
5.84443
0
LINE
8
BLACK
6
CONTINUOUS
10
-4.57543
20
5.84443
11
-4.57543
21
5.71057
0
LINE
8
BLACK
6
CONTINUOUS
10
-4.57543
20
5.71057
11
-4.57572
21
5.70987
0
LINE
8
BLACK
6
CONTINUOUS
10
-4.57572
20
5.70987
11
-4.57642
21
5.70959
0
LINE
8
BLACK
6
CONTINUOUS
10
-4.57642
20
5.70959
11
-4.58709
21
5.70959
0
LINE
8
BLACK
6
CONTINUOUS
10
-4.58709
20
5.70959
11
-4.58709
21
5.54929
0
LINE
8
BLACK
6
CONTINUOUS
10
-4.58709
20
5.54929
11
-4.58737
21
5.5486
0
LINE
8
BLACK
6
CONTINUOUS
10
-4.58737
20
5.5486
11
-4.58807
21
5.54831
0
LINE
8
BLACK
6
CONTINUOUS
10
-4.58807
20
5.54831
11
-4.72193
21
5.54831
0
LINE
8
BLACK
6
CONTINUOUS
10
-4.72193
20
5.54831
11
-4.72263
21
5.5486
0
LINE
8
BLACK
6
CONTINUOUS
10
-4.72263
20
5.5486
11
-4.72291
21
5.54929
0
LINE
8
BLACK
6
CONTINUOUS
10
-4.72291
20
5.54929
11
-4.72291
21
5.71071
0
LINE
8
BLACK
6
CONTINUOUS
10
-4.72291
20
5.71071
11
-4.72263
21
5.7114
0
LINE
8
BLACK
6
CONTINUOUS
10
-4.72263
20
5.7114
11
-4.72193
21
5.71169
0
LINE
8
BLACK
6
CONTINUOUS
10
-4.72193
20
5.71169
11
-4.65457
21
5.71169
0
LINE
8
BLACK
6
CONTINUOUS
10
-4.65457
20
5.71169
11
-4.65457
21
5.84443
0
LINE
8
BLACK
6
CONTINUOUS
10
-4.65457
20
5.84443
11
-4.65428
21
5.84513
0
LINE
8
BLACK
6
CONTINUOUS
10
-4.65428
20
5.84513
11
-4.65358
21
5.84541
0
LINE
8
BLACK
6
CONTINUOUS
10
-4.65358
20
5.84541
11
-4.57642
21
5.84541
0
LINE
8
BLACK
6
CONTINUOUS
10
-4.72094
20
5.70972
11
-4.72094
21
5.55028
0
LINE
8
BLACK
6
CONTINUOUS
10
-4.72094
20
5.55028
11
-4.58906
21
5.55028
0
LINE
8
BLACK
6
CONTINUOUS
10
-4.58906
20
5.55028
11
-4.58906
21
5.70959
0
LINE
8
BLACK
6
CONTINUOUS
10
-4.58906
20
5.70959
11
-4.65358
21
5.70959
0
LINE
8
BLACK
6
CONTINUOUS
10
-4.65358
20
5.70959
11
-4.65392
21
5.70972
0
LINE
8
BLACK
6
CONTINUOUS
10
-4.65392
20
5.70972
11
-4.72094
21
5.70972
0
LINE
8
BLACK
6
CONTINUOUS
10
-4.6526
20
5.84344
11
-4.6526
21
5.71169
0
LINE
8
BLACK
6
CONTINUOUS
10
-4.6526
20
5.71169
11
-4.58807
21
5.71169
0
LINE
8
BLACK
6
CONTINUOUS
10
-4.58807
20
5.71169
11
-4.58774
21
5.71156
0
LINE
8
BLACK
6
CONTINUOUS
10
-4.58774
20
5.71156
11
-4.5774
21
5.71156
0
LINE
8
BLACK
6
CONTINUOUS
10
-4.5774
20
5.71156
11
-4.5774
21
5.84344
0
LINE
8
BLACK
6
CONTINUOUS
10
-4.5774
20
5.84344
11
-4.6526
21
5.84344
0
LINE
8
BLACK
6
CONTINUOUS
10
-4.26626
20
5.81925
11
-4.26556
21
5.81896
0
LINE
8
BLACK
6
CONTINUOUS
10
-4.26556
20
5.81896
11
-4.26528
21
5.81827
0
LINE
8
BLACK
6
CONTINUOUS
10
-4.26528
20
5.81827
11
-4.26528
21
5.70173
0
LINE
8
BLACK
6
CONTINUOUS
10
-4.26528
20
5.70173
11
-4.26556
21
5.70104
0
LINE
8
BLACK
6
CONTINUOUS
10
-4.26556
20
5.70104
11
-4.26626
21
5.70075
0
LINE
8
BLACK
6
CONTINUOUS
10
-4.26626
20
5.70075
11
-4.32374
21
5.70075
0
LINE
8
BLACK
6
CONTINUOUS
10
-4.32374
20
5.70075
11
-4.32444
21
5.70104
0
LINE
8
BLACK
6
CONTINUOUS
10
-4.32444
20
5.70104
11
-4.32472
21
5.70173
0
LINE
8
BLACK
6
CONTINUOUS
10
-4.32472
20
5.70173
11
-4.32472
21
5.81827
0
LINE
8
BLACK
6
CONTINUOUS
10
-4.32472
20
5.81827
11
-4.32444
21
5.81896
0
LINE
8
BLACK
6
CONTINUOUS
10
-4.32444
20
5.81896
11
-4.32374
21
5.81925
0
LINE
8
BLACK
6
CONTINUOUS
10
-4.32374
20
5.81925
11
-4.26626
21
5.81925
0
LINE
8
BLACK
6
CONTINUOUS
10
-4.32276
20
5.81728
11
-4.32276
21
5.70272
0
LINE
8
BLACK
6
CONTINUOUS
10
-4.32276
20
5.70272
11
-4.26724
21
5.70272
0
LINE
8
BLACK
6
CONTINUOUS
10
-4.26724
20
5.70272
11
-4.26724
21
5.81728
0
LINE
8
BLACK
6
CONTINUOUS
10
-4.26724
20
5.81728
11
-4.32276
21
5.81728
0
LINE
8
BLACK
6
CONTINUOUS
10
-4.51626
20
5.82325
11
-4.51556
21
5.82296
0
LINE
8
BLACK
6
CONTINUOUS
10
-4.51556
20
5.82296
11
-4.51528
21
5.82226
0
LINE
8
BLACK
6
CONTINUOUS
10
-4.51528
20
5.82226
11
-4.51528
21
5.70573
0
LINE
8
BLACK
6
CONTINUOUS
10
-4.51528
20
5.70573
11
-4.51556
21
5.70503
0
LINE
8
BLACK
6
CONTINUOUS
10
-4.51556
20
5.70503
11
-4.51626
21
5.70474
0
LINE
8
BLACK
6
CONTINUOUS
10
-4.51626
20
5.70474
11
-4.57374
21
5.70474
0
LINE
8
BLACK
6
CONTINUOUS
10
-4.57374
20
5.70474
11
-4.57444
21
5.70503
0
LINE
8
BLACK
6
CONTINUOUS
10
-4.57444
20
5.70503
11
-4.57472
21
5.70573
0
LINE
8
BLACK
6
CONTINUOUS
10
-4.57472
20
5.70573
11
-4.57472
21
5.82226
0
LINE
8
BLACK
6
CONTINUOUS
10
-4.57472
20
5.82226
11
-4.57444
21
5.82296
0
LINE
8
BLACK
6
CONTINUOUS
10
-4.57444
20
5.82296
11
-4.57374
21
5.82325
0
LINE
8
BLACK
6
CONTINUOUS
10
-4.57374
20
5.82325
11
-4.51626
21
5.82325
0
LINE
8
BLACK
6
CONTINUOUS
10
-4.57276
20
5.82128
11
-4.57276
21
5.70671
0
LINE
8
BLACK
6
CONTINUOUS
10
-4.57276
20
5.70671
11
-4.51724
21
5.70671
0
LINE
8
BLACK
6
CONTINUOUS
10
-4.51724
20
5.70671
11
-4.51724
21
5.82128
0
LINE
8
BLACK
6
CONTINUOUS
10
-4.51724
20
5.82128
11
-4.57276
21
5.82128
0
LINE
8
BLACK
6
CONTINUOUS
10
-4.67244
20
5.83764
11
-4.67174
21
5.83735
0
LINE
8
BLACK
6
CONTINUOUS
10
-4.67174
20
5.83735
11
-4.67146
21
5.83665
0
LINE
8
BLACK
6
CONTINUOUS
10
-4.67146
20
5.83665
11
-4.67146
21
5.73823
0
LINE
8
BLACK
6
CONTINUOUS
10
-4.67146
20
5.73823
11
-4.67174
21
5.73753
0
LINE
8
BLACK
6
CONTINUOUS
10
-4.67174
20
5.73753
11
-4.67244
21
5.73724
0
LINE
8
BLACK
6
CONTINUOUS
10
-4.67244
20
5.73724
11
-4.72756
21
5.73724
0
LINE
8
BLACK
6
CONTINUOUS
10
-4.72756
20
5.73724
11
-4.72826
21
5.73753
0
LINE
8
BLACK
6
CONTINUOUS
10
-4.72826
20
5.73753
11
-4.72854
21
5.73823
0
LINE
8
BLACK
6
CONTINUOUS
10
-4.72854
20
5.73823
11
-4.72854
21
5.83665
0
LINE
8
BLACK
6
CONTINUOUS
10
-4.72854
20
5.83665
11
-4.72826
21
5.83735
0
LINE
8
BLACK
6
CONTINUOUS
10
-4.72826
20
5.83735
11
-4.72756
21
5.83764
0
LINE
8
BLACK
6
CONTINUOUS
10
-4.72756
20
5.83764
11
-4.67244
21
5.83764
0
LINE
8
BLACK
6
CONTINUOUS
10
-4.72657
20
5.83567
11
-4.72657
21
5.73921
0
LINE
8
BLACK
6
CONTINUOUS
10
-4.72657
20
5.73921
11
-4.67343
21
5.73921
0
LINE
8
BLACK
6
CONTINUOUS
10
-4.67343
20
5.73921
11
-4.67343
21
5.83567
0
LINE
8
BLACK
6
CONTINUOUS
10
-4.67343
20
5.83567
11
-4.72657
21
5.83567
0
LINE
8
BLACK
6
CONTINUOUS
10
-4.36126
20
5.94325
11
-4.36056
21
5.94296
0
LINE
8
BLACK
6
CONTINUOUS
10
-4.36056
20
5.94296
11
-4.36028
21
5.94226
0
LINE
8
BLACK
6
CONTINUOUS
10
-4.36028
20
5.94226
11
-4.36028
21
5.82573
0
LINE
8
BLACK
6
CONTINUOUS
10
-4.36028
20
5.82573
11
-4.36056
21
5.82503
0
LINE
8
BLACK
6
CONTINUOUS
10
-4.36056
20
5.82503
11
-4.36126
21
5.82474
0
LINE
8
BLACK
6
CONTINUOUS
10
-4.36126
20
5.82474
11
-4.41874
21
5.82474
0
LINE
8
BLACK
6
CONTINUOUS
10
-4.41874
20
5.82474
11
-4.41944
21
5.82503
0
LINE
8
BLACK
6
CONTINUOUS
10
-4.41944
20
5.82503
11
-4.41972
21
5.82573
0
LINE
8
BLACK
6
CONTINUOUS
10
-4.41972
20
5.82573
11
-4.41972
21
5.94226
0
LINE
8
BLACK
6
CONTINUOUS
10
-4.41972
20
5.94226
11
-4.41944
21
5.94296
0
LINE
8
BLACK
6
CONTINUOUS
10
-4.41944
20
5.94296
11
-4.41874
21
5.94325
0
LINE
8
BLACK
6
CONTINUOUS
10
-4.41874
20
5.94325
11
-4.36126
21
5.94325
0
LINE
8
BLACK
6
CONTINUOUS
10
-4.41776
20
5.94128
11
-4.41776
21
5.82671
0
LINE
8
BLACK
6
CONTINUOUS
10
-4.41776
20
5.82671
11
-4.36224
21
5.82671
0
LINE
8
BLACK
6
CONTINUOUS
10
-4.36224
20
5.82671
11
-4.36224
21
5.94128
0
LINE
8
BLACK
6
CONTINUOUS
10
-4.36224
20
5.94128
11
-4.41776
21
5.94128
0
LINE
8
BLACK
6
CONTINUOUS
10
-4.28126
20
5.94325
11
-4.28056
21
5.94296
0
LINE
8
BLACK
6
CONTINUOUS
10
-4.28056
20
5.94296
11
-4.28028
21
5.94226
0
LINE
8
BLACK
6
CONTINUOUS
10
-4.28028
20
5.94226
11
-4.28028
21
5.82573
0
LINE
8
BLACK
6
CONTINUOUS
10
-4.28028
20
5.82573
11
-4.28056
21
5.82503
0
LINE
8
BLACK
6
CONTINUOUS
10
-4.28056
20
5.82503
11
-4.28126
21
5.82474
0
LINE
8
BLACK
6
CONTINUOUS
10
-4.28126
20
5.82474
11
-4.33874
21
5.82474
0
LINE
8
BLACK
6
CONTINUOUS
10
-4.33874
20
5.82474
11
-4.33944
21
5.82503
0
LINE
8
BLACK
6
CONTINUOUS
10
-4.33944
20
5.82503
11
-4.33972
21
5.82573
0
LINE
8
BLACK
6
CONTINUOUS
10
-4.33972
20
5.82573
11
-4.33972
21
5.94226
0
LINE
8
BLACK
6
CONTINUOUS
10
-4.33972
20
5.94226
11
-4.33944
21
5.94296
0
LINE
8
BLACK
6
CONTINUOUS
10
-4.33944
20
5.94296
11
-4.33874
21
5.94325
0
LINE
8
BLACK
6
CONTINUOUS
10
-4.33874
20
5.94325
11
-4.28126
21
5.94325
0
LINE
8
BLACK
6
CONTINUOUS
10
-4.33776
20
5.94128
11
-4.33776
21
5.82671
0
LINE
8
BLACK
6
CONTINUOUS
10
-4.33776
20
5.82671
11
-4.28224
21
5.82671
0
LINE
8
BLACK
6
CONTINUOUS
10
-4.28224
20
5.82671
11
-4.28224
21
5.94128
0
LINE
8
BLACK
6
CONTINUOUS
10
-4.28224
20
5.94128
11
-4.33776
21
5.94128
0
LINE
8
BLACK
6
CONTINUOUS
10
-4.43073
20
5.91972
11
-4.43003
21
5.91944
0
LINE
8
BLACK
6
CONTINUOUS
10
-4.43003
20
5.91944
11
-4.42974
21
5.91874
0
LINE
8
BLACK
6
CONTINUOUS
10
-4.42974
20
5.91874
11
-4.42974
21
5.86126
0
LINE
8
BLACK
6
CONTINUOUS
10
-4.42974
20
5.86126
11
-4.43003
21
5.86056
0
LINE
8
BLACK
6
CONTINUOUS
10
-4.43003
20
5.86056
11
-4.43073
21
5.86028
0
LINE
8
BLACK
6
CONTINUOUS
10
-4.43073
20
5.86028
11
-4.54726
21
5.86028
0
LINE
8
BLACK
6
CONTINUOUS
10
-4.54726
20
5.86028
11
-4.54796
21
5.86056
0
LINE
8
BLACK
6
CONTINUOUS
10
-4.54796
20
5.86056
11
-4.54825
21
5.86126
0
LINE
8
BLACK
6
CONTINUOUS
10
-4.54825
20
5.86126
11
-4.54825
21
5.91874
0
LINE
8
BLACK
6
CONTINUOUS
10
-4.54825
20
5.91874
11
-4.54796
21
5.91944
0
LINE
8
BLACK
6
CONTINUOUS
10
-4.54796
20
5.91944
11
-4.54726
21
5.91972
0
LINE
8
BLACK
6
CONTINUOUS
10
-4.54726
20
5.91972
11
-4.43073
21
5.91972
0
LINE
8
BLACK
6
CONTINUOUS
10
-4.54628
20
5.91776
11
-4.54628
21
5.86224
0
LINE
8
BLACK
6
CONTINUOUS
10
-4.54628
20
5.86224
11
-4.43171
21
5.86224
0
LINE
8
BLACK
6
CONTINUOUS
10
-4.43171
20
5.86224
11
-4.43171
21
5.91776
0
LINE
8
BLACK
6
CONTINUOUS
10
-4.43171
20
5.91776
11
-4.54628
21
5.91776
  0
ENDSEC
  0
EOF
