  0
SECTION
  2
HEADER
  9
$ANGBASE
  50
0.0
  9
$ANGDIR
  70
1
  9
$MEASUREMENT
  70
0
  0
ENDSEC
  0
SECTION
  2
TABLES
  0
TABLE
  2
LTYPE
  70
4
  0
LTYPE
  5
40F
  2
CONTINUOUS
  70
0
  3
Solid line
  72
65
  73
0
  40
0.0
  0
LTYPE
  5
410
  2
DASHDOT
 70
0
  3
Dash Dot ____ _ ____ _
 72
65
 73
4
 40
2.0
 49
1.25
 49
-0.25
 49
0.25
 49
-0.25
  0
LTYPE
  5
411
  2
DASHED
 70
0
  3
Dashed __ __ __ __ __
 72
65
 73
2
 40
0.75
 49
0.5
 49
-0.25
  0
LTYPE
  5
43B
  2
DOTTED
 70
0
  3
Dotted .  .  .  .
 72
65
 73
2
 40
0.2
 49
0.0
 49
-0.2
  0
ENDTAB
  0
TABLE
  2
STYLE
  70
4
  0
STYLE
  2
KICAD
  70
0
  40
0
  41
1
  42
1
  50
0
  71
0
  3
isocp.shx
  0
STYLE
  2
KICADB
  70
0
  40
0
  41
1
  42
1
  50
0
  71
0
  3
isocp.shx
  0
STYLE
  2
KICADI
  70
0
  40
0
  41
1
  42
1
  50
15
  71
0
  3
isocp.shx
  0
STYLE
  2
KICADBI
  70
0
  40
0
  41
1
  42
1
  50
15
  71
0
  3
isocp.shx
  0
ENDTAB
  0
TABLE
  2
LAYER
  70
1
  0
LAYER
  2
BLACK
  70
0
  62
7
  6
CONTINUOUS
  0
ENDTAB
  0
ENDSEC
  0
SECTION
  2
ENTITIES
0
LINE
8
BLACK
6
CONTINUOUS
10
-4.87708
20
5.44725
11
-4.86785
21
5.44408
0
LINE
8
BLACK
6
CONTINUOUS
10
-4.86785
20
5.44408
11
-4.85927
21
5.43944
0
LINE
8
BLACK
6
CONTINUOUS
10
-4.85927
20
5.43944
11
-4.85158
21
5.43345
0
LINE
8
BLACK
6
CONTINUOUS
10
-4.85158
20
5.43345
11
-4.84497
21
5.42627
0
LINE
8
BLACK
6
CONTINUOUS
10
-4.84497
20
5.42627
11
-4.83964
21
5.41811
0
LINE
8
BLACK
6
CONTINUOUS
10
-4.83964
20
5.41811
11
-4.83572
21
5.40918
0
LINE
8
BLACK
6
CONTINUOUS
10
-4.83572
20
5.40918
11
-4.83333
21
5.39972
0
LINE
8
BLACK
6
CONTINUOUS
10
-4.83333
20
5.39972
11
-4.83252
21
5.39
0
LINE
8
BLACK
6
CONTINUOUS
10
-4.83252
20
5.39
11
-4.83333
21
5.38028
0
LINE
8
BLACK
6
CONTINUOUS
10
-4.83333
20
5.38028
11
-4.83572
21
5.37082
0
LINE
8
BLACK
6
CONTINUOUS
10
-4.83572
20
5.37082
11
-4.83964
21
5.36189
0
LINE
8
BLACK
6
CONTINUOUS
10
-4.83964
20
5.36189
11
-4.84497
21
5.35373
0
LINE
8
BLACK
6
CONTINUOUS
10
-4.84497
20
5.35373
11
-4.85158
21
5.34655
0
LINE
8
BLACK
6
CONTINUOUS
10
-4.85158
20
5.34655
11
-4.85927
21
5.34056
0
LINE
8
BLACK
6
CONTINUOUS
10
-4.85927
20
5.34056
11
-4.86785
21
5.33592
0
LINE
8
BLACK
6
CONTINUOUS
10
-4.86785
20
5.33592
11
-4.87708
21
5.33275
0
LINE
8
BLACK
6
CONTINUOUS
10
-4.87708
20
5.33275
11
-4.8867
21
5.33115
0
LINE
8
BLACK
6
CONTINUOUS
10
-4.8867
20
5.33115
11
-4.89645
21
5.33115
0
LINE
8
BLACK
6
CONTINUOUS
10
-4.89645
20
5.33115
11
-4.90607
21
5.33275
0
LINE
8
BLACK
6
CONTINUOUS
10
-4.90607
20
5.33275
11
-4.9153
21
5.33592
0
LINE
8
BLACK
6
CONTINUOUS
10
-4.9153
20
5.33592
11
-4.92387
21
5.34056
0
LINE
8
BLACK
6
CONTINUOUS
10
-4.92387
20
5.34056
11
-4.93157
21
5.34655
0
LINE
8
BLACK
6
CONTINUOUS
10
-4.93157
20
5.34655
11
-4.93818
21
5.35373
0
LINE
8
BLACK
6
CONTINUOUS
10
-4.93818
20
5.35373
11
-4.94351
21
5.36189
0
LINE
8
BLACK
6
CONTINUOUS
10
-4.94351
20
5.36189
11
-4.94743
21
5.37082
0
LINE
8
BLACK
6
CONTINUOUS
10
-4.94743
20
5.37082
11
-4.94982
21
5.38028
0
LINE
8
BLACK
6
CONTINUOUS
10
-4.94982
20
5.38028
11
-4.95063
21
5.39
0
LINE
8
BLACK
6
CONTINUOUS
10
-4.95063
20
5.39
11
-4.94982
21
5.39972
0
LINE
8
BLACK
6
CONTINUOUS
10
-4.94982
20
5.39972
11
-4.94743
21
5.40918
0
LINE
8
BLACK
6
CONTINUOUS
10
-4.94743
20
5.40918
11
-4.94351
21
5.41811
0
LINE
8
BLACK
6
CONTINUOUS
10
-4.94351
20
5.41811
11
-4.93818
21
5.42627
0
LINE
8
BLACK
6
CONTINUOUS
10
-4.93818
20
5.42627
11
-4.93157
21
5.43345
0
LINE
8
BLACK
6
CONTINUOUS
10
-4.93157
20
5.43345
11
-4.92387
21
5.43944
0
LINE
8
BLACK
6
CONTINUOUS
10
-4.92387
20
5.43944
11
-4.9153
21
5.44408
0
LINE
8
BLACK
6
CONTINUOUS
10
-4.9153
20
5.44408
11
-4.90607
21
5.44725
0
LINE
8
BLACK
6
CONTINUOUS
10
-4.90607
20
5.44725
11
-4.89645
21
5.44885
0
LINE
8
BLACK
6
CONTINUOUS
10
-4.89645
20
5.44885
11
-4.8867
21
5.44885
0
LINE
8
BLACK
6
CONTINUOUS
10
-4.8867
20
5.44885
11
-4.87708
21
5.44725
0
LINE
8
BLACK
6
CONTINUOUS
10
-4.48338
20
5.44725
11
-4.47415
21
5.44408
0
LINE
8
BLACK
6
CONTINUOUS
10
-4.47415
20
5.44408
11
-4.46557
21
5.43944
0
LINE
8
BLACK
6
CONTINUOUS
10
-4.46557
20
5.43944
11
-4.45788
21
5.43345
0
LINE
8
BLACK
6
CONTINUOUS
10
-4.45788
20
5.43345
11
-4.45127
21
5.42627
0
LINE
8
BLACK
6
CONTINUOUS
10
-4.45127
20
5.42627
11
-4.44594
21
5.41811
0
LINE
8
BLACK
6
CONTINUOUS
10
-4.44594
20
5.41811
11
-4.44202
21
5.40918
0
LINE
8
BLACK
6
CONTINUOUS
10
-4.44202
20
5.40918
11
-4.43962
21
5.39972
0
LINE
8
BLACK
6
CONTINUOUS
10
-4.43962
20
5.39972
11
-4.43882
21
5.39
0
LINE
8
BLACK
6
CONTINUOUS
10
-4.43882
20
5.39
11
-4.43962
21
5.38028
0
LINE
8
BLACK
6
CONTINUOUS
10
-4.43962
20
5.38028
11
-4.44202
21
5.37082
0
LINE
8
BLACK
6
CONTINUOUS
10
-4.44202
20
5.37082
11
-4.44594
21
5.36189
0
LINE
8
BLACK
6
CONTINUOUS
10
-4.44594
20
5.36189
11
-4.45127
21
5.35373
0
LINE
8
BLACK
6
CONTINUOUS
10
-4.45127
20
5.35373
11
-4.45788
21
5.34655
0
LINE
8
BLACK
6
CONTINUOUS
10
-4.45788
20
5.34655
11
-4.46557
21
5.34056
0
LINE
8
BLACK
6
CONTINUOUS
10
-4.46557
20
5.34056
11
-4.47415
21
5.33592
0
LINE
8
BLACK
6
CONTINUOUS
10
-4.47415
20
5.33592
11
-4.48338
21
5.33275
0
LINE
8
BLACK
6
CONTINUOUS
10
-4.48338
20
5.33275
11
-4.493
21
5.33115
0
LINE
8
BLACK
6
CONTINUOUS
10
-4.493
20
5.33115
11
-4.50275
21
5.33115
0
LINE
8
BLACK
6
CONTINUOUS
10
-4.50275
20
5.33115
11
-4.51237
21
5.33275
0
LINE
8
BLACK
6
CONTINUOUS
10
-4.51237
20
5.33275
11
-4.5216
21
5.33592
0
LINE
8
BLACK
6
CONTINUOUS
10
-4.5216
20
5.33592
11
-4.53017
21
5.34056
0
LINE
8
BLACK
6
CONTINUOUS
10
-4.53017
20
5.34056
11
-4.53787
21
5.34655
0
LINE
8
BLACK
6
CONTINUOUS
10
-4.53787
20
5.34655
11
-4.54448
21
5.35373
0
LINE
8
BLACK
6
CONTINUOUS
10
-4.54448
20
5.35373
11
-4.54981
21
5.36189
0
LINE
8
BLACK
6
CONTINUOUS
10
-4.54981
20
5.36189
11
-4.55373
21
5.37082
0
LINE
8
BLACK
6
CONTINUOUS
10
-4.55373
20
5.37082
11
-4.55612
21
5.38028
0
LINE
8
BLACK
6
CONTINUOUS
10
-4.55612
20
5.38028
11
-4.55693
21
5.39
0
LINE
8
BLACK
6
CONTINUOUS
10
-4.55693
20
5.39
11
-4.55612
21
5.39972
0
LINE
8
BLACK
6
CONTINUOUS
10
-4.55612
20
5.39972
11
-4.55373
21
5.40918
0
LINE
8
BLACK
6
CONTINUOUS
10
-4.55373
20
5.40918
11
-4.54981
21
5.41811
0
LINE
8
BLACK
6
CONTINUOUS
10
-4.54981
20
5.41811
11
-4.54448
21
5.42627
0
LINE
8
BLACK
6
CONTINUOUS
10
-4.54448
20
5.42627
11
-4.53787
21
5.43345
0
LINE
8
BLACK
6
CONTINUOUS
10
-4.53787
20
5.43345
11
-4.53017
21
5.43944
0
LINE
8
BLACK
6
CONTINUOUS
10
-4.53017
20
5.43944
11
-4.5216
21
5.44408
0
LINE
8
BLACK
6
CONTINUOUS
10
-4.5216
20
5.44408
11
-4.51237
21
5.44725
0
LINE
8
BLACK
6
CONTINUOUS
10
-4.51237
20
5.44725
11
-4.50275
21
5.44885
0
LINE
8
BLACK
6
CONTINUOUS
10
-4.50275
20
5.44885
11
-4.493
21
5.44885
0
LINE
8
BLACK
6
CONTINUOUS
10
-4.493
20
5.44885
11
-4.48338
21
5.44725
0
LINE
8
BLACK
6
CONTINUOUS
10
-4.08968
20
5.44725
11
-4.08045
21
5.44408
0
LINE
8
BLACK
6
CONTINUOUS
10
-4.08045
20
5.44408
11
-4.07187
21
5.43944
0
LINE
8
BLACK
6
CONTINUOUS
10
-4.07187
20
5.43944
11
-4.06418
21
5.43345
0
LINE
8
BLACK
6
CONTINUOUS
10
-4.06418
20
5.43345
11
-4.05757
21
5.42627
0
LINE
8
BLACK
6
CONTINUOUS
10
-4.05757
20
5.42627
11
-4.05224
21
5.41811
0
LINE
8
BLACK
6
CONTINUOUS
10
-4.05224
20
5.41811
11
-4.04832
21
5.40918
0
LINE
8
BLACK
6
CONTINUOUS
10
-4.04832
20
5.40918
11
-4.04592
21
5.39972
0
LINE
8
BLACK
6
CONTINUOUS
10
-4.04592
20
5.39972
11
-4.04512
21
5.39
0
LINE
8
BLACK
6
CONTINUOUS
10
-4.04512
20
5.39
11
-4.04592
21
5.38028
0
LINE
8
BLACK
6
CONTINUOUS
10
-4.04592
20
5.38028
11
-4.04832
21
5.37082
0
LINE
8
BLACK
6
CONTINUOUS
10
-4.04832
20
5.37082
11
-4.05224
21
5.36189
0
LINE
8
BLACK
6
CONTINUOUS
10
-4.05224
20
5.36189
11
-4.05757
21
5.35373
0
LINE
8
BLACK
6
CONTINUOUS
10
-4.05757
20
5.35373
11
-4.06418
21
5.34655
0
LINE
8
BLACK
6
CONTINUOUS
10
-4.06418
20
5.34655
11
-4.07187
21
5.34056
0
LINE
8
BLACK
6
CONTINUOUS
10
-4.07187
20
5.34056
11
-4.08045
21
5.33592
0
LINE
8
BLACK
6
CONTINUOUS
10
-4.08045
20
5.33592
11
-4.08968
21
5.33275
0
LINE
8
BLACK
6
CONTINUOUS
10
-4.08968
20
5.33275
11
-4.0993
21
5.33115
0
LINE
8
BLACK
6
CONTINUOUS
10
-4.0993
20
5.33115
11
-4.10905
21
5.33115
0
LINE
8
BLACK
6
CONTINUOUS
10
-4.10905
20
5.33115
11
-4.11867
21
5.33275
0
LINE
8
BLACK
6
CONTINUOUS
10
-4.11867
20
5.33275
11
-4.1279
21
5.33592
0
LINE
8
BLACK
6
CONTINUOUS
10
-4.1279
20
5.33592
11
-4.13647
21
5.34056
0
LINE
8
BLACK
6
CONTINUOUS
10
-4.13647
20
5.34056
11
-4.14417
21
5.34655
0
LINE
8
BLACK
6
CONTINUOUS
10
-4.14417
20
5.34655
11
-4.15078
21
5.35373
0
LINE
8
BLACK
6
CONTINUOUS
10
-4.15078
20
5.35373
11
-4.15611
21
5.36189
0
LINE
8
BLACK
6
CONTINUOUS
10
-4.15611
20
5.36189
11
-4.16003
21
5.37082
0
LINE
8
BLACK
6
CONTINUOUS
10
-4.16003
20
5.37082
11
-4.16242
21
5.38028
0
LINE
8
BLACK
6
CONTINUOUS
10
-4.16242
20
5.38028
11
-4.16323
21
5.39
0
LINE
8
BLACK
6
CONTINUOUS
10
-4.16323
20
5.39
11
-4.16242
21
5.39972
0
LINE
8
BLACK
6
CONTINUOUS
10
-4.16242
20
5.39972
11
-4.16003
21
5.40918
0
LINE
8
BLACK
6
CONTINUOUS
10
-4.16003
20
5.40918
11
-4.15611
21
5.41811
0
LINE
8
BLACK
6
CONTINUOUS
10
-4.15611
20
5.41811
11
-4.15078
21
5.42627
0
LINE
8
BLACK
6
CONTINUOUS
10
-4.15078
20
5.42627
11
-4.14417
21
5.43345
0
LINE
8
BLACK
6
CONTINUOUS
10
-4.14417
20
5.43345
11
-4.13647
21
5.43944
0
LINE
8
BLACK
6
CONTINUOUS
10
-4.13647
20
5.43944
11
-4.1279
21
5.44408
0
LINE
8
BLACK
6
CONTINUOUS
10
-4.1279
20
5.44408
11
-4.11867
21
5.44725
0
LINE
8
BLACK
6
CONTINUOUS
10
-4.11867
20
5.44725
11
-4.10905
21
5.44885
0
LINE
8
BLACK
6
CONTINUOUS
10
-4.10905
20
5.44885
11
-4.0993
21
5.44885
0
LINE
8
BLACK
6
CONTINUOUS
10
-4.0993
20
5.44885
11
-4.08968
21
5.44725
0
LINE
8
BLACK
6
CONTINUOUS
10
-4.88631
20
5.56587
11
-4.88133
21
5.56413
0
LINE
8
BLACK
6
CONTINUOUS
10
-4.88133
20
5.56413
11
-4.87708
21
5.56099
0
LINE
8
BLACK
6
CONTINUOUS
10
-4.87708
20
5.56099
11
-4.87394
21
5.55674
0
LINE
8
BLACK
6
CONTINUOUS
10
-4.87394
20
5.55674
11
-4.8722
21
5.55176
0
LINE
8
BLACK
6
CONTINUOUS
10
-4.8722
20
5.55176
11
-4.87189
21
5.54846
0
LINE
8
BLACK
6
CONTINUOUS
10
-4.87189
20
5.54846
11
-4.87189
21
5.52878
0
LINE
8
BLACK
6
CONTINUOUS
10
-4.87189
20
5.52878
11
-4.8722
21
5.52549
0
LINE
8
BLACK
6
CONTINUOUS
10
-4.8722
20
5.52549
11
-4.87394
21
5.5205
0
LINE
8
BLACK
6
CONTINUOUS
10
-4.87394
20
5.5205
11
-4.87708
21
5.51625
0
LINE
8
BLACK
6
CONTINUOUS
10
-4.87708
20
5.51625
11
-4.88133
21
5.51312
0
LINE
8
BLACK
6
CONTINUOUS
10
-4.88133
20
5.51312
11
-4.88631
21
5.51137
0
LINE
8
BLACK
6
CONTINUOUS
10
-4.88631
20
5.51137
11
-4.88961
21
5.51106
0
LINE
8
BLACK
6
CONTINUOUS
10
-4.88961
20
5.51106
11
-4.97622
21
5.51106
0
LINE
8
BLACK
6
CONTINUOUS
10
-4.97622
20
5.51106
11
-4.97951
21
5.51137
0
LINE
8
BLACK
6
CONTINUOUS
10
-4.97951
20
5.51137
11
-4.9845
21
5.51312
0
LINE
8
BLACK
6
CONTINUOUS
10
-4.9845
20
5.51312
11
-4.98875
21
5.51625
0
LINE
8
BLACK
6
CONTINUOUS
10
-4.98875
20
5.51625
11
-4.99188
21
5.5205
0
LINE
8
BLACK
6
CONTINUOUS
10
-4.99188
20
5.5205
11
-4.99363
21
5.52549
0
LINE
8
BLACK
6
CONTINUOUS
10
-4.99363
20
5.52549
11
-4.99394
21
5.52878
0
LINE
8
BLACK
6
CONTINUOUS
10
-4.99394
20
5.52878
11
-4.99394
21
5.54846
0
LINE
8
BLACK
6
CONTINUOUS
10
-4.99394
20
5.54846
11
-4.99363
21
5.55176
0
LINE
8
BLACK
6
CONTINUOUS
10
-4.99363
20
5.55176
11
-4.99188
21
5.55674
0
LINE
8
BLACK
6
CONTINUOUS
10
-4.99188
20
5.55674
11
-4.98875
21
5.56099
0
LINE
8
BLACK
6
CONTINUOUS
10
-4.98875
20
5.56099
11
-4.9845
21
5.56413
0
LINE
8
BLACK
6
CONTINUOUS
10
-4.9845
20
5.56413
11
-4.97951
21
5.56587
0
LINE
8
BLACK
6
CONTINUOUS
10
-4.97951
20
5.56587
11
-4.97622
21
5.56618
0
LINE
8
BLACK
6
CONTINUOUS
10
-4.97622
20
5.56618
11
-4.88961
21
5.56618
0
LINE
8
BLACK
6
CONTINUOUS
10
-4.88961
20
5.56618
11
-4.88631
21
5.56587
0
LINE
8
BLACK
6
CONTINUOUS
10
-4.01623
20
5.56587
11
-4.01125
21
5.56413
0
LINE
8
BLACK
6
CONTINUOUS
10
-4.01125
20
5.56413
11
-4.007
21
5.56099
0
LINE
8
BLACK
6
CONTINUOUS
10
-4.007
20
5.56099
11
-4.00386
21
5.55674
0
LINE
8
BLACK
6
CONTINUOUS
10
-4.00386
20
5.55674
11
-4.00212
21
5.55176
0
LINE
8
BLACK
6
CONTINUOUS
10
-4.00212
20
5.55176
11
-4.00181
21
5.54846
0
LINE
8
BLACK
6
CONTINUOUS
10
-4.00181
20
5.54846
11
-4.00181
21
5.52878
0
LINE
8
BLACK
6
CONTINUOUS
10
-4.00181
20
5.52878
11
-4.00212
21
5.52549
0
LINE
8
BLACK
6
CONTINUOUS
10
-4.00212
20
5.52549
11
-4.00386
21
5.5205
0
LINE
8
BLACK
6
CONTINUOUS
10
-4.00386
20
5.5205
11
-4.007
21
5.51625
0
LINE
8
BLACK
6
CONTINUOUS
10
-4.007
20
5.51625
11
-4.01125
21
5.51312
0
LINE
8
BLACK
6
CONTINUOUS
10
-4.01125
20
5.51312
11
-4.01623
21
5.51137
0
LINE
8
BLACK
6
CONTINUOUS
10
-4.01623
20
5.51137
11
-4.01953
21
5.51106
0
LINE
8
BLACK
6
CONTINUOUS
10
-4.01953
20
5.51106
11
-4.10614
21
5.51106
0
LINE
8
BLACK
6
CONTINUOUS
10
-4.10614
20
5.51106
11
-4.10944
21
5.51137
0
LINE
8
BLACK
6
CONTINUOUS
10
-4.10944
20
5.51137
11
-4.11442
21
5.51312
0
LINE
8
BLACK
6
CONTINUOUS
10
-4.11442
20
5.51312
11
-4.11867
21
5.51625
0
LINE
8
BLACK
6
CONTINUOUS
10
-4.11867
20
5.51625
11
-4.12181
21
5.5205
0
LINE
8
BLACK
6
CONTINUOUS
10
-4.12181
20
5.5205
11
-4.12355
21
5.52549
0
LINE
8
BLACK
6
CONTINUOUS
10
-4.12355
20
5.52549
11
-4.12386
21
5.52878
0
LINE
8
BLACK
6
CONTINUOUS
10
-4.12386
20
5.52878
11
-4.12386
21
5.54846
0
LINE
8
BLACK
6
CONTINUOUS
10
-4.12386
20
5.54846
11
-4.12355
21
5.55176
0
LINE
8
BLACK
6
CONTINUOUS
10
-4.12355
20
5.55176
11
-4.12181
21
5.55674
0
LINE
8
BLACK
6
CONTINUOUS
10
-4.12181
20
5.55674
11
-4.11867
21
5.56099
0
LINE
8
BLACK
6
CONTINUOUS
10
-4.11867
20
5.56099
11
-4.11442
21
5.56413
0
LINE
8
BLACK
6
CONTINUOUS
10
-4.11442
20
5.56413
11
-4.10944
21
5.56587
0
LINE
8
BLACK
6
CONTINUOUS
10
-4.10944
20
5.56587
11
-4.10614
21
5.56618
0
LINE
8
BLACK
6
CONTINUOUS
10
-4.10614
20
5.56618
11
-4.01953
21
5.56618
0
LINE
8
BLACK
6
CONTINUOUS
10
-4.01953
20
5.56618
11
-4.01623
21
5.56587
0
LINE
8
BLACK
6
CONTINUOUS
10
-4.77544
20
5.63057
11
-4.77136
21
5.62858
0
LINE
8
BLACK
6
CONTINUOUS
10
-4.77136
20
5.62858
11
-4.76816
21
5.62537
0
LINE
8
BLACK
6
CONTINUOUS
10
-4.76816
20
5.62537
11
-4.76616
21
5.62129
0
LINE
8
BLACK
6
CONTINUOUS
10
-4.76616
20
5.62129
11
-4.76559
21
5.61736
0
LINE
8
BLACK
6
CONTINUOUS
10
-4.76559
20
5.61736
11
-4.76559
21
5.60555
0
LINE
8
BLACK
6
CONTINUOUS
10
-4.76559
20
5.60555
11
-4.76616
21
5.60162
0
LINE
8
BLACK
6
CONTINUOUS
10
-4.76616
20
5.60162
11
-4.76816
21
5.59754
0
LINE
8
BLACK
6
CONTINUOUS
10
-4.76816
20
5.59754
11
-4.77136
21
5.59434
0
LINE
8
BLACK
6
CONTINUOUS
10
-4.77136
20
5.59434
11
-4.77544
21
5.59234
0
LINE
8
BLACK
6
CONTINUOUS
10
-4.77544
20
5.59234
11
-4.77937
21
5.59177
0
LINE
8
BLACK
6
CONTINUOUS
10
-4.77937
20
5.59177
11
-4.83449
21
5.59177
0
LINE
8
BLACK
6
CONTINUOUS
10
-4.83449
20
5.59177
11
-4.83842
21
5.59234
0
LINE
8
BLACK
6
CONTINUOUS
10
-4.83842
20
5.59234
11
-4.8425
21
5.59434
0
LINE
8
BLACK
6
CONTINUOUS
10
-4.8425
20
5.59434
11
-4.8457
21
5.59754
0
LINE
8
BLACK
6
CONTINUOUS
10
-4.8457
20
5.59754
11
-4.84769
21
5.60162
0
LINE
8
BLACK
6
CONTINUOUS
10
-4.84769
20
5.60162
11
-4.84827
21
5.60555
0
LINE
8
BLACK
6
CONTINUOUS
10
-4.84827
20
5.60555
11
-4.84827
21
5.61736
0
LINE
8
BLACK
6
CONTINUOUS
10
-4.84827
20
5.61736
11
-4.84769
21
5.62129
0
LINE
8
BLACK
6
CONTINUOUS
10
-4.84769
20
5.62129
11
-4.8457
21
5.62537
0
LINE
8
BLACK
6
CONTINUOUS
10
-4.8457
20
5.62537
11
-4.8425
21
5.62858
0
LINE
8
BLACK
6
CONTINUOUS
10
-4.8425
20
5.62858
11
-4.83842
21
5.63057
0
LINE
8
BLACK
6
CONTINUOUS
10
-4.83842
20
5.63057
11
-4.83449
21
5.63114
0
LINE
8
BLACK
6
CONTINUOUS
10
-4.83449
20
5.63114
11
-4.77937
21
5.63114
0
LINE
8
BLACK
6
CONTINUOUS
10
-4.77937
20
5.63114
11
-4.77544
21
5.63057
0
LINE
8
BLACK
6
CONTINUOUS
10
-4.15733
20
5.63057
11
-4.15325
21
5.62858
0
LINE
8
BLACK
6
CONTINUOUS
10
-4.15325
20
5.62858
11
-4.15005
21
5.62537
0
LINE
8
BLACK
6
CONTINUOUS
10
-4.15005
20
5.62537
11
-4.14805
21
5.62129
0
LINE
8
BLACK
6
CONTINUOUS
10
-4.14805
20
5.62129
11
-4.14748
21
5.61736
0
LINE
8
BLACK
6
CONTINUOUS
10
-4.14748
20
5.61736
11
-4.14748
21
5.60555
0
LINE
8
BLACK
6
CONTINUOUS
10
-4.14748
20
5.60555
11
-4.14805
21
5.60162
0
LINE
8
BLACK
6
CONTINUOUS
10
-4.14805
20
5.60162
11
-4.15005
21
5.59754
0
LINE
8
BLACK
6
CONTINUOUS
10
-4.15005
20
5.59754
11
-4.15325
21
5.59434
0
LINE
8
BLACK
6
CONTINUOUS
10
-4.15325
20
5.59434
11
-4.15733
21
5.59234
0
LINE
8
BLACK
6
CONTINUOUS
10
-4.15733
20
5.59234
11
-4.16126
21
5.59177
0
LINE
8
BLACK
6
CONTINUOUS
10
-4.16126
20
5.59177
11
-4.21638
21
5.59177
0
LINE
8
BLACK
6
CONTINUOUS
10
-4.21638
20
5.59177
11
-4.22031
21
5.59234
0
LINE
8
BLACK
6
CONTINUOUS
10
-4.22031
20
5.59234
11
-4.22438
21
5.59434
0
LINE
8
BLACK
6
CONTINUOUS
10
-4.22438
20
5.59434
11
-4.22759
21
5.59754
0
LINE
8
BLACK
6
CONTINUOUS
10
-4.22759
20
5.59754
11
-4.22958
21
5.60162
0
LINE
8
BLACK
6
CONTINUOUS
10
-4.22958
20
5.60162
11
-4.23016
21
5.60555
0
LINE
8
BLACK
6
CONTINUOUS
10
-4.23016
20
5.60555
11
-4.23016
21
5.61736
0
LINE
8
BLACK
6
CONTINUOUS
10
-4.23016
20
5.61736
11
-4.22958
21
5.62129
0
LINE
8
BLACK
6
CONTINUOUS
10
-4.22958
20
5.62129
11
-4.22759
21
5.62537
0
LINE
8
BLACK
6
CONTINUOUS
10
-4.22759
20
5.62537
11
-4.22438
21
5.62858
0
LINE
8
BLACK
6
CONTINUOUS
10
-4.22438
20
5.62858
11
-4.22031
21
5.63057
0
LINE
8
BLACK
6
CONTINUOUS
10
-4.22031
20
5.63057
11
-4.21638
21
5.63114
0
LINE
8
BLACK
6
CONTINUOUS
10
-4.21638
20
5.63114
11
-4.16126
21
5.63114
0
LINE
8
BLACK
6
CONTINUOUS
10
-4.16126
20
5.63114
11
-4.15733
21
5.63057
0
LINE
8
BLACK
6
CONTINUOUS
10
-4.77544
20
5.67978
11
-4.77136
21
5.67779
0
LINE
8
BLACK
6
CONTINUOUS
10
-4.77136
20
5.67779
11
-4.76816
21
5.67458
0
LINE
8
BLACK
6
CONTINUOUS
10
-4.76816
20
5.67458
11
-4.76616
21
5.67051
0
LINE
8
BLACK
6
CONTINUOUS
10
-4.76616
20
5.67051
11
-4.76559
21
5.66657
0
LINE
8
BLACK
6
CONTINUOUS
10
-4.76559
20
5.66657
11
-4.76559
21
5.65476
0
LINE
8
BLACK
6
CONTINUOUS
10
-4.76559
20
5.65476
11
-4.76616
21
5.65083
0
LINE
8
BLACK
6
CONTINUOUS
10
-4.76616
20
5.65083
11
-4.76816
21
5.64676
0
LINE
8
BLACK
6
CONTINUOUS
10
-4.76816
20
5.64676
11
-4.77136
21
5.64355
0
LINE
8
BLACK
6
CONTINUOUS
10
-4.77136
20
5.64355
11
-4.77544
21
5.64156
0
LINE
8
BLACK
6
CONTINUOUS
10
-4.77544
20
5.64156
11
-4.77937
21
5.64098
0
LINE
8
BLACK
6
CONTINUOUS
10
-4.77937
20
5.64098
11
-4.83449
21
5.64098
0
LINE
8
BLACK
6
CONTINUOUS
10
-4.83449
20
5.64098
11
-4.83842
21
5.64156
0
LINE
8
BLACK
6
CONTINUOUS
10
-4.83842
20
5.64156
11
-4.8425
21
5.64355
0
LINE
8
BLACK
6
CONTINUOUS
10
-4.8425
20
5.64355
11
-4.8457
21
5.64676
0
LINE
8
BLACK
6
CONTINUOUS
10
-4.8457
20
5.64676
11
-4.84769
21
5.65083
0
LINE
8
BLACK
6
CONTINUOUS
10
-4.84769
20
5.65083
11
-4.84827
21
5.65476
0
LINE
8
BLACK
6
CONTINUOUS
10
-4.84827
20
5.65476
11
-4.84827
21
5.66657
0
LINE
8
BLACK
6
CONTINUOUS
10
-4.84827
20
5.66657
11
-4.84769
21
5.67051
0
LINE
8
BLACK
6
CONTINUOUS
10
-4.84769
20
5.67051
11
-4.8457
21
5.67458
0
LINE
8
BLACK
6
CONTINUOUS
10
-4.8457
20
5.67458
11
-4.8425
21
5.67779
0
LINE
8
BLACK
6
CONTINUOUS
10
-4.8425
20
5.67779
11
-4.83842
21
5.67978
0
LINE
8
BLACK
6
CONTINUOUS
10
-4.83842
20
5.67978
11
-4.83449
21
5.68035
0
LINE
8
BLACK
6
CONTINUOUS
10
-4.83449
20
5.68035
11
-4.77937
21
5.68035
0
LINE
8
BLACK
6
CONTINUOUS
10
-4.77937
20
5.68035
11
-4.77544
21
5.67978
0
LINE
8
BLACK
6
CONTINUOUS
10
-4.15733
20
5.67978
11
-4.15325
21
5.67779
0
LINE
8
BLACK
6
CONTINUOUS
10
-4.15325
20
5.67779
11
-4.15005
21
5.67458
0
LINE
8
BLACK
6
CONTINUOUS
10
-4.15005
20
5.67458
11
-4.14805
21
5.67051
0
LINE
8
BLACK
6
CONTINUOUS
10
-4.14805
20
5.67051
11
-4.14748
21
5.66657
0
LINE
8
BLACK
6
CONTINUOUS
10
-4.14748
20
5.66657
11
-4.14748
21
5.65476
0
LINE
8
BLACK
6
CONTINUOUS
10
-4.14748
20
5.65476
11
-4.14805
21
5.65083
0
LINE
8
BLACK
6
CONTINUOUS
10
-4.14805
20
5.65083
11
-4.15005
21
5.64676
0
LINE
8
BLACK
6
CONTINUOUS
10
-4.15005
20
5.64676
11
-4.15325
21
5.64355
0
LINE
8
BLACK
6
CONTINUOUS
10
-4.15325
20
5.64355
11
-4.15733
21
5.64156
0
LINE
8
BLACK
6
CONTINUOUS
10
-4.15733
20
5.64156
11
-4.16126
21
5.64098
0
LINE
8
BLACK
6
CONTINUOUS
10
-4.16126
20
5.64098
11
-4.21638
21
5.64098
0
LINE
8
BLACK
6
CONTINUOUS
10
-4.21638
20
5.64098
11
-4.22031
21
5.64156
0
LINE
8
BLACK
6
CONTINUOUS
10
-4.22031
20
5.64156
11
-4.22438
21
5.64355
0
LINE
8
BLACK
6
CONTINUOUS
10
-4.22438
20
5.64355
11
-4.22759
21
5.64676
0
LINE
8
BLACK
6
CONTINUOUS
10
-4.22759
20
5.64676
11
-4.22958
21
5.65083
0
LINE
8
BLACK
6
CONTINUOUS
10
-4.22958
20
5.65083
11
-4.23016
21
5.65476
0
LINE
8
BLACK
6
CONTINUOUS
10
-4.23016
20
5.65476
11
-4.23016
21
5.66657
0
LINE
8
BLACK
6
CONTINUOUS
10
-4.23016
20
5.66657
11
-4.22958
21
5.67051
0
LINE
8
BLACK
6
CONTINUOUS
10
-4.22958
20
5.67051
11
-4.22759
21
5.67458
0
LINE
8
BLACK
6
CONTINUOUS
10
-4.22759
20
5.67458
11
-4.22438
21
5.67779
0
LINE
8
BLACK
6
CONTINUOUS
10
-4.22438
20
5.67779
11
-4.22031
21
5.67978
0
LINE
8
BLACK
6
CONTINUOUS
10
-4.22031
20
5.67978
11
-4.21638
21
5.68035
0
LINE
8
BLACK
6
CONTINUOUS
10
-4.21638
20
5.68035
11
-4.16126
21
5.68035
0
LINE
8
BLACK
6
CONTINUOUS
10
-4.16126
20
5.68035
11
-4.15733
21
5.67978
0
LINE
8
BLACK
6
CONTINUOUS
10
-4.77544
20
5.72899
11
-4.77136
21
5.727
0
LINE
8
BLACK
6
CONTINUOUS
10
-4.77136
20
5.727
11
-4.76816
21
5.72379
0
LINE
8
BLACK
6
CONTINUOUS
10
-4.76816
20
5.72379
11
-4.76616
21
5.71972
0
LINE
8
BLACK
6
CONTINUOUS
10
-4.76616
20
5.71972
11
-4.76559
21
5.71579
0
LINE
8
BLACK
6
CONTINUOUS
10
-4.76559
20
5.71579
11
-4.76559
21
5.70398
0
LINE
8
BLACK
6
CONTINUOUS
10
-4.76559
20
5.70398
11
-4.76616
21
5.70004
0
LINE
8
BLACK
6
CONTINUOUS
10
-4.76616
20
5.70004
11
-4.76816
21
5.69597
0
LINE
8
BLACK
6
CONTINUOUS
10
-4.76816
20
5.69597
11
-4.77136
21
5.69276
0
LINE
8
BLACK
6
CONTINUOUS
10
-4.77136
20
5.69276
11
-4.77544
21
5.69077
0
LINE
8
BLACK
6
CONTINUOUS
10
-4.77544
20
5.69077
11
-4.77937
21
5.6902
0
LINE
8
BLACK
6
CONTINUOUS
10
-4.77937
20
5.6902
11
-4.83449
21
5.6902
0
LINE
8
BLACK
6
CONTINUOUS
10
-4.83449
20
5.6902
11
-4.83842
21
5.69077
0
LINE
8
BLACK
6
CONTINUOUS
10
-4.83842
20
5.69077
11
-4.8425
21
5.69276
0
LINE
8
BLACK
6
CONTINUOUS
10
-4.8425
20
5.69276
11
-4.8457
21
5.69597
0
LINE
8
BLACK
6
CONTINUOUS
10
-4.8457
20
5.69597
11
-4.84769
21
5.70004
0
LINE
8
BLACK
6
CONTINUOUS
10
-4.84769
20
5.70004
11
-4.84827
21
5.70398
0
LINE
8
BLACK
6
CONTINUOUS
10
-4.84827
20
5.70398
11
-4.84827
21
5.71579
0
LINE
8
BLACK
6
CONTINUOUS
10
-4.84827
20
5.71579
11
-4.84769
21
5.71972
0
LINE
8
BLACK
6
CONTINUOUS
10
-4.84769
20
5.71972
11
-4.8457
21
5.72379
0
LINE
8
BLACK
6
CONTINUOUS
10
-4.8457
20
5.72379
11
-4.8425
21
5.727
0
LINE
8
BLACK
6
CONTINUOUS
10
-4.8425
20
5.727
11
-4.83842
21
5.72899
0
LINE
8
BLACK
6
CONTINUOUS
10
-4.83842
20
5.72899
11
-4.83449
21
5.72957
0
LINE
8
BLACK
6
CONTINUOUS
10
-4.83449
20
5.72957
11
-4.77937
21
5.72957
0
LINE
8
BLACK
6
CONTINUOUS
10
-4.77937
20
5.72957
11
-4.77544
21
5.72899
0
LINE
8
BLACK
6
CONTINUOUS
10
-4.15733
20
5.72899
11
-4.15325
21
5.727
0
LINE
8
BLACK
6
CONTINUOUS
10
-4.15325
20
5.727
11
-4.15005
21
5.72379
0
LINE
8
BLACK
6
CONTINUOUS
10
-4.15005
20
5.72379
11
-4.14805
21
5.71972
0
LINE
8
BLACK
6
CONTINUOUS
10
-4.14805
20
5.71972
11
-4.14748
21
5.71579
0
LINE
8
BLACK
6
CONTINUOUS
10
-4.14748
20
5.71579
11
-4.14748
21
5.70398
0
LINE
8
BLACK
6
CONTINUOUS
10
-4.14748
20
5.70398
11
-4.14805
21
5.70004
0
LINE
8
BLACK
6
CONTINUOUS
10
-4.14805
20
5.70004
11
-4.15005
21
5.69597
0
LINE
8
BLACK
6
CONTINUOUS
10
-4.15005
20
5.69597
11
-4.15325
21
5.69276
0
LINE
8
BLACK
6
CONTINUOUS
10
-4.15325
20
5.69276
11
-4.15733
21
5.69077
0
LINE
8
BLACK
6
CONTINUOUS
10
-4.15733
20
5.69077
11
-4.16126
21
5.6902
0
LINE
8
BLACK
6
CONTINUOUS
10
-4.16126
20
5.6902
11
-4.21638
21
5.6902
0
LINE
8
BLACK
6
CONTINUOUS
10
-4.21638
20
5.6902
11
-4.22031
21
5.69077
0
LINE
8
BLACK
6
CONTINUOUS
10
-4.22031
20
5.69077
11
-4.22438
21
5.69276
0
LINE
8
BLACK
6
CONTINUOUS
10
-4.22438
20
5.69276
11
-4.22759
21
5.69597
0
LINE
8
BLACK
6
CONTINUOUS
10
-4.22759
20
5.69597
11
-4.22958
21
5.70004
0
LINE
8
BLACK
6
CONTINUOUS
10
-4.22958
20
5.70004
11
-4.23016
21
5.70398
0
LINE
8
BLACK
6
CONTINUOUS
10
-4.23016
20
5.70398
11
-4.23016
21
5.71579
0
LINE
8
BLACK
6
CONTINUOUS
10
-4.23016
20
5.71579
11
-4.22958
21
5.71972
0
LINE
8
BLACK
6
CONTINUOUS
10
-4.22958
20
5.71972
11
-4.22759
21
5.72379
0
LINE
8
BLACK
6
CONTINUOUS
10
-4.22759
20
5.72379
11
-4.22438
21
5.727
0
LINE
8
BLACK
6
CONTINUOUS
10
-4.22438
20
5.727
11
-4.22031
21
5.72899
0
LINE
8
BLACK
6
CONTINUOUS
10
-4.22031
20
5.72899
11
-4.21638
21
5.72957
0
LINE
8
BLACK
6
CONTINUOUS
10
-4.21638
20
5.72957
11
-4.16126
21
5.72957
0
LINE
8
BLACK
6
CONTINUOUS
10
-4.16126
20
5.72957
11
-4.15733
21
5.72899
0
LINE
8
BLACK
6
CONTINUOUS
10
-4.77544
20
5.77821
11
-4.77136
21
5.77621
0
LINE
8
BLACK
6
CONTINUOUS
10
-4.77136
20
5.77621
11
-4.76816
21
5.77301
0
LINE
8
BLACK
6
CONTINUOUS
10
-4.76816
20
5.77301
11
-4.76616
21
5.76893
0
LINE
8
BLACK
6
CONTINUOUS
10
-4.76616
20
5.76893
11
-4.76559
21
5.765
0
LINE
8
BLACK
6
CONTINUOUS
10
-4.76559
20
5.765
11
-4.76559
21
5.75319
0
LINE
8
BLACK
6
CONTINUOUS
10
-4.76559
20
5.75319
11
-4.76616
21
5.74926
0
LINE
8
BLACK
6
CONTINUOUS
10
-4.76616
20
5.74926
11
-4.76816
21
5.74518
0
LINE
8
BLACK
6
CONTINUOUS
10
-4.76816
20
5.74518
11
-4.77136
21
5.74197
0
LINE
8
BLACK
6
CONTINUOUS
10
-4.77136
20
5.74197
11
-4.77544
21
5.73998
0
LINE
8
BLACK
6
CONTINUOUS
10
-4.77544
20
5.73998
11
-4.77937
21
5.73941
0
LINE
8
BLACK
6
CONTINUOUS
10
-4.77937
20
5.73941
11
-4.83449
21
5.73941
0
LINE
8
BLACK
6
CONTINUOUS
10
-4.83449
20
5.73941
11
-4.83842
21
5.73998
0
LINE
8
BLACK
6
CONTINUOUS
10
-4.83842
20
5.73998
11
-4.8425
21
5.74197
0
LINE
8
BLACK
6
CONTINUOUS
10
-4.8425
20
5.74197
11
-4.8457
21
5.74518
0
LINE
8
BLACK
6
CONTINUOUS
10
-4.8457
20
5.74518
11
-4.84769
21
5.74926
0
LINE
8
BLACK
6
CONTINUOUS
10
-4.84769
20
5.74926
11
-4.84827
21
5.75319
0
LINE
8
BLACK
6
CONTINUOUS
10
-4.84827
20
5.75319
11
-4.84827
21
5.765
0
LINE
8
BLACK
6
CONTINUOUS
10
-4.84827
20
5.765
11
-4.84769
21
5.76893
0
LINE
8
BLACK
6
CONTINUOUS
10
-4.84769
20
5.76893
11
-4.8457
21
5.77301
0
LINE
8
BLACK
6
CONTINUOUS
10
-4.8457
20
5.77301
11
-4.8425
21
5.77621
0
LINE
8
BLACK
6
CONTINUOUS
10
-4.8425
20
5.77621
11
-4.83842
21
5.77821
0
LINE
8
BLACK
6
CONTINUOUS
10
-4.83842
20
5.77821
11
-4.83449
21
5.77878
0
LINE
8
BLACK
6
CONTINUOUS
10
-4.83449
20
5.77878
11
-4.77937
21
5.77878
0
LINE
8
BLACK
6
CONTINUOUS
10
-4.77937
20
5.77878
11
-4.77544
21
5.77821
0
LINE
8
BLACK
6
CONTINUOUS
10
-4.15733
20
5.77821
11
-4.15325
21
5.77621
0
LINE
8
BLACK
6
CONTINUOUS
10
-4.15325
20
5.77621
11
-4.15005
21
5.77301
0
LINE
8
BLACK
6
CONTINUOUS
10
-4.15005
20
5.77301
11
-4.14805
21
5.76893
0
LINE
8
BLACK
6
CONTINUOUS
10
-4.14805
20
5.76893
11
-4.14748
21
5.765
0
LINE
8
BLACK
6
CONTINUOUS
10
-4.14748
20
5.765
11
-4.14748
21
5.75319
0
LINE
8
BLACK
6
CONTINUOUS
10
-4.14748
20
5.75319
11
-4.14805
21
5.74926
0
LINE
8
BLACK
6
CONTINUOUS
10
-4.14805
20
5.74926
11
-4.15005
21
5.74518
0
LINE
8
BLACK
6
CONTINUOUS
10
-4.15005
20
5.74518
11
-4.15325
21
5.74197
0
LINE
8
BLACK
6
CONTINUOUS
10
-4.15325
20
5.74197
11
-4.15733
21
5.73998
0
LINE
8
BLACK
6
CONTINUOUS
10
-4.15733
20
5.73998
11
-4.16126
21
5.73941
0
LINE
8
BLACK
6
CONTINUOUS
10
-4.16126
20
5.73941
11
-4.21638
21
5.73941
0
LINE
8
BLACK
6
CONTINUOUS
10
-4.21638
20
5.73941
11
-4.22031
21
5.73998
0
LINE
8
BLACK
6
CONTINUOUS
10
-4.22031
20
5.73998
11
-4.22438
21
5.74197
0
LINE
8
BLACK
6
CONTINUOUS
10
-4.22438
20
5.74197
11
-4.22759
21
5.74518
0
LINE
8
BLACK
6
CONTINUOUS
10
-4.22759
20
5.74518
11
-4.22958
21
5.74926
0
LINE
8
BLACK
6
CONTINUOUS
10
-4.22958
20
5.74926
11
-4.23016
21
5.75319
0
LINE
8
BLACK
6
CONTINUOUS
10
-4.23016
20
5.75319
11
-4.23016
21
5.765
0
LINE
8
BLACK
6
CONTINUOUS
10
-4.23016
20
5.765
11
-4.22958
21
5.76893
0
LINE
8
BLACK
6
CONTINUOUS
10
-4.22958
20
5.76893
11
-4.22759
21
5.77301
0
LINE
8
BLACK
6
CONTINUOUS
10
-4.22759
20
5.77301
11
-4.22438
21
5.77621
0
LINE
8
BLACK
6
CONTINUOUS
10
-4.22438
20
5.77621
11
-4.22031
21
5.77821
0
LINE
8
BLACK
6
CONTINUOUS
10
-4.22031
20
5.77821
11
-4.21638
21
5.77878
0
LINE
8
BLACK
6
CONTINUOUS
10
-4.21638
20
5.77878
11
-4.16126
21
5.77878
0
LINE
8
BLACK
6
CONTINUOUS
10
-4.16126
20
5.77878
11
-4.15733
21
5.77821
0
LINE
8
BLACK
6
CONTINUOUS
10
-4.88631
20
5.85918
11
-4.88133
21
5.85744
0
LINE
8
BLACK
6
CONTINUOUS
10
-4.88133
20
5.85744
11
-4.87708
21
5.8543
0
LINE
8
BLACK
6
CONTINUOUS
10
-4.87708
20
5.8543
11
-4.87394
21
5.85005
0
LINE
8
BLACK
6
CONTINUOUS
10
-4.87394
20
5.85005
11
-4.8722
21
5.84507
0
LINE
8
BLACK
6
CONTINUOUS
10
-4.8722
20
5.84507
11
-4.87189
21
5.84177
0
LINE
8
BLACK
6
CONTINUOUS
10
-4.87189
20
5.84177
11
-4.87189
21
5.82209
0
LINE
8
BLACK
6
CONTINUOUS
10
-4.87189
20
5.82209
11
-4.8722
21
5.81879
0
LINE
8
BLACK
6
CONTINUOUS
10
-4.8722
20
5.81879
11
-4.87394
21
5.81381
0
LINE
8
BLACK
6
CONTINUOUS
10
-4.87394
20
5.81381
11
-4.87708
21
5.80956
0
LINE
8
BLACK
6
CONTINUOUS
10
-4.87708
20
5.80956
11
-4.88133
21
5.80642
0
LINE
8
BLACK
6
CONTINUOUS
10
-4.88133
20
5.80642
11
-4.88631
21
5.80468
0
LINE
8
BLACK
6
CONTINUOUS
10
-4.88631
20
5.80468
11
-4.88961
21
5.80437
0
LINE
8
BLACK
6
CONTINUOUS
10
-4.88961
20
5.80437
11
-4.97622
21
5.80437
0
LINE
8
BLACK
6
CONTINUOUS
10
-4.97622
20
5.80437
11
-4.97951
21
5.80468
0
LINE
8
BLACK
6
CONTINUOUS
10
-4.97951
20
5.80468
11
-4.9845
21
5.80642
0
LINE
8
BLACK
6
CONTINUOUS
10
-4.9845
20
5.80642
11
-4.98875
21
5.80956
0
LINE
8
BLACK
6
CONTINUOUS
10
-4.98875
20
5.80956
11
-4.99188
21
5.81381
0
LINE
8
BLACK
6
CONTINUOUS
10
-4.99188
20
5.81381
11
-4.99363
21
5.81879
0
LINE
8
BLACK
6
CONTINUOUS
10
-4.99363
20
5.81879
11
-4.99394
21
5.82209
0
LINE
8
BLACK
6
CONTINUOUS
10
-4.99394
20
5.82209
11
-4.99394
21
5.84177
0
LINE
8
BLACK
6
CONTINUOUS
10
-4.99394
20
5.84177
11
-4.99363
21
5.84507
0
LINE
8
BLACK
6
CONTINUOUS
10
-4.99363
20
5.84507
11
-4.99188
21
5.85005
0
LINE
8
BLACK
6
CONTINUOUS
10
-4.99188
20
5.85005
11
-4.98875
21
5.8543
0
LINE
8
BLACK
6
CONTINUOUS
10
-4.98875
20
5.8543
11
-4.9845
21
5.85744
0
LINE
8
BLACK
6
CONTINUOUS
10
-4.9845
20
5.85744
11
-4.97951
21
5.85918
0
LINE
8
BLACK
6
CONTINUOUS
10
-4.97951
20
5.85918
11
-4.97622
21
5.85949
0
LINE
8
BLACK
6
CONTINUOUS
10
-4.97622
20
5.85949
11
-4.88961
21
5.85949
0
LINE
8
BLACK
6
CONTINUOUS
10
-4.88961
20
5.85949
11
-4.88631
21
5.85918
0
LINE
8
BLACK
6
CONTINUOUS
10
-4.01623
20
5.85918
11
-4.01125
21
5.85744
0
LINE
8
BLACK
6
CONTINUOUS
10
-4.01125
20
5.85744
11
-4.007
21
5.8543
0
LINE
8
BLACK
6
CONTINUOUS
10
-4.007
20
5.8543
11
-4.00386
21
5.85005
0
LINE
8
BLACK
6
CONTINUOUS
10
-4.00386
20
5.85005
11
-4.00212
21
5.84507
0
LINE
8
BLACK
6
CONTINUOUS
10
-4.00212
20
5.84507
11
-4.00181
21
5.84177
0
LINE
8
BLACK
6
CONTINUOUS
10
-4.00181
20
5.84177
11
-4.00181
21
5.82209
0
LINE
8
BLACK
6
CONTINUOUS
10
-4.00181
20
5.82209
11
-4.00212
21
5.81879
0
LINE
8
BLACK
6
CONTINUOUS
10
-4.00212
20
5.81879
11
-4.00386
21
5.81381
0
LINE
8
BLACK
6
CONTINUOUS
10
-4.00386
20
5.81381
11
-4.007
21
5.80956
0
LINE
8
BLACK
6
CONTINUOUS
10
-4.007
20
5.80956
11
-4.01125
21
5.80642
0
LINE
8
BLACK
6
CONTINUOUS
10
-4.01125
20
5.80642
11
-4.01623
21
5.80468
0
LINE
8
BLACK
6
CONTINUOUS
10
-4.01623
20
5.80468
11
-4.01953
21
5.80437
0
LINE
8
BLACK
6
CONTINUOUS
10
-4.01953
20
5.80437
11
-4.10614
21
5.80437
0
LINE
8
BLACK
6
CONTINUOUS
10
-4.10614
20
5.80437
11
-4.10944
21
5.80468
0
LINE
8
BLACK
6
CONTINUOUS
10
-4.10944
20
5.80468
11
-4.11442
21
5.80642
0
LINE
8
BLACK
6
CONTINUOUS
10
-4.11442
20
5.80642
11
-4.11867
21
5.80956
0
LINE
8
BLACK
6
CONTINUOUS
10
-4.11867
20
5.80956
11
-4.12181
21
5.81381
0
LINE
8
BLACK
6
CONTINUOUS
10
-4.12181
20
5.81381
11
-4.12355
21
5.81879
0
LINE
8
BLACK
6
CONTINUOUS
10
-4.12355
20
5.81879
11
-4.12386
21
5.82209
0
LINE
8
BLACK
6
CONTINUOUS
10
-4.12386
20
5.82209
11
-4.12386
21
5.84177
0
LINE
8
BLACK
6
CONTINUOUS
10
-4.12386
20
5.84177
11
-4.12355
21
5.84507
0
LINE
8
BLACK
6
CONTINUOUS
10
-4.12355
20
5.84507
11
-4.12181
21
5.85005
0
LINE
8
BLACK
6
CONTINUOUS
10
-4.12181
20
5.85005
11
-4.11867
21
5.8543
0
LINE
8
BLACK
6
CONTINUOUS
10
-4.11867
20
5.8543
11
-4.11442
21
5.85744
0
LINE
8
BLACK
6
CONTINUOUS
10
-4.11442
20
5.85744
11
-4.10944
21
5.85918
0
LINE
8
BLACK
6
CONTINUOUS
10
-4.10944
20
5.85918
11
-4.10614
21
5.85949
0
LINE
8
BLACK
6
CONTINUOUS
10
-4.10614
20
5.85949
11
-4.01953
21
5.85949
0
LINE
8
BLACK
6
CONTINUOUS
10
-4.01953
20
5.85949
11
-4.01623
21
5.85918
0
LINE
8
BLACK
6
CONTINUOUS
10
-4.87708
20
6.0378
11
-4.86785
21
6.03463
0
LINE
8
BLACK
6
CONTINUOUS
10
-4.86785
20
6.03463
11
-4.85927
21
6.02999
0
LINE
8
BLACK
6
CONTINUOUS
10
-4.85927
20
6.02999
11
-4.85158
21
6.024
0
LINE
8
BLACK
6
CONTINUOUS
10
-4.85158
20
6.024
11
-4.84497
21
6.01682
0
LINE
8
BLACK
6
CONTINUOUS
10
-4.84497
20
6.01682
11
-4.83964
21
6.00866
0
LINE
8
BLACK
6
CONTINUOUS
10
-4.83964
20
6.00866
11
-4.83572
21
5.99973
0
LINE
8
BLACK
6
CONTINUOUS
10
-4.83572
20
5.99973
11
-4.83333
21
5.99027
0
LINE
8
BLACK
6
CONTINUOUS
10
-4.83333
20
5.99027
11
-4.83252
21
5.98055
0
LINE
8
BLACK
6
CONTINUOUS
10
-4.83252
20
5.98055
11
-4.83333
21
5.97083
0
LINE
8
BLACK
6
CONTINUOUS
10
-4.83333
20
5.97083
11
-4.83572
21
5.96138
0
LINE
8
BLACK
6
CONTINUOUS
10
-4.83572
20
5.96138
11
-4.83964
21
5.95244
0
LINE
8
BLACK
6
CONTINUOUS
10
-4.83964
20
5.95244
11
-4.84497
21
5.94428
0
LINE
8
BLACK
6
CONTINUOUS
10
-4.84497
20
5.94428
11
-4.85158
21
5.9371
0
LINE
8
BLACK
6
CONTINUOUS
10
-4.85158
20
5.9371
11
-4.85927
21
5.93111
0
LINE
8
BLACK
6
CONTINUOUS
10
-4.85927
20
5.93111
11
-4.86785
21
5.92647
0
LINE
8
BLACK
6
CONTINUOUS
10
-4.86785
20
5.92647
11
-4.87708
21
5.9233
0
LINE
8
BLACK
6
CONTINUOUS
10
-4.87708
20
5.9233
11
-4.8867
21
5.9217
0
LINE
8
BLACK
6
CONTINUOUS
10
-4.8867
20
5.9217
11
-4.89645
21
5.9217
0
LINE
8
BLACK
6
CONTINUOUS
10
-4.89645
20
5.9217
11
-4.90607
21
5.9233
0
LINE
8
BLACK
6
CONTINUOUS
10
-4.90607
20
5.9233
11
-4.9153
21
5.92647
0
LINE
8
BLACK
6
CONTINUOUS
10
-4.9153
20
5.92647
11
-4.92387
21
5.93111
0
LINE
8
BLACK
6
CONTINUOUS
10
-4.92387
20
5.93111
11
-4.93157
21
5.9371
0
LINE
8
BLACK
6
CONTINUOUS
10
-4.93157
20
5.9371
11
-4.93818
21
5.94428
0
LINE
8
BLACK
6
CONTINUOUS
10
-4.93818
20
5.94428
11
-4.94351
21
5.95244
0
LINE
8
BLACK
6
CONTINUOUS
10
-4.94351
20
5.95244
11
-4.94743
21
5.96138
0
LINE
8
BLACK
6
CONTINUOUS
10
-4.94743
20
5.96138
11
-4.94982
21
5.97083
0
LINE
8
BLACK
6
CONTINUOUS
10
-4.94982
20
5.97083
11
-4.95063
21
5.98055
0
LINE
8
BLACK
6
CONTINUOUS
10
-4.95063
20
5.98055
11
-4.94982
21
5.99027
0
LINE
8
BLACK
6
CONTINUOUS
10
-4.94982
20
5.99027
11
-4.94743
21
5.99973
0
LINE
8
BLACK
6
CONTINUOUS
10
-4.94743
20
5.99973
11
-4.94351
21
6.00866
0
LINE
8
BLACK
6
CONTINUOUS
10
-4.94351
20
6.00866
11
-4.93818
21
6.01682
0
LINE
8
BLACK
6
CONTINUOUS
10
-4.93818
20
6.01682
11
-4.93157
21
6.024
0
LINE
8
BLACK
6
CONTINUOUS
10
-4.93157
20
6.024
11
-4.92387
21
6.02999
0
LINE
8
BLACK
6
CONTINUOUS
10
-4.92387
20
6.02999
11
-4.9153
21
6.03463
0
LINE
8
BLACK
6
CONTINUOUS
10
-4.9153
20
6.03463
11
-4.90607
21
6.0378
0
LINE
8
BLACK
6
CONTINUOUS
10
-4.90607
20
6.0378
11
-4.89645
21
6.0394
0
LINE
8
BLACK
6
CONTINUOUS
10
-4.89645
20
6.0394
11
-4.8867
21
6.0394
0
LINE
8
BLACK
6
CONTINUOUS
10
-4.8867
20
6.0394
11
-4.87708
21
6.0378
0
LINE
8
BLACK
6
CONTINUOUS
10
-4.48338
20
6.0378
11
-4.47415
21
6.03463
0
LINE
8
BLACK
6
CONTINUOUS
10
-4.47415
20
6.03463
11
-4.46557
21
6.02999
0
LINE
8
BLACK
6
CONTINUOUS
10
-4.46557
20
6.02999
11
-4.45788
21
6.024
0
LINE
8
BLACK
6
CONTINUOUS
10
-4.45788
20
6.024
11
-4.45127
21
6.01682
0
LINE
8
BLACK
6
CONTINUOUS
10
-4.45127
20
6.01682
11
-4.44594
21
6.00866
0
LINE
8
BLACK
6
CONTINUOUS
10
-4.44594
20
6.00866
11
-4.44202
21
5.99973
0
LINE
8
BLACK
6
CONTINUOUS
10
-4.44202
20
5.99973
11
-4.43962
21
5.99027
0
LINE
8
BLACK
6
CONTINUOUS
10
-4.43962
20
5.99027
11
-4.43882
21
5.98055
0
LINE
8
BLACK
6
CONTINUOUS
10
-4.43882
20
5.98055
11
-4.43962
21
5.97083
0
LINE
8
BLACK
6
CONTINUOUS
10
-4.43962
20
5.97083
11
-4.44202
21
5.96138
0
LINE
8
BLACK
6
CONTINUOUS
10
-4.44202
20
5.96138
11
-4.44594
21
5.95244
0
LINE
8
BLACK
6
CONTINUOUS
10
-4.44594
20
5.95244
11
-4.45127
21
5.94428
0
LINE
8
BLACK
6
CONTINUOUS
10
-4.45127
20
5.94428
11
-4.45788
21
5.9371
0
LINE
8
BLACK
6
CONTINUOUS
10
-4.45788
20
5.9371
11
-4.46557
21
5.93111
0
LINE
8
BLACK
6
CONTINUOUS
10
-4.46557
20
5.93111
11
-4.47415
21
5.92647
0
LINE
8
BLACK
6
CONTINUOUS
10
-4.47415
20
5.92647
11
-4.48338
21
5.9233
0
LINE
8
BLACK
6
CONTINUOUS
10
-4.48338
20
5.9233
11
-4.493
21
5.9217
0
LINE
8
BLACK
6
CONTINUOUS
10
-4.493
20
5.9217
11
-4.50275
21
5.9217
0
LINE
8
BLACK
6
CONTINUOUS
10
-4.50275
20
5.9217
11
-4.51237
21
5.9233
0
LINE
8
BLACK
6
CONTINUOUS
10
-4.51237
20
5.9233
11
-4.5216
21
5.92647
0
LINE
8
BLACK
6
CONTINUOUS
10
-4.5216
20
5.92647
11
-4.53017
21
5.93111
0
LINE
8
BLACK
6
CONTINUOUS
10
-4.53017
20
5.93111
11
-4.53787
21
5.9371
0
LINE
8
BLACK
6
CONTINUOUS
10
-4.53787
20
5.9371
11
-4.54448
21
5.94428
0
LINE
8
BLACK
6
CONTINUOUS
10
-4.54448
20
5.94428
11
-4.54981
21
5.95244
0
LINE
8
BLACK
6
CONTINUOUS
10
-4.54981
20
5.95244
11
-4.55373
21
5.96138
0
LINE
8
BLACK
6
CONTINUOUS
10
-4.55373
20
5.96138
11
-4.55612
21
5.97083
0
LINE
8
BLACK
6
CONTINUOUS
10
-4.55612
20
5.97083
11
-4.55693
21
5.98055
0
LINE
8
BLACK
6
CONTINUOUS
10
-4.55693
20
5.98055
11
-4.55612
21
5.99027
0
LINE
8
BLACK
6
CONTINUOUS
10
-4.55612
20
5.99027
11
-4.55373
21
5.99973
0
LINE
8
BLACK
6
CONTINUOUS
10
-4.55373
20
5.99973
11
-4.54981
21
6.00866
0
LINE
8
BLACK
6
CONTINUOUS
10
-4.54981
20
6.00866
11
-4.54448
21
6.01682
0
LINE
8
BLACK
6
CONTINUOUS
10
-4.54448
20
6.01682
11
-4.53787
21
6.024
0
LINE
8
BLACK
6
CONTINUOUS
10
-4.53787
20
6.024
11
-4.53017
21
6.02999
0
LINE
8
BLACK
6
CONTINUOUS
10
-4.53017
20
6.02999
11
-4.5216
21
6.03463
0
LINE
8
BLACK
6
CONTINUOUS
10
-4.5216
20
6.03463
11
-4.51237
21
6.0378
0
LINE
8
BLACK
6
CONTINUOUS
10
-4.51237
20
6.0378
11
-4.50275
21
6.0394
0
LINE
8
BLACK
6
CONTINUOUS
10
-4.50275
20
6.0394
11
-4.493
21
6.0394
0
LINE
8
BLACK
6
CONTINUOUS
10
-4.493
20
6.0394
11
-4.48338
21
6.0378
0
LINE
8
BLACK
6
CONTINUOUS
10
-4.08968
20
6.0378
11
-4.08045
21
6.03463
0
LINE
8
BLACK
6
CONTINUOUS
10
-4.08045
20
6.03463
11
-4.07187
21
6.02999
0
LINE
8
BLACK
6
CONTINUOUS
10
-4.07187
20
6.02999
11
-4.06418
21
6.024
0
LINE
8
BLACK
6
CONTINUOUS
10
-4.06418
20
6.024
11
-4.05757
21
6.01682
0
LINE
8
BLACK
6
CONTINUOUS
10
-4.05757
20
6.01682
11
-4.05224
21
6.00866
0
LINE
8
BLACK
6
CONTINUOUS
10
-4.05224
20
6.00866
11
-4.04832
21
5.99973
0
LINE
8
BLACK
6
CONTINUOUS
10
-4.04832
20
5.99973
11
-4.04592
21
5.99027
0
LINE
8
BLACK
6
CONTINUOUS
10
-4.04592
20
5.99027
11
-4.04512
21
5.98055
0
LINE
8
BLACK
6
CONTINUOUS
10
-4.04512
20
5.98055
11
-4.04592
21
5.97083
0
LINE
8
BLACK
6
CONTINUOUS
10
-4.04592
20
5.97083
11
-4.04832
21
5.96138
0
LINE
8
BLACK
6
CONTINUOUS
10
-4.04832
20
5.96138
11
-4.05224
21
5.95244
0
LINE
8
BLACK
6
CONTINUOUS
10
-4.05224
20
5.95244
11
-4.05757
21
5.94428
0
LINE
8
BLACK
6
CONTINUOUS
10
-4.05757
20
5.94428
11
-4.06418
21
5.9371
0
LINE
8
BLACK
6
CONTINUOUS
10
-4.06418
20
5.9371
11
-4.07187
21
5.93111
0
LINE
8
BLACK
6
CONTINUOUS
10
-4.07187
20
5.93111
11
-4.08045
21
5.92647
0
LINE
8
BLACK
6
CONTINUOUS
10
-4.08045
20
5.92647
11
-4.08968
21
5.9233
0
LINE
8
BLACK
6
CONTINUOUS
10
-4.08968
20
5.9233
11
-4.0993
21
5.9217
0
LINE
8
BLACK
6
CONTINUOUS
10
-4.0993
20
5.9217
11
-4.10905
21
5.9217
0
LINE
8
BLACK
6
CONTINUOUS
10
-4.10905
20
5.9217
11
-4.11867
21
5.9233
0
LINE
8
BLACK
6
CONTINUOUS
10
-4.11867
20
5.9233
11
-4.1279
21
5.92647
0
LINE
8
BLACK
6
CONTINUOUS
10
-4.1279
20
5.92647
11
-4.13647
21
5.93111
0
LINE
8
BLACK
6
CONTINUOUS
10
-4.13647
20
5.93111
11
-4.14417
21
5.9371
0
LINE
8
BLACK
6
CONTINUOUS
10
-4.14417
20
5.9371
11
-4.15078
21
5.94428
0
LINE
8
BLACK
6
CONTINUOUS
10
-4.15078
20
5.94428
11
-4.15611
21
5.95244
0
LINE
8
BLACK
6
CONTINUOUS
10
-4.15611
20
5.95244
11
-4.16003
21
5.96138
0
LINE
8
BLACK
6
CONTINUOUS
10
-4.16003
20
5.96138
11
-4.16242
21
5.97083
0
LINE
8
BLACK
6
CONTINUOUS
10
-4.16242
20
5.97083
11
-4.16323
21
5.98055
0
LINE
8
BLACK
6
CONTINUOUS
10
-4.16323
20
5.98055
11
-4.16242
21
5.99027
0
LINE
8
BLACK
6
CONTINUOUS
10
-4.16242
20
5.99027
11
-4.16003
21
5.99973
0
LINE
8
BLACK
6
CONTINUOUS
10
-4.16003
20
5.99973
11
-4.15611
21
6.00866
0
LINE
8
BLACK
6
CONTINUOUS
10
-4.15611
20
6.00866
11
-4.15078
21
6.01682
0
LINE
8
BLACK
6
CONTINUOUS
10
-4.15078
20
6.01682
11
-4.14417
21
6.024
0
LINE
8
BLACK
6
CONTINUOUS
10
-4.14417
20
6.024
11
-4.13647
21
6.02999
0
LINE
8
BLACK
6
CONTINUOUS
10
-4.13647
20
6.02999
11
-4.1279
21
6.03463
0
LINE
8
BLACK
6
CONTINUOUS
10
-4.1279
20
6.03463
11
-4.11867
21
6.0378
0
LINE
8
BLACK
6
CONTINUOUS
10
-4.11867
20
6.0378
11
-4.10905
21
6.0394
0
LINE
8
BLACK
6
CONTINUOUS
10
-4.10905
20
6.0394
11
-4.0993
21
6.0394
0
LINE
8
BLACK
6
CONTINUOUS
10
-4.0993
20
6.0394
11
-4.08968
21
6.0378
  0
ENDSEC
  0
EOF
