  0
SECTION
  2
HEADER
  9
$ANGBASE
  50
0.0
  9
$ANGDIR
  70
1
  9
$MEASUREMENT
  70
0
  0
ENDSEC
  0
SECTION
  2
TABLES
  0
TABLE
  2
LTYPE
  70
4
  0
LTYPE
  5
40F
  2
CONTINUOUS
  70
0
  3
Solid line
  72
65
  73
0
  40
0.0
  0
LTYPE
  5
410
  2
DASHDOT
 70
0
  3
Dash Dot ____ _ ____ _
 72
65
 73
4
 40
2.0
 49
1.25
 49
-0.25
 49
0.25
 49
-0.25
  0
LTYPE
  5
411
  2
DASHED
 70
0
  3
Dashed __ __ __ __ __
 72
65
 73
2
 40
0.75
 49
0.5
 49
-0.25
  0
LTYPE
  5
43B
  2
DOTTED
 70
0
  3
Dotted .  .  .  .
 72
65
 73
2
 40
0.2
 49
0.0
 49
-0.2
  0
ENDTAB
  0
TABLE
  2
STYLE
  70
4
  0
STYLE
  2
KICAD
  70
0
  40
0
  41
1
  42
1
  50
0
  71
0
  3
isocp.shx
  0
STYLE
  2
KICADB
  70
0
  40
0
  41
1
  42
1
  50
0
  71
0
  3
isocp.shx
  0
STYLE
  2
KICADI
  70
0
  40
0
  41
1
  42
1
  50
15
  71
0
  3
isocp.shx
  0
STYLE
  2
KICADBI
  70
0
  40
0
  41
1
  42
1
  50
15
  71
0
  3
isocp.shx
  0
ENDTAB
  0
TABLE
  2
LAYER
  70
1
  0
LAYER
  2
BLACK
  70
0
  62
7
  6
CONTINUOUS
  0
ENDTAB
  0
ENDSEC
  0
SECTION
  2
ENTITIES
0
LINE
8
BLACK
6
CONTINUOUS
10
-4.3612598425196847
20
5.5442519685039366
11
-4.3605638582677164
21
5.5439637007874012
0
LINE
8
BLACK
6
CONTINUOUS
10
-4.3605638582677164
20
5.5439637007874012
11
-4.360275590551181
21
5.5432677165354329
0
LINE
8
BLACK
6
CONTINUOUS
10
-4.360275590551181
20
5.5432677165354329
11
-4.360275590551181
21
5.4267322834645668
0
LINE
8
BLACK
6
CONTINUOUS
10
-4.360275590551181
20
5.4267322834645668
11
-4.3605638582677164
21
5.4260362992125986
0
LINE
8
BLACK
6
CONTINUOUS
10
-4.3605638582677164
20
5.4260362992125986
11
-4.3612598425196847
21
5.4257480314960631
0
LINE
8
BLACK
6
CONTINUOUS
10
-4.3612598425196847
20
5.4257480314960631
11
-4.4187401574803147
21
5.4257480314960631
0
LINE
8
BLACK
6
CONTINUOUS
10
-4.4187401574803147
20
5.4257480314960631
11
-4.4194361417322829
21
5.4260362992125986
0
LINE
8
BLACK
6
CONTINUOUS
10
-4.4194361417322829
20
5.4260362992125986
11
-4.4197244094488184
21
5.4267322834645668
0
LINE
8
BLACK
6
CONTINUOUS
10
-4.4197244094488184
20
5.4267322834645668
11
-4.4197244094488184
21
5.5432677165354329
0
LINE
8
BLACK
6
CONTINUOUS
10
-4.4197244094488184
20
5.5432677165354329
11
-4.4194361417322829
21
5.5439637007874012
0
LINE
8
BLACK
6
CONTINUOUS
10
-4.4194361417322829
20
5.5439637007874012
11
-4.4187401574803147
21
5.5442519685039366
0
LINE
8
BLACK
6
CONTINUOUS
10
-4.4187401574803147
20
5.5442519685039366
11
-4.3612598425196847
21
5.5442519685039366
0
LINE
8
BLACK
6
CONTINUOUS
10
-4.417755905511811
20
5.5422834645669292
11
-4.417755905511811
21
5.4277165354330705
0
LINE
8
BLACK
6
CONTINUOUS
10
-4.417755905511811
20
5.4277165354330705
11
-4.3622440944881893
21
5.4277165354330705
0
LINE
8
BLACK
6
CONTINUOUS
10
-4.3622440944881893
20
5.4277165354330705
11
-4.3622440944881893
21
5.5422834645669292
0
LINE
8
BLACK
6
CONTINUOUS
10
-4.3622440944881893
20
5.5422834645669292
11
-4.417755905511811
21
5.5422834645669292
0
LINE
8
BLACK
6
CONTINUOUS
10
-4.2812598425196846
20
5.5442519685039366
11
-4.2805638582677163
21
5.5439637007874012
0
LINE
8
BLACK
6
CONTINUOUS
10
-4.2805638582677163
20
5.5439637007874012
11
-4.2802755905511809
21
5.5432677165354329
0
LINE
8
BLACK
6
CONTINUOUS
10
-4.2802755905511809
20
5.5432677165354329
11
-4.2802755905511809
21
5.4267322834645668
0
LINE
8
BLACK
6
CONTINUOUS
10
-4.2802755905511809
20
5.4267322834645668
11
-4.2805638582677163
21
5.4260362992125986
0
LINE
8
BLACK
6
CONTINUOUS
10
-4.2805638582677163
20
5.4260362992125986
11
-4.2812598425196846
21
5.4257480314960631
0
LINE
8
BLACK
6
CONTINUOUS
10
-4.2812598425196846
20
5.4257480314960631
11
-4.3387401574803146
21
5.4257480314960631
0
LINE
8
BLACK
6
CONTINUOUS
10
-4.3387401574803146
20
5.4257480314960631
11
-4.3394361417322838
21
5.4260362992125986
0
LINE
8
BLACK
6
CONTINUOUS
10
-4.3394361417322838
20
5.4260362992125986
11
-4.3397244094488192
21
5.4267322834645668
0
LINE
8
BLACK
6
CONTINUOUS
10
-4.3397244094488192
20
5.4267322834645668
11
-4.3397244094488192
21
5.5432677165354329
0
LINE
8
BLACK
6
CONTINUOUS
10
-4.3397244094488192
20
5.5432677165354329
11
-4.3394361417322838
21
5.5439637007874012
0
LINE
8
BLACK
6
CONTINUOUS
10
-4.3394361417322838
20
5.5439637007874012
11
-4.3387401574803146
21
5.5442519685039366
0
LINE
8
BLACK
6
CONTINUOUS
10
-4.3387401574803146
20
5.5442519685039366
11
-4.2812598425196846
21
5.5442519685039366
0
LINE
8
BLACK
6
CONTINUOUS
10
-4.3377559055118109
20
5.5422834645669292
11
-4.3377559055118109
21
5.4277165354330705
0
LINE
8
BLACK
6
CONTINUOUS
10
-4.3377559055118109
20
5.4277165354330705
11
-4.2822440944881892
21
5.4277165354330705
0
LINE
8
BLACK
6
CONTINUOUS
10
-4.2822440944881892
20
5.4277165354330705
11
-4.2822440944881892
21
5.5422834645669292
0
LINE
8
BLACK
6
CONTINUOUS
10
-4.2822440944881892
20
5.5422834645669292
11
-4.3377559055118109
21
5.5422834645669292
0
LINE
8
BLACK
6
CONTINUOUS
10
-4.4317322834645667
20
5.5197244094488189
11
-4.4310362992125985
21
5.5194361417322835
0
LINE
8
BLACK
6
CONTINUOUS
10
-4.4310362992125985
20
5.5194361417322835
11
-4.430748031496063
21
5.5187401574803152
0
LINE
8
BLACK
6
CONTINUOUS
10
-4.430748031496063
20
5.5187401574803152
11
-4.430748031496063
21
5.4612598425196852
0
LINE
8
BLACK
6
CONTINUOUS
10
-4.430748031496063
20
5.4612598425196852
11
-4.4310362992125985
21
5.4605638582677161
0
LINE
8
BLACK
6
CONTINUOUS
10
-4.4310362992125985
20
5.4605638582677161
11
-4.4317322834645667
21
5.4602755905511806
0
LINE
8
BLACK
6
CONTINUOUS
10
-4.4317322834645667
20
5.4602755905511806
11
-4.5482677165354328
21
5.4602755905511806
0
LINE
8
BLACK
6
CONTINUOUS
10
-4.5482677165354328
20
5.4602755905511806
11
-4.5489637007874011
21
5.4605638582677161
0
LINE
8
BLACK
6
CONTINUOUS
10
-4.5489637007874011
20
5.4605638582677161
11
-4.5492519685039365
21
5.4612598425196852
0
LINE
8
BLACK
6
CONTINUOUS
10
-4.5492519685039365
20
5.4612598425196852
11
-4.5492519685039365
21
5.5187401574803152
0
LINE
8
BLACK
6
CONTINUOUS
10
-4.5492519685039365
20
5.5187401574803152
11
-4.5489637007874011
21
5.5194361417322835
0
LINE
8
BLACK
6
CONTINUOUS
10
-4.5489637007874011
20
5.5194361417322835
11
-4.5482677165354328
21
5.5197244094488189
0
LINE
8
BLACK
6
CONTINUOUS
10
-4.5482677165354328
20
5.5197244094488189
11
-4.4317322834645667
21
5.5197244094488189
0
LINE
8
BLACK
6
CONTINUOUS
10
-4.5472834645669291
20
5.5177559055118106
11
-4.5472834645669291
21
5.4622440944881889
0
LINE
8
BLACK
6
CONTINUOUS
10
-4.5472834645669291
20
5.4622440944881889
11
-4.4327165354330704
21
5.4622440944881889
0
LINE
8
BLACK
6
CONTINUOUS
10
-4.4327165354330704
20
5.4622440944881889
11
-4.4327165354330704
21
5.5177559055118106
0
LINE
8
BLACK
6
CONTINUOUS
10
-4.4327165354330704
20
5.5177559055118106
11
-4.5472834645669291
21
5.5177559055118106
0
LINE
8
BLACK
6
CONTINUOUS
10
-4.7537795275590549
20
5.8720866141732282
11
-4.7530835433070866
21
5.8717983464566927
0
LINE
8
BLACK
6
CONTINUOUS
10
-4.7530835433070866
20
5.8717983464566927
11
-4.7527952755905511
21
5.8711023622047245
0
LINE
8
BLACK
6
CONTINUOUS
10
-4.7527952755905511
20
5.8711023622047245
11
-4.7527952755905511
21
5.4994488188976378
0
LINE
8
BLACK
6
CONTINUOUS
10
-4.7527952755905511
20
5.4994488188976378
11
-4.7530835433070866
21
5.4987528346456696
0
LINE
8
BLACK
6
CONTINUOUS
10
-4.7530835433070866
20
5.4987528346456696
11
-4.7537795275590549
21
5.4984645669291341
0
LINE
8
BLACK
6
CONTINUOUS
10
-4.7537795275590549
20
5.4984645669291341
11
-5.0057480314960632
21
5.4984645669291341
0
LINE
8
BLACK
6
CONTINUOUS
10
-5.0057480314960632
20
5.4984645669291341
11
-5.0064440157480314
21
5.4987528346456696
0
LINE
8
BLACK
6
CONTINUOUS
10
-5.0064440157480314
20
5.4987528346456696
11
-5.0067322834645669
21
5.4994488188976378
0
LINE
8
BLACK
6
CONTINUOUS
10
-5.0067322834645669
20
5.4994488188976378
11
-5.0067322834645669
21
5.8711023622047245
0
LINE
8
BLACK
6
CONTINUOUS
10
-5.0067322834645669
20
5.8711023622047245
11
-5.0064440157480314
21
5.8717983464566927
0
LINE
8
BLACK
6
CONTINUOUS
10
-5.0064440157480314
20
5.8717983464566927
11
-5.0057480314960632
21
5.8720866141732282
0
LINE
8
BLACK
6
CONTINUOUS
10
-5.0057480314960632
20
5.8720866141732282
11
-4.7537795275590549
21
5.8720866141732282
0
LINE
8
BLACK
6
CONTINUOUS
10
-5.0047637795275586
20
5.8701181102362208
11
-5.0047637795275586
21
5.5004330708661415
0
LINE
8
BLACK
6
CONTINUOUS
10
-5.0047637795275586
20
5.5004330708661415
11
-4.7547637795275586
21
5.5004330708661415
0
LINE
8
BLACK
6
CONTINUOUS
10
-4.7547637795275586
20
5.5004330708661415
11
-4.7547637795275586
21
5.8701181102362208
0
LINE
8
BLACK
6
CONTINUOUS
10
-4.7547637795275586
20
5.8701181102362208
11
-5.0047637795275586
21
5.8701181102362208
0
LINE
8
BLACK
6
CONTINUOUS
10
-3.9899999999999998
20
5.8720866141732282
11
-3.9893040157480315
21
5.8717983464566927
0
LINE
8
BLACK
6
CONTINUOUS
10
-3.9893040157480315
20
5.8717983464566927
11
-3.9890157480314961
21
5.8711023622047245
0
LINE
8
BLACK
6
CONTINUOUS
10
-3.9890157480314961
20
5.8711023622047245
11
-3.9890157480314961
21
5.4994488188976378
0
LINE
8
BLACK
6
CONTINUOUS
10
-3.9890157480314961
20
5.4994488188976378
11
-3.9893040157480315
21
5.4987528346456696
0
LINE
8
BLACK
6
CONTINUOUS
10
-3.9893040157480315
20
5.4987528346456696
11
-3.9899999999999998
21
5.4984645669291341
0
LINE
8
BLACK
6
CONTINUOUS
10
-3.9899999999999998
20
5.4984645669291341
11
-4.2419685039370076
21
5.4984645669291341
0
LINE
8
BLACK
6
CONTINUOUS
10
-4.2419685039370076
20
5.4984645669291341
11
-4.2426644881889759
21
5.4987528346456696
0
LINE
8
BLACK
6
CONTINUOUS
10
-4.2426644881889759
20
5.4987528346456696
11
-4.2429527559055114
21
5.4994488188976378
0
LINE
8
BLACK
6
CONTINUOUS
10
-4.2429527559055114
20
5.4994488188976378
11
-4.2429527559055114
21
5.8711023622047245
0
LINE
8
BLACK
6
CONTINUOUS
10
-4.2429527559055114
20
5.8711023622047245
11
-4.2426644881889759
21
5.8717983464566927
0
LINE
8
BLACK
6
CONTINUOUS
10
-4.2426644881889759
20
5.8717983464566927
11
-4.2419685039370076
21
5.8720866141732282
0
LINE
8
BLACK
6
CONTINUOUS
10
-4.2419685039370076
20
5.8720866141732282
11
-3.9899999999999998
21
5.8720866141732282
0
LINE
8
BLACK
6
CONTINUOUS
10
-4.2409842519685039
20
5.8701181102362208
11
-4.2409842519685039
21
5.5004330708661415
0
LINE
8
BLACK
6
CONTINUOUS
10
-4.2409842519685039
20
5.5004330708661415
11
-3.9909842519685039
21
5.5004330708661415
0
LINE
8
BLACK
6
CONTINUOUS
10
-3.9909842519685039
20
5.5004330708661415
11
-3.9909842519685039
21
5.8701181102362208
0
LINE
8
BLACK
6
CONTINUOUS
10
-3.9909842519685039
20
5.8701181102362208
11
-4.2409842519685039
21
5.8701181102362208
0
LINE
8
BLACK
6
CONTINUOUS
10
-4.5212598425196848
20
5.6602559055118107
11
-4.5205638582677166
21
5.6599676377952752
0
LINE
8
BLACK
6
CONTINUOUS
10
-4.5205638582677166
20
5.6599676377952752
11
-4.5202755905511811
21
5.659271653543307
0
LINE
8
BLACK
6
CONTINUOUS
10
-4.5202755905511811
20
5.659271653543307
11
-4.5202755905511811
21
5.5427362204724409
0
LINE
8
BLACK
6
CONTINUOUS
10
-4.5202755905511811
20
5.5427362204724409
11
-4.5205638582677166
21
5.5420402362204726
0
LINE
8
BLACK
6
CONTINUOUS
10
-4.5205638582677166
20
5.5420402362204726
11
-4.5212598425196848
21
5.5417519685039371
0
LINE
8
BLACK
6
CONTINUOUS
10
-4.5212598425196848
20
5.5417519685039371
11
-4.5787401574803148
21
5.5417519685039371
0
LINE
8
BLACK
6
CONTINUOUS
10
-4.5787401574803148
20
5.5417519685039371
11
-4.5794361417322831
21
5.5420402362204726
0
LINE
8
BLACK
6
CONTINUOUS
10
-4.5794361417322831
20
5.5420402362204726
11
-4.5797244094488185
21
5.5427362204724409
0
LINE
8
BLACK
6
CONTINUOUS
10
-4.5797244094488185
20
5.5427362204724409
11
-4.5797244094488185
21
5.659271653543307
0
LINE
8
BLACK
6
CONTINUOUS
10
-4.5797244094488185
20
5.659271653543307
11
-4.5794361417322831
21
5.6599676377952752
0
LINE
8
BLACK
6
CONTINUOUS
10
-4.5794361417322831
20
5.6599676377952752
11
-4.5787401574803148
21
5.6602559055118107
0
LINE
8
BLACK
6
CONTINUOUS
10
-4.5787401574803148
20
5.6602559055118107
11
-4.5212598425196848
21
5.6602559055118107
0
LINE
8
BLACK
6
CONTINUOUS
10
-4.5777559055118111
20
5.6582874015748033
11
-4.5777559055118111
21
5.5437204724409446
0
LINE
8
BLACK
6
CONTINUOUS
10
-4.5777559055118111
20
5.5437204724409446
11
-4.5222440944881885
21
5.5437204724409446
0
LINE
8
BLACK
6
CONTINUOUS
10
-4.5222440944881885
20
5.5437204724409446
11
-4.5222440944881885
21
5.6582874015748033
0
LINE
8
BLACK
6
CONTINUOUS
10
-4.5222440944881885
20
5.6582874015748033
11
-4.5777559055118111
21
5.6582874015748033
0
LINE
8
BLACK
6
CONTINUOUS
10
-4.3411023622047242
20
5.8232677165354332
11
-4.340406377952756
21
5.8229794488188977
0
LINE
8
BLACK
6
CONTINUOUS
10
-4.340406377952756
20
5.8229794488188977
11
-4.3401181102362205
21
5.8222834645669286
0
LINE
8
BLACK
6
CONTINUOUS
10
-4.3401181102362205
20
5.8222834645669286
11
-4.3401181102362205
21
5.5482677165354328
0
LINE
8
BLACK
6
CONTINUOUS
10
-4.3401181102362205
20
5.5482677165354328
11
-4.340406377952756
21
5.5475717322834646
0
LINE
8
BLACK
6
CONTINUOUS
10
-4.340406377952756
20
5.5475717322834646
11
-4.3411023622047242
21
5.5472834645669291
0
LINE
8
BLACK
6
CONTINUOUS
10
-4.3411023622047242
20
5.5472834645669291
11
-4.4788976377952752
21
5.5472834645669291
0
LINE
8
BLACK
6
CONTINUOUS
10
-4.4788976377952752
20
5.5472834645669291
11
-4.4795936220472443
21
5.5475717322834646
0
LINE
8
BLACK
6
CONTINUOUS
10
-4.4795936220472443
20
5.5475717322834646
11
-4.4798818897637798
21
5.5482677165354328
0
LINE
8
BLACK
6
CONTINUOUS
10
-4.4798818897637798
20
5.5482677165354328
11
-4.4798818897637798
21
5.8222834645669286
0
LINE
8
BLACK
6
CONTINUOUS
10
-4.4798818897637798
20
5.8222834645669286
11
-4.4795936220472443
21
5.8229794488188977
0
LINE
8
BLACK
6
CONTINUOUS
10
-4.4795936220472443
20
5.8229794488188977
11
-4.4788976377952752
21
5.8232677165354332
0
LINE
8
BLACK
6
CONTINUOUS
10
-4.4788976377952752
20
5.8232677165354332
11
-4.3411023622047242
21
5.8232677165354332
0
LINE
8
BLACK
6
CONTINUOUS
10
-4.4779133858267715
20
5.8212992125984249
11
-4.4779133858267715
21
5.5492519685039365
0
LINE
8
BLACK
6
CONTINUOUS
10
-4.4779133858267715
20
5.5492519685039365
11
-4.3420866141732279
21
5.5492519685039365
0
LINE
8
BLACK
6
CONTINUOUS
10
-4.3420866141732279
20
5.5492519685039365
11
-4.3420866141732279
21
5.8212992125984249
0
LINE
8
BLACK
6
CONTINUOUS
10
-4.3420866141732279
20
5.8212992125984249
11
-4.4779133858267715
21
5.8212992125984249
0
LINE
8
BLACK
6
CONTINUOUS
10
-4.5764173228346454
20
5.8454133858267712
11
-4.5757213385826772
21
5.8451251181102357
0
LINE
8
BLACK
6
CONTINUOUS
10
-4.5757213385826772
20
5.8451251181102357
11
-4.5754330708661417
21
5.8444291338582675
0
LINE
8
BLACK
6
CONTINUOUS
10
-4.5754330708661417
20
5.8444291338582675
11
-4.5754330708661417
21
5.7105708661417323
0
LINE
8
BLACK
6
CONTINUOUS
10
-4.5754330708661417
20
5.7105708661417323
11
-4.5757213385826772
21
5.709874881889764
0
LINE
8
BLACK
6
CONTINUOUS
10
-4.5757213385826772
20
5.709874881889764
11
-4.5764173228346454
21
5.7095866141732285
0
LINE
8
BLACK
6
CONTINUOUS
10
-4.5764173228346454
20
5.7095866141732285
11
-4.587086614173228
21
5.7095866141732285
0
LINE
8
BLACK
6
CONTINUOUS
10
-4.587086614173228
20
5.7095866141732285
11
-4.587086614173228
21
5.5492913385826768
0
LINE
8
BLACK
6
CONTINUOUS
10
-4.587086614173228
20
5.5492913385826768
11
-4.5873748818897635
21
5.5485953543307085
0
LINE
8
BLACK
6
CONTINUOUS
10
-4.5873748818897635
20
5.5485953543307085
11
-4.5880708661417318
21
5.548307086614173
0
LINE
8
BLACK
6
CONTINUOUS
10
-4.5880708661417318
20
5.548307086614173
11
-4.7219291338582678
21
5.548307086614173
0
LINE
8
BLACK
6
CONTINUOUS
10
-4.7219291338582678
20
5.548307086614173
11
-4.7226251181102361
21
5.5485953543307085
0
LINE
8
BLACK
6
CONTINUOUS
10
-4.7226251181102361
20
5.5485953543307085
11
-4.7229133858267716
21
5.5492913385826768
0
LINE
8
BLACK
6
CONTINUOUS
10
-4.7229133858267716
20
5.5492913385826768
11
-4.7229133858267716
21
5.710708661417323
0
LINE
8
BLACK
6
CONTINUOUS
10
-4.7229133858267716
20
5.710708661417323
11
-4.7226251181102361
21
5.7114046456692913
0
LINE
8
BLACK
6
CONTINUOUS
10
-4.7226251181102361
20
5.7114046456692913
11
-4.7219291338582678
21
5.7116929133858267
0
LINE
8
BLACK
6
CONTINUOUS
10
-4.7219291338582678
20
5.7116929133858267
11
-4.6545669291338578
21
5.7116929133858267
0
LINE
8
BLACK
6
CONTINUOUS
10
-4.6545669291338578
20
5.7116929133858267
11
-4.6545669291338578
21
5.8444291338582675
0
LINE
8
BLACK
6
CONTINUOUS
10
-4.6545669291338578
20
5.8444291338582675
11
-4.6542786614173224
21
5.8451251181102357
0
LINE
8
BLACK
6
CONTINUOUS
10
-4.6542786614173224
20
5.8451251181102357
11
-4.6535826771653541
21
5.8454133858267712
0
LINE
8
BLACK
6
CONTINUOUS
10
-4.6535826771653541
20
5.8454133858267712
11
-4.5764173228346454
21
5.8454133858267712
0
LINE
8
BLACK
6
CONTINUOUS
10
-4.7209448818897632
20
5.7097244094488184
11
-4.7209448818897632
21
5.5502755905511814
0
LINE
8
BLACK
6
CONTINUOUS
10
-4.7209448818897632
20
5.5502755905511814
11
-4.5890551181102364
21
5.5502755905511814
0
LINE
8
BLACK
6
CONTINUOUS
10
-4.5890551181102364
20
5.5502755905511814
11
-4.5890551181102364
21
5.7095866141732285
0
LINE
8
BLACK
6
CONTINUOUS
10
-4.5890551181102364
20
5.7095866141732285
11
-4.6535826771653541
21
5.7095866141732285
0
LINE
8
BLACK
6
CONTINUOUS
10
-4.6535826771653541
20
5.7095866141732285
11
-4.6539153543307084
21
5.7097244094488184
0
LINE
8
BLACK
6
CONTINUOUS
10
-4.6539153543307084
20
5.7097244094488184
11
-4.7209448818897632
21
5.7097244094488184
0
LINE
8
BLACK
6
CONTINUOUS
10
-4.6525984251968504
20
5.8434448818897637
11
-4.6525984251968504
21
5.7116929133858267
0
LINE
8
BLACK
6
CONTINUOUS
10
-4.6525984251968504
20
5.7116929133858267
11
-4.5880708661417318
21
5.7116929133858267
0
LINE
8
BLACK
6
CONTINUOUS
10
-4.5880708661417318
20
5.7116929133858267
11
-4.5877381889763775
21
5.711555118110236
0
LINE
8
BLACK
6
CONTINUOUS
10
-4.5877381889763775
20
5.711555118110236
11
-4.5774015748031491
21
5.711555118110236
0
LINE
8
BLACK
6
CONTINUOUS
10
-4.5774015748031491
20
5.711555118110236
11
-4.5774015748031491
21
5.8434448818897637
0
LINE
8
BLACK
6
CONTINUOUS
10
-4.5774015748031491
20
5.8434448818897637
11
-4.6525984251968504
21
5.8434448818897637
0
LINE
8
BLACK
6
CONTINUOUS
10
-4.2662598425196849
20
5.819251968503937
11
-4.2655638582677167
21
5.8189637007874015
0
LINE
8
BLACK
6
CONTINUOUS
10
-4.2655638582677167
20
5.8189637007874015
11
-4.2652755905511812
21
5.8182677165354333
0
LINE
8
BLACK
6
CONTINUOUS
10
-4.2652755905511812
20
5.8182677165354333
11
-4.2652755905511812
21
5.7017322834645672
0
LINE
8
BLACK
6
CONTINUOUS
10
-4.2652755905511812
20
5.7017322834645672
11
-4.2655638582677167
21
5.701036299212598
0
LINE
8
BLACK
6
CONTINUOUS
10
-4.2655638582677167
20
5.701036299212598
11
-4.2662598425196849
21
5.7007480314960626
0
LINE
8
BLACK
6
CONTINUOUS
10
-4.2662598425196849
20
5.7007480314960626
11
-4.3237401574803149
21
5.7007480314960626
0
LINE
8
BLACK
6
CONTINUOUS
10
-4.3237401574803149
20
5.7007480314960626
11
-4.3244361417322832
21
5.701036299212598
0
LINE
8
BLACK
6
CONTINUOUS
10
-4.3244361417322832
20
5.701036299212598
11
-4.3247244094488186
21
5.7017322834645672
0
LINE
8
BLACK
6
CONTINUOUS
10
-4.3247244094488186
20
5.7017322834645672
11
-4.3247244094488186
21
5.8182677165354333
0
LINE
8
BLACK
6
CONTINUOUS
10
-4.3247244094488186
20
5.8182677165354333
11
-4.3244361417322832
21
5.8189637007874015
0
LINE
8
BLACK
6
CONTINUOUS
10
-4.3244361417322832
20
5.8189637007874015
11
-4.3237401574803149
21
5.819251968503937
0
LINE
8
BLACK
6
CONTINUOUS
10
-4.3237401574803149
20
5.819251968503937
11
-4.2662598425196849
21
5.819251968503937
0
LINE
8
BLACK
6
CONTINUOUS
10
-4.3227559055118112
20
5.8172834645669287
11
-4.3227559055118112
21
5.7027165354330709
0
LINE
8
BLACK
6
CONTINUOUS
10
-4.3227559055118112
20
5.7027165354330709
11
-4.2672440944881886
21
5.7027165354330709
0
LINE
8
BLACK
6
CONTINUOUS
10
-4.2672440944881886
20
5.7027165354330709
11
-4.2672440944881886
21
5.8172834645669287
0
LINE
8
BLACK
6
CONTINUOUS
10
-4.2672440944881886
20
5.8172834645669287
11
-4.3227559055118112
21
5.8172834645669287
0
LINE
8
BLACK
6
CONTINUOUS
10
-4.5162598425196849
20
5.8232480314960631
11
-4.5155638582677167
21
5.8229597637795276
0
LINE
8
BLACK
6
CONTINUOUS
10
-4.5155638582677167
20
5.8229597637795276
11
-4.5152755905511812
21
5.8222637795275594
0
LINE
8
BLACK
6
CONTINUOUS
10
-4.5152755905511812
20
5.8222637795275594
11
-4.5152755905511812
21
5.7057283464566924
0
LINE
8
BLACK
6
CONTINUOUS
10
-4.5152755905511812
20
5.7057283464566924
11
-4.5155638582677167
21
5.7050323622047241
0
LINE
8
BLACK
6
CONTINUOUS
10
-4.5155638582677167
20
5.7050323622047241
11
-4.5162598425196849
21
5.7047440944881886
0
LINE
8
BLACK
6
CONTINUOUS
10
-4.5162598425196849
20
5.7047440944881886
11
-4.5737401574803149
21
5.7047440944881886
0
LINE
8
BLACK
6
CONTINUOUS
10
-4.5737401574803149
20
5.7047440944881886
11
-4.5744361417322832
21
5.7050323622047241
0
LINE
8
BLACK
6
CONTINUOUS
10
-4.5744361417322832
20
5.7050323622047241
11
-4.5747244094488186
21
5.7057283464566924
0
LINE
8
BLACK
6
CONTINUOUS
10
-4.5747244094488186
20
5.7057283464566924
11
-4.5747244094488186
21
5.8222637795275594
0
LINE
8
BLACK
6
CONTINUOUS
10
-4.5747244094488186
20
5.8222637795275594
11
-4.5744361417322832
21
5.8229597637795276
0
LINE
8
BLACK
6
CONTINUOUS
10
-4.5744361417322832
20
5.8229597637795276
11
-4.5737401574803149
21
5.8232480314960631
0
LINE
8
BLACK
6
CONTINUOUS
10
-4.5737401574803149
20
5.8232480314960631
11
-4.5162598425196849
21
5.8232480314960631
0
LINE
8
BLACK
6
CONTINUOUS
10
-4.5727559055118112
20
5.8212795275590548
11
-4.5727559055118112
21
5.706712598425197
0
LINE
8
BLACK
6
CONTINUOUS
10
-4.5727559055118112
20
5.706712598425197
11
-4.5172440944881886
21
5.706712598425197
0
LINE
8
BLACK
6
CONTINUOUS
10
-4.5172440944881886
20
5.706712598425197
11
-4.5172440944881886
21
5.8212795275590548
0
LINE
8
BLACK
6
CONTINUOUS
10
-4.5172440944881886
20
5.8212795275590548
11
-4.5727559055118112
21
5.8212795275590548
0
LINE
8
BLACK
6
CONTINUOUS
10
-4.67244094488189
20
5.8376377952755902
11
-4.6717449606299208
21
5.8373495275590548
0
LINE
8
BLACK
6
CONTINUOUS
10
-4.6717449606299208
20
5.8373495275590548
11
-4.6714566929133854
21
5.8366535433070865
0
LINE
8
BLACK
6
CONTINUOUS
10
-4.6714566929133854
20
5.8366535433070865
11
-4.6714566929133854
21
5.738228346456693
0
LINE
8
BLACK
6
CONTINUOUS
10
-4.6714566929133854
20
5.738228346456693
11
-4.6717449606299208
21
5.7375323622047238
0
LINE
8
BLACK
6
CONTINUOUS
10
-4.6717449606299208
20
5.7375323622047238
11
-4.67244094488189
21
5.7372440944881893
0
LINE
8
BLACK
6
CONTINUOUS
10
-4.67244094488189
20
5.7372440944881893
11
-4.7275590551181104
21
5.7372440944881893
0
LINE
8
BLACK
6
CONTINUOUS
10
-4.7275590551181104
20
5.7372440944881893
11
-4.7282550393700786
21
5.7375323622047238
0
LINE
8
BLACK
6
CONTINUOUS
10
-4.7282550393700786
20
5.7375323622047238
11
-4.7285433070866141
21
5.738228346456693
0
LINE
8
BLACK
6
CONTINUOUS
10
-4.7285433070866141
20
5.738228346456693
11
-4.7285433070866141
21
5.8366535433070865
0
LINE
8
BLACK
6
CONTINUOUS
10
-4.7285433070866141
20
5.8366535433070865
11
-4.7282550393700786
21
5.8373495275590548
0
LINE
8
BLACK
6
CONTINUOUS
10
-4.7282550393700786
20
5.8373495275590548
11
-4.7275590551181104
21
5.8376377952755902
0
LINE
8
BLACK
6
CONTINUOUS
10
-4.7275590551181104
20
5.8376377952755902
11
-4.67244094488189
21
5.8376377952755902
0
LINE
8
BLACK
6
CONTINUOUS
10
-4.7265748031496058
20
5.8356692913385828
11
-4.7265748031496058
21
5.7392125984251967
0
LINE
8
BLACK
6
CONTINUOUS
10
-4.7265748031496058
20
5.7392125984251967
11
-4.6734251968503937
21
5.7392125984251967
0
LINE
8
BLACK
6
CONTINUOUS
10
-4.6734251968503937
20
5.7392125984251967
11
-4.6734251968503937
21
5.8356692913385828
0
LINE
8
BLACK
6
CONTINUOUS
10
-4.6734251968503937
20
5.8356692913385828
11
-4.7265748031496058
21
5.8356692913385828
0
LINE
8
BLACK
6
CONTINUOUS
10
-4.3612598425196847
20
5.9432480314960632
11
-4.3605638582677164
21
5.9429597637795277
0
LINE
8
BLACK
6
CONTINUOUS
10
-4.3605638582677164
20
5.9429597637795277
11
-4.360275590551181
21
5.9422637795275586
0
LINE
8
BLACK
6
CONTINUOUS
10
-4.360275590551181
20
5.9422637795275586
11
-4.360275590551181
21
5.8257283464566925
0
LINE
8
BLACK
6
CONTINUOUS
10
-4.360275590551181
20
5.8257283464566925
11
-4.3605638582677164
21
5.8250323622047242
0
LINE
8
BLACK
6
CONTINUOUS
10
-4.3605638582677164
20
5.8250323622047242
11
-4.3612598425196847
21
5.8247440944881888
0
LINE
8
BLACK
6
CONTINUOUS
10
-4.3612598425196847
20
5.8247440944881888
11
-4.4187401574803147
21
5.8247440944881888
0
LINE
8
BLACK
6
CONTINUOUS
10
-4.4187401574803147
20
5.8247440944881888
11
-4.4194361417322829
21
5.8250323622047242
0
LINE
8
BLACK
6
CONTINUOUS
10
-4.4194361417322829
20
5.8250323622047242
11
-4.4197244094488184
21
5.8257283464566925
0
LINE
8
BLACK
6
CONTINUOUS
10
-4.4197244094488184
20
5.8257283464566925
11
-4.4197244094488184
21
5.9422637795275586
0
LINE
8
BLACK
6
CONTINUOUS
10
-4.4197244094488184
20
5.9422637795275586
11
-4.4194361417322829
21
5.9429597637795277
0
LINE
8
BLACK
6
CONTINUOUS
10
-4.4194361417322829
20
5.9429597637795277
11
-4.4187401574803147
21
5.9432480314960632
0
LINE
8
BLACK
6
CONTINUOUS
10
-4.4187401574803147
20
5.9432480314960632
11
-4.3612598425196847
21
5.9432480314960632
0
LINE
8
BLACK
6
CONTINUOUS
10
-4.417755905511811
20
5.9412795275590549
11
-4.417755905511811
21
5.8267125984251971
0
LINE
8
BLACK
6
CONTINUOUS
10
-4.417755905511811
20
5.8267125984251971
11
-4.3622440944881893
21
5.8267125984251971
0
LINE
8
BLACK
6
CONTINUOUS
10
-4.3622440944881893
20
5.8267125984251971
11
-4.3622440944881893
21
5.9412795275590549
0
LINE
8
BLACK
6
CONTINUOUS
10
-4.3622440944881893
20
5.9412795275590549
11
-4.417755905511811
21
5.9412795275590549
0
LINE
8
BLACK
6
CONTINUOUS
10
-4.2812598425196846
20
5.9432480314960632
11
-4.2805638582677163
21
5.9429597637795277
0
LINE
8
BLACK
6
CONTINUOUS
10
-4.2805638582677163
20
5.9429597637795277
11
-4.2802755905511809
21
5.9422637795275586
0
LINE
8
BLACK
6
CONTINUOUS
10
-4.2802755905511809
20
5.9422637795275586
11
-4.2802755905511809
21
5.8257283464566925
0
LINE
8
BLACK
6
CONTINUOUS
10
-4.2802755905511809
20
5.8257283464566925
11
-4.2805638582677163
21
5.8250323622047242
0
LINE
8
BLACK
6
CONTINUOUS
10
-4.2805638582677163
20
5.8250323622047242
11
-4.2812598425196846
21
5.8247440944881888
0
LINE
8
BLACK
6
CONTINUOUS
10
-4.2812598425196846
20
5.8247440944881888
11
-4.3387401574803146
21
5.8247440944881888
0
LINE
8
BLACK
6
CONTINUOUS
10
-4.3387401574803146
20
5.8247440944881888
11
-4.3394361417322838
21
5.8250323622047242
0
LINE
8
BLACK
6
CONTINUOUS
10
-4.3394361417322838
20
5.8250323622047242
11
-4.3397244094488192
21
5.8257283464566925
0
LINE
8
BLACK
6
CONTINUOUS
10
-4.3397244094488192
20
5.8257283464566925
11
-4.3397244094488192
21
5.9422637795275586
0
LINE
8
BLACK
6
CONTINUOUS
10
-4.3397244094488192
20
5.9422637795275586
11
-4.3394361417322838
21
5.9429597637795277
0
LINE
8
BLACK
6
CONTINUOUS
10
-4.3394361417322838
20
5.9429597637795277
11
-4.3387401574803146
21
5.9432480314960632
0
LINE
8
BLACK
6
CONTINUOUS
10
-4.3387401574803146
20
5.9432480314960632
11
-4.2812598425196846
21
5.9432480314960632
0
LINE
8
BLACK
6
CONTINUOUS
10
-4.3377559055118109
20
5.9412795275590549
11
-4.3377559055118109
21
5.8267125984251971
0
LINE
8
BLACK
6
CONTINUOUS
10
-4.3377559055118109
20
5.8267125984251971
11
-4.2822440944881892
21
5.8267125984251971
0
LINE
8
BLACK
6
CONTINUOUS
10
-4.2822440944881892
20
5.8267125984251971
11
-4.2822440944881892
21
5.9412795275590549
0
LINE
8
BLACK
6
CONTINUOUS
10
-4.2822440944881892
20
5.9412795275590549
11
-4.3377559055118109
21
5.9412795275590549
0
LINE
8
BLACK
6
CONTINUOUS
10
-4.4307283464566929
20
5.9197244094488184
11
-4.4300323622047246
21
5.9194361417322829
0
LINE
8
BLACK
6
CONTINUOUS
10
-4.4300323622047246
20
5.9194361417322829
11
-4.4297440944881892
21
5.9187401574803147
0
LINE
8
BLACK
6
CONTINUOUS
10
-4.4297440944881892
20
5.9187401574803147
11
-4.4297440944881892
21
5.8612598425196847
0
LINE
8
BLACK
6
CONTINUOUS
10
-4.4297440944881892
20
5.8612598425196847
11
-4.4300323622047246
21
5.8605638582677164
0
LINE
8
BLACK
6
CONTINUOUS
10
-4.4300323622047246
20
5.8605638582677164
11
-4.4307283464566929
21
5.860275590551181
0
LINE
8
BLACK
6
CONTINUOUS
10
-4.4307283464566929
20
5.860275590551181
11
-4.547263779527559
21
5.860275590551181
0
LINE
8
BLACK
6
CONTINUOUS
10
-4.547263779527559
20
5.860275590551181
11
-4.5479597637795273
21
5.8605638582677164
0
LINE
8
BLACK
6
CONTINUOUS
10
-4.5479597637795273
20
5.8605638582677164
11
-4.5482480314960627
21
5.8612598425196847
0
LINE
8
BLACK
6
CONTINUOUS
10
-4.5482480314960627
20
5.8612598425196847
11
-4.5482480314960627
21
5.9187401574803147
0
LINE
8
BLACK
6
CONTINUOUS
10
-4.5482480314960627
20
5.9187401574803147
11
-4.5479597637795273
21
5.9194361417322829
0
LINE
8
BLACK
6
CONTINUOUS
10
-4.5479597637795273
20
5.9194361417322829
11
-4.547263779527559
21
5.9197244094488184
0
LINE
8
BLACK
6
CONTINUOUS
10
-4.547263779527559
20
5.9197244094488184
11
-4.4307283464566929
21
5.9197244094488184
0
LINE
8
BLACK
6
CONTINUOUS
10
-4.5462795275590553
20
5.917755905511811
11
-4.5462795275590553
21
5.8622440944881893
0
LINE
8
BLACK
6
CONTINUOUS
10
-4.5462795275590553
20
5.8622440944881893
11
-4.4317125984251966
21
5.8622440944881893
0
LINE
8
BLACK
6
CONTINUOUS
10
-4.4317125984251966
20
5.8622440944881893
11
-4.4317125984251966
21
5.917755905511811
0
LINE
8
BLACK
6
CONTINUOUS
10
-4.4317125984251966
20
5.917755905511811
11
-4.5462795275590553
21
5.917755905511811
  0
ENDSEC
  0
EOF
