  0
SECTION
  2
HEADER
  9
$ANGBASE
  50
0.0
  9
$ANGDIR
  70
1
  9
$MEASUREMENT
  70
0
  0
ENDSEC
  0
SECTION
  2
TABLES
  0
TABLE
  2
LTYPE
  70
4
  0
LTYPE
  5
40F
  2
CONTINUOUS
  70
0
  3
Solid line
  72
65
  73
0
  40
0.0
  0
LTYPE
  5
410
  2
DASHDOT
 70
0
  3
Dash Dot ____ _ ____ _
 72
65
 73
4
 40
2.0
 49
1.25
 49
-0.25
 49
0.25
 49
-0.25
  0
LTYPE
  5
411
  2
DASHED
 70
0
  3
Dashed __ __ __ __ __
 72
65
 73
2
 40
0.75
 49
0.5
 49
-0.25
  0
LTYPE
  5
43B
  2
DOTTED
 70
0
  3
Dotted .  .  .  .
 72
65
 73
2
 40
0.2
 49
0.0
 49
-0.2
  0
ENDTAB
  0
TABLE
  2
STYLE
  70
4
  0
STYLE
  2
KICAD
  70
0
  40
0
  41
1
  42
1
  50
0
  71
0
  3
isocp.shx
  0
STYLE
  2
KICADB
  70
0
  40
0
  41
1
  42
1
  50
0
  71
0
  3
isocp.shx
  0
STYLE
  2
KICADI
  70
0
  40
0
  41
1
  42
1
  50
15
  71
0
  3
isocp.shx
  0
STYLE
  2
KICADBI
  70
0
  40
0
  41
1
  42
1
  50
15
  71
0
  3
isocp.shx
  0
ENDTAB
  0
TABLE
  2
LAYER
  70
1
  0
LAYER
  2
BLACK
  70
0
  62
7
  6
CONTINUOUS
  0
ENDTAB
  0
ENDSEC
  0
SECTION
  2
ENTITIES
0
LINE
8
BLACK
6
CONTINUOUS
10
-4.4789888188976379
20
5.4710994488188973
11
-4.4782969291338581
21
5.4694291338582675
0
LINE
8
BLACK
6
CONTINUOUS
10
-4.4782969291338581
20
5.4694291338582675
11
-4.4789888188976379
21
5.4677588188976376
0
LINE
8
BLACK
6
CONTINUOUS
10
-4.4789888188976379
20
5.4677588188976376
11
-4.4806591338582678
21
5.4670669291338578
0
LINE
8
BLACK
6
CONTINUOUS
10
-4.4806591338582678
20
5.4670669291338578
11
-4.4993408661417318
21
5.4670669291338578
0
LINE
8
BLACK
6
CONTINUOUS
10
-4.4993408661417318
20
5.4670669291338578
11
-4.5010111811023625
21
5.4677588188976376
0
LINE
8
BLACK
6
CONTINUOUS
10
-4.5010111811023625
20
5.4677588188976376
11
-4.5017030708661414
21
5.4694291338582675
0
LINE
8
BLACK
6
CONTINUOUS
10
-4.5017030708661414
20
5.4694291338582675
11
-4.5010111811023625
21
5.4710994488188973
0
LINE
8
BLACK
6
CONTINUOUS
10
-4.5010111811023625
20
5.4710994488188973
11
-4.4993408661417318
21
5.4717913385826771
0
LINE
8
BLACK
6
CONTINUOUS
10
-4.4993408661417318
20
5.4717913385826771
11
-4.4806591338582678
21
5.4717913385826771
0
LINE
8
BLACK
6
CONTINUOUS
10
-4.4806591338582678
20
5.4717913385826771
11
-4.4789888188976379
21
5.4710994488188973
0
LINE
8
BLACK
6
CONTINUOUS
10
-4.4089005511811026
20
5.4960111811023618
11
-4.4082086614173228
21
5.4943408661417319
0
LINE
8
BLACK
6
CONTINUOUS
10
-4.4082086614173228
20
5.4943408661417319
11
-4.4082086614173228
21
5.4756591338582679
0
LINE
8
BLACK
6
CONTINUOUS
10
-4.4082086614173228
20
5.4756591338582679
11
-4.4089005511811026
21
5.473988818897638
0
LINE
8
BLACK
6
CONTINUOUS
10
-4.4089005511811026
20
5.473988818897638
11
-4.4105708661417324
21
5.4732969291338582
0
LINE
8
BLACK
6
CONTINUOUS
10
-4.4105708661417324
20
5.4732969291338582
11
-4.4122411811023623
21
5.473988818897638
0
LINE
8
BLACK
6
CONTINUOUS
10
-4.4122411811023623
20
5.473988818897638
11
-4.4129330708661421
21
5.4756591338582679
0
LINE
8
BLACK
6
CONTINUOUS
10
-4.4129330708661421
20
5.4756591338582679
11
-4.4129330708661421
21
5.4943408661417319
0
LINE
8
BLACK
6
CONTINUOUS
10
-4.4129330708661421
20
5.4943408661417319
11
-4.4122411811023623
21
5.4960111811023618
0
LINE
8
BLACK
6
CONTINUOUS
10
-4.4122411811023623
20
5.4960111811023618
11
-4.4105708661417324
21
5.4967030708661415
0
LINE
8
BLACK
6
CONTINUOUS
10
-4.4105708661417324
20
5.4967030708661415
11
-4.4089005511811026
21
5.4960111811023618
0
LINE
8
BLACK
6
CONTINUOUS
10
-4.367758818897638
20
5.4960111811023618
11
-4.3670669291338582
21
5.4943408661417319
0
LINE
8
BLACK
6
CONTINUOUS
10
-4.3670669291338582
20
5.4943408661417319
11
-4.3670669291338582
21
5.4756591338582679
0
LINE
8
BLACK
6
CONTINUOUS
10
-4.3670669291338582
20
5.4756591338582679
11
-4.367758818897638
21
5.473988818897638
0
LINE
8
BLACK
6
CONTINUOUS
10
-4.367758818897638
20
5.473988818897638
11
-4.3694291338582678
21
5.4732969291338582
0
LINE
8
BLACK
6
CONTINUOUS
10
-4.3694291338582678
20
5.4732969291338582
11
-4.3710994488188977
21
5.473988818897638
0
LINE
8
BLACK
6
CONTINUOUS
10
-4.3710994488188977
20
5.473988818897638
11
-4.3717913385826774
21
5.4756591338582679
0
LINE
8
BLACK
6
CONTINUOUS
10
-4.3717913385826774
20
5.4756591338582679
11
-4.3717913385826774
21
5.4943408661417319
0
LINE
8
BLACK
6
CONTINUOUS
10
-4.3717913385826774
20
5.4943408661417319
11
-4.3710994488188977
21
5.4960111811023618
0
LINE
8
BLACK
6
CONTINUOUS
10
-4.3710994488188977
20
5.4960111811023618
11
-4.3694291338582678
21
5.4967030708661415
0
LINE
8
BLACK
6
CONTINUOUS
10
-4.3694291338582678
20
5.4967030708661415
11
-4.367758818897638
21
5.4960111811023618
0
LINE
8
BLACK
6
CONTINUOUS
10
-4.3289005511811025
20
5.4960111811023618
11
-4.3282086614173227
21
5.4943408661417319
0
LINE
8
BLACK
6
CONTINUOUS
10
-4.3282086614173227
20
5.4943408661417319
11
-4.3282086614173227
21
5.4756591338582679
0
LINE
8
BLACK
6
CONTINUOUS
10
-4.3282086614173227
20
5.4756591338582679
11
-4.3289005511811025
21
5.473988818897638
0
LINE
8
BLACK
6
CONTINUOUS
10
-4.3289005511811025
20
5.473988818897638
11
-4.3305708661417324
21
5.4732969291338582
0
LINE
8
BLACK
6
CONTINUOUS
10
-4.3305708661417324
20
5.4732969291338582
11
-4.3322411811023622
21
5.473988818897638
0
LINE
8
BLACK
6
CONTINUOUS
10
-4.3322411811023622
20
5.473988818897638
11
-4.332933070866142
21
5.4756591338582679
0
LINE
8
BLACK
6
CONTINUOUS
10
-4.332933070866142
20
5.4756591338582679
11
-4.332933070866142
21
5.4943408661417319
0
LINE
8
BLACK
6
CONTINUOUS
10
-4.332933070866142
20
5.4943408661417319
11
-4.3322411811023622
21
5.4960111811023618
0
LINE
8
BLACK
6
CONTINUOUS
10
-4.3322411811023622
20
5.4960111811023618
11
-4.3305708661417324
21
5.4967030708661415
0
LINE
8
BLACK
6
CONTINUOUS
10
-4.3305708661417324
20
5.4967030708661415
11
-4.3289005511811025
21
5.4960111811023618
0
LINE
8
BLACK
6
CONTINUOUS
10
-4.2877588188976379
20
5.4960111811023618
11
-4.2870669291338581
21
5.4943408661417319
0
LINE
8
BLACK
6
CONTINUOUS
10
-4.2870669291338581
20
5.4943408661417319
11
-4.2870669291338581
21
5.4756591338582679
0
LINE
8
BLACK
6
CONTINUOUS
10
-4.2870669291338581
20
5.4756591338582679
11
-4.2877588188976379
21
5.473988818897638
0
LINE
8
BLACK
6
CONTINUOUS
10
-4.2877588188976379
20
5.473988818897638
11
-4.2894291338582677
21
5.4732969291338582
0
LINE
8
BLACK
6
CONTINUOUS
10
-4.2894291338582677
20
5.4732969291338582
11
-4.2910994488188976
21
5.473988818897638
0
LINE
8
BLACK
6
CONTINUOUS
10
-4.2910994488188976
20
5.473988818897638
11
-4.2917913385826774
21
5.4756591338582679
0
LINE
8
BLACK
6
CONTINUOUS
10
-4.2917913385826774
20
5.4756591338582679
11
-4.2917913385826774
21
5.4943408661417319
0
LINE
8
BLACK
6
CONTINUOUS
10
-4.2917913385826774
20
5.4943408661417319
11
-4.2910994488188976
21
5.4960111811023618
0
LINE
8
BLACK
6
CONTINUOUS
10
-4.2910994488188976
20
5.4960111811023618
11
-4.2894291338582677
21
5.4967030708661415
0
LINE
8
BLACK
6
CONTINUOUS
10
-4.2894291338582677
20
5.4967030708661415
11
-4.2877588188976379
21
5.4960111811023618
0
LINE
8
BLACK
6
CONTINUOUS
10
-4.4789888188976379
20
5.5122411811023619
11
-4.4782969291338581
21
5.5105708661417321
0
LINE
8
BLACK
6
CONTINUOUS
10
-4.4782969291338581
20
5.5105708661417321
11
-4.4789888188976379
21
5.5089005511811022
0
LINE
8
BLACK
6
CONTINUOUS
10
-4.4789888188976379
20
5.5089005511811022
11
-4.4806591338582678
21
5.5082086614173225
0
LINE
8
BLACK
6
CONTINUOUS
10
-4.4806591338582678
20
5.5082086614173225
11
-4.4993408661417318
21
5.5082086614173225
0
LINE
8
BLACK
6
CONTINUOUS
10
-4.4993408661417318
20
5.5082086614173225
11
-4.5010111811023625
21
5.5089005511811022
0
LINE
8
BLACK
6
CONTINUOUS
10
-4.5010111811023625
20
5.5089005511811022
11
-4.5017030708661414
21
5.5105708661417321
0
LINE
8
BLACK
6
CONTINUOUS
10
-4.5017030708661414
20
5.5105708661417321
11
-4.5010111811023625
21
5.5122411811023619
0
LINE
8
BLACK
6
CONTINUOUS
10
-4.5010111811023625
20
5.5122411811023619
11
-4.4993408661417318
21
5.5129330708661417
0
LINE
8
BLACK
6
CONTINUOUS
10
-4.4993408661417318
20
5.5129330708661417
11
-4.4806591338582678
21
5.5129330708661417
0
LINE
8
BLACK
6
CONTINUOUS
10
-4.4806591338582678
20
5.5129330708661417
11
-4.4789888188976379
21
5.5122411811023619
0
LINE
8
BLACK
6
CONTINUOUS
10
-4.7717942519685037
20
5.5910797637795273
11
-4.7711023622047239
21
5.5894094488188975
0
LINE
8
BLACK
6
CONTINUOUS
10
-4.7711023622047239
20
5.5894094488188975
11
-4.7717942519685037
21
5.5877391338582676
0
LINE
8
BLACK
6
CONTINUOUS
10
-4.7717942519685037
20
5.5877391338582676
11
-4.7734645669291336
21
5.5870472440944878
0
LINE
8
BLACK
6
CONTINUOUS
10
-4.7734645669291336
20
5.5870472440944878
11
-4.81007874015748
21
5.5870472440944878
0
LINE
8
BLACK
6
CONTINUOUS
10
-4.81007874015748
20
5.5870472440944878
11
-4.81007874015748
21
5.5185433070866141
0
LINE
8
BLACK
6
CONTINUOUS
10
-4.81007874015748
20
5.5185433070866141
11
-4.8107706299212598
21
5.5168729921259843
0
LINE
8
BLACK
6
CONTINUOUS
10
-4.8107706299212598
20
5.5168729921259843
11
-4.8124409448818897
21
5.5161811023622045
0
LINE
8
BLACK
6
CONTINUOUS
10
-4.8124409448818897
20
5.5161811023622045
11
-4.8695275590551184
21
5.5161811023622045
0
LINE
8
BLACK
6
CONTINUOUS
10
-4.8695275590551184
20
5.5161811023622045
11
-4.8711978740157482
21
5.5168729921259843
0
LINE
8
BLACK
6
CONTINUOUS
10
-4.8711978740157482
20
5.5168729921259843
11
-4.8718897637795271
21
5.5185433070866141
0
LINE
8
BLACK
6
CONTINUOUS
10
-4.8718897637795271
20
5.5185433070866141
11
-4.8711978740157482
21
5.520213622047244
0
LINE
8
BLACK
6
CONTINUOUS
10
-4.8711978740157482
20
5.520213622047244
11
-4.8695275590551184
21
5.5209055118110237
0
LINE
8
BLACK
6
CONTINUOUS
10
-4.8695275590551184
20
5.5209055118110237
11
-4.8148031496062993
21
5.5209055118110237
0
LINE
8
BLACK
6
CONTINUOUS
10
-4.8148031496062993
20
5.5209055118110237
11
-4.8148031496062993
21
5.5894094488188975
0
LINE
8
BLACK
6
CONTINUOUS
10
-4.8148031496062993
20
5.5894094488188975
11
-4.8141112598425195
21
5.5910797637795273
0
LINE
8
BLACK
6
CONTINUOUS
10
-4.8141112598425195
20
5.5910797637795273
11
-4.8124409448818897
21
5.5917716535433071
0
LINE
8
BLACK
6
CONTINUOUS
10
-4.8124409448818897
20
5.5917716535433071
11
-4.7734645669291336
21
5.5917716535433071
0
LINE
8
BLACK
6
CONTINUOUS
10
-4.7734645669291336
20
5.5917716535433071
11
-4.7717942519685037
21
5.5910797637795273
0
LINE
8
BLACK
6
CONTINUOUS
10
-4.181636771653543
20
5.5910797637795273
11
-4.1809448818897641
21
5.5894094488188975
0
LINE
8
BLACK
6
CONTINUOUS
10
-4.1809448818897641
20
5.5894094488188975
11
-4.1809448818897641
21
5.5209055118110237
0
LINE
8
BLACK
6
CONTINUOUS
10
-4.1809448818897641
20
5.5209055118110237
11
-4.126220472440945
21
5.5209055118110237
0
LINE
8
BLACK
6
CONTINUOUS
10
-4.126220472440945
20
5.5209055118110237
11
-4.1245501574803152
21
5.520213622047244
0
LINE
8
BLACK
6
CONTINUOUS
10
-4.1245501574803152
20
5.520213622047244
11
-4.1238582677165354
21
5.5185433070866141
0
LINE
8
BLACK
6
CONTINUOUS
10
-4.1238582677165354
20
5.5185433070866141
11
-4.1245501574803152
21
5.5168729921259843
0
LINE
8
BLACK
6
CONTINUOUS
10
-4.1245501574803152
20
5.5168729921259843
11
-4.126220472440945
21
5.5161811023622045
0
LINE
8
BLACK
6
CONTINUOUS
10
-4.126220472440945
20
5.5161811023622045
11
-4.1833070866141728
21
5.5161811023622045
0
LINE
8
BLACK
6
CONTINUOUS
10
-4.1833070866141728
20
5.5161811023622045
11
-4.1849774015748027
21
5.5168729921259843
0
LINE
8
BLACK
6
CONTINUOUS
10
-4.1849774015748027
20
5.5168729921259843
11
-4.1856692913385825
21
5.5185433070866141
0
LINE
8
BLACK
6
CONTINUOUS
10
-4.1856692913385825
20
5.5185433070866141
11
-4.1856692913385825
21
5.5894094488188975
0
LINE
8
BLACK
6
CONTINUOUS
10
-4.1856692913385825
20
5.5894094488188975
11
-4.1849774015748027
21
5.5910797637795273
0
LINE
8
BLACK
6
CONTINUOUS
10
-4.1849774015748027
20
5.5910797637795273
11
-4.1833070866141728
21
5.5917716535433071
0
LINE
8
BLACK
6
CONTINUOUS
10
-4.1833070866141728
20
5.5917716535433071
11
-4.181636771653543
21
5.5910797637795273
0
LINE
8
BLACK
6
CONTINUOUS
10
-4.5919123622047247
20
5.6631663779527557
11
-4.5912204724409449
21
5.6614960629921258
0
LINE
8
BLACK
6
CONTINUOUS
10
-4.5912204724409449
20
5.6614960629921258
11
-4.5912204724409449
21
5.6299999999999999
0
LINE
8
BLACK
6
CONTINUOUS
10
-4.5912204724409449
20
5.6299999999999999
11
-4.5912204724409449
21
5.5591338582677166
0
LINE
8
BLACK
6
CONTINUOUS
10
-4.5912204724409449
20
5.5591338582677166
11
-4.5919123622047247
21
5.5574635433070867
0
LINE
8
BLACK
6
CONTINUOUS
10
-4.5919123622047247
20
5.5574635433070867
11
-4.5935826771653545
21
5.5567716535433069
0
LINE
8
BLACK
6
CONTINUOUS
10
-4.5935826771653545
20
5.5567716535433069
11
-4.5952529921259844
21
5.5574635433070867
0
LINE
8
BLACK
6
CONTINUOUS
10
-4.5952529921259844
20
5.5574635433070867
11
-4.5959448818897632
21
5.5591338582677166
0
LINE
8
BLACK
6
CONTINUOUS
10
-4.5959448818897632
20
5.5591338582677166
11
-4.5959448818897632
21
5.6299999999999999
0
LINE
8
BLACK
6
CONTINUOUS
10
-4.5959448818897632
20
5.6299999999999999
11
-4.5959448818897632
21
5.6614960629921258
0
LINE
8
BLACK
6
CONTINUOUS
10
-4.5959448818897632
20
5.6614960629921258
11
-4.5952529921259844
21
5.6631663779527557
0
LINE
8
BLACK
6
CONTINUOUS
10
-4.5952529921259844
20
5.6631663779527557
11
-4.5935826771653545
21
5.6638582677165354
0
LINE
8
BLACK
6
CONTINUOUS
10
-4.5935826771653545
20
5.6638582677165354
11
-4.5919123622047247
21
5.6631663779527557
0
LINE
8
BLACK
6
CONTINUOUS
10
-4.3445501574803149
20
5.686945905511811
11
-4.3438582677165352
21
5.6852755905511811
0
LINE
8
BLACK
6
CONTINUOUS
10
-4.3438582677165352
20
5.6852755905511811
11
-4.3438582677165352
21
5.5671653543307089
0
LINE
8
BLACK
6
CONTINUOUS
10
-4.3438582677165352
20
5.5671653543307089
11
-4.3445501574803149
21
5.5654950393700791
0
LINE
8
BLACK
6
CONTINUOUS
10
-4.3445501574803149
20
5.5654950393700791
11
-4.3462204724409448
21
5.5648031496062993
0
LINE
8
BLACK
6
CONTINUOUS
10
-4.3462204724409448
20
5.5648031496062993
11
-4.3478907874015746
21
5.5654950393700791
0
LINE
8
BLACK
6
CONTINUOUS
10
-4.3478907874015746
20
5.5654950393700791
11
-4.3485826771653544
21
5.5671653543307089
0
LINE
8
BLACK
6
CONTINUOUS
10
-4.3485826771653544
20
5.5671653543307089
11
-4.3485826771653544
21
5.6852755905511811
0
LINE
8
BLACK
6
CONTINUOUS
10
-4.3485826771653544
20
5.6852755905511811
11
-4.3478907874015746
21
5.686945905511811
0
LINE
8
BLACK
6
CONTINUOUS
10
-4.3478907874015746
20
5.686945905511811
11
-4.3462204724409448
21
5.6876377952755908
0
LINE
8
BLACK
6
CONTINUOUS
10
-4.3462204724409448
20
5.6876377952755908
11
-4.3445501574803149
21
5.686945905511811
0
LINE
8
BLACK
6
CONTINUOUS
10
-4.9788808661417319
20
5.8036781889763782
11
-4.978188976377953
21
5.8020078740157475
0
LINE
8
BLACK
6
CONTINUOUS
10
-4.978188976377953
20
5.8020078740157475
11
-4.978188976377953
21
5.5685433070866139
0
LINE
8
BLACK
6
CONTINUOUS
10
-4.978188976377953
20
5.5685433070866139
11
-4.9788808661417319
21
5.5668729921259841
0
LINE
8
BLACK
6
CONTINUOUS
10
-4.9788808661417319
20
5.5668729921259841
11
-4.9805511811023617
21
5.5661811023622043
0
LINE
8
BLACK
6
CONTINUOUS
10
-4.9805511811023617
20
5.5661811023622043
11
-4.9822214960629916
21
5.5668729921259841
0
LINE
8
BLACK
6
CONTINUOUS
10
-4.9822214960629916
20
5.5668729921259841
11
-4.9829133858267713
21
5.5685433070866139
0
LINE
8
BLACK
6
CONTINUOUS
10
-4.9829133858267713
20
5.5685433070866139
11
-4.9829133858267713
21
5.8020078740157475
0
LINE
8
BLACK
6
CONTINUOUS
10
-4.9829133858267713
20
5.8020078740157475
11
-4.9822214960629916
21
5.8036781889763782
0
LINE
8
BLACK
6
CONTINUOUS
10
-4.9822214960629916
20
5.8036781889763782
11
-4.9805511811023617
21
5.8043700787401571
0
LINE
8
BLACK
6
CONTINUOUS
10
-4.9805511811023617
20
5.8043700787401571
11
-4.9788808661417319
21
5.8036781889763782
0
LINE
8
BLACK
6
CONTINUOUS
10
-4.0135265354330709
20
5.8036781889763782
11
-4.0128346456692912
21
5.8020078740157475
0
LINE
8
BLACK
6
CONTINUOUS
10
-4.0128346456692912
20
5.8020078740157475
11
-4.0128346456692912
21
5.5685433070866139
0
LINE
8
BLACK
6
CONTINUOUS
10
-4.0128346456692912
20
5.5685433070866139
11
-4.0135265354330709
21
5.5668729921259841
0
LINE
8
BLACK
6
CONTINUOUS
10
-4.0135265354330709
20
5.5668729921259841
11
-4.0151968503937008
21
5.5661811023622043
0
LINE
8
BLACK
6
CONTINUOUS
10
-4.0151968503937008
20
5.5661811023622043
11
-4.0168671653543306
21
5.5668729921259841
0
LINE
8
BLACK
6
CONTINUOUS
10
-4.0168671653543306
20
5.5668729921259841
11
-4.0175590551181104
21
5.5685433070866139
0
LINE
8
BLACK
6
CONTINUOUS
10
-4.0175590551181104
20
5.5685433070866139
11
-4.0175590551181104
21
5.8020078740157475
0
LINE
8
BLACK
6
CONTINUOUS
10
-4.0175590551181104
20
5.8020078740157475
11
-4.0168671653543306
21
5.8036781889763782
0
LINE
8
BLACK
6
CONTINUOUS
10
-4.0168671653543306
20
5.8036781889763782
11
-4.0151968503937008
21
5.8043700787401571
0
LINE
8
BLACK
6
CONTINUOUS
10
-4.0151968503937008
20
5.8043700787401571
11
-4.0135265354330709
21
5.8036781889763782
0
LINE
8
BLACK
6
CONTINUOUS
10
-4.5689005511811018
20
5.6120151181102358
11
-4.568208661417323
21
5.6103448031496059
0
LINE
8
BLACK
6
CONTINUOUS
10
-4.568208661417323
20
5.6103448031496059
11
-4.568208661417323
21
5.5916630708661419
0
LINE
8
BLACK
6
CONTINUOUS
10
-4.568208661417323
20
5.5916630708661419
11
-4.5689005511811018
21
5.589992755905512
0
LINE
8
BLACK
6
CONTINUOUS
10
-4.5689005511811018
20
5.589992755905512
11
-4.5705708661417326
21
5.5893008661417323
0
LINE
8
BLACK
6
CONTINUOUS
10
-4.5705708661417326
20
5.5893008661417323
11
-4.5722411811023624
21
5.589992755905512
0
LINE
8
BLACK
6
CONTINUOUS
10
-4.5722411811023624
20
5.589992755905512
11
-4.5729330708661413
21
5.5916630708661419
0
LINE
8
BLACK
6
CONTINUOUS
10
-4.5729330708661413
20
5.5916630708661419
11
-4.5729330708661413
21
5.6103448031496059
0
LINE
8
BLACK
6
CONTINUOUS
10
-4.5729330708661413
20
5.6103448031496059
11
-4.5722411811023624
21
5.6120151181102358
0
LINE
8
BLACK
6
CONTINUOUS
10
-4.5722411811023624
20
5.6120151181102358
11
-4.5705708661417326
21
5.6127070078740156
0
LINE
8
BLACK
6
CONTINUOUS
10
-4.5705708661417326
20
5.6127070078740156
11
-4.5689005511811018
21
5.6120151181102358
0
LINE
8
BLACK
6
CONTINUOUS
10
-4.5277588188976381
20
5.6120151181102358
11
-4.5270669291338583
21
5.6103448031496059
0
LINE
8
BLACK
6
CONTINUOUS
10
-4.5270669291338583
20
5.6103448031496059
11
-4.5270669291338583
21
5.5916630708661419
0
LINE
8
BLACK
6
CONTINUOUS
10
-4.5270669291338583
20
5.5916630708661419
11
-4.5277588188976381
21
5.589992755905512
0
LINE
8
BLACK
6
CONTINUOUS
10
-4.5277588188976381
20
5.589992755905512
11
-4.529429133858268
21
5.5893008661417323
0
LINE
8
BLACK
6
CONTINUOUS
10
-4.529429133858268
20
5.5893008661417323
11
-4.5310994488188978
21
5.589992755905512
0
LINE
8
BLACK
6
CONTINUOUS
10
-4.5310994488188978
20
5.589992755905512
11
-4.5317913385826767
21
5.5916630708661419
0
LINE
8
BLACK
6
CONTINUOUS
10
-4.5317913385826767
20
5.5916630708661419
11
-4.5317913385826767
21
5.6103448031496059
0
LINE
8
BLACK
6
CONTINUOUS
10
-4.5317913385826767
20
5.6103448031496059
11
-4.5310994488188978
21
5.6120151181102358
0
LINE
8
BLACK
6
CONTINUOUS
10
-4.5310994488188978
20
5.6120151181102358
11
-4.529429133858268
21
5.6127070078740156
0
LINE
8
BLACK
6
CONTINUOUS
10
-4.529429133858268
20
5.6127070078740156
11
-4.5277588188976381
21
5.6120151181102358
0
LINE
8
BLACK
6
CONTINUOUS
10
-4.7147470078740152
20
5.6631663779527557
11
-4.7140551181102364
21
5.6614960629921258
0
LINE
8
BLACK
6
CONTINUOUS
10
-4.7140551181102364
20
5.6614960629921258
11
-4.7140551181102364
21
5.6299999999999999
0
LINE
8
BLACK
6
CONTINUOUS
10
-4.7140551181102364
20
5.6299999999999999
11
-4.7140551181102364
21
5.598503937007874
0
LINE
8
BLACK
6
CONTINUOUS
10
-4.7140551181102364
20
5.598503937007874
11
-4.7147470078740152
21
5.5968336220472441
0
LINE
8
BLACK
6
CONTINUOUS
10
-4.7147470078740152
20
5.5968336220472441
11
-4.716417322834646
21
5.5961417322834643
0
LINE
8
BLACK
6
CONTINUOUS
10
-4.716417322834646
20
5.5961417322834643
11
-4.7180876377952758
21
5.5968336220472441
0
LINE
8
BLACK
6
CONTINUOUS
10
-4.7180876377952758
20
5.5968336220472441
11
-4.7187795275590547
21
5.598503937007874
0
LINE
8
BLACK
6
CONTINUOUS
10
-4.7187795275590547
20
5.598503937007874
11
-4.7187795275590547
21
5.6299999999999999
0
LINE
8
BLACK
6
CONTINUOUS
10
-4.7187795275590547
20
5.6299999999999999
11
-4.7187795275590547
21
5.6614960629921258
0
LINE
8
BLACK
6
CONTINUOUS
10
-4.7187795275590547
20
5.6614960629921258
11
-4.7180876377952758
21
5.6631663779527557
0
LINE
8
BLACK
6
CONTINUOUS
10
-4.7180876377952758
20
5.6631663779527557
11
-4.716417322834646
21
5.6638582677165354
0
LINE
8
BLACK
6
CONTINUOUS
10
-4.716417322834646
20
5.6638582677165354
11
-4.7147470078740152
21
5.6631663779527557
0
LINE
8
BLACK
6
CONTINUOUS
10
-4.4721092125984248
20
5.7263159842519684
11
-4.4714173228346459
21
5.7246456692913386
0
LINE
8
BLACK
6
CONTINUOUS
10
-4.4714173228346459
20
5.7246456692913386
11
-4.4714173228346459
21
5.6459055118110237
0
LINE
8
BLACK
6
CONTINUOUS
10
-4.4714173228346459
20
5.6459055118110237
11
-4.4721092125984248
21
5.6442351968503939
0
LINE
8
BLACK
6
CONTINUOUS
10
-4.4721092125984248
20
5.6442351968503939
11
-4.4737795275590546
21
5.6435433070866141
0
LINE
8
BLACK
6
CONTINUOUS
10
-4.4737795275590546
20
5.6435433070866141
11
-4.4754498425196854
21
5.6442351968503939
0
LINE
8
BLACK
6
CONTINUOUS
10
-4.4754498425196854
20
5.6442351968503939
11
-4.4761417322834642
21
5.6459055118110237
0
LINE
8
BLACK
6
CONTINUOUS
10
-4.4761417322834642
20
5.6459055118110237
11
-4.4761417322834642
21
5.7246456692913386
0
LINE
8
BLACK
6
CONTINUOUS
10
-4.4761417322834642
20
5.7246456692913386
11
-4.4754498425196854
21
5.7263159842519684
0
LINE
8
BLACK
6
CONTINUOUS
10
-4.4754498425196854
20
5.7263159842519684
11
-4.4737795275590546
21
5.7270078740157482
0
LINE
8
BLACK
6
CONTINUOUS
10
-4.4737795275590546
20
5.7270078740157482
11
-4.4721092125984248
21
5.7263159842519684
0
LINE
8
BLACK
6
CONTINUOUS
10
-4.8884561417322834
20
5.6836220078740158
11
-4.8873433070866144
21
5.6819364566929131
0
LINE
8
BLACK
6
CONTINUOUS
10
-4.8873433070866144
20
5.6819364566929131
11
-4.8875742125984249
21
5.6799299212598422
0
LINE
8
BLACK
6
CONTINUOUS
10
-4.8875742125984249
20
5.6799299212598422
11
-4.8894489763779525
21
5.6761803937007871
0
LINE
8
BLACK
6
CONTINUOUS
10
-4.8894489763779525
20
5.6761803937007871
11
-4.8899749212598422
21
5.6754712992125986
0
LINE
8
BLACK
6
CONTINUOUS
10
-4.8899749212598422
20
5.6754712992125986
11
-4.8900020866141727
21
5.6754129921259837
0
LINE
8
BLACK
6
CONTINUOUS
10
-4.8900020866141727
20
5.6754129921259837
11
-4.8924604724409448
21
5.6729546062992124
0
LINE
8
BLACK
6
CONTINUOUS
10
-4.8924604724409448
20
5.6729546062992124
11
-4.865046496062992
21
5.6729546062992124
0
LINE
8
BLACK
6
CONTINUOUS
10
-4.865046496062992
20
5.6729546062992124
11
-4.865046496062992
21
5.6812504330708657
0
LINE
8
BLACK
6
CONTINUOUS
10
-4.865046496062992
20
5.6812504330708657
11
-4.8648684251968506
21
5.6822603543307082
0
LINE
8
BLACK
6
CONTINUOUS
10
-4.8648684251968506
20
5.6822603543307082
11
-4.8635701181102364
21
5.6838075984251963
0
LINE
8
BLACK
6
CONTINUOUS
10
-4.8635701181102364
20
5.6838075984251963
11
-4.8615809842519688
21
5.6841583464566927
0
LINE
8
BLACK
6
CONTINUOUS
10
-4.8615809842519688
20
5.6841583464566927
11
-4.8598318110236223
21
5.6831484251968503
0
LINE
8
BLACK
6
CONTINUOUS
10
-4.8598318110236223
20
5.6831484251968503
11
-4.8591409842519688
21
5.6812504330708657
0
LINE
8
BLACK
6
CONTINUOUS
10
-4.8591409842519688
20
5.6812504330708657
11
-4.8591409842519688
21
5.6587532677165351
0
LINE
8
BLACK
6
CONTINUOUS
10
-4.8591409842519688
20
5.6587532677165351
11
-4.8593190551181102
21
5.6577433464566926
0
LINE
8
BLACK
6
CONTINUOUS
10
-4.8593190551181102
20
5.6577433464566926
11
-4.8606173622047244
21
5.6561961023622045
0
LINE
8
BLACK
6
CONTINUOUS
10
-4.8606173622047244
20
5.6561961023622045
11
-4.862606496062992
21
5.6558453543307081
0
LINE
8
BLACK
6
CONTINUOUS
10
-4.862606496062992
20
5.6558453543307081
11
-4.8643556692913386
21
5.6568552755905515
0
LINE
8
BLACK
6
CONTINUOUS
10
-4.8643556692913386
20
5.6568552755905515
11
-4.865046496062992
21
5.6587532677165351
0
LINE
8
BLACK
6
CONTINUOUS
10
-4.865046496062992
20
5.6587532677165351
11
-4.865046496062992
21
5.6670490944881893
0
LINE
8
BLACK
6
CONTINUOUS
10
-4.865046496062992
20
5.6670490944881893
11
-4.9014638188976374
21
5.6670490944881893
0
LINE
8
BLACK
6
CONTINUOUS
10
-4.9014638188976374
20
5.6670490944881893
11
-4.9024737401574798
21
5.6672271653543307
0
LINE
8
BLACK
6
CONTINUOUS
10
-4.9024737401574798
20
5.6672271653543307
11
-4.9026038188976377
21
5.6673362598425197
0
LINE
8
BLACK
6
CONTINUOUS
10
-4.9026038188976377
20
5.6673362598425197
11
-4.9027725590551183
21
5.6673549606299209
0
LINE
8
BLACK
6
CONTINUOUS
10
-4.9027725590551183
20
5.6673549606299209
11
-4.9033644881889762
21
5.6679745669291339
0
LINE
8
BLACK
6
CONTINUOUS
10
-4.9033644881889762
20
5.6679745669291339
11
-4.904020984251968
21
5.6685254724409448
0
LINE
8
BLACK
6
CONTINUOUS
10
-4.904020984251968
20
5.6685254724409448
11
-4.9040504724409448
21
5.6686926771653541
0
LINE
8
BLACK
6
CONTINUOUS
10
-4.9040504724409448
20
5.6686926771653541
11
-4.9041677559055117
21
5.6688154724409445
0
LINE
8
BLACK
6
CONTINUOUS
10
-4.9041677559055117
20
5.6688154724409445
11
-4.9042229133858264
21
5.6696705905511813
0
LINE
8
BLACK
6
CONTINUOUS
10
-4.9042229133858264
20
5.6696705905511813
11
-4.9043717322834643
21
5.6705146062992124
0
LINE
8
BLACK
6
CONTINUOUS
10
-4.9043717322834643
20
5.6705146062992124
11
-4.9042868503937003
21
5.6706616535433065
0
LINE
8
BLACK
6
CONTINUOUS
10
-4.9042868503937003
20
5.6706616535433065
11
-4.9042977559055121
21
5.6708310629921259
0
LINE
8
BLACK
6
CONTINUOUS
10
-4.9042977559055121
20
5.6708310629921259
11
-4.9037903149606299
21
5.6715216535433068
0
LINE
8
BLACK
6
CONTINUOUS
10
-4.9037903149606299
20
5.6715216535433068
11
-4.9033618110236219
21
5.672263779527559
0
LINE
8
BLACK
6
CONTINUOUS
10
-4.9033618110236219
20
5.672263779527559
11
-4.9032023228346455
21
5.6723218110236218
0
LINE
8
BLACK
6
CONTINUOUS
10
-4.9032023228346455
20
5.6723218110236218
11
-4.9031017322834645
21
5.6724587007874012
0
LINE
8
BLACK
6
CONTINUOUS
10
-4.9031017322834645
20
5.6724587007874012
11
-4.8977207086614172
21
5.6760460236220469
0
LINE
8
BLACK
6
CONTINUOUS
10
-4.8977207086614172
20
5.6760460236220469
11
-4.8945167322834644
21
5.6792499999999997
0
LINE
8
BLACK
6
CONTINUOUS
10
-4.8945167322834644
20
5.6792499999999997
11
-4.8928562598425192
21
5.6825709448818893
0
LINE
8
BLACK
6
CONTINUOUS
10
-4.8928562598425192
20
5.6825709448818893
11
-4.8922453543307087
21
5.6833946062992124
0
LINE
8
BLACK
6
CONTINUOUS
10
-4.8922453543307087
20
5.6833946062992124
11
-4.8903921653543305
21
5.6841978740157479
0
LINE
8
BLACK
6
CONTINUOUS
10
-4.8903921653543305
20
5.6841978740157479
11
-4.8884561417322834
21
5.6836220078740158
0
LINE
8
BLACK
6
CONTINUOUS
10
-4.0807554330708662
20
5.709213149606299
11
-4.0788806299212599
21
5.7073383858267714
0
LINE
8
BLACK
6
CONTINUOUS
10
-4.0788806299212599
20
5.7073383858267714
11
-4.078374251968504
21
5.706615196850394
0
LINE
8
BLACK
6
CONTINUOUS
10
-4.078374251968504
20
5.706615196850394
11
-4.078327480314961
21
5.7065709448818893
0
LINE
8
BLACK
6
CONTINUOUS
10
-4.078327480314961
20
5.7065709448818893
11
-4.0764527165354334
21
5.7028214173228342
0
LINE
8
BLACK
6
CONTINUOUS
10
-4.0764527165354334
20
5.7028214173228342
11
-4.0761603543307086
21
5.7018385039370081
0
LINE
8
BLACK
6
CONTINUOUS
10
-4.0761603543307086
20
5.7018385039370081
11
-4.0762013779527555
21
5.7016667716535432
0
LINE
8
BLACK
6
CONTINUOUS
10
-4.0762013779527555
20
5.7016667716535432
11
-4.0761409842519685
21
5.7015009055118107
0
LINE
8
BLACK
6
CONTINUOUS
10
-4.0761409842519685
20
5.7015009055118107
11
-4.0761409842519685
21
5.6902523228346453
0
LINE
8
BLACK
6
CONTINUOUS
10
-4.0761409842519685
20
5.6902523228346453
11
-4.0763190551181099
21
5.6892424015748029
0
LINE
8
BLACK
6
CONTINUOUS
10
-4.0763190551181099
20
5.6892424015748029
11
-4.0764325590551183
21
5.6891071259842523
0
LINE
8
BLACK
6
CONTINUOUS
10
-4.0764325590551183
20
5.6891071259842523
11
-4.0764527165354334
21
5.6889318110236218
0
LINE
8
BLACK
6
CONTINUOUS
10
-4.0764527165354334
20
5.6889318110236218
11
-4.078327480314961
21
5.6851822834645667
0
LINE
8
BLACK
6
CONTINUOUS
10
-4.078327480314961
20
5.6851822834645667
11
-4.0788534645669294
21
5.6844731496062995
0
LINE
8
BLACK
6
CONTINUOUS
10
-4.0788534645669294
20
5.6844731496062995
11
-4.0788806299212599
21
5.6844148425196845
0
LINE
8
BLACK
6
CONTINUOUS
10
-4.0788806299212599
20
5.6844148425196845
11
-4.0807554330708662
21
5.682540078740157
0
LINE
8
BLACK
6
CONTINUOUS
10
-4.0807554330708662
20
5.682540078740157
11
-4.0814785039370074
21
5.6820337795275586
0
LINE
8
BLACK
6
CONTINUOUS
10
-4.0814785039370074
20
5.6820337795275586
11
-4.0815227952755908
21
5.6819870078740156
0
LINE
8
BLACK
6
CONTINUOUS
10
-4.0815227952755908
20
5.6819870078740156
11
-4.0852723228346459
21
5.680112244094488
0
LINE
8
BLACK
6
CONTINUOUS
10
-4.0852723228346459
20
5.680112244094488
11
-4.0862552755905508
21
5.6798198818897641
0
LINE
8
BLACK
6
CONTINUOUS
10
-4.0862552755905508
20
5.6798198818897641
11
-4.0864269685039369
21
5.6798608661417322
0
LINE
8
BLACK
6
CONTINUOUS
10
-4.0864269685039369
20
5.6798608661417322
11
-4.0865928346456695
21
5.6798005118110231
0
LINE
8
BLACK
6
CONTINUOUS
10
-4.0865928346456695
20
5.6798005118110231
11
-4.0959666535433072
21
5.6798005118110231
0
LINE
8
BLACK
6
CONTINUOUS
10
-4.0959666535433072
20
5.6798005118110231
11
-4.0969765748031497
21
5.6799785826771654
0
LINE
8
BLACK
6
CONTINUOUS
10
-4.0969765748031497
20
5.6799785826771654
11
-4.0971118503937003
21
5.6800920472440941
0
LINE
8
BLACK
6
CONTINUOUS
10
-4.0971118503937003
20
5.6800920472440941
11
-4.0972871653543308
21
5.680112244094488
0
LINE
8
BLACK
6
CONTINUOUS
10
-4.0972871653543308
20
5.680112244094488
11
-4.1010366929133859
21
5.6819870078740156
0
LINE
8
BLACK
6
CONTINUOUS
10
-4.1010366929133859
20
5.6819870078740156
11
-4.1017457874015744
21
5.6825128740157478
0
LINE
8
BLACK
6
CONTINUOUS
10
-4.1017457874015744
20
5.6825128740157478
11
-4.1018040944881893
21
5.6825401181102357
0
LINE
8
BLACK
6
CONTINUOUS
10
-4.1018040944881893
20
5.6825401181102357
11
-4.1036788582677168
21
5.6844148818897633
0
LINE
8
BLACK
6
CONTINUOUS
10
-4.1036788582677168
20
5.6844148818897633
11
-4.1041851574803152
21
5.6851379527559054
0
LINE
8
BLACK
6
CONTINUOUS
10
-4.1041851574803152
20
5.6851379527559054
11
-4.104231968503937
21
5.6851822834645667
0
LINE
8
BLACK
6
CONTINUOUS
10
-4.104231968503937
20
5.6851822834645667
11
-4.1061067322834646
21
5.6889318110236218
0
LINE
8
BLACK
6
CONTINUOUS
10
-4.1061067322834646
20
5.6889318110236218
11
-4.1062744094488188
21
5.689495472440945
0
LINE
8
BLACK
6
CONTINUOUS
10
-4.1062744094488188
20
5.689495472440945
11
-4.1165194094488191
21
5.6805311023622043
0
LINE
8
BLACK
6
CONTINUOUS
10
-4.1165194094488191
20
5.6805311023622043
11
-4.1168992913385827
21
5.6803011811023625
0
LINE
8
BLACK
6
CONTINUOUS
10
-4.1168992913385827
20
5.6803011811023625
11
-4.1169874409448814
21
5.6801961023622045
0
LINE
8
BLACK
6
CONTINUOUS
10
-4.1169874409448814
20
5.6801961023622045
11
-4.1171080314960626
21
5.6801748425196852
0
LINE
8
BLACK
6
CONTINUOUS
10
-4.1171080314960626
20
5.6801748425196852
11
-4.1173967322834644
21
5.6800000787401572
0
LINE
8
BLACK
6
CONTINUOUS
10
-4.1173967322834644
20
5.6800000787401572
11
-4.118192598425197
21
5.6799835826771652
0
LINE
8
BLACK
6
CONTINUOUS
10
-4.118192598425197
20
5.6799835826771652
11
-4.1189765748031499
21
5.6798453543307081
0
LINE
8
BLACK
6
CONTINUOUS
10
-4.1189765748031499
20
5.6798453543307081
11
-4.1191805905511814
21
5.67996311023622
0
LINE
8
BLACK
6
CONTINUOUS
10
-4.1191805905511814
20
5.67996311023622
11
-4.1194160629921255
21
5.6799582677165352
0
LINE
8
BLACK
6
CONTINUOUS
10
-4.1194160629921255
20
5.6799582677165352
11
-4.1200363385826773
21
5.6804572047244095
0
LINE
8
BLACK
6
CONTINUOUS
10
-4.1200363385826773
20
5.6804572047244095
11
-4.1207257480314956
21
5.6808552755905515
0
LINE
8
BLACK
6
CONTINUOUS
10
-4.1207257480314956
20
5.6808552755905515
11
-4.1208063385826774
21
5.6810766141732278
0
LINE
8
BLACK
6
CONTINUOUS
10
-4.1208063385826774
20
5.6810766141732278
11
-4.1209898818897637
21
5.6812242913385829
0
LINE
8
BLACK
6
CONTINUOUS
10
-4.1209898818897637
20
5.6812242913385829
11
-4.1211443307086615
21
5.6820052362204727
0
LINE
8
BLACK
6
CONTINUOUS
10
-4.1211443307086615
20
5.6820052362204727
11
-4.1214165748031499
21
5.6827532677165351
0
LINE
8
BLACK
6
CONTINUOUS
10
-4.1214165748031499
20
5.6827532677165351
11
-4.1214165748031499
21
5.7071251968503933
0
LINE
8
BLACK
6
CONTINUOUS
10
-4.1214165748031499
20
5.7071251968503933
11
-4.1212385039370076
21
5.7081351181102358
0
LINE
8
BLACK
6
CONTINUOUS
10
-4.1212385039370076
20
5.7081351181102358
11
-4.1199401968503935
21
5.7096823622047239
0
LINE
8
BLACK
6
CONTINUOUS
10
-4.1199401968503935
20
5.7096823622047239
11
-4.1179510629921259
21
5.7100331102362203
0
LINE
8
BLACK
6
CONTINUOUS
10
-4.1179510629921259
20
5.7100331102362203
11
-4.1162018897637793
21
5.7090231889763778
0
LINE
8
BLACK
6
CONTINUOUS
10
-4.1162018897637793
20
5.7090231889763778
11
-4.1155110629921259
21
5.7071251968503933
0
LINE
8
BLACK
6
CONTINUOUS
10
-4.1155110629921259
20
5.7071251968503933
11
-4.1155110629921259
21
5.6892604330708663
0
LINE
8
BLACK
6
CONTINUOUS
10
-4.1155110629921259
20
5.6892604330708663
11
-4.1054101181102363
21
5.6980987795275588
0
LINE
8
BLACK
6
CONTINUOUS
10
-4.1054101181102363
20
5.6980987795275588
11
-4.1050302755905514
21
5.6983286614173227
0
LINE
8
BLACK
6
CONTINUOUS
10
-4.1050302755905514
20
5.6983286614173227
11
-4.104942086614173
21
5.6984337795275586
0
LINE
8
BLACK
6
CONTINUOUS
10
-4.104942086614173
20
5.6984337795275586
11
-4.1048215354330706
21
5.698455
0
LINE
8
BLACK
6
CONTINUOUS
10
-4.1048215354330706
20
5.698455
11
-4.1045327952755901
21
5.6986298031496059
0
LINE
8
BLACK
6
CONTINUOUS
10
-4.1045327952755901
20
5.6986298031496059
11
-4.1037369685039371
21
5.6986462598425192
0
LINE
8
BLACK
6
CONTINUOUS
10
-4.1037369685039371
20
5.6986462598425192
11
-4.1029529527559054
21
5.698784527559055
0
LINE
8
BLACK
6
CONTINUOUS
10
-4.1029529527559054
20
5.698784527559055
11
-4.1027489763779528
21
5.6986667322834643
0
LINE
8
BLACK
6
CONTINUOUS
10
-4.1027489763779528
20
5.6986667322834643
11
-4.1025134251968502
21
5.6986716141732279
0
LINE
8
BLACK
6
CONTINUOUS
10
-4.1025134251968502
20
5.6986716141732279
11
-4.1018931496062994
21
5.698172598425197
0
LINE
8
BLACK
6
CONTINUOUS
10
-4.1018931496062994
20
5.698172598425197
11
-4.1012037795275589
21
5.6977746062992125
0
LINE
8
BLACK
6
CONTINUOUS
10
-4.1012037795275589
20
5.6977746062992125
11
-4.1011232283464567
21
5.6975532283464565
0
LINE
8
BLACK
6
CONTINUOUS
10
-4.1011232283464567
20
5.6975532283464565
11
-4.1009396456692908
21
5.6974055905511811
0
LINE
8
BLACK
6
CONTINUOUS
10
-4.1009396456692908
20
5.6974055905511811
11
-4.1007852362204726
21
5.6966246062992125
0
LINE
8
BLACK
6
CONTINUOUS
10
-4.1007852362204726
20
5.6966246062992125
11
-4.1005129527559054
21
5.695876614173228
0
LINE
8
BLACK
6
CONTINUOUS
10
-4.1005129527559054
20
5.695876614173228
11
-4.1005129527559054
21
5.6909493700787399
0
LINE
8
BLACK
6
CONTINUOUS
10
-4.1005129527559054
20
5.6909493700787399
11
-4.0991642125984251
21
5.6882518897637793
0
LINE
8
BLACK
6
CONTINUOUS
10
-4.0991642125984251
20
5.6882518897637793
11
-4.0979670866141733
21
5.6870547637795275
0
LINE
8
BLACK
6
CONTINUOUS
10
-4.0979670866141733
20
5.6870547637795275
11
-4.0952696062992127
21
5.6857060236220471
0
LINE
8
BLACK
6
CONTINUOUS
10
-4.0952696062992127
20
5.6857060236220471
11
-4.0872898818897641
21
5.6857060236220471
0
LINE
8
BLACK
6
CONTINUOUS
10
-4.0872898818897641
20
5.6857060236220471
11
-4.0845924015748034
21
5.6870547637795275
0
LINE
8
BLACK
6
CONTINUOUS
10
-4.0845924015748034
20
5.6870547637795275
11
-4.083395236220472
21
5.6882518897637793
0
LINE
8
BLACK
6
CONTINUOUS
10
-4.083395236220472
20
5.6882518897637793
11
-4.0820464960629916
21
5.6909493700787399
0
LINE
8
BLACK
6
CONTINUOUS
10
-4.0820464960629916
20
5.6909493700787399
11
-4.0820464960629916
21
5.7008038582677161
0
LINE
8
BLACK
6
CONTINUOUS
10
-4.0820464960629916
20
5.7008038582677161
11
-4.083395236220472
21
5.703501299212598
0
LINE
8
BLACK
6
CONTINUOUS
10
-4.083395236220472
20
5.703501299212598
11
-4.0849311811023625
21
5.7050372440944876
0
LINE
8
BLACK
6
CONTINUOUS
10
-4.0849311811023625
20
5.7050372440944876
11
-4.0855194094488185
21
5.7058772834645666
0
LINE
8
BLACK
6
CONTINUOUS
10
-4.0855194094488185
20
5.7058772834645666
11
-4.0856954724409444
21
5.7078894094488186
0
LINE
8
BLACK
6
CONTINUOUS
10
-4.0856954724409444
20
5.7078894094488186
11
-4.0845369685039365
21
5.7095439763779527
0
LINE
8
BLACK
6
CONTINUOUS
10
-4.0845369685039365
20
5.7095439763779527
11
-4.0825859842519687
21
5.7100666929133856
0
LINE
8
BLACK
6
CONTINUOUS
10
-4.0825859842519687
20
5.7100666929133856
11
-4.0807554330708662
21
5.709213149606299
0
LINE
8
BLACK
6
CONTINUOUS
10
-4.8598318110236223
20
5.7150194488188975
11
-4.8591409842519688
21
5.7131214566929129
0
LINE
8
BLACK
6
CONTINUOUS
10
-4.8591409842519688
20
5.7131214566929129
11
-4.8591409842519688
21
5.7093719291338578
0
LINE
8
BLACK
6
CONTINUOUS
10
-4.8591409842519688
20
5.7093719291338578
11
-4.8592942913385828
21
5.7085025196850392
0
LINE
8
BLACK
6
CONTINUOUS
10
-4.8592942913385828
20
5.7085025196850392
11
-4.8592925196850389
21
5.708438149606299
0
LINE
8
BLACK
6
CONTINUOUS
10
-4.8592925196850389
20
5.708438149606299
11
-4.8611672834645665
21
5.7028138976377951
0
LINE
8
BLACK
6
CONTINUOUS
10
-4.8611672834645665
20
5.7028138976377951
11
-4.8616555905511811
21
5.7019121259842516
0
LINE
8
BLACK
6
CONTINUOUS
10
-4.8616555905511811
20
5.7019121259842516
11
-4.8618059842519683
21
5.7018197244094484
0
LINE
8
BLACK
6
CONTINUOUS
10
-4.8618059842519683
20
5.7018197244094484
11
-4.8618805905511806
21
5.7016597244094491
0
LINE
8
BLACK
6
CONTINUOUS
10
-4.8618805905511806
20
5.7016597244094491
11
-4.8656301574803145
21
5.6979101968503931
0
LINE
8
BLACK
6
CONTINUOUS
10
-4.8656301574803145
20
5.6979101968503931
11
-4.8664701968503934
21
5.6973219685039371
0
LINE
8
BLACK
6
CONTINUOUS
10
-4.8664701968503934
20
5.6973219685039371
11
-4.866646141732283
21
5.6973065748031493
0
LINE
8
BLACK
6
CONTINUOUS
10
-4.866646141732283
20
5.6973065748031493
11
-4.8667843307086613
21
5.697196889763779
0
LINE
8
BLACK
6
CONTINUOUS
10
-4.8667843307086613
20
5.697196889763779
11
-4.872408622047244
21
5.6953221259842515
0
LINE
8
BLACK
6
CONTINUOUS
10
-4.872408622047244
20
5.6953221259842515
11
-4.873281811023622
21
5.6951926377952757
0
LINE
8
BLACK
6
CONTINUOUS
10
-4.873281811023622
20
5.6951926377952757
11
-4.8733423622047241
21
5.6951705905511814
0
LINE
8
BLACK
6
CONTINUOUS
10
-4.8733423622047241
20
5.6951705905511814
11
-4.9014638188976374
21
5.6951705905511814
0
LINE
8
BLACK
6
CONTINUOUS
10
-4.9014638188976374
20
5.6951705905511814
11
-4.9024737401574798
21
5.6953486614173228
0
LINE
8
BLACK
6
CONTINUOUS
10
-4.9024737401574798
20
5.6953486614173228
11
-4.904020984251968
21
5.6966469685039369
0
LINE
8
BLACK
6
CONTINUOUS
10
-4.904020984251968
20
5.6966469685039369
11
-4.9043717322834643
21
5.6986361023622045
0
LINE
8
BLACK
6
CONTINUOUS
10
-4.9043717322834643
20
5.6986361023622045
11
-4.9033618110236219
21
5.7003852755905511
0
LINE
8
BLACK
6
CONTINUOUS
10
-4.9033618110236219
20
5.7003852755905511
11
-4.9014638188976374
21
5.7010761023622045
0
LINE
8
BLACK
6
CONTINUOUS
10
-4.9014638188976374
20
5.7010761023622045
11
-4.873821496062992
21
5.7010761023622045
0
LINE
8
BLACK
6
CONTINUOUS
10
-4.873821496062992
20
5.7010761023622045
11
-4.8693131102362202
21
5.7025788976377951
0
LINE
8
BLACK
6
CONTINUOUS
10
-4.8693131102362202
20
5.7025788976377951
11
-4.8665492913385826
21
5.7053426771653539
0
LINE
8
BLACK
6
CONTINUOUS
10
-4.8665492913385826
20
5.7053426771653539
11
-4.865046496062992
21
5.7098510629921257
0
LINE
8
BLACK
6
CONTINUOUS
10
-4.865046496062992
20
5.7098510629921257
11
-4.865046496062992
21
5.7131214566929129
0
LINE
8
BLACK
6
CONTINUOUS
10
-4.865046496062992
20
5.7131214566929129
11
-4.8648684251968506
21
5.7141313779527554
0
LINE
8
BLACK
6
CONTINUOUS
10
-4.8648684251968506
20
5.7141313779527554
11
-4.8635701181102364
21
5.7156786220472435
0
LINE
8
BLACK
6
CONTINUOUS
10
-4.8635701181102364
20
5.7156786220472435
11
-4.8615809842519688
21
5.7160293700787399
0
LINE
8
BLACK
6
CONTINUOUS
10
-4.8615809842519688
20
5.7160293700787399
11
-4.8598318110236223
21
5.7150194488188975
0
LINE
8
BLACK
6
CONTINUOUS
10
-4.0768318110236219
20
5.7390194488188975
11
-4.0761409842519685
21
5.737121456692913
0
LINE
8
BLACK
6
CONTINUOUS
10
-4.0761409842519685
20
5.737121456692913
11
-4.0761409842519685
21
5.7333719291338578
0
LINE
8
BLACK
6
CONTINUOUS
10
-4.0761409842519685
20
5.7333719291338578
11
-4.0762942913385825
21
5.7325025196850392
0
LINE
8
BLACK
6
CONTINUOUS
10
-4.0762942913385825
20
5.7325025196850392
11
-4.0762925196850395
21
5.732438149606299
0
LINE
8
BLACK
6
CONTINUOUS
10
-4.0762925196850395
20
5.732438149606299
11
-4.078167283464567
21
5.7268138976377951
0
LINE
8
BLACK
6
CONTINUOUS
10
-4.078167283464567
20
5.7268138976377951
11
-4.0786555905511808
21
5.7259121259842516
0
LINE
8
BLACK
6
CONTINUOUS
10
-4.0786555905511808
20
5.7259121259842516
11
-4.0788059842519688
21
5.7258197244094484
0
LINE
8
BLACK
6
CONTINUOUS
10
-4.0788059842519688
20
5.7258197244094484
11
-4.0788805905511811
21
5.7256597244094483
0
LINE
8
BLACK
6
CONTINUOUS
10
-4.0788805905511811
20
5.7256597244094483
11
-4.082630157480315
21
5.7219101968503931
0
LINE
8
BLACK
6
CONTINUOUS
10
-4.082630157480315
20
5.7219101968503931
11
-4.0834701968503939
21
5.7213219685039371
0
LINE
8
BLACK
6
CONTINUOUS
10
-4.0834701968503939
20
5.7213219685039371
11
-4.0836461417322836
21
5.7213065748031493
0
LINE
8
BLACK
6
CONTINUOUS
10
-4.0836461417322836
20
5.7213065748031493
11
-4.083784330708661
21
5.721196889763779
0
LINE
8
BLACK
6
CONTINUOUS
10
-4.083784330708661
20
5.721196889763779
11
-4.0894086220472436
21
5.7193221259842515
0
LINE
8
BLACK
6
CONTINUOUS
10
-4.0894086220472436
20
5.7193221259842515
11
-4.0902818110236216
21
5.7191926377952758
0
LINE
8
BLACK
6
CONTINUOUS
10
-4.0902818110236216
20
5.7191926377952758
11
-4.0903423622047246
21
5.7191705905511814
0
LINE
8
BLACK
6
CONTINUOUS
10
-4.0903423622047246
20
5.7191705905511814
11
-4.1184638188976379
21
5.7191705905511814
0
LINE
8
BLACK
6
CONTINUOUS
10
-4.1184638188976379
20
5.7191705905511814
11
-4.1194737401574804
21
5.7193486614173228
0
LINE
8
BLACK
6
CONTINUOUS
10
-4.1194737401574804
20
5.7193486614173228
11
-4.1210209842519685
21
5.7206469685039369
0
LINE
8
BLACK
6
CONTINUOUS
10
-4.1210209842519685
20
5.7206469685039369
11
-4.1213717322834649
21
5.7226361023622045
0
LINE
8
BLACK
6
CONTINUOUS
10
-4.1213717322834649
20
5.7226361023622045
11
-4.1203618110236215
21
5.7243852755905511
0
LINE
8
BLACK
6
CONTINUOUS
10
-4.1203618110236215
20
5.7243852755905511
11
-4.1184638188976379
21
5.7250761023622045
0
LINE
8
BLACK
6
CONTINUOUS
10
-4.1184638188976379
20
5.7250761023622045
11
-4.0908214960629916
21
5.7250761023622045
0
LINE
8
BLACK
6
CONTINUOUS
10
-4.0908214960629916
20
5.7250761023622045
11
-4.0863131102362207
21
5.7265788976377952
0
LINE
8
BLACK
6
CONTINUOUS
10
-4.0863131102362207
20
5.7265788976377952
11
-4.0835492913385822
21
5.7293426771653539
0
LINE
8
BLACK
6
CONTINUOUS
10
-4.0835492913385822
20
5.7293426771653539
11
-4.0820464960629916
21
5.7338510629921258
0
LINE
8
BLACK
6
CONTINUOUS
10
-4.0820464960629916
20
5.7338510629921258
11
-4.0820464960629916
21
5.737121456692913
0
LINE
8
BLACK
6
CONTINUOUS
10
-4.0820464960629916
20
5.737121456692913
11
-4.0818684251968502
21
5.7381313779527554
0
LINE
8
BLACK
6
CONTINUOUS
10
-4.0818684251968502
20
5.7381313779527554
11
-4.0805701181102361
21
5.7396786220472436
0
LINE
8
BLACK
6
CONTINUOUS
10
-4.0805701181102361
20
5.7396786220472436
11
-4.0785809842519685
21
5.7400293700787399
0
LINE
8
BLACK
6
CONTINUOUS
10
-4.0785809842519685
20
5.7400293700787399
11
-4.0768318110236219
21
5.7390194488188975
0
LINE
8
BLACK
6
CONTINUOUS
10
-4.6747076377952759
20
5.8166703149606294
11
-4.6740157480314961
21
5.8149999999999995
0
LINE
8
BLACK
6
CONTINUOUS
10
-4.6740157480314961
20
5.8149999999999995
11
-4.6740157480314961
21
5.7421653543307087
0
LINE
8
BLACK
6
CONTINUOUS
10
-4.6740157480314961
20
5.7421653543307087
11
-4.6747076377952759
21
5.7404950393700789
0
LINE
8
BLACK
6
CONTINUOUS
10
-4.6747076377952759
20
5.7404950393700789
11
-4.6763779527559057
21
5.7398031496062991
0
LINE
8
BLACK
6
CONTINUOUS
10
-4.6763779527559057
20
5.7398031496062991
11
-4.7236220472440946
21
5.7398031496062991
0
LINE
8
BLACK
6
CONTINUOUS
10
-4.7236220472440946
20
5.7398031496062991
11
-4.7252923622047245
21
5.7404950393700789
0
LINE
8
BLACK
6
CONTINUOUS
10
-4.7252923622047245
20
5.7404950393700789
11
-4.7259842519685042
21
5.7421653543307087
0
LINE
8
BLACK
6
CONTINUOUS
10
-4.7259842519685042
20
5.7421653543307087
11
-4.7259842519685042
21
5.8149999999999995
0
LINE
8
BLACK
6
CONTINUOUS
10
-4.7259842519685042
20
5.8149999999999995
11
-4.7252923622047245
21
5.8166703149606294
0
LINE
8
BLACK
6
CONTINUOUS
10
-4.7252923622047245
20
5.8166703149606294
11
-4.7236220472440946
21
5.8173622047244091
0
LINE
8
BLACK
6
CONTINUOUS
10
-4.7236220472440946
20
5.8173622047244091
11
-4.7219517322834648
21
5.8166703149606294
0
LINE
8
BLACK
6
CONTINUOUS
10
-4.7219517322834648
20
5.8166703149606294
11
-4.721259842519685
21
5.8149999999999995
0
LINE
8
BLACK
6
CONTINUOUS
10
-4.721259842519685
20
5.8149999999999995
11
-4.721259842519685
21
5.7445275590551184
0
LINE
8
BLACK
6
CONTINUOUS
10
-4.721259842519685
20
5.7445275590551184
11
-4.6787401574803145
21
5.7445275590551184
0
LINE
8
BLACK
6
CONTINUOUS
10
-4.6787401574803145
20
5.7445275590551184
11
-4.6787401574803145
21
5.8149999999999995
0
LINE
8
BLACK
6
CONTINUOUS
10
-4.6787401574803145
20
5.8149999999999995
11
-4.6780482677165356
21
5.8166703149606294
0
LINE
8
BLACK
6
CONTINUOUS
10
-4.6780482677165356
20
5.8166703149606294
11
-4.6763779527559057
21
5.8173622047244091
0
LINE
8
BLACK
6
CONTINUOUS
10
-4.6763779527559057
20
5.8173622047244091
11
-4.6747076377952759
21
5.8166703149606294
0
LINE
8
BLACK
6
CONTINUOUS
10
-4.3139005511811019
20
5.7710111811023621
11
-4.3132086614173231
21
5.7693408661417322
0
LINE
8
BLACK
6
CONTINUOUS
10
-4.3132086614173231
20
5.7693408661417322
11
-4.3132086614173231
21
5.7506591338582673
0
LINE
8
BLACK
6
CONTINUOUS
10
-4.3132086614173231
20
5.7506591338582673
11
-4.3139005511811019
21
5.7489888188976375
0
LINE
8
BLACK
6
CONTINUOUS
10
-4.3139005511811019
20
5.7489888188976375
11
-4.3155708661417318
21
5.7482969291338577
0
LINE
8
BLACK
6
CONTINUOUS
10
-4.3155708661417318
20
5.7482969291338577
11
-4.3172411811023625
21
5.7489888188976375
0
LINE
8
BLACK
6
CONTINUOUS
10
-4.3172411811023625
20
5.7489888188976375
11
-4.3179330708661414
21
5.7506591338582673
0
LINE
8
BLACK
6
CONTINUOUS
10
-4.3179330708661414
20
5.7506591338582673
11
-4.3179330708661414
21
5.7693408661417322
0
LINE
8
BLACK
6
CONTINUOUS
10
-4.3179330708661414
20
5.7693408661417322
11
-4.3172411811023625
21
5.7710111811023621
0
LINE
8
BLACK
6
CONTINUOUS
10
-4.3172411811023625
20
5.7710111811023621
11
-4.3155708661417318
21
5.7717030708661419
0
LINE
8
BLACK
6
CONTINUOUS
10
-4.3155708661417318
20
5.7717030708661419
11
-4.3139005511811019
21
5.7710111811023621
0
LINE
8
BLACK
6
CONTINUOUS
10
-4.2727588188976373
20
5.7710111811023621
11
-4.2720669291338584
21
5.7693408661417322
0
LINE
8
BLACK
6
CONTINUOUS
10
-4.2720669291338584
20
5.7693408661417322
11
-4.2720669291338584
21
5.7506591338582673
0
LINE
8
BLACK
6
CONTINUOUS
10
-4.2720669291338584
20
5.7506591338582673
11
-4.2727588188976373
21
5.7489888188976375
0
LINE
8
BLACK
6
CONTINUOUS
10
-4.2727588188976373
20
5.7489888188976375
11
-4.2744291338582681
21
5.7482969291338577
0
LINE
8
BLACK
6
CONTINUOUS
10
-4.2744291338582681
20
5.7482969291338577
11
-4.2760994488188979
21
5.7489888188976375
0
LINE
8
BLACK
6
CONTINUOUS
10
-4.2760994488188979
20
5.7489888188976375
11
-4.2767913385826768
21
5.7506591338582673
0
LINE
8
BLACK
6
CONTINUOUS
10
-4.2767913385826768
20
5.7506591338582673
11
-4.2767913385826768
21
5.7693408661417322
0
LINE
8
BLACK
6
CONTINUOUS
10
-4.2767913385826768
20
5.7693408661417322
11
-4.2760994488188979
21
5.7710111811023621
0
LINE
8
BLACK
6
CONTINUOUS
10
-4.2760994488188979
20
5.7710111811023621
11
-4.2744291338582681
21
5.7717030708661419
0
LINE
8
BLACK
6
CONTINUOUS
10
-4.2744291338582681
20
5.7717030708661419
11
-4.2727588188976373
21
5.7710111811023621
0
LINE
8
BLACK
6
CONTINUOUS
10
-4.5639005511811019
20
5.7750072440944882
11
-4.5632086614173231
21
5.7733369291338583
0
LINE
8
BLACK
6
CONTINUOUS
10
-4.5632086614173231
20
5.7733369291338583
11
-4.5632086614173231
21
5.7546551968503934
0
LINE
8
BLACK
6
CONTINUOUS
10
-4.5632086614173231
20
5.7546551968503934
11
-4.5639005511811019
21
5.7529848818897635
0
LINE
8
BLACK
6
CONTINUOUS
10
-4.5639005511811019
20
5.7529848818897635
11
-4.5655708661417318
21
5.7522929921259838
0
LINE
8
BLACK
6
CONTINUOUS
10
-4.5655708661417318
20
5.7522929921259838
11
-4.5672411811023617
21
5.7529848818897635
0
LINE
8
BLACK
6
CONTINUOUS
10
-4.5672411811023617
20
5.7529848818897635
11
-4.5679330708661414
21
5.7546551968503934
0
LINE
8
BLACK
6
CONTINUOUS
10
-4.5679330708661414
20
5.7546551968503934
11
-4.5679330708661414
21
5.7733369291338583
0
LINE
8
BLACK
6
CONTINUOUS
10
-4.5679330708661414
20
5.7733369291338583
11
-4.5672411811023617
21
5.7750072440944882
0
LINE
8
BLACK
6
CONTINUOUS
10
-4.5672411811023617
20
5.7750072440944882
11
-4.5655708661417318
21
5.7756991338582679
0
LINE
8
BLACK
6
CONTINUOUS
10
-4.5655708661417318
20
5.7756991338582679
11
-4.5639005511811019
21
5.7750072440944882
0
LINE
8
BLACK
6
CONTINUOUS
10
-4.5227588188976373
20
5.7750072440944882
11
-4.5220669291338584
21
5.7733369291338583
0
LINE
8
BLACK
6
CONTINUOUS
10
-4.5220669291338584
20
5.7733369291338583
11
-4.5220669291338584
21
5.7546551968503934
0
LINE
8
BLACK
6
CONTINUOUS
10
-4.5220669291338584
20
5.7546551968503934
11
-4.5227588188976373
21
5.7529848818897635
0
LINE
8
BLACK
6
CONTINUOUS
10
-4.5227588188976373
20
5.7529848818897635
11
-4.5244291338582672
21
5.7522929921259838
0
LINE
8
BLACK
6
CONTINUOUS
10
-4.5244291338582672
20
5.7522929921259838
11
-4.5260994488188979
21
5.7529848818897635
0
LINE
8
BLACK
6
CONTINUOUS
10
-4.5260994488188979
20
5.7529848818897635
11
-4.5267913385826768
21
5.7546551968503934
0
LINE
8
BLACK
6
CONTINUOUS
10
-4.5267913385826768
20
5.7546551968503934
11
-4.5267913385826768
21
5.7733369291338583
0
LINE
8
BLACK
6
CONTINUOUS
10
-4.5267913385826768
20
5.7733369291338583
11
-4.5260994488188979
21
5.7750072440944882
0
LINE
8
BLACK
6
CONTINUOUS
10
-4.5260994488188979
20
5.7750072440944882
11
-4.5244291338582672
21
5.7756991338582679
0
LINE
8
BLACK
6
CONTINUOUS
10
-4.5244291338582672
20
5.7756991338582679
11
-4.5227588188976373
21
5.7750072440944882
0
LINE
8
BLACK
6
CONTINUOUS
10
-4.6422666929133856
20
5.7894558267716532
11
-4.6415748031496058
21
5.7877855118110233
0
LINE
8
BLACK
6
CONTINUOUS
10
-4.6415748031496058
20
5.7877855118110233
11
-4.6415748031496058
21
5.7672144881889764
0
LINE
8
BLACK
6
CONTINUOUS
10
-4.6415748031496058
20
5.7672144881889764
11
-4.6422666929133856
21
5.7655441732283466
0
LINE
8
BLACK
6
CONTINUOUS
10
-4.6422666929133856
20
5.7655441732283466
11
-4.6439370078740154
21
5.7648522834645668
0
LINE
8
BLACK
6
CONTINUOUS
10
-4.6439370078740154
20
5.7648522834645668
11
-4.6456073228346453
21
5.7655441732283466
0
LINE
8
BLACK
6
CONTINUOUS
10
-4.6456073228346453
20
5.7655441732283466
11
-4.646299212598425
21
5.7672144881889764
0
LINE
8
BLACK
6
CONTINUOUS
10
-4.646299212598425
20
5.7672144881889764
11
-4.646299212598425
21
5.7877855118110233
0
LINE
8
BLACK
6
CONTINUOUS
10
-4.646299212598425
20
5.7877855118110233
11
-4.6456073228346453
21
5.7894558267716532
0
LINE
8
BLACK
6
CONTINUOUS
10
-4.6456073228346453
20
5.7894558267716532
11
-4.6439370078740154
21
5.7901477165354329
0
LINE
8
BLACK
6
CONTINUOUS
10
-4.6439370078740154
20
5.7901477165354329
11
-4.6422666929133856
21
5.7894558267716532
0
LINE
8
BLACK
6
CONTINUOUS
10
-4.5843926771653543
20
5.7894558267716532
11
-4.5837007874015745
21
5.7877855118110233
0
LINE
8
BLACK
6
CONTINUOUS
10
-4.5837007874015745
20
5.7877855118110233
11
-4.5837007874015745
21
5.7672144881889764
0
LINE
8
BLACK
6
CONTINUOUS
10
-4.5837007874015745
20
5.7672144881889764
11
-4.5843926771653543
21
5.7655441732283466
0
LINE
8
BLACK
6
CONTINUOUS
10
-4.5843926771653543
20
5.7655441732283466
11
-4.5860629921259841
21
5.7648522834645668
0
LINE
8
BLACK
6
CONTINUOUS
10
-4.5860629921259841
20
5.7648522834645668
11
-4.587733307086614
21
5.7655441732283466
0
LINE
8
BLACK
6
CONTINUOUS
10
-4.587733307086614
20
5.7655441732283466
11
-4.5884251968503937
21
5.7672144881889764
0
LINE
8
BLACK
6
CONTINUOUS
10
-4.5884251968503937
20
5.7672144881889764
11
-4.5884251968503937
21
5.7877855118110233
0
LINE
8
BLACK
6
CONTINUOUS
10
-4.5884251968503937
20
5.7877855118110233
11
-4.587733307086614
21
5.7894558267716532
0
LINE
8
BLACK
6
CONTINUOUS
10
-4.587733307086614
20
5.7894558267716532
11
-4.5860629921259841
21
5.7901477165354329
0
LINE
8
BLACK
6
CONTINUOUS
10
-4.5860629921259841
20
5.7901477165354329
11
-4.5843926771653543
21
5.7894558267716532
0
LINE
8
BLACK
6
CONTINUOUS
10
-4.8124409448818897
20
5.8543700787401569
11
-4.8107706299212598
21
5.853678188976378
0
LINE
8
BLACK
6
CONTINUOUS
10
-4.8107706299212598
20
5.853678188976378
11
-4.81007874015748
21
5.8520078740157482
0
LINE
8
BLACK
6
CONTINUOUS
10
-4.81007874015748
20
5.8520078740157482
11
-4.81007874015748
21
5.7811417322834648
0
LINE
8
BLACK
6
CONTINUOUS
10
-4.81007874015748
20
5.7811417322834648
11
-4.8107706299212598
21
5.7794714173228341
0
LINE
8
BLACK
6
CONTINUOUS
10
-4.8107706299212598
20
5.7794714173228341
11
-4.8124409448818897
21
5.7787795275590552
0
LINE
8
BLACK
6
CONTINUOUS
10
-4.8124409448818897
20
5.7787795275590552
11
-4.8141112598425195
21
5.7794714173228341
0
LINE
8
BLACK
6
CONTINUOUS
10
-4.8141112598425195
20
5.7794714173228341
11
-4.8148031496062993
21
5.7811417322834648
0
LINE
8
BLACK
6
CONTINUOUS
10
-4.8148031496062993
20
5.7811417322834648
11
-4.8148031496062993
21
5.8496456692913386
0
LINE
8
BLACK
6
CONTINUOUS
10
-4.8148031496062993
20
5.8496456692913386
11
-4.8695275590551184
21
5.8496456692913386
0
LINE
8
BLACK
6
CONTINUOUS
10
-4.8695275590551184
20
5.8496456692913386
11
-4.8711978740157482
21
5.8503375590551183
0
LINE
8
BLACK
6
CONTINUOUS
10
-4.8711978740157482
20
5.8503375590551183
11
-4.8718897637795271
21
5.8520078740157482
0
LINE
8
BLACK
6
CONTINUOUS
10
-4.8718897637795271
20
5.8520078740157482
11
-4.8711978740157482
21
5.853678188976378
0
LINE
8
BLACK
6
CONTINUOUS
10
-4.8711978740157482
20
5.853678188976378
11
-4.8695275590551184
21
5.8543700787401569
0
LINE
8
BLACK
6
CONTINUOUS
10
-4.8695275590551184
20
5.8543700787401569
11
-4.8124409448818897
21
5.8543700787401569
0
LINE
8
BLACK
6
CONTINUOUS
10
-4.1245501574803152
20
5.853678188976378
11
-4.1238582677165354
21
5.8520078740157482
0
LINE
8
BLACK
6
CONTINUOUS
10
-4.1238582677165354
20
5.8520078740157482
11
-4.1245501574803152
21
5.8503375590551183
0
LINE
8
BLACK
6
CONTINUOUS
10
-4.1245501574803152
20
5.8503375590551183
11
-4.126220472440945
21
5.8496456692913386
0
LINE
8
BLACK
6
CONTINUOUS
10
-4.126220472440945
20
5.8496456692913386
11
-4.1809448818897641
21
5.8496456692913386
0
LINE
8
BLACK
6
CONTINUOUS
10
-4.1809448818897641
20
5.8496456692913386
11
-4.1809448818897641
21
5.7811417322834648
0
LINE
8
BLACK
6
CONTINUOUS
10
-4.1809448818897641
20
5.7811417322834648
11
-4.181636771653543
21
5.7794714173228341
0
LINE
8
BLACK
6
CONTINUOUS
10
-4.181636771653543
20
5.7794714173228341
11
-4.1833070866141728
21
5.7787795275590552
0
LINE
8
BLACK
6
CONTINUOUS
10
-4.1833070866141728
20
5.7787795275590552
11
-4.2222834645669289
21
5.7787795275590552
0
LINE
8
BLACK
6
CONTINUOUS
10
-4.2222834645669289
20
5.7787795275590552
11
-4.2239537795275588
21
5.7794714173228341
0
LINE
8
BLACK
6
CONTINUOUS
10
-4.2239537795275588
20
5.7794714173228341
11
-4.2246456692913386
21
5.7811417322834648
0
LINE
8
BLACK
6
CONTINUOUS
10
-4.2246456692913386
20
5.7811417322834648
11
-4.2239537795275588
21
5.7828120472440947
0
LINE
8
BLACK
6
CONTINUOUS
10
-4.2239537795275588
20
5.7828120472440947
11
-4.2222834645669289
21
5.7835039370078736
0
LINE
8
BLACK
6
CONTINUOUS
10
-4.2222834645669289
20
5.7835039370078736
11
-4.1856692913385825
21
5.7835039370078736
0
LINE
8
BLACK
6
CONTINUOUS
10
-4.1856692913385825
20
5.7835039370078736
11
-4.1856692913385825
21
5.8520078740157482
0
LINE
8
BLACK
6
CONTINUOUS
10
-4.1856692913385825
20
5.8520078740157482
11
-4.1849774015748027
21
5.853678188976378
0
LINE
8
BLACK
6
CONTINUOUS
10
-4.1849774015748027
20
5.853678188976378
11
-4.1833070866141728
21
5.8543700787401569
0
LINE
8
BLACK
6
CONTINUOUS
10
-4.1833070866141728
20
5.8543700787401569
11
-4.126220472440945
21
5.8543700787401569
0
LINE
8
BLACK
6
CONTINUOUS
10
-4.126220472440945
20
5.8543700787401569
11
-4.1245501574803152
21
5.853678188976378
0
LINE
8
BLACK
6
CONTINUOUS
10
-4.4779848818897641
20
5.8710994488188977
11
-4.4772929921259843
21
5.8694291338582678
0
LINE
8
BLACK
6
CONTINUOUS
10
-4.4772929921259843
20
5.8694291338582678
11
-4.4779848818897641
21
5.867758818897638
0
LINE
8
BLACK
6
CONTINUOUS
10
-4.4779848818897641
20
5.867758818897638
11
-4.4796551968503939
21
5.8670669291338582
0
LINE
8
BLACK
6
CONTINUOUS
10
-4.4796551968503939
20
5.8670669291338582
11
-4.498336929133858
21
5.8670669291338582
0
LINE
8
BLACK
6
CONTINUOUS
10
-4.498336929133858
20
5.8670669291338582
11
-4.5000072440944878
21
5.867758818897638
0
LINE
8
BLACK
6
CONTINUOUS
10
-4.5000072440944878
20
5.867758818897638
11
-4.5006991338582676
21
5.8694291338582678
0
LINE
8
BLACK
6
CONTINUOUS
10
-4.5006991338582676
20
5.8694291338582678
11
-4.5000072440944878
21
5.8710994488188977
0
LINE
8
BLACK
6
CONTINUOUS
10
-4.5000072440944878
20
5.8710994488188977
11
-4.498336929133858
21
5.8717913385826774
0
LINE
8
BLACK
6
CONTINUOUS
10
-4.498336929133858
20
5.8717913385826774
11
-4.4796551968503939
21
5.8717913385826774
0
LINE
8
BLACK
6
CONTINUOUS
10
-4.4796551968503939
20
5.8717913385826774
11
-4.4779848818897641
21
5.8710994488188977
0
LINE
8
BLACK
6
CONTINUOUS
10
-4.9255461811023622
20
5.9011151181102361
11
-4.9254109448818895
21
5.9010016141732278
0
LINE
8
BLACK
6
CONTINUOUS
10
-4.9254109448818895
20
5.9010016141732278
11
-4.9252355905511811
21
5.9009814566929135
0
LINE
8
BLACK
6
CONTINUOUS
10
-4.9252355905511811
20
5.9009814566929135
11
-4.921486062992126
21
5.899106692913386
0
LINE
8
BLACK
6
CONTINUOUS
10
-4.921486062992126
20
5.899106692913386
11
-4.9206624015748028
21
5.8984957874015747
0
LINE
8
BLACK
6
CONTINUOUS
10
-4.9206624015748028
20
5.8984957874015747
11
-4.9204865748031494
21
5.8980900787401573
0
LINE
8
BLACK
6
CONTINUOUS
10
-4.9204865748031494
20
5.8980900787401573
11
-4.9201655511811024
21
5.8977861811023624
0
LINE
8
BLACK
6
CONTINUOUS
10
-4.9201655511811024
20
5.8977861811023624
11
-4.9182907874015749
21
5.8940366535433073
0
LINE
8
BLACK
6
CONTINUOUS
10
-4.9182907874015749
20
5.8940366535433073
11
-4.91799842519685
21
5.8930537401574803
0
LINE
8
BLACK
6
CONTINUOUS
10
-4.91799842519685
20
5.8930537401574803
11
-4.9180394488188979
21
5.8928820078740154
0
LINE
8
BLACK
6
CONTINUOUS
10
-4.9180394488188979
20
5.8928820078740154
11
-4.91797905511811
21
5.8927161417322838
0
LINE
8
BLACK
6
CONTINUOUS
10
-4.91797905511811
20
5.8927161417322838
11
-4.91797905511811
21
5.8777180314960624
0
LINE
8
BLACK
6
CONTINUOUS
10
-4.91797905511811
20
5.8777180314960624
11
-4.9181571259842523
21
5.87670811023622
0
LINE
8
BLACK
6
CONTINUOUS
10
-4.9181571259842523
20
5.87670811023622
11
-4.9182706299212597
21
5.8765728346456694
0
LINE
8
BLACK
6
CONTINUOUS
10
-4.9182706299212597
20
5.8765728346456694
11
-4.9182907874015749
21
5.8763975196850389
0
LINE
8
BLACK
6
CONTINUOUS
10
-4.9182907874015749
20
5.8763975196850389
11
-4.9201655511811024
21
5.8726479921259838
0
LINE
8
BLACK
6
CONTINUOUS
10
-4.9201655511811024
20
5.8726479921259838
11
-4.9207764566929129
21
5.8718243307086615
0
LINE
8
BLACK
6
CONTINUOUS
10
-4.9207764566929129
20
5.8718243307086615
11
-4.9211820866141736
21
5.8716485039370081
0
LINE
8
BLACK
6
CONTINUOUS
10
-4.9211820866141736
20
5.8716485039370081
11
-4.9214860236220472
21
5.8713274803149602
0
LINE
8
BLACK
6
CONTINUOUS
10
-4.9214860236220472
20
5.8713274803149602
11
-4.9252355511811023
21
5.8694526771653539
0
LINE
8
BLACK
6
CONTINUOUS
10
-4.9252355511811023
20
5.8694526771653539
11
-4.9262185039370081
21
5.86916031496063
0
LINE
8
BLACK
6
CONTINUOUS
10
-4.9262185039370081
20
5.86916031496063
11
-4.9263902362204721
21
5.8692012992125981
0
LINE
8
BLACK
6
CONTINUOUS
10
-4.9263902362204721
20
5.8692012992125981
11
-4.9265561023622046
21
5.8691409448818899
0
LINE
8
BLACK
6
CONTINUOUS
10
-4.9265561023622046
20
5.8691409448818899
11
-4.9340551574803149
21
5.8691409448818899
0
LINE
8
BLACK
6
CONTINUOUS
10
-4.9340551574803149
20
5.8691409448818899
11
-4.9350650787401573
21
5.8693190157480313
0
LINE
8
BLACK
6
CONTINUOUS
10
-4.9350650787401573
20
5.8693190157480313
11
-4.9352003543307088
21
5.8694324803149609
0
LINE
8
BLACK
6
CONTINUOUS
10
-4.9352003543307088
20
5.8694324803149609
11
-4.9353756692913384
21
5.8694526771653539
0
LINE
8
BLACK
6
CONTINUOUS
10
-4.9353756692913384
20
5.8694526771653539
11
-4.9391252362204723
21
5.8713274803149602
0
LINE
8
BLACK
6
CONTINUOUS
10
-4.9391252362204723
20
5.8713274803149602
11
-4.9399488976377954
21
5.8719384251968503
0
LINE
8
BLACK
6
CONTINUOUS
10
-4.9399488976377954
20
5.8719384251968503
11
-4.9407521259842522
21
5.8737916141732285
0
LINE
8
BLACK
6
CONTINUOUS
10
-4.9407521259842522
20
5.8737916141732285
11
-4.9401762598425192
21
5.8757275984251969
0
LINE
8
BLACK
6
CONTINUOUS
10
-4.9401762598425192
20
5.8757275984251969
11
-4.9384907086614174
21
5.8768404330708659
0
LINE
8
BLACK
6
CONTINUOUS
10
-4.9384907086614174
20
5.8768404330708659
11
-4.9364841338582677
21
5.8766095275590553
0
LINE
8
BLACK
6
CONTINUOUS
10
-4.9364841338582677
20
5.8766095275590553
11
-4.9333580708661415
21
5.875046456692913
0
LINE
8
BLACK
6
CONTINUOUS
10
-4.9333580708661415
20
5.875046456692913
11
-4.927253188976378
21
5.875046456692913
0
LINE
8
BLACK
6
CONTINUOUS
10
-4.927253188976378
20
5.875046456692913
11
-4.9250074409448814
21
5.8761693307086613
0
LINE
8
BLACK
6
CONTINUOUS
10
-4.9250074409448814
20
5.8761693307086613
11
-4.923884566929134
21
5.878415078740157
0
LINE
8
BLACK
6
CONTINUOUS
10
-4.923884566929134
20
5.878415078740157
11
-4.923884566929134
21
5.8827964173228349
0
LINE
8
BLACK
6
CONTINUOUS
10
-4.923884566929134
20
5.8827964173228349
11
-4.9402585433070865
21
5.8860711811023618
0
LINE
8
BLACK
6
CONTINUOUS
10
-4.9402585433070865
20
5.8860711811023618
11
-4.9412139370078743
21
5.8864438582677163
0
LINE
8
BLACK
6
CONTINUOUS
10
-4.9412139370078743
20
5.8864438582677163
11
-4.941518976377953
21
5.8868247244094487
0
LINE
8
BLACK
6
CONTINUOUS
10
-4.941518976377953
20
5.8868247244094487
11
-4.9419413779527561
21
5.8870686220472441
0
LINE
8
BLACK
6
CONTINUOUS
10
-4.9419413779527561
20
5.8870686220472441
11
-4.942130590551181
21
5.887588464566929
0
LINE
8
BLACK
6
CONTINUOUS
10
-4.942130590551181
20
5.887588464566929
11
-4.9424764960629917
21
5.8880203937007876
0
LINE
8
BLACK
6
CONTINUOUS
10
-4.9424764960629917
20
5.8880203937007876
11
-4.9424653543307082
21
5.8885081496062988
0
LINE
8
BLACK
6
CONTINUOUS
10
-4.9424653543307082
20
5.8885081496062988
11
-4.9426322047244096
21
5.8889666141732286
0
LINE
8
BLACK
6
CONTINUOUS
10
-4.9426322047244096
20
5.8889666141732286
11
-4.9426322047244096
21
5.8927161417322838
0
LINE
8
BLACK
6
CONTINUOUS
10
-4.9426322047244096
20
5.8927161417322838
11
-4.9424541338582673
21
5.8937260629921262
0
LINE
8
BLACK
6
CONTINUOUS
10
-4.9424541338582673
20
5.8937260629921262
11
-4.9423406692913385
21
5.893861299212598
0
LINE
8
BLACK
6
CONTINUOUS
10
-4.9423406692913385
20
5.893861299212598
11
-4.9423204724409446
21
5.8940366535433073
0
LINE
8
BLACK
6
CONTINUOUS
10
-4.9423204724409446
20
5.8940366535433073
11
-4.9404457086614171
21
5.8977861811023624
0
LINE
8
BLACK
6
CONTINUOUS
10
-4.9404457086614171
20
5.8977861811023624
11
-4.9398348031496058
21
5.8986098425196847
0
LINE
8
BLACK
6
CONTINUOUS
10
-4.9398348031496058
20
5.8986098425196847
11
-4.9394291338582672
21
5.8987856692913381
0
LINE
8
BLACK
6
CONTINUOUS
10
-4.9394291338582672
20
5.8987856692913381
11
-4.9391251968503935
21
5.899106692913386
0
LINE
8
BLACK
6
CONTINUOUS
10
-4.9391251968503935
20
5.899106692913386
11
-4.9353756692913384
21
5.9009814566929135
0
LINE
8
BLACK
6
CONTINUOUS
10
-4.9353756692913384
20
5.9009814566929135
11
-4.9343927559055114
21
5.9012738188976375
0
LINE
8
BLACK
6
CONTINUOUS
10
-4.9343927559055114
20
5.9012738188976375
11
-4.9342210629921261
21
5.9012327952755905
0
LINE
8
BLACK
6
CONTINUOUS
10
-4.9342210629921261
20
5.9012327952755905
11
-4.9340551574803149
21
5.9012931889763776
0
LINE
8
BLACK
6
CONTINUOUS
10
-4.9340551574803149
20
5.9012931889763776
11
-4.9265561023622046
21
5.9012931889763776
0
LINE
8
BLACK
6
CONTINUOUS
10
-4.9265561023622046
20
5.9012931889763776
11
-4.9255461811023622
21
5.9011151181102361
0
LINE
8
BLACK
6
CONTINUOUS
10
-4.9356038582677169
20
5.8942648031496061
11
-4.9367266929133855
21
5.8920190944881892
0
LINE
8
BLACK
6
CONTINUOUS
10
-4.9367266929133855
20
5.8920190944881892
11
-4.9367266929133855
21
5.8913872834645664
0
LINE
8
BLACK
6
CONTINUOUS
10
-4.9367266929133855
20
5.8913872834645664
11
-4.923884566929134
21
5.8888188582677161
0
LINE
8
BLACK
6
CONTINUOUS
10
-4.923884566929134
20
5.8888188582677161
11
-4.923884566929134
21
5.8920190944881892
0
LINE
8
BLACK
6
CONTINUOUS
10
-4.923884566929134
20
5.8920190944881892
11
-4.9250074409448814
21
5.8942648031496061
0
LINE
8
BLACK
6
CONTINUOUS
10
-4.9250074409448814
20
5.8942648031496061
11
-4.9272531496062992
21
5.8953876771653544
0
LINE
8
BLACK
6
CONTINUOUS
10
-4.9272531496062992
20
5.8953876771653544
11
-4.9333581102362203
21
5.8953876771653544
0
LINE
8
BLACK
6
CONTINUOUS
10
-4.9333581102362203
20
5.8953876771653544
11
-4.9356038582677169
21
5.8942648031496061
0
LINE
8
BLACK
6
CONTINUOUS
10
-4.8980474409448815
20
5.9133617716535429
11
-4.8973566141732281
21
5.9114637795275593
0
LINE
8
BLACK
6
CONTINUOUS
10
-4.8973566141732281
20
5.9114637795275593
11
-4.8973566141732281
21
5.9012931889763776
0
LINE
8
BLACK
6
CONTINUOUS
10
-4.8973566141732281
20
5.9012931889763776
11
-4.8946850787401575
21
5.9012931889763776
0
LINE
8
BLACK
6
CONTINUOUS
10
-4.8946850787401575
20
5.9012931889763776
11
-4.893675157480315
21
5.9011151181102361
0
LINE
8
BLACK
6
CONTINUOUS
10
-4.893675157480315
20
5.9011151181102361
11
-4.8921279133858269
21
5.899816811023622
0
LINE
8
BLACK
6
CONTINUOUS
10
-4.8921279133858269
20
5.899816811023622
11
-4.8917771653543305
21
5.8978276771653544
0
LINE
8
BLACK
6
CONTINUOUS
10
-4.8917771653543305
20
5.8978276771653544
11
-4.8927870866141729
21
5.8960785039370078
0
LINE
8
BLACK
6
CONTINUOUS
10
-4.8927870866141729
20
5.8960785039370078
11
-4.8946850787401575
21
5.8953876771653544
0
LINE
8
BLACK
6
CONTINUOUS
10
-4.8946850787401575
20
5.8953876771653544
11
-4.8973566141732281
21
5.8953876771653544
0
LINE
8
BLACK
6
CONTINUOUS
10
-4.8973566141732281
20
5.8953876771653544
11
-4.8973566141732281
21
5.8777180314960624
0
LINE
8
BLACK
6
CONTINUOUS
10
-4.8973566141732281
20
5.8777180314960624
11
-4.8975346850393704
21
5.87670811023622
0
LINE
8
BLACK
6
CONTINUOUS
10
-4.8975346850393704
20
5.87670811023622
11
-4.8976481889763779
21
5.8765728346456694
0
LINE
8
BLACK
6
CONTINUOUS
10
-4.8976481889763779
20
5.8765728346456694
11
-4.897668346456693
21
5.8763975196850389
0
LINE
8
BLACK
6
CONTINUOUS
10
-4.897668346456693
20
5.8763975196850389
11
-4.8995431102362206
21
5.8726479921259838
0
LINE
8
BLACK
6
CONTINUOUS
10
-4.8995431102362206
20
5.8726479921259838
11
-4.900154015748031
21
5.8718243307086615
0
LINE
8
BLACK
6
CONTINUOUS
10
-4.900154015748031
20
5.8718243307086615
11
-4.9005596456692908
21
5.8716485039370081
0
LINE
8
BLACK
6
CONTINUOUS
10
-4.9005596456692908
20
5.8716485039370081
11
-4.9008635826771654
21
5.8713274803149602
0
LINE
8
BLACK
6
CONTINUOUS
10
-4.9008635826771654
20
5.8713274803149602
11
-4.9046131102362205
21
5.8694526771653539
0
LINE
8
BLACK
6
CONTINUOUS
10
-4.9046131102362205
20
5.8694526771653539
11
-4.9055960629921262
21
5.86916031496063
0
LINE
8
BLACK
6
CONTINUOUS
10
-4.9055960629921262
20
5.86916031496063
11
-4.9057677952755903
21
5.8692012992125981
0
LINE
8
BLACK
6
CONTINUOUS
10
-4.9057677952755903
20
5.8692012992125981
11
-4.9059336614173228
21
5.8691409448818899
0
LINE
8
BLACK
6
CONTINUOUS
10
-4.9059336614173228
20
5.8691409448818899
11
-4.9096831889763779
21
5.8691409448818899
0
LINE
8
BLACK
6
CONTINUOUS
10
-4.9096831889763779
20
5.8691409448818899
11
-4.9106931102362203
21
5.8693190157480313
0
LINE
8
BLACK
6
CONTINUOUS
10
-4.9106931102362203
20
5.8693190157480313
11
-4.9122403543307085
21
5.8706173228346454
0
LINE
8
BLACK
6
CONTINUOUS
10
-4.9122403543307085
20
5.8706173228346454
11
-4.9125911023622049
21
5.872606456692913
0
LINE
8
BLACK
6
CONTINUOUS
10
-4.9125911023622049
20
5.872606456692913
11
-4.9115811811023624
21
5.8743556299212596
0
LINE
8
BLACK
6
CONTINUOUS
10
-4.9115811811023624
20
5.8743556299212596
11
-4.9096831889763779
21
5.875046456692913
0
LINE
8
BLACK
6
CONTINUOUS
10
-4.9096831889763779
20
5.875046456692913
11
-4.9066307480314961
21
5.875046456692913
0
LINE
8
BLACK
6
CONTINUOUS
10
-4.9066307480314961
20
5.875046456692913
11
-4.9043849999999996
21
5.8761693307086613
0
LINE
8
BLACK
6
CONTINUOUS
10
-4.9043849999999996
20
5.8761693307086613
11
-4.9032621259842522
21
5.878415078740157
0
LINE
8
BLACK
6
CONTINUOUS
10
-4.9032621259842522
20
5.878415078740157
11
-4.9032621259842522
21
5.8953876771653544
0
LINE
8
BLACK
6
CONTINUOUS
10
-4.9032621259842522
20
5.8953876771653544
11
-4.9096831889763779
21
5.8953876771653544
0
LINE
8
BLACK
6
CONTINUOUS
10
-4.9096831889763779
20
5.8953876771653544
11
-4.9106931102362203
21
5.8955657480314958
0
LINE
8
BLACK
6
CONTINUOUS
10
-4.9106931102362203
20
5.8955657480314958
11
-4.9122403543307085
21
5.89686405511811
0
LINE
8
BLACK
6
CONTINUOUS
10
-4.9122403543307085
20
5.89686405511811
11
-4.9125911023622049
21
5.8988531889763776
0
LINE
8
BLACK
6
CONTINUOUS
10
-4.9125911023622049
20
5.8988531889763776
11
-4.9115811811023624
21
5.9006023622047241
0
LINE
8
BLACK
6
CONTINUOUS
10
-4.9115811811023624
20
5.9006023622047241
11
-4.9096831889763779
21
5.9012931889763776
0
LINE
8
BLACK
6
CONTINUOUS
10
-4.9096831889763779
20
5.9012931889763776
11
-4.9032621259842522
21
5.9012931889763776
0
LINE
8
BLACK
6
CONTINUOUS
10
-4.9032621259842522
20
5.9012931889763776
11
-4.9032621259842522
21
5.9114637795275593
0
LINE
8
BLACK
6
CONTINUOUS
10
-4.9032621259842522
20
5.9114637795275593
11
-4.9030840551181099
21
5.9124737007874018
0
LINE
8
BLACK
6
CONTINUOUS
10
-4.9030840551181099
20
5.9124737007874018
11
-4.9017857480314957
21
5.9140209448818899
0
LINE
8
BLACK
6
CONTINUOUS
10
-4.9017857480314957
20
5.9140209448818899
11
-4.8997966141732281
21
5.9143716929133854
0
LINE
8
BLACK
6
CONTINUOUS
10
-4.8997966141732281
20
5.9143716929133854
11
-4.8980474409448815
21
5.9133617716535429
0
LINE
8
BLACK
6
CONTINUOUS
10
-4.8711779527559056
20
5.9011151181102361
11
-4.8710427165354329
21
5.9010016141732278
0
LINE
8
BLACK
6
CONTINUOUS
10
-4.8710427165354329
20
5.9010016141732278
11
-4.8708673622047245
21
5.9009814566929135
0
LINE
8
BLACK
6
CONTINUOUS
10
-4.8708673622047245
20
5.9009814566929135
11
-4.8671178346456694
21
5.899106692913386
0
LINE
8
BLACK
6
CONTINUOUS
10
-4.8671178346456694
20
5.899106692913386
11
-4.8662941732283462
21
5.8984957874015747
0
LINE
8
BLACK
6
CONTINUOUS
10
-4.8662941732283462
20
5.8984957874015747
11
-4.8661183464566928
21
5.8980900787401573
0
LINE
8
BLACK
6
CONTINUOUS
10
-4.8661183464566928
20
5.8980900787401573
11
-4.8657973228346458
21
5.8977861811023624
0
LINE
8
BLACK
6
CONTINUOUS
10
-4.8657973228346458
20
5.8977861811023624
11
-4.8639225590551183
21
5.8940366535433073
0
LINE
8
BLACK
6
CONTINUOUS
10
-4.8639225590551183
20
5.8940366535433073
11
-4.8636301968503934
21
5.8930537401574803
0
LINE
8
BLACK
6
CONTINUOUS
10
-4.8636301968503934
20
5.8930537401574803
11
-4.8636712204724413
21
5.8928820078740154
0
LINE
8
BLACK
6
CONTINUOUS
10
-4.8636712204724413
20
5.8928820078740154
11
-4.8636108267716534
21
5.8927161417322838
0
LINE
8
BLACK
6
CONTINUOUS
10
-4.8636108267716534
20
5.8927161417322838
11
-4.8636108267716534
21
5.8908413779527562
0
LINE
8
BLACK
6
CONTINUOUS
10
-4.8636108267716534
20
5.8908413779527562
11
-4.8637888976377948
21
5.8898314566929129
0
LINE
8
BLACK
6
CONTINUOUS
10
-4.8637888976377948
20
5.8898314566929129
11
-4.8639024015748031
21
5.8896961811023623
0
LINE
8
BLACK
6
CONTINUOUS
10
-4.8639024015748031
20
5.8896961811023623
11
-4.8639225590551183
21
5.8895208661417318
0
LINE
8
BLACK
6
CONTINUOUS
10
-4.8639225590551183
20
5.8895208661417318
11
-4.8657973228346458
21
5.8857713385826766
0
LINE
8
BLACK
6
CONTINUOUS
10
-4.8657973228346458
20
5.8857713385826766
11
-4.8664082283464563
21
5.8849476771653544
0
LINE
8
BLACK
6
CONTINUOUS
10
-4.8664082283464563
20
5.8849476771653544
11
-4.8668139370078736
21
5.8847718110236222
0
LINE
8
BLACK
6
CONTINUOUS
10
-4.8668139370078736
20
5.8847718110236222
11
-4.8671178346456694
21
5.8844508267716531
0
LINE
8
BLACK
6
CONTINUOUS
10
-4.8671178346456694
20
5.8844508267716531
11
-4.8708673622047245
21
5.8825760629921255
0
LINE
8
BLACK
6
CONTINUOUS
10
-4.8708673622047245
20
5.8825760629921255
11
-4.8718503149606294
21
5.8822837007874016
0
LINE
8
BLACK
6
CONTINUOUS
10
-4.8718503149606294
20
5.8822837007874016
11
-4.8720220078740155
21
5.8823246850393698
0
LINE
8
BLACK
6
CONTINUOUS
10
-4.8720220078740155
20
5.8823246850393698
11
-4.872187874015748
21
5.8822643307086615
0
LINE
8
BLACK
6
CONTINUOUS
10
-4.872187874015748
20
5.8822643307086615
11
-4.8771151181102361
21
5.8822643307086615
0
LINE
8
BLACK
6
CONTINUOUS
10
-4.8771151181102361
20
5.8822643307086615
11
-4.8793608661417318
21
5.8811414566929132
0
LINE
8
BLACK
6
CONTINUOUS
10
-4.8793608661417318
20
5.8811414566929132
11
-4.8804837007874013
21
5.8788957480314963
0
LINE
8
BLACK
6
CONTINUOUS
10
-4.8804837007874013
20
5.8788957480314963
11
-4.8804837007874013
21
5.878415078740157
0
LINE
8
BLACK
6
CONTINUOUS
10
-4.8804837007874013
20
5.878415078740157
11
-4.8793608661417318
21
5.8761693700787401
0
LINE
8
BLACK
6
CONTINUOUS
10
-4.8793608661417318
20
5.8761693700787401
11
-4.8771150787401574
21
5.875046456692913
0
LINE
8
BLACK
6
CONTINUOUS
10
-4.8771150787401574
20
5.875046456692913
11
-4.8710101968503938
21
5.875046456692913
0
LINE
8
BLACK
6
CONTINUOUS
10
-4.8710101968503938
20
5.875046456692913
11
-4.8678840944881889
21
5.8766095275590553
0
LINE
8
BLACK
6
CONTINUOUS
10
-4.8678840944881889
20
5.8766095275590553
11
-4.8669011811023619
21
5.8769018897637793
0
LINE
8
BLACK
6
CONTINUOUS
10
-4.8669011811023619
20
5.8769018897637793
11
-4.8649366535433067
21
5.8764326377952756
0
LINE
8
BLACK
6
CONTINUOUS
10
-4.8649366535433067
20
5.8764326377952756
11
-4.8637333464566925
21
5.8748103543307089
0
LINE
8
BLACK
6
CONTINUOUS
10
-4.8637333464566925
20
5.8748103543307089
11
-4.86385437007874
21
5.8727942125984249
0
LINE
8
BLACK
6
CONTINUOUS
10
-4.86385437007874
20
5.8727942125984249
11
-4.8652430314960631
21
5.8713274803149602
0
LINE
8
BLACK
6
CONTINUOUS
10
-4.8652430314960631
20
5.8713274803149602
11
-4.8689925590551182
21
5.8694526771653539
0
LINE
8
BLACK
6
CONTINUOUS
10
-4.8689925590551182
20
5.8694526771653539
11
-4.8699755118110239
21
5.86916031496063
0
LINE
8
BLACK
6
CONTINUOUS
10
-4.8699755118110239
20
5.86916031496063
11
-4.870147244094488
21
5.8692012992125981
0
LINE
8
BLACK
6
CONTINUOUS
10
-4.870147244094488
20
5.8692012992125981
11
-4.8703131102362205
21
5.8691409448818899
0
LINE
8
BLACK
6
CONTINUOUS
10
-4.8703131102362205
20
5.8691409448818899
11
-4.8778121653543307
21
5.8691409448818899
0
LINE
8
BLACK
6
CONTINUOUS
10
-4.8778121653543307
20
5.8691409448818899
11
-4.8788220866141732
21
5.8693190157480313
0
LINE
8
BLACK
6
CONTINUOUS
10
-4.8788220866141732
20
5.8693190157480313
11
-4.8789573622047246
21
5.8694324803149609
0
LINE
8
BLACK
6
CONTINUOUS
10
-4.8789573622047246
20
5.8694324803149609
11
-4.8791326771653543
21
5.8694526771653539
0
LINE
8
BLACK
6
CONTINUOUS
10
-4.8791326771653543
20
5.8694526771653539
11
-4.8828822440944881
21
5.8713274803149602
0
LINE
8
BLACK
6
CONTINUOUS
10
-4.8828822440944881
20
5.8713274803149602
11
-4.8837059055118113
21
5.8719384251968503
0
LINE
8
BLACK
6
CONTINUOUS
10
-4.8837059055118113
20
5.8719384251968503
11
-4.8838817322834647
21
5.8723440551181101
0
LINE
8
BLACK
6
CONTINUOUS
10
-4.8838817322834647
20
5.8723440551181101
11
-4.8842027165354329
21
5.8726479921259838
0
LINE
8
BLACK
6
CONTINUOUS
10
-4.8842027165354329
20
5.8726479921259838
11
-4.8860774803149605
21
5.8763975196850389
0
LINE
8
BLACK
6
CONTINUOUS
10
-4.8860774803149605
20
5.8763975196850389
11
-4.8863698425196853
21
5.8773804724409446
0
LINE
8
BLACK
6
CONTINUOUS
10
-4.8863698425196853
20
5.8773804724409446
11
-4.8863288582677162
21
5.877552125984252
0
LINE
8
BLACK
6
CONTINUOUS
10
-4.8863288582677162
20
5.877552125984252
11
-4.8863892125984254
21
5.8777180314960624
0
LINE
8
BLACK
6
CONTINUOUS
10
-4.8863892125984254
20
5.8777180314960624
11
-4.8863892125984254
21
5.87959279527559
0
LINE
8
BLACK
6
CONTINUOUS
10
-4.8863892125984254
20
5.87959279527559
11
-4.8862111417322831
21
5.8806027165354333
0
LINE
8
BLACK
6
CONTINUOUS
10
-4.8862111417322831
20
5.8806027165354333
11
-4.8860976771653544
21
5.8807379527559052
0
LINE
8
BLACK
6
CONTINUOUS
10
-4.8860976771653544
20
5.8807379527559052
11
-4.8860774803149605
21
5.8809133070866144
0
LINE
8
BLACK
6
CONTINUOUS
10
-4.8860774803149605
20
5.8809133070866144
11
-4.8842027165354329
21
5.8846628346456695
0
LINE
8
BLACK
6
CONTINUOUS
10
-4.8842027165354329
20
5.8846628346456695
11
-4.8835918110236216
21
5.8854864960629918
0
LINE
8
BLACK
6
CONTINUOUS
10
-4.8835918110236216
20
5.8854864960629918
11
-4.883186141732283
21
5.8856623228346452
0
LINE
8
BLACK
6
CONTINUOUS
10
-4.883186141732283
20
5.8856623228346452
11
-4.8828822047244094
21
5.8859833464566931
0
LINE
8
BLACK
6
CONTINUOUS
10
-4.8828822047244094
20
5.8859833464566931
11
-4.8791326771653543
21
5.8878581102362206
0
LINE
8
BLACK
6
CONTINUOUS
10
-4.8791326771653543
20
5.8878581102362206
11
-4.8781497637795272
21
5.8881504724409446
0
LINE
8
BLACK
6
CONTINUOUS
10
-4.8781497637795272
20
5.8881504724409446
11
-4.877978070866142
21
5.8881094488188976
0
LINE
8
BLACK
6
CONTINUOUS
10
-4.877978070866142
20
5.8881094488188976
11
-4.8778121653543307
21
5.8881698425196847
0
LINE
8
BLACK
6
CONTINUOUS
10
-4.8778121653543307
20
5.8881698425196847
11
-4.8728849212598426
21
5.8881698425196847
0
LINE
8
BLACK
6
CONTINUOUS
10
-4.8728849212598426
20
5.8881698425196847
11
-4.8706392125984248
21
5.8892926771653542
0
LINE
8
BLACK
6
CONTINUOUS
10
-4.8706392125984248
20
5.8892926771653542
11
-4.8695163385826774
21
5.8915384251968499
0
LINE
8
BLACK
6
CONTINUOUS
10
-4.8695163385826774
20
5.8915384251968499
11
-4.8695163385826774
21
5.8920190944881892
0
LINE
8
BLACK
6
CONTINUOUS
10
-4.8695163385826774
20
5.8920190944881892
11
-4.8706392125984248
21
5.8942648031496061
0
LINE
8
BLACK
6
CONTINUOUS
10
-4.8706392125984248
20
5.8942648031496061
11
-4.8728849212598426
21
5.8953876771653544
0
LINE
8
BLACK
6
CONTINUOUS
10
-4.8728849212598426
20
5.8953876771653544
11
-4.8771151181102361
21
5.8953876771653544
0
LINE
8
BLACK
6
CONTINUOUS
10
-4.8771151181102361
20
5.8953876771653544
11
-4.8802411811023623
21
5.8938246456692909
0
LINE
8
BLACK
6
CONTINUOUS
10
-4.8802411811023623
20
5.8938246456692909
11
-4.881224133858268
21
5.8935322834645669
0
LINE
8
BLACK
6
CONTINUOUS
10
-4.881224133858268
20
5.8935322834645669
11
-4.8831886220472436
21
5.8940015748031493
0
LINE
8
BLACK
6
CONTINUOUS
10
-4.8831886220472436
20
5.8940015748031493
11
-4.8843919291338578
21
5.8956238188976373
0
LINE
8
BLACK
6
CONTINUOUS
10
-4.8843919291338578
20
5.8956238188976373
11
-4.8842708661417324
21
5.89764
0
LINE
8
BLACK
6
CONTINUOUS
10
-4.8842708661417324
20
5.89764
11
-4.8828822047244094
21
5.899106692913386
0
LINE
8
BLACK
6
CONTINUOUS
10
-4.8828822047244094
20
5.899106692913386
11
-4.8791326771653543
21
5.9009814566929135
0
LINE
8
BLACK
6
CONTINUOUS
10
-4.8791326771653543
20
5.9009814566929135
11
-4.8781497637795272
21
5.9012738188976375
0
LINE
8
BLACK
6
CONTINUOUS
10
-4.8781497637795272
20
5.9012738188976375
11
-4.877978070866142
21
5.9012327952755905
0
LINE
8
BLACK
6
CONTINUOUS
10
-4.877978070866142
20
5.9012327952755905
11
-4.8778121653543307
21
5.9012931889763776
0
LINE
8
BLACK
6
CONTINUOUS
10
-4.8778121653543307
20
5.9012931889763776
11
-4.872187874015748
21
5.9012931889763776
0
LINE
8
BLACK
6
CONTINUOUS
10
-4.872187874015748
20
5.9012931889763776
11
-4.8711779527559056
21
5.9011151181102361
0
LINE
8
BLACK
6
CONTINUOUS
10
-4.8355574015748033
20
5.9011151181102361
11
-4.8354221653543306
21
5.9010016141732278
0
LINE
8
BLACK
6
CONTINUOUS
10
-4.8354221653543306
20
5.9010016141732278
11
-4.8352468110236222
21
5.9009814566929135
0
LINE
8
BLACK
6
CONTINUOUS
10
-4.8352468110236222
20
5.9009814566929135
11
-4.8314972834645671
21
5.899106692913386
0
LINE
8
BLACK
6
CONTINUOUS
10
-4.8314972834645671
20
5.899106692913386
11
-4.8306736220472439
21
5.8984957874015747
0
LINE
8
BLACK
6
CONTINUOUS
10
-4.8306736220472439
20
5.8984957874015747
11
-4.8298703543307084
21
5.8966425984251964
0
LINE
8
BLACK
6
CONTINUOUS
10
-4.8298703543307084
20
5.8966425984251964
11
-4.8304462204724405
21
5.8947065748031493
0
LINE
8
BLACK
6
CONTINUOUS
10
-4.8304462204724405
20
5.8947065748031493
11
-4.8321317716535432
21
5.8935937401574803
0
LINE
8
BLACK
6
CONTINUOUS
10
-4.8321317716535432
20
5.8935937401574803
11
-4.8341383070866142
21
5.8938246456692909
0
LINE
8
BLACK
6
CONTINUOUS
10
-4.8341383070866142
20
5.8938246456692909
11
-4.8372643700787403
21
5.8953876771653544
0
LINE
8
BLACK
6
CONTINUOUS
10
-4.8372643700787403
20
5.8953876771653544
11
-4.8433693307086614
21
5.8953876771653544
0
LINE
8
BLACK
6
CONTINUOUS
10
-4.8433693307086614
20
5.8953876771653544
11
-4.8456150787401571
21
5.8942648031496061
0
LINE
8
BLACK
6
CONTINUOUS
10
-4.8456150787401571
20
5.8942648031496061
11
-4.8467379133858266
21
5.8920190944881892
0
LINE
8
BLACK
6
CONTINUOUS
10
-4.8467379133858266
20
5.8920190944881892
11
-4.8467379133858266
21
5.8907914960629917
0
LINE
8
BLACK
6
CONTINUOUS
10
-4.8467379133858266
20
5.8907914960629917
11
-4.8452440944881889
21
5.8900446062992122
0
LINE
8
BLACK
6
CONTINUOUS
10
-4.8452440944881889
20
5.8900446062992122
11
-4.8365673228346457
21
5.8900446062992122
0
LINE
8
BLACK
6
CONTINUOUS
10
-4.8365673228346457
20
5.8900446062992122
11
-4.8355574015748033
21
5.8898665354330708
0
LINE
8
BLACK
6
CONTINUOUS
10
-4.8355574015748033
20
5.8898665354330708
11
-4.8354221653543306
21
5.8897530314960624
0
LINE
8
BLACK
6
CONTINUOUS
10
-4.8354221653543306
20
5.8897530314960624
11
-4.8352468110236222
21
5.8897328740157482
0
LINE
8
BLACK
6
CONTINUOUS
10
-4.8352468110236222
20
5.8897328740157482
11
-4.8314972834645671
21
5.8878581102362206
0
LINE
8
BLACK
6
CONTINUOUS
10
-4.8314972834645671
20
5.8878581102362206
11
-4.8306736220472439
21
5.8872472047244093
0
LINE
8
BLACK
6
CONTINUOUS
10
-4.8306736220472439
20
5.8872472047244093
11
-4.8304977952755905
21
5.886841496062992
0
LINE
8
BLACK
6
CONTINUOUS
10
-4.8304977952755905
20
5.886841496062992
11
-4.8301767716535435
21
5.8865375984251971
0
LINE
8
BLACK
6
CONTINUOUS
10
-4.8301767716535435
20
5.8865375984251971
11
-4.828302007874016
21
5.882788070866142
0
LINE
8
BLACK
6
CONTINUOUS
10
-4.828302007874016
20
5.882788070866142
11
-4.8280096456692911
21
5.881805157480315
0
LINE
8
BLACK
6
CONTINUOUS
10
-4.8280096456692911
20
5.881805157480315
11
-4.8280506692913381
21
5.8816334251968501
0
LINE
8
BLACK
6
CONTINUOUS
10
-4.8280506692913381
20
5.8816334251968501
11
-4.8279902755905511
21
5.8814675590551175
0
LINE
8
BLACK
6
CONTINUOUS
10
-4.8279902755905511
20
5.8814675590551175
11
-4.8279902755905511
21
5.8777180314960624
0
LINE
8
BLACK
6
CONTINUOUS
10
-4.8279902755905511
20
5.8777180314960624
11
-4.8281683464566925
21
5.87670811023622
0
LINE
8
BLACK
6
CONTINUOUS
10
-4.8281683464566925
20
5.87670811023622
11
-4.8282818503937008
21
5.8765728346456694
0
LINE
8
BLACK
6
CONTINUOUS
10
-4.8282818503937008
20
5.8765728346456694
11
-4.828302007874016
21
5.8763975196850389
0
LINE
8
BLACK
6
CONTINUOUS
10
-4.828302007874016
20
5.8763975196850389
11
-4.8301767716535435
21
5.8726479921259838
0
LINE
8
BLACK
6
CONTINUOUS
10
-4.8301767716535435
20
5.8726479921259838
11
-4.830787677165354
21
5.8718243307086615
0
LINE
8
BLACK
6
CONTINUOUS
10
-4.830787677165354
20
5.8718243307086615
11
-4.8311933070866138
21
5.8716485039370081
0
LINE
8
BLACK
6
CONTINUOUS
10
-4.8311933070866138
20
5.8716485039370081
11
-4.8314972440944883
21
5.8713274803149602
0
LINE
8
BLACK
6
CONTINUOUS
10
-4.8314972440944883
20
5.8713274803149602
11
-4.8352467716535434
21
5.8694526771653539
0
LINE
8
BLACK
6
CONTINUOUS
10
-4.8352467716535434
20
5.8694526771653539
11
-4.8362297244094483
21
5.86916031496063
0
LINE
8
BLACK
6
CONTINUOUS
10
-4.8362297244094483
20
5.86916031496063
11
-4.8364014566929132
21
5.8692012992125981
0
LINE
8
BLACK
6
CONTINUOUS
10
-4.8364014566929132
20
5.8692012992125981
11
-4.8365673228346457
21
5.8691409448818899
0
LINE
8
BLACK
6
CONTINUOUS
10
-4.8365673228346457
20
5.8691409448818899
11
-4.8459411417322835
21
5.8691409448818899
0
LINE
8
BLACK
6
CONTINUOUS
10
-4.8459411417322835
20
5.8691409448818899
11
-4.846951062992126
21
5.8693190157480313
0
LINE
8
BLACK
6
CONTINUOUS
10
-4.846951062992126
20
5.8693190157480313
11
-4.8470863385826775
21
5.8694324803149609
0
LINE
8
BLACK
6
CONTINUOUS
10
-4.8470863385826775
20
5.8694324803149609
11
-4.8472616535433071
21
5.8694526771653539
0
LINE
8
BLACK
6
CONTINUOUS
10
-4.8472616535433071
20
5.8694526771653539
11
-4.8479823228346453
21
5.8698129921259845
0
LINE
8
BLACK
6
CONTINUOUS
10
-4.8479823228346453
20
5.8698129921259845
11
-4.8482142913385822
21
5.8695365354330704
0
LINE
8
BLACK
6
CONTINUOUS
10
-4.8482142913385822
20
5.8695365354330704
11
-4.8502034251968507
21
5.8691857874015749
0
LINE
8
BLACK
6
CONTINUOUS
10
-4.8502034251968507
20
5.8691857874015749
11
-4.8519525984251963
21
5.8701957086614174
0
LINE
8
BLACK
6
CONTINUOUS
10
-4.8519525984251963
20
5.8701957086614174
11
-4.8526434251968507
21
5.872093700787401
0
LINE
8
BLACK
6
CONTINUOUS
10
-4.8526434251968507
20
5.872093700787401
11
-4.8526434251968507
21
5.8927161417322838
0
LINE
8
BLACK
6
CONTINUOUS
10
-4.8526434251968507
20
5.8927161417322838
11
-4.8524653543307084
21
5.8937260629921262
0
LINE
8
BLACK
6
CONTINUOUS
10
-4.8524653543307084
20
5.8937260629921262
11
-4.8523518897637796
21
5.893861299212598
0
LINE
8
BLACK
6
CONTINUOUS
10
-4.8523518897637796
20
5.893861299212598
11
-4.8523316929133857
21
5.8940366535433073
0
LINE
8
BLACK
6
CONTINUOUS
10
-4.8523316929133857
20
5.8940366535433073
11
-4.8504569291338582
21
5.8977861811023624
0
LINE
8
BLACK
6
CONTINUOUS
10
-4.8504569291338582
20
5.8977861811023624
11
-4.8498460236220469
21
5.8986098425196847
0
LINE
8
BLACK
6
CONTINUOUS
10
-4.8498460236220469
20
5.8986098425196847
11
-4.8494403543307083
21
5.8987856692913381
0
LINE
8
BLACK
6
CONTINUOUS
10
-4.8494403543307083
20
5.8987856692913381
11
-4.8491364173228346
21
5.899106692913386
0
LINE
8
BLACK
6
CONTINUOUS
10
-4.8491364173228346
20
5.899106692913386
11
-4.8453868897637795
21
5.9009814566929135
0
LINE
8
BLACK
6
CONTINUOUS
10
-4.8453868897637795
20
5.9009814566929135
11
-4.8444039763779525
21
5.9012738188976375
0
LINE
8
BLACK
6
CONTINUOUS
10
-4.8444039763779525
20
5.9012738188976375
11
-4.8442322834645672
21
5.9012327952755905
0
LINE
8
BLACK
6
CONTINUOUS
10
-4.8442322834645672
20
5.9012327952755905
11
-4.844066377952756
21
5.9012931889763776
0
LINE
8
BLACK
6
CONTINUOUS
10
-4.844066377952756
20
5.9012931889763776
11
-4.8365673228346457
21
5.9012931889763776
0
LINE
8
BLACK
6
CONTINUOUS
10
-4.8365673228346457
20
5.9012931889763776
11
-4.8355574015748033
21
5.9011151181102361
0
LINE
8
BLACK
6
CONTINUOUS
10
-4.8467379133858266
20
5.8757933858267712
11
-4.8452440551181102
21
5.875046456692913
0
LINE
8
BLACK
6
CONTINUOUS
10
-4.8452440551181102
20
5.875046456692913
11
-4.8372644094488191
21
5.875046456692913
0
LINE
8
BLACK
6
CONTINUOUS
10
-4.8372644094488191
20
5.875046456692913
11
-4.8350186614173225
21
5.8761693307086613
0
LINE
8
BLACK
6
CONTINUOUS
10
-4.8350186614173225
20
5.8761693307086613
11
-4.8338957874015751
21
5.878415078740157
0
LINE
8
BLACK
6
CONTINUOUS
10
-4.8338957874015751
20
5.878415078740157
11
-4.8338957874015751
21
5.8807705118110238
0
LINE
8
BLACK
6
CONTINUOUS
10
-4.8338957874015751
20
5.8807705118110238
11
-4.8350186614173225
21
5.8830162204724408
0
LINE
8
BLACK
6
CONTINUOUS
10
-4.8350186614173225
20
5.8830162204724408
11
-4.8372643700787403
21
5.8841390944881891
0
LINE
8
BLACK
6
CONTINUOUS
10
-4.8372643700787403
20
5.8841390944881891
11
-4.8459411417322835
21
5.8841390944881891
0
LINE
8
BLACK
6
CONTINUOUS
10
-4.8459411417322835
20
5.8841390944881891
11
-4.8467379133858266
21
5.8842795669291341
0
LINE
8
BLACK
6
CONTINUOUS
10
-4.8467379133858266
20
5.8842795669291341
11
-4.8467379133858266
21
5.8757933858267712
0
LINE
8
BLACK
6
CONTINUOUS
10
-4.1949181496062993
20
5.9011151181102361
11
-4.1947829133858265
21
5.9010016141732278
0
LINE
8
BLACK
6
CONTINUOUS
10
-4.1947829133858265
20
5.9010016141732278
11
-4.1946075590551182
21
5.9009814566929135
0
LINE
8
BLACK
6
CONTINUOUS
10
-4.1946075590551182
20
5.9009814566929135
11
-4.1908580314960631
21
5.899106692913386
0
LINE
8
BLACK
6
CONTINUOUS
10
-4.1908580314960631
20
5.899106692913386
11
-4.1900343700787399
21
5.8984957874015747
0
LINE
8
BLACK
6
CONTINUOUS
10
-4.1900343700787399
20
5.8984957874015747
11
-4.1898585433070865
21
5.8980900787401573
0
LINE
8
BLACK
6
CONTINUOUS
10
-4.1898585433070865
20
5.8980900787401573
11
-4.1895375196850395
21
5.8977861811023624
0
LINE
8
BLACK
6
CONTINUOUS
10
-4.1895375196850395
20
5.8977861811023624
11
-4.187662755905512
21
5.8940366535433073
0
LINE
8
BLACK
6
CONTINUOUS
10
-4.187662755905512
20
5.8940366535433073
11
-4.1873703937007871
21
5.8930537401574803
0
LINE
8
BLACK
6
CONTINUOUS
10
-4.1873703937007871
20
5.8930537401574803
11
-4.187411417322835
21
5.8928820078740154
0
LINE
8
BLACK
6
CONTINUOUS
10
-4.187411417322835
20
5.8928820078740154
11
-4.187351023622047
21
5.8927161417322838
0
LINE
8
BLACK
6
CONTINUOUS
10
-4.187351023622047
20
5.8927161417322838
11
-4.187351023622047
21
5.8908413779527562
0
LINE
8
BLACK
6
CONTINUOUS
10
-4.187351023622047
20
5.8908413779527562
11
-4.1875290944881884
21
5.8898314566929129
0
LINE
8
BLACK
6
CONTINUOUS
10
-4.1875290944881884
20
5.8898314566929129
11
-4.1876425984251968
21
5.8896961811023623
0
LINE
8
BLACK
6
CONTINUOUS
10
-4.1876425984251968
20
5.8896961811023623
11
-4.187662755905512
21
5.8895208661417318
0
LINE
8
BLACK
6
CONTINUOUS
10
-4.187662755905512
20
5.8895208661417318
11
-4.1895375196850395
21
5.8857713385826766
0
LINE
8
BLACK
6
CONTINUOUS
10
-4.1895375196850395
20
5.8857713385826766
11
-4.1901484251968499
21
5.8849476771653544
0
LINE
8
BLACK
6
CONTINUOUS
10
-4.1901484251968499
20
5.8849476771653544
11
-4.1905541338582672
21
5.8847718110236222
0
LINE
8
BLACK
6
CONTINUOUS
10
-4.1905541338582672
20
5.8847718110236222
11
-4.1908580314960631
21
5.8844508267716531
0
LINE
8
BLACK
6
CONTINUOUS
10
-4.1908580314960631
20
5.8844508267716531
11
-4.1946075590551182
21
5.8825760629921255
0
LINE
8
BLACK
6
CONTINUOUS
10
-4.1946075590551182
20
5.8825760629921255
11
-4.1955905118110239
21
5.8822837007874016
0
LINE
8
BLACK
6
CONTINUOUS
10
-4.1955905118110239
20
5.8822837007874016
11
-4.1957622047244092
21
5.8823246850393698
0
LINE
8
BLACK
6
CONTINUOUS
10
-4.1957622047244092
20
5.8823246850393698
11
-4.1959280708661417
21
5.8822643307086615
0
LINE
8
BLACK
6
CONTINUOUS
10
-4.1959280708661417
20
5.8822643307086615
11
-4.2008553149606298
21
5.8822643307086615
0
LINE
8
BLACK
6
CONTINUOUS
10
-4.2008553149606298
20
5.8822643307086615
11
-4.2031010629921255
21
5.8811414566929132
0
LINE
8
BLACK
6
CONTINUOUS
10
-4.2031010629921255
20
5.8811414566929132
11
-4.204223897637795
21
5.8788957480314963
0
LINE
8
BLACK
6
CONTINUOUS
10
-4.204223897637795
20
5.8788957480314963
11
-4.204223897637795
21
5.878415078740157
0
LINE
8
BLACK
6
CONTINUOUS
10
-4.204223897637795
20
5.878415078740157
11
-4.2031010629921255
21
5.8761693700787401
0
LINE
8
BLACK
6
CONTINUOUS
10
-4.2031010629921255
20
5.8761693700787401
11
-4.2008552755905511
21
5.875046456692913
0
LINE
8
BLACK
6
CONTINUOUS
10
-4.2008552755905511
20
5.875046456692913
11
-4.1947503937007875
21
5.875046456692913
0
LINE
8
BLACK
6
CONTINUOUS
10
-4.1947503937007875
20
5.875046456692913
11
-4.1916242913385826
21
5.8766095275590553
0
LINE
8
BLACK
6
CONTINUOUS
10
-4.1916242913385826
20
5.8766095275590553
11
-4.1906413779527556
21
5.8769018897637793
0
LINE
8
BLACK
6
CONTINUOUS
10
-4.1906413779527556
20
5.8769018897637793
11
-4.1886768503937004
21
5.8764326377952756
0
LINE
8
BLACK
6
CONTINUOUS
10
-4.1886768503937004
20
5.8764326377952756
11
-4.1874735433070862
21
5.8748103543307089
0
LINE
8
BLACK
6
CONTINUOUS
10
-4.1874735433070862
20
5.8748103543307089
11
-4.1875945669291337
21
5.8727942125984249
0
LINE
8
BLACK
6
CONTINUOUS
10
-4.1875945669291337
20
5.8727942125984249
11
-4.1889832283464568
21
5.8713274803149602
0
LINE
8
BLACK
6
CONTINUOUS
10
-4.1889832283464568
20
5.8713274803149602
11
-4.1927327559055119
21
5.8694526771653539
0
LINE
8
BLACK
6
CONTINUOUS
10
-4.1927327559055119
20
5.8694526771653539
11
-4.1937157086614176
21
5.86916031496063
0
LINE
8
BLACK
6
CONTINUOUS
10
-4.1937157086614176
20
5.86916031496063
11
-4.1938874409448816
21
5.8692012992125981
0
LINE
8
BLACK
6
CONTINUOUS
10
-4.1938874409448816
20
5.8692012992125981
11
-4.1940533070866142
21
5.8691409448818899
0
LINE
8
BLACK
6
CONTINUOUS
10
-4.1940533070866142
20
5.8691409448818899
11
-4.2015523622047244
21
5.8691409448818899
0
LINE
8
BLACK
6
CONTINUOUS
10
-4.2015523622047244
20
5.8691409448818899
11
-4.2025622834645668
21
5.8693190157480313
0
LINE
8
BLACK
6
CONTINUOUS
10
-4.2025622834645668
20
5.8693190157480313
11
-4.2026975590551183
21
5.8694324803149609
0
LINE
8
BLACK
6
CONTINUOUS
10
-4.2026975590551183
20
5.8694324803149609
11
-4.2028728740157479
21
5.8694526771653539
0
LINE
8
BLACK
6
CONTINUOUS
10
-4.2028728740157479
20
5.8694526771653539
11
-4.2066224409448818
21
5.8713274803149602
0
LINE
8
BLACK
6
CONTINUOUS
10
-4.2066224409448818
20
5.8713274803149602
11
-4.207446102362205
21
5.8719384251968503
0
LINE
8
BLACK
6
CONTINUOUS
10
-4.207446102362205
20
5.8719384251968503
11
-4.2076219291338584
21
5.8723440551181101
0
LINE
8
BLACK
6
CONTINUOUS
10
-4.2076219291338584
20
5.8723440551181101
11
-4.2079429133858266
21
5.8726479921259838
0
LINE
8
BLACK
6
CONTINUOUS
10
-4.2079429133858266
20
5.8726479921259838
11
-4.2098176771653542
21
5.8763975196850389
0
LINE
8
BLACK
6
CONTINUOUS
10
-4.2098176771653542
20
5.8763975196850389
11
-4.210110039370079
21
5.8773804724409446
0
LINE
8
BLACK
6
CONTINUOUS
10
-4.210110039370079
20
5.8773804724409446
11
-4.2100690551181099
21
5.877552125984252
0
LINE
8
BLACK
6
CONTINUOUS
10
-4.2100690551181099
20
5.877552125984252
11
-4.2101294094488191
21
5.8777180314960624
0
LINE
8
BLACK
6
CONTINUOUS
10
-4.2101294094488191
20
5.8777180314960624
11
-4.2101294094488191
21
5.87959279527559
0
LINE
8
BLACK
6
CONTINUOUS
10
-4.2101294094488191
20
5.87959279527559
11
-4.2099513385826768
21
5.8806027165354333
0
LINE
8
BLACK
6
CONTINUOUS
10
-4.2099513385826768
20
5.8806027165354333
11
-4.209837874015748
21
5.8807379527559052
0
LINE
8
BLACK
6
CONTINUOUS
10
-4.209837874015748
20
5.8807379527559052
11
-4.2098176771653542
21
5.8809133070866144
0
LINE
8
BLACK
6
CONTINUOUS
10
-4.2098176771653542
20
5.8809133070866144
11
-4.2079429133858266
21
5.8846628346456695
0
LINE
8
BLACK
6
CONTINUOUS
10
-4.2079429133858266
20
5.8846628346456695
11
-4.2073320078740153
21
5.8854864960629918
0
LINE
8
BLACK
6
CONTINUOUS
10
-4.2073320078740153
20
5.8854864960629918
11
-4.2069263385826767
21
5.8856623228346452
0
LINE
8
BLACK
6
CONTINUOUS
10
-4.2069263385826767
20
5.8856623228346452
11
-4.206622401574803
21
5.8859833464566931
0
LINE
8
BLACK
6
CONTINUOUS
10
-4.206622401574803
20
5.8859833464566931
11
-4.2028728740157479
21
5.8878581102362206
0
LINE
8
BLACK
6
CONTINUOUS
10
-4.2028728740157479
20
5.8878581102362206
11
-4.2018899606299209
21
5.8881504724409446
0
LINE
8
BLACK
6
CONTINUOUS
10
-4.2018899606299209
20
5.8881504724409446
11
-4.2017182677165357
21
5.8881094488188976
0
LINE
8
BLACK
6
CONTINUOUS
10
-4.2017182677165357
20
5.8881094488188976
11
-4.2015523622047244
21
5.8881698425196847
0
LINE
8
BLACK
6
CONTINUOUS
10
-4.2015523622047244
20
5.8881698425196847
11
-4.1966251181102363
21
5.8881698425196847
0
LINE
8
BLACK
6
CONTINUOUS
10
-4.1966251181102363
20
5.8881698425196847
11
-4.1943794094488185
21
5.8892926771653542
0
LINE
8
BLACK
6
CONTINUOUS
10
-4.1943794094488185
20
5.8892926771653542
11
-4.1932565354330711
21
5.8915384251968499
0
LINE
8
BLACK
6
CONTINUOUS
10
-4.1932565354330711
20
5.8915384251968499
11
-4.1932565354330711
21
5.8920190944881892
0
LINE
8
BLACK
6
CONTINUOUS
10
-4.1932565354330711
20
5.8920190944881892
11
-4.1943794094488185
21
5.8942648031496061
0
LINE
8
BLACK
6
CONTINUOUS
10
-4.1943794094488185
20
5.8942648031496061
11
-4.1966251181102363
21
5.8953876771653544
0
LINE
8
BLACK
6
CONTINUOUS
10
-4.1966251181102363
20
5.8953876771653544
11
-4.2008553149606298
21
5.8953876771653544
0
LINE
8
BLACK
6
CONTINUOUS
10
-4.2008553149606298
20
5.8953876771653544
11
-4.2039813779527559
21
5.8938246456692909
0
LINE
8
BLACK
6
CONTINUOUS
10
-4.2039813779527559
20
5.8938246456692909
11
-4.2049643307086617
21
5.8935322834645669
0
LINE
8
BLACK
6
CONTINUOUS
10
-4.2049643307086617
20
5.8935322834645669
11
-4.2069288188976373
21
5.8940015748031493
0
LINE
8
BLACK
6
CONTINUOUS
10
-4.2069288188976373
20
5.8940015748031493
11
-4.2081321259842515
21
5.8956238188976373
0
LINE
8
BLACK
6
CONTINUOUS
10
-4.2081321259842515
20
5.8956238188976373
11
-4.2080110629921261
21
5.89764
0
LINE
8
BLACK
6
CONTINUOUS
10
-4.2080110629921261
20
5.89764
11
-4.206622401574803
21
5.899106692913386
0
LINE
8
BLACK
6
CONTINUOUS
10
-4.206622401574803
20
5.899106692913386
11
-4.2028728740157479
21
5.9009814566929135
0
LINE
8
BLACK
6
CONTINUOUS
10
-4.2028728740157479
20
5.9009814566929135
11
-4.2018899606299209
21
5.9012738188976375
0
LINE
8
BLACK
6
CONTINUOUS
10
-4.2018899606299209
20
5.9012738188976375
11
-4.2017182677165357
21
5.9012327952755905
0
LINE
8
BLACK
6
CONTINUOUS
10
-4.2017182677165357
20
5.9012327952755905
11
-4.2015523622047244
21
5.9012931889763776
0
LINE
8
BLACK
6
CONTINUOUS
10
-4.2015523622047244
20
5.9012931889763776
11
-4.1959280708661417
21
5.9012931889763776
0
LINE
8
BLACK
6
CONTINUOUS
10
-4.1959280708661417
20
5.9012931889763776
11
-4.1949181496062993
21
5.9011151181102361
0
LINE
8
BLACK
6
CONTINUOUS
10
-4.1611723622047245
20
5.9011151181102361
11
-4.1610371259842518
21
5.9010016141732278
0
LINE
8
BLACK
6
CONTINUOUS
10
-4.1610371259842518
20
5.9010016141732278
11
-4.1608617716535434
21
5.9009814566929135
0
LINE
8
BLACK
6
CONTINUOUS
10
-4.1608617716535434
20
5.9009814566929135
11
-4.1571122440944883
21
5.899106692913386
0
LINE
8
BLACK
6
CONTINUOUS
10
-4.1571122440944883
20
5.899106692913386
11
-4.1562885826771652
21
5.8984957874015747
0
LINE
8
BLACK
6
CONTINUOUS
10
-4.1562885826771652
20
5.8984957874015747
11
-4.1561127559055118
21
5.8980900787401573
0
LINE
8
BLACK
6
CONTINUOUS
10
-4.1561127559055118
20
5.8980900787401573
11
-4.1557917322834648
21
5.8977861811023624
0
LINE
8
BLACK
6
CONTINUOUS
10
-4.1557917322834648
20
5.8977861811023624
11
-4.1539169685039372
21
5.8940366535433073
0
LINE
8
BLACK
6
CONTINUOUS
10
-4.1539169685039372
20
5.8940366535433073
11
-4.1536246062992124
21
5.8930537401574803
0
LINE
8
BLACK
6
CONTINUOUS
10
-4.1536246062992124
20
5.8930537401574803
11
-4.1536656299212593
21
5.8928820078740154
0
LINE
8
BLACK
6
CONTINUOUS
10
-4.1536656299212593
20
5.8928820078740154
11
-4.1536052362204723
21
5.8927161417322838
0
LINE
8
BLACK
6
CONTINUOUS
10
-4.1536052362204723
20
5.8927161417322838
11
-4.1536052362204723
21
5.8777180314960624
0
LINE
8
BLACK
6
CONTINUOUS
10
-4.1536052362204723
20
5.8777180314960624
11
-4.1537833070866137
21
5.87670811023622
0
LINE
8
BLACK
6
CONTINUOUS
10
-4.1537833070866137
20
5.87670811023622
11
-4.1538968110236221
21
5.8765728346456694
0
LINE
8
BLACK
6
CONTINUOUS
10
-4.1538968110236221
20
5.8765728346456694
11
-4.1539169685039372
21
5.8763975196850389
0
LINE
8
BLACK
6
CONTINUOUS
10
-4.1539169685039372
20
5.8763975196850389
11
-4.1557917322834648
21
5.8726479921259838
0
LINE
8
BLACK
6
CONTINUOUS
10
-4.1557917322834648
20
5.8726479921259838
11
-4.1564026377952752
21
5.8718243307086615
0
LINE
8
BLACK
6
CONTINUOUS
10
-4.1564026377952752
20
5.8718243307086615
11
-4.156808267716535
21
5.8716485039370081
0
LINE
8
BLACK
6
CONTINUOUS
10
-4.156808267716535
20
5.8716485039370081
11
-4.1571122047244096
21
5.8713274803149602
0
LINE
8
BLACK
6
CONTINUOUS
10
-4.1571122047244096
20
5.8713274803149602
11
-4.1608617322834647
21
5.8694526771653539
0
LINE
8
BLACK
6
CONTINUOUS
10
-4.1608617322834647
20
5.8694526771653539
11
-4.1618446850393696
21
5.86916031496063
0
LINE
8
BLACK
6
CONTINUOUS
10
-4.1618446850393696
20
5.86916031496063
11
-4.1620164173228344
21
5.8692012992125981
0
LINE
8
BLACK
6
CONTINUOUS
10
-4.1620164173228344
20
5.8692012992125981
11
-4.162182283464567
21
5.8691409448818899
0
LINE
8
BLACK
6
CONTINUOUS
10
-4.162182283464567
20
5.8691409448818899
11
-4.1696813385826772
21
5.8691409448818899
0
LINE
8
BLACK
6
CONTINUOUS
10
-4.1696813385826772
20
5.8691409448818899
11
-4.1706912598425196
21
5.8693190157480313
0
LINE
8
BLACK
6
CONTINUOUS
10
-4.1706912598425196
20
5.8693190157480313
11
-4.1708265354330711
21
5.8694324803149609
0
LINE
8
BLACK
6
CONTINUOUS
10
-4.1708265354330711
20
5.8694324803149609
11
-4.1710018503937007
21
5.8694526771653539
0
LINE
8
BLACK
6
CONTINUOUS
10
-4.1710018503937007
20
5.8694526771653539
11
-4.1747514173228346
21
5.8713274803149602
0
LINE
8
BLACK
6
CONTINUOUS
10
-4.1747514173228346
20
5.8713274803149602
11
-4.1755750787401578
21
5.8719384251968503
0
LINE
8
BLACK
6
CONTINUOUS
10
-4.1755750787401578
20
5.8719384251968503
11
-4.1763783070866145
21
5.8737916141732285
0
LINE
8
BLACK
6
CONTINUOUS
10
-4.1763783070866145
20
5.8737916141732285
11
-4.1758024409448815
21
5.8757275984251969
0
LINE
8
BLACK
6
CONTINUOUS
10
-4.1758024409448815
20
5.8757275984251969
11
-4.1741168897637797
21
5.8768404330708659
0
LINE
8
BLACK
6
CONTINUOUS
10
-4.1741168897637797
20
5.8768404330708659
11
-4.17211031496063
21
5.8766095275590553
0
LINE
8
BLACK
6
CONTINUOUS
10
-4.17211031496063
20
5.8766095275590553
11
-4.1689842519685039
21
5.875046456692913
0
LINE
8
BLACK
6
CONTINUOUS
10
-4.1689842519685039
20
5.875046456692913
11
-4.1628793700787403
21
5.875046456692913
0
LINE
8
BLACK
6
CONTINUOUS
10
-4.1628793700787403
20
5.875046456692913
11
-4.1606336220472437
21
5.8761693307086613
0
LINE
8
BLACK
6
CONTINUOUS
10
-4.1606336220472437
20
5.8761693307086613
11
-4.1595107480314963
21
5.878415078740157
0
LINE
8
BLACK
6
CONTINUOUS
10
-4.1595107480314963
20
5.878415078740157
11
-4.1595107480314963
21
5.8827964173228349
0
LINE
8
BLACK
6
CONTINUOUS
10
-4.1595107480314963
20
5.8827964173228349
11
-4.1758847244094488
21
5.8860711811023618
0
LINE
8
BLACK
6
CONTINUOUS
10
-4.1758847244094488
20
5.8860711811023618
11
-4.1768401181102357
21
5.8864438582677163
0
LINE
8
BLACK
6
CONTINUOUS
10
-4.1768401181102357
20
5.8864438582677163
11
-4.1771451574803145
21
5.8868247244094487
0
LINE
8
BLACK
6
CONTINUOUS
10
-4.1771451574803145
20
5.8868247244094487
11
-4.1775675590551185
21
5.8870686220472441
0
LINE
8
BLACK
6
CONTINUOUS
10
-4.1775675590551185
20
5.8870686220472441
11
-4.1777567716535433
21
5.887588464566929
0
LINE
8
BLACK
6
CONTINUOUS
10
-4.1777567716535433
20
5.887588464566929
11
-4.178102677165354
21
5.8880203937007876
0
LINE
8
BLACK
6
CONTINUOUS
10
-4.178102677165354
20
5.8880203937007876
11
-4.1780915354330705
21
5.8885081496062988
0
LINE
8
BLACK
6
CONTINUOUS
10
-4.1780915354330705
20
5.8885081496062988
11
-4.1782583858267719
21
5.8889666141732286
0
LINE
8
BLACK
6
CONTINUOUS
10
-4.1782583858267719
20
5.8889666141732286
11
-4.1782583858267719
21
5.8927161417322838
0
LINE
8
BLACK
6
CONTINUOUS
10
-4.1782583858267719
20
5.8927161417322838
11
-4.1780803149606296
21
5.8937260629921262
0
LINE
8
BLACK
6
CONTINUOUS
10
-4.1780803149606296
20
5.8937260629921262
11
-4.1779668503937009
21
5.893861299212598
0
LINE
8
BLACK
6
CONTINUOUS
10
-4.1779668503937009
20
5.893861299212598
11
-4.177946653543307
21
5.8940366535433073
0
LINE
8
BLACK
6
CONTINUOUS
10
-4.177946653543307
20
5.8940366535433073
11
-4.1760718897637794
21
5.8977861811023624
0
LINE
8
BLACK
6
CONTINUOUS
10
-4.1760718897637794
20
5.8977861811023624
11
-4.1754609842519681
21
5.8986098425196847
0
LINE
8
BLACK
6
CONTINUOUS
10
-4.1754609842519681
20
5.8986098425196847
11
-4.1750553149606295
21
5.8987856692913381
0
LINE
8
BLACK
6
CONTINUOUS
10
-4.1750553149606295
20
5.8987856692913381
11
-4.1747513779527559
21
5.899106692913386
0
LINE
8
BLACK
6
CONTINUOUS
10
-4.1747513779527559
20
5.899106692913386
11
-4.1710018503937007
21
5.9009814566929135
0
LINE
8
BLACK
6
CONTINUOUS
10
-4.1710018503937007
20
5.9009814566929135
11
-4.1700189370078737
21
5.9012738188976375
0
LINE
8
BLACK
6
CONTINUOUS
10
-4.1700189370078737
20
5.9012738188976375
11
-4.1698472440944885
21
5.9012327952755905
0
LINE
8
BLACK
6
CONTINUOUS
10
-4.1698472440944885
20
5.9012327952755905
11
-4.1696813385826772
21
5.9012931889763776
0
LINE
8
BLACK
6
CONTINUOUS
10
-4.1696813385826772
20
5.9012931889763776
11
-4.162182283464567
21
5.9012931889763776
0
LINE
8
BLACK
6
CONTINUOUS
10
-4.162182283464567
20
5.9012931889763776
11
-4.1611723622047245
21
5.9011151181102361
0
LINE
8
BLACK
6
CONTINUOUS
10
-4.1712300393700783
20
5.8942648031496061
11
-4.1723528740157478
21
5.8920190944881892
0
LINE
8
BLACK
6
CONTINUOUS
10
-4.1723528740157478
20
5.8920190944881892
11
-4.1723528740157478
21
5.8913872834645664
0
LINE
8
BLACK
6
CONTINUOUS
10
-4.1723528740157478
20
5.8913872834645664
11
-4.1595107480314963
21
5.8888188582677161
0
LINE
8
BLACK
6
CONTINUOUS
10
-4.1595107480314963
20
5.8888188582677161
11
-4.1595107480314963
21
5.8920190944881892
0
LINE
8
BLACK
6
CONTINUOUS
10
-4.1595107480314963
20
5.8920190944881892
11
-4.1606336220472437
21
5.8942648031496061
0
LINE
8
BLACK
6
CONTINUOUS
10
-4.1606336220472437
20
5.8942648031496061
11
-4.1628793307086616
21
5.8953876771653544
0
LINE
8
BLACK
6
CONTINUOUS
10
-4.1628793307086616
20
5.8953876771653544
11
-4.1689842913385826
21
5.8953876771653544
0
LINE
8
BLACK
6
CONTINUOUS
10
-4.1689842913385826
20
5.8953876771653544
11
-4.1712300393700783
21
5.8942648031496061
0
LINE
8
BLACK
6
CONTINUOUS
10
-4.0955555511811026
20
5.9011151181102361
11
-4.0954203149606299
21
5.9010016141732278
0
LINE
8
BLACK
6
CONTINUOUS
10
-4.0954203149606299
20
5.9010016141732278
11
-4.0952449606299215
21
5.9009814566929135
0
LINE
8
BLACK
6
CONTINUOUS
10
-4.0952449606299215
20
5.9009814566929135
11
-4.0914954330708664
21
5.899106692913386
0
LINE
8
BLACK
6
CONTINUOUS
10
-4.0914954330708664
20
5.899106692913386
11
-4.0906717716535432
21
5.8984957874015747
0
LINE
8
BLACK
6
CONTINUOUS
10
-4.0906717716535432
20
5.8984957874015747
11
-4.0898685039370077
21
5.8966425984251964
0
LINE
8
BLACK
6
CONTINUOUS
10
-4.0898685039370077
20
5.8966425984251964
11
-4.0904443700787398
21
5.8947065748031493
0
LINE
8
BLACK
6
CONTINUOUS
10
-4.0904443700787398
20
5.8947065748031493
11
-4.0921299212598425
21
5.8935937401574803
0
LINE
8
BLACK
6
CONTINUOUS
10
-4.0921299212598425
20
5.8935937401574803
11
-4.0941364566929135
21
5.8938246456692909
0
LINE
8
BLACK
6
CONTINUOUS
10
-4.0941364566929135
20
5.8938246456692909
11
-4.0972625196850396
21
5.8953876771653544
0
LINE
8
BLACK
6
CONTINUOUS
10
-4.0972625196850396
20
5.8953876771653544
11
-4.1033674803149607
21
5.8953876771653544
0
LINE
8
BLACK
6
CONTINUOUS
10
-4.1033674803149607
20
5.8953876771653544
11
-4.1056132283464564
21
5.8942648031496061
0
LINE
8
BLACK
6
CONTINUOUS
10
-4.1056132283464564
20
5.8942648031496061
11
-4.1067360629921259
21
5.8920190944881892
0
LINE
8
BLACK
6
CONTINUOUS
10
-4.1067360629921259
20
5.8920190944881892
11
-4.1067360629921259
21
5.8907914960629917
0
LINE
8
BLACK
6
CONTINUOUS
10
-4.1067360629921259
20
5.8907914960629917
11
-4.1052422440944882
21
5.8900446062992122
0
LINE
8
BLACK
6
CONTINUOUS
10
-4.1052422440944882
20
5.8900446062992122
11
-4.096565472440945
21
5.8900446062992122
0
LINE
8
BLACK
6
CONTINUOUS
10
-4.096565472440945
20
5.8900446062992122
11
-4.0955555511811026
21
5.8898665354330708
0
LINE
8
BLACK
6
CONTINUOUS
10
-4.0955555511811026
20
5.8898665354330708
11
-4.0954203149606299
21
5.8897530314960624
0
LINE
8
BLACK
6
CONTINUOUS
10
-4.0954203149606299
20
5.8897530314960624
11
-4.0952449606299215
21
5.8897328740157482
0
LINE
8
BLACK
6
CONTINUOUS
10
-4.0952449606299215
20
5.8897328740157482
11
-4.0914954330708664
21
5.8878581102362206
0
LINE
8
BLACK
6
CONTINUOUS
10
-4.0914954330708664
20
5.8878581102362206
11
-4.0906717716535432
21
5.8872472047244093
0
LINE
8
BLACK
6
CONTINUOUS
10
-4.0906717716535432
20
5.8872472047244093
11
-4.0904959448818898
21
5.886841496062992
0
LINE
8
BLACK
6
CONTINUOUS
10
-4.0904959448818898
20
5.886841496062992
11
-4.0901749212598428
21
5.8865375984251971
0
LINE
8
BLACK
6
CONTINUOUS
10
-4.0901749212598428
20
5.8865375984251971
11
-4.0883001574803153
21
5.882788070866142
0
LINE
8
BLACK
6
CONTINUOUS
10
-4.0883001574803153
20
5.882788070866142
11
-4.0880077952755904
21
5.881805157480315
0
LINE
8
BLACK
6
CONTINUOUS
10
-4.0880077952755904
20
5.881805157480315
11
-4.0880488188976374
21
5.8816334251968501
0
LINE
8
BLACK
6
CONTINUOUS
10
-4.0880488188976374
20
5.8816334251968501
11
-4.0879884251968504
21
5.8814675590551175
0
LINE
8
BLACK
6
CONTINUOUS
10
-4.0879884251968504
20
5.8814675590551175
11
-4.0879884251968504
21
5.8777180314960624
0
LINE
8
BLACK
6
CONTINUOUS
10
-4.0879884251968504
20
5.8777180314960624
11
-4.0881664960629918
21
5.87670811023622
0
LINE
8
BLACK
6
CONTINUOUS
10
-4.0881664960629918
20
5.87670811023622
11
-4.0882800000000001
21
5.8765728346456694
0
LINE
8
BLACK
6
CONTINUOUS
10
-4.0882800000000001
20
5.8765728346456694
11
-4.0883001574803153
21
5.8763975196850389
0
LINE
8
BLACK
6
CONTINUOUS
10
-4.0883001574803153
20
5.8763975196850389
11
-4.0901749212598428
21
5.8726479921259838
0
LINE
8
BLACK
6
CONTINUOUS
10
-4.0901749212598428
20
5.8726479921259838
11
-4.0907858267716533
21
5.8718243307086615
0
LINE
8
BLACK
6
CONTINUOUS
10
-4.0907858267716533
20
5.8718243307086615
11
-4.0911914566929131
21
5.8716485039370081
0
LINE
8
BLACK
6
CONTINUOUS
10
-4.0911914566929131
20
5.8716485039370081
11
-4.0914953937007876
21
5.8713274803149602
0
LINE
8
BLACK
6
CONTINUOUS
10
-4.0914953937007876
20
5.8713274803149602
11
-4.0952449212598427
21
5.8694526771653539
0
LINE
8
BLACK
6
CONTINUOUS
10
-4.0952449212598427
20
5.8694526771653539
11
-4.0962278740157476
21
5.86916031496063
0
LINE
8
BLACK
6
CONTINUOUS
10
-4.0962278740157476
20
5.86916031496063
11
-4.0963996062992125
21
5.8692012992125981
0
LINE
8
BLACK
6
CONTINUOUS
10
-4.0963996062992125
20
5.8692012992125981
11
-4.096565472440945
21
5.8691409448818899
0
LINE
8
BLACK
6
CONTINUOUS
10
-4.096565472440945
20
5.8691409448818899
11
-4.1059392913385828
21
5.8691409448818899
0
LINE
8
BLACK
6
CONTINUOUS
10
-4.1059392913385828
20
5.8691409448818899
11
-4.1069492125984253
21
5.8693190157480313
0
LINE
8
BLACK
6
CONTINUOUS
10
-4.1069492125984253
20
5.8693190157480313
11
-4.1070844881889759
21
5.8694324803149609
0
LINE
8
BLACK
6
CONTINUOUS
10
-4.1070844881889759
20
5.8694324803149609
11
-4.1072598031496064
21
5.8694526771653539
0
LINE
8
BLACK
6
CONTINUOUS
10
-4.1072598031496064
20
5.8694526771653539
11
-4.1079804724409446
21
5.8698129921259845
0
LINE
8
BLACK
6
CONTINUOUS
10
-4.1079804724409446
20
5.8698129921259845
11
-4.1082124409448815
21
5.8695365354330704
0
LINE
8
BLACK
6
CONTINUOUS
10
-4.1082124409448815
20
5.8695365354330704
11
-4.1102015748031491
21
5.8691857874015749
0
LINE
8
BLACK
6
CONTINUOUS
10
-4.1102015748031491
20
5.8691857874015749
11
-4.1119507480314956
21
5.8701957086614174
0
LINE
8
BLACK
6
CONTINUOUS
10
-4.1119507480314956
20
5.8701957086614174
11
-4.1126415748031491
21
5.872093700787401
0
LINE
8
BLACK
6
CONTINUOUS
10
-4.1126415748031491
20
5.872093700787401
11
-4.1126415748031491
21
5.8927161417322838
0
LINE
8
BLACK
6
CONTINUOUS
10
-4.1126415748031491
20
5.8927161417322838
11
-4.1124635039370077
21
5.8937260629921262
0
LINE
8
BLACK
6
CONTINUOUS
10
-4.1124635039370077
20
5.8937260629921262
11
-4.1123500393700789
21
5.893861299212598
0
LINE
8
BLACK
6
CONTINUOUS
10
-4.1123500393700789
20
5.893861299212598
11
-4.112329842519685
21
5.8940366535433073
0
LINE
8
BLACK
6
CONTINUOUS
10
-4.112329842519685
20
5.8940366535433073
11
-4.1104550787401575
21
5.8977861811023624
0
LINE
8
BLACK
6
CONTINUOUS
10
-4.1104550787401575
20
5.8977861811023624
11
-4.1098441732283462
21
5.8986098425196847
0
LINE
8
BLACK
6
CONTINUOUS
10
-4.1098441732283462
20
5.8986098425196847
11
-4.1094385039370076
21
5.8987856692913381
0
LINE
8
BLACK
6
CONTINUOUS
10
-4.1094385039370076
20
5.8987856692913381
11
-4.1091345669291339
21
5.899106692913386
0
LINE
8
BLACK
6
CONTINUOUS
10
-4.1091345669291339
20
5.899106692913386
11
-4.1053850393700788
21
5.9009814566929135
0
LINE
8
BLACK
6
CONTINUOUS
10
-4.1053850393700788
20
5.9009814566929135
11
-4.1044021259842518
21
5.9012738188976375
0
LINE
8
BLACK
6
CONTINUOUS
10
-4.1044021259842518
20
5.9012738188976375
11
-4.1042304330708657
21
5.9012327952755905
0
LINE
8
BLACK
6
CONTINUOUS
10
-4.1042304330708657
20
5.9012327952755905
11
-4.1040645275590553
21
5.9012931889763776
0
LINE
8
BLACK
6
CONTINUOUS
10
-4.1040645275590553
20
5.9012931889763776
11
-4.096565472440945
21
5.9012931889763776
0
LINE
8
BLACK
6
CONTINUOUS
10
-4.096565472440945
20
5.9012931889763776
11
-4.0955555511811026
21
5.9011151181102361
0
LINE
8
BLACK
6
CONTINUOUS
10
-4.1067360629921259
20
5.8757933858267712
11
-4.1052422047244095
21
5.875046456692913
0
LINE
8
BLACK
6
CONTINUOUS
10
-4.1052422047244095
20
5.875046456692913
11
-4.0972625590551184
21
5.875046456692913
0
LINE
8
BLACK
6
CONTINUOUS
10
-4.0972625590551184
20
5.875046456692913
11
-4.0950168110236218
21
5.8761693307086613
0
LINE
8
BLACK
6
CONTINUOUS
10
-4.0950168110236218
20
5.8761693307086613
11
-4.0938939370078735
21
5.878415078740157
0
LINE
8
BLACK
6
CONTINUOUS
10
-4.0938939370078735
20
5.878415078740157
11
-4.0938939370078735
21
5.8807705118110238
0
LINE
8
BLACK
6
CONTINUOUS
10
-4.0938939370078735
20
5.8807705118110238
11
-4.0950168110236218
21
5.8830162204724408
0
LINE
8
BLACK
6
CONTINUOUS
10
-4.0950168110236218
20
5.8830162204724408
11
-4.0972625196850396
21
5.8841390944881891
0
LINE
8
BLACK
6
CONTINUOUS
10
-4.0972625196850396
20
5.8841390944881891
11
-4.1059392913385828
21
5.8841390944881891
0
LINE
8
BLACK
6
CONTINUOUS
10
-4.1059392913385828
20
5.8841390944881891
11
-4.1067360629921259
21
5.8842795669291341
0
LINE
8
BLACK
6
CONTINUOUS
10
-4.1067360629921259
20
5.8842795669291341
11
-4.1067360629921259
21
5.8757933858267712
0
LINE
8
BLACK
6
CONTINUOUS
10
-4.0393125590551184
20
5.914238464566929
11
-4.0391773228346457
21
5.9141249606299215
0
LINE
8
BLACK
6
CONTINUOUS
10
-4.0391773228346457
20
5.9141249606299215
11
-4.0390019685039373
21
5.9141048031496064
0
LINE
8
BLACK
6
CONTINUOUS
10
-4.0390019685039373
20
5.9141048031496064
11
-4.0352524409448822
21
5.9122300393700788
0
LINE
8
BLACK
6
CONTINUOUS
10
-4.0352524409448822
20
5.9122300393700788
11
-4.0345433858267716
21
5.9117040944881891
0
LINE
8
BLACK
6
CONTINUOUS
10
-4.0345433858267716
20
5.9117040944881891
11
-4.0344850393700789
21
5.9116769291338578
0
LINE
8
BLACK
6
CONTINUOUS
10
-4.0344850393700789
20
5.9116769291338578
11
-4.0326102755905513
21
5.9098021653543302
0
LINE
8
BLACK
6
CONTINUOUS
10
-4.0326102755905513
20
5.9098021653543302
11
-4.0321040157480317
21
5.9090790551181103
0
LINE
8
BLACK
6
CONTINUOUS
10
-4.0321040157480317
20
5.9090790551181103
11
-4.0320571653543302
21
5.9090347637795277
0
LINE
8
BLACK
6
CONTINUOUS
10
-4.0320571653543302
20
5.9090347637795277
11
-4.0301824015748027
21
5.9052852362204726
0
LINE
8
BLACK
6
CONTINUOUS
10
-4.0301824015748027
20
5.9052852362204726
11
-4.0298900393700787
21
5.9043023228346456
0
LINE
8
BLACK
6
CONTINUOUS
10
-4.0298900393700787
20
5.9043023228346456
11
-4.0299310629921257
21
5.9041305905511807
0
LINE
8
BLACK
6
CONTINUOUS
10
-4.0299310629921257
20
5.9041305905511807
11
-4.0298706692913386
21
5.9039647244094491
0
LINE
8
BLACK
6
CONTINUOUS
10
-4.0298706692913386
20
5.9039647244094491
11
-4.0298706692913386
21
5.900215196850394
0
LINE
8
BLACK
6
CONTINUOUS
10
-4.0298706692913386
20
5.900215196850394
11
-4.03004874015748
21
5.8992052755905506
0
LINE
8
BLACK
6
CONTINUOUS
10
-4.03004874015748
20
5.8992052755905506
11
-4.0301622440944884
21
5.89907
0
LINE
8
BLACK
6
CONTINUOUS
10
-4.0301622440944884
20
5.89907
11
-4.0301824015748027
21
5.8988946850393695
0
LINE
8
BLACK
6
CONTINUOUS
10
-4.0301824015748027
20
5.8988946850393695
11
-4.0320571653543302
21
5.8951451574803144
0
LINE
8
BLACK
6
CONTINUOUS
10
-4.0320571653543302
20
5.8951451574803144
11
-4.0325830708661412
21
5.894436062992126
0
LINE
8
BLACK
6
CONTINUOUS
10
-4.0325830708661412
20
5.894436062992126
11
-4.0326102755905513
21
5.8943777559055119
0
LINE
8
BLACK
6
CONTINUOUS
10
-4.0326102755905513
20
5.8943777559055119
11
-4.0344850393700789
21
5.8925029921259844
0
LINE
8
BLACK
6
CONTINUOUS
10
-4.0344850393700789
20
5.8925029921259844
11
-4.0352081496062988
21
5.891996692913386
0
LINE
8
BLACK
6
CONTINUOUS
10
-4.0352081496062988
20
5.891996692913386
11
-4.0352524409448822
21
5.8919498818897633
0
LINE
8
BLACK
6
CONTINUOUS
10
-4.0352524409448822
20
5.8919498818897633
11
-4.0390019685039373
21
5.8900751181102358
0
LINE
8
BLACK
6
CONTINUOUS
10
-4.0390019685039373
20
5.8900751181102358
11
-4.0394904330708661
21
5.8899298031496059
0
LINE
8
BLACK
6
CONTINUOUS
10
-4.0394904330708661
20
5.8899298031496059
11
-4.0396063385826775
21
5.8898515354330705
0
LINE
8
BLACK
6
CONTINUOUS
10
-4.0396063385826775
20
5.8898515354330705
11
-4.0467909842519685
21
5.8880553543307084
0
LINE
8
BLACK
6
CONTINUOUS
10
-4.0467909842519685
20
5.8880553543307084
11
-4.0498219685039372
21
5.8865398818897638
0
LINE
8
BLACK
6
CONTINUOUS
10
-4.0498219685039372
20
5.8865398818897638
11
-4.051019094488189
21
5.885342755905512
0
LINE
8
BLACK
6
CONTINUOUS
10
-4.051019094488189
20
5.885342755905512
11
-4.0523678346456693
21
5.8826452755905514
0
LINE
8
BLACK
6
CONTINUOUS
10
-4.0523678346456693
20
5.8826452755905514
11
-4.0523678346456693
21
5.8802898425196846
0
LINE
8
BLACK
6
CONTINUOUS
10
-4.0523678346456693
20
5.8802898425196846
11
-4.051019094488189
21
5.8775923622047239
0
LINE
8
BLACK
6
CONTINUOUS
10
-4.051019094488189
20
5.8775923622047239
11
-4.0498220078740159
21
5.8763952362204721
0
LINE
8
BLACK
6
CONTINUOUS
10
-4.0498220078740159
20
5.8763952362204721
11
-4.0471244488188978
21
5.875046456692913
0
LINE
8
BLACK
6
CONTINUOUS
10
-4.0471244488188978
20
5.875046456692913
11
-4.0389268897637791
21
5.875046456692913
0
LINE
8
BLACK
6
CONTINUOUS
10
-4.0389268897637791
20
5.875046456692913
11
-4.0337571653543307
21
5.8767697244094483
0
LINE
8
BLACK
6
CONTINUOUS
10
-4.0337571653543307
20
5.8767697244094483
11
-4.0327427559055113
21
5.8769201574803152
0
LINE
8
BLACK
6
CONTINUOUS
10
-4.0327427559055113
20
5.8769201574803152
11
-4.0308643700787403
21
5.8761777952755905
0
LINE
8
BLACK
6
CONTINUOUS
10
-4.0308643700787403
20
5.8761777952755905
11
-4.0299025984251964
21
5.8744016535433072
0
LINE
8
BLACK
6
CONTINUOUS
10
-4.0299025984251964
20
5.8744016535433072
11
-4.0303075196850395
21
5.872422874015748
0
LINE
8
BLACK
6
CONTINUOUS
10
-4.0303075196850395
20
5.872422874015748
11
-4.031889645669291
21
5.8711672834645672
0
LINE
8
BLACK
6
CONTINUOUS
10
-4.031889645669291
20
5.8711672834645672
11
-4.0375139370078736
21
5.8692924803149609
0
LINE
8
BLACK
6
CONTINUOUS
10
-4.0375139370078736
20
5.8692924803149609
11
-4.0383872047244092
21
5.8691629527559055
0
LINE
8
BLACK
6
CONTINUOUS
10
-4.0383872047244092
20
5.8691629527559055
11
-4.0384477165354333
21
5.8691409448818899
0
LINE
8
BLACK
6
CONTINUOUS
10
-4.0384477165354333
20
5.8691409448818899
11
-4.0478215354330711
21
5.8691409448818899
0
LINE
8
BLACK
6
CONTINUOUS
10
-4.0478215354330711
20
5.8691409448818899
11
-4.0488314566929136
21
5.8693190157480313
0
LINE
8
BLACK
6
CONTINUOUS
10
-4.0488314566929136
20
5.8693190157480313
11
-4.0489667322834642
21
5.8694324803149609
0
LINE
8
BLACK
6
CONTINUOUS
10
-4.0489667322834642
20
5.8694324803149609
11
-4.0491420472440947
21
5.8694526771653539
0
LINE
8
BLACK
6
CONTINUOUS
10
-4.0491420472440947
20
5.8694526771653539
11
-4.0528916141732285
21
5.8713274803149602
0
LINE
8
BLACK
6
CONTINUOUS
10
-4.0528916141732285
20
5.8713274803149602
11
-4.0536006299212595
21
5.8718533464566924
0
LINE
8
BLACK
6
CONTINUOUS
10
-4.0536006299212595
20
5.8718533464566924
11
-4.0536589763779522
21
5.8718805905511813
0
LINE
8
BLACK
6
CONTINUOUS
10
-4.0536589763779522
20
5.8718805905511813
11
-4.0555337401574798
21
5.8737553543307088
0
LINE
8
BLACK
6
CONTINUOUS
10
-4.0555337401574798
20
5.8737553543307088
11
-4.0560400393700791
21
5.87447842519685
0
LINE
8
BLACK
6
CONTINUOUS
10
-4.0560400393700791
20
5.87447842519685
11
-4.0560868503937009
21
5.8745227559055113
0
LINE
8
BLACK
6
CONTINUOUS
10
-4.0560868503937009
20
5.8745227559055113
11
-4.0579616141732284
21
5.8782722834645664
0
LINE
8
BLACK
6
CONTINUOUS
10
-4.0579616141732284
20
5.8782722834645664
11
-4.0582539763779524
21
5.8792552362204722
0
LINE
8
BLACK
6
CONTINUOUS
10
-4.0582539763779524
20
5.8792552362204722
11
-4.0582129921259842
21
5.8794268897637796
0
LINE
8
BLACK
6
CONTINUOUS
10
-4.0582129921259842
20
5.8794268897637796
11
-4.0582733464566925
21
5.87959279527559
0
LINE
8
BLACK
6
CONTINUOUS
10
-4.0582733464566925
20
5.87959279527559
11
-4.0582733464566925
21
5.883342322834646
0
LINE
8
BLACK
6
CONTINUOUS
10
-4.0582733464566925
20
5.883342322834646
11
-4.0580952755905511
21
5.8843522440944884
0
LINE
8
BLACK
6
CONTINUOUS
10
-4.0580952755905511
20
5.8843522440944884
11
-4.0579818110236223
21
5.8844874803149603
0
LINE
8
BLACK
6
CONTINUOUS
10
-4.0579818110236223
20
5.8844874803149603
11
-4.0579616141732284
21
5.8846628346456695
0
LINE
8
BLACK
6
CONTINUOUS
10
-4.0579616141732284
20
5.8846628346456695
11
-4.0560868503937009
21
5.8884123622047246
0
LINE
8
BLACK
6
CONTINUOUS
10
-4.0560868503937009
20
5.8884123622047246
11
-4.0555609448818899
21
5.8891214173228343
0
LINE
8
BLACK
6
CONTINUOUS
10
-4.0555609448818899
20
5.8891214173228343
11
-4.0555337401574798
21
5.8891797637795271
0
LINE
8
BLACK
6
CONTINUOUS
10
-4.0555337401574798
20
5.8891797637795271
11
-4.0536589763779522
21
5.8910545275590547
0
LINE
8
BLACK
6
CONTINUOUS
10
-4.0536589763779522
20
5.8910545275590547
11
-4.052935905511811
21
5.8915607874015743
0
LINE
8
BLACK
6
CONTINUOUS
10
-4.052935905511811
20
5.8915607874015743
11
-4.0528915748031498
21
5.8916076377952757
0
LINE
8
BLACK
6
CONTINUOUS
10
-4.0528915748031498
20
5.8916076377952757
11
-4.0491420472440947
21
5.8934824015748033
0
LINE
8
BLACK
6
CONTINUOUS
10
-4.0491420472440947
20
5.8934824015748033
11
-4.0486536220472438
21
5.8936276771653544
0
LINE
8
BLACK
6
CONTINUOUS
10
-4.0486536220472438
20
5.8936276771653544
11
-4.0485376771653545
21
5.8937059842519686
0
LINE
8
BLACK
6
CONTINUOUS
10
-4.0485376771653545
20
5.8937059842519686
11
-4.0413530314960626
21
5.8955021259842519
0
LINE
8
BLACK
6
CONTINUOUS
10
-4.0413530314960626
20
5.8955021259842519
11
-4.0383220472440948
21
5.8970176377952752
0
LINE
8
BLACK
6
CONTINUOUS
10
-4.0383220472440948
20
5.8970176377952752
11
-4.0371249212598421
21
5.898214763779527
0
LINE
8
BLACK
6
CONTINUOUS
10
-4.0371249212598421
20
5.898214763779527
11
-4.0357761811023618
21
5.9009122440944877
0
LINE
8
BLACK
6
CONTINUOUS
10
-4.0357761811023618
20
5.9009122440944877
11
-4.0357761811023618
21
5.9032676771653545
0
LINE
8
BLACK
6
CONTINUOUS
10
-4.0357761811023618
20
5.9032676771653545
11
-4.0371249212598421
21
5.9059651574803151
0
LINE
8
BLACK
6
CONTINUOUS
10
-4.0371249212598421
20
5.9059651574803151
11
-4.0383220472440948
21
5.907162283464567
0
LINE
8
BLACK
6
CONTINUOUS
10
-4.0383220472440948
20
5.907162283464567
11
-4.0410195275590555
21
5.9085110236220473
0
LINE
8
BLACK
6
CONTINUOUS
10
-4.0410195275590555
20
5.9085110236220473
11
-4.0492171653543307
21
5.9085110236220473
0
LINE
8
BLACK
6
CONTINUOUS
10
-4.0492171653543307
20
5.9085110236220473
11
-4.0543868503937004
21
5.9067877952755907
0
LINE
8
BLACK
6
CONTINUOUS
10
-4.0543868503937004
20
5.9067877952755907
11
-4.0554012598425198
21
5.9066373622047239
0
LINE
8
BLACK
6
CONTINUOUS
10
-4.0554012598425198
20
5.9066373622047239
11
-4.0572796456692917
21
5.9073797637795273
0
LINE
8
BLACK
6
CONTINUOUS
10
-4.0572796456692917
20
5.9073797637795273
11
-4.0582414173228347
21
5.9091559055118106
0
LINE
8
BLACK
6
CONTINUOUS
10
-4.0582414173228347
20
5.9091559055118106
11
-4.0578364566929137
21
5.9111346850393698
0
LINE
8
BLACK
6
CONTINUOUS
10
-4.0578364566929137
20
5.9111346850393698
11
-4.0562543307086614
21
5.9123902362204719
0
LINE
8
BLACK
6
CONTINUOUS
10
-4.0562543307086614
20
5.9123902362204719
11
-4.0506300787401575
21
5.9142649999999994
0
LINE
8
BLACK
6
CONTINUOUS
10
-4.0506300787401575
20
5.9142649999999994
11
-4.0497568503937007
21
5.9143944881889761
0
LINE
8
BLACK
6
CONTINUOUS
10
-4.0497568503937007
20
5.9143944881889761
11
-4.0496962992125987
21
5.9144165354330704
0
LINE
8
BLACK
6
CONTINUOUS
10
-4.0496962992125987
20
5.9144165354330704
11
-4.0403224803149609
21
5.9144165354330704
0
LINE
8
BLACK
6
CONTINUOUS
10
-4.0403224803149609
20
5.9144165354330704
11
-4.0393125590551184
21
5.914238464566929
0
LINE
8
BLACK
6
CONTINUOUS
10
-4.0699315748031495
20
5.9133617716535429
11
-4.069240748031496
21
5.9114637795275593
0
LINE
8
BLACK
6
CONTINUOUS
10
-4.069240748031496
20
5.9114637795275593
11
-4.069240748031496
21
5.8777180314960624
0
LINE
8
BLACK
6
CONTINUOUS
10
-4.069240748031496
20
5.8777180314960624
11
-4.0694188188976375
21
5.87670811023622
0
LINE
8
BLACK
6
CONTINUOUS
10
-4.0694188188976375
20
5.87670811023622
11
-4.0695323228346458
21
5.8765728346456694
0
LINE
8
BLACK
6
CONTINUOUS
10
-4.0695323228346458
20
5.8765728346456694
11
-4.069552480314961
21
5.8763975196850389
0
LINE
8
BLACK
6
CONTINUOUS
10
-4.069552480314961
20
5.8763975196850389
11
-4.0714272440944885
21
5.8726479921259838
0
LINE
8
BLACK
6
CONTINUOUS
10
-4.0714272440944885
20
5.8726479921259838
11
-4.072038149606299
21
5.8718243307086615
0
LINE
8
BLACK
6
CONTINUOUS
10
-4.072038149606299
20
5.8718243307086615
11
-4.0724437795275588
21
5.8716485039370081
0
LINE
8
BLACK
6
CONTINUOUS
10
-4.0724437795275588
20
5.8716485039370081
11
-4.0727477165354333
21
5.8713274803149602
0
LINE
8
BLACK
6
CONTINUOUS
10
-4.0727477165354333
20
5.8713274803149602
11
-4.0764972440944884
21
5.8694526771653539
0
LINE
8
BLACK
6
CONTINUOUS
10
-4.0764972440944884
20
5.8694526771653539
11
-4.0774801968503933
21
5.86916031496063
0
LINE
8
BLACK
6
CONTINUOUS
10
-4.0774801968503933
20
5.86916031496063
11
-4.0794447244094485
21
5.8696295669291336
0
LINE
8
BLACK
6
CONTINUOUS
10
-4.0794447244094485
20
5.8696295669291336
11
-4.0806480314960627
21
5.8712518503937003
0
LINE
8
BLACK
6
CONTINUOUS
10
-4.0806480314960627
20
5.8712518503937003
11
-4.0805269685039365
21
5.8732679921259843
0
LINE
8
BLACK
6
CONTINUOUS
10
-4.0805269685039365
20
5.8732679921259843
11
-4.079138346456693
21
5.874734724409449
0
LINE
8
BLACK
6
CONTINUOUS
10
-4.079138346456693
20
5.874734724409449
11
-4.0762691338582675
21
5.8761693307086613
0
LINE
8
BLACK
6
CONTINUOUS
10
-4.0762691338582675
20
5.8761693307086613
11
-4.0751462598425192
21
5.878415078740157
0
LINE
8
BLACK
6
CONTINUOUS
10
-4.0751462598425192
20
5.878415078740157
11
-4.0751462598425192
21
5.9114637795275593
0
LINE
8
BLACK
6
CONTINUOUS
10
-4.0751462598425192
20
5.9114637795275593
11
-4.0749681889763778
21
5.9124737007874018
0
LINE
8
BLACK
6
CONTINUOUS
10
-4.0749681889763778
20
5.9124737007874018
11
-4.0736698818897636
21
5.9140209448818899
0
LINE
8
BLACK
6
CONTINUOUS
10
-4.0736698818897636
20
5.9140209448818899
11
-4.071680748031496
21
5.9143716929133854
0
LINE
8
BLACK
6
CONTINUOUS
10
-4.071680748031496
20
5.9143716929133854
11
-4.0699315748031495
21
5.9133617716535429
0
LINE
8
BLACK
6
CONTINUOUS
10
-4.1419428346456693
20
5.9008886220472441
11
-4.1406538582677168
21
5.8993335433070868
0
LINE
8
BLACK
6
CONTINUOUS
10
-4.1406538582677168
20
5.8993335433070868
11
-4.1340607874015749
21
5.8808729133858266
0
LINE
8
BLACK
6
CONTINUOUS
10
-4.1340607874015749
20
5.8808729133858266
11
-4.127467716535433
21
5.8993335433070868
0
LINE
8
BLACK
6
CONTINUOUS
10
-4.127467716535433
20
5.8993335433070868
11
-4.1269603543307083
21
5.9002247244094486
0
LINE
8
BLACK
6
CONTINUOUS
10
-4.1269603543307083
20
5.9002247244094486
11
-4.1252172834645666
21
5.9012451574803144
0
LINE
8
BLACK
6
CONTINUOUS
10
-4.1252172834645666
20
5.9012451574803144
11
-4.123226062992126
21
5.9009064566929137
0
LINE
8
BLACK
6
CONTINUOUS
10
-4.123226062992126
20
5.9009064566929137
11
-4.1219184645669289
21
5.8993670866141734
0
LINE
8
BLACK
6
CONTINUOUS
10
-4.1219184645669289
20
5.8993670866141734
11
-4.1219062204724413
21
5.8973473228346451
0
LINE
8
BLACK
6
CONTINUOUS
10
-4.1219062204724413
20
5.8973473228346451
11
-4.131280039370079
21
5.8711005905511806
0
LINE
8
BLACK
6
CONTINUOUS
10
-4.131280039370079
20
5.8711005905511806
11
-4.1317874409448816
21
5.8702093700787401
0
LINE
8
BLACK
6
CONTINUOUS
10
-4.1317874409448816
20
5.8702093700787401
11
-4.1318038188976374
21
5.8701997637795271
0
LINE
8
BLACK
6
CONTINUOUS
10
-4.1318038188976374
20
5.8701997637795271
11
-4.1318103543307085
21
5.8701820866141734
0
LINE
8
BLACK
6
CONTINUOUS
10
-4.1318103543307085
20
5.8701820866141734
11
-4.1326714960629918
21
5.869691811023622
0
LINE
8
BLACK
6
CONTINUOUS
10
-4.1326714960629918
20
5.869691811023622
11
-4.1335304724409445
21
5.8691889370078743
0
LINE
8
BLACK
6
CONTINUOUS
10
-4.1335304724409445
20
5.8691889370078743
11
-4.1335492125984254
21
5.8691920866141727
0
LINE
8
BLACK
6
CONTINUOUS
10
-4.1335492125984254
20
5.8691920866141727
11
-4.13356562992126
21
5.8691827559055119
0
LINE
8
BLACK
6
CONTINUOUS
10
-4.13356562992126
20
5.8691827559055119
11
-4.134540866141732
21
5.8693607874015745
0
LINE
8
BLACK
6
CONTINUOUS
10
-4.134540866141732
20
5.8693607874015745
11
-4.135521692913386
21
5.8695276377952759
0
LINE
8
BLACK
6
CONTINUOUS
10
-4.135521692913386
20
5.8695276377952759
11
-4.1355340157480311
21
5.8695420866141728
0
LINE
8
BLACK
6
CONTINUOUS
10
-4.1355340157480311
20
5.8695420866141728
11
-4.1355525984251971
21
5.8695455118110234
0
LINE
8
BLACK
6
CONTINUOUS
10
-4.1355525984251971
20
5.8695455118110234
11
-4.1361864960629919
21
5.8703102755905512
0
LINE
8
BLACK
6
CONTINUOUS
10
-4.1361864960629919
20
5.8703102755905512
11
-4.1368292913385822
21
5.871067047244094
0
LINE
8
BLACK
6
CONTINUOUS
10
-4.1368292913385822
20
5.871067047244094
11
-4.1368294094488185
21
5.87108594488189
0
LINE
8
BLACK
6
CONTINUOUS
10
-4.1368294094488185
20
5.87108594488189
11
-4.1368415354330708
21
5.8711005905511806
0
LINE
8
BLACK
6
CONTINUOUS
10
-4.1368415354330708
20
5.8711005905511806
11
-4.1462153543307085
21
5.8973473228346451
0
LINE
8
BLACK
6
CONTINUOUS
10
-4.1462153543307085
20
5.8973473228346451
11
-4.1463873228346459
21
5.8983583070866139
0
LINE
8
BLACK
6
CONTINUOUS
10
-4.1463873228346459
20
5.8983583070866139
11
-4.145685039370079
21
5.900252047244094
0
LINE
8
BLACK
6
CONTINUOUS
10
-4.145685039370079
20
5.900252047244094
11
-4.1439297637795276
21
5.9012513779527556
0
LINE
8
BLACK
6
CONTINUOUS
10
-4.1439297637795276
20
5.9012513779527556
11
-4.1419428346456693
21
5.9008886220472441
0
LINE
8
BLACK
6
CONTINUOUS
10
-4.9630414960629921
20
5.9011151181102361
11
-4.9629062598425193
21
5.9010016141732278
0
LINE
8
BLACK
6
CONTINUOUS
10
-4.9629062598425193
20
5.9010016141732278
11
-4.962730905511811
21
5.9009814566929135
0
LINE
8
BLACK
6
CONTINUOUS
10
-4.962730905511811
20
5.9009814566929135
11
-4.9593385433070862
21
5.8992852362204724
0
LINE
8
BLACK
6
CONTINUOUS
10
-4.9593385433070862
20
5.8992852362204724
11
-4.959327047244094
21
5.8993503543307089
0
LINE
8
BLACK
6
CONTINUOUS
10
-4.959327047244094
20
5.8993503543307089
11
-4.9580287401574799
21
5.900897598425197
0
LINE
8
BLACK
6
CONTINUOUS
10
-4.9580287401574799
20
5.900897598425197
11
-4.9560396062992123
21
5.9012483464566925
0
LINE
8
BLACK
6
CONTINUOUS
10
-4.9560396062992123
20
5.9012483464566925
11
-4.9542904330708657
21
5.90023842519685
0
LINE
8
BLACK
6
CONTINUOUS
10
-4.9542904330708657
20
5.90023842519685
11
-4.9535996062992123
21
5.8983404330708664
0
LINE
8
BLACK
6
CONTINUOUS
10
-4.9535996062992123
20
5.8983404330708664
11
-4.9535996062992123
21
5.872093700787401
0
LINE
8
BLACK
6
CONTINUOUS
10
-4.9535996062992123
20
5.872093700787401
11
-4.9537776771653546
21
5.8710837795275586
0
LINE
8
BLACK
6
CONTINUOUS
10
-4.9537776771653546
20
5.8710837795275586
11
-4.9550759842519687
21
5.8695365354330704
0
LINE
8
BLACK
6
CONTINUOUS
10
-4.9550759842519687
20
5.8695365354330704
11
-4.9570651181102363
21
5.8691857874015749
0
LINE
8
BLACK
6
CONTINUOUS
10
-4.9570651181102363
20
5.8691857874015749
11
-4.9588142913385829
21
5.8701957086614174
0
LINE
8
BLACK
6
CONTINUOUS
10
-4.9588142913385829
20
5.8701957086614174
11
-4.9595051181102363
21
5.872093700787401
0
LINE
8
BLACK
6
CONTINUOUS
10
-4.9595051181102363
20
5.872093700787401
11
-4.9595051181102363
21
5.8901443307086616
0
LINE
8
BLACK
6
CONTINUOUS
10
-4.9595051181102363
20
5.8901443307086616
11
-4.9608538582677166
21
5.8928418110236223
0
LINE
8
BLACK
6
CONTINUOUS
10
-4.9608538582677166
20
5.8928418110236223
11
-4.9620509842519684
21
5.8940389370078741
0
LINE
8
BLACK
6
CONTINUOUS
10
-4.9620509842519684
20
5.8940389370078741
11
-4.9647484645669291
21
5.8953876771653544
0
LINE
8
BLACK
6
CONTINUOUS
10
-4.9647484645669291
20
5.8953876771653544
11
-4.9678009448818896
21
5.8953876771653544
0
LINE
8
BLACK
6
CONTINUOUS
10
-4.9678009448818896
20
5.8953876771653544
11
-4.9688108661417321
21
5.8955657480314958
0
LINE
8
BLACK
6
CONTINUOUS
10
-4.9688108661417321
20
5.8955657480314958
11
-4.9703581102362202
21
5.89686405511811
0
LINE
8
BLACK
6
CONTINUOUS
10
-4.9703581102362202
20
5.89686405511811
11
-4.9707088582677166
21
5.8988531889763776
0
LINE
8
BLACK
6
CONTINUOUS
10
-4.9707088582677166
20
5.8988531889763776
11
-4.9696989370078741
21
5.9006023622047241
0
LINE
8
BLACK
6
CONTINUOUS
10
-4.9696989370078741
20
5.9006023622047241
11
-4.9678009448818896
21
5.9012931889763776
0
LINE
8
BLACK
6
CONTINUOUS
10
-4.9678009448818896
20
5.9012931889763776
11
-4.9640514173228345
21
5.9012931889763776
0
LINE
8
BLACK
6
CONTINUOUS
10
-4.9640514173228345
20
5.9012931889763776
11
-4.9630414960629921
21
5.9011151181102361
0
LINE
8
BLACK
6
CONTINUOUS
10
-4.7876990157480313
20
5.914303188976378
11
-4.7873106692913385
21
5.9143716929133854
0
LINE
8
BLACK
6
CONTINUOUS
10
-4.7873106692913385
20
5.9143716929133854
11
-4.7867521259842523
21
5.9140491732283467
0
LINE
8
BLACK
6
CONTINUOUS
10
-4.7867521259842523
20
5.9140491732283467
11
-4.7861290551181099
21
5.9138820472440941
0
LINE
8
BLACK
6
CONTINUOUS
10
-4.7861290551181099
20
5.9138820472440941
11
-4.7859029527559054
21
5.9135588976377953
0
LINE
8
BLACK
6
CONTINUOUS
10
-4.7859029527559054
20
5.9135588976377953
11
-4.785561496062992
21
5.9133617716535429
0
LINE
8
BLACK
6
CONTINUOUS
10
-4.785561496062992
20
5.9133617716535429
11
-4.785340905511811
21
5.9127556692913386
0
LINE
8
BLACK
6
CONTINUOUS
10
-4.785340905511811
20
5.9127556692913386
11
-4.7849710629921258
21
5.9122271653543308
0
LINE
8
BLACK
6
CONTINUOUS
10
-4.7849710629921258
20
5.9122271653543308
11
-4.7850055511811025
21
5.9118343307086612
0
LINE
8
BLACK
6
CONTINUOUS
10
-4.7850055511811025
20
5.9118343307086612
11
-4.7848706692913385
21
5.9114637795275593
0
LINE
8
BLACK
6
CONTINUOUS
10
-4.7848706692913385
20
5.9114637795275593
11
-4.7848706692913385
21
5.872093700787401
0
LINE
8
BLACK
6
CONTINUOUS
10
-4.7848706692913385
20
5.872093700787401
11
-4.7850487401574799
21
5.8710837795275586
0
LINE
8
BLACK
6
CONTINUOUS
10
-4.7850487401574799
20
5.8710837795275586
11
-4.7863470472440941
21
5.8695365354330704
0
LINE
8
BLACK
6
CONTINUOUS
10
-4.7863470472440941
20
5.8695365354330704
11
-4.7883361811023617
21
5.8691857874015749
0
LINE
8
BLACK
6
CONTINUOUS
10
-4.7883361811023617
20
5.8691857874015749
11
-4.7900853543307083
21
5.8701957086614174
0
LINE
8
BLACK
6
CONTINUOUS
10
-4.7900853543307083
20
5.8701957086614174
11
-4.7907761811023617
21
5.872093700787401
0
LINE
8
BLACK
6
CONTINUOUS
10
-4.7907761811023617
20
5.872093700787401
11
-4.7907761811023617
21
5.8981540157480312
0
LINE
8
BLACK
6
CONTINUOUS
10
-4.7907761811023617
20
5.8981540157480312
11
-4.7982710236220472
21
5.8820936614173229
0
LINE
8
BLACK
6
CONTINUOUS
10
-4.7982710236220472
20
5.8820936614173229
11
-4.7984937007874011
21
5.8817758661417319
0
LINE
8
BLACK
6
CONTINUOUS
10
-4.7984937007874011
20
5.8817758661417319
11
-4.798527519685039
21
5.8816494094488192
0
LINE
8
BLACK
6
CONTINUOUS
10
-4.798527519685039
20
5.8816494094488192
11
-4.7986351181102362
21
5.881574015748031
0
LINE
8
BLACK
6
CONTINUOUS
10
-4.7986351181102362
20
5.881574015748031
11
-4.7988594881889766
21
5.881253779527559
0
LINE
8
BLACK
6
CONTINUOUS
10
-4.7988594881889766
20
5.881253779527559
11
-4.7995540551181097
21
5.8809301574803152
0
LINE
8
BLACK
6
CONTINUOUS
10
-4.7995540551181097
20
5.8809301574803152
11
-4.8001816929133856
21
5.8804903543307088
0
LINE
8
BLACK
6
CONTINUOUS
10
-4.8001816929133856
20
5.8804903543307088
11
-4.8004480314960629
21
5.8805135826771648
0
LINE
8
BLACK
6
CONTINUOUS
10
-4.8004480314960629
20
5.8805135826771648
11
-4.8006902755905507
21
5.8804007086614174
0
LINE
8
BLACK
6
CONTINUOUS
10
-4.8006902755905507
20
5.8804007086614174
11
-4.8014305118110236
21
5.880599251968504
0
LINE
8
BLACK
6
CONTINUOUS
10
-4.8014305118110236
20
5.880599251968504
11
-4.8021938582677164
21
5.8806658661417321
0
LINE
8
BLACK
6
CONTINUOUS
10
-4.8021938582677164
20
5.8806658661417321
11
-4.8023829133858262
21
5.880854763779527
0
LINE
8
BLACK
6
CONTINUOUS
10
-4.8023829133858262
20
5.880854763779527
11
-4.8026411417322832
21
5.8809240551181103
0
LINE
8
BLACK
6
CONTINUOUS
10
-4.8026411417322832
20
5.8809240551181103
11
-4.8030805511811021
21
5.8815519291338578
0
LINE
8
BLACK
6
CONTINUOUS
10
-4.8030805511811021
20
5.8815519291338578
11
-4.8036225196850388
21
5.8820936220472442
0
LINE
8
BLACK
6
CONTINUOUS
10
-4.8036225196850388
20
5.8820936220472442
11
-4.8111173622047243
21
5.8981540157480312
0
LINE
8
BLACK
6
CONTINUOUS
10
-4.8111173622047243
20
5.8981540157480312
11
-4.8111173622047243
21
5.872093700787401
0
LINE
8
BLACK
6
CONTINUOUS
10
-4.8111173622047243
20
5.872093700787401
11
-4.8112954330708657
21
5.8710837795275586
0
LINE
8
BLACK
6
CONTINUOUS
10
-4.8112954330708657
20
5.8710837795275586
11
-4.8125937401574799
21
5.8695365354330704
0
LINE
8
BLACK
6
CONTINUOUS
10
-4.8125937401574799
20
5.8695365354330704
11
-4.8145828740157484
21
5.8691857874015749
0
LINE
8
BLACK
6
CONTINUOUS
10
-4.8145828740157484
20
5.8691857874015749
11
-4.816332047244094
21
5.8701957086614174
0
LINE
8
BLACK
6
CONTINUOUS
10
-4.816332047244094
20
5.8701957086614174
11
-4.8170228740157484
21
5.872093700787401
0
LINE
8
BLACK
6
CONTINUOUS
10
-4.8170228740157484
20
5.872093700787401
11
-4.8170228740157484
21
5.9114637795275593
0
LINE
8
BLACK
6
CONTINUOUS
10
-4.8170228740157484
20
5.9114637795275593
11
-4.8168448031496061
21
5.9124737007874018
0
LINE
8
BLACK
6
CONTINUOUS
10
-4.8168448031496061
20
5.9124737007874018
11
-4.8165913385826773
21
5.9127757874015749
0
LINE
8
BLACK
6
CONTINUOUS
10
-4.8165913385826773
20
5.9127757874015749
11
-4.8164893700787399
21
5.9131566929133861
0
LINE
8
BLACK
6
CONTINUOUS
10
-4.8164893700787399
20
5.9131566929133861
11
-4.8159611417322834
21
5.9135268110236217
0
LINE
8
BLACK
6
CONTINUOUS
10
-4.8159611417322834
20
5.9135268110236217
11
-4.8155464960629919
21
5.9140209448818899
0
LINE
8
BLACK
6
CONTINUOUS
10
-4.8155464960629919
20
5.9140209448818899
11
-4.8151581889763779
21
5.9140894094488186
0
LINE
8
BLACK
6
CONTINUOUS
10
-4.8151581889763779
20
5.9140894094488186
11
-4.8148351968503933
21
5.9143157086614169
0
LINE
8
BLACK
6
CONTINUOUS
10
-4.8148351968503933
20
5.9143157086614169
11
-4.8141926377952755
21
5.9142596456692909
0
LINE
8
BLACK
6
CONTINUOUS
10
-4.8141926377952755
20
5.9142596456692909
11
-4.8135573622047243
21
5.9143716929133854
0
LINE
8
BLACK
6
CONTINUOUS
10
-4.8135573622047243
20
5.9143716929133854
11
-4.8132158267716534
21
5.9141744881889764
0
LINE
8
BLACK
6
CONTINUOUS
10
-4.8132158267716534
20
5.9141744881889764
11
-4.8128230314960625
21
5.9141402362204722
0
LINE
8
BLACK
6
CONTINUOUS
10
-4.8128230314960625
20
5.9141402362204722
11
-4.8123668503937003
21
5.9136842913385825
0
LINE
8
BLACK
6
CONTINUOUS
10
-4.8123668503937003
20
5.9136842913385825
11
-4.8118081889763777
21
5.9133617716535429
0
LINE
8
BLACK
6
CONTINUOUS
10
-4.8118081889763777
20
5.9133617716535429
11
-4.8116733464566925
21
5.9129911811023623
0
LINE
8
BLACK
6
CONTINUOUS
10
-4.8116733464566925
20
5.9129911811023623
11
-4.81139437007874
21
5.9127124409448815
0
LINE
8
BLACK
6
CONTINUOUS
10
-4.81139437007874
20
5.9127124409448815
11
-4.8009468110236222
21
5.8903247244094485
0
LINE
8
BLACK
6
CONTINUOUS
10
-4.8009468110236222
20
5.8903247244094485
11
-4.790499173228346
21
5.9127124803149602
0
LINE
8
BLACK
6
CONTINUOUS
10
-4.790499173228346
20
5.9127124803149602
11
-4.7899107086614174
21
5.9135523228346454
0
LINE
8
BLACK
6
CONTINUOUS
10
-4.7899107086614174
20
5.9135523228346454
11
-4.7895533070866136
21
5.9137188582677167
0
LINE
8
BLACK
6
CONTINUOUS
10
-4.7895533070866136
20
5.9137188582677167
11
-4.7892998031496061
21
5.9140209448818899
0
LINE
8
BLACK
6
CONTINUOUS
10
-4.7892998031496061
20
5.9140209448818899
11
-4.7886646062992124
21
5.9141329527559057
0
LINE
8
BLACK
6
CONTINUOUS
10
-4.7886646062992124
20
5.9141329527559057
11
-4.7880798818897636
21
5.914405393700787
0
LINE
8
BLACK
6
CONTINUOUS
10
-4.7880798818897636
20
5.914405393700787
11
-4.7876990157480313
21
5.914303188976378
0
LINE
8
BLACK
6
CONTINUOUS
10
-4.4089005511811026
20
5.8950072440944883
11
-4.4082086614173228
21
5.8933369291338584
0
LINE
8
BLACK
6
CONTINUOUS
10
-4.4082086614173228
20
5.8933369291338584
11
-4.4082086614173228
21
5.8746551968503935
0
LINE
8
BLACK
6
CONTINUOUS
10
-4.4082086614173228
20
5.8746551968503935
11
-4.4089005511811026
21
5.8729848818897636
0
LINE
8
BLACK
6
CONTINUOUS
10
-4.4089005511811026
20
5.8729848818897636
11
-4.4105708661417324
21
5.8722929921259839
0
LINE
8
BLACK
6
CONTINUOUS
10
-4.4105708661417324
20
5.8722929921259839
11
-4.4122411811023623
21
5.8729848818897636
0
LINE
8
BLACK
6
CONTINUOUS
10
-4.4122411811023623
20
5.8729848818897636
11
-4.4129330708661421
21
5.8746551968503935
0
LINE
8
BLACK
6
CONTINUOUS
10
-4.4129330708661421
20
5.8746551968503935
11
-4.4129330708661421
21
5.8933369291338584
0
LINE
8
BLACK
6
CONTINUOUS
10
-4.4129330708661421
20
5.8933369291338584
11
-4.4122411811023623
21
5.8950072440944883
0
LINE
8
BLACK
6
CONTINUOUS
10
-4.4122411811023623
20
5.8950072440944883
11
-4.4105708661417324
21
5.8956991338582672
0
LINE
8
BLACK
6
CONTINUOUS
10
-4.4105708661417324
20
5.8956991338582672
11
-4.4089005511811026
21
5.8950072440944883
0
LINE
8
BLACK
6
CONTINUOUS
10
-4.367758818897638
20
5.8950072440944883
11
-4.3670669291338582
21
5.8933369291338584
0
LINE
8
BLACK
6
CONTINUOUS
10
-4.3670669291338582
20
5.8933369291338584
11
-4.3670669291338582
21
5.8746551968503935
0
LINE
8
BLACK
6
CONTINUOUS
10
-4.3670669291338582
20
5.8746551968503935
11
-4.367758818897638
21
5.8729848818897636
0
LINE
8
BLACK
6
CONTINUOUS
10
-4.367758818897638
20
5.8729848818897636
11
-4.3694291338582678
21
5.8722929921259839
0
LINE
8
BLACK
6
CONTINUOUS
10
-4.3694291338582678
20
5.8722929921259839
11
-4.3710994488188977
21
5.8729848818897636
0
LINE
8
BLACK
6
CONTINUOUS
10
-4.3710994488188977
20
5.8729848818897636
11
-4.3717913385826774
21
5.8746551968503935
0
LINE
8
BLACK
6
CONTINUOUS
10
-4.3717913385826774
20
5.8746551968503935
11
-4.3717913385826774
21
5.8933369291338584
0
LINE
8
BLACK
6
CONTINUOUS
10
-4.3717913385826774
20
5.8933369291338584
11
-4.3710994488188977
21
5.8950072440944883
0
LINE
8
BLACK
6
CONTINUOUS
10
-4.3710994488188977
20
5.8950072440944883
11
-4.3694291338582678
21
5.8956991338582672
0
LINE
8
BLACK
6
CONTINUOUS
10
-4.3694291338582678
20
5.8956991338582672
11
-4.367758818897638
21
5.8950072440944883
0
LINE
8
BLACK
6
CONTINUOUS
10
-4.3289005511811025
20
5.8950072440944883
11
-4.3282086614173227
21
5.8933369291338584
0
LINE
8
BLACK
6
CONTINUOUS
10
-4.3282086614173227
20
5.8933369291338584
11
-4.3282086614173227
21
5.8746551968503935
0
LINE
8
BLACK
6
CONTINUOUS
10
-4.3282086614173227
20
5.8746551968503935
11
-4.3289005511811025
21
5.8729848818897636
0
LINE
8
BLACK
6
CONTINUOUS
10
-4.3289005511811025
20
5.8729848818897636
11
-4.3305708661417324
21
5.8722929921259839
0
LINE
8
BLACK
6
CONTINUOUS
10
-4.3305708661417324
20
5.8722929921259839
11
-4.3322411811023622
21
5.8729848818897636
0
LINE
8
BLACK
6
CONTINUOUS
10
-4.3322411811023622
20
5.8729848818897636
11
-4.332933070866142
21
5.8746551968503935
0
LINE
8
BLACK
6
CONTINUOUS
10
-4.332933070866142
20
5.8746551968503935
11
-4.332933070866142
21
5.8933369291338584
0
LINE
8
BLACK
6
CONTINUOUS
10
-4.332933070866142
20
5.8933369291338584
11
-4.3322411811023622
21
5.8950072440944883
0
LINE
8
BLACK
6
CONTINUOUS
10
-4.3322411811023622
20
5.8950072440944883
11
-4.3305708661417324
21
5.8956991338582672
0
LINE
8
BLACK
6
CONTINUOUS
10
-4.3305708661417324
20
5.8956991338582672
11
-4.3289005511811025
21
5.8950072440944883
0
LINE
8
BLACK
6
CONTINUOUS
10
-4.2877588188976379
20
5.8950072440944883
11
-4.2870669291338581
21
5.8933369291338584
0
LINE
8
BLACK
6
CONTINUOUS
10
-4.2870669291338581
20
5.8933369291338584
11
-4.2870669291338581
21
5.8746551968503935
0
LINE
8
BLACK
6
CONTINUOUS
10
-4.2870669291338581
20
5.8746551968503935
11
-4.2877588188976379
21
5.8729848818897636
0
LINE
8
BLACK
6
CONTINUOUS
10
-4.2877588188976379
20
5.8729848818897636
11
-4.2894291338582677
21
5.8722929921259839
0
LINE
8
BLACK
6
CONTINUOUS
10
-4.2894291338582677
20
5.8722929921259839
11
-4.2910994488188976
21
5.8729848818897636
0
LINE
8
BLACK
6
CONTINUOUS
10
-4.2910994488188976
20
5.8729848818897636
11
-4.2917913385826774
21
5.8746551968503935
0
LINE
8
BLACK
6
CONTINUOUS
10
-4.2917913385826774
20
5.8746551968503935
11
-4.2917913385826774
21
5.8933369291338584
0
LINE
8
BLACK
6
CONTINUOUS
10
-4.2917913385826774
20
5.8933369291338584
11
-4.2910994488188976
21
5.8950072440944883
0
LINE
8
BLACK
6
CONTINUOUS
10
-4.2910994488188976
20
5.8950072440944883
11
-4.2894291338582677
21
5.8956991338582672
0
LINE
8
BLACK
6
CONTINUOUS
10
-4.2894291338582677
20
5.8956991338582672
11
-4.2877588188976379
21
5.8950072440944883
0
LINE
8
BLACK
6
CONTINUOUS
10
-4.4779848818897641
20
5.9122411811023623
11
-4.4772929921259843
21
5.9105708661417324
0
LINE
8
BLACK
6
CONTINUOUS
10
-4.4772929921259843
20
5.9105708661417324
11
-4.4779848818897641
21
5.9089005511811026
0
LINE
8
BLACK
6
CONTINUOUS
10
-4.4779848818897641
20
5.9089005511811026
11
-4.4796551968503939
21
5.9082086614173228
0
LINE
8
BLACK
6
CONTINUOUS
10
-4.4796551968503939
20
5.9082086614173228
11
-4.498336929133858
21
5.9082086614173228
0
LINE
8
BLACK
6
CONTINUOUS
10
-4.498336929133858
20
5.9082086614173228
11
-4.5000072440944878
21
5.9089005511811026
0
LINE
8
BLACK
6
CONTINUOUS
10
-4.5000072440944878
20
5.9089005511811026
11
-4.5006991338582676
21
5.9105708661417324
0
LINE
8
BLACK
6
CONTINUOUS
10
-4.5006991338582676
20
5.9105708661417324
11
-4.5000072440944878
21
5.9122411811023623
0
LINE
8
BLACK
6
CONTINUOUS
10
-4.5000072440944878
20
5.9122411811023623
11
-4.498336929133858
21
5.9129330708661412
0
LINE
8
BLACK
6
CONTINUOUS
10
-4.498336929133858
20
5.9129330708661412
11
-4.4796551968503939
21
5.9129330708661412
0
LINE
8
BLACK
6
CONTINUOUS
10
-4.4796551968503939
20
5.9129330708661412
11
-4.4779848818897641
21
5.9122411811023623
0
CIRCLE
8
BLACK
10
-4.8915748031496058
20
5.3899999999999997
40
0.0068897637795276
0
CIRCLE
8
BLACK
10
-4.8915748031496058
20
5.9805511811023617
40
0.0068897637795276
0
CIRCLE
8
BLACK
10
-4.1041732283464567
20
5.9805511811023617
40
0.0068897637795276
0
CIRCLE
8
BLACK
10
-4.4978740157480317
20
5.9805511811023617
40
0.0068897637795276
0
CIRCLE
8
BLACK
10
-4.1041732283464567
20
5.3899999999999997
40
0.0068897637795276
0
CIRCLE
8
BLACK
10
-4.4978740157480317
20
5.3899999999999997
40
0.0068897637795276
  0
ENDSEC
  0
EOF
