  0
SECTION
  2
HEADER
  9
$ANGBASE
  50
0.0
  9
$ANGDIR
  70
1
  9
$MEASUREMENT
  70
0
  0
ENDSEC
  0
SECTION
  2
TABLES
  0
TABLE
  2
LTYPE
  70
4
  0
LTYPE
  5
40F
  2
CONTINUOUS
  70
0
  3
Solid line
  72
65
  73
0
  40
0.0
  0
LTYPE
  5
410
  2
DASHDOT
 70
0
  3
Dash Dot ____ _ ____ _
 72
65
 73
4
 40
2.0
 49
1.25
 49
-0.25
 49
0.25
 49
-0.25
  0
LTYPE
  5
411
  2
DASHED
 70
0
  3
Dashed __ __ __ __ __
 72
65
 73
2
 40
0.75
 49
0.5
 49
-0.25
  0
LTYPE
  5
43B
  2
DOTTED
 70
0
  3
Dotted .  .  .  .
 72
65
 73
2
 40
0.2
 49
0.0
 49
-0.2
  0
ENDTAB
  0
TABLE
  2
STYLE
  70
4
  0
STYLE
  2
KICAD
  70
0
  40
0
  41
1
  42
1
  50
0
  71
0
  3
isocp.shx
  0
STYLE
  2
KICADB
  70
0
  40
0
  41
1
  42
1
  50
0
  71
0
  3
isocp.shx
  0
STYLE
  2
KICADI
  70
0
  40
0
  41
1
  42
1
  50
15
  71
0
  3
isocp.shx
  0
STYLE
  2
KICADBI
  70
0
  40
0
  41
1
  42
1
  50
15
  71
0
  3
isocp.shx
  0
ENDTAB
  0
TABLE
  2
LAYER
  70
1
  0
LAYER
  2
BLACK
  70
0
  62
7
  6
CONTINUOUS
  0
ENDTAB
  0
ENDSEC
  0
SECTION
  2
ENTITIES
0
LINE
8
BLACK
6
CONTINUOUS
10
-4.3761599606299209
20
5.4676683464566924
11
-4.3736054724409446
21
5.4659614566929129
0
LINE
8
BLACK
6
CONTINUOUS
10
-4.3736054724409446
20
5.4659614566929129
11
-4.371898582677165
21
5.4634069685039366
0
LINE
8
BLACK
6
CONTINUOUS
10
-4.371898582677165
20
5.4634069685039366
11
-4.3712992125984247
21
5.4603937007874013
0
LINE
8
BLACK
6
CONTINUOUS
10
-4.3712992125984247
20
5.4603937007874013
11
-4.3712992125984247
21
5.4446456692913383
0
LINE
8
BLACK
6
CONTINUOUS
10
-4.3712992125984247
20
5.4446456692913383
11
-4.371898582677165
21
5.441632401574803
0
LINE
8
BLACK
6
CONTINUOUS
10
-4.371898582677165
20
5.441632401574803
11
-4.3736054724409446
21
5.4390779133858267
0
LINE
8
BLACK
6
CONTINUOUS
10
-4.3736054724409446
20
5.4390779133858267
11
-4.3761599606299209
21
5.4373710236220472
0
LINE
8
BLACK
6
CONTINUOUS
10
-4.3761599606299209
20
5.4373710236220472
11
-4.3791732283464562
21
5.4367716535433068
0
LINE
8
BLACK
6
CONTINUOUS
10
-4.3791732283464562
20
5.4367716535433068
11
-4.4008267716535432
21
5.4367716535433068
0
LINE
8
BLACK
6
CONTINUOUS
10
-4.4008267716535432
20
5.4367716535433068
11
-4.4038400393700785
21
5.4373710236220472
0
LINE
8
BLACK
6
CONTINUOUS
10
-4.4038400393700785
20
5.4373710236220472
11
-4.4063945275590548
21
5.4390779133858267
0
LINE
8
BLACK
6
CONTINUOUS
10
-4.4063945275590548
20
5.4390779133858267
11
-4.4081014173228343
21
5.441632401574803
0
LINE
8
BLACK
6
CONTINUOUS
10
-4.4081014173228343
20
5.441632401574803
11
-4.4087007874015747
21
5.4446456692913383
0
LINE
8
BLACK
6
CONTINUOUS
10
-4.4087007874015747
20
5.4446456692913383
11
-4.4087007874015747
21
5.4603937007874013
0
LINE
8
BLACK
6
CONTINUOUS
10
-4.4087007874015747
20
5.4603937007874013
11
-4.4081014173228343
21
5.4634069685039366
0
LINE
8
BLACK
6
CONTINUOUS
10
-4.4081014173228343
20
5.4634069685039366
11
-4.4063945275590548
21
5.4659614566929129
0
LINE
8
BLACK
6
CONTINUOUS
10
-4.4063945275590548
20
5.4659614566929129
11
-4.4038400393700785
21
5.4676683464566924
0
LINE
8
BLACK
6
CONTINUOUS
10
-4.4038400393700785
20
5.4676683464566924
11
-4.4008267716535432
21
5.4682677165354328
0
LINE
8
BLACK
6
CONTINUOUS
10
-4.4008267716535432
20
5.4682677165354328
11
-4.3791732283464562
21
5.4682677165354328
0
LINE
8
BLACK
6
CONTINUOUS
10
-4.3791732283464562
20
5.4682677165354328
11
-4.3761599606299209
21
5.4676683464566924
0
LINE
8
BLACK
6
CONTINUOUS
10
-4.2961599606299208
20
5.4676683464566924
11
-4.2936054724409445
21
5.4659614566929129
0
LINE
8
BLACK
6
CONTINUOUS
10
-4.2936054724409445
20
5.4659614566929129
11
-4.291898582677165
21
5.4634069685039366
0
LINE
8
BLACK
6
CONTINUOUS
10
-4.291898582677165
20
5.4634069685039366
11
-4.2912992125984255
21
5.4603937007874013
0
LINE
8
BLACK
6
CONTINUOUS
10
-4.2912992125984255
20
5.4603937007874013
11
-4.2912992125984255
21
5.4446456692913383
0
LINE
8
BLACK
6
CONTINUOUS
10
-4.2912992125984255
20
5.4446456692913383
11
-4.291898582677165
21
5.441632401574803
0
LINE
8
BLACK
6
CONTINUOUS
10
-4.291898582677165
20
5.441632401574803
11
-4.2936054724409445
21
5.4390779133858267
0
LINE
8
BLACK
6
CONTINUOUS
10
-4.2936054724409445
20
5.4390779133858267
11
-4.2961599606299208
21
5.4373710236220472
0
LINE
8
BLACK
6
CONTINUOUS
10
-4.2961599606299208
20
5.4373710236220472
11
-4.299173228346457
21
5.4367716535433068
0
LINE
8
BLACK
6
CONTINUOUS
10
-4.299173228346457
20
5.4367716535433068
11
-4.3208267716535431
21
5.4367716535433068
0
LINE
8
BLACK
6
CONTINUOUS
10
-4.3208267716535431
20
5.4367716535433068
11
-4.3238400393700784
21
5.4373710236220472
0
LINE
8
BLACK
6
CONTINUOUS
10
-4.3238400393700784
20
5.4373710236220472
11
-4.3263945275590547
21
5.4390779133858267
0
LINE
8
BLACK
6
CONTINUOUS
10
-4.3263945275590547
20
5.4390779133858267
11
-4.3281014173228343
21
5.441632401574803
0
LINE
8
BLACK
6
CONTINUOUS
10
-4.3281014173228343
20
5.441632401574803
11
-4.3287007874015746
21
5.4446456692913383
0
LINE
8
BLACK
6
CONTINUOUS
10
-4.3287007874015746
20
5.4446456692913383
11
-4.3287007874015746
21
5.4603937007874013
0
LINE
8
BLACK
6
CONTINUOUS
10
-4.3287007874015746
20
5.4603937007874013
11
-4.3281014173228343
21
5.4634069685039366
0
LINE
8
BLACK
6
CONTINUOUS
10
-4.3281014173228343
20
5.4634069685039366
11
-4.3263945275590547
21
5.4659614566929129
0
LINE
8
BLACK
6
CONTINUOUS
10
-4.3263945275590547
20
5.4659614566929129
11
-4.3238400393700784
21
5.4676683464566924
0
LINE
8
BLACK
6
CONTINUOUS
10
-4.3238400393700784
20
5.4676683464566924
11
-4.3208267716535431
21
5.4682677165354328
0
LINE
8
BLACK
6
CONTINUOUS
10
-4.3208267716535431
20
5.4682677165354328
11
-4.299173228346457
21
5.4682677165354328
0
LINE
8
BLACK
6
CONTINUOUS
10
-4.299173228346457
20
5.4682677165354328
11
-4.2961599606299208
21
5.4676683464566924
0
LINE
8
BLACK
6
CONTINUOUS
10
-4.705664803149606
20
5.4977682283464562
11
-4.7035360629921259
21
5.4963458267716536
0
LINE
8
BLACK
6
CONTINUOUS
10
-4.7035360629921259
20
5.4963458267716536
11
-4.7021136614173225
21
5.4942170866141735
0
LINE
8
BLACK
6
CONTINUOUS
10
-4.7021136614173225
20
5.4942170866141735
11
-4.7016142125984253
21
5.4917059842519684
0
LINE
8
BLACK
6
CONTINUOUS
10
-4.7016142125984253
20
5.4917059842519684
11
-4.7016141732283465
21
5.4457742913385827
0
LINE
8
BLACK
6
CONTINUOUS
10
-4.7016141732283465
20
5.4457742913385827
11
-4.7021136614173225
21
5.4432632283464564
0
LINE
8
BLACK
6
CONTINUOUS
10
-4.7021136614173225
20
5.4432632283464564
11
-4.7035360629921259
21
5.4411344881889763
0
LINE
8
BLACK
6
CONTINUOUS
10
-4.7035360629921259
20
5.4411344881889763
11
-4.705664803149606
21
5.4397120866141728
0
LINE
8
BLACK
6
CONTINUOUS
10
-4.705664803149606
20
5.4397120866141728
11
-4.7081759055118111
21
5.4392126377952756
0
LINE
8
BLACK
6
CONTINUOUS
10
-4.7081759055118111
20
5.4392126377952756
11
-4.744265078740157
21
5.4392125984251969
0
LINE
8
BLACK
6
CONTINUOUS
10
-4.744265078740157
20
5.4392125984251969
11
-4.7467761417322833
21
5.4397120866141728
0
LINE
8
BLACK
6
CONTINUOUS
10
-4.7467761417322833
20
5.4397120866141728
11
-4.7489048818897635
21
5.4411344881889763
0
LINE
8
BLACK
6
CONTINUOUS
10
-4.7489048818897635
20
5.4411344881889763
11
-4.7503272834645669
21
5.4432632283464564
0
LINE
8
BLACK
6
CONTINUOUS
10
-4.7503272834645669
20
5.4432632283464564
11
-4.7508267322834641
21
5.4457743307086615
0
LINE
8
BLACK
6
CONTINUOUS
10
-4.7508267322834641
20
5.4457743307086615
11
-4.7508267716535428
21
5.4917060236220472
0
LINE
8
BLACK
6
CONTINUOUS
10
-4.7508267716535428
20
5.4917060236220472
11
-4.7503272834645669
21
5.4942170866141735
0
LINE
8
BLACK
6
CONTINUOUS
10
-4.7503272834645669
20
5.4942170866141735
11
-4.7489048818897635
21
5.4963458267716536
0
LINE
8
BLACK
6
CONTINUOUS
10
-4.7489048818897635
20
5.4963458267716536
11
-4.7467761417322833
21
5.4977682283464562
0
LINE
8
BLACK
6
CONTINUOUS
10
-4.7467761417322833
20
5.4977682283464562
11
-4.7442650393700783
21
5.4982676771653543
0
LINE
8
BLACK
6
CONTINUOUS
10
-4.7442650393700783
20
5.4982676771653543
11
-4.7081758661417323
21
5.498267716535433
0
LINE
8
BLACK
6
CONTINUOUS
10
-4.7081758661417323
20
5.498267716535433
11
-4.705664803149606
21
5.4977682283464562
0
LINE
8
BLACK
6
CONTINUOUS
10
-4.5639325196850393
20
5.4977682283464562
11
-4.5618037795275592
21
5.4963458267716536
0
LINE
8
BLACK
6
CONTINUOUS
10
-4.5618037795275592
20
5.4963458267716536
11
-4.5603813779527558
21
5.4942170866141735
0
LINE
8
BLACK
6
CONTINUOUS
10
-4.5603813779527558
20
5.4942170866141735
11
-4.5598819291338586
21
5.4917059842519684
0
LINE
8
BLACK
6
CONTINUOUS
10
-4.5598819291338586
20
5.4917059842519684
11
-4.5598818897637798
21
5.4457742913385827
0
LINE
8
BLACK
6
CONTINUOUS
10
-4.5598818897637798
20
5.4457742913385827
11
-4.5603813779527558
21
5.4432632283464564
0
LINE
8
BLACK
6
CONTINUOUS
10
-4.5603813779527558
20
5.4432632283464564
11
-4.5618037795275592
21
5.4411344881889763
0
LINE
8
BLACK
6
CONTINUOUS
10
-4.5618037795275592
20
5.4411344881889763
11
-4.5639325196850393
21
5.4397120866141728
0
LINE
8
BLACK
6
CONTINUOUS
10
-4.5639325196850393
20
5.4397120866141728
11
-4.5664436220472444
21
5.4392126377952756
0
LINE
8
BLACK
6
CONTINUOUS
10
-4.5664436220472444
20
5.4392126377952756
11
-4.6025327952755903
21
5.4392125984251969
0
LINE
8
BLACK
6
CONTINUOUS
10
-4.6025327952755903
20
5.4392125984251969
11
-4.6050438582677167
21
5.4397120866141728
0
LINE
8
BLACK
6
CONTINUOUS
10
-4.6050438582677167
20
5.4397120866141728
11
-4.6071725984251968
21
5.4411344881889763
0
LINE
8
BLACK
6
CONTINUOUS
10
-4.6071725984251968
20
5.4411344881889763
11
-4.6085950000000002
21
5.4432632283464564
0
LINE
8
BLACK
6
CONTINUOUS
10
-4.6085950000000002
20
5.4432632283464564
11
-4.6090944488188974
21
5.4457743307086615
0
LINE
8
BLACK
6
CONTINUOUS
10
-4.6090944488188974
20
5.4457743307086615
11
-4.6090944881889762
21
5.4917060236220472
0
LINE
8
BLACK
6
CONTINUOUS
10
-4.6090944881889762
20
5.4917060236220472
11
-4.6085950000000002
21
5.4942170866141735
0
LINE
8
BLACK
6
CONTINUOUS
10
-4.6085950000000002
20
5.4942170866141735
11
-4.6071725984251968
21
5.4963458267716536
0
LINE
8
BLACK
6
CONTINUOUS
10
-4.6071725984251968
20
5.4963458267716536
11
-4.6050438582677167
21
5.4977682283464562
0
LINE
8
BLACK
6
CONTINUOUS
10
-4.6050438582677167
20
5.4977682283464562
11
-4.6025327559055116
21
5.4982676771653543
0
LINE
8
BLACK
6
CONTINUOUS
10
-4.6025327559055116
20
5.4982676771653543
11
-4.5664435826771657
21
5.498267716535433
0
LINE
8
BLACK
6
CONTINUOUS
10
-4.5664435826771657
20
5.498267716535433
11
-4.5639325196850393
21
5.4977682283464562
0
LINE
8
BLACK
6
CONTINUOUS
10
-4.5115930314960631
20
5.5081014173228349
11
-4.5090385433070868
21
5.5063945275590553
0
LINE
8
BLACK
6
CONTINUOUS
10
-4.5090385433070868
20
5.5063945275590553
11
-4.5073316535433072
21
5.503840039370079
0
LINE
8
BLACK
6
CONTINUOUS
10
-4.5073316535433072
20
5.503840039370079
11
-4.5067322834645669
21
5.5008267716535428
0
LINE
8
BLACK
6
CONTINUOUS
10
-4.5067322834645669
20
5.5008267716535428
11
-4.5067322834645669
21
5.4791732283464567
0
LINE
8
BLACK
6
CONTINUOUS
10
-4.5067322834645669
20
5.4791732283464567
11
-4.5073316535433072
21
5.4761599606299214
0
LINE
8
BLACK
6
CONTINUOUS
10
-4.5073316535433072
20
5.4761599606299214
11
-4.5090385433070868
21
5.4736054724409451
0
LINE
8
BLACK
6
CONTINUOUS
10
-4.5090385433070868
20
5.4736054724409451
11
-4.5115930314960631
21
5.4718985826771656
0
LINE
8
BLACK
6
CONTINUOUS
10
-4.5115930314960631
20
5.4718985826771656
11
-4.5146062992125984
21
5.4712992125984252
0
LINE
8
BLACK
6
CONTINUOUS
10
-4.5146062992125984
20
5.4712992125984252
11
-4.5303543307086613
21
5.4712992125984252
0
LINE
8
BLACK
6
CONTINUOUS
10
-4.5303543307086613
20
5.4712992125984252
11
-4.5333675984251967
21
5.4718985826771656
0
LINE
8
BLACK
6
CONTINUOUS
10
-4.5333675984251967
20
5.4718985826771656
11
-4.535922086614173
21
5.4736054724409451
0
LINE
8
BLACK
6
CONTINUOUS
10
-4.535922086614173
20
5.4736054724409451
11
-4.5376289763779525
21
5.4761599606299214
0
LINE
8
BLACK
6
CONTINUOUS
10
-4.5376289763779525
20
5.4761599606299214
11
-4.5382283464566928
21
5.4791732283464567
0
LINE
8
BLACK
6
CONTINUOUS
10
-4.5382283464566928
20
5.4791732283464567
11
-4.5382283464566928
21
5.5008267716535428
0
LINE
8
BLACK
6
CONTINUOUS
10
-4.5382283464566928
20
5.5008267716535428
11
-4.5376289763779525
21
5.503840039370079
0
LINE
8
BLACK
6
CONTINUOUS
10
-4.5376289763779525
20
5.503840039370079
11
-4.535922086614173
21
5.5063945275590553
0
LINE
8
BLACK
6
CONTINUOUS
10
-4.535922086614173
20
5.5063945275590553
11
-4.5333675984251967
21
5.5081014173228349
0
LINE
8
BLACK
6
CONTINUOUS
10
-4.5333675984251967
20
5.5081014173228349
11
-4.5303543307086613
21
5.5087007874015743
0
LINE
8
BLACK
6
CONTINUOUS
10
-4.5303543307086613
20
5.5087007874015743
11
-4.5146062992125984
21
5.5087007874015743
0
LINE
8
BLACK
6
CONTINUOUS
10
-4.5146062992125984
20
5.5087007874015743
11
-4.5115930314960631
21
5.5081014173228349
0
LINE
8
BLACK
6
CONTINUOUS
10
-4.4466324015748029
20
5.5081014173228349
11
-4.4440779133858266
21
5.5063945275590553
0
LINE
8
BLACK
6
CONTINUOUS
10
-4.4440779133858266
20
5.5063945275590553
11
-4.4423710236220471
21
5.503840039370079
0
LINE
8
BLACK
6
CONTINUOUS
10
-4.4423710236220471
20
5.503840039370079
11
-4.4417716535433067
21
5.5008267716535428
0
LINE
8
BLACK
6
CONTINUOUS
10
-4.4417716535433067
20
5.5008267716535428
11
-4.4417716535433067
21
5.4791732283464567
0
LINE
8
BLACK
6
CONTINUOUS
10
-4.4417716535433067
20
5.4791732283464567
11
-4.4423710236220471
21
5.4761599606299214
0
LINE
8
BLACK
6
CONTINUOUS
10
-4.4423710236220471
20
5.4761599606299214
11
-4.4440779133858266
21
5.4736054724409451
0
LINE
8
BLACK
6
CONTINUOUS
10
-4.4440779133858266
20
5.4736054724409451
11
-4.4466324015748029
21
5.4718985826771656
0
LINE
8
BLACK
6
CONTINUOUS
10
-4.4466324015748029
20
5.4718985826771656
11
-4.4496456692913382
21
5.4712992125984252
0
LINE
8
BLACK
6
CONTINUOUS
10
-4.4496456692913382
20
5.4712992125984252
11
-4.4653937007874012
21
5.4712992125984252
0
LINE
8
BLACK
6
CONTINUOUS
10
-4.4653937007874012
20
5.4712992125984252
11
-4.4684069685039365
21
5.4718985826771656
0
LINE
8
BLACK
6
CONTINUOUS
10
-4.4684069685039365
20
5.4718985826771656
11
-4.4709614566929137
21
5.4736054724409451
0
LINE
8
BLACK
6
CONTINUOUS
10
-4.4709614566929137
20
5.4736054724409451
11
-4.4726683464566932
21
5.4761599606299214
0
LINE
8
BLACK
6
CONTINUOUS
10
-4.4726683464566932
20
5.4761599606299214
11
-4.4732677165354326
21
5.4791732283464567
0
LINE
8
BLACK
6
CONTINUOUS
10
-4.4732677165354326
20
5.4791732283464567
11
-4.4732677165354326
21
5.5008267716535428
0
LINE
8
BLACK
6
CONTINUOUS
10
-4.4732677165354326
20
5.5008267716535428
11
-4.4726683464566932
21
5.503840039370079
0
LINE
8
BLACK
6
CONTINUOUS
10
-4.4726683464566932
20
5.503840039370079
11
-4.4709614566929137
21
5.5063945275590553
0
LINE
8
BLACK
6
CONTINUOUS
10
-4.4709614566929137
20
5.5063945275590553
11
-4.4684069685039365
21
5.5081014173228349
0
LINE
8
BLACK
6
CONTINUOUS
10
-4.4684069685039365
20
5.5081014173228349
11
-4.4653937007874012
21
5.5087007874015743
0
LINE
8
BLACK
6
CONTINUOUS
10
-4.4653937007874012
20
5.5087007874015743
11
-4.4496456692913382
21
5.5087007874015743
0
LINE
8
BLACK
6
CONTINUOUS
10
-4.4496456692913382
20
5.5087007874015743
11
-4.4466324015748029
21
5.5081014173228349
0
LINE
8
BLACK
6
CONTINUOUS
10
-4.3761599606299209
20
5.5326289763779526
11
-4.3736054724409446
21
5.5309220866141731
0
LINE
8
BLACK
6
CONTINUOUS
10
-4.3736054724409446
20
5.5309220866141731
11
-4.371898582677165
21
5.5283675984251968
0
LINE
8
BLACK
6
CONTINUOUS
10
-4.371898582677165
20
5.5283675984251968
11
-4.3712992125984247
21
5.5253543307086614
0
LINE
8
BLACK
6
CONTINUOUS
10
-4.3712992125984247
20
5.5253543307086614
11
-4.3712992125984247
21
5.5096062992125985
0
LINE
8
BLACK
6
CONTINUOUS
10
-4.3712992125984247
20
5.5096062992125985
11
-4.371898582677165
21
5.5065930314960632
0
LINE
8
BLACK
6
CONTINUOUS
10
-4.371898582677165
20
5.5065930314960632
11
-4.3736054724409446
21
5.5040385433070869
0
LINE
8
BLACK
6
CONTINUOUS
10
-4.3736054724409446
20
5.5040385433070869
11
-4.3761599606299209
21
5.5023316535433073
0
LINE
8
BLACK
6
CONTINUOUS
10
-4.3761599606299209
20
5.5023316535433073
11
-4.3791732283464562
21
5.501732283464567
0
LINE
8
BLACK
6
CONTINUOUS
10
-4.3791732283464562
20
5.501732283464567
11
-4.4008267716535432
21
5.501732283464567
0
LINE
8
BLACK
6
CONTINUOUS
10
-4.4008267716535432
20
5.501732283464567
11
-4.4038400393700785
21
5.5023316535433073
0
LINE
8
BLACK
6
CONTINUOUS
10
-4.4038400393700785
20
5.5023316535433073
11
-4.4063945275590548
21
5.5040385433070869
0
LINE
8
BLACK
6
CONTINUOUS
10
-4.4063945275590548
20
5.5040385433070869
11
-4.4081014173228343
21
5.5065930314960632
0
LINE
8
BLACK
6
CONTINUOUS
10
-4.4081014173228343
20
5.5065930314960632
11
-4.4087007874015747
21
5.5096062992125985
0
LINE
8
BLACK
6
CONTINUOUS
10
-4.4087007874015747
20
5.5096062992125985
11
-4.4087007874015747
21
5.5253543307086614
0
LINE
8
BLACK
6
CONTINUOUS
10
-4.4087007874015747
20
5.5253543307086614
11
-4.4081014173228343
21
5.5283675984251968
0
LINE
8
BLACK
6
CONTINUOUS
10
-4.4081014173228343
20
5.5283675984251968
11
-4.4063945275590548
21
5.5309220866141731
0
LINE
8
BLACK
6
CONTINUOUS
10
-4.4063945275590548
20
5.5309220866141731
11
-4.4038400393700785
21
5.5326289763779526
0
LINE
8
BLACK
6
CONTINUOUS
10
-4.4038400393700785
20
5.5326289763779526
11
-4.4008267716535432
21
5.5332283464566929
0
LINE
8
BLACK
6
CONTINUOUS
10
-4.4008267716535432
20
5.5332283464566929
11
-4.3791732283464562
21
5.5332283464566929
0
LINE
8
BLACK
6
CONTINUOUS
10
-4.3791732283464562
20
5.5332283464566929
11
-4.3761599606299209
21
5.5326289763779526
0
LINE
8
BLACK
6
CONTINUOUS
10
-4.2961599606299208
20
5.5326289763779526
11
-4.2936054724409445
21
5.5309220866141731
0
LINE
8
BLACK
6
CONTINUOUS
10
-4.2936054724409445
20
5.5309220866141731
11
-4.291898582677165
21
5.5283675984251968
0
LINE
8
BLACK
6
CONTINUOUS
10
-4.291898582677165
20
5.5283675984251968
11
-4.2912992125984255
21
5.5253543307086614
0
LINE
8
BLACK
6
CONTINUOUS
10
-4.2912992125984255
20
5.5253543307086614
11
-4.2912992125984255
21
5.5096062992125985
0
LINE
8
BLACK
6
CONTINUOUS
10
-4.2912992125984255
20
5.5096062992125985
11
-4.291898582677165
21
5.5065930314960632
0
LINE
8
BLACK
6
CONTINUOUS
10
-4.291898582677165
20
5.5065930314960632
11
-4.2936054724409445
21
5.5040385433070869
0
LINE
8
BLACK
6
CONTINUOUS
10
-4.2936054724409445
20
5.5040385433070869
11
-4.2961599606299208
21
5.5023316535433073
0
LINE
8
BLACK
6
CONTINUOUS
10
-4.2961599606299208
20
5.5023316535433073
11
-4.299173228346457
21
5.501732283464567
0
LINE
8
BLACK
6
CONTINUOUS
10
-4.299173228346457
20
5.501732283464567
11
-4.3208267716535431
21
5.501732283464567
0
LINE
8
BLACK
6
CONTINUOUS
10
-4.3208267716535431
20
5.501732283464567
11
-4.3238400393700784
21
5.5023316535433073
0
LINE
8
BLACK
6
CONTINUOUS
10
-4.3238400393700784
20
5.5023316535433073
11
-4.3263945275590547
21
5.5040385433070869
0
LINE
8
BLACK
6
CONTINUOUS
10
-4.3263945275590547
20
5.5040385433070869
11
-4.3281014173228343
21
5.5065930314960632
0
LINE
8
BLACK
6
CONTINUOUS
10
-4.3281014173228343
20
5.5065930314960632
11
-4.3287007874015746
21
5.5096062992125985
0
LINE
8
BLACK
6
CONTINUOUS
10
-4.3287007874015746
20
5.5096062992125985
11
-4.3287007874015746
21
5.5253543307086614
0
LINE
8
BLACK
6
CONTINUOUS
10
-4.3287007874015746
20
5.5253543307086614
11
-4.3281014173228343
21
5.5283675984251968
0
LINE
8
BLACK
6
CONTINUOUS
10
-4.3281014173228343
20
5.5283675984251968
11
-4.3263945275590547
21
5.5309220866141731
0
LINE
8
BLACK
6
CONTINUOUS
10
-4.3263945275590547
20
5.5309220866141731
11
-4.3238400393700784
21
5.5326289763779526
0
LINE
8
BLACK
6
CONTINUOUS
10
-4.3238400393700784
20
5.5326289763779526
11
-4.3208267716535431
21
5.5332283464566929
0
LINE
8
BLACK
6
CONTINUOUS
10
-4.3208267716535431
20
5.5332283464566929
11
-4.299173228346457
21
5.5332283464566929
0
LINE
8
BLACK
6
CONTINUOUS
10
-4.299173228346457
20
5.5332283464566929
11
-4.2961599606299208
21
5.5326289763779526
0
LINE
8
BLACK
6
CONTINUOUS
10
-4.8858397244094487
20
5.5575578740157479
11
-4.8826465748031493
21
5.555424291338583
0
LINE
8
BLACK
6
CONTINUOUS
10
-4.8826465748031493
20
5.555424291338583
11
-4.8805129921259844
21
5.5522311417322836
0
LINE
8
BLACK
6
CONTINUOUS
10
-4.8805129921259844
20
5.5522311417322836
11
-4.8797637795275586
21
5.5484645669291339
0
LINE
8
BLACK
6
CONTINUOUS
10
-4.8797637795275586
20
5.5484645669291339
11
-4.8797637795275586
21
5.5287795275590552
0
LINE
8
BLACK
6
CONTINUOUS
10
-4.8797637795275586
20
5.5287795275590552
11
-4.8805129921259844
21
5.5250129527559055
0
LINE
8
BLACK
6
CONTINUOUS
10
-4.8805129921259844
20
5.5250129527559055
11
-4.8826465748031493
21
5.5218198031496062
0
LINE
8
BLACK
6
CONTINUOUS
10
-4.8826465748031493
20
5.5218198031496062
11
-4.8858397244094487
21
5.5196862204724404
0
LINE
8
BLACK
6
CONTINUOUS
10
-4.8858397244094487
20
5.5196862204724404
11
-4.8896062992125984
21
5.5189370078740154
0
LINE
8
BLACK
6
CONTINUOUS
10
-4.8896062992125984
20
5.5189370078740154
11
-4.9762204724409447
21
5.5189370078740154
0
LINE
8
BLACK
6
CONTINUOUS
10
-4.9762204724409447
20
5.5189370078740154
11
-4.9799870472440944
21
5.5196862204724404
0
LINE
8
BLACK
6
CONTINUOUS
10
-4.9799870472440944
20
5.5196862204724404
11
-4.9831801968503937
21
5.5218198031496062
0
LINE
8
BLACK
6
CONTINUOUS
10
-4.9831801968503937
20
5.5218198031496062
11
-4.9853137795275586
21
5.5250129527559055
0
LINE
8
BLACK
6
CONTINUOUS
10
-4.9853137795275586
20
5.5250129527559055
11
-4.9860629921259845
21
5.5287795275590552
0
LINE
8
BLACK
6
CONTINUOUS
10
-4.9860629921259845
20
5.5287795275590552
11
-4.9860629921259845
21
5.5484645669291339
0
LINE
8
BLACK
6
CONTINUOUS
10
-4.9860629921259845
20
5.5484645669291339
11
-4.9853137795275586
21
5.5522311417322836
0
LINE
8
BLACK
6
CONTINUOUS
10
-4.9853137795275586
20
5.5522311417322836
11
-4.9831801968503937
21
5.555424291338583
0
LINE
8
BLACK
6
CONTINUOUS
10
-4.9831801968503937
20
5.555424291338583
11
-4.9799870472440944
21
5.5575578740157479
0
LINE
8
BLACK
6
CONTINUOUS
10
-4.9799870472440944
20
5.5575578740157479
11
-4.9762204724409447
21
5.5583070866141728
0
LINE
8
BLACK
6
CONTINUOUS
10
-4.9762204724409447
20
5.5583070866141728
11
-4.8896062992125984
21
5.5583070866141728
0
LINE
8
BLACK
6
CONTINUOUS
10
-4.8896062992125984
20
5.5583070866141728
11
-4.8858397244094487
21
5.5575578740157479
0
LINE
8
BLACK
6
CONTINUOUS
10
-4.0157609842519681
20
5.5575578740157479
11
-4.0125678346456688
21
5.555424291338583
0
LINE
8
BLACK
6
CONTINUOUS
10
-4.0125678346456688
20
5.555424291338583
11
-4.0104342519685039
21
5.5522311417322836
0
LINE
8
BLACK
6
CONTINUOUS
10
-4.0104342519685039
20
5.5522311417322836
11
-4.0096850393700789
21
5.5484645669291339
0
LINE
8
BLACK
6
CONTINUOUS
10
-4.0096850393700789
20
5.5484645669291339
11
-4.0096850393700789
21
5.5287795275590552
0
LINE
8
BLACK
6
CONTINUOUS
10
-4.0096850393700789
20
5.5287795275590552
11
-4.0104342519685039
21
5.5250129527559055
0
LINE
8
BLACK
6
CONTINUOUS
10
-4.0104342519685039
20
5.5250129527559055
11
-4.0125678346456688
21
5.5218198031496062
0
LINE
8
BLACK
6
CONTINUOUS
10
-4.0125678346456688
20
5.5218198031496062
11
-4.0157609842519681
21
5.5196862204724404
0
LINE
8
BLACK
6
CONTINUOUS
10
-4.0157609842519681
20
5.5196862204724404
11
-4.0195275590551178
21
5.5189370078740154
0
LINE
8
BLACK
6
CONTINUOUS
10
-4.0195275590551178
20
5.5189370078740154
11
-4.1061417322834641
21
5.5189370078740154
0
LINE
8
BLACK
6
CONTINUOUS
10
-4.1061417322834641
20
5.5189370078740154
11
-4.1099083070866138
21
5.5196862204724404
0
LINE
8
BLACK
6
CONTINUOUS
10
-4.1099083070866138
20
5.5196862204724404
11
-4.1131014566929132
21
5.5218198031496062
0
LINE
8
BLACK
6
CONTINUOUS
10
-4.1131014566929132
20
5.5218198031496062
11
-4.115235039370079
21
5.5250129527559055
0
LINE
8
BLACK
6
CONTINUOUS
10
-4.115235039370079
20
5.5250129527559055
11
-4.1159842519685039
21
5.5287795275590552
0
LINE
8
BLACK
6
CONTINUOUS
10
-4.1159842519685039
20
5.5287795275590552
11
-4.1159842519685039
21
5.5484645669291339
0
LINE
8
BLACK
6
CONTINUOUS
10
-4.1159842519685039
20
5.5484645669291339
11
-4.115235039370079
21
5.5522311417322836
0
LINE
8
BLACK
6
CONTINUOUS
10
-4.115235039370079
20
5.5522311417322836
11
-4.1131014566929132
21
5.555424291338583
0
LINE
8
BLACK
6
CONTINUOUS
10
-4.1131014566929132
20
5.555424291338583
11
-4.1099083070866138
21
5.5575578740157479
0
LINE
8
BLACK
6
CONTINUOUS
10
-4.1099083070866138
20
5.5575578740157479
11
-4.1061417322834641
21
5.5583070866141728
0
LINE
8
BLACK
6
CONTINUOUS
10
-4.1061417322834641
20
5.5583070866141728
11
-4.0195275590551178
21
5.5583070866141728
0
LINE
8
BLACK
6
CONTINUOUS
10
-4.0195275590551178
20
5.5583070866141728
11
-4.0157609842519681
21
5.5575578740157479
0
LINE
8
BLACK
6
CONTINUOUS
10
-4.536159960629921
20
5.5836722834645665
11
-4.5336054724409447
21
5.5819653937007869
0
LINE
8
BLACK
6
CONTINUOUS
10
-4.5336054724409447
20
5.5819653937007869
11
-4.5318985826771652
21
5.5794109055118106
0
LINE
8
BLACK
6
CONTINUOUS
10
-4.5318985826771652
20
5.5794109055118106
11
-4.5312992125984248
21
5.5763976377952753
0
LINE
8
BLACK
6
CONTINUOUS
10
-4.5312992125984248
20
5.5763976377952753
11
-4.5312992125984248
21
5.5606496062992123
0
LINE
8
BLACK
6
CONTINUOUS
10
-4.5312992125984248
20
5.5606496062992123
11
-4.5318985826771652
21
5.557636338582677
0
LINE
8
BLACK
6
CONTINUOUS
10
-4.5318985826771652
20
5.557636338582677
11
-4.5336054724409447
21
5.5550818503937007
0
LINE
8
BLACK
6
CONTINUOUS
10
-4.5336054724409447
20
5.5550818503937007
11
-4.536159960629921
21
5.5533749606299212
0
LINE
8
BLACK
6
CONTINUOUS
10
-4.536159960629921
20
5.5533749606299212
11
-4.5391732283464563
21
5.5527755905511809
0
LINE
8
BLACK
6
CONTINUOUS
10
-4.5391732283464563
20
5.5527755905511809
11
-4.5608267716535433
21
5.5527755905511809
0
LINE
8
BLACK
6
CONTINUOUS
10
-4.5608267716535433
20
5.5527755905511809
11
-4.5638400393700786
21
5.5533749606299212
0
LINE
8
BLACK
6
CONTINUOUS
10
-4.5638400393700786
20
5.5533749606299212
11
-4.5663945275590549
21
5.5550818503937007
0
LINE
8
BLACK
6
CONTINUOUS
10
-4.5663945275590549
20
5.5550818503937007
11
-4.5681014173228345
21
5.557636338582677
0
LINE
8
BLACK
6
CONTINUOUS
10
-4.5681014173228345
20
5.557636338582677
11
-4.5687007874015748
21
5.5606496062992123
0
LINE
8
BLACK
6
CONTINUOUS
10
-4.5687007874015748
20
5.5606496062992123
11
-4.5687007874015748
21
5.5763976377952753
0
LINE
8
BLACK
6
CONTINUOUS
10
-4.5687007874015748
20
5.5763976377952753
11
-4.5681014173228345
21
5.5794109055118106
0
LINE
8
BLACK
6
CONTINUOUS
10
-4.5681014173228345
20
5.5794109055118106
11
-4.5663945275590549
21
5.5819653937007869
0
LINE
8
BLACK
6
CONTINUOUS
10
-4.5663945275590549
20
5.5819653937007869
11
-4.5638400393700786
21
5.5836722834645665
0
LINE
8
BLACK
6
CONTINUOUS
10
-4.5638400393700786
20
5.5836722834645665
11
-4.5608267716535433
21
5.5842716535433068
0
LINE
8
BLACK
6
CONTINUOUS
10
-4.5608267716535433
20
5.5842716535433068
11
-4.5391732283464563
21
5.5842716535433068
0
LINE
8
BLACK
6
CONTINUOUS
10
-4.5391732283464563
20
5.5842716535433068
11
-4.536159960629921
21
5.5836722834645665
0
LINE
8
BLACK
6
CONTINUOUS
10
-4.6842361023622043
20
5.6108496850393701
11
-4.6823202362204723
21
5.6095695275590547
0
LINE
8
BLACK
6
CONTINUOUS
10
-4.6823202362204723
20
5.6095695275590547
11
-4.6810400787401578
21
5.6076536614173227
0
LINE
8
BLACK
6
CONTINUOUS
10
-4.6810400787401578
20
5.6076536614173227
11
-4.6805905511811021
21
5.6053937007874017
0
LINE
8
BLACK
6
CONTINUOUS
10
-4.6805905511811021
20
5.6053937007874017
11
-4.6805905511811021
21
5.5650393700787397
0
LINE
8
BLACK
6
CONTINUOUS
10
-4.6805905511811021
20
5.5650393700787397
11
-4.6810400787401578
21
5.5627794094488188
0
LINE
8
BLACK
6
CONTINUOUS
10
-4.6810400787401578
20
5.5627794094488188
11
-4.6823202362204723
21
5.5608635433070868
0
LINE
8
BLACK
6
CONTINUOUS
10
-4.6823202362204723
20
5.5608635433070868
11
-4.6842361023622043
21
5.5595833858267714
0
LINE
8
BLACK
6
CONTINUOUS
10
-4.6842361023622043
20
5.5595833858267714
11
-4.6864960629921262
21
5.5591338582677166
0
LINE
8
BLACK
6
CONTINUOUS
10
-4.6864960629921262
20
5.5591338582677166
11
-4.6983070866141734
21
5.5591338582677166
0
LINE
8
BLACK
6
CONTINUOUS
10
-4.6983070866141734
20
5.5591338582677166
11
-4.7005670472440944
21
5.5595833858267714
0
LINE
8
BLACK
6
CONTINUOUS
10
-4.7005670472440944
20
5.5595833858267714
11
-4.7024829133858264
21
5.5608635433070868
0
LINE
8
BLACK
6
CONTINUOUS
10
-4.7024829133858264
20
5.5608635433070868
11
-4.7037630708661418
21
5.5627794094488188
0
LINE
8
BLACK
6
CONTINUOUS
10
-4.7037630708661418
20
5.5627794094488188
11
-4.7042125984251966
21
5.5650393700787397
0
LINE
8
BLACK
6
CONTINUOUS
10
-4.7042125984251966
20
5.5650393700787397
11
-4.7042125984251966
21
5.6053937007874017
0
LINE
8
BLACK
6
CONTINUOUS
10
-4.7042125984251966
20
5.6053937007874017
11
-4.7037630708661418
21
5.6076536614173227
0
LINE
8
BLACK
6
CONTINUOUS
10
-4.7037630708661418
20
5.6076536614173227
11
-4.7024829133858264
21
5.6095695275590547
0
LINE
8
BLACK
6
CONTINUOUS
10
-4.7024829133858264
20
5.6095695275590547
11
-4.7005670472440944
21
5.6108496850393701
0
LINE
8
BLACK
6
CONTINUOUS
10
-4.7005670472440944
20
5.6108496850393701
11
-4.6983070866141734
21
5.6112992125984249
0
LINE
8
BLACK
6
CONTINUOUS
10
-4.6983070866141734
20
5.6112992125984249
11
-4.6864960629921262
21
5.6112992125984249
0
LINE
8
BLACK
6
CONTINUOUS
10
-4.6864960629921262
20
5.6112992125984249
11
-4.6842361023622043
21
5.6108496850393701
0
LINE
8
BLACK
6
CONTINUOUS
10
-4.6468345275590552
20
5.6108496850393701
11
-4.6449186614173223
21
5.6095695275590547
0
LINE
8
BLACK
6
CONTINUOUS
10
-4.6449186614173223
20
5.6095695275590547
11
-4.6436385039370078
21
5.6076536614173227
0
LINE
8
BLACK
6
CONTINUOUS
10
-4.6436385039370078
20
5.6076536614173227
11
-4.643188976377953
21
5.6053937007874017
0
LINE
8
BLACK
6
CONTINUOUS
10
-4.643188976377953
20
5.6053937007874017
11
-4.643188976377953
21
5.5650393700787397
0
LINE
8
BLACK
6
CONTINUOUS
10
-4.643188976377953
20
5.5650393700787397
11
-4.6436385039370078
21
5.5627794094488188
0
LINE
8
BLACK
6
CONTINUOUS
10
-4.6436385039370078
20
5.5627794094488188
11
-4.6449186614173223
21
5.5608635433070868
0
LINE
8
BLACK
6
CONTINUOUS
10
-4.6449186614173223
20
5.5608635433070868
11
-4.6468345275590552
21
5.5595833858267714
0
LINE
8
BLACK
6
CONTINUOUS
10
-4.6468345275590552
20
5.5595833858267714
11
-4.6490944881889762
21
5.5591338582677166
0
LINE
8
BLACK
6
CONTINUOUS
10
-4.6490944881889762
20
5.5591338582677166
11
-4.6609055118110234
21
5.5591338582677166
0
LINE
8
BLACK
6
CONTINUOUS
10
-4.6609055118110234
20
5.5591338582677166
11
-4.6631654724409444
21
5.5595833858267714
0
LINE
8
BLACK
6
CONTINUOUS
10
-4.6631654724409444
20
5.5595833858267714
11
-4.6650813385826773
21
5.5608635433070868
0
LINE
8
BLACK
6
CONTINUOUS
10
-4.6650813385826773
20
5.5608635433070868
11
-4.6663614960629918
21
5.5627794094488188
0
LINE
8
BLACK
6
CONTINUOUS
10
-4.6663614960629918
20
5.5627794094488188
11
-4.6668110236220475
21
5.5650393700787397
0
LINE
8
BLACK
6
CONTINUOUS
10
-4.6668110236220475
20
5.5650393700787397
11
-4.6668110236220475
21
5.6053937007874017
0
LINE
8
BLACK
6
CONTINUOUS
10
-4.6668110236220475
20
5.6053937007874017
11
-4.6663614960629918
21
5.6076536614173227
0
LINE
8
BLACK
6
CONTINUOUS
10
-4.6663614960629918
20
5.6076536614173227
11
-4.6650813385826773
21
5.6095695275590547
0
LINE
8
BLACK
6
CONTINUOUS
10
-4.6650813385826773
20
5.6095695275590547
11
-4.6631654724409444
21
5.6108496850393701
0
LINE
8
BLACK
6
CONTINUOUS
10
-4.6631654724409444
20
5.6108496850393701
11
-4.6609055118110234
21
5.6112992125984249
0
LINE
8
BLACK
6
CONTINUOUS
10
-4.6609055118110234
20
5.6112992125984249
11
-4.6490944881889762
21
5.6112992125984249
0
LINE
8
BLACK
6
CONTINUOUS
10
-4.6490944881889762
20
5.6112992125984249
11
-4.6468345275590552
21
5.6108496850393701
0
LINE
8
BLACK
6
CONTINUOUS
10
-4.6094329527559053
20
5.6108496850393701
11
-4.6075170866141733
21
5.6095695275590547
0
LINE
8
BLACK
6
CONTINUOUS
10
-4.6075170866141733
20
5.6095695275590547
11
-4.6062369291338578
21
5.6076536614173227
0
LINE
8
BLACK
6
CONTINUOUS
10
-4.6062369291338578
20
5.6076536614173227
11
-4.605787401574803
21
5.6053937007874017
0
LINE
8
BLACK
6
CONTINUOUS
10
-4.605787401574803
20
5.6053937007874017
11
-4.605787401574803
21
5.5650393700787397
0
LINE
8
BLACK
6
CONTINUOUS
10
-4.605787401574803
20
5.5650393700787397
11
-4.6062369291338578
21
5.5627794094488188
0
LINE
8
BLACK
6
CONTINUOUS
10
-4.6062369291338578
20
5.5627794094488188
11
-4.6075170866141733
21
5.5608635433070868
0
LINE
8
BLACK
6
CONTINUOUS
10
-4.6075170866141733
20
5.5608635433070868
11
-4.6094329527559053
21
5.5595833858267714
0
LINE
8
BLACK
6
CONTINUOUS
10
-4.6094329527559053
20
5.5595833858267714
11
-4.6116929133858271
21
5.5591338582677166
0
LINE
8
BLACK
6
CONTINUOUS
10
-4.6116929133858271
20
5.5591338582677166
11
-4.6235039370078743
21
5.5591338582677166
0
LINE
8
BLACK
6
CONTINUOUS
10
-4.6235039370078743
20
5.5591338582677166
11
-4.6257638976377953
21
5.5595833858267714
0
LINE
8
BLACK
6
CONTINUOUS
10
-4.6257638976377953
20
5.5595833858267714
11
-4.6276797637795273
21
5.5608635433070868
0
LINE
8
BLACK
6
CONTINUOUS
10
-4.6276797637795273
20
5.5608635433070868
11
-4.6289599212598427
21
5.5627794094488188
0
LINE
8
BLACK
6
CONTINUOUS
10
-4.6289599212598427
20
5.5627794094488188
11
-4.6294094488188975
21
5.5650393700787397
0
LINE
8
BLACK
6
CONTINUOUS
10
-4.6294094488188975
20
5.5650393700787397
11
-4.6294094488188975
21
5.6053937007874017
0
LINE
8
BLACK
6
CONTINUOUS
10
-4.6294094488188975
20
5.6053937007874017
11
-4.6289599212598427
21
5.6076536614173227
0
LINE
8
BLACK
6
CONTINUOUS
10
-4.6289599212598427
20
5.6076536614173227
11
-4.6276797637795273
21
5.6095695275590547
0
LINE
8
BLACK
6
CONTINUOUS
10
-4.6276797637795273
20
5.6095695275590547
11
-4.6257638976377953
21
5.6108496850393701
0
LINE
8
BLACK
6
CONTINUOUS
10
-4.6257638976377953
20
5.6108496850393701
11
-4.6235039370078743
21
5.6112992125984249
0
LINE
8
BLACK
6
CONTINUOUS
10
-4.6235039370078743
20
5.6112992125984249
11
-4.6116929133858271
21
5.6112992125984249
0
LINE
8
BLACK
6
CONTINUOUS
10
-4.6116929133858271
20
5.6112992125984249
11
-4.6094329527559053
21
5.6108496850393701
0
LINE
8
BLACK
6
CONTINUOUS
10
-4.4395275590551178
20
5.5701181102362201
11
-4.457244094488189
21
5.5701181102362201
0
LINE
8
BLACK
6
CONTINUOUS
10
-4.457244094488189
20
5.5701181102362201
11
-4.457244094488189
21
5.6272047244094487
0
LINE
8
BLACK
6
CONTINUOUS
10
-4.457244094488189
20
5.6272047244094487
11
-4.4395275590551178
21
5.6272047244094487
0
LINE
8
BLACK
6
CONTINUOUS
10
-4.4395275590551178
20
5.6272047244094487
11
-4.4395275590551178
21
5.5701181102362201
0
LINE
8
BLACK
6
CONTINUOUS
10
-4.4139370078740159
20
5.5701181102362201
11
-4.4316535433070863
21
5.5701181102362201
0
LINE
8
BLACK
6
CONTINUOUS
10
-4.4316535433070863
20
5.5701181102362201
11
-4.4316535433070863
21
5.6272047244094487
0
LINE
8
BLACK
6
CONTINUOUS
10
-4.4316535433070863
20
5.6272047244094487
11
-4.4139370078740159
21
5.6272047244094487
0
LINE
8
BLACK
6
CONTINUOUS
10
-4.4139370078740159
20
5.6272047244094487
11
-4.4139370078740159
21
5.5701181102362201
0
LINE
8
BLACK
6
CONTINUOUS
10
-4.3883464566929131
20
5.5701181102362201
11
-4.4060629921259844
21
5.5701181102362201
0
LINE
8
BLACK
6
CONTINUOUS
10
-4.4060629921259844
20
5.5701181102362201
11
-4.4060629921259844
21
5.6272047244094487
0
LINE
8
BLACK
6
CONTINUOUS
10
-4.4060629921259844
20
5.6272047244094487
11
-4.3883464566929131
21
5.6272047244094487
0
LINE
8
BLACK
6
CONTINUOUS
10
-4.3883464566929131
20
5.6272047244094487
11
-4.3883464566929131
21
5.5701181102362201
0
LINE
8
BLACK
6
CONTINUOUS
10
-4.3627559055118112
20
5.5701181102362201
11
-4.3804724409448816
21
5.5701181102362201
0
LINE
8
BLACK
6
CONTINUOUS
10
-4.3804724409448816
20
5.5701181102362201
11
-4.3804724409448816
21
5.6272047244094487
0
LINE
8
BLACK
6
CONTINUOUS
10
-4.3804724409448816
20
5.6272047244094487
11
-4.3627559055118112
21
5.6272047244094487
0
LINE
8
BLACK
6
CONTINUOUS
10
-4.3627559055118112
20
5.6272047244094487
11
-4.3627559055118112
21
5.5701181102362201
0
LINE
8
BLACK
6
CONTINUOUS
10
-4.7771101181102358
20
5.6228181889763782
11
-4.7751942519685038
21
5.6215380314960628
0
LINE
8
BLACK
6
CONTINUOUS
10
-4.7751942519685038
20
5.6215380314960628
11
-4.7739140944881893
21
5.6196221653543308
0
LINE
8
BLACK
6
CONTINUOUS
10
-4.7739140944881893
20
5.6196221653543308
11
-4.7734645669291336
21
5.6173622047244089
0
LINE
8
BLACK
6
CONTINUOUS
10
-4.7734645669291336
20
5.6173622047244089
11
-4.7734645669291336
21
5.6055511811023617
0
LINE
8
BLACK
6
CONTINUOUS
10
-4.7734645669291336
20
5.6055511811023617
11
-4.7739140944881893
21
5.6032912204724408
0
LINE
8
BLACK
6
CONTINUOUS
10
-4.7739140944881893
20
5.6032912204724408
11
-4.7751942519685038
21
5.6013753543307088
0
LINE
8
BLACK
6
CONTINUOUS
10
-4.7751942519685038
20
5.6013753543307088
11
-4.7771101181102358
21
5.6000951968503934
0
LINE
8
BLACK
6
CONTINUOUS
10
-4.7771101181102358
20
5.6000951968503934
11
-4.7793700787401576
21
5.5996456692913386
0
LINE
8
BLACK
6
CONTINUOUS
10
-4.7793700787401576
20
5.5996456692913386
11
-4.834488188976378
21
5.5996456692913386
0
LINE
8
BLACK
6
CONTINUOUS
10
-4.834488188976378
20
5.5996456692913386
11
-4.836748149606299
21
5.6000951968503934
0
LINE
8
BLACK
6
CONTINUOUS
10
-4.836748149606299
20
5.6000951968503934
11
-4.838664015748031
21
5.6013753543307088
0
LINE
8
BLACK
6
CONTINUOUS
10
-4.838664015748031
20
5.6013753543307088
11
-4.8399441732283464
21
5.6032912204724408
0
LINE
8
BLACK
6
CONTINUOUS
10
-4.8399441732283464
20
5.6032912204724408
11
-4.8403937007874012
21
5.6055511811023617
0
LINE
8
BLACK
6
CONTINUOUS
10
-4.8403937007874012
20
5.6055511811023617
11
-4.8403937007874012
21
5.6173622047244089
0
LINE
8
BLACK
6
CONTINUOUS
10
-4.8403937007874012
20
5.6173622047244089
11
-4.8399441732283464
21
5.6196221653543308
0
LINE
8
BLACK
6
CONTINUOUS
10
-4.8399441732283464
20
5.6196221653543308
11
-4.838664015748031
21
5.6215380314960628
0
LINE
8
BLACK
6
CONTINUOUS
10
-4.838664015748031
20
5.6215380314960628
11
-4.836748149606299
21
5.6228181889763782
0
LINE
8
BLACK
6
CONTINUOUS
10
-4.836748149606299
20
5.6228181889763782
11
-4.834488188976378
21
5.623267716535433
0
LINE
8
BLACK
6
CONTINUOUS
10
-4.834488188976378
20
5.623267716535433
11
-4.7793700787401576
21
5.623267716535433
0
LINE
8
BLACK
6
CONTINUOUS
10
-4.7793700787401576
20
5.623267716535433
11
-4.7771101181102358
21
5.6228181889763782
0
LINE
8
BLACK
6
CONTINUOUS
10
-4.1589998818897636
20
5.6228181889763782
11
-4.1570840157480315
21
5.6215380314960628
0
LINE
8
BLACK
6
CONTINUOUS
10
-4.1570840157480315
20
5.6215380314960628
11
-4.1558038582677161
21
5.6196221653543308
0
LINE
8
BLACK
6
CONTINUOUS
10
-4.1558038582677161
20
5.6196221653543308
11
-4.1553543307086613
21
5.6173622047244089
0
LINE
8
BLACK
6
CONTINUOUS
10
-4.1553543307086613
20
5.6173622047244089
11
-4.1553543307086613
21
5.6055511811023617
0
LINE
8
BLACK
6
CONTINUOUS
10
-4.1553543307086613
20
5.6055511811023617
11
-4.1558038582677161
21
5.6032912204724408
0
LINE
8
BLACK
6
CONTINUOUS
10
-4.1558038582677161
20
5.6032912204724408
11
-4.1570840157480315
21
5.6013753543307088
0
LINE
8
BLACK
6
CONTINUOUS
10
-4.1570840157480315
20
5.6013753543307088
11
-4.1589998818897636
21
5.6000951968503934
0
LINE
8
BLACK
6
CONTINUOUS
10
-4.1589998818897636
20
5.6000951968503934
11
-4.1612598425196845
21
5.5996456692913386
0
LINE
8
BLACK
6
CONTINUOUS
10
-4.1612598425196845
20
5.5996456692913386
11
-4.2163779527559058
21
5.5996456692913386
0
LINE
8
BLACK
6
CONTINUOUS
10
-4.2163779527559058
20
5.5996456692913386
11
-4.2186379133858267
21
5.6000951968503934
0
LINE
8
BLACK
6
CONTINUOUS
10
-4.2186379133858267
20
5.6000951968503934
11
-4.2205537795275587
21
5.6013753543307088
0
LINE
8
BLACK
6
CONTINUOUS
10
-4.2205537795275587
20
5.6013753543307088
11
-4.2218339370078741
21
5.6032912204724408
0
LINE
8
BLACK
6
CONTINUOUS
10
-4.2218339370078741
20
5.6032912204724408
11
-4.2222834645669289
21
5.6055511811023617
0
LINE
8
BLACK
6
CONTINUOUS
10
-4.2222834645669289
20
5.6055511811023617
11
-4.2222834645669289
21
5.6173622047244089
0
LINE
8
BLACK
6
CONTINUOUS
10
-4.2222834645669289
20
5.6173622047244089
11
-4.2218339370078741
21
5.6196221653543308
0
LINE
8
BLACK
6
CONTINUOUS
10
-4.2218339370078741
20
5.6196221653543308
11
-4.2205537795275587
21
5.6215380314960628
0
LINE
8
BLACK
6
CONTINUOUS
10
-4.2205537795275587
20
5.6215380314960628
11
-4.2186379133858267
21
5.6228181889763782
0
LINE
8
BLACK
6
CONTINUOUS
10
-4.2186379133858267
20
5.6228181889763782
11
-4.2163779527559058
21
5.623267716535433
0
LINE
8
BLACK
6
CONTINUOUS
10
-4.2163779527559058
20
5.623267716535433
11
-4.1612598425196845
21
5.623267716535433
0
LINE
8
BLACK
6
CONTINUOUS
10
-4.1612598425196845
20
5.623267716535433
11
-4.1589998818897636
21
5.6228181889763782
0
LINE
8
BLACK
6
CONTINUOUS
10
-4.536159960629921
20
5.6486329133858266
11
-4.5336054724409447
21
5.6469260236220471
0
LINE
8
BLACK
6
CONTINUOUS
10
-4.5336054724409447
20
5.6469260236220471
11
-4.5318985826771652
21
5.6443715354330708
0
LINE
8
BLACK
6
CONTINUOUS
10
-4.5318985826771652
20
5.6443715354330708
11
-4.5312992125984248
21
5.6413582677165355
0
LINE
8
BLACK
6
CONTINUOUS
10
-4.5312992125984248
20
5.6413582677165355
11
-4.5312992125984248
21
5.6256102362204725
0
LINE
8
BLACK
6
CONTINUOUS
10
-4.5312992125984248
20
5.6256102362204725
11
-4.5318985826771652
21
5.6225969685039372
0
LINE
8
BLACK
6
CONTINUOUS
10
-4.5318985826771652
20
5.6225969685039372
11
-4.5336054724409447
21
5.6200424803149609
0
LINE
8
BLACK
6
CONTINUOUS
10
-4.5336054724409447
20
5.6200424803149609
11
-4.536159960629921
21
5.6183355905511814
0
LINE
8
BLACK
6
CONTINUOUS
10
-4.536159960629921
20
5.6183355905511814
11
-4.5391732283464563
21
5.617736220472441
0
LINE
8
BLACK
6
CONTINUOUS
10
-4.5391732283464563
20
5.617736220472441
11
-4.5608267716535433
21
5.617736220472441
0
LINE
8
BLACK
6
CONTINUOUS
10
-4.5608267716535433
20
5.617736220472441
11
-4.5638400393700786
21
5.6183355905511814
0
LINE
8
BLACK
6
CONTINUOUS
10
-4.5638400393700786
20
5.6183355905511814
11
-4.5663945275590549
21
5.6200424803149609
0
LINE
8
BLACK
6
CONTINUOUS
10
-4.5663945275590549
20
5.6200424803149609
11
-4.5681014173228345
21
5.6225969685039372
0
LINE
8
BLACK
6
CONTINUOUS
10
-4.5681014173228345
20
5.6225969685039372
11
-4.5687007874015748
21
5.6256102362204725
0
LINE
8
BLACK
6
CONTINUOUS
10
-4.5687007874015748
20
5.6256102362204725
11
-4.5687007874015748
21
5.6413582677165355
0
LINE
8
BLACK
6
CONTINUOUS
10
-4.5687007874015748
20
5.6413582677165355
11
-4.5681014173228345
21
5.6443715354330708
0
LINE
8
BLACK
6
CONTINUOUS
10
-4.5681014173228345
20
5.6443715354330708
11
-4.5663945275590549
21
5.6469260236220471
0
LINE
8
BLACK
6
CONTINUOUS
10
-4.5663945275590549
20
5.6469260236220471
11
-4.5638400393700786
21
5.6486329133858266
0
LINE
8
BLACK
6
CONTINUOUS
10
-4.5638400393700786
20
5.6486329133858266
11
-4.5608267716535433
21
5.649232283464567
0
LINE
8
BLACK
6
CONTINUOUS
10
-4.5608267716535433
20
5.649232283464567
11
-4.5391732283464563
21
5.649232283464567
0
LINE
8
BLACK
6
CONTINUOUS
10
-4.5391732283464563
20
5.649232283464567
11
-4.536159960629921
21
5.6486329133858266
0
LINE
8
BLACK
6
CONTINUOUS
10
-4.6842361023622043
20
5.7004166141732284
11
-4.6823202362204723
21
5.699136456692913
0
LINE
8
BLACK
6
CONTINUOUS
10
-4.6823202362204723
20
5.699136456692913
11
-4.6810400787401578
21
5.697220590551181
0
LINE
8
BLACK
6
CONTINUOUS
10
-4.6810400787401578
20
5.697220590551181
11
-4.6805905511811021
21
5.6949606299212601
0
LINE
8
BLACK
6
CONTINUOUS
10
-4.6805905511811021
20
5.6949606299212601
11
-4.6805905511811021
21
5.6546062992125981
0
LINE
8
BLACK
6
CONTINUOUS
10
-4.6805905511811021
20
5.6546062992125981
11
-4.6810400787401578
21
5.6523463385826771
0
LINE
8
BLACK
6
CONTINUOUS
10
-4.6810400787401578
20
5.6523463385826771
11
-4.6823202362204723
21
5.6504304724409451
0
LINE
8
BLACK
6
CONTINUOUS
10
-4.6823202362204723
20
5.6504304724409451
11
-4.6842361023622043
21
5.6491503149606297
0
LINE
8
BLACK
6
CONTINUOUS
10
-4.6842361023622043
20
5.6491503149606297
11
-4.6864960629921262
21
5.6487007874015749
0
LINE
8
BLACK
6
CONTINUOUS
10
-4.6864960629921262
20
5.6487007874015749
11
-4.6983070866141734
21
5.6487007874015749
0
LINE
8
BLACK
6
CONTINUOUS
10
-4.6983070866141734
20
5.6487007874015749
11
-4.7005670472440944
21
5.6491503149606297
0
LINE
8
BLACK
6
CONTINUOUS
10
-4.7005670472440944
20
5.6491503149606297
11
-4.7024829133858264
21
5.6504304724409451
0
LINE
8
BLACK
6
CONTINUOUS
10
-4.7024829133858264
20
5.6504304724409451
11
-4.7037630708661418
21
5.6523463385826771
0
LINE
8
BLACK
6
CONTINUOUS
10
-4.7037630708661418
20
5.6523463385826771
11
-4.7042125984251966
21
5.6546062992125981
0
LINE
8
BLACK
6
CONTINUOUS
10
-4.7042125984251966
20
5.6546062992125981
11
-4.7042125984251966
21
5.6949606299212601
0
LINE
8
BLACK
6
CONTINUOUS
10
-4.7042125984251966
20
5.6949606299212601
11
-4.7037630708661418
21
5.697220590551181
0
LINE
8
BLACK
6
CONTINUOUS
10
-4.7037630708661418
20
5.697220590551181
11
-4.7024829133858264
21
5.699136456692913
0
LINE
8
BLACK
6
CONTINUOUS
10
-4.7024829133858264
20
5.699136456692913
11
-4.7005670472440944
21
5.7004166141732284
0
LINE
8
BLACK
6
CONTINUOUS
10
-4.7005670472440944
20
5.7004166141732284
11
-4.6983070866141734
21
5.7008661417322832
0
LINE
8
BLACK
6
CONTINUOUS
10
-4.6983070866141734
20
5.7008661417322832
11
-4.6864960629921262
21
5.7008661417322832
0
LINE
8
BLACK
6
CONTINUOUS
10
-4.6864960629921262
20
5.7008661417322832
11
-4.6842361023622043
21
5.7004166141732284
0
LINE
8
BLACK
6
CONTINUOUS
10
-4.6094329527559053
20
5.7004166141732284
11
-4.6075170866141733
21
5.699136456692913
0
LINE
8
BLACK
6
CONTINUOUS
10
-4.6075170866141733
20
5.699136456692913
11
-4.6062369291338578
21
5.697220590551181
0
LINE
8
BLACK
6
CONTINUOUS
10
-4.6062369291338578
20
5.697220590551181
11
-4.605787401574803
21
5.6949606299212601
0
LINE
8
BLACK
6
CONTINUOUS
10
-4.605787401574803
20
5.6949606299212601
11
-4.605787401574803
21
5.6546062992125981
0
LINE
8
BLACK
6
CONTINUOUS
10
-4.605787401574803
20
5.6546062992125981
11
-4.6062369291338578
21
5.6523463385826771
0
LINE
8
BLACK
6
CONTINUOUS
10
-4.6062369291338578
20
5.6523463385826771
11
-4.6075170866141733
21
5.6504304724409451
0
LINE
8
BLACK
6
CONTINUOUS
10
-4.6075170866141733
20
5.6504304724409451
11
-4.6094329527559053
21
5.6491503149606297
0
LINE
8
BLACK
6
CONTINUOUS
10
-4.6094329527559053
20
5.6491503149606297
11
-4.6116929133858271
21
5.6487007874015749
0
LINE
8
BLACK
6
CONTINUOUS
10
-4.6116929133858271
20
5.6487007874015749
11
-4.6235039370078743
21
5.6487007874015749
0
LINE
8
BLACK
6
CONTINUOUS
10
-4.6235039370078743
20
5.6487007874015749
11
-4.6257638976377953
21
5.6491503149606297
0
LINE
8
BLACK
6
CONTINUOUS
10
-4.6257638976377953
20
5.6491503149606297
11
-4.6276797637795273
21
5.6504304724409451
0
LINE
8
BLACK
6
CONTINUOUS
10
-4.6276797637795273
20
5.6504304724409451
11
-4.6289599212598427
21
5.6523463385826771
0
LINE
8
BLACK
6
CONTINUOUS
10
-4.6289599212598427
20
5.6523463385826771
11
-4.6294094488188975
21
5.6546062992125981
0
LINE
8
BLACK
6
CONTINUOUS
10
-4.6294094488188975
20
5.6546062992125981
11
-4.6294094488188975
21
5.6949606299212601
0
LINE
8
BLACK
6
CONTINUOUS
10
-4.6294094488188975
20
5.6949606299212601
11
-4.6289599212598427
21
5.697220590551181
0
LINE
8
BLACK
6
CONTINUOUS
10
-4.6289599212598427
20
5.697220590551181
11
-4.6276797637795273
21
5.699136456692913
0
LINE
8
BLACK
6
CONTINUOUS
10
-4.6276797637795273
20
5.699136456692913
11
-4.6257638976377953
21
5.7004166141732284
0
LINE
8
BLACK
6
CONTINUOUS
10
-4.6257638976377953
20
5.7004166141732284
11
-4.6235039370078743
21
5.7008661417322832
0
LINE
8
BLACK
6
CONTINUOUS
10
-4.6235039370078743
20
5.7008661417322832
11
-4.6116929133858271
21
5.7008661417322832
0
LINE
8
BLACK
6
CONTINUOUS
10
-4.6116929133858271
20
5.7008661417322832
11
-4.6094329527559053
21
5.7004166141732284
0
LINE
8
BLACK
6
CONTINUOUS
10
-4.7771101181102358
20
5.6720307874015745
11
-4.7751942519685038
21
5.67075062992126
0
LINE
8
BLACK
6
CONTINUOUS
10
-4.7751942519685038
20
5.67075062992126
11
-4.7739140944881893
21
5.6688347637795271
0
LINE
8
BLACK
6
CONTINUOUS
10
-4.7739140944881893
20
5.6688347637795271
11
-4.7734645669291336
21
5.6665748031496062
0
LINE
8
BLACK
6
CONTINUOUS
10
-4.7734645669291336
20
5.6665748031496062
11
-4.7734645669291336
21
5.6547637795275589
0
LINE
8
BLACK
6
CONTINUOUS
10
-4.7734645669291336
20
5.6547637795275589
11
-4.7739140944881893
21
5.652503818897638
0
LINE
8
BLACK
6
CONTINUOUS
10
-4.7739140944881893
20
5.652503818897638
11
-4.7751942519685038
21
5.6505879527559051
0
LINE
8
BLACK
6
CONTINUOUS
10
-4.7751942519685038
20
5.6505879527559051
11
-4.7771101181102358
21
5.6493077952755906
0
LINE
8
BLACK
6
CONTINUOUS
10
-4.7771101181102358
20
5.6493077952755906
11
-4.7793700787401576
21
5.6488582677165349
0
LINE
8
BLACK
6
CONTINUOUS
10
-4.7793700787401576
20
5.6488582677165349
11
-4.834488188976378
21
5.6488582677165349
0
LINE
8
BLACK
6
CONTINUOUS
10
-4.834488188976378
20
5.6488582677165349
11
-4.836748149606299
21
5.6493077952755906
0
LINE
8
BLACK
6
CONTINUOUS
10
-4.836748149606299
20
5.6493077952755906
11
-4.838664015748031
21
5.6505879527559051
0
LINE
8
BLACK
6
CONTINUOUS
10
-4.838664015748031
20
5.6505879527559051
11
-4.8399441732283464
21
5.652503818897638
0
LINE
8
BLACK
6
CONTINUOUS
10
-4.8399441732283464
20
5.652503818897638
11
-4.8403937007874012
21
5.6547637795275589
0
LINE
8
BLACK
6
CONTINUOUS
10
-4.8403937007874012
20
5.6547637795275589
11
-4.8403937007874012
21
5.6665748031496062
0
LINE
8
BLACK
6
CONTINUOUS
10
-4.8403937007874012
20
5.6665748031496062
11
-4.8399441732283464
21
5.6688347637795271
0
LINE
8
BLACK
6
CONTINUOUS
10
-4.8399441732283464
20
5.6688347637795271
11
-4.838664015748031
21
5.67075062992126
0
LINE
8
BLACK
6
CONTINUOUS
10
-4.838664015748031
20
5.67075062992126
11
-4.836748149606299
21
5.6720307874015745
0
LINE
8
BLACK
6
CONTINUOUS
10
-4.836748149606299
20
5.6720307874015745
11
-4.834488188976378
21
5.6724803149606302
0
LINE
8
BLACK
6
CONTINUOUS
10
-4.834488188976378
20
5.6724803149606302
11
-4.7793700787401576
21
5.6724803149606302
0
LINE
8
BLACK
6
CONTINUOUS
10
-4.7793700787401576
20
5.6724803149606302
11
-4.7771101181102358
21
5.6720307874015745
0
LINE
8
BLACK
6
CONTINUOUS
10
-4.1589998818897636
20
5.6720307874015745
11
-4.1570840157480315
21
5.67075062992126
0
LINE
8
BLACK
6
CONTINUOUS
10
-4.1570840157480315
20
5.67075062992126
11
-4.1558038582677161
21
5.6688347637795271
0
LINE
8
BLACK
6
CONTINUOUS
10
-4.1558038582677161
20
5.6688347637795271
11
-4.1553543307086613
21
5.6665748031496062
0
LINE
8
BLACK
6
CONTINUOUS
10
-4.1553543307086613
20
5.6665748031496062
11
-4.1553543307086613
21
5.6547637795275589
0
LINE
8
BLACK
6
CONTINUOUS
10
-4.1553543307086613
20
5.6547637795275589
11
-4.1558038582677161
21
5.652503818897638
0
LINE
8
BLACK
6
CONTINUOUS
10
-4.1558038582677161
20
5.652503818897638
11
-4.1570840157480315
21
5.6505879527559051
0
LINE
8
BLACK
6
CONTINUOUS
10
-4.1570840157480315
20
5.6505879527559051
11
-4.1589998818897636
21
5.6493077952755906
0
LINE
8
BLACK
6
CONTINUOUS
10
-4.1589998818897636
20
5.6493077952755906
11
-4.1612598425196845
21
5.6488582677165349
0
LINE
8
BLACK
6
CONTINUOUS
10
-4.1612598425196845
20
5.6488582677165349
11
-4.2163779527559058
21
5.6488582677165349
0
LINE
8
BLACK
6
CONTINUOUS
10
-4.2163779527559058
20
5.6488582677165349
11
-4.2186379133858267
21
5.6493077952755906
0
LINE
8
BLACK
6
CONTINUOUS
10
-4.2186379133858267
20
5.6493077952755906
11
-4.2205537795275587
21
5.6505879527559051
0
LINE
8
BLACK
6
CONTINUOUS
10
-4.2205537795275587
20
5.6505879527559051
11
-4.2218339370078741
21
5.652503818897638
0
LINE
8
BLACK
6
CONTINUOUS
10
-4.2218339370078741
20
5.652503818897638
11
-4.2222834645669289
21
5.6547637795275589
0
LINE
8
BLACK
6
CONTINUOUS
10
-4.2222834645669289
20
5.6547637795275589
11
-4.2222834645669289
21
5.6665748031496062
0
LINE
8
BLACK
6
CONTINUOUS
10
-4.2222834645669289
20
5.6665748031496062
11
-4.2218339370078741
21
5.6688347637795271
0
LINE
8
BLACK
6
CONTINUOUS
10
-4.2218339370078741
20
5.6688347637795271
11
-4.2205537795275587
21
5.67075062992126
0
LINE
8
BLACK
6
CONTINUOUS
10
-4.2205537795275587
20
5.67075062992126
11
-4.2186379133858267
21
5.6720307874015745
0
LINE
8
BLACK
6
CONTINUOUS
10
-4.2186379133858267
20
5.6720307874015745
11
-4.2163779527559058
21
5.6724803149606302
0
LINE
8
BLACK
6
CONTINUOUS
10
-4.2163779527559058
20
5.6724803149606302
11
-4.1612598425196845
21
5.6724803149606302
0
LINE
8
BLACK
6
CONTINUOUS
10
-4.1612598425196845
20
5.6724803149606302
11
-4.1589998818897636
21
5.6720307874015745
0
LINE
8
BLACK
6
CONTINUOUS
10
-4.7771101181102358
20
5.7212433858267717
11
-4.7751942519685038
21
5.7199632283464563
0
LINE
8
BLACK
6
CONTINUOUS
10
-4.7751942519685038
20
5.7199632283464563
11
-4.7739140944881893
21
5.7180473622047243
0
LINE
8
BLACK
6
CONTINUOUS
10
-4.7739140944881893
20
5.7180473622047243
11
-4.7734645669291336
21
5.7157874015748034
0
LINE
8
BLACK
6
CONTINUOUS
10
-4.7734645669291336
20
5.7157874015748034
11
-4.7734645669291336
21
5.7039763779527561
0
LINE
8
BLACK
6
CONTINUOUS
10
-4.7734645669291336
20
5.7039763779527561
11
-4.7739140944881893
21
5.7017164173228343
0
LINE
8
BLACK
6
CONTINUOUS
10
-4.7739140944881893
20
5.7017164173228343
11
-4.7751942519685038
21
5.6998005511811023
0
LINE
8
BLACK
6
CONTINUOUS
10
-4.7751942519685038
20
5.6998005511811023
11
-4.7771101181102358
21
5.6985203937007869
0
LINE
8
BLACK
6
CONTINUOUS
10
-4.7771101181102358
20
5.6985203937007869
11
-4.7793700787401576
21
5.6980708661417321
0
LINE
8
BLACK
6
CONTINUOUS
10
-4.7793700787401576
20
5.6980708661417321
11
-4.834488188976378
21
5.6980708661417321
0
LINE
8
BLACK
6
CONTINUOUS
10
-4.834488188976378
20
5.6980708661417321
11
-4.836748149606299
21
5.6985203937007869
0
LINE
8
BLACK
6
CONTINUOUS
10
-4.836748149606299
20
5.6985203937007869
11
-4.838664015748031
21
5.6998005511811023
0
LINE
8
BLACK
6
CONTINUOUS
10
-4.838664015748031
20
5.6998005511811023
11
-4.8399441732283464
21
5.7017164173228343
0
LINE
8
BLACK
6
CONTINUOUS
10
-4.8399441732283464
20
5.7017164173228343
11
-4.8403937007874012
21
5.7039763779527561
0
LINE
8
BLACK
6
CONTINUOUS
10
-4.8403937007874012
20
5.7039763779527561
11
-4.8403937007874012
21
5.7157874015748034
0
LINE
8
BLACK
6
CONTINUOUS
10
-4.8403937007874012
20
5.7157874015748034
11
-4.8399441732283464
21
5.7180473622047243
0
LINE
8
BLACK
6
CONTINUOUS
10
-4.8399441732283464
20
5.7180473622047243
11
-4.838664015748031
21
5.7199632283464563
0
LINE
8
BLACK
6
CONTINUOUS
10
-4.838664015748031
20
5.7199632283464563
11
-4.836748149606299
21
5.7212433858267717
0
LINE
8
BLACK
6
CONTINUOUS
10
-4.836748149606299
20
5.7212433858267717
11
-4.834488188976378
21
5.7216929133858265
0
LINE
8
BLACK
6
CONTINUOUS
10
-4.834488188976378
20
5.7216929133858265
11
-4.7793700787401576
21
5.7216929133858265
0
LINE
8
BLACK
6
CONTINUOUS
10
-4.7793700787401576
20
5.7216929133858265
11
-4.7771101181102358
21
5.7212433858267717
0
LINE
8
BLACK
6
CONTINUOUS
10
-4.1589998818897636
20
5.7212433858267717
11
-4.1570840157480315
21
5.7199632283464563
0
LINE
8
BLACK
6
CONTINUOUS
10
-4.1570840157480315
20
5.7199632283464563
11
-4.1558038582677161
21
5.7180473622047243
0
LINE
8
BLACK
6
CONTINUOUS
10
-4.1558038582677161
20
5.7180473622047243
11
-4.1553543307086613
21
5.7157874015748034
0
LINE
8
BLACK
6
CONTINUOUS
10
-4.1553543307086613
20
5.7157874015748034
11
-4.1553543307086613
21
5.7039763779527561
0
LINE
8
BLACK
6
CONTINUOUS
10
-4.1553543307086613
20
5.7039763779527561
11
-4.1558038582677161
21
5.7017164173228343
0
LINE
8
BLACK
6
CONTINUOUS
10
-4.1558038582677161
20
5.7017164173228343
11
-4.1570840157480315
21
5.6998005511811023
0
LINE
8
BLACK
6
CONTINUOUS
10
-4.1570840157480315
20
5.6998005511811023
11
-4.1589998818897636
21
5.6985203937007869
0
LINE
8
BLACK
6
CONTINUOUS
10
-4.1589998818897636
20
5.6985203937007869
11
-4.1612598425196845
21
5.6980708661417321
0
LINE
8
BLACK
6
CONTINUOUS
10
-4.1612598425196845
20
5.6980708661417321
11
-4.2163779527559058
21
5.6980708661417321
0
LINE
8
BLACK
6
CONTINUOUS
10
-4.2163779527559058
20
5.6980708661417321
11
-4.2186379133858267
21
5.6985203937007869
0
LINE
8
BLACK
6
CONTINUOUS
10
-4.2186379133858267
20
5.6985203937007869
11
-4.2205537795275587
21
5.6998005511811023
0
LINE
8
BLACK
6
CONTINUOUS
10
-4.2205537795275587
20
5.6998005511811023
11
-4.2218339370078741
21
5.7017164173228343
0
LINE
8
BLACK
6
CONTINUOUS
10
-4.2218339370078741
20
5.7017164173228343
11
-4.2222834645669289
21
5.7039763779527561
0
LINE
8
BLACK
6
CONTINUOUS
10
-4.2222834645669289
20
5.7039763779527561
11
-4.2222834645669289
21
5.7157874015748034
0
LINE
8
BLACK
6
CONTINUOUS
10
-4.2222834645669289
20
5.7157874015748034
11
-4.2218339370078741
21
5.7180473622047243
0
LINE
8
BLACK
6
CONTINUOUS
10
-4.2218339370078741
20
5.7180473622047243
11
-4.2205537795275587
21
5.7199632283464563
0
LINE
8
BLACK
6
CONTINUOUS
10
-4.2205537795275587
20
5.7199632283464563
11
-4.2186379133858267
21
5.7212433858267717
0
LINE
8
BLACK
6
CONTINUOUS
10
-4.2186379133858267
20
5.7212433858267717
11
-4.2163779527559058
21
5.7216929133858265
0
LINE
8
BLACK
6
CONTINUOUS
10
-4.2163779527559058
20
5.7216929133858265
11
-4.1612598425196845
21
5.7216929133858265
0
LINE
8
BLACK
6
CONTINUOUS
10
-4.1612598425196845
20
5.7216929133858265
11
-4.1589998818897636
21
5.7212433858267717
0
LINE
8
BLACK
6
CONTINUOUS
10
-4.2811599606299211
20
5.7426683464566928
11
-4.2786054724409448
21
5.7409614566929132
0
LINE
8
BLACK
6
CONTINUOUS
10
-4.2786054724409448
20
5.7409614566929132
11
-4.2768985826771653
21
5.7384069685039369
0
LINE
8
BLACK
6
CONTINUOUS
10
-4.2768985826771653
20
5.7384069685039369
11
-4.2762992125984249
21
5.7353937007874016
0
LINE
8
BLACK
6
CONTINUOUS
10
-4.2762992125984249
20
5.7353937007874016
11
-4.2762992125984249
21
5.7196456692913387
0
LINE
8
BLACK
6
CONTINUOUS
10
-4.2762992125984249
20
5.7196456692913387
11
-4.2768985826771653
21
5.7166324015748033
0
LINE
8
BLACK
6
CONTINUOUS
10
-4.2768985826771653
20
5.7166324015748033
11
-4.2786054724409448
21
5.714077913385827
0
LINE
8
BLACK
6
CONTINUOUS
10
-4.2786054724409448
20
5.714077913385827
11
-4.2811599606299211
21
5.7123710236220475
0
LINE
8
BLACK
6
CONTINUOUS
10
-4.2811599606299211
20
5.7123710236220475
11
-4.2841732283464564
21
5.7117716535433072
0
LINE
8
BLACK
6
CONTINUOUS
10
-4.2841732283464564
20
5.7117716535433072
11
-4.3058267716535434
21
5.7117716535433072
0
LINE
8
BLACK
6
CONTINUOUS
10
-4.3058267716535434
20
5.7117716535433072
11
-4.3088400393700788
21
5.7123710236220475
0
LINE
8
BLACK
6
CONTINUOUS
10
-4.3088400393700788
20
5.7123710236220475
11
-4.3113945275590551
21
5.714077913385827
0
LINE
8
BLACK
6
CONTINUOUS
10
-4.3113945275590551
20
5.714077913385827
11
-4.3131014173228346
21
5.7166324015748033
0
LINE
8
BLACK
6
CONTINUOUS
10
-4.3131014173228346
20
5.7166324015748033
11
-4.3137007874015749
21
5.7196456692913387
0
LINE
8
BLACK
6
CONTINUOUS
10
-4.3137007874015749
20
5.7196456692913387
11
-4.3137007874015749
21
5.7353937007874016
0
LINE
8
BLACK
6
CONTINUOUS
10
-4.3137007874015749
20
5.7353937007874016
11
-4.3131014173228346
21
5.7384069685039369
0
LINE
8
BLACK
6
CONTINUOUS
10
-4.3131014173228346
20
5.7384069685039369
11
-4.3113945275590551
21
5.7409614566929132
0
LINE
8
BLACK
6
CONTINUOUS
10
-4.3113945275590551
20
5.7409614566929132
11
-4.3088400393700788
21
5.7426683464566928
0
LINE
8
BLACK
6
CONTINUOUS
10
-4.3088400393700788
20
5.7426683464566928
11
-4.3058267716535434
21
5.7432677165354331
0
LINE
8
BLACK
6
CONTINUOUS
10
-4.3058267716535434
20
5.7432677165354331
11
-4.2841732283464564
21
5.7432677165354331
0
LINE
8
BLACK
6
CONTINUOUS
10
-4.2841732283464564
20
5.7432677165354331
11
-4.2811599606299211
21
5.7426683464566928
0
LINE
8
BLACK
6
CONTINUOUS
10
-4.5311599606299211
20
5.7466644094488188
11
-4.5286054724409448
21
5.7449575196850393
0
LINE
8
BLACK
6
CONTINUOUS
10
-4.5286054724409448
20
5.7449575196850393
11
-4.5268985826771653
21
5.742403031496063
0
LINE
8
BLACK
6
CONTINUOUS
10
-4.5268985826771653
20
5.742403031496063
11
-4.5262992125984249
21
5.7393897637795277
0
LINE
8
BLACK
6
CONTINUOUS
10
-4.5262992125984249
20
5.7393897637795277
11
-4.5262992125984249
21
5.7236417322834647
0
LINE
8
BLACK
6
CONTINUOUS
10
-4.5262992125984249
20
5.7236417322834647
11
-4.5268985826771653
21
5.7206284645669294
0
LINE
8
BLACK
6
CONTINUOUS
10
-4.5268985826771653
20
5.7206284645669294
11
-4.5286054724409448
21
5.7180739763779522
0
LINE
8
BLACK
6
CONTINUOUS
10
-4.5286054724409448
20
5.7180739763779522
11
-4.5311599606299211
21
5.7163670866141727
0
LINE
8
BLACK
6
CONTINUOUS
10
-4.5311599606299211
20
5.7163670866141727
11
-4.5341732283464564
21
5.7157677165354333
0
LINE
8
BLACK
6
CONTINUOUS
10
-4.5341732283464564
20
5.7157677165354333
11
-4.5558267716535434
21
5.7157677165354333
0
LINE
8
BLACK
6
CONTINUOUS
10
-4.5558267716535434
20
5.7157677165354333
11
-4.5588400393700788
21
5.7163670866141727
0
LINE
8
BLACK
6
CONTINUOUS
10
-4.5588400393700788
20
5.7163670866141727
11
-4.5613945275590551
21
5.7180739763779522
0
LINE
8
BLACK
6
CONTINUOUS
10
-4.5613945275590551
20
5.7180739763779522
11
-4.5631014173228346
21
5.7206284645669294
0
LINE
8
BLACK
6
CONTINUOUS
10
-4.5631014173228346
20
5.7206284645669294
11
-4.5637007874015749
21
5.7236417322834647
0
LINE
8
BLACK
6
CONTINUOUS
10
-4.5637007874015749
20
5.7236417322834647
11
-4.5637007874015749
21
5.7393897637795277
0
LINE
8
BLACK
6
CONTINUOUS
10
-4.5637007874015749
20
5.7393897637795277
11
-4.5631014173228346
21
5.742403031496063
0
LINE
8
BLACK
6
CONTINUOUS
10
-4.5631014173228346
20
5.742403031496063
11
-4.5613945275590551
21
5.7449575196850393
0
LINE
8
BLACK
6
CONTINUOUS
10
-4.5613945275590551
20
5.7449575196850393
11
-4.5588400393700788
21
5.7466644094488188
0
LINE
8
BLACK
6
CONTINUOUS
10
-4.5588400393700788
20
5.7466644094488188
11
-4.5558267716535434
21
5.7472637795275592
0
LINE
8
BLACK
6
CONTINUOUS
10
-4.5558267716535434
20
5.7472637795275592
11
-4.5341732283464564
21
5.7472637795275592
0
LINE
8
BLACK
6
CONTINUOUS
10
-4.5341732283464564
20
5.7472637795275592
11
-4.5311599606299211
21
5.7466644094488188
0
LINE
8
BLACK
6
CONTINUOUS
10
-4.5925326377952755
20
5.7590342519685036
11
-4.5893394881889762
21
5.7569006692913387
0
LINE
8
BLACK
6
CONTINUOUS
10
-4.5893394881889762
20
5.7569006692913387
11
-4.5872059055118113
21
5.7537075196850394
0
LINE
8
BLACK
6
CONTINUOUS
10
-4.5872059055118113
20
5.7537075196850394
11
-4.5864566929133854
21
5.7499409448818897
0
LINE
8
BLACK
6
CONTINUOUS
10
-4.5864566929133854
20
5.7499409448818897
11
-4.5864566929133854
21
5.730255905511811
0
LINE
8
BLACK
6
CONTINUOUS
10
-4.5864566929133854
20
5.730255905511811
11
-4.5872059055118113
21
5.7264893307086613
0
LINE
8
BLACK
6
CONTINUOUS
10
-4.5872059055118113
20
5.7264893307086613
11
-4.5893394881889762
21
5.7232961811023619
0
LINE
8
BLACK
6
CONTINUOUS
10
-4.5893394881889762
20
5.7232961811023619
11
-4.5925326377952755
21
5.721162598425197
0
LINE
8
BLACK
6
CONTINUOUS
10
-4.5925326377952755
20
5.721162598425197
11
-4.5962992125984252
21
5.7204133858267712
0
LINE
8
BLACK
6
CONTINUOUS
10
-4.5962992125984252
20
5.7204133858267712
11
-4.6337007874015743
21
5.7204133858267712
0
LINE
8
BLACK
6
CONTINUOUS
10
-4.6337007874015743
20
5.7204133858267712
11
-4.637467362204724
21
5.721162598425197
0
LINE
8
BLACK
6
CONTINUOUS
10
-4.637467362204724
20
5.721162598425197
11
-4.6406605118110233
21
5.7232961811023619
0
LINE
8
BLACK
6
CONTINUOUS
10
-4.6406605118110233
20
5.7232961811023619
11
-4.6427940944881891
21
5.7264893307086613
0
LINE
8
BLACK
6
CONTINUOUS
10
-4.6427940944881891
20
5.7264893307086613
11
-4.6435433070866141
21
5.730255905511811
0
LINE
8
BLACK
6
CONTINUOUS
10
-4.6435433070866141
20
5.730255905511811
11
-4.6435433070866141
21
5.7499409448818897
0
LINE
8
BLACK
6
CONTINUOUS
10
-4.6435433070866141
20
5.7499409448818897
11
-4.6427940944881891
21
5.7537075196850394
0
LINE
8
BLACK
6
CONTINUOUS
10
-4.6427940944881891
20
5.7537075196850394
11
-4.6406605118110233
21
5.7569006692913387
0
LINE
8
BLACK
6
CONTINUOUS
10
-4.6406605118110233
20
5.7569006692913387
11
-4.637467362204724
21
5.7590342519685036
0
LINE
8
BLACK
6
CONTINUOUS
10
-4.637467362204724
20
5.7590342519685036
11
-4.6337007874015743
21
5.7597834645669286
0
LINE
8
BLACK
6
CONTINUOUS
10
-4.6337007874015743
20
5.7597834645669286
11
-4.5962992125984252
21
5.7597834645669286
0
LINE
8
BLACK
6
CONTINUOUS
10
-4.5962992125984252
20
5.7597834645669286
11
-4.5925326377952755
21
5.7590342519685036
0
LINE
8
BLACK
6
CONTINUOUS
10
-4.4395275590551178
20
5.7433464566929135
11
-4.457244094488189
21
5.7433464566929135
0
LINE
8
BLACK
6
CONTINUOUS
10
-4.457244094488189
20
5.7433464566929135
11
-4.457244094488189
21
5.8004330708661413
0
LINE
8
BLACK
6
CONTINUOUS
10
-4.457244094488189
20
5.8004330708661413
11
-4.4395275590551178
21
5.8004330708661413
0
LINE
8
BLACK
6
CONTINUOUS
10
-4.4395275590551178
20
5.8004330708661413
11
-4.4395275590551178
21
5.7433464566929135
0
LINE
8
BLACK
6
CONTINUOUS
10
-4.4139370078740159
20
5.7433464566929135
11
-4.4316535433070863
21
5.7433464566929135
0
LINE
8
BLACK
6
CONTINUOUS
10
-4.4316535433070863
20
5.7433464566929135
11
-4.4316535433070863
21
5.8004330708661413
0
LINE
8
BLACK
6
CONTINUOUS
10
-4.4316535433070863
20
5.8004330708661413
11
-4.4139370078740159
21
5.8004330708661413
0
LINE
8
BLACK
6
CONTINUOUS
10
-4.4139370078740159
20
5.8004330708661413
11
-4.4139370078740159
21
5.7433464566929135
0
LINE
8
BLACK
6
CONTINUOUS
10
-4.3883464566929131
20
5.7433464566929135
11
-4.4060629921259844
21
5.7433464566929135
0
LINE
8
BLACK
6
CONTINUOUS
10
-4.4060629921259844
20
5.7433464566929135
11
-4.4060629921259844
21
5.8004330708661413
0
LINE
8
BLACK
6
CONTINUOUS
10
-4.4060629921259844
20
5.8004330708661413
11
-4.3883464566929131
21
5.8004330708661413
0
LINE
8
BLACK
6
CONTINUOUS
10
-4.3883464566929131
20
5.8004330708661413
11
-4.3883464566929131
21
5.7433464566929135
0
LINE
8
BLACK
6
CONTINUOUS
10
-4.3627559055118112
20
5.7433464566929135
11
-4.3804724409448816
21
5.7433464566929135
0
LINE
8
BLACK
6
CONTINUOUS
10
-4.3804724409448816
20
5.7433464566929135
11
-4.3804724409448816
21
5.8004330708661413
0
LINE
8
BLACK
6
CONTINUOUS
10
-4.3804724409448816
20
5.8004330708661413
11
-4.3627559055118112
21
5.8004330708661413
0
LINE
8
BLACK
6
CONTINUOUS
10
-4.3627559055118112
20
5.8004330708661413
11
-4.3627559055118112
21
5.7433464566929135
0
LINE
8
BLACK
6
CONTINUOUS
10
-4.7771101181102358
20
5.770455984251968
11
-4.7751942519685038
21
5.7691758267716535
0
LINE
8
BLACK
6
CONTINUOUS
10
-4.7751942519685038
20
5.7691758267716535
11
-4.7739140944881893
21
5.7672599606299215
0
LINE
8
BLACK
6
CONTINUOUS
10
-4.7739140944881893
20
5.7672599606299215
11
-4.7734645669291336
21
5.7649999999999997
0
LINE
8
BLACK
6
CONTINUOUS
10
-4.7734645669291336
20
5.7649999999999997
11
-4.7734645669291336
21
5.7531889763779525
0
LINE
8
BLACK
6
CONTINUOUS
10
-4.7734645669291336
20
5.7531889763779525
11
-4.7739140944881893
21
5.7509290157480315
0
LINE
8
BLACK
6
CONTINUOUS
10
-4.7739140944881893
20
5.7509290157480315
11
-4.7751942519685038
21
5.7490131496062995
0
LINE
8
BLACK
6
CONTINUOUS
10
-4.7751942519685038
20
5.7490131496062995
11
-4.7771101181102358
21
5.7477329921259841
0
LINE
8
BLACK
6
CONTINUOUS
10
-4.7771101181102358
20
5.7477329921259841
11
-4.7793700787401576
21
5.7472834645669293
0
LINE
8
BLACK
6
CONTINUOUS
10
-4.7793700787401576
20
5.7472834645669293
11
-4.834488188976378
21
5.7472834645669293
0
LINE
8
BLACK
6
CONTINUOUS
10
-4.834488188976378
20
5.7472834645669293
11
-4.836748149606299
21
5.7477329921259841
0
LINE
8
BLACK
6
CONTINUOUS
10
-4.836748149606299
20
5.7477329921259841
11
-4.838664015748031
21
5.7490131496062995
0
LINE
8
BLACK
6
CONTINUOUS
10
-4.838664015748031
20
5.7490131496062995
11
-4.8399441732283464
21
5.7509290157480315
0
LINE
8
BLACK
6
CONTINUOUS
10
-4.8399441732283464
20
5.7509290157480315
11
-4.8403937007874012
21
5.7531889763779525
0
LINE
8
BLACK
6
CONTINUOUS
10
-4.8403937007874012
20
5.7531889763779525
11
-4.8403937007874012
21
5.7649999999999997
0
LINE
8
BLACK
6
CONTINUOUS
10
-4.8403937007874012
20
5.7649999999999997
11
-4.8399441732283464
21
5.7672599606299215
0
LINE
8
BLACK
6
CONTINUOUS
10
-4.8399441732283464
20
5.7672599606299215
11
-4.838664015748031
21
5.7691758267716535
0
LINE
8
BLACK
6
CONTINUOUS
10
-4.838664015748031
20
5.7691758267716535
11
-4.836748149606299
21
5.770455984251968
0
LINE
8
BLACK
6
CONTINUOUS
10
-4.836748149606299
20
5.770455984251968
11
-4.834488188976378
21
5.7709055118110237
0
LINE
8
BLACK
6
CONTINUOUS
10
-4.834488188976378
20
5.7709055118110237
11
-4.7793700787401576
21
5.7709055118110237
0
LINE
8
BLACK
6
CONTINUOUS
10
-4.7793700787401576
20
5.7709055118110237
11
-4.7771101181102358
21
5.770455984251968
0
LINE
8
BLACK
6
CONTINUOUS
10
-4.1589998818897636
20
5.770455984251968
11
-4.1570840157480315
21
5.7691758267716535
0
LINE
8
BLACK
6
CONTINUOUS
10
-4.1570840157480315
20
5.7691758267716535
11
-4.1558038582677161
21
5.7672599606299215
0
LINE
8
BLACK
6
CONTINUOUS
10
-4.1558038582677161
20
5.7672599606299215
11
-4.1553543307086613
21
5.7649999999999997
0
LINE
8
BLACK
6
CONTINUOUS
10
-4.1553543307086613
20
5.7649999999999997
11
-4.1553543307086613
21
5.7531889763779525
0
LINE
8
BLACK
6
CONTINUOUS
10
-4.1553543307086613
20
5.7531889763779525
11
-4.1558038582677161
21
5.7509290157480315
0
LINE
8
BLACK
6
CONTINUOUS
10
-4.1558038582677161
20
5.7509290157480315
11
-4.1570840157480315
21
5.7490131496062995
0
LINE
8
BLACK
6
CONTINUOUS
10
-4.1570840157480315
20
5.7490131496062995
11
-4.1589998818897636
21
5.7477329921259841
0
LINE
8
BLACK
6
CONTINUOUS
10
-4.1589998818897636
20
5.7477329921259841
11
-4.1612598425196845
21
5.7472834645669293
0
LINE
8
BLACK
6
CONTINUOUS
10
-4.1612598425196845
20
5.7472834645669293
11
-4.2163779527559058
21
5.7472834645669293
0
LINE
8
BLACK
6
CONTINUOUS
10
-4.2163779527559058
20
5.7472834645669293
11
-4.2186379133858267
21
5.7477329921259841
0
LINE
8
BLACK
6
CONTINUOUS
10
-4.2186379133858267
20
5.7477329921259841
11
-4.2205537795275587
21
5.7490131496062995
0
LINE
8
BLACK
6
CONTINUOUS
10
-4.2205537795275587
20
5.7490131496062995
11
-4.2218339370078741
21
5.7509290157480315
0
LINE
8
BLACK
6
CONTINUOUS
10
-4.2218339370078741
20
5.7509290157480315
11
-4.2222834645669289
21
5.7531889763779525
0
LINE
8
BLACK
6
CONTINUOUS
10
-4.2222834645669289
20
5.7531889763779525
11
-4.2222834645669289
21
5.7649999999999997
0
LINE
8
BLACK
6
CONTINUOUS
10
-4.2222834645669289
20
5.7649999999999997
11
-4.2218339370078741
21
5.7672599606299215
0
LINE
8
BLACK
6
CONTINUOUS
10
-4.2218339370078741
20
5.7672599606299215
11
-4.2205537795275587
21
5.7691758267716535
0
LINE
8
BLACK
6
CONTINUOUS
10
-4.2205537795275587
20
5.7691758267716535
11
-4.2186379133858267
21
5.770455984251968
0
LINE
8
BLACK
6
CONTINUOUS
10
-4.2186379133858267
20
5.770455984251968
11
-4.2163779527559058
21
5.7709055118110237
0
LINE
8
BLACK
6
CONTINUOUS
10
-4.2163779527559058
20
5.7709055118110237
11
-4.1612598425196845
21
5.7709055118110237
0
LINE
8
BLACK
6
CONTINUOUS
10
-4.1612598425196845
20
5.7709055118110237
11
-4.1589998818897636
21
5.770455984251968
0
LINE
8
BLACK
6
CONTINUOUS
10
-4.6862204724409446
20
5.7480708661417319
11
-4.7137795275590548
21
5.7480708661417319
0
LINE
8
BLACK
6
CONTINUOUS
10
-4.7137795275590548
20
5.7480708661417319
11
-4.7137795275590548
21
5.7716929133858264
0
LINE
8
BLACK
6
CONTINUOUS
10
-4.7137795275590548
20
5.7716929133858264
11
-4.6862204724409446
21
5.7716929133858264
0
LINE
8
BLACK
6
CONTINUOUS
10
-4.6862204724409446
20
5.7716929133858264
11
-4.6862204724409446
21
5.7480708661417319
0
LINE
8
BLACK
6
CONTINUOUS
10
-4.2811599606299211
20
5.8076289763779529
11
-4.2786054724409448
21
5.8059220866141734
0
LINE
8
BLACK
6
CONTINUOUS
10
-4.2786054724409448
20
5.8059220866141734
11
-4.2768985826771653
21
5.8033675984251971
0
LINE
8
BLACK
6
CONTINUOUS
10
-4.2768985826771653
20
5.8033675984251971
11
-4.2762992125984249
21
5.8003543307086609
0
LINE
8
BLACK
6
CONTINUOUS
10
-4.2762992125984249
20
5.8003543307086609
11
-4.2762992125984249
21
5.7846062992125979
0
LINE
8
BLACK
6
CONTINUOUS
10
-4.2762992125984249
20
5.7846062992125979
11
-4.2768985826771653
21
5.7815930314960626
0
LINE
8
BLACK
6
CONTINUOUS
10
-4.2768985826771653
20
5.7815930314960626
11
-4.2786054724409448
21
5.7790385433070863
0
LINE
8
BLACK
6
CONTINUOUS
10
-4.2786054724409448
20
5.7790385433070863
11
-4.2811599606299211
21
5.7773316535433068
0
LINE
8
BLACK
6
CONTINUOUS
10
-4.2811599606299211
20
5.7773316535433068
11
-4.2841732283464564
21
5.7767322834645665
0
LINE
8
BLACK
6
CONTINUOUS
10
-4.2841732283464564
20
5.7767322834645665
11
-4.3058267716535434
21
5.7767322834645665
0
LINE
8
BLACK
6
CONTINUOUS
10
-4.3058267716535434
20
5.7767322834645665
11
-4.3088400393700788
21
5.7773316535433068
0
LINE
8
BLACK
6
CONTINUOUS
10
-4.3088400393700788
20
5.7773316535433068
11
-4.3113945275590551
21
5.7790385433070863
0
LINE
8
BLACK
6
CONTINUOUS
10
-4.3113945275590551
20
5.7790385433070863
11
-4.3131014173228346
21
5.7815930314960626
0
LINE
8
BLACK
6
CONTINUOUS
10
-4.3131014173228346
20
5.7815930314960626
11
-4.3137007874015749
21
5.7846062992125979
0
LINE
8
BLACK
6
CONTINUOUS
10
-4.3137007874015749
20
5.7846062992125979
11
-4.3137007874015749
21
5.8003543307086609
0
LINE
8
BLACK
6
CONTINUOUS
10
-4.3137007874015749
20
5.8003543307086609
11
-4.3131014173228346
21
5.8033675984251971
0
LINE
8
BLACK
6
CONTINUOUS
10
-4.3131014173228346
20
5.8033675984251971
11
-4.3113945275590551
21
5.8059220866141734
0
LINE
8
BLACK
6
CONTINUOUS
10
-4.3113945275590551
20
5.8059220866141734
11
-4.3088400393700788
21
5.8076289763779529
0
LINE
8
BLACK
6
CONTINUOUS
10
-4.3088400393700788
20
5.8076289763779529
11
-4.3058267716535434
21
5.8082283464566924
0
LINE
8
BLACK
6
CONTINUOUS
10
-4.3058267716535434
20
5.8082283464566924
11
-4.2841732283464564
21
5.8082283464566924
0
LINE
8
BLACK
6
CONTINUOUS
10
-4.2841732283464564
20
5.8082283464566924
11
-4.2811599606299211
21
5.8076289763779529
0
LINE
8
BLACK
6
CONTINUOUS
10
-4.5311599606299211
20
5.811625039370079
11
-4.5286054724409448
21
5.8099181496062995
0
LINE
8
BLACK
6
CONTINUOUS
10
-4.5286054724409448
20
5.8099181496062995
11
-4.5268985826771653
21
5.8073636614173223
0
LINE
8
BLACK
6
CONTINUOUS
10
-4.5268985826771653
20
5.8073636614173223
11
-4.5262992125984249
21
5.804350393700787
0
LINE
8
BLACK
6
CONTINUOUS
10
-4.5262992125984249
20
5.804350393700787
11
-4.5262992125984249
21
5.788602362204724
0
LINE
8
BLACK
6
CONTINUOUS
10
-4.5262992125984249
20
5.788602362204724
11
-4.5268985826771653
21
5.7855890944881887
0
LINE
8
BLACK
6
CONTINUOUS
10
-4.5268985826771653
20
5.7855890944881887
11
-4.5286054724409448
21
5.7830346062992124
0
LINE
8
BLACK
6
CONTINUOUS
10
-4.5286054724409448
20
5.7830346062992124
11
-4.5311599606299211
21
5.7813277165354329
0
LINE
8
BLACK
6
CONTINUOUS
10
-4.5311599606299211
20
5.7813277165354329
11
-4.5341732283464564
21
5.7807283464566925
0
LINE
8
BLACK
6
CONTINUOUS
10
-4.5341732283464564
20
5.7807283464566925
11
-4.5558267716535434
21
5.7807283464566925
0
LINE
8
BLACK
6
CONTINUOUS
10
-4.5558267716535434
20
5.7807283464566925
11
-4.5588400393700788
21
5.7813277165354329
0
LINE
8
BLACK
6
CONTINUOUS
10
-4.5588400393700788
20
5.7813277165354329
11
-4.5613945275590551
21
5.7830346062992124
0
LINE
8
BLACK
6
CONTINUOUS
10
-4.5613945275590551
20
5.7830346062992124
11
-4.5631014173228346
21
5.7855890944881887
0
LINE
8
BLACK
6
CONTINUOUS
10
-4.5631014173228346
20
5.7855890944881887
11
-4.5637007874015749
21
5.788602362204724
0
LINE
8
BLACK
6
CONTINUOUS
10
-4.5637007874015749
20
5.788602362204724
11
-4.5637007874015749
21
5.804350393700787
0
LINE
8
BLACK
6
CONTINUOUS
10
-4.5637007874015749
20
5.804350393700787
11
-4.5631014173228346
21
5.8073636614173223
0
LINE
8
BLACK
6
CONTINUOUS
10
-4.5631014173228346
20
5.8073636614173223
11
-4.5613945275590551
21
5.8099181496062995
0
LINE
8
BLACK
6
CONTINUOUS
10
-4.5613945275590551
20
5.8099181496062995
11
-4.5588400393700788
21
5.811625039370079
0
LINE
8
BLACK
6
CONTINUOUS
10
-4.5588400393700788
20
5.811625039370079
11
-4.5558267716535434
21
5.8122244094488185
0
LINE
8
BLACK
6
CONTINUOUS
10
-4.5558267716535434
20
5.8122244094488185
11
-4.5341732283464564
21
5.8122244094488185
0
LINE
8
BLACK
6
CONTINUOUS
10
-4.5341732283464564
20
5.8122244094488185
11
-4.5311599606299211
21
5.811625039370079
0
LINE
8
BLACK
6
CONTINUOUS
10
-4.5925326377952755
20
5.8338374015748027
11
-4.5893394881889762
21
5.8317038188976378
0
LINE
8
BLACK
6
CONTINUOUS
10
-4.5893394881889762
20
5.8317038188976378
11
-4.5872059055118113
21
5.8285106692913384
0
LINE
8
BLACK
6
CONTINUOUS
10
-4.5872059055118113
20
5.8285106692913384
11
-4.5864566929133854
21
5.8247440944881888
0
LINE
8
BLACK
6
CONTINUOUS
10
-4.5864566929133854
20
5.8247440944881888
11
-4.5864566929133854
21
5.80505905511811
0
LINE
8
BLACK
6
CONTINUOUS
10
-4.5864566929133854
20
5.80505905511811
11
-4.5872059055118113
21
5.8012924803149604
0
LINE
8
BLACK
6
CONTINUOUS
10
-4.5872059055118113
20
5.8012924803149604
11
-4.5893394881889762
21
5.798099330708661
0
LINE
8
BLACK
6
CONTINUOUS
10
-4.5893394881889762
20
5.798099330708661
11
-4.5925326377952755
21
5.7959657480314961
0
LINE
8
BLACK
6
CONTINUOUS
10
-4.5925326377952755
20
5.7959657480314961
11
-4.5962992125984252
21
5.7952165354330711
0
LINE
8
BLACK
6
CONTINUOUS
10
-4.5962992125984252
20
5.7952165354330711
11
-4.6337007874015743
21
5.7952165354330711
0
LINE
8
BLACK
6
CONTINUOUS
10
-4.6337007874015743
20
5.7952165354330711
11
-4.637467362204724
21
5.7959657480314961
0
LINE
8
BLACK
6
CONTINUOUS
10
-4.637467362204724
20
5.7959657480314961
11
-4.6406605118110233
21
5.798099330708661
0
LINE
8
BLACK
6
CONTINUOUS
10
-4.6406605118110233
20
5.798099330708661
11
-4.6427940944881891
21
5.8012924803149604
0
LINE
8
BLACK
6
CONTINUOUS
10
-4.6427940944881891
20
5.8012924803149604
11
-4.6435433070866141
21
5.80505905511811
0
LINE
8
BLACK
6
CONTINUOUS
10
-4.6435433070866141
20
5.80505905511811
11
-4.6435433070866141
21
5.8247440944881888
0
LINE
8
BLACK
6
CONTINUOUS
10
-4.6435433070866141
20
5.8247440944881888
11
-4.6427940944881891
21
5.8285106692913384
0
LINE
8
BLACK
6
CONTINUOUS
10
-4.6427940944881891
20
5.8285106692913384
11
-4.6406605118110233
21
5.8317038188976378
0
LINE
8
BLACK
6
CONTINUOUS
10
-4.6406605118110233
20
5.8317038188976378
11
-4.637467362204724
21
5.8338374015748027
0
LINE
8
BLACK
6
CONTINUOUS
10
-4.637467362204724
20
5.8338374015748027
11
-4.6337007874015743
21
5.8345866141732285
0
LINE
8
BLACK
6
CONTINUOUS
10
-4.6337007874015743
20
5.8345866141732285
11
-4.5962992125984252
21
5.8345866141732285
0
LINE
8
BLACK
6
CONTINUOUS
10
-4.5962992125984252
20
5.8345866141732285
11
-4.5925326377952755
21
5.8338374015748027
0
LINE
8
BLACK
6
CONTINUOUS
10
-4.6862204724409446
20
5.8031889763779523
11
-4.7137795275590548
21
5.8031889763779523
0
LINE
8
BLACK
6
CONTINUOUS
10
-4.7137795275590548
20
5.8031889763779523
11
-4.7137795275590548
21
5.8268110236220467
0
LINE
8
BLACK
6
CONTINUOUS
10
-4.7137795275590548
20
5.8268110236220467
11
-4.6862204724409446
21
5.8268110236220467
0
LINE
8
BLACK
6
CONTINUOUS
10
-4.6862204724409446
20
5.8268110236220467
11
-4.6862204724409446
21
5.8031889763779523
0
LINE
8
BLACK
6
CONTINUOUS
10
-4.8858397244094487
20
5.850864960629921
11
-4.8826465748031493
21
5.8487313779527561
0
LINE
8
BLACK
6
CONTINUOUS
10
-4.8826465748031493
20
5.8487313779527561
11
-4.8805129921259844
21
5.8455382283464568
0
LINE
8
BLACK
6
CONTINUOUS
10
-4.8805129921259844
20
5.8455382283464568
11
-4.8797637795275586
21
5.8417716535433071
0
LINE
8
BLACK
6
CONTINUOUS
10
-4.8797637795275586
20
5.8417716535433071
11
-4.8797637795275586
21
5.8220866141732284
0
LINE
8
BLACK
6
CONTINUOUS
10
-4.8797637795275586
20
5.8220866141732284
11
-4.8805129921259844
21
5.8183200393700787
0
LINE
8
BLACK
6
CONTINUOUS
10
-4.8805129921259844
20
5.8183200393700787
11
-4.8826465748031493
21
5.8151268897637793
0
LINE
8
BLACK
6
CONTINUOUS
10
-4.8826465748031493
20
5.8151268897637793
11
-4.8858397244094487
21
5.8129933070866144
0
LINE
8
BLACK
6
CONTINUOUS
10
-4.8858397244094487
20
5.8129933070866144
11
-4.8896062992125984
21
5.8122440944881886
0
LINE
8
BLACK
6
CONTINUOUS
10
-4.8896062992125984
20
5.8122440944881886
11
-4.9762204724409447
21
5.8122440944881886
0
LINE
8
BLACK
6
CONTINUOUS
10
-4.9762204724409447
20
5.8122440944881886
11
-4.9799870472440944
21
5.8129933070866144
0
LINE
8
BLACK
6
CONTINUOUS
10
-4.9799870472440944
20
5.8129933070866144
11
-4.9831801968503937
21
5.8151268897637793
0
LINE
8
BLACK
6
CONTINUOUS
10
-4.9831801968503937
20
5.8151268897637793
11
-4.9853137795275586
21
5.8183200393700787
0
LINE
8
BLACK
6
CONTINUOUS
10
-4.9853137795275586
20
5.8183200393700787
11
-4.9860629921259845
21
5.8220866141732284
0
LINE
8
BLACK
6
CONTINUOUS
10
-4.9860629921259845
20
5.8220866141732284
11
-4.9860629921259845
21
5.8417716535433071
0
LINE
8
BLACK
6
CONTINUOUS
10
-4.9860629921259845
20
5.8417716535433071
11
-4.9853137795275586
21
5.8455382283464568
0
LINE
8
BLACK
6
CONTINUOUS
10
-4.9853137795275586
20
5.8455382283464568
11
-4.9831801968503937
21
5.8487313779527561
0
LINE
8
BLACK
6
CONTINUOUS
10
-4.9831801968503937
20
5.8487313779527561
11
-4.9799870472440944
21
5.850864960629921
0
LINE
8
BLACK
6
CONTINUOUS
10
-4.9799870472440944
20
5.850864960629921
11
-4.9762204724409447
21
5.851614173228346
0
LINE
8
BLACK
6
CONTINUOUS
10
-4.9762204724409447
20
5.851614173228346
11
-4.8896062992125984
21
5.851614173228346
0
LINE
8
BLACK
6
CONTINUOUS
10
-4.8896062992125984
20
5.851614173228346
11
-4.8858397244094487
21
5.850864960629921
0
LINE
8
BLACK
6
CONTINUOUS
10
-4.0157609842519681
20
5.850864960629921
11
-4.0125678346456688
21
5.8487313779527561
0
LINE
8
BLACK
6
CONTINUOUS
10
-4.0125678346456688
20
5.8487313779527561
11
-4.0104342519685039
21
5.8455382283464568
0
LINE
8
BLACK
6
CONTINUOUS
10
-4.0104342519685039
20
5.8455382283464568
11
-4.0096850393700789
21
5.8417716535433071
0
LINE
8
BLACK
6
CONTINUOUS
10
-4.0096850393700789
20
5.8417716535433071
11
-4.0096850393700789
21
5.8220866141732284
0
LINE
8
BLACK
6
CONTINUOUS
10
-4.0096850393700789
20
5.8220866141732284
11
-4.0104342519685039
21
5.8183200393700787
0
LINE
8
BLACK
6
CONTINUOUS
10
-4.0104342519685039
20
5.8183200393700787
11
-4.0125678346456688
21
5.8151268897637793
0
LINE
8
BLACK
6
CONTINUOUS
10
-4.0125678346456688
20
5.8151268897637793
11
-4.0157609842519681
21
5.8129933070866144
0
LINE
8
BLACK
6
CONTINUOUS
10
-4.0157609842519681
20
5.8129933070866144
11
-4.0195275590551178
21
5.8122440944881886
0
LINE
8
BLACK
6
CONTINUOUS
10
-4.0195275590551178
20
5.8122440944881886
11
-4.1061417322834641
21
5.8122440944881886
0
LINE
8
BLACK
6
CONTINUOUS
10
-4.1061417322834641
20
5.8122440944881886
11
-4.1099083070866138
21
5.8129933070866144
0
LINE
8
BLACK
6
CONTINUOUS
10
-4.1099083070866138
20
5.8129933070866144
11
-4.1131014566929132
21
5.8151268897637793
0
LINE
8
BLACK
6
CONTINUOUS
10
-4.1131014566929132
20
5.8151268897637793
11
-4.115235039370079
21
5.8183200393700787
0
LINE
8
BLACK
6
CONTINUOUS
10
-4.115235039370079
20
5.8183200393700787
11
-4.1159842519685039
21
5.8220866141732284
0
LINE
8
BLACK
6
CONTINUOUS
10
-4.1159842519685039
20
5.8220866141732284
11
-4.1159842519685039
21
5.8417716535433071
0
LINE
8
BLACK
6
CONTINUOUS
10
-4.1159842519685039
20
5.8417716535433071
11
-4.115235039370079
21
5.8455382283464568
0
LINE
8
BLACK
6
CONTINUOUS
10
-4.115235039370079
20
5.8455382283464568
11
-4.1131014566929132
21
5.8487313779527561
0
LINE
8
BLACK
6
CONTINUOUS
10
-4.1131014566929132
20
5.8487313779527561
11
-4.1099083070866138
21
5.850864960629921
0
LINE
8
BLACK
6
CONTINUOUS
10
-4.1099083070866138
20
5.850864960629921
11
-4.1061417322834641
21
5.851614173228346
0
LINE
8
BLACK
6
CONTINUOUS
10
-4.1061417322834641
20
5.851614173228346
11
-4.0195275590551178
21
5.851614173228346
0
LINE
8
BLACK
6
CONTINUOUS
10
-4.0195275590551178
20
5.851614173228346
11
-4.0157609842519681
21
5.850864960629921
0
LINE
8
BLACK
6
CONTINUOUS
10
-4.3761599606299209
20
5.866664409448819
11
-4.3736054724409446
21
5.8649575196850394
0
LINE
8
BLACK
6
CONTINUOUS
10
-4.3736054724409446
20
5.8649575196850394
11
-4.371898582677165
21
5.8624030314960631
0
LINE
8
BLACK
6
CONTINUOUS
10
-4.371898582677165
20
5.8624030314960631
11
-4.3712992125984247
21
5.8593897637795278
0
LINE
8
BLACK
6
CONTINUOUS
10
-4.3712992125984247
20
5.8593897637795278
11
-4.3712992125984247
21
5.8436417322834648
0
LINE
8
BLACK
6
CONTINUOUS
10
-4.3712992125984247
20
5.8436417322834648
11
-4.371898582677165
21
5.8406284645669286
0
LINE
8
BLACK
6
CONTINUOUS
10
-4.371898582677165
20
5.8406284645669286
11
-4.3736054724409446
21
5.8380739763779523
0
LINE
8
BLACK
6
CONTINUOUS
10
-4.3736054724409446
20
5.8380739763779523
11
-4.3761599606299209
21
5.8363670866141728
0
LINE
8
BLACK
6
CONTINUOUS
10
-4.3761599606299209
20
5.8363670866141728
11
-4.3791732283464562
21
5.8357677165354334
0
LINE
8
BLACK
6
CONTINUOUS
10
-4.3791732283464562
20
5.8357677165354334
11
-4.4008267716535432
21
5.8357677165354334
0
LINE
8
BLACK
6
CONTINUOUS
10
-4.4008267716535432
20
5.8357677165354334
11
-4.4038400393700785
21
5.8363670866141728
0
LINE
8
BLACK
6
CONTINUOUS
10
-4.4038400393700785
20
5.8363670866141728
11
-4.4063945275590548
21
5.8380739763779523
0
LINE
8
BLACK
6
CONTINUOUS
10
-4.4063945275590548
20
5.8380739763779523
11
-4.4081014173228343
21
5.8406284645669286
0
LINE
8
BLACK
6
CONTINUOUS
10
-4.4081014173228343
20
5.8406284645669286
11
-4.4087007874015747
21
5.8436417322834648
0
LINE
8
BLACK
6
CONTINUOUS
10
-4.4087007874015747
20
5.8436417322834648
11
-4.4087007874015747
21
5.8593897637795278
0
LINE
8
BLACK
6
CONTINUOUS
10
-4.4087007874015747
20
5.8593897637795278
11
-4.4081014173228343
21
5.8624030314960631
0
LINE
8
BLACK
6
CONTINUOUS
10
-4.4081014173228343
20
5.8624030314960631
11
-4.4063945275590548
21
5.8649575196850394
0
LINE
8
BLACK
6
CONTINUOUS
10
-4.4063945275590548
20
5.8649575196850394
11
-4.4038400393700785
21
5.866664409448819
0
LINE
8
BLACK
6
CONTINUOUS
10
-4.4038400393700785
20
5.866664409448819
11
-4.4008267716535432
21
5.8672637795275593
0
LINE
8
BLACK
6
CONTINUOUS
10
-4.4008267716535432
20
5.8672637795275593
11
-4.3791732283464562
21
5.8672637795275593
0
LINE
8
BLACK
6
CONTINUOUS
10
-4.3791732283464562
20
5.8672637795275593
11
-4.3761599606299209
21
5.866664409448819
0
LINE
8
BLACK
6
CONTINUOUS
10
-4.2961599606299208
20
5.866664409448819
11
-4.2936054724409445
21
5.8649575196850394
0
LINE
8
BLACK
6
CONTINUOUS
10
-4.2936054724409445
20
5.8649575196850394
11
-4.291898582677165
21
5.8624030314960631
0
LINE
8
BLACK
6
CONTINUOUS
10
-4.291898582677165
20
5.8624030314960631
11
-4.2912992125984255
21
5.8593897637795278
0
LINE
8
BLACK
6
CONTINUOUS
10
-4.2912992125984255
20
5.8593897637795278
11
-4.2912992125984255
21
5.8436417322834648
0
LINE
8
BLACK
6
CONTINUOUS
10
-4.2912992125984255
20
5.8436417322834648
11
-4.291898582677165
21
5.8406284645669286
0
LINE
8
BLACK
6
CONTINUOUS
10
-4.291898582677165
20
5.8406284645669286
11
-4.2936054724409445
21
5.8380739763779523
0
LINE
8
BLACK
6
CONTINUOUS
10
-4.2936054724409445
20
5.8380739763779523
11
-4.2961599606299208
21
5.8363670866141728
0
LINE
8
BLACK
6
CONTINUOUS
10
-4.2961599606299208
20
5.8363670866141728
11
-4.299173228346457
21
5.8357677165354334
0
LINE
8
BLACK
6
CONTINUOUS
10
-4.299173228346457
20
5.8357677165354334
11
-4.3208267716535431
21
5.8357677165354334
0
LINE
8
BLACK
6
CONTINUOUS
10
-4.3208267716535431
20
5.8357677165354334
11
-4.3238400393700784
21
5.8363670866141728
0
LINE
8
BLACK
6
CONTINUOUS
10
-4.3238400393700784
20
5.8363670866141728
11
-4.3263945275590547
21
5.8380739763779523
0
LINE
8
BLACK
6
CONTINUOUS
10
-4.3263945275590547
20
5.8380739763779523
11
-4.3281014173228343
21
5.8406284645669286
0
LINE
8
BLACK
6
CONTINUOUS
10
-4.3281014173228343
20
5.8406284645669286
11
-4.3287007874015746
21
5.8436417322834648
0
LINE
8
BLACK
6
CONTINUOUS
10
-4.3287007874015746
20
5.8436417322834648
11
-4.3287007874015746
21
5.8593897637795278
0
LINE
8
BLACK
6
CONTINUOUS
10
-4.3287007874015746
20
5.8593897637795278
11
-4.3281014173228343
21
5.8624030314960631
0
LINE
8
BLACK
6
CONTINUOUS
10
-4.3281014173228343
20
5.8624030314960631
11
-4.3263945275590547
21
5.8649575196850394
0
LINE
8
BLACK
6
CONTINUOUS
10
-4.3263945275590547
20
5.8649575196850394
11
-4.3238400393700784
21
5.866664409448819
0
LINE
8
BLACK
6
CONTINUOUS
10
-4.3238400393700784
20
5.866664409448819
11
-4.3208267716535431
21
5.8672637795275593
0
LINE
8
BLACK
6
CONTINUOUS
10
-4.3208267716535431
20
5.8672637795275593
11
-4.299173228346457
21
5.8672637795275593
0
LINE
8
BLACK
6
CONTINUOUS
10
-4.299173228346457
20
5.8672637795275593
11
-4.2961599606299208
21
5.866664409448819
0
LINE
8
BLACK
6
CONTINUOUS
10
-4.5105890944881892
20
5.9081014173228343
11
-4.5080346062992129
21
5.9063945275590548
0
LINE
8
BLACK
6
CONTINUOUS
10
-4.5080346062992129
20
5.9063945275590548
11
-4.5063277165354334
21
5.9038400393700785
0
LINE
8
BLACK
6
CONTINUOUS
10
-4.5063277165354334
20
5.9038400393700785
11
-4.5057283464566931
21
5.9008267716535432
0
LINE
8
BLACK
6
CONTINUOUS
10
-4.5057283464566931
20
5.9008267716535432
11
-4.5057283464566931
21
5.8791732283464562
0
LINE
8
BLACK
6
CONTINUOUS
10
-4.5057283464566931
20
5.8791732283464562
11
-4.5063277165354334
21
5.8761599606299209
0
LINE
8
BLACK
6
CONTINUOUS
10
-4.5063277165354334
20
5.8761599606299209
11
-4.5080346062992129
21
5.8736054724409446
0
LINE
8
BLACK
6
CONTINUOUS
10
-4.5080346062992129
20
5.8736054724409446
11
-4.5105890944881892
21
5.871898582677165
0
LINE
8
BLACK
6
CONTINUOUS
10
-4.5105890944881892
20
5.871898582677165
11
-4.5136023622047245
21
5.8712992125984247
0
LINE
8
BLACK
6
CONTINUOUS
10
-4.5136023622047245
20
5.8712992125984247
11
-4.5293503937007875
21
5.8712992125984247
0
LINE
8
BLACK
6
CONTINUOUS
10
-4.5293503937007875
20
5.8712992125984247
11
-4.5323636614173228
21
5.871898582677165
0
LINE
8
BLACK
6
CONTINUOUS
10
-4.5323636614173228
20
5.871898582677165
11
-4.5349181496062991
21
5.8736054724409446
0
LINE
8
BLACK
6
CONTINUOUS
10
-4.5349181496062991
20
5.8736054724409446
11
-4.5366250393700787
21
5.8761599606299209
0
LINE
8
BLACK
6
CONTINUOUS
10
-4.5366250393700787
20
5.8761599606299209
11
-4.537224409448819
21
5.8791732283464562
0
LINE
8
BLACK
6
CONTINUOUS
10
-4.537224409448819
20
5.8791732283464562
11
-4.537224409448819
21
5.9008267716535432
0
LINE
8
BLACK
6
CONTINUOUS
10
-4.537224409448819
20
5.9008267716535432
11
-4.5366250393700787
21
5.9038400393700785
0
LINE
8
BLACK
6
CONTINUOUS
10
-4.5366250393700787
20
5.9038400393700785
11
-4.5349181496062991
21
5.9063945275590548
0
LINE
8
BLACK
6
CONTINUOUS
10
-4.5349181496062991
20
5.9063945275590548
11
-4.5323636614173228
21
5.9081014173228343
0
LINE
8
BLACK
6
CONTINUOUS
10
-4.5323636614173228
20
5.9081014173228343
11
-4.5293503937007875
21
5.9087007874015747
0
LINE
8
BLACK
6
CONTINUOUS
10
-4.5293503937007875
20
5.9087007874015747
11
-4.5136023622047245
21
5.9087007874015747
0
LINE
8
BLACK
6
CONTINUOUS
10
-4.5136023622047245
20
5.9087007874015747
11
-4.5105890944881892
21
5.9081014173228343
0
LINE
8
BLACK
6
CONTINUOUS
10
-4.4456284645669291
20
5.9081014173228343
11
-4.4430739763779528
21
5.9063945275590548
0
LINE
8
BLACK
6
CONTINUOUS
10
-4.4430739763779528
20
5.9063945275590548
11
-4.4413670866141732
21
5.9038400393700785
0
LINE
8
BLACK
6
CONTINUOUS
10
-4.4413670866141732
20
5.9038400393700785
11
-4.4407677165354329
21
5.9008267716535432
0
LINE
8
BLACK
6
CONTINUOUS
10
-4.4407677165354329
20
5.9008267716535432
11
-4.4407677165354329
21
5.8791732283464562
0
LINE
8
BLACK
6
CONTINUOUS
10
-4.4407677165354329
20
5.8791732283464562
11
-4.4413670866141732
21
5.8761599606299209
0
LINE
8
BLACK
6
CONTINUOUS
10
-4.4413670866141732
20
5.8761599606299209
11
-4.4430739763779528
21
5.8736054724409446
0
LINE
8
BLACK
6
CONTINUOUS
10
-4.4430739763779528
20
5.8736054724409446
11
-4.4456284645669291
21
5.871898582677165
0
LINE
8
BLACK
6
CONTINUOUS
10
-4.4456284645669291
20
5.871898582677165
11
-4.4486417322834644
21
5.8712992125984247
0
LINE
8
BLACK
6
CONTINUOUS
10
-4.4486417322834644
20
5.8712992125984247
11
-4.4643897637795273
21
5.8712992125984247
0
LINE
8
BLACK
6
CONTINUOUS
10
-4.4643897637795273
20
5.8712992125984247
11
-4.4674030314960627
21
5.871898582677165
0
LINE
8
BLACK
6
CONTINUOUS
10
-4.4674030314960627
20
5.871898582677165
11
-4.469957519685039
21
5.8736054724409446
0
LINE
8
BLACK
6
CONTINUOUS
10
-4.469957519685039
20
5.8736054724409446
11
-4.4716644094488185
21
5.8761599606299209
0
LINE
8
BLACK
6
CONTINUOUS
10
-4.4716644094488185
20
5.8761599606299209
11
-4.4722637795275588
21
5.8791732283464562
0
LINE
8
BLACK
6
CONTINUOUS
10
-4.4722637795275588
20
5.8791732283464562
11
-4.4722637795275588
21
5.9008267716535432
0
LINE
8
BLACK
6
CONTINUOUS
10
-4.4722637795275588
20
5.9008267716535432
11
-4.4716644094488185
21
5.9038400393700785
0
LINE
8
BLACK
6
CONTINUOUS
10
-4.4716644094488185
20
5.9038400393700785
11
-4.469957519685039
21
5.9063945275590548
0
LINE
8
BLACK
6
CONTINUOUS
10
-4.469957519685039
20
5.9063945275590548
11
-4.4674030314960627
21
5.9081014173228343
0
LINE
8
BLACK
6
CONTINUOUS
10
-4.4674030314960627
20
5.9081014173228343
11
-4.4643897637795273
21
5.9087007874015747
0
LINE
8
BLACK
6
CONTINUOUS
10
-4.4643897637795273
20
5.9087007874015747
11
-4.4486417322834644
21
5.9087007874015747
0
LINE
8
BLACK
6
CONTINUOUS
10
-4.4486417322834644
20
5.9087007874015747
11
-4.4456284645669291
21
5.9081014173228343
0
LINE
8
BLACK
6
CONTINUOUS
10
-4.705664803149606
20
5.9308390944881886
11
-4.7035360629921259
21
5.929416692913386
0
LINE
8
BLACK
6
CONTINUOUS
10
-4.7035360629921259
20
5.929416692913386
11
-4.7021136614173225
21
5.927287952755905
0
LINE
8
BLACK
6
CONTINUOUS
10
-4.7021136614173225
20
5.927287952755905
11
-4.7016142125984253
21
5.9247768503937008
0
LINE
8
BLACK
6
CONTINUOUS
10
-4.7016142125984253
20
5.9247768503937008
11
-4.7016141732283465
21
5.8788451574803151
0
LINE
8
BLACK
6
CONTINUOUS
10
-4.7016141732283465
20
5.8788451574803151
11
-4.7021136614173225
21
5.8763340944881888
0
LINE
8
BLACK
6
CONTINUOUS
10
-4.7021136614173225
20
5.8763340944881888
11
-4.7035360629921259
21
5.8742053543307087
0
LINE
8
BLACK
6
CONTINUOUS
10
-4.7035360629921259
20
5.8742053543307087
11
-4.705664803149606
21
5.8727829527559052
0
LINE
8
BLACK
6
CONTINUOUS
10
-4.705664803149606
20
5.8727829527559052
11
-4.7081759055118111
21
5.872283503937008
0
LINE
8
BLACK
6
CONTINUOUS
10
-4.7081759055118111
20
5.872283503937008
11
-4.744265078740157
21
5.8722834645669293
0
LINE
8
BLACK
6
CONTINUOUS
10
-4.744265078740157
20
5.8722834645669293
11
-4.7467761417322833
21
5.8727829527559052
0
LINE
8
BLACK
6
CONTINUOUS
10
-4.7467761417322833
20
5.8727829527559052
11
-4.7489048818897635
21
5.8742053543307087
0
LINE
8
BLACK
6
CONTINUOUS
10
-4.7489048818897635
20
5.8742053543307087
11
-4.7503272834645669
21
5.8763340944881888
0
LINE
8
BLACK
6
CONTINUOUS
10
-4.7503272834645669
20
5.8763340944881888
11
-4.7508267322834641
21
5.8788451968503939
0
LINE
8
BLACK
6
CONTINUOUS
10
-4.7508267322834641
20
5.8788451968503939
11
-4.7508267716535428
21
5.9247768897637796
0
LINE
8
BLACK
6
CONTINUOUS
10
-4.7508267716535428
20
5.9247768897637796
11
-4.7503272834645669
21
5.927287952755905
0
LINE
8
BLACK
6
CONTINUOUS
10
-4.7503272834645669
20
5.927287952755905
11
-4.7489048818897635
21
5.929416692913386
0
LINE
8
BLACK
6
CONTINUOUS
10
-4.7489048818897635
20
5.929416692913386
11
-4.7467761417322833
21
5.9308390944881886
0
LINE
8
BLACK
6
CONTINUOUS
10
-4.7467761417322833
20
5.9308390944881886
11
-4.7442650393700783
21
5.9313385433070867
0
LINE
8
BLACK
6
CONTINUOUS
10
-4.7442650393700783
20
5.9313385433070867
11
-4.7081758661417323
21
5.9313385826771654
0
LINE
8
BLACK
6
CONTINUOUS
10
-4.7081758661417323
20
5.9313385826771654
11
-4.705664803149606
21
5.9308390944881886
0
LINE
8
BLACK
6
CONTINUOUS
10
-4.5639325196850393
20
5.9308390944881886
11
-4.5618037795275592
21
5.929416692913386
0
LINE
8
BLACK
6
CONTINUOUS
10
-4.5618037795275592
20
5.929416692913386
11
-4.5603813779527558
21
5.927287952755905
0
LINE
8
BLACK
6
CONTINUOUS
10
-4.5603813779527558
20
5.927287952755905
11
-4.5598819291338586
21
5.9247768503937008
0
LINE
8
BLACK
6
CONTINUOUS
10
-4.5598819291338586
20
5.9247768503937008
11
-4.5598818897637798
21
5.8788451574803151
0
LINE
8
BLACK
6
CONTINUOUS
10
-4.5598818897637798
20
5.8788451574803151
11
-4.5603813779527558
21
5.8763340944881888
0
LINE
8
BLACK
6
CONTINUOUS
10
-4.5603813779527558
20
5.8763340944881888
11
-4.5618037795275592
21
5.8742053543307087
0
LINE
8
BLACK
6
CONTINUOUS
10
-4.5618037795275592
20
5.8742053543307087
11
-4.5639325196850393
21
5.8727829527559052
0
LINE
8
BLACK
6
CONTINUOUS
10
-4.5639325196850393
20
5.8727829527559052
11
-4.5664436220472444
21
5.872283503937008
0
LINE
8
BLACK
6
CONTINUOUS
10
-4.5664436220472444
20
5.872283503937008
11
-4.6025327952755903
21
5.8722834645669293
0
LINE
8
BLACK
6
CONTINUOUS
10
-4.6025327952755903
20
5.8722834645669293
11
-4.6050438582677167
21
5.8727829527559052
0
LINE
8
BLACK
6
CONTINUOUS
10
-4.6050438582677167
20
5.8727829527559052
11
-4.6071725984251968
21
5.8742053543307087
0
LINE
8
BLACK
6
CONTINUOUS
10
-4.6071725984251968
20
5.8742053543307087
11
-4.6085950000000002
21
5.8763340944881888
0
LINE
8
BLACK
6
CONTINUOUS
10
-4.6085950000000002
20
5.8763340944881888
11
-4.6090944488188974
21
5.8788451968503939
0
LINE
8
BLACK
6
CONTINUOUS
10
-4.6090944488188974
20
5.8788451968503939
11
-4.6090944881889762
21
5.9247768897637796
0
LINE
8
BLACK
6
CONTINUOUS
10
-4.6090944881889762
20
5.9247768897637796
11
-4.6085950000000002
21
5.927287952755905
0
LINE
8
BLACK
6
CONTINUOUS
10
-4.6085950000000002
20
5.927287952755905
11
-4.6071725984251968
21
5.929416692913386
0
LINE
8
BLACK
6
CONTINUOUS
10
-4.6071725984251968
20
5.929416692913386
11
-4.6050438582677167
21
5.9308390944881886
0
LINE
8
BLACK
6
CONTINUOUS
10
-4.6050438582677167
20
5.9308390944881886
11
-4.6025327559055116
21
5.9313385433070867
0
LINE
8
BLACK
6
CONTINUOUS
10
-4.6025327559055116
20
5.9313385433070867
11
-4.5664435826771657
21
5.9313385826771654
0
LINE
8
BLACK
6
CONTINUOUS
10
-4.5664435826771657
20
5.9313385826771654
11
-4.5639325196850393
21
5.9308390944881886
0
LINE
8
BLACK
6
CONTINUOUS
10
-4.3761599606299209
20
5.9316250393700782
11
-4.3736054724409446
21
5.9299181496062987
0
LINE
8
BLACK
6
CONTINUOUS
10
-4.3736054724409446
20
5.9299181496062987
11
-4.371898582677165
21
5.9273636614173224
0
LINE
8
BLACK
6
CONTINUOUS
10
-4.371898582677165
20
5.9273636614173224
11
-4.3712992125984247
21
5.9243503937007871
0
LINE
8
BLACK
6
CONTINUOUS
10
-4.3712992125984247
20
5.9243503937007871
11
-4.3712992125984247
21
5.9086023622047241
0
LINE
8
BLACK
6
CONTINUOUS
10
-4.3712992125984247
20
5.9086023622047241
11
-4.371898582677165
21
5.9055890944881888
0
LINE
8
BLACK
6
CONTINUOUS
10
-4.371898582677165
20
5.9055890944881888
11
-4.3736054724409446
21
5.9030346062992125
0
LINE
8
BLACK
6
CONTINUOUS
10
-4.3736054724409446
20
5.9030346062992125
11
-4.3761599606299209
21
5.901327716535433
0
LINE
8
BLACK
6
CONTINUOUS
10
-4.3761599606299209
20
5.901327716535433
11
-4.3791732283464562
21
5.9007283464566926
0
LINE
8
BLACK
6
CONTINUOUS
10
-4.3791732283464562
20
5.9007283464566926
11
-4.4008267716535432
21
5.9007283464566926
0
LINE
8
BLACK
6
CONTINUOUS
10
-4.4008267716535432
20
5.9007283464566926
11
-4.4038400393700785
21
5.901327716535433
0
LINE
8
BLACK
6
CONTINUOUS
10
-4.4038400393700785
20
5.901327716535433
11
-4.4063945275590548
21
5.9030346062992125
0
LINE
8
BLACK
6
CONTINUOUS
10
-4.4063945275590548
20
5.9030346062992125
11
-4.4081014173228343
21
5.9055890944881888
0
LINE
8
BLACK
6
CONTINUOUS
10
-4.4081014173228343
20
5.9055890944881888
11
-4.4087007874015747
21
5.9086023622047241
0
LINE
8
BLACK
6
CONTINUOUS
10
-4.4087007874015747
20
5.9086023622047241
11
-4.4087007874015747
21
5.9243503937007871
0
LINE
8
BLACK
6
CONTINUOUS
10
-4.4087007874015747
20
5.9243503937007871
11
-4.4081014173228343
21
5.9273636614173224
0
LINE
8
BLACK
6
CONTINUOUS
10
-4.4081014173228343
20
5.9273636614173224
11
-4.4063945275590548
21
5.9299181496062987
0
LINE
8
BLACK
6
CONTINUOUS
10
-4.4063945275590548
20
5.9299181496062987
11
-4.4038400393700785
21
5.9316250393700782
0
LINE
8
BLACK
6
CONTINUOUS
10
-4.4038400393700785
20
5.9316250393700782
11
-4.4008267716535432
21
5.9322244094488186
0
LINE
8
BLACK
6
CONTINUOUS
10
-4.4008267716535432
20
5.9322244094488186
11
-4.3791732283464562
21
5.9322244094488186
0
LINE
8
BLACK
6
CONTINUOUS
10
-4.3791732283464562
20
5.9322244094488186
11
-4.3761599606299209
21
5.9316250393700782
0
LINE
8
BLACK
6
CONTINUOUS
10
-4.2961599606299208
20
5.9316250393700782
11
-4.2936054724409445
21
5.9299181496062987
0
LINE
8
BLACK
6
CONTINUOUS
10
-4.2936054724409445
20
5.9299181496062987
11
-4.291898582677165
21
5.9273636614173224
0
LINE
8
BLACK
6
CONTINUOUS
10
-4.291898582677165
20
5.9273636614173224
11
-4.2912992125984255
21
5.9243503937007871
0
LINE
8
BLACK
6
CONTINUOUS
10
-4.2912992125984255
20
5.9243503937007871
11
-4.2912992125984255
21
5.9086023622047241
0
LINE
8
BLACK
6
CONTINUOUS
10
-4.2912992125984255
20
5.9086023622047241
11
-4.291898582677165
21
5.9055890944881888
0
LINE
8
BLACK
6
CONTINUOUS
10
-4.291898582677165
20
5.9055890944881888
11
-4.2936054724409445
21
5.9030346062992125
0
LINE
8
BLACK
6
CONTINUOUS
10
-4.2936054724409445
20
5.9030346062992125
11
-4.2961599606299208
21
5.901327716535433
0
LINE
8
BLACK
6
CONTINUOUS
10
-4.2961599606299208
20
5.901327716535433
11
-4.299173228346457
21
5.9007283464566926
0
LINE
8
BLACK
6
CONTINUOUS
10
-4.299173228346457
20
5.9007283464566926
11
-4.3208267716535431
21
5.9007283464566926
0
LINE
8
BLACK
6
CONTINUOUS
10
-4.3208267716535431
20
5.9007283464566926
11
-4.3238400393700784
21
5.901327716535433
0
LINE
8
BLACK
6
CONTINUOUS
10
-4.3238400393700784
20
5.901327716535433
11
-4.3263945275590547
21
5.9030346062992125
0
LINE
8
BLACK
6
CONTINUOUS
10
-4.3263945275590547
20
5.9030346062992125
11
-4.3281014173228343
21
5.9055890944881888
0
LINE
8
BLACK
6
CONTINUOUS
10
-4.3281014173228343
20
5.9055890944881888
11
-4.3287007874015746
21
5.9086023622047241
0
LINE
8
BLACK
6
CONTINUOUS
10
-4.3287007874015746
20
5.9086023622047241
11
-4.3287007874015746
21
5.9243503937007871
0
LINE
8
BLACK
6
CONTINUOUS
10
-4.3287007874015746
20
5.9243503937007871
11
-4.3281014173228343
21
5.9273636614173224
0
LINE
8
BLACK
6
CONTINUOUS
10
-4.3281014173228343
20
5.9273636614173224
11
-4.3263945275590547
21
5.9299181496062987
0
LINE
8
BLACK
6
CONTINUOUS
10
-4.3263945275590547
20
5.9299181496062987
11
-4.3238400393700784
21
5.9316250393700782
0
LINE
8
BLACK
6
CONTINUOUS
10
-4.3238400393700784
20
5.9316250393700782
11
-4.3208267716535431
21
5.9322244094488186
0
LINE
8
BLACK
6
CONTINUOUS
10
-4.3208267716535431
20
5.9322244094488186
11
-4.299173228346457
21
5.9322244094488186
0
LINE
8
BLACK
6
CONTINUOUS
10
-4.299173228346457
20
5.9322244094488186
11
-4.2961599606299208
21
5.9316250393700782
  0
ENDSEC
  0
EOF
