  0
SECTION
  2
HEADER
  9
$ANGBASE
  50
0.0
  9
$ANGDIR
  70
1
  9
$MEASUREMENT
  70
0
  0
ENDSEC
  0
SECTION
  2
TABLES
  0
TABLE
  2
LTYPE
  70
4
  0
LTYPE
  5
40F
  2
CONTINUOUS
  70
0
  3
Solid line
  72
65
  73
0
  40
0.0
  0
LTYPE
  5
410
  2
DASHDOT
 70
0
  3
Dash Dot ____ _ ____ _
 72
65
 73
4
 40
2.0
 49
1.25
 49
-0.25
 49
0.25
 49
-0.25
  0
LTYPE
  5
411
  2
DASHED
 70
0
  3
Dashed __ __ __ __ __
 72
65
 73
2
 40
0.75
 49
0.5
 49
-0.25
  0
LTYPE
  5
43B
  2
DOTTED
 70
0
  3
Dotted .  .  .  .
 72
65
 73
2
 40
0.2
 49
0.0
 49
-0.2
  0
ENDTAB
  0
TABLE
  2
STYLE
  70
4
  0
STYLE
  2
KICAD
  70
0
  40
0
  41
1
  42
1
  50
0
  71
0
  3
isocp.shx
  0
STYLE
  2
KICADB
  70
0
  40
0
  41
1
  42
1
  50
0
  71
0
  3
isocp.shx
  0
STYLE
  2
KICADI
  70
0
  40
0
  41
1
  42
1
  50
15
  71
0
  3
isocp.shx
  0
STYLE
  2
KICADBI
  70
0
  40
0
  41
1
  42
1
  50
15
  71
0
  3
isocp.shx
  0
ENDTAB
  0
TABLE
  2
LAYER
  70
1
  0
LAYER
  2
BLACK
  70
0
  62
7
  6
CONTINUOUS
  0
ENDTAB
  0
ENDSEC
  0
SECTION
  2
ENTITIES
0
LINE
8
BLACK
6
CONTINUOUS
10
-4.4751335826771657
20
5.8549772834645664
11
-4.4707435433070861
21
5.8527404330708661
0
LINE
8
BLACK
6
CONTINUOUS
10
-4.4707435433070861
20
5.8527404330708661
11
-4.4672595669291342
21
5.8492564566929133
0
LINE
8
BLACK
6
CONTINUOUS
10
-4.4672595669291342
20
5.8492564566929133
11
-4.4665551574803146
21
5.8478740157480313
0
LINE
8
BLACK
6
CONTINUOUS
10
-4.4665551574803146
20
5.8478740157480313
11
-4.2299999999999995
21
5.8478740157480313
0
LINE
8
BLACK
6
CONTINUOUS
10
-4.2299999999999995
20
5.8478740157480313
11
-4.2287120866141734
21
5.8475800393700785
0
LINE
8
BLACK
6
CONTINUOUS
10
-4.2287120866141734
20
5.8475800393700785
11
-4.2273993700787402
21
5.8474321653543306
0
LINE
8
BLACK
6
CONTINUOUS
10
-4.2273993700787402
20
5.8474321653543306
11
-4.2270201968503933
21
5.8471938976377951
0
LINE
8
BLACK
6
CONTINUOUS
10
-4.2270201968503933
20
5.8471938976377951
11
-4.2265835826771649
21
5.8470942519685041
0
LINE
8
BLACK
6
CONTINUOUS
10
-4.2265835826771649
20
5.8470942519685041
11
-4.2255507086614168
21
5.8462705118110234
0
LINE
8
BLACK
6
CONTINUOUS
10
-4.2255507086614168
20
5.8462705118110234
11
-4.2244322440944879
21
5.8455677559055115
0
LINE
8
BLACK
6
CONTINUOUS
10
-4.2244322440944879
20
5.8455677559055115
11
-4.1939818897637791
21
5.8151173622047239
0
LINE
8
BLACK
6
CONTINUOUS
10
-4.1939818897637791
20
5.8151173622047239
11
-4.1899999999999995
21
5.8157480314960628
0
LINE
8
BLACK
6
CONTINUOUS
10
-4.1899999999999995
20
5.8157480314960628
11
-4.1851335826771656
21
5.8149772834645672
0
LINE
8
BLACK
6
CONTINUOUS
10
-4.1851335826771656
20
5.8149772834645672
11
-4.1807435433070861
21
5.8127404330708661
0
LINE
8
BLACK
6
CONTINUOUS
10
-4.1807435433070861
20
5.8127404330708661
11
-4.1772595669291341
21
5.8092564566929132
0
LINE
8
BLACK
6
CONTINUOUS
10
-4.1772595669291341
20
5.8092564566929132
11
-4.1765551574803146
21
5.8078740157480313
0
LINE
8
BLACK
6
CONTINUOUS
10
-4.1765551574803146
20
5.8078740157480313
11
-4.1287401574803146
21
5.8078740157480313
0
LINE
8
BLACK
6
CONTINUOUS
10
-4.1287401574803146
20
5.8078740157480313
11
-4.1274522440944885
21
5.8075800393700785
0
LINE
8
BLACK
6
CONTINUOUS
10
-4.1274522440944885
20
5.8075800393700785
11
-4.1261395275590553
21
5.8074321653543306
0
LINE
8
BLACK
6
CONTINUOUS
10
-4.1261395275590553
20
5.8074321653543306
11
-4.1257603543307084
21
5.807193897637795
0
LINE
8
BLACK
6
CONTINUOUS
10
-4.1257603543307084
20
5.807193897637795
11
-4.12532374015748
21
5.807094251968504
0
LINE
8
BLACK
6
CONTINUOUS
10
-4.12532374015748
20
5.807094251968504
11
-4.1242908661417319
21
5.8062705118110234
0
LINE
8
BLACK
6
CONTINUOUS
10
-4.1242908661417319
20
5.8062705118110234
11
-4.123172401574803
21
5.8055677559055114
0
LINE
8
BLACK
6
CONTINUOUS
10
-4.123172401574803
20
5.8055677559055114
11
-4.0744322440944885
21
5.7568276377952756
0
LINE
8
BLACK
6
CONTINUOUS
10
-4.0744322440944885
20
5.7568276377952756
11
-4.073729409448819
21
5.7557090551181105
0
LINE
8
BLACK
6
CONTINUOUS
10
-4.073729409448819
20
5.7557090551181105
11
-4.0729057480314959
21
5.7546762598425198
0
LINE
8
BLACK
6
CONTINUOUS
10
-4.0729057480314959
20
5.7546762598425198
11
-4.0728061023622049
21
5.7542396456692915
0
LINE
8
BLACK
6
CONTINUOUS
10
-4.0728061023622049
20
5.7542396456692915
11
-4.0725678346456693
21
5.7538604724409446
0
LINE
8
BLACK
6
CONTINUOUS
10
-4.0725678346456693
20
5.7538604724409446
11
-4.0724199606299214
21
5.7525477165354326
0
LINE
8
BLACK
6
CONTINUOUS
10
-4.0724199606299214
20
5.7525477165354326
11
-4.0721259842519686
21
5.7512598425196853
0
LINE
8
BLACK
6
CONTINUOUS
10
-4.0721259842519686
20
5.7512598425196853
11
-4.0721259842519686
21
5.6399999999999997
0
LINE
8
BLACK
6
CONTINUOUS
10
-4.0721259842519686
20
5.6399999999999997
11
-4.0724199606299214
21
5.6387120472440939
0
LINE
8
BLACK
6
CONTINUOUS
10
-4.0724199606299214
20
5.6387120472440939
11
-4.0725678346456693
21
5.6373993700787404
0
LINE
8
BLACK
6
CONTINUOUS
10
-4.0725678346456693
20
5.6373993700787404
11
-4.0728061023622049
21
5.6370201574803147
0
LINE
8
BLACK
6
CONTINUOUS
10
-4.0728061023622049
20
5.6370201574803147
11
-4.0729057480314959
21
5.6365835826771651
0
LINE
8
BLACK
6
CONTINUOUS
10
-4.0729057480314959
20
5.6365835826771651
11
-4.0737294881889765
21
5.6355506692913382
0
LINE
8
BLACK
6
CONTINUOUS
10
-4.0737294881889765
20
5.6355506692913382
11
-4.0744322440944885
21
5.6344322440944881
0
LINE
8
BLACK
6
CONTINUOUS
10
-4.0744322440944885
20
5.6344322440944881
11
-4.1029755511811024
21
5.6058889370078742
0
LINE
8
BLACK
6
CONTINUOUS
10
-4.1029755511811024
20
5.6058889370078742
11
-4.1040940157480312
21
5.6051861417322835
0
LINE
8
BLACK
6
CONTINUOUS
10
-4.1040940157480312
20
5.6051861417322835
11
-4.1051268897637794
21
5.6043624409448816
0
LINE
8
BLACK
6
CONTINUOUS
10
-4.1051268897637794
20
5.6043624409448816
11
-4.1055635039370078
21
5.6042627559055118
0
LINE
8
BLACK
6
CONTINUOUS
10
-4.1055635039370078
20
5.6042627559055118
11
-4.1059426771653547
21
5.604024527559055
0
LINE
8
BLACK
6
CONTINUOUS
10
-4.1059426771653547
20
5.604024527559055
11
-4.107255393700787
21
5.6038766141732284
0
LINE
8
BLACK
6
CONTINUOUS
10
-4.107255393700787
20
5.6038766141732284
11
-4.108543307086614
21
5.6035826771653543
0
LINE
8
BLACK
6
CONTINUOUS
10
-4.108543307086614
20
5.6035826771653543
11
-4.1557458661417321
21
5.6035826771653543
0
LINE
8
BLACK
6
CONTINUOUS
10
-4.1557458661417321
20
5.6035826771653543
11
-4.1558038582677161
21
5.6032912204724408
0
LINE
8
BLACK
6
CONTINUOUS
10
-4.1558038582677161
20
5.6032912204724408
11
-4.1570840157480315
21
5.6013753543307088
0
LINE
8
BLACK
6
CONTINUOUS
10
-4.1570840157480315
20
5.6013753543307088
11
-4.1589998818897636
21
5.6000951968503934
0
LINE
8
BLACK
6
CONTINUOUS
10
-4.1589998818897636
20
5.6000951968503934
11
-4.1612598425196845
21
5.5996456692913386
0
LINE
8
BLACK
6
CONTINUOUS
10
-4.1612598425196845
20
5.5996456692913386
11
-4.2163779527559058
21
5.5996456692913386
0
LINE
8
BLACK
6
CONTINUOUS
10
-4.2163779527559058
20
5.5996456692913386
11
-4.2186379133858267
21
5.6000951968503934
0
LINE
8
BLACK
6
CONTINUOUS
10
-4.2186379133858267
20
5.6000951968503934
11
-4.2205537795275587
21
5.6013753543307088
0
LINE
8
BLACK
6
CONTINUOUS
10
-4.2205537795275587
20
5.6013753543307088
11
-4.2218339370078741
21
5.6032912204724408
0
LINE
8
BLACK
6
CONTINUOUS
10
-4.2218339370078741
20
5.6032912204724408
11
-4.2222834645669289
21
5.6055511811023617
0
LINE
8
BLACK
6
CONTINUOUS
10
-4.2222834645669289
20
5.6055511811023617
11
-4.2222834645669289
21
5.6173622047244089
0
LINE
8
BLACK
6
CONTINUOUS
10
-4.2222834645669289
20
5.6173622047244089
11
-4.2218339370078741
21
5.6196221653543308
0
LINE
8
BLACK
6
CONTINUOUS
10
-4.2218339370078741
20
5.6196221653543308
11
-4.2205537795275587
21
5.6215380314960628
0
LINE
8
BLACK
6
CONTINUOUS
10
-4.2205537795275587
20
5.6215380314960628
11
-4.2186379133858267
21
5.6228181889763782
0
LINE
8
BLACK
6
CONTINUOUS
10
-4.2186379133858267
20
5.6228181889763782
11
-4.2163779527559058
21
5.623267716535433
0
LINE
8
BLACK
6
CONTINUOUS
10
-4.2163779527559058
20
5.623267716535433
11
-4.1612598425196845
21
5.623267716535433
0
LINE
8
BLACK
6
CONTINUOUS
10
-4.1612598425196845
20
5.623267716535433
11
-4.1589998818897636
21
5.6228181889763782
0
LINE
8
BLACK
6
CONTINUOUS
10
-4.1589998818897636
20
5.6228181889763782
11
-4.1570840157480315
21
5.6215380314960628
0
LINE
8
BLACK
6
CONTINUOUS
10
-4.1570840157480315
20
5.6215380314960628
11
-4.1558038582677161
21
5.6196221653543308
0
LINE
8
BLACK
6
CONTINUOUS
10
-4.1558038582677161
20
5.6196221653543308
11
-4.1557458661417321
21
5.6193307086614173
0
LINE
8
BLACK
6
CONTINUOUS
10
-4.1557458661417321
20
5.6193307086614173
11
-4.1118048031496066
21
5.6193307086614173
0
LINE
8
BLACK
6
CONTINUOUS
10
-4.1118048031496066
20
5.6193307086614173
11
-4.0878740157480316
21
5.6432614960629923
0
LINE
8
BLACK
6
CONTINUOUS
10
-4.0878740157480316
20
5.6432614960629923
11
-4.0878740157480316
21
5.7479983070866139
0
LINE
8
BLACK
6
CONTINUOUS
10
-4.0878740157480316
20
5.7479983070866139
11
-4.1320016535433073
21
5.7921259842519683
0
LINE
8
BLACK
6
CONTINUOUS
10
-4.1320016535433073
20
5.7921259842519683
11
-4.1765551574803146
21
5.7921259842519683
0
LINE
8
BLACK
6
CONTINUOUS
10
-4.1765551574803146
20
5.7921259842519683
11
-4.1772595669291341
21
5.7907435433070864
0
LINE
8
BLACK
6
CONTINUOUS
10
-4.1772595669291341
20
5.7907435433070864
11
-4.1807435433070861
21
5.7872595669291336
0
LINE
8
BLACK
6
CONTINUOUS
10
-4.1807435433070861
20
5.7872595669291336
11
-4.1851335826771656
21
5.7850227165354333
0
LINE
8
BLACK
6
CONTINUOUS
10
-4.1851335826771656
20
5.7850227165354333
11
-4.1899999999999995
21
5.7842519685039369
0
LINE
8
BLACK
6
CONTINUOUS
10
-4.1899999999999995
20
5.7842519685039369
11
-4.1948664173228343
21
5.7850227165354333
0
LINE
8
BLACK
6
CONTINUOUS
10
-4.1948664173228343
20
5.7850227165354333
11
-4.1992564566929129
21
5.7872595669291336
0
LINE
8
BLACK
6
CONTINUOUS
10
-4.1992564566929129
20
5.7872595669291336
11
-4.2027404330708658
21
5.7907435433070864
0
LINE
8
BLACK
6
CONTINUOUS
10
-4.2027404330708658
20
5.7907435433070864
11
-4.2049772834645669
21
5.7951335826771651
0
LINE
8
BLACK
6
CONTINUOUS
10
-4.2049772834645669
20
5.7951335826771651
11
-4.2057480314960625
21
5.7999999999999998
0
LINE
8
BLACK
6
CONTINUOUS
10
-4.2057480314960625
20
5.7999999999999998
11
-4.2051174015748032
21
5.8039818503937006
0
LINE
8
BLACK
6
CONTINUOUS
10
-4.2051174015748032
20
5.8039818503937006
11
-4.2332614960629922
21
5.8321259842519684
0
LINE
8
BLACK
6
CONTINUOUS
10
-4.2332614960629922
20
5.8321259842519684
11
-4.4665551574803146
21
5.8321259842519684
0
LINE
8
BLACK
6
CONTINUOUS
10
-4.4665551574803146
20
5.8321259842519684
11
-4.4672595669291342
21
5.8307435433070864
0
LINE
8
BLACK
6
CONTINUOUS
10
-4.4672595669291342
20
5.8307435433070864
11
-4.4707435433070861
21
5.8272595669291336
0
LINE
8
BLACK
6
CONTINUOUS
10
-4.4707435433070861
20
5.8272595669291336
11
-4.4751335826771657
21
5.8250227165354334
0
LINE
8
BLACK
6
CONTINUOUS
10
-4.4751335826771657
20
5.8250227165354334
11
-4.4799999999999995
21
5.8242519685039369
0
LINE
8
BLACK
6
CONTINUOUS
10
-4.4799999999999995
20
5.8242519685039369
11
-4.4848664173228343
21
5.8250227165354334
0
LINE
8
BLACK
6
CONTINUOUS
10
-4.4848664173228343
20
5.8250227165354334
11
-4.489256456692913
21
5.8272595669291336
0
LINE
8
BLACK
6
CONTINUOUS
10
-4.489256456692913
20
5.8272595669291336
11
-4.4927404330708658
21
5.8307435433070864
0
LINE
8
BLACK
6
CONTINUOUS
10
-4.4927404330708658
20
5.8307435433070864
11
-4.4934448425196853
21
5.8321259842519684
0
LINE
8
BLACK
6
CONTINUOUS
10
-4.4934448425196853
20
5.8321259842519684
11
-4.542565275590551
21
5.8321259842519684
0
LINE
8
BLACK
6
CONTINUOUS
10
-4.542565275590551
20
5.8321259842519684
11
-4.6202590157480312
21
5.7544322440944882
0
LINE
8
BLACK
6
CONTINUOUS
10
-4.6202590157480312
20
5.7544322440944882
11
-4.6213774803149601
21
5.7537294488188975
0
LINE
8
BLACK
6
CONTINUOUS
10
-4.6213774803149601
20
5.7537294488188975
11
-4.6224103543307082
21
5.7529057480314956
0
LINE
8
BLACK
6
CONTINUOUS
10
-4.6224103543307082
20
5.7529057480314956
11
-4.6228469685039366
21
5.7528060629921258
0
LINE
8
BLACK
6
CONTINUOUS
10
-4.6228469685039366
20
5.7528060629921258
11
-4.6232261417322835
21
5.752567834645669
0
LINE
8
BLACK
6
CONTINUOUS
10
-4.6232261417322835
20
5.752567834645669
11
-4.6245388582677167
21
5.7524199212598424
0
LINE
8
BLACK
6
CONTINUOUS
10
-4.6245388582677167
20
5.7524199212598424
11
-4.6258267716535428
21
5.7521259842519683
0
LINE
8
BLACK
6
CONTINUOUS
10
-4.6258267716535428
20
5.7521259842519683
11
-4.7215551574803145
21
5.7521259842519683
0
LINE
8
BLACK
6
CONTINUOUS
10
-4.7215551574803145
20
5.7521259842519683
11
-4.7222595669291341
21
5.7507435433070864
0
LINE
8
BLACK
6
CONTINUOUS
10
-4.7222595669291341
20
5.7507435433070864
11
-4.7257435433070869
21
5.7472595669291335
0
LINE
8
BLACK
6
CONTINUOUS
10
-4.7257435433070869
20
5.7472595669291335
11
-4.7301335826771655
21
5.7450227165354333
0
LINE
8
BLACK
6
CONTINUOUS
10
-4.7301335826771655
20
5.7450227165354333
11
-4.7350000000000003
21
5.7442519685039368
0
LINE
8
BLACK
6
CONTINUOUS
10
-4.7350000000000003
20
5.7442519685039368
11
-4.7398664173228342
21
5.7450227165354333
0
LINE
8
BLACK
6
CONTINUOUS
10
-4.7398664173228342
20
5.7450227165354333
11
-4.7442564566929128
21
5.7472595669291335
0
LINE
8
BLACK
6
CONTINUOUS
10
-4.7442564566929128
20
5.7472595669291335
11
-4.7477404330708657
21
5.7507435433070864
0
LINE
8
BLACK
6
CONTINUOUS
10
-4.7477404330708657
20
5.7507435433070864
11
-4.7484448425196852
21
5.7521259842519683
0
LINE
8
BLACK
6
CONTINUOUS
10
-4.7484448425196852
20
5.7521259842519683
11
-4.7736760236220475
21
5.7521259842519683
0
LINE
8
BLACK
6
CONTINUOUS
10
-4.7736760236220475
20
5.7521259842519683
11
-4.7739140944881893
21
5.7509290157480315
0
LINE
8
BLACK
6
CONTINUOUS
10
-4.7739140944881893
20
5.7509290157480315
11
-4.7751942519685038
21
5.7490131496062995
0
LINE
8
BLACK
6
CONTINUOUS
10
-4.7751942519685038
20
5.7490131496062995
11
-4.7771101181102358
21
5.7477329921259841
0
LINE
8
BLACK
6
CONTINUOUS
10
-4.7771101181102358
20
5.7477329921259841
11
-4.7793700787401576
21
5.7472834645669293
0
LINE
8
BLACK
6
CONTINUOUS
10
-4.7793700787401576
20
5.7472834645669293
11
-4.834488188976378
21
5.7472834645669293
0
LINE
8
BLACK
6
CONTINUOUS
10
-4.834488188976378
20
5.7472834645669293
11
-4.836748149606299
21
5.7477329921259841
0
LINE
8
BLACK
6
CONTINUOUS
10
-4.836748149606299
20
5.7477329921259841
11
-4.838664015748031
21
5.7490131496062995
0
LINE
8
BLACK
6
CONTINUOUS
10
-4.838664015748031
20
5.7490131496062995
11
-4.8399441732283464
21
5.7509290157480315
0
LINE
8
BLACK
6
CONTINUOUS
10
-4.8399441732283464
20
5.7509290157480315
11
-4.8400021653543304
21
5.751220472440945
0
LINE
8
BLACK
6
CONTINUOUS
10
-4.8400021653543304
20
5.751220472440945
11
-4.8617778740157478
21
5.751220472440945
0
LINE
8
BLACK
6
CONTINUOUS
10
-4.8617778740157478
20
5.751220472440945
11
-4.9021259842519687
21
5.7108723622047242
0
LINE
8
BLACK
6
CONTINUOUS
10
-4.9021259842519687
20
5.7108723622047242
11
-4.9021259842519687
21
5.6432614960629923
0
LINE
8
BLACK
6
CONTINUOUS
10
-4.9021259842519687
20
5.6432614960629923
11
-4.8817384645669293
21
5.6228740157480317
0
LINE
8
BLACK
6
CONTINUOUS
10
-4.8817384645669293
20
5.6228740157480317
11
-4.8784448425196851
21
5.6228740157480317
0
LINE
8
BLACK
6
CONTINUOUS
10
-4.8784448425196851
20
5.6228740157480317
11
-4.8777404330708665
21
5.6242564566929136
0
LINE
8
BLACK
6
CONTINUOUS
10
-4.8777404330708665
20
5.6242564566929136
11
-4.8742564566929136
21
5.6277404330708656
0
LINE
8
BLACK
6
CONTINUOUS
10
-4.8742564566929136
20
5.6277404330708656
11
-4.8698664173228341
21
5.6299772834645667
0
LINE
8
BLACK
6
CONTINUOUS
10
-4.8698664173228341
20
5.6299772834645667
11
-4.8650000000000002
21
5.6307480314960632
0
LINE
8
BLACK
6
CONTINUOUS
10
-4.8650000000000002
20
5.6307480314960632
11
-4.8601335826771654
21
5.6299772834645667
0
LINE
8
BLACK
6
CONTINUOUS
10
-4.8601335826771654
20
5.6299772834645667
11
-4.8557435433070868
21
5.6277404330708656
0
LINE
8
BLACK
6
CONTINUOUS
10
-4.8557435433070868
20
5.6277404330708656
11
-4.852259566929134
21
5.6242564566929136
0
LINE
8
BLACK
6
CONTINUOUS
10
-4.852259566929134
20
5.6242564566929136
11
-4.8500227165354328
21
5.6198664173228341
0
LINE
8
BLACK
6
CONTINUOUS
10
-4.8500227165354328
20
5.6198664173228341
11
-4.8492519685039372
21
5.6150000000000002
0
LINE
8
BLACK
6
CONTINUOUS
10
-4.8492519685039372
20
5.6150000000000002
11
-4.8500227165354328
21
5.6101335826771654
0
LINE
8
BLACK
6
CONTINUOUS
10
-4.8500227165354328
20
5.6101335826771654
11
-4.852259566929134
21
5.6057435433070868
0
LINE
8
BLACK
6
CONTINUOUS
10
-4.852259566929134
20
5.6057435433070868
11
-4.8557435433070868
21
5.602259566929134
0
LINE
8
BLACK
6
CONTINUOUS
10
-4.8557435433070868
20
5.602259566929134
11
-4.8601335826771654
21
5.6000227165354328
0
LINE
8
BLACK
6
CONTINUOUS
10
-4.8601335826771654
20
5.6000227165354328
11
-4.8650000000000002
21
5.5992519685039372
0
LINE
8
BLACK
6
CONTINUOUS
10
-4.8650000000000002
20
5.5992519685039372
11
-4.8698664173228341
21
5.6000227165354328
0
LINE
8
BLACK
6
CONTINUOUS
10
-4.8698664173228341
20
5.6000227165354328
11
-4.8742564566929136
21
5.602259566929134
0
LINE
8
BLACK
6
CONTINUOUS
10
-4.8742564566929136
20
5.602259566929134
11
-4.8777404330708665
21
5.6057435433070868
0
LINE
8
BLACK
6
CONTINUOUS
10
-4.8777404330708665
20
5.6057435433070868
11
-4.8784448425196851
21
5.6071259842519687
0
LINE
8
BLACK
6
CONTINUOUS
10
-4.8784448425196851
20
5.6071259842519687
11
-4.8849999999999998
21
5.6071259842519687
0
LINE
8
BLACK
6
CONTINUOUS
10
-4.8849999999999998
20
5.6071259842519687
11
-4.8862877952755905
21
5.607419881889764
0
LINE
8
BLACK
6
CONTINUOUS
10
-4.8862877952755905
20
5.607419881889764
11
-4.88760062992126
21
5.6075678346456694
0
LINE
8
BLACK
6
CONTINUOUS
10
-4.88760062992126
20
5.6075678346456694
11
-4.8879798425196848
21
5.6078060629921263
0
LINE
8
BLACK
6
CONTINUOUS
10
-4.8879798425196848
20
5.6078060629921263
11
-4.8884164173228344
21
5.607905748031496
0
LINE
8
BLACK
6
CONTINUOUS
10
-4.8884164173228344
20
5.607905748031496
11
-4.8894491732283463
21
5.6087293307086616
0
LINE
8
BLACK
6
CONTINUOUS
10
-4.8894491732283463
20
5.6087293307086616
11
-4.8905677559055114
21
5.609432204724409
0
LINE
8
BLACK
6
CONTINUOUS
10
-4.8905677559055114
20
5.609432204724409
11
-4.9155677559055118
21
5.6344322440944881
0
LINE
8
BLACK
6
CONTINUOUS
10
-4.9155677559055118
20
5.6344322440944881
11
-4.9162705511811025
21
5.6355506692913382
0
LINE
8
BLACK
6
CONTINUOUS
10
-4.9162705511811025
20
5.6355506692913382
11
-4.9170942519685035
21
5.6365835826771651
0
LINE
8
BLACK
6
CONTINUOUS
10
-4.9170942519685035
20
5.6365835826771651
11
-4.9171939370078741
21
5.6370201574803147
0
LINE
8
BLACK
6
CONTINUOUS
10
-4.9171939370078741
20
5.6370201574803147
11
-4.9174321653543309
21
5.6373993700787404
0
LINE
8
BLACK
6
CONTINUOUS
10
-4.9174321653543309
20
5.6373993700787404
11
-4.9175800787401576
21
5.6387120472440939
0
LINE
8
BLACK
6
CONTINUOUS
10
-4.9175800787401576
20
5.6387120472440939
11
-4.9178740157480316
21
5.6399999999999997
0
LINE
8
BLACK
6
CONTINUOUS
10
-4.9178740157480316
20
5.6399999999999997
11
-4.9178740157480316
21
5.7141338582677168
0
LINE
8
BLACK
6
CONTINUOUS
10
-4.9178740157480316
20
5.7141338582677168
11
-4.9175800787401576
21
5.7154217716535429
0
LINE
8
BLACK
6
CONTINUOUS
10
-4.9175800787401576
20
5.7154217716535429
11
-4.9174321653543309
21
5.7167344881889761
0
LINE
8
BLACK
6
CONTINUOUS
10
-4.9174321653543309
20
5.7167344881889761
11
-4.9171939370078741
21
5.717113661417323
0
LINE
8
BLACK
6
CONTINUOUS
10
-4.9171939370078741
20
5.717113661417323
11
-4.9170942519685035
21
5.7175502755905514
0
LINE
8
BLACK
6
CONTINUOUS
10
-4.9170942519685035
20
5.7175502755905514
11
-4.9162705511811025
21
5.7185831496062987
0
LINE
8
BLACK
6
CONTINUOUS
10
-4.9162705511811025
20
5.7185831496062987
11
-4.9155677559055118
21
5.7197016141732284
0
LINE
8
BLACK
6
CONTINUOUS
10
-4.9155677559055118
20
5.7197016141732284
11
-4.8706071259842521
21
5.7646622440944881
0
LINE
8
BLACK
6
CONTINUOUS
10
-4.8706071259842521
20
5.7646622440944881
11
-4.869488700787401
21
5.7653650000000001
0
LINE
8
BLACK
6
CONTINUOUS
10
-4.869488700787401
20
5.7653650000000001
11
-4.868455787401575
21
5.7661887401574798
0
LINE
8
BLACK
6
CONTINUOUS
10
-4.868455787401575
20
5.7661887401574798
11
-4.8680192125984254
21
5.7662883858267717
0
LINE
8
BLACK
6
CONTINUOUS
10
-4.8680192125984254
20
5.7662883858267717
11
-4.8676399999999997
21
5.7665266535433073
0
LINE
8
BLACK
6
CONTINUOUS
10
-4.8676399999999997
20
5.7665266535433073
11
-4.8663273228346453
21
5.7666745275590552
0
LINE
8
BLACK
6
CONTINUOUS
10
-4.8663273228346453
20
5.7666745275590552
11
-4.8650393700787404
21
5.766968503937008
0
LINE
8
BLACK
6
CONTINUOUS
10
-4.8650393700787404
20
5.766968503937008
11
-4.8400021653543304
21
5.766968503937008
0
LINE
8
BLACK
6
CONTINUOUS
10
-4.8400021653543304
20
5.766968503937008
11
-4.8399441732283464
21
5.7672599606299215
0
LINE
8
BLACK
6
CONTINUOUS
10
-4.8399441732283464
20
5.7672599606299215
11
-4.838664015748031
21
5.7691758267716535
0
LINE
8
BLACK
6
CONTINUOUS
10
-4.838664015748031
20
5.7691758267716535
11
-4.836748149606299
21
5.770455984251968
0
LINE
8
BLACK
6
CONTINUOUS
10
-4.836748149606299
20
5.770455984251968
11
-4.834488188976378
21
5.7709055118110237
0
LINE
8
BLACK
6
CONTINUOUS
10
-4.834488188976378
20
5.7709055118110237
11
-4.7793700787401576
21
5.7709055118110237
0
LINE
8
BLACK
6
CONTINUOUS
10
-4.7793700787401576
20
5.7709055118110237
11
-4.7771101181102358
21
5.770455984251968
0
LINE
8
BLACK
6
CONTINUOUS
10
-4.7771101181102358
20
5.770455984251968
11
-4.7751942519685038
21
5.7691758267716535
0
LINE
8
BLACK
6
CONTINUOUS
10
-4.7751942519685038
20
5.7691758267716535
11
-4.7743244094488189
21
5.7678740157480313
0
LINE
8
BLACK
6
CONTINUOUS
10
-4.7743244094488189
20
5.7678740157480313
11
-4.7484448425196852
21
5.7678740157480313
0
LINE
8
BLACK
6
CONTINUOUS
10
-4.7484448425196852
20
5.7678740157480313
11
-4.7477404330708657
21
5.7692564566929132
0
LINE
8
BLACK
6
CONTINUOUS
10
-4.7477404330708657
20
5.7692564566929132
11
-4.7442564566929128
21
5.772740433070866
0
LINE
8
BLACK
6
CONTINUOUS
10
-4.7442564566929128
20
5.772740433070866
11
-4.7398664173228342
21
5.7749772834645672
0
LINE
8
BLACK
6
CONTINUOUS
10
-4.7398664173228342
20
5.7749772834645672
11
-4.7350000000000003
21
5.7757480314960628
0
LINE
8
BLACK
6
CONTINUOUS
10
-4.7350000000000003
20
5.7757480314960628
11
-4.7301335826771655
21
5.7749772834645672
0
LINE
8
BLACK
6
CONTINUOUS
10
-4.7301335826771655
20
5.7749772834645672
11
-4.7257435433070869
21
5.772740433070866
0
LINE
8
BLACK
6
CONTINUOUS
10
-4.7257435433070869
20
5.772740433070866
11
-4.7222595669291341
21
5.7692564566929132
0
LINE
8
BLACK
6
CONTINUOUS
10
-4.7222595669291341
20
5.7692564566929132
11
-4.7215551574803145
21
5.7678740157480313
0
LINE
8
BLACK
6
CONTINUOUS
10
-4.7215551574803145
20
5.7678740157480313
11
-4.6290882677165355
21
5.7678740157480313
0
LINE
8
BLACK
6
CONTINUOUS
10
-4.6290882677165355
20
5.7678740157480313
11
-4.5513945275590553
21
5.8455677559055115
0
LINE
8
BLACK
6
CONTINUOUS
10
-4.5513945275590553
20
5.8455677559055115
11
-4.5502761023622043
21
5.8462705118110234
0
LINE
8
BLACK
6
CONTINUOUS
10
-4.5502761023622043
20
5.8462705118110234
11
-4.5492431889763782
21
5.8470942519685041
0
LINE
8
BLACK
6
CONTINUOUS
10
-4.5492431889763782
20
5.8470942519685041
11
-4.5488066141732286
21
5.8471938976377951
0
LINE
8
BLACK
6
CONTINUOUS
10
-4.5488066141732286
20
5.8471938976377951
11
-4.548427401574803
21
5.8474321653543306
0
LINE
8
BLACK
6
CONTINUOUS
10
-4.548427401574803
20
5.8474321653543306
11
-4.5471147244094485
21
5.8475800393700785
0
LINE
8
BLACK
6
CONTINUOUS
10
-4.5471147244094485
20
5.8475800393700785
11
-4.5458267716535428
21
5.8478740157480313
0
LINE
8
BLACK
6
CONTINUOUS
10
-4.5458267716535428
20
5.8478740157480313
11
-4.4934448425196853
21
5.8478740157480313
0
LINE
8
BLACK
6
CONTINUOUS
10
-4.4934448425196853
20
5.8478740157480313
11
-4.4927404330708658
21
5.8492564566929133
0
LINE
8
BLACK
6
CONTINUOUS
10
-4.4927404330708658
20
5.8492564566929133
11
-4.489256456692913
21
5.8527404330708661
0
LINE
8
BLACK
6
CONTINUOUS
10
-4.489256456692913
20
5.8527404330708661
11
-4.4848664173228343
21
5.8549772834645664
0
LINE
8
BLACK
6
CONTINUOUS
10
-4.4848664173228343
20
5.8549772834645664
11
-4.4799999999999995
21
5.8557480314960628
0
LINE
8
BLACK
6
CONTINUOUS
10
-4.4799999999999995
20
5.8557480314960628
11
-4.4751335826771657
21
5.8549772834645664
0
LINE
8
BLACK
6
CONTINUOUS
10
-4.4650329133858264
20
5.6753622440944884
11
-4.4606428740157478
21
5.6731253937007873
0
LINE
8
BLACK
6
CONTINUOUS
10
-4.4606428740157478
20
5.6731253937007873
11
-4.4571588976377949
21
5.6696414173228344
0
LINE
8
BLACK
6
CONTINUOUS
10
-4.4571588976377949
20
5.6696414173228344
11
-4.4549220472440947
21
5.6652513779527558
0
LINE
8
BLACK
6
CONTINUOUS
10
-4.4549220472440947
20
5.6652513779527558
11
-4.4541512992125982
21
5.660384960629921
0
LINE
8
BLACK
6
CONTINUOUS
10
-4.4541512992125982
20
5.660384960629921
11
-4.4549220472440947
21
5.6555185433070863
0
LINE
8
BLACK
6
CONTINUOUS
10
-4.4549220472440947
20
5.6555185433070863
11
-4.4571588976377949
21
5.6511285039370076
0
LINE
8
BLACK
6
CONTINUOUS
10
-4.4571588976377949
20
5.6511285039370076
11
-4.4606428740157478
21
5.6476445275590548
0
LINE
8
BLACK
6
CONTINUOUS
10
-4.4606428740157478
20
5.6476445275590548
11
-4.4650329133858264
21
5.6454076771653545
0
LINE
8
BLACK
6
CONTINUOUS
10
-4.4650329133858264
20
5.6454076771653545
11
-4.4698993307086612
21
5.6446369291338581
0
LINE
8
BLACK
6
CONTINUOUS
10
-4.4698993307086612
20
5.6446369291338581
11
-4.474765748031496
21
5.6454076771653545
0
LINE
8
BLACK
6
CONTINUOUS
10
-4.474765748031496
20
5.6454076771653545
11
-4.4791557874015746
21
5.6476445275590548
0
LINE
8
BLACK
6
CONTINUOUS
10
-4.4791557874015746
20
5.6476445275590548
11
-4.4826397637795274
21
5.6511285039370076
0
LINE
8
BLACK
6
CONTINUOUS
10
-4.4826397637795274
20
5.6511285039370076
11
-4.4834890157480318
21
5.6527952755905506
0
LINE
8
BLACK
6
CONTINUOUS
10
-4.4834890157480318
20
5.6527952755905506
11
-4.7738561023622044
21
5.6527952755905506
0
LINE
8
BLACK
6
CONTINUOUS
10
-4.7738561023622044
20
5.6527952755905506
11
-4.7739140944881893
21
5.652503818897638
0
LINE
8
BLACK
6
CONTINUOUS
10
-4.7739140944881893
20
5.652503818897638
11
-4.7751942519685038
21
5.6505879527559051
0
LINE
8
BLACK
6
CONTINUOUS
10
-4.7751942519685038
20
5.6505879527559051
11
-4.7771101181102358
21
5.6493077952755906
0
LINE
8
BLACK
6
CONTINUOUS
10
-4.7771101181102358
20
5.6493077952755906
11
-4.7793700787401576
21
5.6488582677165349
0
LINE
8
BLACK
6
CONTINUOUS
10
-4.7793700787401576
20
5.6488582677165349
11
-4.834488188976378
21
5.6488582677165349
0
LINE
8
BLACK
6
CONTINUOUS
10
-4.834488188976378
20
5.6488582677165349
11
-4.836748149606299
21
5.6493077952755906
0
LINE
8
BLACK
6
CONTINUOUS
10
-4.836748149606299
20
5.6493077952755906
11
-4.838664015748031
21
5.6505879527559051
0
LINE
8
BLACK
6
CONTINUOUS
10
-4.838664015748031
20
5.6505879527559051
11
-4.8396916929133855
21
5.6521259842519687
0
LINE
8
BLACK
6
CONTINUOUS
10
-4.8396916929133855
20
5.6521259842519687
11
-4.8615551574803151
21
5.6521259842519687
0
LINE
8
BLACK
6
CONTINUOUS
10
-4.8615551574803151
20
5.6521259842519687
11
-4.8622595669291337
21
5.6507435433070867
0
LINE
8
BLACK
6
CONTINUOUS
10
-4.8622595669291337
20
5.6507435433070867
11
-4.8657435433070866
21
5.6472595669291339
0
LINE
8
BLACK
6
CONTINUOUS
10
-4.8657435433070866
20
5.6472595669291339
11
-4.8701335826771652
21
5.6450227165354327
0
LINE
8
BLACK
6
CONTINUOUS
10
-4.8701335826771652
20
5.6450227165354327
11
-4.875
21
5.6442519685039372
0
LINE
8
BLACK
6
CONTINUOUS
10
-4.875
20
5.6442519685039372
11
-4.8798664173228348
21
5.6450227165354327
0
LINE
8
BLACK
6
CONTINUOUS
10
-4.8798664173228348
20
5.6450227165354327
11
-4.8842564566929134
21
5.6472595669291339
0
LINE
8
BLACK
6
CONTINUOUS
10
-4.8842564566929134
20
5.6472595669291339
11
-4.8877404330708663
21
5.6507435433070867
0
LINE
8
BLACK
6
CONTINUOUS
10
-4.8877404330708663
20
5.6507435433070867
11
-4.8899772834645665
21
5.6551335826771654
0
LINE
8
BLACK
6
CONTINUOUS
10
-4.8899772834645665
20
5.6551335826771654
11
-4.890748031496063
21
5.6600000000000001
0
LINE
8
BLACK
6
CONTINUOUS
10
-4.890748031496063
20
5.6600000000000001
11
-4.8899772834645665
21
5.6648664173228349
0
LINE
8
BLACK
6
CONTINUOUS
10
-4.8899772834645665
20
5.6648664173228349
11
-4.8877404330708663
21
5.6692564566929136
0
LINE
8
BLACK
6
CONTINUOUS
10
-4.8877404330708663
20
5.6692564566929136
11
-4.8842564566929134
21
5.6727404330708664
0
LINE
8
BLACK
6
CONTINUOUS
10
-4.8842564566929134
20
5.6727404330708664
11
-4.8798664173228348
21
5.6749772834645666
0
LINE
8
BLACK
6
CONTINUOUS
10
-4.8798664173228348
20
5.6749772834645666
11
-4.875
21
5.6757480314960631
0
LINE
8
BLACK
6
CONTINUOUS
10
-4.875
20
5.6757480314960631
11
-4.8701335826771652
21
5.6749772834645666
0
LINE
8
BLACK
6
CONTINUOUS
10
-4.8701335826771652
20
5.6749772834645666
11
-4.8657435433070866
21
5.6727404330708664
0
LINE
8
BLACK
6
CONTINUOUS
10
-4.8657435433070866
20
5.6727404330708664
11
-4.8622595669291337
21
5.6692564566929136
0
LINE
8
BLACK
6
CONTINUOUS
10
-4.8622595669291337
20
5.6692564566929136
11
-4.8615551574803151
21
5.6678740157480316
0
LINE
8
BLACK
6
CONTINUOUS
10
-4.8615551574803151
20
5.6678740157480316
11
-4.8401352755905513
21
5.6678740157480316
0
LINE
8
BLACK
6
CONTINUOUS
10
-4.8401352755905513
20
5.6678740157480316
11
-4.8399441732283464
21
5.6688347637795271
0
LINE
8
BLACK
6
CONTINUOUS
10
-4.8399441732283464
20
5.6688347637795271
11
-4.838664015748031
21
5.67075062992126
0
LINE
8
BLACK
6
CONTINUOUS
10
-4.838664015748031
20
5.67075062992126
11
-4.836748149606299
21
5.6720307874015745
0
LINE
8
BLACK
6
CONTINUOUS
10
-4.836748149606299
20
5.6720307874015745
11
-4.834488188976378
21
5.6724803149606302
0
LINE
8
BLACK
6
CONTINUOUS
10
-4.834488188976378
20
5.6724803149606302
11
-4.7793700787401576
21
5.6724803149606302
0
LINE
8
BLACK
6
CONTINUOUS
10
-4.7793700787401576
20
5.6724803149606302
11
-4.7771101181102358
21
5.6720307874015745
0
LINE
8
BLACK
6
CONTINUOUS
10
-4.7771101181102358
20
5.6720307874015745
11
-4.7751942519685038
21
5.67075062992126
0
LINE
8
BLACK
6
CONTINUOUS
10
-4.7751942519685038
20
5.67075062992126
11
-4.7739140944881893
21
5.6688347637795271
0
LINE
8
BLACK
6
CONTINUOUS
10
-4.7739140944881893
20
5.6688347637795271
11
-4.7738561023622044
21
5.6685433070866145
0
LINE
8
BLACK
6
CONTINUOUS
10
-4.7738561023622044
20
5.6685433070866145
11
-4.4831992913385825
21
5.6685433070866145
0
LINE
8
BLACK
6
CONTINUOUS
10
-4.4831992913385825
20
5.6685433070866145
11
-4.4826397637795274
21
5.6696414173228344
0
LINE
8
BLACK
6
CONTINUOUS
10
-4.4826397637795274
20
5.6696414173228344
11
-4.4791557874015746
21
5.6731253937007873
0
LINE
8
BLACK
6
CONTINUOUS
10
-4.4791557874015746
20
5.6731253937007873
11
-4.474765748031496
21
5.6753622440944884
0
LINE
8
BLACK
6
CONTINUOUS
10
-4.474765748031496
20
5.6753622440944884
11
-4.4698993307086612
21
5.676132992125984
0
LINE
8
BLACK
6
CONTINUOUS
10
-4.4698993307086612
20
5.676132992125984
11
-4.4650329133858264
21
5.6753622440944884
0
LINE
8
BLACK
6
CONTINUOUS
10
-4.7350154724409448
20
5.7248591732283467
11
-4.7306254330708661
21
5.7226223228346456
0
LINE
8
BLACK
6
CONTINUOUS
10
-4.7306254330708661
20
5.7226223228346456
11
-4.7271414566929133
21
5.7191383464566927
0
LINE
8
BLACK
6
CONTINUOUS
10
-4.7271414566929133
20
5.7191383464566927
11
-4.7249046062992122
21
5.7147483070866141
0
LINE
8
BLACK
6
CONTINUOUS
10
-4.7249046062992122
20
5.7147483070866141
11
-4.7241338582677166
21
5.7098818897637793
0
LINE
8
BLACK
6
CONTINUOUS
10
-4.7241338582677166
20
5.7098818897637793
11
-4.7247645275590546
21
5.7058999999999997
0
LINE
8
BLACK
6
CONTINUOUS
10
-4.7247645275590546
20
5.7058999999999997
11
-4.7186002755905507
21
5.6997357874015746
0
LINE
8
BLACK
6
CONTINUOUS
10
-4.7186002755905507
20
5.6997357874015746
11
-4.4568617716535428
21
5.6997357874015746
0
LINE
8
BLACK
6
CONTINUOUS
10
-4.4568617716535428
20
5.6997357874015746
11
-4.4555738582677167
21
5.6994418110236218
0
LINE
8
BLACK
6
CONTINUOUS
10
-4.4555738582677167
20
5.6994418110236218
11
-4.4542611417322835
21
5.6992939370078739
0
LINE
8
BLACK
6
CONTINUOUS
10
-4.4542611417322835
20
5.6992939370078739
11
-4.4538819685039366
21
5.6990556692913383
0
LINE
8
BLACK
6
CONTINUOUS
10
-4.4538819685039366
20
5.6990556692913383
11
-4.4534453543307082
21
5.6989560236220473
0
LINE
8
BLACK
6
CONTINUOUS
10
-4.4534453543307082
20
5.6989560236220473
11
-4.452412480314961
21
5.6981322834645667
0
LINE
8
BLACK
6
CONTINUOUS
10
-4.452412480314961
20
5.6981322834645667
11
-4.4512940157480312
21
5.6974295275590547
0
LINE
8
BLACK
6
CONTINUOUS
10
-4.4512940157480312
20
5.6974295275590547
11
-4.4289818503937006
21
5.6751173622047242
0
LINE
8
BLACK
6
CONTINUOUS
10
-4.4289818503937006
20
5.6751173622047242
11
-4.4249999999999998
21
5.6757480314960631
0
LINE
8
BLACK
6
CONTINUOUS
10
-4.4249999999999998
20
5.6757480314960631
11
-4.4201335826771651
21
5.6749772834645666
0
LINE
8
BLACK
6
CONTINUOUS
10
-4.4201335826771651
20
5.6749772834645666
11
-4.4157435433070864
21
5.6727404330708664
0
LINE
8
BLACK
6
CONTINUOUS
10
-4.4157435433070864
20
5.6727404330708664
11
-4.4122595669291336
21
5.6692564566929136
0
LINE
8
BLACK
6
CONTINUOUS
10
-4.4122595669291336
20
5.6692564566929136
11
-4.4100227165354333
21
5.6648664173228349
0
LINE
8
BLACK
6
CONTINUOUS
10
-4.4100227165354333
20
5.6648664173228349
11
-4.4092519685039369
21
5.6600000000000001
0
LINE
8
BLACK
6
CONTINUOUS
10
-4.4092519685039369
20
5.6600000000000001
11
-4.4100227165354333
21
5.6551335826771654
0
LINE
8
BLACK
6
CONTINUOUS
10
-4.4100227165354333
20
5.6551335826771654
11
-4.4122595669291336
21
5.6507435433070867
0
LINE
8
BLACK
6
CONTINUOUS
10
-4.4122595669291336
20
5.6507435433070867
11
-4.4157435433070864
21
5.6472595669291339
0
LINE
8
BLACK
6
CONTINUOUS
10
-4.4157435433070864
20
5.6472595669291339
11
-4.4201335826771651
21
5.6450227165354327
0
LINE
8
BLACK
6
CONTINUOUS
10
-4.4201335826771651
20
5.6450227165354327
11
-4.4249999999999998
21
5.6442519685039372
0
LINE
8
BLACK
6
CONTINUOUS
10
-4.4249999999999998
20
5.6442519685039372
11
-4.4298664173228346
21
5.6450227165354327
0
LINE
8
BLACK
6
CONTINUOUS
10
-4.4298664173228346
20
5.6450227165354327
11
-4.4342564566929132
21
5.6472595669291339
0
LINE
8
BLACK
6
CONTINUOUS
10
-4.4342564566929132
20
5.6472595669291339
11
-4.4377404330708661
21
5.6507435433070867
0
LINE
8
BLACK
6
CONTINUOUS
10
-4.4377404330708661
20
5.6507435433070867
11
-4.4399772834645672
21
5.6551335826771654
0
LINE
8
BLACK
6
CONTINUOUS
10
-4.4399772834645672
20
5.6551335826771654
11
-4.4407480314960628
21
5.6600000000000001
0
LINE
8
BLACK
6
CONTINUOUS
10
-4.4407480314960628
20
5.6600000000000001
11
-4.4401174015748026
21
5.6639818110236222
0
LINE
8
BLACK
6
CONTINUOUS
10
-4.4401174015748026
20
5.6639818110236222
11
-4.4601232677165354
21
5.6839877559055116
0
LINE
8
BLACK
6
CONTINUOUS
10
-4.4601232677165354
20
5.6839877559055116
11
-4.7218617716535434
21
5.6839877559055116
0
LINE
8
BLACK
6
CONTINUOUS
10
-4.7218617716535434
20
5.6839877559055116
11
-4.7231497244094491
21
5.6842816929133857
0
LINE
8
BLACK
6
CONTINUOUS
10
-4.7231497244094491
20
5.6842816929133857
11
-4.7244624015748027
21
5.6844296062992123
0
LINE
8
BLACK
6
CONTINUOUS
10
-4.7244624015748027
20
5.6844296062992123
11
-4.7248416141732283
21
5.6846678346456692
0
LINE
8
BLACK
6
CONTINUOUS
10
-4.7248416141732283
20
5.6846678346456692
11
-4.725278188976378
21
5.6847675196850389
0
LINE
8
BLACK
6
CONTINUOUS
10
-4.725278188976378
20
5.6847675196850389
11
-4.7263111023622049
21
5.6855912204724408
0
LINE
8
BLACK
6
CONTINUOUS
10
-4.7263111023622049
20
5.6855912204724408
11
-4.727429527559055
21
5.6862940157480315
0
LINE
8
BLACK
6
CONTINUOUS
10
-4.727429527559055
20
5.6862940157480315
11
-4.7359000393700788
21
5.6947644881889765
0
LINE
8
BLACK
6
CONTINUOUS
10
-4.7359000393700788
20
5.6947644881889765
11
-4.7398818897637796
21
5.6941338582677163
0
LINE
8
BLACK
6
CONTINUOUS
10
-4.7398818897637796
20
5.6941338582677163
11
-4.7447483070866143
21
5.6949046062992128
0
LINE
8
BLACK
6
CONTINUOUS
10
-4.7447483070866143
20
5.6949046062992128
11
-4.749138346456693
21
5.6971414566929131
0
LINE
8
BLACK
6
CONTINUOUS
10
-4.749138346456693
20
5.6971414566929131
11
-4.7526223228346458
21
5.7006254330708659
0
LINE
8
BLACK
6
CONTINUOUS
10
-4.7526223228346458
20
5.7006254330708659
11
-4.7533267322834645
21
5.7020078740157478
0
LINE
8
BLACK
6
CONTINUOUS
10
-4.7533267322834645
20
5.7020078740157478
11
-4.7738561023622044
21
5.7020078740157478
0
LINE
8
BLACK
6
CONTINUOUS
10
-4.7738561023622044
20
5.7020078740157478
11
-4.7739140944881893
21
5.7017164173228343
0
LINE
8
BLACK
6
CONTINUOUS
10
-4.7739140944881893
20
5.7017164173228343
11
-4.7751942519685038
21
5.6998005511811023
0
LINE
8
BLACK
6
CONTINUOUS
10
-4.7751942519685038
20
5.6998005511811023
11
-4.7771101181102358
21
5.6985203937007869
0
LINE
8
BLACK
6
CONTINUOUS
10
-4.7771101181102358
20
5.6985203937007869
11
-4.7793700787401576
21
5.6980708661417321
0
LINE
8
BLACK
6
CONTINUOUS
10
-4.7793700787401576
20
5.6980708661417321
11
-4.834488188976378
21
5.6980708661417321
0
LINE
8
BLACK
6
CONTINUOUS
10
-4.834488188976378
20
5.6980708661417321
11
-4.836748149606299
21
5.6985203937007869
0
LINE
8
BLACK
6
CONTINUOUS
10
-4.836748149606299
20
5.6985203937007869
11
-4.838664015748031
21
5.6998005511811023
0
LINE
8
BLACK
6
CONTINUOUS
10
-4.838664015748031
20
5.6998005511811023
11
-4.8399441732283464
21
5.7017164173228343
0
LINE
8
BLACK
6
CONTINUOUS
10
-4.8399441732283464
20
5.7017164173228343
11
-4.8403937007874012
21
5.7039763779527561
0
LINE
8
BLACK
6
CONTINUOUS
10
-4.8403937007874012
20
5.7039763779527561
11
-4.8403937007874012
21
5.7157874015748034
0
LINE
8
BLACK
6
CONTINUOUS
10
-4.8403937007874012
20
5.7157874015748034
11
-4.8399441732283464
21
5.7180473622047243
0
LINE
8
BLACK
6
CONTINUOUS
10
-4.8399441732283464
20
5.7180473622047243
11
-4.838664015748031
21
5.7199632283464563
0
LINE
8
BLACK
6
CONTINUOUS
10
-4.838664015748031
20
5.7199632283464563
11
-4.836748149606299
21
5.7212433858267717
0
LINE
8
BLACK
6
CONTINUOUS
10
-4.836748149606299
20
5.7212433858267717
11
-4.834488188976378
21
5.7216929133858265
0
LINE
8
BLACK
6
CONTINUOUS
10
-4.834488188976378
20
5.7216929133858265
11
-4.7793700787401576
21
5.7216929133858265
0
LINE
8
BLACK
6
CONTINUOUS
10
-4.7793700787401576
20
5.7216929133858265
11
-4.7771101181102358
21
5.7212433858267717
0
LINE
8
BLACK
6
CONTINUOUS
10
-4.7771101181102358
20
5.7212433858267717
11
-4.7751942519685038
21
5.7199632283464563
0
LINE
8
BLACK
6
CONTINUOUS
10
-4.7751942519685038
20
5.7199632283464563
11
-4.7739140944881893
21
5.7180473622047243
0
LINE
8
BLACK
6
CONTINUOUS
10
-4.7739140944881893
20
5.7180473622047243
11
-4.7738561023622044
21
5.7177559055118108
0
LINE
8
BLACK
6
CONTINUOUS
10
-4.7738561023622044
20
5.7177559055118108
11
-4.7533267322834645
21
5.7177559055118108
0
LINE
8
BLACK
6
CONTINUOUS
10
-4.7533267322834645
20
5.7177559055118108
11
-4.7526223228346458
21
5.7191383464566927
0
LINE
8
BLACK
6
CONTINUOUS
10
-4.7526223228346458
20
5.7191383464566927
11
-4.749138346456693
21
5.7226223228346456
0
LINE
8
BLACK
6
CONTINUOUS
10
-4.749138346456693
20
5.7226223228346456
11
-4.7447483070866143
21
5.7248591732283467
0
LINE
8
BLACK
6
CONTINUOUS
10
-4.7447483070866143
20
5.7248591732283467
11
-4.7398818897637796
21
5.7256299212598423
0
LINE
8
BLACK
6
CONTINUOUS
10
-4.7398818897637796
20
5.7256299212598423
11
-4.7350154724409448
21
5.7248591732283467
0
LINE
8
BLACK
6
CONTINUOUS
10
-4.250802874015748
20
5.6756465748031495
11
-4.2464128346456693
21
5.6734097244094484
0
LINE
8
BLACK
6
CONTINUOUS
10
-4.2464128346456693
20
5.6734097244094484
11
-4.2429288582677165
21
5.6699257480314955
0
LINE
8
BLACK
6
CONTINUOUS
10
-4.2429288582677165
20
5.6699257480314955
11
-4.2422244488188978
21
5.6685433070866145
0
LINE
8
BLACK
6
CONTINUOUS
10
-4.2422244488188978
20
5.6685433070866145
11
-4.2218919291338581
21
5.6685433070866145
0
LINE
8
BLACK
6
CONTINUOUS
10
-4.2218919291338581
20
5.6685433070866145
11
-4.2218339370078741
21
5.6688347637795271
0
LINE
8
BLACK
6
CONTINUOUS
10
-4.2218339370078741
20
5.6688347637795271
11
-4.2205537795275587
21
5.67075062992126
0
LINE
8
BLACK
6
CONTINUOUS
10
-4.2205537795275587
20
5.67075062992126
11
-4.2186379133858267
21
5.6720307874015745
0
LINE
8
BLACK
6
CONTINUOUS
10
-4.2186379133858267
20
5.6720307874015745
11
-4.2163779527559058
21
5.6724803149606302
0
LINE
8
BLACK
6
CONTINUOUS
10
-4.2163779527559058
20
5.6724803149606302
11
-4.1612598425196845
21
5.6724803149606302
0
LINE
8
BLACK
6
CONTINUOUS
10
-4.1612598425196845
20
5.6724803149606302
11
-4.1589998818897636
21
5.6720307874015745
0
LINE
8
BLACK
6
CONTINUOUS
10
-4.1589998818897636
20
5.6720307874015745
11
-4.1570840157480315
21
5.67075062992126
0
LINE
8
BLACK
6
CONTINUOUS
10
-4.1570840157480315
20
5.67075062992126
11
-4.1558038582677161
21
5.6688347637795271
0
LINE
8
BLACK
6
CONTINUOUS
10
-4.1558038582677161
20
5.6688347637795271
11
-4.1553543307086613
21
5.6665748031496062
0
LINE
8
BLACK
6
CONTINUOUS
10
-4.1553543307086613
20
5.6665748031496062
11
-4.1553543307086613
21
5.6547637795275589
0
LINE
8
BLACK
6
CONTINUOUS
10
-4.1553543307086613
20
5.6547637795275589
11
-4.1558038582677161
21
5.652503818897638
0
LINE
8
BLACK
6
CONTINUOUS
10
-4.1558038582677161
20
5.652503818897638
11
-4.1570840157480315
21
5.6505879527559051
0
LINE
8
BLACK
6
CONTINUOUS
10
-4.1570840157480315
20
5.6505879527559051
11
-4.1589998818897636
21
5.6493077952755906
0
LINE
8
BLACK
6
CONTINUOUS
10
-4.1589998818897636
20
5.6493077952755906
11
-4.1612598425196845
21
5.6488582677165349
0
LINE
8
BLACK
6
CONTINUOUS
10
-4.1612598425196845
20
5.6488582677165349
11
-4.2163779527559058
21
5.6488582677165349
0
LINE
8
BLACK
6
CONTINUOUS
10
-4.2163779527559058
20
5.6488582677165349
11
-4.2186379133858267
21
5.6493077952755906
0
LINE
8
BLACK
6
CONTINUOUS
10
-4.2186379133858267
20
5.6493077952755906
11
-4.2205537795275587
21
5.6505879527559051
0
LINE
8
BLACK
6
CONTINUOUS
10
-4.2205537795275587
20
5.6505879527559051
11
-4.2218339370078741
21
5.652503818897638
0
LINE
8
BLACK
6
CONTINUOUS
10
-4.2218339370078741
20
5.652503818897638
11
-4.2218919291338581
21
5.6527952755905506
0
LINE
8
BLACK
6
CONTINUOUS
10
-4.2218919291338581
20
5.6527952755905506
11
-4.2422244488188978
21
5.6527952755905506
0
LINE
8
BLACK
6
CONTINUOUS
10
-4.2422244488188978
20
5.6527952755905506
11
-4.2429288582677165
21
5.6514128346456696
0
LINE
8
BLACK
6
CONTINUOUS
10
-4.2429288582677165
20
5.6514128346456696
11
-4.2464128346456693
21
5.6479288582677167
0
LINE
8
BLACK
6
CONTINUOUS
10
-4.2464128346456693
20
5.6479288582677167
11
-4.250802874015748
21
5.6456920078740156
0
LINE
8
BLACK
6
CONTINUOUS
10
-4.250802874015748
20
5.6456920078740156
11
-4.2556692913385827
21
5.6449212598425191
0
LINE
8
BLACK
6
CONTINUOUS
10
-4.2556692913385827
20
5.6449212598425191
11
-4.2605357086614175
21
5.6456920078740156
0
LINE
8
BLACK
6
CONTINUOUS
10
-4.2605357086614175
20
5.6456920078740156
11
-4.2649257480314962
21
5.6479288582677167
0
LINE
8
BLACK
6
CONTINUOUS
10
-4.2649257480314962
20
5.6479288582677167
11
-4.268409724409449
21
5.6514128346456696
0
LINE
8
BLACK
6
CONTINUOUS
10
-4.268409724409449
20
5.6514128346456696
11
-4.2691141338582677
21
5.6527952755905506
0
LINE
8
BLACK
6
CONTINUOUS
10
-4.2691141338582677
20
5.6527952755905506
11
-4.3512141338582673
21
5.6527952755905506
0
LINE
8
BLACK
6
CONTINUOUS
10
-4.3512141338582673
20
5.6527952755905506
11
-4.352259566929134
21
5.6507435433070867
0
LINE
8
BLACK
6
CONTINUOUS
10
-4.352259566929134
20
5.6507435433070867
11
-4.3557435433070868
21
5.6472595669291339
0
LINE
8
BLACK
6
CONTINUOUS
10
-4.3557435433070868
20
5.6472595669291339
11
-4.3601335826771654
21
5.6450227165354327
0
LINE
8
BLACK
6
CONTINUOUS
10
-4.3601335826771654
20
5.6450227165354327
11
-4.3650000000000002
21
5.6442519685039372
0
LINE
8
BLACK
6
CONTINUOUS
10
-4.3650000000000002
20
5.6442519685039372
11
-4.369866417322835
21
5.6450227165354327
0
LINE
8
BLACK
6
CONTINUOUS
10
-4.369866417322835
20
5.6450227165354327
11
-4.3742564566929136
21
5.6472595669291339
0
LINE
8
BLACK
6
CONTINUOUS
10
-4.3742564566929136
20
5.6472595669291339
11
-4.3777404330708665
21
5.6507435433070867
0
LINE
8
BLACK
6
CONTINUOUS
10
-4.3777404330708665
20
5.6507435433070867
11
-4.3799772834645667
21
5.6551335826771654
0
LINE
8
BLACK
6
CONTINUOUS
10
-4.3799772834645667
20
5.6551335826771654
11
-4.3807480314960632
21
5.6600000000000001
0
LINE
8
BLACK
6
CONTINUOUS
10
-4.3807480314960632
20
5.6600000000000001
11
-4.3799772834645667
21
5.6648664173228349
0
LINE
8
BLACK
6
CONTINUOUS
10
-4.3799772834645667
20
5.6648664173228349
11
-4.3777404330708665
21
5.6692564566929136
0
LINE
8
BLACK
6
CONTINUOUS
10
-4.3777404330708665
20
5.6692564566929136
11
-4.3742564566929136
21
5.6727404330708664
0
LINE
8
BLACK
6
CONTINUOUS
10
-4.3742564566929136
20
5.6727404330708664
11
-4.369866417322835
21
5.6749772834645666
0
LINE
8
BLACK
6
CONTINUOUS
10
-4.369866417322835
20
5.6749772834645666
11
-4.3650000000000002
21
5.6757480314960631
0
LINE
8
BLACK
6
CONTINUOUS
10
-4.3650000000000002
20
5.6757480314960631
11
-4.3601335826771654
21
5.6749772834645666
0
LINE
8
BLACK
6
CONTINUOUS
10
-4.3601335826771654
20
5.6749772834645666
11
-4.3557435433070868
21
5.6727404330708664
0
LINE
8
BLACK
6
CONTINUOUS
10
-4.3557435433070868
20
5.6727404330708664
11
-4.352259566929134
21
5.6692564566929136
0
LINE
8
BLACK
6
CONTINUOUS
10
-4.352259566929134
20
5.6692564566929136
11
-4.3518961811023624
21
5.6685433070866145
0
LINE
8
BLACK
6
CONTINUOUS
10
-4.3518961811023624
20
5.6685433070866145
11
-4.2691141338582677
21
5.6685433070866145
0
LINE
8
BLACK
6
CONTINUOUS
10
-4.2691141338582677
20
5.6685433070866145
11
-4.268409724409449
21
5.6699257480314955
0
LINE
8
BLACK
6
CONTINUOUS
10
-4.268409724409449
20
5.6699257480314955
11
-4.2649257480314962
21
5.6734097244094484
0
LINE
8
BLACK
6
CONTINUOUS
10
-4.2649257480314962
20
5.6734097244094484
11
-4.2605357086614175
21
5.6756465748031495
0
LINE
8
BLACK
6
CONTINUOUS
10
-4.2605357086614175
20
5.6756465748031495
11
-4.2556692913385827
21
5.676417322834646
0
LINE
8
BLACK
6
CONTINUOUS
10
-4.2556692913385827
20
5.676417322834646
11
-4.250802874015748
21
5.6756465748031495
0
LINE
8
BLACK
6
CONTINUOUS
10
-4.3891084251968504
20
5.7245271259842516
11
-4.3847183858267718
21
5.7222902755905514
0
LINE
8
BLACK
6
CONTINUOUS
10
-4.3847183858267718
20
5.7222902755905514
11
-4.3812344094488189
21
5.7188062992125985
0
LINE
8
BLACK
6
CONTINUOUS
10
-4.3812344094488189
20
5.7188062992125985
11
-4.380699212598425
21
5.7177559055118108
0
LINE
8
BLACK
6
CONTINUOUS
10
-4.380699212598425
20
5.7177559055118108
11
-4.2218919291338581
21
5.7177559055118108
0
LINE
8
BLACK
6
CONTINUOUS
10
-4.2218919291338581
20
5.7177559055118108
11
-4.2218339370078741
21
5.7180473622047243
0
LINE
8
BLACK
6
CONTINUOUS
10
-4.2218339370078741
20
5.7180473622047243
11
-4.2205537795275587
21
5.7199632283464563
0
LINE
8
BLACK
6
CONTINUOUS
10
-4.2205537795275587
20
5.7199632283464563
11
-4.2186379133858267
21
5.7212433858267717
0
LINE
8
BLACK
6
CONTINUOUS
10
-4.2186379133858267
20
5.7212433858267717
11
-4.2163779527559058
21
5.7216929133858265
0
LINE
8
BLACK
6
CONTINUOUS
10
-4.2163779527559058
20
5.7216929133858265
11
-4.1612598425196845
21
5.7216929133858265
0
LINE
8
BLACK
6
CONTINUOUS
10
-4.1612598425196845
20
5.7216929133858265
11
-4.1589998818897636
21
5.7212433858267717
0
LINE
8
BLACK
6
CONTINUOUS
10
-4.1589998818897636
20
5.7212433858267717
11
-4.1570840157480315
21
5.7199632283464563
0
LINE
8
BLACK
6
CONTINUOUS
10
-4.1570840157480315
20
5.7199632283464563
11
-4.1558038582677161
21
5.7180473622047243
0
LINE
8
BLACK
6
CONTINUOUS
10
-4.1558038582677161
20
5.7180473622047243
11
-4.1557458661417321
21
5.7177559055118108
0
LINE
8
BLACK
6
CONTINUOUS
10
-4.1557458661417321
20
5.7177559055118108
11
-4.1508267716535432
21
5.7177559055118108
0
LINE
8
BLACK
6
CONTINUOUS
10
-4.1508267716535432
20
5.7177559055118108
11
-4.1495388582677162
21
5.717461929133858
0
LINE
8
BLACK
6
CONTINUOUS
10
-4.1495388582677162
20
5.717461929133858
11
-4.148226141732283
21
5.7173140551181101
0
LINE
8
BLACK
6
CONTINUOUS
10
-4.148226141732283
20
5.7173140551181101
11
-4.147846968503937
21
5.7170757874015745
0
LINE
8
BLACK
6
CONTINUOUS
10
-4.147846968503937
20
5.7170757874015745
11
-4.1474103543307086
21
5.7169761417322835
0
LINE
8
BLACK
6
CONTINUOUS
10
-4.1474103543307086
20
5.7169761417322835
11
-4.1463774803149605
21
5.7161524015748029
0
LINE
8
BLACK
6
CONTINUOUS
10
-4.1463774803149605
20
5.7161524015748029
11
-4.1452590157480316
21
5.7154496456692909
0
LINE
8
BLACK
6
CONTINUOUS
10
-4.1452590157480316
20
5.7154496456692909
11
-4.1261842125984254
21
5.6963748818897635
0
LINE
8
BLACK
6
CONTINUOUS
10
-4.1261842125984254
20
5.6963748818897635
11
-4.1254813779527559
21
5.6952562992125983
0
LINE
8
BLACK
6
CONTINUOUS
10
-4.1254813779527559
20
5.6952562992125983
11
-4.1246577165354328
21
5.6942235039370077
0
LINE
8
BLACK
6
CONTINUOUS
10
-4.1246577165354328
20
5.6942235039370077
11
-4.1245580708661418
21
5.6937868897637793
0
LINE
8
BLACK
6
CONTINUOUS
10
-4.1245580708661418
20
5.6937868897637793
11
-4.1243198031496062
21
5.6934077165354333
0
LINE
8
BLACK
6
CONTINUOUS
10
-4.1243198031496062
20
5.6934077165354333
11
-4.1241719291338583
21
5.6920949606299214
0
LINE
8
BLACK
6
CONTINUOUS
10
-4.1241719291338583
20
5.6920949606299214
11
-4.1238779527559055
21
5.6908070866141731
0
LINE
8
BLACK
6
CONTINUOUS
10
-4.1238779527559055
20
5.6908070866141731
11
-4.1238779527559055
21
5.6758777952755901
0
LINE
8
BLACK
6
CONTINUOUS
10
-4.1238779527559055
20
5.6758777952755901
11
-4.1224955118110236
21
5.6751734251968502
0
LINE
8
BLACK
6
CONTINUOUS
10
-4.1224955118110236
20
5.6751734251968502
11
-4.1190115354330707
21
5.6716894488188974
0
LINE
8
BLACK
6
CONTINUOUS
10
-4.1190115354330707
20
5.6716894488188974
11
-4.1167746850393696
21
5.6672994094488187
0
LINE
8
BLACK
6
CONTINUOUS
10
-4.1167746850393696
20
5.6672994094488187
11
-4.116003937007874
21
5.6624329921259839
0
LINE
8
BLACK
6
CONTINUOUS
10
-4.116003937007874
20
5.6624329921259839
11
-4.1167746850393696
21
5.6575665748031492
0
LINE
8
BLACK
6
CONTINUOUS
10
-4.1167746850393696
20
5.6575665748031492
11
-4.1190115354330707
21
5.6531765354330705
0
LINE
8
BLACK
6
CONTINUOUS
10
-4.1190115354330707
20
5.6531765354330705
11
-4.1224955118110236
21
5.6496925590551177
0
LINE
8
BLACK
6
CONTINUOUS
10
-4.1224955118110236
20
5.6496925590551177
11
-4.1268855511811022
21
5.6474557086614174
0
LINE
8
BLACK
6
CONTINUOUS
10
-4.1268855511811022
20
5.6474557086614174
11
-4.131751968503937
21
5.646684960629921
0
LINE
8
BLACK
6
CONTINUOUS
10
-4.131751968503937
20
5.646684960629921
11
-4.1366183858267718
21
5.6474557086614174
0
LINE
8
BLACK
6
CONTINUOUS
10
-4.1366183858267718
20
5.6474557086614174
11
-4.1410084251968504
21
5.6496925590551177
0
LINE
8
BLACK
6
CONTINUOUS
10
-4.1410084251968504
20
5.6496925590551177
11
-4.1444924015748033
21
5.6531765354330705
0
LINE
8
BLACK
6
CONTINUOUS
10
-4.1444924015748033
20
5.6531765354330705
11
-4.1467292519685035
21
5.6575665748031492
0
LINE
8
BLACK
6
CONTINUOUS
10
-4.1467292519685035
20
5.6575665748031492
11
-4.1475
21
5.6624329921259839
0
LINE
8
BLACK
6
CONTINUOUS
10
-4.1475
20
5.6624329921259839
11
-4.1467292519685035
21
5.6672994094488187
0
LINE
8
BLACK
6
CONTINUOUS
10
-4.1467292519685035
20
5.6672994094488187
11
-4.1444924015748033
21
5.6716894488188974
0
LINE
8
BLACK
6
CONTINUOUS
10
-4.1444924015748033
20
5.6716894488188974
11
-4.1410084251968504
21
5.6751734251968502
0
LINE
8
BLACK
6
CONTINUOUS
10
-4.1410084251968504
20
5.6751734251968502
11
-4.1396259842519685
21
5.6758777952755901
0
LINE
8
BLACK
6
CONTINUOUS
10
-4.1396259842519685
20
5.6758777952755901
11
-4.1396259842519685
21
5.6875455511811026
0
LINE
8
BLACK
6
CONTINUOUS
10
-4.1396259842519685
20
5.6875455511811026
11
-4.1540882677165349
21
5.7020078740157478
0
LINE
8
BLACK
6
CONTINUOUS
10
-4.1540882677165349
20
5.7020078740157478
11
-4.1557458661417321
21
5.7020078740157478
0
LINE
8
BLACK
6
CONTINUOUS
10
-4.1557458661417321
20
5.7020078740157478
11
-4.1558038582677161
21
5.7017164173228343
0
LINE
8
BLACK
6
CONTINUOUS
10
-4.1558038582677161
20
5.7017164173228343
11
-4.1570840157480315
21
5.6998005511811023
0
LINE
8
BLACK
6
CONTINUOUS
10
-4.1570840157480315
20
5.6998005511811023
11
-4.1589998818897636
21
5.6985203937007869
0
LINE
8
BLACK
6
CONTINUOUS
10
-4.1589998818897636
20
5.6985203937007869
11
-4.1612598425196845
21
5.6980708661417321
0
LINE
8
BLACK
6
CONTINUOUS
10
-4.1612598425196845
20
5.6980708661417321
11
-4.2163779527559058
21
5.6980708661417321
0
LINE
8
BLACK
6
CONTINUOUS
10
-4.2163779527559058
20
5.6980708661417321
11
-4.2186379133858267
21
5.6985203937007869
0
LINE
8
BLACK
6
CONTINUOUS
10
-4.2186379133858267
20
5.6985203937007869
11
-4.2205537795275587
21
5.6998005511811023
0
LINE
8
BLACK
6
CONTINUOUS
10
-4.2205537795275587
20
5.6998005511811023
11
-4.2218339370078741
21
5.7017164173228343
0
LINE
8
BLACK
6
CONTINUOUS
10
-4.2218339370078741
20
5.7017164173228343
11
-4.2218919291338581
21
5.7020078740157478
0
LINE
8
BLACK
6
CONTINUOUS
10
-4.2218919291338581
20
5.7020078740157478
11
-4.3803608267716534
21
5.7020078740157478
0
LINE
8
BLACK
6
CONTINUOUS
10
-4.3803608267716534
20
5.7020078740157478
11
-4.3812344094488189
21
5.7002933858267717
0
LINE
8
BLACK
6
CONTINUOUS
10
-4.3812344094488189
20
5.7002933858267717
11
-4.3847183858267718
21
5.6968094094488189
0
LINE
8
BLACK
6
CONTINUOUS
10
-4.3847183858267718
20
5.6968094094488189
11
-4.3891084251968504
21
5.6945725590551177
0
LINE
8
BLACK
6
CONTINUOUS
10
-4.3891084251968504
20
5.6945725590551177
11
-4.3939748425196852
21
5.6938018110236222
0
LINE
8
BLACK
6
CONTINUOUS
10
-4.3939748425196852
20
5.6938018110236222
11
-4.3988412598425199
21
5.6945725590551177
0
LINE
8
BLACK
6
CONTINUOUS
10
-4.3988412598425199
20
5.6945725590551177
11
-4.4032312992125986
21
5.6968094094488189
0
LINE
8
BLACK
6
CONTINUOUS
10
-4.4032312992125986
20
5.6968094094488189
11
-4.4067152755905514
21
5.7002933858267717
0
LINE
8
BLACK
6
CONTINUOUS
10
-4.4067152755905514
20
5.7002933858267717
11
-4.4089521259842517
21
5.7046834251968503
0
LINE
8
BLACK
6
CONTINUOUS
10
-4.4089521259842517
20
5.7046834251968503
11
-4.4097228740157481
21
5.7095498425196851
0
LINE
8
BLACK
6
CONTINUOUS
10
-4.4097228740157481
20
5.7095498425196851
11
-4.4089521259842517
21
5.7144162598425199
0
LINE
8
BLACK
6
CONTINUOUS
10
-4.4089521259842517
20
5.7144162598425199
11
-4.4067152755905514
21
5.7188062992125985
0
LINE
8
BLACK
6
CONTINUOUS
10
-4.4067152755905514
20
5.7188062992125985
11
-4.4032312992125986
21
5.7222902755905514
0
LINE
8
BLACK
6
CONTINUOUS
10
-4.4032312992125986
20
5.7222902755905514
11
-4.3988412598425199
21
5.7245271259842516
0
LINE
8
BLACK
6
CONTINUOUS
10
-4.3988412598425199
20
5.7245271259842516
11
-4.3939748425196852
21
5.7252978740157481
0
LINE
8
BLACK
6
CONTINUOUS
10
-4.3939748425196852
20
5.7252978740157481
11
-4.3891084251968504
21
5.7245271259842516
0
LINE
8
BLACK
6
CONTINUOUS
10
-4.3330272834645669
20
5.786867047244094
11
-4.3286372440944882
21
5.7846301968503937
0
LINE
8
BLACK
6
CONTINUOUS
10
-4.3286372440944882
20
5.7846301968503937
11
-4.3251532677165354
21
5.7811462204724409
0
LINE
8
BLACK
6
CONTINUOUS
10
-4.3251532677165354
20
5.7811462204724409
11
-4.3229164173228343
21
5.7767561811023622
0
LINE
8
BLACK
6
CONTINUOUS
10
-4.3229164173228343
20
5.7767561811023622
11
-4.3221456692913387
21
5.7718897637795274
0
LINE
8
BLACK
6
CONTINUOUS
10
-4.3221456692913387
20
5.7718897637795274
11
-4.3229164173228343
21
5.7670233464566927
0
LINE
8
BLACK
6
CONTINUOUS
10
-4.3229164173228343
20
5.7670233464566927
11
-4.3251532677165354
21
5.762633307086614
0
LINE
8
BLACK
6
CONTINUOUS
10
-4.3251532677165354
20
5.762633307086614
11
-4.3286372440944882
21
5.7591493307086612
0
LINE
8
BLACK
6
CONTINUOUS
10
-4.3286372440944882
20
5.7591493307086612
11
-4.3330272834645669
21
5.7569124803149601
0
LINE
8
BLACK
6
CONTINUOUS
10
-4.3330272834645669
20
5.7569124803149601
11
-4.3378937007874017
21
5.7561417322834645
0
LINE
8
BLACK
6
CONTINUOUS
10
-4.3378937007874017
20
5.7561417322834645
11
-4.3427601181102364
21
5.7569124803149601
0
LINE
8
BLACK
6
CONTINUOUS
10
-4.3427601181102364
20
5.7569124803149601
11
-4.3471501574803151
21
5.7591493307086612
0
LINE
8
BLACK
6
CONTINUOUS
10
-4.3471501574803151
20
5.7591493307086612
11
-4.3506341338582679
21
5.762633307086614
0
LINE
8
BLACK
6
CONTINUOUS
10
-4.3506341338582679
20
5.762633307086614
11
-4.3513385433070866
21
5.764015748031496
0
LINE
8
BLACK
6
CONTINUOUS
10
-4.3513385433070866
20
5.764015748031496
11
-4.4926208267716534
21
5.764015748031496
0
LINE
8
BLACK
6
CONTINUOUS
10
-4.4926208267716534
20
5.764015748031496
11
-4.4934455905511808
21
5.7623970866141727
0
LINE
8
BLACK
6
CONTINUOUS
10
-4.4934455905511808
20
5.7623970866141727
11
-4.4969295669291336
21
5.7589131102362208
0
LINE
8
BLACK
6
CONTINUOUS
10
-4.4969295669291336
20
5.7589131102362208
11
-4.5013196062992122
21
5.7566762598425196
0
LINE
8
BLACK
6
CONTINUOUS
10
-4.5013196062992122
20
5.7566762598425196
11
-4.506186023622047
21
5.7559055118110232
0
LINE
8
BLACK
6
CONTINUOUS
10
-4.506186023622047
20
5.7559055118110232
11
-4.5110524409448818
21
5.7566762598425196
0
LINE
8
BLACK
6
CONTINUOUS
10
-4.5110524409448818
20
5.7566762598425196
11
-4.5154424803149604
21
5.7589131102362208
0
LINE
8
BLACK
6
CONTINUOUS
10
-4.5154424803149604
20
5.7589131102362208
11
-4.5189264566929133
21
5.7623970866141727
0
LINE
8
BLACK
6
CONTINUOUS
10
-4.5189264566929133
20
5.7623970866141727
11
-4.5211633070866144
21
5.7667871259842522
0
LINE
8
BLACK
6
CONTINUOUS
10
-4.5211633070866144
20
5.7667871259842522
11
-4.52193405511811
21
5.7716535433070861
0
LINE
8
BLACK
6
CONTINUOUS
10
-4.52193405511811
20
5.7716535433070861
11
-4.5211633070866144
21
5.7765199606299209
0
LINE
8
BLACK
6
CONTINUOUS
10
-4.5211633070866144
20
5.7765199606299209
11
-4.5189264566929133
21
5.7809099999999995
0
LINE
8
BLACK
6
CONTINUOUS
10
-4.5189264566929133
20
5.7809099999999995
11
-4.5154424803149604
21
5.7843939763779524
0
LINE
8
BLACK
6
CONTINUOUS
10
-4.5154424803149604
20
5.7843939763779524
11
-4.5110524409448818
21
5.7866308267716535
0
LINE
8
BLACK
6
CONTINUOUS
10
-4.5110524409448818
20
5.7866308267716535
11
-4.506186023622047
21
5.7874015748031491
0
LINE
8
BLACK
6
CONTINUOUS
10
-4.506186023622047
20
5.7874015748031491
11
-4.5013196062992122
21
5.7866308267716535
0
LINE
8
BLACK
6
CONTINUOUS
10
-4.5013196062992122
20
5.7866308267716535
11
-4.4969295669291336
21
5.7843939763779524
0
LINE
8
BLACK
6
CONTINUOUS
10
-4.4969295669291336
20
5.7843939763779524
11
-4.4934455905511808
21
5.7809099999999995
0
LINE
8
BLACK
6
CONTINUOUS
10
-4.4934455905511808
20
5.7809099999999995
11
-4.4928615748031495
21
5.7797637795275589
0
LINE
8
BLACK
6
CONTINUOUS
10
-4.4928615748031495
20
5.7797637795275589
11
-4.3513385433070866
21
5.7797637795275589
0
LINE
8
BLACK
6
CONTINUOUS
10
-4.3513385433070866
20
5.7797637795275589
11
-4.3506341338582679
21
5.7811462204724409
0
LINE
8
BLACK
6
CONTINUOUS
10
-4.3506341338582679
20
5.7811462204724409
11
-4.3471501574803151
21
5.7846301968503937
0
LINE
8
BLACK
6
CONTINUOUS
10
-4.3471501574803151
20
5.7846301968503937
11
-4.3427601181102364
21
5.786867047244094
0
LINE
8
BLACK
6
CONTINUOUS
10
-4.3427601181102364
20
5.786867047244094
11
-4.3378937007874017
21
5.7876377952755904
0
LINE
8
BLACK
6
CONTINUOUS
10
-4.3378937007874017
20
5.7876377952755904
11
-4.3330272834645669
21
5.786867047244094
0
LINE
8
BLACK
6
CONTINUOUS
10
-4.7042009842519681
20
5.9601648425196849
11
-4.7032045275590546
21
5.9584389763779528
0
LINE
8
BLACK
6
CONTINUOUS
10
-4.7032045275590546
20
5.9584389763779528
11
-4.7035505905511812
21
5.9564763779527556
0
LINE
8
BLACK
6
CONTINUOUS
10
-4.7035505905511812
20
5.9564763779527556
11
-4.7044550787401578
21
5.9555106692913382
0
LINE
8
BLACK
6
CONTINUOUS
10
-4.7044550787401578
20
5.9555106692913382
11
-4.7069405118110232
21
5.9538499606299213
0
LINE
8
BLACK
6
CONTINUOUS
10
-4.7069405118110232
20
5.9538499606299213
11
-4.7113303149606294
21
5.9494601574803152
0
LINE
8
BLACK
6
CONTINUOUS
10
-4.7113303149606294
20
5.9494601574803152
11
-4.7147794094488189
21
5.9442981889763775
0
LINE
8
BLACK
6
CONTINUOUS
10
-4.7147794094488189
20
5.9442981889763775
11
-4.7171549606299212
21
5.9385630314960629
0
LINE
8
BLACK
6
CONTINUOUS
10
-4.7171549606299212
20
5.9385630314960629
11
-4.7171550787401575
21
5.9385626377952754
0
LINE
8
BLACK
6
CONTINUOUS
10
-4.7171550787401575
20
5.9385626377952754
11
-4.7183661417322833
21
5.9324740157480313
0
LINE
8
BLACK
6
CONTINUOUS
10
-4.7183661417322833
20
5.9324740157480313
11
-4.7183661417322833
21
5.8711479921259837
0
LINE
8
BLACK
6
CONTINUOUS
10
-4.7183661417322833
20
5.8711479921259837
11
-4.7171550787401575
21
5.8650593700787397
0
LINE
8
BLACK
6
CONTINUOUS
10
-4.7171550787401575
20
5.8650593700787397
11
-4.7171549606299212
21
5.865058976377953
0
LINE
8
BLACK
6
CONTINUOUS
10
-4.7171549606299212
20
5.865058976377953
11
-4.7147794094488189
21
5.8593238188976375
0
LINE
8
BLACK
6
CONTINUOUS
10
-4.7147794094488189
20
5.8593238188976375
11
-4.7113303149606294
21
5.8541618503937007
0
LINE
8
BLACK
6
CONTINUOUS
10
-4.7113303149606294
20
5.8541618503937007
11
-4.7113302362204728
21
5.854161811023622
0
LINE
8
BLACK
6
CONTINUOUS
10
-4.7113302362204728
20
5.854161811023622
11
-4.706940551181102
21
5.8497721259842521
0
LINE
8
BLACK
6
CONTINUOUS
10
-4.706940551181102
20
5.8497721259842521
11
-4.7069405118110232
21
5.8497720472440946
0
LINE
8
BLACK
6
CONTINUOUS
10
-4.7069405118110232
20
5.8497720472440946
11
-4.7040600787401576
21
5.8478474409448822
0
LINE
8
BLACK
6
CONTINUOUS
10
-4.7040600787401576
20
5.8478474409448822
11
-4.7017787007874015
21
5.8463230708661413
0
LINE
8
BLACK
6
CONTINUOUS
10
-4.7017787007874015
20
5.8463230708661413
11
-4.7017786614173227
21
5.8463230314960626
0
LINE
8
BLACK
6
CONTINUOUS
10
-4.7017786614173227
20
5.8463230314960626
11
-4.7017785039370077
21
5.8463229527559051
0
LINE
8
BLACK
6
CONTINUOUS
10
-4.7017785039370077
20
5.8463229527559051
11
-4.7017785433070864
21
5.8463229527559051
0
LINE
8
BLACK
6
CONTINUOUS
10
-4.7017785433070864
20
5.8463229527559051
11
-4.6960433858267718
21
5.8439474015748027
0
LINE
8
BLACK
6
CONTINUOUS
10
-4.6960433858267718
20
5.8439474015748027
11
-4.6960429921259843
21
5.8439472834645665
0
LINE
8
BLACK
6
CONTINUOUS
10
-4.6960429921259843
20
5.8439472834645665
11
-4.6916805118110236
21
5.8430795275590546
0
LINE
8
BLACK
6
CONTINUOUS
10
-4.6916805118110236
20
5.8430795275590546
11
-4.689954409448819
21
5.8427362204724407
0
LINE
8
BLACK
6
CONTINUOUS
10
-4.689954409448819
20
5.8427362204724407
11
-4.6899543307086615
21
5.8427362204724407
0
LINE
8
BLACK
6
CONTINUOUS
10
-4.6899543307086615
20
5.8427362204724407
11
-4.6207543307086612
21
5.8427362204724407
0
LINE
8
BLACK
6
CONTINUOUS
10
-4.6207543307086612
20
5.8427362204724407
11
-4.6207542519685036
21
5.8427362204724407
0
LINE
8
BLACK
6
CONTINUOUS
10
-4.6207542519685036
20
5.8427362204724407
11
-4.6187431102362204
21
5.8431362598425194
0
LINE
8
BLACK
6
CONTINUOUS
10
-4.6187431102362204
20
5.8431362598425194
11
-4.6146657086614171
21
5.8439472834645665
0
LINE
8
BLACK
6
CONTINUOUS
10
-4.6146657086614171
20
5.8439472834645665
11
-4.6146653149606296
21
5.8439474015748027
0
LINE
8
BLACK
6
CONTINUOUS
10
-4.6146653149606296
20
5.8439474015748027
11
-4.608930157480315
21
5.8463229527559051
0
LINE
8
BLACK
6
CONTINUOUS
10
-4.608930157480315
20
5.8463229527559051
11
-4.6089300393700787
21
5.8463230314960626
0
LINE
8
BLACK
6
CONTINUOUS
10
-4.6089300393700787
20
5.8463230314960626
11
-4.6089299606299212
21
5.8463230708661413
0
LINE
8
BLACK
6
CONTINUOUS
10
-4.6089299606299212
20
5.8463230708661413
11
-4.6037681496062994
21
5.8497720866141734
0
LINE
8
BLACK
6
CONTINUOUS
10
-4.6037681496062994
20
5.8497720866141734
11
-4.5993783858267712
21
5.8541618503937007
0
LINE
8
BLACK
6
CONTINUOUS
10
-4.5993783858267712
20
5.8541618503937007
11
-4.59592937007874
21
5.8593236614173225
0
LINE
8
BLACK
6
CONTINUOUS
10
-4.59592937007874
20
5.8593236614173225
11
-4.5954805511811019
21
5.8604071653543306
0
LINE
8
BLACK
6
CONTINUOUS
10
-4.5954805511811019
20
5.8604071653543306
11
-4.5935537401574802
21
5.865058976377953
0
LINE
8
BLACK
6
CONTINUOUS
10
-4.5935537401574802
20
5.865058976377953
11
-4.5935536220472439
21
5.8650593700787397
0
LINE
8
BLACK
6
CONTINUOUS
10
-4.5935536220472439
20
5.8650593700787397
11
-4.5923425196850394
21
5.8711479921259837
0
LINE
8
BLACK
6
CONTINUOUS
10
-4.5923425196850394
20
5.8711479921259837
11
-4.5923425196850394
21
5.9324740157480313
0
LINE
8
BLACK
6
CONTINUOUS
10
-4.5923425196850394
20
5.9324740157480313
11
-4.5935536220472439
21
5.9385626377952754
0
LINE
8
BLACK
6
CONTINUOUS
10
-4.5935536220472439
20
5.9385626377952754
11
-4.5935536614173227
21
5.9385628740157479
0
LINE
8
BLACK
6
CONTINUOUS
10
-4.5935536614173227
20
5.9385628740157479
11
-4.59592937007874
21
5.9442983858267713
0
LINE
8
BLACK
6
CONTINUOUS
10
-4.59592937007874
20
5.9442983858267713
11
-4.5993783858267712
21
5.949460196850394
0
LINE
8
BLACK
6
CONTINUOUS
10
-4.5993783858267712
20
5.949460196850394
11
-4.6037681496062994
21
5.9538499606299213
0
LINE
8
BLACK
6
CONTINUOUS
10
-4.6037681496062994
20
5.9538499606299213
11
-4.6062536220472436
21
5.9555106692913382
0
LINE
8
BLACK
6
CONTINUOUS
10
-4.6062536220472436
20
5.9555106692913382
11
-4.6074320078740154
21
5.9571178346456692
0
LINE
8
BLACK
6
CONTINUOUS
10
-4.6074320078740154
20
5.9571178346456692
11
-4.6073016535433071
21
5.9591064173228343
0
LINE
8
BLACK
6
CONTINUOUS
10
-4.6073016535433071
20
5.9591064173228343
11
-4.6059235433070862
21
5.9605460236220473
0
LINE
8
BLACK
6
CONTINUOUS
10
-4.6059235433070862
20
5.9605460236220473
11
-4.604635
21
5.9608464566929129
0
LINE
8
BLACK
6
CONTINUOUS
10
-4.604635
20
5.9608464566929129
11
-4.0283661417322838
21
5.9608464566929129
0
LINE
8
BLACK
6
CONTINUOUS
10
-4.0283661417322838
20
5.9608464566929129
11
-4.0264934645669292
21
5.9601648425196849
0
LINE
8
BLACK
6
CONTINUOUS
10
-4.0264934645669292
20
5.9601648425196849
11
-4.0254970078740158
21
5.9584389763779528
0
LINE
8
BLACK
6
CONTINUOUS
10
-4.0254970078740158
20
5.9584389763779528
11
-4.025452755905512
21
5.957933070866142
0
LINE
8
BLACK
6
CONTINUOUS
10
-4.025452755905512
20
5.957933070866142
11
-4.025452755905512
21
5.9057103937007875
0
LINE
8
BLACK
6
CONTINUOUS
10
-4.025452755905512
20
5.9057103937007875
11
-4.0250227165354326
21
5.9048664173228342
0
LINE
8
BLACK
6
CONTINUOUS
10
-4.0250227165354326
20
5.9048664173228342
11
-4.0242519685039371
21
5.8999999999999995
0
LINE
8
BLACK
6
CONTINUOUS
10
-4.0242519685039371
20
5.8999999999999995
11
-4.0250227165354326
21
5.8951335826771656
0
LINE
8
BLACK
6
CONTINUOUS
10
-4.0250227165354326
20
5.8951335826771656
11
-4.025452755905512
21
5.8942895669291335
0
LINE
8
BLACK
6
CONTINUOUS
10
-4.025452755905512
20
5.8942895669291335
11
-4.025452755905512
21
5.8745275590551183
0
LINE
8
BLACK
6
CONTINUOUS
10
-4.025452755905512
20
5.8745275590551183
11
-4.02613437007874
21
5.8726548818897637
0
LINE
8
BLACK
6
CONTINUOUS
10
-4.02613437007874
20
5.8726548818897637
11
-4.0278602362204721
21
5.8716584251968502
0
LINE
8
BLACK
6
CONTINUOUS
10
-4.0278602362204721
20
5.8716584251968502
11
-4.0283661417322838
21
5.8716141732283464
0
LINE
8
BLACK
6
CONTINUOUS
10
-4.0283661417322838
20
5.8716141732283464
11
-4.0528346456692912
21
5.8716141732283464
0
LINE
8
BLACK
6
CONTINUOUS
10
-4.0528346456692912
20
5.8716141732283464
11
-4.0528346456692912
21
5.851614173228346
0
LINE
8
BLACK
6
CONTINUOUS
10
-4.0528346456692912
20
5.851614173228346
11
-4.0195275590551178
21
5.851614173228346
0
LINE
8
BLACK
6
CONTINUOUS
10
-4.0195275590551178
20
5.851614173228346
11
-4.0157609842519681
21
5.850864960629921
0
LINE
8
BLACK
6
CONTINUOUS
10
-4.0157609842519681
20
5.850864960629921
11
-4.0125678346456688
21
5.8487313779527561
0
LINE
8
BLACK
6
CONTINUOUS
10
-4.0125678346456688
20
5.8487313779527561
11
-4.0104342519685039
21
5.8455382283464568
0
LINE
8
BLACK
6
CONTINUOUS
10
-4.0104342519685039
20
5.8455382283464568
11
-4.0096850393700789
21
5.8417716535433071
0
LINE
8
BLACK
6
CONTINUOUS
10
-4.0096850393700789
20
5.8417716535433071
11
-4.0096850393700789
21
5.8220866141732284
0
LINE
8
BLACK
6
CONTINUOUS
10
-4.0096850393700789
20
5.8220866141732284
11
-4.0104342519685039
21
5.8183200393700787
0
LINE
8
BLACK
6
CONTINUOUS
10
-4.0104342519685039
20
5.8183200393700787
11
-4.0125678346456688
21
5.8151268897637793
0
LINE
8
BLACK
6
CONTINUOUS
10
-4.0125678346456688
20
5.8151268897637793
11
-4.0157609842519681
21
5.8129933070866144
0
LINE
8
BLACK
6
CONTINUOUS
10
-4.0157609842519681
20
5.8129933070866144
11
-4.0195275590551178
21
5.8122440944881886
0
LINE
8
BLACK
6
CONTINUOUS
10
-4.0195275590551178
20
5.8122440944881886
11
-4.0528346456692912
21
5.8122440944881886
0
LINE
8
BLACK
6
CONTINUOUS
10
-4.0528346456692912
20
5.8122440944881886
11
-4.0528346456692912
21
5.792244094488189
0
LINE
8
BLACK
6
CONTINUOUS
10
-4.0528346456692912
20
5.792244094488189
11
-4.0283661417322838
21
5.792244094488189
0
LINE
8
BLACK
6
CONTINUOUS
10
-4.0283661417322838
20
5.792244094488189
11
-4.0264934645669292
21
5.7915624803149601
0
LINE
8
BLACK
6
CONTINUOUS
10
-4.0264934645669292
20
5.7915624803149601
11
-4.0254970078740158
21
5.789836614173228
0
LINE
8
BLACK
6
CONTINUOUS
10
-4.0254970078740158
20
5.789836614173228
11
-4.025452755905512
21
5.7893307086614172
0
LINE
8
BLACK
6
CONTINUOUS
10
-4.025452755905512
20
5.7893307086614172
11
-4.025452755905512
21
5.5812204724409451
0
LINE
8
BLACK
6
CONTINUOUS
10
-4.025452755905512
20
5.5812204724409451
11
-4.02613437007874
21
5.5793477952755905
0
LINE
8
BLACK
6
CONTINUOUS
10
-4.02613437007874
20
5.5793477952755905
11
-4.0278602362204721
21
5.5783513385826771
0
LINE
8
BLACK
6
CONTINUOUS
10
-4.0278602362204721
20
5.5783513385826771
11
-4.0283661417322838
21
5.5783070866141733
0
LINE
8
BLACK
6
CONTINUOUS
10
-4.0283661417322838
20
5.5783070866141733
11
-4.0528346456692912
21
5.5783070866141733
0
LINE
8
BLACK
6
CONTINUOUS
10
-4.0528346456692912
20
5.5783070866141733
11
-4.0528346456692912
21
5.5583070866141728
0
LINE
8
BLACK
6
CONTINUOUS
10
-4.0528346456692912
20
5.5583070866141728
11
-4.0195275590551178
21
5.5583070866141728
0
LINE
8
BLACK
6
CONTINUOUS
10
-4.0195275590551178
20
5.5583070866141728
11
-4.0157609842519681
21
5.5575578740157479
0
LINE
8
BLACK
6
CONTINUOUS
10
-4.0157609842519681
20
5.5575578740157479
11
-4.0125678346456688
21
5.555424291338583
0
LINE
8
BLACK
6
CONTINUOUS
10
-4.0125678346456688
20
5.555424291338583
11
-4.0104342519685039
21
5.5522311417322836
0
LINE
8
BLACK
6
CONTINUOUS
10
-4.0104342519685039
20
5.5522311417322836
11
-4.0096850393700789
21
5.5484645669291339
0
LINE
8
BLACK
6
CONTINUOUS
10
-4.0096850393700789
20
5.5484645669291339
11
-4.0096850393700789
21
5.5287795275590552
0
LINE
8
BLACK
6
CONTINUOUS
10
-4.0096850393700789
20
5.5287795275590552
11
-4.0104342519685039
21
5.5250129527559055
0
LINE
8
BLACK
6
CONTINUOUS
10
-4.0104342519685039
20
5.5250129527559055
11
-4.0125678346456688
21
5.5218198031496062
0
LINE
8
BLACK
6
CONTINUOUS
10
-4.0125678346456688
20
5.5218198031496062
11
-4.0157609842519681
21
5.5196862204724404
0
LINE
8
BLACK
6
CONTINUOUS
10
-4.0157609842519681
20
5.5196862204724404
11
-4.0195275590551178
21
5.5189370078740154
0
LINE
8
BLACK
6
CONTINUOUS
10
-4.0195275590551178
20
5.5189370078740154
11
-4.0528346456692912
21
5.5189370078740154
0
LINE
8
BLACK
6
CONTINUOUS
10
-4.0528346456692912
20
5.5189370078740154
11
-4.0528346456692912
21
5.4989370078740158
0
LINE
8
BLACK
6
CONTINUOUS
10
-4.0528346456692912
20
5.4989370078740158
11
-4.0283661417322838
21
5.4989370078740158
0
LINE
8
BLACK
6
CONTINUOUS
10
-4.0283661417322838
20
5.4989370078740158
11
-4.0264934645669292
21
5.498255393700787
0
LINE
8
BLACK
6
CONTINUOUS
10
-4.0264934645669292
20
5.498255393700787
11
-4.0254970078740158
21
5.4965295275590549
0
LINE
8
BLACK
6
CONTINUOUS
10
-4.0254970078740158
20
5.4965295275590549
11
-4.025452755905512
21
5.496023622047244
0
LINE
8
BLACK
6
CONTINUOUS
10
-4.025452755905512
20
5.496023622047244
11
-4.025452755905512
21
5.4757103937007869
0
LINE
8
BLACK
6
CONTINUOUS
10
-4.025452755905512
20
5.4757103937007869
11
-4.0250227165354326
21
5.4748664173228345
0
LINE
8
BLACK
6
CONTINUOUS
10
-4.0250227165354326
20
5.4748664173228345
11
-4.0242519685039371
21
5.4699999999999998
0
LINE
8
BLACK
6
CONTINUOUS
10
-4.0242519685039371
20
5.4699999999999998
11
-4.0250227165354326
21
5.465133582677165
0
LINE
8
BLACK
6
CONTINUOUS
10
-4.0250227165354326
20
5.465133582677165
11
-4.025452755905512
21
5.4642895669291338
0
LINE
8
BLACK
6
CONTINUOUS
10
-4.025452755905512
20
5.4642895669291338
11
-4.025452755905512
21
5.4126181102362203
0
LINE
8
BLACK
6
CONTINUOUS
10
-4.025452755905512
20
5.4126181102362203
11
-4.02613437007874
21
5.4107454330708658
0
LINE
8
BLACK
6
CONTINUOUS
10
-4.02613437007874
20
5.4107454330708658
11
-4.0278602362204721
21
5.4097489763779523
0
LINE
8
BLACK
6
CONTINUOUS
10
-4.0278602362204721
20
5.4097489763779523
11
-4.0283661417322838
21
5.4097047244094485
0
LINE
8
BLACK
6
CONTINUOUS
10
-4.0283661417322838
20
5.4097047244094485
11
-4.604635
21
5.4097047244094485
0
LINE
8
BLACK
6
CONTINUOUS
10
-4.604635
20
5.4097047244094485
11
-4.6065076771653546
21
5.4103863385826774
0
LINE
8
BLACK
6
CONTINUOUS
10
-4.6065076771653546
20
5.4103863385826774
11
-4.6075041338582672
21
5.4121122047244095
0
LINE
8
BLACK
6
CONTINUOUS
10
-4.6075041338582672
20
5.4121122047244095
11
-4.6071580708661415
21
5.4140748031496058
0
LINE
8
BLACK
6
CONTINUOUS
10
-4.6071580708661415
20
5.4140748031496058
11
-4.6062535826771649
21
5.4150405118110232
0
LINE
8
BLACK
6
CONTINUOUS
10
-4.6062535826771649
20
5.4150405118110232
11
-4.6037681889763782
21
5.4167011811023622
0
LINE
8
BLACK
6
CONTINUOUS
10
-4.6037681889763782
20
5.4167011811023622
11
-4.5993783858267712
21
5.4210909842519683
0
LINE
8
BLACK
6
CONTINUOUS
10
-4.5993783858267712
20
5.4210909842519683
11
-4.59592937007874
21
5.4262527952755901
0
LINE
8
BLACK
6
CONTINUOUS
10
-4.59592937007874
20
5.4262527952755901
11
-4.5935536614173227
21
5.4319883070866144
0
LINE
8
BLACK
6
CONTINUOUS
10
-4.5935536614173227
20
5.4319883070866144
11
-4.5923425196850394
21
5.4380770866141734
0
LINE
8
BLACK
6
CONTINUOUS
10
-4.5923425196850394
20
5.4380770866141734
11
-4.5923425196850394
21
5.4411811023622043
0
LINE
8
BLACK
6
CONTINUOUS
10
-4.5923425196850394
20
5.4411811023622043
11
-4.5923425196850394
21
5.4437752755905509
0
LINE
8
BLACK
6
CONTINUOUS
10
-4.5923425196850394
20
5.4437752755905509
11
-4.5923425196850394
21
5.4977086220472442
0
LINE
8
BLACK
6
CONTINUOUS
10
-4.5923425196850394
20
5.4977086220472442
11
-4.5923425196850394
21
5.4994032283464565
0
LINE
8
BLACK
6
CONTINUOUS
10
-4.5923425196850394
20
5.4994032283464565
11
-4.5935536614173227
21
5.5054920078740155
0
LINE
8
BLACK
6
CONTINUOUS
10
-4.5935536614173227
20
5.5054920078740155
11
-4.59592937007874
21
5.5112275196850389
0
LINE
8
BLACK
6
CONTINUOUS
10
-4.59592937007874
20
5.5112275196850389
11
-4.5993783858267712
21
5.5163893307086616
0
LINE
8
BLACK
6
CONTINUOUS
10
-4.5993783858267712
20
5.5163893307086616
11
-4.6037681496062994
21
5.5207790944881889
0
LINE
8
BLACK
6
CONTINUOUS
10
-4.6037681496062994
20
5.5207790944881889
11
-4.6089299606299212
21
5.5242281102362201
0
LINE
8
BLACK
6
CONTINUOUS
10
-4.6089299606299212
20
5.5242281102362201
11
-4.6146654724409446
21
5.5266038188976374
0
LINE
8
BLACK
6
CONTINUOUS
10
-4.6146654724409446
20
5.5266038188976374
11
-4.6207542519685036
21
5.5278149606299207
0
LINE
8
BLACK
6
CONTINUOUS
10
-4.6207542519685036
20
5.5278149606299207
11
-4.6224488582677168
21
5.5278149606299207
0
LINE
8
BLACK
6
CONTINUOUS
10
-4.6224488582677168
20
5.5278149606299207
11
-4.6842562204724407
21
5.5278149606299207
0
LINE
8
BLACK
6
CONTINUOUS
10
-4.6842562204724407
20
5.5278149606299207
11
-4.6868503937007873
21
5.5278149606299207
0
LINE
8
BLACK
6
CONTINUOUS
10
-4.6868503937007873
20
5.5278149606299207
11
-4.689954409448819
21
5.5278149606299207
0
LINE
8
BLACK
6
CONTINUOUS
10
-4.689954409448819
20
5.5278149606299207
11
-4.6960431889763781
21
5.5266038188976374
0
LINE
8
BLACK
6
CONTINUOUS
10
-4.6960431889763781
20
5.5266038188976374
11
-4.6960433858267718
21
5.5266037401574799
0
LINE
8
BLACK
6
CONTINUOUS
10
-4.6960433858267718
20
5.5266037401574799
11
-4.7017785433070864
21
5.5242281889763776
0
LINE
8
BLACK
6
CONTINUOUS
10
-4.7017785433070864
20
5.5242281889763776
11
-4.7017786220472439
21
5.5242281496062988
0
LINE
8
BLACK
6
CONTINUOUS
10
-4.7017786220472439
20
5.5242281496062988
11
-4.7017787007874015
21
5.5242281102362201
0
LINE
8
BLACK
6
CONTINUOUS
10
-4.7017787007874015
20
5.5242281102362201
11
-4.7069405118110232
21
5.5207790944881889
0
LINE
8
BLACK
6
CONTINUOUS
10
-4.7069405118110232
20
5.5207790944881889
11
-4.7113303149606294
21
5.5163892913385828
0
LINE
8
BLACK
6
CONTINUOUS
10
-4.7113303149606294
20
5.5163892913385828
11
-4.7147794094488189
21
5.5112273228346451
0
LINE
8
BLACK
6
CONTINUOUS
10
-4.7147794094488189
20
5.5112273228346451
11
-4.7171549606299212
21
5.5054921653543305
0
LINE
8
BLACK
6
CONTINUOUS
10
-4.7171549606299212
20
5.5054921653543305
11
-4.7171550787401575
21
5.505491771653543
0
LINE
8
BLACK
6
CONTINUOUS
10
-4.7171550787401575
20
5.505491771653543
11
-4.7183661417322833
21
5.4994031496062989
0
LINE
8
BLACK
6
CONTINUOUS
10
-4.7183661417322833
20
5.4994031496062989
11
-4.7183661417322833
21
5.4380771259842522
0
LINE
8
BLACK
6
CONTINUOUS
10
-4.7183661417322833
20
5.4380771259842522
11
-4.7171550787401575
21
5.4319885039370082
0
LINE
8
BLACK
6
CONTINUOUS
10
-4.7171550787401575
20
5.4319885039370082
11
-4.7171549606299212
21
5.4319881102362206
0
LINE
8
BLACK
6
CONTINUOUS
10
-4.7171549606299212
20
5.4319881102362206
11
-4.7147794094488189
21
5.4262529527559051
0
LINE
8
BLACK
6
CONTINUOUS
10
-4.7147794094488189
20
5.4262529527559051
11
-4.7113303149606294
21
5.4210909842519683
0
LINE
8
BLACK
6
CONTINUOUS
10
-4.7113303149606294
20
5.4210909842519683
11
-4.7113302362204728
21
5.4210909448818896
0
LINE
8
BLACK
6
CONTINUOUS
10
-4.7113302362204728
20
5.4210909448818896
11
-4.706940551181102
21
5.4167012598425197
0
LINE
8
BLACK
6
CONTINUOUS
10
-4.706940551181102
20
5.4167012598425197
11
-4.7069405118110232
21
5.4167011811023622
0
LINE
8
BLACK
6
CONTINUOUS
10
-4.7069405118110232
20
5.4167011811023622
11
-4.7044550787401578
21
5.4150405118110232
0
LINE
8
BLACK
6
CONTINUOUS
10
-4.7044550787401578
20
5.4150405118110232
11
-4.7032766535433073
21
5.4134333464566931
0
LINE
8
BLACK
6
CONTINUOUS
10
-4.7032766535433073
20
5.4134333464566931
11
-4.7034070078740156
21
5.4114447637795271
0
LINE
8
BLACK
6
CONTINUOUS
10
-4.7034070078740156
20
5.4114447637795271
11
-4.7047851181102365
21
5.410005157480315
0
LINE
8
BLACK
6
CONTINUOUS
10
-4.7047851181102365
20
5.410005157480315
11
-4.7060736614173226
21
5.4097047244094485
0
LINE
8
BLACK
6
CONTINUOUS
10
-4.7060736614173226
20
5.4097047244094485
11
-4.9673818897637796
21
5.4097047244094485
0
LINE
8
BLACK
6
CONTINUOUS
10
-4.9673818897637796
20
5.4097047244094485
11
-4.9692545669291341
21
5.4103863385826774
0
LINE
8
BLACK
6
CONTINUOUS
10
-4.9692545669291341
20
5.4103863385826774
11
-4.9702510236220467
21
5.4121122047244095
0
LINE
8
BLACK
6
CONTINUOUS
10
-4.9702510236220467
20
5.4121122047244095
11
-4.9702952755905514
21
5.4126181102362203
0
LINE
8
BLACK
6
CONTINUOUS
10
-4.9702952755905514
20
5.4126181102362203
11
-4.9702952755905514
21
5.496023622047244
0
LINE
8
BLACK
6
CONTINUOUS
10
-4.9702952755905514
20
5.496023622047244
11
-4.9696136614173225
21
5.4978962992125986
0
LINE
8
BLACK
6
CONTINUOUS
10
-4.9696136614173225
20
5.4978962992125986
11
-4.9678877952755904
21
5.4988927559055121
0
LINE
8
BLACK
6
CONTINUOUS
10
-4.9678877952755904
20
5.4988927559055121
11
-4.9673818897637796
21
5.4989370078740158
0
LINE
8
BLACK
6
CONTINUOUS
10
-4.9673818897637796
20
5.4989370078740158
11
-4.9429133858267713
21
5.4989370078740158
0
LINE
8
BLACK
6
CONTINUOUS
10
-4.9429133858267713
20
5.4989370078740158
11
-4.9429133858267713
21
5.5189370078740154
0
LINE
8
BLACK
6
CONTINUOUS
10
-4.9429133858267713
20
5.5189370078740154
11
-4.9762204724409447
21
5.5189370078740154
0
LINE
8
BLACK
6
CONTINUOUS
10
-4.9762204724409447
20
5.5189370078740154
11
-4.9799870472440944
21
5.5196862204724404
0
LINE
8
BLACK
6
CONTINUOUS
10
-4.9799870472440944
20
5.5196862204724404
11
-4.9831801968503937
21
5.5218198031496062
0
LINE
8
BLACK
6
CONTINUOUS
10
-4.9831801968503937
20
5.5218198031496062
11
-4.9853137795275586
21
5.5250129527559055
0
LINE
8
BLACK
6
CONTINUOUS
10
-4.9853137795275586
20
5.5250129527559055
11
-4.9860629921259845
21
5.5287795275590552
0
LINE
8
BLACK
6
CONTINUOUS
10
-4.9860629921259845
20
5.5287795275590552
11
-4.9860629921259845
21
5.5484645669291339
0
LINE
8
BLACK
6
CONTINUOUS
10
-4.9860629921259845
20
5.5484645669291339
11
-4.9853137795275586
21
5.5522311417322836
0
LINE
8
BLACK
6
CONTINUOUS
10
-4.9853137795275586
20
5.5522311417322836
11
-4.9831801968503937
21
5.555424291338583
0
LINE
8
BLACK
6
CONTINUOUS
10
-4.9831801968503937
20
5.555424291338583
11
-4.9799870472440944
21
5.5575578740157479
0
LINE
8
BLACK
6
CONTINUOUS
10
-4.9799870472440944
20
5.5575578740157479
11
-4.9762204724409447
21
5.5583070866141728
0
LINE
8
BLACK
6
CONTINUOUS
10
-4.9762204724409447
20
5.5583070866141728
11
-4.9429133858267713
21
5.5583070866141728
0
LINE
8
BLACK
6
CONTINUOUS
10
-4.9429133858267713
20
5.5583070866141728
11
-4.9429133858267713
21
5.5783070866141733
0
LINE
8
BLACK
6
CONTINUOUS
10
-4.9429133858267713
20
5.5783070866141733
11
-4.9673818897637796
21
5.5783070866141733
0
LINE
8
BLACK
6
CONTINUOUS
10
-4.9673818897637796
20
5.5783070866141733
11
-4.9692545669291341
21
5.5789887007874013
0
LINE
8
BLACK
6
CONTINUOUS
10
-4.9692545669291341
20
5.5789887007874013
11
-4.9702510236220467
21
5.5807145669291334
0
LINE
8
BLACK
6
CONTINUOUS
10
-4.9702510236220467
20
5.5807145669291334
11
-4.9702952755905514
21
5.5812204724409451
0
LINE
8
BLACK
6
CONTINUOUS
10
-4.9702952755905514
20
5.5812204724409451
11
-4.9702952755905514
21
5.6375026771653545
0
LINE
8
BLACK
6
CONTINUOUS
10
-4.9702952755905514
20
5.6375026771653545
11
-4.9702952755905514
21
5.7893307086614172
0
LINE
8
BLACK
6
CONTINUOUS
10
-4.9702952755905514
20
5.7893307086614172
11
-4.9696136614173225
21
5.7912033858267717
0
LINE
8
BLACK
6
CONTINUOUS
10
-4.9696136614173225
20
5.7912033858267717
11
-4.9678877952755904
21
5.7921998425196852
0
LINE
8
BLACK
6
CONTINUOUS
10
-4.9678877952755904
20
5.7921998425196852
11
-4.9673818897637796
21
5.792244094488189
0
LINE
8
BLACK
6
CONTINUOUS
10
-4.9673818897637796
20
5.792244094488189
11
-4.9429133858267713
21
5.792244094488189
0
LINE
8
BLACK
6
CONTINUOUS
10
-4.9429133858267713
20
5.792244094488189
11
-4.9429133858267713
21
5.8122440944881886
0
LINE
8
BLACK
6
CONTINUOUS
10
-4.9429133858267713
20
5.8122440944881886
11
-4.9762204724409447
21
5.8122440944881886
0
LINE
8
BLACK
6
CONTINUOUS
10
-4.9762204724409447
20
5.8122440944881886
11
-4.9799870472440944
21
5.8129933070866144
0
LINE
8
BLACK
6
CONTINUOUS
10
-4.9799870472440944
20
5.8129933070866144
11
-4.9831801968503937
21
5.8151268897637793
0
LINE
8
BLACK
6
CONTINUOUS
10
-4.9831801968503937
20
5.8151268897637793
11
-4.9853137795275586
21
5.8183200393700787
0
LINE
8
BLACK
6
CONTINUOUS
10
-4.9853137795275586
20
5.8183200393700787
11
-4.9860629921259845
21
5.8220866141732284
0
LINE
8
BLACK
6
CONTINUOUS
10
-4.9860629921259845
20
5.8220866141732284
11
-4.9860629921259845
21
5.8417716535433071
0
LINE
8
BLACK
6
CONTINUOUS
10
-4.9860629921259845
20
5.8417716535433071
11
-4.9853137795275586
21
5.8455382283464568
0
LINE
8
BLACK
6
CONTINUOUS
10
-4.9853137795275586
20
5.8455382283464568
11
-4.9831801968503937
21
5.8487313779527561
0
LINE
8
BLACK
6
CONTINUOUS
10
-4.9831801968503937
20
5.8487313779527561
11
-4.9799870472440944
21
5.850864960629921
0
LINE
8
BLACK
6
CONTINUOUS
10
-4.9799870472440944
20
5.850864960629921
11
-4.9762204724409447
21
5.851614173228346
0
LINE
8
BLACK
6
CONTINUOUS
10
-4.9762204724409447
20
5.851614173228346
11
-4.9429133858267713
21
5.851614173228346
0
LINE
8
BLACK
6
CONTINUOUS
10
-4.9429133858267713
20
5.851614173228346
11
-4.9429133858267713
21
5.8716141732283464
0
LINE
8
BLACK
6
CONTINUOUS
10
-4.9429133858267713
20
5.8716141732283464
11
-4.9673818897637796
21
5.8716141732283464
0
LINE
8
BLACK
6
CONTINUOUS
10
-4.9673818897637796
20
5.8716141732283464
11
-4.9692545669291341
21
5.8722957874015744
0
LINE
8
BLACK
6
CONTINUOUS
10
-4.9692545669291341
20
5.8722957874015744
11
-4.9702510236220467
21
5.8740216535433065
0
LINE
8
BLACK
6
CONTINUOUS
10
-4.9702510236220467
20
5.8740216535433065
11
-4.9702952755905514
21
5.8745275590551183
0
LINE
8
BLACK
6
CONTINUOUS
10
-4.9702952755905514
20
5.8745275590551183
11
-4.9702952755905514
21
5.957933070866142
0
LINE
8
BLACK
6
CONTINUOUS
10
-4.9702952755905514
20
5.957933070866142
11
-4.9696136614173225
21
5.9598057480314957
0
LINE
8
BLACK
6
CONTINUOUS
10
-4.9696136614173225
20
5.9598057480314957
11
-4.9678877952755904
21
5.9608022047244091
0
LINE
8
BLACK
6
CONTINUOUS
10
-4.9678877952755904
20
5.9608022047244091
11
-4.9673818897637796
21
5.9608464566929129
0
LINE
8
BLACK
6
CONTINUOUS
10
-4.9673818897637796
20
5.9608464566929129
11
-4.7060736614173226
21
5.9608464566929129
0
LINE
8
BLACK
6
CONTINUOUS
10
-4.7060736614173226
20
5.9608464566929129
11
-4.7042009842519681
21
5.9601648425196849
0
LINE
8
BLACK
6
CONTINUOUS
10
-4.8805129921259844
20
5.5250129527559055
11
-4.8826465748031493
21
5.5218198031496062
0
LINE
8
BLACK
6
CONTINUOUS
10
-4.8826465748031493
20
5.5218198031496062
11
-4.8858397244094487
21
5.5196862204724404
0
LINE
8
BLACK
6
CONTINUOUS
10
-4.8858397244094487
20
5.5196862204724404
11
-4.8896062992125984
21
5.5189370078740154
0
LINE
8
BLACK
6
CONTINUOUS
10
-4.8896062992125984
20
5.5189370078740154
11
-4.9229133858267717
21
5.5189370078740154
0
LINE
8
BLACK
6
CONTINUOUS
10
-4.9229133858267717
20
5.5189370078740154
11
-4.9229133858267717
21
5.4989370078740158
0
LINE
8
BLACK
6
CONTINUOUS
10
-4.9229133858267717
20
5.4989370078740158
11
-4.8876179527559058
21
5.4989370078740158
0
LINE
8
BLACK
6
CONTINUOUS
10
-4.8876179527559058
20
5.4989370078740158
11
-4.8835305118110233
21
5.4993545669291342
0
LINE
8
BLACK
6
CONTINUOUS
10
-4.8835305118110233
20
5.4993545669291342
11
-4.8769085039370079
21
5.5015488976377949
0
LINE
8
BLACK
6
CONTINUOUS
10
-4.8769085039370079
20
5.5015488976377949
11
-4.8709709448818899
21
5.5052112204724404
0
LINE
8
BLACK
6
CONTINUOUS
10
-4.8709709448818899
20
5.5052112204724404
11
-4.8709707874015749
21
5.5052113385826766
0
LINE
8
BLACK
6
CONTINUOUS
10
-4.8709707874015749
20
5.5052113385826766
11
-4.8660381102362207
21
5.5101440157480317
0
LINE
8
BLACK
6
CONTINUOUS
10
-4.8660381102362207
20
5.5101440157480317
11
-4.8660380314960632
21
5.510144133858268
0
LINE
8
BLACK
6
CONTINUOUS
10
-4.8660380314960632
20
5.510144133858268
11
-4.8623757086614168
21
5.516081692913386
0
LINE
8
BLACK
6
CONTINUOUS
10
-4.8623757086614168
20
5.516081692913386
11
-4.8601813779527561
21
5.5227037007874014
0
LINE
8
BLACK
6
CONTINUOUS
10
-4.8601813779527561
20
5.5227037007874014
11
-4.8597638188976378
21
5.526791141732283
0
LINE
8
BLACK
6
CONTINUOUS
10
-4.8597638188976378
20
5.526791141732283
11
-4.859763779527559
21
5.5267912204724405
0
LINE
8
BLACK
6
CONTINUOUS
10
-4.859763779527559
20
5.5267912204724405
11
-4.859763779527559
21
5.5286220472440943
0
LINE
8
BLACK
6
CONTINUOUS
10
-4.859763779527559
20
5.5286220472440943
11
-4.8797951181102359
21
5.5286220472440943
0
LINE
8
BLACK
6
CONTINUOUS
10
-4.8797951181102359
20
5.5286220472440943
11
-4.8805129921259844
21
5.5250129527559055
0
LINE
8
BLACK
6
CONTINUOUS
10
-4.1359842519685035
20
5.526791141732283
11
-4.1355666929133861
21
5.5227037007874014
0
LINE
8
BLACK
6
CONTINUOUS
10
-4.1355666929133861
20
5.5227037007874014
11
-4.1333723622047245
21
5.516081692913386
0
LINE
8
BLACK
6
CONTINUOUS
10
-4.1333723622047245
20
5.516081692913386
11
-4.129710039370079
21
5.510144133858268
0
LINE
8
BLACK
6
CONTINUOUS
10
-4.129710039370079
20
5.510144133858268
11
-4.1247771259842523
21
5.5052112204724404
0
LINE
8
BLACK
6
CONTINUOUS
10
-4.1247771259842523
20
5.5052112204724404
11
-4.1188395669291333
21
5.5015488976377949
0
LINE
8
BLACK
6
CONTINUOUS
10
-4.1188395669291333
20
5.5015488976377949
11
-4.112217559055118
21
5.4993545669291342
0
LINE
8
BLACK
6
CONTINUOUS
10
-4.112217559055118
20
5.4993545669291342
11
-4.1081301181102363
21
5.4989370078740158
0
LINE
8
BLACK
6
CONTINUOUS
10
-4.1081301181102363
20
5.4989370078740158
11
-4.0728346456692917
21
5.4989370078740158
0
LINE
8
BLACK
6
CONTINUOUS
10
-4.0728346456692917
20
5.4989370078740158
11
-4.0728346456692917
21
5.5189370078740154
0
LINE
8
BLACK
6
CONTINUOUS
10
-4.0728346456692917
20
5.5189370078740154
11
-4.1061417322834641
21
5.5189370078740154
0
LINE
8
BLACK
6
CONTINUOUS
10
-4.1061417322834641
20
5.5189370078740154
11
-4.1099083070866138
21
5.5196862204724404
0
LINE
8
BLACK
6
CONTINUOUS
10
-4.1099083070866138
20
5.5196862204724404
11
-4.1131014566929132
21
5.5218198031496062
0
LINE
8
BLACK
6
CONTINUOUS
10
-4.1131014566929132
20
5.5218198031496062
11
-4.115235039370079
21
5.5250129527559055
0
LINE
8
BLACK
6
CONTINUOUS
10
-4.115235039370079
20
5.5250129527559055
11
-4.1159529133858266
21
5.5286220472440943
0
LINE
8
BLACK
6
CONTINUOUS
10
-4.1159529133858266
20
5.5286220472440943
11
-4.1359842519685035
21
5.5286220472440943
0
LINE
8
BLACK
6
CONTINUOUS
10
-4.1359842519685035
20
5.5286220472440943
11
-4.1359842519685035
21
5.526791141732283
0
LINE
8
BLACK
6
CONTINUOUS
10
-4.1081301181102363
20
5.5783070472440945
11
-4.112217559055118
21
5.5778894881889762
0
LINE
8
BLACK
6
CONTINUOUS
10
-4.112217559055118
20
5.5778894881889762
11
-4.1188395669291333
21
5.5756951574803146
0
LINE
8
BLACK
6
CONTINUOUS
10
-4.1188395669291333
20
5.5756951574803146
11
-4.1247771259842523
21
5.5720328346456691
0
LINE
8
BLACK
6
CONTINUOUS
10
-4.1247771259842523
20
5.5720328346456691
11
-4.1247772440944885
21
5.5720327559055116
0
LINE
8
BLACK
6
CONTINUOUS
10
-4.1247772440944885
20
5.5720327559055116
11
-4.1297099212598427
21
5.5671000787401574
0
LINE
8
BLACK
6
CONTINUOUS
10
-4.1297099212598427
20
5.5671000787401574
11
-4.129710039370079
21
5.5670999212598424
0
LINE
8
BLACK
6
CONTINUOUS
10
-4.129710039370079
20
5.5670999212598424
11
-4.1333723622047245
21
5.5611623622047244
0
LINE
8
BLACK
6
CONTINUOUS
10
-4.1333723622047245
20
5.5611623622047244
11
-4.1355666929133861
21
5.5545403543307081
0
LINE
8
BLACK
6
CONTINUOUS
10
-4.1355666929133861
20
5.5545403543307081
11
-4.1359842519685035
21
5.5504529133858265
0
LINE
8
BLACK
6
CONTINUOUS
10
-4.1359842519685035
20
5.5504529133858265
11
-4.1359842519685035
21
5.5486220472440948
0
LINE
8
BLACK
6
CONTINUOUS
10
-4.1359842519685035
20
5.5486220472440948
11
-4.1159529133858266
21
5.5486220472440948
0
LINE
8
BLACK
6
CONTINUOUS
10
-4.1159529133858266
20
5.5486220472440948
11
-4.115235039370079
21
5.5522311417322836
0
LINE
8
BLACK
6
CONTINUOUS
10
-4.115235039370079
20
5.5522311417322836
11
-4.1131014566929132
21
5.555424291338583
0
LINE
8
BLACK
6
CONTINUOUS
10
-4.1131014566929132
20
5.555424291338583
11
-4.1099083070866138
21
5.5575578740157479
0
LINE
8
BLACK
6
CONTINUOUS
10
-4.1099083070866138
20
5.5575578740157479
11
-4.1061417322834641
21
5.5583070866141728
0
LINE
8
BLACK
6
CONTINUOUS
10
-4.1061417322834641
20
5.5583070866141728
11
-4.0728346456692917
21
5.5583070866141728
0
LINE
8
BLACK
6
CONTINUOUS
10
-4.0728346456692917
20
5.5583070866141728
11
-4.0728346456692917
21
5.5783070866141733
0
LINE
8
BLACK
6
CONTINUOUS
10
-4.0728346456692917
20
5.5783070866141733
11
-4.1081300000000001
21
5.5783070866141733
0
LINE
8
BLACK
6
CONTINUOUS
10
-4.1081300000000001
20
5.5783070866141733
11
-4.1081301181102363
21
5.5783070472440945
0
LINE
8
BLACK
6
CONTINUOUS
10
-4.9229133858267717
20
5.5583070866141728
11
-4.8896062992125984
21
5.5583070866141728
0
LINE
8
BLACK
6
CONTINUOUS
10
-4.8896062992125984
20
5.5583070866141728
11
-4.8858397244094487
21
5.5575578740157479
0
LINE
8
BLACK
6
CONTINUOUS
10
-4.8858397244094487
20
5.5575578740157479
11
-4.8826465748031493
21
5.555424291338583
0
LINE
8
BLACK
6
CONTINUOUS
10
-4.8826465748031493
20
5.555424291338583
11
-4.8805129921259844
21
5.5522311417322836
0
LINE
8
BLACK
6
CONTINUOUS
10
-4.8805129921259844
20
5.5522311417322836
11
-4.8797951181102359
21
5.5486220472440948
0
LINE
8
BLACK
6
CONTINUOUS
10
-4.8797951181102359
20
5.5486220472440948
11
-4.859763779527559
21
5.5486220472440948
0
LINE
8
BLACK
6
CONTINUOUS
10
-4.859763779527559
20
5.5486220472440948
11
-4.859763779527559
21
5.550452834645669
0
LINE
8
BLACK
6
CONTINUOUS
10
-4.859763779527559
20
5.550452834645669
11
-4.8597638188976378
21
5.5504529133858265
0
LINE
8
BLACK
6
CONTINUOUS
10
-4.8597638188976378
20
5.5504529133858265
11
-4.8601813779527561
21
5.5545403543307081
0
LINE
8
BLACK
6
CONTINUOUS
10
-4.8601813779527561
20
5.5545403543307081
11
-4.8623757086614168
21
5.5611623622047244
0
LINE
8
BLACK
6
CONTINUOUS
10
-4.8623757086614168
20
5.5611623622047244
11
-4.8660380314960632
21
5.5670999212598424
0
LINE
8
BLACK
6
CONTINUOUS
10
-4.8660380314960632
20
5.5670999212598424
11
-4.8660381102362207
21
5.5671000787401574
0
LINE
8
BLACK
6
CONTINUOUS
10
-4.8660381102362207
20
5.5671000787401574
11
-4.8709707874015749
21
5.5720327559055116
0
LINE
8
BLACK
6
CONTINUOUS
10
-4.8709707874015749
20
5.5720327559055116
11
-4.8709709448818899
21
5.5720328346456691
0
LINE
8
BLACK
6
CONTINUOUS
10
-4.8709709448818899
20
5.5720328346456691
11
-4.8769085039370079
21
5.5756951574803146
0
LINE
8
BLACK
6
CONTINUOUS
10
-4.8769085039370079
20
5.5756951574803146
11
-4.8835305118110233
21
5.5778894881889762
0
LINE
8
BLACK
6
CONTINUOUS
10
-4.8835305118110233
20
5.5778894881889762
11
-4.8876179527559058
21
5.5783070472440945
0
LINE
8
BLACK
6
CONTINUOUS
10
-4.8876179527559058
20
5.5783070472440945
11
-4.8876180314960624
21
5.5783070866141733
0
LINE
8
BLACK
6
CONTINUOUS
10
-4.8876180314960624
20
5.5783070866141733
11
-4.9229133858267717
21
5.5783070866141733
0
LINE
8
BLACK
6
CONTINUOUS
10
-4.9229133858267717
20
5.5783070866141733
11
-4.9229133858267717
21
5.5583070866141728
0
LINE
8
BLACK
6
CONTINUOUS
10
-4.7751942519685038
20
5.6013753543307088
11
-4.7771101181102358
21
5.6000951968503934
0
LINE
8
BLACK
6
CONTINUOUS
10
-4.7771101181102358
20
5.6000951968503934
11
-4.7793700787401576
21
5.5996456692913386
0
LINE
8
BLACK
6
CONTINUOUS
10
-4.7793700787401576
20
5.5996456692913386
11
-4.796929133858268
21
5.5996456692913386
0
LINE
8
BLACK
6
CONTINUOUS
10
-4.796929133858268
20
5.5996456692913386
11
-4.796929133858268
21
5.5796456692913381
0
LINE
8
BLACK
6
CONTINUOUS
10
-4.796929133858268
20
5.5796456692913381
11
-4.7767537795275592
21
5.5796456692913381
0
LINE
8
BLACK
6
CONTINUOUS
10
-4.7767537795275592
20
5.5796456692913381
11
-4.7767537007874017
21
5.5796457086614168
0
LINE
8
BLACK
6
CONTINUOUS
10
-4.7767537007874017
20
5.5796457086614168
11
-4.7752853543307081
21
5.5797612204724407
0
LINE
8
BLACK
6
CONTINUOUS
10
-4.7752853543307081
20
5.5797612204724407
11
-4.7689999606299214
21
5.581587322834646
0
LINE
8
BLACK
6
CONTINUOUS
10
-4.7689999606299214
20
5.581587322834646
11
-4.7633662204724407
21
5.584919094488189
0
LINE
8
BLACK
6
CONTINUOUS
10
-4.7633662204724407
20
5.584919094488189
11
-4.7587380314960628
21
5.589547283464567
0
LINE
8
BLACK
6
CONTINUOUS
10
-4.7587380314960628
20
5.589547283464567
11
-4.7554062598425197
21
5.5951810236220467
0
LINE
8
BLACK
6
CONTINUOUS
10
-4.7554062598425197
20
5.5951810236220467
11
-4.753582952755905
21
5.601456692913386
0
LINE
8
BLACK
6
CONTINUOUS
10
-4.753582952755905
20
5.601456692913386
11
-4.775139921259842
21
5.601456692913386
0
LINE
8
BLACK
6
CONTINUOUS
10
-4.775139921259842
20
5.601456692913386
11
-4.7751942519685038
21
5.6013753543307088
0
LINE
8
BLACK
6
CONTINUOUS
10
-4.9254503149606297
20
5.6365256299212598
11
-4.9253437007874012
21
5.6360813779527561
0
LINE
8
BLACK
6
CONTINUOUS
10
-4.9253437007874012
20
5.6360813779527561
11
-4.9251830314960632
21
5.6350670078740155
0
LINE
8
BLACK
6
CONTINUOUS
10
-4.9251830314960632
20
5.6350670078740155
11
-4.9251829921259844
21
5.6350668897637792
0
LINE
8
BLACK
6
CONTINUOUS
10
-4.9251829921259844
20
5.6350668897637792
11
-4.9247165354330704
21
5.6341514173228342
0
LINE
8
BLACK
6
CONTINUOUS
10
-4.9247165354330704
20
5.6341514173228342
11
-4.9245416929133858
21
5.6337292125984249
0
LINE
8
BLACK
6
CONTINUOUS
10
-4.9245416929133858
20
5.6337292125984249
11
-4.9242243307086611
21
5.6327524409448815
0
LINE
8
BLACK
6
CONTINUOUS
10
-4.9242243307086611
20
5.6327524409448815
11
-4.9242242913385823
21
5.6327524015748027
0
LINE
8
BLACK
6
CONTINUOUS
10
-4.9242242913385823
20
5.6327524015748027
11
-4.9236203543307084
21
5.6319211023622042
0
LINE
8
BLACK
6
CONTINUOUS
10
-4.9236203543307084
20
5.6319211023622042
11
-4.9233816141732278
21
5.6315314960629923
0
LINE
8
BLACK
6
CONTINUOUS
10
-4.9233816141732278
20
5.6315314960629923
11
-4.9229938976377952
21
5.6307705511811026
0
LINE
8
BLACK
6
CONTINUOUS
10
-4.9229938976377952
20
5.6307705511811026
11
-4.9229153543307085
21
5.6306164566929136
0
LINE
8
BLACK
6
CONTINUOUS
10
-4.9229153543307085
20
5.6306164566929136
11
-4.9220270472440948
21
5.6297281102362202
0
LINE
8
BLACK
6
CONTINUOUS
10
-4.9220270472440948
20
5.6297281102362202
11
-4.9220269291338585
21
5.629727992125984
0
LINE
8
BLACK
6
CONTINUOUS
10
-4.9220269291338585
20
5.629727992125984
11
-4.9220267716535435
21
5.6297277952755902
0
LINE
8
BLACK
6
CONTINUOUS
10
-4.9220267716535435
20
5.6297277952755902
11
-4.8952722047244093
21
5.6029732283464568
0
LINE
8
BLACK
6
CONTINUOUS
10
-4.8952722047244093
20
5.6029732283464568
11
-4.8952720472440943
21
5.6029731102362206
0
LINE
8
BLACK
6
CONTINUOUS
10
-4.8952720472440943
20
5.6029731102362206
11
-4.8952720078740155
21
5.6029730708661418
0
LINE
8
BLACK
6
CONTINUOUS
10
-4.8952720078740155
20
5.6029730708661418
11
-4.8952718897637792
21
5.6029729527559056
0
LINE
8
BLACK
6
CONTINUOUS
10
-4.8952718897637792
20
5.6029729527559056
11
-4.8943835433070868
21
5.602084645669291
0
LINE
8
BLACK
6
CONTINUOUS
10
-4.8943835433070868
20
5.602084645669291
11
-4.8943835039370081
21
5.6020846062992122
0
LINE
8
BLACK
6
CONTINUOUS
10
-4.8943835039370081
20
5.6020846062992122
11
-4.8938510629921259
21
5.6018132677165351
0
LINE
8
BLACK
6
CONTINUOUS
10
-4.8938510629921259
20
5.6018132677165351
11
-4.8934683070866143
21
5.6016182283464566
0
LINE
8
BLACK
6
CONTINUOUS
10
-4.8934683070866143
20
5.6016182283464566
11
-4.8930788582677165
21
5.6013796062992123
0
LINE
8
BLACK
6
CONTINUOUS
10
-4.8930788582677165
20
5.6013796062992123
11
-4.8922476771653542
21
5.6007757480314959
0
LINE
8
BLACK
6
CONTINUOUS
10
-4.8922476771653542
20
5.6007757480314959
11
-4.8917974803149606
21
5.6006294488188972
0
LINE
8
BLACK
6
CONTINUOUS
10
-4.8917974803149606
20
5.6006294488188972
11
-4.8912705511811021
21
5.6004582283464561
0
LINE
8
BLACK
6
CONTINUOUS
10
-4.8912705511811021
20
5.6004582283464561
11
-4.890848622047244
21
5.600283464566929
0
LINE
8
BLACK
6
CONTINUOUS
10
-4.890848622047244
20
5.600283464566929
11
-4.8899332677165352
21
5.5998170472440947
0
LINE
8
BLACK
6
CONTINUOUS
10
-4.8899332677165352
20
5.5998170472440947
11
-4.8899330708661415
21
5.5998170078740159
0
LINE
8
BLACK
6
CONTINUOUS
10
-4.8899330708661415
20
5.5998170078740159
11
-4.8889186220472443
21
5.5996562992125982
0
LINE
8
BLACK
6
CONTINUOUS
10
-4.8889186220472443
20
5.5996562992125982
11
-4.8884744488188971
21
5.5995496850393698
0
LINE
8
BLACK
6
CONTINUOUS
10
-4.8884744488188971
20
5.5995496850393698
11
-4.8874974409448821
21
5.5992322834645671
0
LINE
8
BLACK
6
CONTINUOUS
10
-4.8874974409448821
20
5.5992322834645671
11
-4.8874973622047246
21
5.5992322834645671
0
LINE
8
BLACK
6
CONTINUOUS
10
-4.8874973622047246
20
5.5992322834645671
11
-4.8862409055118112
21
5.5992322834645671
0
LINE
8
BLACK
6
CONTINUOUS
10
-4.8862409055118112
20
5.5992322834645671
11
-4.8841374803149602
21
5.5992322834645671
0
LINE
8
BLACK
6
CONTINUOUS
10
-4.8841374803149602
20
5.5992322834645671
11
-4.8822648031496065
21
5.5985506692913383
0
LINE
8
BLACK
6
CONTINUOUS
10
-4.8822648031496065
20
5.5985506692913383
11
-4.8819978740157479
21
5.5982718503937008
0
LINE
8
BLACK
6
CONTINUOUS
10
-4.8819978740157479
20
5.5982718503937008
11
-4.8819963385826775
21
5.5982733858267713
0
LINE
8
BLACK
6
CONTINUOUS
10
-4.8819963385826775
20
5.5982733858267713
11
-4.8818613385826772
21
5.5981383070866144
0
LINE
8
BLACK
6
CONTINUOUS
10
-4.8818613385826772
20
5.5981383070866144
11
-4.876922913385827
21
5.5943489763779528
0
LINE
8
BLACK
6
CONTINUOUS
10
-4.876922913385827
20
5.5943489763779528
11
-4.8711717322834645
21
5.5919667322834643
0
LINE
8
BLACK
6
CONTINUOUS
10
-4.8711717322834645
20
5.5919667322834643
11
-4.865000039370079
21
5.5911542519685042
0
LINE
8
BLACK
6
CONTINUOUS
10
-4.865000039370079
20
5.5911542519685042
11
-4.8650000000000002
21
5.5911542519685042
0
LINE
8
BLACK
6
CONTINUOUS
10
-4.8650000000000002
20
5.5911542519685042
11
-4.8588282677165351
21
5.5919667716535431
0
LINE
8
BLACK
6
CONTINUOUS
10
-4.8588282677165351
20
5.5919667716535431
11
-4.8586389763779527
21
5.5919916929133855
0
LINE
8
BLACK
6
CONTINUOUS
10
-4.8586389763779527
20
5.5919916929133855
11
-4.8586255511811025
21
5.5918894881889765
0
LINE
8
BLACK
6
CONTINUOUS
10
-4.8586255511811025
20
5.5918894881889765
11
-4.857008858267716
21
5.5917452755905508
0
LINE
8
BLACK
6
CONTINUOUS
10
-4.857008858267716
20
5.5917452755905508
11
-4.8557370078740156
21
5.5905900787401572
0
LINE
8
BLACK
6
CONTINUOUS
10
-4.8557370078740156
20
5.5905900787401572
11
-4.8551203149606295
21
5.5895473228346457
0
LINE
8
BLACK
6
CONTINUOUS
10
-4.8551203149606295
20
5.5895473228346457
11
-4.8504920866141727
21
5.584919094488189
0
LINE
8
BLACK
6
CONTINUOUS
10
-4.8504920866141727
20
5.584919094488189
11
-4.844858346456693
21
5.581587322834646
0
LINE
8
BLACK
6
CONTINUOUS
10
-4.844858346456693
20
5.581587322834646
11
-4.8385730314960629
21
5.5797612204724407
0
LINE
8
BLACK
6
CONTINUOUS
10
-4.8385730314960629
20
5.5797612204724407
11
-4.8371045669291339
21
5.5796456692913381
0
LINE
8
BLACK
6
CONTINUOUS
10
-4.8371045669291339
20
5.5796456692913381
11
-4.8169291338582676
21
5.5796456692913381
0
LINE
8
BLACK
6
CONTINUOUS
10
-4.8169291338582676
20
5.5796456692913381
11
-4.8169291338582676
21
5.5996456692913386
0
LINE
8
BLACK
6
CONTINUOUS
10
-4.8169291338582676
20
5.5996456692913386
11
-4.834488188976378
21
5.5996456692913386
0
LINE
8
BLACK
6
CONTINUOUS
10
-4.834488188976378
20
5.5996456692913386
11
-4.836748149606299
21
5.6000951968503934
0
LINE
8
BLACK
6
CONTINUOUS
10
-4.836748149606299
20
5.6000951968503934
11
-4.838664015748031
21
5.6013753543307088
0
LINE
8
BLACK
6
CONTINUOUS
10
-4.838664015748031
20
5.6013753543307088
11
-4.8399441732283464
21
5.6032912204724408
0
LINE
8
BLACK
6
CONTINUOUS
10
-4.8399441732283464
20
5.6032912204724408
11
-4.8403937007874012
21
5.6055511811023617
0
LINE
8
BLACK
6
CONTINUOUS
10
-4.8403937007874012
20
5.6055511811023617
11
-4.8403937007874012
21
5.6173622047244089
0
LINE
8
BLACK
6
CONTINUOUS
10
-4.8403937007874012
20
5.6173622047244089
11
-4.8399441732283464
21
5.6196221653543308
0
LINE
8
BLACK
6
CONTINUOUS
10
-4.8399441732283464
20
5.6196221653543308
11
-4.838664015748031
21
5.6215380314960628
0
LINE
8
BLACK
6
CONTINUOUS
10
-4.838664015748031
20
5.6215380314960628
11
-4.836748149606299
21
5.6228181889763782
0
LINE
8
BLACK
6
CONTINUOUS
10
-4.836748149606299
20
5.6228181889763782
11
-4.834488188976378
21
5.623267716535433
0
LINE
8
BLACK
6
CONTINUOUS
10
-4.834488188976378
20
5.623267716535433
11
-4.7793700787401576
21
5.623267716535433
0
LINE
8
BLACK
6
CONTINUOUS
10
-4.7793700787401576
20
5.623267716535433
11
-4.7771101181102358
21
5.6228181889763782
0
LINE
8
BLACK
6
CONTINUOUS
10
-4.7771101181102358
20
5.6228181889763782
11
-4.7751942519685038
21
5.6215380314960628
0
LINE
8
BLACK
6
CONTINUOUS
10
-4.7751942519685038
20
5.6215380314960628
11
-4.775139921259842
21
5.6214566929133856
0
LINE
8
BLACK
6
CONTINUOUS
10
-4.775139921259842
20
5.6214566929133856
11
-4.753582952755905
21
5.6214566929133856
0
LINE
8
BLACK
6
CONTINUOUS
10
-4.753582952755905
20
5.6214566929133856
11
-4.7554062598425197
21
5.6277323228346452
0
LINE
8
BLACK
6
CONTINUOUS
10
-4.7554062598425197
20
5.6277323228346452
11
-4.7587380314960628
21
5.6333660629921258
0
LINE
8
BLACK
6
CONTINUOUS
10
-4.7587380314960628
20
5.6333660629921258
11
-4.7633662204724407
21
5.6379942519685038
0
LINE
8
BLACK
6
CONTINUOUS
10
-4.7633662204724407
20
5.6379942519685038
11
-4.7658793307086613
21
5.6394805118110236
0
LINE
8
BLACK
6
CONTINUOUS
10
-4.7658793307086613
20
5.6394805118110236
11
-4.7671442519685039
21
5.6410204724409452
0
LINE
8
BLACK
6
CONTINUOUS
10
-4.7671442519685039
20
5.6410204724409452
11
-4.76712342519685
21
5.6430132283464562
0
LINE
8
BLACK
6
CONTINUOUS
10
-4.76712342519685
20
5.6430132283464562
11
-4.7658264960629921
21
5.6445263779527561
0
LINE
8
BLACK
6
CONTINUOUS
10
-4.7658264960629921
20
5.6445263779527561
11
-4.7643962992125983
21
5.6449015748031499
0
LINE
8
BLACK
6
CONTINUOUS
10
-4.7643962992125983
20
5.6449015748031499
11
-4.6552485826771655
21
5.6449015748031499
0
LINE
8
BLACK
6
CONTINUOUS
10
-4.6552485826771655
20
5.6449015748031499
11
-4.6550000000000002
21
5.6449409448818892
0
LINE
8
BLACK
6
CONTINUOUS
10
-4.6550000000000002
20
5.6449409448818892
11
-4.6547514173228342
21
5.6449015748031499
0
LINE
8
BLACK
6
CONTINUOUS
10
-4.6547514173228342
20
5.6449015748031499
11
-4.489255
21
5.6449015748031499
0
LINE
8
BLACK
6
CONTINUOUS
10
-4.489255
20
5.6449015748031499
11
-4.4873823228346454
21
5.644219960629921
0
LINE
8
BLACK
6
CONTINUOUS
10
-4.4873823228346454
20
5.644219960629921
11
-4.4869435826771653
21
5.6437616535433071
0
LINE
8
BLACK
6
CONTINUOUS
10
-4.4869435826771653
20
5.6437616535433071
11
-4.4867609055118107
21
5.6435235433070865
0
LINE
8
BLACK
6
CONTINUOUS
10
-4.4867609055118107
20
5.6435235433070865
11
-4.4867608267716532
21
5.6435234251968502
0
LINE
8
BLACK
6
CONTINUOUS
10
-4.4867608267716532
20
5.6435234251968502
11
-4.4818222440944879
21
5.6397339370078736
0
LINE
8
BLACK
6
CONTINUOUS
10
-4.4818222440944879
20
5.6397339370078736
11
-4.4760710629921263
21
5.637351692913386
0
LINE
8
BLACK
6
CONTINUOUS
10
-4.4760710629921263
20
5.637351692913386
11
-4.4698993307086612
21
5.6365392125984251
0
LINE
8
BLACK
6
CONTINUOUS
10
-4.4698993307086612
20
5.6365392125984251
11
-4.4637276771653545
21
5.637351692913386
0
LINE
8
BLACK
6
CONTINUOUS
10
-4.4637276771653545
20
5.637351692913386
11
-4.4637276377952757
21
5.637351692913386
0
LINE
8
BLACK
6
CONTINUOUS
10
-4.4637276377952757
20
5.637351692913386
11
-4.4579764566929132
21
5.6397339370078736
0
LINE
8
BLACK
6
CONTINUOUS
10
-4.4579764566929132
20
5.6397339370078736
11
-4.4530379527559054
21
5.6435233464566927
0
LINE
8
BLACK
6
CONTINUOUS
10
-4.4530379527559054
20
5.6435233464566927
11
-4.4530377559055117
21
5.6435235433070865
0
LINE
8
BLACK
6
CONTINUOUS
10
-4.4530377559055117
20
5.6435235433070865
11
-4.4499087007874012
21
5.6476014173228348
0
LINE
8
BLACK
6
CONTINUOUS
10
-4.4499087007874012
20
5.6476014173228348
11
-4.4482279527559054
21
5.6486722047244093
0
LINE
8
BLACK
6
CONTINUOUS
10
-4.4482279527559054
20
5.6486722047244093
11
-4.4462521259842518
21
5.6484120866141732
0
LINE
8
BLACK
6
CONTINUOUS
10
-4.4462521259842518
20
5.6484120866141732
11
-4.4452860236220468
21
5.6476014173228348
0
LINE
8
BLACK
6
CONTINUOUS
10
-4.4452860236220468
20
5.6476014173228348
11
-4.4418616141732281
21
5.6431385826771656
0
LINE
8
BLACK
6
CONTINUOUS
10
-4.4418616141732281
20
5.6431385826771656
11
-4.4418614173228343
21
5.6431383858267719
0
LINE
8
BLACK
6
CONTINUOUS
10
-4.4418614173228343
20
5.6431383858267719
11
-4.4369229133858266
21
5.6393489763779527
0
LINE
8
BLACK
6
CONTINUOUS
10
-4.4369229133858266
20
5.6393489763779527
11
-4.4311717322834641
21
5.6369667322834642
0
LINE
8
BLACK
6
CONTINUOUS
10
-4.4311717322834641
20
5.6369667322834642
11
-4.4249999999999998
21
5.6361542519685042
0
LINE
8
BLACK
6
CONTINUOUS
10
-4.4249999999999998
20
5.6361542519685042
11
-4.4188283464566931
21
5.6369667322834642
0
LINE
8
BLACK
6
CONTINUOUS
10
-4.4188283464566931
20
5.6369667322834642
11
-4.4188283070866143
21
5.6369667322834642
0
LINE
8
BLACK
6
CONTINUOUS
10
-4.4188283070866143
20
5.6369667322834642
11
-4.4130771259842518
21
5.6393489763779527
0
LINE
8
BLACK
6
CONTINUOUS
10
-4.4130771259842518
20
5.6393489763779527
11
-4.408138622047244
21
5.6431383858267719
0
LINE
8
BLACK
6
CONTINUOUS
10
-4.408138622047244
20
5.6431383858267719
11
-4.4081384251968503
21
5.6431385826771656
0
LINE
8
BLACK
6
CONTINUOUS
10
-4.4081384251968503
20
5.6431385826771656
11
-4.4054559055118112
21
5.6466345275590548
0
LINE
8
BLACK
6
CONTINUOUS
10
-4.4054559055118112
20
5.6466345275590548
11
-4.4043489763779524
21
5.6480771259842522
0
LINE
8
BLACK
6
CONTINUOUS
10
-4.4043489763779524
20
5.6480771259842522
11
-4.4019667716535436
21
5.653828267716535
0
LINE
8
BLACK
6
CONTINUOUS
10
-4.4019667716535436
20
5.653828267716535
11
-4.4011542519685038
21
5.6600000000000001
0
LINE
8
BLACK
6
CONTINUOUS
10
-4.4011542519685038
20
5.6600000000000001
11
-4.4019667716535436
21
5.6661717322834644
0
LINE
8
BLACK
6
CONTINUOUS
10
-4.4019667716535436
20
5.6661717322834644
11
-4.4043489763779524
21
5.6719228740157481
0
LINE
8
BLACK
6
CONTINUOUS
10
-4.4043489763779524
20
5.6719228740157481
11
-4.4081385039370078
21
5.6768614960629922
0
LINE
8
BLACK
6
CONTINUOUS
10
-4.4081385039370078
20
5.6768614960629922
11
-4.4130771259842518
21
5.6806510236220475
0
LINE
8
BLACK
6
CONTINUOUS
10
-4.4130771259842518
20
5.6806510236220475
11
-4.4188282677165356
21
5.6830332283464564
0
LINE
8
BLACK
6
CONTINUOUS
10
-4.4188282677165356
20
5.6830332283464564
11
-4.4249999999999998
21
5.6838457480314961
0
LINE
8
BLACK
6
CONTINUOUS
10
-4.4249999999999998
20
5.6838457480314961
11
-4.4250000393700786
21
5.6838457086614174
0
LINE
8
BLACK
6
CONTINUOUS
10
-4.4250000393700786
20
5.6838457086614174
11
-4.4250000393700786
21
5.6838457480314961
0
LINE
8
BLACK
6
CONTINUOUS
10
-4.4250000393700786
20
5.6838457480314961
11
-4.4251909448818898
21
5.6838457480314961
0
LINE
8
BLACK
6
CONTINUOUS
10
-4.4251909448818898
20
5.6838457480314961
11
-4.4251909448818898
21
5.6839084251968499
0
LINE
8
BLACK
6
CONTINUOUS
10
-4.4251909448818898
20
5.6839084251968499
11
-4.4268879527559051
21
5.684284527559055
0
LINE
8
BLACK
6
CONTINUOUS
10
-4.4268879527559051
20
5.684284527559055
11
-4.4273826377952759
21
5.6846814960629919
0
LINE
8
BLACK
6
CONTINUOUS
10
-4.4273826377952759
20
5.6846814960629919
11
-4.4465897637795271
21
5.7038887007874015
0
LINE
8
BLACK
6
CONTINUOUS
10
-4.4465897637795271
20
5.7038887007874015
11
-4.4465898818897633
21
5.7038887401574803
0
LINE
8
BLACK
6
CONTINUOUS
10
-4.4465898818897633
20
5.7038887401574803
11
-4.4467557086614171
21
5.7040546062992128
0
LINE
8
BLACK
6
CONTINUOUS
10
-4.4467557086614171
20
5.7040546062992128
11
-4.4467559055118109
21
5.7040547637795278
0
LINE
8
BLACK
6
CONTINUOUS
10
-4.4467559055118109
20
5.7040547637795278
11
-4.4474782283464567
21
5.7047771259842515
0
LINE
8
BLACK
6
CONTINUOUS
10
-4.4474782283464567
20
5.7047771259842515
11
-4.4483933464566929
21
5.705243346456693
0
LINE
8
BLACK
6
CONTINUOUS
10
-4.4483933464566929
20
5.705243346456693
11
-4.4487831889763783
21
5.7054822834645664
0
LINE
8
BLACK
6
CONTINUOUS
10
-4.4487831889763783
20
5.7054822834645664
11
-4.449614133858268
21
5.7060860236220474
0
LINE
8
BLACK
6
CONTINUOUS
10
-4.449614133858268
20
5.7060860236220474
11
-4.4505912204724405
21
5.7064034645669288
0
LINE
8
BLACK
6
CONTINUOUS
10
-4.4505912204724405
20
5.7064034645669288
11
-4.451013228346457
21
5.7065782283464568
0
LINE
8
BLACK
6
CONTINUOUS
10
-4.451013228346457
20
5.7065782283464568
11
-4.4519285433070861
21
5.7070446850393699
0
LINE
8
BLACK
6
CONTINUOUS
10
-4.4519285433070861
20
5.7070446850393699
11
-4.452943188976378
21
5.7072053543307089
0
LINE
8
BLACK
6
CONTINUOUS
10
-4.452943188976378
20
5.7072053543307089
11
-4.4533872440944879
21
5.7073119291338585
0
LINE
8
BLACK
6
CONTINUOUS
10
-4.4533872440944879
20
5.7073119291338585
11
-4.4543644094488188
21
5.7076294881889762
0
LINE
8
BLACK
6
CONTINUOUS
10
-4.4543644094488188
20
5.7076294881889762
11
-4.7131846456692914
21
5.7076294881889762
0
LINE
8
BLACK
6
CONTINUOUS
10
-4.7131846456692914
20
5.7076294881889762
11
-4.715057322834646
21
5.7083111023622042
0
LINE
8
BLACK
6
CONTINUOUS
10
-4.715057322834646
20
5.7083111023622042
11
-4.7157725196850393
21
5.7095498425196851
0
LINE
8
BLACK
6
CONTINUOUS
10
-4.7157725196850393
20
5.7095498425196851
11
-4.7160537795275586
21
5.7100369685039372
0
LINE
8
BLACK
6
CONTINUOUS
10
-4.7160537795275586
20
5.7100369685039372
11
-4.7160731102362208
21
5.7101625984251969
0
LINE
8
BLACK
6
CONTINUOUS
10
-4.7160731102362208
20
5.7101625984251969
11
-4.7168049606299212
21
5.7157214960629918
0
LINE
8
BLACK
6
CONTINUOUS
10
-4.7168049606299212
20
5.7157214960629918
11
-4.7168486614173224
21
5.7160536220472435
0
LINE
8
BLACK
6
CONTINUOUS
10
-4.7168486614173224
20
5.7160536220472435
11
-4.7192308661417322
21
5.7218047637795273
0
LINE
8
BLACK
6
CONTINUOUS
10
-4.7192308661417322
20
5.7218047637795273
11
-4.7230203937007875
21
5.7267433858267713
0
LINE
8
BLACK
6
CONTINUOUS
10
-4.7230203937007875
20
5.7267433858267713
11
-4.7279590157480316
21
5.7305329133858267
0
LINE
8
BLACK
6
CONTINUOUS
10
-4.7279590157480316
20
5.7305329133858267
11
-4.7299099212598428
21
5.7313409842519683
0
LINE
8
BLACK
6
CONTINUOUS
10
-4.7299099212598428
20
5.7313409842519683
11
-4.7313791732283468
21
5.7326873228346455
0
LINE
8
BLACK
6
CONTINUOUS
10
-4.7313791732283468
20
5.7326873228346455
11
-4.7316393307086617
21
5.7346631496062992
0
LINE
8
BLACK
6
CONTINUOUS
10
-4.7316393307086617
20
5.7346631496062992
11
-4.7305685826771651
21
5.7363439370078737
0
LINE
8
BLACK
6
CONTINUOUS
10
-4.7305685826771651
20
5.7363439370078737
11
-4.7291753937007872
21
5.7369210629921259
0
LINE
8
BLACK
6
CONTINUOUS
10
-4.7291753937007872
20
5.7369210629921259
11
-4.7288282677165352
21
5.7369667716535435
0
LINE
8
BLACK
6
CONTINUOUS
10
-4.7288282677165352
20
5.7369667716535435
11
-4.7230771259842514
21
5.7393489763779524
0
LINE
8
BLACK
6
CONTINUOUS
10
-4.7230771259842514
20
5.7393489763779524
11
-4.7181387007874012
21
5.743138307086614
0
LINE
8
BLACK
6
CONTINUOUS
10
-4.7181387007874012
20
5.743138307086614
11
-4.7180036614173231
21
5.7432733858267717
0
LINE
8
BLACK
6
CONTINUOUS
10
-4.7180036614173231
20
5.7432733858267717
11
-4.7179594094488184
21
5.7432290944881892
0
LINE
8
BLACK
6
CONTINUOUS
10
-4.7179594094488184
20
5.7432290944881892
11
-4.7164930314960625
21
5.7441632283464568
0
LINE
8
BLACK
6
CONTINUOUS
10
-4.7164930314960625
20
5.7441632283464568
11
-4.7158625196850394
21
5.7442322834645667
0
LINE
8
BLACK
6
CONTINUOUS
10
-4.7158625196850394
20
5.7442322834645667
11
-4.6233294488188976
21
5.7442322834645667
0
LINE
8
BLACK
6
CONTINUOUS
10
-4.6233294488188976
20
5.7442322834645667
11
-4.6233294094488189
21
5.7442322834645667
0
LINE
8
BLACK
6
CONTINUOUS
10
-4.6233294094488189
20
5.7442322834645667
11
-4.6230153937007872
21
5.7443342913385829
0
LINE
8
BLACK
6
CONTINUOUS
10
-4.6230153937007872
20
5.7443342913385829
11
-4.622352401574803
21
5.7445496850393702
0
LINE
8
BLACK
6
CONTINUOUS
10
-4.622352401574803
20
5.7445496850393702
11
-4.6219081496062993
21
5.7446562992125987
0
LINE
8
BLACK
6
CONTINUOUS
10
-4.6219081496062993
20
5.7446562992125987
11
-4.6208938582677161
21
5.7448169685039367
0
LINE
8
BLACK
6
CONTINUOUS
10
-4.6208938582677161
20
5.7448169685039367
11
-4.6208936220472436
21
5.7448170472440943
0
LINE
8
BLACK
6
CONTINUOUS
10
-4.6208936220472436
20
5.7448170472440943
11
-4.6199783858267711
21
5.7452833858267711
0
LINE
8
BLACK
6
CONTINUOUS
10
-4.6199783858267711
20
5.7452833858267711
11
-4.6195560236220468
21
5.7454583070866141
0
LINE
8
BLACK
6
CONTINUOUS
10
-4.6195560236220468
20
5.7454583070866141
11
-4.6185792125984255
21
5.7457756692913389
0
LINE
8
BLACK
6
CONTINUOUS
10
-4.6185792125984255
20
5.7457756692913389
11
-4.6185791732283468
21
5.7457757086614176
0
LINE
8
BLACK
6
CONTINUOUS
10
-4.6185791732283468
20
5.7457757086614176
11
-4.6177481496062995
21
5.7463794488188977
0
LINE
8
BLACK
6
CONTINUOUS
10
-4.6177481496062995
20
5.7463794488188977
11
-4.617358503937008
21
5.7466182283464562
0
LINE
8
BLACK
6
CONTINUOUS
10
-4.617358503937008
20
5.7466182283464562
11
-4.6164432677165355
21
5.7470846062992127
0
LINE
8
BLACK
6
CONTINUOUS
10
-4.6164432677165355
20
5.7470846062992127
11
-4.6156281889763777
21
5.7478996850393695
0
LINE
8
BLACK
6
CONTINUOUS
10
-4.6156281889763777
20
5.7478996850393695
11
-4.6156275984251964
21
5.7479002362204721
0
LINE
8
BLACK
6
CONTINUOUS
10
-4.6156275984251964
20
5.7479002362204721
11
-4.5918742913385824
21
5.7716535433070861
0
LINE
8
BLACK
6
CONTINUOUS
10
-4.5918742913385824
20
5.7716535433070861
11
-4.5401488582677167
21
5.8233789763779527
0
LINE
8
BLACK
6
CONTINUOUS
10
-4.5401488582677167
20
5.8233789763779527
11
-4.5383427165354329
21
5.8242211811023621
0
LINE
8
BLACK
6
CONTINUOUS
10
-4.5383427165354329
20
5.8242211811023621
11
-4.5380887795275591
21
5.8242322834645668
0
LINE
8
BLACK
6
CONTINUOUS
10
-4.5380887795275591
20
5.8242322834645668
11
-4.4991374803149604
21
5.8242322834645668
0
LINE
8
BLACK
6
CONTINUOUS
10
-4.4991374803149604
20
5.8242322834645668
11
-4.4972648031496059
21
5.8235506692913388
0
LINE
8
BLACK
6
CONTINUOUS
10
-4.4972648031496059
20
5.8235506692913388
11
-4.4969978740157481
21
5.8232718503937004
0
LINE
8
BLACK
6
CONTINUOUS
10
-4.4969978740157481
20
5.8232718503937004
11
-4.4969963385826768
21
5.8232733858267718
0
LINE
8
BLACK
6
CONTINUOUS
10
-4.4969963385826768
20
5.8232733858267718
11
-4.4968613385826774
21
5.8231383070866141
0
LINE
8
BLACK
6
CONTINUOUS
10
-4.4968613385826774
20
5.8231383070866141
11
-4.4919229133858263
21
5.8193489763779525
0
LINE
8
BLACK
6
CONTINUOUS
10
-4.4919229133858263
20
5.8193489763779525
11
-4.4861717322834647
21
5.8169667322834648
0
LINE
8
BLACK
6
CONTINUOUS
10
-4.4861717322834647
20
5.8169667322834648
11
-4.4799999999999995
21
5.8161542519685039
0
LINE
8
BLACK
6
CONTINUOUS
10
-4.4799999999999995
20
5.8161542519685039
11
-4.4738283464566928
21
5.8169667322834648
0
LINE
8
BLACK
6
CONTINUOUS
10
-4.4738283464566928
20
5.8169667322834648
11
-4.4738283070866141
21
5.8169667322834648
0
LINE
8
BLACK
6
CONTINUOUS
10
-4.4738283070866141
20
5.8169667322834648
11
-4.4680771259842516
21
5.8193489763779525
0
LINE
8
BLACK
6
CONTINUOUS
10
-4.4680771259842516
20
5.8193489763779525
11
-4.4631387007874013
21
5.8231383070866141
0
LINE
8
BLACK
6
CONTINUOUS
10
-4.4631387007874013
20
5.8231383070866141
11
-4.4630036614173223
21
5.8232733858267718
0
LINE
8
BLACK
6
CONTINUOUS
10
-4.4630036614173223
20
5.8232733858267718
11
-4.4629594094488185
21
5.8232290944881893
0
LINE
8
BLACK
6
CONTINUOUS
10
-4.4629594094488185
20
5.8232290944881893
11
-4.4614930314960626
21
5.8241632283464568
0
LINE
8
BLACK
6
CONTINUOUS
10
-4.4614930314960626
20
5.8241632283464568
11
-4.4608625196850396
21
5.8242322834645668
0
LINE
8
BLACK
6
CONTINUOUS
10
-4.4608625196850396
20
5.8242322834645668
11
-4.3202485826771655
21
5.8242322834645668
0
LINE
8
BLACK
6
CONTINUOUS
10
-4.3202485826771655
20
5.8242322834645668
11
-4.3200000000000003
21
5.824271653543307
0
LINE
8
BLACK
6
CONTINUOUS
10
-4.3200000000000003
20
5.824271653543307
11
-4.3197514173228342
21
5.8242322834645668
0
LINE
8
BLACK
6
CONTINUOUS
10
-4.3197514173228342
20
5.8242322834645668
11
-4.2377379921259841
21
5.8242322834645668
0
LINE
8
BLACK
6
CONTINUOUS
10
-4.2377379921259841
20
5.8242322834645668
11
-4.2358653149606296
21
5.8235506692913388
0
LINE
8
BLACK
6
CONTINUOUS
10
-4.2358653149606296
20
5.8235506692913388
11
-4.2356779133858264
21
5.8233789763779527
0
LINE
8
BLACK
6
CONTINUOUS
10
-4.2356779133858264
20
5.8233789763779527
11
-4.2146817322834647
21
5.8023827165354334
0
LINE
8
BLACK
6
CONTINUOUS
10
-4.2146817322834647
20
5.8023827165354334
11
-4.2138395275590552
21
5.8005765354330707
0
LINE
8
BLACK
6
CONTINUOUS
10
-4.2138395275590552
20
5.8005765354330707
11
-4.2138479133858269
21
5.800190905511811
0
LINE
8
BLACK
6
CONTINUOUS
10
-4.2138479133858269
20
5.800190905511811
11
-4.2138457480314964
21
5.800190905511811
0
LINE
8
BLACK
6
CONTINUOUS
10
-4.2138457480314964
20
5.800190905511811
11
-4.2138457480314964
21
5.7999999606299211
0
LINE
8
BLACK
6
CONTINUOUS
10
-4.2138457480314964
20
5.7999999606299211
11
-4.213082047244094
21
5.7941991338582675
0
LINE
8
BLACK
6
CONTINUOUS
10
-4.213082047244094
20
5.7941991338582675
11
-4.2135133858267713
21
5.7922535039370073
0
LINE
8
BLACK
6
CONTINUOUS
10
-4.2135133858267713
20
5.7922535039370073
11
-4.2150944488188973
21
5.7910403149606298
0
LINE
8
BLACK
6
CONTINUOUS
10
-4.2150944488188973
20
5.7910403149606298
11
-4.2159705118110233
21
5.7909054724409446
0
LINE
8
BLACK
6
CONTINUOUS
10
-4.2159705118110233
20
5.7909054724409446
11
-4.2189942913385829
21
5.7909054724409446
0
LINE
8
BLACK
6
CONTINUOUS
10
-4.2189942913385829
20
5.7909054724409446
11
-4.2189943700787405
21
5.7909054330708658
0
LINE
8
BLACK
6
CONTINUOUS
10
-4.2189943700787405
20
5.7909054330708658
11
-4.2204627165354331
21
5.7907899212598428
0
LINE
8
BLACK
6
CONTINUOUS
10
-4.2204627165354331
20
5.7907899212598428
11
-4.2267481102362208
21
5.7889638188976376
0
LINE
8
BLACK
6
CONTINUOUS
10
-4.2267481102362208
20
5.7889638188976376
11
-4.2323818503937005
21
5.7856320472440945
0
LINE
8
BLACK
6
CONTINUOUS
10
-4.2323818503937005
20
5.7856320472440945
11
-4.2370100393700785
21
5.7810038582677166
0
LINE
8
BLACK
6
CONTINUOUS
10
-4.2370100393700785
20
5.7810038582677166
11
-4.2403418110236215
21
5.7753701181102359
0
LINE
8
BLACK
6
CONTINUOUS
10
-4.2403418110236215
20
5.7753701181102359
11
-4.2421650787401575
21
5.7690944881889763
0
LINE
8
BLACK
6
CONTINUOUS
10
-4.2421650787401575
20
5.7690944881889763
11
-4.2206081102362205
21
5.7690944881889763
0
LINE
8
BLACK
6
CONTINUOUS
10
-4.2206081102362205
20
5.7690944881889763
11
-4.2205537795275587
21
5.7691758267716535
0
LINE
8
BLACK
6
CONTINUOUS
10
-4.2205537795275587
20
5.7691758267716535
11
-4.2186379133858267
21
5.770455984251968
0
LINE
8
BLACK
6
CONTINUOUS
10
-4.2186379133858267
20
5.770455984251968
11
-4.2163779527559058
21
5.7709055118110237
0
LINE
8
BLACK
6
CONTINUOUS
10
-4.2163779527559058
20
5.7709055118110237
11
-4.1612598425196845
21
5.7709055118110237
0
LINE
8
BLACK
6
CONTINUOUS
10
-4.1612598425196845
20
5.7709055118110237
11
-4.1589998818897636
21
5.770455984251968
0
LINE
8
BLACK
6
CONTINUOUS
10
-4.1589998818897636
20
5.770455984251968
11
-4.1570840157480315
21
5.7691758267716535
0
LINE
8
BLACK
6
CONTINUOUS
10
-4.1570840157480315
20
5.7691758267716535
11
-4.1570296850393698
21
5.7690944881889763
0
LINE
8
BLACK
6
CONTINUOUS
10
-4.1570296850393698
20
5.7690944881889763
11
-4.1354727165354328
21
5.7690944881889763
0
LINE
8
BLACK
6
CONTINUOUS
10
-4.1354727165354328
20
5.7690944881889763
11
-4.1372960236220475
21
5.7753701574803147
0
LINE
8
BLACK
6
CONTINUOUS
10
-4.1372960236220475
20
5.7753701574803147
11
-4.1399370078740159
21
5.7798358661417319
0
LINE
8
BLACK
6
CONTINUOUS
10
-4.1399370078740159
20
5.7798358661417319
11
-4.1403035826771655
21
5.7817947244094485
0
LINE
8
BLACK
6
CONTINUOUS
10
-4.1403035826771655
20
5.7817947244094485
11
-4.1393252755905507
21
5.7835309448818899
0
LINE
8
BLACK
6
CONTINUOUS
10
-4.1393252755905507
20
5.7835309448818899
11
-4.1374598425196849
21
5.7842321259842517
0
LINE
8
BLACK
6
CONTINUOUS
10
-4.1374598425196849
20
5.7842321259842517
11
-4.1374293307086614
21
5.7842322834645667
0
LINE
8
BLACK
6
CONTINUOUS
10
-4.1374293307086614
20
5.7842322834645667
11
-4.1364781496062992
21
5.7842322834645667
0
LINE
8
BLACK
6
CONTINUOUS
10
-4.1364781496062992
20
5.7842322834645667
11
-4.1346054724409447
21
5.7835506692913388
0
LINE
8
BLACK
6
CONTINUOUS
10
-4.1346054724409447
20
5.7835506692913388
11
-4.1344180708661415
21
5.7833789763779526
0
LINE
8
BLACK
6
CONTINUOUS
10
-4.1344180708661415
20
5.7833789763779526
11
-4.0966210236220473
21
5.7455819291338583
0
LINE
8
BLACK
6
CONTINUOUS
10
-4.0966210236220473
20
5.7455819291338583
11
-4.0957788188976378
21
5.7437757874015745
0
LINE
8
BLACK
6
CONTINUOUS
10
-4.0957788188976378
20
5.7437757874015745
11
-4.0957677165354331
21
5.7435218503937007
0
LINE
8
BLACK
6
CONTINUOUS
10
-4.0957677165354331
20
5.7435218503937007
11
-4.0957677165354331
21
5.6477379921259843
0
LINE
8
BLACK
6
CONTINUOUS
10
-4.0957677165354331
20
5.6477379921259843
11
-4.0964493307086611
21
5.6458653149606297
0
LINE
8
BLACK
6
CONTINUOUS
10
-4.0964493307086611
20
5.6458653149606297
11
-4.0966210236220473
21
5.6456779133858266
0
LINE
8
BLACK
6
CONTINUOUS
10
-4.0966210236220473
20
5.6456779133858266
11
-4.1142212204724409
21
5.628077716535433
0
LINE
8
BLACK
6
CONTINUOUS
10
-4.1142212204724409
20
5.628077716535433
11
-4.1160273622047239
21
5.6272355118110235
0
LINE
8
BLACK
6
CONTINUOUS
10
-4.1160273622047239
20
5.6272355118110235
11
-4.1162812992125986
21
5.6272244094488189
0
LINE
8
BLACK
6
CONTINUOUS
10
-4.1162812992125986
20
5.6272244094488189
11
-4.1504002755905507
21
5.6272244094488189
0
LINE
8
BLACK
6
CONTINUOUS
10
-4.1504002755905507
20
5.6272244094488189
11
-4.1522729527559052
21
5.6279060236220468
0
LINE
8
BLACK
6
CONTINUOUS
10
-4.1522729527559052
20
5.6279060236220468
11
-4.1524603543307084
21
5.628077716535433
0
LINE
8
BLACK
6
CONTINUOUS
10
-4.1524603543307084
20
5.628077716535433
11
-4.1531305905511813
21
5.628747952755905
0
LINE
8
BLACK
6
CONTINUOUS
10
-4.1531305905511813
20
5.628747952755905
11
-4.1572679921259841
21
5.6307705905511813
0
LINE
8
BLACK
6
CONTINUOUS
10
-4.1572679921259841
20
5.6307705905511813
11
-4.1599503937007869
21
5.6311614173228346
0
LINE
8
BLACK
6
CONTINUOUS
10
-4.1599503937007869
20
5.6311614173228346
11
-4.2176874015748034
21
5.6311614173228346
0
LINE
8
BLACK
6
CONTINUOUS
10
-4.2176874015748034
20
5.6311614173228346
11
-4.2203698031496062
21
5.6307705905511813
0
LINE
8
BLACK
6
CONTINUOUS
10
-4.2203698031496062
20
5.6307705905511813
11
-4.2203698818897637
21
5.6307705511811026
0
LINE
8
BLACK
6
CONTINUOUS
10
-4.2203698818897637
20
5.6307705511811026
11
-4.224507204724409
21
5.628747952755905
0
LINE
8
BLACK
6
CONTINUOUS
10
-4.224507204724409
20
5.628747952755905
11
-4.2277637401574806
21
5.6254914173228343
0
LINE
8
BLACK
6
CONTINUOUS
10
-4.2277637401574806
20
5.6254914173228343
11
-4.2297863385826773
21
5.621354094488189
0
LINE
8
BLACK
6
CONTINUOUS
10
-4.2297863385826773
20
5.621354094488189
11
-4.2297863385826773
21
5.6213540551181103
0
LINE
8
BLACK
6
CONTINUOUS
10
-4.2297863385826773
20
5.6213540551181103
11
-4.2301771653543305
21
5.6186718110236216
0
LINE
8
BLACK
6
CONTINUOUS
10
-4.2301771653543305
20
5.6186718110236216
11
-4.2301771653543305
21
5.6042415354330704
0
LINE
8
BLACK
6
CONTINUOUS
10
-4.2301771653543305
20
5.6042415354330704
11
-4.2297863385826773
21
5.6015592913385825
0
LINE
8
BLACK
6
CONTINUOUS
10
-4.2297863385826773
20
5.6015592913385825
11
-4.2297863385826773
21
5.6015592519685038
0
LINE
8
BLACK
6
CONTINUOUS
10
-4.2297863385826773
20
5.6015592519685038
11
-4.2277637401574806
21
5.5974219291338585
0
LINE
8
BLACK
6
CONTINUOUS
10
-4.2277637401574806
20
5.5974219291338585
11
-4.224507204724409
21
5.5941653937007869
0
LINE
8
BLACK
6
CONTINUOUS
10
-4.224507204724409
20
5.5941653937007869
11
-4.2203698818897637
21
5.5921427952755902
0
LINE
8
BLACK
6
CONTINUOUS
10
-4.2203698818897637
20
5.5921427952755902
11
-4.2176875984251971
21
5.591751968503937
0
LINE
8
BLACK
6
CONTINUOUS
10
-4.2176875984251971
20
5.591751968503937
11
-4.2176874015748034
21
5.591751968503937
0
LINE
8
BLACK
6
CONTINUOUS
10
-4.2176874015748034
20
5.591751968503937
11
-4.1599502362204728
21
5.591751968503937
0
LINE
8
BLACK
6
CONTINUOUS
10
-4.1599502362204728
20
5.591751968503937
11
-4.1572679921259841
21
5.5921427952755902
0
LINE
8
BLACK
6
CONTINUOUS
10
-4.1572679921259841
20
5.5921427952755902
11
-4.1572679527559053
21
5.5921427952755902
0
LINE
8
BLACK
6
CONTINUOUS
10
-4.1572679527559053
20
5.5921427952755902
11
-4.15313062992126
21
5.5941653937007869
0
LINE
8
BLACK
6
CONTINUOUS
10
-4.15313062992126
20
5.5941653937007869
11
-4.1524603543307084
21
5.5948356692913386
0
LINE
8
BLACK
6
CONTINUOUS
10
-4.1524603543307084
20
5.5948356692913386
11
-4.1506542125984254
21
5.595677874015748
0
LINE
8
BLACK
6
CONTINUOUS
10
-4.1506542125984254
20
5.595677874015748
11
-4.1504002755905507
21
5.5956889763779527
0
LINE
8
BLACK
6
CONTINUOUS
10
-4.1504002755905507
20
5.5956889763779527
11
-4.1060459842519688
21
5.5956889763779527
0
LINE
8
BLACK
6
CONTINUOUS
10
-4.1060459842519688
20
5.5956889763779527
11
-4.10604594488189
21
5.5956889763779527
0
LINE
8
BLACK
6
CONTINUOUS
10
-4.10604594488189
20
5.5956889763779527
11
-4.1057319291338583
21
5.595790984251968
0
LINE
8
BLACK
6
CONTINUOUS
10
-4.1057319291338583
20
5.595790984251968
11
-4.1050689370078741
21
5.5960063779527554
0
LINE
8
BLACK
6
CONTINUOUS
10
-4.1050689370078741
20
5.5960063779527554
11
-4.1046246850393704
21
5.5961129921259838
0
LINE
8
BLACK
6
CONTINUOUS
10
-4.1046246850393704
20
5.5961129921259838
11
-4.1036103937007873
21
5.5962736614173227
0
LINE
8
BLACK
6
CONTINUOUS
10
-4.1036103937007873
20
5.5962736614173227
11
-4.1036101574803148
21
5.5962737401574802
0
LINE
8
BLACK
6
CONTINUOUS
10
-4.1036101574803148
20
5.5962737401574802
11
-4.1026949212598423
21
5.5967400787401571
0
LINE
8
BLACK
6
CONTINUOUS
10
-4.1026949212598423
20
5.5967400787401571
11
-4.1022725590551179
21
5.5969150000000001
0
LINE
8
BLACK
6
CONTINUOUS
10
-4.1022725590551179
20
5.5969150000000001
11
-4.1012957480314958
21
5.597232362204724
0
LINE
8
BLACK
6
CONTINUOUS
10
-4.1012957480314958
20
5.597232362204724
11
-4.101295708661417
21
5.5972324015748027
0
LINE
8
BLACK
6
CONTINUOUS
10
-4.101295708661417
20
5.5972324015748027
11
-4.1004646850393698
21
5.5978361417322837
0
LINE
8
BLACK
6
CONTINUOUS
10
-4.1004646850393698
20
5.5978361417322837
11
-4.1000750393700782
21
5.5980749212598422
0
LINE
8
BLACK
6
CONTINUOUS
10
-4.1000750393700782
20
5.5980749212598422
11
-4.0991598031496066
21
5.5985412992125987
0
LINE
8
BLACK
6
CONTINUOUS
10
-4.0991598031496066
20
5.5985412992125987
11
-4.0983447244094489
21
5.5993563779527555
0
LINE
8
BLACK
6
CONTINUOUS
10
-4.0983447244094489
20
5.5993563779527555
11
-4.0983441338582676
21
5.5993569291338581
0
LINE
8
BLACK
6
CONTINUOUS
10
-4.0983441338582676
20
5.5993569291338581
11
-4.0678713385826768
21
5.6298297244094488
0
LINE
8
BLACK
6
CONTINUOUS
10
-4.0678713385826768
20
5.6298297244094488
11
-4.0678711811023618
21
5.6298299212598426
0
LINE
8
BLACK
6
CONTINUOUS
10
-4.0678711811023618
20
5.6298299212598426
11
-4.0670846850393696
21
5.6306164173228348
0
LINE
8
BLACK
6
CONTINUOUS
10
-4.0670846850393696
20
5.6306164173228348
11
-4.0670846062992121
21
5.6306164960629923
0
LINE
8
BLACK
6
CONTINUOUS
10
-4.0670846062992121
20
5.6306164960629923
11
-4.0666183464566927
21
5.6315316141732286
0
LINE
8
BLACK
6
CONTINUOUS
10
-4.0666183464566927
20
5.6315316141732286
11
-4.0663796850393696
21
5.631921141732283
0
LINE
8
BLACK
6
CONTINUOUS
10
-4.0663796850393696
20
5.631921141732283
11
-4.0657757480314958
21
5.6327524015748027
0
LINE
8
BLACK
6
CONTINUOUS
10
-4.0657757480314958
20
5.6327524015748027
11
-4.0654583464566931
21
5.6337293307086611
0
LINE
8
BLACK
6
CONTINUOUS
10
-4.0654583464566931
20
5.6337293307086611
11
-4.0652834645669289
21
5.6341514960629917
0
LINE
8
BLACK
6
CONTINUOUS
10
-4.0652834645669289
20
5.6341514960629917
11
-4.0648170866141733
21
5.635066771653543
0
LINE
8
BLACK
6
CONTINUOUS
10
-4.0648170866141733
20
5.635066771653543
11
-4.0646564173228343
21
5.6360813779527561
0
LINE
8
BLACK
6
CONTINUOUS
10
-4.0646564173228343
20
5.6360813779527561
11
-4.0645496850393696
21
5.6365258661417323
0
LINE
8
BLACK
6
CONTINUOUS
10
-4.0645496850393696
20
5.6365258661417323
11
-4.0645453149606299
21
5.6365392125984251
0
LINE
8
BLACK
6
CONTINUOUS
10
-4.0645453149606299
20
5.6365392125984251
11
-4.0644064173228349
21
5.636966771653543
0
LINE
8
BLACK
6
CONTINUOUS
10
-4.0644064173228349
20
5.636966771653543
11
-4.064232283464567
21
5.6375025590551182
0
LINE
8
BLACK
6
CONTINUOUS
10
-4.064232283464567
20
5.6375025590551182
11
-4.064232283464567
21
5.7526205905511807
0
LINE
8
BLACK
6
CONTINUOUS
10
-4.064232283464567
20
5.7526205905511807
11
-4.0642323228346457
21
5.7526215748031495
0
LINE
8
BLACK
6
CONTINUOUS
10
-4.0642323228346457
20
5.7526215748031495
11
-4.0642323228346457
21
5.7537572834645667
0
LINE
8
BLACK
6
CONTINUOUS
10
-4.0642323228346457
20
5.7537572834645667
11
-4.0645496850393696
21
5.7547338976377951
0
LINE
8
BLACK
6
CONTINUOUS
10
-4.0645496850393696
20
5.7547338976377951
11
-4.0646564566929131
21
5.7551786614173226
0
LINE
8
BLACK
6
CONTINUOUS
10
-4.0646564566929131
20
5.7551786614173226
11
-4.0647949212598427
21
5.7560529921259844
0
LINE
8
BLACK
6
CONTINUOUS
10
-4.0647949212598427
20
5.7560529921259844
11
-4.0648170866141733
21
5.756193070866142
0
LINE
8
BLACK
6
CONTINUOUS
10
-4.0648170866141733
20
5.756193070866142
11
-4.0652835433070864
21
5.7571084645669286
0
LINE
8
BLACK
6
CONTINUOUS
10
-4.0652835433070864
20
5.7571084645669286
11
-4.0654583858267719
21
5.7575306299212601
0
LINE
8
BLACK
6
CONTINUOUS
10
-4.0654583858267719
20
5.7575306299212601
11
-4.0657756692913383
21
5.7585072440944884
0
LINE
8
BLACK
6
CONTINUOUS
10
-4.0657756692913383
20
5.7585072440944884
11
-4.065775708661417
21
5.7585072440944884
0
LINE
8
BLACK
6
CONTINUOUS
10
-4.065775708661417
20
5.7585072440944884
11
-4.0657757480314958
21
5.7585074803149601
0
LINE
8
BLACK
6
CONTINUOUS
10
-4.0657757480314958
20
5.7585074803149601
11
-4.0663794881889759
21
5.7593383070866144
0
LINE
8
BLACK
6
CONTINUOUS
10
-4.0663794881889759
20
5.7593383070866144
11
-4.0666183858267715
21
5.7597282283464564
0
LINE
8
BLACK
6
CONTINUOUS
10
-4.0666183858267715
20
5.7597282283464564
11
-4.0670846062992121
21
5.7606433070866139
0
LINE
8
BLACK
6
CONTINUOUS
10
-4.0670846062992121
20
5.7606433070866139
11
-4.0670846456692908
21
5.7606433858267714
0
LINE
8
BLACK
6
CONTINUOUS
10
-4.0670846456692908
20
5.7606433858267714
11
-4.0706164566929131
21
5.7641751968503936
0
LINE
8
BLACK
6
CONTINUOUS
10
-4.0706164566929131
20
5.7641751968503936
11
-4.0821567716535432
21
5.7757155118110237
0
LINE
8
BLACK
6
CONTINUOUS
10
-4.0821567716535432
20
5.7757155118110237
11
-4.0937118503937011
21
5.7872706299212595
0
LINE
8
BLACK
6
CONTINUOUS
10
-4.0937118503937011
20
5.7872706299212595
11
-4.0945540551181105
21
5.7890768110236221
0
LINE
8
BLACK
6
CONTINUOUS
10
-4.0945540551181105
20
5.7890768110236221
11
-4.0940382677165355
21
5.7910017716535434
0
LINE
8
BLACK
6
CONTINUOUS
10
-4.0940382677165355
20
5.7910017716535434
11
-4.0924058267716532
21
5.7921448425196846
0
LINE
8
BLACK
6
CONTINUOUS
10
-4.0924058267716532
20
5.7921448425196846
11
-4.0916517716535434
21
5.792244094488189
0
LINE
8
BLACK
6
CONTINUOUS
10
-4.0916517716535434
20
5.792244094488189
11
-4.0728346456692917
21
5.792244094488189
0
LINE
8
BLACK
6
CONTINUOUS
10
-4.0728346456692917
20
5.792244094488189
11
-4.0728346456692917
21
5.8122440944881886
0
LINE
8
BLACK
6
CONTINUOUS
10
-4.0728346456692917
20
5.8122440944881886
11
-4.1061417322834641
21
5.8122440944881886
0
LINE
8
BLACK
6
CONTINUOUS
10
-4.1061417322834641
20
5.8122440944881886
11
-4.1099083070866138
21
5.8129933070866144
0
LINE
8
BLACK
6
CONTINUOUS
10
-4.1099083070866138
20
5.8129933070866144
11
-4.1131014566929132
21
5.8151268897637793
0
LINE
8
BLACK
6
CONTINUOUS
10
-4.1131014566929132
20
5.8151268897637793
11
-4.115235039370079
21
5.8183200393700787
0
LINE
8
BLACK
6
CONTINUOUS
10
-4.115235039370079
20
5.8183200393700787
11
-4.1159529133858266
21
5.8219291338582675
0
LINE
8
BLACK
6
CONTINUOUS
10
-4.1159529133858266
20
5.8219291338582675
11
-4.1359842519685035
21
5.8219291338582675
0
LINE
8
BLACK
6
CONTINUOUS
10
-4.1359842519685035
20
5.8219291338582675
11
-4.1359842519685035
21
5.8200982283464562
0
LINE
8
BLACK
6
CONTINUOUS
10
-4.1359842519685035
20
5.8200982283464562
11
-4.1358697244094484
21
5.8189772047244093
0
LINE
8
BLACK
6
CONTINUOUS
10
-4.1358697244094484
20
5.8189772047244093
11
-4.1363574803149605
21
5.8170449212598427
0
LINE
8
BLACK
6
CONTINUOUS
10
-4.1363574803149605
20
5.8170449212598427
11
-4.1379731496062995
21
5.815878228346457
0
LINE
8
BLACK
6
CONTINUOUS
10
-4.1379731496062995
20
5.815878228346457
11
-4.1387680314960633
21
5.8157677165354329
0
LINE
8
BLACK
6
CONTINUOUS
10
-4.1387680314960633
20
5.8157677165354329
11
-4.1708625196850395
21
5.8157677165354329
0
LINE
8
BLACK
6
CONTINUOUS
10
-4.1708625196850395
20
5.8157677165354329
11
-4.1727351968503932
21
5.8164493307086609
0
LINE
8
BLACK
6
CONTINUOUS
10
-4.1727351968503932
20
5.8164493307086609
11
-4.1730021653543306
21
5.8167281102362205
0
LINE
8
BLACK
6
CONTINUOUS
10
-4.1730021653543306
20
5.8167281102362205
11
-4.1730036614173232
21
5.8167266141732279
0
LINE
8
BLACK
6
CONTINUOUS
10
-4.1730036614173232
20
5.8167266141732279
11
-4.1731383858267712
21
5.8168612992125981
0
LINE
8
BLACK
6
CONTINUOUS
10
-4.1731383858267712
20
5.8168612992125981
11
-4.1731385039370075
21
5.8168614960629919
0
LINE
8
BLACK
6
CONTINUOUS
10
-4.1731385039370075
20
5.8168614960629919
11
-4.1732756692913382
21
5.8169667322834648
0
LINE
8
BLACK
6
CONTINUOUS
10
-4.1732756692913382
20
5.8169667322834648
11
-4.1738322440944877
21
5.817393779527559
0
LINE
8
BLACK
6
CONTINUOUS
10
-4.1738322440944877
20
5.817393779527559
11
-4.1780771259842515
21
5.8206510236220472
0
LINE
8
BLACK
6
CONTINUOUS
10
-4.1780771259842515
20
5.8206510236220472
11
-4.1838282677165353
21
5.823033228346457
0
LINE
8
BLACK
6
CONTINUOUS
10
-4.1838282677165353
20
5.823033228346457
11
-4.1899999999999995
21
5.8238457480314958
0
LINE
8
BLACK
6
CONTINUOUS
10
-4.1899999999999995
20
5.8238457480314958
11
-4.1900000393700783
21
5.823845708661417
0
LINE
8
BLACK
6
CONTINUOUS
10
-4.1900000393700783
20
5.823845708661417
11
-4.1900000393700783
21
5.8238457480314958
0
LINE
8
BLACK
6
CONTINUOUS
10
-4.1900000393700783
20
5.8238457480314958
11
-4.1901909448818895
21
5.8238457480314958
0
LINE
8
BLACK
6
CONTINUOUS
10
-4.1901909448818895
20
5.8238457480314958
11
-4.1901909448818895
21
5.8239084251968505
0
LINE
8
BLACK
6
CONTINUOUS
10
-4.1901909448818895
20
5.8239084251968505
11
-4.1918879527559056
21
5.8242845275590547
0
LINE
8
BLACK
6
CONTINUOUS
10
-4.1918879527559056
20
5.8242845275590547
11
-4.1923826377952755
21
5.8246814960629916
0
LINE
8
BLACK
6
CONTINUOUS
10
-4.1923826377952755
20
5.8246814960629916
11
-4.2096302362204723
21
5.841929133858268
0
LINE
8
BLACK
6
CONTINUOUS
10
-4.2096302362204723
20
5.841929133858268
11
-4.2197279921259838
21
5.8520269291338582
0
LINE
8
BLACK
6
CONTINUOUS
10
-4.2197279921259838
20
5.8520269291338582
11
-4.2197281102362201
21
5.852026968503937
0
LINE
8
BLACK
6
CONTINUOUS
10
-4.2197281102362201
20
5.852026968503937
11
-4.2198939370078739
21
5.8521928346456695
0
LINE
8
BLACK
6
CONTINUOUS
10
-4.2198939370078739
20
5.8521928346456695
11
-4.2198941338582676
21
5.8521929921259845
0
LINE
8
BLACK
6
CONTINUOUS
10
-4.2198941338582676
20
5.8521929921259845
11
-4.2206164566929134
21
5.8529153543307082
0
LINE
8
BLACK
6
CONTINUOUS
10
-4.2206164566929134
20
5.8529153543307082
11
-4.2215315748031497
21
5.8533815748031497
0
LINE
8
BLACK
6
CONTINUOUS
10
-4.2215315748031497
20
5.8533815748031497
11
-4.221921417322835
21
5.8536205118110232
0
LINE
8
BLACK
6
CONTINUOUS
10
-4.221921417322835
20
5.8536205118110232
11
-4.2227523622047247
21
5.8542242519685042
0
LINE
8
BLACK
6
CONTINUOUS
10
-4.2227523622047247
20
5.8542242519685042
11
-4.2237294488188972
21
5.8545416929133856
0
LINE
8
BLACK
6
CONTINUOUS
10
-4.2237294488188972
20
5.8545416929133856
11
-4.2241514566929137
21
5.8547164566929135
0
LINE
8
BLACK
6
CONTINUOUS
10
-4.2241514566929137
20
5.8547164566929135
11
-4.2250667716535428
21
5.8551829133858266
0
LINE
8
BLACK
6
CONTINUOUS
10
-4.2250667716535428
20
5.8551829133858266
11
-4.2260814173228347
21
5.8553435826771656
0
LINE
8
BLACK
6
CONTINUOUS
10
-4.2260814173228347
20
5.8553435826771656
11
-4.2265254724409447
21
5.8554501574803144
0
LINE
8
BLACK
6
CONTINUOUS
10
-4.2265254724409447
20
5.8554501574803144
11
-4.2275026377952756
21
5.8557677165354329
0
LINE
8
BLACK
6
CONTINUOUS
10
-4.2275026377952756
20
5.8557677165354329
11
-4.4608625196850396
21
5.8557677165354329
0
LINE
8
BLACK
6
CONTINUOUS
10
-4.4608625196850396
20
5.8557677165354329
11
-4.4627351968503932
21
5.8564493307086609
0
LINE
8
BLACK
6
CONTINUOUS
10
-4.4627351968503932
20
5.8564493307086609
11
-4.4630021653543306
21
5.8567281102362205
0
LINE
8
BLACK
6
CONTINUOUS
10
-4.4630021653543306
20
5.8567281102362205
11
-4.4630036614173223
21
5.8567266141732279
0
LINE
8
BLACK
6
CONTINUOUS
10
-4.4630036614173223
20
5.8567266141732279
11
-4.4631383858267712
21
5.8568612992125981
0
LINE
8
BLACK
6
CONTINUOUS
10
-4.4631383858267712
20
5.8568612992125981
11
-4.4631385039370075
21
5.8568614960629919
0
LINE
8
BLACK
6
CONTINUOUS
10
-4.4631385039370075
20
5.8568614960629919
11
-4.4680771259842516
21
5.8606510236220473
0
LINE
8
BLACK
6
CONTINUOUS
10
-4.4680771259842516
20
5.8606510236220473
11
-4.4738282677165353
21
5.8630332283464561
0
LINE
8
BLACK
6
CONTINUOUS
10
-4.4738282677165353
20
5.8630332283464561
11
-4.4799999999999995
21
5.8638457480314958
0
LINE
8
BLACK
6
CONTINUOUS
10
-4.4799999999999995
20
5.8638457480314958
11
-4.4861717322834647
21
5.8630332283464561
0
LINE
8
BLACK
6
CONTINUOUS
10
-4.4861717322834647
20
5.8630332283464561
11
-4.4919228740157475
21
5.8606510236220473
0
LINE
8
BLACK
6
CONTINUOUS
10
-4.4919228740157475
20
5.8606510236220473
11
-4.4919229133858263
21
5.8606509842519685
0
LINE
8
BLACK
6
CONTINUOUS
10
-4.4919229133858263
20
5.8606509842519685
11
-4.4968613385826774
21
5.8568616535433069
0
LINE
8
BLACK
6
CONTINUOUS
10
-4.4968613385826774
20
5.8568616535433069
11
-4.4969963385826768
21
5.8567266141732279
0
LINE
8
BLACK
6
CONTINUOUS
10
-4.4969963385826768
20
5.8567266141732279
11
-4.4970406299212593
21
5.8567708661417326
0
LINE
8
BLACK
6
CONTINUOUS
10
-4.4970406299212593
20
5.8567708661417326
11
-4.4985069685039365
21
5.8558367716535429
0
LINE
8
BLACK
6
CONTINUOUS
10
-4.4985069685039365
20
5.8558367716535429
11
-4.4991374803149604
21
5.8557677165354329
0
LINE
8
BLACK
6
CONTINUOUS
10
-4.4991374803149604
20
5.8557677165354329
11
-4.5433294094488188
21
5.8557677165354329
0
LINE
8
BLACK
6
CONTINUOUS
10
-4.5433294094488188
20
5.8557677165354329
11
-4.5483241338582676
21
5.8557677165354329
0
LINE
8
BLACK
6
CONTINUOUS
10
-4.5483241338582676
20
5.8557677165354329
11
-4.5493011417322835
21
5.8554502362204719
0
LINE
8
BLACK
6
CONTINUOUS
10
-4.5493011417322835
20
5.8554502362204719
11
-4.5497455511811022
21
5.8553435826771656
0
LINE
8
BLACK
6
CONTINUOUS
10
-4.5497455511811022
20
5.8553435826771656
11
-4.5507600393700782
21
5.8551829133858266
0
LINE
8
BLACK
6
CONTINUOUS
10
-4.5507600393700782
20
5.8551829133858266
11
-4.5516750393700782
21
5.8547166535433073
0
LINE
8
BLACK
6
CONTINUOUS
10
-4.5516750393700782
20
5.8547166535433073
11
-4.5520974015748035
21
5.8545416535433068
0
LINE
8
BLACK
6
CONTINUOUS
10
-4.5520974015748035
20
5.8545416535433068
11
-4.5530744094488185
21
5.8542242519685042
0
LINE
8
BLACK
6
CONTINUOUS
10
-4.5530744094488185
20
5.8542242519685042
11
-4.5539057874015745
21
5.8536202362204719
0
LINE
8
BLACK
6
CONTINUOUS
10
-4.5539057874015745
20
5.8536202362204719
11
-4.5542950393700785
21
5.8533816929133859
0
LINE
8
BLACK
6
CONTINUOUS
10
-4.5542950393700785
20
5.8533816929133859
11
-4.5552103149606298
21
5.8529153543307082
0
LINE
8
BLACK
6
CONTINUOUS
10
-4.5552103149606298
20
5.8529153543307082
11
-4.5552103937007873
21
5.8529152755905507
0
LINE
8
BLACK
6
CONTINUOUS
10
-4.5552103937007873
20
5.8529152755905507
11
-4.5559968503937007
21
5.8521288188976373
0
LINE
8
BLACK
6
CONTINUOUS
10
-4.5559968503937007
20
5.8521288188976373
11
-4.5559972440944883
21
5.8521284645669294
0
LINE
8
BLACK
6
CONTINUOUS
10
-4.5559972440944883
20
5.8521284645669294
11
-4.6315046850393697
21
5.776621023622047
0
LINE
8
BLACK
6
CONTINUOUS
10
-4.6315046850393697
20
5.776621023622047
11
-4.6333108267716536
21
5.7757788188976376
0
LINE
8
BLACK
6
CONTINUOUS
10
-4.6333108267716536
20
5.7757788188976376
11
-4.6335647637795274
21
5.7757677165354329
0
LINE
8
BLACK
6
CONTINUOUS
10
-4.6335647637795274
20
5.7757677165354329
11
-4.7158625196850394
21
5.7757677165354329
0
LINE
8
BLACK
6
CONTINUOUS
10
-4.7158625196850394
20
5.7757677165354329
11
-4.717735196850394
21
5.7764493307086608
0
LINE
8
BLACK
6
CONTINUOUS
10
-4.717735196850394
20
5.7764493307086608
11
-4.7180021653543305
21
5.7767281102362205
0
LINE
8
BLACK
6
CONTINUOUS
10
-4.7180021653543305
20
5.7767281102362205
11
-4.7180036614173231
21
5.7767266141732279
0
LINE
8
BLACK
6
CONTINUOUS
10
-4.7180036614173231
20
5.7767266141732279
11
-4.7181383858267711
21
5.7768612992125981
0
LINE
8
BLACK
6
CONTINUOUS
10
-4.7181383858267711
20
5.7768612992125981
11
-4.7181385039370074
21
5.7768614960629918
0
LINE
8
BLACK
6
CONTINUOUS
10
-4.7181385039370074
20
5.7768614960629918
11
-4.7230771259842514
21
5.7806510236220472
0
LINE
8
BLACK
6
CONTINUOUS
10
-4.7230771259842514
20
5.7806510236220472
11
-4.7288282677165352
21
5.7830332283464569
0
LINE
8
BLACK
6
CONTINUOUS
10
-4.7288282677165352
20
5.7830332283464569
11
-4.7350000000000003
21
5.7838457480314958
0
LINE
8
BLACK
6
CONTINUOUS
10
-4.7350000000000003
20
5.7838457480314958
11
-4.7411717322834646
21
5.7830332283464569
0
LINE
8
BLACK
6
CONTINUOUS
10
-4.7411717322834646
20
5.7830332283464569
11
-4.7469228740157483
21
5.7806510236220472
0
LINE
8
BLACK
6
CONTINUOUS
10
-4.7469228740157483
20
5.7806510236220472
11
-4.7469229133858271
21
5.7806509842519684
0
LINE
8
BLACK
6
CONTINUOUS
10
-4.7469229133858271
20
5.7806509842519684
11
-4.7518613385826773
21
5.7768616535433068
0
LINE
8
BLACK
6
CONTINUOUS
10
-4.7518613385826773
20
5.7768616535433068
11
-4.7519963385826767
21
5.7767266141732279
0
LINE
8
BLACK
6
CONTINUOUS
10
-4.7519963385826767
20
5.7767266141732279
11
-4.7520406299212601
21
5.7767708661417325
0
LINE
8
BLACK
6
CONTINUOUS
10
-4.7520406299212601
20
5.7767708661417325
11
-4.7535069685039373
21
5.7758367716535428
0
LINE
8
BLACK
6
CONTINUOUS
10
-4.7535069685039373
20
5.7758367716535428
11
-4.7541374803149603
21
5.7757677165354329
0
LINE
8
BLACK
6
CONTINUOUS
10
-4.7541374803149603
20
5.7757677165354329
11
-4.7694418897637796
21
5.7757677165354329
0
LINE
8
BLACK
6
CONTINUOUS
10
-4.7694418897637796
20
5.7757677165354329
11
-4.7711347244094489
21
5.7763099999999996
0
LINE
8
BLACK
6
CONTINUOUS
10
-4.7711347244094489
20
5.7763099999999996
11
-4.771240748031496
21
5.7763856299212595
0
LINE
8
BLACK
6
CONTINUOUS
10
-4.771240748031496
20
5.7763856299212595
11
-4.7712408267716535
21
5.7763857480314957
0
LINE
8
BLACK
6
CONTINUOUS
10
-4.7712408267716535
20
5.7763857480314957
11
-4.7753782283464563
21
5.7784083858267712
0
LINE
8
BLACK
6
CONTINUOUS
10
-4.7753782283464563
20
5.7784083858267712
11
-4.77806062992126
21
5.7787992125984253
0
LINE
8
BLACK
6
CONTINUOUS
10
-4.77806062992126
20
5.7787992125984253
11
-4.8357976377952756
21
5.7787992125984253
0
LINE
8
BLACK
6
CONTINUOUS
10
-4.8357976377952756
20
5.7787992125984253
11
-4.8384800393700784
21
5.7784083858267712
0
LINE
8
BLACK
6
CONTINUOUS
10
-4.8384800393700784
20
5.7784083858267712
11
-4.8384801181102359
21
5.7784083464566924
0
LINE
8
BLACK
6
CONTINUOUS
10
-4.8384801181102359
20
5.7784083464566924
11
-4.8426174409448821
21
5.7763857480314957
0
LINE
8
BLACK
6
CONTINUOUS
10
-4.8426174409448821
20
5.7763857480314957
11
-4.8432876771653541
21
5.7757155118110237
0
LINE
8
BLACK
6
CONTINUOUS
10
-4.8432876771653541
20
5.7757155118110237
11
-4.845093818897638
21
5.7748733070866143
0
LINE
8
BLACK
6
CONTINUOUS
10
-4.845093818897638
20
5.7748733070866143
11
-4.8453477559055118
21
5.7748622047244096
0
LINE
8
BLACK
6
CONTINUOUS
10
-4.8453477559055118
20
5.7748622047244096
11
-4.8625420078740156
21
5.7748622047244096
0
LINE
8
BLACK
6
CONTINUOUS
10
-4.8625420078740156
20
5.7748622047244096
11
-4.8675367322834644
21
5.7748622047244096
0
LINE
8
BLACK
6
CONTINUOUS
10
-4.8675367322834644
20
5.7748622047244096
11
-4.8685137401574803
21
5.7745447244094485
0
LINE
8
BLACK
6
CONTINUOUS
10
-4.8685137401574803
20
5.7745447244094485
11
-4.868958149606299
21
5.7744380708661414
0
LINE
8
BLACK
6
CONTINUOUS
10
-4.868958149606299
20
5.7744380708661414
11
-4.8699726377952759
21
5.7742774015748033
0
LINE
8
BLACK
6
CONTINUOUS
10
-4.8699726377952759
20
5.7742774015748033
11
-4.8708876377952759
21
5.773811141732283
0
LINE
8
BLACK
6
CONTINUOUS
10
-4.8708876377952759
20
5.773811141732283
11
-4.8713100000000003
21
5.7736361417322835
0
LINE
8
BLACK
6
CONTINUOUS
10
-4.8713100000000003
20
5.7736361417322835
11
-4.8722870078740153
21
5.7733187401574799
0
LINE
8
BLACK
6
CONTINUOUS
10
-4.8722870078740153
20
5.7733187401574799
11
-4.8731183858267713
21
5.7727147244094486
0
LINE
8
BLACK
6
CONTINUOUS
10
-4.8731183858267713
20
5.7727147244094486
11
-4.8735076377952753
21
5.7724761811023617
0
LINE
8
BLACK
6
CONTINUOUS
10
-4.8735076377952753
20
5.7724761811023617
11
-4.8744229133858266
21
5.7720098425196849
0
LINE
8
BLACK
6
CONTINUOUS
10
-4.8744229133858266
20
5.7720098425196849
11
-4.8744229921259841
21
5.7720097637795273
0
LINE
8
BLACK
6
CONTINUOUS
10
-4.8744229921259841
20
5.7720097637795273
11
-4.8752094488188975
21
5.7712233070866139
0
LINE
8
BLACK
6
CONTINUOUS
10
-4.8752094488188975
20
5.7712233070866139
11
-4.875209842519685
21
5.7712229527559051
0
LINE
8
BLACK
6
CONTINUOUS
10
-4.875209842519685
20
5.7712229527559051
11
-4.9221000393700782
21
5.7243327559055119
0
LINE
8
BLACK
6
CONTINUOUS
10
-4.9221000393700782
20
5.7243327559055119
11
-4.9221003149606295
21
5.7243324409448819
0
LINE
8
BLACK
6
CONTINUOUS
10
-4.9221003149606295
20
5.7243324409448819
11
-4.9229153937007872
21
5.7235173622047242
0
LINE
8
BLACK
6
CONTINUOUS
10
-4.9229153937007872
20
5.7235173622047242
11
-4.9233817716535428
21
5.7226021259842517
0
LINE
8
BLACK
6
CONTINUOUS
10
-4.9233817716535428
20
5.7226021259842517
11
-4.9236205511811022
21
5.7222124803149601
0
LINE
8
BLACK
6
CONTINUOUS
10
-4.9236205511811022
20
5.7222124803149601
11
-4.9242242913385823
21
5.7213814566929129
0
LINE
8
BLACK
6
CONTINUOUS
10
-4.9242242913385823
20
5.7213814566929129
11
-4.9242243307086611
21
5.7213814173228341
0
LINE
8
BLACK
6
CONTINUOUS
10
-4.9242243307086611
20
5.7213814173228341
11
-4.9245416929133858
21
5.7204046062992129
0
LINE
8
BLACK
6
CONTINUOUS
10
-4.9245416929133858
20
5.7204046062992129
11
-4.9247166141732279
21
5.7199822440944876
0
LINE
8
BLACK
6
CONTINUOUS
10
-4.9247166141732279
20
5.7199822440944876
11
-4.9251829527559057
21
5.719067007874016
0
LINE
8
BLACK
6
CONTINUOUS
10
-4.9251829527559057
20
5.719067007874016
11
-4.9251830314960632
21
5.7190667716535435
0
LINE
8
BLACK
6
CONTINUOUS
10
-4.9251830314960632
20
5.7190667716535435
11
-4.9253437007874012
21
5.7180524803149604
0
LINE
8
BLACK
6
CONTINUOUS
10
-4.9253437007874012
20
5.7180524803149604
11
-4.9254503149606297
21
5.7176082283464567
0
LINE
8
BLACK
6
CONTINUOUS
10
-4.9254503149606297
20
5.7176082283464567
11
-4.9257677165354332
21
5.716631181102362
0
LINE
8
BLACK
6
CONTINUOUS
10
-4.9257677165354332
20
5.716631181102362
11
-4.9257677165354332
21
5.6375026771653545
0
LINE
8
BLACK
6
CONTINUOUS
10
-4.9257677165354332
20
5.6375026771653545
11
-4.925767755905512
21
5.6375026771653545
0
LINE
8
BLACK
6
CONTINUOUS
10
-4.925767755905512
20
5.6375026771653545
11
-4.9254503149606297
21
5.6365256299212598
0
LINE
8
BLACK
6
CONTINUOUS
10
-4.2403418110236215
20
5.7428188188976375
11
-4.2370100393700785
21
5.7371850787401577
0
LINE
8
BLACK
6
CONTINUOUS
10
-4.2370100393700785
20
5.7371850787401577
11
-4.2323818503937005
21
5.7325568897637798
0
LINE
8
BLACK
6
CONTINUOUS
10
-4.2323818503937005
20
5.7325568897637798
11
-4.2298687007874012
21
5.7310706692913387
0
LINE
8
BLACK
6
CONTINUOUS
10
-4.2298687007874012
20
5.7310706692913387
11
-4.2286037795275586
21
5.7295307086614171
0
LINE
8
BLACK
6
CONTINUOUS
10
-4.2286037795275586
20
5.7295307086614171
11
-4.2286246062992126
21
5.7275379527559052
0
LINE
8
BLACK
6
CONTINUOUS
10
-4.2286246062992126
20
5.7275379527559052
11
-4.2299215354330704
21
5.7260248031496062
0
LINE
8
BLACK
6
CONTINUOUS
10
-4.2299215354330704
20
5.7260248031496062
11
-4.2313517322834642
21
5.7256496062992124
0
LINE
8
BLACK
6
CONTINUOUS
10
-4.2313517322834642
20
5.7256496062992124
11
-4.3751448818897636
21
5.7256496062992124
0
LINE
8
BLACK
6
CONTINUOUS
10
-4.3751448818897636
20
5.7256496062992124
11
-4.3769523622047242
21
5.7263074409448818
0
LINE
8
BLACK
6
CONTINUOUS
10
-4.3769523622047242
20
5.7263074409448818
11
-4.3769618503937009
21
5.726295078740157
0
LINE
8
BLACK
6
CONTINUOUS
10
-4.3769618503937009
20
5.726295078740157
11
-4.3770012204724411
21
5.7263252362204726
0
LINE
8
BLACK
6
CONTINUOUS
10
-4.3770012204724411
20
5.7263252362204726
11
-4.3770175590551181
21
5.7263312204724413
0
LINE
8
BLACK
6
CONTINUOUS
10
-4.3770175590551181
20
5.7263312204724413
11
-4.3770619685039369
21
5.7263718503937007
0
LINE
8
BLACK
6
CONTINUOUS
10
-4.3770619685039369
20
5.7263718503937007
11
-4.3771132677165356
21
5.7264112204724409
0
LINE
8
BLACK
6
CONTINUOUS
10
-4.3771132677165356
20
5.7264112204724409
11
-4.3771133464566931
21
5.7264113385826771
0
LINE
8
BLACK
6
CONTINUOUS
10
-4.3771133464566931
20
5.7264113385826771
11
-4.3820519685039372
21
5.7302008661417325
0
LINE
8
BLACK
6
CONTINUOUS
10
-4.3820519685039372
20
5.7302008661417325
11
-4.38780311023622
21
5.7325830708661414
0
LINE
8
BLACK
6
CONTINUOUS
10
-4.38780311023622
20
5.7325830708661414
11
-4.3939748425196852
21
5.7333955905511811
0
LINE
8
BLACK
6
CONTINUOUS
10
-4.3939748425196852
20
5.7333955905511811
11
-4.4001465748031494
21
5.7325830708661414
0
LINE
8
BLACK
6
CONTINUOUS
10
-4.4001465748031494
20
5.7325830708661414
11
-4.4058977165354332
21
5.7302008661417325
0
LINE
8
BLACK
6
CONTINUOUS
10
-4.4058977165354332
20
5.7302008661417325
11
-4.4072075590551183
21
5.7291957874015749
0
LINE
8
BLACK
6
CONTINUOUS
10
-4.4072075590551183
20
5.7291957874015749
11
-4.4108362598425197
21
5.7264114173228347
0
LINE
8
BLACK
6
CONTINUOUS
10
-4.4108362598425197
20
5.7264114173228347
11
-4.4108364566929135
21
5.7264112204724409
0
LINE
8
BLACK
6
CONTINUOUS
10
-4.4108364566929135
20
5.7264112204724409
11
-4.4146258661417326
21
5.7214727165354331
0
LINE
8
BLACK
6
CONTINUOUS
10
-4.4146258661417326
20
5.7214727165354331
11
-4.4170081102362202
21
5.7157215354330706
0
LINE
8
BLACK
6
CONTINUOUS
10
-4.4170081102362202
20
5.7157215354330706
11
-4.4170081102362202
21
5.7157214960629918
0
LINE
8
BLACK
6
CONTINUOUS
10
-4.4170081102362202
20
5.7157214960629918
11
-4.4178205905511811
21
5.7095498425196851
0
LINE
8
BLACK
6
CONTINUOUS
10
-4.4178205905511811
20
5.7095498425196851
11
-4.4170081102362202
21
5.7033781496062987
0
LINE
8
BLACK
6
CONTINUOUS
10
-4.4170081102362202
20
5.7033781496062987
11
-4.4170081102362202
21
5.70337811023622
0
LINE
8
BLACK
6
CONTINUOUS
10
-4.4170081102362202
20
5.70337811023622
11
-4.4146258661417326
21
5.6976269291338584
0
LINE
8
BLACK
6
CONTINUOUS
10
-4.4146258661417326
20
5.6976269291338584
11
-4.4108364566929135
21
5.6926884251968506
0
LINE
8
BLACK
6
CONTINUOUS
10
-4.4108364566929135
20
5.6926884251968506
11
-4.4108362598425197
21
5.6926882283464568
0
LINE
8
BLACK
6
CONTINUOUS
10
-4.4108362598425197
20
5.6926882283464568
11
-4.4058977559055119
21
5.6888988188976377
0
LINE
8
BLACK
6
CONTINUOUS
10
-4.4058977559055119
20
5.6888988188976377
11
-4.4001465748031494
21
5.6865165748031492
0
LINE
8
BLACK
6
CONTINUOUS
10
-4.4001465748031494
20
5.6865165748031492
11
-4.3939748425196852
21
5.6857040944881891
0
LINE
8
BLACK
6
CONTINUOUS
10
-4.3939748425196852
20
5.6857040944881891
11
-4.3878031889763776
21
5.6865165748031492
0
LINE
8
BLACK
6
CONTINUOUS
10
-4.3878031889763776
20
5.6865165748031492
11
-4.3878031496062988
21
5.6865165748031492
0
LINE
8
BLACK
6
CONTINUOUS
10
-4.3878031496062988
20
5.6865165748031492
11
-4.3820519685039372
21
5.6888988188976377
0
LINE
8
BLACK
6
CONTINUOUS
10
-4.3820519685039372
20
5.6888988188976377
11
-4.3803859842519683
21
5.6901771653543305
0
LINE
8
BLACK
6
CONTINUOUS
10
-4.3803859842519683
20
5.6901771653543305
11
-4.3771133464566931
21
5.6926883464566931
0
LINE
8
BLACK
6
CONTINUOUS
10
-4.3771133464566931
20
5.6926883464566931
11
-4.3768939370078739
21
5.6929743307086609
0
LINE
8
BLACK
6
CONTINUOUS
10
-4.3768939370078739
20
5.6929743307086609
11
-4.3752132283464569
21
5.6940450787401575
0
LINE
8
BLACK
6
CONTINUOUS
10
-4.3752132283464569
20
5.6940450787401575
11
-4.3745825590551179
21
5.6941141732283462
0
LINE
8
BLACK
6
CONTINUOUS
10
-4.3745825590551179
20
5.6941141732283462
11
-4.2272375196850396
21
5.6941141732283462
0
LINE
8
BLACK
6
CONTINUOUS
10
-4.2272375196850396
20
5.6941141732283462
11
-4.225364842519685
21
5.6934325590551182
0
LINE
8
BLACK
6
CONTINUOUS
10
-4.225364842519685
20
5.6934325590551182
11
-4.2251774409448819
21
5.6932608661417321
0
LINE
8
BLACK
6
CONTINUOUS
10
-4.2251774409448819
20
5.6932608661417321
11
-4.224507204724409
21
5.6925905905511813
0
LINE
8
BLACK
6
CONTINUOUS
10
-4.224507204724409
20
5.6925905905511813
11
-4.2203698818897637
21
5.6905679921259837
0
LINE
8
BLACK
6
CONTINUOUS
10
-4.2203698818897637
20
5.6905679921259837
11
-4.2176875984251971
21
5.6901771653543305
0
LINE
8
BLACK
6
CONTINUOUS
10
-4.2176875984251971
20
5.6901771653543305
11
-4.2176874015748034
21
5.6901771653543305
0
LINE
8
BLACK
6
CONTINUOUS
10
-4.2176874015748034
20
5.6901771653543305
11
-4.1599502362204728
21
5.6901771653543305
0
LINE
8
BLACK
6
CONTINUOUS
10
-4.1599502362204728
20
5.6901771653543305
11
-4.1572679921259841
21
5.6905679921259837
0
LINE
8
BLACK
6
CONTINUOUS
10
-4.1572679921259841
20
5.6905679921259837
11
-4.1568153937007875
21
5.6907892519685035
0
LINE
8
BLACK
6
CONTINUOUS
10
-4.1568153937007875
20
5.6907892519685035
11
-4.1548336220472439
21
5.690999330708661
0
LINE
8
BLACK
6
CONTINUOUS
10
-4.1548336220472439
20
5.690999330708661
11
-4.1534758267716532
21
5.6902319291338586
0
LINE
8
BLACK
6
CONTINUOUS
10
-4.1534758267716532
20
5.6902319291338586
11
-4.1483729921259842
21
5.6851291338582675
0
LINE
8
BLACK
6
CONTINUOUS
10
-4.1483729921259842
20
5.6851291338582675
11
-4.1475307874015748
21
5.6833229921259845
0
LINE
8
BLACK
6
CONTINUOUS
10
-4.1475307874015748
20
5.6833229921259845
11
-4.1475196850393701
21
5.6830690551181098
0
LINE
8
BLACK
6
CONTINUOUS
10
-4.1475196850393701
20
5.6830690551181098
11
-4.1475196850393701
21
5.6815704724409448
0
LINE
8
BLACK
6
CONTINUOUS
10
-4.1475196850393701
20
5.6815704724409448
11
-4.1482012992125981
21
5.6796977952755903
0
LINE
8
BLACK
6
CONTINUOUS
10
-4.1482012992125981
20
5.6796977952755903
11
-4.1484801181102364
21
5.6794309055118113
0
LINE
8
BLACK
6
CONTINUOUS
10
-4.1484801181102364
20
5.6794309055118113
11
-4.1484785433070863
21
5.6794293700787399
0
LINE
8
BLACK
6
CONTINUOUS
10
-4.1484785433070863
20
5.6794293700787399
11
-4.148613307086614
21
5.6792946062992122
0
LINE
8
BLACK
6
CONTINUOUS
10
-4.148613307086614
20
5.6792946062992122
11
-4.148613464566929
21
5.679294488188976
0
LINE
8
BLACK
6
CONTINUOUS
10
-4.148613464566929
20
5.679294488188976
11
-4.1486135826771653
21
5.679294330708661
0
LINE
8
BLACK
6
CONTINUOUS
10
-4.1486135826771653
20
5.679294330708661
11
-4.1486136614173228
21
5.6792942519685035
0
LINE
8
BLACK
6
CONTINUOUS
10
-4.1486136614173228
20
5.6792942519685035
11
-4.1491601574803152
21
5.6785820866141732
0
LINE
8
BLACK
6
CONTINUOUS
10
-4.1491601574803152
20
5.6785820866141732
11
-4.1508409448818897
21
5.6775113385826774
0
LINE
8
BLACK
6
CONTINUOUS
10
-4.1508409448818897
20
5.6775113385826774
11
-4.1528167322834646
21
5.6777714960629924
0
LINE
8
BLACK
6
CONTINUOUS
10
-4.1528167322834646
20
5.6777714960629924
11
-4.1531032283464562
21
5.677947125984252
0
LINE
8
BLACK
6
CONTINUOUS
10
-4.1531032283464562
20
5.677947125984252
11
-4.1531305118110238
21
5.677960433070866
0
LINE
8
BLACK
6
CONTINUOUS
10
-4.1531305118110238
20
5.677960433070866
11
-4.1531305905511813
21
5.6779605511811022
0
LINE
8
BLACK
6
CONTINUOUS
10
-4.1531305905511813
20
5.6779605511811022
11
-4.1572679921259841
21
5.6799831889763777
0
LINE
8
BLACK
6
CONTINUOUS
10
-4.1572679921259841
20
5.6799831889763777
11
-4.1599503937007869
21
5.6803740157480318
0
LINE
8
BLACK
6
CONTINUOUS
10
-4.1599503937007869
20
5.6803740157480318
11
-4.2176874015748034
21
5.6803740157480318
0
LINE
8
BLACK
6
CONTINUOUS
10
-4.2176874015748034
20
5.6803740157480318
11
-4.2203698031496062
21
5.6799831889763777
0
LINE
8
BLACK
6
CONTINUOUS
10
-4.2203698031496062
20
5.6799831889763777
11
-4.2203698818897637
21
5.6799831496062989
0
LINE
8
BLACK
6
CONTINUOUS
10
-4.2203698818897637
20
5.6799831496062989
11
-4.224507204724409
21
5.6779605511811022
0
LINE
8
BLACK
6
CONTINUOUS
10
-4.224507204724409
20
5.6779605511811022
11
-4.2251774409448819
21
5.6772903149606302
0
LINE
8
BLACK
6
CONTINUOUS
10
-4.2251774409448819
20
5.6772903149606302
11
-4.2269835826771649
21
5.6764481102362208
0
LINE
8
BLACK
6
CONTINUOUS
10
-4.2269835826771649
20
5.6764481102362208
11
-4.2272375196850396
21
5.6764370078740161
0
LINE
8
BLACK
6
CONTINUOUS
10
-4.2272375196850396
20
5.6764370078740161
11
-4.2365318110236219
21
5.6764370078740161
0
LINE
8
BLACK
6
CONTINUOUS
10
-4.2365318110236219
20
5.6764370078740161
11
-4.2384044881889764
21
5.677118622047244
0
LINE
8
BLACK
6
CONTINUOUS
10
-4.2384044881889764
20
5.677118622047244
11
-4.2386714566929129
21
5.6773974015748028
0
LINE
8
BLACK
6
CONTINUOUS
10
-4.2386714566929129
20
5.6773974015748028
11
-4.2386729527559055
21
5.6773959055118111
0
LINE
8
BLACK
6
CONTINUOUS
10
-4.2386729527559055
20
5.6773959055118111
11
-4.2388076771653544
21
5.6775305905511813
0
LINE
8
BLACK
6
CONTINUOUS
10
-4.2388076771653544
20
5.6775305905511813
11
-4.2388077952755907
21
5.677530787401575
0
LINE
8
BLACK
6
CONTINUOUS
10
-4.2388077952755907
20
5.677530787401575
11
-4.2437464173228348
21
5.6813203149606295
0
LINE
8
BLACK
6
CONTINUOUS
10
-4.2437464173228348
20
5.6813203149606295
11
-4.2494975590551176
21
5.6837025196850393
0
LINE
8
BLACK
6
CONTINUOUS
10
-4.2494975590551176
20
5.6837025196850393
11
-4.2556692913385827
21
5.684515039370079
0
LINE
8
BLACK
6
CONTINUOUS
10
-4.2556692913385827
20
5.684515039370079
11
-4.261841023622047
21
5.6837025196850393
0
LINE
8
BLACK
6
CONTINUOUS
10
-4.261841023622047
20
5.6837025196850393
11
-4.2675921653543307
21
5.6813203149606295
0
LINE
8
BLACK
6
CONTINUOUS
10
-4.2675921653543307
20
5.6813203149606295
11
-4.2680880708661419
21
5.6809398031496059
0
LINE
8
BLACK
6
CONTINUOUS
10
-4.2680880708661419
20
5.6809398031496059
11
-4.2725306299212598
21
5.67753094488189
0
LINE
8
BLACK
6
CONTINUOUS
10
-4.2725306299212598
20
5.67753094488189
11
-4.27266562992126
21
5.6773959055118111
0
LINE
8
BLACK
6
CONTINUOUS
10
-4.27266562992126
20
5.6773959055118111
11
-4.2727099212598425
21
5.6774401574803148
0
LINE
8
BLACK
6
CONTINUOUS
10
-4.2727099212598425
20
5.6774401574803148
11
-4.2741762598425197
21
5.676506062992126
0
LINE
8
BLACK
6
CONTINUOUS
10
-4.2741762598425197
20
5.676506062992126
11
-4.2748067716535436
21
5.6764370078740161
0
LINE
8
BLACK
6
CONTINUOUS
10
-4.2748067716535436
20
5.6764370078740161
11
-4.3465963385826774
21
5.6764370078740161
0
LINE
8
BLACK
6
CONTINUOUS
10
-4.3465963385826774
20
5.6764370078740161
11
-4.3483698818897638
21
5.6770390551181098
0
LINE
8
BLACK
6
CONTINUOUS
10
-4.3483698818897638
20
5.6770390551181098
11
-4.3503808267716533
21
5.6785820866141732
0
LINE
8
BLACK
6
CONTINUOUS
10
-4.3503808267716533
20
5.6785820866141732
11
-4.3530771259842522
21
5.6806510236220475
0
LINE
8
BLACK
6
CONTINUOUS
10
-4.3530771259842522
20
5.6806510236220475
11
-4.3588282677165351
21
5.6830332283464564
0
LINE
8
BLACK
6
CONTINUOUS
10
-4.3588282677165351
20
5.6830332283464564
11
-4.3650000000000002
21
5.6838457480314961
0
LINE
8
BLACK
6
CONTINUOUS
10
-4.3650000000000002
20
5.6838457480314961
11
-4.3711717322834645
21
5.6830332283464564
0
LINE
8
BLACK
6
CONTINUOUS
10
-4.3711717322834645
20
5.6830332283464564
11
-4.3769228740157482
21
5.6806510236220475
0
LINE
8
BLACK
6
CONTINUOUS
10
-4.3769228740157482
20
5.6806510236220475
11
-4.3772839370078742
21
5.680373976377953
0
LINE
8
BLACK
6
CONTINUOUS
10
-4.3772839370078742
20
5.680373976377953
11
-4.3818614173228347
21
5.6768615748031497
0
LINE
8
BLACK
6
CONTINUOUS
10
-4.3818614173228347
20
5.6768615748031497
11
-4.3818616141732285
21
5.6768613779527559
0
LINE
8
BLACK
6
CONTINUOUS
10
-4.3818616141732285
20
5.6768613779527559
11
-4.3856510236220467
21
5.6719228740157481
0
LINE
8
BLACK
6
CONTINUOUS
10
-4.3856510236220467
20
5.6719228740157481
11
-4.3880332677165352
21
5.6661716929133856
0
LINE
8
BLACK
6
CONTINUOUS
10
-4.3880332677165352
20
5.6661716929133856
11
-4.3880332677165352
21
5.6661716535433069
0
LINE
8
BLACK
6
CONTINUOUS
10
-4.3880332677165352
20
5.6661716535433069
11
-4.3888457480314962
21
5.6600000000000001
0
LINE
8
BLACK
6
CONTINUOUS
10
-4.3888457480314962
20
5.6600000000000001
11
-4.3880332677165352
21
5.6538283070866138
0
LINE
8
BLACK
6
CONTINUOUS
10
-4.3880332677165352
20
5.6538283070866138
11
-4.3880332677165352
21
5.653828267716535
0
LINE
8
BLACK
6
CONTINUOUS
10
-4.3880332677165352
20
5.653828267716535
11
-4.3856510236220467
21
5.6480770866141734
0
LINE
8
BLACK
6
CONTINUOUS
10
-4.3856510236220467
20
5.6480770866141734
11
-4.3818616141732285
21
5.6431385826771656
0
LINE
8
BLACK
6
CONTINUOUS
10
-4.3818616141732285
20
5.6431385826771656
11
-4.3818614173228347
21
5.6431383858267719
0
LINE
8
BLACK
6
CONTINUOUS
10
-4.3818614173228347
20
5.6431383858267719
11
-4.376922913385827
21
5.6393489763779527
0
LINE
8
BLACK
6
CONTINUOUS
10
-4.376922913385827
20
5.6393489763779527
11
-4.3711717322834645
21
5.6369667322834642
0
LINE
8
BLACK
6
CONTINUOUS
10
-4.3711717322834645
20
5.6369667322834642
11
-4.3650000000000002
21
5.6361542519685042
0
LINE
8
BLACK
6
CONTINUOUS
10
-4.3650000000000002
20
5.6361542519685042
11
-4.3588283464566926
21
5.6369667322834642
0
LINE
8
BLACK
6
CONTINUOUS
10
-4.3588283464566926
20
5.6369667322834642
11
-4.3588283070866138
21
5.6369667322834642
0
LINE
8
BLACK
6
CONTINUOUS
10
-4.3588283070866138
20
5.6369667322834642
11
-4.3530771259842522
21
5.6393489763779527
0
LINE
8
BLACK
6
CONTINUOUS
10
-4.3530771259842522
20
5.6393489763779527
11
-4.3481386220472444
21
5.6431383858267719
0
LINE
8
BLACK
6
CONTINUOUS
10
-4.3481386220472444
20
5.6431383858267719
11
-4.3481384645669294
21
5.6431385433070869
0
LINE
8
BLACK
6
CONTINUOUS
10
-4.3481384645669294
20
5.6431385433070869
11
-4.3476603149606294
21
5.6437616929133858
0
LINE
8
BLACK
6
CONTINUOUS
10
-4.3476603149606294
20
5.6437616929133858
11
-4.3459795669291337
21
5.6448325196850391
0
LINE
8
BLACK
6
CONTINUOUS
10
-4.3459795669291337
20
5.6448325196850391
11
-4.3453489370078735
21
5.6449015748031499
0
LINE
8
BLACK
6
CONTINUOUS
10
-4.3453489370078735
20
5.6449015748031499
11
-4.2748067716535436
21
5.6449015748031499
0
LINE
8
BLACK
6
CONTINUOUS
10
-4.2748067716535436
20
5.6449015748031499
11
-4.2729340944881891
21
5.644219960629921
0
LINE
8
BLACK
6
CONTINUOUS
10
-4.2729340944881891
20
5.644219960629921
11
-4.2726671653543304
21
5.6439411417322836
0
LINE
8
BLACK
6
CONTINUOUS
10
-4.2726671653543304
20
5.6439411417322836
11
-4.27266562992126
21
5.643942677165354
0
LINE
8
BLACK
6
CONTINUOUS
10
-4.27266562992126
20
5.643942677165354
11
-4.2725306299212598
21
5.6438075984251963
0
LINE
8
BLACK
6
CONTINUOUS
10
-4.2725306299212598
20
5.6438075984251963
11
-4.2675922047244095
21
5.6400182677165356
0
LINE
8
BLACK
6
CONTINUOUS
10
-4.2675922047244095
20
5.6400182677165356
11
-4.261841023622047
21
5.6376360236220471
0
LINE
8
BLACK
6
CONTINUOUS
10
-4.261841023622047
20
5.6376360236220471
11
-4.2556692913385827
21
5.6368235433070861
0
LINE
8
BLACK
6
CONTINUOUS
10
-4.2556692913385827
20
5.6368235433070861
11
-4.2494976377952751
21
5.6376360236220471
0
LINE
8
BLACK
6
CONTINUOUS
10
-4.2494976377952751
20
5.6376360236220471
11
-4.2494975984251964
21
5.6376360236220471
0
LINE
8
BLACK
6
CONTINUOUS
10
-4.2494975984251964
20
5.6376360236220471
11
-4.2437464173228348
21
5.6400182677165356
0
LINE
8
BLACK
6
CONTINUOUS
10
-4.2437464173228348
20
5.6400182677165356
11
-4.2388079921259845
21
5.6438075984251963
0
LINE
8
BLACK
6
CONTINUOUS
10
-4.2388079921259845
20
5.6438075984251963
11
-4.2386729527559055
21
5.643942677165354
0
LINE
8
BLACK
6
CONTINUOUS
10
-4.2386729527559055
20
5.643942677165354
11
-4.2386287007874017
21
5.6438983858267715
0
LINE
8
BLACK
6
CONTINUOUS
10
-4.2386287007874017
20
5.6438983858267715
11
-4.2371623228346458
21
5.6448325196850391
0
LINE
8
BLACK
6
CONTINUOUS
10
-4.2371623228346458
20
5.6448325196850391
11
-4.2365318110236219
21
5.6449015748031499
0
LINE
8
BLACK
6
CONTINUOUS
10
-4.2365318110236219
20
5.6449015748031499
11
-4.2272375196850396
21
5.6449015748031499
0
LINE
8
BLACK
6
CONTINUOUS
10
-4.2272375196850396
20
5.6449015748031499
11
-4.225364842519685
21
5.644219960629921
0
LINE
8
BLACK
6
CONTINUOUS
10
-4.225364842519685
20
5.644219960629921
11
-4.2251774409448819
21
5.6440482677165349
0
LINE
8
BLACK
6
CONTINUOUS
10
-4.2251774409448819
20
5.6440482677165349
11
-4.224507204724409
21
5.6433779921259841
0
LINE
8
BLACK
6
CONTINUOUS
10
-4.224507204724409
20
5.6433779921259841
11
-4.2203698818897637
21
5.6413553937007874
0
LINE
8
BLACK
6
CONTINUOUS
10
-4.2203698818897637
20
5.6413553937007874
11
-4.2176875984251971
21
5.6409645669291342
0
LINE
8
BLACK
6
CONTINUOUS
10
-4.2176875984251971
20
5.6409645669291342
11
-4.2176874015748034
21
5.6409645669291342
0
LINE
8
BLACK
6
CONTINUOUS
10
-4.2176874015748034
20
5.6409645669291342
11
-4.1599502362204728
21
5.6409645669291342
0
LINE
8
BLACK
6
CONTINUOUS
10
-4.1599502362204728
20
5.6409645669291342
11
-4.1572679921259841
21
5.6413553937007874
0
LINE
8
BLACK
6
CONTINUOUS
10
-4.1572679921259841
20
5.6413553937007874
11
-4.1572679527559053
21
5.6413553937007874
0
LINE
8
BLACK
6
CONTINUOUS
10
-4.1572679527559053
20
5.6413553937007874
11
-4.15313062992126
21
5.6433779921259841
0
LINE
8
BLACK
6
CONTINUOUS
10
-4.15313062992126
20
5.6433779921259841
11
-4.151734921259842
21
5.6447737007874013
0
LINE
8
BLACK
6
CONTINUOUS
10
-4.151734921259842
20
5.6447737007874013
11
-4.149928779527559
21
5.6456159055118107
0
LINE
8
BLACK
6
CONTINUOUS
10
-4.149928779527559
20
5.6456159055118107
11
-4.1480037795275591
21
5.6451001181102365
0
LINE
8
BLACK
6
CONTINUOUS
10
-4.1480037795275591
20
5.6451001181102365
11
-4.1479012992125988
21
5.6450249999999995
0
LINE
8
BLACK
6
CONTINUOUS
10
-4.1479012992125988
20
5.6450249999999995
11
-4.1436748031496062
21
5.6417819291338578
0
LINE
8
BLACK
6
CONTINUOUS
10
-4.1436748031496062
20
5.6417819291338578
11
-4.1379237007874012
21
5.6393997244094489
0
LINE
8
BLACK
6
CONTINUOUS
10
-4.1379237007874012
20
5.6393997244094489
11
-4.131751968503937
21
5.638587244094488
0
LINE
8
BLACK
6
CONTINUOUS
10
-4.131751968503937
20
5.638587244094488
11
-4.1255803149606303
21
5.6393997244094489
0
LINE
8
BLACK
6
CONTINUOUS
10
-4.1255803149606303
20
5.6393997244094489
11
-4.1255802755905515
21
5.6393997244094489
0
LINE
8
BLACK
6
CONTINUOUS
10
-4.1255802755905515
20
5.6393997244094489
11
-4.119829094488189
21
5.6417819685039365
0
LINE
8
BLACK
6
CONTINUOUS
10
-4.119829094488189
20
5.6417819685039365
11
-4.1148905905511812
21
5.6455713779527557
0
LINE
8
BLACK
6
CONTINUOUS
10
-4.1148905905511812
20
5.6455713779527557
11
-4.1148903937007875
21
5.6455715748031494
0
LINE
8
BLACK
6
CONTINUOUS
10
-4.1148903937007875
20
5.6455715748031494
11
-4.1111009842519683
21
5.6505100787401572
0
LINE
8
BLACK
6
CONTINUOUS
10
-4.1111009842519683
20
5.6505100787401572
11
-4.1111009448818896
21
5.650510118110236
0
LINE
8
BLACK
6
CONTINUOUS
10
-4.1111009448818896
20
5.650510118110236
11
-4.1087187401574798
21
5.6562612598425197
0
LINE
8
BLACK
6
CONTINUOUS
10
-4.1087187401574798
20
5.6562612598425197
11
-4.107906220472441
21
5.6624329921259839
0
LINE
8
BLACK
6
CONTINUOUS
10
-4.107906220472441
20
5.6624329921259839
11
-4.1087187401574798
21
5.6686047244094491
0
LINE
8
BLACK
6
CONTINUOUS
10
-4.1087187401574798
20
5.6686047244094491
11
-4.1111009448818896
21
5.6743558661417319
0
LINE
8
BLACK
6
CONTINUOUS
10
-4.1111009448818896
20
5.6743558661417319
11
-4.114890472440945
21
5.679294488188976
0
LINE
8
BLACK
6
CONTINUOUS
10
-4.114890472440945
20
5.679294488188976
11
-4.1148906692913387
21
5.6792946062992122
0
LINE
8
BLACK
6
CONTINUOUS
10
-4.1148906692913387
20
5.6792946062992122
11
-4.1150253937007877
21
5.6794293700787399
0
LINE
8
BLACK
6
CONTINUOUS
10
-4.1150253937007877
20
5.6794293700787399
11
-4.1149811023622043
21
5.6794736614173225
0
LINE
8
BLACK
6
CONTINUOUS
10
-4.1149811023622043
20
5.6794736614173225
11
-4.1159151574803152
21
5.6809398031496059
0
LINE
8
BLACK
6
CONTINUOUS
10
-4.1159151574803152
20
5.6809398031496059
11
-4.1159842519685039
21
5.6815704724409448
0
LINE
8
BLACK
6
CONTINUOUS
10
-4.1159842519685039
20
5.6815704724409448
11
-4.1159842519685039
21
5.6921678346456694
0
LINE
8
BLACK
6
CONTINUOUS
10
-4.1159842519685039
20
5.6921678346456694
11
-4.1159842913385827
21
5.6921688188976374
0
LINE
8
BLACK
6
CONTINUOUS
10
-4.1159842913385827
20
5.6921688188976374
11
-4.1159842913385827
21
5.6933045275590546
0
LINE
8
BLACK
6
CONTINUOUS
10
-4.1159842913385827
20
5.6933045275590546
11
-4.1163016535433066
21
5.6942811417322829
0
LINE
8
BLACK
6
CONTINUOUS
10
-4.1163016535433066
20
5.6942811417322829
11
-4.11640842519685
21
5.6947259055118105
0
LINE
8
BLACK
6
CONTINUOUS
10
-4.11640842519685
20
5.6947259055118105
11
-4.1165690551181102
21
5.6957402362204723
0
LINE
8
BLACK
6
CONTINUOUS
10
-4.1165690551181102
20
5.6957402362204723
11
-4.1165690551181102
21
5.6957403149606298
0
LINE
8
BLACK
6
CONTINUOUS
10
-4.1165690551181102
20
5.6957403149606298
11
-4.1170355118110233
21
5.6966557086614173
0
LINE
8
BLACK
6
CONTINUOUS
10
-4.1170355118110233
20
5.6966557086614173
11
-4.1172103543307088
21
5.6970778740157479
0
LINE
8
BLACK
6
CONTINUOUS
10
-4.1172103543307088
20
5.6970778740157479
11
-4.1175276377952752
21
5.6980544881889763
0
LINE
8
BLACK
6
CONTINUOUS
10
-4.1175276377952752
20
5.6980544881889763
11
-4.1175276771653539
21
5.6980544881889763
0
LINE
8
BLACK
6
CONTINUOUS
10
-4.1175276771653539
20
5.6980544881889763
11
-4.1175277165354327
21
5.6980547244094488
0
LINE
8
BLACK
6
CONTINUOUS
10
-4.1175277165354327
20
5.6980547244094488
11
-4.1181314566929137
21
5.6988855511811023
0
LINE
8
BLACK
6
CONTINUOUS
10
-4.1181314566929137
20
5.6988855511811023
11
-4.1183703543307084
21
5.6992754724409451
0
LINE
8
BLACK
6
CONTINUOUS
10
-4.1183703543307084
20
5.6992754724409451
11
-4.1188365748031499
21
5.7001905511811026
0
LINE
8
BLACK
6
CONTINUOUS
10
-4.1188365748031499
20
5.7001905511811026
11
-4.1188366141732287
21
5.7001906299212601
0
LINE
8
BLACK
6
CONTINUOUS
10
-4.1188366141732287
20
5.7001906299212601
11
-4.12236842519685
21
5.7037224409448815
0
LINE
8
BLACK
6
CONTINUOUS
10
-4.12236842519685
20
5.7037224409448815
11
-4.1405547637795275
21
5.7219088188976377
0
LINE
8
BLACK
6
CONTINUOUS
10
-4.1405547637795275
20
5.7219088188976377
11
-4.140554842519685
21
5.7219088582677164
0
LINE
8
BLACK
6
CONTINUOUS
10
-4.140554842519685
20
5.7219088582677164
11
-4.1407207086614175
21
5.722074724409449
0
LINE
8
BLACK
6
CONTINUOUS
10
-4.1407207086614175
20
5.722074724409449
11
-4.1407209055118113
21
5.722074881889764
0
LINE
8
BLACK
6
CONTINUOUS
10
-4.1407209055118113
20
5.722074881889764
11
-4.1414432283464562
21
5.7227972440944876
0
LINE
8
BLACK
6
CONTINUOUS
10
-4.1414432283464562
20
5.7227972440944876
11
-4.1423583464566924
21
5.7232634645669291
0
LINE
8
BLACK
6
CONTINUOUS
10
-4.1423583464566924
20
5.7232634645669291
11
-4.1427481889763778
21
5.7235024015748026
0
LINE
8
BLACK
6
CONTINUOUS
10
-4.1427481889763778
20
5.7235024015748026
11
-4.1427688188976379
21
5.7235174015748029
0
LINE
8
BLACK
6
CONTINUOUS
10
-4.1427688188976379
20
5.7235174015748029
11
-4.1435791338582675
21
5.7241061417322836
0
LINE
8
BLACK
6
CONTINUOUS
10
-4.1435791338582675
20
5.7241061417322836
11
-4.1445562204724409
21
5.724423582677165
0
LINE
8
BLACK
6
CONTINUOUS
10
-4.1445562204724409
20
5.724423582677165
11
-4.1449782283464565
21
5.724598346456693
0
LINE
8
BLACK
6
CONTINUOUS
10
-4.1449782283464565
20
5.724598346456693
11
-4.1458935433070865
21
5.7250648031496061
0
LINE
8
BLACK
6
CONTINUOUS
10
-4.1458935433070865
20
5.7250648031496061
11
-4.1469081889763775
21
5.725225472440945
0
LINE
8
BLACK
6
CONTINUOUS
10
-4.1469081889763775
20
5.725225472440945
11
-4.1473523228346458
21
5.7253320866141735
0
LINE
8
BLACK
6
CONTINUOUS
10
-4.1473523228346458
20
5.7253320866141735
11
-4.1477474803149601
21
5.725460472440945
0
LINE
8
BLACK
6
CONTINUOUS
10
-4.1477474803149601
20
5.725460472440945
11
-4.1493177559055114
21
5.7266874409448816
0
LINE
8
BLACK
6
CONTINUOUS
10
-4.1493177559055114
20
5.7266874409448816
11
-4.1497320472440942
21
5.7286367716535436
0
LINE
8
BLACK
6
CONTINUOUS
10
-4.1497320472440942
20
5.7286367716535436
11
-4.1487963779527561
21
5.7303963385826773
0
LINE
8
BLACK
6
CONTINUOUS
10
-4.1487963779527561
20
5.7303963385826773
11
-4.1483300393700784
21
5.7307388976377949
0
LINE
8
BLACK
6
CONTINUOUS
10
-4.1483300393700784
20
5.7307388976377949
11
-4.1452559842519685
21
5.7325568897637798
0
LINE
8
BLACK
6
CONTINUOUS
10
-4.1452559842519685
20
5.7325568897637798
11
-4.1406277952755906
21
5.7371850787401577
0
LINE
8
BLACK
6
CONTINUOUS
10
-4.1406277952755906
20
5.7371850787401577
11
-4.1372960236220475
21
5.7428188188976375
0
LINE
8
BLACK
6
CONTINUOUS
10
-4.1372960236220475
20
5.7428188188976375
11
-4.1354727165354328
21
5.7490944881889758
0
LINE
8
BLACK
6
CONTINUOUS
10
-4.1354727165354328
20
5.7490944881889758
11
-4.1570296850393698
21
5.7490944881889758
0
LINE
8
BLACK
6
CONTINUOUS
10
-4.1570296850393698
20
5.7490944881889758
11
-4.1570840157480315
21
5.7490131496062995
0
LINE
8
BLACK
6
CONTINUOUS
10
-4.1570840157480315
20
5.7490131496062995
11
-4.1589998818897636
21
5.7477329921259841
0
LINE
8
BLACK
6
CONTINUOUS
10
-4.1589998818897636
20
5.7477329921259841
11
-4.1612598425196845
21
5.7472834645669293
0
LINE
8
BLACK
6
CONTINUOUS
10
-4.1612598425196845
20
5.7472834645669293
11
-4.2163779527559058
21
5.7472834645669293
0
LINE
8
BLACK
6
CONTINUOUS
10
-4.2163779527559058
20
5.7472834645669293
11
-4.2186379133858267
21
5.7477329921259841
0
LINE
8
BLACK
6
CONTINUOUS
10
-4.2186379133858267
20
5.7477329921259841
11
-4.2205537795275587
21
5.7490131496062995
0
LINE
8
BLACK
6
CONTINUOUS
10
-4.2205537795275587
20
5.7490131496062995
11
-4.2206081102362205
21
5.7490944881889758
0
LINE
8
BLACK
6
CONTINUOUS
10
-4.2206081102362205
20
5.7490944881889758
11
-4.2421650787401575
21
5.7490944881889758
0
LINE
8
BLACK
6
CONTINUOUS
10
-4.2421650787401575
20
5.7490944881889758
11
-4.2403418110236215
21
5.7428188188976375
0
LINE
8
BLACK
6
CONTINUOUS
10
-4.5292192913385829
20
5.7654818503937006
11
-4.5292192913385829
21
5.7654818110236219
0
LINE
8
BLACK
6
CONTINUOUS
10
-4.5292192913385829
20
5.7654818110236219
11
-4.5268370472440944
21
5.7597306299212594
0
LINE
8
BLACK
6
CONTINUOUS
10
-4.5268370472440944
20
5.7597306299212594
11
-4.5230476377952753
21
5.7547921259842516
0
LINE
8
BLACK
6
CONTINUOUS
10
-4.5230476377952753
20
5.7547921259842516
11
-4.5230474409448815
21
5.7547919291338578
0
LINE
8
BLACK
6
CONTINUOUS
10
-4.5230474409448815
20
5.7547919291338578
11
-4.5181089370078737
21
5.7510025196850396
0
LINE
8
BLACK
6
CONTINUOUS
10
-4.5181089370078737
20
5.7510025196850396
11
-4.5123577559055121
21
5.7486202755905511
0
LINE
8
BLACK
6
CONTINUOUS
10
-4.5123577559055121
20
5.7486202755905511
11
-4.506186023622047
21
5.7478077952755902
0
LINE
8
BLACK
6
CONTINUOUS
10
-4.506186023622047
20
5.7478077952755902
11
-4.5000143700787403
21
5.7486202755905511
0
LINE
8
BLACK
6
CONTINUOUS
10
-4.5000143700787403
20
5.7486202755905511
11
-4.5000143307086615
21
5.7486202755905511
0
LINE
8
BLACK
6
CONTINUOUS
10
-4.5000143307086615
20
5.7486202755905511
11
-4.494263149606299
21
5.7510025196850396
0
LINE
8
BLACK
6
CONTINUOUS
10
-4.494263149606299
20
5.7510025196850396
11
-4.4893247244094487
21
5.7547918503937003
0
LINE
8
BLACK
6
CONTINUOUS
10
-4.4893247244094487
20
5.7547918503937003
11
-4.4893246456692912
21
5.7547919291338578
0
LINE
8
BLACK
6
CONTINUOUS
10
-4.4893246456692912
20
5.7547919291338578
11
-4.4893246062992125
21
5.7547919685039366
0
LINE
8
BLACK
6
CONTINUOUS
10
-4.4893246062992125
20
5.7547919685039366
11
-4.489324527559055
21
5.7547920472440941
0
LINE
8
BLACK
6
CONTINUOUS
10
-4.489324527559055
20
5.7547920472440941
11
-4.4891785826771651
21
5.7549822834645665
0
LINE
8
BLACK
6
CONTINUOUS
10
-4.4891785826771651
20
5.7549822834645665
11
-4.4874978346456693
21
5.7560529921259844
0
LINE
8
BLACK
6
CONTINUOUS
10
-4.4874978346456693
20
5.7560529921259844
11
-4.4868672834645666
21
5.7561220472440944
0
LINE
8
BLACK
6
CONTINUOUS
10
-4.4868672834645666
20
5.7561220472440944
11
-4.3570311811023625
21
5.7561220472440944
0
LINE
8
BLACK
6
CONTINUOUS
10
-4.3570311811023625
20
5.7561220472440944
11
-4.355158503937008
21
5.7554404330708664
0
LINE
8
BLACK
6
CONTINUOUS
10
-4.355158503937008
20
5.7554404330708664
11
-4.3548915748031494
21
5.755161614173228
0
LINE
8
BLACK
6
CONTINUOUS
10
-4.3548915748031494
20
5.755161614173228
11
-4.3548900393700789
21
5.7551631496062994
0
LINE
8
BLACK
6
CONTINUOUS
10
-4.3548900393700789
20
5.7551631496062994
11
-4.3547550393700787
21
5.7550280708661417
0
LINE
8
BLACK
6
CONTINUOUS
10
-4.3547550393700787
20
5.7550280708661417
11
-4.3498166141732284
21
5.75123874015748
0
LINE
8
BLACK
6
CONTINUOUS
10
-4.3498166141732284
20
5.75123874015748
11
-4.3440654330708659
21
5.7488564960629924
0
LINE
8
BLACK
6
CONTINUOUS
10
-4.3440654330708659
20
5.7488564960629924
11
-4.3378937007874017
21
5.7480440157480315
0
LINE
8
BLACK
6
CONTINUOUS
10
-4.3378937007874017
20
5.7480440157480315
11
-4.331722047244094
21
5.7488564960629924
0
LINE
8
BLACK
6
CONTINUOUS
10
-4.331722047244094
20
5.7488564960629924
11
-4.3317220078740153
21
5.7488564960629924
0
LINE
8
BLACK
6
CONTINUOUS
10
-4.3317220078740153
20
5.7488564960629924
11
-4.3259708267716537
21
5.75123874015748
0
LINE
8
BLACK
6
CONTINUOUS
10
-4.3259708267716537
20
5.75123874015748
11
-4.3210323228346459
21
5.7550281496062992
0
LINE
8
BLACK
6
CONTINUOUS
10
-4.3210323228346459
20
5.7550281496062992
11
-4.3210321259842521
21
5.7550283464566929
0
LINE
8
BLACK
6
CONTINUOUS
10
-4.3210321259842521
20
5.7550283464566929
11
-4.3183625196850395
21
5.7585074803149601
0
LINE
8
BLACK
6
CONTINUOUS
10
-4.3183625196850395
20
5.7585074803149601
11
-4.3172426771653543
21
5.7599668897637795
0
LINE
8
BLACK
6
CONTINUOUS
10
-4.3172426771653543
20
5.7599668897637795
11
-4.3148604724409445
21
5.7657180314960632
0
LINE
8
BLACK
6
CONTINUOUS
10
-4.3148604724409445
20
5.7657180314960632
11
-4.3140479527559057
21
5.7718897637795274
0
LINE
8
BLACK
6
CONTINUOUS
10
-4.3140479527559057
20
5.7718897637795274
11
-4.3148604724409445
21
5.7780614960629917
0
LINE
8
BLACK
6
CONTINUOUS
10
-4.3148604724409445
20
5.7780614960629917
11
-4.3172426771653543
21
5.7838126377952754
0
LINE
8
BLACK
6
CONTINUOUS
10
-4.3172426771653543
20
5.7838126377952754
11
-4.3210322047244096
21
5.7887512598425195
0
LINE
8
BLACK
6
CONTINUOUS
10
-4.3210322047244096
20
5.7887512598425195
11
-4.3259708267716537
21
5.7925407874015749
0
LINE
8
BLACK
6
CONTINUOUS
10
-4.3259708267716537
20
5.7925407874015749
11
-4.3317219685039365
21
5.7949229921259837
0
LINE
8
BLACK
6
CONTINUOUS
10
-4.3317219685039365
20
5.7949229921259837
11
-4.3378937007874017
21
5.7957355118110234
0
LINE
8
BLACK
6
CONTINUOUS
10
-4.3378937007874017
20
5.7957355118110234
11
-4.3440654330708659
21
5.7949229921259837
0
LINE
8
BLACK
6
CONTINUOUS
10
-4.3440654330708659
20
5.7949229921259837
11
-4.3498165748031496
21
5.7925407874015749
0
LINE
8
BLACK
6
CONTINUOUS
10
-4.3498165748031496
20
5.7925407874015749
11
-4.3508043307086615
21
5.7917828740157482
0
LINE
8
BLACK
6
CONTINUOUS
10
-4.3508043307086615
20
5.7917828740157482
11
-4.3547550393700787
21
5.7887514173228345
0
LINE
8
BLACK
6
CONTINUOUS
10
-4.3547550393700787
20
5.7887514173228345
11
-4.3548900393700789
21
5.7886163779527555
0
LINE
8
BLACK
6
CONTINUOUS
10
-4.3548900393700789
20
5.7886163779527555
11
-4.3549343307086614
21
5.7886606299212593
0
LINE
8
BLACK
6
CONTINUOUS
10
-4.3549343307086614
20
5.7886606299212593
11
-4.3564006692913386
21
5.7877265354330705
0
LINE
8
BLACK
6
CONTINUOUS
10
-4.3564006692913386
20
5.7877265354330705
11
-4.3570311811023625
21
5.7876574803149605
0
LINE
8
BLACK
6
CONTINUOUS
10
-4.3570311811023625
20
5.7876574803149605
11
-4.4872602362204725
21
5.7876574803149605
0
LINE
8
BLACK
6
CONTINUOUS
10
-4.4872602362204725
20
5.7876574803149605
11
-4.4891329133858271
21
5.7883390944881885
0
LINE
8
BLACK
6
CONTINUOUS
10
-4.4891329133858271
20
5.7883390944881885
11
-4.4893205905511806
21
5.7885110629921259
0
LINE
8
BLACK
6
CONTINUOUS
10
-4.4893205905511806
20
5.7885110629921259
11
-4.4893244488188975
21
5.7885149212598428
0
LINE
8
BLACK
6
CONTINUOUS
10
-4.4893244488188975
20
5.7885149212598428
11
-4.489324527559055
21
5.7885150393700791
0
LINE
8
BLACK
6
CONTINUOUS
10
-4.489324527559055
20
5.7885150393700791
11
-4.4893247244094487
21
5.7885151574803144
0
LINE
8
BLACK
6
CONTINUOUS
10
-4.4893247244094487
20
5.7885151574803144
11
-4.4893248031496062
21
5.7885152755905507
0
LINE
8
BLACK
6
CONTINUOUS
10
-4.4893248031496062
20
5.7885152755905507
11
-4.4912311417322837
21
5.7899779921259844
0
LINE
8
BLACK
6
CONTINUOUS
10
-4.4912311417322837
20
5.7899779921259844
11
-4.494263149606299
21
5.7923045669291335
0
LINE
8
BLACK
6
CONTINUOUS
10
-4.494263149606299
20
5.7923045669291335
11
-4.5000142913385828
21
5.7946867716535433
0
LINE
8
BLACK
6
CONTINUOUS
10
-4.5000142913385828
20
5.7946867716535433
11
-4.506186023622047
21
5.7954992913385821
0
LINE
8
BLACK
6
CONTINUOUS
10
-4.506186023622047
20
5.7954992913385821
11
-4.5123577559055121
21
5.7946867716535433
0
LINE
8
BLACK
6
CONTINUOUS
10
-4.5123577559055121
20
5.7946867716535433
11
-4.518108897637795
21
5.7923045669291335
0
LINE
8
BLACK
6
CONTINUOUS
10
-4.518108897637795
20
5.7923045669291335
11
-4.5195439763779524
21
5.7912033858267717
0
LINE
8
BLACK
6
CONTINUOUS
10
-4.5195439763779524
20
5.7912033858267717
11
-4.5230474409448815
21
5.7885151181102357
0
LINE
8
BLACK
6
CONTINUOUS
10
-4.5230474409448815
20
5.7885151181102357
11
-4.5230476377952753
21
5.7885149212598428
0
LINE
8
BLACK
6
CONTINUOUS
10
-4.5230476377952753
20
5.7885149212598428
11
-4.5268370472440944
21
5.7835764173228341
0
LINE
8
BLACK
6
CONTINUOUS
10
-4.5268370472440944
20
5.7835764173228341
11
-4.5292192913385829
21
5.7778252362204725
0
LINE
8
BLACK
6
CONTINUOUS
10
-4.5292192913385829
20
5.7778252362204725
11
-4.5292192913385829
21
5.7778251968503938
0
LINE
8
BLACK
6
CONTINUOUS
10
-4.5292192913385829
20
5.7778251968503938
11
-4.530031771653543
21
5.7716535433070861
0
LINE
8
BLACK
6
CONTINUOUS
10
-4.530031771653543
20
5.7716535433070861
11
-4.5292192913385829
21
5.7654818503937006
0
LINE
8
BLACK
6
CONTINUOUS
10
-4.8805129921259844
20
5.8183200393700787
11
-4.8826465748031493
21
5.8151268897637793
0
LINE
8
BLACK
6
CONTINUOUS
10
-4.8826465748031493
20
5.8151268897637793
11
-4.8858397244094487
21
5.8129933070866144
0
LINE
8
BLACK
6
CONTINUOUS
10
-4.8858397244094487
20
5.8129933070866144
11
-4.8896062992125984
21
5.8122440944881886
0
LINE
8
BLACK
6
CONTINUOUS
10
-4.8896062992125984
20
5.8122440944881886
11
-4.9229133858267717
21
5.8122440944881886
0
LINE
8
BLACK
6
CONTINUOUS
10
-4.9229133858267717
20
5.8122440944881886
11
-4.9229133858267717
21
5.792244094488189
0
LINE
8
BLACK
6
CONTINUOUS
10
-4.9229133858267717
20
5.792244094488189
11
-4.8876179527559058
21
5.792244094488189
0
LINE
8
BLACK
6
CONTINUOUS
10
-4.8876179527559058
20
5.792244094488189
11
-4.8835305118110233
21
5.7926616535433073
0
LINE
8
BLACK
6
CONTINUOUS
10
-4.8835305118110233
20
5.7926616535433073
11
-4.8769085039370079
21
5.794855984251968
0
LINE
8
BLACK
6
CONTINUOUS
10
-4.8769085039370079
20
5.794855984251968
11
-4.8709709448818899
21
5.7985183070866144
0
LINE
8
BLACK
6
CONTINUOUS
10
-4.8709709448818899
20
5.7985183070866144
11
-4.8709707874015749
21
5.7985184251968507
0
LINE
8
BLACK
6
CONTINUOUS
10
-4.8709707874015749
20
5.7985184251968507
11
-4.8660381102362207
21
5.8034511023622048
0
LINE
8
BLACK
6
CONTINUOUS
10
-4.8660381102362207
20
5.8034511023622048
11
-4.8660380314960632
21
5.8034512204724411
0
LINE
8
BLACK
6
CONTINUOUS
10
-4.8660380314960632
20
5.8034512204724411
11
-4.8623757086614168
21
5.8093887795275592
0
LINE
8
BLACK
6
CONTINUOUS
10
-4.8623757086614168
20
5.8093887795275592
11
-4.8601813779527561
21
5.8160107874015745
0
LINE
8
BLACK
6
CONTINUOUS
10
-4.8601813779527561
20
5.8160107874015745
11
-4.8597638188976378
21
5.8200982283464562
0
LINE
8
BLACK
6
CONTINUOUS
10
-4.8597638188976378
20
5.8200982283464562
11
-4.859763779527559
21
5.8200983070866137
0
LINE
8
BLACK
6
CONTINUOUS
10
-4.859763779527559
20
5.8200983070866137
11
-4.859763779527559
21
5.8219291338582675
0
LINE
8
BLACK
6
CONTINUOUS
10
-4.859763779527559
20
5.8219291338582675
11
-4.8797951181102359
21
5.8219291338582675
0
LINE
8
BLACK
6
CONTINUOUS
10
-4.8797951181102359
20
5.8219291338582675
11
-4.8805129921259844
21
5.8183200393700787
0
LINE
8
BLACK
6
CONTINUOUS
10
-4.9229133858267717
20
5.851614173228346
11
-4.8896062992125984
21
5.851614173228346
0
LINE
8
BLACK
6
CONTINUOUS
10
-4.8896062992125984
20
5.851614173228346
11
-4.8858397244094487
21
5.850864960629921
0
LINE
8
BLACK
6
CONTINUOUS
10
-4.8858397244094487
20
5.850864960629921
11
-4.8826465748031493
21
5.8487313779527561
0
LINE
8
BLACK
6
CONTINUOUS
10
-4.8826465748031493
20
5.8487313779527561
11
-4.8805129921259844
21
5.8455382283464568
0
LINE
8
BLACK
6
CONTINUOUS
10
-4.8805129921259844
20
5.8455382283464568
11
-4.8797951181102359
21
5.841929133858268
0
LINE
8
BLACK
6
CONTINUOUS
10
-4.8797951181102359
20
5.841929133858268
11
-4.859763779527559
21
5.841929133858268
0
LINE
8
BLACK
6
CONTINUOUS
10
-4.859763779527559
20
5.841929133858268
11
-4.859763779527559
21
5.8437599212598421
0
LINE
8
BLACK
6
CONTINUOUS
10
-4.859763779527559
20
5.8437599212598421
11
-4.8597638188976378
21
5.8437599999999996
0
LINE
8
BLACK
6
CONTINUOUS
10
-4.8597638188976378
20
5.8437599999999996
11
-4.8601813779527561
21
5.8478474409448822
0
LINE
8
BLACK
6
CONTINUOUS
10
-4.8601813779527561
20
5.8478474409448822
11
-4.8623757086614168
21
5.8544694488188975
0
LINE
8
BLACK
6
CONTINUOUS
10
-4.8623757086614168
20
5.8544694488188975
11
-4.8660380314960632
21
5.8604070078740156
0
LINE
8
BLACK
6
CONTINUOUS
10
-4.8660380314960632
20
5.8604070078740156
11
-4.8660381102362207
21
5.8604071653543306
0
LINE
8
BLACK
6
CONTINUOUS
10
-4.8660381102362207
20
5.8604071653543306
11
-4.8709707874015749
21
5.8653398425196848
0
LINE
8
BLACK
6
CONTINUOUS
10
-4.8709707874015749
20
5.8653398425196848
11
-4.8709709448818899
21
5.8653399212598423
0
LINE
8
BLACK
6
CONTINUOUS
10
-4.8709709448818899
20
5.8653399212598423
11
-4.8769085039370079
21
5.8690022440944878
0
LINE
8
BLACK
6
CONTINUOUS
10
-4.8769085039370079
20
5.8690022440944878
11
-4.8835305118110233
21
5.8711965748031494
0
LINE
8
BLACK
6
CONTINUOUS
10
-4.8835305118110233
20
5.8711965748031494
11
-4.8876179527559058
21
5.8716141338582677
0
LINE
8
BLACK
6
CONTINUOUS
10
-4.8876179527559058
20
5.8716141338582677
11
-4.8876180314960624
21
5.8716141732283464
0
LINE
8
BLACK
6
CONTINUOUS
10
-4.8876180314960624
20
5.8716141732283464
11
-4.9229133858267717
21
5.8716141732283464
0
LINE
8
BLACK
6
CONTINUOUS
10
-4.9229133858267717
20
5.8716141732283464
11
-4.9229133858267717
21
5.851614173228346
0
LINE
8
BLACK
6
CONTINUOUS
10
-4.1159529133858266
20
5.841929133858268
11
-4.115235039370079
21
5.8455382283464568
0
LINE
8
BLACK
6
CONTINUOUS
10
-4.115235039370079
20
5.8455382283464568
11
-4.1131014566929132
21
5.8487313779527561
0
LINE
8
BLACK
6
CONTINUOUS
10
-4.1131014566929132
20
5.8487313779527561
11
-4.1099083070866138
21
5.850864960629921
0
LINE
8
BLACK
6
CONTINUOUS
10
-4.1099083070866138
20
5.850864960629921
11
-4.1061417322834641
21
5.851614173228346
0
LINE
8
BLACK
6
CONTINUOUS
10
-4.1061417322834641
20
5.851614173228346
11
-4.0728346456692917
21
5.851614173228346
0
LINE
8
BLACK
6
CONTINUOUS
10
-4.0728346456692917
20
5.851614173228346
11
-4.0728346456692917
21
5.8716141732283464
0
LINE
8
BLACK
6
CONTINUOUS
10
-4.0728346456692917
20
5.8716141732283464
11
-4.1081300000000001
21
5.8716141732283464
0
LINE
8
BLACK
6
CONTINUOUS
10
-4.1081300000000001
20
5.8716141732283464
11
-4.1081301181102363
21
5.8716141338582677
0
LINE
8
BLACK
6
CONTINUOUS
10
-4.1081301181102363
20
5.8716141338582677
11
-4.112217559055118
21
5.8711965748031494
0
LINE
8
BLACK
6
CONTINUOUS
10
-4.112217559055118
20
5.8711965748031494
11
-4.1188395669291333
21
5.8690022440944878
0
LINE
8
BLACK
6
CONTINUOUS
10
-4.1188395669291333
20
5.8690022440944878
11
-4.1247771259842523
21
5.8653399212598423
0
LINE
8
BLACK
6
CONTINUOUS
10
-4.1247771259842523
20
5.8653399212598423
11
-4.1247772440944885
21
5.8653398425196848
0
LINE
8
BLACK
6
CONTINUOUS
10
-4.1247772440944885
20
5.8653398425196848
11
-4.1297099212598427
21
5.8604071653543306
0
LINE
8
BLACK
6
CONTINUOUS
10
-4.1297099212598427
20
5.8604071653543306
11
-4.129710039370079
21
5.8604070078740156
0
LINE
8
BLACK
6
CONTINUOUS
10
-4.129710039370079
20
5.8604070078740156
11
-4.1333723622047245
21
5.8544694488188975
0
LINE
8
BLACK
6
CONTINUOUS
10
-4.1333723622047245
20
5.8544694488188975
11
-4.1355666929133861
21
5.8478474409448822
0
LINE
8
BLACK
6
CONTINUOUS
10
-4.1355666929133861
20
5.8478474409448822
11
-4.1359842519685035
21
5.8437599999999996
0
LINE
8
BLACK
6
CONTINUOUS
10
-4.1359842519685035
20
5.8437599999999996
11
-4.1359842519685035
21
5.841929133858268
0
LINE
8
BLACK
6
CONTINUOUS
10
-4.1359842519685035
20
5.841929133858268
11
-4.1159529133858266
21
5.841929133858268
0
CIRCLE
8
BLACK
10
-4.8915748031496058
20
5.3899999999999997
40
0.0068897637795276
0
CIRCLE
8
BLACK
10
-4.8915748031496058
20
5.9805511811023617
40
0.0068897637795276
0
CIRCLE
8
BLACK
10
-4.1041732283464567
20
5.9805511811023617
40
0.0068897637795276
0
CIRCLE
8
BLACK
10
-4.4978740157480317
20
5.9805511811023617
40
0.0068897637795276
0
CIRCLE
8
BLACK
10
-4.1041732283464567
20
5.3899999999999997
40
0.0068897637795276
0
CIRCLE
8
BLACK
10
-4.4978740157480317
20
5.3899999999999997
40
0.0068897637795276
0
CIRCLE
8
BLACK
10
-4.0800000000000001
20
5.4699999999999998
40
0.0078740157480315
0
CIRCLE
8
BLACK
10
-4.8700000000000001
20
5.4699999999999998
40
0.0078740157480315
0
CIRCLE
8
BLACK
10
-4.0800000000000001
20
5.8999999999999995
40
0.0078740157480315
0
CIRCLE
8
BLACK
10
-4.165
20
5.4950000000000001
40
0.0078740157480315
0
CIRCLE
8
BLACK
10
-4.8099999999999996
20
5.9349999999999996
40
0.0078740157480315
0
CIRCLE
8
BLACK
10
-4.8149999999999995
20
5.4649999999999999
40
0.0078740157480315
0
CIRCLE
8
BLACK
10
-4.7450000000000001
20
5.5599999999999996
40
0.0078740157480315
0
CIRCLE
8
BLACK
10
-4.3200000000000003
20
5.808523622047244
40
0.0078740157480315
0
CIRCLE
8
BLACK
10
-4.8049999999999997
20
5.835
40
0.0078740157480315
0
CIRCLE
8
BLACK
10
-4.0449999999999999
20
5.6499999999999995
40
0.0078740157480315
0
CIRCLE
8
BLACK
10
-4.2149999999999999
20
5.5499999999999998
40
0.0078740157480315
0
CIRCLE
8
BLACK
10
-4.7450000000000001
20
5.835
40
0.0078740157480315
0
CIRCLE
8
BLACK
10
-4.0449999999999999
20
5.7699999999999996
40
0.0078740157480315
0
CIRCLE
8
BLACK
10
-4.6661024409448819
20
5.7249999999999996
40
0.0078740157480315
0
CIRCLE
8
BLACK
10
-4.9500000000000002
20
5.4699999999999998
40
0.0078740157480315
0
CIRCLE
8
BLACK
10
-4.8099999999999996
20
5.8949999999999996
40
0.0078740157480315
0
CIRCLE
8
BLACK
10
-4.2149999999999999
20
5.4450000000000003
40
0.0078740157480315
0
CIRCLE
8
BLACK
10
-4.8099999999999996
20
5.54
40
0.0078740157480315
0
CIRCLE
8
BLACK
10
-4.9500000000000002
20
5.9199999999999999
40
0.0078740157480315
0
CIRCLE
8
BLACK
10
-4.0449999999999999
20
5.6099999999999994
40
0.0078740157480315
0
CIRCLE
8
BLACK
10
-4.165
20
5.5499999999999998
40
0.0078740157480315
0
CIRCLE
8
BLACK
10
-4.04
20
5.8999999999999995
40
0.0078740157480315
0
CIRCLE
8
BLACK
10
-4.04
20
5.4699999999999998
40
0.0078740157480315
0
CIRCLE
8
BLACK
10
-4.9500000000000002
20
5.6899999999999995
40
0.0078740157480315
0
CIRCLE
8
BLACK
10
-4.2149999999999999
20
5.4950000000000001
40
0.0078740157480315
0
CIRCLE
8
BLACK
10
-4.1899999999999995
20
5.9249999999999998
40
0.0078740157480315
0
CIRCLE
8
BLACK
10
-4.2400000000000002
20
5.9249999999999998
40
0.0078740157480315
0
CIRCLE
8
BLACK
10
-4.9405365748031498
20
5.7526341338582672
40
0.0078740157480315
0
CIRCLE
8
BLACK
10
-4.9500000000000002
20
5.6049999999999995
40
0.0078740157480315
0
CIRCLE
8
BLACK
10
-4.0449999999999999
20
5.7299999999999995
40
0.0078740157480315
0
CIRCLE
8
BLACK
10
-4.4699999999999998
20
5.5350000000000001
40
0.0078740157480315
0
CIRCLE
8
BLACK
10
-4.6550000000000002
20
5.6291929133858263
40
0.0078740157480315
0
CIRCLE
8
BLACK
10
-4.0449999999999999
20
5.6899999999999995
40
0.0078740157480315
0
CIRCLE
8
BLACK
10
-4.3378937007874017
20
5.7718897637795274
40
0.0078740157480315
0
CIRCLE
8
BLACK
10
-4.506186023622047
20
5.7716535433070861
40
0.0078740157480315
0
CIRCLE
8
BLACK
10
-4.7350000000000003
20
5.7599999999999998
40
0.0078740157480315
0
CIRCLE
8
BLACK
10
-4.4799999999999995
20
5.8399999999999999
40
0.0078740157480315
0
CIRCLE
8
BLACK
10
-4.1899999999999995
20
5.7999999999999998
40
0.0078740157480315
0
CIRCLE
8
BLACK
10
-4.8650000000000002
20
5.6150000000000002
40
0.0078740157480315
0
CIRCLE
8
BLACK
10
-4.875
20
5.6600000000000001
40
0.0078740157480315
0
CIRCLE
8
BLACK
10
-4.4698993307086612
20
5.660384960629921
40
0.0078740157480315
0
CIRCLE
8
BLACK
10
-4.7398818897637796
20
5.7098818897637793
40
0.0078740157480315
0
CIRCLE
8
BLACK
10
-4.4249999999999998
20
5.6600000000000001
40
0.0078740157480315
0
CIRCLE
8
BLACK
10
-4.3650000000000002
20
5.6600000000000001
40
0.0078740157480315
0
CIRCLE
8
BLACK
10
-4.2556692913385827
20
5.660669291338583
40
0.0078740157480315
0
CIRCLE
8
BLACK
10
-4.3939748425196852
20
5.7095498425196851
40
0.0078740157480315
0
CIRCLE
8
BLACK
10
-4.131751968503937
20
5.6624329921259839
40
0.0078740157480315
  0
ENDSEC
  0
EOF
