  0
SECTION
  2
HEADER
  9
$ANGBASE
  50
0.0
  9
$ANGDIR
  70
1
  9
$MEASUREMENT
  70
0
  0
ENDSEC
  0
SECTION
  2
TABLES
  0
TABLE
  2
LTYPE
  70
4
  0
LTYPE
  5
40F
  2
CONTINUOUS
  70
0
  3
Solid line
  72
65
  73
0
  40
0.0
  0
LTYPE
  5
410
  2
DASHDOT
 70
0
  3
Dash Dot ____ _ ____ _
 72
65
 73
4
 40
2.0
 49
1.25
 49
-0.25
 49
0.25
 49
-0.25
  0
LTYPE
  5
411
  2
DASHED
 70
0
  3
Dashed __ __ __ __ __
 72
65
 73
2
 40
0.75
 49
0.5
 49
-0.25
  0
LTYPE
  5
43B
  2
DOTTED
 70
0
  3
Dotted .  .  .  .
 72
65
 73
2
 40
0.2
 49
0.0
 49
-0.2
  0
ENDTAB
  0
TABLE
  2
STYLE
  70
4
  0
STYLE
  2
KICAD
  70
0
  40
0
  41
1
  42
1
  50
0
  71
0
  3
isocp.shx
  0
STYLE
  2
KICADB
  70
0
  40
0
  41
1
  42
1
  50
0
  71
0
  3
isocp.shx
  0
STYLE
  2
KICADI
  70
0
  40
0
  41
1
  42
1
  50
15
  71
0
  3
isocp.shx
  0
STYLE
  2
KICADBI
  70
0
  40
0
  41
1
  42
1
  50
15
  71
0
  3
isocp.shx
  0
ENDTAB
  0
TABLE
  2
LAYER
  70
1
  0
LAYER
  2
BLACK
  70
0
  62
7
  6
CONTINUOUS
  0
ENDTAB
  0
ENDSEC
  0
SECTION
  2
ENTITIES
0
LINE
8
BLACK
6
CONTINUOUS
10
-4.8770776377952751
20
5.4472480314960627
11
-4.8678526377952753
21
5.4440811023622047
0
LINE
8
BLACK
6
CONTINUOUS
10
-4.8678526377952753
20
5.4440811023622047
11
-4.859274724409449
21
5.4394389763779527
0
LINE
8
BLACK
6
CONTINUOUS
10
-4.859274724409449
20
5.4394389763779527
11
-4.8515778740157476
21
5.4334482677165354
0
LINE
8
BLACK
6
CONTINUOUS
10
-4.8515778740157476
20
5.4334482677165354
11
-4.8449720078740155
21
5.4262724015748027
0
LINE
8
BLACK
6
CONTINUOUS
10
-4.8449720078740155
20
5.4262724015748027
11
-4.8396373622047246
21
5.4181071259842515
0
LINE
8
BLACK
6
CONTINUOUS
10
-4.8396373622047246
20
5.4181071259842515
11
-4.8357194488188977
21
5.4091751574803144
0
LINE
8
BLACK
6
CONTINUOUS
10
-4.8357194488188977
20
5.4091751574803144
11
-4.8333251181102357
21
5.3997201574803144
0
LINE
8
BLACK
6
CONTINUOUS
10
-4.8333251181102357
20
5.3997201574803144
11
-4.8325196850393697
21
5.3899999999999997
0
LINE
8
BLACK
6
CONTINUOUS
10
-4.8325196850393697
20
5.3899999999999997
11
-4.8333251181102357
21
5.3802798425196849
0
LINE
8
BLACK
6
CONTINUOUS
10
-4.8333251181102357
20
5.3802798425196849
11
-4.8357194488188977
21
5.3708248425196849
0
LINE
8
BLACK
6
CONTINUOUS
10
-4.8357194488188977
20
5.3708248425196849
11
-4.8396373622047246
21
5.3618928740157479
0
LINE
8
BLACK
6
CONTINUOUS
10
-4.8396373622047246
20
5.3618928740157479
11
-4.8449720078740155
21
5.3537275984251966
0
LINE
8
BLACK
6
CONTINUOUS
10
-4.8449720078740155
20
5.3537275984251966
11
-4.8515778740157476
21
5.3465517322834648
0
LINE
8
BLACK
6
CONTINUOUS
10
-4.8515778740157476
20
5.3465517322834648
11
-4.859274724409449
21
5.3405610236220475
0
LINE
8
BLACK
6
CONTINUOUS
10
-4.859274724409449
20
5.3405610236220475
11
-4.8678526377952753
21
5.3359188976377956
0
LINE
8
BLACK
6
CONTINUOUS
10
-4.8678526377952753
20
5.3359188976377956
11
-4.8770776377952751
21
5.3327519685039366
0
LINE
8
BLACK
6
CONTINUOUS
10
-4.8770776377952751
20
5.3327519685039366
11
-4.8866980708661414
21
5.3311465748031495
0
LINE
8
BLACK
6
CONTINUOUS
10
-4.8866980708661414
20
5.3311465748031495
11
-4.8964515354330711
21
5.3311465748031495
0
LINE
8
BLACK
6
CONTINUOUS
10
-4.8964515354330711
20
5.3311465748031495
11
-4.9060719685039365
21
5.3327519685039366
0
LINE
8
BLACK
6
CONTINUOUS
10
-4.9060719685039365
20
5.3327519685039366
11
-4.9152969685039372
21
5.3359188976377956
0
LINE
8
BLACK
6
CONTINUOUS
10
-4.9152969685039372
20
5.3359188976377956
11
-4.9238748818897635
21
5.3405610236220475
0
LINE
8
BLACK
6
CONTINUOUS
10
-4.9238748818897635
20
5.3405610236220475
11
-4.931571732283464
21
5.3465517322834648
0
LINE
8
BLACK
6
CONTINUOUS
10
-4.931571732283464
20
5.3465517322834648
11
-4.938177598425197
21
5.3537275984251966
0
LINE
8
BLACK
6
CONTINUOUS
10
-4.938177598425197
20
5.3537275984251966
11
-4.9435122440944879
21
5.3618928740157479
0
LINE
8
BLACK
6
CONTINUOUS
10
-4.9435122440944879
20
5.3618928740157479
11
-4.9474301574803148
21
5.3708248425196849
0
LINE
8
BLACK
6
CONTINUOUS
10
-4.9474301574803148
20
5.3708248425196849
11
-4.9498244881889759
21
5.3802798425196849
0
LINE
8
BLACK
6
CONTINUOUS
10
-4.9498244881889759
20
5.3802798425196849
11
-4.9506299212598428
21
5.3899999999999997
0
LINE
8
BLACK
6
CONTINUOUS
10
-4.9506299212598428
20
5.3899999999999997
11
-4.9498244881889759
21
5.3997201574803144
0
LINE
8
BLACK
6
CONTINUOUS
10
-4.9498244881889759
20
5.3997201574803144
11
-4.9474301574803148
21
5.4091751574803144
0
LINE
8
BLACK
6
CONTINUOUS
10
-4.9474301574803148
20
5.4091751574803144
11
-4.9435122440944879
21
5.4181071259842515
0
LINE
8
BLACK
6
CONTINUOUS
10
-4.9435122440944879
20
5.4181071259842515
11
-4.938177598425197
21
5.4262724015748027
0
LINE
8
BLACK
6
CONTINUOUS
10
-4.938177598425197
20
5.4262724015748027
11
-4.931571732283464
21
5.4334482677165354
0
LINE
8
BLACK
6
CONTINUOUS
10
-4.931571732283464
20
5.4334482677165354
11
-4.9238748818897635
21
5.4394389763779527
0
LINE
8
BLACK
6
CONTINUOUS
10
-4.9238748818897635
20
5.4394389763779527
11
-4.9152969685039372
21
5.4440811023622047
0
LINE
8
BLACK
6
CONTINUOUS
10
-4.9152969685039372
20
5.4440811023622047
11
-4.9060719685039365
21
5.4472480314960627
0
LINE
8
BLACK
6
CONTINUOUS
10
-4.9060719685039365
20
5.4472480314960627
11
-4.8964515354330711
21
5.4488534251968499
0
LINE
8
BLACK
6
CONTINUOUS
10
-4.8964515354330711
20
5.4488534251968499
11
-4.8866980708661414
21
5.4488534251968499
0
LINE
8
BLACK
6
CONTINUOUS
10
-4.8866980708661414
20
5.4488534251968499
11
-4.8770776377952751
21
5.4472480314960627
0
LINE
8
BLACK
6
CONTINUOUS
10
-4.483376850393701
20
5.4472480314960627
11
-4.4741518503937003
21
5.4440811023622047
0
LINE
8
BLACK
6
CONTINUOUS
10
-4.4741518503937003
20
5.4440811023622047
11
-4.465573937007874
21
5.4394389763779527
0
LINE
8
BLACK
6
CONTINUOUS
10
-4.465573937007874
20
5.4394389763779527
11
-4.4578770866141735
21
5.4334482677165354
0
LINE
8
BLACK
6
CONTINUOUS
10
-4.4578770866141735
20
5.4334482677165354
11
-4.4512712204724405
21
5.4262724015748027
0
LINE
8
BLACK
6
CONTINUOUS
10
-4.4512712204724405
20
5.4262724015748027
11
-4.4459365748031496
21
5.4181071259842515
0
LINE
8
BLACK
6
CONTINUOUS
10
-4.4459365748031496
20
5.4181071259842515
11
-4.4420186614173227
21
5.4091751574803144
0
LINE
8
BLACK
6
CONTINUOUS
10
-4.4420186614173227
20
5.4091751574803144
11
-4.4396243307086616
21
5.3997201574803144
0
LINE
8
BLACK
6
CONTINUOUS
10
-4.4396243307086616
20
5.3997201574803144
11
-4.4388188976377956
21
5.3899999999999997
0
LINE
8
BLACK
6
CONTINUOUS
10
-4.4388188976377956
20
5.3899999999999997
11
-4.4396243307086616
21
5.3802798425196849
0
LINE
8
BLACK
6
CONTINUOUS
10
-4.4396243307086616
20
5.3802798425196849
11
-4.4420186614173227
21
5.3708248425196849
0
LINE
8
BLACK
6
CONTINUOUS
10
-4.4420186614173227
20
5.3708248425196849
11
-4.4459365748031496
21
5.3618928740157479
0
LINE
8
BLACK
6
CONTINUOUS
10
-4.4459365748031496
20
5.3618928740157479
11
-4.4512712204724405
21
5.3537275984251966
0
LINE
8
BLACK
6
CONTINUOUS
10
-4.4512712204724405
20
5.3537275984251966
11
-4.4578770866141735
21
5.3465517322834648
0
LINE
8
BLACK
6
CONTINUOUS
10
-4.4578770866141735
20
5.3465517322834648
11
-4.465573937007874
21
5.3405610236220475
0
LINE
8
BLACK
6
CONTINUOUS
10
-4.465573937007874
20
5.3405610236220475
11
-4.4741518503937003
21
5.3359188976377956
0
LINE
8
BLACK
6
CONTINUOUS
10
-4.4741518503937003
20
5.3359188976377956
11
-4.483376850393701
21
5.3327519685039366
0
LINE
8
BLACK
6
CONTINUOUS
10
-4.483376850393701
20
5.3327519685039366
11
-4.4929972834645664
21
5.3311465748031495
0
LINE
8
BLACK
6
CONTINUOUS
10
-4.4929972834645664
20
5.3311465748031495
11
-4.5027507480314961
21
5.3311465748031495
0
LINE
8
BLACK
6
CONTINUOUS
10
-4.5027507480314961
20
5.3311465748031495
11
-4.5123711811023623
21
5.3327519685039366
0
LINE
8
BLACK
6
CONTINUOUS
10
-4.5123711811023623
20
5.3327519685039366
11
-4.5215961811023622
21
5.3359188976377956
0
LINE
8
BLACK
6
CONTINUOUS
10
-4.5215961811023622
20
5.3359188976377956
11
-4.5301740944881885
21
5.3405610236220475
0
LINE
8
BLACK
6
CONTINUOUS
10
-4.5301740944881885
20
5.3405610236220475
11
-4.5378709448818899
21
5.3465517322834648
0
LINE
8
BLACK
6
CONTINUOUS
10
-4.5378709448818899
20
5.3465517322834648
11
-4.544476811023622
21
5.3537275984251966
0
LINE
8
BLACK
6
CONTINUOUS
10
-4.544476811023622
20
5.3537275984251966
11
-4.5498114566929129
21
5.3618928740157479
0
LINE
8
BLACK
6
CONTINUOUS
10
-4.5498114566929129
20
5.3618928740157479
11
-4.5537293700787398
21
5.3708248425196849
0
LINE
8
BLACK
6
CONTINUOUS
10
-4.5537293700787398
20
5.3708248425196849
11
-4.5561237007874018
21
5.3802798425196849
0
LINE
8
BLACK
6
CONTINUOUS
10
-4.5561237007874018
20
5.3802798425196849
11
-4.5569291338582678
21
5.3899999999999997
0
LINE
8
BLACK
6
CONTINUOUS
10
-4.5569291338582678
20
5.3899999999999997
11
-4.5561237007874018
21
5.3997201574803144
0
LINE
8
BLACK
6
CONTINUOUS
10
-4.5561237007874018
20
5.3997201574803144
11
-4.5537293700787398
21
5.4091751574803144
0
LINE
8
BLACK
6
CONTINUOUS
10
-4.5537293700787398
20
5.4091751574803144
11
-4.5498114566929129
21
5.4181071259842515
0
LINE
8
BLACK
6
CONTINUOUS
10
-4.5498114566929129
20
5.4181071259842515
11
-4.544476811023622
21
5.4262724015748027
0
LINE
8
BLACK
6
CONTINUOUS
10
-4.544476811023622
20
5.4262724015748027
11
-4.5378709448818899
21
5.4334482677165354
0
LINE
8
BLACK
6
CONTINUOUS
10
-4.5378709448818899
20
5.4334482677165354
11
-4.5301740944881885
21
5.4394389763779527
0
LINE
8
BLACK
6
CONTINUOUS
10
-4.5301740944881885
20
5.4394389763779527
11
-4.5215961811023622
21
5.4440811023622047
0
LINE
8
BLACK
6
CONTINUOUS
10
-4.5215961811023622
20
5.4440811023622047
11
-4.5123711811023623
21
5.4472480314960627
0
LINE
8
BLACK
6
CONTINUOUS
10
-4.5123711811023623
20
5.4472480314960627
11
-4.5027507480314961
21
5.4488534251968499
0
LINE
8
BLACK
6
CONTINUOUS
10
-4.5027507480314961
20
5.4488534251968499
11
-4.4929972834645664
21
5.4488534251968499
0
LINE
8
BLACK
6
CONTINUOUS
10
-4.4929972834645664
20
5.4488534251968499
11
-4.483376850393701
21
5.4472480314960627
0
LINE
8
BLACK
6
CONTINUOUS
10
-4.089676062992126
20
5.4472480314960627
11
-4.0804510629921262
21
5.4440811023622047
0
LINE
8
BLACK
6
CONTINUOUS
10
-4.0804510629921262
20
5.4440811023622047
11
-4.071873149606299
21
5.4394389763779527
0
LINE
8
BLACK
6
CONTINUOUS
10
-4.071873149606299
20
5.4394389763779527
11
-4.0641762992125985
21
5.4334482677165354
0
LINE
8
BLACK
6
CONTINUOUS
10
-4.0641762992125985
20
5.4334482677165354
11
-4.0575704330708664
21
5.4262724015748027
0
LINE
8
BLACK
6
CONTINUOUS
10
-4.0575704330708664
20
5.4262724015748027
11
-4.0522357874015746
21
5.4181071259842515
0
LINE
8
BLACK
6
CONTINUOUS
10
-4.0522357874015746
20
5.4181071259842515
11
-4.0483178740157477
21
5.4091751574803144
0
LINE
8
BLACK
6
CONTINUOUS
10
-4.0483178740157477
20
5.4091751574803144
11
-4.0459235433070866
21
5.3997201574803144
0
LINE
8
BLACK
6
CONTINUOUS
10
-4.0459235433070866
20
5.3997201574803144
11
-4.0451181102362206
21
5.3899999999999997
0
LINE
8
BLACK
6
CONTINUOUS
10
-4.0451181102362206
20
5.3899999999999997
11
-4.0459235433070866
21
5.3802798425196849
0
LINE
8
BLACK
6
CONTINUOUS
10
-4.0459235433070866
20
5.3802798425196849
11
-4.0483178740157477
21
5.3708248425196849
0
LINE
8
BLACK
6
CONTINUOUS
10
-4.0483178740157477
20
5.3708248425196849
11
-4.0522357874015746
21
5.3618928740157479
0
LINE
8
BLACK
6
CONTINUOUS
10
-4.0522357874015746
20
5.3618928740157479
11
-4.0575704330708664
21
5.3537275984251966
0
LINE
8
BLACK
6
CONTINUOUS
10
-4.0575704330708664
20
5.3537275984251966
11
-4.0641762992125985
21
5.3465517322834648
0
LINE
8
BLACK
6
CONTINUOUS
10
-4.0641762992125985
20
5.3465517322834648
11
-4.071873149606299
21
5.3405610236220475
0
LINE
8
BLACK
6
CONTINUOUS
10
-4.071873149606299
20
5.3405610236220475
11
-4.0804510629921262
21
5.3359188976377956
0
LINE
8
BLACK
6
CONTINUOUS
10
-4.0804510629921262
20
5.3359188976377956
11
-4.089676062992126
21
5.3327519685039366
0
LINE
8
BLACK
6
CONTINUOUS
10
-4.089676062992126
20
5.3327519685039366
11
-4.0992964960629923
21
5.3311465748031495
0
LINE
8
BLACK
6
CONTINUOUS
10
-4.0992964960629923
20
5.3311465748031495
11
-4.1090499606299211
21
5.3311465748031495
0
LINE
8
BLACK
6
CONTINUOUS
10
-4.1090499606299211
20
5.3311465748031495
11
-4.1186703937007874
21
5.3327519685039366
0
LINE
8
BLACK
6
CONTINUOUS
10
-4.1186703937007874
20
5.3327519685039366
11
-4.1278953937007872
21
5.3359188976377956
0
LINE
8
BLACK
6
CONTINUOUS
10
-4.1278953937007872
20
5.3359188976377956
11
-4.1364733070866144
21
5.3405610236220475
0
LINE
8
BLACK
6
CONTINUOUS
10
-4.1364733070866144
20
5.3405610236220475
11
-4.1441701574803149
21
5.3465517322834648
0
LINE
8
BLACK
6
CONTINUOUS
10
-4.1441701574803149
20
5.3465517322834648
11
-4.150776023622047
21
5.3537275984251966
0
LINE
8
BLACK
6
CONTINUOUS
10
-4.150776023622047
20
5.3537275984251966
11
-4.1561106692913388
21
5.3618928740157479
0
LINE
8
BLACK
6
CONTINUOUS
10
-4.1561106692913388
20
5.3618928740157479
11
-4.1600285826771657
21
5.3708248425196849
0
LINE
8
BLACK
6
CONTINUOUS
10
-4.1600285826771657
20
5.3708248425196849
11
-4.1624229133858268
21
5.3802798425196849
0
LINE
8
BLACK
6
CONTINUOUS
10
-4.1624229133858268
20
5.3802798425196849
11
-4.1632283464566928
21
5.3899999999999997
0
LINE
8
BLACK
6
CONTINUOUS
10
-4.1632283464566928
20
5.3899999999999997
11
-4.1624229133858268
21
5.3997201574803144
0
LINE
8
BLACK
6
CONTINUOUS
10
-4.1624229133858268
20
5.3997201574803144
11
-4.1600285826771657
21
5.4091751574803144
0
LINE
8
BLACK
6
CONTINUOUS
10
-4.1600285826771657
20
5.4091751574803144
11
-4.1561106692913388
21
5.4181071259842515
0
LINE
8
BLACK
6
CONTINUOUS
10
-4.1561106692913388
20
5.4181071259842515
11
-4.150776023622047
21
5.4262724015748027
0
LINE
8
BLACK
6
CONTINUOUS
10
-4.150776023622047
20
5.4262724015748027
11
-4.1441701574803149
21
5.4334482677165354
0
LINE
8
BLACK
6
CONTINUOUS
10
-4.1441701574803149
20
5.4334482677165354
11
-4.1364733070866144
21
5.4394389763779527
0
LINE
8
BLACK
6
CONTINUOUS
10
-4.1364733070866144
20
5.4394389763779527
11
-4.1278953937007872
21
5.4440811023622047
0
LINE
8
BLACK
6
CONTINUOUS
10
-4.1278953937007872
20
5.4440811023622047
11
-4.1186703937007874
21
5.4472480314960627
0
LINE
8
BLACK
6
CONTINUOUS
10
-4.1186703937007874
20
5.4472480314960627
11
-4.1090499606299211
21
5.4488534251968499
0
LINE
8
BLACK
6
CONTINUOUS
10
-4.1090499606299211
20
5.4488534251968499
11
-4.0992964960629923
21
5.4488534251968499
0
LINE
8
BLACK
6
CONTINUOUS
10
-4.0992964960629923
20
5.4488534251968499
11
-4.089676062992126
21
5.4472480314960627
0
LINE
8
BLACK
6
CONTINUOUS
10
-4.8863125984251967
20
5.5658722440944883
11
-4.8813279133858263
21
5.5641280314960628
0
LINE
8
BLACK
6
CONTINUOUS
10
-4.8813279133858263
20
5.5641280314960628
11
-4.8770788188976377
21
5.5609920472440946
0
LINE
8
BLACK
6
CONTINUOUS
10
-4.8770788188976377
20
5.5609920472440946
11
-4.8739428346456695
21
5.5567429527559051
0
LINE
8
BLACK
6
CONTINUOUS
10
-4.8739428346456695
20
5.5567429527559051
11
-4.872198622047244
21
5.5517582677165356
0
LINE
8
BLACK
6
CONTINUOUS
10
-4.872198622047244
20
5.5517582677165356
11
-4.8718897637795271
21
5.5484645669291339
0
LINE
8
BLACK
6
CONTINUOUS
10
-4.8718897637795271
20
5.5484645669291339
11
-4.8718897637795271
21
5.5287795275590552
0
LINE
8
BLACK
6
CONTINUOUS
10
-4.8718897637795271
20
5.5287795275590552
11
-4.872198622047244
21
5.5254858267716536
0
LINE
8
BLACK
6
CONTINUOUS
10
-4.872198622047244
20
5.5254858267716536
11
-4.8739428346456695
21
5.5205011417322831
0
LINE
8
BLACK
6
CONTINUOUS
10
-4.8739428346456695
20
5.5205011417322831
11
-4.8770788188976377
21
5.5162520472440946
0
LINE
8
BLACK
6
CONTINUOUS
10
-4.8770788188976377
20
5.5162520472440946
11
-4.8813279133858263
21
5.5131160629921254
0
LINE
8
BLACK
6
CONTINUOUS
10
-4.8813279133858263
20
5.5131160629921254
11
-4.8863125984251967
21
5.5113718503937008
0
LINE
8
BLACK
6
CONTINUOUS
10
-4.8863125984251967
20
5.5113718503937008
11
-4.8896062992125984
21
5.5110629921259839
0
LINE
8
BLACK
6
CONTINUOUS
10
-4.8896062992125984
20
5.5110629921259839
11
-4.9762204724409447
21
5.5110629921259839
0
LINE
8
BLACK
6
CONTINUOUS
10
-4.9762204724409447
20
5.5110629921259839
11
-4.9795141732283463
21
5.5113718503937008
0
LINE
8
BLACK
6
CONTINUOUS
10
-4.9795141732283463
20
5.5113718503937008
11
-4.9844988582677168
21
5.5131160629921254
0
LINE
8
BLACK
6
CONTINUOUS
10
-4.9844988582677168
20
5.5131160629921254
11
-4.9887479527559053
21
5.5162520472440946
0
LINE
8
BLACK
6
CONTINUOUS
10
-4.9887479527559053
20
5.5162520472440946
11
-4.9918839370078736
21
5.5205011417322831
0
LINE
8
BLACK
6
CONTINUOUS
10
-4.9918839370078736
20
5.5205011417322831
11
-4.9936281496062991
21
5.5254858267716536
0
LINE
8
BLACK
6
CONTINUOUS
10
-4.9936281496062991
20
5.5254858267716536
11
-4.993937007874016
21
5.5287795275590552
0
LINE
8
BLACK
6
CONTINUOUS
10
-4.993937007874016
20
5.5287795275590552
11
-4.993937007874016
21
5.5484645669291339
0
LINE
8
BLACK
6
CONTINUOUS
10
-4.993937007874016
20
5.5484645669291339
11
-4.9936281496062991
21
5.5517582677165356
0
LINE
8
BLACK
6
CONTINUOUS
10
-4.9936281496062991
20
5.5517582677165356
11
-4.9918839370078736
21
5.5567429527559051
0
LINE
8
BLACK
6
CONTINUOUS
10
-4.9918839370078736
20
5.5567429527559051
11
-4.9887479527559053
21
5.5609920472440946
0
LINE
8
BLACK
6
CONTINUOUS
10
-4.9887479527559053
20
5.5609920472440946
11
-4.9844988582677168
21
5.5641280314960628
0
LINE
8
BLACK
6
CONTINUOUS
10
-4.9844988582677168
20
5.5641280314960628
11
-4.9795141732283463
21
5.5658722440944883
0
LINE
8
BLACK
6
CONTINUOUS
10
-4.9795141732283463
20
5.5658722440944883
11
-4.9762204724409447
21
5.5661811023622043
0
LINE
8
BLACK
6
CONTINUOUS
10
-4.9762204724409447
20
5.5661811023622043
11
-4.8896062992125984
21
5.5661811023622043
0
LINE
8
BLACK
6
CONTINUOUS
10
-4.8896062992125984
20
5.5661811023622043
11
-4.8863125984251967
21
5.5658722440944883
0
LINE
8
BLACK
6
CONTINUOUS
10
-4.0162338582677162
20
5.5658722440944883
11
-4.0112491732283466
21
5.5641280314960628
0
LINE
8
BLACK
6
CONTINUOUS
10
-4.0112491732283466
20
5.5641280314960628
11
-4.0070000787401572
21
5.5609920472440946
0
LINE
8
BLACK
6
CONTINUOUS
10
-4.0070000787401572
20
5.5609920472440946
11
-4.0038640944881889
21
5.5567429527559051
0
LINE
8
BLACK
6
CONTINUOUS
10
-4.0038640944881889
20
5.5567429527559051
11
-4.0021198818897634
21
5.5517582677165356
0
LINE
8
BLACK
6
CONTINUOUS
10
-4.0021198818897634
20
5.5517582677165356
11
-4.0018110236220474
21
5.5484645669291339
0
LINE
8
BLACK
6
CONTINUOUS
10
-4.0018110236220474
20
5.5484645669291339
11
-4.0018110236220474
21
5.5287795275590552
0
LINE
8
BLACK
6
CONTINUOUS
10
-4.0018110236220474
20
5.5287795275590552
11
-4.0021198818897634
21
5.5254858267716536
0
LINE
8
BLACK
6
CONTINUOUS
10
-4.0021198818897634
20
5.5254858267716536
11
-4.0038640944881889
21
5.5205011417322831
0
LINE
8
BLACK
6
CONTINUOUS
10
-4.0038640944881889
20
5.5205011417322831
11
-4.0070000787401572
21
5.5162520472440946
0
LINE
8
BLACK
6
CONTINUOUS
10
-4.0070000787401572
20
5.5162520472440946
11
-4.0112491732283466
21
5.5131160629921254
0
LINE
8
BLACK
6
CONTINUOUS
10
-4.0112491732283466
20
5.5131160629921254
11
-4.0162338582677162
21
5.5113718503937008
0
LINE
8
BLACK
6
CONTINUOUS
10
-4.0162338582677162
20
5.5113718503937008
11
-4.0195275590551178
21
5.5110629921259839
0
LINE
8
BLACK
6
CONTINUOUS
10
-4.0195275590551178
20
5.5110629921259839
11
-4.1061417322834641
21
5.5110629921259839
0
LINE
8
BLACK
6
CONTINUOUS
10
-4.1061417322834641
20
5.5110629921259839
11
-4.1094354330708658
21
5.5113718503937008
0
LINE
8
BLACK
6
CONTINUOUS
10
-4.1094354330708658
20
5.5113718503937008
11
-4.1144201181102362
21
5.5131160629921254
0
LINE
8
BLACK
6
CONTINUOUS
10
-4.1144201181102362
20
5.5131160629921254
11
-4.1186692125984248
21
5.5162520472440946
0
LINE
8
BLACK
6
CONTINUOUS
10
-4.1186692125984248
20
5.5162520472440946
11
-4.1218051968503939
21
5.5205011417322831
0
LINE
8
BLACK
6
CONTINUOUS
10
-4.1218051968503939
20
5.5205011417322831
11
-4.1235494094488185
21
5.5254858267716536
0
LINE
8
BLACK
6
CONTINUOUS
10
-4.1235494094488185
20
5.5254858267716536
11
-4.1238582677165354
21
5.5287795275590552
0
LINE
8
BLACK
6
CONTINUOUS
10
-4.1238582677165354
20
5.5287795275590552
11
-4.1238582677165354
21
5.5484645669291339
0
LINE
8
BLACK
6
CONTINUOUS
10
-4.1238582677165354
20
5.5484645669291339
11
-4.1235494094488185
21
5.5517582677165356
0
LINE
8
BLACK
6
CONTINUOUS
10
-4.1235494094488185
20
5.5517582677165356
11
-4.1218051968503939
21
5.5567429527559051
0
LINE
8
BLACK
6
CONTINUOUS
10
-4.1218051968503939
20
5.5567429527559051
11
-4.1186692125984248
21
5.5609920472440946
0
LINE
8
BLACK
6
CONTINUOUS
10
-4.1186692125984248
20
5.5609920472440946
11
-4.1144201181102362
21
5.5641280314960628
0
LINE
8
BLACK
6
CONTINUOUS
10
-4.1144201181102362
20
5.5641280314960628
11
-4.1094354330708658
21
5.5658722440944883
0
LINE
8
BLACK
6
CONTINUOUS
10
-4.1094354330708658
20
5.5658722440944883
11
-4.1061417322834641
21
5.5661811023622043
0
LINE
8
BLACK
6
CONTINUOUS
10
-4.1061417322834641
20
5.5661811023622043
11
-4.0195275590551178
21
5.5661811023622043
0
LINE
8
BLACK
6
CONTINUOUS
10
-4.0195275590551178
20
5.5661811023622043
11
-4.0162338582677162
21
5.5658722440944883
0
LINE
8
BLACK
6
CONTINUOUS
10
-4.7754382677165355
20
5.6305688976377954
11
-4.7713631102362202
21
5.6285766535433073
0
LINE
8
BLACK
6
CONTINUOUS
10
-4.7713631102362202
20
5.6285766535433073
11
-4.7681556299212593
21
5.6253691732283464
0
LINE
8
BLACK
6
CONTINUOUS
10
-4.7681556299212593
20
5.6253691732283464
11
-4.7661633858267711
21
5.6212940157480311
0
LINE
8
BLACK
6
CONTINUOUS
10
-4.7661633858267711
20
5.6212940157480311
11
-4.7655905511811021
21
5.6173622047244089
0
LINE
8
BLACK
6
CONTINUOUS
10
-4.7655905511811021
20
5.6173622047244089
11
-4.7655905511811021
21
5.6055511811023617
0
LINE
8
BLACK
6
CONTINUOUS
10
-4.7655905511811021
20
5.6055511811023617
11
-4.7661633858267711
21
5.6016193700787404
0
LINE
8
BLACK
6
CONTINUOUS
10
-4.7661633858267711
20
5.6016193700787404
11
-4.7681556299212593
21
5.5975442125984252
0
LINE
8
BLACK
6
CONTINUOUS
10
-4.7681556299212593
20
5.5975442125984252
11
-4.7713631102362202
21
5.5943367322834643
0
LINE
8
BLACK
6
CONTINUOUS
10
-4.7713631102362202
20
5.5943367322834643
11
-4.7754382677165355
21
5.5923444881889761
0
LINE
8
BLACK
6
CONTINUOUS
10
-4.7754382677165355
20
5.5923444881889761
11
-4.7793700787401576
21
5.5917716535433071
0
LINE
8
BLACK
6
CONTINUOUS
10
-4.7793700787401576
20
5.5917716535433071
11
-4.834488188976378
21
5.5917716535433071
0
LINE
8
BLACK
6
CONTINUOUS
10
-4.834488188976378
20
5.5917716535433071
11
-4.8384200000000002
21
5.5923444881889761
0
LINE
8
BLACK
6
CONTINUOUS
10
-4.8384200000000002
20
5.5923444881889761
11
-4.8424951574803146
21
5.5943367322834643
0
LINE
8
BLACK
6
CONTINUOUS
10
-4.8424951574803146
20
5.5943367322834643
11
-4.8457026377952754
21
5.5975442125984252
0
LINE
8
BLACK
6
CONTINUOUS
10
-4.8457026377952754
20
5.5975442125984252
11
-4.8476948818897636
21
5.6016193700787404
0
LINE
8
BLACK
6
CONTINUOUS
10
-4.8476948818897636
20
5.6016193700787404
11
-4.8482677165354326
21
5.6055511811023617
0
LINE
8
BLACK
6
CONTINUOUS
10
-4.8482677165354326
20
5.6055511811023617
11
-4.8482677165354326
21
5.6173622047244089
0
LINE
8
BLACK
6
CONTINUOUS
10
-4.8482677165354326
20
5.6173622047244089
11
-4.8476948818897636
21
5.6212940157480311
0
LINE
8
BLACK
6
CONTINUOUS
10
-4.8476948818897636
20
5.6212940157480311
11
-4.8457026377952754
21
5.6253691732283464
0
LINE
8
BLACK
6
CONTINUOUS
10
-4.8457026377952754
20
5.6253691732283464
11
-4.8424951574803146
21
5.6285766535433073
0
LINE
8
BLACK
6
CONTINUOUS
10
-4.8424951574803146
20
5.6285766535433073
11
-4.8384200000000002
21
5.6305688976377954
0
LINE
8
BLACK
6
CONTINUOUS
10
-4.8384200000000002
20
5.6305688976377954
11
-4.834488188976378
21
5.6311417322834645
0
LINE
8
BLACK
6
CONTINUOUS
10
-4.834488188976378
20
5.6311417322834645
11
-4.7793700787401576
21
5.6311417322834645
0
LINE
8
BLACK
6
CONTINUOUS
10
-4.7793700787401576
20
5.6311417322834645
11
-4.7754382677165355
21
5.6305688976377954
0
LINE
8
BLACK
6
CONTINUOUS
10
-4.1573280314960632
20
5.6305688976377954
11
-4.1532528740157479
21
5.6285766535433073
0
LINE
8
BLACK
6
CONTINUOUS
10
-4.1532528740157479
20
5.6285766535433073
11
-4.1500453937007871
21
5.6253691732283464
0
LINE
8
BLACK
6
CONTINUOUS
10
-4.1500453937007871
20
5.6253691732283464
11
-4.1480531496062989
21
5.6212940157480311
0
LINE
8
BLACK
6
CONTINUOUS
10
-4.1480531496062989
20
5.6212940157480311
11
-4.1474803149606299
21
5.6173622047244089
0
LINE
8
BLACK
6
CONTINUOUS
10
-4.1474803149606299
20
5.6173622047244089
11
-4.1474803149606299
21
5.6055511811023617
0
LINE
8
BLACK
6
CONTINUOUS
10
-4.1474803149606299
20
5.6055511811023617
11
-4.1480531496062989
21
5.6016193700787404
0
LINE
8
BLACK
6
CONTINUOUS
10
-4.1480531496062989
20
5.6016193700787404
11
-4.1500453937007871
21
5.5975442125984252
0
LINE
8
BLACK
6
CONTINUOUS
10
-4.1500453937007871
20
5.5975442125984252
11
-4.1532528740157479
21
5.5943367322834643
0
LINE
8
BLACK
6
CONTINUOUS
10
-4.1532528740157479
20
5.5943367322834643
11
-4.1573280314960632
21
5.5923444881889761
0
LINE
8
BLACK
6
CONTINUOUS
10
-4.1573280314960632
20
5.5923444881889761
11
-4.1612598425196845
21
5.5917716535433071
0
LINE
8
BLACK
6
CONTINUOUS
10
-4.1612598425196845
20
5.5917716535433071
11
-4.2163779527559058
21
5.5917716535433071
0
LINE
8
BLACK
6
CONTINUOUS
10
-4.2163779527559058
20
5.5917716535433071
11
-4.220309763779527
21
5.5923444881889761
0
LINE
8
BLACK
6
CONTINUOUS
10
-4.220309763779527
20
5.5923444881889761
11
-4.2243849212598423
21
5.5943367322834643
0
LINE
8
BLACK
6
CONTINUOUS
10
-4.2243849212598423
20
5.5943367322834643
11
-4.2275924015748032
21
5.5975442125984252
0
LINE
8
BLACK
6
CONTINUOUS
10
-4.2275924015748032
20
5.5975442125984252
11
-4.2295846456692914
21
5.6016193700787404
0
LINE
8
BLACK
6
CONTINUOUS
10
-4.2295846456692914
20
5.6016193700787404
11
-4.2301574803149604
21
5.6055511811023617
0
LINE
8
BLACK
6
CONTINUOUS
10
-4.2301574803149604
20
5.6055511811023617
11
-4.2301574803149604
21
5.6173622047244089
0
LINE
8
BLACK
6
CONTINUOUS
10
-4.2301574803149604
20
5.6173622047244089
11
-4.2295846456692914
21
5.6212940157480311
0
LINE
8
BLACK
6
CONTINUOUS
10
-4.2295846456692914
20
5.6212940157480311
11
-4.2275924015748032
21
5.6253691732283464
0
LINE
8
BLACK
6
CONTINUOUS
10
-4.2275924015748032
20
5.6253691732283464
11
-4.2243849212598423
21
5.6285766535433073
0
LINE
8
BLACK
6
CONTINUOUS
10
-4.2243849212598423
20
5.6285766535433073
11
-4.220309763779527
21
5.6305688976377954
0
LINE
8
BLACK
6
CONTINUOUS
10
-4.220309763779527
20
5.6305688976377954
11
-4.2163779527559058
21
5.6311417322834645
0
LINE
8
BLACK
6
CONTINUOUS
10
-4.2163779527559058
20
5.6311417322834645
11
-4.1612598425196845
21
5.6311417322834645
0
LINE
8
BLACK
6
CONTINUOUS
10
-4.1612598425196845
20
5.6311417322834645
11
-4.1573280314960632
21
5.6305688976377954
0
LINE
8
BLACK
6
CONTINUOUS
10
-4.7754382677165355
20
5.6797814960629918
11
-4.7713631102362202
21
5.6777892519685036
0
LINE
8
BLACK
6
CONTINUOUS
10
-4.7713631102362202
20
5.6777892519685036
11
-4.7681556299212593
21
5.6745817716535436
0
LINE
8
BLACK
6
CONTINUOUS
10
-4.7681556299212593
20
5.6745817716535436
11
-4.7661633858267711
21
5.6705066141732283
0
LINE
8
BLACK
6
CONTINUOUS
10
-4.7661633858267711
20
5.6705066141732283
11
-4.7655905511811021
21
5.6665748031496062
0
LINE
8
BLACK
6
CONTINUOUS
10
-4.7655905511811021
20
5.6665748031496062
11
-4.7655905511811021
21
5.6547637795275589
0
LINE
8
BLACK
6
CONTINUOUS
10
-4.7655905511811021
20
5.6547637795275589
11
-4.7661633858267711
21
5.6508319685039368
0
LINE
8
BLACK
6
CONTINUOUS
10
-4.7661633858267711
20
5.6508319685039368
11
-4.7681556299212593
21
5.6467568110236215
0
LINE
8
BLACK
6
CONTINUOUS
10
-4.7681556299212593
20
5.6467568110236215
11
-4.7713631102362202
21
5.6435493307086615
0
LINE
8
BLACK
6
CONTINUOUS
10
-4.7713631102362202
20
5.6435493307086615
11
-4.7754382677165355
21
5.6415570866141733
0
LINE
8
BLACK
6
CONTINUOUS
10
-4.7754382677165355
20
5.6415570866141733
11
-4.7793700787401576
21
5.6409842519685034
0
LINE
8
BLACK
6
CONTINUOUS
10
-4.7793700787401576
20
5.6409842519685034
11
-4.834488188976378
21
5.6409842519685034
0
LINE
8
BLACK
6
CONTINUOUS
10
-4.834488188976378
20
5.6409842519685034
11
-4.8384200000000002
21
5.6415570866141733
0
LINE
8
BLACK
6
CONTINUOUS
10
-4.8384200000000002
20
5.6415570866141733
11
-4.8424951574803146
21
5.6435493307086615
0
LINE
8
BLACK
6
CONTINUOUS
10
-4.8424951574803146
20
5.6435493307086615
11
-4.8457026377952754
21
5.6467568110236215
0
LINE
8
BLACK
6
CONTINUOUS
10
-4.8457026377952754
20
5.6467568110236215
11
-4.8476948818897636
21
5.6508319685039368
0
LINE
8
BLACK
6
CONTINUOUS
10
-4.8476948818897636
20
5.6508319685039368
11
-4.8482677165354326
21
5.6547637795275589
0
LINE
8
BLACK
6
CONTINUOUS
10
-4.8482677165354326
20
5.6547637795275589
11
-4.8482677165354326
21
5.6665748031496062
0
LINE
8
BLACK
6
CONTINUOUS
10
-4.8482677165354326
20
5.6665748031496062
11
-4.8476948818897636
21
5.6705066141732283
0
LINE
8
BLACK
6
CONTINUOUS
10
-4.8476948818897636
20
5.6705066141732283
11
-4.8457026377952754
21
5.6745817716535436
0
LINE
8
BLACK
6
CONTINUOUS
10
-4.8457026377952754
20
5.6745817716535436
11
-4.8424951574803146
21
5.6777892519685036
0
LINE
8
BLACK
6
CONTINUOUS
10
-4.8424951574803146
20
5.6777892519685036
11
-4.8384200000000002
21
5.6797814960629918
0
LINE
8
BLACK
6
CONTINUOUS
10
-4.8384200000000002
20
5.6797814960629918
11
-4.834488188976378
21
5.6803543307086617
0
LINE
8
BLACK
6
CONTINUOUS
10
-4.834488188976378
20
5.6803543307086617
11
-4.7793700787401576
21
5.6803543307086617
0
LINE
8
BLACK
6
CONTINUOUS
10
-4.7793700787401576
20
5.6803543307086617
11
-4.7754382677165355
21
5.6797814960629918
0
LINE
8
BLACK
6
CONTINUOUS
10
-4.1573280314960632
20
5.6797814960629918
11
-4.1532528740157479
21
5.6777892519685036
0
LINE
8
BLACK
6
CONTINUOUS
10
-4.1532528740157479
20
5.6777892519685036
11
-4.1500453937007871
21
5.6745817716535436
0
LINE
8
BLACK
6
CONTINUOUS
10
-4.1500453937007871
20
5.6745817716535436
11
-4.1480531496062989
21
5.6705066141732283
0
LINE
8
BLACK
6
CONTINUOUS
10
-4.1480531496062989
20
5.6705066141732283
11
-4.1474803149606299
21
5.6665748031496062
0
LINE
8
BLACK
6
CONTINUOUS
10
-4.1474803149606299
20
5.6665748031496062
11
-4.1474803149606299
21
5.6547637795275589
0
LINE
8
BLACK
6
CONTINUOUS
10
-4.1474803149606299
20
5.6547637795275589
11
-4.1480531496062989
21
5.6508319685039368
0
LINE
8
BLACK
6
CONTINUOUS
10
-4.1480531496062989
20
5.6508319685039368
11
-4.1500453937007871
21
5.6467568110236215
0
LINE
8
BLACK
6
CONTINUOUS
10
-4.1500453937007871
20
5.6467568110236215
11
-4.1532528740157479
21
5.6435493307086615
0
LINE
8
BLACK
6
CONTINUOUS
10
-4.1532528740157479
20
5.6435493307086615
11
-4.1573280314960632
21
5.6415570866141733
0
LINE
8
BLACK
6
CONTINUOUS
10
-4.1573280314960632
20
5.6415570866141733
11
-4.1612598425196845
21
5.6409842519685034
0
LINE
8
BLACK
6
CONTINUOUS
10
-4.1612598425196845
20
5.6409842519685034
11
-4.2163779527559058
21
5.6409842519685034
0
LINE
8
BLACK
6
CONTINUOUS
10
-4.2163779527559058
20
5.6409842519685034
11
-4.220309763779527
21
5.6415570866141733
0
LINE
8
BLACK
6
CONTINUOUS
10
-4.220309763779527
20
5.6415570866141733
11
-4.2243849212598423
21
5.6435493307086615
0
LINE
8
BLACK
6
CONTINUOUS
10
-4.2243849212598423
20
5.6435493307086615
11
-4.2275924015748032
21
5.6467568110236215
0
LINE
8
BLACK
6
CONTINUOUS
10
-4.2275924015748032
20
5.6467568110236215
11
-4.2295846456692914
21
5.6508319685039368
0
LINE
8
BLACK
6
CONTINUOUS
10
-4.2295846456692914
20
5.6508319685039368
11
-4.2301574803149604
21
5.6547637795275589
0
LINE
8
BLACK
6
CONTINUOUS
10
-4.2301574803149604
20
5.6547637795275589
11
-4.2301574803149604
21
5.6665748031496062
0
LINE
8
BLACK
6
CONTINUOUS
10
-4.2301574803149604
20
5.6665748031496062
11
-4.2295846456692914
21
5.6705066141732283
0
LINE
8
BLACK
6
CONTINUOUS
10
-4.2295846456692914
20
5.6705066141732283
11
-4.2275924015748032
21
5.6745817716535436
0
LINE
8
BLACK
6
CONTINUOUS
10
-4.2275924015748032
20
5.6745817716535436
11
-4.2243849212598423
21
5.6777892519685036
0
LINE
8
BLACK
6
CONTINUOUS
10
-4.2243849212598423
20
5.6777892519685036
11
-4.220309763779527
21
5.6797814960629918
0
LINE
8
BLACK
6
CONTINUOUS
10
-4.220309763779527
20
5.6797814960629918
11
-4.2163779527559058
21
5.6803543307086617
0
LINE
8
BLACK
6
CONTINUOUS
10
-4.2163779527559058
20
5.6803543307086617
11
-4.1612598425196845
21
5.6803543307086617
0
LINE
8
BLACK
6
CONTINUOUS
10
-4.1612598425196845
20
5.6803543307086617
11
-4.1573280314960632
21
5.6797814960629918
0
LINE
8
BLACK
6
CONTINUOUS
10
-4.7754382677165355
20
5.728994094488189
11
-4.7713631102362202
21
5.7270018503937008
0
LINE
8
BLACK
6
CONTINUOUS
10
-4.7713631102362202
20
5.7270018503937008
11
-4.7681556299212593
21
5.7237943700787399
0
LINE
8
BLACK
6
CONTINUOUS
10
-4.7681556299212593
20
5.7237943700787399
11
-4.7661633858267711
21
5.7197192125984246
0
LINE
8
BLACK
6
CONTINUOUS
10
-4.7661633858267711
20
5.7197192125984246
11
-4.7655905511811021
21
5.7157874015748034
0
LINE
8
BLACK
6
CONTINUOUS
10
-4.7655905511811021
20
5.7157874015748034
11
-4.7655905511811021
21
5.7039763779527561
0
LINE
8
BLACK
6
CONTINUOUS
10
-4.7655905511811021
20
5.7039763779527561
11
-4.7661633858267711
21
5.700044566929134
0
LINE
8
BLACK
6
CONTINUOUS
10
-4.7661633858267711
20
5.700044566929134
11
-4.7681556299212593
21
5.6959694094488187
0
LINE
8
BLACK
6
CONTINUOUS
10
-4.7681556299212593
20
5.6959694094488187
11
-4.7713631102362202
21
5.6927619291338578
0
LINE
8
BLACK
6
CONTINUOUS
10
-4.7713631102362202
20
5.6927619291338578
11
-4.7754382677165355
21
5.6907696850393696
0
LINE
8
BLACK
6
CONTINUOUS
10
-4.7754382677165355
20
5.6907696850393696
11
-4.7793700787401576
21
5.6901968503937006
0
LINE
8
BLACK
6
CONTINUOUS
10
-4.7793700787401576
20
5.6901968503937006
11
-4.834488188976378
21
5.6901968503937006
0
LINE
8
BLACK
6
CONTINUOUS
10
-4.834488188976378
20
5.6901968503937006
11
-4.8384200000000002
21
5.6907696850393696
0
LINE
8
BLACK
6
CONTINUOUS
10
-4.8384200000000002
20
5.6907696850393696
11
-4.8424951574803146
21
5.6927619291338578
0
LINE
8
BLACK
6
CONTINUOUS
10
-4.8424951574803146
20
5.6927619291338578
11
-4.8457026377952754
21
5.6959694094488187
0
LINE
8
BLACK
6
CONTINUOUS
10
-4.8457026377952754
20
5.6959694094488187
11
-4.8476948818897636
21
5.700044566929134
0
LINE
8
BLACK
6
CONTINUOUS
10
-4.8476948818897636
20
5.700044566929134
11
-4.8482677165354326
21
5.7039763779527561
0
LINE
8
BLACK
6
CONTINUOUS
10
-4.8482677165354326
20
5.7039763779527561
11
-4.8482677165354326
21
5.7157874015748034
0
LINE
8
BLACK
6
CONTINUOUS
10
-4.8482677165354326
20
5.7157874015748034
11
-4.8476948818897636
21
5.7197192125984246
0
LINE
8
BLACK
6
CONTINUOUS
10
-4.8476948818897636
20
5.7197192125984246
11
-4.8457026377952754
21
5.7237943700787399
0
LINE
8
BLACK
6
CONTINUOUS
10
-4.8457026377952754
20
5.7237943700787399
11
-4.8424951574803146
21
5.7270018503937008
0
LINE
8
BLACK
6
CONTINUOUS
10
-4.8424951574803146
20
5.7270018503937008
11
-4.8384200000000002
21
5.728994094488189
0
LINE
8
BLACK
6
CONTINUOUS
10
-4.8384200000000002
20
5.728994094488189
11
-4.834488188976378
21
5.729566929133858
0
LINE
8
BLACK
6
CONTINUOUS
10
-4.834488188976378
20
5.729566929133858
11
-4.7793700787401576
21
5.729566929133858
0
LINE
8
BLACK
6
CONTINUOUS
10
-4.7793700787401576
20
5.729566929133858
11
-4.7754382677165355
21
5.728994094488189
0
LINE
8
BLACK
6
CONTINUOUS
10
-4.1573280314960632
20
5.728994094488189
11
-4.1532528740157479
21
5.7270018503937008
0
LINE
8
BLACK
6
CONTINUOUS
10
-4.1532528740157479
20
5.7270018503937008
11
-4.1500453937007871
21
5.7237943700787399
0
LINE
8
BLACK
6
CONTINUOUS
10
-4.1500453937007871
20
5.7237943700787399
11
-4.1480531496062989
21
5.7197192125984246
0
LINE
8
BLACK
6
CONTINUOUS
10
-4.1480531496062989
20
5.7197192125984246
11
-4.1474803149606299
21
5.7157874015748034
0
LINE
8
BLACK
6
CONTINUOUS
10
-4.1474803149606299
20
5.7157874015748034
11
-4.1474803149606299
21
5.7039763779527561
0
LINE
8
BLACK
6
CONTINUOUS
10
-4.1474803149606299
20
5.7039763779527561
11
-4.1480531496062989
21
5.700044566929134
0
LINE
8
BLACK
6
CONTINUOUS
10
-4.1480531496062989
20
5.700044566929134
11
-4.1500453937007871
21
5.6959694094488187
0
LINE
8
BLACK
6
CONTINUOUS
10
-4.1500453937007871
20
5.6959694094488187
11
-4.1532528740157479
21
5.6927619291338578
0
LINE
8
BLACK
6
CONTINUOUS
10
-4.1532528740157479
20
5.6927619291338578
11
-4.1573280314960632
21
5.6907696850393696
0
LINE
8
BLACK
6
CONTINUOUS
10
-4.1573280314960632
20
5.6907696850393696
11
-4.1612598425196845
21
5.6901968503937006
0
LINE
8
BLACK
6
CONTINUOUS
10
-4.1612598425196845
20
5.6901968503937006
11
-4.2163779527559058
21
5.6901968503937006
0
LINE
8
BLACK
6
CONTINUOUS
10
-4.2163779527559058
20
5.6901968503937006
11
-4.220309763779527
21
5.6907696850393696
0
LINE
8
BLACK
6
CONTINUOUS
10
-4.220309763779527
20
5.6907696850393696
11
-4.2243849212598423
21
5.6927619291338578
0
LINE
8
BLACK
6
CONTINUOUS
10
-4.2243849212598423
20
5.6927619291338578
11
-4.2275924015748032
21
5.6959694094488187
0
LINE
8
BLACK
6
CONTINUOUS
10
-4.2275924015748032
20
5.6959694094488187
11
-4.2295846456692914
21
5.700044566929134
0
LINE
8
BLACK
6
CONTINUOUS
10
-4.2295846456692914
20
5.700044566929134
11
-4.2301574803149604
21
5.7039763779527561
0
LINE
8
BLACK
6
CONTINUOUS
10
-4.2301574803149604
20
5.7039763779527561
11
-4.2301574803149604
21
5.7157874015748034
0
LINE
8
BLACK
6
CONTINUOUS
10
-4.2301574803149604
20
5.7157874015748034
11
-4.2295846456692914
21
5.7197192125984246
0
LINE
8
BLACK
6
CONTINUOUS
10
-4.2295846456692914
20
5.7197192125984246
11
-4.2275924015748032
21
5.7237943700787399
0
LINE
8
BLACK
6
CONTINUOUS
10
-4.2275924015748032
20
5.7237943700787399
11
-4.2243849212598423
21
5.7270018503937008
0
LINE
8
BLACK
6
CONTINUOUS
10
-4.2243849212598423
20
5.7270018503937008
11
-4.220309763779527
21
5.728994094488189
0
LINE
8
BLACK
6
CONTINUOUS
10
-4.220309763779527
20
5.728994094488189
11
-4.2163779527559058
21
5.729566929133858
0
LINE
8
BLACK
6
CONTINUOUS
10
-4.2163779527559058
20
5.729566929133858
11
-4.1612598425196845
21
5.729566929133858
0
LINE
8
BLACK
6
CONTINUOUS
10
-4.1612598425196845
20
5.729566929133858
11
-4.1573280314960632
21
5.728994094488189
0
LINE
8
BLACK
6
CONTINUOUS
10
-4.7754382677165355
20
5.7782066929133853
11
-4.7713631102362202
21
5.7762144488188971
0
LINE
8
BLACK
6
CONTINUOUS
10
-4.7713631102362202
20
5.7762144488188971
11
-4.7681556299212593
21
5.7730069685039371
0
LINE
8
BLACK
6
CONTINUOUS
10
-4.7681556299212593
20
5.7730069685039371
11
-4.7661633858267711
21
5.7689318110236218
0
LINE
8
BLACK
6
CONTINUOUS
10
-4.7661633858267711
20
5.7689318110236218
11
-4.7655905511811021
21
5.7649999999999997
0
LINE
8
BLACK
6
CONTINUOUS
10
-4.7655905511811021
20
5.7649999999999997
11
-4.7655905511811021
21
5.7531889763779525
0
LINE
8
BLACK
6
CONTINUOUS
10
-4.7655905511811021
20
5.7531889763779525
11
-4.7661633858267711
21
5.7492571653543303
0
LINE
8
BLACK
6
CONTINUOUS
10
-4.7661633858267711
20
5.7492571653543303
11
-4.7681556299212593
21
5.7451820078740159
0
LINE
8
BLACK
6
CONTINUOUS
10
-4.7681556299212593
20
5.7451820078740159
11
-4.7713631102362202
21
5.741974527559055
0
LINE
8
BLACK
6
CONTINUOUS
10
-4.7713631102362202
20
5.741974527559055
11
-4.7754382677165355
21
5.7399822834645668
0
LINE
8
BLACK
6
CONTINUOUS
10
-4.7754382677165355
20
5.7399822834645668
11
-4.7793700787401576
21
5.7394094488188978
0
LINE
8
BLACK
6
CONTINUOUS
10
-4.7793700787401576
20
5.7394094488188978
11
-4.834488188976378
21
5.7394094488188978
0
LINE
8
BLACK
6
CONTINUOUS
10
-4.834488188976378
20
5.7394094488188978
11
-4.8384200000000002
21
5.7399822834645668
0
LINE
8
BLACK
6
CONTINUOUS
10
-4.8384200000000002
20
5.7399822834645668
11
-4.8424951574803146
21
5.741974527559055
0
LINE
8
BLACK
6
CONTINUOUS
10
-4.8424951574803146
20
5.741974527559055
11
-4.8457026377952754
21
5.7451820078740159
0
LINE
8
BLACK
6
CONTINUOUS
10
-4.8457026377952754
20
5.7451820078740159
11
-4.8476948818897636
21
5.7492571653543303
0
LINE
8
BLACK
6
CONTINUOUS
10
-4.8476948818897636
20
5.7492571653543303
11
-4.8482677165354326
21
5.7531889763779525
0
LINE
8
BLACK
6
CONTINUOUS
10
-4.8482677165354326
20
5.7531889763779525
11
-4.8482677165354326
21
5.7649999999999997
0
LINE
8
BLACK
6
CONTINUOUS
10
-4.8482677165354326
20
5.7649999999999997
11
-4.8476948818897636
21
5.7689318110236218
0
LINE
8
BLACK
6
CONTINUOUS
10
-4.8476948818897636
20
5.7689318110236218
11
-4.8457026377952754
21
5.7730069685039371
0
LINE
8
BLACK
6
CONTINUOUS
10
-4.8457026377952754
20
5.7730069685039371
11
-4.8424951574803146
21
5.7762144488188971
0
LINE
8
BLACK
6
CONTINUOUS
10
-4.8424951574803146
20
5.7762144488188971
11
-4.8384200000000002
21
5.7782066929133853
0
LINE
8
BLACK
6
CONTINUOUS
10
-4.8384200000000002
20
5.7782066929133853
11
-4.834488188976378
21
5.7787795275590552
0
LINE
8
BLACK
6
CONTINUOUS
10
-4.834488188976378
20
5.7787795275590552
11
-4.7793700787401576
21
5.7787795275590552
0
LINE
8
BLACK
6
CONTINUOUS
10
-4.7793700787401576
20
5.7787795275590552
11
-4.7754382677165355
21
5.7782066929133853
0
LINE
8
BLACK
6
CONTINUOUS
10
-4.1573280314960632
20
5.7782066929133853
11
-4.1532528740157479
21
5.7762144488188971
0
LINE
8
BLACK
6
CONTINUOUS
10
-4.1532528740157479
20
5.7762144488188971
11
-4.1500453937007871
21
5.7730069685039371
0
LINE
8
BLACK
6
CONTINUOUS
10
-4.1500453937007871
20
5.7730069685039371
11
-4.1480531496062989
21
5.7689318110236218
0
LINE
8
BLACK
6
CONTINUOUS
10
-4.1480531496062989
20
5.7689318110236218
11
-4.1474803149606299
21
5.7649999999999997
0
LINE
8
BLACK
6
CONTINUOUS
10
-4.1474803149606299
20
5.7649999999999997
11
-4.1474803149606299
21
5.7531889763779525
0
LINE
8
BLACK
6
CONTINUOUS
10
-4.1474803149606299
20
5.7531889763779525
11
-4.1480531496062989
21
5.7492571653543303
0
LINE
8
BLACK
6
CONTINUOUS
10
-4.1480531496062989
20
5.7492571653543303
11
-4.1500453937007871
21
5.7451820078740159
0
LINE
8
BLACK
6
CONTINUOUS
10
-4.1500453937007871
20
5.7451820078740159
11
-4.1532528740157479
21
5.741974527559055
0
LINE
8
BLACK
6
CONTINUOUS
10
-4.1532528740157479
20
5.741974527559055
11
-4.1573280314960632
21
5.7399822834645668
0
LINE
8
BLACK
6
CONTINUOUS
10
-4.1573280314960632
20
5.7399822834645668
11
-4.1612598425196845
21
5.7394094488188978
0
LINE
8
BLACK
6
CONTINUOUS
10
-4.1612598425196845
20
5.7394094488188978
11
-4.2163779527559058
21
5.7394094488188978
0
LINE
8
BLACK
6
CONTINUOUS
10
-4.2163779527559058
20
5.7394094488188978
11
-4.220309763779527
21
5.7399822834645668
0
LINE
8
BLACK
6
CONTINUOUS
10
-4.220309763779527
20
5.7399822834645668
11
-4.2243849212598423
21
5.741974527559055
0
LINE
8
BLACK
6
CONTINUOUS
10
-4.2243849212598423
20
5.741974527559055
11
-4.2275924015748032
21
5.7451820078740159
0
LINE
8
BLACK
6
CONTINUOUS
10
-4.2275924015748032
20
5.7451820078740159
11
-4.2295846456692914
21
5.7492571653543303
0
LINE
8
BLACK
6
CONTINUOUS
10
-4.2295846456692914
20
5.7492571653543303
11
-4.2301574803149604
21
5.7531889763779525
0
LINE
8
BLACK
6
CONTINUOUS
10
-4.2301574803149604
20
5.7531889763779525
11
-4.2301574803149604
21
5.7649999999999997
0
LINE
8
BLACK
6
CONTINUOUS
10
-4.2301574803149604
20
5.7649999999999997
11
-4.2295846456692914
21
5.7689318110236218
0
LINE
8
BLACK
6
CONTINUOUS
10
-4.2295846456692914
20
5.7689318110236218
11
-4.2275924015748032
21
5.7730069685039371
0
LINE
8
BLACK
6
CONTINUOUS
10
-4.2275924015748032
20
5.7730069685039371
11
-4.2243849212598423
21
5.7762144488188971
0
LINE
8
BLACK
6
CONTINUOUS
10
-4.2243849212598423
20
5.7762144488188971
11
-4.220309763779527
21
5.7782066929133853
0
LINE
8
BLACK
6
CONTINUOUS
10
-4.220309763779527
20
5.7782066929133853
11
-4.2163779527559058
21
5.7787795275590552
0
LINE
8
BLACK
6
CONTINUOUS
10
-4.2163779527559058
20
5.7787795275590552
11
-4.1612598425196845
21
5.7787795275590552
0
LINE
8
BLACK
6
CONTINUOUS
10
-4.1612598425196845
20
5.7787795275590552
11
-4.1573280314960632
21
5.7782066929133853
0
LINE
8
BLACK
6
CONTINUOUS
10
-4.8863125984251967
20
5.8591793307086615
11
-4.8813279133858263
21
5.857435118110236
0
LINE
8
BLACK
6
CONTINUOUS
10
-4.8813279133858263
20
5.857435118110236
11
-4.8770788188976377
21
5.8542991338582677
0
LINE
8
BLACK
6
CONTINUOUS
10
-4.8770788188976377
20
5.8542991338582677
11
-4.8739428346456695
21
5.8500500393700783
0
LINE
8
BLACK
6
CONTINUOUS
10
-4.8739428346456695
20
5.8500500393700783
11
-4.872198622047244
21
5.8450653543307087
0
LINE
8
BLACK
6
CONTINUOUS
10
-4.872198622047244
20
5.8450653543307087
11
-4.8718897637795271
21
5.8417716535433071
0
LINE
8
BLACK
6
CONTINUOUS
10
-4.8718897637795271
20
5.8417716535433071
11
-4.8718897637795271
21
5.8220866141732284
0
LINE
8
BLACK
6
CONTINUOUS
10
-4.8718897637795271
20
5.8220866141732284
11
-4.872198622047244
21
5.8187929133858267
0
LINE
8
BLACK
6
CONTINUOUS
10
-4.872198622047244
20
5.8187929133858267
11
-4.8739428346456695
21
5.8138082283464563
0
LINE
8
BLACK
6
CONTINUOUS
10
-4.8739428346456695
20
5.8138082283464563
11
-4.8770788188976377
21
5.8095591338582677
0
LINE
8
BLACK
6
CONTINUOUS
10
-4.8770788188976377
20
5.8095591338582677
11
-4.8813279133858263
21
5.8064231496062995
0
LINE
8
BLACK
6
CONTINUOUS
10
-4.8813279133858263
20
5.8064231496062995
11
-4.8863125984251967
21
5.804678937007874
0
LINE
8
BLACK
6
CONTINUOUS
10
-4.8863125984251967
20
5.804678937007874
11
-4.8896062992125984
21
5.8043700787401571
0
LINE
8
BLACK
6
CONTINUOUS
10
-4.8896062992125984
20
5.8043700787401571
11
-4.9762204724409447
21
5.8043700787401571
0
LINE
8
BLACK
6
CONTINUOUS
10
-4.9762204724409447
20
5.8043700787401571
11
-4.9795141732283463
21
5.804678937007874
0
LINE
8
BLACK
6
CONTINUOUS
10
-4.9795141732283463
20
5.804678937007874
11
-4.9844988582677168
21
5.8064231496062995
0
LINE
8
BLACK
6
CONTINUOUS
10
-4.9844988582677168
20
5.8064231496062995
11
-4.9887479527559053
21
5.8095591338582677
0
LINE
8
BLACK
6
CONTINUOUS
10
-4.9887479527559053
20
5.8095591338582677
11
-4.9918839370078736
21
5.8138082283464563
0
LINE
8
BLACK
6
CONTINUOUS
10
-4.9918839370078736
20
5.8138082283464563
11
-4.9936281496062991
21
5.8187929133858267
0
LINE
8
BLACK
6
CONTINUOUS
10
-4.9936281496062991
20
5.8187929133858267
11
-4.993937007874016
21
5.8220866141732284
0
LINE
8
BLACK
6
CONTINUOUS
10
-4.993937007874016
20
5.8220866141732284
11
-4.993937007874016
21
5.8417716535433071
0
LINE
8
BLACK
6
CONTINUOUS
10
-4.993937007874016
20
5.8417716535433071
11
-4.9936281496062991
21
5.8450653543307087
0
LINE
8
BLACK
6
CONTINUOUS
10
-4.9936281496062991
20
5.8450653543307087
11
-4.9918839370078736
21
5.8500500393700783
0
LINE
8
BLACK
6
CONTINUOUS
10
-4.9918839370078736
20
5.8500500393700783
11
-4.9887479527559053
21
5.8542991338582677
0
LINE
8
BLACK
6
CONTINUOUS
10
-4.9887479527559053
20
5.8542991338582677
11
-4.9844988582677168
21
5.857435118110236
0
LINE
8
BLACK
6
CONTINUOUS
10
-4.9844988582677168
20
5.857435118110236
11
-4.9795141732283463
21
5.8591793307086615
0
LINE
8
BLACK
6
CONTINUOUS
10
-4.9795141732283463
20
5.8591793307086615
11
-4.9762204724409447
21
5.8594881889763775
0
LINE
8
BLACK
6
CONTINUOUS
10
-4.9762204724409447
20
5.8594881889763775
11
-4.8896062992125984
21
5.8594881889763775
0
LINE
8
BLACK
6
CONTINUOUS
10
-4.8896062992125984
20
5.8594881889763775
11
-4.8863125984251967
21
5.8591793307086615
0
LINE
8
BLACK
6
CONTINUOUS
10
-4.0162338582677162
20
5.8591793307086615
11
-4.0112491732283466
21
5.857435118110236
0
LINE
8
BLACK
6
CONTINUOUS
10
-4.0112491732283466
20
5.857435118110236
11
-4.0070000787401572
21
5.8542991338582677
0
LINE
8
BLACK
6
CONTINUOUS
10
-4.0070000787401572
20
5.8542991338582677
11
-4.0038640944881889
21
5.8500500393700783
0
LINE
8
BLACK
6
CONTINUOUS
10
-4.0038640944881889
20
5.8500500393700783
11
-4.0021198818897634
21
5.8450653543307087
0
LINE
8
BLACK
6
CONTINUOUS
10
-4.0021198818897634
20
5.8450653543307087
11
-4.0018110236220474
21
5.8417716535433071
0
LINE
8
BLACK
6
CONTINUOUS
10
-4.0018110236220474
20
5.8417716535433071
11
-4.0018110236220474
21
5.8220866141732284
0
LINE
8
BLACK
6
CONTINUOUS
10
-4.0018110236220474
20
5.8220866141732284
11
-4.0021198818897634
21
5.8187929133858267
0
LINE
8
BLACK
6
CONTINUOUS
10
-4.0021198818897634
20
5.8187929133858267
11
-4.0038640944881889
21
5.8138082283464563
0
LINE
8
BLACK
6
CONTINUOUS
10
-4.0038640944881889
20
5.8138082283464563
11
-4.0070000787401572
21
5.8095591338582677
0
LINE
8
BLACK
6
CONTINUOUS
10
-4.0070000787401572
20
5.8095591338582677
11
-4.0112491732283466
21
5.8064231496062995
0
LINE
8
BLACK
6
CONTINUOUS
10
-4.0112491732283466
20
5.8064231496062995
11
-4.0162338582677162
21
5.804678937007874
0
LINE
8
BLACK
6
CONTINUOUS
10
-4.0162338582677162
20
5.804678937007874
11
-4.0195275590551178
21
5.8043700787401571
0
LINE
8
BLACK
6
CONTINUOUS
10
-4.0195275590551178
20
5.8043700787401571
11
-4.1061417322834641
21
5.8043700787401571
0
LINE
8
BLACK
6
CONTINUOUS
10
-4.1061417322834641
20
5.8043700787401571
11
-4.1094354330708658
21
5.804678937007874
0
LINE
8
BLACK
6
CONTINUOUS
10
-4.1094354330708658
20
5.804678937007874
11
-4.1144201181102362
21
5.8064231496062995
0
LINE
8
BLACK
6
CONTINUOUS
10
-4.1144201181102362
20
5.8064231496062995
11
-4.1186692125984248
21
5.8095591338582677
0
LINE
8
BLACK
6
CONTINUOUS
10
-4.1186692125984248
20
5.8095591338582677
11
-4.1218051968503939
21
5.8138082283464563
0
LINE
8
BLACK
6
CONTINUOUS
10
-4.1218051968503939
20
5.8138082283464563
11
-4.1235494094488185
21
5.8187929133858267
0
LINE
8
BLACK
6
CONTINUOUS
10
-4.1235494094488185
20
5.8187929133858267
11
-4.1238582677165354
21
5.8220866141732284
0
LINE
8
BLACK
6
CONTINUOUS
10
-4.1238582677165354
20
5.8220866141732284
11
-4.1238582677165354
21
5.8417716535433071
0
LINE
8
BLACK
6
CONTINUOUS
10
-4.1238582677165354
20
5.8417716535433071
11
-4.1235494094488185
21
5.8450653543307087
0
LINE
8
BLACK
6
CONTINUOUS
10
-4.1235494094488185
20
5.8450653543307087
11
-4.1218051968503939
21
5.8500500393700783
0
LINE
8
BLACK
6
CONTINUOUS
10
-4.1218051968503939
20
5.8500500393700783
11
-4.1186692125984248
21
5.8542991338582677
0
LINE
8
BLACK
6
CONTINUOUS
10
-4.1186692125984248
20
5.8542991338582677
11
-4.1144201181102362
21
5.857435118110236
0
LINE
8
BLACK
6
CONTINUOUS
10
-4.1144201181102362
20
5.857435118110236
11
-4.1094354330708658
21
5.8591793307086615
0
LINE
8
BLACK
6
CONTINUOUS
10
-4.1094354330708658
20
5.8591793307086615
11
-4.1061417322834641
21
5.8594881889763775
0
LINE
8
BLACK
6
CONTINUOUS
10
-4.1061417322834641
20
5.8594881889763775
11
-4.0195275590551178
21
5.8594881889763775
0
LINE
8
BLACK
6
CONTINUOUS
10
-4.0195275590551178
20
5.8594881889763775
11
-4.0162338582677162
21
5.8591793307086615
0
LINE
8
BLACK
6
CONTINUOUS
10
-4.8770776377952751
20
6.0377992125984248
11
-4.8678526377952753
21
6.0346322834645667
0
LINE
8
BLACK
6
CONTINUOUS
10
-4.8678526377952753
20
6.0346322834645667
11
-4.859274724409449
21
6.0299901574803147
0
LINE
8
BLACK
6
CONTINUOUS
10
-4.859274724409449
20
6.0299901574803147
11
-4.8515778740157476
21
6.0239994488188975
0
LINE
8
BLACK
6
CONTINUOUS
10
-4.8515778740157476
20
6.0239994488188975
11
-4.8449720078740155
21
6.0168235826771657
0
LINE
8
BLACK
6
CONTINUOUS
10
-4.8449720078740155
20
6.0168235826771657
11
-4.8396373622047246
21
6.0086583070866144
0
LINE
8
BLACK
6
CONTINUOUS
10
-4.8396373622047246
20
6.0086583070866144
11
-4.8357194488188977
21
5.9997263385826773
0
LINE
8
BLACK
6
CONTINUOUS
10
-4.8357194488188977
20
5.9997263385826773
11
-4.8333251181102357
21
5.9902713385826774
0
LINE
8
BLACK
6
CONTINUOUS
10
-4.8333251181102357
20
5.9902713385826774
11
-4.8325196850393697
21
5.9805511811023617
0
LINE
8
BLACK
6
CONTINUOUS
10
-4.8325196850393697
20
5.9805511811023617
11
-4.8333251181102357
21
5.970831023622047
0
LINE
8
BLACK
6
CONTINUOUS
10
-4.8333251181102357
20
5.970831023622047
11
-4.8357194488188977
21
5.961376023622047
0
LINE
8
BLACK
6
CONTINUOUS
10
-4.8357194488188977
20
5.961376023622047
11
-4.8396373622047246
21
5.9524440551181099
0
LINE
8
BLACK
6
CONTINUOUS
10
-4.8396373622047246
20
5.9524440551181099
11
-4.8449720078740155
21
5.9442787795275587
0
LINE
8
BLACK
6
CONTINUOUS
10
-4.8449720078740155
20
5.9442787795275587
11
-4.8515778740157476
21
5.9371029133858269
0
LINE
8
BLACK
6
CONTINUOUS
10
-4.8515778740157476
20
5.9371029133858269
11
-4.859274724409449
21
5.9311122047244096
0
LINE
8
BLACK
6
CONTINUOUS
10
-4.859274724409449
20
5.9311122047244096
11
-4.8678526377952753
21
5.9264700787401576
0
LINE
8
BLACK
6
CONTINUOUS
10
-4.8678526377952753
20
5.9264700787401576
11
-4.8770776377952751
21
5.9233031496062987
0
LINE
8
BLACK
6
CONTINUOUS
10
-4.8770776377952751
20
5.9233031496062987
11
-4.8866980708661414
21
5.9216977559055115
0
LINE
8
BLACK
6
CONTINUOUS
10
-4.8866980708661414
20
5.9216977559055115
11
-4.8964515354330711
21
5.9216977559055115
0
LINE
8
BLACK
6
CONTINUOUS
10
-4.8964515354330711
20
5.9216977559055115
11
-4.9060719685039365
21
5.9233031496062987
0
LINE
8
BLACK
6
CONTINUOUS
10
-4.9060719685039365
20
5.9233031496062987
11
-4.9152969685039372
21
5.9264700787401576
0
LINE
8
BLACK
6
CONTINUOUS
10
-4.9152969685039372
20
5.9264700787401576
11
-4.9238748818897635
21
5.9311122047244096
0
LINE
8
BLACK
6
CONTINUOUS
10
-4.9238748818897635
20
5.9311122047244096
11
-4.931571732283464
21
5.9371029133858269
0
LINE
8
BLACK
6
CONTINUOUS
10
-4.931571732283464
20
5.9371029133858269
11
-4.938177598425197
21
5.9442787795275587
0
LINE
8
BLACK
6
CONTINUOUS
10
-4.938177598425197
20
5.9442787795275587
11
-4.9435122440944879
21
5.9524440551181099
0
LINE
8
BLACK
6
CONTINUOUS
10
-4.9435122440944879
20
5.9524440551181099
11
-4.9474301574803148
21
5.961376023622047
0
LINE
8
BLACK
6
CONTINUOUS
10
-4.9474301574803148
20
5.961376023622047
11
-4.9498244881889759
21
5.970831023622047
0
LINE
8
BLACK
6
CONTINUOUS
10
-4.9498244881889759
20
5.970831023622047
11
-4.9506299212598428
21
5.9805511811023617
0
LINE
8
BLACK
6
CONTINUOUS
10
-4.9506299212598428
20
5.9805511811023617
11
-4.9498244881889759
21
5.9902713385826774
0
LINE
8
BLACK
6
CONTINUOUS
10
-4.9498244881889759
20
5.9902713385826774
11
-4.9474301574803148
21
5.9997263385826773
0
LINE
8
BLACK
6
CONTINUOUS
10
-4.9474301574803148
20
5.9997263385826773
11
-4.9435122440944879
21
6.0086583070866144
0
LINE
8
BLACK
6
CONTINUOUS
10
-4.9435122440944879
20
6.0086583070866144
11
-4.938177598425197
21
6.0168235826771657
0
LINE
8
BLACK
6
CONTINUOUS
10
-4.938177598425197
20
6.0168235826771657
11
-4.931571732283464
21
6.0239994488188975
0
LINE
8
BLACK
6
CONTINUOUS
10
-4.931571732283464
20
6.0239994488188975
11
-4.9238748818897635
21
6.0299901574803147
0
LINE
8
BLACK
6
CONTINUOUS
10
-4.9238748818897635
20
6.0299901574803147
11
-4.9152969685039372
21
6.0346322834645667
0
LINE
8
BLACK
6
CONTINUOUS
10
-4.9152969685039372
20
6.0346322834645667
11
-4.9060719685039365
21
6.0377992125984248
0
LINE
8
BLACK
6
CONTINUOUS
10
-4.9060719685039365
20
6.0377992125984248
11
-4.8964515354330711
21
6.0394046062992128
0
LINE
8
BLACK
6
CONTINUOUS
10
-4.8964515354330711
20
6.0394046062992128
11
-4.8866980708661414
21
6.0394046062992128
0
LINE
8
BLACK
6
CONTINUOUS
10
-4.8866980708661414
20
6.0394046062992128
11
-4.8770776377952751
21
6.0377992125984248
0
LINE
8
BLACK
6
CONTINUOUS
10
-4.483376850393701
20
6.0377992125984248
11
-4.4741518503937003
21
6.0346322834645667
0
LINE
8
BLACK
6
CONTINUOUS
10
-4.4741518503937003
20
6.0346322834645667
11
-4.465573937007874
21
6.0299901574803147
0
LINE
8
BLACK
6
CONTINUOUS
10
-4.465573937007874
20
6.0299901574803147
11
-4.4578770866141735
21
6.0239994488188975
0
LINE
8
BLACK
6
CONTINUOUS
10
-4.4578770866141735
20
6.0239994488188975
11
-4.4512712204724405
21
6.0168235826771657
0
LINE
8
BLACK
6
CONTINUOUS
10
-4.4512712204724405
20
6.0168235826771657
11
-4.4459365748031496
21
6.0086583070866144
0
LINE
8
BLACK
6
CONTINUOUS
10
-4.4459365748031496
20
6.0086583070866144
11
-4.4420186614173227
21
5.9997263385826773
0
LINE
8
BLACK
6
CONTINUOUS
10
-4.4420186614173227
20
5.9997263385826773
11
-4.4396243307086616
21
5.9902713385826774
0
LINE
8
BLACK
6
CONTINUOUS
10
-4.4396243307086616
20
5.9902713385826774
11
-4.4388188976377956
21
5.9805511811023617
0
LINE
8
BLACK
6
CONTINUOUS
10
-4.4388188976377956
20
5.9805511811023617
11
-4.4396243307086616
21
5.970831023622047
0
LINE
8
BLACK
6
CONTINUOUS
10
-4.4396243307086616
20
5.970831023622047
11
-4.4420186614173227
21
5.961376023622047
0
LINE
8
BLACK
6
CONTINUOUS
10
-4.4420186614173227
20
5.961376023622047
11
-4.4459365748031496
21
5.9524440551181099
0
LINE
8
BLACK
6
CONTINUOUS
10
-4.4459365748031496
20
5.9524440551181099
11
-4.4512712204724405
21
5.9442787795275587
0
LINE
8
BLACK
6
CONTINUOUS
10
-4.4512712204724405
20
5.9442787795275587
11
-4.4578770866141735
21
5.9371029133858269
0
LINE
8
BLACK
6
CONTINUOUS
10
-4.4578770866141735
20
5.9371029133858269
11
-4.465573937007874
21
5.9311122047244096
0
LINE
8
BLACK
6
CONTINUOUS
10
-4.465573937007874
20
5.9311122047244096
11
-4.4741518503937003
21
5.9264700787401576
0
LINE
8
BLACK
6
CONTINUOUS
10
-4.4741518503937003
20
5.9264700787401576
11
-4.483376850393701
21
5.9233031496062987
0
LINE
8
BLACK
6
CONTINUOUS
10
-4.483376850393701
20
5.9233031496062987
11
-4.4929972834645664
21
5.9216977559055115
0
LINE
8
BLACK
6
CONTINUOUS
10
-4.4929972834645664
20
5.9216977559055115
11
-4.5027507480314961
21
5.9216977559055115
0
LINE
8
BLACK
6
CONTINUOUS
10
-4.5027507480314961
20
5.9216977559055115
11
-4.5123711811023623
21
5.9233031496062987
0
LINE
8
BLACK
6
CONTINUOUS
10
-4.5123711811023623
20
5.9233031496062987
11
-4.5215961811023622
21
5.9264700787401576
0
LINE
8
BLACK
6
CONTINUOUS
10
-4.5215961811023622
20
5.9264700787401576
11
-4.5301740944881885
21
5.9311122047244096
0
LINE
8
BLACK
6
CONTINUOUS
10
-4.5301740944881885
20
5.9311122047244096
11
-4.5378709448818899
21
5.9371029133858269
0
LINE
8
BLACK
6
CONTINUOUS
10
-4.5378709448818899
20
5.9371029133858269
11
-4.544476811023622
21
5.9442787795275587
0
LINE
8
BLACK
6
CONTINUOUS
10
-4.544476811023622
20
5.9442787795275587
11
-4.5498114566929129
21
5.9524440551181099
0
LINE
8
BLACK
6
CONTINUOUS
10
-4.5498114566929129
20
5.9524440551181099
11
-4.5537293700787398
21
5.961376023622047
0
LINE
8
BLACK
6
CONTINUOUS
10
-4.5537293700787398
20
5.961376023622047
11
-4.5561237007874018
21
5.970831023622047
0
LINE
8
BLACK
6
CONTINUOUS
10
-4.5561237007874018
20
5.970831023622047
11
-4.5569291338582678
21
5.9805511811023617
0
LINE
8
BLACK
6
CONTINUOUS
10
-4.5569291338582678
20
5.9805511811023617
11
-4.5561237007874018
21
5.9902713385826774
0
LINE
8
BLACK
6
CONTINUOUS
10
-4.5561237007874018
20
5.9902713385826774
11
-4.5537293700787398
21
5.9997263385826773
0
LINE
8
BLACK
6
CONTINUOUS
10
-4.5537293700787398
20
5.9997263385826773
11
-4.5498114566929129
21
6.0086583070866144
0
LINE
8
BLACK
6
CONTINUOUS
10
-4.5498114566929129
20
6.0086583070866144
11
-4.544476811023622
21
6.0168235826771657
0
LINE
8
BLACK
6
CONTINUOUS
10
-4.544476811023622
20
6.0168235826771657
11
-4.5378709448818899
21
6.0239994488188975
0
LINE
8
BLACK
6
CONTINUOUS
10
-4.5378709448818899
20
6.0239994488188975
11
-4.5301740944881885
21
6.0299901574803147
0
LINE
8
BLACK
6
CONTINUOUS
10
-4.5301740944881885
20
6.0299901574803147
11
-4.5215961811023622
21
6.0346322834645667
0
LINE
8
BLACK
6
CONTINUOUS
10
-4.5215961811023622
20
6.0346322834645667
11
-4.5123711811023623
21
6.0377992125984248
0
LINE
8
BLACK
6
CONTINUOUS
10
-4.5123711811023623
20
6.0377992125984248
11
-4.5027507480314961
21
6.0394046062992128
0
LINE
8
BLACK
6
CONTINUOUS
10
-4.5027507480314961
20
6.0394046062992128
11
-4.4929972834645664
21
6.0394046062992128
0
LINE
8
BLACK
6
CONTINUOUS
10
-4.4929972834645664
20
6.0394046062992128
11
-4.483376850393701
21
6.0377992125984248
0
LINE
8
BLACK
6
CONTINUOUS
10
-4.089676062992126
20
6.0377992125984248
11
-4.0804510629921262
21
6.0346322834645667
0
LINE
8
BLACK
6
CONTINUOUS
10
-4.0804510629921262
20
6.0346322834645667
11
-4.071873149606299
21
6.0299901574803147
0
LINE
8
BLACK
6
CONTINUOUS
10
-4.071873149606299
20
6.0299901574803147
11
-4.0641762992125985
21
6.0239994488188975
0
LINE
8
BLACK
6
CONTINUOUS
10
-4.0641762992125985
20
6.0239994488188975
11
-4.0575704330708664
21
6.0168235826771657
0
LINE
8
BLACK
6
CONTINUOUS
10
-4.0575704330708664
20
6.0168235826771657
11
-4.0522357874015746
21
6.0086583070866144
0
LINE
8
BLACK
6
CONTINUOUS
10
-4.0522357874015746
20
6.0086583070866144
11
-4.0483178740157477
21
5.9997263385826773
0
LINE
8
BLACK
6
CONTINUOUS
10
-4.0483178740157477
20
5.9997263385826773
11
-4.0459235433070866
21
5.9902713385826774
0
LINE
8
BLACK
6
CONTINUOUS
10
-4.0459235433070866
20
5.9902713385826774
11
-4.0451181102362206
21
5.9805511811023617
0
LINE
8
BLACK
6
CONTINUOUS
10
-4.0451181102362206
20
5.9805511811023617
11
-4.0459235433070866
21
5.970831023622047
0
LINE
8
BLACK
6
CONTINUOUS
10
-4.0459235433070866
20
5.970831023622047
11
-4.0483178740157477
21
5.961376023622047
0
LINE
8
BLACK
6
CONTINUOUS
10
-4.0483178740157477
20
5.961376023622047
11
-4.0522357874015746
21
5.9524440551181099
0
LINE
8
BLACK
6
CONTINUOUS
10
-4.0522357874015746
20
5.9524440551181099
11
-4.0575704330708664
21
5.9442787795275587
0
LINE
8
BLACK
6
CONTINUOUS
10
-4.0575704330708664
20
5.9442787795275587
11
-4.0641762992125985
21
5.9371029133858269
0
LINE
8
BLACK
6
CONTINUOUS
10
-4.0641762992125985
20
5.9371029133858269
11
-4.071873149606299
21
5.9311122047244096
0
LINE
8
BLACK
6
CONTINUOUS
10
-4.071873149606299
20
5.9311122047244096
11
-4.0804510629921262
21
5.9264700787401576
0
LINE
8
BLACK
6
CONTINUOUS
10
-4.0804510629921262
20
5.9264700787401576
11
-4.089676062992126
21
5.9233031496062987
0
LINE
8
BLACK
6
CONTINUOUS
10
-4.089676062992126
20
5.9233031496062987
11
-4.0992964960629923
21
5.9216977559055115
0
LINE
8
BLACK
6
CONTINUOUS
10
-4.0992964960629923
20
5.9216977559055115
11
-4.1090499606299211
21
5.9216977559055115
0
LINE
8
BLACK
6
CONTINUOUS
10
-4.1090499606299211
20
5.9216977559055115
11
-4.1186703937007874
21
5.9233031496062987
0
LINE
8
BLACK
6
CONTINUOUS
10
-4.1186703937007874
20
5.9233031496062987
11
-4.1278953937007872
21
5.9264700787401576
0
LINE
8
BLACK
6
CONTINUOUS
10
-4.1278953937007872
20
5.9264700787401576
11
-4.1364733070866144
21
5.9311122047244096
0
LINE
8
BLACK
6
CONTINUOUS
10
-4.1364733070866144
20
5.9311122047244096
11
-4.1441701574803149
21
5.9371029133858269
0
LINE
8
BLACK
6
CONTINUOUS
10
-4.1441701574803149
20
5.9371029133858269
11
-4.150776023622047
21
5.9442787795275587
0
LINE
8
BLACK
6
CONTINUOUS
10
-4.150776023622047
20
5.9442787795275587
11
-4.1561106692913388
21
5.9524440551181099
0
LINE
8
BLACK
6
CONTINUOUS
10
-4.1561106692913388
20
5.9524440551181099
11
-4.1600285826771657
21
5.961376023622047
0
LINE
8
BLACK
6
CONTINUOUS
10
-4.1600285826771657
20
5.961376023622047
11
-4.1624229133858268
21
5.970831023622047
0
LINE
8
BLACK
6
CONTINUOUS
10
-4.1624229133858268
20
5.970831023622047
11
-4.1632283464566928
21
5.9805511811023617
0
LINE
8
BLACK
6
CONTINUOUS
10
-4.1632283464566928
20
5.9805511811023617
11
-4.1624229133858268
21
5.9902713385826774
0
LINE
8
BLACK
6
CONTINUOUS
10
-4.1624229133858268
20
5.9902713385826774
11
-4.1600285826771657
21
5.9997263385826773
0
LINE
8
BLACK
6
CONTINUOUS
10
-4.1600285826771657
20
5.9997263385826773
11
-4.1561106692913388
21
6.0086583070866144
0
LINE
8
BLACK
6
CONTINUOUS
10
-4.1561106692913388
20
6.0086583070866144
11
-4.150776023622047
21
6.0168235826771657
0
LINE
8
BLACK
6
CONTINUOUS
10
-4.150776023622047
20
6.0168235826771657
11
-4.1441701574803149
21
6.0239994488188975
0
LINE
8
BLACK
6
CONTINUOUS
10
-4.1441701574803149
20
6.0239994488188975
11
-4.1364733070866144
21
6.0299901574803147
0
LINE
8
BLACK
6
CONTINUOUS
10
-4.1364733070866144
20
6.0299901574803147
11
-4.1278953937007872
21
6.0346322834645667
0
LINE
8
BLACK
6
CONTINUOUS
10
-4.1278953937007872
20
6.0346322834645667
11
-4.1186703937007874
21
6.0377992125984248
0
LINE
8
BLACK
6
CONTINUOUS
10
-4.1186703937007874
20
6.0377992125984248
11
-4.1090499606299211
21
6.0394046062992128
0
LINE
8
BLACK
6
CONTINUOUS
10
-4.1090499606299211
20
6.0394046062992128
11
-4.0992964960629923
21
6.0394046062992128
0
LINE
8
BLACK
6
CONTINUOUS
10
-4.0992964960629923
20
6.0394046062992128
11
-4.089676062992126
21
6.0377992125984248
  0
ENDSEC
  0
EOF
