  0
SECTION
  2
HEADER
  9
$ANGBASE
  50
0.0
  9
$ANGDIR
  70
1
  9
$MEASUREMENT
  70
0
  0
ENDSEC
  0
SECTION
  2
TABLES
  0
TABLE
  2
LTYPE
  70
4
  0
LTYPE
  5
40F
  2
CONTINUOUS
  70
0
  3
Solid line
  72
65
  73
0
  40
0.0
  0
LTYPE
  5
410
  2
DASHDOT
 70
0
  3
Dash Dot ____ _ ____ _
 72
65
 73
4
 40
2.0
 49
1.25
 49
-0.25
 49
0.25
 49
-0.25
  0
LTYPE
  5
411
  2
DASHED
 70
0
  3
Dashed __ __ __ __ __
 72
65
 73
2
 40
0.75
 49
0.5
 49
-0.25
  0
LTYPE
  5
43B
  2
DOTTED
 70
0
  3
Dotted .  .  .  .
 72
65
 73
2
 40
0.2
 49
0.0
 49
-0.2
  0
ENDTAB
  0
TABLE
  2
STYLE
  70
4
  0
STYLE
  2
KICAD
  70
0
  40
0
  41
1
  42
1
  50
0
  71
0
  3
isocp.shx
  0
STYLE
  2
KICADB
  70
0
  40
0
  41
1
  42
1
  50
0
  71
0
  3
isocp.shx
  0
STYLE
  2
KICADI
  70
0
  40
0
  41
1
  42
1
  50
15
  71
0
  3
isocp.shx
  0
STYLE
  2
KICADBI
  70
0
  40
0
  41
1
  42
1
  50
15
  71
0
  3
isocp.shx
  0
ENDTAB
  0
TABLE
  2
LAYER
  70
1
  0
LAYER
  2
BLACK
  70
0
  62
7
  6
CONTINUOUS
  0
ENDTAB
  0
ENDSEC
  0
SECTION
  2
ENTITIES
0
LINE
8
BLACK
6
CONTINUOUS
10
-4.0043561023622045
20
5.3717068897637796
11
-4.0037795275590549
21
5.370314960629921
0
LINE
8
BLACK
6
CONTINUOUS
10
-4.0037795275590549
20
5.370314960629921
11
-4.0037795275590549
21
5.1747472440944877
0
LINE
8
BLACK
6
CONTINUOUS
10
-4.0037795275590549
20
5.1747472440944877
11
-4.0043561023622045
21
5.1733553149606299
0
LINE
8
BLACK
6
CONTINUOUS
10
-4.0043561023622045
20
5.1733553149606299
11
-4.0057480314960632
21
5.1727787401574803
0
LINE
8
BLACK
6
CONTINUOUS
10
-4.0057480314960632
20
5.1727787401574803
11
-4.0071399606299209
21
5.1733553149606299
0
LINE
8
BLACK
6
CONTINUOUS
10
-4.0071399606299209
20
5.1733553149606299
11
-4.0077165354330706
21
5.1747472440944877
0
LINE
8
BLACK
6
CONTINUOUS
10
-4.0077165354330706
20
5.1747472440944877
11
-4.0077165354330706
21
5.1945906692913386
0
LINE
8
BLACK
6
CONTINUOUS
10
-4.0077165354330706
20
5.1945906692913386
11
-4.0491896456692915
21
5.1730011023622042
0
LINE
8
BLACK
6
CONTINUOUS
10
-4.0491896456692915
20
5.1730011023622042
11
-4.0506905118110232
21
5.1728698425196846
0
LINE
8
BLACK
6
CONTINUOUS
10
-4.0506905118110232
20
5.1728698425196846
11
-4.0518446850393701
21
5.1738382677165351
0
LINE
8
BLACK
6
CONTINUOUS
10
-4.0518446850393701
20
5.1738382677165351
11
-4.0519759448818897
21
5.1753391338582677
0
LINE
8
BLACK
6
CONTINUOUS
10
-4.0519759448818897
20
5.1753391338582677
11
-4.0510075196850392
21
5.1764933070866137
0
LINE
8
BLACK
6
CONTINUOUS
10
-4.0510075196850392
20
5.1764933070866137
11
-4.0137926377952757
21
5.1958661417322833
0
LINE
8
BLACK
6
CONTINUOUS
10
-4.0137926377952757
20
5.1958661417322833
11
-4.9819553543307089
21
5.1958661417322833
0
LINE
8
BLACK
6
CONTINUOUS
10
-4.9819553543307089
20
5.1958661417322833
11
-4.9447405118110233
21
5.1764933070866137
0
LINE
8
BLACK
6
CONTINUOUS
10
-4.9447405118110233
20
5.1764933070866137
11
-4.9437720866141728
21
5.1753391338582677
0
LINE
8
BLACK
6
CONTINUOUS
10
-4.9437720866141728
20
5.1753391338582677
11
-4.9439033858267711
21
5.1738382677165351
0
LINE
8
BLACK
6
CONTINUOUS
10
-4.9439033858267711
20
5.1738382677165351
11
-4.9450575196850393
21
5.1728698425196846
0
LINE
8
BLACK
6
CONTINUOUS
10
-4.9450575196850393
20
5.1728698425196846
11
-4.9465584251968506
21
5.173001141732283
0
LINE
8
BLACK
6
CONTINUOUS
10
-4.9465584251968506
20
5.173001141732283
11
-4.9880314960629919
21
5.1945906692913386
0
LINE
8
BLACK
6
CONTINUOUS
10
-4.9880314960629919
20
5.1945906692913386
11
-4.9880314960629919
21
5.1747472440944877
0
LINE
8
BLACK
6
CONTINUOUS
10
-4.9880314960629919
20
5.1747472440944877
11
-4.9886080708661416
21
5.1733553149606299
0
LINE
8
BLACK
6
CONTINUOUS
10
-4.9886080708661416
20
5.1733553149606299
11
-4.9900000000000002
21
5.1727787401574803
0
LINE
8
BLACK
6
CONTINUOUS
10
-4.9900000000000002
20
5.1727787401574803
11
-4.991391929133858
21
5.1733553149606299
0
LINE
8
BLACK
6
CONTINUOUS
10
-4.991391929133858
20
5.1733553149606299
11
-4.9919685039370076
21
5.1747472440944877
0
LINE
8
BLACK
6
CONTINUOUS
10
-4.9919685039370076
20
5.1747472440944877
11
-4.9919685039370076
21
5.370314960629921
0
LINE
8
BLACK
6
CONTINUOUS
10
-4.9919685039370076
20
5.370314960629921
11
-4.991391929133858
21
5.3717068897637796
0
LINE
8
BLACK
6
CONTINUOUS
10
-4.991391929133858
20
5.3717068897637796
11
-4.9900000000000002
21
5.3722834645669293
0
LINE
8
BLACK
6
CONTINUOUS
10
-4.9900000000000002
20
5.3722834645669293
11
-4.9886080708661416
21
5.3717068897637796
0
LINE
8
BLACK
6
CONTINUOUS
10
-4.9886080708661416
20
5.3717068897637796
11
-4.9880314960629919
21
5.370314960629921
0
LINE
8
BLACK
6
CONTINUOUS
10
-4.9880314960629919
20
5.370314960629921
11
-4.9880314960629919
21
5.2010786614173226
0
LINE
8
BLACK
6
CONTINUOUS
10
-4.9880314960629919
20
5.2010786614173226
11
-4.9465584251968506
21
5.2226681496062994
0
LINE
8
BLACK
6
CONTINUOUS
10
-4.9465584251968506
20
5.2226681496062994
11
-4.9450575196850393
21
5.2227994488188978
0
LINE
8
BLACK
6
CONTINUOUS
10
-4.9450575196850393
20
5.2227994488188978
11
-4.9439033858267711
21
5.2218310236220473
0
LINE
8
BLACK
6
CONTINUOUS
10
-4.9439033858267711
20
5.2218310236220473
11
-4.9437720866141728
21
5.2203301574803147
0
LINE
8
BLACK
6
CONTINUOUS
10
-4.9437720866141728
20
5.2203301574803147
11
-4.9447405118110233
21
5.2191759842519687
0
LINE
8
BLACK
6
CONTINUOUS
10
-4.9447405118110233
20
5.2191759842519687
11
-4.9819553543307089
21
5.1998031496062991
0
LINE
8
BLACK
6
CONTINUOUS
10
-4.9819553543307089
20
5.1998031496062991
11
-4.0137926377952757
21
5.1998031496062991
0
LINE
8
BLACK
6
CONTINUOUS
10
-4.0137926377952757
20
5.1998031496062991
11
-4.0510075196850392
21
5.2191759842519687
0
LINE
8
BLACK
6
CONTINUOUS
10
-4.0510075196850392
20
5.2191759842519687
11
-4.0519759448818897
21
5.2203301574803147
0
LINE
8
BLACK
6
CONTINUOUS
10
-4.0519759448818897
20
5.2203301574803147
11
-4.0518446850393701
21
5.2218310236220473
0
LINE
8
BLACK
6
CONTINUOUS
10
-4.0518446850393701
20
5.2218310236220473
11
-4.0506905118110232
21
5.2227994488188978
0
LINE
8
BLACK
6
CONTINUOUS
10
-4.0506905118110232
20
5.2227994488188978
11
-4.0491896456692915
21
5.2226681889763782
0
LINE
8
BLACK
6
CONTINUOUS
10
-4.0491896456692915
20
5.2226681889763782
11
-4.0077165354330706
21
5.2010786614173226
0
LINE
8
BLACK
6
CONTINUOUS
10
-4.0077165354330706
20
5.2010786614173226
11
-4.0077165354330706
21
5.370314960629921
0
LINE
8
BLACK
6
CONTINUOUS
10
-4.0077165354330706
20
5.370314960629921
11
-4.0071399606299209
21
5.3717068897637796
0
LINE
8
BLACK
6
CONTINUOUS
10
-4.0071399606299209
20
5.3717068897637796
11
-4.0057480314960632
21
5.3722834645669293
0
LINE
8
BLACK
6
CONTINUOUS
10
-4.0057480314960632
20
5.3722834645669293
11
-4.0043561023622045
21
5.3717068897637796
0
LINE
8
BLACK
6
CONTINUOUS
10
-4.5793537795275592
20
5.2673487401574803
11
-4.5792185433070864
21
5.2672352755905507
0
LINE
8
BLACK
6
CONTINUOUS
10
-4.5792185433070864
20
5.2672352755905507
11
-4.5790431889763781
21
5.2672150787401577
0
LINE
8
BLACK
6
CONTINUOUS
10
-4.5790431889763781
20
5.2672150787401577
11
-4.575293661417323
21
5.2653403149606302
0
LINE
8
BLACK
6
CONTINUOUS
10
-4.575293661417323
20
5.2653403149606302
11
-4.5745846062992124
21
5.2648144094488192
0
LINE
8
BLACK
6
CONTINUOUS
10
-4.5745846062992124
20
5.2648144094488192
11
-4.5745262598425196
21
5.2647872047244091
0
LINE
8
BLACK
6
CONTINUOUS
10
-4.5745262598425196
20
5.2647872047244091
11
-4.572651496062992
21
5.2629124409448815
0
LINE
8
BLACK
6
CONTINUOUS
10
-4.572651496062992
20
5.2629124409448815
11
-4.5721452362204724
21
5.2621893700787403
0
LINE
8
BLACK
6
CONTINUOUS
10
-4.5721452362204724
20
5.2621893700787403
11
-4.5720983858267719
21
5.262145039370079
0
LINE
8
BLACK
6
CONTINUOUS
10
-4.5720983858267719
20
5.262145039370079
11
-4.5702236220472443
21
5.2583955118110239
0
LINE
8
BLACK
6
CONTINUOUS
10
-4.5702236220472443
20
5.2583955118110239
11
-4.5699312598425195
21
5.2574125984251969
0
LINE
8
BLACK
6
CONTINUOUS
10
-4.5699312598425195
20
5.2574125984251969
11
-4.5699722834645664
21
5.2572409055118108
0
LINE
8
BLACK
6
CONTINUOUS
10
-4.5699722834645664
20
5.2572409055118108
11
-4.5699118897637794
21
5.2570749999999995
0
LINE
8
BLACK
6
CONTINUOUS
10
-4.5699118897637794
20
5.2570749999999995
11
-4.5699118897637794
21
5.2533254724409444
0
LINE
8
BLACK
6
CONTINUOUS
10
-4.5699118897637794
20
5.2533254724409444
11
-4.5700651968503934
21
5.2524561023622045
0
LINE
8
BLACK
6
CONTINUOUS
10
-4.5700651968503934
20
5.2524561023622045
11
-4.5700634251968504
21
5.2523916929133856
0
LINE
8
BLACK
6
CONTINUOUS
10
-4.5700634251968504
20
5.2523916929133856
11
-4.5719381889763779
21
5.2467674409448817
0
LINE
8
BLACK
6
CONTINUOUS
10
-4.5719381889763779
20
5.2467674409448817
11
-4.5724264960629917
21
5.2458656692913381
0
LINE
8
BLACK
6
CONTINUOUS
10
-4.5724264960629917
20
5.2458656692913381
11
-4.5725768897637797
21
5.2457733070866137
0
LINE
8
BLACK
6
CONTINUOUS
10
-4.5725768897637797
20
5.2457733070866137
11
-4.572651496062992
21
5.2456132677165357
0
LINE
8
BLACK
6
CONTINUOUS
10
-4.572651496062992
20
5.2456132677165357
11
-4.5901079921259837
21
5.2281567322834643
0
LINE
8
BLACK
6
CONTINUOUS
10
-4.5901079921259837
20
5.2281567322834643
11
-4.5728646456692914
21
5.2281567322834643
0
LINE
8
BLACK
6
CONTINUOUS
10
-4.5728646456692914
20
5.2281567322834643
11
-4.571854724409449
21
5.2279786614173229
0
LINE
8
BLACK
6
CONTINUOUS
10
-4.571854724409449
20
5.2279786614173229
11
-4.5703074803149608
21
5.2266803543307088
0
LINE
8
BLACK
6
CONTINUOUS
10
-4.5703074803149608
20
5.2266803543307088
11
-4.5699567322834644
21
5.2246912204724412
0
LINE
8
BLACK
6
CONTINUOUS
10
-4.5699567322834644
20
5.2246912204724412
11
-4.5709666535433069
21
5.2229420472440946
0
LINE
8
BLACK
6
CONTINUOUS
10
-4.5709666535433069
20
5.2229420472440946
11
-4.5728646456692914
21
5.2222512204724412
0
LINE
8
BLACK
6
CONTINUOUS
10
-4.5728646456692914
20
5.2222512204724412
11
-4.5972365748031496
21
5.2222512204724412
0
LINE
8
BLACK
6
CONTINUOUS
10
-4.5972365748031496
20
5.2222512204724412
11
-4.597871338582677
21
5.2223631496062994
0
LINE
8
BLACK
6
CONTINUOUS
10
-4.597871338582677
20
5.2223631496062994
11
-4.5980007874015749
21
5.2223518110236222
0
LINE
8
BLACK
6
CONTINUOUS
10
-4.5980007874015749
20
5.2223518110236222
11
-4.5980660236220467
21
5.2223974803149602
0
LINE
8
BLACK
6
CONTINUOUS
10
-4.5980660236220467
20
5.2223974803149602
11
-4.5982464960629921
21
5.2224292913385826
0
LINE
8
BLACK
6
CONTINUOUS
10
-4.5982464960629921
20
5.2224292913385826
11
-4.5989273622047246
21
5.2230005905511812
0
LINE
8
BLACK
6
CONTINUOUS
10
-4.5989273622047246
20
5.2230005905511812
11
-4.5996553543307082
21
5.2235103543307089
0
LINE
8
BLACK
6
CONTINUOUS
10
-4.5996553543307082
20
5.2235103543307089
11
-4.5996903149606299
21
5.2236408267716534
0
LINE
8
BLACK
6
CONTINUOUS
10
-4.5996903149606299
20
5.2236408267716534
11
-4.5997937401574802
21
5.2237275984251967
0
LINE
8
BLACK
6
CONTINUOUS
10
-4.5997937401574802
20
5.2237275984251967
11
-4.5999481102362205
21
5.2246029527559052
0
LINE
8
BLACK
6
CONTINUOUS
10
-4.5999481102362205
20
5.2246029527559052
11
-4.6001780708661419
21
5.2254612992125979
0
LINE
8
BLACK
6
CONTINUOUS
10
-4.6001780708661419
20
5.2254612992125979
11
-4.6001210236220471
21
5.225583661417323
0
LINE
8
BLACK
6
CONTINUOUS
10
-4.6001210236220471
20
5.225583661417323
11
-4.6001444881889766
21
5.2257167322834643
0
LINE
8
BLACK
6
CONTINUOUS
10
-4.6001444881889766
20
5.2257167322834643
11
-4.5996999999999995
21
5.226486653543307
0
LINE
8
BLACK
6
CONTINUOUS
10
-4.5996999999999995
20
5.226486653543307
11
-4.5993244881889765
21
5.2272918897637792
0
LINE
8
BLACK
6
CONTINUOUS
10
-4.5993244881889765
20
5.2272918897637792
11
-4.5773202362204719
21
5.2492962204724405
0
LINE
8
BLACK
6
CONTINUOUS
10
-4.5773202362204719
20
5.2492962204724405
11
-4.5758174015748034
21
5.2538046062992123
0
LINE
8
BLACK
6
CONTINUOUS
10
-4.5758174015748034
20
5.2538046062992123
11
-4.5758174015748034
21
5.2563779527559058
0
LINE
8
BLACK
6
CONTINUOUS
10
-4.5758174015748034
20
5.2563779527559058
11
-4.5771661417322838
21
5.2590754330708664
0
LINE
8
BLACK
6
CONTINUOUS
10
-4.5771661417322838
20
5.2590754330708664
11
-4.5783632677165356
21
5.2602725590551183
0
LINE
8
BLACK
6
CONTINUOUS
10
-4.5783632677165356
20
5.2602725590551183
11
-4.5810607480314962
21
5.2616212992125986
0
LINE
8
BLACK
6
CONTINUOUS
10
-4.5810607480314962
20
5.2616212992125986
11
-4.5890404724409448
21
5.2616212992125986
0
LINE
8
BLACK
6
CONTINUOUS
10
-4.5890404724409448
20
5.2616212992125986
11
-4.5917379527559055
21
5.2602725590551183
0
LINE
8
BLACK
6
CONTINUOUS
10
-4.5917379527559055
20
5.2602725590551183
11
-4.5932738976377951
21
5.2587366141732286
0
LINE
8
BLACK
6
CONTINUOUS
10
-4.5932738976377951
20
5.2587366141732286
11
-4.5941139370078741
21
5.2581484251968504
0
LINE
8
BLACK
6
CONTINUOUS
10
-4.5941139370078741
20
5.2581484251968504
11
-4.5961260236220474
21
5.2579723622047245
0
LINE
8
BLACK
6
CONTINUOUS
10
-4.5961260236220474
20
5.2579723622047245
11
-4.5977805905511806
21
5.2591309055118112
0
LINE
8
BLACK
6
CONTINUOUS
10
-4.5977805905511806
20
5.2591309055118112
11
-4.5983033070866144
21
5.2610818503937002
0
LINE
8
BLACK
6
CONTINUOUS
10
-4.5983033070866144
20
5.2610818503937002
11
-4.597449724409449
21
5.2629124409448815
0
LINE
8
BLACK
6
CONTINUOUS
10
-4.597449724409449
20
5.2629124409448815
11
-4.5955749606299214
21
5.2647872047244091
0
LINE
8
BLACK
6
CONTINUOUS
10
-4.5955749606299214
20
5.2647872047244091
11
-4.5948518897637793
21
5.2652935039370075
0
LINE
8
BLACK
6
CONTINUOUS
10
-4.5948518897637793
20
5.2652935039370075
11
-4.5948075590551181
21
5.2653403149606302
0
LINE
8
BLACK
6
CONTINUOUS
10
-4.5948075590551181
20
5.2653403149606302
11
-4.591058031496063
21
5.2672150787401577
0
LINE
8
BLACK
6
CONTINUOUS
10
-4.591058031496063
20
5.2672150787401577
11
-4.5900751181102359
21
5.2675074409448817
0
LINE
8
BLACK
6
CONTINUOUS
10
-4.5900751181102359
20
5.2675074409448817
11
-4.5899034251968507
21
5.2674664566929135
0
LINE
8
BLACK
6
CONTINUOUS
10
-4.5899034251968507
20
5.2674664566929135
11
-4.5897375196850394
21
5.2675268110236217
0
LINE
8
BLACK
6
CONTINUOUS
10
-4.5897375196850394
20
5.2675268110236217
11
-4.5803637007874016
21
5.2675268110236217
0
LINE
8
BLACK
6
CONTINUOUS
10
-4.5803637007874016
20
5.2675268110236217
11
-4.5793537795275592
21
5.2673487401574803
0
LINE
8
BLACK
6
CONTINUOUS
10
-4.5362341732283467
20
5.2673487401574803
11
-4.5346869291338585
21
5.2660504330708662
0
LINE
8
BLACK
6
CONTINUOUS
10
-4.5346869291338585
20
5.2660504330708662
11
-4.5343361811023621
21
5.2640612992125986
0
LINE
8
BLACK
6
CONTINUOUS
10
-4.5343361811023621
20
5.2640612992125986
11
-4.5353461023622046
21
5.262312125984252
0
LINE
8
BLACK
6
CONTINUOUS
10
-4.5353461023622046
20
5.262312125984252
11
-4.5372440944881891
21
5.2616212992125986
0
LINE
8
BLACK
6
CONTINUOUS
10
-4.5372440944881891
20
5.2616212992125986
11
-4.5533195275590552
21
5.2616212992125986
0
LINE
8
BLACK
6
CONTINUOUS
10
-4.5533195275590552
20
5.2616212992125986
11
-4.5542966535433074
21
5.2518500393700789
0
LINE
8
BLACK
6
CONTINUOUS
10
-4.5542966535433074
20
5.2518500393700789
11
-4.5535627165354331
21
5.2522169685039373
0
LINE
8
BLACK
6
CONTINUOUS
10
-4.5535627165354331
20
5.2522169685039373
11
-4.5525798031496061
21
5.2525093307086612
0
LINE
8
BLACK
6
CONTINUOUS
10
-4.5525798031496061
20
5.2525093307086612
11
-4.5524081102362199
21
5.252468346456693
0
LINE
8
BLACK
6
CONTINUOUS
10
-4.5524081102362199
20
5.252468346456693
11
-4.5522422047244095
21
5.2525287007874013
0
LINE
8
BLACK
6
CONTINUOUS
10
-4.5522422047244095
20
5.2525287007874013
11
-4.5428683858267718
21
5.2525287007874013
0
LINE
8
BLACK
6
CONTINUOUS
10
-4.5428683858267718
20
5.2525287007874013
11
-4.5418584645669293
21
5.2523506299212599
0
LINE
8
BLACK
6
CONTINUOUS
10
-4.5418584645669293
20
5.2523506299212599
11
-4.5417232283464566
21
5.2522371653543303
0
LINE
8
BLACK
6
CONTINUOUS
10
-4.5417232283464566
20
5.2522371653543303
11
-4.5415478740157482
21
5.2522169685039373
0
LINE
8
BLACK
6
CONTINUOUS
10
-4.5415478740157482
20
5.2522169685039373
11
-4.5377983464566931
21
5.2503422047244097
0
LINE
8
BLACK
6
CONTINUOUS
10
-4.5377983464566931
20
5.2503422047244097
11
-4.5370892913385825
21
5.2498162992125987
0
LINE
8
BLACK
6
CONTINUOUS
10
-4.5370892913385825
20
5.2498162992125987
11
-4.5370309448818897
21
5.2497890944881886
0
LINE
8
BLACK
6
CONTINUOUS
10
-4.5370309448818897
20
5.2497890944881886
11
-4.5351561811023622
21
5.2479143307086611
0
LINE
8
BLACK
6
CONTINUOUS
10
-4.5351561811023622
20
5.2479143307086611
11
-4.5346499212598426
21
5.2471912598425199
0
LINE
8
BLACK
6
CONTINUOUS
10
-4.5346499212598426
20
5.2471912598425199
11
-4.534603070866142
21
5.2471469291338577
0
LINE
8
BLACK
6
CONTINUOUS
10
-4.534603070866142
20
5.2471469291338577
11
-4.5327283070866144
21
5.2433974015748026
0
LINE
8
BLACK
6
CONTINUOUS
10
-4.5327283070866144
20
5.2433974015748026
11
-4.5324359448818896
21
5.2424144881889765
0
LINE
8
BLACK
6
CONTINUOUS
10
-4.5324359448818896
20
5.2424144881889765
11
-4.5324769685039366
21
5.2422427952755903
0
LINE
8
BLACK
6
CONTINUOUS
10
-4.5324769685039366
20
5.2422427952755903
11
-4.5324165748031495
21
5.2420768897637791
0
LINE
8
BLACK
6
CONTINUOUS
10
-4.5324165748031495
20
5.2420768897637791
11
-4.5324165748031495
21
5.2327030708661413
0
LINE
8
BLACK
6
CONTINUOUS
10
-4.5324165748031495
20
5.2327030708661413
11
-4.5325946456692909
21
5.2316931496062988
0
LINE
8
BLACK
6
CONTINUOUS
10
-4.5325946456692909
20
5.2316931496062988
11
-4.5327081496062993
21
5.231557913385827
0
LINE
8
BLACK
6
CONTINUOUS
10
-4.5327081496062993
20
5.231557913385827
11
-4.5327283070866144
21
5.2313825590551177
0
LINE
8
BLACK
6
CONTINUOUS
10
-4.5327283070866144
20
5.2313825590551177
11
-4.534603070866142
21
5.2276330314960626
0
LINE
8
BLACK
6
CONTINUOUS
10
-4.534603070866142
20
5.2276330314960626
11
-4.5351290157480317
21
5.2269239763779529
0
LINE
8
BLACK
6
CONTINUOUS
10
-4.5351290157480317
20
5.2269239763779529
11
-4.5351561811023622
21
5.2268656299212601
0
LINE
8
BLACK
6
CONTINUOUS
10
-4.5351561811023622
20
5.2268656299212601
11
-4.537030905511811
21
5.2249908661417326
0
LINE
8
BLACK
6
CONTINUOUS
10
-4.537030905511811
20
5.2249908661417326
11
-4.5377540944881884
21
5.2244844881889758
0
LINE
8
BLACK
6
CONTINUOUS
10
-4.5377540944881884
20
5.2244844881889758
11
-4.5377983464566931
21
5.2244377165354328
0
LINE
8
BLACK
6
CONTINUOUS
10
-4.5377983464566931
20
5.2244377165354328
11
-4.5415478740157482
21
5.2225629527559052
0
LINE
8
BLACK
6
CONTINUOUS
10
-4.5415478740157482
20
5.2225629527559052
11
-4.5425308267716531
21
5.2222705905511813
0
LINE
8
BLACK
6
CONTINUOUS
10
-4.5425308267716531
20
5.2222705905511813
11
-4.5427025196850392
21
5.2223116141732282
0
LINE
8
BLACK
6
CONTINUOUS
10
-4.5427025196850392
20
5.2223116141732282
11
-4.5428683858267718
21
5.2222512204724412
0
LINE
8
BLACK
6
CONTINUOUS
10
-4.5428683858267718
20
5.2222512204724412
11
-4.5522422047244095
21
5.2222512204724412
0
LINE
8
BLACK
6
CONTINUOUS
10
-4.5522422047244095
20
5.2222512204724412
11
-4.553252125984252
21
5.2224292913385826
0
LINE
8
BLACK
6
CONTINUOUS
10
-4.553252125984252
20
5.2224292913385826
11
-4.5533874015748035
21
5.2225427952755901
0
LINE
8
BLACK
6
CONTINUOUS
10
-4.5533874015748035
20
5.2225427952755901
11
-4.5535627165354331
21
5.2225629527559052
0
LINE
8
BLACK
6
CONTINUOUS
10
-4.5535627165354331
20
5.2225629527559052
11
-4.5573122440944882
21
5.2244377165354328
0
LINE
8
BLACK
6
CONTINUOUS
10
-4.5573122440944882
20
5.2244377165354328
11
-4.5580213779527554
21
5.2249637007874012
0
LINE
8
BLACK
6
CONTINUOUS
10
-4.5580213779527554
20
5.2249637007874012
11
-4.5580796850393703
21
5.2249908661417326
0
LINE
8
BLACK
6
CONTINUOUS
10
-4.5580796850393703
20
5.2249908661417326
11
-4.5599544488188979
21
5.2268656692913389
0
LINE
8
BLACK
6
CONTINUOUS
10
-4.5599544488188979
20
5.2268656692913389
11
-4.5605426377952751
21
5.2277057086614169
0
LINE
8
BLACK
6
CONTINUOUS
10
-4.5605426377952751
20
5.2277057086614169
11
-4.5607186220472444
21
5.2297177952755902
0
LINE
8
BLACK
6
CONTINUOUS
10
-4.5607186220472444
20
5.2297177952755902
11
-4.5595601181102365
21
5.2313723228346456
0
LINE
8
BLACK
6
CONTINUOUS
10
-4.5595601181102365
20
5.2313723228346456
11
-4.5576091338582678
21
5.2318950393700785
0
LINE
8
BLACK
6
CONTINUOUS
10
-4.5576091338582678
20
5.2318950393700785
11
-4.5557785433070865
21
5.2310414173228343
0
LINE
8
BLACK
6
CONTINUOUS
10
-4.5557785433070865
20
5.2310414173228343
11
-4.5542426377952756
21
5.2295054724409447
0
LINE
8
BLACK
6
CONTINUOUS
10
-4.5542426377952756
20
5.2295054724409447
11
-4.551545157480315
21
5.2281567322834643
0
LINE
8
BLACK
6
CONTINUOUS
10
-4.551545157480315
20
5.2281567322834643
11
-4.5435654330708664
21
5.2281567322834643
0
LINE
8
BLACK
6
CONTINUOUS
10
-4.5435654330708664
20
5.2281567322834643
11
-4.5408679921259845
21
5.2295054724409447
0
LINE
8
BLACK
6
CONTINUOUS
10
-4.5408679921259845
20
5.2295054724409447
11
-4.5396708661417318
21
5.2307026377952752
0
LINE
8
BLACK
6
CONTINUOUS
10
-4.5396708661417318
20
5.2307026377952752
11
-4.5383220866141727
21
5.2334001181102359
0
LINE
8
BLACK
6
CONTINUOUS
10
-4.5383220866141727
20
5.2334001181102359
11
-4.5383220866141727
21
5.2413798425196854
0
LINE
8
BLACK
6
CONTINUOUS
10
-4.5383220866141727
20
5.2413798425196854
11
-4.539670826771653
21
5.2440773228346451
0
LINE
8
BLACK
6
CONTINUOUS
10
-4.539670826771653
20
5.2440773228346451
11
-4.5408679527559057
21
5.2452744488188978
0
LINE
8
BLACK
6
CONTINUOUS
10
-4.5408679527559057
20
5.2452744488188978
11
-4.5435654330708664
21
5.2466231889763781
0
LINE
8
BLACK
6
CONTINUOUS
10
-4.5435654330708664
20
5.2466231889763781
11
-4.551545157480315
21
5.2466231889763781
0
LINE
8
BLACK
6
CONTINUOUS
10
-4.551545157480315
20
5.2466231889763781
11
-4.5542426377952756
21
5.2452744488188978
0
LINE
8
BLACK
6
CONTINUOUS
10
-4.5542426377952756
20
5.2452744488188978
11
-4.5557785826771653
21
5.2437385039370081
0
LINE
8
BLACK
6
CONTINUOUS
10
-4.5557785826771653
20
5.2437385039370081
11
-4.5566186220472442
21
5.24315031496063
0
LINE
8
BLACK
6
CONTINUOUS
10
-4.5566186220472442
20
5.24315031496063
11
-4.5566379921259843
21
5.2431486614173224
0
LINE
8
BLACK
6
CONTINUOUS
10
-4.5566379921259843
20
5.2431486614173224
11
-4.5566518897637796
21
5.2431350393700784
0
LINE
8
BLACK
6
CONTINUOUS
10
-4.5566518897637796
20
5.2431350393700784
11
-4.5576424015748032
21
5.2430607480314961
0
LINE
8
BLACK
6
CONTINUOUS
10
-4.5576424015748032
20
5.2430607480314961
11
-4.5586307086614175
21
5.2429742519685041
0
LINE
8
BLACK
6
CONTINUOUS
10
-4.5586307086614175
20
5.2429742519685041
11
-4.558646653543307
21
5.2429854330708663
0
LINE
8
BLACK
6
CONTINUOUS
10
-4.558646653543307
20
5.2429854330708663
11
-4.5586660629921258
21
5.2429839370078737
0
LINE
8
BLACK
6
CONTINUOUS
10
-4.5586660629921258
20
5.2429839370078737
11
-4.5594729133858269
21
5.2435639763779527
0
LINE
8
BLACK
6
CONTINUOUS
10
-4.5594729133858269
20
5.2435639763779527
11
-4.5602852755905507
21
5.2441327952755907
0
LINE
8
BLACK
6
CONTINUOUS
10
-4.5602852755905507
20
5.2441327952755907
11
-4.5602903149606302
21
5.2441516141732283
0
LINE
8
BLACK
6
CONTINUOUS
10
-4.5602903149606302
20
5.2441516141732283
11
-4.5603060629921259
21
5.2441629133858267
0
LINE
8
BLACK
6
CONTINUOUS
10
-4.5603060629921259
20
5.2441629133858267
11
-4.5605510629921255
21
5.2451247244094485
0
LINE
8
BLACK
6
CONTINUOUS
10
-4.5605510629921255
20
5.2451247244094485
11
-4.5608079921259845
21
5.2460837401574798
0
LINE
8
BLACK
6
CONTINUOUS
10
-4.5608079921259845
20
5.2460837401574798
11
-4.5607998031496058
21
5.2461013385826769
0
LINE
8
BLACK
6
CONTINUOUS
10
-4.5607998031496058
20
5.2461013385826769
11
-4.5608046062992127
21
5.246120236220472
0
LINE
8
BLACK
6
CONTINUOUS
10
-4.5608046062992127
20
5.246120236220472
11
-4.5589298425196851
21
5.2648678740157475
0
LINE
8
BLACK
6
CONTINUOUS
10
-4.5589298425196851
20
5.2648678740157475
11
-4.5588875590551181
21
5.2650182283464568
0
LINE
8
BLACK
6
CONTINUOUS
10
-4.5588875590551181
20
5.2650182283464568
11
-4.5588996456692916
21
5.2650868110236217
0
LINE
8
BLACK
6
CONTINUOUS
10
-4.5588996456692916
20
5.2650868110236217
11
-4.5588384645669286
21
5.2651928346456689
0
LINE
8
BLACK
6
CONTINUOUS
10
-4.5588384645669286
20
5.2651928346456689
11
-4.5586521653543306
21
5.2658550393700789
0
LINE
8
BLACK
6
CONTINUOUS
10
-4.5586521653543306
20
5.2658550393700789
11
-4.5582032677165349
21
5.2662929527559053
0
LINE
8
BLACK
6
CONTINUOUS
10
-4.5582032677165349
20
5.2662929527559053
11
-4.5578897244094483
21
5.2668359842519683
0
LINE
8
BLACK
6
CONTINUOUS
10
-4.5578897244094483
20
5.2668359842519683
11
-4.5575018897637793
21
5.2669771653543309
0
LINE
8
BLACK
6
CONTINUOUS
10
-4.5575018897637793
20
5.2669771653543309
11
-4.5572063385826773
21
5.2672654330708664
0
LINE
8
BLACK
6
CONTINUOUS
10
-4.5572063385826773
20
5.2672654330708664
11
-4.556581023622047
21
5.2673123622047244
0
LINE
8
BLACK
6
CONTINUOUS
10
-4.556581023622047
20
5.2673123622047244
11
-4.5559917322834647
21
5.2675268110236217
0
LINE
8
BLACK
6
CONTINUOUS
10
-4.5559917322834647
20
5.2675268110236217
11
-4.5372440944881891
21
5.2675268110236217
0
LINE
8
BLACK
6
CONTINUOUS
10
-4.5372440944881891
20
5.2675268110236217
11
-4.5362341732283467
21
5.2673487401574803
0
LINE
8
BLACK
6
CONTINUOUS
10
-4.4762416535433074
20
5.2542253937007874
11
-4.4761064173228347
21
5.2541119291338578
0
LINE
8
BLACK
6
CONTINUOUS
10
-4.4761064173228347
20
5.2541119291338578
11
-4.4759310629921263
21
5.2540917322834648
0
LINE
8
BLACK
6
CONTINUOUS
10
-4.4759310629921263
20
5.2540917322834648
11
-4.4721815354330712
21
5.2522169685039373
0
LINE
8
BLACK
6
CONTINUOUS
10
-4.4721815354330712
20
5.2522169685039373
11
-4.4716116141732281
21
5.2517942913385829
0
LINE
8
BLACK
6
CONTINUOUS
10
-4.4716116141732281
20
5.2517942913385829
11
-4.4713769685039368
21
5.2518959842519681
0
LINE
8
BLACK
6
CONTINUOUS
10
-4.4713769685039368
20
5.2518959842519681
11
-4.4710730314960632
21
5.2522169685039373
0
LINE
8
BLACK
6
CONTINUOUS
10
-4.4710730314960632
20
5.2522169685039373
11
-4.4673235039370081
21
5.2540917322834648
0
LINE
8
BLACK
6
CONTINUOUS
10
-4.4673235039370081
20
5.2540917322834648
11
-4.466340590551181
21
5.2543840944881888
0
LINE
8
BLACK
6
CONTINUOUS
10
-4.466340590551181
20
5.2543840944881888
11
-4.4661688976377949
21
5.2543431102362206
0
LINE
8
BLACK
6
CONTINUOUS
10
-4.4661688976377949
20
5.2543431102362206
11
-4.4660029921259845
21
5.2544034645669289
0
LINE
8
BLACK
6
CONTINUOUS
10
-4.4660029921259845
20
5.2544034645669289
11
-4.4603787007874018
21
5.2544034645669289
0
LINE
8
BLACK
6
CONTINUOUS
10
-4.4603787007874018
20
5.2544034645669289
11
-4.4593687795275594
21
5.2542253937007874
0
LINE
8
BLACK
6
CONTINUOUS
10
-4.4593687795275594
20
5.2542253937007874
11
-4.4592335433070867
21
5.2541119291338578
0
LINE
8
BLACK
6
CONTINUOUS
10
-4.4592335433070867
20
5.2541119291338578
11
-4.4590581889763783
21
5.2540917322834648
0
LINE
8
BLACK
6
CONTINUOUS
10
-4.4590581889763783
20
5.2540917322834648
11
-4.4553086220472444
21
5.2522169685039373
0
LINE
8
BLACK
6
CONTINUOUS
10
-4.4553086220472444
20
5.2522169685039373
11
-4.4544849606299213
21
5.251606062992126
0
LINE
8
BLACK
6
CONTINUOUS
10
-4.4544849606299213
20
5.251606062992126
11
-4.4543091338582679
21
5.2512003937007874
0
LINE
8
BLACK
6
CONTINUOUS
10
-4.4543091338582679
20
5.2512003937007874
11
-4.45398811023622
21
5.2508964566929128
0
LINE
8
BLACK
6
CONTINUOUS
10
-4.45398811023622
20
5.2508964566929128
11
-4.4521133464566924
21
5.2471469291338577
0
LINE
8
BLACK
6
CONTINUOUS
10
-4.4521133464566924
20
5.2471469291338577
11
-4.4518209842519685
21
5.2461640157480316
0
LINE
8
BLACK
6
CONTINUOUS
10
-4.4518209842519685
20
5.2461640157480316
11
-4.4518620078740154
21
5.2459923228346454
0
LINE
8
BLACK
6
CONTINUOUS
10
-4.4518620078740154
20
5.2459923228346454
11
-4.4518016141732284
21
5.2458264173228342
0
LINE
8
BLACK
6
CONTINUOUS
10
-4.4518016141732284
20
5.2458264173228342
11
-4.4518016141732284
21
5.2252039763779523
0
LINE
8
BLACK
6
CONTINUOUS
10
-4.4518016141732284
20
5.2252039763779523
11
-4.4519796850393698
21
5.2241940551181099
0
LINE
8
BLACK
6
CONTINUOUS
10
-4.4519796850393698
20
5.2241940551181099
11
-4.453277992125984
21
5.2226468110236217
0
LINE
8
BLACK
6
CONTINUOUS
10
-4.453277992125984
20
5.2226468110236217
11
-4.4552671259842516
21
5.2222960629921262
0
LINE
8
BLACK
6
CONTINUOUS
10
-4.4552671259842516
20
5.2222960629921262
11
-4.4570162992125981
21
5.2233059842519687
0
LINE
8
BLACK
6
CONTINUOUS
10
-4.4570162992125981
20
5.2233059842519687
11
-4.4577071259842516
21
5.2252039763779523
0
LINE
8
BLACK
6
CONTINUOUS
10
-4.4577071259842516
20
5.2252039763779523
11
-4.4577071259842516
21
5.2451293700787405
0
LINE
8
BLACK
6
CONTINUOUS
10
-4.4577071259842516
20
5.2451293700787405
11
-4.4588299999999998
21
5.2473751181102362
0
LINE
8
BLACK
6
CONTINUOUS
10
-4.4588299999999998
20
5.2473751181102362
11
-4.4610757480314955
21
5.2484979527559057
0
LINE
8
BLACK
6
CONTINUOUS
10
-4.4610757480314955
20
5.2484979527559057
11
-4.4653059448818899
21
5.2484979527559057
0
LINE
8
BLACK
6
CONTINUOUS
10
-4.4653059448818899
20
5.2484979527559057
11
-4.4675516929133856
21
5.2473751181102362
0
LINE
8
BLACK
6
CONTINUOUS
10
-4.4675516929133856
20
5.2473751181102362
11
-4.4686745275590551
21
5.2451293700787405
0
LINE
8
BLACK
6
CONTINUOUS
10
-4.4686745275590551
20
5.2451293700787405
11
-4.4686745275590551
21
5.2252039763779523
0
LINE
8
BLACK
6
CONTINUOUS
10
-4.4686745275590551
20
5.2252039763779523
11
-4.4688525984251966
21
5.2241940551181099
0
LINE
8
BLACK
6
CONTINUOUS
10
-4.4688525984251966
20
5.2241940551181099
11
-4.4701509055118107
21
5.2226468110236217
0
LINE
8
BLACK
6
CONTINUOUS
10
-4.4701509055118107
20
5.2226468110236217
11
-4.4721400393700783
21
5.2222960629921262
0
LINE
8
BLACK
6
CONTINUOUS
10
-4.4721400393700783
20
5.2222960629921262
11
-4.4738892125984249
21
5.2233059842519687
0
LINE
8
BLACK
6
CONTINUOUS
10
-4.4738892125984249
20
5.2233059842519687
11
-4.4745800393700783
21
5.2252039763779523
0
LINE
8
BLACK
6
CONTINUOUS
10
-4.4745800393700783
20
5.2252039763779523
11
-4.4745800393700783
21
5.2451293700787405
0
LINE
8
BLACK
6
CONTINUOUS
10
-4.4745800393700783
20
5.2451293700787405
11
-4.4757029133858266
21
5.2473751181102362
0
LINE
8
BLACK
6
CONTINUOUS
10
-4.4757029133858266
20
5.2473751181102362
11
-4.4779486220472444
21
5.2484979527559057
0
LINE
8
BLACK
6
CONTINUOUS
10
-4.4779486220472444
20
5.2484979527559057
11
-4.4821788188976379
21
5.2484979527559057
0
LINE
8
BLACK
6
CONTINUOUS
10
-4.4821788188976379
20
5.2484979527559057
11
-4.4848762992125986
21
5.2471492125984254
0
LINE
8
BLACK
6
CONTINUOUS
10
-4.4848762992125986
20
5.2471492125984254
11
-4.4855474015748031
21
5.2464781102362208
0
LINE
8
BLACK
6
CONTINUOUS
10
-4.4855474015748031
20
5.2464781102362208
11
-4.4855474015748031
21
5.2252039763779523
0
LINE
8
BLACK
6
CONTINUOUS
10
-4.4855474015748031
20
5.2252039763779523
11
-4.4857254724409446
21
5.2241940551181099
0
LINE
8
BLACK
6
CONTINUOUS
10
-4.4857254724409446
20
5.2241940551181099
11
-4.4870237795275587
21
5.2226468110236217
0
LINE
8
BLACK
6
CONTINUOUS
10
-4.4870237795275587
20
5.2226468110236217
11
-4.4890129133858263
21
5.2222960629921262
0
LINE
8
BLACK
6
CONTINUOUS
10
-4.4890129133858263
20
5.2222960629921262
11
-4.4907620866141729
21
5.2233059842519687
0
LINE
8
BLACK
6
CONTINUOUS
10
-4.4907620866141729
20
5.2233059842519687
11
-4.4914529133858263
21
5.2252039763779523
0
LINE
8
BLACK
6
CONTINUOUS
10
-4.4914529133858263
20
5.2252039763779523
11
-4.4914529133858263
21
5.2514507086614168
0
LINE
8
BLACK
6
CONTINUOUS
10
-4.4914529133858263
20
5.2514507086614168
11
-4.4912748425196849
21
5.2524606299212593
0
LINE
8
BLACK
6
CONTINUOUS
10
-4.4912748425196849
20
5.2524606299212593
11
-4.4899765354330707
21
5.2540078740157483
0
LINE
8
BLACK
6
CONTINUOUS
10
-4.4899765354330707
20
5.2540078740157483
11
-4.4879874015748031
21
5.2543586220472438
0
LINE
8
BLACK
6
CONTINUOUS
10
-4.4879874015748031
20
5.2543586220472438
11
-4.4862382283464566
21
5.2533487007874013
0
LINE
8
BLACK
6
CONTINUOUS
10
-4.4862382283464566
20
5.2533487007874013
11
-4.4861526771653546
21
5.2531136220472439
0
LINE
8
BLACK
6
CONTINUOUS
10
-4.4861526771653546
20
5.2531136220472439
11
-4.4841963779527561
21
5.2540917322834648
0
LINE
8
BLACK
6
CONTINUOUS
10
-4.4841963779527561
20
5.2540917322834648
11
-4.483213464566929
21
5.2543840944881888
0
LINE
8
BLACK
6
CONTINUOUS
10
-4.483213464566929
20
5.2543840944881888
11
-4.4830417716535429
21
5.2543431102362206
0
LINE
8
BLACK
6
CONTINUOUS
10
-4.4830417716535429
20
5.2543431102362206
11
-4.4828758661417325
21
5.2544034645669289
0
LINE
8
BLACK
6
CONTINUOUS
10
-4.4828758661417325
20
5.2544034645669289
11
-4.4772515748031498
21
5.2544034645669289
0
LINE
8
BLACK
6
CONTINUOUS
10
-4.4772515748031498
20
5.2544034645669289
11
-4.4762416535433074
21
5.2542253937007874
0
LINE
8
BLACK
6
CONTINUOUS
10
-4.4237482283464562
20
5.2542253937007874
11
-4.4236129921259844
21
5.2541119291338578
0
LINE
8
BLACK
6
CONTINUOUS
10
-4.4236129921259844
20
5.2541119291338578
11
-4.4234376377952751
21
5.2540917322834648
0
LINE
8
BLACK
6
CONTINUOUS
10
-4.4234376377952751
20
5.2540917322834648
11
-4.41968811023622
21
5.2522169685039373
0
LINE
8
BLACK
6
CONTINUOUS
10
-4.41968811023622
20
5.2522169685039373
11
-4.4191181889763778
21
5.2517942913385829
0
LINE
8
BLACK
6
CONTINUOUS
10
-4.4191181889763778
20
5.2517942913385829
11
-4.4188835433070865
21
5.2518959842519681
0
LINE
8
BLACK
6
CONTINUOUS
10
-4.4188835433070865
20
5.2518959842519681
11
-4.4185796062992129
21
5.2522169685039373
0
LINE
8
BLACK
6
CONTINUOUS
10
-4.4185796062992129
20
5.2522169685039373
11
-4.4148300787401578
21
5.2540917322834648
0
LINE
8
BLACK
6
CONTINUOUS
10
-4.4148300787401578
20
5.2540917322834648
11
-4.4138471653543307
21
5.2543840944881888
0
LINE
8
BLACK
6
CONTINUOUS
10
-4.4138471653543307
20
5.2543840944881888
11
-4.4136754724409446
21
5.2543431102362206
0
LINE
8
BLACK
6
CONTINUOUS
10
-4.4136754724409446
20
5.2543431102362206
11
-4.4135095669291333
21
5.2544034645669289
0
LINE
8
BLACK
6
CONTINUOUS
10
-4.4135095669291333
20
5.2544034645669289
11
-4.4078852755905507
21
5.2544034645669289
0
LINE
8
BLACK
6
CONTINUOUS
10
-4.4078852755905507
20
5.2544034645669289
11
-4.4068753543307082
21
5.2542253937007874
0
LINE
8
BLACK
6
CONTINUOUS
10
-4.4068753543307082
20
5.2542253937007874
11
-4.4067401181102364
21
5.2541119291338578
0
LINE
8
BLACK
6
CONTINUOUS
10
-4.4067401181102364
20
5.2541119291338578
11
-4.4065647637795271
21
5.2540917322834648
0
LINE
8
BLACK
6
CONTINUOUS
10
-4.4065647637795271
20
5.2540917322834648
11
-4.4028151968503932
21
5.2522169685039373
0
LINE
8
BLACK
6
CONTINUOUS
10
-4.4028151968503932
20
5.2522169685039373
11
-4.401991535433071
21
5.251606062992126
0
LINE
8
BLACK
6
CONTINUOUS
10
-4.401991535433071
20
5.251606062992126
11
-4.4018157086614176
21
5.2512003937007874
0
LINE
8
BLACK
6
CONTINUOUS
10
-4.4018157086614176
20
5.2512003937007874
11
-4.4014946850393697
21
5.2508964566929128
0
LINE
8
BLACK
6
CONTINUOUS
10
-4.4014946850393697
20
5.2508964566929128
11
-4.3996199212598421
21
5.2471469291338577
0
LINE
8
BLACK
6
CONTINUOUS
10
-4.3996199212598421
20
5.2471469291338577
11
-4.3993275590551182
21
5.2461640157480316
0
LINE
8
BLACK
6
CONTINUOUS
10
-4.3993275590551182
20
5.2461640157480316
11
-4.3993685826771651
21
5.2459923228346454
0
LINE
8
BLACK
6
CONTINUOUS
10
-4.3993685826771651
20
5.2459923228346454
11
-4.3993081889763781
21
5.2458264173228342
0
LINE
8
BLACK
6
CONTINUOUS
10
-4.3993081889763781
20
5.2458264173228342
11
-4.3993081889763781
21
5.2252039763779523
0
LINE
8
BLACK
6
CONTINUOUS
10
-4.3993081889763781
20
5.2252039763779523
11
-4.3994862598425195
21
5.2241940551181099
0
LINE
8
BLACK
6
CONTINUOUS
10
-4.3994862598425195
20
5.2241940551181099
11
-4.4007845669291337
21
5.2226468110236217
0
LINE
8
BLACK
6
CONTINUOUS
10
-4.4007845669291337
20
5.2226468110236217
11
-4.4027737007874013
21
5.2222960629921262
0
LINE
8
BLACK
6
CONTINUOUS
10
-4.4027737007874013
20
5.2222960629921262
11
-4.4045228740157478
21
5.2233059842519687
0
LINE
8
BLACK
6
CONTINUOUS
10
-4.4045228740157478
20
5.2233059842519687
11
-4.4052137007874013
21
5.2252039763779523
0
LINE
8
BLACK
6
CONTINUOUS
10
-4.4052137007874013
20
5.2252039763779523
11
-4.4052137007874013
21
5.2451293700787405
0
LINE
8
BLACK
6
CONTINUOUS
10
-4.4052137007874013
20
5.2451293700787405
11
-4.4063365748031496
21
5.2473751181102362
0
LINE
8
BLACK
6
CONTINUOUS
10
-4.4063365748031496
20
5.2473751181102362
11
-4.4085823228346452
21
5.2484979527559057
0
LINE
8
BLACK
6
CONTINUOUS
10
-4.4085823228346452
20
5.2484979527559057
11
-4.4128125196850396
21
5.2484979527559057
0
LINE
8
BLACK
6
CONTINUOUS
10
-4.4128125196850396
20
5.2484979527559057
11
-4.4150582677165353
21
5.2473751181102362
0
LINE
8
BLACK
6
CONTINUOUS
10
-4.4150582677165353
20
5.2473751181102362
11
-4.4161811023622048
21
5.2451293700787405
0
LINE
8
BLACK
6
CONTINUOUS
10
-4.4161811023622048
20
5.2451293700787405
11
-4.4161811023622048
21
5.2252039763779523
0
LINE
8
BLACK
6
CONTINUOUS
10
-4.4161811023622048
20
5.2252039763779523
11
-4.4163591732283463
21
5.2241940551181099
0
LINE
8
BLACK
6
CONTINUOUS
10
-4.4163591732283463
20
5.2241940551181099
11
-4.4176574803149604
21
5.2226468110236217
0
LINE
8
BLACK
6
CONTINUOUS
10
-4.4176574803149604
20
5.2226468110236217
11
-4.419646614173228
21
5.2222960629921262
0
LINE
8
BLACK
6
CONTINUOUS
10
-4.419646614173228
20
5.2222960629921262
11
-4.4213957874015746
21
5.2233059842519687
0
LINE
8
BLACK
6
CONTINUOUS
10
-4.4213957874015746
20
5.2233059842519687
11
-4.422086614173228
21
5.2252039763779523
0
LINE
8
BLACK
6
CONTINUOUS
10
-4.422086614173228
20
5.2252039763779523
11
-4.422086614173228
21
5.2451293700787405
0
LINE
8
BLACK
6
CONTINUOUS
10
-4.422086614173228
20
5.2451293700787405
11
-4.4232094881889763
21
5.2473751181102362
0
LINE
8
BLACK
6
CONTINUOUS
10
-4.4232094881889763
20
5.2473751181102362
11
-4.4254551968503932
21
5.2484979527559057
0
LINE
8
BLACK
6
CONTINUOUS
10
-4.4254551968503932
20
5.2484979527559057
11
-4.4296853937007876
21
5.2484979527559057
0
LINE
8
BLACK
6
CONTINUOUS
10
-4.4296853937007876
20
5.2484979527559057
11
-4.4323828740157483
21
5.2471492125984254
0
LINE
8
BLACK
6
CONTINUOUS
10
-4.4323828740157483
20
5.2471492125984254
11
-4.4330539763779528
21
5.2464781102362208
0
LINE
8
BLACK
6
CONTINUOUS
10
-4.4330539763779528
20
5.2464781102362208
11
-4.4330539763779528
21
5.2252039763779523
0
LINE
8
BLACK
6
CONTINUOUS
10
-4.4330539763779528
20
5.2252039763779523
11
-4.4332320472440943
21
5.2241940551181099
0
LINE
8
BLACK
6
CONTINUOUS
10
-4.4332320472440943
20
5.2241940551181099
11
-4.4345303543307084
21
5.2226468110236217
0
LINE
8
BLACK
6
CONTINUOUS
10
-4.4345303543307084
20
5.2226468110236217
11
-4.436519488188976
21
5.2222960629921262
0
LINE
8
BLACK
6
CONTINUOUS
10
-4.436519488188976
20
5.2222960629921262
11
-4.4382686614173226
21
5.2233059842519687
0
LINE
8
BLACK
6
CONTINUOUS
10
-4.4382686614173226
20
5.2233059842519687
11
-4.438959488188976
21
5.2252039763779523
0
LINE
8
BLACK
6
CONTINUOUS
10
-4.438959488188976
20
5.2252039763779523
11
-4.438959488188976
21
5.2514507086614168
0
LINE
8
BLACK
6
CONTINUOUS
10
-4.438959488188976
20
5.2514507086614168
11
-4.4387814173228346
21
5.2524606299212593
0
LINE
8
BLACK
6
CONTINUOUS
10
-4.4387814173228346
20
5.2524606299212593
11
-4.4374831102362204
21
5.2540078740157483
0
LINE
8
BLACK
6
CONTINUOUS
10
-4.4374831102362204
20
5.2540078740157483
11
-4.4354939763779528
21
5.2543586220472438
0
LINE
8
BLACK
6
CONTINUOUS
10
-4.4354939763779528
20
5.2543586220472438
11
-4.4337448031496063
21
5.2533487007874013
0
LINE
8
BLACK
6
CONTINUOUS
10
-4.4337448031496063
20
5.2533487007874013
11
-4.4336592519685034
21
5.2531136220472439
0
LINE
8
BLACK
6
CONTINUOUS
10
-4.4336592519685034
20
5.2531136220472439
11
-4.4317029527559058
21
5.2540917322834648
0
LINE
8
BLACK
6
CONTINUOUS
10
-4.4317029527559058
20
5.2540917322834648
11
-4.4307200393700787
21
5.2543840944881888
0
LINE
8
BLACK
6
CONTINUOUS
10
-4.4307200393700787
20
5.2543840944881888
11
-4.4305483464566926
21
5.2543431102362206
0
LINE
8
BLACK
6
CONTINUOUS
10
-4.4305483464566926
20
5.2543431102362206
11
-4.4303824409448822
21
5.2544034645669289
0
LINE
8
BLACK
6
CONTINUOUS
10
-4.4303824409448822
20
5.2544034645669289
11
-4.4247581496062995
21
5.2544034645669289
0
LINE
8
BLACK
6
CONTINUOUS
10
-4.4247581496062995
20
5.2544034645669289
11
-4.4237482283464562
21
5.2542253937007874
0
LINE
8
BLACK
6
CONTINUOUS
10
-3.8780797244094489
20
5.9819431102362204
11
-3.8775031496062993
21
5.9805511811023617
0
LINE
8
BLACK
6
CONTINUOUS
10
-3.8775031496062993
20
5.9805511811023617
11
-3.8780797244094489
21
5.979159251968504
0
LINE
8
BLACK
6
CONTINUOUS
10
-3.8780797244094489
20
5.979159251968504
11
-3.8794716535433071
21
5.9785826771653543
0
LINE
8
BLACK
6
CONTINUOUS
10
-3.8794716535433071
20
5.9785826771653543
11
-3.8993150393700788
21
5.9785826771653543
0
LINE
8
BLACK
6
CONTINUOUS
10
-3.8993150393700788
20
5.9785826771653543
11
-3.8777255511811024
21
5.9371096062992121
0
LINE
8
BLACK
6
CONTINUOUS
10
-3.8777255511811024
20
5.9371096062992121
11
-3.877594251968504
21
5.9356087007874017
0
LINE
8
BLACK
6
CONTINUOUS
10
-3.877594251968504
20
5.9356087007874017
11
-3.8785626771653541
21
5.9344545669291335
0
LINE
8
BLACK
6
CONTINUOUS
10
-3.8785626771653541
20
5.9344545669291335
11
-3.8800635433070867
21
5.9343232677165352
0
LINE
8
BLACK
6
CONTINUOUS
10
-3.8800635433070867
20
5.9343232677165352
11
-3.8812177165354331
21
5.9352916929133857
0
LINE
8
BLACK
6
CONTINUOUS
10
-3.8812177165354331
20
5.9352916929133857
11
-3.9005905511811023
21
5.9725065354330704
0
LINE
8
BLACK
6
CONTINUOUS
10
-3.9005905511811023
20
5.9725065354330704
11
-3.9005905511811023
21
5.3980446062992122
0
LINE
8
BLACK
6
CONTINUOUS
10
-3.9005905511811023
20
5.3980446062992122
11
-3.8812177165354331
21
5.4352594881889766
0
LINE
8
BLACK
6
CONTINUOUS
10
-3.8812177165354331
20
5.4352594881889766
11
-3.8800635433070867
21
5.4362279133858262
0
LINE
8
BLACK
6
CONTINUOUS
10
-3.8800635433070867
20
5.4362279133858262
11
-3.8785626771653541
21
5.4360966141732279
0
LINE
8
BLACK
6
CONTINUOUS
10
-3.8785626771653541
20
5.4360966141732279
11
-3.877594251968504
21
5.4349424803149606
0
LINE
8
BLACK
6
CONTINUOUS
10
-3.877594251968504
20
5.4349424803149606
11
-3.8777255511811024
21
5.4334415748031493
0
LINE
8
BLACK
6
CONTINUOUS
10
-3.8777255511811024
20
5.4334415748031493
11
-3.8993150393700788
21
5.391968503937008
0
LINE
8
BLACK
6
CONTINUOUS
10
-3.8993150393700788
20
5.391968503937008
11
-3.8794716535433071
21
5.391968503937008
0
LINE
8
BLACK
6
CONTINUOUS
10
-3.8794716535433071
20
5.391968503937008
11
-3.8780797244094489
21
5.3913919291338583
0
LINE
8
BLACK
6
CONTINUOUS
10
-3.8780797244094489
20
5.3913919291338583
11
-3.8775031496062993
21
5.3899999999999997
0
LINE
8
BLACK
6
CONTINUOUS
10
-3.8775031496062993
20
5.3899999999999997
11
-3.8780797244094489
21
5.3886080708661419
0
LINE
8
BLACK
6
CONTINUOUS
10
-3.8780797244094489
20
5.3886080708661419
11
-3.8794716535433071
21
5.3880314960629923
0
LINE
8
BLACK
6
CONTINUOUS
10
-3.8794716535433071
20
5.3880314960629923
11
-3.9025590551181102
21
5.3880314960629923
0
LINE
8
BLACK
6
CONTINUOUS
10
-3.9025590551181102
20
5.3880314960629923
11
-3.986062992125984
21
5.3880314960629923
0
LINE
8
BLACK
6
CONTINUOUS
10
-3.986062992125984
20
5.3880314960629923
11
-3.9874549212598422
21
5.3886080708661419
0
LINE
8
BLACK
6
CONTINUOUS
10
-3.9874549212598422
20
5.3886080708661419
11
-3.9880314960629919
21
5.3899999999999997
0
LINE
8
BLACK
6
CONTINUOUS
10
-3.9880314960629919
20
5.3899999999999997
11
-3.9874549212598422
21
5.3913919291338583
0
LINE
8
BLACK
6
CONTINUOUS
10
-3.9874549212598422
20
5.3913919291338583
11
-3.986062992125984
21
5.391968503937008
0
LINE
8
BLACK
6
CONTINUOUS
10
-3.986062992125984
20
5.391968503937008
11
-3.9058030708661415
21
5.391968503937008
0
LINE
8
BLACK
6
CONTINUOUS
10
-3.9058030708661415
20
5.391968503937008
11
-3.9273925984251967
21
5.433441614173228
0
LINE
8
BLACK
6
CONTINUOUS
10
-3.9273925984251967
20
5.433441614173228
11
-3.9275238582677163
21
5.4349424803149606
0
LINE
8
BLACK
6
CONTINUOUS
10
-3.9275238582677163
20
5.4349424803149606
11
-3.9265554330708659
21
5.4360966535433066
0
LINE
8
BLACK
6
CONTINUOUS
10
-3.9265554330708659
20
5.4360966535433066
11
-3.9250545669291337
21
5.4362279133858262
0
LINE
8
BLACK
6
CONTINUOUS
10
-3.9250545669291337
20
5.4362279133858262
11
-3.9239003937007872
21
5.4352594881889766
0
LINE
8
BLACK
6
CONTINUOUS
10
-3.9239003937007872
20
5.4352594881889766
11
-3.9045275590551181
21
5.3980445669291335
0
LINE
8
BLACK
6
CONTINUOUS
10
-3.9045275590551181
20
5.3980445669291335
11
-3.9045275590551181
21
5.9725065748031492
0
LINE
8
BLACK
6
CONTINUOUS
10
-3.9045275590551181
20
5.9725065748031492
11
-3.9239003937007872
21
5.9352916929133857
0
LINE
8
BLACK
6
CONTINUOUS
10
-3.9239003937007872
20
5.9352916929133857
11
-3.9250545669291337
21
5.9343232677165352
0
LINE
8
BLACK
6
CONTINUOUS
10
-3.9250545669291337
20
5.9343232677165352
11
-3.9265554330708659
21
5.9344545275590548
0
LINE
8
BLACK
6
CONTINUOUS
10
-3.9265554330708659
20
5.9344545275590548
11
-3.9275238582677163
21
5.9356087007874017
0
LINE
8
BLACK
6
CONTINUOUS
10
-3.9275238582677163
20
5.9356087007874017
11
-3.9273925984251967
21
5.9371095669291334
0
LINE
8
BLACK
6
CONTINUOUS
10
-3.9273925984251967
20
5.9371095669291334
11
-3.9058030708661415
21
5.9785826771653543
0
LINE
8
BLACK
6
CONTINUOUS
10
-3.9058030708661415
20
5.9785826771653543
11
-3.986062992125984
21
5.9785826771653543
0
LINE
8
BLACK
6
CONTINUOUS
10
-3.986062992125984
20
5.9785826771653543
11
-3.9874549212598422
21
5.979159251968504
0
LINE
8
BLACK
6
CONTINUOUS
10
-3.9874549212598422
20
5.979159251968504
11
-3.9880314960629919
21
5.9805511811023617
0
LINE
8
BLACK
6
CONTINUOUS
10
-3.9880314960629919
20
5.9805511811023617
11
-3.9874549212598422
21
5.9819431102362204
0
LINE
8
BLACK
6
CONTINUOUS
10
-3.9874549212598422
20
5.9819431102362204
11
-3.986062992125984
21
5.98251968503937
0
LINE
8
BLACK
6
CONTINUOUS
10
-3.986062992125984
20
5.98251968503937
11
-3.8794716535433071
21
5.98251968503937
0
LINE
8
BLACK
6
CONTINUOUS
10
-3.8794716535433071
20
5.98251968503937
11
-3.8780797244094489
21
5.9819431102362204
0
LINE
8
BLACK
6
CONTINUOUS
10
-3.9276664566929131
20
5.6121829527559051
11
-3.9269756299212597
21
5.6102849606299214
0
LINE
8
BLACK
6
CONTINUOUS
10
-3.9269756299212597
20
5.6102849606299214
11
-3.9269756299212597
21
5.5877877952755908
0
LINE
8
BLACK
6
CONTINUOUS
10
-3.9269756299212597
20
5.5877877952755908
11
-3.9271537007874016
21
5.5867778740157483
0
LINE
8
BLACK
6
CONTINUOUS
10
-3.9271537007874016
20
5.5867778740157483
11
-3.9284520078740157
21
5.5852306299212593
0
LINE
8
BLACK
6
CONTINUOUS
10
-3.9284520078740157
20
5.5852306299212593
11
-3.9304411417322833
21
5.5848798818897638
0
LINE
8
BLACK
6
CONTINUOUS
10
-3.9304411417322833
20
5.5848798818897638
11
-3.9321903149606299
21
5.5858898031496063
0
LINE
8
BLACK
6
CONTINUOUS
10
-3.9321903149606299
20
5.5858898031496063
11
-3.9328811417322833
21
5.5877877952755908
0
LINE
8
BLACK
6
CONTINUOUS
10
-3.9328811417322833
20
5.5877877952755908
11
-3.9328811417322833
21
5.5960836220472441
0
LINE
8
BLACK
6
CONTINUOUS
10
-3.9328811417322833
20
5.5960836220472441
11
-3.9602951181102362
21
5.5960836220472441
0
LINE
8
BLACK
6
CONTINUOUS
10
-3.9602951181102362
20
5.5960836220472441
11
-3.9578367322834644
21
5.5936252362204719
0
LINE
8
BLACK
6
CONTINUOUS
10
-3.9578367322834644
20
5.5936252362204719
11
-3.9573303543307086
21
5.5929020472440945
0
LINE
8
BLACK
6
CONTINUOUS
10
-3.9573303543307086
20
5.5929020472440945
11
-3.9572836220472438
21
5.5928578346456694
0
LINE
8
BLACK
6
CONTINUOUS
10
-3.9572836220472438
20
5.5928578346456694
11
-3.9554088582677163
21
5.5891083070866143
0
LINE
8
BLACK
6
CONTINUOUS
10
-3.9554088582677163
20
5.5891083070866143
11
-3.9551164960629919
21
5.5881253937007873
0
LINE
8
BLACK
6
CONTINUOUS
10
-3.9551164960629919
20
5.5881253937007873
11
-3.9555857874015747
21
5.5861608661417321
0
LINE
8
BLACK
6
CONTINUOUS
10
-3.9555857874015747
20
5.5861608661417321
11
-3.9572080708661415
21
5.5849575590551179
0
LINE
8
BLACK
6
CONTINUOUS
10
-3.9572080708661415
20
5.5849575590551179
11
-3.9592242125984249
21
5.5850786220472441
0
LINE
8
BLACK
6
CONTINUOUS
10
-3.9592242125984249
20
5.5850786220472441
11
-3.9606909055118109
21
5.5864672834645672
0
LINE
8
BLACK
6
CONTINUOUS
10
-3.9606909055118109
20
5.5864672834645672
11
-3.9623513779527557
21
5.5897882283464568
0
LINE
8
BLACK
6
CONTINUOUS
10
-3.9623513779527557
20
5.5897882283464568
11
-3.9655553543307085
21
5.5929921653543309
0
LINE
8
BLACK
6
CONTINUOUS
10
-3.9655553543307085
20
5.5929921653543309
11
-3.9709363779527558
21
5.5965795275590553
0
LINE
8
BLACK
6
CONTINUOUS
10
-3.9709363779527558
20
5.5965795275590553
11
-3.9716778740157479
21
5.5972879133858262
0
LINE
8
BLACK
6
CONTINUOUS
10
-3.9716778740157479
20
5.5972879133858262
11
-3.971725590551181
21
5.5974508267716532
0
LINE
8
BLACK
6
CONTINUOUS
10
-3.971725590551181
20
5.5974508267716532
11
-3.9718556299212597
21
5.5975599999999996
0
LINE
8
BLACK
6
CONTINUOUS
10
-3.9718556299212597
20
5.5975599999999996
11
-3.9720044488188977
21
5.5984038976377954
0
LINE
8
BLACK
6
CONTINUOUS
10
-3.9720044488188977
20
5.5984038976377954
11
-3.9722451181102363
21
5.5992264173228348
0
LINE
8
BLACK
6
CONTINUOUS
10
-3.9722451181102363
20
5.5992264173228348
11
-3.972176929133858
21
5.5993818897637793
0
LINE
8
BLACK
6
CONTINUOUS
10
-3.972176929133858
20
5.5993818897637793
11
-3.9722063779527557
21
5.5995491338582672
0
LINE
8
BLACK
6
CONTINUOUS
10
-3.9722063779527557
20
5.5995491338582672
11
-3.9717779527559056
21
5.6002911811023619
0
LINE
8
BLACK
6
CONTINUOUS
10
-3.9717779527559056
20
5.6002911811023619
11
-3.9714335826771654
21
5.6010760236220474
0
LINE
8
BLACK
6
CONTINUOUS
10
-3.9714335826771654
20
5.6010760236220474
11
-3.9712813385826773
21
5.6011512598425197
0
LINE
8
BLACK
6
CONTINUOUS
10
-3.9712813385826773
20
5.6011512598425197
11
-3.9711964566929132
21
5.6012983070866138
0
LINE
8
BLACK
6
CONTINUOUS
10
-3.9711964566929132
20
5.6012983070866138
11
-3.970391220472441
21
5.6015913779527562
0
LINE
8
BLACK
6
CONTINUOUS
10
-3.970391220472441
20
5.6015913779527562
11
-3.9696229921259842
21
5.601971220472441
0
LINE
8
BLACK
6
CONTINUOUS
10
-3.9696229921259842
20
5.601971220472441
11
-3.9694580708661418
21
5.601931023622047
0
LINE
8
BLACK
6
CONTINUOUS
10
-3.9694580708661418
20
5.601931023622047
11
-3.9692984645669291
21
5.6019891338582672
0
LINE
8
BLACK
6
CONTINUOUS
10
-3.9692984645669291
20
5.6019891338582672
11
-3.9328811417322833
21
5.6019891338582672
0
LINE
8
BLACK
6
CONTINUOUS
10
-3.9328811417322833
20
5.6019891338582672
11
-3.9328811417322833
21
5.6102849606299214
0
LINE
8
BLACK
6
CONTINUOUS
10
-3.9328811417322833
20
5.6102849606299214
11
-3.9327030708661415
21
5.6112948818897639
0
LINE
8
BLACK
6
CONTINUOUS
10
-3.9327030708661415
20
5.6112948818897639
11
-3.9314047637795273
21
5.612842125984252
0
LINE
8
BLACK
6
CONTINUOUS
10
-3.9314047637795273
20
5.612842125984252
11
-3.9294156299212597
21
5.6131928740157475
0
LINE
8
BLACK
6
CONTINUOUS
10
-3.9294156299212597
20
5.6131928740157475
11
-3.9276664566929131
21
5.6121829527559051
0
LINE
8
BLACK
6
CONTINUOUS
10
-3.9364175590551178
20
5.650554960629921
11
-3.9362823228346455
21
5.6504414566929135
0
LINE
8
BLACK
6
CONTINUOUS
10
-3.9362823228346455
20
5.6504414566929135
11
-3.9361069685039367
21
5.6504212992125984
0
LINE
8
BLACK
6
CONTINUOUS
10
-3.9361069685039367
20
5.6504212992125984
11
-3.9323574409448816
21
5.6485465354330708
0
LINE
8
BLACK
6
CONTINUOUS
10
-3.9323574409448816
20
5.6485465354330708
11
-3.931648464566929
21
5.6480206692913386
0
LINE
8
BLACK
6
CONTINUOUS
10
-3.931648464566929
20
5.6480206692913386
11
-3.9315900787401574
21
5.6479934645669294
0
LINE
8
BLACK
6
CONTINUOUS
10
-3.9315900787401574
20
5.6479934645669294
11
-3.9297152755905511
21
5.6461187007874019
0
LINE
8
BLACK
6
CONTINUOUS
10
-3.9297152755905511
20
5.6461187007874019
11
-3.9292088976377952
21
5.6453955118110235
0
LINE
8
BLACK
6
CONTINUOUS
10
-3.9292088976377952
20
5.6453955118110235
11
-3.9291621259842517
21
5.6453512598425197
0
LINE
8
BLACK
6
CONTINUOUS
10
-3.9291621259842517
20
5.6453512598425197
11
-3.9272873622047242
21
5.6416017322834646
0
LINE
8
BLACK
6
CONTINUOUS
10
-3.9272873622047242
20
5.6416017322834646
11
-3.9269949999999998
21
5.6406188188976376
0
LINE
8
BLACK
6
CONTINUOUS
10
-3.9269949999999998
20
5.6406188188976376
11
-3.9270360236220472
21
5.6404470866141727
0
LINE
8
BLACK
6
CONTINUOUS
10
-3.9270360236220472
20
5.6404470866141727
11
-3.9269756299212597
21
5.6402812204724411
0
LINE
8
BLACK
6
CONTINUOUS
10
-3.9269756299212597
20
5.6402812204724411
11
-3.9269756299212597
21
5.6309074015748033
0
LINE
8
BLACK
6
CONTINUOUS
10
-3.9269756299212597
20
5.6309074015748033
11
-3.9271537007874016
21
5.6298974803149608
0
LINE
8
BLACK
6
CONTINUOUS
10
-3.9271537007874016
20
5.6298974803149608
11
-3.9272672047244095
21
5.6297622047244094
0
LINE
8
BLACK
6
CONTINUOUS
10
-3.9272672047244095
20
5.6297622047244094
11
-3.9272873622047242
21
5.6295868897637797
0
LINE
8
BLACK
6
CONTINUOUS
10
-3.9272873622047242
20
5.6295868897637797
11
-3.9291621259842517
21
5.6258373622047246
0
LINE
8
BLACK
6
CONTINUOUS
10
-3.9291621259842517
20
5.6258373622047246
11
-3.9296881102362202
21
5.6251282283464565
0
LINE
8
BLACK
6
CONTINUOUS
10
-3.9296881102362202
20
5.6251282283464565
11
-3.9297152755905511
21
5.6250699212598425
0
LINE
8
BLACK
6
CONTINUOUS
10
-3.9297152755905511
20
5.6250699212598425
11
-3.9315900787401574
21
5.623195157480315
0
LINE
8
BLACK
6
CONTINUOUS
10
-3.9315900787401574
20
5.623195157480315
11
-3.9324301181102364
21
5.6226069685039368
0
LINE
8
BLACK
6
CONTINUOUS
10
-3.9324301181102364
20
5.6226069685039368
11
-3.9344422047244092
21
5.6224309842519684
0
LINE
8
BLACK
6
CONTINUOUS
10
-3.9344422047244092
20
5.6224309842519684
11
-3.9360967322834646
21
5.6235894881889763
0
LINE
8
BLACK
6
CONTINUOUS
10
-3.9360967322834646
20
5.6235894881889763
11
-3.9366194488188975
21
5.625540472440945
0
LINE
8
BLACK
6
CONTINUOUS
10
-3.9366194488188975
20
5.625540472440945
11
-3.9357658267716533
21
5.6273710629921254
0
LINE
8
BLACK
6
CONTINUOUS
10
-3.9357658267716533
20
5.6273710629921254
11
-3.9342298818897636
21
5.6289069685039372
0
LINE
8
BLACK
6
CONTINUOUS
10
-3.9342298818897636
20
5.6289069685039372
11
-3.9328811417322833
21
5.6316044488188979
0
LINE
8
BLACK
6
CONTINUOUS
10
-3.9328811417322833
20
5.6316044488188979
11
-3.9328811417322833
21
5.6395841732283465
0
LINE
8
BLACK
6
CONTINUOUS
10
-3.9328811417322833
20
5.6395841732283465
11
-3.9342298818897636
21
5.6422816141732284
0
LINE
8
BLACK
6
CONTINUOUS
10
-3.9342298818897636
20
5.6422816141732284
11
-3.9354270472440942
21
5.6434787401574802
0
LINE
8
BLACK
6
CONTINUOUS
10
-3.9354270472440942
20
5.6434787401574802
11
-3.9381245275590548
21
5.6448275196850393
0
LINE
8
BLACK
6
CONTINUOUS
10
-3.9381245275590548
20
5.6448275196850393
11
-3.9461042519685039
21
5.6448275196850393
0
LINE
8
BLACK
6
CONTINUOUS
10
-3.9461042519685039
20
5.6448275196850393
11
-3.9488017322834645
21
5.6434787795275589
0
LINE
8
BLACK
6
CONTINUOUS
10
-3.9488017322834645
20
5.6434787795275589
11
-3.9499988582677164
21
5.6422816535433071
0
LINE
8
BLACK
6
CONTINUOUS
10
-3.9499988582677164
20
5.6422816535433071
11
-3.9513475984251967
21
5.6395841732283465
0
LINE
8
BLACK
6
CONTINUOUS
10
-3.9513475984251967
20
5.6395841732283465
11
-3.9513475984251967
21
5.6316044488188979
0
LINE
8
BLACK
6
CONTINUOUS
10
-3.9513475984251967
20
5.6316044488188979
11
-3.9499988582677164
21
5.6289069685039372
0
LINE
8
BLACK
6
CONTINUOUS
10
-3.9499988582677164
20
5.6289069685039372
11
-3.9484629133858267
21
5.6273710236220476
0
LINE
8
BLACK
6
CONTINUOUS
10
-3.9484629133858267
20
5.6273710236220476
11
-3.9478747244094485
21
5.6265309842519686
0
LINE
8
BLACK
6
CONTINUOUS
10
-3.9478747244094485
20
5.6265309842519686
11
-3.9478730708661418
21
5.6265116141732285
0
LINE
8
BLACK
6
CONTINUOUS
10
-3.9478730708661418
20
5.6265116141732285
11
-3.9478594488188974
21
5.6264977165354333
0
LINE
8
BLACK
6
CONTINUOUS
10
-3.9478594488188974
20
5.6264977165354333
11
-3.9477851574803147
21
5.6255071259842522
0
LINE
8
BLACK
6
CONTINUOUS
10
-3.9477851574803147
20
5.6255071259842522
11
-3.9476987007874014
21
5.6245188976377953
0
LINE
8
BLACK
6
CONTINUOUS
10
-3.9476987007874014
20
5.6245188976377953
11
-3.9477098818897636
21
5.6245029527559049
0
LINE
8
BLACK
6
CONTINUOUS
10
-3.9477098818897636
20
5.6245029527559049
11
-3.9477083858267714
21
5.6244835433070861
0
LINE
8
BLACK
6
CONTINUOUS
10
-3.9477083858267714
20
5.6244835433070861
11
-3.9482883858267717
21
5.6236767322834647
0
LINE
8
BLACK
6
CONTINUOUS
10
-3.9482883858267717
20
5.6236767322834647
11
-3.9488572047244093
21
5.6228643307086612
0
LINE
8
BLACK
6
CONTINUOUS
10
-3.9488572047244093
20
5.6228643307086612
11
-3.9488760236220473
21
5.6228592913385826
0
LINE
8
BLACK
6
CONTINUOUS
10
-3.9488760236220473
20
5.6228592913385826
11
-3.9488873228346457
21
5.6228435433070869
0
LINE
8
BLACK
6
CONTINUOUS
10
-3.9488873228346457
20
5.6228435433070869
11
-3.9498495275590551
21
5.6225984645669289
0
LINE
8
BLACK
6
CONTINUOUS
10
-3.9498495275590551
20
5.6225984645669289
11
-3.950808188976378
21
5.6223416141732283
0
LINE
8
BLACK
6
CONTINUOUS
10
-3.950808188976378
20
5.6223416141732283
11
-3.9508257874015746
21
5.6223498031496062
0
LINE
8
BLACK
6
CONTINUOUS
10
-3.9508257874015746
20
5.6223498031496062
11
-3.9508446456692914
21
5.6223450000000001
0
LINE
8
BLACK
6
CONTINUOUS
10
-3.9508446456692914
20
5.6223450000000001
11
-3.9695922834645669
21
5.6242197637795277
0
LINE
8
BLACK
6
CONTINUOUS
10
-3.9695922834645669
20
5.6242197637795277
11
-3.9697426377952754
21
5.6242620472440947
0
LINE
8
BLACK
6
CONTINUOUS
10
-3.9697426377952754
20
5.6242620472440947
11
-3.9698112204724407
21
5.6242499606299212
0
LINE
8
BLACK
6
CONTINUOUS
10
-3.9698112204724407
20
5.6242499606299212
11
-3.9699172440944883
21
5.6243111417322833
0
LINE
8
BLACK
6
CONTINUOUS
10
-3.9699172440944883
20
5.6243111417322833
11
-3.9705794488188975
21
5.6244974409448814
0
LINE
8
BLACK
6
CONTINUOUS
10
-3.9705794488188975
20
5.6244974409448814
11
-3.9710173622047242
21
5.624946338582677
0
LINE
8
BLACK
6
CONTINUOUS
10
-3.9710173622047242
20
5.624946338582677
11
-3.9715603937007873
21
5.6252598818897637
0
LINE
8
BLACK
6
CONTINUOUS
10
-3.9715603937007873
20
5.6252598818897637
11
-3.9717015748031494
21
5.6256477165354326
0
LINE
8
BLACK
6
CONTINUOUS
10
-3.9717015748031494
20
5.6256477165354326
11
-3.9719898425196849
21
5.6259432677165355
0
LINE
8
BLACK
6
CONTINUOUS
10
-3.9719898425196849
20
5.6259432677165355
11
-3.9720367716535434
21
5.6265686220472437
0
LINE
8
BLACK
6
CONTINUOUS
10
-3.9720367716535434
20
5.6265686220472437
11
-3.9722512204724407
21
5.6271578740157482
0
LINE
8
BLACK
6
CONTINUOUS
10
-3.9722512204724407
20
5.6271578740157482
11
-3.9722512204724407
21
5.6459055118110237
0
LINE
8
BLACK
6
CONTINUOUS
10
-3.9722512204724407
20
5.6459055118110237
11
-3.9720731496062993
21
5.6469154330708662
0
LINE
8
BLACK
6
CONTINUOUS
10
-3.9720731496062993
20
5.6469154330708662
11
-3.9707748425196852
21
5.6484626771653543
0
LINE
8
BLACK
6
CONTINUOUS
10
-3.9707748425196852
20
5.6484626771653543
11
-3.9687857086614171
21
5.6488134251968507
0
LINE
8
BLACK
6
CONTINUOUS
10
-3.9687857086614171
20
5.6488134251968507
11
-3.9670365354330706
21
5.6478035039370074
0
LINE
8
BLACK
6
CONTINUOUS
10
-3.9670365354330706
20
5.6478035039370074
11
-3.9663457086614171
21
5.6459055118110237
0
LINE
8
BLACK
6
CONTINUOUS
10
-3.9663457086614171
20
5.6459055118110237
11
-3.9663457086614171
21
5.6298300787401576
0
LINE
8
BLACK
6
CONTINUOUS
10
-3.9663457086614171
20
5.6298300787401576
11
-3.9565744488188974
21
5.6288529527559055
0
LINE
8
BLACK
6
CONTINUOUS
10
-3.9565744488188974
20
5.6288529527559055
11
-3.9569413779527558
21
5.6295868897637797
0
LINE
8
BLACK
6
CONTINUOUS
10
-3.9569413779527558
20
5.6295868897637797
11
-3.9572337401574802
21
5.6305698425196846
0
LINE
8
BLACK
6
CONTINUOUS
10
-3.9572337401574802
20
5.6305698425196846
11
-3.9571927559055116
21
5.630741496062992
0
LINE
8
BLACK
6
CONTINUOUS
10
-3.9571927559055116
20
5.630741496062992
11
-3.9572531102362203
21
5.6309074015748033
0
LINE
8
BLACK
6
CONTINUOUS
10
-3.9572531102362203
20
5.6309074015748033
11
-3.9572531102362203
21
5.6402812204724411
0
LINE
8
BLACK
6
CONTINUOUS
10
-3.9572531102362203
20
5.6402812204724411
11
-3.9570750393700784
21
5.6412911417322835
0
LINE
8
BLACK
6
CONTINUOUS
10
-3.9570750393700784
20
5.6412911417322835
11
-3.9569615748031497
21
5.6414263779527554
0
LINE
8
BLACK
6
CONTINUOUS
10
-3.9569615748031497
20
5.6414263779527554
11
-3.9569413779527558
21
5.6416017322834646
0
LINE
8
BLACK
6
CONTINUOUS
10
-3.9569413779527558
20
5.6416017322834646
11
-3.9550666141732282
21
5.6453512598425197
0
LINE
8
BLACK
6
CONTINUOUS
10
-3.9550666141732282
20
5.6453512598425197
11
-3.9545407086614173
21
5.6460603149606294
0
LINE
8
BLACK
6
CONTINUOUS
10
-3.9545407086614173
20
5.6460603149606294
11
-3.9545135039370076
21
5.6461186614173231
0
LINE
8
BLACK
6
CONTINUOUS
10
-3.9545135039370076
20
5.6461186614173231
11
-3.9526387401574801
21
5.6479934251968507
0
LINE
8
BLACK
6
CONTINUOUS
10
-3.9526387401574801
20
5.6479934251968507
11
-3.9519156692913384
21
5.6484996850393703
0
LINE
8
BLACK
6
CONTINUOUS
10
-3.9519156692913384
20
5.6484996850393703
11
-3.9518713385826771
21
5.6485465354330708
0
LINE
8
BLACK
6
CONTINUOUS
10
-3.9518713385826771
20
5.6485465354330708
11
-3.948121811023622
21
5.6504212992125984
0
LINE
8
BLACK
6
CONTINUOUS
10
-3.948121811023622
20
5.6504212992125984
11
-3.947138897637795
21
5.6507136614173223
0
LINE
8
BLACK
6
CONTINUOUS
10
-3.947138897637795
20
5.6507136614173223
11
-3.9469672047244093
21
5.6506726377952754
0
LINE
8
BLACK
6
CONTINUOUS
10
-3.9469672047244093
20
5.6506726377952754
11
-3.9468012992125985
21
5.6507330314960624
0
LINE
8
BLACK
6
CONTINUOUS
10
-3.9468012992125985
20
5.6507330314960624
11
-3.9374274803149607
21
5.6507330314960624
0
LINE
8
BLACK
6
CONTINUOUS
10
-3.9374274803149607
20
5.6507330314960624
11
-3.9364175590551178
21
5.650554960629921
0
LINE
8
BLACK
6
CONTINUOUS
10
-3.9289184645669288
20
5.7311699212598421
11
-3.9273712204724407
21
5.729871614173228
0
LINE
8
BLACK
6
CONTINUOUS
10
-3.9273712204724407
20
5.729871614173228
11
-3.9270204724409448
21
5.7278824803149604
0
LINE
8
BLACK
6
CONTINUOUS
10
-3.9270204724409448
20
5.7278824803149604
11
-3.9280303937007872
21
5.7261333070866138
0
LINE
8
BLACK
6
CONTINUOUS
10
-3.9280303937007872
20
5.7261333070866138
11
-3.9299283858267717
21
5.7254424803149604
0
LINE
8
BLACK
6
CONTINUOUS
10
-3.9299283858267717
20
5.7254424803149604
11
-3.949853779527559
21
5.7254424803149604
0
LINE
8
BLACK
6
CONTINUOUS
10
-3.949853779527559
20
5.7254424803149604
11
-3.9520995275590551
21
5.7243196062992121
0
LINE
8
BLACK
6
CONTINUOUS
10
-3.9520995275590551
20
5.7243196062992121
11
-3.9532223622047242
21
5.7220738582677164
0
LINE
8
BLACK
6
CONTINUOUS
10
-3.9532223622047242
20
5.7220738582677164
11
-3.9532223622047242
21
5.7178436614173229
0
LINE
8
BLACK
6
CONTINUOUS
10
-3.9532223622047242
20
5.7178436614173229
11
-3.9520995275590551
21
5.7155979133858263
0
LINE
8
BLACK
6
CONTINUOUS
10
-3.9520995275590551
20
5.7155979133858263
11
-3.949853779527559
21
5.7144750787401577
0
LINE
8
BLACK
6
CONTINUOUS
10
-3.949853779527559
20
5.7144750787401577
11
-3.9299283858267717
21
5.7144750787401577
0
LINE
8
BLACK
6
CONTINUOUS
10
-3.9299283858267717
20
5.7144750787401577
11
-3.9289184645669288
21
5.7142970078740154
0
LINE
8
BLACK
6
CONTINUOUS
10
-3.9289184645669288
20
5.7142970078740154
11
-3.9273712204724407
21
5.7129987007874012
0
LINE
8
BLACK
6
CONTINUOUS
10
-3.9273712204724407
20
5.7129987007874012
11
-3.9270204724409448
21
5.7110095669291336
0
LINE
8
BLACK
6
CONTINUOUS
10
-3.9270204724409448
20
5.7110095669291336
11
-3.9280303937007872
21
5.7092603937007871
0
LINE
8
BLACK
6
CONTINUOUS
10
-3.9280303937007872
20
5.7092603937007871
11
-3.9299283858267717
21
5.7085695669291336
0
LINE
8
BLACK
6
CONTINUOUS
10
-3.9299283858267717
20
5.7085695669291336
11
-3.949853779527559
21
5.7085695669291336
0
LINE
8
BLACK
6
CONTINUOUS
10
-3.949853779527559
20
5.7085695669291336
11
-3.9520995275590551
21
5.7074466929133854
0
LINE
8
BLACK
6
CONTINUOUS
10
-3.9520995275590551
20
5.7074466929133854
11
-3.9532223622047242
21
5.7052009842519684
0
LINE
8
BLACK
6
CONTINUOUS
10
-3.9532223622047242
20
5.7052009842519684
11
-3.9532223622047242
21
5.7009707874015749
0
LINE
8
BLACK
6
CONTINUOUS
10
-3.9532223622047242
20
5.7009707874015749
11
-3.9518736220472439
21
5.6982733070866143
0
LINE
8
BLACK
6
CONTINUOUS
10
-3.9518736220472439
20
5.6982733070866143
11
-3.9512025196850393
21
5.6976022047244097
0
LINE
8
BLACK
6
CONTINUOUS
10
-3.9512025196850393
20
5.6976022047244097
11
-3.9299283858267717
21
5.6976022047244097
0
LINE
8
BLACK
6
CONTINUOUS
10
-3.9299283858267717
20
5.6976022047244097
11
-3.9289184645669288
21
5.6974241338582674
0
LINE
8
BLACK
6
CONTINUOUS
10
-3.9289184645669288
20
5.6974241338582674
11
-3.9273712204724407
21
5.6961258267716532
0
LINE
8
BLACK
6
CONTINUOUS
10
-3.9273712204724407
20
5.6961258267716532
11
-3.9270204724409448
21
5.6941366929133856
0
LINE
8
BLACK
6
CONTINUOUS
10
-3.9270204724409448
20
5.6941366929133856
11
-3.9280303937007872
21
5.6923875196850391
0
LINE
8
BLACK
6
CONTINUOUS
10
-3.9280303937007872
20
5.6923875196850391
11
-3.9299283858267717
21
5.6916966929133856
0
LINE
8
BLACK
6
CONTINUOUS
10
-3.9299283858267717
20
5.6916966929133856
11
-3.9561751181102363
21
5.6916966929133856
0
LINE
8
BLACK
6
CONTINUOUS
10
-3.9561751181102363
20
5.6916966929133856
11
-3.9571850393700787
21
5.6918747637795271
0
LINE
8
BLACK
6
CONTINUOUS
10
-3.9571850393700787
20
5.6918747637795271
11
-3.9587322834645668
21
5.6931730708661412
0
LINE
8
BLACK
6
CONTINUOUS
10
-3.9587322834645668
20
5.6931730708661412
11
-3.9590830314960628
21
5.6951622047244097
0
LINE
8
BLACK
6
CONTINUOUS
10
-3.9590830314960628
20
5.6951622047244097
11
-3.9580731102362203
21
5.6969113779527554
0
LINE
8
BLACK
6
CONTINUOUS
10
-3.9580731102362203
20
5.6969113779527554
11
-3.9578380314960628
21
5.6969969291338582
0
LINE
8
BLACK
6
CONTINUOUS
10
-3.9578380314960628
20
5.6969969291338582
11
-3.9588161417322834
21
5.6989532283464568
0
LINE
8
BLACK
6
CONTINUOUS
10
-3.9588161417322834
20
5.6989532283464568
11
-3.9591085039370078
21
5.6999361811023617
0
LINE
8
BLACK
6
CONTINUOUS
10
-3.9591085039370078
20
5.6999361811023617
11
-3.9590675196850391
21
5.7001078346456691
0
LINE
8
BLACK
6
CONTINUOUS
10
-3.9590675196850391
20
5.7001078346456691
11
-3.9591278740157478
21
5.7002737401574803
0
LINE
8
BLACK
6
CONTINUOUS
10
-3.9591278740157478
20
5.7002737401574803
11
-3.9591278740157478
21
5.705898031496063
0
LINE
8
BLACK
6
CONTINUOUS
10
-3.9591278740157478
20
5.705898031496063
11
-3.9589498031496064
21
5.7069079527559055
0
LINE
8
BLACK
6
CONTINUOUS
10
-3.9589498031496064
20
5.7069079527559055
11
-3.9588363385826773
21
5.7070431889763782
0
LINE
8
BLACK
6
CONTINUOUS
10
-3.9588363385826773
20
5.7070431889763782
11
-3.9588161417322834
21
5.7072185433070866
0
LINE
8
BLACK
6
CONTINUOUS
10
-3.9588161417322834
20
5.7072185433070866
11
-3.9569413779527558
21
5.7109680708661417
0
LINE
8
BLACK
6
CONTINUOUS
10
-3.9569413779527558
20
5.7109680708661417
11
-3.9565187007874014
21
5.7115379921259839
0
LINE
8
BLACK
6
CONTINUOUS
10
-3.9565187007874014
20
5.7115379921259839
11
-3.9566203937007871
21
5.7117726377952751
0
LINE
8
BLACK
6
CONTINUOUS
10
-3.9566203937007871
20
5.7117726377952751
11
-3.9569413779527558
21
5.7120765748031497
0
LINE
8
BLACK
6
CONTINUOUS
10
-3.9569413779527558
20
5.7120765748031497
11
-3.9588161417322834
21
5.7158261023622048
0
LINE
8
BLACK
6
CONTINUOUS
10
-3.9588161417322834
20
5.7158261023622048
11
-3.9591085039370078
21
5.7168090551181105
0
LINE
8
BLACK
6
CONTINUOUS
10
-3.9591085039370078
20
5.7168090551181105
11
-3.9590675196850391
21
5.7169807086614171
0
LINE
8
BLACK
6
CONTINUOUS
10
-3.9590675196850391
20
5.7169807086614171
11
-3.9591278740157478
21
5.7171466141732283
0
LINE
8
BLACK
6
CONTINUOUS
10
-3.9591278740157478
20
5.7171466141732283
11
-3.9591278740157478
21
5.722770905511811
0
LINE
8
BLACK
6
CONTINUOUS
10
-3.9591278740157478
20
5.722770905511811
11
-3.9589498031496064
21
5.7237808267716535
0
LINE
8
BLACK
6
CONTINUOUS
10
-3.9589498031496064
20
5.7237808267716535
11
-3.9588363385826773
21
5.7239160629921262
0
LINE
8
BLACK
6
CONTINUOUS
10
-3.9588363385826773
20
5.7239160629921262
11
-3.9588161417322834
21
5.7240914173228346
0
LINE
8
BLACK
6
CONTINUOUS
10
-3.9588161417322834
20
5.7240914173228346
11
-3.9569413779527558
21
5.7278409842519684
0
LINE
8
BLACK
6
CONTINUOUS
10
-3.9569413779527558
20
5.7278409842519684
11
-3.9563304724409449
21
5.7286646456692916
0
LINE
8
BLACK
6
CONTINUOUS
10
-3.9563304724409449
20
5.7286646456692916
11
-3.9559248031496064
21
5.728840472440945
0
LINE
8
BLACK
6
CONTINUOUS
10
-3.9559248031496064
20
5.728840472440945
11
-3.9556208661417323
21
5.729161496062992
0
LINE
8
BLACK
6
CONTINUOUS
10
-3.9556208661417323
20
5.729161496062992
11
-3.9518713385826771
21
5.7310362598425195
0
LINE
8
BLACK
6
CONTINUOUS
10
-3.9518713385826771
20
5.7310362598425195
11
-3.9508884251968501
21
5.7313286220472444
0
LINE
8
BLACK
6
CONTINUOUS
10
-3.9508884251968501
20
5.7313286220472444
11
-3.9507167322834644
21
5.7312875984251965
0
LINE
8
BLACK
6
CONTINUOUS
10
-3.9507167322834644
20
5.7312875984251965
11
-3.9505508267716536
21
5.7313479921259844
0
LINE
8
BLACK
6
CONTINUOUS
10
-3.9505508267716536
20
5.7313479921259844
11
-3.9299283858267717
21
5.7313479921259844
0
LINE
8
BLACK
6
CONTINUOUS
10
-3.9299283858267717
20
5.7313479921259844
11
-3.9289184645669288
21
5.7311699212598421
0
LINE
8
BLACK
6
CONTINUOUS
10
-3.9289184645669288
20
5.7836633464566924
11
-3.9273712204724407
21
5.7823650393700783
0
LINE
8
BLACK
6
CONTINUOUS
10
-3.9273712204724407
20
5.7823650393700783
11
-3.9270204724409448
21
5.7803759055118107
0
LINE
8
BLACK
6
CONTINUOUS
10
-3.9270204724409448
20
5.7803759055118107
11
-3.9280303937007872
21
5.7786267322834641
0
LINE
8
BLACK
6
CONTINUOUS
10
-3.9280303937007872
20
5.7786267322834641
11
-3.9299283858267717
21
5.7779359055118107
0
LINE
8
BLACK
6
CONTINUOUS
10
-3.9299283858267717
20
5.7779359055118107
11
-3.949853779527559
21
5.7779359055118107
0
LINE
8
BLACK
6
CONTINUOUS
10
-3.949853779527559
20
5.7779359055118107
11
-3.9520995275590551
21
5.7768130314960633
0
LINE
8
BLACK
6
CONTINUOUS
10
-3.9520995275590551
20
5.7768130314960633
11
-3.9532223622047242
21
5.7745672834645667
0
LINE
8
BLACK
6
CONTINUOUS
10
-3.9532223622047242
20
5.7745672834645667
11
-3.9532223622047242
21
5.7703370866141732
0
LINE
8
BLACK
6
CONTINUOUS
10
-3.9532223622047242
20
5.7703370866141732
11
-3.9520995275590551
21
5.7680913385826766
0
LINE
8
BLACK
6
CONTINUOUS
10
-3.9520995275590551
20
5.7680913385826766
11
-3.949853779527559
21
5.766968503937008
0
LINE
8
BLACK
6
CONTINUOUS
10
-3.949853779527559
20
5.766968503937008
11
-3.9299283858267717
21
5.766968503937008
0
LINE
8
BLACK
6
CONTINUOUS
10
-3.9299283858267717
20
5.766968503937008
11
-3.9289184645669288
21
5.7667904330708657
0
LINE
8
BLACK
6
CONTINUOUS
10
-3.9289184645669288
20
5.7667904330708657
11
-3.9273712204724407
21
5.7654921259842515
0
LINE
8
BLACK
6
CONTINUOUS
10
-3.9273712204724407
20
5.7654921259842515
11
-3.9270204724409448
21
5.7635029921259839
0
LINE
8
BLACK
6
CONTINUOUS
10
-3.9270204724409448
20
5.7635029921259839
11
-3.9280303937007872
21
5.7617538188976374
0
LINE
8
BLACK
6
CONTINUOUS
10
-3.9280303937007872
20
5.7617538188976374
11
-3.9299283858267717
21
5.7610629921259839
0
LINE
8
BLACK
6
CONTINUOUS
10
-3.9299283858267717
20
5.7610629921259839
11
-3.949853779527559
21
5.7610629921259839
0
LINE
8
BLACK
6
CONTINUOUS
10
-3.949853779527559
20
5.7610629921259839
11
-3.9520995275590551
21
5.7599401181102357
0
LINE
8
BLACK
6
CONTINUOUS
10
-3.9520995275590551
20
5.7599401181102357
11
-3.9532223622047242
21
5.7576944094488187
0
LINE
8
BLACK
6
CONTINUOUS
10
-3.9532223622047242
20
5.7576944094488187
11
-3.9532223622047242
21
5.7534642125984252
0
LINE
8
BLACK
6
CONTINUOUS
10
-3.9532223622047242
20
5.7534642125984252
11
-3.9518736220472439
21
5.7507667322834646
0
LINE
8
BLACK
6
CONTINUOUS
10
-3.9518736220472439
20
5.7507667322834646
11
-3.9512025196850393
21
5.75009562992126
0
LINE
8
BLACK
6
CONTINUOUS
10
-3.9512025196850393
20
5.75009562992126
11
-3.9299283858267717
21
5.75009562992126
0
LINE
8
BLACK
6
CONTINUOUS
10
-3.9299283858267717
20
5.75009562992126
11
-3.9289184645669288
21
5.7499175590551177
0
LINE
8
BLACK
6
CONTINUOUS
10
-3.9289184645669288
20
5.7499175590551177
11
-3.9273712204724407
21
5.7486192519685035
0
LINE
8
BLACK
6
CONTINUOUS
10
-3.9273712204724407
20
5.7486192519685035
11
-3.9270204724409448
21
5.7466301181102359
0
LINE
8
BLACK
6
CONTINUOUS
10
-3.9270204724409448
20
5.7466301181102359
11
-3.9280303937007872
21
5.7448809448818894
0
LINE
8
BLACK
6
CONTINUOUS
10
-3.9280303937007872
20
5.7448809448818894
11
-3.9299283858267717
21
5.7441901181102359
0
LINE
8
BLACK
6
CONTINUOUS
10
-3.9299283858267717
20
5.7441901181102359
11
-3.9561751181102363
21
5.7441901181102359
0
LINE
8
BLACK
6
CONTINUOUS
10
-3.9561751181102363
20
5.7441901181102359
11
-3.9571850393700787
21
5.7443681889763782
0
LINE
8
BLACK
6
CONTINUOUS
10
-3.9571850393700787
20
5.7443681889763782
11
-3.9587322834645668
21
5.7456664960629924
0
LINE
8
BLACK
6
CONTINUOUS
10
-3.9587322834645668
20
5.7456664960629924
11
-3.9590830314960628
21
5.74765562992126
0
LINE
8
BLACK
6
CONTINUOUS
10
-3.9590830314960628
20
5.74765562992126
11
-3.9580731102362203
21
5.7494048031496066
0
LINE
8
BLACK
6
CONTINUOUS
10
-3.9580731102362203
20
5.7494048031496066
11
-3.9578380314960628
21
5.7494903543307085
0
LINE
8
BLACK
6
CONTINUOUS
10
-3.9578380314960628
20
5.7494903543307085
11
-3.9588161417322834
21
5.7514466535433071
0
LINE
8
BLACK
6
CONTINUOUS
10
-3.9588161417322834
20
5.7514466535433071
11
-3.9591085039370078
21
5.7524296062992128
0
LINE
8
BLACK
6
CONTINUOUS
10
-3.9591085039370078
20
5.7524296062992128
11
-3.9590675196850391
21
5.7526012598425194
0
LINE
8
BLACK
6
CONTINUOUS
10
-3.9590675196850391
20
5.7526012598425194
11
-3.9591278740157478
21
5.7527671653543306
0
LINE
8
BLACK
6
CONTINUOUS
10
-3.9591278740157478
20
5.7527671653543306
11
-3.9591278740157478
21
5.7583914566929133
0
LINE
8
BLACK
6
CONTINUOUS
10
-3.9591278740157478
20
5.7583914566929133
11
-3.9589498031496064
21
5.7594013779527558
0
LINE
8
BLACK
6
CONTINUOUS
10
-3.9589498031496064
20
5.7594013779527558
11
-3.9588363385826773
21
5.7595366141732285
0
LINE
8
BLACK
6
CONTINUOUS
10
-3.9588363385826773
20
5.7595366141732285
11
-3.9588161417322834
21
5.7597119685039369
0
LINE
8
BLACK
6
CONTINUOUS
10
-3.9588161417322834
20
5.7597119685039369
11
-3.9569413779527558
21
5.763461496062992
0
LINE
8
BLACK
6
CONTINUOUS
10
-3.9569413779527558
20
5.763461496062992
11
-3.9565187007874014
21
5.7640314173228342
0
LINE
8
BLACK
6
CONTINUOUS
10
-3.9565187007874014
20
5.7640314173228342
11
-3.9566203937007871
21
5.7642660629921263
0
LINE
8
BLACK
6
CONTINUOUS
10
-3.9566203937007871
20
5.7642660629921263
11
-3.9569413779527558
21
5.76457
0
LINE
8
BLACK
6
CONTINUOUS
10
-3.9569413779527558
20
5.76457
11
-3.9588161417322834
21
5.7683195275590551
0
LINE
8
BLACK
6
CONTINUOUS
10
-3.9588161417322834
20
5.7683195275590551
11
-3.9591085039370078
21
5.7693024803149608
0
LINE
8
BLACK
6
CONTINUOUS
10
-3.9591085039370078
20
5.7693024803149608
11
-3.9590675196850391
21
5.7694741338582674
0
LINE
8
BLACK
6
CONTINUOUS
10
-3.9590675196850391
20
5.7694741338582674
11
-3.9591278740157478
21
5.7696400393700786
0
LINE
8
BLACK
6
CONTINUOUS
10
-3.9591278740157478
20
5.7696400393700786
11
-3.9591278740157478
21
5.7752643307086613
0
LINE
8
BLACK
6
CONTINUOUS
10
-3.9591278740157478
20
5.7752643307086613
11
-3.9589498031496064
21
5.7762742519685037
0
LINE
8
BLACK
6
CONTINUOUS
10
-3.9589498031496064
20
5.7762742519685037
11
-3.9588363385826773
21
5.7764094881889765
0
LINE
8
BLACK
6
CONTINUOUS
10
-3.9588363385826773
20
5.7764094881889765
11
-3.9588161417322834
21
5.7765848425196848
0
LINE
8
BLACK
6
CONTINUOUS
10
-3.9588161417322834
20
5.7765848425196848
11
-3.9569413779527558
21
5.7803344094488187
0
LINE
8
BLACK
6
CONTINUOUS
10
-3.9569413779527558
20
5.7803344094488187
11
-3.9563304724409449
21
5.7811580708661419
0
LINE
8
BLACK
6
CONTINUOUS
10
-3.9563304724409449
20
5.7811580708661419
11
-3.9559248031496064
21
5.7813338976377953
0
LINE
8
BLACK
6
CONTINUOUS
10
-3.9559248031496064
20
5.7813338976377953
11
-3.9556208661417323
21
5.7816549212598423
0
LINE
8
BLACK
6
CONTINUOUS
10
-3.9556208661417323
20
5.7816549212598423
11
-3.9518713385826771
21
5.7835296850393698
0
LINE
8
BLACK
6
CONTINUOUS
10
-3.9518713385826771
20
5.7835296850393698
11
-3.9508884251968501
21
5.7838220472440947
0
LINE
8
BLACK
6
CONTINUOUS
10
-3.9508884251968501
20
5.7838220472440947
11
-3.9507167322834644
21
5.7837810236220468
0
LINE
8
BLACK
6
CONTINUOUS
10
-3.9507167322834644
20
5.7837810236220468
11
-3.9505508267716536
21
5.7838414173228347
0
LINE
8
BLACK
6
CONTINUOUS
10
-3.9505508267716536
20
5.7838414173228347
11
-3.9299283858267717
21
5.7838414173228347
0
LINE
8
BLACK
6
CONTINUOUS
10
-3.9299283858267717
20
5.7838414173228347
11
-3.9289184645669288
21
5.7836633464566924
0
LINE
8
BLACK
6
CONTINUOUS
10
-4.102781299212598
20
6.0884557086614173
11
-4.1022047244094484
21
6.0870637795275586
0
LINE
8
BLACK
6
CONTINUOUS
10
-4.1022047244094484
20
6.0870637795275586
11
-4.1022047244094484
21
6.0002362204724404
0
LINE
8
BLACK
6
CONTINUOUS
10
-4.1022047244094484
20
6.0002362204724404
11
-4.102781299212598
21
5.9988442913385827
0
LINE
8
BLACK
6
CONTINUOUS
10
-4.102781299212598
20
5.9988442913385827
11
-4.1041732283464567
21
5.998267716535433
0
LINE
8
BLACK
6
CONTINUOUS
10
-4.1041732283464567
20
5.998267716535433
11
-4.1055651574803145
21
5.9988442913385827
0
LINE
8
BLACK
6
CONTINUOUS
10
-4.1055651574803145
20
5.9988442913385827
11
-4.1061417322834641
21
6.0002362204724404
0
LINE
8
BLACK
6
CONTINUOUS
10
-4.1061417322834641
20
6.0002362204724404
11
-4.1061417322834641
21
6.0607323622047247
0
LINE
8
BLACK
6
CONTINUOUS
10
-4.1061417322834641
20
6.0607323622047247
11
-4.147614842519685
21
6.039142834645669
0
LINE
8
BLACK
6
CONTINUOUS
10
-4.147614842519685
20
6.039142834645669
11
-4.1491157086614177
21
6.0390115748031494
0
LINE
8
BLACK
6
CONTINUOUS
10
-4.1491157086614177
20
6.0390115748031494
11
-4.1502698818897636
21
6.0399799999999999
0
LINE
8
BLACK
6
CONTINUOUS
10
-4.1502698818897636
20
6.0399799999999999
11
-4.1504011417322833
21
6.0414808661417325
0
LINE
8
BLACK
6
CONTINUOUS
10
-4.1504011417322833
20
6.0414808661417325
11
-4.1494327165354328
21
6.0426350393700785
0
LINE
8
BLACK
6
CONTINUOUS
10
-4.1494327165354328
20
6.0426350393700785
11
-4.1122178346456693
21
6.0620078740157481
0
LINE
8
BLACK
6
CONTINUOUS
10
-4.1122178346456693
20
6.0620078740157481
11
-4.4898293700787404
21
6.0620078740157481
0
LINE
8
BLACK
6
CONTINUOUS
10
-4.4898293700787404
20
6.0620078740157481
11
-4.4526145275590547
21
6.0426350393700785
0
LINE
8
BLACK
6
CONTINUOUS
10
-4.4526145275590547
20
6.0426350393700785
11
-4.4516461023622043
21
6.0414808661417325
0
LINE
8
BLACK
6
CONTINUOUS
10
-4.4516461023622043
20
6.0414808661417325
11
-4.4517774015748026
21
6.0399799999999999
0
LINE
8
BLACK
6
CONTINUOUS
10
-4.4517774015748026
20
6.0399799999999999
11
-4.4529315354330707
21
6.0390115748031494
0
LINE
8
BLACK
6
CONTINUOUS
10
-4.4529315354330707
20
6.0390115748031494
11
-4.4544324409448821
21
6.0391428740157478
0
LINE
8
BLACK
6
CONTINUOUS
10
-4.4544324409448821
20
6.0391428740157478
11
-4.4959055118110234
21
6.0607323622047247
0
LINE
8
BLACK
6
CONTINUOUS
10
-4.4959055118110234
20
6.0607323622047247
11
-4.4959055118110234
21
6.0002362204724404
0
LINE
8
BLACK
6
CONTINUOUS
10
-4.4959055118110234
20
6.0002362204724404
11
-4.496482086614173
21
5.9988442913385827
0
LINE
8
BLACK
6
CONTINUOUS
10
-4.496482086614173
20
5.9988442913385827
11
-4.4978740157480317
21
5.998267716535433
0
LINE
8
BLACK
6
CONTINUOUS
10
-4.4978740157480317
20
5.998267716535433
11
-4.4992659448818895
21
5.9988442913385827
0
LINE
8
BLACK
6
CONTINUOUS
10
-4.4992659448818895
20
5.9988442913385827
11
-4.4998425196850391
21
6.0002362204724404
0
LINE
8
BLACK
6
CONTINUOUS
10
-4.4998425196850391
20
6.0002362204724404
11
-4.4998425196850391
21
6.0607323622047247
0
LINE
8
BLACK
6
CONTINUOUS
10
-4.4998425196850391
20
6.0607323622047247
11
-4.54131562992126
21
6.039142834645669
0
LINE
8
BLACK
6
CONTINUOUS
10
-4.54131562992126
20
6.039142834645669
11
-4.5428164960629918
21
6.0390115748031494
0
LINE
8
BLACK
6
CONTINUOUS
10
-4.5428164960629918
20
6.0390115748031494
11
-4.5439706692913386
21
6.0399799999999999
0
LINE
8
BLACK
6
CONTINUOUS
10
-4.5439706692913386
20
6.0399799999999999
11
-4.5441019291338582
21
6.0414808661417325
0
LINE
8
BLACK
6
CONTINUOUS
10
-4.5441019291338582
20
6.0414808661417325
11
-4.5431335039370078
21
6.0426350393700785
0
LINE
8
BLACK
6
CONTINUOUS
10
-4.5431335039370078
20
6.0426350393700785
11
-4.5059186220472442
21
6.0620078740157481
0
LINE
8
BLACK
6
CONTINUOUS
10
-4.5059186220472442
20
6.0620078740157481
11
-4.8835301574803145
21
6.0620078740157481
0
LINE
8
BLACK
6
CONTINUOUS
10
-4.8835301574803145
20
6.0620078740157481
11
-4.8463153149606297
21
6.0426350393700785
0
LINE
8
BLACK
6
CONTINUOUS
10
-4.8463153149606297
20
6.0426350393700785
11
-4.8453468897637793
21
6.0414808661417325
0
LINE
8
BLACK
6
CONTINUOUS
10
-4.8453468897637793
20
6.0414808661417325
11
-4.8454781889763776
21
6.0399799999999999
0
LINE
8
BLACK
6
CONTINUOUS
10
-4.8454781889763776
20
6.0399799999999999
11
-4.8466323228346457
21
6.0390115748031494
0
LINE
8
BLACK
6
CONTINUOUS
10
-4.8466323228346457
20
6.0390115748031494
11
-4.8481332283464562
21
6.0391428740157478
0
LINE
8
BLACK
6
CONTINUOUS
10
-4.8481332283464562
20
6.0391428740157478
11
-4.8896062992125984
21
6.0607323622047247
0
LINE
8
BLACK
6
CONTINUOUS
10
-4.8896062992125984
20
6.0607323622047247
11
-4.8896062992125984
21
6.0002362204724404
0
LINE
8
BLACK
6
CONTINUOUS
10
-4.8896062992125984
20
6.0002362204724404
11
-4.890182874015748
21
5.9988442913385827
0
LINE
8
BLACK
6
CONTINUOUS
10
-4.890182874015748
20
5.9988442913385827
11
-4.8915748031496058
21
5.998267716535433
0
LINE
8
BLACK
6
CONTINUOUS
10
-4.8915748031496058
20
5.998267716535433
11
-4.8929667322834645
21
5.9988442913385827
0
LINE
8
BLACK
6
CONTINUOUS
10
-4.8929667322834645
20
5.9988442913385827
11
-4.8935433070866141
21
6.0002362204724404
0
LINE
8
BLACK
6
CONTINUOUS
10
-4.8935433070866141
20
6.0002362204724404
11
-4.8935433070866141
21
6.0607323622047247
0
LINE
8
BLACK
6
CONTINUOUS
10
-4.8935433070866141
20
6.0607323622047247
11
-4.9350164173228341
21
6.039142834645669
0
LINE
8
BLACK
6
CONTINUOUS
10
-4.9350164173228341
20
6.039142834645669
11
-4.9365172834645668
21
6.0390115748031494
0
LINE
8
BLACK
6
CONTINUOUS
10
-4.9365172834645668
20
6.0390115748031494
11
-4.9376714566929136
21
6.0399799999999999
0
LINE
8
BLACK
6
CONTINUOUS
10
-4.9376714566929136
20
6.0399799999999999
11
-4.9378027165354332
21
6.0414808661417325
0
LINE
8
BLACK
6
CONTINUOUS
10
-4.9378027165354332
20
6.0414808661417325
11
-4.9368342913385828
21
6.0426350393700785
0
LINE
8
BLACK
6
CONTINUOUS
10
-4.9368342913385828
20
6.0426350393700785
11
-4.8996194094488184
21
6.0620078740157481
0
LINE
8
BLACK
6
CONTINUOUS
10
-4.8996194094488184
20
6.0620078740157481
11
-4.9819553543307089
21
6.0620078740157481
0
LINE
8
BLACK
6
CONTINUOUS
10
-4.9819553543307089
20
6.0620078740157481
11
-4.9447405118110233
21
6.0426350393700785
0
LINE
8
BLACK
6
CONTINUOUS
10
-4.9447405118110233
20
6.0426350393700785
11
-4.9437720866141728
21
6.0414808661417325
0
LINE
8
BLACK
6
CONTINUOUS
10
-4.9437720866141728
20
6.0414808661417325
11
-4.9439033858267711
21
6.0399799999999999
0
LINE
8
BLACK
6
CONTINUOUS
10
-4.9439033858267711
20
6.0399799999999999
11
-4.9450575196850393
21
6.0390115748031494
0
LINE
8
BLACK
6
CONTINUOUS
10
-4.9450575196850393
20
6.0390115748031494
11
-4.9465584251968506
21
6.0391428740157478
0
LINE
8
BLACK
6
CONTINUOUS
10
-4.9465584251968506
20
6.0391428740157478
11
-4.9880314960629919
21
6.0607323622047247
0
LINE
8
BLACK
6
CONTINUOUS
10
-4.9880314960629919
20
6.0607323622047247
11
-4.9880314960629919
21
6.0002362204724404
0
LINE
8
BLACK
6
CONTINUOUS
10
-4.9880314960629919
20
6.0002362204724404
11
-4.9886080708661416
21
5.9988442913385827
0
LINE
8
BLACK
6
CONTINUOUS
10
-4.9886080708661416
20
5.9988442913385827
11
-4.9900000000000002
21
5.998267716535433
0
LINE
8
BLACK
6
CONTINUOUS
10
-4.9900000000000002
20
5.998267716535433
11
-4.991391929133858
21
5.9988442913385827
0
LINE
8
BLACK
6
CONTINUOUS
10
-4.991391929133858
20
5.9988442913385827
11
-4.9919685039370076
21
6.0002362204724404
0
LINE
8
BLACK
6
CONTINUOUS
10
-4.9919685039370076
20
6.0002362204724404
11
-4.9919685039370076
21
6.0870637795275586
0
LINE
8
BLACK
6
CONTINUOUS
10
-4.9919685039370076
20
6.0870637795275586
11
-4.991391929133858
21
6.0884557086614173
0
LINE
8
BLACK
6
CONTINUOUS
10
-4.991391929133858
20
6.0884557086614173
11
-4.9900000000000002
21
6.0890322834645669
0
LINE
8
BLACK
6
CONTINUOUS
10
-4.9900000000000002
20
6.0890322834645669
11
-4.9886080708661416
21
6.0884557086614173
0
LINE
8
BLACK
6
CONTINUOUS
10
-4.9886080708661416
20
6.0884557086614173
11
-4.9880314960629919
21
6.0870637795275586
0
LINE
8
BLACK
6
CONTINUOUS
10
-4.9880314960629919
20
6.0870637795275586
11
-4.9880314960629919
21
6.0672203543307086
0
LINE
8
BLACK
6
CONTINUOUS
10
-4.9880314960629919
20
6.0672203543307086
11
-4.9465584251968506
21
6.0888098818897634
0
LINE
8
BLACK
6
CONTINUOUS
10
-4.9465584251968506
20
6.0888098818897634
11
-4.9450575196850393
21
6.0889411811023617
0
LINE
8
BLACK
6
CONTINUOUS
10
-4.9450575196850393
20
6.0889411811023617
11
-4.9439033858267711
21
6.0879727559055112
0
LINE
8
BLACK
6
CONTINUOUS
10
-4.9439033858267711
20
6.0879727559055112
11
-4.9437720866141728
21
6.0864718897637795
0
LINE
8
BLACK
6
CONTINUOUS
10
-4.9437720866141728
20
6.0864718897637795
11
-4.9447405118110233
21
6.0853177165354326
0
LINE
8
BLACK
6
CONTINUOUS
10
-4.9447405118110233
20
6.0853177165354326
11
-4.9819553543307089
21
6.0659448818897639
0
LINE
8
BLACK
6
CONTINUOUS
10
-4.9819553543307089
20
6.0659448818897639
11
-4.8996194094488184
21
6.0659448818897639
0
LINE
8
BLACK
6
CONTINUOUS
10
-4.8996194094488184
20
6.0659448818897639
11
-4.9368342913385828
21
6.0853177165354326
0
LINE
8
BLACK
6
CONTINUOUS
10
-4.9368342913385828
20
6.0853177165354326
11
-4.9378027165354332
21
6.0864718897637795
0
LINE
8
BLACK
6
CONTINUOUS
10
-4.9378027165354332
20
6.0864718897637795
11
-4.9376714566929136
21
6.0879727559055112
0
LINE
8
BLACK
6
CONTINUOUS
10
-4.9376714566929136
20
6.0879727559055112
11
-4.9365172834645668
21
6.0889411811023617
0
LINE
8
BLACK
6
CONTINUOUS
10
-4.9365172834645668
20
6.0889411811023617
11
-4.9350164173228341
21
6.0888099212598421
0
LINE
8
BLACK
6
CONTINUOUS
10
-4.9350164173228341
20
6.0888099212598421
11
-4.8935433070866141
21
6.0672203543307086
0
LINE
8
BLACK
6
CONTINUOUS
10
-4.8935433070866141
20
6.0672203543307086
11
-4.8935433070866141
21
6.0870637795275586
0
LINE
8
BLACK
6
CONTINUOUS
10
-4.8935433070866141
20
6.0870637795275586
11
-4.8929667322834645
21
6.0884557086614173
0
LINE
8
BLACK
6
CONTINUOUS
10
-4.8929667322834645
20
6.0884557086614173
11
-4.8915748031496058
21
6.0890322834645669
0
LINE
8
BLACK
6
CONTINUOUS
10
-4.8915748031496058
20
6.0890322834645669
11
-4.890182874015748
21
6.0884557086614173
0
LINE
8
BLACK
6
CONTINUOUS
10
-4.890182874015748
20
6.0884557086614173
11
-4.8896062992125984
21
6.0870637795275586
0
LINE
8
BLACK
6
CONTINUOUS
10
-4.8896062992125984
20
6.0870637795275586
11
-4.8896062992125984
21
6.0672203543307086
0
LINE
8
BLACK
6
CONTINUOUS
10
-4.8896062992125984
20
6.0672203543307086
11
-4.8481332283464562
21
6.0888098818897634
0
LINE
8
BLACK
6
CONTINUOUS
10
-4.8481332283464562
20
6.0888098818897634
11
-4.8466323228346457
21
6.0889411811023617
0
LINE
8
BLACK
6
CONTINUOUS
10
-4.8466323228346457
20
6.0889411811023617
11
-4.8454781889763776
21
6.0879727559055112
0
LINE
8
BLACK
6
CONTINUOUS
10
-4.8454781889763776
20
6.0879727559055112
11
-4.8453468897637793
21
6.0864718897637795
0
LINE
8
BLACK
6
CONTINUOUS
10
-4.8453468897637793
20
6.0864718897637795
11
-4.8463153149606297
21
6.0853177165354326
0
LINE
8
BLACK
6
CONTINUOUS
10
-4.8463153149606297
20
6.0853177165354326
11
-4.8835301574803145
21
6.0659448818897639
0
LINE
8
BLACK
6
CONTINUOUS
10
-4.8835301574803145
20
6.0659448818897639
11
-4.5059186220472442
21
6.0659448818897639
0
LINE
8
BLACK
6
CONTINUOUS
10
-4.5059186220472442
20
6.0659448818897639
11
-4.5431335039370078
21
6.0853177165354326
0
LINE
8
BLACK
6
CONTINUOUS
10
-4.5431335039370078
20
6.0853177165354326
11
-4.5441019291338582
21
6.0864718897637795
0
LINE
8
BLACK
6
CONTINUOUS
10
-4.5441019291338582
20
6.0864718897637795
11
-4.5439706692913386
21
6.0879727559055112
0
LINE
8
BLACK
6
CONTINUOUS
10
-4.5439706692913386
20
6.0879727559055112
11
-4.5428164960629918
21
6.0889411811023617
0
LINE
8
BLACK
6
CONTINUOUS
10
-4.5428164960629918
20
6.0889411811023617
11
-4.54131562992126
21
6.0888099212598421
0
LINE
8
BLACK
6
CONTINUOUS
10
-4.54131562992126
20
6.0888099212598421
11
-4.4998425196850391
21
6.0672203543307086
0
LINE
8
BLACK
6
CONTINUOUS
10
-4.4998425196850391
20
6.0672203543307086
11
-4.4998425196850391
21
6.0870637795275586
0
LINE
8
BLACK
6
CONTINUOUS
10
-4.4998425196850391
20
6.0870637795275586
11
-4.4992659448818895
21
6.0884557086614173
0
LINE
8
BLACK
6
CONTINUOUS
10
-4.4992659448818895
20
6.0884557086614173
11
-4.4978740157480317
21
6.0890322834645669
0
LINE
8
BLACK
6
CONTINUOUS
10
-4.4978740157480317
20
6.0890322834645669
11
-4.496482086614173
21
6.0884557086614173
0
LINE
8
BLACK
6
CONTINUOUS
10
-4.496482086614173
20
6.0884557086614173
11
-4.4959055118110234
21
6.0870637795275586
0
LINE
8
BLACK
6
CONTINUOUS
10
-4.4959055118110234
20
6.0870637795275586
11
-4.4959055118110234
21
6.0672203543307086
0
LINE
8
BLACK
6
CONTINUOUS
10
-4.4959055118110234
20
6.0672203543307086
11
-4.4544324409448821
21
6.0888098818897634
0
LINE
8
BLACK
6
CONTINUOUS
10
-4.4544324409448821
20
6.0888098818897634
11
-4.4529315354330707
21
6.0889411811023617
0
LINE
8
BLACK
6
CONTINUOUS
10
-4.4529315354330707
20
6.0889411811023617
11
-4.4517774015748026
21
6.0879727559055112
0
LINE
8
BLACK
6
CONTINUOUS
10
-4.4517774015748026
20
6.0879727559055112
11
-4.4516461023622043
21
6.0864718897637795
0
LINE
8
BLACK
6
CONTINUOUS
10
-4.4516461023622043
20
6.0864718897637795
11
-4.4526145275590547
21
6.0853177165354326
0
LINE
8
BLACK
6
CONTINUOUS
10
-4.4526145275590547
20
6.0853177165354326
11
-4.4898293700787404
21
6.0659448818897639
0
LINE
8
BLACK
6
CONTINUOUS
10
-4.4898293700787404
20
6.0659448818897639
11
-4.1122178346456693
21
6.0659448818897639
0
LINE
8
BLACK
6
CONTINUOUS
10
-4.1122178346456693
20
6.0659448818897639
11
-4.1494327165354328
21
6.0853177165354326
0
LINE
8
BLACK
6
CONTINUOUS
10
-4.1494327165354328
20
6.0853177165354326
11
-4.1504011417322833
21
6.0864718897637795
0
LINE
8
BLACK
6
CONTINUOUS
10
-4.1504011417322833
20
6.0864718897637795
11
-4.1502698818897636
21
6.0879727559055112
0
LINE
8
BLACK
6
CONTINUOUS
10
-4.1502698818897636
20
6.0879727559055112
11
-4.1491157086614177
21
6.0889411811023617
0
LINE
8
BLACK
6
CONTINUOUS
10
-4.1491157086614177
20
6.0889411811023617
11
-4.147614842519685
21
6.0888099212598421
0
LINE
8
BLACK
6
CONTINUOUS
10
-4.147614842519685
20
6.0888099212598421
11
-4.1061417322834641
21
6.0672203543307086
0
LINE
8
BLACK
6
CONTINUOUS
10
-4.1061417322834641
20
6.0672203543307086
11
-4.1061417322834641
21
6.0870637795275586
0
LINE
8
BLACK
6
CONTINUOUS
10
-4.1061417322834641
20
6.0870637795275586
11
-4.1055651574803145
21
6.0884557086614173
0
LINE
8
BLACK
6
CONTINUOUS
10
-4.1055651574803145
20
6.0884557086614173
11
-4.1041732283464567
21
6.0890322834645669
0
LINE
8
BLACK
6
CONTINUOUS
10
-4.1041732283464567
20
6.0890322834645669
11
-4.102781299212598
21
6.0884557086614173
0
LINE
8
BLACK
6
CONTINUOUS
10
-5.0316409448818895
20
6.1334904330708664
11
-5.0315056692913389
21
6.133376929133858
0
LINE
8
BLACK
6
CONTINUOUS
10
-5.0315056692913389
20
6.133376929133858
11
-5.0313303543307084
21
6.1333567716535429
0
LINE
8
BLACK
6
CONTINUOUS
10
-5.0313303543307084
20
6.1333567716535429
11
-5.0275808267716533
21
6.1314820078740153
0
LINE
8
BLACK
6
CONTINUOUS
10
-5.0275808267716533
20
6.1314820078740153
11
-5.0268717322834648
21
6.1309560629921256
0
LINE
8
BLACK
6
CONTINUOUS
10
-5.0268717322834648
20
6.1309560629921256
11
-5.0268134251968499
21
6.1309288976377951
0
LINE
8
BLACK
6
CONTINUOUS
10
-5.0268134251968499
20
6.1309288976377951
11
-5.0249386614173224
21
6.1290541338582676
0
LINE
8
BLACK
6
CONTINUOUS
10
-5.0249386614173224
20
6.1290541338582676
11
-5.024432362204724
21
6.1283310236220467
0
LINE
8
BLACK
6
CONTINUOUS
10
-5.024432362204724
20
6.1283310236220467
11
-5.0243855511811022
21
6.1282867322834642
0
LINE
8
BLACK
6
CONTINUOUS
10
-5.0243855511811022
20
6.1282867322834642
11
-5.0225107874015746
21
6.1245372047244091
0
LINE
8
BLACK
6
CONTINUOUS
10
-5.0225107874015746
20
6.1245372047244091
11
-5.0222184251968507
21
6.123554291338583
0
LINE
8
BLACK
6
CONTINUOUS
10
-5.0222184251968507
20
6.123554291338583
11
-5.0222594094488189
21
6.1233825590551181
0
LINE
8
BLACK
6
CONTINUOUS
10
-5.0222594094488189
20
6.1233825590551181
11
-5.0221990551181097
21
6.1232166929133856
0
LINE
8
BLACK
6
CONTINUOUS
10
-5.0221990551181097
20
6.1232166929133856
11
-5.0221990551181097
21
6.1194671653543304
0
LINE
8
BLACK
6
CONTINUOUS
10
-5.0221990551181097
20
6.1194671653543304
11
-5.0223523228346458
21
6.1185977559055118
0
LINE
8
BLACK
6
CONTINUOUS
10
-5.0223523228346458
20
6.1185977559055118
11
-5.0223505905511807
21
6.1185333858267716
0
LINE
8
BLACK
6
CONTINUOUS
10
-5.0223505905511807
20
6.1185333858267716
11
-5.0242253543307083
21
6.1129091338582677
0
LINE
8
BLACK
6
CONTINUOUS
10
-5.0242253543307083
20
6.1129091338582677
11
-5.0247136614173229
21
6.1120073622047242
0
LINE
8
BLACK
6
CONTINUOUS
10
-5.0247136614173229
20
6.1120073622047242
11
-5.0248640157480313
21
6.111914960629921
0
LINE
8
BLACK
6
CONTINUOUS
10
-5.0248640157480313
20
6.111914960629921
11
-5.0249386614173224
21
6.1117549606299209
0
LINE
8
BLACK
6
CONTINUOUS
10
-5.0249386614173224
20
6.1117549606299209
11
-5.042395157480315
21
6.0942984251968504
0
LINE
8
BLACK
6
CONTINUOUS
10
-5.042395157480315
20
6.0942984251968504
11
-5.0251518110236217
21
6.0942984251968504
0
LINE
8
BLACK
6
CONTINUOUS
10
-5.0251518110236217
20
6.0942984251968504
11
-5.0241418897637793
21
6.0941203543307081
0
LINE
8
BLACK
6
CONTINUOUS
10
-5.0241418897637793
20
6.0941203543307081
11
-5.0225946456692911
21
6.0928220472440939
0
LINE
8
BLACK
6
CONTINUOUS
10
-5.0225946456692911
20
6.0928220472440939
11
-5.0222438976377948
21
6.0908329133858263
0
LINE
8
BLACK
6
CONTINUOUS
10
-5.0222438976377948
20
6.0908329133858263
11
-5.0232538188976381
21
6.0890837401574798
0
LINE
8
BLACK
6
CONTINUOUS
10
-5.0232538188976381
20
6.0890837401574798
11
-5.0251518110236217
21
6.0883929133858263
0
LINE
8
BLACK
6
CONTINUOUS
10
-5.0251518110236217
20
6.0883929133858263
11
-5.04952374015748
21
6.0883929133858263
0
LINE
8
BLACK
6
CONTINUOUS
10
-5.04952374015748
20
6.0883929133858263
11
-5.0501584645669286
21
6.0885048031496058
0
LINE
8
BLACK
6
CONTINUOUS
10
-5.0501584645669286
20
6.0885048031496058
11
-5.0502879527559053
21
6.0884935039370074
0
LINE
8
BLACK
6
CONTINUOUS
10
-5.0502879527559053
20
6.0884935039370074
11
-5.0503531496062992
21
6.0885391338582675
0
LINE
8
BLACK
6
CONTINUOUS
10
-5.0503531496062992
20
6.0885391338582675
11
-5.0505336614173224
21
6.0885709842519686
0
LINE
8
BLACK
6
CONTINUOUS
10
-5.0505336614173224
20
6.0885709842519686
11
-5.0512144881889762
21
6.0891422440944885
0
LINE
8
BLACK
6
CONTINUOUS
10
-5.0512144881889762
20
6.0891422440944885
11
-5.0519425196850394
21
6.089652047244094
0
LINE
8
BLACK
6
CONTINUOUS
10
-5.0519425196850394
20
6.089652047244094
11
-5.0519774409448814
21
6.0897824803149607
0
LINE
8
BLACK
6
CONTINUOUS
10
-5.0519774409448814
20
6.0897824803149607
11
-5.0520809055118105
21
6.0898692913385828
0
LINE
8
BLACK
6
CONTINUOUS
10
-5.0520809055118105
20
6.0898692913385828
11
-5.0522352362204721
21
6.0907446062992125
0
LINE
8
BLACK
6
CONTINUOUS
10
-5.0522352362204721
20
6.0907446062992125
11
-5.0524652362204723
21
6.091602992125984
0
LINE
8
BLACK
6
CONTINUOUS
10
-5.0524652362204723
20
6.091602992125984
11
-5.0524081496062987
21
6.0917253149606294
0
LINE
8
BLACK
6
CONTINUOUS
10
-5.0524081496062987
20
6.0917253149606294
11
-5.0524316535433069
21
6.0918584251968504
0
LINE
8
BLACK
6
CONTINUOUS
10
-5.0524316535433069
20
6.0918584251968504
11
-5.0519871259842519
21
6.0926283070866143
0
LINE
8
BLACK
6
CONTINUOUS
10
-5.0519871259842519
20
6.0926283070866143
11
-5.0516116535433069
21
6.0934335826771653
0
LINE
8
BLACK
6
CONTINUOUS
10
-5.0516116535433069
20
6.0934335826771653
11
-5.0296073622047244
21
6.1154378740157478
0
LINE
8
BLACK
6
CONTINUOUS
10
-5.0296073622047244
20
6.1154378740157478
11
-5.0281045669291338
21
6.1199462992125984
0
LINE
8
BLACK
6
CONTINUOUS
10
-5.0281045669291338
20
6.1199462992125984
11
-5.0281045669291338
21
6.122519645669291
0
LINE
8
BLACK
6
CONTINUOUS
10
-5.0281045669291338
20
6.122519645669291
11
-5.0294533070866141
21
6.1252171259842516
0
LINE
8
BLACK
6
CONTINUOUS
10
-5.0294533070866141
20
6.1252171259842516
11
-5.0306504330708659
21
6.1264142519685034
0
LINE
8
BLACK
6
CONTINUOUS
10
-5.0306504330708659
20
6.1264142519685034
11
-5.0333479133858265
21
6.1277629921259837
0
LINE
8
BLACK
6
CONTINUOUS
10
-5.0333479133858265
20
6.1277629921259837
11
-5.0413276377952752
21
6.1277629921259837
0
LINE
8
BLACK
6
CONTINUOUS
10
-5.0413276377952752
20
6.1277629921259837
11
-5.0440251181102358
21
6.1264142519685034
0
LINE
8
BLACK
6
CONTINUOUS
10
-5.0440251181102358
20
6.1264142519685034
11
-5.0455610629921255
21
6.1248783070866137
0
LINE
8
BLACK
6
CONTINUOUS
10
-5.0455610629921255
20
6.1248783070866137
11
-5.0464011023622044
21
6.1242901181102365
0
LINE
8
BLACK
6
CONTINUOUS
10
-5.0464011023622044
20
6.1242901181102365
11
-5.0484131889763777
21
6.1241140551181097
0
LINE
8
BLACK
6
CONTINUOUS
10
-5.0484131889763777
20
6.1241140551181097
11
-5.0500677559055118
21
6.1252725984251963
0
LINE
8
BLACK
6
CONTINUOUS
10
-5.0500677559055118
20
6.1252725984251963
11
-5.0505904724409447
21
6.1272235433070863
0
LINE
8
BLACK
6
CONTINUOUS
10
-5.0505904724409447
20
6.1272235433070863
11
-5.0497368897637793
21
6.1290541338582676
0
LINE
8
BLACK
6
CONTINUOUS
10
-5.0497368897637793
20
6.1290541338582676
11
-5.0478621259842518
21
6.1309288976377951
0
LINE
8
BLACK
6
CONTINUOUS
10
-5.0478621259842518
20
6.1309288976377951
11
-5.0471390157480318
21
6.1314351574803148
0
LINE
8
BLACK
6
CONTINUOUS
10
-5.0471390157480318
20
6.1314351574803148
11
-5.0470947244094484
21
6.1314820078740153
0
LINE
8
BLACK
6
CONTINUOUS
10
-5.0470947244094484
20
6.1314820078740153
11
-5.0433451968503933
21
6.1333567716535429
0
LINE
8
BLACK
6
CONTINUOUS
10
-5.0433451968503933
20
6.1333567716535429
11
-5.0423622834645672
21
6.1336491338582677
0
LINE
8
BLACK
6
CONTINUOUS
10
-5.0423622834645672
20
6.1336491338582677
11
-5.0421905511811023
21
6.1336081102362208
0
LINE
8
BLACK
6
CONTINUOUS
10
-5.0421905511811023
20
6.1336081102362208
11
-5.0420246850393697
21
6.1336685039370078
0
LINE
8
BLACK
6
CONTINUOUS
10
-5.0420246850393697
20
6.1336685039370078
11
-5.032650866141732
21
6.1336685039370078
0
LINE
8
BLACK
6
CONTINUOUS
10
-5.032650866141732
20
6.1336685039370078
11
-5.0316409448818895
21
6.1334904330708664
0
LINE
8
BLACK
6
CONTINUOUS
10
-4.9697737401574802
20
6.1334904330708664
11
-4.968226496062992
21
6.1321921259842522
0
LINE
8
BLACK
6
CONTINUOUS
10
-4.968226496062992
20
6.1321921259842522
11
-4.9678757480314957
21
6.1302029921259837
0
LINE
8
BLACK
6
CONTINUOUS
10
-4.9678757480314957
20
6.1302029921259837
11
-4.9688856692913381
21
6.1284538188976381
0
LINE
8
BLACK
6
CONTINUOUS
10
-4.9688856692913381
20
6.1284538188976381
11
-4.9707836614173226
21
6.1277629921259837
0
LINE
8
BLACK
6
CONTINUOUS
10
-4.9707836614173226
20
6.1277629921259837
11
-4.9868590944881888
21
6.1277629921259837
0
LINE
8
BLACK
6
CONTINUOUS
10
-4.9868590944881888
20
6.1277629921259837
11
-4.9878362204724409
21
6.1179916929133853
0
LINE
8
BLACK
6
CONTINUOUS
10
-4.9878362204724409
20
6.1179916929133853
11
-4.9871022834645666
21
6.1183586614173224
0
LINE
8
BLACK
6
CONTINUOUS
10
-4.9871022834645666
20
6.1183586614173224
11
-4.9861193700787396
21
6.1186510236220473
0
LINE
8
BLACK
6
CONTINUOUS
10
-4.9861193700787396
20
6.1186510236220473
11
-4.9859476771653544
21
6.1186099999999994
0
LINE
8
BLACK
6
CONTINUOUS
10
-4.9859476771653544
20
6.1186099999999994
11
-4.9857817716535431
21
6.1186703937007874
0
LINE
8
BLACK
6
CONTINUOUS
10
-4.9857817716535431
20
6.1186703937007874
11
-4.9764079527559053
21
6.1186703937007874
0
LINE
8
BLACK
6
CONTINUOUS
10
-4.9764079527559053
20
6.1186703937007874
11
-4.9753980314960629
21
6.1184923228346459
0
LINE
8
BLACK
6
CONTINUOUS
10
-4.9753980314960629
20
6.1184923228346459
11
-4.9752627952755901
21
6.1183788188976376
0
LINE
8
BLACK
6
CONTINUOUS
10
-4.9752627952755901
20
6.1183788188976376
11
-4.9750874409448818
21
6.1183586614173224
0
LINE
8
BLACK
6
CONTINUOUS
10
-4.9750874409448818
20
6.1183586614173224
11
-4.9713379133858266
21
6.1164838976377949
0
LINE
8
BLACK
6
CONTINUOUS
10
-4.9713379133858266
20
6.1164838976377949
11
-4.9706288582677161
21
6.1159579527559051
0
LINE
8
BLACK
6
CONTINUOUS
10
-4.9706288582677161
20
6.1159579527559051
11
-4.9705705118110233
21
6.1159307874015747
0
LINE
8
BLACK
6
CONTINUOUS
10
-4.9705705118110233
20
6.1159307874015747
11
-4.9686957480314957
21
6.1140560236220471
0
LINE
8
BLACK
6
CONTINUOUS
10
-4.9686957480314957
20
6.1140560236220471
11
-4.9681894881889761
21
6.1133329133858263
0
LINE
8
BLACK
6
CONTINUOUS
10
-4.9681894881889761
20
6.1133329133858263
11
-4.9681426377952755
21
6.1132886220472438
0
LINE
8
BLACK
6
CONTINUOUS
10
-4.9681426377952755
20
6.1132886220472438
11
-4.966267874015748
21
6.1095390944881887
0
LINE
8
BLACK
6
CONTINUOUS
10
-4.966267874015748
20
6.1095390944881887
11
-4.9659755118110231
21
6.1085561811023616
0
LINE
8
BLACK
6
CONTINUOUS
10
-4.9659755118110231
20
6.1085561811023616
11
-4.966016535433071
21
6.1083844488188976
0
LINE
8
BLACK
6
CONTINUOUS
10
-4.966016535433071
20
6.1083844488188976
11
-4.9659561417322831
21
6.1082185826771651
0
LINE
8
BLACK
6
CONTINUOUS
10
-4.9659561417322831
20
6.1082185826771651
11
-4.9659561417322831
21
6.0988447637795273
0
LINE
8
BLACK
6
CONTINUOUS
10
-4.9659561417322831
20
6.0988447637795273
11
-4.9661342125984254
21
6.0978348425196849
0
LINE
8
BLACK
6
CONTINUOUS
10
-4.9661342125984254
20
6.0978348425196849
11
-4.9662477165354328
21
6.0976995669291334
0
LINE
8
BLACK
6
CONTINUOUS
10
-4.9662477165354328
20
6.0976995669291334
11
-4.966267874015748
21
6.0975242519685038
0
LINE
8
BLACK
6
CONTINUOUS
10
-4.966267874015748
20
6.0975242519685038
11
-4.9681426377952755
21
6.0937747244094487
0
LINE
8
BLACK
6
CONTINUOUS
10
-4.9681426377952755
20
6.0937747244094487
11
-4.9686685433070865
21
6.0930656299212593
0
LINE
8
BLACK
6
CONTINUOUS
10
-4.9686685433070865
20
6.0930656299212593
11
-4.9686957480314957
21
6.0930073228346453
0
LINE
8
BLACK
6
CONTINUOUS
10
-4.9686957480314957
20
6.0930073228346453
11
-4.9705705118110233
21
6.0911325590551177
0
LINE
8
BLACK
6
CONTINUOUS
10
-4.9705705118110233
20
6.0911325590551177
11
-4.9712935039370079
21
6.0906263385826769
0
LINE
8
BLACK
6
CONTINUOUS
10
-4.9712935039370079
20
6.0906263385826769
11
-4.9713378740157479
21
6.0905794488188976
0
LINE
8
BLACK
6
CONTINUOUS
10
-4.9713378740157479
20
6.0905794488188976
11
-4.975087401574803
21
6.0887046456692913
0
LINE
8
BLACK
6
CONTINUOUS
10
-4.975087401574803
20
6.0887046456692913
11
-4.9760703543307088
21
6.0884122834645664
0
LINE
8
BLACK
6
CONTINUOUS
10
-4.9760703543307088
20
6.0884122834645664
11
-4.9762420866141728
21
6.0884532677165355
0
LINE
8
BLACK
6
CONTINUOUS
10
-4.9762420866141728
20
6.0884532677165355
11
-4.9764079527559053
21
6.0883929133858263
0
LINE
8
BLACK
6
CONTINUOUS
10
-4.9764079527559053
20
6.0883929133858263
11
-4.9857817716535431
21
6.0883929133858263
0
LINE
8
BLACK
6
CONTINUOUS
10
-4.9857817716535431
20
6.0883929133858263
11
-4.9867916929133855
21
6.0885709842519686
0
LINE
8
BLACK
6
CONTINUOUS
10
-4.9867916929133855
20
6.0885709842519686
11
-4.986926968503937
21
6.0886844488188974
0
LINE
8
BLACK
6
CONTINUOUS
10
-4.986926968503937
20
6.0886844488188974
11
-4.9871022834645666
21
6.0887046456692913
0
LINE
8
BLACK
6
CONTINUOUS
10
-4.9871022834645666
20
6.0887046456692913
11
-4.9908518503937005
21
6.0905794488188976
0
LINE
8
BLACK
6
CONTINUOUS
10
-4.9908518503937005
20
6.0905794488188976
11
-4.9915608267716536
21
6.0911053149606298
0
LINE
8
BLACK
6
CONTINUOUS
10
-4.9915608267716536
20
6.0911053149606298
11
-4.9916192125984251
21
6.0911325590551177
0
LINE
8
BLACK
6
CONTINUOUS
10
-4.9916192125984251
20
6.0911325590551177
11
-4.9934939763779527
21
6.0930073622047241
0
LINE
8
BLACK
6
CONTINUOUS
10
-4.9934939763779527
20
6.0930073622047241
11
-4.9940821653543308
21
6.093847401574803
0
LINE
8
BLACK
6
CONTINUOUS
10
-4.9940821653543308
20
6.093847401574803
11
-4.9942581496062992
21
6.0958594881889763
0
LINE
8
BLACK
6
CONTINUOUS
10
-4.9942581496062992
20
6.0958594881889763
11
-4.9930996456692913
21
6.0975140157480316
0
LINE
8
BLACK
6
CONTINUOUS
10
-4.9930996456692913
20
6.0975140157480316
11
-4.9911486614173226
21
6.0980367322834645
0
LINE
8
BLACK
6
CONTINUOUS
10
-4.9911486614173226
20
6.0980367322834645
11
-4.9893180708661413
21
6.0971831102362204
0
LINE
8
BLACK
6
CONTINUOUS
10
-4.9893180708661413
20
6.0971831102362204
11
-4.9877822440944879
21
6.0956472047244095
0
LINE
8
BLACK
6
CONTINUOUS
10
-4.9877822440944879
20
6.0956472047244095
11
-4.9850846850393697
21
6.0942984251968504
0
LINE
8
BLACK
6
CONTINUOUS
10
-4.9850846850393697
20
6.0942984251968504
11
-4.9771050393700786
21
6.0942984251968504
0
LINE
8
BLACK
6
CONTINUOUS
10
-4.9771050393700786
20
6.0942984251968504
11
-4.974407559055118
21
6.0956471653543307
0
LINE
8
BLACK
6
CONTINUOUS
10
-4.974407559055118
20
6.0956471653543307
11
-4.9732103937007874
21
6.0968443307086613
0
LINE
8
BLACK
6
CONTINUOUS
10
-4.9732103937007874
20
6.0968443307086613
11
-4.9718616535433071
21
6.0995418110236219
0
LINE
8
BLACK
6
CONTINUOUS
10
-4.9718616535433071
20
6.0995418110236219
11
-4.9718616535433071
21
6.1075215354330705
0
LINE
8
BLACK
6
CONTINUOUS
10
-4.9718616535433071
20
6.1075215354330705
11
-4.9732103937007874
21
6.1102190157480312
0
LINE
8
BLACK
6
CONTINUOUS
10
-4.9732103937007874
20
6.1102190157480312
11
-4.9744075196850392
21
6.111416141732283
0
LINE
8
BLACK
6
CONTINUOUS
10
-4.9744075196850392
20
6.111416141732283
11
-4.9771049999999999
21
6.1127648818897633
0
LINE
8
BLACK
6
CONTINUOUS
10
-4.9771049999999999
20
6.1127648818897633
11
-4.9850847244094485
21
6.1127648818897633
0
LINE
8
BLACK
6
CONTINUOUS
10
-4.9850847244094485
20
6.1127648818897633
11
-4.9877822047244091
21
6.111416141732283
0
LINE
8
BLACK
6
CONTINUOUS
10
-4.9877822047244091
20
6.111416141732283
11
-4.9893180708661413
21
6.109880236220472
0
LINE
8
BLACK
6
CONTINUOUS
10
-4.9893180708661413
20
6.109880236220472
11
-4.9901581102362202
21
6.1092920078740161
0
LINE
8
BLACK
6
CONTINUOUS
10
-4.9901581102362202
20
6.1092920078740161
11
-4.9901774803149603
21
6.1092902755905509
0
LINE
8
BLACK
6
CONTINUOUS
10
-4.9901774803149603
20
6.1092902755905509
11
-4.9901914173228343
21
6.1092767322834645
0
LINE
8
BLACK
6
CONTINUOUS
10
-4.9901914173228343
20
6.1092767322834645
11
-4.9911817716535429
21
6.1092024015748034
0
LINE
8
BLACK
6
CONTINUOUS
10
-4.9911817716535429
20
6.1092024015748034
11
-4.9921702362204723
21
6.1091159448818892
0
LINE
8
BLACK
6
CONTINUOUS
10
-4.9921702362204723
20
6.1091159448818892
11
-4.992186141732283
21
6.1091270866141727
0
LINE
8
BLACK
6
CONTINUOUS
10
-4.992186141732283
20
6.1091270866141727
11
-4.9922055905511806
21
6.1091256299212597
0
LINE
8
BLACK
6
CONTINUOUS
10
-4.9922055905511806
20
6.1091256299212597
11
-4.9930113385826767
21
6.1097048425196849
0
LINE
8
BLACK
6
CONTINUOUS
10
-4.9930113385826767
20
6.1097048425196849
11
-4.9938248031496064
21
6.1102744488188971
0
LINE
8
BLACK
6
CONTINUOUS
10
-4.9938248031496064
20
6.1102744488188971
11
-4.993829842519685
21
6.1102932677165356
0
LINE
8
BLACK
6
CONTINUOUS
10
-4.993829842519685
20
6.1102932677165356
11
-4.9938455905511807
21
6.1103046062992128
0
LINE
8
BLACK
6
CONTINUOUS
10
-4.9938455905511807
20
6.1103046062992128
11
-4.9940904330708662
21
6.1112659842519683
0
LINE
8
BLACK
6
CONTINUOUS
10
-4.9940904330708662
20
6.1112659842519683
11
-4.9943475196850393
21
6.1122254330708659
0
LINE
8
BLACK
6
CONTINUOUS
10
-4.9943475196850393
20
6.1122254330708659
11
-4.9943392913385827
21
6.1122429921259842
0
LINE
8
BLACK
6
CONTINUOUS
10
-4.9943392913385827
20
6.1122429921259842
11
-4.9943441338582675
21
6.112261929133858
0
LINE
8
BLACK
6
CONTINUOUS
10
-4.9943441338582675
20
6.112261929133858
11
-4.9924694094488187
21
6.1310095669291336
0
LINE
8
BLACK
6
CONTINUOUS
10
-4.9924694094488187
20
6.1310095669291336
11
-4.9924270866141729
21
6.1311598818897632
0
LINE
8
BLACK
6
CONTINUOUS
10
-4.9924270866141729
20
6.1311598818897632
11
-4.9924392125984252
21
6.1312285039370078
0
LINE
8
BLACK
6
CONTINUOUS
10
-4.9924392125984252
20
6.1312285039370078
11
-4.9923779921259843
21
6.1313344881889762
0
LINE
8
BLACK
6
CONTINUOUS
10
-4.9923779921259843
20
6.1313344881889762
11
-4.9921917322834641
21
6.1319967322834641
0
LINE
8
BLACK
6
CONTINUOUS
10
-4.9921917322834641
20
6.1319967322834641
11
-4.9917427952755906
21
6.1324346062992126
0
LINE
8
BLACK
6
CONTINUOUS
10
-4.9917427952755906
20
6.1324346062992126
11
-4.9914292913385827
21
6.1329776771653544
0
LINE
8
BLACK
6
CONTINUOUS
10
-4.9914292913385827
20
6.1329776771653544
11
-4.9910414173228341
21
6.1331188188976373
0
LINE
8
BLACK
6
CONTINUOUS
10
-4.9910414173228341
20
6.1331188188976373
11
-4.9907459055118109
21
6.1334071259842515
0
LINE
8
BLACK
6
CONTINUOUS
10
-4.9907459055118109
20
6.1334071259842515
11
-4.9901205118110239
21
6.1334540157480317
0
LINE
8
BLACK
6
CONTINUOUS
10
-4.9901205118110239
20
6.1334540157480317
11
-4.9895312992125982
21
6.1336685039370078
0
LINE
8
BLACK
6
CONTINUOUS
10
-4.9895312992125982
20
6.1336685039370078
11
-4.9707836614173226
21
6.1336685039370078
0
LINE
8
BLACK
6
CONTINUOUS
10
-4.9707836614173226
20
6.1336685039370078
11
-4.9697737401574802
21
6.1334904330708664
0
LINE
8
BLACK
6
CONTINUOUS
10
-4.7806181102362206
20
6.1335941732283459
11
-4.7804508661417318
21
6.1336236614173227
0
LINE
8
BLACK
6
CONTINUOUS
10
-4.7804508661417318
20
6.1336236614173227
11
-4.779708818897638
21
6.1331951968503935
0
LINE
8
BLACK
6
CONTINUOUS
10
-4.779708818897638
20
6.1331951968503935
11
-4.7789239763779525
21
6.132850866141732
0
LINE
8
BLACK
6
CONTINUOUS
10
-4.7789239763779525
20
6.132850866141732
11
-4.7788487401574802
21
6.1326985826771656
0
LINE
8
BLACK
6
CONTINUOUS
10
-4.7788487401574802
20
6.1326985826771656
11
-4.7787016929133861
21
6.1326137401574803
0
LINE
8
BLACK
6
CONTINUOUS
10
-4.7787016929133861
20
6.1326137401574803
11
-4.7784086220472437
21
6.1318084645669293
0
LINE
8
BLACK
6
CONTINUOUS
10
-4.7784086220472437
20
6.1318084645669293
11
-4.7780287795275589
21
6.1310402755905509
0
LINE
8
BLACK
6
CONTINUOUS
10
-4.7780287795275589
20
6.1310402755905509
11
-4.7780689763779529
21
6.1308753149606297
0
LINE
8
BLACK
6
CONTINUOUS
10
-4.7780689763779529
20
6.1308753149606297
11
-4.7780108661417318
21
6.1307157480314958
0
LINE
8
BLACK
6
CONTINUOUS
10
-4.7780108661417318
20
6.1307157480314958
11
-4.7780108661417318
21
6.0942984251968504
0
LINE
8
BLACK
6
CONTINUOUS
10
-4.7780108661417318
20
6.0942984251968504
11
-4.7697150393700785
21
6.0942984251968504
0
LINE
8
BLACK
6
CONTINUOUS
10
-4.7697150393700785
20
6.0942984251968504
11
-4.768705118110236
21
6.0941203543307081
0
LINE
8
BLACK
6
CONTINUOUS
10
-4.768705118110236
20
6.0941203543307081
11
-4.7671578740157479
21
6.0928220472440939
0
LINE
8
BLACK
6
CONTINUOUS
10
-4.7671578740157479
20
6.0928220472440939
11
-4.7668071259842515
21
6.0908329133858263
0
LINE
8
BLACK
6
CONTINUOUS
10
-4.7668071259842515
20
6.0908329133858263
11
-4.7678170472440939
21
6.0890837401574798
0
LINE
8
BLACK
6
CONTINUOUS
10
-4.7678170472440939
20
6.0890837401574798
11
-4.7697150393700785
21
6.0883929133858263
0
LINE
8
BLACK
6
CONTINUOUS
10
-4.7697150393700785
20
6.0883929133858263
11
-4.7922122047244091
21
6.0883929133858263
0
LINE
8
BLACK
6
CONTINUOUS
10
-4.7922122047244091
20
6.0883929133858263
11
-4.7932221259842516
21
6.0885709842519686
0
LINE
8
BLACK
6
CONTINUOUS
10
-4.7932221259842516
20
6.0885709842519686
11
-4.7947693700787397
21
6.0898692913385828
0
LINE
8
BLACK
6
CONTINUOUS
10
-4.7947693700787397
20
6.0898692913385828
11
-4.7951201181102361
21
6.0918584251968504
0
LINE
8
BLACK
6
CONTINUOUS
10
-4.7951201181102361
20
6.0918584251968504
11
-4.7941101968503936
21
6.0936075984251969
0
LINE
8
BLACK
6
CONTINUOUS
10
-4.7941101968503936
20
6.0936075984251969
11
-4.7922122047244091
21
6.0942984251968504
0
LINE
8
BLACK
6
CONTINUOUS
10
-4.7922122047244091
20
6.0942984251968504
11
-4.7839163779527558
21
6.0942984251968504
0
LINE
8
BLACK
6
CONTINUOUS
10
-4.7839163779527558
20
6.0942984251968504
11
-4.7839163779527558
21
6.1217124015748032
0
LINE
8
BLACK
6
CONTINUOUS
10
-4.7839163779527558
20
6.1217124015748032
11
-4.7863747637795271
21
6.1192540157480311
0
LINE
8
BLACK
6
CONTINUOUS
10
-4.7863747637795271
20
6.1192540157480311
11
-4.7870978740157479
21
6.1187477165354327
0
LINE
8
BLACK
6
CONTINUOUS
10
-4.7870978740157479
20
6.1187477165354327
11
-4.7871421653543305
21
6.1187009055118109
0
LINE
8
BLACK
6
CONTINUOUS
10
-4.7871421653543305
20
6.1187009055118109
11
-4.7908916929133856
21
6.1168261417322833
0
LINE
8
BLACK
6
CONTINUOUS
10
-4.7908916929133856
20
6.1168261417322833
11
-4.7918746456692913
21
6.1165337795275585
0
LINE
8
BLACK
6
CONTINUOUS
10
-4.7918746456692913
20
6.1165337795275585
11
-4.7938391338582678
21
6.1170030708661418
0
LINE
8
BLACK
6
CONTINUOUS
10
-4.7938391338582678
20
6.1170030708661418
11
-4.795042440944882
21
6.1186253149606298
0
LINE
8
BLACK
6
CONTINUOUS
10
-4.795042440944882
20
6.1186253149606298
11
-4.7949213779527557
21
6.1206414960629916
0
LINE
8
BLACK
6
CONTINUOUS
10
-4.7949213779527557
20
6.1206414960629916
11
-4.7935327165354327
21
6.1221081889763775
0
LINE
8
BLACK
6
CONTINUOUS
10
-4.7935327165354327
20
6.1221081889763775
11
-4.7902117716535431
21
6.1237686614173228
0
LINE
8
BLACK
6
CONTINUOUS
10
-4.7902117716535431
20
6.1237686614173228
11
-4.7870078740157478
21
6.1269725590551181
0
LINE
8
BLACK
6
CONTINUOUS
10
-4.7870078740157478
20
6.1269725590551181
11
-4.7834204724409446
21
6.1323536614173229
0
LINE
8
BLACK
6
CONTINUOUS
10
-4.7834204724409446
20
6.1323536614173229
11
-4.7827120866141728
21
6.1330951968503937
0
LINE
8
BLACK
6
CONTINUOUS
10
-4.7827120866141728
20
6.1330951968503937
11
-4.782549133858268
21
6.1331428740157481
0
LINE
8
BLACK
6
CONTINUOUS
10
-4.782549133858268
20
6.1331428740157481
11
-4.7824400000000002
21
6.1332729133858264
0
LINE
8
BLACK
6
CONTINUOUS
10
-4.7824400000000002
20
6.1332729133858264
11
-4.7815962204724407
21
6.1334216929133856
0
LINE
8
BLACK
6
CONTINUOUS
10
-4.7815962204724407
20
6.1334216929133856
11
-4.7807735826771651
21
6.1336624015748029
0
LINE
8
BLACK
6
CONTINUOUS
10
-4.7807735826771651
20
6.1336624015748029
11
-4.7806181102362206
21
6.1335941732283459
0
LINE
8
BLACK
6
CONTINUOUS
10
-4.7405836220472439
20
6.1334904330708664
11
-4.7404483858267712
21
6.133376929133858
0
LINE
8
BLACK
6
CONTINUOUS
10
-4.7404483858267712
20
6.133376929133858
11
-4.7402730314960628
21
6.1333567716535429
0
LINE
8
BLACK
6
CONTINUOUS
10
-4.7402730314960628
20
6.1333567716535429
11
-4.7365235039370077
21
6.1314820078740153
0
LINE
8
BLACK
6
CONTINUOUS
10
-4.7365235039370077
20
6.1314820078740153
11
-4.7358144488188971
21
6.1309560629921256
0
LINE
8
BLACK
6
CONTINUOUS
10
-4.7358144488188971
20
6.1309560629921256
11
-4.7357561023622043
21
6.1309288976377951
0
LINE
8
BLACK
6
CONTINUOUS
10
-4.7357561023622043
20
6.1309288976377951
11
-4.7338813385826768
21
6.1290541338582676
0
LINE
8
BLACK
6
CONTINUOUS
10
-4.7338813385826768
20
6.1290541338582676
11
-4.7333750787401572
21
6.1283310236220467
0
LINE
8
BLACK
6
CONTINUOUS
10
-4.7333750787401572
20
6.1283310236220467
11
-4.7333282283464566
21
6.1282867322834642
0
LINE
8
BLACK
6
CONTINUOUS
10
-4.7333282283464566
20
6.1282867322834642
11
-4.7314534645669291
21
6.1245372047244091
0
LINE
8
BLACK
6
CONTINUOUS
10
-4.7314534645669291
20
6.1245372047244091
11
-4.7313081889763779
21
6.1240487401574804
0
LINE
8
BLACK
6
CONTINUOUS
10
-4.7313081889763779
20
6.1240487401574804
11
-4.7312298818897638
21
6.123932834645669
0
LINE
8
BLACK
6
CONTINUOUS
10
-4.7312298818897638
20
6.123932834645669
11
-4.7293551181102362
21
6.1164337795275587
0
LINE
8
BLACK
6
CONTINUOUS
10
-4.7293551181102362
20
6.1164337795275587
11
-4.729313661417323
21
6.1158458661417319
0
LINE
8
BLACK
6
CONTINUOUS
10
-4.729313661417323
20
6.1158458661417319
11
-4.7292669685039366
21
6.1157176377952753
0
LINE
8
BLACK
6
CONTINUOUS
10
-4.7292669685039366
20
6.1157176377952753
11
-4.7292669685039366
21
6.1063438188976376
0
LINE
8
BLACK
6
CONTINUOUS
10
-4.7292669685039366
20
6.1063438188976376
11
-4.7293693307086615
21
6.1057634251968507
0
LINE
8
BLACK
6
CONTINUOUS
10
-4.7293693307086615
20
6.1057634251968507
11
-4.7293551181102362
21
6.1056276771653542
0
LINE
8
BLACK
6
CONTINUOUS
10
-4.7293551181102362
20
6.1056276771653542
11
-4.7312298818897638
21
6.0981286220472439
0
LINE
8
BLACK
6
CONTINUOUS
10
-4.7312298818897638
20
6.0981286220472439
11
-4.7314374803149608
21
6.0976631496062987
0
LINE
8
BLACK
6
CONTINUOUS
10
-4.7314374803149608
20
6.0976631496062987
11
-4.7314534645669291
21
6.0975242519685038
0
LINE
8
BLACK
6
CONTINUOUS
10
-4.7314534645669291
20
6.0975242519685038
11
-4.7333282283464566
21
6.0937747244094487
0
LINE
8
BLACK
6
CONTINUOUS
10
-4.7333282283464566
20
6.0937747244094487
11
-4.7338541338582676
21
6.0930656299212593
0
LINE
8
BLACK
6
CONTINUOUS
10
-4.7338541338582676
20
6.0930656299212593
11
-4.7338813385826768
21
6.0930073228346453
0
LINE
8
BLACK
6
CONTINUOUS
10
-4.7338813385826768
20
6.0930073228346453
11
-4.7357561023622043
21
6.0911325590551177
0
LINE
8
BLACK
6
CONTINUOUS
10
-4.7357561023622043
20
6.0911325590551177
11
-4.7364790944881889
21
6.0906263385826769
0
LINE
8
BLACK
6
CONTINUOUS
10
-4.7364790944881889
20
6.0906263385826769
11
-4.736523464566929
21
6.0905794488188976
0
LINE
8
BLACK
6
CONTINUOUS
10
-4.736523464566929
20
6.0905794488188976
11
-4.7402729921259841
21
6.0887046456692913
0
LINE
8
BLACK
6
CONTINUOUS
10
-4.7402729921259841
20
6.0887046456692913
11
-4.7412559448818898
21
6.0884122834645664
0
LINE
8
BLACK
6
CONTINUOUS
10
-4.7412559448818898
20
6.0884122834645664
11
-4.7414276771653538
21
6.0884532677165355
0
LINE
8
BLACK
6
CONTINUOUS
10
-4.7414276771653538
20
6.0884532677165355
11
-4.7415935433070864
21
6.0883929133858263
0
LINE
8
BLACK
6
CONTINUOUS
10
-4.7415935433070864
20
6.0883929133858263
11
-4.7453430708661415
21
6.0883929133858263
0
LINE
8
BLACK
6
CONTINUOUS
10
-4.7453430708661415
20
6.0883929133858263
11
-4.7463529921259839
21
6.0885709842519686
0
LINE
8
BLACK
6
CONTINUOUS
10
-4.7463529921259839
20
6.0885709842519686
11
-4.7464882677165354
21
6.0886844488188974
0
LINE
8
BLACK
6
CONTINUOUS
10
-4.7464882677165354
20
6.0886844488188974
11
-4.746663582677165
21
6.0887046456692913
0
LINE
8
BLACK
6
CONTINUOUS
10
-4.746663582677165
20
6.0887046456692913
11
-4.7504131496062989
21
6.0905794488188976
0
LINE
8
BLACK
6
CONTINUOUS
10
-4.7504131496062989
20
6.0905794488188976
11
-4.7511221653543307
21
6.0911053149606298
0
LINE
8
BLACK
6
CONTINUOUS
10
-4.7511221653543307
20
6.0911053149606298
11
-4.7511805118110235
21
6.0911325590551177
0
LINE
8
BLACK
6
CONTINUOUS
10
-4.7511805118110235
20
6.0911325590551177
11
-4.7530552755905511
21
6.0930073228346453
0
LINE
8
BLACK
6
CONTINUOUS
10
-4.7530552755905511
20
6.0930073228346453
11
-4.7535615748031494
21
6.0937303937007874
0
LINE
8
BLACK
6
CONTINUOUS
10
-4.7535615748031494
20
6.0937303937007874
11
-4.7536083858267713
21
6.0937747244094487
0
LINE
8
BLACK
6
CONTINUOUS
10
-4.7536083858267713
20
6.0937747244094487
11
-4.7554831496062988
21
6.0975242519685038
0
LINE
8
BLACK
6
CONTINUOUS
10
-4.7554831496062988
20
6.0975242519685038
11
-4.7556284645669287
21
6.0980126771653538
0
LINE
8
BLACK
6
CONTINUOUS
10
-4.7556284645669287
20
6.0980126771653538
11
-4.7557067322834641
21
6.0981286220472439
0
LINE
8
BLACK
6
CONTINUOUS
10
-4.7557067322834641
20
6.0981286220472439
11
-4.7575814960629916
21
6.1056276771653542
0
LINE
8
BLACK
6
CONTINUOUS
10
-4.7575814960629916
20
6.1056276771653542
11
-4.7576229921259845
21
6.1062155511811023
0
LINE
8
BLACK
6
CONTINUOUS
10
-4.7576229921259845
20
6.1062155511811023
11
-4.7576696456692913
21
6.1063438188976376
0
LINE
8
BLACK
6
CONTINUOUS
10
-4.7576696456692913
20
6.1063438188976376
11
-4.7576696456692913
21
6.1157176377952753
0
LINE
8
BLACK
6
CONTINUOUS
10
-4.7576696456692913
20
6.1157176377952753
11
-4.7575673228346451
21
6.1162979921259844
0
LINE
8
BLACK
6
CONTINUOUS
10
-4.7575673228346451
20
6.1162979921259844
11
-4.7575814960629916
21
6.1164337795275587
0
LINE
8
BLACK
6
CONTINUOUS
10
-4.7575814960629916
20
6.1164337795275587
11
-4.7557067322834641
21
6.123932834645669
0
LINE
8
BLACK
6
CONTINUOUS
10
-4.7557067322834641
20
6.123932834645669
11
-4.7554991732283467
21
6.1243982677165354
0
LINE
8
BLACK
6
CONTINUOUS
10
-4.7554991732283467
20
6.1243982677165354
11
-4.7554831496062988
21
6.1245372047244091
0
LINE
8
BLACK
6
CONTINUOUS
10
-4.7554831496062988
20
6.1245372047244091
11
-4.7536083858267713
21
6.1282867322834642
0
LINE
8
BLACK
6
CONTINUOUS
10
-4.7536083858267713
20
6.1282867322834642
11
-4.7530824803149603
21
6.1289957874015748
0
LINE
8
BLACK
6
CONTINUOUS
10
-4.7530824803149603
20
6.1289957874015748
11
-4.7530552755905511
21
6.1290541338582676
0
LINE
8
BLACK
6
CONTINUOUS
10
-4.7530552755905511
20
6.1290541338582676
11
-4.7511805118110235
21
6.1309288976377951
0
LINE
8
BLACK
6
CONTINUOUS
10
-4.7511805118110235
20
6.1309288976377951
11
-4.7504574409448814
21
6.1314351574803148
0
LINE
8
BLACK
6
CONTINUOUS
10
-4.7504574409448814
20
6.1314351574803148
11
-4.7504131102362201
21
6.1314820078740153
0
LINE
8
BLACK
6
CONTINUOUS
10
-4.7504131102362201
20
6.1314820078740153
11
-4.746663582677165
21
6.1333567716535429
0
LINE
8
BLACK
6
CONTINUOUS
10
-4.746663582677165
20
6.1333567716535429
11
-4.7456806692913389
21
6.1336491338582677
0
LINE
8
BLACK
6
CONTINUOUS
10
-4.7456806692913389
20
6.1336491338582677
11
-4.7455089763779528
21
6.1336081102362208
0
LINE
8
BLACK
6
CONTINUOUS
10
-4.7455089763779528
20
6.1336081102362208
11
-4.7453430708661415
21
6.1336685039370078
0
LINE
8
BLACK
6
CONTINUOUS
10
-4.7453430708661415
20
6.1336685039370078
11
-4.7415935433070864
21
6.1336685039370078
0
LINE
8
BLACK
6
CONTINUOUS
10
-4.7415935433070864
20
6.1336685039370078
11
-4.7405836220472439
21
6.1334904330708664
0
LINE
8
BLACK
6
CONTINUOUS
10
-4.7473435039370075
20
6.1264142519685034
11
-4.7485406299212594
21
6.1252171259842516
0
LINE
8
BLACK
6
CONTINUOUS
10
-4.7485406299212594
20
6.1252171259842516
11
-4.7500561417322835
21
6.1221861417322829
0
LINE
8
BLACK
6
CONTINUOUS
10
-4.7500561417322835
20
6.1221861417322829
11
-4.7517641338582672
21
6.1153540944881888
0
LINE
8
BLACK
6
CONTINUOUS
10
-4.7517641338582672
20
6.1153540944881888
11
-4.7517641338582672
21
6.1067073622047241
0
LINE
8
BLACK
6
CONTINUOUS
10
-4.7517641338582672
20
6.1067073622047241
11
-4.7500561417322835
21
6.09987531496063
0
LINE
8
BLACK
6
CONTINUOUS
10
-4.7500561417322835
20
6.09987531496063
11
-4.7485406299212594
21
6.0968443307086613
0
LINE
8
BLACK
6
CONTINUOUS
10
-4.7485406299212594
20
6.0968443307086613
11
-4.7473435433070863
21
6.0956472047244095
0
LINE
8
BLACK
6
CONTINUOUS
10
-4.7473435433070863
20
6.0956472047244095
11
-4.7446459842519682
21
6.0942984251968504
0
LINE
8
BLACK
6
CONTINUOUS
10
-4.7446459842519682
20
6.0942984251968504
11
-4.7422906299212597
21
6.0942984251968504
0
LINE
8
BLACK
6
CONTINUOUS
10
-4.7422906299212597
20
6.0942984251968504
11
-4.7395931496062991
21
6.0956471653543307
0
LINE
8
BLACK
6
CONTINUOUS
10
-4.7395931496062991
20
6.0956471653543307
11
-4.7383959842519685
21
6.0968443307086613
0
LINE
8
BLACK
6
CONTINUOUS
10
-4.7383959842519685
20
6.0968443307086613
11
-4.7368805118110231
21
6.09987531496063
0
LINE
8
BLACK
6
CONTINUOUS
10
-4.7368805118110231
20
6.09987531496063
11
-4.7351724803149606
21
6.1067073622047241
0
LINE
8
BLACK
6
CONTINUOUS
10
-4.7351724803149606
20
6.1067073622047241
11
-4.7351724803149606
21
6.1153540944881888
0
LINE
8
BLACK
6
CONTINUOUS
10
-4.7351724803149606
20
6.1153540944881888
11
-4.7368805118110231
21
6.1221861417322829
0
LINE
8
BLACK
6
CONTINUOUS
10
-4.7368805118110231
20
6.1221861417322829
11
-4.7383959842519685
21
6.1252171259842516
0
LINE
8
BLACK
6
CONTINUOUS
10
-4.7383959842519685
20
6.1252171259842516
11
-4.7395931102362203
21
6.1264142519685034
0
LINE
8
BLACK
6
CONTINUOUS
10
-4.7395931102362203
20
6.1264142519685034
11
-4.742290590551181
21
6.1277629921259837
0
LINE
8
BLACK
6
CONTINUOUS
10
-4.742290590551181
20
6.1277629921259837
11
-4.7446460236220469
21
6.1277629921259837
0
LINE
8
BLACK
6
CONTINUOUS
10
-4.7446460236220469
20
6.1277629921259837
11
-4.7473435039370075
21
6.1264142519685034
0
LINE
8
BLACK
6
CONTINUOUS
10
-4.3869173228346456
20
6.1335941732283459
11
-4.3867500787401577
21
6.1336236614173227
0
LINE
8
BLACK
6
CONTINUOUS
10
-4.3867500787401577
20
6.1336236614173227
11
-4.386008031496063
21
6.1331951968503935
0
LINE
8
BLACK
6
CONTINUOUS
10
-4.386008031496063
20
6.1331951968503935
11
-4.3852231889763775
21
6.132850866141732
0
LINE
8
BLACK
6
CONTINUOUS
10
-4.3852231889763775
20
6.132850866141732
11
-4.3851479527559052
21
6.1326985826771656
0
LINE
8
BLACK
6
CONTINUOUS
10
-4.3851479527559052
20
6.1326985826771656
11
-4.3850009055118111
21
6.1326137401574803
0
LINE
8
BLACK
6
CONTINUOUS
10
-4.3850009055118111
20
6.1326137401574803
11
-4.3847078346456696
21
6.1318084645669293
0
LINE
8
BLACK
6
CONTINUOUS
10
-4.3847078346456696
20
6.1318084645669293
11
-4.3843279921259839
21
6.1310402755905509
0
LINE
8
BLACK
6
CONTINUOUS
10
-4.3843279921259839
20
6.1310402755905509
11
-4.3843681889763779
21
6.1308753149606297
0
LINE
8
BLACK
6
CONTINUOUS
10
-4.3843681889763779
20
6.1308753149606297
11
-4.3843100787401577
21
6.1307157480314958
0
LINE
8
BLACK
6
CONTINUOUS
10
-4.3843100787401577
20
6.1307157480314958
11
-4.3843100787401577
21
6.0942984251968504
0
LINE
8
BLACK
6
CONTINUOUS
10
-4.3843100787401577
20
6.0942984251968504
11
-4.3760142519685035
21
6.0942984251968504
0
LINE
8
BLACK
6
CONTINUOUS
10
-4.3760142519685035
20
6.0942984251968504
11
-4.375004330708661
21
6.0941203543307081
0
LINE
8
BLACK
6
CONTINUOUS
10
-4.375004330708661
20
6.0941203543307081
11
-4.3734570866141729
21
6.0928220472440939
0
LINE
8
BLACK
6
CONTINUOUS
10
-4.3734570866141729
20
6.0928220472440939
11
-4.3731063385826774
21
6.0908329133858263
0
LINE
8
BLACK
6
CONTINUOUS
10
-4.3731063385826774
20
6.0908329133858263
11
-4.3741162598425198
21
6.0890837401574798
0
LINE
8
BLACK
6
CONTINUOUS
10
-4.3741162598425198
20
6.0890837401574798
11
-4.3760142519685035
21
6.0883929133858263
0
LINE
8
BLACK
6
CONTINUOUS
10
-4.3760142519685035
20
6.0883929133858263
11
-4.3985114173228341
21
6.0883929133858263
0
LINE
8
BLACK
6
CONTINUOUS
10
-4.3985114173228341
20
6.0883929133858263
11
-4.3995213385826775
21
6.0885709842519686
0
LINE
8
BLACK
6
CONTINUOUS
10
-4.3995213385826775
20
6.0885709842519686
11
-4.4010685826771656
21
6.0898692913385828
0
LINE
8
BLACK
6
CONTINUOUS
10
-4.4010685826771656
20
6.0898692913385828
11
-4.4014193307086611
21
6.0918584251968504
0
LINE
8
BLACK
6
CONTINUOUS
10
-4.4014193307086611
20
6.0918584251968504
11
-4.4004094094488186
21
6.0936075984251969
0
LINE
8
BLACK
6
CONTINUOUS
10
-4.4004094094488186
20
6.0936075984251969
11
-4.3985114173228341
21
6.0942984251968504
0
LINE
8
BLACK
6
CONTINUOUS
10
-4.3985114173228341
20
6.0942984251968504
11
-4.3902155905511808
21
6.0942984251968504
0
LINE
8
BLACK
6
CONTINUOUS
10
-4.3902155905511808
20
6.0942984251968504
11
-4.3902155905511808
21
6.1217124015748032
0
LINE
8
BLACK
6
CONTINUOUS
10
-4.3902155905511808
20
6.1217124015748032
11
-4.392673976377953
21
6.1192540157480311
0
LINE
8
BLACK
6
CONTINUOUS
10
-4.392673976377953
20
6.1192540157480311
11
-4.3933970866141729
21
6.1187477165354327
0
LINE
8
BLACK
6
CONTINUOUS
10
-4.3933970866141729
20
6.1187477165354327
11
-4.3934413779527555
21
6.1187009055118109
0
LINE
8
BLACK
6
CONTINUOUS
10
-4.3934413779527555
20
6.1187009055118109
11
-4.3971909055118106
21
6.1168261417322833
0
LINE
8
BLACK
6
CONTINUOUS
10
-4.3971909055118106
20
6.1168261417322833
11
-4.3981738582677163
21
6.1165337795275585
0
LINE
8
BLACK
6
CONTINUOUS
10
-4.3981738582677163
20
6.1165337795275585
11
-4.4001383464566928
21
6.1170030708661418
0
LINE
8
BLACK
6
CONTINUOUS
10
-4.4001383464566928
20
6.1170030708661418
11
-4.401341653543307
21
6.1186253149606298
0
LINE
8
BLACK
6
CONTINUOUS
10
-4.401341653543307
20
6.1186253149606298
11
-4.4012205905511808
21
6.1206414960629916
0
LINE
8
BLACK
6
CONTINUOUS
10
-4.4012205905511808
20
6.1206414960629916
11
-4.3998319291338586
21
6.1221081889763775
0
LINE
8
BLACK
6
CONTINUOUS
10
-4.3998319291338586
20
6.1221081889763775
11
-4.3965109842519681
21
6.1237686614173228
0
LINE
8
BLACK
6
CONTINUOUS
10
-4.3965109842519681
20
6.1237686614173228
11
-4.3933070866141728
21
6.1269725590551181
0
LINE
8
BLACK
6
CONTINUOUS
10
-4.3933070866141728
20
6.1269725590551181
11
-4.3897196850393696
21
6.1323536614173229
0
LINE
8
BLACK
6
CONTINUOUS
10
-4.3897196850393696
20
6.1323536614173229
11
-4.3890112992125987
21
6.1330951968503937
0
LINE
8
BLACK
6
CONTINUOUS
10
-4.3890112992125987
20
6.1330951968503937
11
-4.388848346456693
21
6.1331428740157481
0
LINE
8
BLACK
6
CONTINUOUS
10
-4.388848346456693
20
6.1331428740157481
11
-4.3887392125984253
21
6.1332729133858264
0
LINE
8
BLACK
6
CONTINUOUS
10
-4.3887392125984253
20
6.1332729133858264
11
-4.3878954330708657
21
6.1334216929133856
0
LINE
8
BLACK
6
CONTINUOUS
10
-4.3878954330708657
20
6.1334216929133856
11
-4.3870727952755901
21
6.1336624015748029
0
LINE
8
BLACK
6
CONTINUOUS
10
-4.3870727952755901
20
6.1336624015748029
11
-4.3869173228346456
21
6.1335941732283459
0
LINE
8
BLACK
6
CONTINUOUS
10
-4.3468828346456689
20
6.1334904330708664
11
-4.3467475984251971
21
6.133376929133858
0
LINE
8
BLACK
6
CONTINUOUS
10
-4.3467475984251971
20
6.133376929133858
11
-4.3465722440944878
21
6.1333567716535429
0
LINE
8
BLACK
6
CONTINUOUS
10
-4.3465722440944878
20
6.1333567716535429
11
-4.3428227165354327
21
6.1314820078740153
0
LINE
8
BLACK
6
CONTINUOUS
10
-4.3428227165354327
20
6.1314820078740153
11
-4.342113661417323
21
6.1309560629921256
0
LINE
8
BLACK
6
CONTINUOUS
10
-4.342113661417323
20
6.1309560629921256
11
-4.3420553149606302
21
6.1309288976377951
0
LINE
8
BLACK
6
CONTINUOUS
10
-4.3420553149606302
20
6.1309288976377951
11
-4.3401805511811027
21
6.1290541338582676
0
LINE
8
BLACK
6
CONTINUOUS
10
-4.3401805511811027
20
6.1290541338582676
11
-4.3396742913385822
21
6.1283310236220467
0
LINE
8
BLACK
6
CONTINUOUS
10
-4.3396742913385822
20
6.1283310236220467
11
-4.3396274409448816
21
6.1282867322834642
0
LINE
8
BLACK
6
CONTINUOUS
10
-4.3396274409448816
20
6.1282867322834642
11
-4.3377526771653541
21
6.1245372047244091
0
LINE
8
BLACK
6
CONTINUOUS
10
-4.3377526771653541
20
6.1245372047244091
11
-4.337607401574803
21
6.1240487401574804
0
LINE
8
BLACK
6
CONTINUOUS
10
-4.337607401574803
20
6.1240487401574804
11
-4.3375290944881888
21
6.123932834645669
0
LINE
8
BLACK
6
CONTINUOUS
10
-4.3375290944881888
20
6.123932834645669
11
-4.3356543307086612
21
6.1164337795275587
0
LINE
8
BLACK
6
CONTINUOUS
10
-4.3356543307086612
20
6.1164337795275587
11
-4.335612874015748
21
6.1158458661417319
0
LINE
8
BLACK
6
CONTINUOUS
10
-4.335612874015748
20
6.1158458661417319
11
-4.3355661811023625
21
6.1157176377952753
0
LINE
8
BLACK
6
CONTINUOUS
10
-4.3355661811023625
20
6.1157176377952753
11
-4.3355661811023625
21
6.1063438188976376
0
LINE
8
BLACK
6
CONTINUOUS
10
-4.3355661811023625
20
6.1063438188976376
11
-4.3356685433070865
21
6.1057634251968507
0
LINE
8
BLACK
6
CONTINUOUS
10
-4.3356685433070865
20
6.1057634251968507
11
-4.3356543307086612
21
6.1056276771653542
0
LINE
8
BLACK
6
CONTINUOUS
10
-4.3356543307086612
20
6.1056276771653542
11
-4.3375290944881888
21
6.0981286220472439
0
LINE
8
BLACK
6
CONTINUOUS
10
-4.3375290944881888
20
6.0981286220472439
11
-4.3377366929133858
21
6.0976631496062987
0
LINE
8
BLACK
6
CONTINUOUS
10
-4.3377366929133858
20
6.0976631496062987
11
-4.3377526771653541
21
6.0975242519685038
0
LINE
8
BLACK
6
CONTINUOUS
10
-4.3377526771653541
20
6.0975242519685038
11
-4.3396274409448816
21
6.0937747244094487
0
LINE
8
BLACK
6
CONTINUOUS
10
-4.3396274409448816
20
6.0937747244094487
11
-4.3401533464566926
21
6.0930656299212593
0
LINE
8
BLACK
6
CONTINUOUS
10
-4.3401533464566926
20
6.0930656299212593
11
-4.3401805511811027
21
6.0930073228346453
0
LINE
8
BLACK
6
CONTINUOUS
10
-4.3401805511811027
20
6.0930073228346453
11
-4.3420553149606302
21
6.0911325590551177
0
LINE
8
BLACK
6
CONTINUOUS
10
-4.3420553149606302
20
6.0911325590551177
11
-4.3427783070866139
21
6.0906263385826769
0
LINE
8
BLACK
6
CONTINUOUS
10
-4.3427783070866139
20
6.0906263385826769
11
-4.342822677165354
21
6.0905794488188976
0
LINE
8
BLACK
6
CONTINUOUS
10
-4.342822677165354
20
6.0905794488188976
11
-4.3465722047244091
21
6.0887046456692913
0
LINE
8
BLACK
6
CONTINUOUS
10
-4.3465722047244091
20
6.0887046456692913
11
-4.3475551574803148
21
6.0884122834645664
0
LINE
8
BLACK
6
CONTINUOUS
10
-4.3475551574803148
20
6.0884122834645664
11
-4.3477268897637797
21
6.0884532677165355
0
LINE
8
BLACK
6
CONTINUOUS
10
-4.3477268897637797
20
6.0884532677165355
11
-4.3478927559055114
21
6.0883929133858263
0
LINE
8
BLACK
6
CONTINUOUS
10
-4.3478927559055114
20
6.0883929133858263
11
-4.3516422834645665
21
6.0883929133858263
0
LINE
8
BLACK
6
CONTINUOUS
10
-4.3516422834645665
20
6.0883929133858263
11
-4.3526522047244089
21
6.0885709842519686
0
LINE
8
BLACK
6
CONTINUOUS
10
-4.3526522047244089
20
6.0885709842519686
11
-4.3527874803149604
21
6.0886844488188974
0
LINE
8
BLACK
6
CONTINUOUS
10
-4.3527874803149604
20
6.0886844488188974
11
-4.35296279527559
21
6.0887046456692913
0
LINE
8
BLACK
6
CONTINUOUS
10
-4.35296279527559
20
6.0887046456692913
11
-4.3567123622047239
21
6.0905794488188976
0
LINE
8
BLACK
6
CONTINUOUS
10
-4.3567123622047239
20
6.0905794488188976
11
-4.3574213779527557
21
6.0911053149606298
0
LINE
8
BLACK
6
CONTINUOUS
10
-4.3574213779527557
20
6.0911053149606298
11
-4.3574797244094485
21
6.0911325590551177
0
LINE
8
BLACK
6
CONTINUOUS
10
-4.3574797244094485
20
6.0911325590551177
11
-4.3593544881889761
21
6.0930073228346453
0
LINE
8
BLACK
6
CONTINUOUS
10
-4.3593544881889761
20
6.0930073228346453
11
-4.3598607874015745
21
6.0937303937007874
0
LINE
8
BLACK
6
CONTINUOUS
10
-4.3598607874015745
20
6.0937303937007874
11
-4.3599075984251972
21
6.0937747244094487
0
LINE
8
BLACK
6
CONTINUOUS
10
-4.3599075984251972
20
6.0937747244094487
11
-4.3617823622047247
21
6.0975242519685038
0
LINE
8
BLACK
6
CONTINUOUS
10
-4.3617823622047247
20
6.0975242519685038
11
-4.3619276771653546
21
6.0980126771653538
0
LINE
8
BLACK
6
CONTINUOUS
10
-4.3619276771653546
20
6.0980126771653538
11
-4.36200594488189
21
6.0981286220472439
0
LINE
8
BLACK
6
CONTINUOUS
10
-4.36200594488189
20
6.0981286220472439
11
-4.3638807086614175
21
6.1056276771653542
0
LINE
8
BLACK
6
CONTINUOUS
10
-4.3638807086614175
20
6.1056276771653542
11
-4.3639222047244095
21
6.1062155511811023
0
LINE
8
BLACK
6
CONTINUOUS
10
-4.3639222047244095
20
6.1062155511811023
11
-4.3639688582677163
21
6.1063438188976376
0
LINE
8
BLACK
6
CONTINUOUS
10
-4.3639688582677163
20
6.1063438188976376
11
-4.3639688582677163
21
6.1157176377952753
0
LINE
8
BLACK
6
CONTINUOUS
10
-4.3639688582677163
20
6.1157176377952753
11
-4.363866535433071
21
6.1162979921259844
0
LINE
8
BLACK
6
CONTINUOUS
10
-4.363866535433071
20
6.1162979921259844
11
-4.3638807086614175
21
6.1164337795275587
0
LINE
8
BLACK
6
CONTINUOUS
10
-4.3638807086614175
20
6.1164337795275587
11
-4.36200594488189
21
6.123932834645669
0
LINE
8
BLACK
6
CONTINUOUS
10
-4.36200594488189
20
6.123932834645669
11
-4.3617983858267717
21
6.1243982677165354
0
LINE
8
BLACK
6
CONTINUOUS
10
-4.3617983858267717
20
6.1243982677165354
11
-4.3617823622047247
21
6.1245372047244091
0
LINE
8
BLACK
6
CONTINUOUS
10
-4.3617823622047247
20
6.1245372047244091
11
-4.3599075984251972
21
6.1282867322834642
0
LINE
8
BLACK
6
CONTINUOUS
10
-4.3599075984251972
20
6.1282867322834642
11
-4.3593816929133853
21
6.1289957874015748
0
LINE
8
BLACK
6
CONTINUOUS
10
-4.3593816929133853
20
6.1289957874015748
11
-4.3593544881889761
21
6.1290541338582676
0
LINE
8
BLACK
6
CONTINUOUS
10
-4.3593544881889761
20
6.1290541338582676
11
-4.3574797244094485
21
6.1309288976377951
0
LINE
8
BLACK
6
CONTINUOUS
10
-4.3574797244094485
20
6.1309288976377951
11
-4.3567566535433073
21
6.1314351574803148
0
LINE
8
BLACK
6
CONTINUOUS
10
-4.3567566535433073
20
6.1314351574803148
11
-4.3567123228346452
21
6.1314820078740153
0
LINE
8
BLACK
6
CONTINUOUS
10
-4.3567123228346452
20
6.1314820078740153
11
-4.35296279527559
21
6.1333567716535429
0
LINE
8
BLACK
6
CONTINUOUS
10
-4.35296279527559
20
6.1333567716535429
11
-4.3519798818897639
21
6.1336491338582677
0
LINE
8
BLACK
6
CONTINUOUS
10
-4.3519798818897639
20
6.1336491338582677
11
-4.3518081889763778
21
6.1336081102362208
0
LINE
8
BLACK
6
CONTINUOUS
10
-4.3518081889763778
20
6.1336081102362208
11
-4.3516422834645665
21
6.1336685039370078
0
LINE
8
BLACK
6
CONTINUOUS
10
-4.3516422834645665
20
6.1336685039370078
11
-4.3478927559055114
21
6.1336685039370078
0
LINE
8
BLACK
6
CONTINUOUS
10
-4.3478927559055114
20
6.1336685039370078
11
-4.3468828346456689
21
6.1334904330708664
0
LINE
8
BLACK
6
CONTINUOUS
10
-4.3536427165354326
20
6.1264142519685034
11
-4.3548398425196853
21
6.1252171259842516
0
LINE
8
BLACK
6
CONTINUOUS
10
-4.3548398425196853
20
6.1252171259842516
11
-4.3563553543307085
21
6.1221861417322829
0
LINE
8
BLACK
6
CONTINUOUS
10
-4.3563553543307085
20
6.1221861417322829
11
-4.3580633464566931
21
6.1153540944881888
0
LINE
8
BLACK
6
CONTINUOUS
10
-4.3580633464566931
20
6.1153540944881888
11
-4.3580633464566931
21
6.1067073622047241
0
LINE
8
BLACK
6
CONTINUOUS
10
-4.3580633464566931
20
6.1067073622047241
11
-4.3563553543307085
21
6.09987531496063
0
LINE
8
BLACK
6
CONTINUOUS
10
-4.3563553543307085
20
6.09987531496063
11
-4.3548398425196853
21
6.0968443307086613
0
LINE
8
BLACK
6
CONTINUOUS
10
-4.3548398425196853
20
6.0968443307086613
11
-4.3536427559055113
21
6.0956472047244095
0
LINE
8
BLACK
6
CONTINUOUS
10
-4.3536427559055113
20
6.0956472047244095
11
-4.3509451968503932
21
6.0942984251968504
0
LINE
8
BLACK
6
CONTINUOUS
10
-4.3509451968503932
20
6.0942984251968504
11
-4.3485898425196847
21
6.0942984251968504
0
LINE
8
BLACK
6
CONTINUOUS
10
-4.3485898425196847
20
6.0942984251968504
11
-4.3458923622047241
21
6.0956471653543307
0
LINE
8
BLACK
6
CONTINUOUS
10
-4.3458923622047241
20
6.0956471653543307
11
-4.3446951968503935
21
6.0968443307086613
0
LINE
8
BLACK
6
CONTINUOUS
10
-4.3446951968503935
20
6.0968443307086613
11
-4.343179724409449
21
6.09987531496063
0
LINE
8
BLACK
6
CONTINUOUS
10
-4.343179724409449
20
6.09987531496063
11
-4.3414716929133856
21
6.1067073622047241
0
LINE
8
BLACK
6
CONTINUOUS
10
-4.3414716929133856
20
6.1067073622047241
11
-4.3414716929133856
21
6.1153540944881888
0
LINE
8
BLACK
6
CONTINUOUS
10
-4.3414716929133856
20
6.1153540944881888
11
-4.343179724409449
21
6.1221861417322829
0
LINE
8
BLACK
6
CONTINUOUS
10
-4.343179724409449
20
6.1221861417322829
11
-4.3446951968503935
21
6.1252171259842516
0
LINE
8
BLACK
6
CONTINUOUS
10
-4.3446951968503935
20
6.1252171259842516
11
-4.3458923228346453
21
6.1264142519685034
0
LINE
8
BLACK
6
CONTINUOUS
10
-4.3458923228346453
20
6.1264142519685034
11
-4.348589803149606
21
6.1277629921259837
0
LINE
8
BLACK
6
CONTINUOUS
10
-4.348589803149606
20
6.1277629921259837
11
-4.3509452362204719
21
6.1277629921259837
0
LINE
8
BLACK
6
CONTINUOUS
10
-4.3509452362204719
20
6.1277629921259837
11
-4.3536427165354326
21
6.1264142519685034
0
LINE
8
BLACK
6
CONTINUOUS
10
-5.0078992125984252
20
6.097979645669291
11
-5.007766141732283
21
6.0980031496062992
0
LINE
8
BLACK
6
CONTINUOUS
10
-5.007766141732283
20
6.0980031496062992
11
-5.0076491338582674
21
6.097935590551181
0
LINE
8
BLACK
6
CONTINUOUS
10
-5.0076491338582674
20
6.097935590551181
11
-5.0075146850393697
21
6.0979473622047244
0
LINE
8
BLACK
6
CONTINUOUS
10
-5.0075146850393697
20
6.0979473622047244
11
-5.0068862598425197
21
6.0975073228346455
0
LINE
8
BLACK
6
CONTINUOUS
10
-5.0068862598425197
20
6.0975073228346455
11
-5.0061909842519681
21
6.0971831496062991
0
LINE
8
BLACK
6
CONTINUOUS
10
-5.0061909842519681
20
6.0971831496062991
11
-5.0043162204724405
21
6.0953083858267716
0
LINE
8
BLACK
6
CONTINUOUS
10
-5.0043162204724405
20
6.0953083858267716
11
-5.004092834645669
21
6.0949893700787401
0
LINE
8
BLACK
6
CONTINUOUS
10
-5.004092834645669
20
6.0949893700787401
11
-5.0039853937007877
21
6.0949141338582677
0
LINE
8
BLACK
6
CONTINUOUS
10
-5.0039853937007877
20
6.0949141338582677
11
-5.0039514173228348
21
6.0947874015748029
0
LINE
8
BLACK
6
CONTINUOUS
10
-5.0039514173228348
20
6.0947874015748029
11
-5.0037280314960633
21
6.0944683464566927
0
LINE
8
BLACK
6
CONTINUOUS
10
-5.0037280314960633
20
6.0944683464566927
11
-5.0036611417322829
21
6.0937040944881886
0
LINE
8
BLACK
6
CONTINUOUS
10
-5.0036611417322829
20
6.0937040944881886
11
-5.0034626377952751
21
6.092963149606299
0
LINE
8
BLACK
6
CONTINUOUS
10
-5.0034626377952751
20
6.092963149606299
11
-5.0035751968503934
21
6.0927216535433066
0
LINE
8
BLACK
6
CONTINUOUS
10
-5.0035751968503934
20
6.0927216535433066
11
-5.0035520078740152
21
6.0924562598425194
0
LINE
8
BLACK
6
CONTINUOUS
10
-5.0035520078740152
20
6.0924562598425194
11
-5.0039920078740154
21
6.0918278346456693
0
LINE
8
BLACK
6
CONTINUOUS
10
-5.0039920078740154
20
6.0918278346456693
11
-5.0043162204724405
21
6.0911325590551177
0
LINE
8
BLACK
6
CONTINUOUS
10
-5.0043162204724405
20
6.0911325590551177
11
-5.0061909448818893
21
6.0892577952755902
0
LINE
8
BLACK
6
CONTINUOUS
10
-5.0061909448818893
20
6.0892577952755902
11
-5.0065099999999996
21
6.0890343307086612
0
LINE
8
BLACK
6
CONTINUOUS
10
-5.0065099999999996
20
6.0890343307086612
11
-5.0065852755905507
21
6.0889268897637798
0
LINE
8
BLACK
6
CONTINUOUS
10
-5.0065852755905507
20
6.0889268897637798
11
-5.0067119685039367
21
6.0888929133858269
0
LINE
8
BLACK
6
CONTINUOUS
10
-5.0067119685039367
20
6.0888929133858269
11
-5.0067189763779529
21
6.0888879921259838
0
LINE
8
BLACK
6
CONTINUOUS
10
-5.0067189763779529
20
6.0888879921259838
11
-5.0068025196850394
21
6.0887885039370078
0
LINE
8
BLACK
6
CONTINUOUS
10
-5.0068025196850394
20
6.0887885039370078
11
-5.0068808267716536
21
6.08877468503937
0
LINE
8
BLACK
6
CONTINUOUS
10
-5.0068808267716536
20
6.08877468503937
11
-5.0070309842519682
21
6.0886695669291333
0
LINE
8
BLACK
6
CONTINUOUS
10
-5.0070309842519682
20
6.0886695669291333
11
-5.0077953149606298
21
6.0886026771653539
0
LINE
8
BLACK
6
CONTINUOUS
10
-5.0077953149606298
20
6.0886026771653539
11
-5.0085362598425194
21
6.088404173228346
0
LINE
8
BLACK
6
CONTINUOUS
10
-5.0085362598425194
20
6.088404173228346
11
-5.0086585826771657
21
6.0884611811023621
0
LINE
8
BLACK
6
CONTINUOUS
10
-5.0086585826771657
20
6.0884611811023621
11
-5.008791653543307
21
6.0884377559055114
0
LINE
8
BLACK
6
CONTINUOUS
10
-5.008791653543307
20
6.0884377559055114
11
-5.0089085826771651
21
6.0885052362204721
0
LINE
8
BLACK
6
CONTINUOUS
10
-5.0089085826771651
20
6.0885052362204721
11
-5.0090431102362203
21
6.0884935039370074
0
LINE
8
BLACK
6
CONTINUOUS
10
-5.0090431102362203
20
6.0884935039370074
11
-5.0096716929133853
21
6.0889336220472439
0
LINE
8
BLACK
6
CONTINUOUS
10
-5.0096716929133853
20
6.0889336220472439
11
-5.0103668503937007
21
6.0892577952755902
0
LINE
8
BLACK
6
CONTINUOUS
10
-5.0103668503937007
20
6.0892577952755902
11
-5.0122416141732282
21
6.0911325984251965
0
LINE
8
BLACK
6
CONTINUOUS
10
-5.0122416141732282
20
6.0911325984251965
11
-5.012464960629921
21
6.0914515748031492
0
LINE
8
BLACK
6
CONTINUOUS
10
-5.012464960629921
20
6.0914515748031492
11
-5.012572440944882
21
6.0915268503937003
0
LINE
8
BLACK
6
CONTINUOUS
10
-5.012572440944882
20
6.0915268503937003
11
-5.0126063779527561
21
6.0916535433070864
0
LINE
8
BLACK
6
CONTINUOUS
10
-5.0126063779527561
20
6.0916535433070864
11
-5.0128298031496064
21
6.0919726377952754
0
LINE
8
BLACK
6
CONTINUOUS
10
-5.0128298031496064
20
6.0919726377952754
11
-5.0128966141732283
21
6.0927368897637795
0
LINE
8
BLACK
6
CONTINUOUS
10
-5.0128966141732283
20
6.0927368897637795
11
-5.0130951574803149
21
6.0934777952755903
0
LINE
8
BLACK
6
CONTINUOUS
10
-5.0130951574803149
20
6.0934777952755903
11
-5.0129825590551178
21
6.0937192519685039
0
LINE
8
BLACK
6
CONTINUOUS
10
-5.0129825590551178
20
6.0937192519685039
11
-5.0130057874015748
21
6.0939847244094487
0
LINE
8
BLACK
6
CONTINUOUS
10
-5.0130057874015748
20
6.0939847244094487
11
-5.012565708661417
21
6.0946131496062987
0
LINE
8
BLACK
6
CONTINUOUS
10
-5.012565708661417
20
6.0946131496062987
11
-5.0122415748031495
21
6.0953083858267716
0
LINE
8
BLACK
6
CONTINUOUS
10
-5.0122415748031495
20
6.0953083858267716
11
-5.0103668110236219
21
6.0971831496062991
0
LINE
8
BLACK
6
CONTINUOUS
10
-5.0103668110236219
20
6.0971831496062991
11
-5.0100477559055117
21
6.0974064960629919
0
LINE
8
BLACK
6
CONTINUOUS
10
-5.0100477559055117
20
6.0974064960629919
11
-5.0099725196850393
21
6.0975140157480316
0
LINE
8
BLACK
6
CONTINUOUS
10
-5.0099725196850393
20
6.0975140157480316
11
-5.0098457480314957
21
6.0975479527559058
0
LINE
8
BLACK
6
CONTINUOUS
10
-5.0098457480314957
20
6.0975479527559058
11
-5.0098387795275592
21
6.0975528346456693
0
LINE
8
BLACK
6
CONTINUOUS
10
-5.0098387795275592
20
6.0975528346456693
11
-5.0097552755905514
21
6.0976524015748028
0
LINE
8
BLACK
6
CONTINUOUS
10
-5.0097552755905514
20
6.0976524015748028
11
-5.0096768897637798
21
6.0976662204724406
0
LINE
8
BLACK
6
CONTINUOUS
10
-5.0096768897637798
20
6.0976662204724406
11
-5.009526771653543
21
6.0977713385826773
0
LINE
8
BLACK
6
CONTINUOUS
10
-5.009526771653543
20
6.0977713385826773
11
-5.0087625590551177
21
6.097838188976378
0
LINE
8
BLACK
6
CONTINUOUS
10
-5.0087625590551177
20
6.097838188976378
11
-5.0080215748031494
21
6.0980367322834645
0
LINE
8
BLACK
6
CONTINUOUS
10
-5.0080215748031494
20
6.0980367322834645
11
-5.0078992125984252
21
6.097979645669291
0
LINE
8
BLACK
6
CONTINUOUS
10
-4.9097812204724409
20
6.1203670866141735
11
-4.9096459842519682
21
6.1202535826771651
0
LINE
8
BLACK
6
CONTINUOUS
10
-4.9096459842519682
20
6.1202535826771651
11
-4.9094706299212598
21
6.12023342519685
0
LINE
8
BLACK
6
CONTINUOUS
10
-4.9094706299212598
20
6.12023342519685
11
-4.9057211023622047
21
6.1183586614173224
0
LINE
8
BLACK
6
CONTINUOUS
10
-4.9057211023622047
20
6.1183586614173224
11
-4.9051511811023625
21
6.1179359448818893
0
LINE
8
BLACK
6
CONTINUOUS
10
-4.9051511811023625
20
6.1179359448818893
11
-4.9049165354330704
21
6.1180376377952754
0
LINE
8
BLACK
6
CONTINUOUS
10
-4.9049165354330704
20
6.1180376377952754
11
-4.9046125984251967
21
6.1183586614173224
0
LINE
8
BLACK
6
CONTINUOUS
10
-4.9046125984251967
20
6.1183586614173224
11
-4.9008630708661416
21
6.12023342519685
0
LINE
8
BLACK
6
CONTINUOUS
10
-4.9008630708661416
20
6.12023342519685
11
-4.8998801574803146
21
6.1205257874015748
0
LINE
8
BLACK
6
CONTINUOUS
10
-4.8998801574803146
20
6.1205257874015748
11
-4.8997084645669293
21
6.120484763779527
0
LINE
8
BLACK
6
CONTINUOUS
10
-4.8997084645669293
20
6.120484763779527
11
-4.899542559055118
21
6.1205451574803149
0
LINE
8
BLACK
6
CONTINUOUS
10
-4.899542559055118
20
6.1205451574803149
11
-4.8939182677165354
21
6.1205451574803149
0
LINE
8
BLACK
6
CONTINUOUS
10
-4.8939182677165354
20
6.1205451574803149
11
-4.8929083464566929
21
6.1203670866141735
0
LINE
8
BLACK
6
CONTINUOUS
10
-4.8929083464566929
20
6.1203670866141735
11
-4.8927731102362202
21
6.1202535826771651
0
LINE
8
BLACK
6
CONTINUOUS
10
-4.8927731102362202
20
6.1202535826771651
11
-4.8925977559055118
21
6.12023342519685
0
LINE
8
BLACK
6
CONTINUOUS
10
-4.8925977559055118
20
6.12023342519685
11
-4.888848188976378
21
6.1183586614173224
0
LINE
8
BLACK
6
CONTINUOUS
10
-4.888848188976378
20
6.1183586614173224
11
-4.8880245275590548
21
6.117747755905512
0
LINE
8
BLACK
6
CONTINUOUS
10
-4.8880245275590548
20
6.117747755905512
11
-4.8878487007874014
21
6.1173420472440947
0
LINE
8
BLACK
6
CONTINUOUS
10
-4.8878487007874014
20
6.1173420472440947
11
-4.8875276771653544
21
6.1170381496062989
0
LINE
8
BLACK
6
CONTINUOUS
10
-4.8875276771653544
20
6.1170381496062989
11
-4.8856529133858269
21
6.1132886220472438
0
LINE
8
BLACK
6
CONTINUOUS
10
-4.8856529133858269
20
6.1132886220472438
11
-4.885360551181102
21
6.1123057086614168
0
LINE
8
BLACK
6
CONTINUOUS
10
-4.885360551181102
20
6.1123057086614168
11
-4.8854015748031498
21
6.1121339763779527
0
LINE
8
BLACK
6
CONTINUOUS
10
-4.8854015748031498
20
6.1121339763779527
11
-4.8853411811023619
21
6.1119681102362202
0
LINE
8
BLACK
6
CONTINUOUS
10
-4.8853411811023619
20
6.1119681102362202
11
-4.8853411811023619
21
6.0913456692913384
0
LINE
8
BLACK
6
CONTINUOUS
10
-4.8853411811023619
20
6.0913456692913384
11
-4.8855192519685042
21
6.0903357480314959
0
LINE
8
BLACK
6
CONTINUOUS
10
-4.8855192519685042
20
6.0903357480314959
11
-4.8868175590551184
21
6.0887885039370078
0
LINE
8
BLACK
6
CONTINUOUS
10
-4.8868175590551184
20
6.0887885039370078
11
-4.888806692913386
21
6.0884377559055114
0
LINE
8
BLACK
6
CONTINUOUS
10
-4.888806692913386
20
6.0884377559055114
11
-4.8905558661417325
21
6.0894476771653538
0
LINE
8
BLACK
6
CONTINUOUS
10
-4.8905558661417325
20
6.0894476771653538
11
-4.891246692913386
21
6.0913456692913384
0
LINE
8
BLACK
6
CONTINUOUS
10
-4.891246692913386
20
6.0913456692913384
11
-4.891246692913386
21
6.1112710629921256
0
LINE
8
BLACK
6
CONTINUOUS
10
-4.891246692913386
20
6.1112710629921256
11
-4.8923695669291334
21
6.1135167716535435
0
LINE
8
BLACK
6
CONTINUOUS
10
-4.8923695669291334
20
6.1135167716535435
11
-4.89461531496063
21
6.1146396456692909
0
LINE
8
BLACK
6
CONTINUOUS
10
-4.89461531496063
20
6.1146396456692909
11
-4.8988455118110235
21
6.1146396456692909
0
LINE
8
BLACK
6
CONTINUOUS
10
-4.8988455118110235
20
6.1146396456692909
11
-4.9010912598425191
21
6.1135167716535435
0
LINE
8
BLACK
6
CONTINUOUS
10
-4.9010912598425191
20
6.1135167716535435
11
-4.9022140944881887
21
6.1112710629921256
0
LINE
8
BLACK
6
CONTINUOUS
10
-4.9022140944881887
20
6.1112710629921256
11
-4.9022140944881887
21
6.0913456692913384
0
LINE
8
BLACK
6
CONTINUOUS
10
-4.9022140944881887
20
6.0913456692913384
11
-4.902392165354331
21
6.0903357480314959
0
LINE
8
BLACK
6
CONTINUOUS
10
-4.902392165354331
20
6.0903357480314959
11
-4.9036904724409451
21
6.0887885039370078
0
LINE
8
BLACK
6
CONTINUOUS
10
-4.9036904724409451
20
6.0887885039370078
11
-4.9056796062992127
21
6.0884377559055114
0
LINE
8
BLACK
6
CONTINUOUS
10
-4.9056796062992127
20
6.0884377559055114
11
-4.9074287795275593
21
6.0894476771653538
0
LINE
8
BLACK
6
CONTINUOUS
10
-4.9074287795275593
20
6.0894476771653538
11
-4.9081196062992127
21
6.0913456692913384
0
LINE
8
BLACK
6
CONTINUOUS
10
-4.9081196062992127
20
6.0913456692913384
11
-4.9081196062992127
21
6.1112710629921256
0
LINE
8
BLACK
6
CONTINUOUS
10
-4.9081196062992127
20
6.1112710629921256
11
-4.9092424803149601
21
6.1135167716535435
0
LINE
8
BLACK
6
CONTINUOUS
10
-4.9092424803149601
20
6.1135167716535435
11
-4.911488188976378
21
6.1146396456692909
0
LINE
8
BLACK
6
CONTINUOUS
10
-4.911488188976378
20
6.1146396456692909
11
-4.9157183858267715
21
6.1146396456692909
0
LINE
8
BLACK
6
CONTINUOUS
10
-4.9157183858267715
20
6.1146396456692909
11
-4.9184158661417321
21
6.1132909055118105
0
LINE
8
BLACK
6
CONTINUOUS
10
-4.9184158661417321
20
6.1132909055118105
11
-4.9190869685039367
21
6.112619803149606
0
LINE
8
BLACK
6
CONTINUOUS
10
-4.9190869685039367
20
6.112619803149606
11
-4.9190869685039367
21
6.0913456692913384
0
LINE
8
BLACK
6
CONTINUOUS
10
-4.9190869685039367
20
6.0913456692913384
11
-4.919265039370079
21
6.0903357480314959
0
LINE
8
BLACK
6
CONTINUOUS
10
-4.919265039370079
20
6.0903357480314959
11
-4.9205633464566931
21
6.0887885039370078
0
LINE
8
BLACK
6
CONTINUOUS
10
-4.9205633464566931
20
6.0887885039370078
11
-4.9225524803149607
21
6.0884377559055114
0
LINE
8
BLACK
6
CONTINUOUS
10
-4.9225524803149607
20
6.0884377559055114
11
-4.9243016535433073
21
6.0894476771653538
0
LINE
8
BLACK
6
CONTINUOUS
10
-4.9243016535433073
20
6.0894476771653538
11
-4.9249924803149607
21
6.0913456692913384
0
LINE
8
BLACK
6
CONTINUOUS
10
-4.9249924803149607
20
6.0913456692913384
11
-4.9249924803149607
21
6.1175924015748029
0
LINE
8
BLACK
6
CONTINUOUS
10
-4.9249924803149607
20
6.1175924015748029
11
-4.9248144094488184
21
6.1186023228346453
0
LINE
8
BLACK
6
CONTINUOUS
10
-4.9248144094488184
20
6.1186023228346453
11
-4.9235161023622043
21
6.1201495669291335
0
LINE
8
BLACK
6
CONTINUOUS
10
-4.9235161023622043
20
6.1201495669291335
11
-4.9215269685039367
21
6.1205003149606299
0
LINE
8
BLACK
6
CONTINUOUS
10
-4.9215269685039367
20
6.1205003149606299
11
-4.9197777952755901
21
6.1194903937007874
0
LINE
8
BLACK
6
CONTINUOUS
10
-4.9197777952755901
20
6.1194903937007874
11
-4.9196922440944881
21
6.1192552755905512
0
LINE
8
BLACK
6
CONTINUOUS
10
-4.9196922440944881
20
6.1192552755905512
11
-4.9177359448818896
21
6.12023342519685
0
LINE
8
BLACK
6
CONTINUOUS
10
-4.9177359448818896
20
6.12023342519685
11
-4.9167530314960626
21
6.1205257874015748
0
LINE
8
BLACK
6
CONTINUOUS
10
-4.9167530314960626
20
6.1205257874015748
11
-4.9165813385826773
21
6.120484763779527
0
LINE
8
BLACK
6
CONTINUOUS
10
-4.9165813385826773
20
6.120484763779527
11
-4.916415433070866
21
6.1205451574803149
0
LINE
8
BLACK
6
CONTINUOUS
10
-4.916415433070866
20
6.1205451574803149
11
-4.9107911417322834
21
6.1205451574803149
0
LINE
8
BLACK
6
CONTINUOUS
10
-4.9107911417322834
20
6.1205451574803149
11
-4.9097812204724409
21
6.1203670866141735
0
LINE
8
BLACK
6
CONTINUOUS
10
-4.8572877952755906
20
6.1203670866141735
11
-4.8571525590551179
21
6.1202535826771651
0
LINE
8
BLACK
6
CONTINUOUS
10
-4.8571525590551179
20
6.1202535826771651
11
-4.8569772047244095
21
6.12023342519685
0
LINE
8
BLACK
6
CONTINUOUS
10
-4.8569772047244095
20
6.12023342519685
11
-4.8532276771653544
21
6.1183586614173224
0
LINE
8
BLACK
6
CONTINUOUS
10
-4.8532276771653544
20
6.1183586614173224
11
-4.8526577559055113
21
6.1179359448818893
0
LINE
8
BLACK
6
CONTINUOUS
10
-4.8526577559055113
20
6.1179359448818893
11
-4.8524231102362201
21
6.1180376377952754
0
LINE
8
BLACK
6
CONTINUOUS
10
-4.8524231102362201
20
6.1180376377952754
11
-4.8521191732283464
21
6.1183586614173224
0
LINE
8
BLACK
6
CONTINUOUS
10
-4.8521191732283464
20
6.1183586614173224
11
-4.8483696456692913
21
6.12023342519685
0
LINE
8
BLACK
6
CONTINUOUS
10
-4.8483696456692913
20
6.12023342519685
11
-4.8473867322834643
21
6.1205257874015748
0
LINE
8
BLACK
6
CONTINUOUS
10
-4.8473867322834643
20
6.1205257874015748
11
-4.847215039370079
21
6.120484763779527
0
LINE
8
BLACK
6
CONTINUOUS
10
-4.847215039370079
20
6.120484763779527
11
-4.8470491338582677
21
6.1205451574803149
0
LINE
8
BLACK
6
CONTINUOUS
10
-4.8470491338582677
20
6.1205451574803149
11
-4.8414248425196851
21
6.1205451574803149
0
LINE
8
BLACK
6
CONTINUOUS
10
-4.8414248425196851
20
6.1205451574803149
11
-4.8404149212598426
21
6.1203670866141735
0
LINE
8
BLACK
6
CONTINUOUS
10
-4.8404149212598426
20
6.1203670866141735
11
-4.8402796850393699
21
6.1202535826771651
0
LINE
8
BLACK
6
CONTINUOUS
10
-4.8402796850393699
20
6.1202535826771651
11
-4.8401043307086615
21
6.12023342519685
0
LINE
8
BLACK
6
CONTINUOUS
10
-4.8401043307086615
20
6.12023342519685
11
-4.8363547637795277
21
6.1183586614173224
0
LINE
8
BLACK
6
CONTINUOUS
10
-4.8363547637795277
20
6.1183586614173224
11
-4.8355311023622045
21
6.117747755905512
0
LINE
8
BLACK
6
CONTINUOUS
10
-4.8355311023622045
20
6.117747755905512
11
-4.8353552755905511
21
6.1173420472440947
0
LINE
8
BLACK
6
CONTINUOUS
10
-4.8353552755905511
20
6.1173420472440947
11
-4.8350342519685041
21
6.1170381496062989
0
LINE
8
BLACK
6
CONTINUOUS
10
-4.8350342519685041
20
6.1170381496062989
11
-4.8331594881889766
21
6.1132886220472438
0
LINE
8
BLACK
6
CONTINUOUS
10
-4.8331594881889766
20
6.1132886220472438
11
-4.8328671259842517
21
6.1123057086614168
0
LINE
8
BLACK
6
CONTINUOUS
10
-4.8328671259842517
20
6.1123057086614168
11
-4.8329081496062987
21
6.1121339763779527
0
LINE
8
BLACK
6
CONTINUOUS
10
-4.8329081496062987
20
6.1121339763779527
11
-4.8328477559055116
21
6.1119681102362202
0
LINE
8
BLACK
6
CONTINUOUS
10
-4.8328477559055116
20
6.1119681102362202
11
-4.8328477559055116
21
6.0913456692913384
0
LINE
8
BLACK
6
CONTINUOUS
10
-4.8328477559055116
20
6.0913456692913384
11
-4.833025826771653
21
6.0903357480314959
0
LINE
8
BLACK
6
CONTINUOUS
10
-4.833025826771653
20
6.0903357480314959
11
-4.8343241338582672
21
6.0887885039370078
0
LINE
8
BLACK
6
CONTINUOUS
10
-4.8343241338582672
20
6.0887885039370078
11
-4.8363132677165357
21
6.0884377559055114
0
LINE
8
BLACK
6
CONTINUOUS
10
-4.8363132677165357
20
6.0884377559055114
11
-4.8380624409448814
21
6.0894476771653538
0
LINE
8
BLACK
6
CONTINUOUS
10
-4.8380624409448814
20
6.0894476771653538
11
-4.8387532677165357
21
6.0913456692913384
0
LINE
8
BLACK
6
CONTINUOUS
10
-4.8387532677165357
20
6.0913456692913384
11
-4.8387532677165357
21
6.1112710629921256
0
LINE
8
BLACK
6
CONTINUOUS
10
-4.8387532677165357
20
6.1112710629921256
11
-4.8398761417322831
21
6.1135167716535435
0
LINE
8
BLACK
6
CONTINUOUS
10
-4.8398761417322831
20
6.1135167716535435
11
-4.8421218897637797
21
6.1146396456692909
0
LINE
8
BLACK
6
CONTINUOUS
10
-4.8421218897637797
20
6.1146396456692909
11
-4.8463520866141732
21
6.1146396456692909
0
LINE
8
BLACK
6
CONTINUOUS
10
-4.8463520866141732
20
6.1146396456692909
11
-4.8485978346456688
21
6.1135167716535435
0
LINE
8
BLACK
6
CONTINUOUS
10
-4.8485978346456688
20
6.1135167716535435
11
-4.8497206692913384
21
6.1112710629921256
0
LINE
8
BLACK
6
CONTINUOUS
10
-4.8497206692913384
20
6.1112710629921256
11
-4.8497206692913384
21
6.0913456692913384
0
LINE
8
BLACK
6
CONTINUOUS
10
-4.8497206692913384
20
6.0913456692913384
11
-4.8498987401574798
21
6.0903357480314959
0
LINE
8
BLACK
6
CONTINUOUS
10
-4.8498987401574798
20
6.0903357480314959
11
-4.851197047244094
21
6.0887885039370078
0
LINE
8
BLACK
6
CONTINUOUS
10
-4.851197047244094
20
6.0887885039370078
11
-4.8531861811023624
21
6.0884377559055114
0
LINE
8
BLACK
6
CONTINUOUS
10
-4.8531861811023624
20
6.0884377559055114
11
-4.8549353543307081
21
6.0894476771653538
0
LINE
8
BLACK
6
CONTINUOUS
10
-4.8549353543307081
20
6.0894476771653538
11
-4.8556261811023624
21
6.0913456692913384
0
LINE
8
BLACK
6
CONTINUOUS
10
-4.8556261811023624
20
6.0913456692913384
11
-4.8556261811023624
21
6.1112710629921256
0
LINE
8
BLACK
6
CONTINUOUS
10
-4.8556261811023624
20
6.1112710629921256
11
-4.8567490551181098
21
6.1135167716535435
0
LINE
8
BLACK
6
CONTINUOUS
10
-4.8567490551181098
20
6.1135167716535435
11
-4.8589947637795277
21
6.1146396456692909
0
LINE
8
BLACK
6
CONTINUOUS
10
-4.8589947637795277
20
6.1146396456692909
11
-4.8632249606299212
21
6.1146396456692909
0
LINE
8
BLACK
6
CONTINUOUS
10
-4.8632249606299212
20
6.1146396456692909
11
-4.8659224409448818
21
6.1132909055118105
0
LINE
8
BLACK
6
CONTINUOUS
10
-4.8659224409448818
20
6.1132909055118105
11
-4.8665935433070864
21
6.112619803149606
0
LINE
8
BLACK
6
CONTINUOUS
10
-4.8665935433070864
20
6.112619803149606
11
-4.8665935433070864
21
6.0913456692913384
0
LINE
8
BLACK
6
CONTINUOUS
10
-4.8665935433070864
20
6.0913456692913384
11
-4.8667716141732287
21
6.0903357480314959
0
LINE
8
BLACK
6
CONTINUOUS
10
-4.8667716141732287
20
6.0903357480314959
11
-4.8680699212598428
21
6.0887885039370078
0
LINE
8
BLACK
6
CONTINUOUS
10
-4.8680699212598428
20
6.0887885039370078
11
-4.8700590551181104
21
6.0884377559055114
0
LINE
8
BLACK
6
CONTINUOUS
10
-4.8700590551181104
20
6.0884377559055114
11
-4.871808228346457
21
6.0894476771653538
0
LINE
8
BLACK
6
CONTINUOUS
10
-4.871808228346457
20
6.0894476771653538
11
-4.8724990551181104
21
6.0913456692913384
0
LINE
8
BLACK
6
CONTINUOUS
10
-4.8724990551181104
20
6.0913456692913384
11
-4.8724990551181104
21
6.1175924015748029
0
LINE
8
BLACK
6
CONTINUOUS
10
-4.8724990551181104
20
6.1175924015748029
11
-4.8723209842519681
21
6.1186023228346453
0
LINE
8
BLACK
6
CONTINUOUS
10
-4.8723209842519681
20
6.1186023228346453
11
-4.871022677165354
21
6.1201495669291335
0
LINE
8
BLACK
6
CONTINUOUS
10
-4.871022677165354
20
6.1201495669291335
11
-4.8690335433070864
21
6.1205003149606299
0
LINE
8
BLACK
6
CONTINUOUS
10
-4.8690335433070864
20
6.1205003149606299
11
-4.8672843700787398
21
6.1194903937007874
0
LINE
8
BLACK
6
CONTINUOUS
10
-4.8672843700787398
20
6.1194903937007874
11
-4.8671988188976378
21
6.1192552755905512
0
LINE
8
BLACK
6
CONTINUOUS
10
-4.8671988188976378
20
6.1192552755905512
11
-4.8652425196850393
21
6.12023342519685
0
LINE
8
BLACK
6
CONTINUOUS
10
-4.8652425196850393
20
6.12023342519685
11
-4.8642596062992123
21
6.1205257874015748
0
LINE
8
BLACK
6
CONTINUOUS
10
-4.8642596062992123
20
6.1205257874015748
11
-4.864087913385827
21
6.120484763779527
0
LINE
8
BLACK
6
CONTINUOUS
10
-4.864087913385827
20
6.120484763779527
11
-4.8639220078740157
21
6.1205451574803149
0
LINE
8
BLACK
6
CONTINUOUS
10
-4.8639220078740157
20
6.1205451574803149
11
-4.8582977165354331
21
6.1205451574803149
0
LINE
8
BLACK
6
CONTINUOUS
10
-4.8582977165354331
20
6.1205451574803149
11
-4.8572877952755906
21
6.1203670866141735
0
LINE
8
BLACK
6
CONTINUOUS
10
-4.6730920472440944
20
6.1203670866141735
11
-4.6729568110236217
21
6.1202535826771651
0
LINE
8
BLACK
6
CONTINUOUS
10
-4.6729568110236217
20
6.1202535826771651
11
-4.6727814566929133
21
6.12023342519685
0
LINE
8
BLACK
6
CONTINUOUS
10
-4.6727814566929133
20
6.12023342519685
11
-4.6690319291338582
21
6.1183586614173224
0
LINE
8
BLACK
6
CONTINUOUS
10
-4.6690319291338582
20
6.1183586614173224
11
-4.668462007874016
21
6.1179359448818893
0
LINE
8
BLACK
6
CONTINUOUS
10
-4.668462007874016
20
6.1179359448818893
11
-4.6682273622047239
21
6.1180376377952754
0
LINE
8
BLACK
6
CONTINUOUS
10
-4.6682273622047239
20
6.1180376377952754
11
-4.6679234251968502
21
6.1183586614173224
0
LINE
8
BLACK
6
CONTINUOUS
10
-4.6679234251968502
20
6.1183586614173224
11
-4.6641738976377951
21
6.12023342519685
0
LINE
8
BLACK
6
CONTINUOUS
10
-4.6641738976377951
20
6.12023342519685
11
-4.6631909842519681
21
6.1205257874015748
0
LINE
8
BLACK
6
CONTINUOUS
10
-4.6631909842519681
20
6.1205257874015748
11
-4.6630192913385828
21
6.120484763779527
0
LINE
8
BLACK
6
CONTINUOUS
10
-4.6630192913385828
20
6.120484763779527
11
-4.6628533858267716
21
6.1205451574803149
0
LINE
8
BLACK
6
CONTINUOUS
10
-4.6628533858267716
20
6.1205451574803149
11
-4.6572290944881889
21
6.1205451574803149
0
LINE
8
BLACK
6
CONTINUOUS
10
-4.6572290944881889
20
6.1205451574803149
11
-4.6562191732283464
21
6.1203670866141735
0
LINE
8
BLACK
6
CONTINUOUS
10
-4.6562191732283464
20
6.1203670866141735
11
-4.6560839370078737
21
6.1202535826771651
0
LINE
8
BLACK
6
CONTINUOUS
10
-4.6560839370078737
20
6.1202535826771651
11
-4.6559085826771653
21
6.12023342519685
0
LINE
8
BLACK
6
CONTINUOUS
10
-4.6559085826771653
20
6.12023342519685
11
-4.6521590157480315
21
6.1183586614173224
0
LINE
8
BLACK
6
CONTINUOUS
10
-4.6521590157480315
20
6.1183586614173224
11
-4.6513353543307083
21
6.117747755905512
0
LINE
8
BLACK
6
CONTINUOUS
10
-4.6513353543307083
20
6.117747755905512
11
-4.6511595275590549
21
6.1173420472440947
0
LINE
8
BLACK
6
CONTINUOUS
10
-4.6511595275590549
20
6.1173420472440947
11
-4.6508385039370079
21
6.1170381496062989
0
LINE
8
BLACK
6
CONTINUOUS
10
-4.6508385039370079
20
6.1170381496062989
11
-4.6489637401574804
21
6.1132886220472438
0
LINE
8
BLACK
6
CONTINUOUS
10
-4.6489637401574804
20
6.1132886220472438
11
-4.6486713779527555
21
6.1123057086614168
0
LINE
8
BLACK
6
CONTINUOUS
10
-4.6486713779527555
20
6.1123057086614168
11
-4.6487124015748034
21
6.1121339763779527
0
LINE
8
BLACK
6
CONTINUOUS
10
-4.6487124015748034
20
6.1121339763779527
11
-4.6486520078740154
21
6.1119681102362202
0
LINE
8
BLACK
6
CONTINUOUS
10
-4.6486520078740154
20
6.1119681102362202
11
-4.6486520078740154
21
6.0913456692913384
0
LINE
8
BLACK
6
CONTINUOUS
10
-4.6486520078740154
20
6.0913456692913384
11
-4.6488300787401577
21
6.0903357480314959
0
LINE
8
BLACK
6
CONTINUOUS
10
-4.6488300787401577
20
6.0903357480314959
11
-4.6501283858267719
21
6.0887885039370078
0
LINE
8
BLACK
6
CONTINUOUS
10
-4.6501283858267719
20
6.0887885039370078
11
-4.6521175196850395
21
6.0884377559055114
0
LINE
8
BLACK
6
CONTINUOUS
10
-4.6521175196850395
20
6.0884377559055114
11
-4.6538666929133861
21
6.0894476771653538
0
LINE
8
BLACK
6
CONTINUOUS
10
-4.6538666929133861
20
6.0894476771653538
11
-4.6545575196850395
21
6.0913456692913384
0
LINE
8
BLACK
6
CONTINUOUS
10
-4.6545575196850395
20
6.0913456692913384
11
-4.6545575196850395
21
6.1112710629921256
0
LINE
8
BLACK
6
CONTINUOUS
10
-4.6545575196850395
20
6.1112710629921256
11
-4.6556803937007869
21
6.1135167716535435
0
LINE
8
BLACK
6
CONTINUOUS
10
-4.6556803937007869
20
6.1135167716535435
11
-4.6579261417322835
21
6.1146396456692909
0
LINE
8
BLACK
6
CONTINUOUS
10
-4.6579261417322835
20
6.1146396456692909
11
-4.662156338582677
21
6.1146396456692909
0
LINE
8
BLACK
6
CONTINUOUS
10
-4.662156338582677
20
6.1146396456692909
11
-4.6644020866141735
21
6.1135167716535435
0
LINE
8
BLACK
6
CONTINUOUS
10
-4.6644020866141735
20
6.1135167716535435
11
-4.6655249212598422
21
6.1112710629921256
0
LINE
8
BLACK
6
CONTINUOUS
10
-4.6655249212598422
20
6.1112710629921256
11
-4.6655249212598422
21
6.0913456692913384
0
LINE
8
BLACK
6
CONTINUOUS
10
-4.6655249212598422
20
6.0913456692913384
11
-4.6657029921259845
21
6.0903357480314959
0
LINE
8
BLACK
6
CONTINUOUS
10
-4.6657029921259845
20
6.0903357480314959
11
-4.6670012992125987
21
6.0887885039370078
0
LINE
8
BLACK
6
CONTINUOUS
10
-4.6670012992125987
20
6.0887885039370078
11
-4.6689904330708663
21
6.0884377559055114
0
LINE
8
BLACK
6
CONTINUOUS
10
-4.6689904330708663
20
6.0884377559055114
11
-4.6707396062992128
21
6.0894476771653538
0
LINE
8
BLACK
6
CONTINUOUS
10
-4.6707396062992128
20
6.0894476771653538
11
-4.6714304330708663
21
6.0913456692913384
0
LINE
8
BLACK
6
CONTINUOUS
10
-4.6714304330708663
20
6.0913456692913384
11
-4.6714304330708663
21
6.1112710629921256
0
LINE
8
BLACK
6
CONTINUOUS
10
-4.6714304330708663
20
6.1112710629921256
11
-4.6725533070866136
21
6.1135167716535435
0
LINE
8
BLACK
6
CONTINUOUS
10
-4.6725533070866136
20
6.1135167716535435
11
-4.6747990157480315
21
6.1146396456692909
0
LINE
8
BLACK
6
CONTINUOUS
10
-4.6747990157480315
20
6.1146396456692909
11
-4.679029212598425
21
6.1146396456692909
0
LINE
8
BLACK
6
CONTINUOUS
10
-4.679029212598425
20
6.1146396456692909
11
-4.6817266929133856
21
6.1132909055118105
0
LINE
8
BLACK
6
CONTINUOUS
10
-4.6817266929133856
20
6.1132909055118105
11
-4.6823977952755902
21
6.112619803149606
0
LINE
8
BLACK
6
CONTINUOUS
10
-4.6823977952755902
20
6.112619803149606
11
-4.6823977952755902
21
6.0913456692913384
0
LINE
8
BLACK
6
CONTINUOUS
10
-4.6823977952755902
20
6.0913456692913384
11
-4.6825758661417325
21
6.0903357480314959
0
LINE
8
BLACK
6
CONTINUOUS
10
-4.6825758661417325
20
6.0903357480314959
11
-4.6838741732283466
21
6.0887885039370078
0
LINE
8
BLACK
6
CONTINUOUS
10
-4.6838741732283466
20
6.0887885039370078
11
-4.6858633070866142
21
6.0884377559055114
0
LINE
8
BLACK
6
CONTINUOUS
10
-4.6858633070866142
20
6.0884377559055114
11
-4.6876124803149608
21
6.0894476771653538
0
LINE
8
BLACK
6
CONTINUOUS
10
-4.6876124803149608
20
6.0894476771653538
11
-4.6883033070866142
21
6.0913456692913384
0
LINE
8
BLACK
6
CONTINUOUS
10
-4.6883033070866142
20
6.0913456692913384
11
-4.6883033070866142
21
6.1175924015748029
0
LINE
8
BLACK
6
CONTINUOUS
10
-4.6883033070866142
20
6.1175924015748029
11
-4.6881252362204719
21
6.1186023228346453
0
LINE
8
BLACK
6
CONTINUOUS
10
-4.6881252362204719
20
6.1186023228346453
11
-4.6868269291338578
21
6.1201495669291335
0
LINE
8
BLACK
6
CONTINUOUS
10
-4.6868269291338578
20
6.1201495669291335
11
-4.6848377952755902
21
6.1205003149606299
0
LINE
8
BLACK
6
CONTINUOUS
10
-4.6848377952755902
20
6.1205003149606299
11
-4.6830886220472436
21
6.1194903937007874
0
LINE
8
BLACK
6
CONTINUOUS
10
-4.6830886220472436
20
6.1194903937007874
11
-4.6830030708661416
21
6.1192552755905512
0
LINE
8
BLACK
6
CONTINUOUS
10
-4.6830030708661416
20
6.1192552755905512
11
-4.6810467716535431
21
6.12023342519685
0
LINE
8
BLACK
6
CONTINUOUS
10
-4.6810467716535431
20
6.12023342519685
11
-4.6800638582677161
21
6.1205257874015748
0
LINE
8
BLACK
6
CONTINUOUS
10
-4.6800638582677161
20
6.1205257874015748
11
-4.6798921653543308
21
6.120484763779527
0
LINE
8
BLACK
6
CONTINUOUS
10
-4.6798921653543308
20
6.120484763779527
11
-4.6797262598425196
21
6.1205451574803149
0
LINE
8
BLACK
6
CONTINUOUS
10
-4.6797262598425196
20
6.1205451574803149
11
-4.6741019685039369
21
6.1205451574803149
0
LINE
8
BLACK
6
CONTINUOUS
10
-4.6741019685039369
20
6.1205451574803149
11
-4.6730920472440944
21
6.1203670866141735
0
LINE
8
BLACK
6
CONTINUOUS
10
-4.6205986220472441
20
6.1203670866141735
11
-4.6204633858267714
21
6.1202535826771651
0
LINE
8
BLACK
6
CONTINUOUS
10
-4.6204633858267714
20
6.1202535826771651
11
-4.620288031496063
21
6.12023342519685
0
LINE
8
BLACK
6
CONTINUOUS
10
-4.620288031496063
20
6.12023342519685
11
-4.6165385039370079
21
6.1183586614173224
0
LINE
8
BLACK
6
CONTINUOUS
10
-4.6165385039370079
20
6.1183586614173224
11
-4.6159685826771648
21
6.1179359448818893
0
LINE
8
BLACK
6
CONTINUOUS
10
-4.6159685826771648
20
6.1179359448818893
11
-4.6157339370078736
21
6.1180376377952754
0
LINE
8
BLACK
6
CONTINUOUS
10
-4.6157339370078736
20
6.1180376377952754
11
-4.6154299999999999
21
6.1183586614173224
0
LINE
8
BLACK
6
CONTINUOUS
10
-4.6154299999999999
20
6.1183586614173224
11
-4.6116804724409448
21
6.12023342519685
0
LINE
8
BLACK
6
CONTINUOUS
10
-4.6116804724409448
20
6.12023342519685
11
-4.6106975590551178
21
6.1205257874015748
0
LINE
8
BLACK
6
CONTINUOUS
10
-4.6106975590551178
20
6.1205257874015748
11
-4.6105258661417325
21
6.120484763779527
0
LINE
8
BLACK
6
CONTINUOUS
10
-4.6105258661417325
20
6.120484763779527
11
-4.6103599606299213
21
6.1205451574803149
0
LINE
8
BLACK
6
CONTINUOUS
10
-4.6103599606299213
20
6.1205451574803149
11
-4.6047356692913386
21
6.1205451574803149
0
LINE
8
BLACK
6
CONTINUOUS
10
-4.6047356692913386
20
6.1205451574803149
11
-4.6037257480314961
21
6.1203670866141735
0
LINE
8
BLACK
6
CONTINUOUS
10
-4.6037257480314961
20
6.1203670866141735
11
-4.6035905118110234
21
6.1202535826771651
0
LINE
8
BLACK
6
CONTINUOUS
10
-4.6035905118110234
20
6.1202535826771651
11
-4.603415157480315
21
6.12023342519685
0
LINE
8
BLACK
6
CONTINUOUS
10
-4.603415157480315
20
6.12023342519685
11
-4.5996655905511812
21
6.1183586614173224
0
LINE
8
BLACK
6
CONTINUOUS
10
-4.5996655905511812
20
6.1183586614173224
11
-4.598841929133858
21
6.117747755905512
0
LINE
8
BLACK
6
CONTINUOUS
10
-4.598841929133858
20
6.117747755905512
11
-4.5986661023622046
21
6.1173420472440947
0
LINE
8
BLACK
6
CONTINUOUS
10
-4.5986661023622046
20
6.1173420472440947
11
-4.5983450787401576
21
6.1170381496062989
0
LINE
8
BLACK
6
CONTINUOUS
10
-4.5983450787401576
20
6.1170381496062989
11
-4.5964703149606301
21
6.1132886220472438
0
LINE
8
BLACK
6
CONTINUOUS
10
-4.5964703149606301
20
6.1132886220472438
11
-4.5961779527559052
21
6.1123057086614168
0
LINE
8
BLACK
6
CONTINUOUS
10
-4.5961779527559052
20
6.1123057086614168
11
-4.5962189763779531
21
6.1121339763779527
0
LINE
8
BLACK
6
CONTINUOUS
10
-4.5962189763779531
20
6.1121339763779527
11
-4.5961585826771651
21
6.1119681102362202
0
LINE
8
BLACK
6
CONTINUOUS
10
-4.5961585826771651
20
6.1119681102362202
11
-4.5961585826771651
21
6.0913456692913384
0
LINE
8
BLACK
6
CONTINUOUS
10
-4.5961585826771651
20
6.0913456692913384
11
-4.5963366535433066
21
6.0903357480314959
0
LINE
8
BLACK
6
CONTINUOUS
10
-4.5963366535433066
20
6.0903357480314959
11
-4.5976349606299207
21
6.0887885039370078
0
LINE
8
BLACK
6
CONTINUOUS
10
-4.5976349606299207
20
6.0887885039370078
11
-4.5996240944881892
21
6.0884377559055114
0
LINE
8
BLACK
6
CONTINUOUS
10
-4.5996240944881892
20
6.0884377559055114
11
-4.6013732677165358
21
6.0894476771653538
0
LINE
8
BLACK
6
CONTINUOUS
10
-4.6013732677165358
20
6.0894476771653538
11
-4.6020640944881892
21
6.0913456692913384
0
LINE
8
BLACK
6
CONTINUOUS
10
-4.6020640944881892
20
6.0913456692913384
11
-4.6020640944881892
21
6.1112710629921256
0
LINE
8
BLACK
6
CONTINUOUS
10
-4.6020640944881892
20
6.1112710629921256
11
-4.6031869685039366
21
6.1135167716535435
0
LINE
8
BLACK
6
CONTINUOUS
10
-4.6031869685039366
20
6.1135167716535435
11
-4.6054327165354332
21
6.1146396456692909
0
LINE
8
BLACK
6
CONTINUOUS
10
-4.6054327165354332
20
6.1146396456692909
11
-4.6096629133858267
21
6.1146396456692909
0
LINE
8
BLACK
6
CONTINUOUS
10
-4.6096629133858267
20
6.1146396456692909
11
-4.6119086614173224
21
6.1135167716535435
0
LINE
8
BLACK
6
CONTINUOUS
10
-4.6119086614173224
20
6.1135167716535435
11
-4.6130314960629919
21
6.1112710629921256
0
LINE
8
BLACK
6
CONTINUOUS
10
-4.6130314960629919
20
6.1112710629921256
11
-4.6130314960629919
21
6.0913456692913384
0
LINE
8
BLACK
6
CONTINUOUS
10
-4.6130314960629919
20
6.0913456692913384
11
-4.6132095669291333
21
6.0903357480314959
0
LINE
8
BLACK
6
CONTINUOUS
10
-4.6132095669291333
20
6.0903357480314959
11
-4.6145078740157484
21
6.0887885039370078
0
LINE
8
BLACK
6
CONTINUOUS
10
-4.6145078740157484
20
6.0887885039370078
11
-4.616497007874016
21
6.0884377559055114
0
LINE
8
BLACK
6
CONTINUOUS
10
-4.616497007874016
20
6.0884377559055114
11
-4.6182461811023625
21
6.0894476771653538
0
LINE
8
BLACK
6
CONTINUOUS
10
-4.6182461811023625
20
6.0894476771653538
11
-4.618937007874016
21
6.0913456692913384
0
LINE
8
BLACK
6
CONTINUOUS
10
-4.618937007874016
20
6.0913456692913384
11
-4.618937007874016
21
6.1112710629921256
0
LINE
8
BLACK
6
CONTINUOUS
10
-4.618937007874016
20
6.1112710629921256
11
-4.6200598818897634
21
6.1135167716535435
0
LINE
8
BLACK
6
CONTINUOUS
10
-4.6200598818897634
20
6.1135167716535435
11
-4.6223055905511812
21
6.1146396456692909
0
LINE
8
BLACK
6
CONTINUOUS
10
-4.6223055905511812
20
6.1146396456692909
11
-4.6265357874015747
21
6.1146396456692909
0
LINE
8
BLACK
6
CONTINUOUS
10
-4.6265357874015747
20
6.1146396456692909
11
-4.6292332677165353
21
6.1132909055118105
0
LINE
8
BLACK
6
CONTINUOUS
10
-4.6292332677165353
20
6.1132909055118105
11
-4.6299043700787399
21
6.112619803149606
0
LINE
8
BLACK
6
CONTINUOUS
10
-4.6299043700787399
20
6.112619803149606
11
-4.6299043700787399
21
6.0913456692913384
0
LINE
8
BLACK
6
CONTINUOUS
10
-4.6299043700787399
20
6.0913456692913384
11
-4.6300824409448822
21
6.0903357480314959
0
LINE
8
BLACK
6
CONTINUOUS
10
-4.6300824409448822
20
6.0903357480314959
11
-4.6313807480314964
21
6.0887885039370078
0
LINE
8
BLACK
6
CONTINUOUS
10
-4.6313807480314964
20
6.0887885039370078
11
-4.633369881889764
21
6.0884377559055114
0
LINE
8
BLACK
6
CONTINUOUS
10
-4.633369881889764
20
6.0884377559055114
11
-4.6351190551181105
21
6.0894476771653538
0
LINE
8
BLACK
6
CONTINUOUS
10
-4.6351190551181105
20
6.0894476771653538
11
-4.635809881889764
21
6.0913456692913384
0
LINE
8
BLACK
6
CONTINUOUS
10
-4.635809881889764
20
6.0913456692913384
11
-4.635809881889764
21
6.1175924015748029
0
LINE
8
BLACK
6
CONTINUOUS
10
-4.635809881889764
20
6.1175924015748029
11
-4.6356318110236217
21
6.1186023228346453
0
LINE
8
BLACK
6
CONTINUOUS
10
-4.6356318110236217
20
6.1186023228346453
11
-4.6343335039370075
21
6.1201495669291335
0
LINE
8
BLACK
6
CONTINUOUS
10
-4.6343335039370075
20
6.1201495669291335
11
-4.6323443700787399
21
6.1205003149606299
0
LINE
8
BLACK
6
CONTINUOUS
10
-4.6323443700787399
20
6.1205003149606299
11
-4.6305951968503933
21
6.1194903937007874
0
LINE
8
BLACK
6
CONTINUOUS
10
-4.6305951968503933
20
6.1194903937007874
11
-4.6305096456692914
21
6.1192552755905512
0
LINE
8
BLACK
6
CONTINUOUS
10
-4.6305096456692914
20
6.1192552755905512
11
-4.6285533464566928
21
6.12023342519685
0
LINE
8
BLACK
6
CONTINUOUS
10
-4.6285533464566928
20
6.12023342519685
11
-4.6275704330708658
21
6.1205257874015748
0
LINE
8
BLACK
6
CONTINUOUS
10
-4.6275704330708658
20
6.1205257874015748
11
-4.6273987401574805
21
6.120484763779527
0
LINE
8
BLACK
6
CONTINUOUS
10
-4.6273987401574805
20
6.120484763779527
11
-4.6272328346456693
21
6.1205451574803149
0
LINE
8
BLACK
6
CONTINUOUS
10
-4.6272328346456693
20
6.1205451574803149
11
-4.6216085433070866
21
6.1205451574803149
0
LINE
8
BLACK
6
CONTINUOUS
10
-4.6216085433070866
20
6.1205451574803149
11
-4.6205986220472441
21
6.1203670866141735
0
LINE
8
BLACK
6
CONTINUOUS
10
-4.2793912598425194
20
6.1203670866141735
11
-4.2792560236220467
21
6.1202535826771651
0
LINE
8
BLACK
6
CONTINUOUS
10
-4.2792560236220467
20
6.1202535826771651
11
-4.2790806692913383
21
6.12023342519685
0
LINE
8
BLACK
6
CONTINUOUS
10
-4.2790806692913383
20
6.12023342519685
11
-4.2753311417322832
21
6.1183586614173224
0
LINE
8
BLACK
6
CONTINUOUS
10
-4.2753311417322832
20
6.1183586614173224
11
-4.274761220472441
21
6.1179359448818893
0
LINE
8
BLACK
6
CONTINUOUS
10
-4.274761220472441
20
6.1179359448818893
11
-4.2745265748031498
21
6.1180376377952754
0
LINE
8
BLACK
6
CONTINUOUS
10
-4.2745265748031498
20
6.1180376377952754
11
-4.2742226377952752
21
6.1183586614173224
0
LINE
8
BLACK
6
CONTINUOUS
10
-4.2742226377952752
20
6.1183586614173224
11
-4.2704731102362201
21
6.12023342519685
0
LINE
8
BLACK
6
CONTINUOUS
10
-4.2704731102362201
20
6.12023342519685
11
-4.269490196850394
21
6.1205257874015748
0
LINE
8
BLACK
6
CONTINUOUS
10
-4.269490196850394
20
6.1205257874015748
11
-4.2693185039370078
21
6.120484763779527
0
LINE
8
BLACK
6
CONTINUOUS
10
-4.2693185039370078
20
6.120484763779527
11
-4.2691525984251966
21
6.1205451574803149
0
LINE
8
BLACK
6
CONTINUOUS
10
-4.2691525984251966
20
6.1205451574803149
11
-4.2635283070866139
21
6.1205451574803149
0
LINE
8
BLACK
6
CONTINUOUS
10
-4.2635283070866139
20
6.1205451574803149
11
-4.2625183858267714
21
6.1203670866141735
0
LINE
8
BLACK
6
CONTINUOUS
10
-4.2625183858267714
20
6.1203670866141735
11
-4.2623831496062987
21
6.1202535826771651
0
LINE
8
BLACK
6
CONTINUOUS
10
-4.2623831496062987
20
6.1202535826771651
11
-4.2622077952755903
21
6.12023342519685
0
LINE
8
BLACK
6
CONTINUOUS
10
-4.2622077952755903
20
6.12023342519685
11
-4.2584582283464565
21
6.1183586614173224
0
LINE
8
BLACK
6
CONTINUOUS
10
-4.2584582283464565
20
6.1183586614173224
11
-4.2576345669291333
21
6.117747755905512
0
LINE
8
BLACK
6
CONTINUOUS
10
-4.2576345669291333
20
6.117747755905512
11
-4.2574587401574799
21
6.1173420472440947
0
LINE
8
BLACK
6
CONTINUOUS
10
-4.2574587401574799
20
6.1173420472440947
11
-4.2571377165354329
21
6.1170381496062989
0
LINE
8
BLACK
6
CONTINUOUS
10
-4.2571377165354329
20
6.1170381496062989
11
-4.2552629527559054
21
6.1132886220472438
0
LINE
8
BLACK
6
CONTINUOUS
10
-4.2552629527559054
20
6.1132886220472438
11
-4.2549705905511814
21
6.1123057086614168
0
LINE
8
BLACK
6
CONTINUOUS
10
-4.2549705905511814
20
6.1123057086614168
11
-4.2550116141732284
21
6.1121339763779527
0
LINE
8
BLACK
6
CONTINUOUS
10
-4.2550116141732284
20
6.1121339763779527
11
-4.2549512204724405
21
6.1119681102362202
0
LINE
8
BLACK
6
CONTINUOUS
10
-4.2549512204724405
20
6.1119681102362202
11
-4.2549512204724405
21
6.0913456692913384
0
LINE
8
BLACK
6
CONTINUOUS
10
-4.2549512204724405
20
6.0913456692913384
11
-4.2551292913385828
21
6.0903357480314959
0
LINE
8
BLACK
6
CONTINUOUS
10
-4.2551292913385828
20
6.0903357480314959
11
-4.2564275984251969
21
6.0887885039370078
0
LINE
8
BLACK
6
CONTINUOUS
10
-4.2564275984251969
20
6.0887885039370078
11
-4.2584167322834645
21
6.0884377559055114
0
LINE
8
BLACK
6
CONTINUOUS
10
-4.2584167322834645
20
6.0884377559055114
11
-4.2601659055118111
21
6.0894476771653538
0
LINE
8
BLACK
6
CONTINUOUS
10
-4.2601659055118111
20
6.0894476771653538
11
-4.2608567322834645
21
6.0913456692913384
0
LINE
8
BLACK
6
CONTINUOUS
10
-4.2608567322834645
20
6.0913456692913384
11
-4.2608567322834645
21
6.1112710629921256
0
LINE
8
BLACK
6
CONTINUOUS
10
-4.2608567322834645
20
6.1112710629921256
11
-4.2619796062992128
21
6.1135167716535435
0
LINE
8
BLACK
6
CONTINUOUS
10
-4.2619796062992128
20
6.1135167716535435
11
-4.2642253543307085
21
6.1146396456692909
0
LINE
8
BLACK
6
CONTINUOUS
10
-4.2642253543307085
20
6.1146396456692909
11
-4.268455551181102
21
6.1146396456692909
0
LINE
8
BLACK
6
CONTINUOUS
10
-4.268455551181102
20
6.1146396456692909
11
-4.2707012992125986
21
6.1135167716535435
0
LINE
8
BLACK
6
CONTINUOUS
10
-4.2707012992125986
20
6.1135167716535435
11
-4.2718241338582672
21
6.1112710629921256
0
LINE
8
BLACK
6
CONTINUOUS
10
-4.2718241338582672
20
6.1112710629921256
11
-4.2718241338582672
21
6.0913456692913384
0
LINE
8
BLACK
6
CONTINUOUS
10
-4.2718241338582672
20
6.0913456692913384
11
-4.2720022047244095
21
6.0903357480314959
0
LINE
8
BLACK
6
CONTINUOUS
10
-4.2720022047244095
20
6.0903357480314959
11
-4.2733005118110237
21
6.0887885039370078
0
LINE
8
BLACK
6
CONTINUOUS
10
-4.2733005118110237
20
6.0887885039370078
11
-4.2752896456692913
21
6.0884377559055114
0
LINE
8
BLACK
6
CONTINUOUS
10
-4.2752896456692913
20
6.0884377559055114
11
-4.2770388188976378
21
6.0894476771653538
0
LINE
8
BLACK
6
CONTINUOUS
10
-4.2770388188976378
20
6.0894476771653538
11
-4.2777296456692913
21
6.0913456692913384
0
LINE
8
BLACK
6
CONTINUOUS
10
-4.2777296456692913
20
6.0913456692913384
11
-4.2777296456692913
21
6.1112710629921256
0
LINE
8
BLACK
6
CONTINUOUS
10
-4.2777296456692913
20
6.1112710629921256
11
-4.2788525196850395
21
6.1135167716535435
0
LINE
8
BLACK
6
CONTINUOUS
10
-4.2788525196850395
20
6.1135167716535435
11
-4.2810982283464565
21
6.1146396456692909
0
LINE
8
BLACK
6
CONTINUOUS
10
-4.2810982283464565
20
6.1146396456692909
11
-4.28532842519685
21
6.1146396456692909
0
LINE
8
BLACK
6
CONTINUOUS
10
-4.28532842519685
20
6.1146396456692909
11
-4.2880259055118106
21
6.1132909055118105
0
LINE
8
BLACK
6
CONTINUOUS
10
-4.2880259055118106
20
6.1132909055118105
11
-4.2886970078740161
21
6.112619803149606
0
LINE
8
BLACK
6
CONTINUOUS
10
-4.2886970078740161
20
6.112619803149606
11
-4.2886970078740161
21
6.0913456692913384
0
LINE
8
BLACK
6
CONTINUOUS
10
-4.2886970078740161
20
6.0913456692913384
11
-4.2888750787401575
21
6.0903357480314959
0
LINE
8
BLACK
6
CONTINUOUS
10
-4.2888750787401575
20
6.0903357480314959
11
-4.2901733858267717
21
6.0887885039370078
0
LINE
8
BLACK
6
CONTINUOUS
10
-4.2901733858267717
20
6.0887885039370078
11
-4.2921625196850393
21
6.0884377559055114
0
LINE
8
BLACK
6
CONTINUOUS
10
-4.2921625196850393
20
6.0884377559055114
11
-4.2939116929133858
21
6.0894476771653538
0
LINE
8
BLACK
6
CONTINUOUS
10
-4.2939116929133858
20
6.0894476771653538
11
-4.2946025196850393
21
6.0913456692913384
0
LINE
8
BLACK
6
CONTINUOUS
10
-4.2946025196850393
20
6.0913456692913384
11
-4.2946025196850393
21
6.1175924015748029
0
LINE
8
BLACK
6
CONTINUOUS
10
-4.2946025196850393
20
6.1175924015748029
11
-4.2944244488188978
21
6.1186023228346453
0
LINE
8
BLACK
6
CONTINUOUS
10
-4.2944244488188978
20
6.1186023228346453
11
-4.2931261417322837
21
6.1201495669291335
0
LINE
8
BLACK
6
CONTINUOUS
10
-4.2931261417322837
20
6.1201495669291335
11
-4.2911370078740161
21
6.1205003149606299
0
LINE
8
BLACK
6
CONTINUOUS
10
-4.2911370078740161
20
6.1205003149606299
11
-4.2893878346456695
21
6.1194903937007874
0
LINE
8
BLACK
6
CONTINUOUS
10
-4.2893878346456695
20
6.1194903937007874
11
-4.2893022834645667
21
6.1192552755905512
0
LINE
8
BLACK
6
CONTINUOUS
10
-4.2893022834645667
20
6.1192552755905512
11
-4.2873459842519681
21
6.12023342519685
0
LINE
8
BLACK
6
CONTINUOUS
10
-4.2873459842519681
20
6.12023342519685
11
-4.286363070866142
21
6.1205257874015748
0
LINE
8
BLACK
6
CONTINUOUS
10
-4.286363070866142
20
6.1205257874015748
11
-4.2861913779527558
21
6.120484763779527
0
LINE
8
BLACK
6
CONTINUOUS
10
-4.2861913779527558
20
6.120484763779527
11
-4.2860254724409446
21
6.1205451574803149
0
LINE
8
BLACK
6
CONTINUOUS
10
-4.2860254724409446
20
6.1205451574803149
11
-4.2804011811023619
21
6.1205451574803149
0
LINE
8
BLACK
6
CONTINUOUS
10
-4.2804011811023619
20
6.1205451574803149
11
-4.2793912598425194
21
6.1203670866141735
0
LINE
8
BLACK
6
CONTINUOUS
10
-4.2268978346456691
20
6.1203670866141735
11
-4.2267625984251964
21
6.1202535826771651
0
LINE
8
BLACK
6
CONTINUOUS
10
-4.2267625984251964
20
6.1202535826771651
11
-4.226587244094488
21
6.12023342519685
0
LINE
8
BLACK
6
CONTINUOUS
10
-4.226587244094488
20
6.12023342519685
11
-4.2228377165354329
21
6.1183586614173224
0
LINE
8
BLACK
6
CONTINUOUS
10
-4.2228377165354329
20
6.1183586614173224
11
-4.2222677952755907
21
6.1179359448818893
0
LINE
8
BLACK
6
CONTINUOUS
10
-4.2222677952755907
20
6.1179359448818893
11
-4.2220331496062995
21
6.1180376377952754
0
LINE
8
BLACK
6
CONTINUOUS
10
-4.2220331496062995
20
6.1180376377952754
11
-4.2217292125984249
21
6.1183586614173224
0
LINE
8
BLACK
6
CONTINUOUS
10
-4.2217292125984249
20
6.1183586614173224
11
-4.2179796850393698
21
6.12023342519685
0
LINE
8
BLACK
6
CONTINUOUS
10
-4.2179796850393698
20
6.12023342519685
11
-4.2169967716535428
21
6.1205257874015748
0
LINE
8
BLACK
6
CONTINUOUS
10
-4.2169967716535428
20
6.1205257874015748
11
-4.2168250787401576
21
6.120484763779527
0
LINE
8
BLACK
6
CONTINUOUS
10
-4.2168250787401576
20
6.120484763779527
11
-4.2166591732283463
21
6.1205451574803149
0
LINE
8
BLACK
6
CONTINUOUS
10
-4.2166591732283463
20
6.1205451574803149
11
-4.2110348818897636
21
6.1205451574803149
0
LINE
8
BLACK
6
CONTINUOUS
10
-4.2110348818897636
20
6.1205451574803149
11
-4.2100249606299212
21
6.1203670866141735
0
LINE
8
BLACK
6
CONTINUOUS
10
-4.2100249606299212
20
6.1203670866141735
11
-4.2098897244094484
21
6.1202535826771651
0
LINE
8
BLACK
6
CONTINUOUS
10
-4.2098897244094484
20
6.1202535826771651
11
-4.2097143700787401
21
6.12023342519685
0
LINE
8
BLACK
6
CONTINUOUS
10
-4.2097143700787401
20
6.12023342519685
11
-4.2059648031496062
21
6.1183586614173224
0
LINE
8
BLACK
6
CONTINUOUS
10
-4.2059648031496062
20
6.1183586614173224
11
-4.205141141732283
21
6.117747755905512
0
LINE
8
BLACK
6
CONTINUOUS
10
-4.205141141732283
20
6.117747755905512
11
-4.2049653149606296
21
6.1173420472440947
0
LINE
8
BLACK
6
CONTINUOUS
10
-4.2049653149606296
20
6.1173420472440947
11
-4.2046442913385826
21
6.1170381496062989
0
LINE
8
BLACK
6
CONTINUOUS
10
-4.2046442913385826
20
6.1170381496062989
11
-4.2027695275590551
21
6.1132886220472438
0
LINE
8
BLACK
6
CONTINUOUS
10
-4.2027695275590551
20
6.1132886220472438
11
-4.2024771653543302
21
6.1123057086614168
0
LINE
8
BLACK
6
CONTINUOUS
10
-4.2024771653543302
20
6.1123057086614168
11
-4.2025181889763781
21
6.1121339763779527
0
LINE
8
BLACK
6
CONTINUOUS
10
-4.2025181889763781
20
6.1121339763779527
11
-4.2024577952755902
21
6.1119681102362202
0
LINE
8
BLACK
6
CONTINUOUS
10
-4.2024577952755902
20
6.1119681102362202
11
-4.2024577952755902
21
6.0913456692913384
0
LINE
8
BLACK
6
CONTINUOUS
10
-4.2024577952755902
20
6.0913456692913384
11
-4.2026358661417325
21
6.0903357480314959
0
LINE
8
BLACK
6
CONTINUOUS
10
-4.2026358661417325
20
6.0903357480314959
11
-4.2039341732283466
21
6.0887885039370078
0
LINE
8
BLACK
6
CONTINUOUS
10
-4.2039341732283466
20
6.0887885039370078
11
-4.2059233070866142
21
6.0884377559055114
0
LINE
8
BLACK
6
CONTINUOUS
10
-4.2059233070866142
20
6.0884377559055114
11
-4.2076724803149608
21
6.0894476771653538
0
LINE
8
BLACK
6
CONTINUOUS
10
-4.2076724803149608
20
6.0894476771653538
11
-4.2083633070866142
21
6.0913456692913384
0
LINE
8
BLACK
6
CONTINUOUS
10
-4.2083633070866142
20
6.0913456692913384
11
-4.2083633070866142
21
6.1112710629921256
0
LINE
8
BLACK
6
CONTINUOUS
10
-4.2083633070866142
20
6.1112710629921256
11
-4.2094861811023625
21
6.1135167716535435
0
LINE
8
BLACK
6
CONTINUOUS
10
-4.2094861811023625
20
6.1135167716535435
11
-4.2117319291338582
21
6.1146396456692909
0
LINE
8
BLACK
6
CONTINUOUS
10
-4.2117319291338582
20
6.1146396456692909
11
-4.2159621259842517
21
6.1146396456692909
0
LINE
8
BLACK
6
CONTINUOUS
10
-4.2159621259842517
20
6.1146396456692909
11
-4.2182078740157483
21
6.1135167716535435
0
LINE
8
BLACK
6
CONTINUOUS
10
-4.2182078740157483
20
6.1135167716535435
11
-4.2193307086614169
21
6.1112710629921256
0
LINE
8
BLACK
6
CONTINUOUS
10
-4.2193307086614169
20
6.1112710629921256
11
-4.2193307086614169
21
6.0913456692913384
0
LINE
8
BLACK
6
CONTINUOUS
10
-4.2193307086614169
20
6.0913456692913384
11
-4.2195087795275592
21
6.0903357480314959
0
LINE
8
BLACK
6
CONTINUOUS
10
-4.2195087795275592
20
6.0903357480314959
11
-4.2208070866141734
21
6.0887885039370078
0
LINE
8
BLACK
6
CONTINUOUS
10
-4.2208070866141734
20
6.0887885039370078
11
-4.222796220472441
21
6.0884377559055114
0
LINE
8
BLACK
6
CONTINUOUS
10
-4.222796220472441
20
6.0884377559055114
11
-4.2245453937007875
21
6.0894476771653538
0
LINE
8
BLACK
6
CONTINUOUS
10
-4.2245453937007875
20
6.0894476771653538
11
-4.225236220472441
21
6.0913456692913384
0
LINE
8
BLACK
6
CONTINUOUS
10
-4.225236220472441
20
6.0913456692913384
11
-4.225236220472441
21
6.1112710629921256
0
LINE
8
BLACK
6
CONTINUOUS
10
-4.225236220472441
20
6.1112710629921256
11
-4.2263590944881892
21
6.1135167716535435
0
LINE
8
BLACK
6
CONTINUOUS
10
-4.2263590944881892
20
6.1135167716535435
11
-4.2286048031496062
21
6.1146396456692909
0
LINE
8
BLACK
6
CONTINUOUS
10
-4.2286048031496062
20
6.1146396456692909
11
-4.2328349999999997
21
6.1146396456692909
0
LINE
8
BLACK
6
CONTINUOUS
10
-4.2328349999999997
20
6.1146396456692909
11
-4.2355324803149603
21
6.1132909055118105
0
LINE
8
BLACK
6
CONTINUOUS
10
-4.2355324803149603
20
6.1132909055118105
11
-4.2362035826771649
21
6.112619803149606
0
LINE
8
BLACK
6
CONTINUOUS
10
-4.2362035826771649
20
6.112619803149606
11
-4.2362035826771649
21
6.0913456692913384
0
LINE
8
BLACK
6
CONTINUOUS
10
-4.2362035826771649
20
6.0913456692913384
11
-4.2363816535433072
21
6.0903357480314959
0
LINE
8
BLACK
6
CONTINUOUS
10
-4.2363816535433072
20
6.0903357480314959
11
-4.2376799606299214
21
6.0887885039370078
0
LINE
8
BLACK
6
CONTINUOUS
10
-4.2376799606299214
20
6.0887885039370078
11
-4.239669094488189
21
6.0884377559055114
0
LINE
8
BLACK
6
CONTINUOUS
10
-4.239669094488189
20
6.0884377559055114
11
-4.2414182677165355
21
6.0894476771653538
0
LINE
8
BLACK
6
CONTINUOUS
10
-4.2414182677165355
20
6.0894476771653538
11
-4.242109094488189
21
6.0913456692913384
0
LINE
8
BLACK
6
CONTINUOUS
10
-4.242109094488189
20
6.0913456692913384
11
-4.242109094488189
21
6.1175924015748029
0
LINE
8
BLACK
6
CONTINUOUS
10
-4.242109094488189
20
6.1175924015748029
11
-4.2419310236220475
21
6.1186023228346453
0
LINE
8
BLACK
6
CONTINUOUS
10
-4.2419310236220475
20
6.1186023228346453
11
-4.2406327165354334
21
6.1201495669291335
0
LINE
8
BLACK
6
CONTINUOUS
10
-4.2406327165354334
20
6.1201495669291335
11
-4.2386435826771649
21
6.1205003149606299
0
LINE
8
BLACK
6
CONTINUOUS
10
-4.2386435826771649
20
6.1205003149606299
11
-4.2368944094488192
21
6.1194903937007874
0
LINE
8
BLACK
6
CONTINUOUS
10
-4.2368944094488192
20
6.1194903937007874
11
-4.2368088582677164
21
6.1192552755905512
0
LINE
8
BLACK
6
CONTINUOUS
10
-4.2368088582677164
20
6.1192552755905512
11
-4.2348525590551178
21
6.12023342519685
0
LINE
8
BLACK
6
CONTINUOUS
10
-4.2348525590551178
20
6.12023342519685
11
-4.2338696456692908
21
6.1205257874015748
0
LINE
8
BLACK
6
CONTINUOUS
10
-4.2338696456692908
20
6.1205257874015748
11
-4.2336979527559055
21
6.120484763779527
0
LINE
8
BLACK
6
CONTINUOUS
10
-4.2336979527559055
20
6.120484763779527
11
-4.2335320472440943
21
6.1205451574803149
0
LINE
8
BLACK
6
CONTINUOUS
10
-4.2335320472440943
20
6.1205451574803149
11
-4.2279077559055116
21
6.1205451574803149
0
LINE
8
BLACK
6
CONTINUOUS
10
-4.2279077559055116
20
6.1205451574803149
11
-4.2268978346456691
21
6.1203670866141735
  0
ENDSEC
  0
EOF
