  0
SECTION
  2
HEADER
  9
$ANGBASE
  50
0.0
  9
$ANGDIR
  70
1
  9
$MEASUREMENT
  70
0
  0
ENDSEC
  0
SECTION
  2
TABLES
  0
TABLE
  2
LTYPE
  70
4
  0
LTYPE
  5
40F
  2
CONTINUOUS
  70
0
  3
Solid line
  72
65
  73
0
  40
0.0
  0
LTYPE
  5
410
  2
DASHDOT
 70
0
  3
Dash Dot ____ _ ____ _
 72
65
 73
4
 40
2.0
 49
1.25
 49
-0.25
 49
0.25
 49
-0.25
  0
LTYPE
  5
411
  2
DASHED
 70
0
  3
Dashed __ __ __ __ __
 72
65
 73
2
 40
0.75
 49
0.5
 49
-0.25
  0
LTYPE
  5
43B
  2
DOTTED
 70
0
  3
Dotted .  .  .  .
 72
65
 73
2
 40
0.2
 49
0.0
 49
-0.2
  0
ENDTAB
  0
TABLE
  2
STYLE
  70
4
  0
STYLE
  2
KICAD
  70
0
  40
0
  41
1
  42
1
  50
0
  71
0
  3
isocp.shx
  0
STYLE
  2
KICADB
  70
0
  40
0
  41
1
  42
1
  50
0
  71
0
  3
isocp.shx
  0
STYLE
  2
KICADI
  70
0
  40
0
  41
1
  42
1
  50
15
  71
0
  3
isocp.shx
  0
STYLE
  2
KICADBI
  70
0
  40
0
  41
1
  42
1
  50
15
  71
0
  3
isocp.shx
  0
ENDTAB
  0
TABLE
  2
LAYER
  70
1
  0
LAYER
  2
BLACK
  70
0
  62
7
  6
CONTINUOUS
  0
ENDTAB
  0
ENDSEC
  0
SECTION
  2
ENTITIES
0
LINE
8
BLACK
6
CONTINUOUS
10
-4.37616
20
5.46767
11
-4.37361
21
5.46596
0
LINE
8
BLACK
6
CONTINUOUS
10
-4.37361
20
5.46596
11
-4.3719
21
5.46341
0
LINE
8
BLACK
6
CONTINUOUS
10
-4.3719
20
5.46341
11
-4.3713
21
5.46039
0
LINE
8
BLACK
6
CONTINUOUS
10
-4.3713
20
5.46039
11
-4.3713
21
5.44465
0
LINE
8
BLACK
6
CONTINUOUS
10
-4.3713
20
5.44465
11
-4.3719
21
5.44163
0
LINE
8
BLACK
6
CONTINUOUS
10
-4.3719
20
5.44163
11
-4.37361
21
5.43908
0
LINE
8
BLACK
6
CONTINUOUS
10
-4.37361
20
5.43908
11
-4.37616
21
5.43737
0
LINE
8
BLACK
6
CONTINUOUS
10
-4.37616
20
5.43737
11
-4.37917
21
5.43677
0
LINE
8
BLACK
6
CONTINUOUS
10
-4.37917
20
5.43677
11
-4.40083
21
5.43677
0
LINE
8
BLACK
6
CONTINUOUS
10
-4.40083
20
5.43677
11
-4.40384
21
5.43737
0
LINE
8
BLACK
6
CONTINUOUS
10
-4.40384
20
5.43737
11
-4.40639
21
5.43908
0
LINE
8
BLACK
6
CONTINUOUS
10
-4.40639
20
5.43908
11
-4.4081
21
5.44163
0
LINE
8
BLACK
6
CONTINUOUS
10
-4.4081
20
5.44163
11
-4.4087
21
5.44465
0
LINE
8
BLACK
6
CONTINUOUS
10
-4.4087
20
5.44465
11
-4.4087
21
5.46039
0
LINE
8
BLACK
6
CONTINUOUS
10
-4.4087
20
5.46039
11
-4.4081
21
5.46341
0
LINE
8
BLACK
6
CONTINUOUS
10
-4.4081
20
5.46341
11
-4.40639
21
5.46596
0
LINE
8
BLACK
6
CONTINUOUS
10
-4.40639
20
5.46596
11
-4.40384
21
5.46767
0
LINE
8
BLACK
6
CONTINUOUS
10
-4.40384
20
5.46767
11
-4.40083
21
5.46827
0
LINE
8
BLACK
6
CONTINUOUS
10
-4.40083
20
5.46827
11
-4.37917
21
5.46827
0
LINE
8
BLACK
6
CONTINUOUS
10
-4.37917
20
5.46827
11
-4.37616
21
5.46767
0
LINE
8
BLACK
6
CONTINUOUS
10
-4.29616
20
5.46767
11
-4.29361
21
5.46596
0
LINE
8
BLACK
6
CONTINUOUS
10
-4.29361
20
5.46596
11
-4.2919
21
5.46341
0
LINE
8
BLACK
6
CONTINUOUS
10
-4.2919
20
5.46341
11
-4.2913
21
5.46039
0
LINE
8
BLACK
6
CONTINUOUS
10
-4.2913
20
5.46039
11
-4.2913
21
5.44465
0
LINE
8
BLACK
6
CONTINUOUS
10
-4.2913
20
5.44465
11
-4.2919
21
5.44163
0
LINE
8
BLACK
6
CONTINUOUS
10
-4.2919
20
5.44163
11
-4.29361
21
5.43908
0
LINE
8
BLACK
6
CONTINUOUS
10
-4.29361
20
5.43908
11
-4.29616
21
5.43737
0
LINE
8
BLACK
6
CONTINUOUS
10
-4.29616
20
5.43737
11
-4.29917
21
5.43677
0
LINE
8
BLACK
6
CONTINUOUS
10
-4.29917
20
5.43677
11
-4.32083
21
5.43677
0
LINE
8
BLACK
6
CONTINUOUS
10
-4.32083
20
5.43677
11
-4.32384
21
5.43737
0
LINE
8
BLACK
6
CONTINUOUS
10
-4.32384
20
5.43737
11
-4.32639
21
5.43908
0
LINE
8
BLACK
6
CONTINUOUS
10
-4.32639
20
5.43908
11
-4.3281
21
5.44163
0
LINE
8
BLACK
6
CONTINUOUS
10
-4.3281
20
5.44163
11
-4.3287
21
5.44465
0
LINE
8
BLACK
6
CONTINUOUS
10
-4.3287
20
5.44465
11
-4.3287
21
5.46039
0
LINE
8
BLACK
6
CONTINUOUS
10
-4.3287
20
5.46039
11
-4.3281
21
5.46341
0
LINE
8
BLACK
6
CONTINUOUS
10
-4.3281
20
5.46341
11
-4.32639
21
5.46596
0
LINE
8
BLACK
6
CONTINUOUS
10
-4.32639
20
5.46596
11
-4.32384
21
5.46767
0
LINE
8
BLACK
6
CONTINUOUS
10
-4.32384
20
5.46767
11
-4.32083
21
5.46827
0
LINE
8
BLACK
6
CONTINUOUS
10
-4.32083
20
5.46827
11
-4.29917
21
5.46827
0
LINE
8
BLACK
6
CONTINUOUS
10
-4.29917
20
5.46827
11
-4.29616
21
5.46767
0
LINE
8
BLACK
6
CONTINUOUS
10
-4.70566
20
5.49777
11
-4.70354
21
5.49635
0
LINE
8
BLACK
6
CONTINUOUS
10
-4.70354
20
5.49635
11
-4.70211
21
5.49422
0
LINE
8
BLACK
6
CONTINUOUS
10
-4.70211
20
5.49422
11
-4.70161
21
5.49171
0
LINE
8
BLACK
6
CONTINUOUS
10
-4.70161
20
5.49171
11
-4.70161
21
5.44577
0
LINE
8
BLACK
6
CONTINUOUS
10
-4.70161
20
5.44577
11
-4.70211
21
5.44326
0
LINE
8
BLACK
6
CONTINUOUS
10
-4.70211
20
5.44326
11
-4.70354
21
5.44113
0
LINE
8
BLACK
6
CONTINUOUS
10
-4.70354
20
5.44113
11
-4.70566
21
5.43971
0
LINE
8
BLACK
6
CONTINUOUS
10
-4.70566
20
5.43971
11
-4.70818
21
5.43921
0
LINE
8
BLACK
6
CONTINUOUS
10
-4.70818
20
5.43921
11
-4.74427
21
5.43921
0
LINE
8
BLACK
6
CONTINUOUS
10
-4.74427
20
5.43921
11
-4.74678
21
5.43971
0
LINE
8
BLACK
6
CONTINUOUS
10
-4.74678
20
5.43971
11
-4.7489
21
5.44113
0
LINE
8
BLACK
6
CONTINUOUS
10
-4.7489
20
5.44113
11
-4.75033
21
5.44326
0
LINE
8
BLACK
6
CONTINUOUS
10
-4.75033
20
5.44326
11
-4.75083
21
5.44577
0
LINE
8
BLACK
6
CONTINUOUS
10
-4.75083
20
5.44577
11
-4.75083
21
5.49171
0
LINE
8
BLACK
6
CONTINUOUS
10
-4.75083
20
5.49171
11
-4.75033
21
5.49422
0
LINE
8
BLACK
6
CONTINUOUS
10
-4.75033
20
5.49422
11
-4.7489
21
5.49635
0
LINE
8
BLACK
6
CONTINUOUS
10
-4.7489
20
5.49635
11
-4.74678
21
5.49777
0
LINE
8
BLACK
6
CONTINUOUS
10
-4.74678
20
5.49777
11
-4.74427
21
5.49827
0
LINE
8
BLACK
6
CONTINUOUS
10
-4.74427
20
5.49827
11
-4.70818
21
5.49827
0
LINE
8
BLACK
6
CONTINUOUS
10
-4.70818
20
5.49827
11
-4.70566
21
5.49777
0
LINE
8
BLACK
6
CONTINUOUS
10
-4.56393
20
5.49777
11
-4.5618
21
5.49635
0
LINE
8
BLACK
6
CONTINUOUS
10
-4.5618
20
5.49635
11
-4.56038
21
5.49422
0
LINE
8
BLACK
6
CONTINUOUS
10
-4.56038
20
5.49422
11
-4.55988
21
5.49171
0
LINE
8
BLACK
6
CONTINUOUS
10
-4.55988
20
5.49171
11
-4.55988
21
5.44577
0
LINE
8
BLACK
6
CONTINUOUS
10
-4.55988
20
5.44577
11
-4.56038
21
5.44326
0
LINE
8
BLACK
6
CONTINUOUS
10
-4.56038
20
5.44326
11
-4.5618
21
5.44113
0
LINE
8
BLACK
6
CONTINUOUS
10
-4.5618
20
5.44113
11
-4.56393
21
5.43971
0
LINE
8
BLACK
6
CONTINUOUS
10
-4.56393
20
5.43971
11
-4.56644
21
5.43921
0
LINE
8
BLACK
6
CONTINUOUS
10
-4.56644
20
5.43921
11
-4.60253
21
5.43921
0
LINE
8
BLACK
6
CONTINUOUS
10
-4.60253
20
5.43921
11
-4.60504
21
5.43971
0
LINE
8
BLACK
6
CONTINUOUS
10
-4.60504
20
5.43971
11
-4.60717
21
5.44113
0
LINE
8
BLACK
6
CONTINUOUS
10
-4.60717
20
5.44113
11
-4.6086
21
5.44326
0
LINE
8
BLACK
6
CONTINUOUS
10
-4.6086
20
5.44326
11
-4.60909
21
5.44577
0
LINE
8
BLACK
6
CONTINUOUS
10
-4.60909
20
5.44577
11
-4.60909
21
5.49171
0
LINE
8
BLACK
6
CONTINUOUS
10
-4.60909
20
5.49171
11
-4.6086
21
5.49422
0
LINE
8
BLACK
6
CONTINUOUS
10
-4.6086
20
5.49422
11
-4.60717
21
5.49635
0
LINE
8
BLACK
6
CONTINUOUS
10
-4.60717
20
5.49635
11
-4.60504
21
5.49777
0
LINE
8
BLACK
6
CONTINUOUS
10
-4.60504
20
5.49777
11
-4.60253
21
5.49827
0
LINE
8
BLACK
6
CONTINUOUS
10
-4.60253
20
5.49827
11
-4.56644
21
5.49827
0
LINE
8
BLACK
6
CONTINUOUS
10
-4.56644
20
5.49827
11
-4.56393
21
5.49777
0
LINE
8
BLACK
6
CONTINUOUS
10
-4.51159
20
5.5081
11
-4.50904
21
5.50639
0
LINE
8
BLACK
6
CONTINUOUS
10
-4.50904
20
5.50639
11
-4.50733
21
5.50384
0
LINE
8
BLACK
6
CONTINUOUS
10
-4.50733
20
5.50384
11
-4.50673
21
5.50083
0
LINE
8
BLACK
6
CONTINUOUS
10
-4.50673
20
5.50083
11
-4.50673
21
5.47917
0
LINE
8
BLACK
6
CONTINUOUS
10
-4.50673
20
5.47917
11
-4.50733
21
5.47616
0
LINE
8
BLACK
6
CONTINUOUS
10
-4.50733
20
5.47616
11
-4.50904
21
5.47361
0
LINE
8
BLACK
6
CONTINUOUS
10
-4.50904
20
5.47361
11
-4.51159
21
5.4719
0
LINE
8
BLACK
6
CONTINUOUS
10
-4.51159
20
5.4719
11
-4.51461
21
5.4713
0
LINE
8
BLACK
6
CONTINUOUS
10
-4.51461
20
5.4713
11
-4.53035
21
5.4713
0
LINE
8
BLACK
6
CONTINUOUS
10
-4.53035
20
5.4713
11
-4.53337
21
5.4719
0
LINE
8
BLACK
6
CONTINUOUS
10
-4.53337
20
5.4719
11
-4.53592
21
5.47361
0
LINE
8
BLACK
6
CONTINUOUS
10
-4.53592
20
5.47361
11
-4.53763
21
5.47616
0
LINE
8
BLACK
6
CONTINUOUS
10
-4.53763
20
5.47616
11
-4.53823
21
5.47917
0
LINE
8
BLACK
6
CONTINUOUS
10
-4.53823
20
5.47917
11
-4.53823
21
5.50083
0
LINE
8
BLACK
6
CONTINUOUS
10
-4.53823
20
5.50083
11
-4.53763
21
5.50384
0
LINE
8
BLACK
6
CONTINUOUS
10
-4.53763
20
5.50384
11
-4.53592
21
5.50639
0
LINE
8
BLACK
6
CONTINUOUS
10
-4.53592
20
5.50639
11
-4.53337
21
5.5081
0
LINE
8
BLACK
6
CONTINUOUS
10
-4.53337
20
5.5081
11
-4.53035
21
5.5087
0
LINE
8
BLACK
6
CONTINUOUS
10
-4.53035
20
5.5087
11
-4.51461
21
5.5087
0
LINE
8
BLACK
6
CONTINUOUS
10
-4.51461
20
5.5087
11
-4.51159
21
5.5081
0
LINE
8
BLACK
6
CONTINUOUS
10
-4.44663
20
5.5081
11
-4.44408
21
5.50639
0
LINE
8
BLACK
6
CONTINUOUS
10
-4.44408
20
5.50639
11
-4.44237
21
5.50384
0
LINE
8
BLACK
6
CONTINUOUS
10
-4.44237
20
5.50384
11
-4.44177
21
5.50083
0
LINE
8
BLACK
6
CONTINUOUS
10
-4.44177
20
5.50083
11
-4.44177
21
5.47917
0
LINE
8
BLACK
6
CONTINUOUS
10
-4.44177
20
5.47917
11
-4.44237
21
5.47616
0
LINE
8
BLACK
6
CONTINUOUS
10
-4.44237
20
5.47616
11
-4.44408
21
5.47361
0
LINE
8
BLACK
6
CONTINUOUS
10
-4.44408
20
5.47361
11
-4.44663
21
5.4719
0
LINE
8
BLACK
6
CONTINUOUS
10
-4.44663
20
5.4719
11
-4.44965
21
5.4713
0
LINE
8
BLACK
6
CONTINUOUS
10
-4.44965
20
5.4713
11
-4.46539
21
5.4713
0
LINE
8
BLACK
6
CONTINUOUS
10
-4.46539
20
5.4713
11
-4.46841
21
5.4719
0
LINE
8
BLACK
6
CONTINUOUS
10
-4.46841
20
5.4719
11
-4.47096
21
5.47361
0
LINE
8
BLACK
6
CONTINUOUS
10
-4.47096
20
5.47361
11
-4.47267
21
5.47616
0
LINE
8
BLACK
6
CONTINUOUS
10
-4.47267
20
5.47616
11
-4.47327
21
5.47917
0
LINE
8
BLACK
6
CONTINUOUS
10
-4.47327
20
5.47917
11
-4.47327
21
5.50083
0
LINE
8
BLACK
6
CONTINUOUS
10
-4.47327
20
5.50083
11
-4.47267
21
5.50384
0
LINE
8
BLACK
6
CONTINUOUS
10
-4.47267
20
5.50384
11
-4.47096
21
5.50639
0
LINE
8
BLACK
6
CONTINUOUS
10
-4.47096
20
5.50639
11
-4.46841
21
5.5081
0
LINE
8
BLACK
6
CONTINUOUS
10
-4.46841
20
5.5081
11
-4.46539
21
5.5087
0
LINE
8
BLACK
6
CONTINUOUS
10
-4.46539
20
5.5087
11
-4.44965
21
5.5087
0
LINE
8
BLACK
6
CONTINUOUS
10
-4.44965
20
5.5087
11
-4.44663
21
5.5081
0
LINE
8
BLACK
6
CONTINUOUS
10
-4.37616
20
5.53263
11
-4.37361
21
5.53092
0
LINE
8
BLACK
6
CONTINUOUS
10
-4.37361
20
5.53092
11
-4.3719
21
5.52837
0
LINE
8
BLACK
6
CONTINUOUS
10
-4.3719
20
5.52837
11
-4.3713
21
5.52535
0
LINE
8
BLACK
6
CONTINUOUS
10
-4.3713
20
5.52535
11
-4.3713
21
5.50961
0
LINE
8
BLACK
6
CONTINUOUS
10
-4.3713
20
5.50961
11
-4.3719
21
5.50659
0
LINE
8
BLACK
6
CONTINUOUS
10
-4.3719
20
5.50659
11
-4.37361
21
5.50404
0
LINE
8
BLACK
6
CONTINUOUS
10
-4.37361
20
5.50404
11
-4.37616
21
5.50233
0
LINE
8
BLACK
6
CONTINUOUS
10
-4.37616
20
5.50233
11
-4.37917
21
5.50173
0
LINE
8
BLACK
6
CONTINUOUS
10
-4.37917
20
5.50173
11
-4.40083
21
5.50173
0
LINE
8
BLACK
6
CONTINUOUS
10
-4.40083
20
5.50173
11
-4.40384
21
5.50233
0
LINE
8
BLACK
6
CONTINUOUS
10
-4.40384
20
5.50233
11
-4.40639
21
5.50404
0
LINE
8
BLACK
6
CONTINUOUS
10
-4.40639
20
5.50404
11
-4.4081
21
5.50659
0
LINE
8
BLACK
6
CONTINUOUS
10
-4.4081
20
5.50659
11
-4.4087
21
5.50961
0
LINE
8
BLACK
6
CONTINUOUS
10
-4.4087
20
5.50961
11
-4.4087
21
5.52535
0
LINE
8
BLACK
6
CONTINUOUS
10
-4.4087
20
5.52535
11
-4.4081
21
5.52837
0
LINE
8
BLACK
6
CONTINUOUS
10
-4.4081
20
5.52837
11
-4.40639
21
5.53092
0
LINE
8
BLACK
6
CONTINUOUS
10
-4.40639
20
5.53092
11
-4.40384
21
5.53263
0
LINE
8
BLACK
6
CONTINUOUS
10
-4.40384
20
5.53263
11
-4.40083
21
5.53323
0
LINE
8
BLACK
6
CONTINUOUS
10
-4.40083
20
5.53323
11
-4.37917
21
5.53323
0
LINE
8
BLACK
6
CONTINUOUS
10
-4.37917
20
5.53323
11
-4.37616
21
5.53263
0
LINE
8
BLACK
6
CONTINUOUS
10
-4.29616
20
5.53263
11
-4.29361
21
5.53092
0
LINE
8
BLACK
6
CONTINUOUS
10
-4.29361
20
5.53092
11
-4.2919
21
5.52837
0
LINE
8
BLACK
6
CONTINUOUS
10
-4.2919
20
5.52837
11
-4.2913
21
5.52535
0
LINE
8
BLACK
6
CONTINUOUS
10
-4.2913
20
5.52535
11
-4.2913
21
5.50961
0
LINE
8
BLACK
6
CONTINUOUS
10
-4.2913
20
5.50961
11
-4.2919
21
5.50659
0
LINE
8
BLACK
6
CONTINUOUS
10
-4.2919
20
5.50659
11
-4.29361
21
5.50404
0
LINE
8
BLACK
6
CONTINUOUS
10
-4.29361
20
5.50404
11
-4.29616
21
5.50233
0
LINE
8
BLACK
6
CONTINUOUS
10
-4.29616
20
5.50233
11
-4.29917
21
5.50173
0
LINE
8
BLACK
6
CONTINUOUS
10
-4.29917
20
5.50173
11
-4.32083
21
5.50173
0
LINE
8
BLACK
6
CONTINUOUS
10
-4.32083
20
5.50173
11
-4.32384
21
5.50233
0
LINE
8
BLACK
6
CONTINUOUS
10
-4.32384
20
5.50233
11
-4.32639
21
5.50404
0
LINE
8
BLACK
6
CONTINUOUS
10
-4.32639
20
5.50404
11
-4.3281
21
5.50659
0
LINE
8
BLACK
6
CONTINUOUS
10
-4.3281
20
5.50659
11
-4.3287
21
5.50961
0
LINE
8
BLACK
6
CONTINUOUS
10
-4.3287
20
5.50961
11
-4.3287
21
5.52535
0
LINE
8
BLACK
6
CONTINUOUS
10
-4.3287
20
5.52535
11
-4.3281
21
5.52837
0
LINE
8
BLACK
6
CONTINUOUS
10
-4.3281
20
5.52837
11
-4.32639
21
5.53092
0
LINE
8
BLACK
6
CONTINUOUS
10
-4.32639
20
5.53092
11
-4.32384
21
5.53263
0
LINE
8
BLACK
6
CONTINUOUS
10
-4.32384
20
5.53263
11
-4.32083
21
5.53323
0
LINE
8
BLACK
6
CONTINUOUS
10
-4.32083
20
5.53323
11
-4.29917
21
5.53323
0
LINE
8
BLACK
6
CONTINUOUS
10
-4.29917
20
5.53323
11
-4.29616
21
5.53263
0
LINE
8
BLACK
6
CONTINUOUS
10
-4.88584
20
5.55756
11
-4.88265
21
5.55542
0
LINE
8
BLACK
6
CONTINUOUS
10
-4.88265
20
5.55542
11
-4.88051
21
5.55223
0
LINE
8
BLACK
6
CONTINUOUS
10
-4.88051
20
5.55223
11
-4.87976
21
5.54846
0
LINE
8
BLACK
6
CONTINUOUS
10
-4.87976
20
5.54846
11
-4.87976
21
5.52878
0
LINE
8
BLACK
6
CONTINUOUS
10
-4.87976
20
5.52878
11
-4.88051
21
5.52501
0
LINE
8
BLACK
6
CONTINUOUS
10
-4.88051
20
5.52501
11
-4.88265
21
5.52182
0
LINE
8
BLACK
6
CONTINUOUS
10
-4.88265
20
5.52182
11
-4.88584
21
5.51969
0
LINE
8
BLACK
6
CONTINUOUS
10
-4.88584
20
5.51969
11
-4.88961
21
5.51894
0
LINE
8
BLACK
6
CONTINUOUS
10
-4.88961
20
5.51894
11
-4.97622
21
5.51894
0
LINE
8
BLACK
6
CONTINUOUS
10
-4.97622
20
5.51894
11
-4.97999
21
5.51969
0
LINE
8
BLACK
6
CONTINUOUS
10
-4.97999
20
5.51969
11
-4.98318
21
5.52182
0
LINE
8
BLACK
6
CONTINUOUS
10
-4.98318
20
5.52182
11
-4.98531
21
5.52501
0
LINE
8
BLACK
6
CONTINUOUS
10
-4.98531
20
5.52501
11
-4.98606
21
5.52878
0
LINE
8
BLACK
6
CONTINUOUS
10
-4.98606
20
5.52878
11
-4.98606
21
5.54846
0
LINE
8
BLACK
6
CONTINUOUS
10
-4.98606
20
5.54846
11
-4.98531
21
5.55223
0
LINE
8
BLACK
6
CONTINUOUS
10
-4.98531
20
5.55223
11
-4.98318
21
5.55542
0
LINE
8
BLACK
6
CONTINUOUS
10
-4.98318
20
5.55542
11
-4.97999
21
5.55756
0
LINE
8
BLACK
6
CONTINUOUS
10
-4.97999
20
5.55756
11
-4.97622
21
5.55831
0
LINE
8
BLACK
6
CONTINUOUS
10
-4.97622
20
5.55831
11
-4.88961
21
5.55831
0
LINE
8
BLACK
6
CONTINUOUS
10
-4.88961
20
5.55831
11
-4.88584
21
5.55756
0
LINE
8
BLACK
6
CONTINUOUS
10
-4.01576
20
5.55756
11
-4.01257
21
5.55542
0
LINE
8
BLACK
6
CONTINUOUS
10
-4.01257
20
5.55542
11
-4.01043
21
5.55223
0
LINE
8
BLACK
6
CONTINUOUS
10
-4.01043
20
5.55223
11
-4.00969
21
5.54846
0
LINE
8
BLACK
6
CONTINUOUS
10
-4.00969
20
5.54846
11
-4.00969
21
5.52878
0
LINE
8
BLACK
6
CONTINUOUS
10
-4.00969
20
5.52878
11
-4.01043
21
5.52501
0
LINE
8
BLACK
6
CONTINUOUS
10
-4.01043
20
5.52501
11
-4.01257
21
5.52182
0
LINE
8
BLACK
6
CONTINUOUS
10
-4.01257
20
5.52182
11
-4.01576
21
5.51969
0
LINE
8
BLACK
6
CONTINUOUS
10
-4.01576
20
5.51969
11
-4.01953
21
5.51894
0
LINE
8
BLACK
6
CONTINUOUS
10
-4.01953
20
5.51894
11
-4.10614
21
5.51894
0
LINE
8
BLACK
6
CONTINUOUS
10
-4.10614
20
5.51894
11
-4.10991
21
5.51969
0
LINE
8
BLACK
6
CONTINUOUS
10
-4.10991
20
5.51969
11
-4.1131
21
5.52182
0
LINE
8
BLACK
6
CONTINUOUS
10
-4.1131
20
5.52182
11
-4.11524
21
5.52501
0
LINE
8
BLACK
6
CONTINUOUS
10
-4.11524
20
5.52501
11
-4.11598
21
5.52878
0
LINE
8
BLACK
6
CONTINUOUS
10
-4.11598
20
5.52878
11
-4.11598
21
5.54846
0
LINE
8
BLACK
6
CONTINUOUS
10
-4.11598
20
5.54846
11
-4.11524
21
5.55223
0
LINE
8
BLACK
6
CONTINUOUS
10
-4.11524
20
5.55223
11
-4.1131
21
5.55542
0
LINE
8
BLACK
6
CONTINUOUS
10
-4.1131
20
5.55542
11
-4.10991
21
5.55756
0
LINE
8
BLACK
6
CONTINUOUS
10
-4.10991
20
5.55756
11
-4.10614
21
5.55831
0
LINE
8
BLACK
6
CONTINUOUS
10
-4.10614
20
5.55831
11
-4.01953
21
5.55831
0
LINE
8
BLACK
6
CONTINUOUS
10
-4.01953
20
5.55831
11
-4.01576
21
5.55756
0
LINE
8
BLACK
6
CONTINUOUS
10
-4.53616
20
5.58367
11
-4.53361
21
5.58197
0
LINE
8
BLACK
6
CONTINUOUS
10
-4.53361
20
5.58197
11
-4.5319
21
5.57941
0
LINE
8
BLACK
6
CONTINUOUS
10
-4.5319
20
5.57941
11
-4.5313
21
5.5764
0
LINE
8
BLACK
6
CONTINUOUS
10
-4.5313
20
5.5764
11
-4.5313
21
5.56065
0
LINE
8
BLACK
6
CONTINUOUS
10
-4.5313
20
5.56065
11
-4.5319
21
5.55764
0
LINE
8
BLACK
6
CONTINUOUS
10
-4.5319
20
5.55764
11
-4.53361
21
5.55508
0
LINE
8
BLACK
6
CONTINUOUS
10
-4.53361
20
5.55508
11
-4.53616
21
5.55337
0
LINE
8
BLACK
6
CONTINUOUS
10
-4.53616
20
5.55337
11
-4.53917
21
5.55278
0
LINE
8
BLACK
6
CONTINUOUS
10
-4.53917
20
5.55278
11
-4.56083
21
5.55278
0
LINE
8
BLACK
6
CONTINUOUS
10
-4.56083
20
5.55278
11
-4.56384
21
5.55337
0
LINE
8
BLACK
6
CONTINUOUS
10
-4.56384
20
5.55337
11
-4.56639
21
5.55508
0
LINE
8
BLACK
6
CONTINUOUS
10
-4.56639
20
5.55508
11
-4.5681
21
5.55764
0
LINE
8
BLACK
6
CONTINUOUS
10
-4.5681
20
5.55764
11
-4.5687
21
5.56065
0
LINE
8
BLACK
6
CONTINUOUS
10
-4.5687
20
5.56065
11
-4.5687
21
5.5764
0
LINE
8
BLACK
6
CONTINUOUS
10
-4.5687
20
5.5764
11
-4.5681
21
5.57941
0
LINE
8
BLACK
6
CONTINUOUS
10
-4.5681
20
5.57941
11
-4.56639
21
5.58197
0
LINE
8
BLACK
6
CONTINUOUS
10
-4.56639
20
5.58197
11
-4.56384
21
5.58367
0
LINE
8
BLACK
6
CONTINUOUS
10
-4.56384
20
5.58367
11
-4.56083
21
5.58427
0
LINE
8
BLACK
6
CONTINUOUS
10
-4.56083
20
5.58427
11
-4.53917
21
5.58427
0
LINE
8
BLACK
6
CONTINUOUS
10
-4.53917
20
5.58427
11
-4.53616
21
5.58367
0
LINE
8
BLACK
6
CONTINUOUS
10
-4.68424
20
5.61085
11
-4.68232
21
5.60957
0
LINE
8
BLACK
6
CONTINUOUS
10
-4.68232
20
5.60957
11
-4.68104
21
5.60765
0
LINE
8
BLACK
6
CONTINUOUS
10
-4.68104
20
5.60765
11
-4.68059
21
5.60539
0
LINE
8
BLACK
6
CONTINUOUS
10
-4.68059
20
5.60539
11
-4.68059
21
5.56504
0
LINE
8
BLACK
6
CONTINUOUS
10
-4.68059
20
5.56504
11
-4.68104
21
5.56278
0
LINE
8
BLACK
6
CONTINUOUS
10
-4.68104
20
5.56278
11
-4.68232
21
5.56086
0
LINE
8
BLACK
6
CONTINUOUS
10
-4.68232
20
5.56086
11
-4.68424
21
5.55958
0
LINE
8
BLACK
6
CONTINUOUS
10
-4.68424
20
5.55958
11
-4.6865
21
5.55913
0
LINE
8
BLACK
6
CONTINUOUS
10
-4.6865
20
5.55913
11
-4.69831
21
5.55913
0
LINE
8
BLACK
6
CONTINUOUS
10
-4.69831
20
5.55913
11
-4.70057
21
5.55958
0
LINE
8
BLACK
6
CONTINUOUS
10
-4.70057
20
5.55958
11
-4.70248
21
5.56086
0
LINE
8
BLACK
6
CONTINUOUS
10
-4.70248
20
5.56086
11
-4.70376
21
5.56278
0
LINE
8
BLACK
6
CONTINUOUS
10
-4.70376
20
5.56278
11
-4.70421
21
5.56504
0
LINE
8
BLACK
6
CONTINUOUS
10
-4.70421
20
5.56504
11
-4.70421
21
5.60539
0
LINE
8
BLACK
6
CONTINUOUS
10
-4.70421
20
5.60539
11
-4.70376
21
5.60765
0
LINE
8
BLACK
6
CONTINUOUS
10
-4.70376
20
5.60765
11
-4.70248
21
5.60957
0
LINE
8
BLACK
6
CONTINUOUS
10
-4.70248
20
5.60957
11
-4.70057
21
5.61085
0
LINE
8
BLACK
6
CONTINUOUS
10
-4.70057
20
5.61085
11
-4.69831
21
5.6113
0
LINE
8
BLACK
6
CONTINUOUS
10
-4.69831
20
5.6113
11
-4.6865
21
5.6113
0
LINE
8
BLACK
6
CONTINUOUS
10
-4.6865
20
5.6113
11
-4.68424
21
5.61085
0
LINE
8
BLACK
6
CONTINUOUS
10
-4.64683
20
5.61085
11
-4.64492
21
5.60957
0
LINE
8
BLACK
6
CONTINUOUS
10
-4.64492
20
5.60957
11
-4.64364
21
5.60765
0
LINE
8
BLACK
6
CONTINUOUS
10
-4.64364
20
5.60765
11
-4.64319
21
5.60539
0
LINE
8
BLACK
6
CONTINUOUS
10
-4.64319
20
5.60539
11
-4.64319
21
5.56504
0
LINE
8
BLACK
6
CONTINUOUS
10
-4.64319
20
5.56504
11
-4.64364
21
5.56278
0
LINE
8
BLACK
6
CONTINUOUS
10
-4.64364
20
5.56278
11
-4.64492
21
5.56086
0
LINE
8
BLACK
6
CONTINUOUS
10
-4.64492
20
5.56086
11
-4.64683
21
5.55958
0
LINE
8
BLACK
6
CONTINUOUS
10
-4.64683
20
5.55958
11
-4.64909
21
5.55913
0
LINE
8
BLACK
6
CONTINUOUS
10
-4.64909
20
5.55913
11
-4.66091
21
5.55913
0
LINE
8
BLACK
6
CONTINUOUS
10
-4.66091
20
5.55913
11
-4.66317
21
5.55958
0
LINE
8
BLACK
6
CONTINUOUS
10
-4.66317
20
5.55958
11
-4.66508
21
5.56086
0
LINE
8
BLACK
6
CONTINUOUS
10
-4.66508
20
5.56086
11
-4.66636
21
5.56278
0
LINE
8
BLACK
6
CONTINUOUS
10
-4.66636
20
5.56278
11
-4.66681
21
5.56504
0
LINE
8
BLACK
6
CONTINUOUS
10
-4.66681
20
5.56504
11
-4.66681
21
5.60539
0
LINE
8
BLACK
6
CONTINUOUS
10
-4.66681
20
5.60539
11
-4.66636
21
5.60765
0
LINE
8
BLACK
6
CONTINUOUS
10
-4.66636
20
5.60765
11
-4.66508
21
5.60957
0
LINE
8
BLACK
6
CONTINUOUS
10
-4.66508
20
5.60957
11
-4.66317
21
5.61085
0
LINE
8
BLACK
6
CONTINUOUS
10
-4.66317
20
5.61085
11
-4.66091
21
5.6113
0
LINE
8
BLACK
6
CONTINUOUS
10
-4.66091
20
5.6113
11
-4.64909
21
5.6113
0
LINE
8
BLACK
6
CONTINUOUS
10
-4.64909
20
5.6113
11
-4.64683
21
5.61085
0
LINE
8
BLACK
6
CONTINUOUS
10
-4.60943
20
5.61085
11
-4.60752
21
5.60957
0
LINE
8
BLACK
6
CONTINUOUS
10
-4.60752
20
5.60957
11
-4.60624
21
5.60765
0
LINE
8
BLACK
6
CONTINUOUS
10
-4.60624
20
5.60765
11
-4.60579
21
5.60539
0
LINE
8
BLACK
6
CONTINUOUS
10
-4.60579
20
5.60539
11
-4.60579
21
5.56504
0
LINE
8
BLACK
6
CONTINUOUS
10
-4.60579
20
5.56504
11
-4.60624
21
5.56278
0
LINE
8
BLACK
6
CONTINUOUS
10
-4.60624
20
5.56278
11
-4.60752
21
5.56086
0
LINE
8
BLACK
6
CONTINUOUS
10
-4.60752
20
5.56086
11
-4.60943
21
5.55958
0
LINE
8
BLACK
6
CONTINUOUS
10
-4.60943
20
5.55958
11
-4.61169
21
5.55913
0
LINE
8
BLACK
6
CONTINUOUS
10
-4.61169
20
5.55913
11
-4.6235
21
5.55913
0
LINE
8
BLACK
6
CONTINUOUS
10
-4.6235
20
5.55913
11
-4.62576
21
5.55958
0
LINE
8
BLACK
6
CONTINUOUS
10
-4.62576
20
5.55958
11
-4.62768
21
5.56086
0
LINE
8
BLACK
6
CONTINUOUS
10
-4.62768
20
5.56086
11
-4.62896
21
5.56278
0
LINE
8
BLACK
6
CONTINUOUS
10
-4.62896
20
5.56278
11
-4.62941
21
5.56504
0
LINE
8
BLACK
6
CONTINUOUS
10
-4.62941
20
5.56504
11
-4.62941
21
5.60539
0
LINE
8
BLACK
6
CONTINUOUS
10
-4.62941
20
5.60539
11
-4.62896
21
5.60765
0
LINE
8
BLACK
6
CONTINUOUS
10
-4.62896
20
5.60765
11
-4.62768
21
5.60957
0
LINE
8
BLACK
6
CONTINUOUS
10
-4.62768
20
5.60957
11
-4.62576
21
5.61085
0
LINE
8
BLACK
6
CONTINUOUS
10
-4.62576
20
5.61085
11
-4.6235
21
5.6113
0
LINE
8
BLACK
6
CONTINUOUS
10
-4.6235
20
5.6113
11
-4.61169
21
5.6113
0
LINE
8
BLACK
6
CONTINUOUS
10
-4.61169
20
5.6113
11
-4.60943
21
5.61085
0
LINE
8
BLACK
6
CONTINUOUS
10
-4.43953
20
5.57012
11
-4.45724
21
5.57012
0
LINE
8
BLACK
6
CONTINUOUS
10
-4.45724
20
5.57012
11
-4.45724
21
5.6272
0
LINE
8
BLACK
6
CONTINUOUS
10
-4.45724
20
5.6272
11
-4.43953
21
5.6272
0
LINE
8
BLACK
6
CONTINUOUS
10
-4.43953
20
5.6272
11
-4.43953
21
5.57012
0
LINE
8
BLACK
6
CONTINUOUS
10
-4.41394
20
5.57012
11
-4.43165
21
5.57012
0
LINE
8
BLACK
6
CONTINUOUS
10
-4.43165
20
5.57012
11
-4.43165
21
5.6272
0
LINE
8
BLACK
6
CONTINUOUS
10
-4.43165
20
5.6272
11
-4.41394
21
5.6272
0
LINE
8
BLACK
6
CONTINUOUS
10
-4.41394
20
5.6272
11
-4.41394
21
5.57012
0
LINE
8
BLACK
6
CONTINUOUS
10
-4.38835
20
5.57012
11
-4.40606
21
5.57012
0
LINE
8
BLACK
6
CONTINUOUS
10
-4.40606
20
5.57012
11
-4.40606
21
5.6272
0
LINE
8
BLACK
6
CONTINUOUS
10
-4.40606
20
5.6272
11
-4.38835
21
5.6272
0
LINE
8
BLACK
6
CONTINUOUS
10
-4.38835
20
5.6272
11
-4.38835
21
5.57012
0
LINE
8
BLACK
6
CONTINUOUS
10
-4.36276
20
5.57012
11
-4.38047
21
5.57012
0
LINE
8
BLACK
6
CONTINUOUS
10
-4.38047
20
5.57012
11
-4.38047
21
5.6272
0
LINE
8
BLACK
6
CONTINUOUS
10
-4.38047
20
5.6272
11
-4.36276
21
5.6272
0
LINE
8
BLACK
6
CONTINUOUS
10
-4.36276
20
5.6272
11
-4.36276
21
5.57012
0
LINE
8
BLACK
6
CONTINUOUS
10
-4.77711
20
5.62282
11
-4.77519
21
5.62154
0
LINE
8
BLACK
6
CONTINUOUS
10
-4.77519
20
5.62154
11
-4.77391
21
5.61962
0
LINE
8
BLACK
6
CONTINUOUS
10
-4.77391
20
5.61962
11
-4.77346
21
5.61736
0
LINE
8
BLACK
6
CONTINUOUS
10
-4.77346
20
5.61736
11
-4.77346
21
5.60555
0
LINE
8
BLACK
6
CONTINUOUS
10
-4.77346
20
5.60555
11
-4.77391
21
5.60329
0
LINE
8
BLACK
6
CONTINUOUS
10
-4.77391
20
5.60329
11
-4.77519
21
5.60138
0
LINE
8
BLACK
6
CONTINUOUS
10
-4.77519
20
5.60138
11
-4.77711
21
5.6001
0
LINE
8
BLACK
6
CONTINUOUS
10
-4.77711
20
5.6001
11
-4.77937
21
5.59965
0
LINE
8
BLACK
6
CONTINUOUS
10
-4.77937
20
5.59965
11
-4.83449
21
5.59965
0
LINE
8
BLACK
6
CONTINUOUS
10
-4.83449
20
5.59965
11
-4.83675
21
5.6001
0
LINE
8
BLACK
6
CONTINUOUS
10
-4.83675
20
5.6001
11
-4.83866
21
5.60138
0
LINE
8
BLACK
6
CONTINUOUS
10
-4.83866
20
5.60138
11
-4.83994
21
5.60329
0
LINE
8
BLACK
6
CONTINUOUS
10
-4.83994
20
5.60329
11
-4.84039
21
5.60555
0
LINE
8
BLACK
6
CONTINUOUS
10
-4.84039
20
5.60555
11
-4.84039
21
5.61736
0
LINE
8
BLACK
6
CONTINUOUS
10
-4.84039
20
5.61736
11
-4.83994
21
5.61962
0
LINE
8
BLACK
6
CONTINUOUS
10
-4.83994
20
5.61962
11
-4.83866
21
5.62154
0
LINE
8
BLACK
6
CONTINUOUS
10
-4.83866
20
5.62154
11
-4.83675
21
5.62282
0
LINE
8
BLACK
6
CONTINUOUS
10
-4.83675
20
5.62282
11
-4.83449
21
5.62327
0
LINE
8
BLACK
6
CONTINUOUS
10
-4.83449
20
5.62327
11
-4.77937
21
5.62327
0
LINE
8
BLACK
6
CONTINUOUS
10
-4.77937
20
5.62327
11
-4.77711
21
5.62282
0
LINE
8
BLACK
6
CONTINUOUS
10
-4.159
20
5.62282
11
-4.15708
21
5.62154
0
LINE
8
BLACK
6
CONTINUOUS
10
-4.15708
20
5.62154
11
-4.1558
21
5.61962
0
LINE
8
BLACK
6
CONTINUOUS
10
-4.1558
20
5.61962
11
-4.15535
21
5.61736
0
LINE
8
BLACK
6
CONTINUOUS
10
-4.15535
20
5.61736
11
-4.15535
21
5.60555
0
LINE
8
BLACK
6
CONTINUOUS
10
-4.15535
20
5.60555
11
-4.1558
21
5.60329
0
LINE
8
BLACK
6
CONTINUOUS
10
-4.1558
20
5.60329
11
-4.15708
21
5.60138
0
LINE
8
BLACK
6
CONTINUOUS
10
-4.15708
20
5.60138
11
-4.159
21
5.6001
0
LINE
8
BLACK
6
CONTINUOUS
10
-4.159
20
5.6001
11
-4.16126
21
5.59965
0
LINE
8
BLACK
6
CONTINUOUS
10
-4.16126
20
5.59965
11
-4.21638
21
5.59965
0
LINE
8
BLACK
6
CONTINUOUS
10
-4.21638
20
5.59965
11
-4.21864
21
5.6001
0
LINE
8
BLACK
6
CONTINUOUS
10
-4.21864
20
5.6001
11
-4.22055
21
5.60138
0
LINE
8
BLACK
6
CONTINUOUS
10
-4.22055
20
5.60138
11
-4.22183
21
5.60329
0
LINE
8
BLACK
6
CONTINUOUS
10
-4.22183
20
5.60329
11
-4.22228
21
5.60555
0
LINE
8
BLACK
6
CONTINUOUS
10
-4.22228
20
5.60555
11
-4.22228
21
5.61736
0
LINE
8
BLACK
6
CONTINUOUS
10
-4.22228
20
5.61736
11
-4.22183
21
5.61962
0
LINE
8
BLACK
6
CONTINUOUS
10
-4.22183
20
5.61962
11
-4.22055
21
5.62154
0
LINE
8
BLACK
6
CONTINUOUS
10
-4.22055
20
5.62154
11
-4.21864
21
5.62282
0
LINE
8
BLACK
6
CONTINUOUS
10
-4.21864
20
5.62282
11
-4.21638
21
5.62327
0
LINE
8
BLACK
6
CONTINUOUS
10
-4.21638
20
5.62327
11
-4.16126
21
5.62327
0
LINE
8
BLACK
6
CONTINUOUS
10
-4.16126
20
5.62327
11
-4.159
21
5.62282
0
LINE
8
BLACK
6
CONTINUOUS
10
-4.53616
20
5.64863
11
-4.53361
21
5.64693
0
LINE
8
BLACK
6
CONTINUOUS
10
-4.53361
20
5.64693
11
-4.5319
21
5.64437
0
LINE
8
BLACK
6
CONTINUOUS
10
-4.5319
20
5.64437
11
-4.5313
21
5.64136
0
LINE
8
BLACK
6
CONTINUOUS
10
-4.5313
20
5.64136
11
-4.5313
21
5.62561
0
LINE
8
BLACK
6
CONTINUOUS
10
-4.5313
20
5.62561
11
-4.5319
21
5.6226
0
LINE
8
BLACK
6
CONTINUOUS
10
-4.5319
20
5.6226
11
-4.53361
21
5.62004
0
LINE
8
BLACK
6
CONTINUOUS
10
-4.53361
20
5.62004
11
-4.53616
21
5.61834
0
LINE
8
BLACK
6
CONTINUOUS
10
-4.53616
20
5.61834
11
-4.53917
21
5.61774
0
LINE
8
BLACK
6
CONTINUOUS
10
-4.53917
20
5.61774
11
-4.56083
21
5.61774
0
LINE
8
BLACK
6
CONTINUOUS
10
-4.56083
20
5.61774
11
-4.56384
21
5.61834
0
LINE
8
BLACK
6
CONTINUOUS
10
-4.56384
20
5.61834
11
-4.56639
21
5.62004
0
LINE
8
BLACK
6
CONTINUOUS
10
-4.56639
20
5.62004
11
-4.5681
21
5.6226
0
LINE
8
BLACK
6
CONTINUOUS
10
-4.5681
20
5.6226
11
-4.5687
21
5.62561
0
LINE
8
BLACK
6
CONTINUOUS
10
-4.5687
20
5.62561
11
-4.5687
21
5.64136
0
LINE
8
BLACK
6
CONTINUOUS
10
-4.5687
20
5.64136
11
-4.5681
21
5.64437
0
LINE
8
BLACK
6
CONTINUOUS
10
-4.5681
20
5.64437
11
-4.56639
21
5.64693
0
LINE
8
BLACK
6
CONTINUOUS
10
-4.56639
20
5.64693
11
-4.56384
21
5.64863
0
LINE
8
BLACK
6
CONTINUOUS
10
-4.56384
20
5.64863
11
-4.56083
21
5.64923
0
LINE
8
BLACK
6
CONTINUOUS
10
-4.56083
20
5.64923
11
-4.53917
21
5.64923
0
LINE
8
BLACK
6
CONTINUOUS
10
-4.53917
20
5.64923
11
-4.53616
21
5.64863
0
LINE
8
BLACK
6
CONTINUOUS
10
-4.68424
20
5.70042
11
-4.68232
21
5.69914
0
LINE
8
BLACK
6
CONTINUOUS
10
-4.68232
20
5.69914
11
-4.68104
21
5.69722
0
LINE
8
BLACK
6
CONTINUOUS
10
-4.68104
20
5.69722
11
-4.68059
21
5.69496
0
LINE
8
BLACK
6
CONTINUOUS
10
-4.68059
20
5.69496
11
-4.68059
21
5.65461
0
LINE
8
BLACK
6
CONTINUOUS
10
-4.68059
20
5.65461
11
-4.68104
21
5.65235
0
LINE
8
BLACK
6
CONTINUOUS
10
-4.68104
20
5.65235
11
-4.68232
21
5.65043
0
LINE
8
BLACK
6
CONTINUOUS
10
-4.68232
20
5.65043
11
-4.68424
21
5.64915
0
LINE
8
BLACK
6
CONTINUOUS
10
-4.68424
20
5.64915
11
-4.6865
21
5.6487
0
LINE
8
BLACK
6
CONTINUOUS
10
-4.6865
20
5.6487
11
-4.69831
21
5.6487
0
LINE
8
BLACK
6
CONTINUOUS
10
-4.69831
20
5.6487
11
-4.70057
21
5.64915
0
LINE
8
BLACK
6
CONTINUOUS
10
-4.70057
20
5.64915
11
-4.70248
21
5.65043
0
LINE
8
BLACK
6
CONTINUOUS
10
-4.70248
20
5.65043
11
-4.70376
21
5.65235
0
LINE
8
BLACK
6
CONTINUOUS
10
-4.70376
20
5.65235
11
-4.70421
21
5.65461
0
LINE
8
BLACK
6
CONTINUOUS
10
-4.70421
20
5.65461
11
-4.70421
21
5.69496
0
LINE
8
BLACK
6
CONTINUOUS
10
-4.70421
20
5.69496
11
-4.70376
21
5.69722
0
LINE
8
BLACK
6
CONTINUOUS
10
-4.70376
20
5.69722
11
-4.70248
21
5.69914
0
LINE
8
BLACK
6
CONTINUOUS
10
-4.70248
20
5.69914
11
-4.70057
21
5.70042
0
LINE
8
BLACK
6
CONTINUOUS
10
-4.70057
20
5.70042
11
-4.69831
21
5.70087
0
LINE
8
BLACK
6
CONTINUOUS
10
-4.69831
20
5.70087
11
-4.6865
21
5.70087
0
LINE
8
BLACK
6
CONTINUOUS
10
-4.6865
20
5.70087
11
-4.68424
21
5.70042
0
LINE
8
BLACK
6
CONTINUOUS
10
-4.60943
20
5.70042
11
-4.60752
21
5.69914
0
LINE
8
BLACK
6
CONTINUOUS
10
-4.60752
20
5.69914
11
-4.60624
21
5.69722
0
LINE
8
BLACK
6
CONTINUOUS
10
-4.60624
20
5.69722
11
-4.60579
21
5.69496
0
LINE
8
BLACK
6
CONTINUOUS
10
-4.60579
20
5.69496
11
-4.60579
21
5.65461
0
LINE
8
BLACK
6
CONTINUOUS
10
-4.60579
20
5.65461
11
-4.60624
21
5.65235
0
LINE
8
BLACK
6
CONTINUOUS
10
-4.60624
20
5.65235
11
-4.60752
21
5.65043
0
LINE
8
BLACK
6
CONTINUOUS
10
-4.60752
20
5.65043
11
-4.60943
21
5.64915
0
LINE
8
BLACK
6
CONTINUOUS
10
-4.60943
20
5.64915
11
-4.61169
21
5.6487
0
LINE
8
BLACK
6
CONTINUOUS
10
-4.61169
20
5.6487
11
-4.6235
21
5.6487
0
LINE
8
BLACK
6
CONTINUOUS
10
-4.6235
20
5.6487
11
-4.62576
21
5.64915
0
LINE
8
BLACK
6
CONTINUOUS
10
-4.62576
20
5.64915
11
-4.62768
21
5.65043
0
LINE
8
BLACK
6
CONTINUOUS
10
-4.62768
20
5.65043
11
-4.62896
21
5.65235
0
LINE
8
BLACK
6
CONTINUOUS
10
-4.62896
20
5.65235
11
-4.62941
21
5.65461
0
LINE
8
BLACK
6
CONTINUOUS
10
-4.62941
20
5.65461
11
-4.62941
21
5.69496
0
LINE
8
BLACK
6
CONTINUOUS
10
-4.62941
20
5.69496
11
-4.62896
21
5.69722
0
LINE
8
BLACK
6
CONTINUOUS
10
-4.62896
20
5.69722
11
-4.62768
21
5.69914
0
LINE
8
BLACK
6
CONTINUOUS
10
-4.62768
20
5.69914
11
-4.62576
21
5.70042
0
LINE
8
BLACK
6
CONTINUOUS
10
-4.62576
20
5.70042
11
-4.6235
21
5.70087
0
LINE
8
BLACK
6
CONTINUOUS
10
-4.6235
20
5.70087
11
-4.61169
21
5.70087
0
LINE
8
BLACK
6
CONTINUOUS
10
-4.61169
20
5.70087
11
-4.60943
21
5.70042
0
LINE
8
BLACK
6
CONTINUOUS
10
-4.77711
20
5.67203
11
-4.77519
21
5.67075
0
LINE
8
BLACK
6
CONTINUOUS
10
-4.77519
20
5.67075
11
-4.77391
21
5.66883
0
LINE
8
BLACK
6
CONTINUOUS
10
-4.77391
20
5.66883
11
-4.77346
21
5.66657
0
LINE
8
BLACK
6
CONTINUOUS
10
-4.77346
20
5.66657
11
-4.77346
21
5.65476
0
LINE
8
BLACK
6
CONTINUOUS
10
-4.77346
20
5.65476
11
-4.77391
21
5.6525
0
LINE
8
BLACK
6
CONTINUOUS
10
-4.77391
20
5.6525
11
-4.77519
21
5.65059
0
LINE
8
BLACK
6
CONTINUOUS
10
-4.77519
20
5.65059
11
-4.77711
21
5.64931
0
LINE
8
BLACK
6
CONTINUOUS
10
-4.77711
20
5.64931
11
-4.77937
21
5.64886
0
LINE
8
BLACK
6
CONTINUOUS
10
-4.77937
20
5.64886
11
-4.83449
21
5.64886
0
LINE
8
BLACK
6
CONTINUOUS
10
-4.83449
20
5.64886
11
-4.83675
21
5.64931
0
LINE
8
BLACK
6
CONTINUOUS
10
-4.83675
20
5.64931
11
-4.83866
21
5.65059
0
LINE
8
BLACK
6
CONTINUOUS
10
-4.83866
20
5.65059
11
-4.83994
21
5.6525
0
LINE
8
BLACK
6
CONTINUOUS
10
-4.83994
20
5.6525
11
-4.84039
21
5.65476
0
LINE
8
BLACK
6
CONTINUOUS
10
-4.84039
20
5.65476
11
-4.84039
21
5.66657
0
LINE
8
BLACK
6
CONTINUOUS
10
-4.84039
20
5.66657
11
-4.83994
21
5.66883
0
LINE
8
BLACK
6
CONTINUOUS
10
-4.83994
20
5.66883
11
-4.83866
21
5.67075
0
LINE
8
BLACK
6
CONTINUOUS
10
-4.83866
20
5.67075
11
-4.83675
21
5.67203
0
LINE
8
BLACK
6
CONTINUOUS
10
-4.83675
20
5.67203
11
-4.83449
21
5.67248
0
LINE
8
BLACK
6
CONTINUOUS
10
-4.83449
20
5.67248
11
-4.77937
21
5.67248
0
LINE
8
BLACK
6
CONTINUOUS
10
-4.77937
20
5.67248
11
-4.77711
21
5.67203
0
LINE
8
BLACK
6
CONTINUOUS
10
-4.159
20
5.67203
11
-4.15708
21
5.67075
0
LINE
8
BLACK
6
CONTINUOUS
10
-4.15708
20
5.67075
11
-4.1558
21
5.66883
0
LINE
8
BLACK
6
CONTINUOUS
10
-4.1558
20
5.66883
11
-4.15535
21
5.66657
0
LINE
8
BLACK
6
CONTINUOUS
10
-4.15535
20
5.66657
11
-4.15535
21
5.65476
0
LINE
8
BLACK
6
CONTINUOUS
10
-4.15535
20
5.65476
11
-4.1558
21
5.6525
0
LINE
8
BLACK
6
CONTINUOUS
10
-4.1558
20
5.6525
11
-4.15708
21
5.65059
0
LINE
8
BLACK
6
CONTINUOUS
10
-4.15708
20
5.65059
11
-4.159
21
5.64931
0
LINE
8
BLACK
6
CONTINUOUS
10
-4.159
20
5.64931
11
-4.16126
21
5.64886
0
LINE
8
BLACK
6
CONTINUOUS
10
-4.16126
20
5.64886
11
-4.21638
21
5.64886
0
LINE
8
BLACK
6
CONTINUOUS
10
-4.21638
20
5.64886
11
-4.21864
21
5.64931
0
LINE
8
BLACK
6
CONTINUOUS
10
-4.21864
20
5.64931
11
-4.22055
21
5.65059
0
LINE
8
BLACK
6
CONTINUOUS
10
-4.22055
20
5.65059
11
-4.22183
21
5.6525
0
LINE
8
BLACK
6
CONTINUOUS
10
-4.22183
20
5.6525
11
-4.22228
21
5.65476
0
LINE
8
BLACK
6
CONTINUOUS
10
-4.22228
20
5.65476
11
-4.22228
21
5.66657
0
LINE
8
BLACK
6
CONTINUOUS
10
-4.22228
20
5.66657
11
-4.22183
21
5.66883
0
LINE
8
BLACK
6
CONTINUOUS
10
-4.22183
20
5.66883
11
-4.22055
21
5.67075
0
LINE
8
BLACK
6
CONTINUOUS
10
-4.22055
20
5.67075
11
-4.21864
21
5.67203
0
LINE
8
BLACK
6
CONTINUOUS
10
-4.21864
20
5.67203
11
-4.21638
21
5.67248
0
LINE
8
BLACK
6
CONTINUOUS
10
-4.21638
20
5.67248
11
-4.16126
21
5.67248
0
LINE
8
BLACK
6
CONTINUOUS
10
-4.16126
20
5.67248
11
-4.159
21
5.67203
0
LINE
8
BLACK
6
CONTINUOUS
10
-4.77711
20
5.72124
11
-4.77519
21
5.71996
0
LINE
8
BLACK
6
CONTINUOUS
10
-4.77519
20
5.71996
11
-4.77391
21
5.71805
0
LINE
8
BLACK
6
CONTINUOUS
10
-4.77391
20
5.71805
11
-4.77346
21
5.71579
0
LINE
8
BLACK
6
CONTINUOUS
10
-4.77346
20
5.71579
11
-4.77346
21
5.70398
0
LINE
8
BLACK
6
CONTINUOUS
10
-4.77346
20
5.70398
11
-4.77391
21
5.70172
0
LINE
8
BLACK
6
CONTINUOUS
10
-4.77391
20
5.70172
11
-4.77519
21
5.6998
0
LINE
8
BLACK
6
CONTINUOUS
10
-4.77519
20
5.6998
11
-4.77711
21
5.69852
0
LINE
8
BLACK
6
CONTINUOUS
10
-4.77711
20
5.69852
11
-4.77937
21
5.69807
0
LINE
8
BLACK
6
CONTINUOUS
10
-4.77937
20
5.69807
11
-4.83449
21
5.69807
0
LINE
8
BLACK
6
CONTINUOUS
10
-4.83449
20
5.69807
11
-4.83675
21
5.69852
0
LINE
8
BLACK
6
CONTINUOUS
10
-4.83675
20
5.69852
11
-4.83866
21
5.6998
0
LINE
8
BLACK
6
CONTINUOUS
10
-4.83866
20
5.6998
11
-4.83994
21
5.70172
0
LINE
8
BLACK
6
CONTINUOUS
10
-4.83994
20
5.70172
11
-4.84039
21
5.70398
0
LINE
8
BLACK
6
CONTINUOUS
10
-4.84039
20
5.70398
11
-4.84039
21
5.71579
0
LINE
8
BLACK
6
CONTINUOUS
10
-4.84039
20
5.71579
11
-4.83994
21
5.71805
0
LINE
8
BLACK
6
CONTINUOUS
10
-4.83994
20
5.71805
11
-4.83866
21
5.71996
0
LINE
8
BLACK
6
CONTINUOUS
10
-4.83866
20
5.71996
11
-4.83675
21
5.72124
0
LINE
8
BLACK
6
CONTINUOUS
10
-4.83675
20
5.72124
11
-4.83449
21
5.72169
0
LINE
8
BLACK
6
CONTINUOUS
10
-4.83449
20
5.72169
11
-4.77937
21
5.72169
0
LINE
8
BLACK
6
CONTINUOUS
10
-4.77937
20
5.72169
11
-4.77711
21
5.72124
0
LINE
8
BLACK
6
CONTINUOUS
10
-4.159
20
5.72124
11
-4.15708
21
5.71996
0
LINE
8
BLACK
6
CONTINUOUS
10
-4.15708
20
5.71996
11
-4.1558
21
5.71805
0
LINE
8
BLACK
6
CONTINUOUS
10
-4.1558
20
5.71805
11
-4.15535
21
5.71579
0
LINE
8
BLACK
6
CONTINUOUS
10
-4.15535
20
5.71579
11
-4.15535
21
5.70398
0
LINE
8
BLACK
6
CONTINUOUS
10
-4.15535
20
5.70398
11
-4.1558
21
5.70172
0
LINE
8
BLACK
6
CONTINUOUS
10
-4.1558
20
5.70172
11
-4.15708
21
5.6998
0
LINE
8
BLACK
6
CONTINUOUS
10
-4.15708
20
5.6998
11
-4.159
21
5.69852
0
LINE
8
BLACK
6
CONTINUOUS
10
-4.159
20
5.69852
11
-4.16126
21
5.69807
0
LINE
8
BLACK
6
CONTINUOUS
10
-4.16126
20
5.69807
11
-4.21638
21
5.69807
0
LINE
8
BLACK
6
CONTINUOUS
10
-4.21638
20
5.69807
11
-4.21864
21
5.69852
0
LINE
8
BLACK
6
CONTINUOUS
10
-4.21864
20
5.69852
11
-4.22055
21
5.6998
0
LINE
8
BLACK
6
CONTINUOUS
10
-4.22055
20
5.6998
11
-4.22183
21
5.70172
0
LINE
8
BLACK
6
CONTINUOUS
10
-4.22183
20
5.70172
11
-4.22228
21
5.70398
0
LINE
8
BLACK
6
CONTINUOUS
10
-4.22228
20
5.70398
11
-4.22228
21
5.71579
0
LINE
8
BLACK
6
CONTINUOUS
10
-4.22228
20
5.71579
11
-4.22183
21
5.71805
0
LINE
8
BLACK
6
CONTINUOUS
10
-4.22183
20
5.71805
11
-4.22055
21
5.71996
0
LINE
8
BLACK
6
CONTINUOUS
10
-4.22055
20
5.71996
11
-4.21864
21
5.72124
0
LINE
8
BLACK
6
CONTINUOUS
10
-4.21864
20
5.72124
11
-4.21638
21
5.72169
0
LINE
8
BLACK
6
CONTINUOUS
10
-4.21638
20
5.72169
11
-4.16126
21
5.72169
0
LINE
8
BLACK
6
CONTINUOUS
10
-4.16126
20
5.72169
11
-4.159
21
5.72124
0
LINE
8
BLACK
6
CONTINUOUS
10
-4.28116
20
5.74267
11
-4.27861
21
5.74096
0
LINE
8
BLACK
6
CONTINUOUS
10
-4.27861
20
5.74096
11
-4.2769
21
5.73841
0
LINE
8
BLACK
6
CONTINUOUS
10
-4.2769
20
5.73841
11
-4.2763
21
5.73539
0
LINE
8
BLACK
6
CONTINUOUS
10
-4.2763
20
5.73539
11
-4.2763
21
5.71965
0
LINE
8
BLACK
6
CONTINUOUS
10
-4.2763
20
5.71965
11
-4.2769
21
5.71663
0
LINE
8
BLACK
6
CONTINUOUS
10
-4.2769
20
5.71663
11
-4.27861
21
5.71408
0
LINE
8
BLACK
6
CONTINUOUS
10
-4.27861
20
5.71408
11
-4.28116
21
5.71237
0
LINE
8
BLACK
6
CONTINUOUS
10
-4.28116
20
5.71237
11
-4.28417
21
5.71177
0
LINE
8
BLACK
6
CONTINUOUS
10
-4.28417
20
5.71177
11
-4.30583
21
5.71177
0
LINE
8
BLACK
6
CONTINUOUS
10
-4.30583
20
5.71177
11
-4.30884
21
5.71237
0
LINE
8
BLACK
6
CONTINUOUS
10
-4.30884
20
5.71237
11
-4.31139
21
5.71408
0
LINE
8
BLACK
6
CONTINUOUS
10
-4.31139
20
5.71408
11
-4.3131
21
5.71663
0
LINE
8
BLACK
6
CONTINUOUS
10
-4.3131
20
5.71663
11
-4.3137
21
5.71965
0
LINE
8
BLACK
6
CONTINUOUS
10
-4.3137
20
5.71965
11
-4.3137
21
5.73539
0
LINE
8
BLACK
6
CONTINUOUS
10
-4.3137
20
5.73539
11
-4.3131
21
5.73841
0
LINE
8
BLACK
6
CONTINUOUS
10
-4.3131
20
5.73841
11
-4.31139
21
5.74096
0
LINE
8
BLACK
6
CONTINUOUS
10
-4.31139
20
5.74096
11
-4.30884
21
5.74267
0
LINE
8
BLACK
6
CONTINUOUS
10
-4.30884
20
5.74267
11
-4.30583
21
5.74327
0
LINE
8
BLACK
6
CONTINUOUS
10
-4.30583
20
5.74327
11
-4.28417
21
5.74327
0
LINE
8
BLACK
6
CONTINUOUS
10
-4.28417
20
5.74327
11
-4.28116
21
5.74267
0
LINE
8
BLACK
6
CONTINUOUS
10
-4.53116
20
5.74666
11
-4.52861
21
5.74496
0
LINE
8
BLACK
6
CONTINUOUS
10
-4.52861
20
5.74496
11
-4.5269
21
5.7424
0
LINE
8
BLACK
6
CONTINUOUS
10
-4.5269
20
5.7424
11
-4.5263
21
5.73939
0
LINE
8
BLACK
6
CONTINUOUS
10
-4.5263
20
5.73939
11
-4.5263
21
5.72364
0
LINE
8
BLACK
6
CONTINUOUS
10
-4.5263
20
5.72364
11
-4.5269
21
5.72063
0
LINE
8
BLACK
6
CONTINUOUS
10
-4.5269
20
5.72063
11
-4.52861
21
5.71807
0
LINE
8
BLACK
6
CONTINUOUS
10
-4.52861
20
5.71807
11
-4.53116
21
5.71637
0
LINE
8
BLACK
6
CONTINUOUS
10
-4.53116
20
5.71637
11
-4.53417
21
5.71577
0
LINE
8
BLACK
6
CONTINUOUS
10
-4.53417
20
5.71577
11
-4.55583
21
5.71577
0
LINE
8
BLACK
6
CONTINUOUS
10
-4.55583
20
5.71577
11
-4.55884
21
5.71637
0
LINE
8
BLACK
6
CONTINUOUS
10
-4.55884
20
5.71637
11
-4.56139
21
5.71807
0
LINE
8
BLACK
6
CONTINUOUS
10
-4.56139
20
5.71807
11
-4.5631
21
5.72063
0
LINE
8
BLACK
6
CONTINUOUS
10
-4.5631
20
5.72063
11
-4.5637
21
5.72364
0
LINE
8
BLACK
6
CONTINUOUS
10
-4.5637
20
5.72364
11
-4.5637
21
5.73939
0
LINE
8
BLACK
6
CONTINUOUS
10
-4.5637
20
5.73939
11
-4.5631
21
5.7424
0
LINE
8
BLACK
6
CONTINUOUS
10
-4.5631
20
5.7424
11
-4.56139
21
5.74496
0
LINE
8
BLACK
6
CONTINUOUS
10
-4.56139
20
5.74496
11
-4.55884
21
5.74666
0
LINE
8
BLACK
6
CONTINUOUS
10
-4.55884
20
5.74666
11
-4.55583
21
5.74726
0
LINE
8
BLACK
6
CONTINUOUS
10
-4.55583
20
5.74726
11
-4.53417
21
5.74726
0
LINE
8
BLACK
6
CONTINUOUS
10
-4.53417
20
5.74726
11
-4.53116
21
5.74666
0
LINE
8
BLACK
6
CONTINUOUS
10
-4.59253
20
5.75903
11
-4.58934
21
5.7569
0
LINE
8
BLACK
6
CONTINUOUS
10
-4.58934
20
5.7569
11
-4.58721
21
5.75371
0
LINE
8
BLACK
6
CONTINUOUS
10
-4.58721
20
5.75371
11
-4.58646
21
5.74994
0
LINE
8
BLACK
6
CONTINUOUS
10
-4.58646
20
5.74994
11
-4.58646
21
5.73026
0
LINE
8
BLACK
6
CONTINUOUS
10
-4.58646
20
5.73026
11
-4.58721
21
5.72649
0
LINE
8
BLACK
6
CONTINUOUS
10
-4.58721
20
5.72649
11
-4.58934
21
5.7233
0
LINE
8
BLACK
6
CONTINUOUS
10
-4.58934
20
5.7233
11
-4.59253
21
5.72116
0
LINE
8
BLACK
6
CONTINUOUS
10
-4.59253
20
5.72116
11
-4.5963
21
5.72041
0
LINE
8
BLACK
6
CONTINUOUS
10
-4.5963
20
5.72041
11
-4.6337
21
5.72041
0
LINE
8
BLACK
6
CONTINUOUS
10
-4.6337
20
5.72041
11
-4.63747
21
5.72116
0
LINE
8
BLACK
6
CONTINUOUS
10
-4.63747
20
5.72116
11
-4.64066
21
5.7233
0
LINE
8
BLACK
6
CONTINUOUS
10
-4.64066
20
5.7233
11
-4.64279
21
5.72649
0
LINE
8
BLACK
6
CONTINUOUS
10
-4.64279
20
5.72649
11
-4.64354
21
5.73026
0
LINE
8
BLACK
6
CONTINUOUS
10
-4.64354
20
5.73026
11
-4.64354
21
5.74994
0
LINE
8
BLACK
6
CONTINUOUS
10
-4.64354
20
5.74994
11
-4.64279
21
5.75371
0
LINE
8
BLACK
6
CONTINUOUS
10
-4.64279
20
5.75371
11
-4.64066
21
5.7569
0
LINE
8
BLACK
6
CONTINUOUS
10
-4.64066
20
5.7569
11
-4.63747
21
5.75903
0
LINE
8
BLACK
6
CONTINUOUS
10
-4.63747
20
5.75903
11
-4.6337
21
5.75978
0
LINE
8
BLACK
6
CONTINUOUS
10
-4.6337
20
5.75978
11
-4.5963
21
5.75978
0
LINE
8
BLACK
6
CONTINUOUS
10
-4.5963
20
5.75978
11
-4.59253
21
5.75903
0
LINE
8
BLACK
6
CONTINUOUS
10
-4.43953
20
5.74335
11
-4.45724
21
5.74335
0
LINE
8
BLACK
6
CONTINUOUS
10
-4.45724
20
5.74335
11
-4.45724
21
5.80043
0
LINE
8
BLACK
6
CONTINUOUS
10
-4.45724
20
5.80043
11
-4.43953
21
5.80043
0
LINE
8
BLACK
6
CONTINUOUS
10
-4.43953
20
5.80043
11
-4.43953
21
5.74335
0
LINE
8
BLACK
6
CONTINUOUS
10
-4.41394
20
5.74335
11
-4.43165
21
5.74335
0
LINE
8
BLACK
6
CONTINUOUS
10
-4.43165
20
5.74335
11
-4.43165
21
5.80043
0
LINE
8
BLACK
6
CONTINUOUS
10
-4.43165
20
5.80043
11
-4.41394
21
5.80043
0
LINE
8
BLACK
6
CONTINUOUS
10
-4.41394
20
5.80043
11
-4.41394
21
5.74335
0
LINE
8
BLACK
6
CONTINUOUS
10
-4.38835
20
5.74335
11
-4.40606
21
5.74335
0
LINE
8
BLACK
6
CONTINUOUS
10
-4.40606
20
5.74335
11
-4.40606
21
5.80043
0
LINE
8
BLACK
6
CONTINUOUS
10
-4.40606
20
5.80043
11
-4.38835
21
5.80043
0
LINE
8
BLACK
6
CONTINUOUS
10
-4.38835
20
5.80043
11
-4.38835
21
5.74335
0
LINE
8
BLACK
6
CONTINUOUS
10
-4.36276
20
5.74335
11
-4.38047
21
5.74335
0
LINE
8
BLACK
6
CONTINUOUS
10
-4.38047
20
5.74335
11
-4.38047
21
5.80043
0
LINE
8
BLACK
6
CONTINUOUS
10
-4.38047
20
5.80043
11
-4.36276
21
5.80043
0
LINE
8
BLACK
6
CONTINUOUS
10
-4.36276
20
5.80043
11
-4.36276
21
5.74335
0
LINE
8
BLACK
6
CONTINUOUS
10
-4.77711
20
5.77046
11
-4.77519
21
5.76918
0
LINE
8
BLACK
6
CONTINUOUS
10
-4.77519
20
5.76918
11
-4.77391
21
5.76726
0
LINE
8
BLACK
6
CONTINUOUS
10
-4.77391
20
5.76726
11
-4.77346
21
5.765
0
LINE
8
BLACK
6
CONTINUOUS
10
-4.77346
20
5.765
11
-4.77346
21
5.75319
0
LINE
8
BLACK
6
CONTINUOUS
10
-4.77346
20
5.75319
11
-4.77391
21
5.75093
0
LINE
8
BLACK
6
CONTINUOUS
10
-4.77391
20
5.75093
11
-4.77519
21
5.74901
0
LINE
8
BLACK
6
CONTINUOUS
10
-4.77519
20
5.74901
11
-4.77711
21
5.74773
0
LINE
8
BLACK
6
CONTINUOUS
10
-4.77711
20
5.74773
11
-4.77937
21
5.74728
0
LINE
8
BLACK
6
CONTINUOUS
10
-4.77937
20
5.74728
11
-4.83449
21
5.74728
0
LINE
8
BLACK
6
CONTINUOUS
10
-4.83449
20
5.74728
11
-4.83675
21
5.74773
0
LINE
8
BLACK
6
CONTINUOUS
10
-4.83675
20
5.74773
11
-4.83866
21
5.74901
0
LINE
8
BLACK
6
CONTINUOUS
10
-4.83866
20
5.74901
11
-4.83994
21
5.75093
0
LINE
8
BLACK
6
CONTINUOUS
10
-4.83994
20
5.75093
11
-4.84039
21
5.75319
0
LINE
8
BLACK
6
CONTINUOUS
10
-4.84039
20
5.75319
11
-4.84039
21
5.765
0
LINE
8
BLACK
6
CONTINUOUS
10
-4.84039
20
5.765
11
-4.83994
21
5.76726
0
LINE
8
BLACK
6
CONTINUOUS
10
-4.83994
20
5.76726
11
-4.83866
21
5.76918
0
LINE
8
BLACK
6
CONTINUOUS
10
-4.83866
20
5.76918
11
-4.83675
21
5.77046
0
LINE
8
BLACK
6
CONTINUOUS
10
-4.83675
20
5.77046
11
-4.83449
21
5.77091
0
LINE
8
BLACK
6
CONTINUOUS
10
-4.83449
20
5.77091
11
-4.77937
21
5.77091
0
LINE
8
BLACK
6
CONTINUOUS
10
-4.77937
20
5.77091
11
-4.77711
21
5.77046
0
LINE
8
BLACK
6
CONTINUOUS
10
-4.159
20
5.77046
11
-4.15708
21
5.76918
0
LINE
8
BLACK
6
CONTINUOUS
10
-4.15708
20
5.76918
11
-4.1558
21
5.76726
0
LINE
8
BLACK
6
CONTINUOUS
10
-4.1558
20
5.76726
11
-4.15535
21
5.765
0
LINE
8
BLACK
6
CONTINUOUS
10
-4.15535
20
5.765
11
-4.15535
21
5.75319
0
LINE
8
BLACK
6
CONTINUOUS
10
-4.15535
20
5.75319
11
-4.1558
21
5.75093
0
LINE
8
BLACK
6
CONTINUOUS
10
-4.1558
20
5.75093
11
-4.15708
21
5.74901
0
LINE
8
BLACK
6
CONTINUOUS
10
-4.15708
20
5.74901
11
-4.159
21
5.74773
0
LINE
8
BLACK
6
CONTINUOUS
10
-4.159
20
5.74773
11
-4.16126
21
5.74728
0
LINE
8
BLACK
6
CONTINUOUS
10
-4.16126
20
5.74728
11
-4.21638
21
5.74728
0
LINE
8
BLACK
6
CONTINUOUS
10
-4.21638
20
5.74728
11
-4.21864
21
5.74773
0
LINE
8
BLACK
6
CONTINUOUS
10
-4.21864
20
5.74773
11
-4.22055
21
5.74901
0
LINE
8
BLACK
6
CONTINUOUS
10
-4.22055
20
5.74901
11
-4.22183
21
5.75093
0
LINE
8
BLACK
6
CONTINUOUS
10
-4.22183
20
5.75093
11
-4.22228
21
5.75319
0
LINE
8
BLACK
6
CONTINUOUS
10
-4.22228
20
5.75319
11
-4.22228
21
5.765
0
LINE
8
BLACK
6
CONTINUOUS
10
-4.22228
20
5.765
11
-4.22183
21
5.76726
0
LINE
8
BLACK
6
CONTINUOUS
10
-4.22183
20
5.76726
11
-4.22055
21
5.76918
0
LINE
8
BLACK
6
CONTINUOUS
10
-4.22055
20
5.76918
11
-4.21864
21
5.77046
0
LINE
8
BLACK
6
CONTINUOUS
10
-4.21864
20
5.77046
11
-4.21638
21
5.77091
0
LINE
8
BLACK
6
CONTINUOUS
10
-4.21638
20
5.77091
11
-4.16126
21
5.77091
0
LINE
8
BLACK
6
CONTINUOUS
10
-4.16126
20
5.77091
11
-4.159
21
5.77046
0
LINE
8
BLACK
6
CONTINUOUS
10
-4.68622
20
5.74807
11
-4.71378
21
5.74807
0
LINE
8
BLACK
6
CONTINUOUS
10
-4.71378
20
5.74807
11
-4.71378
21
5.77169
0
LINE
8
BLACK
6
CONTINUOUS
10
-4.71378
20
5.77169
11
-4.68622
21
5.77169
0
LINE
8
BLACK
6
CONTINUOUS
10
-4.68622
20
5.77169
11
-4.68622
21
5.74807
0
LINE
8
BLACK
6
CONTINUOUS
10
-4.28116
20
5.80763
11
-4.27861
21
5.80592
0
LINE
8
BLACK
6
CONTINUOUS
10
-4.27861
20
5.80592
11
-4.2769
21
5.80337
0
LINE
8
BLACK
6
CONTINUOUS
10
-4.2769
20
5.80337
11
-4.2763
21
5.80035
0
LINE
8
BLACK
6
CONTINUOUS
10
-4.2763
20
5.80035
11
-4.2763
21
5.78461
0
LINE
8
BLACK
6
CONTINUOUS
10
-4.2763
20
5.78461
11
-4.2769
21
5.78159
0
LINE
8
BLACK
6
CONTINUOUS
10
-4.2769
20
5.78159
11
-4.27861
21
5.77904
0
LINE
8
BLACK
6
CONTINUOUS
10
-4.27861
20
5.77904
11
-4.28116
21
5.77733
0
LINE
8
BLACK
6
CONTINUOUS
10
-4.28116
20
5.77733
11
-4.28417
21
5.77673
0
LINE
8
BLACK
6
CONTINUOUS
10
-4.28417
20
5.77673
11
-4.30583
21
5.77673
0
LINE
8
BLACK
6
CONTINUOUS
10
-4.30583
20
5.77673
11
-4.30884
21
5.77733
0
LINE
8
BLACK
6
CONTINUOUS
10
-4.30884
20
5.77733
11
-4.31139
21
5.77904
0
LINE
8
BLACK
6
CONTINUOUS
10
-4.31139
20
5.77904
11
-4.3131
21
5.78159
0
LINE
8
BLACK
6
CONTINUOUS
10
-4.3131
20
5.78159
11
-4.3137
21
5.78461
0
LINE
8
BLACK
6
CONTINUOUS
10
-4.3137
20
5.78461
11
-4.3137
21
5.80035
0
LINE
8
BLACK
6
CONTINUOUS
10
-4.3137
20
5.80035
11
-4.3131
21
5.80337
0
LINE
8
BLACK
6
CONTINUOUS
10
-4.3131
20
5.80337
11
-4.31139
21
5.80592
0
LINE
8
BLACK
6
CONTINUOUS
10
-4.31139
20
5.80592
11
-4.30884
21
5.80763
0
LINE
8
BLACK
6
CONTINUOUS
10
-4.30884
20
5.80763
11
-4.30583
21
5.80823
0
LINE
8
BLACK
6
CONTINUOUS
10
-4.30583
20
5.80823
11
-4.28417
21
5.80823
0
LINE
8
BLACK
6
CONTINUOUS
10
-4.28417
20
5.80823
11
-4.28116
21
5.80763
0
LINE
8
BLACK
6
CONTINUOUS
10
-4.53116
20
5.81163
11
-4.52861
21
5.80992
0
LINE
8
BLACK
6
CONTINUOUS
10
-4.52861
20
5.80992
11
-4.5269
21
5.80736
0
LINE
8
BLACK
6
CONTINUOUS
10
-4.5269
20
5.80736
11
-4.5263
21
5.80435
0
LINE
8
BLACK
6
CONTINUOUS
10
-4.5263
20
5.80435
11
-4.5263
21
5.7886
0
LINE
8
BLACK
6
CONTINUOUS
10
-4.5263
20
5.7886
11
-4.5269
21
5.78559
0
LINE
8
BLACK
6
CONTINUOUS
10
-4.5269
20
5.78559
11
-4.52861
21
5.78303
0
LINE
8
BLACK
6
CONTINUOUS
10
-4.52861
20
5.78303
11
-4.53116
21
5.78133
0
LINE
8
BLACK
6
CONTINUOUS
10
-4.53116
20
5.78133
11
-4.53417
21
5.78073
0
LINE
8
BLACK
6
CONTINUOUS
10
-4.53417
20
5.78073
11
-4.55583
21
5.78073
0
LINE
8
BLACK
6
CONTINUOUS
10
-4.55583
20
5.78073
11
-4.55884
21
5.78133
0
LINE
8
BLACK
6
CONTINUOUS
10
-4.55884
20
5.78133
11
-4.56139
21
5.78303
0
LINE
8
BLACK
6
CONTINUOUS
10
-4.56139
20
5.78303
11
-4.5631
21
5.78559
0
LINE
8
BLACK
6
CONTINUOUS
10
-4.5631
20
5.78559
11
-4.5637
21
5.7886
0
LINE
8
BLACK
6
CONTINUOUS
10
-4.5637
20
5.7886
11
-4.5637
21
5.80435
0
LINE
8
BLACK
6
CONTINUOUS
10
-4.5637
20
5.80435
11
-4.5631
21
5.80736
0
LINE
8
BLACK
6
CONTINUOUS
10
-4.5631
20
5.80736
11
-4.56139
21
5.80992
0
LINE
8
BLACK
6
CONTINUOUS
10
-4.56139
20
5.80992
11
-4.55884
21
5.81163
0
LINE
8
BLACK
6
CONTINUOUS
10
-4.55884
20
5.81163
11
-4.55583
21
5.81222
0
LINE
8
BLACK
6
CONTINUOUS
10
-4.55583
20
5.81222
11
-4.53417
21
5.81222
0
LINE
8
BLACK
6
CONTINUOUS
10
-4.53417
20
5.81222
11
-4.53116
21
5.81163
0
LINE
8
BLACK
6
CONTINUOUS
10
-4.59253
20
5.83384
11
-4.58934
21
5.8317
0
LINE
8
BLACK
6
CONTINUOUS
10
-4.58934
20
5.8317
11
-4.58721
21
5.82851
0
LINE
8
BLACK
6
CONTINUOUS
10
-4.58721
20
5.82851
11
-4.58646
21
5.82474
0
LINE
8
BLACK
6
CONTINUOUS
10
-4.58646
20
5.82474
11
-4.58646
21
5.80506
0
LINE
8
BLACK
6
CONTINUOUS
10
-4.58646
20
5.80506
11
-4.58721
21
5.80129
0
LINE
8
BLACK
6
CONTINUOUS
10
-4.58721
20
5.80129
11
-4.58934
21
5.7981
0
LINE
8
BLACK
6
CONTINUOUS
10
-4.58934
20
5.7981
11
-4.59253
21
5.79597
0
LINE
8
BLACK
6
CONTINUOUS
10
-4.59253
20
5.79597
11
-4.5963
21
5.79522
0
LINE
8
BLACK
6
CONTINUOUS
10
-4.5963
20
5.79522
11
-4.6337
21
5.79522
0
LINE
8
BLACK
6
CONTINUOUS
10
-4.6337
20
5.79522
11
-4.63747
21
5.79597
0
LINE
8
BLACK
6
CONTINUOUS
10
-4.63747
20
5.79597
11
-4.64066
21
5.7981
0
LINE
8
BLACK
6
CONTINUOUS
10
-4.64066
20
5.7981
11
-4.64279
21
5.80129
0
LINE
8
BLACK
6
CONTINUOUS
10
-4.64279
20
5.80129
11
-4.64354
21
5.80506
0
LINE
8
BLACK
6
CONTINUOUS
10
-4.64354
20
5.80506
11
-4.64354
21
5.82474
0
LINE
8
BLACK
6
CONTINUOUS
10
-4.64354
20
5.82474
11
-4.64279
21
5.82851
0
LINE
8
BLACK
6
CONTINUOUS
10
-4.64279
20
5.82851
11
-4.64066
21
5.8317
0
LINE
8
BLACK
6
CONTINUOUS
10
-4.64066
20
5.8317
11
-4.63747
21
5.83384
0
LINE
8
BLACK
6
CONTINUOUS
10
-4.63747
20
5.83384
11
-4.6337
21
5.83459
0
LINE
8
BLACK
6
CONTINUOUS
10
-4.6337
20
5.83459
11
-4.5963
21
5.83459
0
LINE
8
BLACK
6
CONTINUOUS
10
-4.5963
20
5.83459
11
-4.59253
21
5.83384
0
LINE
8
BLACK
6
CONTINUOUS
10
-4.68622
20
5.80319
11
-4.71378
21
5.80319
0
LINE
8
BLACK
6
CONTINUOUS
10
-4.71378
20
5.80319
11
-4.71378
21
5.82681
0
LINE
8
BLACK
6
CONTINUOUS
10
-4.71378
20
5.82681
11
-4.68622
21
5.82681
0
LINE
8
BLACK
6
CONTINUOUS
10
-4.68622
20
5.82681
11
-4.68622
21
5.80319
0
LINE
8
BLACK
6
CONTINUOUS
10
-4.88584
20
5.85086
11
-4.88265
21
5.84873
0
LINE
8
BLACK
6
CONTINUOUS
10
-4.88265
20
5.84873
11
-4.88051
21
5.84554
0
LINE
8
BLACK
6
CONTINUOUS
10
-4.88051
20
5.84554
11
-4.87976
21
5.84177
0
LINE
8
BLACK
6
CONTINUOUS
10
-4.87976
20
5.84177
11
-4.87976
21
5.82209
0
LINE
8
BLACK
6
CONTINUOUS
10
-4.87976
20
5.82209
11
-4.88051
21
5.81832
0
LINE
8
BLACK
6
CONTINUOUS
10
-4.88051
20
5.81832
11
-4.88265
21
5.81513
0
LINE
8
BLACK
6
CONTINUOUS
10
-4.88265
20
5.81513
11
-4.88584
21
5.81299
0
LINE
8
BLACK
6
CONTINUOUS
10
-4.88584
20
5.81299
11
-4.88961
21
5.81224
0
LINE
8
BLACK
6
CONTINUOUS
10
-4.88961
20
5.81224
11
-4.97622
21
5.81224
0
LINE
8
BLACK
6
CONTINUOUS
10
-4.97622
20
5.81224
11
-4.97999
21
5.81299
0
LINE
8
BLACK
6
CONTINUOUS
10
-4.97999
20
5.81299
11
-4.98318
21
5.81513
0
LINE
8
BLACK
6
CONTINUOUS
10
-4.98318
20
5.81513
11
-4.98531
21
5.81832
0
LINE
8
BLACK
6
CONTINUOUS
10
-4.98531
20
5.81832
11
-4.98606
21
5.82209
0
LINE
8
BLACK
6
CONTINUOUS
10
-4.98606
20
5.82209
11
-4.98606
21
5.84177
0
LINE
8
BLACK
6
CONTINUOUS
10
-4.98606
20
5.84177
11
-4.98531
21
5.84554
0
LINE
8
BLACK
6
CONTINUOUS
10
-4.98531
20
5.84554
11
-4.98318
21
5.84873
0
LINE
8
BLACK
6
CONTINUOUS
10
-4.98318
20
5.84873
11
-4.97999
21
5.85086
0
LINE
8
BLACK
6
CONTINUOUS
10
-4.97999
20
5.85086
11
-4.97622
21
5.85161
0
LINE
8
BLACK
6
CONTINUOUS
10
-4.97622
20
5.85161
11
-4.88961
21
5.85161
0
LINE
8
BLACK
6
CONTINUOUS
10
-4.88961
20
5.85161
11
-4.88584
21
5.85086
0
LINE
8
BLACK
6
CONTINUOUS
10
-4.01576
20
5.85086
11
-4.01257
21
5.84873
0
LINE
8
BLACK
6
CONTINUOUS
10
-4.01257
20
5.84873
11
-4.01043
21
5.84554
0
LINE
8
BLACK
6
CONTINUOUS
10
-4.01043
20
5.84554
11
-4.00969
21
5.84177
0
LINE
8
BLACK
6
CONTINUOUS
10
-4.00969
20
5.84177
11
-4.00969
21
5.82209
0
LINE
8
BLACK
6
CONTINUOUS
10
-4.00969
20
5.82209
11
-4.01043
21
5.81832
0
LINE
8
BLACK
6
CONTINUOUS
10
-4.01043
20
5.81832
11
-4.01257
21
5.81513
0
LINE
8
BLACK
6
CONTINUOUS
10
-4.01257
20
5.81513
11
-4.01576
21
5.81299
0
LINE
8
BLACK
6
CONTINUOUS
10
-4.01576
20
5.81299
11
-4.01953
21
5.81224
0
LINE
8
BLACK
6
CONTINUOUS
10
-4.01953
20
5.81224
11
-4.10614
21
5.81224
0
LINE
8
BLACK
6
CONTINUOUS
10
-4.10614
20
5.81224
11
-4.10991
21
5.81299
0
LINE
8
BLACK
6
CONTINUOUS
10
-4.10991
20
5.81299
11
-4.1131
21
5.81513
0
LINE
8
BLACK
6
CONTINUOUS
10
-4.1131
20
5.81513
11
-4.11524
21
5.81832
0
LINE
8
BLACK
6
CONTINUOUS
10
-4.11524
20
5.81832
11
-4.11598
21
5.82209
0
LINE
8
BLACK
6
CONTINUOUS
10
-4.11598
20
5.82209
11
-4.11598
21
5.84177
0
LINE
8
BLACK
6
CONTINUOUS
10
-4.11598
20
5.84177
11
-4.11524
21
5.84554
0
LINE
8
BLACK
6
CONTINUOUS
10
-4.11524
20
5.84554
11
-4.1131
21
5.84873
0
LINE
8
BLACK
6
CONTINUOUS
10
-4.1131
20
5.84873
11
-4.10991
21
5.85086
0
LINE
8
BLACK
6
CONTINUOUS
10
-4.10991
20
5.85086
11
-4.10614
21
5.85161
0
LINE
8
BLACK
6
CONTINUOUS
10
-4.10614
20
5.85161
11
-4.01953
21
5.85161
0
LINE
8
BLACK
6
CONTINUOUS
10
-4.01953
20
5.85161
11
-4.01576
21
5.85086
0
LINE
8
BLACK
6
CONTINUOUS
10
-4.37616
20
5.86666
11
-4.37361
21
5.86496
0
LINE
8
BLACK
6
CONTINUOUS
10
-4.37361
20
5.86496
11
-4.3719
21
5.8624
0
LINE
8
BLACK
6
CONTINUOUS
10
-4.3719
20
5.8624
11
-4.3713
21
5.85939
0
LINE
8
BLACK
6
CONTINUOUS
10
-4.3713
20
5.85939
11
-4.3713
21
5.84364
0
LINE
8
BLACK
6
CONTINUOUS
10
-4.3713
20
5.84364
11
-4.3719
21
5.84063
0
LINE
8
BLACK
6
CONTINUOUS
10
-4.3719
20
5.84063
11
-4.37361
21
5.83807
0
LINE
8
BLACK
6
CONTINUOUS
10
-4.37361
20
5.83807
11
-4.37616
21
5.83637
0
LINE
8
BLACK
6
CONTINUOUS
10
-4.37616
20
5.83637
11
-4.37917
21
5.83577
0
LINE
8
BLACK
6
CONTINUOUS
10
-4.37917
20
5.83577
11
-4.40083
21
5.83577
0
LINE
8
BLACK
6
CONTINUOUS
10
-4.40083
20
5.83577
11
-4.40384
21
5.83637
0
LINE
8
BLACK
6
CONTINUOUS
10
-4.40384
20
5.83637
11
-4.40639
21
5.83807
0
LINE
8
BLACK
6
CONTINUOUS
10
-4.40639
20
5.83807
11
-4.4081
21
5.84063
0
LINE
8
BLACK
6
CONTINUOUS
10
-4.4081
20
5.84063
11
-4.4087
21
5.84364
0
LINE
8
BLACK
6
CONTINUOUS
10
-4.4087
20
5.84364
11
-4.4087
21
5.85939
0
LINE
8
BLACK
6
CONTINUOUS
10
-4.4087
20
5.85939
11
-4.4081
21
5.8624
0
LINE
8
BLACK
6
CONTINUOUS
10
-4.4081
20
5.8624
11
-4.40639
21
5.86496
0
LINE
8
BLACK
6
CONTINUOUS
10
-4.40639
20
5.86496
11
-4.40384
21
5.86666
0
LINE
8
BLACK
6
CONTINUOUS
10
-4.40384
20
5.86666
11
-4.40083
21
5.86726
0
LINE
8
BLACK
6
CONTINUOUS
10
-4.40083
20
5.86726
11
-4.37917
21
5.86726
0
LINE
8
BLACK
6
CONTINUOUS
10
-4.37917
20
5.86726
11
-4.37616
21
5.86666
0
LINE
8
BLACK
6
CONTINUOUS
10
-4.29616
20
5.86666
11
-4.29361
21
5.86496
0
LINE
8
BLACK
6
CONTINUOUS
10
-4.29361
20
5.86496
11
-4.2919
21
5.8624
0
LINE
8
BLACK
6
CONTINUOUS
10
-4.2919
20
5.8624
11
-4.2913
21
5.85939
0
LINE
8
BLACK
6
CONTINUOUS
10
-4.2913
20
5.85939
11
-4.2913
21
5.84364
0
LINE
8
BLACK
6
CONTINUOUS
10
-4.2913
20
5.84364
11
-4.2919
21
5.84063
0
LINE
8
BLACK
6
CONTINUOUS
10
-4.2919
20
5.84063
11
-4.29361
21
5.83807
0
LINE
8
BLACK
6
CONTINUOUS
10
-4.29361
20
5.83807
11
-4.29616
21
5.83637
0
LINE
8
BLACK
6
CONTINUOUS
10
-4.29616
20
5.83637
11
-4.29917
21
5.83577
0
LINE
8
BLACK
6
CONTINUOUS
10
-4.29917
20
5.83577
11
-4.32083
21
5.83577
0
LINE
8
BLACK
6
CONTINUOUS
10
-4.32083
20
5.83577
11
-4.32384
21
5.83637
0
LINE
8
BLACK
6
CONTINUOUS
10
-4.32384
20
5.83637
11
-4.32639
21
5.83807
0
LINE
8
BLACK
6
CONTINUOUS
10
-4.32639
20
5.83807
11
-4.3281
21
5.84063
0
LINE
8
BLACK
6
CONTINUOUS
10
-4.3281
20
5.84063
11
-4.3287
21
5.84364
0
LINE
8
BLACK
6
CONTINUOUS
10
-4.3287
20
5.84364
11
-4.3287
21
5.85939
0
LINE
8
BLACK
6
CONTINUOUS
10
-4.3287
20
5.85939
11
-4.3281
21
5.8624
0
LINE
8
BLACK
6
CONTINUOUS
10
-4.3281
20
5.8624
11
-4.32639
21
5.86496
0
LINE
8
BLACK
6
CONTINUOUS
10
-4.32639
20
5.86496
11
-4.32384
21
5.86666
0
LINE
8
BLACK
6
CONTINUOUS
10
-4.32384
20
5.86666
11
-4.32083
21
5.86726
0
LINE
8
BLACK
6
CONTINUOUS
10
-4.32083
20
5.86726
11
-4.29917
21
5.86726
0
LINE
8
BLACK
6
CONTINUOUS
10
-4.29917
20
5.86726
11
-4.29616
21
5.86666
0
LINE
8
BLACK
6
CONTINUOUS
10
-4.51059
20
5.9081
11
-4.50803
21
5.90639
0
LINE
8
BLACK
6
CONTINUOUS
10
-4.50803
20
5.90639
11
-4.50633
21
5.90384
0
LINE
8
BLACK
6
CONTINUOUS
10
-4.50633
20
5.90384
11
-4.50573
21
5.90083
0
LINE
8
BLACK
6
CONTINUOUS
10
-4.50573
20
5.90083
11
-4.50573
21
5.87917
0
LINE
8
BLACK
6
CONTINUOUS
10
-4.50573
20
5.87917
11
-4.50633
21
5.87616
0
LINE
8
BLACK
6
CONTINUOUS
10
-4.50633
20
5.87616
11
-4.50803
21
5.87361
0
LINE
8
BLACK
6
CONTINUOUS
10
-4.50803
20
5.87361
11
-4.51059
21
5.8719
0
LINE
8
BLACK
6
CONTINUOUS
10
-4.51059
20
5.8719
11
-4.5136
21
5.8713
0
LINE
8
BLACK
6
CONTINUOUS
10
-4.5136
20
5.8713
11
-4.52935
21
5.8713
0
LINE
8
BLACK
6
CONTINUOUS
10
-4.52935
20
5.8713
11
-4.53236
21
5.8719
0
LINE
8
BLACK
6
CONTINUOUS
10
-4.53236
20
5.8719
11
-4.53492
21
5.87361
0
LINE
8
BLACK
6
CONTINUOUS
10
-4.53492
20
5.87361
11
-4.53663
21
5.87616
0
LINE
8
BLACK
6
CONTINUOUS
10
-4.53663
20
5.87616
11
-4.53722
21
5.87917
0
LINE
8
BLACK
6
CONTINUOUS
10
-4.53722
20
5.87917
11
-4.53722
21
5.90083
0
LINE
8
BLACK
6
CONTINUOUS
10
-4.53722
20
5.90083
11
-4.53663
21
5.90384
0
LINE
8
BLACK
6
CONTINUOUS
10
-4.53663
20
5.90384
11
-4.53492
21
5.90639
0
LINE
8
BLACK
6
CONTINUOUS
10
-4.53492
20
5.90639
11
-4.53236
21
5.9081
0
LINE
8
BLACK
6
CONTINUOUS
10
-4.53236
20
5.9081
11
-4.52935
21
5.9087
0
LINE
8
BLACK
6
CONTINUOUS
10
-4.52935
20
5.9087
11
-4.5136
21
5.9087
0
LINE
8
BLACK
6
CONTINUOUS
10
-4.5136
20
5.9087
11
-4.51059
21
5.9081
0
LINE
8
BLACK
6
CONTINUOUS
10
-4.44563
20
5.9081
11
-4.44307
21
5.90639
0
LINE
8
BLACK
6
CONTINUOUS
10
-4.44307
20
5.90639
11
-4.44137
21
5.90384
0
LINE
8
BLACK
6
CONTINUOUS
10
-4.44137
20
5.90384
11
-4.44077
21
5.90083
0
LINE
8
BLACK
6
CONTINUOUS
10
-4.44077
20
5.90083
11
-4.44077
21
5.87917
0
LINE
8
BLACK
6
CONTINUOUS
10
-4.44077
20
5.87917
11
-4.44137
21
5.87616
0
LINE
8
BLACK
6
CONTINUOUS
10
-4.44137
20
5.87616
11
-4.44307
21
5.87361
0
LINE
8
BLACK
6
CONTINUOUS
10
-4.44307
20
5.87361
11
-4.44563
21
5.8719
0
LINE
8
BLACK
6
CONTINUOUS
10
-4.44563
20
5.8719
11
-4.44864
21
5.8713
0
LINE
8
BLACK
6
CONTINUOUS
10
-4.44864
20
5.8713
11
-4.46439
21
5.8713
0
LINE
8
BLACK
6
CONTINUOUS
10
-4.46439
20
5.8713
11
-4.4674
21
5.8719
0
LINE
8
BLACK
6
CONTINUOUS
10
-4.4674
20
5.8719
11
-4.46996
21
5.87361
0
LINE
8
BLACK
6
CONTINUOUS
10
-4.46996
20
5.87361
11
-4.47166
21
5.87616
0
LINE
8
BLACK
6
CONTINUOUS
10
-4.47166
20
5.87616
11
-4.47226
21
5.87917
0
LINE
8
BLACK
6
CONTINUOUS
10
-4.47226
20
5.87917
11
-4.47226
21
5.90083
0
LINE
8
BLACK
6
CONTINUOUS
10
-4.47226
20
5.90083
11
-4.47166
21
5.90384
0
LINE
8
BLACK
6
CONTINUOUS
10
-4.47166
20
5.90384
11
-4.46996
21
5.90639
0
LINE
8
BLACK
6
CONTINUOUS
10
-4.46996
20
5.90639
11
-4.4674
21
5.9081
0
LINE
8
BLACK
6
CONTINUOUS
10
-4.4674
20
5.9081
11
-4.46439
21
5.9087
0
LINE
8
BLACK
6
CONTINUOUS
10
-4.46439
20
5.9087
11
-4.44864
21
5.9087
0
LINE
8
BLACK
6
CONTINUOUS
10
-4.44864
20
5.9087
11
-4.44563
21
5.9081
0
LINE
8
BLACK
6
CONTINUOUS
10
-4.70566
20
5.93084
11
-4.70354
21
5.92942
0
LINE
8
BLACK
6
CONTINUOUS
10
-4.70354
20
5.92942
11
-4.70211
21
5.92729
0
LINE
8
BLACK
6
CONTINUOUS
10
-4.70211
20
5.92729
11
-4.70161
21
5.92478
0
LINE
8
BLACK
6
CONTINUOUS
10
-4.70161
20
5.92478
11
-4.70161
21
5.87885
0
LINE
8
BLACK
6
CONTINUOUS
10
-4.70161
20
5.87885
11
-4.70211
21
5.87633
0
LINE
8
BLACK
6
CONTINUOUS
10
-4.70211
20
5.87633
11
-4.70354
21
5.87421
0
LINE
8
BLACK
6
CONTINUOUS
10
-4.70354
20
5.87421
11
-4.70566
21
5.87278
0
LINE
8
BLACK
6
CONTINUOUS
10
-4.70566
20
5.87278
11
-4.70818
21
5.87228
0
LINE
8
BLACK
6
CONTINUOUS
10
-4.70818
20
5.87228
11
-4.74427
21
5.87228
0
LINE
8
BLACK
6
CONTINUOUS
10
-4.74427
20
5.87228
11
-4.74678
21
5.87278
0
LINE
8
BLACK
6
CONTINUOUS
10
-4.74678
20
5.87278
11
-4.7489
21
5.87421
0
LINE
8
BLACK
6
CONTINUOUS
10
-4.7489
20
5.87421
11
-4.75033
21
5.87633
0
LINE
8
BLACK
6
CONTINUOUS
10
-4.75033
20
5.87633
11
-4.75083
21
5.87885
0
LINE
8
BLACK
6
CONTINUOUS
10
-4.75083
20
5.87885
11
-4.75083
21
5.92478
0
LINE
8
BLACK
6
CONTINUOUS
10
-4.75083
20
5.92478
11
-4.75033
21
5.92729
0
LINE
8
BLACK
6
CONTINUOUS
10
-4.75033
20
5.92729
11
-4.7489
21
5.92942
0
LINE
8
BLACK
6
CONTINUOUS
10
-4.7489
20
5.92942
11
-4.74678
21
5.93084
0
LINE
8
BLACK
6
CONTINUOUS
10
-4.74678
20
5.93084
11
-4.74427
21
5.93134
0
LINE
8
BLACK
6
CONTINUOUS
10
-4.74427
20
5.93134
11
-4.70818
21
5.93134
0
LINE
8
BLACK
6
CONTINUOUS
10
-4.70818
20
5.93134
11
-4.70566
21
5.93084
0
LINE
8
BLACK
6
CONTINUOUS
10
-4.56393
20
5.93084
11
-4.5618
21
5.92942
0
LINE
8
BLACK
6
CONTINUOUS
10
-4.5618
20
5.92942
11
-4.56038
21
5.92729
0
LINE
8
BLACK
6
CONTINUOUS
10
-4.56038
20
5.92729
11
-4.55988
21
5.92478
0
LINE
8
BLACK
6
CONTINUOUS
10
-4.55988
20
5.92478
11
-4.55988
21
5.87885
0
LINE
8
BLACK
6
CONTINUOUS
10
-4.55988
20
5.87885
11
-4.56038
21
5.87633
0
LINE
8
BLACK
6
CONTINUOUS
10
-4.56038
20
5.87633
11
-4.5618
21
5.87421
0
LINE
8
BLACK
6
CONTINUOUS
10
-4.5618
20
5.87421
11
-4.56393
21
5.87278
0
LINE
8
BLACK
6
CONTINUOUS
10
-4.56393
20
5.87278
11
-4.56644
21
5.87228
0
LINE
8
BLACK
6
CONTINUOUS
10
-4.56644
20
5.87228
11
-4.60253
21
5.87228
0
LINE
8
BLACK
6
CONTINUOUS
10
-4.60253
20
5.87228
11
-4.60504
21
5.87278
0
LINE
8
BLACK
6
CONTINUOUS
10
-4.60504
20
5.87278
11
-4.60717
21
5.87421
0
LINE
8
BLACK
6
CONTINUOUS
10
-4.60717
20
5.87421
11
-4.6086
21
5.87633
0
LINE
8
BLACK
6
CONTINUOUS
10
-4.6086
20
5.87633
11
-4.60909
21
5.87885
0
LINE
8
BLACK
6
CONTINUOUS
10
-4.60909
20
5.87885
11
-4.60909
21
5.92478
0
LINE
8
BLACK
6
CONTINUOUS
10
-4.60909
20
5.92478
11
-4.6086
21
5.92729
0
LINE
8
BLACK
6
CONTINUOUS
10
-4.6086
20
5.92729
11
-4.60717
21
5.92942
0
LINE
8
BLACK
6
CONTINUOUS
10
-4.60717
20
5.92942
11
-4.60504
21
5.93084
0
LINE
8
BLACK
6
CONTINUOUS
10
-4.60504
20
5.93084
11
-4.60253
21
5.93134
0
LINE
8
BLACK
6
CONTINUOUS
10
-4.60253
20
5.93134
11
-4.56644
21
5.93134
0
LINE
8
BLACK
6
CONTINUOUS
10
-4.56644
20
5.93134
11
-4.56393
21
5.93084
0
LINE
8
BLACK
6
CONTINUOUS
10
-4.37616
20
5.93163
11
-4.37361
21
5.92992
0
LINE
8
BLACK
6
CONTINUOUS
10
-4.37361
20
5.92992
11
-4.3719
21
5.92736
0
LINE
8
BLACK
6
CONTINUOUS
10
-4.3719
20
5.92736
11
-4.3713
21
5.92435
0
LINE
8
BLACK
6
CONTINUOUS
10
-4.3713
20
5.92435
11
-4.3713
21
5.9086
0
LINE
8
BLACK
6
CONTINUOUS
10
-4.3713
20
5.9086
11
-4.3719
21
5.90559
0
LINE
8
BLACK
6
CONTINUOUS
10
-4.3719
20
5.90559
11
-4.37361
21
5.90303
0
LINE
8
BLACK
6
CONTINUOUS
10
-4.37361
20
5.90303
11
-4.37616
21
5.90133
0
LINE
8
BLACK
6
CONTINUOUS
10
-4.37616
20
5.90133
11
-4.37917
21
5.90073
0
LINE
8
BLACK
6
CONTINUOUS
10
-4.37917
20
5.90073
11
-4.40083
21
5.90073
0
LINE
8
BLACK
6
CONTINUOUS
10
-4.40083
20
5.90073
11
-4.40384
21
5.90133
0
LINE
8
BLACK
6
CONTINUOUS
10
-4.40384
20
5.90133
11
-4.40639
21
5.90303
0
LINE
8
BLACK
6
CONTINUOUS
10
-4.40639
20
5.90303
11
-4.4081
21
5.90559
0
LINE
8
BLACK
6
CONTINUOUS
10
-4.4081
20
5.90559
11
-4.4087
21
5.9086
0
LINE
8
BLACK
6
CONTINUOUS
10
-4.4087
20
5.9086
11
-4.4087
21
5.92435
0
LINE
8
BLACK
6
CONTINUOUS
10
-4.4087
20
5.92435
11
-4.4081
21
5.92736
0
LINE
8
BLACK
6
CONTINUOUS
10
-4.4081
20
5.92736
11
-4.40639
21
5.92992
0
LINE
8
BLACK
6
CONTINUOUS
10
-4.40639
20
5.92992
11
-4.40384
21
5.93163
0
LINE
8
BLACK
6
CONTINUOUS
10
-4.40384
20
5.93163
11
-4.40083
21
5.93222
0
LINE
8
BLACK
6
CONTINUOUS
10
-4.40083
20
5.93222
11
-4.37917
21
5.93222
0
LINE
8
BLACK
6
CONTINUOUS
10
-4.37917
20
5.93222
11
-4.37616
21
5.93163
0
LINE
8
BLACK
6
CONTINUOUS
10
-4.29616
20
5.93163
11
-4.29361
21
5.92992
0
LINE
8
BLACK
6
CONTINUOUS
10
-4.29361
20
5.92992
11
-4.2919
21
5.92736
0
LINE
8
BLACK
6
CONTINUOUS
10
-4.2919
20
5.92736
11
-4.2913
21
5.92435
0
LINE
8
BLACK
6
CONTINUOUS
10
-4.2913
20
5.92435
11
-4.2913
21
5.9086
0
LINE
8
BLACK
6
CONTINUOUS
10
-4.2913
20
5.9086
11
-4.2919
21
5.90559
0
LINE
8
BLACK
6
CONTINUOUS
10
-4.2919
20
5.90559
11
-4.29361
21
5.90303
0
LINE
8
BLACK
6
CONTINUOUS
10
-4.29361
20
5.90303
11
-4.29616
21
5.90133
0
LINE
8
BLACK
6
CONTINUOUS
10
-4.29616
20
5.90133
11
-4.29917
21
5.90073
0
LINE
8
BLACK
6
CONTINUOUS
10
-4.29917
20
5.90073
11
-4.32083
21
5.90073
0
LINE
8
BLACK
6
CONTINUOUS
10
-4.32083
20
5.90073
11
-4.32384
21
5.90133
0
LINE
8
BLACK
6
CONTINUOUS
10
-4.32384
20
5.90133
11
-4.32639
21
5.90303
0
LINE
8
BLACK
6
CONTINUOUS
10
-4.32639
20
5.90303
11
-4.3281
21
5.90559
0
LINE
8
BLACK
6
CONTINUOUS
10
-4.3281
20
5.90559
11
-4.3287
21
5.9086
0
LINE
8
BLACK
6
CONTINUOUS
10
-4.3287
20
5.9086
11
-4.3287
21
5.92435
0
LINE
8
BLACK
6
CONTINUOUS
10
-4.3287
20
5.92435
11
-4.3281
21
5.92736
0
LINE
8
BLACK
6
CONTINUOUS
10
-4.3281
20
5.92736
11
-4.32639
21
5.92992
0
LINE
8
BLACK
6
CONTINUOUS
10
-4.32639
20
5.92992
11
-4.32384
21
5.93163
0
LINE
8
BLACK
6
CONTINUOUS
10
-4.32384
20
5.93163
11
-4.32083
21
5.93222
0
LINE
8
BLACK
6
CONTINUOUS
10
-4.32083
20
5.93222
11
-4.29917
21
5.93222
0
LINE
8
BLACK
6
CONTINUOUS
10
-4.29917
20
5.93222
11
-4.29616
21
5.93163
  0
ENDSEC
  0
EOF
