  0
SECTION
  2
HEADER
  9
$ANGBASE
  50
0.0
  9
$ANGDIR
  70
1
  9
$MEASUREMENT
  70
0
  0
ENDSEC
  0
SECTION
  2
TABLES
  0
TABLE
  2
LTYPE
  70
4
  0
LTYPE
  5
40F
  2
CONTINUOUS
  70
0
  3
Solid line
  72
65
  73
0
  40
0.0
  0
LTYPE
  5
410
  2
DASHDOT
 70
0
  3
Dash Dot ____ _ ____ _
 72
65
 73
4
 40
2.0
 49
1.25
 49
-0.25
 49
0.25
 49
-0.25
  0
LTYPE
  5
411
  2
DASHED
 70
0
  3
Dashed __ __ __ __ __
 72
65
 73
2
 40
0.75
 49
0.5
 49
-0.25
  0
LTYPE
  5
43B
  2
DOTTED
 70
0
  3
Dotted .  .  .  .
 72
65
 73
2
 40
0.2
 49
0.0
 49
-0.2
  0
ENDTAB
  0
TABLE
  2
STYLE
  70
4
  0
STYLE
  2
KICAD
  70
0
  40
0
  41
1
  42
1
  50
0
  71
0
  3
isocp.shx
  0
STYLE
  2
KICADB
  70
0
  40
0
  41
1
  42
1
  50
0
  71
0
  3
isocp.shx
  0
STYLE
  2
KICADI
  70
0
  40
0
  41
1
  42
1
  50
15
  71
0
  3
isocp.shx
  0
STYLE
  2
KICADBI
  70
0
  40
0
  41
1
  42
1
  50
15
  71
0
  3
isocp.shx
  0
ENDTAB
  0
TABLE
  2
LAYER
  70
1
  0
LAYER
  2
BLACK
  70
0
  62
7
  6
CONTINUOUS
  0
ENDTAB
  0
ENDSEC
  0
SECTION
  2
ENTITIES
0
LINE
8
BLACK
6
CONTINUOUS
10
-4.745452401574803
20
5.4902918503937004
11
-4.7279959055118113
21
5.4728353543307087
0
LINE
8
BLACK
6
CONTINUOUS
10
-4.7279959055118113
20
5.4728353543307087
11
-4.7279959055118113
21
5.4882039370078735
0
LINE
8
BLACK
6
CONTINUOUS
10
-4.7279959055118113
20
5.4882039370078735
11
-4.727817834645669
21
5.4892138582677168
0
LINE
8
BLACK
6
CONTINUOUS
10
-4.727817834645669
20
5.4892138582677168
11
-4.7265195275590548
21
5.4907611023622049
0
LINE
8
BLACK
6
CONTINUOUS
10
-4.7265195275590548
20
5.4907611023622049
11
-4.7245303937007872
21
5.4911118503937004
0
LINE
8
BLACK
6
CONTINUOUS
10
-4.7245303937007872
20
5.4911118503937004
11
-4.7227812204724406
21
5.490101929133858
0
LINE
8
BLACK
6
CONTINUOUS
10
-4.7227812204724406
20
5.490101929133858
11
-4.7220903937007872
21
5.4882039370078735
0
LINE
8
BLACK
6
CONTINUOUS
10
-4.7220903937007872
20
5.4882039370078735
11
-4.7220903937007872
21
5.448833858267716
0
LINE
8
BLACK
6
CONTINUOUS
10
-4.7220903937007872
20
5.448833858267716
11
-4.7222684645669286
21
5.4478239370078736
0
LINE
8
BLACK
6
CONTINUOUS
10
-4.7222684645669286
20
5.4478239370078736
11
-4.7235667716535428
21
5.4462766929133855
0
LINE
8
BLACK
6
CONTINUOUS
10
-4.7235667716535428
20
5.4462766929133855
11
-4.7255559055118113
21
5.44592594488189
0
LINE
8
BLACK
6
CONTINUOUS
10
-4.7255559055118113
20
5.44592594488189
11
-4.7273050787401569
21
5.4469358661417324
0
LINE
8
BLACK
6
CONTINUOUS
10
-4.7273050787401569
20
5.4469358661417324
11
-4.7279959055118113
21
5.448833858267716
0
LINE
8
BLACK
6
CONTINUOUS
10
-4.7279959055118113
20
5.448833858267716
11
-4.7279959055118113
21
5.4644837007874019
0
LINE
8
BLACK
6
CONTINUOUS
10
-4.7279959055118113
20
5.4644837007874019
11
-4.7303479921259841
21
5.466835748031496
0
LINE
8
BLACK
6
CONTINUOUS
10
-4.7303479921259841
20
5.466835748031496
11
-4.7451781102362203
21
5.4470622047244097
0
LINE
8
BLACK
6
CONTINUOUS
10
-4.7451781102362203
20
5.4470622047244097
11
-4.7459265354330711
21
5.4463611023622045
0
LINE
8
BLACK
6
CONTINUOUS
10
-4.7459265354330711
20
5.4463611023622045
11
-4.747893503937008
21
5.4459022834645667
0
LINE
8
BLACK
6
CONTINUOUS
10
-4.747893503937008
20
5.4459022834645667
11
-4.7496952755905513
21
5.4468151968503937
0
LINE
8
BLACK
6
CONTINUOUS
10
-4.7496952755905513
20
5.4468151968503937
11
-4.7504886614173225
21
5.4486726377952754
0
LINE
8
BLACK
6
CONTINUOUS
10
-4.7504886614173225
20
5.4486726377952754
11
-4.7499025196850395
21
5.4506055118110233
0
LINE
8
BLACK
6
CONTINUOUS
10
-4.7499025196850395
20
5.4506055118110233
11
-4.7345662204724412
21
5.4710539763779522
0
LINE
8
BLACK
6
CONTINUOUS
10
-4.7345662204724412
20
5.4710539763779522
11
-4.7496282283464568
21
5.4861160236220474
0
LINE
8
BLACK
6
CONTINUOUS
10
-4.7496282283464568
20
5.4861160236220474
11
-4.7502164173228349
21
5.4869560629921255
0
LINE
8
BLACK
6
CONTINUOUS
10
-4.7502164173228349
20
5.4869560629921255
11
-4.7503924803149609
21
5.4889681496062988
0
LINE
8
BLACK
6
CONTINUOUS
10
-4.7503924803149609
20
5.4889681496062988
11
-4.7492339370078742
21
5.4906227165354329
0
LINE
8
BLACK
6
CONTINUOUS
10
-4.7492339370078742
20
5.4906227165354329
11
-4.7472829921259843
21
5.4911454330708658
0
LINE
8
BLACK
6
CONTINUOUS
10
-4.7472829921259843
20
5.4911454330708658
11
-4.745452401574803
21
5.4902918503937004
0
LINE
8
BLACK
6
CONTINUOUS
10
-4.8722367716535429
20
5.6749516535433067
11
-4.8721724015748027
21
5.6749534251968505
0
LINE
8
BLACK
6
CONTINUOUS
10
-4.8721724015748027
20
5.6749534251968505
11
-4.86654811023622
21
5.673078661417323
0
LINE
8
BLACK
6
CONTINUOUS
10
-4.86654811023622
20
5.673078661417323
11
-4.8656463385826774
21
5.6725903937007871
0
LINE
8
BLACK
6
CONTINUOUS
10
-4.8656463385826774
20
5.6725903937007871
11
-4.8655539370078742
21
5.6724399212598424
0
LINE
8
BLACK
6
CONTINUOUS
10
-4.8655539370078742
20
5.6724399212598424
11
-4.865393937007874
21
5.6723653543307089
0
LINE
8
BLACK
6
CONTINUOUS
10
-4.865393937007874
20
5.6723653543307089
11
-4.8616443700787402
21
5.6686158267716538
0
LINE
8
BLACK
6
CONTINUOUS
10
-4.8616443700787402
20
5.6686158267716538
11
-4.8610561417322833
21
5.6677757874015748
0
LINE
8
BLACK
6
CONTINUOUS
10
-4.8610561417322833
20
5.6677757874015748
11
-4.8610407874015751
21
5.6675998425196852
0
LINE
8
BLACK
6
CONTINUOUS
10
-4.8610407874015751
20
5.6675998425196852
11
-4.8609310629921261
21
5.6674616535433069
0
LINE
8
BLACK
6
CONTINUOUS
10
-4.8609310629921261
20
5.6674616535433069
11
-4.8590562992125985
21
5.661837401574803
0
LINE
8
BLACK
6
CONTINUOUS
10
-4.8590562992125985
20
5.661837401574803
11
-4.8589268110236219
21
5.6609641338582675
0
LINE
8
BLACK
6
CONTINUOUS
10
-4.8589268110236219
20
5.6609641338582675
11
-4.8589047637795275
21
5.6609036220472442
0
LINE
8
BLACK
6
CONTINUOUS
10
-4.8589047637795275
20
5.6609036220472442
11
-4.8589047637795275
21
5.6571540944881891
0
LINE
8
BLACK
6
CONTINUOUS
10
-4.8589047637795275
20
5.6571540944881891
11
-4.8590828346456689
21
5.6561441732283466
0
LINE
8
BLACK
6
CONTINUOUS
10
-4.8590828346456689
20
5.6561441732283466
11
-4.8603811417322831
21
5.6545969291338585
0
LINE
8
BLACK
6
CONTINUOUS
10
-4.8603811417322831
20
5.6545969291338585
11
-4.8623702755905507
21
5.6542461811023621
0
LINE
8
BLACK
6
CONTINUOUS
10
-4.8623702755905507
20
5.6542461811023621
11
-4.8641194488188972
21
5.6552561023622046
0
LINE
8
BLACK
6
CONTINUOUS
10
-4.8641194488188972
20
5.6552561023622046
11
-4.8648102755905507
21
5.6571540944881891
0
LINE
8
BLACK
6
CONTINUOUS
10
-4.8648102755905507
20
5.6571540944881891
11
-4.8648102755905507
21
5.6604244881889763
0
LINE
8
BLACK
6
CONTINUOUS
10
-4.8648102755905507
20
5.6604244881889763
11
-4.8663130708661413
21
5.6649328346456693
0
LINE
8
BLACK
6
CONTINUOUS
10
-4.8663130708661413
20
5.6649328346456693
11
-4.8690768897637797
21
5.6676966141732281
0
LINE
8
BLACK
6
CONTINUOUS
10
-4.8690768897637797
20
5.6676966141732281
11
-4.8735852755905507
21
5.6691994488188975
0
LINE
8
BLACK
6
CONTINUOUS
10
-4.8735852755905507
20
5.6691994488188975
11
-4.901227598425197
21
5.6691994488188975
0
LINE
8
BLACK
6
CONTINUOUS
10
-4.901227598425197
20
5.6691994488188975
11
-4.9022375196850394
21
5.6693775196850389
0
LINE
8
BLACK
6
CONTINUOUS
10
-4.9022375196850394
20
5.6693775196850389
11
-4.9037847637795275
21
5.670675826771653
0
LINE
8
BLACK
6
CONTINUOUS
10
-4.9037847637795275
20
5.670675826771653
11
-4.9041355118110239
21
5.6726649606299215
0
LINE
8
BLACK
6
CONTINUOUS
10
-4.9041355118110239
20
5.6726649606299215
11
-4.9031255905511806
21
5.6744141338582672
0
LINE
8
BLACK
6
CONTINUOUS
10
-4.9031255905511806
20
5.6744141338582672
11
-4.901227598425197
21
5.6751049606299215
0
LINE
8
BLACK
6
CONTINUOUS
10
-4.901227598425197
20
5.6751049606299215
11
-4.8731061417322836
21
5.6751049606299215
0
LINE
8
BLACK
6
CONTINUOUS
10
-4.8731061417322836
20
5.6751049606299215
11
-4.8722367716535429
21
5.6749516535433067
0
LINE
8
BLACK
6
CONTINUOUS
10
-4.8891096456692908
20
5.7143217322834641
11
-4.8890452755905507
21
5.7143235039370079
0
LINE
8
BLACK
6
CONTINUOUS
10
-4.8890452755905507
20
5.7143235039370079
11
-4.883420984251968
21
5.7124487401574804
0
LINE
8
BLACK
6
CONTINUOUS
10
-4.883420984251968
20
5.7124487401574804
11
-4.8825192125984254
21
5.7119604724409445
0
LINE
8
BLACK
6
CONTINUOUS
10
-4.8825192125984254
20
5.7119604724409445
11
-4.8824268110236222
21
5.7118099999999998
0
LINE
8
BLACK
6
CONTINUOUS
10
-4.8824268110236222
20
5.7118099999999998
11
-4.882266811023622
21
5.7117354330708663
0
LINE
8
BLACK
6
CONTINUOUS
10
-4.882266811023622
20
5.7117354330708663
11
-4.8648102755905507
21
5.6942788976377949
0
LINE
8
BLACK
6
CONTINUOUS
10
-4.8648102755905507
20
5.6942788976377949
11
-4.8648102755905507
21
5.7115222834645669
0
LINE
8
BLACK
6
CONTINUOUS
10
-4.8648102755905507
20
5.7115222834645669
11
-4.8646322047244093
21
5.7125322047244094
0
LINE
8
BLACK
6
CONTINUOUS
10
-4.8646322047244093
20
5.7125322047244094
11
-4.8633338976377951
21
5.7140794488188975
0
LINE
8
BLACK
6
CONTINUOUS
10
-4.8633338976377951
20
5.7140794488188975
11
-4.8613447637795275
21
5.7144301968503939
0
LINE
8
BLACK
6
CONTINUOUS
10
-4.8613447637795275
20
5.7144301968503939
11
-4.859595590551181
21
5.7134202755905514
0
LINE
8
BLACK
6
CONTINUOUS
10
-4.859595590551181
20
5.7134202755905514
11
-4.8589047637795275
21
5.7115222834645669
0
LINE
8
BLACK
6
CONTINUOUS
10
-4.8589047637795275
20
5.7115222834645669
11
-4.8589047637795275
21
5.6871503543307087
0
LINE
8
BLACK
6
CONTINUOUS
10
-4.8589047637795275
20
5.6871503543307087
11
-4.8590166929133858
21
5.6865155905511813
0
LINE
8
BLACK
6
CONTINUOUS
10
-4.8590166929133858
20
5.6865155905511813
11
-4.8590053543307086
21
5.6863861417322834
0
LINE
8
BLACK
6
CONTINUOUS
10
-4.8590053543307086
20
5.6863861417322834
11
-4.8590510236220474
21
5.6863209055118107
0
LINE
8
BLACK
6
CONTINUOUS
10
-4.8590510236220474
20
5.6863209055118107
11
-4.8590828346456689
21
5.6861404330708663
0
LINE
8
BLACK
6
CONTINUOUS
10
-4.8590828346456689
20
5.6861404330708663
11
-4.8596541338582675
21
5.6854595669291337
0
LINE
8
BLACK
6
CONTINUOUS
10
-4.8596541338582675
20
5.6854595669291337
11
-4.8601638976377952
21
5.6847315748031493
0
LINE
8
BLACK
6
CONTINUOUS
10
-4.8601638976377952
20
5.6847315748031493
11
-4.8602943700787398
21
5.6846966141732285
0
LINE
8
BLACK
6
CONTINUOUS
10
-4.8602943700787398
20
5.6846966141732285
11
-4.8603811417322831
21
5.6845931889763781
0
LINE
8
BLACK
6
CONTINUOUS
10
-4.8603811417322831
20
5.6845931889763781
11
-4.8612564960629916
21
5.6844388188976378
0
LINE
8
BLACK
6
CONTINUOUS
10
-4.8612564960629916
20
5.6844388188976378
11
-4.8621148425196852
21
5.6842088582677164
0
LINE
8
BLACK
6
CONTINUOUS
10
-4.8621148425196852
20
5.6842088582677164
11
-4.8622372047244093
21
5.6842659055118112
0
LINE
8
BLACK
6
CONTINUOUS
10
-4.8622372047244093
20
5.6842659055118112
11
-4.8623702755905507
21
5.6842424409448817
0
LINE
8
BLACK
6
CONTINUOUS
10
-4.8623702755905507
20
5.6842424409448817
11
-4.8631401968503933
21
5.684686929133858
0
LINE
8
BLACK
6
CONTINUOUS
10
-4.8631401968503933
20
5.684686929133858
11
-4.8639454330708665
21
5.6850624409448818
0
LINE
8
BLACK
6
CONTINUOUS
10
-4.8639454330708665
20
5.6850624409448818
11
-4.8859497637795277
21
5.7070666929133855
0
LINE
8
BLACK
6
CONTINUOUS
10
-4.8859497637795277
20
5.7070666929133855
11
-4.8904581496062995
21
5.7085695275590549
0
LINE
8
BLACK
6
CONTINUOUS
10
-4.8904581496062995
20
5.7085695275590549
11
-4.8930314960629921
21
5.7085695275590549
0
LINE
8
BLACK
6
CONTINUOUS
10
-4.8930314960629921
20
5.7085695275590549
11
-4.8957289763779528
21
5.7072207874015746
0
LINE
8
BLACK
6
CONTINUOUS
10
-4.8957289763779528
20
5.7072207874015746
11
-4.8969261023622046
21
5.7060236614173228
0
LINE
8
BLACK
6
CONTINUOUS
10
-4.8969261023622046
20
5.7060236614173228
11
-4.8982748425196849
21
5.7033261811023621
0
LINE
8
BLACK
6
CONTINUOUS
10
-4.8982748425196849
20
5.7033261811023621
11
-4.8982748425196849
21
5.6953464566929135
0
LINE
8
BLACK
6
CONTINUOUS
10
-4.8982748425196849
20
5.6953464566929135
11
-4.8969261023622046
21
5.6926489763779529
0
LINE
8
BLACK
6
CONTINUOUS
10
-4.8969261023622046
20
5.6926489763779529
11
-4.8953901574803149
21
5.6911130314960632
0
LINE
8
BLACK
6
CONTINUOUS
10
-4.8953901574803149
20
5.6911130314960632
11
-4.8948019685039368
21
5.6902729921259843
0
LINE
8
BLACK
6
CONTINUOUS
10
-4.8948019685039368
20
5.6902729921259843
11
-4.8946259448818896
21
5.688260905511811
0
LINE
8
BLACK
6
CONTINUOUS
10
-4.8946259448818896
20
5.688260905511811
11
-4.8957844488188975
21
5.6866063385826768
0
LINE
8
BLACK
6
CONTINUOUS
10
-4.8957844488188975
20
5.6866063385826768
11
-4.8977354330708662
21
5.6860836220472439
0
LINE
8
BLACK
6
CONTINUOUS
10
-4.8977354330708662
20
5.6860836220472439
11
-4.8995659842519688
21
5.6869372047244093
0
LINE
8
BLACK
6
CONTINUOUS
10
-4.8995659842519688
20
5.6869372047244093
11
-4.9014407480314963
21
5.6888119685039369
0
LINE
8
BLACK
6
CONTINUOUS
10
-4.9014407480314963
20
5.6888119685039369
11
-4.9019470472440947
21
5.689535039370079
0
LINE
8
BLACK
6
CONTINUOUS
10
-4.9019470472440947
20
5.689535039370079
11
-4.9019938582677165
21
5.6895793700787403
0
LINE
8
BLACK
6
CONTINUOUS
10
-4.9019938582677165
20
5.6895793700787403
11
-4.9038686220472441
21
5.6933288976377954
0
LINE
8
BLACK
6
CONTINUOUS
10
-4.9038686220472441
20
5.6933288976377954
11
-4.904160984251968
21
5.6943118503937002
0
LINE
8
BLACK
6
CONTINUOUS
10
-4.904160984251968
20
5.6943118503937002
11
-4.9041199999999998
21
5.6944835039370076
0
LINE
8
BLACK
6
CONTINUOUS
10
-4.9041199999999998
20
5.6944835039370076
11
-4.904180354330709
21
5.6946494094488189
0
LINE
8
BLACK
6
CONTINUOUS
10
-4.904180354330709
20
5.6946494094488189
11
-4.904180354330709
21
5.7040232283464567
0
LINE
8
BLACK
6
CONTINUOUS
10
-4.904180354330709
20
5.7040232283464567
11
-4.9040022834645667
21
5.7050331496062991
0
LINE
8
BLACK
6
CONTINUOUS
10
-4.9040022834645667
20
5.7050331496062991
11
-4.9038888188976379
21
5.7051683858267719
0
LINE
8
BLACK
6
CONTINUOUS
10
-4.9038888188976379
20
5.7051683858267719
11
-4.9038686220472441
21
5.7053437401574802
0
LINE
8
BLACK
6
CONTINUOUS
10
-4.9038686220472441
20
5.7053437401574802
11
-4.9019938582677165
21
5.7090932677165354
0
LINE
8
BLACK
6
CONTINUOUS
10
-4.9019938582677165
20
5.7090932677165354
11
-4.9014679527559055
21
5.7098023228346459
0
LINE
8
BLACK
6
CONTINUOUS
10
-4.9014679527559055
20
5.7098023228346459
11
-4.9014407480314963
21
5.7098606692913387
0
LINE
8
BLACK
6
CONTINUOUS
10
-4.9014407480314963
20
5.7098606692913387
11
-4.8995659842519688
21
5.7117354330708663
0
LINE
8
BLACK
6
CONTINUOUS
10
-4.8995659842519688
20
5.7117354330708663
11
-4.8988429133858267
21
5.7122416929133859
0
LINE
8
BLACK
6
CONTINUOUS
10
-4.8988429133858267
20
5.7122416929133859
11
-4.8987985826771654
21
5.7122885433070865
0
LINE
8
BLACK
6
CONTINUOUS
10
-4.8987985826771654
20
5.7122885433070865
11
-4.8950490551181103
21
5.714163307086614
0
LINE
8
BLACK
6
CONTINUOUS
10
-4.8950490551181103
20
5.714163307086614
11
-4.8940661417322833
21
5.7144556692913389
0
LINE
8
BLACK
6
CONTINUOUS
10
-4.8940661417322833
20
5.7144556692913389
11
-4.8938944488188971
21
5.714414645669291
0
LINE
8
BLACK
6
CONTINUOUS
10
-4.8938944488188971
20
5.714414645669291
11
-4.8937285433070867
21
5.7144750393700789
0
LINE
8
BLACK
6
CONTINUOUS
10
-4.8937285433070867
20
5.7144750393700789
11
-4.8899790157480316
21
5.7144750393700789
0
LINE
8
BLACK
6
CONTINUOUS
10
-4.8899790157480316
20
5.7144750393700789
11
-4.8891096456692908
21
5.7143217322834641
0
LINE
8
BLACK
6
CONTINUOUS
10
-4.8167716535433067
20
5.8496456692913386
11
-4.8153797244094489
21
5.8490690944881889
0
LINE
8
BLACK
6
CONTINUOUS
10
-4.8153797244094489
20
5.8490690944881889
11
-4.8148031496062993
21
5.8476771653543302
0
LINE
8
BLACK
6
CONTINUOUS
10
-4.8148031496062993
20
5.8476771653543302
11
-4.8148031496062993
21
5.5228740157480312
0
LINE
8
BLACK
6
CONTINUOUS
10
-4.8148031496062993
20
5.5228740157480312
11
-4.8153797244094489
21
5.5214820866141734
0
LINE
8
BLACK
6
CONTINUOUS
10
-4.8153797244094489
20
5.5214820866141734
11
-4.8167716535433067
21
5.5209055118110237
0
LINE
8
BLACK
6
CONTINUOUS
10
-4.8167716535433067
20
5.5209055118110237
11
-4.9762204724409447
21
5.5209055118110237
0
LINE
8
BLACK
6
CONTINUOUS
10
-4.9762204724409447
20
5.5209055118110237
11
-4.9776124015748033
21
5.5214820866141734
0
LINE
8
BLACK
6
CONTINUOUS
10
-4.9776124015748033
20
5.5214820866141734
11
-4.978188976377953
21
5.5228740157480312
0
LINE
8
BLACK
6
CONTINUOUS
10
-4.978188976377953
20
5.5228740157480312
11
-4.978188976377953
21
5.8476771653543302
0
LINE
8
BLACK
6
CONTINUOUS
10
-4.978188976377953
20
5.8476771653543302
11
-4.9776124015748033
21
5.8490690944881889
0
LINE
8
BLACK
6
CONTINUOUS
10
-4.9776124015748033
20
5.8490690944881889
11
-4.9762204724409447
21
5.8496456692913386
0
LINE
8
BLACK
6
CONTINUOUS
10
-4.9762204724409447
20
5.8496456692913386
11
-4.8167716535433067
21
5.8496456692913386
0
LINE
8
BLACK
6
CONTINUOUS
10
-4.9742519685039372
20
5.8457086614173228
11
-4.9742519685039372
21
5.5248425196850395
0
LINE
8
BLACK
6
CONTINUOUS
10
-4.9742519685039372
20
5.5248425196850395
11
-4.818740157480315
21
5.5248425196850395
0
LINE
8
BLACK
6
CONTINUOUS
10
-4.818740157480315
20
5.5248425196850395
11
-4.818740157480315
21
5.7383904724409449
0
LINE
8
BLACK
6
CONTINUOUS
10
-4.818740157480315
20
5.7383904724409449
11
-4.8457470472440942
21
5.7574872047244092
0
LINE
8
BLACK
6
CONTINUOUS
10
-4.8457470472440942
20
5.7574872047244092
11
-4.8459290944881888
21
5.757775905511811
0
LINE
8
BLACK
6
CONTINUOUS
10
-4.8459290944881888
20
5.757775905511811
11
-4.8462177952755905
21
5.7579579527559055
0
LINE
8
BLACK
6
CONTINUOUS
10
-4.8462177952755905
20
5.7579579527559055
11
-4.8463153149606297
21
5.7583883858267715
0
LINE
8
BLACK
6
CONTINUOUS
10
-4.8463153149606297
20
5.7583883858267715
11
-4.8465506299212597
21
5.7587616141732285
0
LINE
8
BLACK
6
CONTINUOUS
10
-4.8465506299212597
20
5.7587616141732285
11
-4.8464752362204724
21
5.7590944881889765
0
LINE
8
BLACK
6
CONTINUOUS
10
-4.8464752362204724
20
5.7590944881889765
11
-4.8465506299212597
21
5.7594273622047245
0
LINE
8
BLACK
6
CONTINUOUS
10
-4.8465506299212597
20
5.7594273622047245
11
-4.8463153149606297
21
5.7598005511811019
0
LINE
8
BLACK
6
CONTINUOUS
10
-4.8463153149606297
20
5.7598005511811019
11
-4.8462177952755905
21
5.7602310236220475
0
LINE
8
BLACK
6
CONTINUOUS
10
-4.8462177952755905
20
5.7602310236220475
11
-4.8459290944881888
21
5.7604130314960624
0
LINE
8
BLACK
6
CONTINUOUS
10
-4.8459290944881888
20
5.7604130314960624
11
-4.8457470472440942
21
5.7607017716535429
0
LINE
8
BLACK
6
CONTINUOUS
10
-4.8457470472440942
20
5.7607017716535429
11
-4.818740157480315
21
5.7797984645669294
0
LINE
8
BLACK
6
CONTINUOUS
10
-4.818740157480315
20
5.7797984645669294
11
-4.818740157480315
21
5.8457086614173228
0
LINE
8
BLACK
6
CONTINUOUS
10
-4.818740157480315
20
5.8457086614173228
11
-4.9742519685039372
21
5.8457086614173228
0
LINE
8
BLACK
6
CONTINUOUS
10
-4.8412009448818898
20
5.7590944881889765
11
-4.818740157480315
21
5.7432123228346459
0
LINE
8
BLACK
6
CONTINUOUS
10
-4.818740157480315
20
5.7432123228346459
11
-4.818740157480315
21
5.7749766141732284
0
LINE
8
BLACK
6
CONTINUOUS
10
-4.818740157480315
20
5.7749766141732284
11
-4.8412009448818898
21
5.7590944881889765
0
LINE
8
BLACK
6
CONTINUOUS
10
-4.1084572440944882
20
5.6749516535433067
11
-4.108392874015748
21
5.6749534251968505
0
LINE
8
BLACK
6
CONTINUOUS
10
-4.108392874015748
20
5.6749534251968505
11
-4.1027685826771654
21
5.673078661417323
0
LINE
8
BLACK
6
CONTINUOUS
10
-4.1027685826771654
20
5.673078661417323
11
-4.1018668110236218
21
5.6725903937007871
0
LINE
8
BLACK
6
CONTINUOUS
10
-4.1018668110236218
20
5.6725903937007871
11
-4.1017744094488187
21
5.6724399212598424
0
LINE
8
BLACK
6
CONTINUOUS
10
-4.1017744094488187
20
5.6724399212598424
11
-4.1016144094488185
21
5.6723653543307089
0
LINE
8
BLACK
6
CONTINUOUS
10
-4.1016144094488185
20
5.6723653543307089
11
-4.0978648425196846
21
5.6686158267716538
0
LINE
8
BLACK
6
CONTINUOUS
10
-4.0978648425196846
20
5.6686158267716538
11
-4.0972766141732286
21
5.6677757874015748
0
LINE
8
BLACK
6
CONTINUOUS
10
-4.0972766141732286
20
5.6677757874015748
11
-4.0972612598425195
21
5.6675998425196852
0
LINE
8
BLACK
6
CONTINUOUS
10
-4.0972612598425195
20
5.6675998425196852
11
-4.0971515354330705
21
5.6674616535433069
0
LINE
8
BLACK
6
CONTINUOUS
10
-4.0971515354330705
20
5.6674616535433069
11
-4.095276771653543
21
5.661837401574803
0
LINE
8
BLACK
6
CONTINUOUS
10
-4.095276771653543
20
5.661837401574803
11
-4.0951472834645672
21
5.6609641338582675
0
LINE
8
BLACK
6
CONTINUOUS
10
-4.0951472834645672
20
5.6609641338582675
11
-4.095125236220472
21
5.6609036220472442
0
LINE
8
BLACK
6
CONTINUOUS
10
-4.095125236220472
20
5.6609036220472442
11
-4.095125236220472
21
5.6571540944881891
0
LINE
8
BLACK
6
CONTINUOUS
10
-4.095125236220472
20
5.6571540944881891
11
-4.0953033070866143
21
5.6561441732283466
0
LINE
8
BLACK
6
CONTINUOUS
10
-4.0953033070866143
20
5.6561441732283466
11
-4.0966016141732284
21
5.6545969291338585
0
LINE
8
BLACK
6
CONTINUOUS
10
-4.0966016141732284
20
5.6545969291338585
11
-4.098590748031496
21
5.6542461811023621
0
LINE
8
BLACK
6
CONTINUOUS
10
-4.098590748031496
20
5.6542461811023621
11
-4.1003399212598426
21
5.6552561023622046
0
LINE
8
BLACK
6
CONTINUOUS
10
-4.1003399212598426
20
5.6552561023622046
11
-4.101030748031496
21
5.6571540944881891
0
LINE
8
BLACK
6
CONTINUOUS
10
-4.101030748031496
20
5.6571540944881891
11
-4.101030748031496
21
5.6604244881889763
0
LINE
8
BLACK
6
CONTINUOUS
10
-4.101030748031496
20
5.6604244881889763
11
-4.1025335433070866
21
5.6649328346456693
0
LINE
8
BLACK
6
CONTINUOUS
10
-4.1025335433070866
20
5.6649328346456693
11
-4.1052973622047242
21
5.6676966141732281
0
LINE
8
BLACK
6
CONTINUOUS
10
-4.1052973622047242
20
5.6676966141732281
11
-4.109805748031496
21
5.6691994488188975
0
LINE
8
BLACK
6
CONTINUOUS
10
-4.109805748031496
20
5.6691994488188975
11
-4.1374480708661414
21
5.6691994488188975
0
LINE
8
BLACK
6
CONTINUOUS
10
-4.1374480708661414
20
5.6691994488188975
11
-4.1384579921259839
21
5.6693775196850389
0
LINE
8
BLACK
6
CONTINUOUS
10
-4.1384579921259839
20
5.6693775196850389
11
-4.140005236220472
21
5.670675826771653
0
LINE
8
BLACK
6
CONTINUOUS
10
-4.140005236220472
20
5.670675826771653
11
-4.1403559842519684
21
5.6726649606299215
0
LINE
8
BLACK
6
CONTINUOUS
10
-4.1403559842519684
20
5.6726649606299215
11
-4.1393460629921259
21
5.6744141338582672
0
LINE
8
BLACK
6
CONTINUOUS
10
-4.1393460629921259
20
5.6744141338582672
11
-4.1374480708661414
21
5.6751049606299215
0
LINE
8
BLACK
6
CONTINUOUS
10
-4.1374480708661414
20
5.6751049606299215
11
-4.1093266141732281
21
5.6751049606299215
0
LINE
8
BLACK
6
CONTINUOUS
10
-4.1093266141732281
20
5.6751049606299215
11
-4.1084572440944882
21
5.6749516535433067
0
LINE
8
BLACK
6
CONTINUOUS
10
-4.1089394488188979
20
5.715295039370079
11
-4.1082486220472436
21
5.7133970472440945
0
LINE
8
BLACK
6
CONTINUOUS
10
-4.1082486220472436
20
5.7133970472440945
11
-4.1082486220472436
21
5.7107255118110238
0
LINE
8
BLACK
6
CONTINUOUS
10
-4.1082486220472436
20
5.7107255118110238
11
-4.098077992125984
21
5.7107255118110238
0
LINE
8
BLACK
6
CONTINUOUS
10
-4.098077992125984
20
5.7107255118110238
11
-4.0970680708661416
21
5.7105474409448815
0
LINE
8
BLACK
6
CONTINUOUS
10
-4.0970680708661416
20
5.7105474409448815
11
-4.0955208267716534
21
5.7092491338582674
0
LINE
8
BLACK
6
CONTINUOUS
10
-4.0955208267716534
20
5.7092491338582674
11
-4.095170078740157
21
5.7072599999999998
0
LINE
8
BLACK
6
CONTINUOUS
10
-4.095170078740157
20
5.7072599999999998
11
-4.0961799999999995
21
5.7055108267716532
0
LINE
8
BLACK
6
CONTINUOUS
10
-4.0961799999999995
20
5.7055108267716532
11
-4.098077992125984
21
5.7048199999999998
0
LINE
8
BLACK
6
CONTINUOUS
10
-4.098077992125984
20
5.7048199999999998
11
-4.1082486220472436
21
5.7048199999999998
0
LINE
8
BLACK
6
CONTINUOUS
10
-4.1082486220472436
20
5.7048199999999998
11
-4.1082486220472436
21
5.6890251181102363
0
LINE
8
BLACK
6
CONTINUOUS
10
-4.1082486220472436
20
5.6890251181102363
11
-4.1084266929133859
21
5.6880151968503938
0
LINE
8
BLACK
6
CONTINUOUS
10
-4.1084266929133859
20
5.6880151968503938
11
-4.1085717716535433
21
5.687842322834646
0
LINE
8
BLACK
6
CONTINUOUS
10
-4.1085717716535433
20
5.687842322834646
11
-4.1086048425196848
21
5.6876191338582673
0
LINE
8
BLACK
6
CONTINUOUS
10
-4.1086048425196848
20
5.6876191338582673
11
-4.1092073228346457
21
5.6870848818897635
0
LINE
8
BLACK
6
CONTINUOUS
10
-4.1092073228346457
20
5.6870848818897635
11
-4.1097250000000001
21
5.6864679527559057
0
LINE
8
BLACK
6
CONTINUOUS
10
-4.1097250000000001
20
5.6864679527559057
11
-4.1099472834645665
21
5.6864287401574805
0
LINE
8
BLACK
6
CONTINUOUS
10
-4.1099472834645665
20
5.6864287401574805
11
-4.1101161023622046
21
5.6862790551181099
0
LINE
8
BLACK
6
CONTINUOUS
10
-4.1101161023622046
20
5.6862790551181099
11
-4.1109209842519681
21
5.6862570472440943
0
LINE
8
BLACK
6
CONTINUOUS
10
-4.1109209842519681
20
5.6862570472440943
11
-4.1117141338582677
21
5.6861172047244093
0
LINE
8
BLACK
6
CONTINUOUS
10
-4.1117141338582677
20
5.6861172047244093
11
-4.1119096062992124
21
5.6862300393700789
0
LINE
8
BLACK
6
CONTINUOUS
10
-4.1119096062992124
20
5.6862300393700789
11
-4.1121351574803144
21
5.6862238976377952
0
LINE
8
BLACK
6
CONTINUOUS
10
-4.1121351574803144
20
5.6862238976377952
11
-4.1402565748031499
21
5.695597716535433
0
LINE
8
BLACK
6
CONTINUOUS
10
-4.1402565748031499
20
5.695597716535433
11
-4.1411583464566926
21
5.6960860236220467
0
LINE
8
BLACK
6
CONTINUOUS
10
-4.1411583464566926
20
5.6960860236220467
11
-4.1422156299212594
21
5.6978069685039365
0
LINE
8
BLACK
6
CONTINUOUS
10
-4.1422156299212594
20
5.6978069685039365
11
-4.1419193700787398
21
5.6998049606299208
0
LINE
8
BLACK
6
CONTINUOUS
10
-4.1419193700787398
20
5.6998049606299208
11
-4.1404081496062988
21
5.7011449999999995
0
LINE
8
BLACK
6
CONTINUOUS
10
-4.1404081496062988
20
5.7011449999999995
11
-4.1383890944881889
21
5.7012001574803151
0
LINE
8
BLACK
6
CONTINUOUS
10
-4.1383890944881889
20
5.7012001574803151
11
-4.1141541338582677
21
5.6931218110236221
0
LINE
8
BLACK
6
CONTINUOUS
10
-4.1141541338582677
20
5.6931218110236221
11
-4.1141541338582677
21
5.7048199999999998
0
LINE
8
BLACK
6
CONTINUOUS
10
-4.1141541338582677
20
5.7048199999999998
11
-4.1243247244094485
21
5.7048199999999998
0
LINE
8
BLACK
6
CONTINUOUS
10
-4.1243247244094485
20
5.7048199999999998
11
-4.125334645669291
21
5.7049980708661412
0
LINE
8
BLACK
6
CONTINUOUS
10
-4.125334645669291
20
5.7049980708661412
11
-4.1268818897637791
21
5.7062963779527553
0
LINE
8
BLACK
6
CONTINUOUS
10
-4.1268818897637791
20
5.7062963779527553
11
-4.1272326377952755
21
5.7082855118110238
0
LINE
8
BLACK
6
CONTINUOUS
10
-4.1272326377952755
20
5.7082855118110238
11
-4.126222716535433
21
5.7100346850393695
0
LINE
8
BLACK
6
CONTINUOUS
10
-4.126222716535433
20
5.7100346850393695
11
-4.1243247244094485
21
5.7107255118110238
0
LINE
8
BLACK
6
CONTINUOUS
10
-4.1243247244094485
20
5.7107255118110238
11
-4.1141541338582677
21
5.7107255118110238
0
LINE
8
BLACK
6
CONTINUOUS
10
-4.1141541338582677
20
5.7107255118110238
11
-4.1141541338582677
21
5.7133970472440945
0
LINE
8
BLACK
6
CONTINUOUS
10
-4.1141541338582677
20
5.7133970472440945
11
-4.1139760629921263
21
5.7144069685039369
0
LINE
8
BLACK
6
CONTINUOUS
10
-4.1139760629921263
20
5.7144069685039369
11
-4.1126777559055121
21
5.7159542125984251
0
LINE
8
BLACK
6
CONTINUOUS
10
-4.1126777559055121
20
5.7159542125984251
11
-4.1106886220472436
21
5.7163049606299214
0
LINE
8
BLACK
6
CONTINUOUS
10
-4.1106886220472436
20
5.7163049606299214
11
-4.1089394488188979
21
5.715295039370079
0
LINE
8
BLACK
6
CONTINUOUS
10
-4.0195275590551178
20
5.8496456692913386
11
-4.0181356299212601
21
5.8490690944881889
0
LINE
8
BLACK
6
CONTINUOUS
10
-4.0181356299212601
20
5.8490690944881889
11
-4.0175590551181104
21
5.8476771653543302
0
LINE
8
BLACK
6
CONTINUOUS
10
-4.0175590551181104
20
5.8476771653543302
11
-4.0175590551181104
21
5.5228740157480312
0
LINE
8
BLACK
6
CONTINUOUS
10
-4.0175590551181104
20
5.5228740157480312
11
-4.0181356299212601
21
5.5214820866141734
0
LINE
8
BLACK
6
CONTINUOUS
10
-4.0181356299212601
20
5.5214820866141734
11
-4.0195275590551178
21
5.5209055118110237
0
LINE
8
BLACK
6
CONTINUOUS
10
-4.0195275590551178
20
5.5209055118110237
11
-4.1789763779527558
21
5.5209055118110237
0
LINE
8
BLACK
6
CONTINUOUS
10
-4.1789763779527558
20
5.5209055118110237
11
-4.1803683070866144
21
5.5214820866141734
0
LINE
8
BLACK
6
CONTINUOUS
10
-4.1803683070866144
20
5.5214820866141734
11
-4.1809448818897641
21
5.5228740157480312
0
LINE
8
BLACK
6
CONTINUOUS
10
-4.1809448818897641
20
5.5228740157480312
11
-4.1809448818897641
21
5.8476771653543302
0
LINE
8
BLACK
6
CONTINUOUS
10
-4.1809448818897641
20
5.8476771653543302
11
-4.1803683070866144
21
5.8490690944881889
0
LINE
8
BLACK
6
CONTINUOUS
10
-4.1803683070866144
20
5.8490690944881889
11
-4.1789763779527558
21
5.8496456692913386
0
LINE
8
BLACK
6
CONTINUOUS
10
-4.1789763779527558
20
5.8496456692913386
11
-4.0195275590551178
21
5.8496456692913386
0
LINE
8
BLACK
6
CONTINUOUS
10
-4.1770078740157484
20
5.8457086614173228
11
-4.1770078740157484
21
5.6321607086614174
0
LINE
8
BLACK
6
CONTINUOUS
10
-4.1770078740157484
20
5.6321607086614174
11
-4.1500009842519683
21
5.6130639763779531
0
LINE
8
BLACK
6
CONTINUOUS
10
-4.1500009842519683
20
5.6130639763779531
11
-4.1498189370078737
21
5.6127752755905513
0
LINE
8
BLACK
6
CONTINUOUS
10
-4.1498189370078737
20
5.6127752755905513
11
-4.149530236220472
21
5.6125932283464568
0
LINE
8
BLACK
6
CONTINUOUS
10
-4.149530236220472
20
5.6125932283464568
11
-4.1494327559055115
21
5.6121627952755908
0
LINE
8
BLACK
6
CONTINUOUS
10
-4.1494327559055115
20
5.6121627952755908
11
-4.149197362204724
21
5.6117895669291338
0
LINE
8
BLACK
6
CONTINUOUS
10
-4.149197362204724
20
5.6117895669291338
11
-4.1492727952755901
21
5.6114566929133858
0
LINE
8
BLACK
6
CONTINUOUS
10
-4.1492727952755901
20
5.6114566929133858
11
-4.149197362204724
21
5.6111238188976378
0
LINE
8
BLACK
6
CONTINUOUS
10
-4.149197362204724
20
5.6111238188976378
11
-4.1494327559055115
21
5.610750551181102
0
LINE
8
BLACK
6
CONTINUOUS
10
-4.1494327559055115
20
5.610750551181102
11
-4.149530236220472
21
5.6103201574803148
0
LINE
8
BLACK
6
CONTINUOUS
10
-4.149530236220472
20
5.6103201574803148
11
-4.1498189370078737
21
5.6101380708661415
0
LINE
8
BLACK
6
CONTINUOUS
10
-4.1498189370078737
20
5.6101380708661415
11
-4.1500009842519683
21
5.6098494094488185
0
LINE
8
BLACK
6
CONTINUOUS
10
-4.1500009842519683
20
5.6098494094488185
11
-4.1770078740157484
21
5.5907526377952754
0
LINE
8
BLACK
6
CONTINUOUS
10
-4.1770078740157484
20
5.5907526377952754
11
-4.1770078740157484
21
5.5248425196850395
0
LINE
8
BLACK
6
CONTINUOUS
10
-4.1770078740157484
20
5.5248425196850395
11
-4.0214960629921261
21
5.5248425196850395
0
LINE
8
BLACK
6
CONTINUOUS
10
-4.0214960629921261
20
5.5248425196850395
11
-4.0214960629921261
21
5.8457086614173228
0
LINE
8
BLACK
6
CONTINUOUS
10
-4.0214960629921261
20
5.8457086614173228
11
-4.1770078740157484
21
5.8457086614173228
0
LINE
8
BLACK
6
CONTINUOUS
10
-4.1770078740157484
20
5.5955745275590552
11
-4.1545470866141727
21
5.6114566929133858
0
LINE
8
BLACK
6
CONTINUOUS
10
-4.1545470866141727
20
5.6114566929133858
11
-4.1770078740157484
21
5.6273388188976377
0
LINE
8
BLACK
6
CONTINUOUS
10
-4.1770078740157484
20
5.6273388188976377
11
-4.1770078740157484
21
5.5955745275590552
0
LINE
8
BLACK
6
CONTINUOUS
10
-4.745452401574803
20
5.9233627165354328
11
-4.7279959055118113
21
5.9059062204724411
0
LINE
8
BLACK
6
CONTINUOUS
10
-4.7279959055118113
20
5.9059062204724411
11
-4.7279959055118113
21
5.9212748031496059
0
LINE
8
BLACK
6
CONTINUOUS
10
-4.7279959055118113
20
5.9212748031496059
11
-4.727817834645669
21
5.9222847244094483
0
LINE
8
BLACK
6
CONTINUOUS
10
-4.727817834645669
20
5.9222847244094483
11
-4.7265195275590548
21
5.9238319685039365
0
LINE
8
BLACK
6
CONTINUOUS
10
-4.7265195275590548
20
5.9238319685039365
11
-4.7245303937007872
21
5.9241827165354328
0
LINE
8
BLACK
6
CONTINUOUS
10
-4.7245303937007872
20
5.9241827165354328
11
-4.7227812204724406
21
5.9231727952755904
0
LINE
8
BLACK
6
CONTINUOUS
10
-4.7227812204724406
20
5.9231727952755904
11
-4.7220903937007872
21
5.9212748031496059
0
LINE
8
BLACK
6
CONTINUOUS
10
-4.7220903937007872
20
5.9212748031496059
11
-4.7220903937007872
21
5.8819047244094484
0
LINE
8
BLACK
6
CONTINUOUS
10
-4.7220903937007872
20
5.8819047244094484
11
-4.7222684645669286
21
5.880894803149606
0
LINE
8
BLACK
6
CONTINUOUS
10
-4.7222684645669286
20
5.880894803149606
11
-4.7235667716535428
21
5.8793475590551179
0
LINE
8
BLACK
6
CONTINUOUS
10
-4.7235667716535428
20
5.8793475590551179
11
-4.7255559055118113
21
5.8789968110236215
0
LINE
8
BLACK
6
CONTINUOUS
10
-4.7255559055118113
20
5.8789968110236215
11
-4.7273050787401569
21
5.8800067322834648
0
LINE
8
BLACK
6
CONTINUOUS
10
-4.7273050787401569
20
5.8800067322834648
11
-4.7279959055118113
21
5.8819047244094484
0
LINE
8
BLACK
6
CONTINUOUS
10
-4.7279959055118113
20
5.8819047244094484
11
-4.7279959055118113
21
5.8975545669291334
0
LINE
8
BLACK
6
CONTINUOUS
10
-4.7279959055118113
20
5.8975545669291334
11
-4.7303479921259841
21
5.8999066141732284
0
LINE
8
BLACK
6
CONTINUOUS
10
-4.7303479921259841
20
5.8999066141732284
11
-4.7451781102362203
21
5.8801330708661412
0
LINE
8
BLACK
6
CONTINUOUS
10
-4.7451781102362203
20
5.8801330708661412
11
-4.7459265354330711
21
5.8794319685039369
0
LINE
8
BLACK
6
CONTINUOUS
10
-4.7459265354330711
20
5.8794319685039369
11
-4.747893503937008
21
5.8789731496062991
0
LINE
8
BLACK
6
CONTINUOUS
10
-4.747893503937008
20
5.8789731496062991
11
-4.7496952755905513
21
5.8798860629921261
0
LINE
8
BLACK
6
CONTINUOUS
10
-4.7496952755905513
20
5.8798860629921261
11
-4.7504886614173225
21
5.8817435039370078
0
LINE
8
BLACK
6
CONTINUOUS
10
-4.7504886614173225
20
5.8817435039370078
11
-4.7499025196850395
21
5.8836763779527557
0
LINE
8
BLACK
6
CONTINUOUS
10
-4.7499025196850395
20
5.8836763779527557
11
-4.7345662204724412
21
5.9041248425196846
0
LINE
8
BLACK
6
CONTINUOUS
10
-4.7345662204724412
20
5.9041248425196846
11
-4.7496282283464568
21
5.9191868897637798
0
LINE
8
BLACK
6
CONTINUOUS
10
-4.7496282283464568
20
5.9191868897637798
11
-4.7502164173228349
21
5.9200269291338579
0
LINE
8
BLACK
6
CONTINUOUS
10
-4.7502164173228349
20
5.9200269291338579
11
-4.7503924803149609
21
5.9220390157480312
0
LINE
8
BLACK
6
CONTINUOUS
10
-4.7503924803149609
20
5.9220390157480312
11
-4.7492339370078742
21
5.9236935826771653
0
LINE
8
BLACK
6
CONTINUOUS
10
-4.7492339370078742
20
5.9236935826771653
11
-4.7472829921259843
21
5.9242162992125982
0
LINE
8
BLACK
6
CONTINUOUS
10
-4.7472829921259843
20
5.9242162992125982
11
-4.745452401574803
21
5.9233627165354328
  0
ENDSEC
  0
EOF
