  0
SECTION
  2
HEADER
  9
$ANGBASE
  50
0.0
  9
$ANGDIR
  70
1
  9
$MEASUREMENT
  70
0
  0
ENDSEC
  0
SECTION
  2
TABLES
  0
TABLE
  2
LTYPE
  70
4
  0
LTYPE
  5
40F
  2
CONTINUOUS
  70
0
  3
Solid line
  72
65
  73
0
  40
0.0
  0
LTYPE
  5
410
  2
DASHDOT
 70
0
  3
Dash Dot ____ _ ____ _
 72
65
 73
4
 40
2.0
 49
1.25
 49
-0.25
 49
0.25
 49
-0.25
  0
LTYPE
  5
411
  2
DASHED
 70
0
  3
Dashed __ __ __ __ __
 72
65
 73
2
 40
0.75
 49
0.5
 49
-0.25
  0
LTYPE
  5
43B
  2
DOTTED
 70
0
  3
Dotted .  .  .  .
 72
65
 73
2
 40
0.2
 49
0.0
 49
-0.2
  0
ENDTAB
  0
TABLE
  2
STYLE
  70
4
  0
STYLE
  2
KICAD
  70
0
  40
0
  41
1
  42
1
  50
0
  71
0
  3
isocp.shx
  0
STYLE
  2
KICADB
  70
0
  40
0
  41
1
  42
1
  50
0
  71
0
  3
isocp.shx
  0
STYLE
  2
KICADI
  70
0
  40
0
  41
1
  42
1
  50
15
  71
0
  3
isocp.shx
  0
STYLE
  2
KICADBI
  70
0
  40
0
  41
1
  42
1
  50
15
  71
0
  3
isocp.shx
  0
ENDTAB
  0
TABLE
  2
LAYER
  70
1
  0
LAYER
  2
BLACK
  70
0
  62
7
  6
CONTINUOUS
  0
ENDTAB
  0
ENDSEC
  0
SECTION
  2
ENTITIES
0
LINE
8
BLACK
6
CONTINUOUS
10
-4.3608831889763779
20
5.5441770472440943
11
-4.3603505118110233
21
5.5436443700787397
0
LINE
8
BLACK
6
CONTINUOUS
10
-4.3603505118110233
20
5.5436443700787397
11
-4.360275590551181
21
5.4267322834645668
0
LINE
8
BLACK
6
CONTINUOUS
10
-4.360275590551181
20
5.4267322834645668
11
-4.3603505118110233
21
5.4263556299212601
0
LINE
8
BLACK
6
CONTINUOUS
10
-4.3603505118110233
20
5.4263556299212601
11
-4.3608831889763779
21
5.4258229527559054
0
LINE
8
BLACK
6
CONTINUOUS
10
-4.3608831889763779
20
5.4258229527559054
11
-4.4187401574803147
21
5.4257480314960631
0
LINE
8
BLACK
6
CONTINUOUS
10
-4.4187401574803147
20
5.4257480314960631
11
-4.4191168110236223
21
5.4258229527559054
0
LINE
8
BLACK
6
CONTINUOUS
10
-4.4191168110236223
20
5.4258229527559054
11
-4.4196494881889761
21
5.4263556299212601
0
LINE
8
BLACK
6
CONTINUOUS
10
-4.4196494881889761
20
5.4263556299212601
11
-4.4197244094488184
21
5.5432677165354329
0
LINE
8
BLACK
6
CONTINUOUS
10
-4.4197244094488184
20
5.5432677165354329
11
-4.4196494881889761
21
5.5436443700787397
0
LINE
8
BLACK
6
CONTINUOUS
10
-4.4196494881889761
20
5.5436443700787397
11
-4.4191168110236223
21
5.5441770472440943
0
LINE
8
BLACK
6
CONTINUOUS
10
-4.4191168110236223
20
5.5441770472440943
11
-4.3612598425196847
21
5.5442519685039366
0
LINE
8
BLACK
6
CONTINUOUS
10
-4.3612598425196847
20
5.5442519685039366
11
-4.3608831889763779
21
5.5441770472440943
0
LINE
8
BLACK
6
CONTINUOUS
10
-4.4178299606299207
20
5.5422846062992122
11
-4.4177564960629923
21
5.4276433464566924
0
LINE
8
BLACK
6
CONTINUOUS
10
-4.4177564960629923
20
5.4276433464566924
11
-4.3621700787401574
21
5.4277153543307088
0
LINE
8
BLACK
6
CONTINUOUS
10
-4.3621700787401574
20
5.4277153543307088
11
-4.3622435433070867
21
5.5423566141732286
0
LINE
8
BLACK
6
CONTINUOUS
10
-4.3622435433070867
20
5.5423566141732286
11
-4.4178299606299207
21
5.5422846062992122
0
LINE
8
BLACK
6
CONTINUOUS
10
-4.2808831889763779
20
5.5441770472440943
11
-4.2803505118110232
21
5.5436443700787397
0
LINE
8
BLACK
6
CONTINUOUS
10
-4.2803505118110232
20
5.5436443700787397
11
-4.2802755905511809
21
5.4267322834645668
0
LINE
8
BLACK
6
CONTINUOUS
10
-4.2802755905511809
20
5.4267322834645668
11
-4.2803505118110232
21
5.4263556299212601
0
LINE
8
BLACK
6
CONTINUOUS
10
-4.2803505118110232
20
5.4263556299212601
11
-4.2808831889763779
21
5.4258229527559054
0
LINE
8
BLACK
6
CONTINUOUS
10
-4.2808831889763779
20
5.4258229527559054
11
-4.3387401574803146
21
5.4257480314960631
0
LINE
8
BLACK
6
CONTINUOUS
10
-4.3387401574803146
20
5.4257480314960631
11
-4.3391168110236222
21
5.4258229527559054
0
LINE
8
BLACK
6
CONTINUOUS
10
-4.3391168110236222
20
5.4258229527559054
11
-4.339649488188976
21
5.4263556299212601
0
LINE
8
BLACK
6
CONTINUOUS
10
-4.339649488188976
20
5.4263556299212601
11
-4.3397244094488192
21
5.5432677165354329
0
LINE
8
BLACK
6
CONTINUOUS
10
-4.3397244094488192
20
5.5432677165354329
11
-4.339649488188976
21
5.5436443700787397
0
LINE
8
BLACK
6
CONTINUOUS
10
-4.339649488188976
20
5.5436443700787397
11
-4.3391168110236222
21
5.5441770472440943
0
LINE
8
BLACK
6
CONTINUOUS
10
-4.3391168110236222
20
5.5441770472440943
11
-4.2812598425196846
21
5.5442519685039366
0
LINE
8
BLACK
6
CONTINUOUS
10
-4.2812598425196846
20
5.5442519685039366
11
-4.2808831889763779
21
5.5441770472440943
0
LINE
8
BLACK
6
CONTINUOUS
10
-4.3378299606299215
20
5.5422846062992122
11
-4.3377564960629922
21
5.4276433464566924
0
LINE
8
BLACK
6
CONTINUOUS
10
-4.3377564960629922
20
5.4276433464566924
11
-4.2821700787401573
21
5.4277153543307088
0
LINE
8
BLACK
6
CONTINUOUS
10
-4.2821700787401573
20
5.4277153543307088
11
-4.2822435433070867
21
5.5423566141732286
0
LINE
8
BLACK
6
CONTINUOUS
10
-4.2822435433070867
20
5.5423566141732286
11
-4.3378299606299215
21
5.5422846062992122
0
LINE
8
BLACK
6
CONTINUOUS
10
-4.43135562992126
20
5.5196494881889766
11
-4.4308229527559053
21
5.5191168110236219
0
LINE
8
BLACK
6
CONTINUOUS
10
-4.4308229527559053
20
5.5191168110236219
11
-4.430748031496063
21
5.4612598425196852
0
LINE
8
BLACK
6
CONTINUOUS
10
-4.430748031496063
20
5.4612598425196852
11
-4.4308229527559053
21
5.4608831889763776
0
LINE
8
BLACK
6
CONTINUOUS
10
-4.4308229527559053
20
5.4608831889763776
11
-4.43135562992126
21
5.4603505118110238
0
LINE
8
BLACK
6
CONTINUOUS
10
-4.43135562992126
20
5.4603505118110238
11
-4.5482677165354328
21
5.4602755905511806
0
LINE
8
BLACK
6
CONTINUOUS
10
-4.5482677165354328
20
5.4602755905511806
11
-4.5486443700787405
21
5.4603505118110238
0
LINE
8
BLACK
6
CONTINUOUS
10
-4.5486443700787405
20
5.4603505118110238
11
-4.5491770472440942
21
5.4608831889763776
0
LINE
8
BLACK
6
CONTINUOUS
10
-4.5491770472440942
20
5.4608831889763776
11
-4.5492519685039365
21
5.5187401574803152
0
LINE
8
BLACK
6
CONTINUOUS
10
-4.5492519685039365
20
5.5187401574803152
11
-4.5491770472440942
21
5.5191168110236219
0
LINE
8
BLACK
6
CONTINUOUS
10
-4.5491770472440942
20
5.5191168110236219
11
-4.5486443700787405
21
5.5196494881889766
0
LINE
8
BLACK
6
CONTINUOUS
10
-4.5486443700787405
20
5.5196494881889766
11
-4.4317322834645667
21
5.5197244094488189
0
LINE
8
BLACK
6
CONTINUOUS
10
-4.4317322834645667
20
5.5197244094488189
11
-4.43135562992126
21
5.5196494881889766
0
LINE
8
BLACK
6
CONTINUOUS
10
-4.5473566535433072
20
5.5177564566929131
11
-4.5472846456692908
21
5.4621700393700783
0
LINE
8
BLACK
6
CONTINUOUS
10
-4.5472846456692908
20
5.4621700393700783
11
-4.432643385826772
21
5.4622435039370076
0
LINE
8
BLACK
6
CONTINUOUS
10
-4.432643385826772
20
5.4622435039370076
11
-4.4327153937007875
21
5.5178299212598425
0
LINE
8
BLACK
6
CONTINUOUS
10
-4.4327153937007875
20
5.5178299212598425
11
-4.5473566535433072
21
5.5177564566929131
0
LINE
8
BLACK
6
CONTINUOUS
10
-4.7534028740157481
20
5.8720116929133859
11
-4.7528701968503935
21
5.8714790157480312
0
LINE
8
BLACK
6
CONTINUOUS
10
-4.7528701968503935
20
5.8714790157480312
11
-4.7527952755905511
21
5.4994488188976378
0
LINE
8
BLACK
6
CONTINUOUS
10
-4.7527952755905511
20
5.4994488188976378
11
-4.7528701968503935
21
5.4990721653543302
0
LINE
8
BLACK
6
CONTINUOUS
10
-4.7528701968503935
20
5.4990721653543302
11
-4.7534028740157481
21
5.4985394881889764
0
LINE
8
BLACK
6
CONTINUOUS
10
-4.7534028740157481
20
5.4985394881889764
11
-5.0057480314960632
21
5.4984645669291341
0
LINE
8
BLACK
6
CONTINUOUS
10
-5.0057480314960632
20
5.4984645669291341
11
-5.0061246850393699
21
5.4985394881889764
0
LINE
8
BLACK
6
CONTINUOUS
10
-5.0061246850393699
20
5.4985394881889764
11
-5.0066573622047246
21
5.4990721653543302
0
LINE
8
BLACK
6
CONTINUOUS
10
-5.0066573622047246
20
5.4990721653543302
11
-5.0067322834645669
21
5.8711023622047245
0
LINE
8
BLACK
6
CONTINUOUS
10
-5.0067322834645669
20
5.8711023622047245
11
-5.0066573622047246
21
5.8714790157480312
0
LINE
8
BLACK
6
CONTINUOUS
10
-5.0066573622047246
20
5.8714790157480312
11
-5.0061246850393699
21
5.8720116929133859
0
LINE
8
BLACK
6
CONTINUOUS
10
-5.0061246850393699
20
5.8720116929133859
11
-4.7537795275590549
21
5.8720866141732282
0
LINE
8
BLACK
6
CONTINUOUS
10
-4.7537795275590549
20
5.8720866141732282
11
-4.7534028740157481
21
5.8720116929133859
0
LINE
8
BLACK
6
CONTINUOUS
10
-5.0048384251968505
20
5.8701183464566924
11
-5.0047639370078736
21
5.5003585433070867
0
LINE
8
BLACK
6
CONTINUOUS
10
-5.0047639370078736
20
5.5003585433070867
11
-4.7546891338582675
21
5.5004327952755903
0
LINE
8
BLACK
6
CONTINUOUS
10
-4.7546891338582675
20
5.5004327952755903
11
-4.7547636220472436
21
5.8701925984251968
0
LINE
8
BLACK
6
CONTINUOUS
10
-4.7547636220472436
20
5.8701925984251968
11
-5.0048384251968505
21
5.8701183464566924
0
LINE
8
BLACK
6
CONTINUOUS
10
-3.989623346456693
20
5.8720116929133859
11
-3.9890906692913384
21
5.8714790157480312
0
LINE
8
BLACK
6
CONTINUOUS
10
-3.9890906692913384
20
5.8714790157480312
11
-3.9890157480314961
21
5.4994488188976378
0
LINE
8
BLACK
6
CONTINUOUS
10
-3.9890157480314961
20
5.4994488188976378
11
-3.9890906692913384
21
5.4990721653543302
0
LINE
8
BLACK
6
CONTINUOUS
10
-3.9890906692913384
20
5.4990721653543302
11
-3.989623346456693
21
5.4985394881889764
0
LINE
8
BLACK
6
CONTINUOUS
10
-3.989623346456693
20
5.4985394881889764
11
-4.2419685039370076
21
5.4984645669291341
0
LINE
8
BLACK
6
CONTINUOUS
10
-4.2419685039370076
20
5.4984645669291341
11
-4.2423451574803153
21
5.4985394881889764
0
LINE
8
BLACK
6
CONTINUOUS
10
-4.2423451574803153
20
5.4985394881889764
11
-4.242877834645669
21
5.4990721653543302
0
LINE
8
BLACK
6
CONTINUOUS
10
-4.242877834645669
20
5.4990721653543302
11
-4.2429527559055114
21
5.8711023622047245
0
LINE
8
BLACK
6
CONTINUOUS
10
-4.2429527559055114
20
5.8711023622047245
11
-4.242877834645669
21
5.8714790157480312
0
LINE
8
BLACK
6
CONTINUOUS
10
-4.242877834645669
20
5.8714790157480312
11
-4.2423451574803153
21
5.8720116929133859
0
LINE
8
BLACK
6
CONTINUOUS
10
-4.2423451574803153
20
5.8720116929133859
11
-3.9899999999999998
21
5.8720866141732282
0
LINE
8
BLACK
6
CONTINUOUS
10
-3.9899999999999998
20
5.8720866141732282
11
-3.989623346456693
21
5.8720116929133859
0
LINE
8
BLACK
6
CONTINUOUS
10
-4.2410589370078737
20
5.8701183464566924
11
-4.2409844488188977
21
5.5003585433070867
0
LINE
8
BLACK
6
CONTINUOUS
10
-4.2409844488188977
20
5.5003585433070867
11
-3.9909096062992124
21
5.5004327952755903
0
LINE
8
BLACK
6
CONTINUOUS
10
-3.9909096062992124
20
5.5004327952755903
11
-3.9909840944881889
21
5.8701925984251968
0
LINE
8
BLACK
6
CONTINUOUS
10
-3.9909840944881889
20
5.8701925984251968
11
-4.2410589370078737
21
5.8701183464566924
0
LINE
8
BLACK
6
CONTINUOUS
10
-4.5208831889763781
20
5.6601809842519684
11
-4.5203505118110234
21
5.6596483070866137
0
LINE
8
BLACK
6
CONTINUOUS
10
-4.5203505118110234
20
5.6596483070866137
11
-4.5202755905511811
21
5.5427362204724409
0
LINE
8
BLACK
6
CONTINUOUS
10
-4.5202755905511811
20
5.5427362204724409
11
-4.5203505118110234
21
5.5423595669291341
0
LINE
8
BLACK
6
CONTINUOUS
10
-4.5203505118110234
20
5.5423595669291341
11
-4.5208831889763781
21
5.5418268897637795
0
LINE
8
BLACK
6
CONTINUOUS
10
-4.5208831889763781
20
5.5418268897637795
11
-4.5787401574803148
21
5.5417519685039371
0
LINE
8
BLACK
6
CONTINUOUS
10
-4.5787401574803148
20
5.5417519685039371
11
-4.5791168110236216
21
5.5418268897637795
0
LINE
8
BLACK
6
CONTINUOUS
10
-4.5791168110236216
20
5.5418268897637795
11
-4.5796494881889762
21
5.5423595669291341
0
LINE
8
BLACK
6
CONTINUOUS
10
-4.5796494881889762
20
5.5423595669291341
11
-4.5797244094488185
21
5.659271653543307
0
LINE
8
BLACK
6
CONTINUOUS
10
-4.5797244094488185
20
5.659271653543307
11
-4.5796494881889762
21
5.6596483070866137
0
LINE
8
BLACK
6
CONTINUOUS
10
-4.5796494881889762
20
5.6596483070866137
11
-4.5791168110236216
21
5.6601809842519684
0
LINE
8
BLACK
6
CONTINUOUS
10
-4.5791168110236216
20
5.6601809842519684
11
-4.5212598425196848
21
5.6602559055118107
0
LINE
8
BLACK
6
CONTINUOUS
10
-4.5212598425196848
20
5.6602559055118107
11
-4.5208831889763781
21
5.6601809842519684
0
LINE
8
BLACK
6
CONTINUOUS
10
-4.5778299606299209
20
5.6582885433070862
11
-4.5777564960629924
21
5.5436472834645665
0
LINE
8
BLACK
6
CONTINUOUS
10
-4.5777564960629924
20
5.5436472834645665
11
-4.5221700787401575
21
5.5437192913385829
0
LINE
8
BLACK
6
CONTINUOUS
10
-4.5221700787401575
20
5.5437192913385829
11
-4.5222435433070869
21
5.6583605511811026
0
LINE
8
BLACK
6
CONTINUOUS
10
-4.5222435433070869
20
5.6583605511811026
11
-4.5778299606299209
21
5.6582885433070862
0
LINE
8
BLACK
6
CONTINUOUS
10
-4.3407257086614175
20
5.8231927952755909
11
-4.3401930314960628
21
5.8226601181102362
0
LINE
8
BLACK
6
CONTINUOUS
10
-4.3401930314960628
20
5.8226601181102362
11
-4.3401181102362205
21
5.5482677165354328
0
LINE
8
BLACK
6
CONTINUOUS
10
-4.3401181102362205
20
5.5482677165354328
11
-4.3401930314960628
21
5.5478910629921261
0
LINE
8
BLACK
6
CONTINUOUS
10
-4.3401930314960628
20
5.5478910629921261
11
-4.3407257086614175
21
5.5473583858267714
0
LINE
8
BLACK
6
CONTINUOUS
10
-4.3407257086614175
20
5.5473583858267714
11
-4.4788976377952752
21
5.5472834645669291
0
LINE
8
BLACK
6
CONTINUOUS
10
-4.4788976377952752
20
5.5472834645669291
11
-4.4792742913385828
21
5.5473583858267714
0
LINE
8
BLACK
6
CONTINUOUS
10
-4.4792742913385828
20
5.5473583858267714
11
-4.4798069685039366
21
5.5478910629921261
0
LINE
8
BLACK
6
CONTINUOUS
10
-4.4798069685039366
20
5.5478910629921261
11
-4.4798818897637798
21
5.8222834645669286
0
LINE
8
BLACK
6
CONTINUOUS
10
-4.4798818897637798
20
5.8222834645669286
11
-4.4798069685039366
21
5.8226601181102362
0
LINE
8
BLACK
6
CONTINUOUS
10
-4.4798069685039366
20
5.8226601181102362
11
-4.4792742913385828
21
5.8231927952755909
0
LINE
8
BLACK
6
CONTINUOUS
10
-4.4792742913385828
20
5.8231927952755909
11
-4.3411023622047242
21
5.8232677165354332
0
LINE
8
BLACK
6
CONTINUOUS
10
-4.3411023622047242
20
5.8232677165354332
11
-4.3407257086614175
21
5.8231927952755909
0
LINE
8
BLACK
6
CONTINUOUS
10
-4.477987952755905
20
5.8212996850393699
11
-4.4779136614173227
21
5.5491777559055118
0
LINE
8
BLACK
6
CONTINUOUS
10
-4.4779136614173227
20
5.5491777559055118
11
-4.3420120866141731
21
5.5492514566929136
0
LINE
8
BLACK
6
CONTINUOUS
10
-4.3420120866141731
20
5.5492514566929136
11
-4.3420863779527554
21
5.8213733858267718
0
LINE
8
BLACK
6
CONTINUOUS
10
-4.3420863779527554
20
5.8213733858267718
11
-4.477987952755905
21
5.8212996850393699
0
LINE
8
BLACK
6
CONTINUOUS
10
-4.5760406692913387
20
5.8453384645669288
11
-4.575507992125984
21
5.8448057874015751
0
LINE
8
BLACK
6
CONTINUOUS
10
-4.575507992125984
20
5.8448057874015751
11
-4.5754330708661417
21
5.7105708661417323
0
LINE
8
BLACK
6
CONTINUOUS
10
-4.5754330708661417
20
5.7105708661417323
11
-4.575507992125984
21
5.7101942125984246
0
LINE
8
BLACK
6
CONTINUOUS
10
-4.575507992125984
20
5.7101942125984246
11
-4.5760406692913387
21
5.7096615354330709
0
LINE
8
BLACK
6
CONTINUOUS
10
-4.5760406692913387
20
5.7096615354330709
11
-4.5871609055118112
21
5.7096507874015749
0
LINE
8
BLACK
6
CONTINUOUS
10
-4.5871609055118112
20
5.7096507874015749
11
-4.587086614173228
21
5.5492913385826768
0
LINE
8
BLACK
6
CONTINUOUS
10
-4.587086614173228
20
5.5492913385826768
11
-4.5871615354330704
21
5.54891468503937
0
LINE
8
BLACK
6
CONTINUOUS
10
-4.5871615354330704
20
5.54891468503937
11
-4.587694212598425
21
5.5483820078740154
0
LINE
8
BLACK
6
CONTINUOUS
10
-4.587694212598425
20
5.5483820078740154
11
-4.7219291338582678
21
5.548307086614173
0
LINE
8
BLACK
6
CONTINUOUS
10
-4.7219291338582678
20
5.548307086614173
11
-4.7223057874015746
21
5.5483820078740154
0
LINE
8
BLACK
6
CONTINUOUS
10
-4.7223057874015746
20
5.5483820078740154
11
-4.7228384645669292
21
5.54891468503937
0
LINE
8
BLACK
6
CONTINUOUS
10
-4.7228384645669292
20
5.54891468503937
11
-4.7229133858267716
21
5.710708661417323
0
LINE
8
BLACK
6
CONTINUOUS
10
-4.7229133858267716
20
5.710708661417323
11
-4.7228384645669292
21
5.7110853149606298
0
LINE
8
BLACK
6
CONTINUOUS
10
-4.7228384645669292
20
5.7110853149606298
11
-4.7223057874015746
21
5.7116179921259844
0
LINE
8
BLACK
6
CONTINUOUS
10
-4.7223057874015746
20
5.7116179921259844
11
-4.6544928346456693
21
5.7116558267716533
0
LINE
8
BLACK
6
CONTINUOUS
10
-4.6544928346456693
20
5.7116558267716533
11
-4.6545669291338578
21
5.8444291338582675
0
LINE
8
BLACK
6
CONTINUOUS
10
-4.6545669291338578
20
5.8444291338582675
11
-4.6544920078740155
21
5.8448057874015751
0
LINE
8
BLACK
6
CONTINUOUS
10
-4.6544920078740155
20
5.8448057874015751
11
-4.6539593307086617
21
5.8453384645669288
0
LINE
8
BLACK
6
CONTINUOUS
10
-4.6539593307086617
20
5.8453384645669288
11
-4.5764173228346454
21
5.8454133858267712
0
LINE
8
BLACK
6
CONTINUOUS
10
-4.5764173228346454
20
5.8454133858267712
11
-4.5760406692913387
21
5.8453384645669288
0
LINE
8
BLACK
6
CONTINUOUS
10
-4.7210191732283464
20
5.7097248818897635
11
-4.7209453149606295
21
5.5502014173228345
0
LINE
8
BLACK
6
CONTINUOUS
10
-4.7209453149606295
20
5.5502014173228345
11
-4.588980866141732
21
5.5502750787401576
0
LINE
8
BLACK
6
CONTINUOUS
10
-4.588980866141732
20
5.5502750787401576
11
-4.5890546456692913
21
5.7096489370078736
0
LINE
8
BLACK
6
CONTINUOUS
10
-4.5890546456692913
20
5.7096489370078736
11
-4.6535826771653541
21
5.7095866141732285
0
LINE
8
BLACK
6
CONTINUOUS
10
-4.6535826771653541
20
5.7095866141732285
11
-4.6539593307086617
21
5.7096615354330709
0
LINE
8
BLACK
6
CONTINUOUS
10
-4.6539593307086617
20
5.7096615354330709
11
-4.6540601181102357
21
5.7097622834645669
0
LINE
8
BLACK
6
CONTINUOUS
10
-4.6540601181102357
20
5.7097622834645669
11
-4.7210191732283464
21
5.7097248818897635
0
LINE
8
BLACK
6
CONTINUOUS
10
-4.6526725984251964
20
5.8434457480314963
11
-4.6525990551181104
21
5.7116568897637796
0
LINE
8
BLACK
6
CONTINUOUS
10
-4.6525990551181104
20
5.7116568897637796
11
-4.5880708661417318
21
5.7116929133858267
0
LINE
8
BLACK
6
CONTINUOUS
10
-4.5880708661417318
20
5.7116929133858267
11
-4.587694212598425
21
5.7116179921259844
0
LINE
8
BLACK
6
CONTINUOUS
10
-4.587694212598425
20
5.7116179921259844
11
-4.5876205511811019
21
5.7115442913385825
0
LINE
8
BLACK
6
CONTINUOUS
10
-4.5876205511811019
20
5.7115442913385825
11
-4.5773274409448819
21
5.7115542125984247
0
LINE
8
BLACK
6
CONTINUOUS
10
-4.5773274409448819
20
5.7115542125984247
11
-4.577401102362205
21
5.8435184645669294
0
LINE
8
BLACK
6
CONTINUOUS
10
-4.577401102362205
20
5.8435184645669294
11
-4.6526725984251964
21
5.8434457480314963
0
LINE
8
BLACK
6
CONTINUOUS
10
-4.2658831889763782
20
5.8191770472440947
11
-4.2653505118110235
21
5.81864437007874
0
LINE
8
BLACK
6
CONTINUOUS
10
-4.2653505118110235
20
5.81864437007874
11
-4.2652755905511812
21
5.7017322834645672
0
LINE
8
BLACK
6
CONTINUOUS
10
-4.2652755905511812
20
5.7017322834645672
11
-4.2653505118110235
21
5.7013556299212595
0
LINE
8
BLACK
6
CONTINUOUS
10
-4.2653505118110235
20
5.7013556299212595
11
-4.2658831889763782
21
5.7008229527559058
0
LINE
8
BLACK
6
CONTINUOUS
10
-4.2658831889763782
20
5.7008229527559058
11
-4.3237401574803149
21
5.7007480314960626
0
LINE
8
BLACK
6
CONTINUOUS
10
-4.3237401574803149
20
5.7007480314960626
11
-4.3241168110236217
21
5.7008229527559058
0
LINE
8
BLACK
6
CONTINUOUS
10
-4.3241168110236217
20
5.7008229527559058
11
-4.3246494881889763
21
5.7013556299212595
0
LINE
8
BLACK
6
CONTINUOUS
10
-4.3246494881889763
20
5.7013556299212595
11
-4.3247244094488186
21
5.8182677165354333
0
LINE
8
BLACK
6
CONTINUOUS
10
-4.3247244094488186
20
5.8182677165354333
11
-4.3246494881889763
21
5.81864437007874
0
LINE
8
BLACK
6
CONTINUOUS
10
-4.3246494881889763
20
5.81864437007874
11
-4.3241168110236217
21
5.8191770472440947
0
LINE
8
BLACK
6
CONTINUOUS
10
-4.3241168110236217
20
5.8191770472440947
11
-4.2662598425196849
21
5.819251968503937
0
LINE
8
BLACK
6
CONTINUOUS
10
-4.2662598425196849
20
5.819251968503937
11
-4.2658831889763782
21
5.8191770472440947
0
LINE
8
BLACK
6
CONTINUOUS
10
-4.322829960629921
20
5.8172846062992125
11
-4.3227564960629916
21
5.7026433464566928
0
LINE
8
BLACK
6
CONTINUOUS
10
-4.3227564960629916
20
5.7026433464566928
11
-4.2671700787401576
21
5.7027153543307083
0
LINE
8
BLACK
6
CONTINUOUS
10
-4.2671700787401576
20
5.7027153543307083
11
-4.2672435433070861
21
5.817356614173228
0
LINE
8
BLACK
6
CONTINUOUS
10
-4.2672435433070861
20
5.817356614173228
11
-4.322829960629921
21
5.8172846062992125
0
LINE
8
BLACK
6
CONTINUOUS
10
-4.5158831889763782
20
5.8231731102362208
11
-4.5153505118110235
21
5.8226404330708661
0
LINE
8
BLACK
6
CONTINUOUS
10
-4.5153505118110235
20
5.8226404330708661
11
-4.5152755905511812
21
5.7057283464566924
0
LINE
8
BLACK
6
CONTINUOUS
10
-4.5152755905511812
20
5.7057283464566924
11
-4.5153505118110235
21
5.7053516929133856
0
LINE
8
BLACK
6
CONTINUOUS
10
-4.5153505118110235
20
5.7053516929133856
11
-4.5158831889763782
21
5.704819015748031
0
LINE
8
BLACK
6
CONTINUOUS
10
-4.5158831889763782
20
5.704819015748031
11
-4.5737401574803149
21
5.7047440944881886
0
LINE
8
BLACK
6
CONTINUOUS
10
-4.5737401574803149
20
5.7047440944881886
11
-4.5741168110236217
21
5.704819015748031
0
LINE
8
BLACK
6
CONTINUOUS
10
-4.5741168110236217
20
5.704819015748031
11
-4.5746494881889763
21
5.7053516929133856
0
LINE
8
BLACK
6
CONTINUOUS
10
-4.5746494881889763
20
5.7053516929133856
11
-4.5747244094488186
21
5.8222637795275594
0
LINE
8
BLACK
6
CONTINUOUS
10
-4.5747244094488186
20
5.8222637795275594
11
-4.5746494881889763
21
5.8226404330708661
0
LINE
8
BLACK
6
CONTINUOUS
10
-4.5746494881889763
20
5.8226404330708661
11
-4.5741168110236217
21
5.8231731102362208
0
LINE
8
BLACK
6
CONTINUOUS
10
-4.5741168110236217
20
5.8231731102362208
11
-4.5162598425196849
21
5.8232480314960631
0
LINE
8
BLACK
6
CONTINUOUS
10
-4.5162598425196849
20
5.8232480314960631
11
-4.5158831889763782
21
5.8231731102362208
0
LINE
8
BLACK
6
CONTINUOUS
10
-4.572829960629921
20
5.8212806692913386
11
-4.5727564960629916
21
5.7066394094488189
0
LINE
8
BLACK
6
CONTINUOUS
10
-4.5727564960629916
20
5.7066394094488189
11
-4.5171700787401576
21
5.7067114173228344
0
LINE
8
BLACK
6
CONTINUOUS
10
-4.5171700787401576
20
5.7067114173228344
11
-4.5172435433070861
21
5.8213526771653541
0
LINE
8
BLACK
6
CONTINUOUS
10
-4.5172435433070861
20
5.8213526771653541
11
-4.572829960629921
21
5.8212806692913386
0
LINE
8
BLACK
6
CONTINUOUS
10
-4.6720642913385824
20
5.8375628740157479
11
-4.6715316141732286
21
5.8370301968503933
0
LINE
8
BLACK
6
CONTINUOUS
10
-4.6715316141732286
20
5.8370301968503933
11
-4.6714566929133854
21
5.738228346456693
0
LINE
8
BLACK
6
CONTINUOUS
10
-4.6714566929133854
20
5.738228346456693
11
-4.6715316141732286
21
5.7378516929133854
0
LINE
8
BLACK
6
CONTINUOUS
10
-4.6715316141732286
20
5.7378516929133854
11
-4.6720642913385824
21
5.7373190157480316
0
LINE
8
BLACK
6
CONTINUOUS
10
-4.6720642913385824
20
5.7373190157480316
11
-4.7275590551181104
21
5.7372440944881893
0
LINE
8
BLACK
6
CONTINUOUS
10
-4.7275590551181104
20
5.7372440944881893
11
-4.7279357086614171
21
5.7373190157480316
0
LINE
8
BLACK
6
CONTINUOUS
10
-4.7279357086614171
20
5.7373190157480316
11
-4.7284683858267718
21
5.7378516929133854
0
LINE
8
BLACK
6
CONTINUOUS
10
-4.7284683858267718
20
5.7378516929133854
11
-4.7285433070866141
21
5.8366535433070865
0
LINE
8
BLACK
6
CONTINUOUS
10
-4.7285433070866141
20
5.8366535433070865
11
-4.7284683858267718
21
5.8370301968503933
0
LINE
8
BLACK
6
CONTINUOUS
10
-4.7284683858267718
20
5.8370301968503933
11
-4.7279357086614171
21
5.8375628740157479
0
LINE
8
BLACK
6
CONTINUOUS
10
-4.7279357086614171
20
5.8375628740157479
11
-4.67244094488189
21
5.8376377952755902
0
LINE
8
BLACK
6
CONTINUOUS
10
-4.67244094488189
20
5.8376377952755902
11
-4.6720642913385824
21
5.8375628740157479
0
LINE
8
BLACK
6
CONTINUOUS
10
-4.7266487007874014
20
5.8356705118110233
11
-4.7265755118110233
21
5.7391394881889761
0
LINE
8
BLACK
6
CONTINUOUS
10
-4.7265755118110233
20
5.7391394881889761
11
-4.6733513385826768
21
5.7392113385826766
0
LINE
8
BLACK
6
CONTINUOUS
10
-4.6733513385826768
20
5.7392113385826766
11
-4.6734245275590549
21
5.8357423622047246
0
LINE
8
BLACK
6
CONTINUOUS
10
-4.6734245275590549
20
5.8357423622047246
11
-4.7266487007874014
21
5.8356705118110233
0
LINE
8
BLACK
6
CONTINUOUS
10
-4.3608831889763779
20
5.94317311023622
11
-4.3603505118110233
21
5.9426404330708662
0
LINE
8
BLACK
6
CONTINUOUS
10
-4.3603505118110233
20
5.9426404330708662
11
-4.360275590551181
21
5.8257283464566925
0
LINE
8
BLACK
6
CONTINUOUS
10
-4.360275590551181
20
5.8257283464566925
11
-4.3603505118110233
21
5.8253516929133857
0
LINE
8
BLACK
6
CONTINUOUS
10
-4.3603505118110233
20
5.8253516929133857
11
-4.3608831889763779
21
5.8248190157480311
0
LINE
8
BLACK
6
CONTINUOUS
10
-4.3608831889763779
20
5.8248190157480311
11
-4.4187401574803147
21
5.8247440944881888
0
LINE
8
BLACK
6
CONTINUOUS
10
-4.4187401574803147
20
5.8247440944881888
11
-4.4191168110236223
21
5.8248190157480311
0
LINE
8
BLACK
6
CONTINUOUS
10
-4.4191168110236223
20
5.8248190157480311
11
-4.4196494881889761
21
5.8253516929133857
0
LINE
8
BLACK
6
CONTINUOUS
10
-4.4196494881889761
20
5.8253516929133857
11
-4.4197244094488184
21
5.9422637795275586
0
LINE
8
BLACK
6
CONTINUOUS
10
-4.4197244094488184
20
5.9422637795275586
11
-4.4196494881889761
21
5.9426404330708662
0
LINE
8
BLACK
6
CONTINUOUS
10
-4.4196494881889761
20
5.9426404330708662
11
-4.4191168110236223
21
5.94317311023622
0
LINE
8
BLACK
6
CONTINUOUS
10
-4.4191168110236223
20
5.94317311023622
11
-4.3612598425196847
21
5.9432480314960632
0
LINE
8
BLACK
6
CONTINUOUS
10
-4.3612598425196847
20
5.9432480314960632
11
-4.3608831889763779
21
5.94317311023622
0
LINE
8
BLACK
6
CONTINUOUS
10
-4.4178299606299207
20
5.9412806692913387
11
-4.4177564960629923
21
5.826639409448819
0
LINE
8
BLACK
6
CONTINUOUS
10
-4.4177564960629923
20
5.826639409448819
11
-4.3621700787401574
21
5.8267114173228345
0
LINE
8
BLACK
6
CONTINUOUS
10
-4.3621700787401574
20
5.8267114173228345
11
-4.3622435433070867
21
5.9413526771653542
0
LINE
8
BLACK
6
CONTINUOUS
10
-4.3622435433070867
20
5.9413526771653542
11
-4.4178299606299207
21
5.9412806692913387
0
LINE
8
BLACK
6
CONTINUOUS
10
-4.2808831889763779
20
5.94317311023622
11
-4.2803505118110232
21
5.9426404330708662
0
LINE
8
BLACK
6
CONTINUOUS
10
-4.2803505118110232
20
5.9426404330708662
11
-4.2802755905511809
21
5.8257283464566925
0
LINE
8
BLACK
6
CONTINUOUS
10
-4.2802755905511809
20
5.8257283464566925
11
-4.2803505118110232
21
5.8253516929133857
0
LINE
8
BLACK
6
CONTINUOUS
10
-4.2803505118110232
20
5.8253516929133857
11
-4.2808831889763779
21
5.8248190157480311
0
LINE
8
BLACK
6
CONTINUOUS
10
-4.2808831889763779
20
5.8248190157480311
11
-4.3387401574803146
21
5.8247440944881888
0
LINE
8
BLACK
6
CONTINUOUS
10
-4.3387401574803146
20
5.8247440944881888
11
-4.3391168110236222
21
5.8248190157480311
0
LINE
8
BLACK
6
CONTINUOUS
10
-4.3391168110236222
20
5.8248190157480311
11
-4.339649488188976
21
5.8253516929133857
0
LINE
8
BLACK
6
CONTINUOUS
10
-4.339649488188976
20
5.8253516929133857
11
-4.3397244094488192
21
5.9422637795275586
0
LINE
8
BLACK
6
CONTINUOUS
10
-4.3397244094488192
20
5.9422637795275586
11
-4.339649488188976
21
5.9426404330708662
0
LINE
8
BLACK
6
CONTINUOUS
10
-4.339649488188976
20
5.9426404330708662
11
-4.3391168110236222
21
5.94317311023622
0
LINE
8
BLACK
6
CONTINUOUS
10
-4.3391168110236222
20
5.94317311023622
11
-4.2812598425196846
21
5.9432480314960632
0
LINE
8
BLACK
6
CONTINUOUS
10
-4.2812598425196846
20
5.9432480314960632
11
-4.2808831889763779
21
5.94317311023622
0
LINE
8
BLACK
6
CONTINUOUS
10
-4.3378299606299215
20
5.9412806692913387
11
-4.3377564960629922
21
5.826639409448819
0
LINE
8
BLACK
6
CONTINUOUS
10
-4.3377564960629922
20
5.826639409448819
11
-4.2821700787401573
21
5.8267114173228345
0
LINE
8
BLACK
6
CONTINUOUS
10
-4.2821700787401573
20
5.8267114173228345
11
-4.2822435433070867
21
5.9413526771653542
0
LINE
8
BLACK
6
CONTINUOUS
10
-4.2822435433070867
20
5.9413526771653542
11
-4.3378299606299215
21
5.9412806692913387
0
LINE
8
BLACK
6
CONTINUOUS
10
-4.4303516929133862
20
5.9196494881889761
11
-4.4298190157480315
21
5.9191168110236223
0
LINE
8
BLACK
6
CONTINUOUS
10
-4.4298190157480315
20
5.9191168110236223
11
-4.4297440944881892
21
5.8612598425196847
0
LINE
8
BLACK
6
CONTINUOUS
10
-4.4297440944881892
20
5.8612598425196847
11
-4.4298190157480315
21
5.8608831889763779
0
LINE
8
BLACK
6
CONTINUOUS
10
-4.4298190157480315
20
5.8608831889763779
11
-4.4303516929133862
21
5.8603505118110233
0
LINE
8
BLACK
6
CONTINUOUS
10
-4.4303516929133862
20
5.8603505118110233
11
-4.547263779527559
21
5.860275590551181
0
LINE
8
BLACK
6
CONTINUOUS
10
-4.547263779527559
20
5.860275590551181
11
-4.5476404330708657
21
5.8603505118110233
0
LINE
8
BLACK
6
CONTINUOUS
10
-4.5476404330708657
20
5.8603505118110233
11
-4.5481731102362204
21
5.8608831889763779
0
LINE
8
BLACK
6
CONTINUOUS
10
-4.5481731102362204
20
5.8608831889763779
11
-4.5482480314960627
21
5.9187401574803147
0
LINE
8
BLACK
6
CONTINUOUS
10
-4.5482480314960627
20
5.9187401574803147
11
-4.5481731102362204
21
5.9191168110236223
0
LINE
8
BLACK
6
CONTINUOUS
10
-4.5481731102362204
20
5.9191168110236223
11
-4.5476404330708657
21
5.9196494881889761
0
LINE
8
BLACK
6
CONTINUOUS
10
-4.5476404330708657
20
5.9196494881889761
11
-4.4307283464566929
21
5.9197244094488184
0
LINE
8
BLACK
6
CONTINUOUS
10
-4.4307283464566929
20
5.9197244094488184
11
-4.4303516929133862
21
5.9196494881889761
0
LINE
8
BLACK
6
CONTINUOUS
10
-4.5463527165354334
20
5.9177564566929135
11
-4.546280708661417
21
5.8621700393700786
0
LINE
8
BLACK
6
CONTINUOUS
10
-4.546280708661417
20
5.8621700393700786
11
-4.4316394488188973
21
5.862243503937008
0
LINE
8
BLACK
6
CONTINUOUS
10
-4.4316394488188973
20
5.862243503937008
11
-4.4317114566929137
21
5.917829921259842
0
LINE
8
BLACK
6
CONTINUOUS
10
-4.4317114566929137
20
5.917829921259842
11
-4.5463527165354334
21
5.9177564566929135
  0
ENDSEC
  0
EOF
