  0
SECTION
  2
HEADER
  9
$ANGBASE
  50
0.0
  9
$ANGDIR
  70
1
  9
$MEASUREMENT
  70
0
  0
ENDSEC
  0
SECTION
  2
TABLES
  0
TABLE
  2
LTYPE
  70
4
  0
LTYPE
  5
40F
  2
CONTINUOUS
  70
0
  3
Solid line
  72
65
  73
0
  40
0.0
  0
LTYPE
  5
410
  2
DASHDOT
 70
0
  3
Dash Dot ____ _ ____ _
 72
65
 73
4
 40
2.0
 49
1.25
 49
-0.25
 49
0.25
 49
-0.25
  0
LTYPE
  5
411
  2
DASHED
 70
0
  3
Dashed __ __ __ __ __
 72
65
 73
2
 40
0.75
 49
0.5
 49
-0.25
  0
LTYPE
  5
43B
  2
DOTTED
 70
0
  3
Dotted .  .  .  .
 72
65
 73
2
 40
0.2
 49
0.0
 49
-0.2
  0
ENDTAB
  0
TABLE
  2
STYLE
  70
4
  0
STYLE
  2
KICAD
  70
0
  40
0
  41
1
  42
1
  50
0
  71
0
  3
isocp.shx
  0
STYLE
  2
KICADB
  70
0
  40
0
  41
1
  42
1
  50
0
  71
0
  3
isocp.shx
  0
STYLE
  2
KICADI
  70
0
  40
0
  41
1
  42
1
  50
15
  71
0
  3
isocp.shx
  0
STYLE
  2
KICADBI
  70
0
  40
0
  41
1
  42
1
  50
15
  71
0
  3
isocp.shx
  0
ENDTAB
  0
TABLE
  2
LAYER
  70
1
  0
LAYER
  2
BLACK
  70
0
  62
7
  6
CONTINUOUS
  0
ENDTAB
  0
ENDSEC
  0
SECTION
  2
ENTITIES
0
LINE
8
BLACK
6
CONTINUOUS
10
-4.47899
20
5.4711
11
-4.4783
21
5.46943
0
LINE
8
BLACK
6
CONTINUOUS
10
-4.4783
20
5.46943
11
-4.47899
21
5.46776
0
LINE
8
BLACK
6
CONTINUOUS
10
-4.47899
20
5.46776
11
-4.48066
21
5.46707
0
LINE
8
BLACK
6
CONTINUOUS
10
-4.48066
20
5.46707
11
-4.49934
21
5.46707
0
LINE
8
BLACK
6
CONTINUOUS
10
-4.49934
20
5.46707
11
-4.50101
21
5.46776
0
LINE
8
BLACK
6
CONTINUOUS
10
-4.50101
20
5.46776
11
-4.5017
21
5.46943
0
LINE
8
BLACK
6
CONTINUOUS
10
-4.5017
20
5.46943
11
-4.50101
21
5.4711
0
LINE
8
BLACK
6
CONTINUOUS
10
-4.50101
20
5.4711
11
-4.49934
21
5.47179
0
LINE
8
BLACK
6
CONTINUOUS
10
-4.49934
20
5.47179
11
-4.48066
21
5.47179
0
LINE
8
BLACK
6
CONTINUOUS
10
-4.48066
20
5.47179
11
-4.47899
21
5.4711
0
LINE
8
BLACK
6
CONTINUOUS
10
-4.4089
20
5.49601
11
-4.40821
21
5.49434
0
LINE
8
BLACK
6
CONTINUOUS
10
-4.40821
20
5.49434
11
-4.40821
21
5.47566
0
LINE
8
BLACK
6
CONTINUOUS
10
-4.40821
20
5.47566
11
-4.4089
21
5.47399
0
LINE
8
BLACK
6
CONTINUOUS
10
-4.4089
20
5.47399
11
-4.41057
21
5.4733
0
LINE
8
BLACK
6
CONTINUOUS
10
-4.41057
20
5.4733
11
-4.41224
21
5.47399
0
LINE
8
BLACK
6
CONTINUOUS
10
-4.41224
20
5.47399
11
-4.41293
21
5.47566
0
LINE
8
BLACK
6
CONTINUOUS
10
-4.41293
20
5.47566
11
-4.41293
21
5.49434
0
LINE
8
BLACK
6
CONTINUOUS
10
-4.41293
20
5.49434
11
-4.41224
21
5.49601
0
LINE
8
BLACK
6
CONTINUOUS
10
-4.41224
20
5.49601
11
-4.41057
21
5.4967
0
LINE
8
BLACK
6
CONTINUOUS
10
-4.41057
20
5.4967
11
-4.4089
21
5.49601
0
LINE
8
BLACK
6
CONTINUOUS
10
-4.36776
20
5.49601
11
-4.36707
21
5.49434
0
LINE
8
BLACK
6
CONTINUOUS
10
-4.36707
20
5.49434
11
-4.36707
21
5.47566
0
LINE
8
BLACK
6
CONTINUOUS
10
-4.36707
20
5.47566
11
-4.36776
21
5.47399
0
LINE
8
BLACK
6
CONTINUOUS
10
-4.36776
20
5.47399
11
-4.36943
21
5.4733
0
LINE
8
BLACK
6
CONTINUOUS
10
-4.36943
20
5.4733
11
-4.3711
21
5.47399
0
LINE
8
BLACK
6
CONTINUOUS
10
-4.3711
20
5.47399
11
-4.37179
21
5.47566
0
LINE
8
BLACK
6
CONTINUOUS
10
-4.37179
20
5.47566
11
-4.37179
21
5.49434
0
LINE
8
BLACK
6
CONTINUOUS
10
-4.37179
20
5.49434
11
-4.3711
21
5.49601
0
LINE
8
BLACK
6
CONTINUOUS
10
-4.3711
20
5.49601
11
-4.36943
21
5.4967
0
LINE
8
BLACK
6
CONTINUOUS
10
-4.36943
20
5.4967
11
-4.36776
21
5.49601
0
LINE
8
BLACK
6
CONTINUOUS
10
-4.3289
20
5.49601
11
-4.32821
21
5.49434
0
LINE
8
BLACK
6
CONTINUOUS
10
-4.32821
20
5.49434
11
-4.32821
21
5.47566
0
LINE
8
BLACK
6
CONTINUOUS
10
-4.32821
20
5.47566
11
-4.3289
21
5.47399
0
LINE
8
BLACK
6
CONTINUOUS
10
-4.3289
20
5.47399
11
-4.33057
21
5.4733
0
LINE
8
BLACK
6
CONTINUOUS
10
-4.33057
20
5.4733
11
-4.33224
21
5.47399
0
LINE
8
BLACK
6
CONTINUOUS
10
-4.33224
20
5.47399
11
-4.33293
21
5.47566
0
LINE
8
BLACK
6
CONTINUOUS
10
-4.33293
20
5.47566
11
-4.33293
21
5.49434
0
LINE
8
BLACK
6
CONTINUOUS
10
-4.33293
20
5.49434
11
-4.33224
21
5.49601
0
LINE
8
BLACK
6
CONTINUOUS
10
-4.33224
20
5.49601
11
-4.33057
21
5.4967
0
LINE
8
BLACK
6
CONTINUOUS
10
-4.33057
20
5.4967
11
-4.3289
21
5.49601
0
LINE
8
BLACK
6
CONTINUOUS
10
-4.28776
20
5.49601
11
-4.28707
21
5.49434
0
LINE
8
BLACK
6
CONTINUOUS
10
-4.28707
20
5.49434
11
-4.28707
21
5.47566
0
LINE
8
BLACK
6
CONTINUOUS
10
-4.28707
20
5.47566
11
-4.28776
21
5.47399
0
LINE
8
BLACK
6
CONTINUOUS
10
-4.28776
20
5.47399
11
-4.28943
21
5.4733
0
LINE
8
BLACK
6
CONTINUOUS
10
-4.28943
20
5.4733
11
-4.2911
21
5.47399
0
LINE
8
BLACK
6
CONTINUOUS
10
-4.2911
20
5.47399
11
-4.29179
21
5.47566
0
LINE
8
BLACK
6
CONTINUOUS
10
-4.29179
20
5.47566
11
-4.29179
21
5.49434
0
LINE
8
BLACK
6
CONTINUOUS
10
-4.29179
20
5.49434
11
-4.2911
21
5.49601
0
LINE
8
BLACK
6
CONTINUOUS
10
-4.2911
20
5.49601
11
-4.28943
21
5.4967
0
LINE
8
BLACK
6
CONTINUOUS
10
-4.28943
20
5.4967
11
-4.28776
21
5.49601
0
LINE
8
BLACK
6
CONTINUOUS
10
-4.47899
20
5.51224
11
-4.4783
21
5.51057
0
LINE
8
BLACK
6
CONTINUOUS
10
-4.4783
20
5.51057
11
-4.47899
21
5.5089
0
LINE
8
BLACK
6
CONTINUOUS
10
-4.47899
20
5.5089
11
-4.48066
21
5.50821
0
LINE
8
BLACK
6
CONTINUOUS
10
-4.48066
20
5.50821
11
-4.49934
21
5.50821
0
LINE
8
BLACK
6
CONTINUOUS
10
-4.49934
20
5.50821
11
-4.50101
21
5.5089
0
LINE
8
BLACK
6
CONTINUOUS
10
-4.50101
20
5.5089
11
-4.5017
21
5.51057
0
LINE
8
BLACK
6
CONTINUOUS
10
-4.5017
20
5.51057
11
-4.50101
21
5.51224
0
LINE
8
BLACK
6
CONTINUOUS
10
-4.50101
20
5.51224
11
-4.49934
21
5.51293
0
LINE
8
BLACK
6
CONTINUOUS
10
-4.49934
20
5.51293
11
-4.48066
21
5.51293
0
LINE
8
BLACK
6
CONTINUOUS
10
-4.48066
20
5.51293
11
-4.47899
21
5.51224
0
LINE
8
BLACK
6
CONTINUOUS
10
-4.77179
20
5.59108
11
-4.7711
21
5.58941
0
LINE
8
BLACK
6
CONTINUOUS
10
-4.7711
20
5.58941
11
-4.77179
21
5.58774
0
LINE
8
BLACK
6
CONTINUOUS
10
-4.77179
20
5.58774
11
-4.77346
21
5.58705
0
LINE
8
BLACK
6
CONTINUOUS
10
-4.77346
20
5.58705
11
-4.81008
21
5.58705
0
LINE
8
BLACK
6
CONTINUOUS
10
-4.81008
20
5.58705
11
-4.81008
21
5.51854
0
LINE
8
BLACK
6
CONTINUOUS
10
-4.81008
20
5.51854
11
-4.81077
21
5.51687
0
LINE
8
BLACK
6
CONTINUOUS
10
-4.81077
20
5.51687
11
-4.81244
21
5.51618
0
LINE
8
BLACK
6
CONTINUOUS
10
-4.81244
20
5.51618
11
-4.86953
21
5.51618
0
LINE
8
BLACK
6
CONTINUOUS
10
-4.86953
20
5.51618
11
-4.8712
21
5.51687
0
LINE
8
BLACK
6
CONTINUOUS
10
-4.8712
20
5.51687
11
-4.87189
21
5.51854
0
LINE
8
BLACK
6
CONTINUOUS
10
-4.87189
20
5.51854
11
-4.8712
21
5.52021
0
LINE
8
BLACK
6
CONTINUOUS
10
-4.8712
20
5.52021
11
-4.86953
21
5.52091
0
LINE
8
BLACK
6
CONTINUOUS
10
-4.86953
20
5.52091
11
-4.8148
21
5.52091
0
LINE
8
BLACK
6
CONTINUOUS
10
-4.8148
20
5.52091
11
-4.8148
21
5.58941
0
LINE
8
BLACK
6
CONTINUOUS
10
-4.8148
20
5.58941
11
-4.81411
21
5.59108
0
LINE
8
BLACK
6
CONTINUOUS
10
-4.81411
20
5.59108
11
-4.81244
21
5.59177
0
LINE
8
BLACK
6
CONTINUOUS
10
-4.81244
20
5.59177
11
-4.77346
21
5.59177
0
LINE
8
BLACK
6
CONTINUOUS
10
-4.77346
20
5.59177
11
-4.77179
21
5.59108
0
LINE
8
BLACK
6
CONTINUOUS
10
-4.18164
20
5.59108
11
-4.18094
21
5.58941
0
LINE
8
BLACK
6
CONTINUOUS
10
-4.18094
20
5.58941
11
-4.18094
21
5.52091
0
LINE
8
BLACK
6
CONTINUOUS
10
-4.18094
20
5.52091
11
-4.12622
21
5.52091
0
LINE
8
BLACK
6
CONTINUOUS
10
-4.12622
20
5.52091
11
-4.12455
21
5.52021
0
LINE
8
BLACK
6
CONTINUOUS
10
-4.12455
20
5.52021
11
-4.12386
21
5.51854
0
LINE
8
BLACK
6
CONTINUOUS
10
-4.12386
20
5.51854
11
-4.12455
21
5.51687
0
LINE
8
BLACK
6
CONTINUOUS
10
-4.12455
20
5.51687
11
-4.12622
21
5.51618
0
LINE
8
BLACK
6
CONTINUOUS
10
-4.12622
20
5.51618
11
-4.18331
21
5.51618
0
LINE
8
BLACK
6
CONTINUOUS
10
-4.18331
20
5.51618
11
-4.18498
21
5.51687
0
LINE
8
BLACK
6
CONTINUOUS
10
-4.18498
20
5.51687
11
-4.18567
21
5.51854
0
LINE
8
BLACK
6
CONTINUOUS
10
-4.18567
20
5.51854
11
-4.18567
21
5.58941
0
LINE
8
BLACK
6
CONTINUOUS
10
-4.18567
20
5.58941
11
-4.18498
21
5.59108
0
LINE
8
BLACK
6
CONTINUOUS
10
-4.18498
20
5.59108
11
-4.18331
21
5.59177
0
LINE
8
BLACK
6
CONTINUOUS
10
-4.18331
20
5.59177
11
-4.18164
21
5.59108
0
LINE
8
BLACK
6
CONTINUOUS
10
-4.59191
20
5.66317
11
-4.59122
21
5.6615
0
LINE
8
BLACK
6
CONTINUOUS
10
-4.59122
20
5.6615
11
-4.59122
21
5.63
0
LINE
8
BLACK
6
CONTINUOUS
10
-4.59122
20
5.63
11
-4.59122
21
5.55913
0
LINE
8
BLACK
6
CONTINUOUS
10
-4.59122
20
5.55913
11
-4.59191
21
5.55746
0
LINE
8
BLACK
6
CONTINUOUS
10
-4.59191
20
5.55746
11
-4.59358
21
5.55677
0
LINE
8
BLACK
6
CONTINUOUS
10
-4.59358
20
5.55677
11
-4.59525
21
5.55746
0
LINE
8
BLACK
6
CONTINUOUS
10
-4.59525
20
5.55746
11
-4.59594
21
5.55913
0
LINE
8
BLACK
6
CONTINUOUS
10
-4.59594
20
5.55913
11
-4.59594
21
5.63
0
LINE
8
BLACK
6
CONTINUOUS
10
-4.59594
20
5.63
11
-4.59594
21
5.6615
0
LINE
8
BLACK
6
CONTINUOUS
10
-4.59594
20
5.6615
11
-4.59525
21
5.66317
0
LINE
8
BLACK
6
CONTINUOUS
10
-4.59525
20
5.66317
11
-4.59358
21
5.66386
0
LINE
8
BLACK
6
CONTINUOUS
10
-4.59358
20
5.66386
11
-4.59191
21
5.66317
0
LINE
8
BLACK
6
CONTINUOUS
10
-4.34455
20
5.68695
11
-4.34386
21
5.68528
0
LINE
8
BLACK
6
CONTINUOUS
10
-4.34386
20
5.68528
11
-4.34386
21
5.56717
0
LINE
8
BLACK
6
CONTINUOUS
10
-4.34386
20
5.56717
11
-4.34455
21
5.5655
0
LINE
8
BLACK
6
CONTINUOUS
10
-4.34455
20
5.5655
11
-4.34622
21
5.5648
0
LINE
8
BLACK
6
CONTINUOUS
10
-4.34622
20
5.5648
11
-4.34789
21
5.5655
0
LINE
8
BLACK
6
CONTINUOUS
10
-4.34789
20
5.5655
11
-4.34858
21
5.56717
0
LINE
8
BLACK
6
CONTINUOUS
10
-4.34858
20
5.56717
11
-4.34858
21
5.68528
0
LINE
8
BLACK
6
CONTINUOUS
10
-4.34858
20
5.68528
11
-4.34789
21
5.68695
0
LINE
8
BLACK
6
CONTINUOUS
10
-4.34789
20
5.68695
11
-4.34622
21
5.68764
0
LINE
8
BLACK
6
CONTINUOUS
10
-4.34622
20
5.68764
11
-4.34455
21
5.68695
0
LINE
8
BLACK
6
CONTINUOUS
10
-4.97888
20
5.80368
11
-4.97819
21
5.80201
0
LINE
8
BLACK
6
CONTINUOUS
10
-4.97819
20
5.80201
11
-4.97819
21
5.56854
0
LINE
8
BLACK
6
CONTINUOUS
10
-4.97819
20
5.56854
11
-4.97888
21
5.56687
0
LINE
8
BLACK
6
CONTINUOUS
10
-4.97888
20
5.56687
11
-4.98055
21
5.56618
0
LINE
8
BLACK
6
CONTINUOUS
10
-4.98055
20
5.56618
11
-4.98222
21
5.56687
0
LINE
8
BLACK
6
CONTINUOUS
10
-4.98222
20
5.56687
11
-4.98291
21
5.56854
0
LINE
8
BLACK
6
CONTINUOUS
10
-4.98291
20
5.56854
11
-4.98291
21
5.80201
0
LINE
8
BLACK
6
CONTINUOUS
10
-4.98291
20
5.80201
11
-4.98222
21
5.80368
0
LINE
8
BLACK
6
CONTINUOUS
10
-4.98222
20
5.80368
11
-4.98055
21
5.80437
0
LINE
8
BLACK
6
CONTINUOUS
10
-4.98055
20
5.80437
11
-4.97888
21
5.80368
0
LINE
8
BLACK
6
CONTINUOUS
10
-4.01353
20
5.80368
11
-4.01283
21
5.80201
0
LINE
8
BLACK
6
CONTINUOUS
10
-4.01283
20
5.80201
11
-4.01283
21
5.56854
0
LINE
8
BLACK
6
CONTINUOUS
10
-4.01283
20
5.56854
11
-4.01353
21
5.56687
0
LINE
8
BLACK
6
CONTINUOUS
10
-4.01353
20
5.56687
11
-4.0152
21
5.56618
0
LINE
8
BLACK
6
CONTINUOUS
10
-4.0152
20
5.56618
11
-4.01687
21
5.56687
0
LINE
8
BLACK
6
CONTINUOUS
10
-4.01687
20
5.56687
11
-4.01756
21
5.56854
0
LINE
8
BLACK
6
CONTINUOUS
10
-4.01756
20
5.56854
11
-4.01756
21
5.80201
0
LINE
8
BLACK
6
CONTINUOUS
10
-4.01756
20
5.80201
11
-4.01687
21
5.80368
0
LINE
8
BLACK
6
CONTINUOUS
10
-4.01687
20
5.80368
11
-4.0152
21
5.80437
0
LINE
8
BLACK
6
CONTINUOUS
10
-4.0152
20
5.80437
11
-4.01353
21
5.80368
0
LINE
8
BLACK
6
CONTINUOUS
10
-4.5689
20
5.61202
11
-4.56821
21
5.61034
0
LINE
8
BLACK
6
CONTINUOUS
10
-4.56821
20
5.61034
11
-4.56821
21
5.59166
0
LINE
8
BLACK
6
CONTINUOUS
10
-4.56821
20
5.59166
11
-4.5689
21
5.58999
0
LINE
8
BLACK
6
CONTINUOUS
10
-4.5689
20
5.58999
11
-4.57057
21
5.5893
0
LINE
8
BLACK
6
CONTINUOUS
10
-4.57057
20
5.5893
11
-4.57224
21
5.58999
0
LINE
8
BLACK
6
CONTINUOUS
10
-4.57224
20
5.58999
11
-4.57293
21
5.59166
0
LINE
8
BLACK
6
CONTINUOUS
10
-4.57293
20
5.59166
11
-4.57293
21
5.61034
0
LINE
8
BLACK
6
CONTINUOUS
10
-4.57293
20
5.61034
11
-4.57224
21
5.61202
0
LINE
8
BLACK
6
CONTINUOUS
10
-4.57224
20
5.61202
11
-4.57057
21
5.61271
0
LINE
8
BLACK
6
CONTINUOUS
10
-4.57057
20
5.61271
11
-4.5689
21
5.61202
0
LINE
8
BLACK
6
CONTINUOUS
10
-4.52776
20
5.61202
11
-4.52707
21
5.61034
0
LINE
8
BLACK
6
CONTINUOUS
10
-4.52707
20
5.61034
11
-4.52707
21
5.59166
0
LINE
8
BLACK
6
CONTINUOUS
10
-4.52707
20
5.59166
11
-4.52776
21
5.58999
0
LINE
8
BLACK
6
CONTINUOUS
10
-4.52776
20
5.58999
11
-4.52943
21
5.5893
0
LINE
8
BLACK
6
CONTINUOUS
10
-4.52943
20
5.5893
11
-4.5311
21
5.58999
0
LINE
8
BLACK
6
CONTINUOUS
10
-4.5311
20
5.58999
11
-4.53179
21
5.59166
0
LINE
8
BLACK
6
CONTINUOUS
10
-4.53179
20
5.59166
11
-4.53179
21
5.61034
0
LINE
8
BLACK
6
CONTINUOUS
10
-4.53179
20
5.61034
11
-4.5311
21
5.61202
0
LINE
8
BLACK
6
CONTINUOUS
10
-4.5311
20
5.61202
11
-4.52943
21
5.61271
0
LINE
8
BLACK
6
CONTINUOUS
10
-4.52943
20
5.61271
11
-4.52776
21
5.61202
0
LINE
8
BLACK
6
CONTINUOUS
10
-4.71475
20
5.66317
11
-4.71406
21
5.6615
0
LINE
8
BLACK
6
CONTINUOUS
10
-4.71406
20
5.6615
11
-4.71406
21
5.63
0
LINE
8
BLACK
6
CONTINUOUS
10
-4.71406
20
5.63
11
-4.71406
21
5.5985
0
LINE
8
BLACK
6
CONTINUOUS
10
-4.71406
20
5.5985
11
-4.71475
21
5.59683
0
LINE
8
BLACK
6
CONTINUOUS
10
-4.71475
20
5.59683
11
-4.71642
21
5.59614
0
LINE
8
BLACK
6
CONTINUOUS
10
-4.71642
20
5.59614
11
-4.71809
21
5.59683
0
LINE
8
BLACK
6
CONTINUOUS
10
-4.71809
20
5.59683
11
-4.71878
21
5.5985
0
LINE
8
BLACK
6
CONTINUOUS
10
-4.71878
20
5.5985
11
-4.71878
21
5.63
0
LINE
8
BLACK
6
CONTINUOUS
10
-4.71878
20
5.63
11
-4.71878
21
5.6615
0
LINE
8
BLACK
6
CONTINUOUS
10
-4.71878
20
5.6615
11
-4.71809
21
5.66317
0
LINE
8
BLACK
6
CONTINUOUS
10
-4.71809
20
5.66317
11
-4.71642
21
5.66386
0
LINE
8
BLACK
6
CONTINUOUS
10
-4.71642
20
5.66386
11
-4.71475
21
5.66317
0
LINE
8
BLACK
6
CONTINUOUS
10
-4.47211
20
5.72632
11
-4.47142
21
5.72465
0
LINE
8
BLACK
6
CONTINUOUS
10
-4.47142
20
5.72465
11
-4.47142
21
5.64591
0
LINE
8
BLACK
6
CONTINUOUS
10
-4.47142
20
5.64591
11
-4.47211
21
5.64424
0
LINE
8
BLACK
6
CONTINUOUS
10
-4.47211
20
5.64424
11
-4.47378
21
5.64354
0
LINE
8
BLACK
6
CONTINUOUS
10
-4.47378
20
5.64354
11
-4.47545
21
5.64424
0
LINE
8
BLACK
6
CONTINUOUS
10
-4.47545
20
5.64424
11
-4.47614
21
5.64591
0
LINE
8
BLACK
6
CONTINUOUS
10
-4.47614
20
5.64591
11
-4.47614
21
5.72465
0
LINE
8
BLACK
6
CONTINUOUS
10
-4.47614
20
5.72465
11
-4.47545
21
5.72632
0
LINE
8
BLACK
6
CONTINUOUS
10
-4.47545
20
5.72632
11
-4.47378
21
5.72701
0
LINE
8
BLACK
6
CONTINUOUS
10
-4.47378
20
5.72701
11
-4.47211
21
5.72632
0
LINE
8
BLACK
6
CONTINUOUS
10
-4.88846
20
5.68362
11
-4.88734
21
5.68194
0
LINE
8
BLACK
6
CONTINUOUS
10
-4.88734
20
5.68194
11
-4.88757
21
5.67993
0
LINE
8
BLACK
6
CONTINUOUS
10
-4.88757
20
5.67993
11
-4.88945
21
5.67618
0
LINE
8
BLACK
6
CONTINUOUS
10
-4.88945
20
5.67618
11
-4.88997
21
5.67547
0
LINE
8
BLACK
6
CONTINUOUS
10
-4.88997
20
5.67547
11
-4.89
21
5.67541
0
LINE
8
BLACK
6
CONTINUOUS
10
-4.89
20
5.67541
11
-4.89246
21
5.67295
0
LINE
8
BLACK
6
CONTINUOUS
10
-4.89246
20
5.67295
11
-4.86505
21
5.67295
0
LINE
8
BLACK
6
CONTINUOUS
10
-4.86505
20
5.67295
11
-4.86505
21
5.68125
0
LINE
8
BLACK
6
CONTINUOUS
10
-4.86505
20
5.68125
11
-4.86487
21
5.68226
0
LINE
8
BLACK
6
CONTINUOUS
10
-4.86487
20
5.68226
11
-4.86357
21
5.68381
0
LINE
8
BLACK
6
CONTINUOUS
10
-4.86357
20
5.68381
11
-4.86158
21
5.68416
0
LINE
8
BLACK
6
CONTINUOUS
10
-4.86158
20
5.68416
11
-4.85983
21
5.68315
0
LINE
8
BLACK
6
CONTINUOUS
10
-4.85983
20
5.68315
11
-4.85914
21
5.68125
0
LINE
8
BLACK
6
CONTINUOUS
10
-4.85914
20
5.68125
11
-4.85914
21
5.65875
0
LINE
8
BLACK
6
CONTINUOUS
10
-4.85914
20
5.65875
11
-4.85932
21
5.65774
0
LINE
8
BLACK
6
CONTINUOUS
10
-4.85932
20
5.65774
11
-4.86062
21
5.6562
0
LINE
8
BLACK
6
CONTINUOUS
10
-4.86062
20
5.6562
11
-4.86261
21
5.65585
0
LINE
8
BLACK
6
CONTINUOUS
10
-4.86261
20
5.65585
11
-4.86436
21
5.65686
0
LINE
8
BLACK
6
CONTINUOUS
10
-4.86436
20
5.65686
11
-4.86505
21
5.65875
0
LINE
8
BLACK
6
CONTINUOUS
10
-4.86505
20
5.65875
11
-4.86505
21
5.66705
0
LINE
8
BLACK
6
CONTINUOUS
10
-4.86505
20
5.66705
11
-4.90146
21
5.66705
0
LINE
8
BLACK
6
CONTINUOUS
10
-4.90146
20
5.66705
11
-4.90247
21
5.66723
0
LINE
8
BLACK
6
CONTINUOUS
10
-4.90247
20
5.66723
11
-4.9026
21
5.66734
0
LINE
8
BLACK
6
CONTINUOUS
10
-4.9026
20
5.66734
11
-4.90277
21
5.66735
0
LINE
8
BLACK
6
CONTINUOUS
10
-4.90277
20
5.66735
11
-4.90336
21
5.66797
0
LINE
8
BLACK
6
CONTINUOUS
10
-4.90336
20
5.66797
11
-4.90402
21
5.66853
0
LINE
8
BLACK
6
CONTINUOUS
10
-4.90402
20
5.66853
11
-4.90405
21
5.66869
0
LINE
8
BLACK
6
CONTINUOUS
10
-4.90405
20
5.66869
11
-4.90417
21
5.66882
0
LINE
8
BLACK
6
CONTINUOUS
10
-4.90417
20
5.66882
11
-4.90422
21
5.66967
0
LINE
8
BLACK
6
CONTINUOUS
10
-4.90422
20
5.66967
11
-4.90437
21
5.67051
0
LINE
8
BLACK
6
CONTINUOUS
10
-4.90437
20
5.67051
11
-4.90429
21
5.67066
0
LINE
8
BLACK
6
CONTINUOUS
10
-4.90429
20
5.67066
11
-4.9043
21
5.67083
0
LINE
8
BLACK
6
CONTINUOUS
10
-4.9043
20
5.67083
11
-4.90379
21
5.67152
0
LINE
8
BLACK
6
CONTINUOUS
10
-4.90379
20
5.67152
11
-4.90336
21
5.67226
0
LINE
8
BLACK
6
CONTINUOUS
10
-4.90336
20
5.67226
11
-4.9032
21
5.67232
0
LINE
8
BLACK
6
CONTINUOUS
10
-4.9032
20
5.67232
11
-4.9031
21
5.67246
0
LINE
8
BLACK
6
CONTINUOUS
10
-4.9031
20
5.67246
11
-4.89772
21
5.67605
0
LINE
8
BLACK
6
CONTINUOUS
10
-4.89772
20
5.67605
11
-4.89452
21
5.67925
0
LINE
8
BLACK
6
CONTINUOUS
10
-4.89452
20
5.67925
11
-4.89286
21
5.68257
0
LINE
8
BLACK
6
CONTINUOUS
10
-4.89286
20
5.68257
11
-4.89225
21
5.68339
0
LINE
8
BLACK
6
CONTINUOUS
10
-4.89225
20
5.68339
11
-4.89039
21
5.6842
0
LINE
8
BLACK
6
CONTINUOUS
10
-4.89039
20
5.6842
11
-4.88846
21
5.68362
0
LINE
8
BLACK
6
CONTINUOUS
10
-4.08076
20
5.70921
11
-4.07888
21
5.70734
0
LINE
8
BLACK
6
CONTINUOUS
10
-4.07888
20
5.70734
11
-4.07837
21
5.70662
0
LINE
8
BLACK
6
CONTINUOUS
10
-4.07837
20
5.70662
11
-4.07833
21
5.70657
0
LINE
8
BLACK
6
CONTINUOUS
10
-4.07833
20
5.70657
11
-4.07645
21
5.70282
0
LINE
8
BLACK
6
CONTINUOUS
10
-4.07645
20
5.70282
11
-4.07616
21
5.70184
0
LINE
8
BLACK
6
CONTINUOUS
10
-4.07616
20
5.70184
11
-4.0762
21
5.70167
0
LINE
8
BLACK
6
CONTINUOUS
10
-4.0762
20
5.70167
11
-4.07614
21
5.7015
0
LINE
8
BLACK
6
CONTINUOUS
10
-4.07614
20
5.7015
11
-4.07614
21
5.69025
0
LINE
8
BLACK
6
CONTINUOUS
10
-4.07614
20
5.69025
11
-4.07632
21
5.68924
0
LINE
8
BLACK
6
CONTINUOUS
10
-4.07632
20
5.68924
11
-4.07643
21
5.68911
0
LINE
8
BLACK
6
CONTINUOUS
10
-4.07643
20
5.68911
11
-4.07645
21
5.68893
0
LINE
8
BLACK
6
CONTINUOUS
10
-4.07645
20
5.68893
11
-4.07833
21
5.68518
0
LINE
8
BLACK
6
CONTINUOUS
10
-4.07833
20
5.68518
11
-4.07885
21
5.68447
0
LINE
8
BLACK
6
CONTINUOUS
10
-4.07885
20
5.68447
11
-4.07888
21
5.68441
0
LINE
8
BLACK
6
CONTINUOUS
10
-4.07888
20
5.68441
11
-4.08076
21
5.68254
0
LINE
8
BLACK
6
CONTINUOUS
10
-4.08076
20
5.68254
11
-4.08148
21
5.68203
0
LINE
8
BLACK
6
CONTINUOUS
10
-4.08148
20
5.68203
11
-4.08152
21
5.68199
0
LINE
8
BLACK
6
CONTINUOUS
10
-4.08152
20
5.68199
11
-4.08527
21
5.68011
0
LINE
8
BLACK
6
CONTINUOUS
10
-4.08527
20
5.68011
11
-4.08626
21
5.67982
0
LINE
8
BLACK
6
CONTINUOUS
10
-4.08626
20
5.67982
11
-4.08643
21
5.67986
0
LINE
8
BLACK
6
CONTINUOUS
10
-4.08643
20
5.67986
11
-4.08659
21
5.6798
0
LINE
8
BLACK
6
CONTINUOUS
10
-4.08659
20
5.6798
11
-4.09597
21
5.6798
0
LINE
8
BLACK
6
CONTINUOUS
10
-4.09597
20
5.6798
11
-4.09698
21
5.67998
0
LINE
8
BLACK
6
CONTINUOUS
10
-4.09698
20
5.67998
11
-4.09711
21
5.68009
0
LINE
8
BLACK
6
CONTINUOUS
10
-4.09711
20
5.68009
11
-4.09729
21
5.68011
0
LINE
8
BLACK
6
CONTINUOUS
10
-4.09729
20
5.68011
11
-4.10104
21
5.68199
0
LINE
8
BLACK
6
CONTINUOUS
10
-4.10104
20
5.68199
11
-4.10175
21
5.68251
0
LINE
8
BLACK
6
CONTINUOUS
10
-4.10175
20
5.68251
11
-4.1018
21
5.68254
0
LINE
8
BLACK
6
CONTINUOUS
10
-4.1018
20
5.68254
11
-4.10368
21
5.68441
0
LINE
8
BLACK
6
CONTINUOUS
10
-4.10368
20
5.68441
11
-4.10419
21
5.68514
0
LINE
8
BLACK
6
CONTINUOUS
10
-4.10419
20
5.68514
11
-4.10423
21
5.68518
0
LINE
8
BLACK
6
CONTINUOUS
10
-4.10423
20
5.68518
11
-4.10611
21
5.68893
0
LINE
8
BLACK
6
CONTINUOUS
10
-4.10611
20
5.68893
11
-4.10627
21
5.6895
0
LINE
8
BLACK
6
CONTINUOUS
10
-4.10627
20
5.6895
11
-4.11652
21
5.68053
0
LINE
8
BLACK
6
CONTINUOUS
10
-4.11652
20
5.68053
11
-4.1169
21
5.6803
0
LINE
8
BLACK
6
CONTINUOUS
10
-4.1169
20
5.6803
11
-4.11699
21
5.6802
0
LINE
8
BLACK
6
CONTINUOUS
10
-4.11699
20
5.6802
11
-4.11711
21
5.68017
0
LINE
8
BLACK
6
CONTINUOUS
10
-4.11711
20
5.68017
11
-4.1174
21
5.68
0
LINE
8
BLACK
6
CONTINUOUS
10
-4.1174
20
5.68
11
-4.11819
21
5.67998
0
LINE
8
BLACK
6
CONTINUOUS
10
-4.11819
20
5.67998
11
-4.11898
21
5.67985
0
LINE
8
BLACK
6
CONTINUOUS
10
-4.11898
20
5.67985
11
-4.11918
21
5.67996
0
LINE
8
BLACK
6
CONTINUOUS
10
-4.11918
20
5.67996
11
-4.11942
21
5.67996
0
LINE
8
BLACK
6
CONTINUOUS
10
-4.11942
20
5.67996
11
-4.12004
21
5.68046
0
LINE
8
BLACK
6
CONTINUOUS
10
-4.12004
20
5.68046
11
-4.12073
21
5.68086
0
LINE
8
BLACK
6
CONTINUOUS
10
-4.12073
20
5.68086
11
-4.12081
21
5.68108
0
LINE
8
BLACK
6
CONTINUOUS
10
-4.12081
20
5.68108
11
-4.12099
21
5.68122
0
LINE
8
BLACK
6
CONTINUOUS
10
-4.12099
20
5.68122
11
-4.12114
21
5.68201
0
LINE
8
BLACK
6
CONTINUOUS
10
-4.12114
20
5.68201
11
-4.12142
21
5.68275
0
LINE
8
BLACK
6
CONTINUOUS
10
-4.12142
20
5.68275
11
-4.12142
21
5.70713
0
LINE
8
BLACK
6
CONTINUOUS
10
-4.12142
20
5.70713
11
-4.12124
21
5.70814
0
LINE
8
BLACK
6
CONTINUOUS
10
-4.12124
20
5.70814
11
-4.11994
21
5.70968
0
LINE
8
BLACK
6
CONTINUOUS
10
-4.11994
20
5.70968
11
-4.11795
21
5.71003
0
LINE
8
BLACK
6
CONTINUOUS
10
-4.11795
20
5.71003
11
-4.1162
21
5.70902
0
LINE
8
BLACK
6
CONTINUOUS
10
-4.1162
20
5.70902
11
-4.11551
21
5.70713
0
LINE
8
BLACK
6
CONTINUOUS
10
-4.11551
20
5.70713
11
-4.11551
21
5.68926
0
LINE
8
BLACK
6
CONTINUOUS
10
-4.11551
20
5.68926
11
-4.10541
21
5.6981
0
LINE
8
BLACK
6
CONTINUOUS
10
-4.10541
20
5.6981
11
-4.10503
21
5.69833
0
LINE
8
BLACK
6
CONTINUOUS
10
-4.10503
20
5.69833
11
-4.10494
21
5.69843
0
LINE
8
BLACK
6
CONTINUOUS
10
-4.10494
20
5.69843
11
-4.10482
21
5.69846
0
LINE
8
BLACK
6
CONTINUOUS
10
-4.10482
20
5.69846
11
-4.10453
21
5.69863
0
LINE
8
BLACK
6
CONTINUOUS
10
-4.10453
20
5.69863
11
-4.10374
21
5.69865
0
LINE
8
BLACK
6
CONTINUOUS
10
-4.10374
20
5.69865
11
-4.10295
21
5.69878
0
LINE
8
BLACK
6
CONTINUOUS
10
-4.10295
20
5.69878
11
-4.10275
21
5.69867
0
LINE
8
BLACK
6
CONTINUOUS
10
-4.10275
20
5.69867
11
-4.10251
21
5.69867
0
LINE
8
BLACK
6
CONTINUOUS
10
-4.10251
20
5.69867
11
-4.10189
21
5.69817
0
LINE
8
BLACK
6
CONTINUOUS
10
-4.10189
20
5.69817
11
-4.1012
21
5.69777
0
LINE
8
BLACK
6
CONTINUOUS
10
-4.1012
20
5.69777
11
-4.10112
21
5.69755
0
LINE
8
BLACK
6
CONTINUOUS
10
-4.10112
20
5.69755
11
-4.10094
21
5.69741
0
LINE
8
BLACK
6
CONTINUOUS
10
-4.10094
20
5.69741
11
-4.10079
21
5.69662
0
LINE
8
BLACK
6
CONTINUOUS
10
-4.10079
20
5.69662
11
-4.10051
21
5.69588
0
LINE
8
BLACK
6
CONTINUOUS
10
-4.10051
20
5.69588
11
-4.10051
21
5.69095
0
LINE
8
BLACK
6
CONTINUOUS
10
-4.10051
20
5.69095
11
-4.09916
21
5.68825
0
LINE
8
BLACK
6
CONTINUOUS
10
-4.09916
20
5.68825
11
-4.09797
21
5.68705
0
LINE
8
BLACK
6
CONTINUOUS
10
-4.09797
20
5.68705
11
-4.09527
21
5.68571
0
LINE
8
BLACK
6
CONTINUOUS
10
-4.09527
20
5.68571
11
-4.08729
21
5.68571
0
LINE
8
BLACK
6
CONTINUOUS
10
-4.08729
20
5.68571
11
-4.08459
21
5.68705
0
LINE
8
BLACK
6
CONTINUOUS
10
-4.08459
20
5.68705
11
-4.0834
21
5.68825
0
LINE
8
BLACK
6
CONTINUOUS
10
-4.0834
20
5.68825
11
-4.08205
21
5.69095
0
LINE
8
BLACK
6
CONTINUOUS
10
-4.08205
20
5.69095
11
-4.08205
21
5.7008
0
LINE
8
BLACK
6
CONTINUOUS
10
-4.08205
20
5.7008
11
-4.0834
21
5.7035
0
LINE
8
BLACK
6
CONTINUOUS
10
-4.0834
20
5.7035
11
-4.08493
21
5.70504
0
LINE
8
BLACK
6
CONTINUOUS
10
-4.08493
20
5.70504
11
-4.08552
21
5.70588
0
LINE
8
BLACK
6
CONTINUOUS
10
-4.08552
20
5.70588
11
-4.0857
21
5.70789
0
LINE
8
BLACK
6
CONTINUOUS
10
-4.0857
20
5.70789
11
-4.08454
21
5.70954
0
LINE
8
BLACK
6
CONTINUOUS
10
-4.08454
20
5.70954
11
-4.08259
21
5.71007
0
LINE
8
BLACK
6
CONTINUOUS
10
-4.08259
20
5.71007
11
-4.08076
21
5.70921
0
LINE
8
BLACK
6
CONTINUOUS
10
-4.85983
20
5.71502
11
-4.85914
21
5.71312
0
LINE
8
BLACK
6
CONTINUOUS
10
-4.85914
20
5.71312
11
-4.85914
21
5.70937
0
LINE
8
BLACK
6
CONTINUOUS
10
-4.85914
20
5.70937
11
-4.85929
21
5.7085
0
LINE
8
BLACK
6
CONTINUOUS
10
-4.85929
20
5.7085
11
-4.85929
21
5.70844
0
LINE
8
BLACK
6
CONTINUOUS
10
-4.85929
20
5.70844
11
-4.86117
21
5.70281
0
LINE
8
BLACK
6
CONTINUOUS
10
-4.86117
20
5.70281
11
-4.86166
21
5.70191
0
LINE
8
BLACK
6
CONTINUOUS
10
-4.86166
20
5.70191
11
-4.86181
21
5.70182
0
LINE
8
BLACK
6
CONTINUOUS
10
-4.86181
20
5.70182
11
-4.86188
21
5.70166
0
LINE
8
BLACK
6
CONTINUOUS
10
-4.86188
20
5.70166
11
-4.86563
21
5.69791
0
LINE
8
BLACK
6
CONTINUOUS
10
-4.86563
20
5.69791
11
-4.86647
21
5.69732
0
LINE
8
BLACK
6
CONTINUOUS
10
-4.86647
20
5.69732
11
-4.86665
21
5.69731
0
LINE
8
BLACK
6
CONTINUOUS
10
-4.86665
20
5.69731
11
-4.86678
21
5.6972
0
LINE
8
BLACK
6
CONTINUOUS
10
-4.86678
20
5.6972
11
-4.87241
21
5.69532
0
LINE
8
BLACK
6
CONTINUOUS
10
-4.87241
20
5.69532
11
-4.87328
21
5.69519
0
LINE
8
BLACK
6
CONTINUOUS
10
-4.87328
20
5.69519
11
-4.87334
21
5.69517
0
LINE
8
BLACK
6
CONTINUOUS
10
-4.87334
20
5.69517
11
-4.90146
21
5.69517
0
LINE
8
BLACK
6
CONTINUOUS
10
-4.90146
20
5.69517
11
-4.90247
21
5.69535
0
LINE
8
BLACK
6
CONTINUOUS
10
-4.90247
20
5.69535
11
-4.90402
21
5.69665
0
LINE
8
BLACK
6
CONTINUOUS
10
-4.90402
20
5.69665
11
-4.90437
21
5.69864
0
LINE
8
BLACK
6
CONTINUOUS
10
-4.90437
20
5.69864
11
-4.90336
21
5.70039
0
LINE
8
BLACK
6
CONTINUOUS
10
-4.90336
20
5.70039
11
-4.90146
21
5.70108
0
LINE
8
BLACK
6
CONTINUOUS
10
-4.90146
20
5.70108
11
-4.87382
21
5.70108
0
LINE
8
BLACK
6
CONTINUOUS
10
-4.87382
20
5.70108
11
-4.86931
21
5.70258
0
LINE
8
BLACK
6
CONTINUOUS
10
-4.86931
20
5.70258
11
-4.86655
21
5.70534
0
LINE
8
BLACK
6
CONTINUOUS
10
-4.86655
20
5.70534
11
-4.86505
21
5.70985
0
LINE
8
BLACK
6
CONTINUOUS
10
-4.86505
20
5.70985
11
-4.86505
21
5.71312
0
LINE
8
BLACK
6
CONTINUOUS
10
-4.86505
20
5.71312
11
-4.86487
21
5.71413
0
LINE
8
BLACK
6
CONTINUOUS
10
-4.86487
20
5.71413
11
-4.86357
21
5.71568
0
LINE
8
BLACK
6
CONTINUOUS
10
-4.86357
20
5.71568
11
-4.86158
21
5.71603
0
LINE
8
BLACK
6
CONTINUOUS
10
-4.86158
20
5.71603
11
-4.85983
21
5.71502
0
LINE
8
BLACK
6
CONTINUOUS
10
-4.07683
20
5.73902
11
-4.07614
21
5.73712
0
LINE
8
BLACK
6
CONTINUOUS
10
-4.07614
20
5.73712
11
-4.07614
21
5.73337
0
LINE
8
BLACK
6
CONTINUOUS
10
-4.07614
20
5.73337
11
-4.07629
21
5.7325
0
LINE
8
BLACK
6
CONTINUOUS
10
-4.07629
20
5.7325
11
-4.07629
21
5.73244
0
LINE
8
BLACK
6
CONTINUOUS
10
-4.07629
20
5.73244
11
-4.07817
21
5.72681
0
LINE
8
BLACK
6
CONTINUOUS
10
-4.07817
20
5.72681
11
-4.07866
21
5.72591
0
LINE
8
BLACK
6
CONTINUOUS
10
-4.07866
20
5.72591
11
-4.07881
21
5.72582
0
LINE
8
BLACK
6
CONTINUOUS
10
-4.07881
20
5.72582
11
-4.07888
21
5.72566
0
LINE
8
BLACK
6
CONTINUOUS
10
-4.07888
20
5.72566
11
-4.08263
21
5.72191
0
LINE
8
BLACK
6
CONTINUOUS
10
-4.08263
20
5.72191
11
-4.08347
21
5.72132
0
LINE
8
BLACK
6
CONTINUOUS
10
-4.08347
20
5.72132
11
-4.08365
21
5.72131
0
LINE
8
BLACK
6
CONTINUOUS
10
-4.08365
20
5.72131
11
-4.08378
21
5.7212
0
LINE
8
BLACK
6
CONTINUOUS
10
-4.08378
20
5.7212
11
-4.08941
21
5.71932
0
LINE
8
BLACK
6
CONTINUOUS
10
-4.08941
20
5.71932
11
-4.09028
21
5.71919
0
LINE
8
BLACK
6
CONTINUOUS
10
-4.09028
20
5.71919
11
-4.09034
21
5.71917
0
LINE
8
BLACK
6
CONTINUOUS
10
-4.09034
20
5.71917
11
-4.11846
21
5.71917
0
LINE
8
BLACK
6
CONTINUOUS
10
-4.11846
20
5.71917
11
-4.11947
21
5.71935
0
LINE
8
BLACK
6
CONTINUOUS
10
-4.11947
20
5.71935
11
-4.12102
21
5.72065
0
LINE
8
BLACK
6
CONTINUOUS
10
-4.12102
20
5.72065
11
-4.12137
21
5.72264
0
LINE
8
BLACK
6
CONTINUOUS
10
-4.12137
20
5.72264
11
-4.12036
21
5.72439
0
LINE
8
BLACK
6
CONTINUOUS
10
-4.12036
20
5.72439
11
-4.11846
21
5.72508
0
LINE
8
BLACK
6
CONTINUOUS
10
-4.11846
20
5.72508
11
-4.09082
21
5.72508
0
LINE
8
BLACK
6
CONTINUOUS
10
-4.09082
20
5.72508
11
-4.08631
21
5.72658
0
LINE
8
BLACK
6
CONTINUOUS
10
-4.08631
20
5.72658
11
-4.08355
21
5.72934
0
LINE
8
BLACK
6
CONTINUOUS
10
-4.08355
20
5.72934
11
-4.08205
21
5.73385
0
LINE
8
BLACK
6
CONTINUOUS
10
-4.08205
20
5.73385
11
-4.08205
21
5.73712
0
LINE
8
BLACK
6
CONTINUOUS
10
-4.08205
20
5.73712
11
-4.08187
21
5.73813
0
LINE
8
BLACK
6
CONTINUOUS
10
-4.08187
20
5.73813
11
-4.08057
21
5.73968
0
LINE
8
BLACK
6
CONTINUOUS
10
-4.08057
20
5.73968
11
-4.07858
21
5.74003
0
LINE
8
BLACK
6
CONTINUOUS
10
-4.07858
20
5.74003
11
-4.07683
21
5.73902
0
LINE
8
BLACK
6
CONTINUOUS
10
-4.67471
20
5.81667
11
-4.67402
21
5.815
0
LINE
8
BLACK
6
CONTINUOUS
10
-4.67402
20
5.815
11
-4.67402
21
5.74217
0
LINE
8
BLACK
6
CONTINUOUS
10
-4.67402
20
5.74217
11
-4.67471
21
5.7405
0
LINE
8
BLACK
6
CONTINUOUS
10
-4.67471
20
5.7405
11
-4.67638
21
5.7398
0
LINE
8
BLACK
6
CONTINUOUS
10
-4.67638
20
5.7398
11
-4.72362
21
5.7398
0
LINE
8
BLACK
6
CONTINUOUS
10
-4.72362
20
5.7398
11
-4.72529
21
5.7405
0
LINE
8
BLACK
6
CONTINUOUS
10
-4.72529
20
5.7405
11
-4.72598
21
5.74217
0
LINE
8
BLACK
6
CONTINUOUS
10
-4.72598
20
5.74217
11
-4.72598
21
5.815
0
LINE
8
BLACK
6
CONTINUOUS
10
-4.72598
20
5.815
11
-4.72529
21
5.81667
0
LINE
8
BLACK
6
CONTINUOUS
10
-4.72529
20
5.81667
11
-4.72362
21
5.81736
0
LINE
8
BLACK
6
CONTINUOUS
10
-4.72362
20
5.81736
11
-4.72195
21
5.81667
0
LINE
8
BLACK
6
CONTINUOUS
10
-4.72195
20
5.81667
11
-4.72126
21
5.815
0
LINE
8
BLACK
6
CONTINUOUS
10
-4.72126
20
5.815
11
-4.72126
21
5.74453
0
LINE
8
BLACK
6
CONTINUOUS
10
-4.72126
20
5.74453
11
-4.67874
21
5.74453
0
LINE
8
BLACK
6
CONTINUOUS
10
-4.67874
20
5.74453
11
-4.67874
21
5.815
0
LINE
8
BLACK
6
CONTINUOUS
10
-4.67874
20
5.815
11
-4.67805
21
5.81667
0
LINE
8
BLACK
6
CONTINUOUS
10
-4.67805
20
5.81667
11
-4.67638
21
5.81736
0
LINE
8
BLACK
6
CONTINUOUS
10
-4.67638
20
5.81736
11
-4.67471
21
5.81667
0
LINE
8
BLACK
6
CONTINUOUS
10
-4.3139
20
5.77101
11
-4.31321
21
5.76934
0
LINE
8
BLACK
6
CONTINUOUS
10
-4.31321
20
5.76934
11
-4.31321
21
5.75066
0
LINE
8
BLACK
6
CONTINUOUS
10
-4.31321
20
5.75066
11
-4.3139
21
5.74899
0
LINE
8
BLACK
6
CONTINUOUS
10
-4.3139
20
5.74899
11
-4.31557
21
5.7483
0
LINE
8
BLACK
6
CONTINUOUS
10
-4.31557
20
5.7483
11
-4.31724
21
5.74899
0
LINE
8
BLACK
6
CONTINUOUS
10
-4.31724
20
5.74899
11
-4.31793
21
5.75066
0
LINE
8
BLACK
6
CONTINUOUS
10
-4.31793
20
5.75066
11
-4.31793
21
5.76934
0
LINE
8
BLACK
6
CONTINUOUS
10
-4.31793
20
5.76934
11
-4.31724
21
5.77101
0
LINE
8
BLACK
6
CONTINUOUS
10
-4.31724
20
5.77101
11
-4.31557
21
5.7717
0
LINE
8
BLACK
6
CONTINUOUS
10
-4.31557
20
5.7717
11
-4.3139
21
5.77101
0
LINE
8
BLACK
6
CONTINUOUS
10
-4.27276
20
5.77101
11
-4.27207
21
5.76934
0
LINE
8
BLACK
6
CONTINUOUS
10
-4.27207
20
5.76934
11
-4.27207
21
5.75066
0
LINE
8
BLACK
6
CONTINUOUS
10
-4.27207
20
5.75066
11
-4.27276
21
5.74899
0
LINE
8
BLACK
6
CONTINUOUS
10
-4.27276
20
5.74899
11
-4.27443
21
5.7483
0
LINE
8
BLACK
6
CONTINUOUS
10
-4.27443
20
5.7483
11
-4.2761
21
5.74899
0
LINE
8
BLACK
6
CONTINUOUS
10
-4.2761
20
5.74899
11
-4.27679
21
5.75066
0
LINE
8
BLACK
6
CONTINUOUS
10
-4.27679
20
5.75066
11
-4.27679
21
5.76934
0
LINE
8
BLACK
6
CONTINUOUS
10
-4.27679
20
5.76934
11
-4.2761
21
5.77101
0
LINE
8
BLACK
6
CONTINUOUS
10
-4.2761
20
5.77101
11
-4.27443
21
5.7717
0
LINE
8
BLACK
6
CONTINUOUS
10
-4.27443
20
5.7717
11
-4.27276
21
5.77101
0
LINE
8
BLACK
6
CONTINUOUS
10
-4.5639
20
5.77501
11
-4.56321
21
5.77334
0
LINE
8
BLACK
6
CONTINUOUS
10
-4.56321
20
5.77334
11
-4.56321
21
5.75466
0
LINE
8
BLACK
6
CONTINUOUS
10
-4.56321
20
5.75466
11
-4.5639
21
5.75298
0
LINE
8
BLACK
6
CONTINUOUS
10
-4.5639
20
5.75298
11
-4.56557
21
5.75229
0
LINE
8
BLACK
6
CONTINUOUS
10
-4.56557
20
5.75229
11
-4.56724
21
5.75298
0
LINE
8
BLACK
6
CONTINUOUS
10
-4.56724
20
5.75298
11
-4.56793
21
5.75466
0
LINE
8
BLACK
6
CONTINUOUS
10
-4.56793
20
5.75466
11
-4.56793
21
5.77334
0
LINE
8
BLACK
6
CONTINUOUS
10
-4.56793
20
5.77334
11
-4.56724
21
5.77501
0
LINE
8
BLACK
6
CONTINUOUS
10
-4.56724
20
5.77501
11
-4.56557
21
5.7757
0
LINE
8
BLACK
6
CONTINUOUS
10
-4.56557
20
5.7757
11
-4.5639
21
5.77501
0
LINE
8
BLACK
6
CONTINUOUS
10
-4.52276
20
5.77501
11
-4.52207
21
5.77334
0
LINE
8
BLACK
6
CONTINUOUS
10
-4.52207
20
5.77334
11
-4.52207
21
5.75466
0
LINE
8
BLACK
6
CONTINUOUS
10
-4.52207
20
5.75466
11
-4.52276
21
5.75298
0
LINE
8
BLACK
6
CONTINUOUS
10
-4.52276
20
5.75298
11
-4.52443
21
5.75229
0
LINE
8
BLACK
6
CONTINUOUS
10
-4.52443
20
5.75229
11
-4.5261
21
5.75298
0
LINE
8
BLACK
6
CONTINUOUS
10
-4.5261
20
5.75298
11
-4.52679
21
5.75466
0
LINE
8
BLACK
6
CONTINUOUS
10
-4.52679
20
5.75466
11
-4.52679
21
5.77334
0
LINE
8
BLACK
6
CONTINUOUS
10
-4.52679
20
5.77334
11
-4.5261
21
5.77501
0
LINE
8
BLACK
6
CONTINUOUS
10
-4.5261
20
5.77501
11
-4.52443
21
5.7757
0
LINE
8
BLACK
6
CONTINUOUS
10
-4.52443
20
5.7757
11
-4.52276
21
5.77501
0
LINE
8
BLACK
6
CONTINUOUS
10
-4.64227
20
5.78946
11
-4.64157
21
5.78779
0
LINE
8
BLACK
6
CONTINUOUS
10
-4.64157
20
5.78779
11
-4.64157
21
5.76721
0
LINE
8
BLACK
6
CONTINUOUS
10
-4.64157
20
5.76721
11
-4.64227
21
5.76554
0
LINE
8
BLACK
6
CONTINUOUS
10
-4.64227
20
5.76554
11
-4.64394
21
5.76485
0
LINE
8
BLACK
6
CONTINUOUS
10
-4.64394
20
5.76485
11
-4.64561
21
5.76554
0
LINE
8
BLACK
6
CONTINUOUS
10
-4.64561
20
5.76554
11
-4.6463
21
5.76721
0
LINE
8
BLACK
6
CONTINUOUS
10
-4.6463
20
5.76721
11
-4.6463
21
5.78779
0
LINE
8
BLACK
6
CONTINUOUS
10
-4.6463
20
5.78779
11
-4.64561
21
5.78946
0
LINE
8
BLACK
6
CONTINUOUS
10
-4.64561
20
5.78946
11
-4.64394
21
5.79015
0
LINE
8
BLACK
6
CONTINUOUS
10
-4.64394
20
5.79015
11
-4.64227
21
5.78946
0
LINE
8
BLACK
6
CONTINUOUS
10
-4.58439
20
5.78946
11
-4.5837
21
5.78779
0
LINE
8
BLACK
6
CONTINUOUS
10
-4.5837
20
5.78779
11
-4.5837
21
5.76721
0
LINE
8
BLACK
6
CONTINUOUS
10
-4.5837
20
5.76721
11
-4.58439
21
5.76554
0
LINE
8
BLACK
6
CONTINUOUS
10
-4.58439
20
5.76554
11
-4.58606
21
5.76485
0
LINE
8
BLACK
6
CONTINUOUS
10
-4.58606
20
5.76485
11
-4.58773
21
5.76554
0
LINE
8
BLACK
6
CONTINUOUS
10
-4.58773
20
5.76554
11
-4.58843
21
5.76721
0
LINE
8
BLACK
6
CONTINUOUS
10
-4.58843
20
5.76721
11
-4.58843
21
5.78779
0
LINE
8
BLACK
6
CONTINUOUS
10
-4.58843
20
5.78779
11
-4.58773
21
5.78946
0
LINE
8
BLACK
6
CONTINUOUS
10
-4.58773
20
5.78946
11
-4.58606
21
5.79015
0
LINE
8
BLACK
6
CONTINUOUS
10
-4.58606
20
5.79015
11
-4.58439
21
5.78946
0
LINE
8
BLACK
6
CONTINUOUS
10
-4.81244
20
5.85437
11
-4.81077
21
5.85368
0
LINE
8
BLACK
6
CONTINUOUS
10
-4.81077
20
5.85368
11
-4.81008
21
5.85201
0
LINE
8
BLACK
6
CONTINUOUS
10
-4.81008
20
5.85201
11
-4.81008
21
5.78114
0
LINE
8
BLACK
6
CONTINUOUS
10
-4.81008
20
5.78114
11
-4.81077
21
5.77947
0
LINE
8
BLACK
6
CONTINUOUS
10
-4.81077
20
5.77947
11
-4.81244
21
5.77878
0
LINE
8
BLACK
6
CONTINUOUS
10
-4.81244
20
5.77878
11
-4.81411
21
5.77947
0
LINE
8
BLACK
6
CONTINUOUS
10
-4.81411
20
5.77947
11
-4.8148
21
5.78114
0
LINE
8
BLACK
6
CONTINUOUS
10
-4.8148
20
5.78114
11
-4.8148
21
5.84965
0
LINE
8
BLACK
6
CONTINUOUS
10
-4.8148
20
5.84965
11
-4.86953
21
5.84965
0
LINE
8
BLACK
6
CONTINUOUS
10
-4.86953
20
5.84965
11
-4.8712
21
5.85034
0
LINE
8
BLACK
6
CONTINUOUS
10
-4.8712
20
5.85034
11
-4.87189
21
5.85201
0
LINE
8
BLACK
6
CONTINUOUS
10
-4.87189
20
5.85201
11
-4.8712
21
5.85368
0
LINE
8
BLACK
6
CONTINUOUS
10
-4.8712
20
5.85368
11
-4.86953
21
5.85437
0
LINE
8
BLACK
6
CONTINUOUS
10
-4.86953
20
5.85437
11
-4.81244
21
5.85437
0
LINE
8
BLACK
6
CONTINUOUS
10
-4.12455
20
5.85368
11
-4.12386
21
5.85201
0
LINE
8
BLACK
6
CONTINUOUS
10
-4.12386
20
5.85201
11
-4.12455
21
5.85034
0
LINE
8
BLACK
6
CONTINUOUS
10
-4.12455
20
5.85034
11
-4.12622
21
5.84965
0
LINE
8
BLACK
6
CONTINUOUS
10
-4.12622
20
5.84965
11
-4.18094
21
5.84965
0
LINE
8
BLACK
6
CONTINUOUS
10
-4.18094
20
5.84965
11
-4.18094
21
5.78114
0
LINE
8
BLACK
6
CONTINUOUS
10
-4.18094
20
5.78114
11
-4.18164
21
5.77947
0
LINE
8
BLACK
6
CONTINUOUS
10
-4.18164
20
5.77947
11
-4.18331
21
5.77878
0
LINE
8
BLACK
6
CONTINUOUS
10
-4.18331
20
5.77878
11
-4.22228
21
5.77878
0
LINE
8
BLACK
6
CONTINUOUS
10
-4.22228
20
5.77878
11
-4.22395
21
5.77947
0
LINE
8
BLACK
6
CONTINUOUS
10
-4.22395
20
5.77947
11
-4.22465
21
5.78114
0
LINE
8
BLACK
6
CONTINUOUS
10
-4.22465
20
5.78114
11
-4.22395
21
5.78281
0
LINE
8
BLACK
6
CONTINUOUS
10
-4.22395
20
5.78281
11
-4.22228
21
5.7835
0
LINE
8
BLACK
6
CONTINUOUS
10
-4.22228
20
5.7835
11
-4.18567
21
5.7835
0
LINE
8
BLACK
6
CONTINUOUS
10
-4.18567
20
5.7835
11
-4.18567
21
5.85201
0
LINE
8
BLACK
6
CONTINUOUS
10
-4.18567
20
5.85201
11
-4.18498
21
5.85368
0
LINE
8
BLACK
6
CONTINUOUS
10
-4.18498
20
5.85368
11
-4.18331
21
5.85437
0
LINE
8
BLACK
6
CONTINUOUS
10
-4.18331
20
5.85437
11
-4.12622
21
5.85437
0
LINE
8
BLACK
6
CONTINUOUS
10
-4.12622
20
5.85437
11
-4.12455
21
5.85368
0
LINE
8
BLACK
6
CONTINUOUS
10
-4.47798
20
5.8711
11
-4.47729
21
5.86943
0
LINE
8
BLACK
6
CONTINUOUS
10
-4.47729
20
5.86943
11
-4.47798
21
5.86776
0
LINE
8
BLACK
6
CONTINUOUS
10
-4.47798
20
5.86776
11
-4.47966
21
5.86707
0
LINE
8
BLACK
6
CONTINUOUS
10
-4.47966
20
5.86707
11
-4.49834
21
5.86707
0
LINE
8
BLACK
6
CONTINUOUS
10
-4.49834
20
5.86707
11
-4.50001
21
5.86776
0
LINE
8
BLACK
6
CONTINUOUS
10
-4.50001
20
5.86776
11
-4.5007
21
5.86943
0
LINE
8
BLACK
6
CONTINUOUS
10
-4.5007
20
5.86943
11
-4.50001
21
5.8711
0
LINE
8
BLACK
6
CONTINUOUS
10
-4.50001
20
5.8711
11
-4.49834
21
5.87179
0
LINE
8
BLACK
6
CONTINUOUS
10
-4.49834
20
5.87179
11
-4.47966
21
5.87179
0
LINE
8
BLACK
6
CONTINUOUS
10
-4.47966
20
5.87179
11
-4.47798
21
5.8711
0
LINE
8
BLACK
6
CONTINUOUS
10
-4.92555
20
5.90112
11
-4.92541
21
5.901
0
LINE
8
BLACK
6
CONTINUOUS
10
-4.92541
20
5.901
11
-4.92524
21
5.90098
0
LINE
8
BLACK
6
CONTINUOUS
10
-4.92524
20
5.90098
11
-4.92149
21
5.89911
0
LINE
8
BLACK
6
CONTINUOUS
10
-4.92149
20
5.89911
11
-4.92066
21
5.8985
0
LINE
8
BLACK
6
CONTINUOUS
10
-4.92066
20
5.8985
11
-4.92049
21
5.89809
0
LINE
8
BLACK
6
CONTINUOUS
10
-4.92049
20
5.89809
11
-4.92017
21
5.89779
0
LINE
8
BLACK
6
CONTINUOUS
10
-4.92017
20
5.89779
11
-4.91829
21
5.89404
0
LINE
8
BLACK
6
CONTINUOUS
10
-4.91829
20
5.89404
11
-4.918
21
5.89305
0
LINE
8
BLACK
6
CONTINUOUS
10
-4.918
20
5.89305
11
-4.91804
21
5.89288
0
LINE
8
BLACK
6
CONTINUOUS
10
-4.91804
20
5.89288
11
-4.91798
21
5.89272
0
LINE
8
BLACK
6
CONTINUOUS
10
-4.91798
20
5.89272
11
-4.91798
21
5.87772
0
LINE
8
BLACK
6
CONTINUOUS
10
-4.91798
20
5.87772
11
-4.91816
21
5.87671
0
LINE
8
BLACK
6
CONTINUOUS
10
-4.91816
20
5.87671
11
-4.91827
21
5.87657
0
LINE
8
BLACK
6
CONTINUOUS
10
-4.91827
20
5.87657
11
-4.91829
21
5.8764
0
LINE
8
BLACK
6
CONTINUOUS
10
-4.91829
20
5.8764
11
-4.92017
21
5.87265
0
LINE
8
BLACK
6
CONTINUOUS
10
-4.92017
20
5.87265
11
-4.92078
21
5.87182
0
LINE
8
BLACK
6
CONTINUOUS
10
-4.92078
20
5.87182
11
-4.92118
21
5.87165
0
LINE
8
BLACK
6
CONTINUOUS
10
-4.92118
20
5.87165
11
-4.92149
21
5.87133
0
LINE
8
BLACK
6
CONTINUOUS
10
-4.92149
20
5.87133
11
-4.92524
21
5.86945
0
LINE
8
BLACK
6
CONTINUOUS
10
-4.92524
20
5.86945
11
-4.92622
21
5.86916
0
LINE
8
BLACK
6
CONTINUOUS
10
-4.92622
20
5.86916
11
-4.92639
21
5.8692
0
LINE
8
BLACK
6
CONTINUOUS
10
-4.92639
20
5.8692
11
-4.92656
21
5.86914
0
LINE
8
BLACK
6
CONTINUOUS
10
-4.92656
20
5.86914
11
-4.93406
21
5.86914
0
LINE
8
BLACK
6
CONTINUOUS
10
-4.93406
20
5.86914
11
-4.93507
21
5.86932
0
LINE
8
BLACK
6
CONTINUOUS
10
-4.93507
20
5.86932
11
-4.9352
21
5.86943
0
LINE
8
BLACK
6
CONTINUOUS
10
-4.9352
20
5.86943
11
-4.93538
21
5.86945
0
LINE
8
BLACK
6
CONTINUOUS
10
-4.93538
20
5.86945
11
-4.93913
21
5.87133
0
LINE
8
BLACK
6
CONTINUOUS
10
-4.93913
20
5.87133
11
-4.93995
21
5.87194
0
LINE
8
BLACK
6
CONTINUOUS
10
-4.93995
20
5.87194
11
-4.94075
21
5.87379
0
LINE
8
BLACK
6
CONTINUOUS
10
-4.94075
20
5.87379
11
-4.94018
21
5.87573
0
LINE
8
BLACK
6
CONTINUOUS
10
-4.94018
20
5.87573
11
-4.93849
21
5.87684
0
LINE
8
BLACK
6
CONTINUOUS
10
-4.93849
20
5.87684
11
-4.93648
21
5.87661
0
LINE
8
BLACK
6
CONTINUOUS
10
-4.93648
20
5.87661
11
-4.93336
21
5.87505
0
LINE
8
BLACK
6
CONTINUOUS
10
-4.93336
20
5.87505
11
-4.92725
21
5.87505
0
LINE
8
BLACK
6
CONTINUOUS
10
-4.92725
20
5.87505
11
-4.92501
21
5.87617
0
LINE
8
BLACK
6
CONTINUOUS
10
-4.92501
20
5.87617
11
-4.92388
21
5.87842
0
LINE
8
BLACK
6
CONTINUOUS
10
-4.92388
20
5.87842
11
-4.92388
21
5.8828
0
LINE
8
BLACK
6
CONTINUOUS
10
-4.92388
20
5.8828
11
-4.94026
21
5.88607
0
LINE
8
BLACK
6
CONTINUOUS
10
-4.94026
20
5.88607
11
-4.94121
21
5.88644
0
LINE
8
BLACK
6
CONTINUOUS
10
-4.94121
20
5.88644
11
-4.94152
21
5.88682
0
LINE
8
BLACK
6
CONTINUOUS
10
-4.94152
20
5.88682
11
-4.94194
21
5.88707
0
LINE
8
BLACK
6
CONTINUOUS
10
-4.94194
20
5.88707
11
-4.94213
21
5.88759
0
LINE
8
BLACK
6
CONTINUOUS
10
-4.94213
20
5.88759
11
-4.94248
21
5.88802
0
LINE
8
BLACK
6
CONTINUOUS
10
-4.94248
20
5.88802
11
-4.94247
21
5.88851
0
LINE
8
BLACK
6
CONTINUOUS
10
-4.94247
20
5.88851
11
-4.94263
21
5.88897
0
LINE
8
BLACK
6
CONTINUOUS
10
-4.94263
20
5.88897
11
-4.94263
21
5.89272
0
LINE
8
BLACK
6
CONTINUOUS
10
-4.94263
20
5.89272
11
-4.94245
21
5.89373
0
LINE
8
BLACK
6
CONTINUOUS
10
-4.94245
20
5.89373
11
-4.94234
21
5.89386
0
LINE
8
BLACK
6
CONTINUOUS
10
-4.94234
20
5.89386
11
-4.94232
21
5.89404
0
LINE
8
BLACK
6
CONTINUOUS
10
-4.94232
20
5.89404
11
-4.94045
21
5.89779
0
LINE
8
BLACK
6
CONTINUOUS
10
-4.94045
20
5.89779
11
-4.93983
21
5.89861
0
LINE
8
BLACK
6
CONTINUOUS
10
-4.93983
20
5.89861
11
-4.93943
21
5.89879
0
LINE
8
BLACK
6
CONTINUOUS
10
-4.93943
20
5.89879
11
-4.93913
21
5.89911
0
LINE
8
BLACK
6
CONTINUOUS
10
-4.93913
20
5.89911
11
-4.93538
21
5.90098
0
LINE
8
BLACK
6
CONTINUOUS
10
-4.93538
20
5.90098
11
-4.93439
21
5.90127
0
LINE
8
BLACK
6
CONTINUOUS
10
-4.93439
20
5.90127
11
-4.93422
21
5.90123
0
LINE
8
BLACK
6
CONTINUOUS
10
-4.93422
20
5.90123
11
-4.93406
21
5.90129
0
LINE
8
BLACK
6
CONTINUOUS
10
-4.93406
20
5.90129
11
-4.92656
21
5.90129
0
LINE
8
BLACK
6
CONTINUOUS
10
-4.92656
20
5.90129
11
-4.92555
21
5.90112
0
LINE
8
BLACK
6
CONTINUOUS
10
-4.9356
20
5.89426
11
-4.93673
21
5.89202
0
LINE
8
BLACK
6
CONTINUOUS
10
-4.93673
20
5.89202
11
-4.93673
21
5.89139
0
LINE
8
BLACK
6
CONTINUOUS
10
-4.93673
20
5.89139
11
-4.92388
21
5.88882
0
LINE
8
BLACK
6
CONTINUOUS
10
-4.92388
20
5.88882
11
-4.92388
21
5.89202
0
LINE
8
BLACK
6
CONTINUOUS
10
-4.92388
20
5.89202
11
-4.92501
21
5.89426
0
LINE
8
BLACK
6
CONTINUOUS
10
-4.92501
20
5.89426
11
-4.92725
21
5.89539
0
LINE
8
BLACK
6
CONTINUOUS
10
-4.92725
20
5.89539
11
-4.93336
21
5.89539
0
LINE
8
BLACK
6
CONTINUOUS
10
-4.93336
20
5.89539
11
-4.9356
21
5.89426
0
LINE
8
BLACK
6
CONTINUOUS
10
-4.89805
20
5.91336
11
-4.89736
21
5.91146
0
LINE
8
BLACK
6
CONTINUOUS
10
-4.89736
20
5.91146
11
-4.89736
21
5.90129
0
LINE
8
BLACK
6
CONTINUOUS
10
-4.89736
20
5.90129
11
-4.89469
21
5.90129
0
LINE
8
BLACK
6
CONTINUOUS
10
-4.89469
20
5.90129
11
-4.89368
21
5.90112
0
LINE
8
BLACK
6
CONTINUOUS
10
-4.89368
20
5.90112
11
-4.89213
21
5.89982
0
LINE
8
BLACK
6
CONTINUOUS
10
-4.89213
20
5.89982
11
-4.89178
21
5.89783
0
LINE
8
BLACK
6
CONTINUOUS
10
-4.89178
20
5.89783
11
-4.89279
21
5.89608
0
LINE
8
BLACK
6
CONTINUOUS
10
-4.89279
20
5.89608
11
-4.89469
21
5.89539
0
LINE
8
BLACK
6
CONTINUOUS
10
-4.89469
20
5.89539
11
-4.89736
21
5.89539
0
LINE
8
BLACK
6
CONTINUOUS
10
-4.89736
20
5.89539
11
-4.89736
21
5.87772
0
LINE
8
BLACK
6
CONTINUOUS
10
-4.89736
20
5.87772
11
-4.89753
21
5.87671
0
LINE
8
BLACK
6
CONTINUOUS
10
-4.89753
20
5.87671
11
-4.89765
21
5.87657
0
LINE
8
BLACK
6
CONTINUOUS
10
-4.89765
20
5.87657
11
-4.89767
21
5.8764
0
LINE
8
BLACK
6
CONTINUOUS
10
-4.89767
20
5.8764
11
-4.89954
21
5.87265
0
LINE
8
BLACK
6
CONTINUOUS
10
-4.89954
20
5.87265
11
-4.90015
21
5.87182
0
LINE
8
BLACK
6
CONTINUOUS
10
-4.90015
20
5.87182
11
-4.90056
21
5.87165
0
LINE
8
BLACK
6
CONTINUOUS
10
-4.90056
20
5.87165
11
-4.90086
21
5.87133
0
LINE
8
BLACK
6
CONTINUOUS
10
-4.90086
20
5.87133
11
-4.90461
21
5.86945
0
LINE
8
BLACK
6
CONTINUOUS
10
-4.90461
20
5.86945
11
-4.9056
21
5.86916
0
LINE
8
BLACK
6
CONTINUOUS
10
-4.9056
20
5.86916
11
-4.90577
21
5.8692
0
LINE
8
BLACK
6
CONTINUOUS
10
-4.90577
20
5.8692
11
-4.90593
21
5.86914
0
LINE
8
BLACK
6
CONTINUOUS
10
-4.90593
20
5.86914
11
-4.90968
21
5.86914
0
LINE
8
BLACK
6
CONTINUOUS
10
-4.90968
20
5.86914
11
-4.91069
21
5.86932
0
LINE
8
BLACK
6
CONTINUOUS
10
-4.91069
20
5.86932
11
-4.91224
21
5.87062
0
LINE
8
BLACK
6
CONTINUOUS
10
-4.91224
20
5.87062
11
-4.91259
21
5.87261
0
LINE
8
BLACK
6
CONTINUOUS
10
-4.91259
20
5.87261
11
-4.91158
21
5.87436
0
LINE
8
BLACK
6
CONTINUOUS
10
-4.91158
20
5.87436
11
-4.90968
21
5.87505
0
LINE
8
BLACK
6
CONTINUOUS
10
-4.90968
20
5.87505
11
-4.90663
21
5.87505
0
LINE
8
BLACK
6
CONTINUOUS
10
-4.90663
20
5.87505
11
-4.90438
21
5.87617
0
LINE
8
BLACK
6
CONTINUOUS
10
-4.90438
20
5.87617
11
-4.90326
21
5.87842
0
LINE
8
BLACK
6
CONTINUOUS
10
-4.90326
20
5.87842
11
-4.90326
21
5.89539
0
LINE
8
BLACK
6
CONTINUOUS
10
-4.90326
20
5.89539
11
-4.90968
21
5.89539
0
LINE
8
BLACK
6
CONTINUOUS
10
-4.90968
20
5.89539
11
-4.91069
21
5.89557
0
LINE
8
BLACK
6
CONTINUOUS
10
-4.91069
20
5.89557
11
-4.91224
21
5.89686
0
LINE
8
BLACK
6
CONTINUOUS
10
-4.91224
20
5.89686
11
-4.91259
21
5.89885
0
LINE
8
BLACK
6
CONTINUOUS
10
-4.91259
20
5.89885
11
-4.91158
21
5.9006
0
LINE
8
BLACK
6
CONTINUOUS
10
-4.91158
20
5.9006
11
-4.90968
21
5.90129
0
LINE
8
BLACK
6
CONTINUOUS
10
-4.90968
20
5.90129
11
-4.90326
21
5.90129
0
LINE
8
BLACK
6
CONTINUOUS
10
-4.90326
20
5.90129
11
-4.90326
21
5.91146
0
LINE
8
BLACK
6
CONTINUOUS
10
-4.90326
20
5.91146
11
-4.90308
21
5.91247
0
LINE
8
BLACK
6
CONTINUOUS
10
-4.90308
20
5.91247
11
-4.90179
21
5.91402
0
LINE
8
BLACK
6
CONTINUOUS
10
-4.90179
20
5.91402
11
-4.8998
21
5.91437
0
LINE
8
BLACK
6
CONTINUOUS
10
-4.8998
20
5.91437
11
-4.89805
21
5.91336
0
LINE
8
BLACK
6
CONTINUOUS
10
-4.87118
20
5.90112
11
-4.87104
21
5.901
0
LINE
8
BLACK
6
CONTINUOUS
10
-4.87104
20
5.901
11
-4.87087
21
5.90098
0
LINE
8
BLACK
6
CONTINUOUS
10
-4.87087
20
5.90098
11
-4.86712
21
5.89911
0
LINE
8
BLACK
6
CONTINUOUS
10
-4.86712
20
5.89911
11
-4.86629
21
5.8985
0
LINE
8
BLACK
6
CONTINUOUS
10
-4.86629
20
5.8985
11
-4.86612
21
5.89809
0
LINE
8
BLACK
6
CONTINUOUS
10
-4.86612
20
5.89809
11
-4.8658
21
5.89779
0
LINE
8
BLACK
6
CONTINUOUS
10
-4.8658
20
5.89779
11
-4.86392
21
5.89404
0
LINE
8
BLACK
6
CONTINUOUS
10
-4.86392
20
5.89404
11
-4.86363
21
5.89305
0
LINE
8
BLACK
6
CONTINUOUS
10
-4.86363
20
5.89305
11
-4.86367
21
5.89288
0
LINE
8
BLACK
6
CONTINUOUS
10
-4.86367
20
5.89288
11
-4.86361
21
5.89272
0
LINE
8
BLACK
6
CONTINUOUS
10
-4.86361
20
5.89272
11
-4.86361
21
5.89084
0
LINE
8
BLACK
6
CONTINUOUS
10
-4.86361
20
5.89084
11
-4.86379
21
5.88983
0
LINE
8
BLACK
6
CONTINUOUS
10
-4.86379
20
5.88983
11
-4.8639
21
5.8897
0
LINE
8
BLACK
6
CONTINUOUS
10
-4.8639
20
5.8897
11
-4.86392
21
5.88952
0
LINE
8
BLACK
6
CONTINUOUS
10
-4.86392
20
5.88952
11
-4.8658
21
5.88577
0
LINE
8
BLACK
6
CONTINUOUS
10
-4.8658
20
5.88577
11
-4.86641
21
5.88495
0
LINE
8
BLACK
6
CONTINUOUS
10
-4.86641
20
5.88495
11
-4.86681
21
5.88477
0
LINE
8
BLACK
6
CONTINUOUS
10
-4.86681
20
5.88477
11
-4.86712
21
5.88445
0
LINE
8
BLACK
6
CONTINUOUS
10
-4.86712
20
5.88445
11
-4.87087
21
5.88258
0
LINE
8
BLACK
6
CONTINUOUS
10
-4.87087
20
5.88258
11
-4.87185
21
5.88228
0
LINE
8
BLACK
6
CONTINUOUS
10
-4.87185
20
5.88228
11
-4.87202
21
5.88232
0
LINE
8
BLACK
6
CONTINUOUS
10
-4.87202
20
5.88232
11
-4.87219
21
5.88226
0
LINE
8
BLACK
6
CONTINUOUS
10
-4.87219
20
5.88226
11
-4.87712
21
5.88226
0
LINE
8
BLACK
6
CONTINUOUS
10
-4.87712
20
5.88226
11
-4.87936
21
5.88114
0
LINE
8
BLACK
6
CONTINUOUS
10
-4.87936
20
5.88114
11
-4.88048
21
5.8789
0
LINE
8
BLACK
6
CONTINUOUS
10
-4.88048
20
5.8789
11
-4.88048
21
5.87842
0
LINE
8
BLACK
6
CONTINUOUS
10
-4.88048
20
5.87842
11
-4.87936
21
5.87617
0
LINE
8
BLACK
6
CONTINUOUS
10
-4.87936
20
5.87617
11
-4.87712
21
5.87505
0
LINE
8
BLACK
6
CONTINUOUS
10
-4.87712
20
5.87505
11
-4.87101
21
5.87505
0
LINE
8
BLACK
6
CONTINUOUS
10
-4.87101
20
5.87505
11
-4.86788
21
5.87661
0
LINE
8
BLACK
6
CONTINUOUS
10
-4.86788
20
5.87661
11
-4.8669
21
5.8769
0
LINE
8
BLACK
6
CONTINUOUS
10
-4.8669
20
5.8769
11
-4.86494
21
5.87643
0
LINE
8
BLACK
6
CONTINUOUS
10
-4.86494
20
5.87643
11
-4.86373
21
5.87481
0
LINE
8
BLACK
6
CONTINUOUS
10
-4.86373
20
5.87481
11
-4.86385
21
5.87279
0
LINE
8
BLACK
6
CONTINUOUS
10
-4.86385
20
5.87279
11
-4.86524
21
5.87133
0
LINE
8
BLACK
6
CONTINUOUS
10
-4.86524
20
5.87133
11
-4.86899
21
5.86945
0
LINE
8
BLACK
6
CONTINUOUS
10
-4.86899
20
5.86945
11
-4.86998
21
5.86916
0
LINE
8
BLACK
6
CONTINUOUS
10
-4.86998
20
5.86916
11
-4.87015
21
5.8692
0
LINE
8
BLACK
6
CONTINUOUS
10
-4.87015
20
5.8692
11
-4.87031
21
5.86914
0
LINE
8
BLACK
6
CONTINUOUS
10
-4.87031
20
5.86914
11
-4.87781
21
5.86914
0
LINE
8
BLACK
6
CONTINUOUS
10
-4.87781
20
5.86914
11
-4.87882
21
5.86932
0
LINE
8
BLACK
6
CONTINUOUS
10
-4.87882
20
5.86932
11
-4.87896
21
5.86943
0
LINE
8
BLACK
6
CONTINUOUS
10
-4.87896
20
5.86943
11
-4.87913
21
5.86945
0
LINE
8
BLACK
6
CONTINUOUS
10
-4.87913
20
5.86945
11
-4.88288
21
5.87133
0
LINE
8
BLACK
6
CONTINUOUS
10
-4.88288
20
5.87133
11
-4.88371
21
5.87194
0
LINE
8
BLACK
6
CONTINUOUS
10
-4.88371
20
5.87194
11
-4.88388
21
5.87234
0
LINE
8
BLACK
6
CONTINUOUS
10
-4.88388
20
5.87234
11
-4.8842
21
5.87265
0
LINE
8
BLACK
6
CONTINUOUS
10
-4.8842
20
5.87265
11
-4.88608
21
5.8764
0
LINE
8
BLACK
6
CONTINUOUS
10
-4.88608
20
5.8764
11
-4.88637
21
5.87738
0
LINE
8
BLACK
6
CONTINUOUS
10
-4.88637
20
5.87738
11
-4.88633
21
5.87755
0
LINE
8
BLACK
6
CONTINUOUS
10
-4.88633
20
5.87755
11
-4.88639
21
5.87772
0
LINE
8
BLACK
6
CONTINUOUS
10
-4.88639
20
5.87772
11
-4.88639
21
5.87959
0
LINE
8
BLACK
6
CONTINUOUS
10
-4.88639
20
5.87959
11
-4.88621
21
5.8806
0
LINE
8
BLACK
6
CONTINUOUS
10
-4.88621
20
5.8806
11
-4.8861
21
5.88074
0
LINE
8
BLACK
6
CONTINUOUS
10
-4.8861
20
5.88074
11
-4.88608
21
5.88091
0
LINE
8
BLACK
6
CONTINUOUS
10
-4.88608
20
5.88091
11
-4.8842
21
5.88466
0
LINE
8
BLACK
6
CONTINUOUS
10
-4.8842
20
5.88466
11
-4.88359
21
5.88549
0
LINE
8
BLACK
6
CONTINUOUS
10
-4.88359
20
5.88549
11
-4.88319
21
5.88566
0
LINE
8
BLACK
6
CONTINUOUS
10
-4.88319
20
5.88566
11
-4.88288
21
5.88598
0
LINE
8
BLACK
6
CONTINUOUS
10
-4.88288
20
5.88598
11
-4.87913
21
5.88786
0
LINE
8
BLACK
6
CONTINUOUS
10
-4.87913
20
5.88786
11
-4.87815
21
5.88815
0
LINE
8
BLACK
6
CONTINUOUS
10
-4.87815
20
5.88815
11
-4.87798
21
5.88811
0
LINE
8
BLACK
6
CONTINUOUS
10
-4.87798
20
5.88811
11
-4.87781
21
5.88817
0
LINE
8
BLACK
6
CONTINUOUS
10
-4.87781
20
5.88817
11
-4.87288
21
5.88817
0
LINE
8
BLACK
6
CONTINUOUS
10
-4.87288
20
5.88817
11
-4.87064
21
5.88929
0
LINE
8
BLACK
6
CONTINUOUS
10
-4.87064
20
5.88929
11
-4.86952
21
5.89154
0
LINE
8
BLACK
6
CONTINUOUS
10
-4.86952
20
5.89154
11
-4.86952
21
5.89202
0
LINE
8
BLACK
6
CONTINUOUS
10
-4.86952
20
5.89202
11
-4.87064
21
5.89426
0
LINE
8
BLACK
6
CONTINUOUS
10
-4.87064
20
5.89426
11
-4.87288
21
5.89539
0
LINE
8
BLACK
6
CONTINUOUS
10
-4.87288
20
5.89539
11
-4.87712
21
5.89539
0
LINE
8
BLACK
6
CONTINUOUS
10
-4.87712
20
5.89539
11
-4.88024
21
5.89382
0
LINE
8
BLACK
6
CONTINUOUS
10
-4.88024
20
5.89382
11
-4.88122
21
5.89353
0
LINE
8
BLACK
6
CONTINUOUS
10
-4.88122
20
5.89353
11
-4.88319
21
5.894
0
LINE
8
BLACK
6
CONTINUOUS
10
-4.88319
20
5.894
11
-4.88439
21
5.89562
0
LINE
8
BLACK
6
CONTINUOUS
10
-4.88439
20
5.89562
11
-4.88427
21
5.89764
0
LINE
8
BLACK
6
CONTINUOUS
10
-4.88427
20
5.89764
11
-4.88288
21
5.89911
0
LINE
8
BLACK
6
CONTINUOUS
10
-4.88288
20
5.89911
11
-4.87913
21
5.90098
0
LINE
8
BLACK
6
CONTINUOUS
10
-4.87913
20
5.90098
11
-4.87815
21
5.90127
0
LINE
8
BLACK
6
CONTINUOUS
10
-4.87815
20
5.90127
11
-4.87798
21
5.90123
0
LINE
8
BLACK
6
CONTINUOUS
10
-4.87798
20
5.90123
11
-4.87781
21
5.90129
0
LINE
8
BLACK
6
CONTINUOUS
10
-4.87781
20
5.90129
11
-4.87219
21
5.90129
0
LINE
8
BLACK
6
CONTINUOUS
10
-4.87219
20
5.90129
11
-4.87118
21
5.90112
0
LINE
8
BLACK
6
CONTINUOUS
10
-4.83556
20
5.90112
11
-4.83542
21
5.901
0
LINE
8
BLACK
6
CONTINUOUS
10
-4.83542
20
5.901
11
-4.83525
21
5.90098
0
LINE
8
BLACK
6
CONTINUOUS
10
-4.83525
20
5.90098
11
-4.8315
21
5.89911
0
LINE
8
BLACK
6
CONTINUOUS
10
-4.8315
20
5.89911
11
-4.83067
21
5.8985
0
LINE
8
BLACK
6
CONTINUOUS
10
-4.83067
20
5.8985
11
-4.82987
21
5.89664
0
LINE
8
BLACK
6
CONTINUOUS
10
-4.82987
20
5.89664
11
-4.83045
21
5.89471
0
LINE
8
BLACK
6
CONTINUOUS
10
-4.83045
20
5.89471
11
-4.83213
21
5.89359
0
LINE
8
BLACK
6
CONTINUOUS
10
-4.83213
20
5.89359
11
-4.83414
21
5.89382
0
LINE
8
BLACK
6
CONTINUOUS
10
-4.83414
20
5.89382
11
-4.83726
21
5.89539
0
LINE
8
BLACK
6
CONTINUOUS
10
-4.83726
20
5.89539
11
-4.84337
21
5.89539
0
LINE
8
BLACK
6
CONTINUOUS
10
-4.84337
20
5.89539
11
-4.84562
21
5.89426
0
LINE
8
BLACK
6
CONTINUOUS
10
-4.84562
20
5.89426
11
-4.84674
21
5.89202
0
LINE
8
BLACK
6
CONTINUOUS
10
-4.84674
20
5.89202
11
-4.84674
21
5.89079
0
LINE
8
BLACK
6
CONTINUOUS
10
-4.84674
20
5.89079
11
-4.84524
21
5.89004
0
LINE
8
BLACK
6
CONTINUOUS
10
-4.84524
20
5.89004
11
-4.83657
21
5.89004
0
LINE
8
BLACK
6
CONTINUOUS
10
-4.83657
20
5.89004
11
-4.83556
21
5.88987
0
LINE
8
BLACK
6
CONTINUOUS
10
-4.83556
20
5.88987
11
-4.83542
21
5.88975
0
LINE
8
BLACK
6
CONTINUOUS
10
-4.83542
20
5.88975
11
-4.83525
21
5.88973
0
LINE
8
BLACK
6
CONTINUOUS
10
-4.83525
20
5.88973
11
-4.8315
21
5.88786
0
LINE
8
BLACK
6
CONTINUOUS
10
-4.8315
20
5.88786
11
-4.83067
21
5.88725
0
LINE
8
BLACK
6
CONTINUOUS
10
-4.83067
20
5.88725
11
-4.8305
21
5.88684
0
LINE
8
BLACK
6
CONTINUOUS
10
-4.8305
20
5.88684
11
-4.83018
21
5.88654
0
LINE
8
BLACK
6
CONTINUOUS
10
-4.83018
20
5.88654
11
-4.8283
21
5.88279
0
LINE
8
BLACK
6
CONTINUOUS
10
-4.8283
20
5.88279
11
-4.82801
21
5.88181
0
LINE
8
BLACK
6
CONTINUOUS
10
-4.82801
20
5.88181
11
-4.82805
21
5.88163
0
LINE
8
BLACK
6
CONTINUOUS
10
-4.82805
20
5.88163
11
-4.82799
21
5.88147
0
LINE
8
BLACK
6
CONTINUOUS
10
-4.82799
20
5.88147
11
-4.82799
21
5.87772
0
LINE
8
BLACK
6
CONTINUOUS
10
-4.82799
20
5.87772
11
-4.82817
21
5.87671
0
LINE
8
BLACK
6
CONTINUOUS
10
-4.82817
20
5.87671
11
-4.82828
21
5.87657
0
LINE
8
BLACK
6
CONTINUOUS
10
-4.82828
20
5.87657
11
-4.8283
21
5.8764
0
LINE
8
BLACK
6
CONTINUOUS
10
-4.8283
20
5.8764
11
-4.83018
21
5.87265
0
LINE
8
BLACK
6
CONTINUOUS
10
-4.83018
20
5.87265
11
-4.83079
21
5.87182
0
LINE
8
BLACK
6
CONTINUOUS
10
-4.83079
20
5.87182
11
-4.83119
21
5.87165
0
LINE
8
BLACK
6
CONTINUOUS
10
-4.83119
20
5.87165
11
-4.8315
21
5.87133
0
LINE
8
BLACK
6
CONTINUOUS
10
-4.8315
20
5.87133
11
-4.83525
21
5.86945
0
LINE
8
BLACK
6
CONTINUOUS
10
-4.83525
20
5.86945
11
-4.83623
21
5.86916
0
LINE
8
BLACK
6
CONTINUOUS
10
-4.83623
20
5.86916
11
-4.8364
21
5.8692
0
LINE
8
BLACK
6
CONTINUOUS
10
-4.8364
20
5.8692
11
-4.83657
21
5.86914
0
LINE
8
BLACK
6
CONTINUOUS
10
-4.83657
20
5.86914
11
-4.84594
21
5.86914
0
LINE
8
BLACK
6
CONTINUOUS
10
-4.84594
20
5.86914
11
-4.84695
21
5.86932
0
LINE
8
BLACK
6
CONTINUOUS
10
-4.84695
20
5.86932
11
-4.84709
21
5.86943
0
LINE
8
BLACK
6
CONTINUOUS
10
-4.84709
20
5.86943
11
-4.84726
21
5.86945
0
LINE
8
BLACK
6
CONTINUOUS
10
-4.84726
20
5.86945
11
-4.84798
21
5.86981
0
LINE
8
BLACK
6
CONTINUOUS
10
-4.84798
20
5.86981
11
-4.84821
21
5.86954
0
LINE
8
BLACK
6
CONTINUOUS
10
-4.84821
20
5.86954
11
-4.8502
21
5.86919
0
LINE
8
BLACK
6
CONTINUOUS
10
-4.8502
20
5.86919
11
-4.85195
21
5.8702
0
LINE
8
BLACK
6
CONTINUOUS
10
-4.85195
20
5.8702
11
-4.85264
21
5.87209
0
LINE
8
BLACK
6
CONTINUOUS
10
-4.85264
20
5.87209
11
-4.85264
21
5.89272
0
LINE
8
BLACK
6
CONTINUOUS
10
-4.85264
20
5.89272
11
-4.85247
21
5.89373
0
LINE
8
BLACK
6
CONTINUOUS
10
-4.85247
20
5.89373
11
-4.85235
21
5.89386
0
LINE
8
BLACK
6
CONTINUOUS
10
-4.85235
20
5.89386
11
-4.85233
21
5.89404
0
LINE
8
BLACK
6
CONTINUOUS
10
-4.85233
20
5.89404
11
-4.85046
21
5.89779
0
LINE
8
BLACK
6
CONTINUOUS
10
-4.85046
20
5.89779
11
-4.84985
21
5.89861
0
LINE
8
BLACK
6
CONTINUOUS
10
-4.84985
20
5.89861
11
-4.84944
21
5.89879
0
LINE
8
BLACK
6
CONTINUOUS
10
-4.84944
20
5.89879
11
-4.84914
21
5.89911
0
LINE
8
BLACK
6
CONTINUOUS
10
-4.84914
20
5.89911
11
-4.84539
21
5.90098
0
LINE
8
BLACK
6
CONTINUOUS
10
-4.84539
20
5.90098
11
-4.8444
21
5.90127
0
LINE
8
BLACK
6
CONTINUOUS
10
-4.8444
20
5.90127
11
-4.84423
21
5.90123
0
LINE
8
BLACK
6
CONTINUOUS
10
-4.84423
20
5.90123
11
-4.84407
21
5.90129
0
LINE
8
BLACK
6
CONTINUOUS
10
-4.84407
20
5.90129
11
-4.83657
21
5.90129
0
LINE
8
BLACK
6
CONTINUOUS
10
-4.83657
20
5.90129
11
-4.83556
21
5.90112
0
LINE
8
BLACK
6
CONTINUOUS
10
-4.84674
20
5.87579
11
-4.84524
21
5.87505
0
LINE
8
BLACK
6
CONTINUOUS
10
-4.84524
20
5.87505
11
-4.83726
21
5.87505
0
LINE
8
BLACK
6
CONTINUOUS
10
-4.83726
20
5.87505
11
-4.83502
21
5.87617
0
LINE
8
BLACK
6
CONTINUOUS
10
-4.83502
20
5.87617
11
-4.8339
21
5.87842
0
LINE
8
BLACK
6
CONTINUOUS
10
-4.8339
20
5.87842
11
-4.8339
21
5.88077
0
LINE
8
BLACK
6
CONTINUOUS
10
-4.8339
20
5.88077
11
-4.83502
21
5.88302
0
LINE
8
BLACK
6
CONTINUOUS
10
-4.83502
20
5.88302
11
-4.83726
21
5.88414
0
LINE
8
BLACK
6
CONTINUOUS
10
-4.83726
20
5.88414
11
-4.84594
21
5.88414
0
LINE
8
BLACK
6
CONTINUOUS
10
-4.84594
20
5.88414
11
-4.84674
21
5.88428
0
LINE
8
BLACK
6
CONTINUOUS
10
-4.84674
20
5.88428
11
-4.84674
21
5.87579
0
LINE
8
BLACK
6
CONTINUOUS
10
-4.19492
20
5.90112
11
-4.19478
21
5.901
0
LINE
8
BLACK
6
CONTINUOUS
10
-4.19478
20
5.901
11
-4.19461
21
5.90098
0
LINE
8
BLACK
6
CONTINUOUS
10
-4.19461
20
5.90098
11
-4.19086
21
5.89911
0
LINE
8
BLACK
6
CONTINUOUS
10
-4.19086
20
5.89911
11
-4.19003
21
5.8985
0
LINE
8
BLACK
6
CONTINUOUS
10
-4.19003
20
5.8985
11
-4.18986
21
5.89809
0
LINE
8
BLACK
6
CONTINUOUS
10
-4.18986
20
5.89809
11
-4.18954
21
5.89779
0
LINE
8
BLACK
6
CONTINUOUS
10
-4.18954
20
5.89779
11
-4.18766
21
5.89404
0
LINE
8
BLACK
6
CONTINUOUS
10
-4.18766
20
5.89404
11
-4.18737
21
5.89305
0
LINE
8
BLACK
6
CONTINUOUS
10
-4.18737
20
5.89305
11
-4.18741
21
5.89288
0
LINE
8
BLACK
6
CONTINUOUS
10
-4.18741
20
5.89288
11
-4.18735
21
5.89272
0
LINE
8
BLACK
6
CONTINUOUS
10
-4.18735
20
5.89272
11
-4.18735
21
5.89084
0
LINE
8
BLACK
6
CONTINUOUS
10
-4.18735
20
5.89084
11
-4.18753
21
5.88983
0
LINE
8
BLACK
6
CONTINUOUS
10
-4.18753
20
5.88983
11
-4.18764
21
5.8897
0
LINE
8
BLACK
6
CONTINUOUS
10
-4.18764
20
5.8897
11
-4.18766
21
5.88952
0
LINE
8
BLACK
6
CONTINUOUS
10
-4.18766
20
5.88952
11
-4.18954
21
5.88577
0
LINE
8
BLACK
6
CONTINUOUS
10
-4.18954
20
5.88577
11
-4.19015
21
5.88495
0
LINE
8
BLACK
6
CONTINUOUS
10
-4.19015
20
5.88495
11
-4.19055
21
5.88477
0
LINE
8
BLACK
6
CONTINUOUS
10
-4.19055
20
5.88477
11
-4.19086
21
5.88445
0
LINE
8
BLACK
6
CONTINUOUS
10
-4.19086
20
5.88445
11
-4.19461
21
5.88258
0
LINE
8
BLACK
6
CONTINUOUS
10
-4.19461
20
5.88258
11
-4.19559
21
5.88228
0
LINE
8
BLACK
6
CONTINUOUS
10
-4.19559
20
5.88228
11
-4.19576
21
5.88232
0
LINE
8
BLACK
6
CONTINUOUS
10
-4.19576
20
5.88232
11
-4.19593
21
5.88226
0
LINE
8
BLACK
6
CONTINUOUS
10
-4.19593
20
5.88226
11
-4.20086
21
5.88226
0
LINE
8
BLACK
6
CONTINUOUS
10
-4.20086
20
5.88226
11
-4.2031
21
5.88114
0
LINE
8
BLACK
6
CONTINUOUS
10
-4.2031
20
5.88114
11
-4.20422
21
5.8789
0
LINE
8
BLACK
6
CONTINUOUS
10
-4.20422
20
5.8789
11
-4.20422
21
5.87842
0
LINE
8
BLACK
6
CONTINUOUS
10
-4.20422
20
5.87842
11
-4.2031
21
5.87617
0
LINE
8
BLACK
6
CONTINUOUS
10
-4.2031
20
5.87617
11
-4.20086
21
5.87505
0
LINE
8
BLACK
6
CONTINUOUS
10
-4.20086
20
5.87505
11
-4.19475
21
5.87505
0
LINE
8
BLACK
6
CONTINUOUS
10
-4.19475
20
5.87505
11
-4.19162
21
5.87661
0
LINE
8
BLACK
6
CONTINUOUS
10
-4.19162
20
5.87661
11
-4.19064
21
5.8769
0
LINE
8
BLACK
6
CONTINUOUS
10
-4.19064
20
5.8769
11
-4.18868
21
5.87643
0
LINE
8
BLACK
6
CONTINUOUS
10
-4.18868
20
5.87643
11
-4.18747
21
5.87481
0
LINE
8
BLACK
6
CONTINUOUS
10
-4.18747
20
5.87481
11
-4.18759
21
5.87279
0
LINE
8
BLACK
6
CONTINUOUS
10
-4.18759
20
5.87279
11
-4.18898
21
5.87133
0
LINE
8
BLACK
6
CONTINUOUS
10
-4.18898
20
5.87133
11
-4.19273
21
5.86945
0
LINE
8
BLACK
6
CONTINUOUS
10
-4.19273
20
5.86945
11
-4.19372
21
5.86916
0
LINE
8
BLACK
6
CONTINUOUS
10
-4.19372
20
5.86916
11
-4.19389
21
5.8692
0
LINE
8
BLACK
6
CONTINUOUS
10
-4.19389
20
5.8692
11
-4.19405
21
5.86914
0
LINE
8
BLACK
6
CONTINUOUS
10
-4.19405
20
5.86914
11
-4.20155
21
5.86914
0
LINE
8
BLACK
6
CONTINUOUS
10
-4.20155
20
5.86914
11
-4.20256
21
5.86932
0
LINE
8
BLACK
6
CONTINUOUS
10
-4.20256
20
5.86932
11
-4.2027
21
5.86943
0
LINE
8
BLACK
6
CONTINUOUS
10
-4.2027
20
5.86943
11
-4.20287
21
5.86945
0
LINE
8
BLACK
6
CONTINUOUS
10
-4.20287
20
5.86945
11
-4.20662
21
5.87133
0
LINE
8
BLACK
6
CONTINUOUS
10
-4.20662
20
5.87133
11
-4.20745
21
5.87194
0
LINE
8
BLACK
6
CONTINUOUS
10
-4.20745
20
5.87194
11
-4.20762
21
5.87234
0
LINE
8
BLACK
6
CONTINUOUS
10
-4.20762
20
5.87234
11
-4.20794
21
5.87265
0
LINE
8
BLACK
6
CONTINUOUS
10
-4.20794
20
5.87265
11
-4.20982
21
5.8764
0
LINE
8
BLACK
6
CONTINUOUS
10
-4.20982
20
5.8764
11
-4.21011
21
5.87738
0
LINE
8
BLACK
6
CONTINUOUS
10
-4.21011
20
5.87738
11
-4.21007
21
5.87755
0
LINE
8
BLACK
6
CONTINUOUS
10
-4.21007
20
5.87755
11
-4.21013
21
5.87772
0
LINE
8
BLACK
6
CONTINUOUS
10
-4.21013
20
5.87772
11
-4.21013
21
5.87959
0
LINE
8
BLACK
6
CONTINUOUS
10
-4.21013
20
5.87959
11
-4.20995
21
5.8806
0
LINE
8
BLACK
6
CONTINUOUS
10
-4.20995
20
5.8806
11
-4.20984
21
5.88074
0
LINE
8
BLACK
6
CONTINUOUS
10
-4.20984
20
5.88074
11
-4.20982
21
5.88091
0
LINE
8
BLACK
6
CONTINUOUS
10
-4.20982
20
5.88091
11
-4.20794
21
5.88466
0
LINE
8
BLACK
6
CONTINUOUS
10
-4.20794
20
5.88466
11
-4.20733
21
5.88549
0
LINE
8
BLACK
6
CONTINUOUS
10
-4.20733
20
5.88549
11
-4.20693
21
5.88566
0
LINE
8
BLACK
6
CONTINUOUS
10
-4.20693
20
5.88566
11
-4.20662
21
5.88598
0
LINE
8
BLACK
6
CONTINUOUS
10
-4.20662
20
5.88598
11
-4.20287
21
5.88786
0
LINE
8
BLACK
6
CONTINUOUS
10
-4.20287
20
5.88786
11
-4.20189
21
5.88815
0
LINE
8
BLACK
6
CONTINUOUS
10
-4.20189
20
5.88815
11
-4.20172
21
5.88811
0
LINE
8
BLACK
6
CONTINUOUS
10
-4.20172
20
5.88811
11
-4.20155
21
5.88817
0
LINE
8
BLACK
6
CONTINUOUS
10
-4.20155
20
5.88817
11
-4.19663
21
5.88817
0
LINE
8
BLACK
6
CONTINUOUS
10
-4.19663
20
5.88817
11
-4.19438
21
5.88929
0
LINE
8
BLACK
6
CONTINUOUS
10
-4.19438
20
5.88929
11
-4.19326
21
5.89154
0
LINE
8
BLACK
6
CONTINUOUS
10
-4.19326
20
5.89154
11
-4.19326
21
5.89202
0
LINE
8
BLACK
6
CONTINUOUS
10
-4.19326
20
5.89202
11
-4.19438
21
5.89426
0
LINE
8
BLACK
6
CONTINUOUS
10
-4.19438
20
5.89426
11
-4.19663
21
5.89539
0
LINE
8
BLACK
6
CONTINUOUS
10
-4.19663
20
5.89539
11
-4.20086
21
5.89539
0
LINE
8
BLACK
6
CONTINUOUS
10
-4.20086
20
5.89539
11
-4.20398
21
5.89382
0
LINE
8
BLACK
6
CONTINUOUS
10
-4.20398
20
5.89382
11
-4.20496
21
5.89353
0
LINE
8
BLACK
6
CONTINUOUS
10
-4.20496
20
5.89353
11
-4.20693
21
5.894
0
LINE
8
BLACK
6
CONTINUOUS
10
-4.20693
20
5.894
11
-4.20813
21
5.89562
0
LINE
8
BLACK
6
CONTINUOUS
10
-4.20813
20
5.89562
11
-4.20801
21
5.89764
0
LINE
8
BLACK
6
CONTINUOUS
10
-4.20801
20
5.89764
11
-4.20662
21
5.89911
0
LINE
8
BLACK
6
CONTINUOUS
10
-4.20662
20
5.89911
11
-4.20287
21
5.90098
0
LINE
8
BLACK
6
CONTINUOUS
10
-4.20287
20
5.90098
11
-4.20189
21
5.90127
0
LINE
8
BLACK
6
CONTINUOUS
10
-4.20189
20
5.90127
11
-4.20172
21
5.90123
0
LINE
8
BLACK
6
CONTINUOUS
10
-4.20172
20
5.90123
11
-4.20155
21
5.90129
0
LINE
8
BLACK
6
CONTINUOUS
10
-4.20155
20
5.90129
11
-4.19593
21
5.90129
0
LINE
8
BLACK
6
CONTINUOUS
10
-4.19593
20
5.90129
11
-4.19492
21
5.90112
0
LINE
8
BLACK
6
CONTINUOUS
10
-4.16117
20
5.90112
11
-4.16104
21
5.901
0
LINE
8
BLACK
6
CONTINUOUS
10
-4.16104
20
5.901
11
-4.16086
21
5.90098
0
LINE
8
BLACK
6
CONTINUOUS
10
-4.16086
20
5.90098
11
-4.15711
21
5.89911
0
LINE
8
BLACK
6
CONTINUOUS
10
-4.15711
20
5.89911
11
-4.15629
21
5.8985
0
LINE
8
BLACK
6
CONTINUOUS
10
-4.15629
20
5.8985
11
-4.15611
21
5.89809
0
LINE
8
BLACK
6
CONTINUOUS
10
-4.15611
20
5.89809
11
-4.15579
21
5.89779
0
LINE
8
BLACK
6
CONTINUOUS
10
-4.15579
20
5.89779
11
-4.15392
21
5.89404
0
LINE
8
BLACK
6
CONTINUOUS
10
-4.15392
20
5.89404
11
-4.15362
21
5.89305
0
LINE
8
BLACK
6
CONTINUOUS
10
-4.15362
20
5.89305
11
-4.15367
21
5.89288
0
LINE
8
BLACK
6
CONTINUOUS
10
-4.15367
20
5.89288
11
-4.15361
21
5.89272
0
LINE
8
BLACK
6
CONTINUOUS
10
-4.15361
20
5.89272
11
-4.15361
21
5.87772
0
LINE
8
BLACK
6
CONTINUOUS
10
-4.15361
20
5.87772
11
-4.15378
21
5.87671
0
LINE
8
BLACK
6
CONTINUOUS
10
-4.15378
20
5.87671
11
-4.1539
21
5.87657
0
LINE
8
BLACK
6
CONTINUOUS
10
-4.1539
20
5.87657
11
-4.15392
21
5.8764
0
LINE
8
BLACK
6
CONTINUOUS
10
-4.15392
20
5.8764
11
-4.15579
21
5.87265
0
LINE
8
BLACK
6
CONTINUOUS
10
-4.15579
20
5.87265
11
-4.1564
21
5.87182
0
LINE
8
BLACK
6
CONTINUOUS
10
-4.1564
20
5.87182
11
-4.15681
21
5.87165
0
LINE
8
BLACK
6
CONTINUOUS
10
-4.15681
20
5.87165
11
-4.15711
21
5.87133
0
LINE
8
BLACK
6
CONTINUOUS
10
-4.15711
20
5.87133
11
-4.16086
21
5.86945
0
LINE
8
BLACK
6
CONTINUOUS
10
-4.16086
20
5.86945
11
-4.16184
21
5.86916
0
LINE
8
BLACK
6
CONTINUOUS
10
-4.16184
20
5.86916
11
-4.16202
21
5.8692
0
LINE
8
BLACK
6
CONTINUOUS
10
-4.16202
20
5.8692
11
-4.16218
21
5.86914
0
LINE
8
BLACK
6
CONTINUOUS
10
-4.16218
20
5.86914
11
-4.16968
21
5.86914
0
LINE
8
BLACK
6
CONTINUOUS
10
-4.16968
20
5.86914
11
-4.17069
21
5.86932
0
LINE
8
BLACK
6
CONTINUOUS
10
-4.17069
20
5.86932
11
-4.17083
21
5.86943
0
LINE
8
BLACK
6
CONTINUOUS
10
-4.17083
20
5.86943
11
-4.171
21
5.86945
0
LINE
8
BLACK
6
CONTINUOUS
10
-4.171
20
5.86945
11
-4.17475
21
5.87133
0
LINE
8
BLACK
6
CONTINUOUS
10
-4.17475
20
5.87133
11
-4.17558
21
5.87194
0
LINE
8
BLACK
6
CONTINUOUS
10
-4.17558
20
5.87194
11
-4.17638
21
5.87379
0
LINE
8
BLACK
6
CONTINUOUS
10
-4.17638
20
5.87379
11
-4.1758
21
5.87573
0
LINE
8
BLACK
6
CONTINUOUS
10
-4.1758
20
5.87573
11
-4.17412
21
5.87684
0
LINE
8
BLACK
6
CONTINUOUS
10
-4.17412
20
5.87684
11
-4.17211
21
5.87661
0
LINE
8
BLACK
6
CONTINUOUS
10
-4.17211
20
5.87661
11
-4.16898
21
5.87505
0
LINE
8
BLACK
6
CONTINUOUS
10
-4.16898
20
5.87505
11
-4.16288
21
5.87505
0
LINE
8
BLACK
6
CONTINUOUS
10
-4.16288
20
5.87505
11
-4.16063
21
5.87617
0
LINE
8
BLACK
6
CONTINUOUS
10
-4.16063
20
5.87617
11
-4.15951
21
5.87842
0
LINE
8
BLACK
6
CONTINUOUS
10
-4.15951
20
5.87842
11
-4.15951
21
5.8828
0
LINE
8
BLACK
6
CONTINUOUS
10
-4.15951
20
5.8828
11
-4.17588
21
5.88607
0
LINE
8
BLACK
6
CONTINUOUS
10
-4.17588
20
5.88607
11
-4.17684
21
5.88644
0
LINE
8
BLACK
6
CONTINUOUS
10
-4.17684
20
5.88644
11
-4.17715
21
5.88682
0
LINE
8
BLACK
6
CONTINUOUS
10
-4.17715
20
5.88682
11
-4.17757
21
5.88707
0
LINE
8
BLACK
6
CONTINUOUS
10
-4.17757
20
5.88707
11
-4.17776
21
5.88759
0
LINE
8
BLACK
6
CONTINUOUS
10
-4.17776
20
5.88759
11
-4.1781
21
5.88802
0
LINE
8
BLACK
6
CONTINUOUS
10
-4.1781
20
5.88802
11
-4.17809
21
5.88851
0
LINE
8
BLACK
6
CONTINUOUS
10
-4.17809
20
5.88851
11
-4.17826
21
5.88897
0
LINE
8
BLACK
6
CONTINUOUS
10
-4.17826
20
5.88897
11
-4.17826
21
5.89272
0
LINE
8
BLACK
6
CONTINUOUS
10
-4.17826
20
5.89272
11
-4.17808
21
5.89373
0
LINE
8
BLACK
6
CONTINUOUS
10
-4.17808
20
5.89373
11
-4.17797
21
5.89386
0
LINE
8
BLACK
6
CONTINUOUS
10
-4.17797
20
5.89386
11
-4.17795
21
5.89404
0
LINE
8
BLACK
6
CONTINUOUS
10
-4.17795
20
5.89404
11
-4.17607
21
5.89779
0
LINE
8
BLACK
6
CONTINUOUS
10
-4.17607
20
5.89779
11
-4.17546
21
5.89861
0
LINE
8
BLACK
6
CONTINUOUS
10
-4.17546
20
5.89861
11
-4.17506
21
5.89879
0
LINE
8
BLACK
6
CONTINUOUS
10
-4.17506
20
5.89879
11
-4.17475
21
5.89911
0
LINE
8
BLACK
6
CONTINUOUS
10
-4.17475
20
5.89911
11
-4.171
21
5.90098
0
LINE
8
BLACK
6
CONTINUOUS
10
-4.171
20
5.90098
11
-4.17002
21
5.90127
0
LINE
8
BLACK
6
CONTINUOUS
10
-4.17002
20
5.90127
11
-4.16985
21
5.90123
0
LINE
8
BLACK
6
CONTINUOUS
10
-4.16985
20
5.90123
11
-4.16968
21
5.90129
0
LINE
8
BLACK
6
CONTINUOUS
10
-4.16968
20
5.90129
11
-4.16218
21
5.90129
0
LINE
8
BLACK
6
CONTINUOUS
10
-4.16218
20
5.90129
11
-4.16117
21
5.90112
0
LINE
8
BLACK
6
CONTINUOUS
10
-4.17123
20
5.89426
11
-4.17235
21
5.89202
0
LINE
8
BLACK
6
CONTINUOUS
10
-4.17235
20
5.89202
11
-4.17235
21
5.89139
0
LINE
8
BLACK
6
CONTINUOUS
10
-4.17235
20
5.89139
11
-4.15951
21
5.88882
0
LINE
8
BLACK
6
CONTINUOUS
10
-4.15951
20
5.88882
11
-4.15951
21
5.89202
0
LINE
8
BLACK
6
CONTINUOUS
10
-4.15951
20
5.89202
11
-4.16063
21
5.89426
0
LINE
8
BLACK
6
CONTINUOUS
10
-4.16063
20
5.89426
11
-4.16288
21
5.89539
0
LINE
8
BLACK
6
CONTINUOUS
10
-4.16288
20
5.89539
11
-4.16898
21
5.89539
0
LINE
8
BLACK
6
CONTINUOUS
10
-4.16898
20
5.89539
11
-4.17123
21
5.89426
0
LINE
8
BLACK
6
CONTINUOUS
10
-4.09556
20
5.90112
11
-4.09542
21
5.901
0
LINE
8
BLACK
6
CONTINUOUS
10
-4.09542
20
5.901
11
-4.09524
21
5.90098
0
LINE
8
BLACK
6
CONTINUOUS
10
-4.09524
20
5.90098
11
-4.0915
21
5.89911
0
LINE
8
BLACK
6
CONTINUOUS
10
-4.0915
20
5.89911
11
-4.09067
21
5.8985
0
LINE
8
BLACK
6
CONTINUOUS
10
-4.09067
20
5.8985
11
-4.08987
21
5.89664
0
LINE
8
BLACK
6
CONTINUOUS
10
-4.08987
20
5.89664
11
-4.09044
21
5.89471
0
LINE
8
BLACK
6
CONTINUOUS
10
-4.09044
20
5.89471
11
-4.09213
21
5.89359
0
LINE
8
BLACK
6
CONTINUOUS
10
-4.09213
20
5.89359
11
-4.09414
21
5.89382
0
LINE
8
BLACK
6
CONTINUOUS
10
-4.09414
20
5.89382
11
-4.09726
21
5.89539
0
LINE
8
BLACK
6
CONTINUOUS
10
-4.09726
20
5.89539
11
-4.10337
21
5.89539
0
LINE
8
BLACK
6
CONTINUOUS
10
-4.10337
20
5.89539
11
-4.10561
21
5.89426
0
LINE
8
BLACK
6
CONTINUOUS
10
-4.10561
20
5.89426
11
-4.10674
21
5.89202
0
LINE
8
BLACK
6
CONTINUOUS
10
-4.10674
20
5.89202
11
-4.10674
21
5.89079
0
LINE
8
BLACK
6
CONTINUOUS
10
-4.10674
20
5.89079
11
-4.10524
21
5.89004
0
LINE
8
BLACK
6
CONTINUOUS
10
-4.10524
20
5.89004
11
-4.09657
21
5.89004
0
LINE
8
BLACK
6
CONTINUOUS
10
-4.09657
20
5.89004
11
-4.09556
21
5.88987
0
LINE
8
BLACK
6
CONTINUOUS
10
-4.09556
20
5.88987
11
-4.09542
21
5.88975
0
LINE
8
BLACK
6
CONTINUOUS
10
-4.09542
20
5.88975
11
-4.09524
21
5.88973
0
LINE
8
BLACK
6
CONTINUOUS
10
-4.09524
20
5.88973
11
-4.0915
21
5.88786
0
LINE
8
BLACK
6
CONTINUOUS
10
-4.0915
20
5.88786
11
-4.09067
21
5.88725
0
LINE
8
BLACK
6
CONTINUOUS
10
-4.09067
20
5.88725
11
-4.0905
21
5.88684
0
LINE
8
BLACK
6
CONTINUOUS
10
-4.0905
20
5.88684
11
-4.09017
21
5.88654
0
LINE
8
BLACK
6
CONTINUOUS
10
-4.09017
20
5.88654
11
-4.0883
21
5.88279
0
LINE
8
BLACK
6
CONTINUOUS
10
-4.0883
20
5.88279
11
-4.08801
21
5.88181
0
LINE
8
BLACK
6
CONTINUOUS
10
-4.08801
20
5.88181
11
-4.08805
21
5.88163
0
LINE
8
BLACK
6
CONTINUOUS
10
-4.08805
20
5.88163
11
-4.08799
21
5.88147
0
LINE
8
BLACK
6
CONTINUOUS
10
-4.08799
20
5.88147
11
-4.08799
21
5.87772
0
LINE
8
BLACK
6
CONTINUOUS
10
-4.08799
20
5.87772
11
-4.08817
21
5.87671
0
LINE
8
BLACK
6
CONTINUOUS
10
-4.08817
20
5.87671
11
-4.08828
21
5.87657
0
LINE
8
BLACK
6
CONTINUOUS
10
-4.08828
20
5.87657
11
-4.0883
21
5.8764
0
LINE
8
BLACK
6
CONTINUOUS
10
-4.0883
20
5.8764
11
-4.09017
21
5.87265
0
LINE
8
BLACK
6
CONTINUOUS
10
-4.09017
20
5.87265
11
-4.09079
21
5.87182
0
LINE
8
BLACK
6
CONTINUOUS
10
-4.09079
20
5.87182
11
-4.09119
21
5.87165
0
LINE
8
BLACK
6
CONTINUOUS
10
-4.09119
20
5.87165
11
-4.0915
21
5.87133
0
LINE
8
BLACK
6
CONTINUOUS
10
-4.0915
20
5.87133
11
-4.09524
21
5.86945
0
LINE
8
BLACK
6
CONTINUOUS
10
-4.09524
20
5.86945
11
-4.09623
21
5.86916
0
LINE
8
BLACK
6
CONTINUOUS
10
-4.09623
20
5.86916
11
-4.0964
21
5.8692
0
LINE
8
BLACK
6
CONTINUOUS
10
-4.0964
20
5.8692
11
-4.09657
21
5.86914
0
LINE
8
BLACK
6
CONTINUOUS
10
-4.09657
20
5.86914
11
-4.10594
21
5.86914
0
LINE
8
BLACK
6
CONTINUOUS
10
-4.10594
20
5.86914
11
-4.10695
21
5.86932
0
LINE
8
BLACK
6
CONTINUOUS
10
-4.10695
20
5.86932
11
-4.10708
21
5.86943
0
LINE
8
BLACK
6
CONTINUOUS
10
-4.10708
20
5.86943
11
-4.10726
21
5.86945
0
LINE
8
BLACK
6
CONTINUOUS
10
-4.10726
20
5.86945
11
-4.10798
21
5.86981
0
LINE
8
BLACK
6
CONTINUOUS
10
-4.10798
20
5.86981
11
-4.10821
21
5.86954
0
LINE
8
BLACK
6
CONTINUOUS
10
-4.10821
20
5.86954
11
-4.1102
21
5.86919
0
LINE
8
BLACK
6
CONTINUOUS
10
-4.1102
20
5.86919
11
-4.11195
21
5.8702
0
LINE
8
BLACK
6
CONTINUOUS
10
-4.11195
20
5.8702
11
-4.11264
21
5.87209
0
LINE
8
BLACK
6
CONTINUOUS
10
-4.11264
20
5.87209
11
-4.11264
21
5.89272
0
LINE
8
BLACK
6
CONTINUOUS
10
-4.11264
20
5.89272
11
-4.11246
21
5.89373
0
LINE
8
BLACK
6
CONTINUOUS
10
-4.11246
20
5.89373
11
-4.11235
21
5.89386
0
LINE
8
BLACK
6
CONTINUOUS
10
-4.11235
20
5.89386
11
-4.11233
21
5.89404
0
LINE
8
BLACK
6
CONTINUOUS
10
-4.11233
20
5.89404
11
-4.11046
21
5.89779
0
LINE
8
BLACK
6
CONTINUOUS
10
-4.11046
20
5.89779
11
-4.10984
21
5.89861
0
LINE
8
BLACK
6
CONTINUOUS
10
-4.10984
20
5.89861
11
-4.10944
21
5.89879
0
LINE
8
BLACK
6
CONTINUOUS
10
-4.10944
20
5.89879
11
-4.10913
21
5.89911
0
LINE
8
BLACK
6
CONTINUOUS
10
-4.10913
20
5.89911
11
-4.10539
21
5.90098
0
LINE
8
BLACK
6
CONTINUOUS
10
-4.10539
20
5.90098
11
-4.1044
21
5.90127
0
LINE
8
BLACK
6
CONTINUOUS
10
-4.1044
20
5.90127
11
-4.10423
21
5.90123
0
LINE
8
BLACK
6
CONTINUOUS
10
-4.10423
20
5.90123
11
-4.10406
21
5.90129
0
LINE
8
BLACK
6
CONTINUOUS
10
-4.10406
20
5.90129
11
-4.09657
21
5.90129
0
LINE
8
BLACK
6
CONTINUOUS
10
-4.09657
20
5.90129
11
-4.09556
21
5.90112
0
LINE
8
BLACK
6
CONTINUOUS
10
-4.10674
20
5.87579
11
-4.10524
21
5.87505
0
LINE
8
BLACK
6
CONTINUOUS
10
-4.10524
20
5.87505
11
-4.09726
21
5.87505
0
LINE
8
BLACK
6
CONTINUOUS
10
-4.09726
20
5.87505
11
-4.09502
21
5.87617
0
LINE
8
BLACK
6
CONTINUOUS
10
-4.09502
20
5.87617
11
-4.09389
21
5.87842
0
LINE
8
BLACK
6
CONTINUOUS
10
-4.09389
20
5.87842
11
-4.09389
21
5.88077
0
LINE
8
BLACK
6
CONTINUOUS
10
-4.09389
20
5.88077
11
-4.09502
21
5.88302
0
LINE
8
BLACK
6
CONTINUOUS
10
-4.09502
20
5.88302
11
-4.09726
21
5.88414
0
LINE
8
BLACK
6
CONTINUOUS
10
-4.09726
20
5.88414
11
-4.10594
21
5.88414
0
LINE
8
BLACK
6
CONTINUOUS
10
-4.10594
20
5.88414
11
-4.10674
21
5.88428
0
LINE
8
BLACK
6
CONTINUOUS
10
-4.10674
20
5.88428
11
-4.10674
21
5.87579
0
LINE
8
BLACK
6
CONTINUOUS
10
-4.03931
20
5.91424
11
-4.03918
21
5.91412
0
LINE
8
BLACK
6
CONTINUOUS
10
-4.03918
20
5.91412
11
-4.039
21
5.9141
0
LINE
8
BLACK
6
CONTINUOUS
10
-4.039
20
5.9141
11
-4.03525
21
5.91223
0
LINE
8
BLACK
6
CONTINUOUS
10
-4.03525
20
5.91223
11
-4.03454
21
5.9117
0
LINE
8
BLACK
6
CONTINUOUS
10
-4.03454
20
5.9117
11
-4.03449
21
5.91168
0
LINE
8
BLACK
6
CONTINUOUS
10
-4.03449
20
5.91168
11
-4.03261
21
5.9098
0
LINE
8
BLACK
6
CONTINUOUS
10
-4.03261
20
5.9098
11
-4.0321
21
5.90908
0
LINE
8
BLACK
6
CONTINUOUS
10
-4.0321
20
5.90908
11
-4.03206
21
5.90903
0
LINE
8
BLACK
6
CONTINUOUS
10
-4.03206
20
5.90903
11
-4.03018
21
5.90529
0
LINE
8
BLACK
6
CONTINUOUS
10
-4.03018
20
5.90529
11
-4.02989
21
5.9043
0
LINE
8
BLACK
6
CONTINUOUS
10
-4.02989
20
5.9043
11
-4.02993
21
5.90413
0
LINE
8
BLACK
6
CONTINUOUS
10
-4.02993
20
5.90413
11
-4.02987
21
5.90396
0
LINE
8
BLACK
6
CONTINUOUS
10
-4.02987
20
5.90396
11
-4.02987
21
5.90022
0
LINE
8
BLACK
6
CONTINUOUS
10
-4.02987
20
5.90022
11
-4.03005
21
5.89921
0
LINE
8
BLACK
6
CONTINUOUS
10
-4.03005
20
5.89921
11
-4.03016
21
5.89907
0
LINE
8
BLACK
6
CONTINUOUS
10
-4.03016
20
5.89907
11
-4.03018
21
5.89889
0
LINE
8
BLACK
6
CONTINUOUS
10
-4.03018
20
5.89889
11
-4.03206
21
5.89515
0
LINE
8
BLACK
6
CONTINUOUS
10
-4.03206
20
5.89515
11
-4.03258
21
5.89444
0
LINE
8
BLACK
6
CONTINUOUS
10
-4.03258
20
5.89444
11
-4.03261
21
5.89438
0
LINE
8
BLACK
6
CONTINUOUS
10
-4.03261
20
5.89438
11
-4.03449
21
5.8925
0
LINE
8
BLACK
6
CONTINUOUS
10
-4.03449
20
5.8925
11
-4.03521
21
5.892
0
LINE
8
BLACK
6
CONTINUOUS
10
-4.03521
20
5.892
11
-4.03525
21
5.89195
0
LINE
8
BLACK
6
CONTINUOUS
10
-4.03525
20
5.89195
11
-4.039
21
5.89008
0
LINE
8
BLACK
6
CONTINUOUS
10
-4.039
20
5.89008
11
-4.03949
21
5.88993
0
LINE
8
BLACK
6
CONTINUOUS
10
-4.03949
20
5.88993
11
-4.03961
21
5.88985
0
LINE
8
BLACK
6
CONTINUOUS
10
-4.03961
20
5.88985
11
-4.04679
21
5.88806
0
LINE
8
BLACK
6
CONTINUOUS
10
-4.04679
20
5.88806
11
-4.04982
21
5.88654
0
LINE
8
BLACK
6
CONTINUOUS
10
-4.04982
20
5.88654
11
-4.05102
21
5.88534
0
LINE
8
BLACK
6
CONTINUOUS
10
-4.05102
20
5.88534
11
-4.05237
21
5.88265
0
LINE
8
BLACK
6
CONTINUOUS
10
-4.05237
20
5.88265
11
-4.05237
21
5.88029
0
LINE
8
BLACK
6
CONTINUOUS
10
-4.05237
20
5.88029
11
-4.05102
21
5.87759
0
LINE
8
BLACK
6
CONTINUOUS
10
-4.05102
20
5.87759
11
-4.04982
21
5.8764
0
LINE
8
BLACK
6
CONTINUOUS
10
-4.04982
20
5.8764
11
-4.04712
21
5.87505
0
LINE
8
BLACK
6
CONTINUOUS
10
-4.04712
20
5.87505
11
-4.03893
21
5.87505
0
LINE
8
BLACK
6
CONTINUOUS
10
-4.03893
20
5.87505
11
-4.03376
21
5.87677
0
LINE
8
BLACK
6
CONTINUOUS
10
-4.03376
20
5.87677
11
-4.03274
21
5.87692
0
LINE
8
BLACK
6
CONTINUOUS
10
-4.03274
20
5.87692
11
-4.03086
21
5.87618
0
LINE
8
BLACK
6
CONTINUOUS
10
-4.03086
20
5.87618
11
-4.0299
21
5.8744
0
LINE
8
BLACK
6
CONTINUOUS
10
-4.0299
20
5.8744
11
-4.03031
21
5.87242
0
LINE
8
BLACK
6
CONTINUOUS
10
-4.03031
20
5.87242
11
-4.03189
21
5.87117
0
LINE
8
BLACK
6
CONTINUOUS
10
-4.03189
20
5.87117
11
-4.03751
21
5.86929
0
LINE
8
BLACK
6
CONTINUOUS
10
-4.03751
20
5.86929
11
-4.03839
21
5.86916
0
LINE
8
BLACK
6
CONTINUOUS
10
-4.03839
20
5.86916
11
-4.03845
21
5.86914
0
LINE
8
BLACK
6
CONTINUOUS
10
-4.03845
20
5.86914
11
-4.04782
21
5.86914
0
LINE
8
BLACK
6
CONTINUOUS
10
-4.04782
20
5.86914
11
-4.04883
21
5.86932
0
LINE
8
BLACK
6
CONTINUOUS
10
-4.04883
20
5.86932
11
-4.04897
21
5.86943
0
LINE
8
BLACK
6
CONTINUOUS
10
-4.04897
20
5.86943
11
-4.04914
21
5.86945
0
LINE
8
BLACK
6
CONTINUOUS
10
-4.04914
20
5.86945
11
-4.05289
21
5.87133
0
LINE
8
BLACK
6
CONTINUOUS
10
-4.05289
20
5.87133
11
-4.0536
21
5.87185
0
LINE
8
BLACK
6
CONTINUOUS
10
-4.0536
20
5.87185
11
-4.05366
21
5.87188
0
LINE
8
BLACK
6
CONTINUOUS
10
-4.05366
20
5.87188
11
-4.05553
21
5.87376
0
LINE
8
BLACK
6
CONTINUOUS
10
-4.05553
20
5.87376
11
-4.05604
21
5.87448
0
LINE
8
BLACK
6
CONTINUOUS
10
-4.05604
20
5.87448
11
-4.05609
21
5.87452
0
LINE
8
BLACK
6
CONTINUOUS
10
-4.05609
20
5.87452
11
-4.05796
21
5.87827
0
LINE
8
BLACK
6
CONTINUOUS
10
-4.05796
20
5.87827
11
-4.05825
21
5.87926
0
LINE
8
BLACK
6
CONTINUOUS
10
-4.05825
20
5.87926
11
-4.05821
21
5.87943
0
LINE
8
BLACK
6
CONTINUOUS
10
-4.05821
20
5.87943
11
-4.05827
21
5.87959
0
LINE
8
BLACK
6
CONTINUOUS
10
-4.05827
20
5.87959
11
-4.05827
21
5.88334
0
LINE
8
BLACK
6
CONTINUOUS
10
-4.05827
20
5.88334
11
-4.0581
21
5.88435
0
LINE
8
BLACK
6
CONTINUOUS
10
-4.0581
20
5.88435
11
-4.05798
21
5.88449
0
LINE
8
BLACK
6
CONTINUOUS
10
-4.05798
20
5.88449
11
-4.05796
21
5.88466
0
LINE
8
BLACK
6
CONTINUOUS
10
-4.05796
20
5.88466
11
-4.05609
21
5.88841
0
LINE
8
BLACK
6
CONTINUOUS
10
-4.05609
20
5.88841
11
-4.05556
21
5.88912
0
LINE
8
BLACK
6
CONTINUOUS
10
-4.05556
20
5.88912
11
-4.05553
21
5.88918
0
LINE
8
BLACK
6
CONTINUOUS
10
-4.05553
20
5.88918
11
-4.05366
21
5.89105
0
LINE
8
BLACK
6
CONTINUOUS
10
-4.05366
20
5.89105
11
-4.05294
21
5.89156
0
LINE
8
BLACK
6
CONTINUOUS
10
-4.05294
20
5.89156
11
-4.05289
21
5.89161
0
LINE
8
BLACK
6
CONTINUOUS
10
-4.05289
20
5.89161
11
-4.04914
21
5.89348
0
LINE
8
BLACK
6
CONTINUOUS
10
-4.04914
20
5.89348
11
-4.04865
21
5.89363
0
LINE
8
BLACK
6
CONTINUOUS
10
-4.04865
20
5.89363
11
-4.04854
21
5.89371
0
LINE
8
BLACK
6
CONTINUOUS
10
-4.04854
20
5.89371
11
-4.04135
21
5.8955
0
LINE
8
BLACK
6
CONTINUOUS
10
-4.04135
20
5.8955
11
-4.03832
21
5.89702
0
LINE
8
BLACK
6
CONTINUOUS
10
-4.03832
20
5.89702
11
-4.03712
21
5.89821
0
LINE
8
BLACK
6
CONTINUOUS
10
-4.03712
20
5.89821
11
-4.03578
21
5.90091
0
LINE
8
BLACK
6
CONTINUOUS
10
-4.03578
20
5.90091
11
-4.03578
21
5.90327
0
LINE
8
BLACK
6
CONTINUOUS
10
-4.03578
20
5.90327
11
-4.03712
21
5.90597
0
LINE
8
BLACK
6
CONTINUOUS
10
-4.03712
20
5.90597
11
-4.03832
21
5.90716
0
LINE
8
BLACK
6
CONTINUOUS
10
-4.03832
20
5.90716
11
-4.04102
21
5.90851
0
LINE
8
BLACK
6
CONTINUOUS
10
-4.04102
20
5.90851
11
-4.04922
21
5.90851
0
LINE
8
BLACK
6
CONTINUOUS
10
-4.04922
20
5.90851
11
-4.05439
21
5.90679
0
LINE
8
BLACK
6
CONTINUOUS
10
-4.05439
20
5.90679
11
-4.0554
21
5.90664
0
LINE
8
BLACK
6
CONTINUOUS
10
-4.0554
20
5.90664
11
-4.05728
21
5.90738
0
LINE
8
BLACK
6
CONTINUOUS
10
-4.05728
20
5.90738
11
-4.05824
21
5.90916
0
LINE
8
BLACK
6
CONTINUOUS
10
-4.05824
20
5.90916
11
-4.05784
21
5.91113
0
LINE
8
BLACK
6
CONTINUOUS
10
-4.05784
20
5.91113
11
-4.05625
21
5.91239
0
LINE
8
BLACK
6
CONTINUOUS
10
-4.05625
20
5.91239
11
-4.05063
21
5.91426
0
LINE
8
BLACK
6
CONTINUOUS
10
-4.05063
20
5.91426
11
-4.04976
21
5.91439
0
LINE
8
BLACK
6
CONTINUOUS
10
-4.04976
20
5.91439
11
-4.0497
21
5.91442
0
LINE
8
BLACK
6
CONTINUOUS
10
-4.0497
20
5.91442
11
-4.04032
21
5.91442
0
LINE
8
BLACK
6
CONTINUOUS
10
-4.04032
20
5.91442
11
-4.03931
21
5.91424
0
LINE
8
BLACK
6
CONTINUOUS
10
-4.06993
20
5.91336
11
-4.06924
21
5.91146
0
LINE
8
BLACK
6
CONTINUOUS
10
-4.06924
20
5.91146
11
-4.06924
21
5.87772
0
LINE
8
BLACK
6
CONTINUOUS
10
-4.06924
20
5.87772
11
-4.06942
21
5.87671
0
LINE
8
BLACK
6
CONTINUOUS
10
-4.06942
20
5.87671
11
-4.06953
21
5.87657
0
LINE
8
BLACK
6
CONTINUOUS
10
-4.06953
20
5.87657
11
-4.06955
21
5.8764
0
LINE
8
BLACK
6
CONTINUOUS
10
-4.06955
20
5.8764
11
-4.07143
21
5.87265
0
LINE
8
BLACK
6
CONTINUOUS
10
-4.07143
20
5.87265
11
-4.07204
21
5.87182
0
LINE
8
BLACK
6
CONTINUOUS
10
-4.07204
20
5.87182
11
-4.07244
21
5.87165
0
LINE
8
BLACK
6
CONTINUOUS
10
-4.07244
20
5.87165
11
-4.07275
21
5.87133
0
LINE
8
BLACK
6
CONTINUOUS
10
-4.07275
20
5.87133
11
-4.0765
21
5.86945
0
LINE
8
BLACK
6
CONTINUOUS
10
-4.0765
20
5.86945
11
-4.07748
21
5.86916
0
LINE
8
BLACK
6
CONTINUOUS
10
-4.07748
20
5.86916
11
-4.07944
21
5.86963
0
LINE
8
BLACK
6
CONTINUOUS
10
-4.07944
20
5.86963
11
-4.08065
21
5.87125
0
LINE
8
BLACK
6
CONTINUOUS
10
-4.08065
20
5.87125
11
-4.08053
21
5.87327
0
LINE
8
BLACK
6
CONTINUOUS
10
-4.08053
20
5.87327
11
-4.07914
21
5.87473
0
LINE
8
BLACK
6
CONTINUOUS
10
-4.07914
20
5.87473
11
-4.07627
21
5.87617
0
LINE
8
BLACK
6
CONTINUOUS
10
-4.07627
20
5.87617
11
-4.07515
21
5.87842
0
LINE
8
BLACK
6
CONTINUOUS
10
-4.07515
20
5.87842
11
-4.07515
21
5.91146
0
LINE
8
BLACK
6
CONTINUOUS
10
-4.07515
20
5.91146
11
-4.07497
21
5.91247
0
LINE
8
BLACK
6
CONTINUOUS
10
-4.07497
20
5.91247
11
-4.07367
21
5.91402
0
LINE
8
BLACK
6
CONTINUOUS
10
-4.07367
20
5.91402
11
-4.07168
21
5.91437
0
LINE
8
BLACK
6
CONTINUOUS
10
-4.07168
20
5.91437
11
-4.06993
21
5.91336
0
LINE
8
BLACK
6
CONTINUOUS
10
-4.14194
20
5.90089
11
-4.14065
21
5.89933
0
LINE
8
BLACK
6
CONTINUOUS
10
-4.14065
20
5.89933
11
-4.13406
21
5.88087
0
LINE
8
BLACK
6
CONTINUOUS
10
-4.13406
20
5.88087
11
-4.12747
21
5.89933
0
LINE
8
BLACK
6
CONTINUOUS
10
-4.12747
20
5.89933
11
-4.12696
21
5.90022
0
LINE
8
BLACK
6
CONTINUOUS
10
-4.12696
20
5.90022
11
-4.12522
21
5.90125
0
LINE
8
BLACK
6
CONTINUOUS
10
-4.12522
20
5.90125
11
-4.12323
21
5.90091
0
LINE
8
BLACK
6
CONTINUOUS
10
-4.12323
20
5.90091
11
-4.12192
21
5.89937
0
LINE
8
BLACK
6
CONTINUOUS
10
-4.12192
20
5.89937
11
-4.12191
21
5.89735
0
LINE
8
BLACK
6
CONTINUOUS
10
-4.12191
20
5.89735
11
-4.13128
21
5.8711
0
LINE
8
BLACK
6
CONTINUOUS
10
-4.13128
20
5.8711
11
-4.13179
21
5.87021
0
LINE
8
BLACK
6
CONTINUOUS
10
-4.13179
20
5.87021
11
-4.1318
21
5.8702
0
LINE
8
BLACK
6
CONTINUOUS
10
-4.1318
20
5.8702
11
-4.13181
21
5.87018
0
LINE
8
BLACK
6
CONTINUOUS
10
-4.13181
20
5.87018
11
-4.13267
21
5.86969
0
LINE
8
BLACK
6
CONTINUOUS
10
-4.13267
20
5.86969
11
-4.13353
21
5.86919
0
LINE
8
BLACK
6
CONTINUOUS
10
-4.13353
20
5.86919
11
-4.13355
21
5.86919
0
LINE
8
BLACK
6
CONTINUOUS
10
-4.13355
20
5.86919
11
-4.13357
21
5.86918
0
LINE
8
BLACK
6
CONTINUOUS
10
-4.13357
20
5.86918
11
-4.13454
21
5.86936
0
LINE
8
BLACK
6
CONTINUOUS
10
-4.13454
20
5.86936
11
-4.13552
21
5.86953
0
LINE
8
BLACK
6
CONTINUOUS
10
-4.13552
20
5.86953
11
-4.13553
21
5.86954
0
LINE
8
BLACK
6
CONTINUOUS
10
-4.13553
20
5.86954
11
-4.13555
21
5.86955
0
LINE
8
BLACK
6
CONTINUOUS
10
-4.13555
20
5.86955
11
-4.13619
21
5.87031
0
LINE
8
BLACK
6
CONTINUOUS
10
-4.13619
20
5.87031
11
-4.13683
21
5.87107
0
LINE
8
BLACK
6
CONTINUOUS
10
-4.13683
20
5.87107
11
-4.13683
21
5.87109
0
LINE
8
BLACK
6
CONTINUOUS
10
-4.13683
20
5.87109
11
-4.13684
21
5.8711
0
LINE
8
BLACK
6
CONTINUOUS
10
-4.13684
20
5.8711
11
-4.14622
21
5.89735
0
LINE
8
BLACK
6
CONTINUOUS
10
-4.14622
20
5.89735
11
-4.14639
21
5.89836
0
LINE
8
BLACK
6
CONTINUOUS
10
-4.14639
20
5.89836
11
-4.14569
21
5.90025
0
LINE
8
BLACK
6
CONTINUOUS
10
-4.14569
20
5.90025
11
-4.14393
21
5.90125
0
LINE
8
BLACK
6
CONTINUOUS
10
-4.14393
20
5.90125
11
-4.14194
21
5.90089
0
LINE
8
BLACK
6
CONTINUOUS
10
-4.96304
20
5.90112
11
-4.96291
21
5.901
0
LINE
8
BLACK
6
CONTINUOUS
10
-4.96291
20
5.901
11
-4.96273
21
5.90098
0
LINE
8
BLACK
6
CONTINUOUS
10
-4.96273
20
5.90098
11
-4.95934
21
5.89929
0
LINE
8
BLACK
6
CONTINUOUS
10
-4.95934
20
5.89929
11
-4.95933
21
5.89935
0
LINE
8
BLACK
6
CONTINUOUS
10
-4.95933
20
5.89935
11
-4.95803
21
5.9009
0
LINE
8
BLACK
6
CONTINUOUS
10
-4.95803
20
5.9009
11
-4.95604
21
5.90125
0
LINE
8
BLACK
6
CONTINUOUS
10
-4.95604
20
5.90125
11
-4.95429
21
5.90024
0
LINE
8
BLACK
6
CONTINUOUS
10
-4.95429
20
5.90024
11
-4.9536
21
5.89834
0
LINE
8
BLACK
6
CONTINUOUS
10
-4.9536
20
5.89834
11
-4.9536
21
5.87209
0
LINE
8
BLACK
6
CONTINUOUS
10
-4.9536
20
5.87209
11
-4.95378
21
5.87108
0
LINE
8
BLACK
6
CONTINUOUS
10
-4.95378
20
5.87108
11
-4.95508
21
5.86954
0
LINE
8
BLACK
6
CONTINUOUS
10
-4.95508
20
5.86954
11
-4.95707
21
5.86919
0
LINE
8
BLACK
6
CONTINUOUS
10
-4.95707
20
5.86919
11
-4.95881
21
5.8702
0
LINE
8
BLACK
6
CONTINUOUS
10
-4.95881
20
5.8702
11
-4.95951
21
5.87209
0
LINE
8
BLACK
6
CONTINUOUS
10
-4.95951
20
5.87209
11
-4.95951
21
5.89014
0
LINE
8
BLACK
6
CONTINUOUS
10
-4.95951
20
5.89014
11
-4.96085
21
5.89284
0
LINE
8
BLACK
6
CONTINUOUS
10
-4.96085
20
5.89284
11
-4.96205
21
5.89404
0
LINE
8
BLACK
6
CONTINUOUS
10
-4.96205
20
5.89404
11
-4.96475
21
5.89539
0
LINE
8
BLACK
6
CONTINUOUS
10
-4.96475
20
5.89539
11
-4.9678
21
5.89539
0
LINE
8
BLACK
6
CONTINUOUS
10
-4.9678
20
5.89539
11
-4.96881
21
5.89557
0
LINE
8
BLACK
6
CONTINUOUS
10
-4.96881
20
5.89557
11
-4.97036
21
5.89686
0
LINE
8
BLACK
6
CONTINUOUS
10
-4.97036
20
5.89686
11
-4.97071
21
5.89885
0
LINE
8
BLACK
6
CONTINUOUS
10
-4.97071
20
5.89885
11
-4.9697
21
5.9006
0
LINE
8
BLACK
6
CONTINUOUS
10
-4.9697
20
5.9006
11
-4.9678
21
5.90129
0
LINE
8
BLACK
6
CONTINUOUS
10
-4.9678
20
5.90129
11
-4.96405
21
5.90129
0
LINE
8
BLACK
6
CONTINUOUS
10
-4.96405
20
5.90129
11
-4.96304
21
5.90112
0
LINE
8
BLACK
6
CONTINUOUS
10
-4.7877
20
5.9143
11
-4.78731
21
5.91437
0
LINE
8
BLACK
6
CONTINUOUS
10
-4.78731
20
5.91437
11
-4.78675
21
5.91405
0
LINE
8
BLACK
6
CONTINUOUS
10
-4.78675
20
5.91405
11
-4.78613
21
5.91388
0
LINE
8
BLACK
6
CONTINUOUS
10
-4.78613
20
5.91388
11
-4.7859
21
5.91356
0
LINE
8
BLACK
6
CONTINUOUS
10
-4.7859
20
5.91356
11
-4.78556
21
5.91336
0
LINE
8
BLACK
6
CONTINUOUS
10
-4.78556
20
5.91336
11
-4.78534
21
5.91276
0
LINE
8
BLACK
6
CONTINUOUS
10
-4.78534
20
5.91276
11
-4.78497
21
5.91223
0
LINE
8
BLACK
6
CONTINUOUS
10
-4.78497
20
5.91223
11
-4.78501
21
5.91183
0
LINE
8
BLACK
6
CONTINUOUS
10
-4.78501
20
5.91183
11
-4.78487
21
5.91146
0
LINE
8
BLACK
6
CONTINUOUS
10
-4.78487
20
5.91146
11
-4.78487
21
5.87209
0
LINE
8
BLACK
6
CONTINUOUS
10
-4.78487
20
5.87209
11
-4.78505
21
5.87108
0
LINE
8
BLACK
6
CONTINUOUS
10
-4.78505
20
5.87108
11
-4.78635
21
5.86954
0
LINE
8
BLACK
6
CONTINUOUS
10
-4.78635
20
5.86954
11
-4.78834
21
5.86919
0
LINE
8
BLACK
6
CONTINUOUS
10
-4.78834
20
5.86919
11
-4.79009
21
5.8702
0
LINE
8
BLACK
6
CONTINUOUS
10
-4.79009
20
5.8702
11
-4.79078
21
5.87209
0
LINE
8
BLACK
6
CONTINUOUS
10
-4.79078
20
5.87209
11
-4.79078
21
5.89815
0
LINE
8
BLACK
6
CONTINUOUS
10
-4.79078
20
5.89815
11
-4.79827
21
5.88209
0
LINE
8
BLACK
6
CONTINUOUS
10
-4.79827
20
5.88209
11
-4.79849
21
5.88178
0
LINE
8
BLACK
6
CONTINUOUS
10
-4.79849
20
5.88178
11
-4.79853
21
5.88165
0
LINE
8
BLACK
6
CONTINUOUS
10
-4.79853
20
5.88165
11
-4.79864
21
5.88157
0
LINE
8
BLACK
6
CONTINUOUS
10
-4.79864
20
5.88157
11
-4.79886
21
5.88125
0
LINE
8
BLACK
6
CONTINUOUS
10
-4.79886
20
5.88125
11
-4.79955
21
5.88093
0
LINE
8
BLACK
6
CONTINUOUS
10
-4.79955
20
5.88093
11
-4.80018
21
5.88049
0
LINE
8
BLACK
6
CONTINUOUS
10
-4.80018
20
5.88049
11
-4.80045
21
5.88051
0
LINE
8
BLACK
6
CONTINUOUS
10
-4.80045
20
5.88051
11
-4.80069
21
5.8804
0
LINE
8
BLACK
6
CONTINUOUS
10
-4.80069
20
5.8804
11
-4.80143
21
5.8806
0
LINE
8
BLACK
6
CONTINUOUS
10
-4.80143
20
5.8806
11
-4.80219
21
5.88067
0
LINE
8
BLACK
6
CONTINUOUS
10
-4.80219
20
5.88067
11
-4.80238
21
5.88085
0
LINE
8
BLACK
6
CONTINUOUS
10
-4.80238
20
5.88085
11
-4.80264
21
5.88092
0
LINE
8
BLACK
6
CONTINUOUS
10
-4.80264
20
5.88092
11
-4.80308
21
5.88155
0
LINE
8
BLACK
6
CONTINUOUS
10
-4.80308
20
5.88155
11
-4.80362
21
5.88209
0
LINE
8
BLACK
6
CONTINUOUS
10
-4.80362
20
5.88209
11
-4.81112
21
5.89815
0
LINE
8
BLACK
6
CONTINUOUS
10
-4.81112
20
5.89815
11
-4.81112
21
5.87209
0
LINE
8
BLACK
6
CONTINUOUS
10
-4.81112
20
5.87209
11
-4.8113
21
5.87108
0
LINE
8
BLACK
6
CONTINUOUS
10
-4.8113
20
5.87108
11
-4.81259
21
5.86954
0
LINE
8
BLACK
6
CONTINUOUS
10
-4.81259
20
5.86954
11
-4.81458
21
5.86919
0
LINE
8
BLACK
6
CONTINUOUS
10
-4.81458
20
5.86919
11
-4.81633
21
5.8702
0
LINE
8
BLACK
6
CONTINUOUS
10
-4.81633
20
5.8702
11
-4.81702
21
5.87209
0
LINE
8
BLACK
6
CONTINUOUS
10
-4.81702
20
5.87209
11
-4.81702
21
5.91146
0
LINE
8
BLACK
6
CONTINUOUS
10
-4.81702
20
5.91146
11
-4.81684
21
5.91247
0
LINE
8
BLACK
6
CONTINUOUS
10
-4.81684
20
5.91247
11
-4.81659
21
5.91278
0
LINE
8
BLACK
6
CONTINUOUS
10
-4.81659
20
5.91278
11
-4.81649
21
5.91316
0
LINE
8
BLACK
6
CONTINUOUS
10
-4.81649
20
5.91316
11
-4.81596
21
5.91353
0
LINE
8
BLACK
6
CONTINUOUS
10
-4.81596
20
5.91353
11
-4.81555
21
5.91402
0
LINE
8
BLACK
6
CONTINUOUS
10
-4.81555
20
5.91402
11
-4.81516
21
5.91409
0
LINE
8
BLACK
6
CONTINUOUS
10
-4.81516
20
5.91409
11
-4.81484
21
5.91432
0
LINE
8
BLACK
6
CONTINUOUS
10
-4.81484
20
5.91432
11
-4.81419
21
5.91426
0
LINE
8
BLACK
6
CONTINUOUS
10
-4.81419
20
5.91426
11
-4.81356
21
5.91437
0
LINE
8
BLACK
6
CONTINUOUS
10
-4.81356
20
5.91437
11
-4.81322
21
5.91417
0
LINE
8
BLACK
6
CONTINUOUS
10
-4.81322
20
5.91417
11
-4.81282
21
5.91414
0
LINE
8
BLACK
6
CONTINUOUS
10
-4.81282
20
5.91414
11
-4.81237
21
5.91368
0
LINE
8
BLACK
6
CONTINUOUS
10
-4.81237
20
5.91368
11
-4.81181
21
5.91336
0
LINE
8
BLACK
6
CONTINUOUS
10
-4.81181
20
5.91336
11
-4.81167
21
5.91299
0
LINE
8
BLACK
6
CONTINUOUS
10
-4.81167
20
5.91299
11
-4.81139
21
5.91271
0
LINE
8
BLACK
6
CONTINUOUS
10
-4.81139
20
5.91271
11
-4.80095
21
5.89032
0
LINE
8
BLACK
6
CONTINUOUS
10
-4.80095
20
5.89032
11
-4.7905
21
5.91271
0
LINE
8
BLACK
6
CONTINUOUS
10
-4.7905
20
5.91271
11
-4.78991
21
5.91355
0
LINE
8
BLACK
6
CONTINUOUS
10
-4.78991
20
5.91355
11
-4.78955
21
5.91372
0
LINE
8
BLACK
6
CONTINUOUS
10
-4.78955
20
5.91372
11
-4.7893
21
5.91402
0
LINE
8
BLACK
6
CONTINUOUS
10
-4.7893
20
5.91402
11
-4.78866
21
5.91413
0
LINE
8
BLACK
6
CONTINUOUS
10
-4.78866
20
5.91413
11
-4.78808
21
5.91441
0
LINE
8
BLACK
6
CONTINUOUS
10
-4.78808
20
5.91441
11
-4.7877
21
5.9143
0
LINE
8
BLACK
6
CONTINUOUS
10
-4.4089
20
5.89501
11
-4.40821
21
5.89334
0
LINE
8
BLACK
6
CONTINUOUS
10
-4.40821
20
5.89334
11
-4.40821
21
5.87466
0
LINE
8
BLACK
6
CONTINUOUS
10
-4.40821
20
5.87466
11
-4.4089
21
5.87298
0
LINE
8
BLACK
6
CONTINUOUS
10
-4.4089
20
5.87298
11
-4.41057
21
5.87229
0
LINE
8
BLACK
6
CONTINUOUS
10
-4.41057
20
5.87229
11
-4.41224
21
5.87298
0
LINE
8
BLACK
6
CONTINUOUS
10
-4.41224
20
5.87298
11
-4.41293
21
5.87466
0
LINE
8
BLACK
6
CONTINUOUS
10
-4.41293
20
5.87466
11
-4.41293
21
5.89334
0
LINE
8
BLACK
6
CONTINUOUS
10
-4.41293
20
5.89334
11
-4.41224
21
5.89501
0
LINE
8
BLACK
6
CONTINUOUS
10
-4.41224
20
5.89501
11
-4.41057
21
5.8957
0
LINE
8
BLACK
6
CONTINUOUS
10
-4.41057
20
5.8957
11
-4.4089
21
5.89501
0
LINE
8
BLACK
6
CONTINUOUS
10
-4.36776
20
5.89501
11
-4.36707
21
5.89334
0
LINE
8
BLACK
6
CONTINUOUS
10
-4.36707
20
5.89334
11
-4.36707
21
5.87466
0
LINE
8
BLACK
6
CONTINUOUS
10
-4.36707
20
5.87466
11
-4.36776
21
5.87298
0
LINE
8
BLACK
6
CONTINUOUS
10
-4.36776
20
5.87298
11
-4.36943
21
5.87229
0
LINE
8
BLACK
6
CONTINUOUS
10
-4.36943
20
5.87229
11
-4.3711
21
5.87298
0
LINE
8
BLACK
6
CONTINUOUS
10
-4.3711
20
5.87298
11
-4.37179
21
5.87466
0
LINE
8
BLACK
6
CONTINUOUS
10
-4.37179
20
5.87466
11
-4.37179
21
5.89334
0
LINE
8
BLACK
6
CONTINUOUS
10
-4.37179
20
5.89334
11
-4.3711
21
5.89501
0
LINE
8
BLACK
6
CONTINUOUS
10
-4.3711
20
5.89501
11
-4.36943
21
5.8957
0
LINE
8
BLACK
6
CONTINUOUS
10
-4.36943
20
5.8957
11
-4.36776
21
5.89501
0
LINE
8
BLACK
6
CONTINUOUS
10
-4.3289
20
5.89501
11
-4.32821
21
5.89334
0
LINE
8
BLACK
6
CONTINUOUS
10
-4.32821
20
5.89334
11
-4.32821
21
5.87466
0
LINE
8
BLACK
6
CONTINUOUS
10
-4.32821
20
5.87466
11
-4.3289
21
5.87298
0
LINE
8
BLACK
6
CONTINUOUS
10
-4.3289
20
5.87298
11
-4.33057
21
5.87229
0
LINE
8
BLACK
6
CONTINUOUS
10
-4.33057
20
5.87229
11
-4.33224
21
5.87298
0
LINE
8
BLACK
6
CONTINUOUS
10
-4.33224
20
5.87298
11
-4.33293
21
5.87466
0
LINE
8
BLACK
6
CONTINUOUS
10
-4.33293
20
5.87466
11
-4.33293
21
5.89334
0
LINE
8
BLACK
6
CONTINUOUS
10
-4.33293
20
5.89334
11
-4.33224
21
5.89501
0
LINE
8
BLACK
6
CONTINUOUS
10
-4.33224
20
5.89501
11
-4.33057
21
5.8957
0
LINE
8
BLACK
6
CONTINUOUS
10
-4.33057
20
5.8957
11
-4.3289
21
5.89501
0
LINE
8
BLACK
6
CONTINUOUS
10
-4.28776
20
5.89501
11
-4.28707
21
5.89334
0
LINE
8
BLACK
6
CONTINUOUS
10
-4.28707
20
5.89334
11
-4.28707
21
5.87466
0
LINE
8
BLACK
6
CONTINUOUS
10
-4.28707
20
5.87466
11
-4.28776
21
5.87298
0
LINE
8
BLACK
6
CONTINUOUS
10
-4.28776
20
5.87298
11
-4.28943
21
5.87229
0
LINE
8
BLACK
6
CONTINUOUS
10
-4.28943
20
5.87229
11
-4.2911
21
5.87298
0
LINE
8
BLACK
6
CONTINUOUS
10
-4.2911
20
5.87298
11
-4.29179
21
5.87466
0
LINE
8
BLACK
6
CONTINUOUS
10
-4.29179
20
5.87466
11
-4.29179
21
5.89334
0
LINE
8
BLACK
6
CONTINUOUS
10
-4.29179
20
5.89334
11
-4.2911
21
5.89501
0
LINE
8
BLACK
6
CONTINUOUS
10
-4.2911
20
5.89501
11
-4.28943
21
5.8957
0
LINE
8
BLACK
6
CONTINUOUS
10
-4.28943
20
5.8957
11
-4.28776
21
5.89501
0
LINE
8
BLACK
6
CONTINUOUS
10
-4.47798
20
5.91224
11
-4.47729
21
5.91057
0
LINE
8
BLACK
6
CONTINUOUS
10
-4.47729
20
5.91057
11
-4.47798
21
5.9089
0
LINE
8
BLACK
6
CONTINUOUS
10
-4.47798
20
5.9089
11
-4.47966
21
5.90821
0
LINE
8
BLACK
6
CONTINUOUS
10
-4.47966
20
5.90821
11
-4.49834
21
5.90821
0
LINE
8
BLACK
6
CONTINUOUS
10
-4.49834
20
5.90821
11
-4.50001
21
5.9089
0
LINE
8
BLACK
6
CONTINUOUS
10
-4.50001
20
5.9089
11
-4.5007
21
5.91057
0
LINE
8
BLACK
6
CONTINUOUS
10
-4.5007
20
5.91057
11
-4.50001
21
5.91224
0
LINE
8
BLACK
6
CONTINUOUS
10
-4.50001
20
5.91224
11
-4.49834
21
5.91293
0
LINE
8
BLACK
6
CONTINUOUS
10
-4.49834
20
5.91293
11
-4.47966
21
5.91293
0
LINE
8
BLACK
6
CONTINUOUS
10
-4.47966
20
5.91293
11
-4.47798
21
5.91224
0
CIRCLE
8
BLACK
10
-4.89157
20
5.39
40
0.00688976
0
CIRCLE
8
BLACK
10
-4.89157
20
5.98055
40
0.00688976
0
CIRCLE
8
BLACK
10
-4.10417
20
5.98055
40
0.00688976
0
CIRCLE
8
BLACK
10
-4.49787
20
5.98055
40
0.00688976
0
CIRCLE
8
BLACK
10
-4.10417
20
5.39
40
0.00688976
0
CIRCLE
8
BLACK
10
-4.49787
20
5.39
40
0.00688976
  0
ENDSEC
  0
EOF
