  0
SECTION
  2
HEADER
  9
$ANGBASE
  50
0.0
  9
$ANGDIR
  70
1
  9
$MEASUREMENT
  70
0
  0
ENDSEC
  0
SECTION
  2
TABLES
  0
TABLE
  2
LTYPE
  70
4
  0
LTYPE
  5
40F
  2
CONTINUOUS
  70
0
  3
Solid line
  72
65
  73
0
  40
0.0
  0
LTYPE
  5
410
  2
DASHDOT
 70
0
  3
Dash Dot ____ _ ____ _
 72
65
 73
4
 40
2.0
 49
1.25
 49
-0.25
 49
0.25
 49
-0.25
  0
LTYPE
  5
411
  2
DASHED
 70
0
  3
Dashed __ __ __ __ __
 72
65
 73
2
 40
0.75
 49
0.5
 49
-0.25
  0
LTYPE
  5
43B
  2
DOTTED
 70
0
  3
Dotted .  .  .  .
 72
65
 73
2
 40
0.2
 49
0.0
 49
-0.2
  0
ENDTAB
  0
TABLE
  2
STYLE
  70
4
  0
STYLE
  2
KICAD
  70
0
  40
0
  41
1
  42
1
  50
0
  71
0
  3
isocp.shx
  0
STYLE
  2
KICADB
  70
0
  40
0
  41
1
  42
1
  50
0
  71
0
  3
isocp.shx
  0
STYLE
  2
KICADI
  70
0
  40
0
  41
1
  42
1
  50
15
  71
0
  3
isocp.shx
  0
STYLE
  2
KICADBI
  70
0
  40
0
  41
1
  42
1
  50
15
  71
0
  3
isocp.shx
  0
ENDTAB
  0
TABLE
  2
LAYER
  70
1
  0
LAYER
  2
BLACK
  70
0
  62
7
  6
CONTINUOUS
  0
ENDTAB
  0
ENDSEC
  0
SECTION
  2
ENTITIES
0
LINE
8
BLACK
6
CONTINUOUS
10
-4.88584
20
5.55756
11
-4.88265
21
5.55542
0
LINE
8
BLACK
6
CONTINUOUS
10
-4.88265
20
5.55542
11
-4.88051
21
5.55223
0
LINE
8
BLACK
6
CONTINUOUS
10
-4.88051
20
5.55223
11
-4.87976
21
5.54846
0
LINE
8
BLACK
6
CONTINUOUS
10
-4.87976
20
5.54846
11
-4.87976
21
5.52878
0
LINE
8
BLACK
6
CONTINUOUS
10
-4.87976
20
5.52878
11
-4.88051
21
5.52501
0
LINE
8
BLACK
6
CONTINUOUS
10
-4.88051
20
5.52501
11
-4.88265
21
5.52182
0
LINE
8
BLACK
6
CONTINUOUS
10
-4.88265
20
5.52182
11
-4.88584
21
5.51969
0
LINE
8
BLACK
6
CONTINUOUS
10
-4.88584
20
5.51969
11
-4.88961
21
5.51894
0
LINE
8
BLACK
6
CONTINUOUS
10
-4.88961
20
5.51894
11
-4.97622
21
5.51894
0
LINE
8
BLACK
6
CONTINUOUS
10
-4.97622
20
5.51894
11
-4.97999
21
5.51969
0
LINE
8
BLACK
6
CONTINUOUS
10
-4.97999
20
5.51969
11
-4.98318
21
5.52182
0
LINE
8
BLACK
6
CONTINUOUS
10
-4.98318
20
5.52182
11
-4.98531
21
5.52501
0
LINE
8
BLACK
6
CONTINUOUS
10
-4.98531
20
5.52501
11
-4.98606
21
5.52878
0
LINE
8
BLACK
6
CONTINUOUS
10
-4.98606
20
5.52878
11
-4.98606
21
5.54846
0
LINE
8
BLACK
6
CONTINUOUS
10
-4.98606
20
5.54846
11
-4.98531
21
5.55223
0
LINE
8
BLACK
6
CONTINUOUS
10
-4.98531
20
5.55223
11
-4.98318
21
5.55542
0
LINE
8
BLACK
6
CONTINUOUS
10
-4.98318
20
5.55542
11
-4.97999
21
5.55756
0
LINE
8
BLACK
6
CONTINUOUS
10
-4.97999
20
5.55756
11
-4.97622
21
5.55831
0
LINE
8
BLACK
6
CONTINUOUS
10
-4.97622
20
5.55831
11
-4.88961
21
5.55831
0
LINE
8
BLACK
6
CONTINUOUS
10
-4.88961
20
5.55831
11
-4.88584
21
5.55756
0
LINE
8
BLACK
6
CONTINUOUS
10
-4.01576
20
5.55756
11
-4.01257
21
5.55542
0
LINE
8
BLACK
6
CONTINUOUS
10
-4.01257
20
5.55542
11
-4.01043
21
5.55223
0
LINE
8
BLACK
6
CONTINUOUS
10
-4.01043
20
5.55223
11
-4.00969
21
5.54846
0
LINE
8
BLACK
6
CONTINUOUS
10
-4.00969
20
5.54846
11
-4.00969
21
5.52878
0
LINE
8
BLACK
6
CONTINUOUS
10
-4.00969
20
5.52878
11
-4.01043
21
5.52501
0
LINE
8
BLACK
6
CONTINUOUS
10
-4.01043
20
5.52501
11
-4.01257
21
5.52182
0
LINE
8
BLACK
6
CONTINUOUS
10
-4.01257
20
5.52182
11
-4.01576
21
5.51969
0
LINE
8
BLACK
6
CONTINUOUS
10
-4.01576
20
5.51969
11
-4.01953
21
5.51894
0
LINE
8
BLACK
6
CONTINUOUS
10
-4.01953
20
5.51894
11
-4.10614
21
5.51894
0
LINE
8
BLACK
6
CONTINUOUS
10
-4.10614
20
5.51894
11
-4.10991
21
5.51969
0
LINE
8
BLACK
6
CONTINUOUS
10
-4.10991
20
5.51969
11
-4.1131
21
5.52182
0
LINE
8
BLACK
6
CONTINUOUS
10
-4.1131
20
5.52182
11
-4.11524
21
5.52501
0
LINE
8
BLACK
6
CONTINUOUS
10
-4.11524
20
5.52501
11
-4.11598
21
5.52878
0
LINE
8
BLACK
6
CONTINUOUS
10
-4.11598
20
5.52878
11
-4.11598
21
5.54846
0
LINE
8
BLACK
6
CONTINUOUS
10
-4.11598
20
5.54846
11
-4.11524
21
5.55223
0
LINE
8
BLACK
6
CONTINUOUS
10
-4.11524
20
5.55223
11
-4.1131
21
5.55542
0
LINE
8
BLACK
6
CONTINUOUS
10
-4.1131
20
5.55542
11
-4.10991
21
5.55756
0
LINE
8
BLACK
6
CONTINUOUS
10
-4.10991
20
5.55756
11
-4.10614
21
5.55831
0
LINE
8
BLACK
6
CONTINUOUS
10
-4.10614
20
5.55831
11
-4.01953
21
5.55831
0
LINE
8
BLACK
6
CONTINUOUS
10
-4.01953
20
5.55831
11
-4.01576
21
5.55756
0
LINE
8
BLACK
6
CONTINUOUS
10
-4.77711
20
5.62282
11
-4.77519
21
5.62154
0
LINE
8
BLACK
6
CONTINUOUS
10
-4.77519
20
5.62154
11
-4.77391
21
5.61962
0
LINE
8
BLACK
6
CONTINUOUS
10
-4.77391
20
5.61962
11
-4.77346
21
5.61736
0
LINE
8
BLACK
6
CONTINUOUS
10
-4.77346
20
5.61736
11
-4.77346
21
5.60555
0
LINE
8
BLACK
6
CONTINUOUS
10
-4.77346
20
5.60555
11
-4.77391
21
5.60329
0
LINE
8
BLACK
6
CONTINUOUS
10
-4.77391
20
5.60329
11
-4.77519
21
5.60138
0
LINE
8
BLACK
6
CONTINUOUS
10
-4.77519
20
5.60138
11
-4.77711
21
5.6001
0
LINE
8
BLACK
6
CONTINUOUS
10
-4.77711
20
5.6001
11
-4.77937
21
5.59965
0
LINE
8
BLACK
6
CONTINUOUS
10
-4.77937
20
5.59965
11
-4.83449
21
5.59965
0
LINE
8
BLACK
6
CONTINUOUS
10
-4.83449
20
5.59965
11
-4.83675
21
5.6001
0
LINE
8
BLACK
6
CONTINUOUS
10
-4.83675
20
5.6001
11
-4.83866
21
5.60138
0
LINE
8
BLACK
6
CONTINUOUS
10
-4.83866
20
5.60138
11
-4.83994
21
5.60329
0
LINE
8
BLACK
6
CONTINUOUS
10
-4.83994
20
5.60329
11
-4.84039
21
5.60555
0
LINE
8
BLACK
6
CONTINUOUS
10
-4.84039
20
5.60555
11
-4.84039
21
5.61736
0
LINE
8
BLACK
6
CONTINUOUS
10
-4.84039
20
5.61736
11
-4.83994
21
5.61962
0
LINE
8
BLACK
6
CONTINUOUS
10
-4.83994
20
5.61962
11
-4.83866
21
5.62154
0
LINE
8
BLACK
6
CONTINUOUS
10
-4.83866
20
5.62154
11
-4.83675
21
5.62282
0
LINE
8
BLACK
6
CONTINUOUS
10
-4.83675
20
5.62282
11
-4.83449
21
5.62327
0
LINE
8
BLACK
6
CONTINUOUS
10
-4.83449
20
5.62327
11
-4.77937
21
5.62327
0
LINE
8
BLACK
6
CONTINUOUS
10
-4.77937
20
5.62327
11
-4.77711
21
5.62282
0
LINE
8
BLACK
6
CONTINUOUS
10
-4.159
20
5.62282
11
-4.15708
21
5.62154
0
LINE
8
BLACK
6
CONTINUOUS
10
-4.15708
20
5.62154
11
-4.1558
21
5.61962
0
LINE
8
BLACK
6
CONTINUOUS
10
-4.1558
20
5.61962
11
-4.15535
21
5.61736
0
LINE
8
BLACK
6
CONTINUOUS
10
-4.15535
20
5.61736
11
-4.15535
21
5.60555
0
LINE
8
BLACK
6
CONTINUOUS
10
-4.15535
20
5.60555
11
-4.1558
21
5.60329
0
LINE
8
BLACK
6
CONTINUOUS
10
-4.1558
20
5.60329
11
-4.15708
21
5.60138
0
LINE
8
BLACK
6
CONTINUOUS
10
-4.15708
20
5.60138
11
-4.159
21
5.6001
0
LINE
8
BLACK
6
CONTINUOUS
10
-4.159
20
5.6001
11
-4.16126
21
5.59965
0
LINE
8
BLACK
6
CONTINUOUS
10
-4.16126
20
5.59965
11
-4.21638
21
5.59965
0
LINE
8
BLACK
6
CONTINUOUS
10
-4.21638
20
5.59965
11
-4.21864
21
5.6001
0
LINE
8
BLACK
6
CONTINUOUS
10
-4.21864
20
5.6001
11
-4.22055
21
5.60138
0
LINE
8
BLACK
6
CONTINUOUS
10
-4.22055
20
5.60138
11
-4.22183
21
5.60329
0
LINE
8
BLACK
6
CONTINUOUS
10
-4.22183
20
5.60329
11
-4.22228
21
5.60555
0
LINE
8
BLACK
6
CONTINUOUS
10
-4.22228
20
5.60555
11
-4.22228
21
5.61736
0
LINE
8
BLACK
6
CONTINUOUS
10
-4.22228
20
5.61736
11
-4.22183
21
5.61962
0
LINE
8
BLACK
6
CONTINUOUS
10
-4.22183
20
5.61962
11
-4.22055
21
5.62154
0
LINE
8
BLACK
6
CONTINUOUS
10
-4.22055
20
5.62154
11
-4.21864
21
5.62282
0
LINE
8
BLACK
6
CONTINUOUS
10
-4.21864
20
5.62282
11
-4.21638
21
5.62327
0
LINE
8
BLACK
6
CONTINUOUS
10
-4.21638
20
5.62327
11
-4.16126
21
5.62327
0
LINE
8
BLACK
6
CONTINUOUS
10
-4.16126
20
5.62327
11
-4.159
21
5.62282
0
LINE
8
BLACK
6
CONTINUOUS
10
-4.77711
20
5.67203
11
-4.77519
21
5.67075
0
LINE
8
BLACK
6
CONTINUOUS
10
-4.77519
20
5.67075
11
-4.77391
21
5.66883
0
LINE
8
BLACK
6
CONTINUOUS
10
-4.77391
20
5.66883
11
-4.77346
21
5.66657
0
LINE
8
BLACK
6
CONTINUOUS
10
-4.77346
20
5.66657
11
-4.77346
21
5.65476
0
LINE
8
BLACK
6
CONTINUOUS
10
-4.77346
20
5.65476
11
-4.77391
21
5.6525
0
LINE
8
BLACK
6
CONTINUOUS
10
-4.77391
20
5.6525
11
-4.77519
21
5.65059
0
LINE
8
BLACK
6
CONTINUOUS
10
-4.77519
20
5.65059
11
-4.77711
21
5.64931
0
LINE
8
BLACK
6
CONTINUOUS
10
-4.77711
20
5.64931
11
-4.77937
21
5.64886
0
LINE
8
BLACK
6
CONTINUOUS
10
-4.77937
20
5.64886
11
-4.83449
21
5.64886
0
LINE
8
BLACK
6
CONTINUOUS
10
-4.83449
20
5.64886
11
-4.83675
21
5.64931
0
LINE
8
BLACK
6
CONTINUOUS
10
-4.83675
20
5.64931
11
-4.83866
21
5.65059
0
LINE
8
BLACK
6
CONTINUOUS
10
-4.83866
20
5.65059
11
-4.83994
21
5.6525
0
LINE
8
BLACK
6
CONTINUOUS
10
-4.83994
20
5.6525
11
-4.84039
21
5.65476
0
LINE
8
BLACK
6
CONTINUOUS
10
-4.84039
20
5.65476
11
-4.84039
21
5.66657
0
LINE
8
BLACK
6
CONTINUOUS
10
-4.84039
20
5.66657
11
-4.83994
21
5.66883
0
LINE
8
BLACK
6
CONTINUOUS
10
-4.83994
20
5.66883
11
-4.83866
21
5.67075
0
LINE
8
BLACK
6
CONTINUOUS
10
-4.83866
20
5.67075
11
-4.83675
21
5.67203
0
LINE
8
BLACK
6
CONTINUOUS
10
-4.83675
20
5.67203
11
-4.83449
21
5.67248
0
LINE
8
BLACK
6
CONTINUOUS
10
-4.83449
20
5.67248
11
-4.77937
21
5.67248
0
LINE
8
BLACK
6
CONTINUOUS
10
-4.77937
20
5.67248
11
-4.77711
21
5.67203
0
LINE
8
BLACK
6
CONTINUOUS
10
-4.159
20
5.67203
11
-4.15708
21
5.67075
0
LINE
8
BLACK
6
CONTINUOUS
10
-4.15708
20
5.67075
11
-4.1558
21
5.66883
0
LINE
8
BLACK
6
CONTINUOUS
10
-4.1558
20
5.66883
11
-4.15535
21
5.66657
0
LINE
8
BLACK
6
CONTINUOUS
10
-4.15535
20
5.66657
11
-4.15535
21
5.65476
0
LINE
8
BLACK
6
CONTINUOUS
10
-4.15535
20
5.65476
11
-4.1558
21
5.6525
0
LINE
8
BLACK
6
CONTINUOUS
10
-4.1558
20
5.6525
11
-4.15708
21
5.65059
0
LINE
8
BLACK
6
CONTINUOUS
10
-4.15708
20
5.65059
11
-4.159
21
5.64931
0
LINE
8
BLACK
6
CONTINUOUS
10
-4.159
20
5.64931
11
-4.16126
21
5.64886
0
LINE
8
BLACK
6
CONTINUOUS
10
-4.16126
20
5.64886
11
-4.21638
21
5.64886
0
LINE
8
BLACK
6
CONTINUOUS
10
-4.21638
20
5.64886
11
-4.21864
21
5.64931
0
LINE
8
BLACK
6
CONTINUOUS
10
-4.21864
20
5.64931
11
-4.22055
21
5.65059
0
LINE
8
BLACK
6
CONTINUOUS
10
-4.22055
20
5.65059
11
-4.22183
21
5.6525
0
LINE
8
BLACK
6
CONTINUOUS
10
-4.22183
20
5.6525
11
-4.22228
21
5.65476
0
LINE
8
BLACK
6
CONTINUOUS
10
-4.22228
20
5.65476
11
-4.22228
21
5.66657
0
LINE
8
BLACK
6
CONTINUOUS
10
-4.22228
20
5.66657
11
-4.22183
21
5.66883
0
LINE
8
BLACK
6
CONTINUOUS
10
-4.22183
20
5.66883
11
-4.22055
21
5.67075
0
LINE
8
BLACK
6
CONTINUOUS
10
-4.22055
20
5.67075
11
-4.21864
21
5.67203
0
LINE
8
BLACK
6
CONTINUOUS
10
-4.21864
20
5.67203
11
-4.21638
21
5.67248
0
LINE
8
BLACK
6
CONTINUOUS
10
-4.21638
20
5.67248
11
-4.16126
21
5.67248
0
LINE
8
BLACK
6
CONTINUOUS
10
-4.16126
20
5.67248
11
-4.159
21
5.67203
0
LINE
8
BLACK
6
CONTINUOUS
10
-4.77711
20
5.72124
11
-4.77519
21
5.71996
0
LINE
8
BLACK
6
CONTINUOUS
10
-4.77519
20
5.71996
11
-4.77391
21
5.71805
0
LINE
8
BLACK
6
CONTINUOUS
10
-4.77391
20
5.71805
11
-4.77346
21
5.71579
0
LINE
8
BLACK
6
CONTINUOUS
10
-4.77346
20
5.71579
11
-4.77346
21
5.70398
0
LINE
8
BLACK
6
CONTINUOUS
10
-4.77346
20
5.70398
11
-4.77391
21
5.70172
0
LINE
8
BLACK
6
CONTINUOUS
10
-4.77391
20
5.70172
11
-4.77519
21
5.6998
0
LINE
8
BLACK
6
CONTINUOUS
10
-4.77519
20
5.6998
11
-4.77711
21
5.69852
0
LINE
8
BLACK
6
CONTINUOUS
10
-4.77711
20
5.69852
11
-4.77937
21
5.69807
0
LINE
8
BLACK
6
CONTINUOUS
10
-4.77937
20
5.69807
11
-4.83449
21
5.69807
0
LINE
8
BLACK
6
CONTINUOUS
10
-4.83449
20
5.69807
11
-4.83675
21
5.69852
0
LINE
8
BLACK
6
CONTINUOUS
10
-4.83675
20
5.69852
11
-4.83866
21
5.6998
0
LINE
8
BLACK
6
CONTINUOUS
10
-4.83866
20
5.6998
11
-4.83994
21
5.70172
0
LINE
8
BLACK
6
CONTINUOUS
10
-4.83994
20
5.70172
11
-4.84039
21
5.70398
0
LINE
8
BLACK
6
CONTINUOUS
10
-4.84039
20
5.70398
11
-4.84039
21
5.71579
0
LINE
8
BLACK
6
CONTINUOUS
10
-4.84039
20
5.71579
11
-4.83994
21
5.71805
0
LINE
8
BLACK
6
CONTINUOUS
10
-4.83994
20
5.71805
11
-4.83866
21
5.71996
0
LINE
8
BLACK
6
CONTINUOUS
10
-4.83866
20
5.71996
11
-4.83675
21
5.72124
0
LINE
8
BLACK
6
CONTINUOUS
10
-4.83675
20
5.72124
11
-4.83449
21
5.72169
0
LINE
8
BLACK
6
CONTINUOUS
10
-4.83449
20
5.72169
11
-4.77937
21
5.72169
0
LINE
8
BLACK
6
CONTINUOUS
10
-4.77937
20
5.72169
11
-4.77711
21
5.72124
0
LINE
8
BLACK
6
CONTINUOUS
10
-4.159
20
5.72124
11
-4.15708
21
5.71996
0
LINE
8
BLACK
6
CONTINUOUS
10
-4.15708
20
5.71996
11
-4.1558
21
5.71805
0
LINE
8
BLACK
6
CONTINUOUS
10
-4.1558
20
5.71805
11
-4.15535
21
5.71579
0
LINE
8
BLACK
6
CONTINUOUS
10
-4.15535
20
5.71579
11
-4.15535
21
5.70398
0
LINE
8
BLACK
6
CONTINUOUS
10
-4.15535
20
5.70398
11
-4.1558
21
5.70172
0
LINE
8
BLACK
6
CONTINUOUS
10
-4.1558
20
5.70172
11
-4.15708
21
5.6998
0
LINE
8
BLACK
6
CONTINUOUS
10
-4.15708
20
5.6998
11
-4.159
21
5.69852
0
LINE
8
BLACK
6
CONTINUOUS
10
-4.159
20
5.69852
11
-4.16126
21
5.69807
0
LINE
8
BLACK
6
CONTINUOUS
10
-4.16126
20
5.69807
11
-4.21638
21
5.69807
0
LINE
8
BLACK
6
CONTINUOUS
10
-4.21638
20
5.69807
11
-4.21864
21
5.69852
0
LINE
8
BLACK
6
CONTINUOUS
10
-4.21864
20
5.69852
11
-4.22055
21
5.6998
0
LINE
8
BLACK
6
CONTINUOUS
10
-4.22055
20
5.6998
11
-4.22183
21
5.70172
0
LINE
8
BLACK
6
CONTINUOUS
10
-4.22183
20
5.70172
11
-4.22228
21
5.70398
0
LINE
8
BLACK
6
CONTINUOUS
10
-4.22228
20
5.70398
11
-4.22228
21
5.71579
0
LINE
8
BLACK
6
CONTINUOUS
10
-4.22228
20
5.71579
11
-4.22183
21
5.71805
0
LINE
8
BLACK
6
CONTINUOUS
10
-4.22183
20
5.71805
11
-4.22055
21
5.71996
0
LINE
8
BLACK
6
CONTINUOUS
10
-4.22055
20
5.71996
11
-4.21864
21
5.72124
0
LINE
8
BLACK
6
CONTINUOUS
10
-4.21864
20
5.72124
11
-4.21638
21
5.72169
0
LINE
8
BLACK
6
CONTINUOUS
10
-4.21638
20
5.72169
11
-4.16126
21
5.72169
0
LINE
8
BLACK
6
CONTINUOUS
10
-4.16126
20
5.72169
11
-4.159
21
5.72124
0
LINE
8
BLACK
6
CONTINUOUS
10
-4.77711
20
5.77046
11
-4.77519
21
5.76918
0
LINE
8
BLACK
6
CONTINUOUS
10
-4.77519
20
5.76918
11
-4.77391
21
5.76726
0
LINE
8
BLACK
6
CONTINUOUS
10
-4.77391
20
5.76726
11
-4.77346
21
5.765
0
LINE
8
BLACK
6
CONTINUOUS
10
-4.77346
20
5.765
11
-4.77346
21
5.75319
0
LINE
8
BLACK
6
CONTINUOUS
10
-4.77346
20
5.75319
11
-4.77391
21
5.75093
0
LINE
8
BLACK
6
CONTINUOUS
10
-4.77391
20
5.75093
11
-4.77519
21
5.74901
0
LINE
8
BLACK
6
CONTINUOUS
10
-4.77519
20
5.74901
11
-4.77711
21
5.74773
0
LINE
8
BLACK
6
CONTINUOUS
10
-4.77711
20
5.74773
11
-4.77937
21
5.74728
0
LINE
8
BLACK
6
CONTINUOUS
10
-4.77937
20
5.74728
11
-4.83449
21
5.74728
0
LINE
8
BLACK
6
CONTINUOUS
10
-4.83449
20
5.74728
11
-4.83675
21
5.74773
0
LINE
8
BLACK
6
CONTINUOUS
10
-4.83675
20
5.74773
11
-4.83866
21
5.74901
0
LINE
8
BLACK
6
CONTINUOUS
10
-4.83866
20
5.74901
11
-4.83994
21
5.75093
0
LINE
8
BLACK
6
CONTINUOUS
10
-4.83994
20
5.75093
11
-4.84039
21
5.75319
0
LINE
8
BLACK
6
CONTINUOUS
10
-4.84039
20
5.75319
11
-4.84039
21
5.765
0
LINE
8
BLACK
6
CONTINUOUS
10
-4.84039
20
5.765
11
-4.83994
21
5.76726
0
LINE
8
BLACK
6
CONTINUOUS
10
-4.83994
20
5.76726
11
-4.83866
21
5.76918
0
LINE
8
BLACK
6
CONTINUOUS
10
-4.83866
20
5.76918
11
-4.83675
21
5.77046
0
LINE
8
BLACK
6
CONTINUOUS
10
-4.83675
20
5.77046
11
-4.83449
21
5.77091
0
LINE
8
BLACK
6
CONTINUOUS
10
-4.83449
20
5.77091
11
-4.77937
21
5.77091
0
LINE
8
BLACK
6
CONTINUOUS
10
-4.77937
20
5.77091
11
-4.77711
21
5.77046
0
LINE
8
BLACK
6
CONTINUOUS
10
-4.159
20
5.77046
11
-4.15708
21
5.76918
0
LINE
8
BLACK
6
CONTINUOUS
10
-4.15708
20
5.76918
11
-4.1558
21
5.76726
0
LINE
8
BLACK
6
CONTINUOUS
10
-4.1558
20
5.76726
11
-4.15535
21
5.765
0
LINE
8
BLACK
6
CONTINUOUS
10
-4.15535
20
5.765
11
-4.15535
21
5.75319
0
LINE
8
BLACK
6
CONTINUOUS
10
-4.15535
20
5.75319
11
-4.1558
21
5.75093
0
LINE
8
BLACK
6
CONTINUOUS
10
-4.1558
20
5.75093
11
-4.15708
21
5.74901
0
LINE
8
BLACK
6
CONTINUOUS
10
-4.15708
20
5.74901
11
-4.159
21
5.74773
0
LINE
8
BLACK
6
CONTINUOUS
10
-4.159
20
5.74773
11
-4.16126
21
5.74728
0
LINE
8
BLACK
6
CONTINUOUS
10
-4.16126
20
5.74728
11
-4.21638
21
5.74728
0
LINE
8
BLACK
6
CONTINUOUS
10
-4.21638
20
5.74728
11
-4.21864
21
5.74773
0
LINE
8
BLACK
6
CONTINUOUS
10
-4.21864
20
5.74773
11
-4.22055
21
5.74901
0
LINE
8
BLACK
6
CONTINUOUS
10
-4.22055
20
5.74901
11
-4.22183
21
5.75093
0
LINE
8
BLACK
6
CONTINUOUS
10
-4.22183
20
5.75093
11
-4.22228
21
5.75319
0
LINE
8
BLACK
6
CONTINUOUS
10
-4.22228
20
5.75319
11
-4.22228
21
5.765
0
LINE
8
BLACK
6
CONTINUOUS
10
-4.22228
20
5.765
11
-4.22183
21
5.76726
0
LINE
8
BLACK
6
CONTINUOUS
10
-4.22183
20
5.76726
11
-4.22055
21
5.76918
0
LINE
8
BLACK
6
CONTINUOUS
10
-4.22055
20
5.76918
11
-4.21864
21
5.77046
0
LINE
8
BLACK
6
CONTINUOUS
10
-4.21864
20
5.77046
11
-4.21638
21
5.77091
0
LINE
8
BLACK
6
CONTINUOUS
10
-4.21638
20
5.77091
11
-4.16126
21
5.77091
0
LINE
8
BLACK
6
CONTINUOUS
10
-4.16126
20
5.77091
11
-4.159
21
5.77046
0
LINE
8
BLACK
6
CONTINUOUS
10
-4.88584
20
5.85086
11
-4.88265
21
5.84873
0
LINE
8
BLACK
6
CONTINUOUS
10
-4.88265
20
5.84873
11
-4.88051
21
5.84554
0
LINE
8
BLACK
6
CONTINUOUS
10
-4.88051
20
5.84554
11
-4.87976
21
5.84177
0
LINE
8
BLACK
6
CONTINUOUS
10
-4.87976
20
5.84177
11
-4.87976
21
5.82209
0
LINE
8
BLACK
6
CONTINUOUS
10
-4.87976
20
5.82209
11
-4.88051
21
5.81832
0
LINE
8
BLACK
6
CONTINUOUS
10
-4.88051
20
5.81832
11
-4.88265
21
5.81513
0
LINE
8
BLACK
6
CONTINUOUS
10
-4.88265
20
5.81513
11
-4.88584
21
5.81299
0
LINE
8
BLACK
6
CONTINUOUS
10
-4.88584
20
5.81299
11
-4.88961
21
5.81224
0
LINE
8
BLACK
6
CONTINUOUS
10
-4.88961
20
5.81224
11
-4.97622
21
5.81224
0
LINE
8
BLACK
6
CONTINUOUS
10
-4.97622
20
5.81224
11
-4.97999
21
5.81299
0
LINE
8
BLACK
6
CONTINUOUS
10
-4.97999
20
5.81299
11
-4.98318
21
5.81513
0
LINE
8
BLACK
6
CONTINUOUS
10
-4.98318
20
5.81513
11
-4.98531
21
5.81832
0
LINE
8
BLACK
6
CONTINUOUS
10
-4.98531
20
5.81832
11
-4.98606
21
5.82209
0
LINE
8
BLACK
6
CONTINUOUS
10
-4.98606
20
5.82209
11
-4.98606
21
5.84177
0
LINE
8
BLACK
6
CONTINUOUS
10
-4.98606
20
5.84177
11
-4.98531
21
5.84554
0
LINE
8
BLACK
6
CONTINUOUS
10
-4.98531
20
5.84554
11
-4.98318
21
5.84873
0
LINE
8
BLACK
6
CONTINUOUS
10
-4.98318
20
5.84873
11
-4.97999
21
5.85086
0
LINE
8
BLACK
6
CONTINUOUS
10
-4.97999
20
5.85086
11
-4.97622
21
5.85161
0
LINE
8
BLACK
6
CONTINUOUS
10
-4.97622
20
5.85161
11
-4.88961
21
5.85161
0
LINE
8
BLACK
6
CONTINUOUS
10
-4.88961
20
5.85161
11
-4.88584
21
5.85086
0
LINE
8
BLACK
6
CONTINUOUS
10
-4.01576
20
5.85086
11
-4.01257
21
5.84873
0
LINE
8
BLACK
6
CONTINUOUS
10
-4.01257
20
5.84873
11
-4.01043
21
5.84554
0
LINE
8
BLACK
6
CONTINUOUS
10
-4.01043
20
5.84554
11
-4.00969
21
5.84177
0
LINE
8
BLACK
6
CONTINUOUS
10
-4.00969
20
5.84177
11
-4.00969
21
5.82209
0
LINE
8
BLACK
6
CONTINUOUS
10
-4.00969
20
5.82209
11
-4.01043
21
5.81832
0
LINE
8
BLACK
6
CONTINUOUS
10
-4.01043
20
5.81832
11
-4.01257
21
5.81513
0
LINE
8
BLACK
6
CONTINUOUS
10
-4.01257
20
5.81513
11
-4.01576
21
5.81299
0
LINE
8
BLACK
6
CONTINUOUS
10
-4.01576
20
5.81299
11
-4.01953
21
5.81224
0
LINE
8
BLACK
6
CONTINUOUS
10
-4.01953
20
5.81224
11
-4.10614
21
5.81224
0
LINE
8
BLACK
6
CONTINUOUS
10
-4.10614
20
5.81224
11
-4.10991
21
5.81299
0
LINE
8
BLACK
6
CONTINUOUS
10
-4.10991
20
5.81299
11
-4.1131
21
5.81513
0
LINE
8
BLACK
6
CONTINUOUS
10
-4.1131
20
5.81513
11
-4.11524
21
5.81832
0
LINE
8
BLACK
6
CONTINUOUS
10
-4.11524
20
5.81832
11
-4.11598
21
5.82209
0
LINE
8
BLACK
6
CONTINUOUS
10
-4.11598
20
5.82209
11
-4.11598
21
5.84177
0
LINE
8
BLACK
6
CONTINUOUS
10
-4.11598
20
5.84177
11
-4.11524
21
5.84554
0
LINE
8
BLACK
6
CONTINUOUS
10
-4.11524
20
5.84554
11
-4.1131
21
5.84873
0
LINE
8
BLACK
6
CONTINUOUS
10
-4.1131
20
5.84873
11
-4.10991
21
5.85086
0
LINE
8
BLACK
6
CONTINUOUS
10
-4.10991
20
5.85086
11
-4.10614
21
5.85161
0
LINE
8
BLACK
6
CONTINUOUS
10
-4.10614
20
5.85161
11
-4.01953
21
5.85161
0
LINE
8
BLACK
6
CONTINUOUS
10
-4.01953
20
5.85161
11
-4.01576
21
5.85086
  0
ENDSEC
  0
EOF
