  0
SECTION
  2
HEADER
  9
$ANGBASE
  50
0.0
  9
$ANGDIR
  70
1
  9
$MEASUREMENT
  70
0
  0
ENDSEC
  0
SECTION
  2
TABLES
  0
TABLE
  2
LTYPE
  70
4
  0
LTYPE
  5
40F
  2
CONTINUOUS
  70
0
  3
Solid line
  72
65
  73
0
  40
0.0
  0
LTYPE
  5
410
  2
DASHDOT
 70
0
  3
Dash Dot ____ _ ____ _
 72
65
 73
4
 40
2.0
 49
1.25
 49
-0.25
 49
0.25
 49
-0.25
  0
LTYPE
  5
411
  2
DASHED
 70
0
  3
Dashed __ __ __ __ __
 72
65
 73
2
 40
0.75
 49
0.5
 49
-0.25
  0
LTYPE
  5
43B
  2
DOTTED
 70
0
  3
Dotted .  .  .  .
 72
65
 73
2
 40
0.2
 49
0.0
 49
-0.2
  0
ENDTAB
  0
TABLE
  2
STYLE
  70
4
  0
STYLE
  2
KICAD
  70
0
  40
0
  41
1
  42
1
  50
0
  71
0
  3
isocp.shx
  0
STYLE
  2
KICADB
  70
0
  40
0
  41
1
  42
1
  50
0
  71
0
  3
isocp.shx
  0
STYLE
  2
KICADI
  70
0
  40
0
  41
1
  42
1
  50
15
  71
0
  3
isocp.shx
  0
STYLE
  2
KICADBI
  70
0
  40
0
  41
1
  42
1
  50
15
  71
0
  3
isocp.shx
  0
ENDTAB
  0
TABLE
  2
LAYER
  70
1
  0
LAYER
  2
BLACK
  70
0
  62
7
  6
CONTINUOUS
  0
ENDTAB
  0
ENDSEC
  0
SECTION
  2
ENTITIES
0
LINE
8
BLACK
6
CONTINUOUS
10
-4.87708
20
5.44725
11
-4.86785
21
5.44408
0
LINE
8
BLACK
6
CONTINUOUS
10
-4.86785
20
5.44408
11
-4.85927
21
5.43944
0
LINE
8
BLACK
6
CONTINUOUS
10
-4.85927
20
5.43944
11
-4.85158
21
5.43345
0
LINE
8
BLACK
6
CONTINUOUS
10
-4.85158
20
5.43345
11
-4.84497
21
5.42627
0
LINE
8
BLACK
6
CONTINUOUS
10
-4.84497
20
5.42627
11
-4.83964
21
5.41811
0
LINE
8
BLACK
6
CONTINUOUS
10
-4.83964
20
5.41811
11
-4.83572
21
5.40918
0
LINE
8
BLACK
6
CONTINUOUS
10
-4.83572
20
5.40918
11
-4.83333
21
5.39972
0
LINE
8
BLACK
6
CONTINUOUS
10
-4.83333
20
5.39972
11
-4.83252
21
5.39
0
LINE
8
BLACK
6
CONTINUOUS
10
-4.83252
20
5.39
11
-4.83333
21
5.38028
0
LINE
8
BLACK
6
CONTINUOUS
10
-4.83333
20
5.38028
11
-4.83572
21
5.37082
0
LINE
8
BLACK
6
CONTINUOUS
10
-4.83572
20
5.37082
11
-4.83964
21
5.36189
0
LINE
8
BLACK
6
CONTINUOUS
10
-4.83964
20
5.36189
11
-4.84497
21
5.35373
0
LINE
8
BLACK
6
CONTINUOUS
10
-4.84497
20
5.35373
11
-4.85158
21
5.34655
0
LINE
8
BLACK
6
CONTINUOUS
10
-4.85158
20
5.34655
11
-4.85927
21
5.34056
0
LINE
8
BLACK
6
CONTINUOUS
10
-4.85927
20
5.34056
11
-4.86785
21
5.33592
0
LINE
8
BLACK
6
CONTINUOUS
10
-4.86785
20
5.33592
11
-4.87708
21
5.33275
0
LINE
8
BLACK
6
CONTINUOUS
10
-4.87708
20
5.33275
11
-4.8867
21
5.33115
0
LINE
8
BLACK
6
CONTINUOUS
10
-4.8867
20
5.33115
11
-4.89645
21
5.33115
0
LINE
8
BLACK
6
CONTINUOUS
10
-4.89645
20
5.33115
11
-4.90607
21
5.33275
0
LINE
8
BLACK
6
CONTINUOUS
10
-4.90607
20
5.33275
11
-4.9153
21
5.33592
0
LINE
8
BLACK
6
CONTINUOUS
10
-4.9153
20
5.33592
11
-4.92387
21
5.34056
0
LINE
8
BLACK
6
CONTINUOUS
10
-4.92387
20
5.34056
11
-4.93157
21
5.34655
0
LINE
8
BLACK
6
CONTINUOUS
10
-4.93157
20
5.34655
11
-4.93818
21
5.35373
0
LINE
8
BLACK
6
CONTINUOUS
10
-4.93818
20
5.35373
11
-4.94351
21
5.36189
0
LINE
8
BLACK
6
CONTINUOUS
10
-4.94351
20
5.36189
11
-4.94743
21
5.37082
0
LINE
8
BLACK
6
CONTINUOUS
10
-4.94743
20
5.37082
11
-4.94982
21
5.38028
0
LINE
8
BLACK
6
CONTINUOUS
10
-4.94982
20
5.38028
11
-4.95063
21
5.39
0
LINE
8
BLACK
6
CONTINUOUS
10
-4.95063
20
5.39
11
-4.94982
21
5.39972
0
LINE
8
BLACK
6
CONTINUOUS
10
-4.94982
20
5.39972
11
-4.94743
21
5.40918
0
LINE
8
BLACK
6
CONTINUOUS
10
-4.94743
20
5.40918
11
-4.94351
21
5.41811
0
LINE
8
BLACK
6
CONTINUOUS
10
-4.94351
20
5.41811
11
-4.93818
21
5.42627
0
LINE
8
BLACK
6
CONTINUOUS
10
-4.93818
20
5.42627
11
-4.93157
21
5.43345
0
LINE
8
BLACK
6
CONTINUOUS
10
-4.93157
20
5.43345
11
-4.92387
21
5.43944
0
LINE
8
BLACK
6
CONTINUOUS
10
-4.92387
20
5.43944
11
-4.9153
21
5.44408
0
LINE
8
BLACK
6
CONTINUOUS
10
-4.9153
20
5.44408
11
-4.90607
21
5.44725
0
LINE
8
BLACK
6
CONTINUOUS
10
-4.90607
20
5.44725
11
-4.89645
21
5.44885
0
LINE
8
BLACK
6
CONTINUOUS
10
-4.89645
20
5.44885
11
-4.8867
21
5.44885
0
LINE
8
BLACK
6
CONTINUOUS
10
-4.8867
20
5.44885
11
-4.87708
21
5.44725
0
LINE
8
BLACK
6
CONTINUOUS
10
-4.48338
20
5.44725
11
-4.47415
21
5.44408
0
LINE
8
BLACK
6
CONTINUOUS
10
-4.47415
20
5.44408
11
-4.46557
21
5.43944
0
LINE
8
BLACK
6
CONTINUOUS
10
-4.46557
20
5.43944
11
-4.45788
21
5.43345
0
LINE
8
BLACK
6
CONTINUOUS
10
-4.45788
20
5.43345
11
-4.45127
21
5.42627
0
LINE
8
BLACK
6
CONTINUOUS
10
-4.45127
20
5.42627
11
-4.44594
21
5.41811
0
LINE
8
BLACK
6
CONTINUOUS
10
-4.44594
20
5.41811
11
-4.44202
21
5.40918
0
LINE
8
BLACK
6
CONTINUOUS
10
-4.44202
20
5.40918
11
-4.43962
21
5.39972
0
LINE
8
BLACK
6
CONTINUOUS
10
-4.43962
20
5.39972
11
-4.43882
21
5.39
0
LINE
8
BLACK
6
CONTINUOUS
10
-4.43882
20
5.39
11
-4.43962
21
5.38028
0
LINE
8
BLACK
6
CONTINUOUS
10
-4.43962
20
5.38028
11
-4.44202
21
5.37082
0
LINE
8
BLACK
6
CONTINUOUS
10
-4.44202
20
5.37082
11
-4.44594
21
5.36189
0
LINE
8
BLACK
6
CONTINUOUS
10
-4.44594
20
5.36189
11
-4.45127
21
5.35373
0
LINE
8
BLACK
6
CONTINUOUS
10
-4.45127
20
5.35373
11
-4.45788
21
5.34655
0
LINE
8
BLACK
6
CONTINUOUS
10
-4.45788
20
5.34655
11
-4.46557
21
5.34056
0
LINE
8
BLACK
6
CONTINUOUS
10
-4.46557
20
5.34056
11
-4.47415
21
5.33592
0
LINE
8
BLACK
6
CONTINUOUS
10
-4.47415
20
5.33592
11
-4.48338
21
5.33275
0
LINE
8
BLACK
6
CONTINUOUS
10
-4.48338
20
5.33275
11
-4.493
21
5.33115
0
LINE
8
BLACK
6
CONTINUOUS
10
-4.493
20
5.33115
11
-4.50275
21
5.33115
0
LINE
8
BLACK
6
CONTINUOUS
10
-4.50275
20
5.33115
11
-4.51237
21
5.33275
0
LINE
8
BLACK
6
CONTINUOUS
10
-4.51237
20
5.33275
11
-4.5216
21
5.33592
0
LINE
8
BLACK
6
CONTINUOUS
10
-4.5216
20
5.33592
11
-4.53017
21
5.34056
0
LINE
8
BLACK
6
CONTINUOUS
10
-4.53017
20
5.34056
11
-4.53787
21
5.34655
0
LINE
8
BLACK
6
CONTINUOUS
10
-4.53787
20
5.34655
11
-4.54448
21
5.35373
0
LINE
8
BLACK
6
CONTINUOUS
10
-4.54448
20
5.35373
11
-4.54981
21
5.36189
0
LINE
8
BLACK
6
CONTINUOUS
10
-4.54981
20
5.36189
11
-4.55373
21
5.37082
0
LINE
8
BLACK
6
CONTINUOUS
10
-4.55373
20
5.37082
11
-4.55612
21
5.38028
0
LINE
8
BLACK
6
CONTINUOUS
10
-4.55612
20
5.38028
11
-4.55693
21
5.39
0
LINE
8
BLACK
6
CONTINUOUS
10
-4.55693
20
5.39
11
-4.55612
21
5.39972
0
LINE
8
BLACK
6
CONTINUOUS
10
-4.55612
20
5.39972
11
-4.55373
21
5.40918
0
LINE
8
BLACK
6
CONTINUOUS
10
-4.55373
20
5.40918
11
-4.54981
21
5.41811
0
LINE
8
BLACK
6
CONTINUOUS
10
-4.54981
20
5.41811
11
-4.54448
21
5.42627
0
LINE
8
BLACK
6
CONTINUOUS
10
-4.54448
20
5.42627
11
-4.53787
21
5.43345
0
LINE
8
BLACK
6
CONTINUOUS
10
-4.53787
20
5.43345
11
-4.53017
21
5.43944
0
LINE
8
BLACK
6
CONTINUOUS
10
-4.53017
20
5.43944
11
-4.5216
21
5.44408
0
LINE
8
BLACK
6
CONTINUOUS
10
-4.5216
20
5.44408
11
-4.51237
21
5.44725
0
LINE
8
BLACK
6
CONTINUOUS
10
-4.51237
20
5.44725
11
-4.50275
21
5.44885
0
LINE
8
BLACK
6
CONTINUOUS
10
-4.50275
20
5.44885
11
-4.493
21
5.44885
0
LINE
8
BLACK
6
CONTINUOUS
10
-4.493
20
5.44885
11
-4.48338
21
5.44725
0
LINE
8
BLACK
6
CONTINUOUS
10
-4.08968
20
5.44725
11
-4.08045
21
5.44408
0
LINE
8
BLACK
6
CONTINUOUS
10
-4.08045
20
5.44408
11
-4.07187
21
5.43944
0
LINE
8
BLACK
6
CONTINUOUS
10
-4.07187
20
5.43944
11
-4.06418
21
5.43345
0
LINE
8
BLACK
6
CONTINUOUS
10
-4.06418
20
5.43345
11
-4.05757
21
5.42627
0
LINE
8
BLACK
6
CONTINUOUS
10
-4.05757
20
5.42627
11
-4.05224
21
5.41811
0
LINE
8
BLACK
6
CONTINUOUS
10
-4.05224
20
5.41811
11
-4.04832
21
5.40918
0
LINE
8
BLACK
6
CONTINUOUS
10
-4.04832
20
5.40918
11
-4.04592
21
5.39972
0
LINE
8
BLACK
6
CONTINUOUS
10
-4.04592
20
5.39972
11
-4.04512
21
5.39
0
LINE
8
BLACK
6
CONTINUOUS
10
-4.04512
20
5.39
11
-4.04592
21
5.38028
0
LINE
8
BLACK
6
CONTINUOUS
10
-4.04592
20
5.38028
11
-4.04832
21
5.37082
0
LINE
8
BLACK
6
CONTINUOUS
10
-4.04832
20
5.37082
11
-4.05224
21
5.36189
0
LINE
8
BLACK
6
CONTINUOUS
10
-4.05224
20
5.36189
11
-4.05757
21
5.35373
0
LINE
8
BLACK
6
CONTINUOUS
10
-4.05757
20
5.35373
11
-4.06418
21
5.34655
0
LINE
8
BLACK
6
CONTINUOUS
10
-4.06418
20
5.34655
11
-4.07187
21
5.34056
0
LINE
8
BLACK
6
CONTINUOUS
10
-4.07187
20
5.34056
11
-4.08045
21
5.33592
0
LINE
8
BLACK
6
CONTINUOUS
10
-4.08045
20
5.33592
11
-4.08968
21
5.33275
0
LINE
8
BLACK
6
CONTINUOUS
10
-4.08968
20
5.33275
11
-4.0993
21
5.33115
0
LINE
8
BLACK
6
CONTINUOUS
10
-4.0993
20
5.33115
11
-4.10905
21
5.33115
0
LINE
8
BLACK
6
CONTINUOUS
10
-4.10905
20
5.33115
11
-4.11867
21
5.33275
0
LINE
8
BLACK
6
CONTINUOUS
10
-4.11867
20
5.33275
11
-4.1279
21
5.33592
0
LINE
8
BLACK
6
CONTINUOUS
10
-4.1279
20
5.33592
11
-4.13647
21
5.34056
0
LINE
8
BLACK
6
CONTINUOUS
10
-4.13647
20
5.34056
11
-4.14417
21
5.34655
0
LINE
8
BLACK
6
CONTINUOUS
10
-4.14417
20
5.34655
11
-4.15078
21
5.35373
0
LINE
8
BLACK
6
CONTINUOUS
10
-4.15078
20
5.35373
11
-4.15611
21
5.36189
0
LINE
8
BLACK
6
CONTINUOUS
10
-4.15611
20
5.36189
11
-4.16003
21
5.37082
0
LINE
8
BLACK
6
CONTINUOUS
10
-4.16003
20
5.37082
11
-4.16242
21
5.38028
0
LINE
8
BLACK
6
CONTINUOUS
10
-4.16242
20
5.38028
11
-4.16323
21
5.39
0
LINE
8
BLACK
6
CONTINUOUS
10
-4.16323
20
5.39
11
-4.16242
21
5.39972
0
LINE
8
BLACK
6
CONTINUOUS
10
-4.16242
20
5.39972
11
-4.16003
21
5.40918
0
LINE
8
BLACK
6
CONTINUOUS
10
-4.16003
20
5.40918
11
-4.15611
21
5.41811
0
LINE
8
BLACK
6
CONTINUOUS
10
-4.15611
20
5.41811
11
-4.15078
21
5.42627
0
LINE
8
BLACK
6
CONTINUOUS
10
-4.15078
20
5.42627
11
-4.14417
21
5.43345
0
LINE
8
BLACK
6
CONTINUOUS
10
-4.14417
20
5.43345
11
-4.13647
21
5.43944
0
LINE
8
BLACK
6
CONTINUOUS
10
-4.13647
20
5.43944
11
-4.1279
21
5.44408
0
LINE
8
BLACK
6
CONTINUOUS
10
-4.1279
20
5.44408
11
-4.11867
21
5.44725
0
LINE
8
BLACK
6
CONTINUOUS
10
-4.11867
20
5.44725
11
-4.10905
21
5.44885
0
LINE
8
BLACK
6
CONTINUOUS
10
-4.10905
20
5.44885
11
-4.0993
21
5.44885
0
LINE
8
BLACK
6
CONTINUOUS
10
-4.0993
20
5.44885
11
-4.08968
21
5.44725
0
LINE
8
BLACK
6
CONTINUOUS
10
-4.37431
20
5.47537
11
-4.36992
21
5.47313
0
LINE
8
BLACK
6
CONTINUOUS
10
-4.36992
20
5.47313
11
-4.36643
21
5.46965
0
LINE
8
BLACK
6
CONTINUOUS
10
-4.36643
20
5.46965
11
-4.3642
21
5.46526
0
LINE
8
BLACK
6
CONTINUOUS
10
-4.3642
20
5.46526
11
-4.36343
21
5.46039
0
LINE
8
BLACK
6
CONTINUOUS
10
-4.36343
20
5.46039
11
-4.36343
21
5.44465
0
LINE
8
BLACK
6
CONTINUOUS
10
-4.36343
20
5.44465
11
-4.3642
21
5.43978
0
LINE
8
BLACK
6
CONTINUOUS
10
-4.3642
20
5.43978
11
-4.36643
21
5.43539
0
LINE
8
BLACK
6
CONTINUOUS
10
-4.36643
20
5.43539
11
-4.36992
21
5.43191
0
LINE
8
BLACK
6
CONTINUOUS
10
-4.36992
20
5.43191
11
-4.37431
21
5.42967
0
LINE
8
BLACK
6
CONTINUOUS
10
-4.37431
20
5.42967
11
-4.37917
21
5.4289
0
LINE
8
BLACK
6
CONTINUOUS
10
-4.37917
20
5.4289
11
-4.40083
21
5.4289
0
LINE
8
BLACK
6
CONTINUOUS
10
-4.40083
20
5.4289
11
-4.40569
21
5.42967
0
LINE
8
BLACK
6
CONTINUOUS
10
-4.40569
20
5.42967
11
-4.41008
21
5.43191
0
LINE
8
BLACK
6
CONTINUOUS
10
-4.41008
20
5.43191
11
-4.41357
21
5.43539
0
LINE
8
BLACK
6
CONTINUOUS
10
-4.41357
20
5.43539
11
-4.4158
21
5.43978
0
LINE
8
BLACK
6
CONTINUOUS
10
-4.4158
20
5.43978
11
-4.41657
21
5.44465
0
LINE
8
BLACK
6
CONTINUOUS
10
-4.41657
20
5.44465
11
-4.41657
21
5.46039
0
LINE
8
BLACK
6
CONTINUOUS
10
-4.41657
20
5.46039
11
-4.4158
21
5.46526
0
LINE
8
BLACK
6
CONTINUOUS
10
-4.4158
20
5.46526
11
-4.41357
21
5.46965
0
LINE
8
BLACK
6
CONTINUOUS
10
-4.41357
20
5.46965
11
-4.41008
21
5.47313
0
LINE
8
BLACK
6
CONTINUOUS
10
-4.41008
20
5.47313
11
-4.40569
21
5.47537
0
LINE
8
BLACK
6
CONTINUOUS
10
-4.40569
20
5.47537
11
-4.40083
21
5.47614
0
LINE
8
BLACK
6
CONTINUOUS
10
-4.40083
20
5.47614
11
-4.37917
21
5.47614
0
LINE
8
BLACK
6
CONTINUOUS
10
-4.37917
20
5.47614
11
-4.37431
21
5.47537
0
LINE
8
BLACK
6
CONTINUOUS
10
-4.29431
20
5.47537
11
-4.28992
21
5.47313
0
LINE
8
BLACK
6
CONTINUOUS
10
-4.28992
20
5.47313
11
-4.28643
21
5.46965
0
LINE
8
BLACK
6
CONTINUOUS
10
-4.28643
20
5.46965
11
-4.2842
21
5.46526
0
LINE
8
BLACK
6
CONTINUOUS
10
-4.2842
20
5.46526
11
-4.28343
21
5.46039
0
LINE
8
BLACK
6
CONTINUOUS
10
-4.28343
20
5.46039
11
-4.28343
21
5.44465
0
LINE
8
BLACK
6
CONTINUOUS
10
-4.28343
20
5.44465
11
-4.2842
21
5.43978
0
LINE
8
BLACK
6
CONTINUOUS
10
-4.2842
20
5.43978
11
-4.28643
21
5.43539
0
LINE
8
BLACK
6
CONTINUOUS
10
-4.28643
20
5.43539
11
-4.28992
21
5.43191
0
LINE
8
BLACK
6
CONTINUOUS
10
-4.28992
20
5.43191
11
-4.29431
21
5.42967
0
LINE
8
BLACK
6
CONTINUOUS
10
-4.29431
20
5.42967
11
-4.29917
21
5.4289
0
LINE
8
BLACK
6
CONTINUOUS
10
-4.29917
20
5.4289
11
-4.32083
21
5.4289
0
LINE
8
BLACK
6
CONTINUOUS
10
-4.32083
20
5.4289
11
-4.32569
21
5.42967
0
LINE
8
BLACK
6
CONTINUOUS
10
-4.32569
20
5.42967
11
-4.33008
21
5.43191
0
LINE
8
BLACK
6
CONTINUOUS
10
-4.33008
20
5.43191
11
-4.33357
21
5.43539
0
LINE
8
BLACK
6
CONTINUOUS
10
-4.33357
20
5.43539
11
-4.3358
21
5.43978
0
LINE
8
BLACK
6
CONTINUOUS
10
-4.3358
20
5.43978
11
-4.33657
21
5.44465
0
LINE
8
BLACK
6
CONTINUOUS
10
-4.33657
20
5.44465
11
-4.33657
21
5.46039
0
LINE
8
BLACK
6
CONTINUOUS
10
-4.33657
20
5.46039
11
-4.3358
21
5.46526
0
LINE
8
BLACK
6
CONTINUOUS
10
-4.3358
20
5.46526
11
-4.33357
21
5.46965
0
LINE
8
BLACK
6
CONTINUOUS
10
-4.33357
20
5.46965
11
-4.33008
21
5.47313
0
LINE
8
BLACK
6
CONTINUOUS
10
-4.33008
20
5.47313
11
-4.32569
21
5.47537
0
LINE
8
BLACK
6
CONTINUOUS
10
-4.32569
20
5.47537
11
-4.32083
21
5.47614
0
LINE
8
BLACK
6
CONTINUOUS
10
-4.32083
20
5.47614
11
-4.29917
21
5.47614
0
LINE
8
BLACK
6
CONTINUOUS
10
-4.29917
20
5.47614
11
-4.29431
21
5.47537
0
LINE
8
BLACK
6
CONTINUOUS
10
-4.70406
20
5.50554
11
-4.69979
21
5.50345
0
LINE
8
BLACK
6
CONTINUOUS
10
-4.69979
20
5.50345
11
-4.69643
21
5.50009
0
LINE
8
BLACK
6
CONTINUOUS
10
-4.69643
20
5.50009
11
-4.69434
21
5.49583
0
LINE
8
BLACK
6
CONTINUOUS
10
-4.69434
20
5.49583
11
-4.69374
21
5.49171
0
LINE
8
BLACK
6
CONTINUOUS
10
-4.69374
20
5.49171
11
-4.69374
21
5.44577
0
LINE
8
BLACK
6
CONTINUOUS
10
-4.69374
20
5.44577
11
-4.69434
21
5.44166
0
LINE
8
BLACK
6
CONTINUOUS
10
-4.69434
20
5.44166
11
-4.69643
21
5.43739
0
LINE
8
BLACK
6
CONTINUOUS
10
-4.69643
20
5.43739
11
-4.69979
21
5.43403
0
LINE
8
BLACK
6
CONTINUOUS
10
-4.69979
20
5.43403
11
-4.70406
21
5.43194
0
LINE
8
BLACK
6
CONTINUOUS
10
-4.70406
20
5.43194
11
-4.70818
21
5.43134
0
LINE
8
BLACK
6
CONTINUOUS
10
-4.70818
20
5.43134
11
-4.74427
21
5.43134
0
LINE
8
BLACK
6
CONTINUOUS
10
-4.74427
20
5.43134
11
-4.74838
21
5.43194
0
LINE
8
BLACK
6
CONTINUOUS
10
-4.74838
20
5.43194
11
-4.75265
21
5.43403
0
LINE
8
BLACK
6
CONTINUOUS
10
-4.75265
20
5.43403
11
-4.75601
21
5.43739
0
LINE
8
BLACK
6
CONTINUOUS
10
-4.75601
20
5.43739
11
-4.7581
21
5.44166
0
LINE
8
BLACK
6
CONTINUOUS
10
-4.7581
20
5.44166
11
-4.7587
21
5.44577
0
LINE
8
BLACK
6
CONTINUOUS
10
-4.7587
20
5.44577
11
-4.7587
21
5.49171
0
LINE
8
BLACK
6
CONTINUOUS
10
-4.7587
20
5.49171
11
-4.7581
21
5.49583
0
LINE
8
BLACK
6
CONTINUOUS
10
-4.7581
20
5.49583
11
-4.75601
21
5.50009
0
LINE
8
BLACK
6
CONTINUOUS
10
-4.75601
20
5.50009
11
-4.75265
21
5.50345
0
LINE
8
BLACK
6
CONTINUOUS
10
-4.75265
20
5.50345
11
-4.74838
21
5.50554
0
LINE
8
BLACK
6
CONTINUOUS
10
-4.74838
20
5.50554
11
-4.74427
21
5.50614
0
LINE
8
BLACK
6
CONTINUOUS
10
-4.74427
20
5.50614
11
-4.70818
21
5.50614
0
LINE
8
BLACK
6
CONTINUOUS
10
-4.70818
20
5.50614
11
-4.70406
21
5.50554
0
LINE
8
BLACK
6
CONTINUOUS
10
-4.56232
20
5.50554
11
-4.55806
21
5.50345
0
LINE
8
BLACK
6
CONTINUOUS
10
-4.55806
20
5.50345
11
-4.5547
21
5.50009
0
LINE
8
BLACK
6
CONTINUOUS
10
-4.5547
20
5.50009
11
-4.55261
21
5.49583
0
LINE
8
BLACK
6
CONTINUOUS
10
-4.55261
20
5.49583
11
-4.55201
21
5.49171
0
LINE
8
BLACK
6
CONTINUOUS
10
-4.55201
20
5.49171
11
-4.55201
21
5.44577
0
LINE
8
BLACK
6
CONTINUOUS
10
-4.55201
20
5.44577
11
-4.55261
21
5.44166
0
LINE
8
BLACK
6
CONTINUOUS
10
-4.55261
20
5.44166
11
-4.5547
21
5.43739
0
LINE
8
BLACK
6
CONTINUOUS
10
-4.5547
20
5.43739
11
-4.55806
21
5.43403
0
LINE
8
BLACK
6
CONTINUOUS
10
-4.55806
20
5.43403
11
-4.56232
21
5.43194
0
LINE
8
BLACK
6
CONTINUOUS
10
-4.56232
20
5.43194
11
-4.56644
21
5.43134
0
LINE
8
BLACK
6
CONTINUOUS
10
-4.56644
20
5.43134
11
-4.60253
21
5.43134
0
LINE
8
BLACK
6
CONTINUOUS
10
-4.60253
20
5.43134
11
-4.60665
21
5.43194
0
LINE
8
BLACK
6
CONTINUOUS
10
-4.60665
20
5.43194
11
-4.61092
21
5.43403
0
LINE
8
BLACK
6
CONTINUOUS
10
-4.61092
20
5.43403
11
-4.61428
21
5.43739
0
LINE
8
BLACK
6
CONTINUOUS
10
-4.61428
20
5.43739
11
-4.61637
21
5.44166
0
LINE
8
BLACK
6
CONTINUOUS
10
-4.61637
20
5.44166
11
-4.61697
21
5.44577
0
LINE
8
BLACK
6
CONTINUOUS
10
-4.61697
20
5.44577
11
-4.61697
21
5.49171
0
LINE
8
BLACK
6
CONTINUOUS
10
-4.61697
20
5.49171
11
-4.61637
21
5.49583
0
LINE
8
BLACK
6
CONTINUOUS
10
-4.61637
20
5.49583
11
-4.61428
21
5.50009
0
LINE
8
BLACK
6
CONTINUOUS
10
-4.61428
20
5.50009
11
-4.61092
21
5.50345
0
LINE
8
BLACK
6
CONTINUOUS
10
-4.61092
20
5.50345
11
-4.60665
21
5.50554
0
LINE
8
BLACK
6
CONTINUOUS
10
-4.60665
20
5.50554
11
-4.60253
21
5.50614
0
LINE
8
BLACK
6
CONTINUOUS
10
-4.60253
20
5.50614
11
-4.56644
21
5.50614
0
LINE
8
BLACK
6
CONTINUOUS
10
-4.56644
20
5.50614
11
-4.56232
21
5.50554
0
LINE
8
BLACK
6
CONTINUOUS
10
-4.50974
20
5.5158
11
-4.50535
21
5.51357
0
LINE
8
BLACK
6
CONTINUOUS
10
-4.50535
20
5.51357
11
-4.50187
21
5.51008
0
LINE
8
BLACK
6
CONTINUOUS
10
-4.50187
20
5.51008
11
-4.49963
21
5.50569
0
LINE
8
BLACK
6
CONTINUOUS
10
-4.49963
20
5.50569
11
-4.49886
21
5.50083
0
LINE
8
BLACK
6
CONTINUOUS
10
-4.49886
20
5.50083
11
-4.49886
21
5.47917
0
LINE
8
BLACK
6
CONTINUOUS
10
-4.49886
20
5.47917
11
-4.49963
21
5.47431
0
LINE
8
BLACK
6
CONTINUOUS
10
-4.49963
20
5.47431
11
-4.50187
21
5.46992
0
LINE
8
BLACK
6
CONTINUOUS
10
-4.50187
20
5.46992
11
-4.50535
21
5.46643
0
LINE
8
BLACK
6
CONTINUOUS
10
-4.50535
20
5.46643
11
-4.50974
21
5.4642
0
LINE
8
BLACK
6
CONTINUOUS
10
-4.50974
20
5.4642
11
-4.51461
21
5.46343
0
LINE
8
BLACK
6
CONTINUOUS
10
-4.51461
20
5.46343
11
-4.53035
21
5.46343
0
LINE
8
BLACK
6
CONTINUOUS
10
-4.53035
20
5.46343
11
-4.53522
21
5.4642
0
LINE
8
BLACK
6
CONTINUOUS
10
-4.53522
20
5.4642
11
-4.53961
21
5.46643
0
LINE
8
BLACK
6
CONTINUOUS
10
-4.53961
20
5.46643
11
-4.54309
21
5.46992
0
LINE
8
BLACK
6
CONTINUOUS
10
-4.54309
20
5.46992
11
-4.54533
21
5.47431
0
LINE
8
BLACK
6
CONTINUOUS
10
-4.54533
20
5.47431
11
-4.5461
21
5.47917
0
LINE
8
BLACK
6
CONTINUOUS
10
-4.5461
20
5.47917
11
-4.5461
21
5.50083
0
LINE
8
BLACK
6
CONTINUOUS
10
-4.5461
20
5.50083
11
-4.54533
21
5.50569
0
LINE
8
BLACK
6
CONTINUOUS
10
-4.54533
20
5.50569
11
-4.54309
21
5.51008
0
LINE
8
BLACK
6
CONTINUOUS
10
-4.54309
20
5.51008
11
-4.53961
21
5.51357
0
LINE
8
BLACK
6
CONTINUOUS
10
-4.53961
20
5.51357
11
-4.53522
21
5.5158
0
LINE
8
BLACK
6
CONTINUOUS
10
-4.53522
20
5.5158
11
-4.53035
21
5.51657
0
LINE
8
BLACK
6
CONTINUOUS
10
-4.53035
20
5.51657
11
-4.51461
21
5.51657
0
LINE
8
BLACK
6
CONTINUOUS
10
-4.51461
20
5.51657
11
-4.50974
21
5.5158
0
LINE
8
BLACK
6
CONTINUOUS
10
-4.44478
20
5.5158
11
-4.44039
21
5.51357
0
LINE
8
BLACK
6
CONTINUOUS
10
-4.44039
20
5.51357
11
-4.43691
21
5.51008
0
LINE
8
BLACK
6
CONTINUOUS
10
-4.43691
20
5.51008
11
-4.43467
21
5.50569
0
LINE
8
BLACK
6
CONTINUOUS
10
-4.43467
20
5.50569
11
-4.4339
21
5.50083
0
LINE
8
BLACK
6
CONTINUOUS
10
-4.4339
20
5.50083
11
-4.4339
21
5.47917
0
LINE
8
BLACK
6
CONTINUOUS
10
-4.4339
20
5.47917
11
-4.43467
21
5.47431
0
LINE
8
BLACK
6
CONTINUOUS
10
-4.43467
20
5.47431
11
-4.43691
21
5.46992
0
LINE
8
BLACK
6
CONTINUOUS
10
-4.43691
20
5.46992
11
-4.44039
21
5.46643
0
LINE
8
BLACK
6
CONTINUOUS
10
-4.44039
20
5.46643
11
-4.44478
21
5.4642
0
LINE
8
BLACK
6
CONTINUOUS
10
-4.44478
20
5.4642
11
-4.44965
21
5.46343
0
LINE
8
BLACK
6
CONTINUOUS
10
-4.44965
20
5.46343
11
-4.46539
21
5.46343
0
LINE
8
BLACK
6
CONTINUOUS
10
-4.46539
20
5.46343
11
-4.47026
21
5.4642
0
LINE
8
BLACK
6
CONTINUOUS
10
-4.47026
20
5.4642
11
-4.47465
21
5.46643
0
LINE
8
BLACK
6
CONTINUOUS
10
-4.47465
20
5.46643
11
-4.47813
21
5.46992
0
LINE
8
BLACK
6
CONTINUOUS
10
-4.47813
20
5.46992
11
-4.48037
21
5.47431
0
LINE
8
BLACK
6
CONTINUOUS
10
-4.48037
20
5.47431
11
-4.48114
21
5.47917
0
LINE
8
BLACK
6
CONTINUOUS
10
-4.48114
20
5.47917
11
-4.48114
21
5.50083
0
LINE
8
BLACK
6
CONTINUOUS
10
-4.48114
20
5.50083
11
-4.48037
21
5.50569
0
LINE
8
BLACK
6
CONTINUOUS
10
-4.48037
20
5.50569
11
-4.47813
21
5.51008
0
LINE
8
BLACK
6
CONTINUOUS
10
-4.47813
20
5.51008
11
-4.47465
21
5.51357
0
LINE
8
BLACK
6
CONTINUOUS
10
-4.47465
20
5.51357
11
-4.47026
21
5.5158
0
LINE
8
BLACK
6
CONTINUOUS
10
-4.47026
20
5.5158
11
-4.46539
21
5.51657
0
LINE
8
BLACK
6
CONTINUOUS
10
-4.46539
20
5.51657
11
-4.44965
21
5.51657
0
LINE
8
BLACK
6
CONTINUOUS
10
-4.44965
20
5.51657
11
-4.44478
21
5.5158
0
LINE
8
BLACK
6
CONTINUOUS
10
-4.37431
20
5.54033
11
-4.36992
21
5.53809
0
LINE
8
BLACK
6
CONTINUOUS
10
-4.36992
20
5.53809
11
-4.36643
21
5.53461
0
LINE
8
BLACK
6
CONTINUOUS
10
-4.36643
20
5.53461
11
-4.3642
21
5.53022
0
LINE
8
BLACK
6
CONTINUOUS
10
-4.3642
20
5.53022
11
-4.36343
21
5.52535
0
LINE
8
BLACK
6
CONTINUOUS
10
-4.36343
20
5.52535
11
-4.36343
21
5.50961
0
LINE
8
BLACK
6
CONTINUOUS
10
-4.36343
20
5.50961
11
-4.3642
21
5.50474
0
LINE
8
BLACK
6
CONTINUOUS
10
-4.3642
20
5.50474
11
-4.36643
21
5.50035
0
LINE
8
BLACK
6
CONTINUOUS
10
-4.36643
20
5.50035
11
-4.36992
21
5.49687
0
LINE
8
BLACK
6
CONTINUOUS
10
-4.36992
20
5.49687
11
-4.37431
21
5.49463
0
LINE
8
BLACK
6
CONTINUOUS
10
-4.37431
20
5.49463
11
-4.37917
21
5.49386
0
LINE
8
BLACK
6
CONTINUOUS
10
-4.37917
20
5.49386
11
-4.40083
21
5.49386
0
LINE
8
BLACK
6
CONTINUOUS
10
-4.40083
20
5.49386
11
-4.40569
21
5.49463
0
LINE
8
BLACK
6
CONTINUOUS
10
-4.40569
20
5.49463
11
-4.41008
21
5.49687
0
LINE
8
BLACK
6
CONTINUOUS
10
-4.41008
20
5.49687
11
-4.41357
21
5.50035
0
LINE
8
BLACK
6
CONTINUOUS
10
-4.41357
20
5.50035
11
-4.4158
21
5.50474
0
LINE
8
BLACK
6
CONTINUOUS
10
-4.4158
20
5.50474
11
-4.41657
21
5.50961
0
LINE
8
BLACK
6
CONTINUOUS
10
-4.41657
20
5.50961
11
-4.41657
21
5.52535
0
LINE
8
BLACK
6
CONTINUOUS
10
-4.41657
20
5.52535
11
-4.4158
21
5.53022
0
LINE
8
BLACK
6
CONTINUOUS
10
-4.4158
20
5.53022
11
-4.41357
21
5.53461
0
LINE
8
BLACK
6
CONTINUOUS
10
-4.41357
20
5.53461
11
-4.41008
21
5.53809
0
LINE
8
BLACK
6
CONTINUOUS
10
-4.41008
20
5.53809
11
-4.40569
21
5.54033
0
LINE
8
BLACK
6
CONTINUOUS
10
-4.40569
20
5.54033
11
-4.40083
21
5.5411
0
LINE
8
BLACK
6
CONTINUOUS
10
-4.40083
20
5.5411
11
-4.37917
21
5.5411
0
LINE
8
BLACK
6
CONTINUOUS
10
-4.37917
20
5.5411
11
-4.37431
21
5.54033
0
LINE
8
BLACK
6
CONTINUOUS
10
-4.29431
20
5.54033
11
-4.28992
21
5.53809
0
LINE
8
BLACK
6
CONTINUOUS
10
-4.28992
20
5.53809
11
-4.28643
21
5.53461
0
LINE
8
BLACK
6
CONTINUOUS
10
-4.28643
20
5.53461
11
-4.2842
21
5.53022
0
LINE
8
BLACK
6
CONTINUOUS
10
-4.2842
20
5.53022
11
-4.28343
21
5.52535
0
LINE
8
BLACK
6
CONTINUOUS
10
-4.28343
20
5.52535
11
-4.28343
21
5.50961
0
LINE
8
BLACK
6
CONTINUOUS
10
-4.28343
20
5.50961
11
-4.2842
21
5.50474
0
LINE
8
BLACK
6
CONTINUOUS
10
-4.2842
20
5.50474
11
-4.28643
21
5.50035
0
LINE
8
BLACK
6
CONTINUOUS
10
-4.28643
20
5.50035
11
-4.28992
21
5.49687
0
LINE
8
BLACK
6
CONTINUOUS
10
-4.28992
20
5.49687
11
-4.29431
21
5.49463
0
LINE
8
BLACK
6
CONTINUOUS
10
-4.29431
20
5.49463
11
-4.29917
21
5.49386
0
LINE
8
BLACK
6
CONTINUOUS
10
-4.29917
20
5.49386
11
-4.32083
21
5.49386
0
LINE
8
BLACK
6
CONTINUOUS
10
-4.32083
20
5.49386
11
-4.32569
21
5.49463
0
LINE
8
BLACK
6
CONTINUOUS
10
-4.32569
20
5.49463
11
-4.33008
21
5.49687
0
LINE
8
BLACK
6
CONTINUOUS
10
-4.33008
20
5.49687
11
-4.33357
21
5.50035
0
LINE
8
BLACK
6
CONTINUOUS
10
-4.33357
20
5.50035
11
-4.3358
21
5.50474
0
LINE
8
BLACK
6
CONTINUOUS
10
-4.3358
20
5.50474
11
-4.33657
21
5.50961
0
LINE
8
BLACK
6
CONTINUOUS
10
-4.33657
20
5.50961
11
-4.33657
21
5.52535
0
LINE
8
BLACK
6
CONTINUOUS
10
-4.33657
20
5.52535
11
-4.3358
21
5.53022
0
LINE
8
BLACK
6
CONTINUOUS
10
-4.3358
20
5.53022
11
-4.33357
21
5.53461
0
LINE
8
BLACK
6
CONTINUOUS
10
-4.33357
20
5.53461
11
-4.33008
21
5.53809
0
LINE
8
BLACK
6
CONTINUOUS
10
-4.33008
20
5.53809
11
-4.32569
21
5.54033
0
LINE
8
BLACK
6
CONTINUOUS
10
-4.32569
20
5.54033
11
-4.32083
21
5.5411
0
LINE
8
BLACK
6
CONTINUOUS
10
-4.32083
20
5.5411
11
-4.29917
21
5.5411
0
LINE
8
BLACK
6
CONTINUOUS
10
-4.29917
20
5.5411
11
-4.29431
21
5.54033
0
LINE
8
BLACK
6
CONTINUOUS
10
-4.88631
20
5.56587
11
-4.88133
21
5.56413
0
LINE
8
BLACK
6
CONTINUOUS
10
-4.88133
20
5.56413
11
-4.87708
21
5.56099
0
LINE
8
BLACK
6
CONTINUOUS
10
-4.87708
20
5.56099
11
-4.87394
21
5.55674
0
LINE
8
BLACK
6
CONTINUOUS
10
-4.87394
20
5.55674
11
-4.8722
21
5.55176
0
LINE
8
BLACK
6
CONTINUOUS
10
-4.8722
20
5.55176
11
-4.87189
21
5.54846
0
LINE
8
BLACK
6
CONTINUOUS
10
-4.87189
20
5.54846
11
-4.87189
21
5.52878
0
LINE
8
BLACK
6
CONTINUOUS
10
-4.87189
20
5.52878
11
-4.8722
21
5.52549
0
LINE
8
BLACK
6
CONTINUOUS
10
-4.8722
20
5.52549
11
-4.87394
21
5.5205
0
LINE
8
BLACK
6
CONTINUOUS
10
-4.87394
20
5.5205
11
-4.87708
21
5.51625
0
LINE
8
BLACK
6
CONTINUOUS
10
-4.87708
20
5.51625
11
-4.88133
21
5.51312
0
LINE
8
BLACK
6
CONTINUOUS
10
-4.88133
20
5.51312
11
-4.88631
21
5.51137
0
LINE
8
BLACK
6
CONTINUOUS
10
-4.88631
20
5.51137
11
-4.88961
21
5.51106
0
LINE
8
BLACK
6
CONTINUOUS
10
-4.88961
20
5.51106
11
-4.97622
21
5.51106
0
LINE
8
BLACK
6
CONTINUOUS
10
-4.97622
20
5.51106
11
-4.97951
21
5.51137
0
LINE
8
BLACK
6
CONTINUOUS
10
-4.97951
20
5.51137
11
-4.9845
21
5.51312
0
LINE
8
BLACK
6
CONTINUOUS
10
-4.9845
20
5.51312
11
-4.98875
21
5.51625
0
LINE
8
BLACK
6
CONTINUOUS
10
-4.98875
20
5.51625
11
-4.99188
21
5.5205
0
LINE
8
BLACK
6
CONTINUOUS
10
-4.99188
20
5.5205
11
-4.99363
21
5.52549
0
LINE
8
BLACK
6
CONTINUOUS
10
-4.99363
20
5.52549
11
-4.99394
21
5.52878
0
LINE
8
BLACK
6
CONTINUOUS
10
-4.99394
20
5.52878
11
-4.99394
21
5.54846
0
LINE
8
BLACK
6
CONTINUOUS
10
-4.99394
20
5.54846
11
-4.99363
21
5.55176
0
LINE
8
BLACK
6
CONTINUOUS
10
-4.99363
20
5.55176
11
-4.99188
21
5.55674
0
LINE
8
BLACK
6
CONTINUOUS
10
-4.99188
20
5.55674
11
-4.98875
21
5.56099
0
LINE
8
BLACK
6
CONTINUOUS
10
-4.98875
20
5.56099
11
-4.9845
21
5.56413
0
LINE
8
BLACK
6
CONTINUOUS
10
-4.9845
20
5.56413
11
-4.97951
21
5.56587
0
LINE
8
BLACK
6
CONTINUOUS
10
-4.97951
20
5.56587
11
-4.97622
21
5.56618
0
LINE
8
BLACK
6
CONTINUOUS
10
-4.97622
20
5.56618
11
-4.88961
21
5.56618
0
LINE
8
BLACK
6
CONTINUOUS
10
-4.88961
20
5.56618
11
-4.88631
21
5.56587
0
LINE
8
BLACK
6
CONTINUOUS
10
-4.01623
20
5.56587
11
-4.01125
21
5.56413
0
LINE
8
BLACK
6
CONTINUOUS
10
-4.01125
20
5.56413
11
-4.007
21
5.56099
0
LINE
8
BLACK
6
CONTINUOUS
10
-4.007
20
5.56099
11
-4.00386
21
5.55674
0
LINE
8
BLACK
6
CONTINUOUS
10
-4.00386
20
5.55674
11
-4.00212
21
5.55176
0
LINE
8
BLACK
6
CONTINUOUS
10
-4.00212
20
5.55176
11
-4.00181
21
5.54846
0
LINE
8
BLACK
6
CONTINUOUS
10
-4.00181
20
5.54846
11
-4.00181
21
5.52878
0
LINE
8
BLACK
6
CONTINUOUS
10
-4.00181
20
5.52878
11
-4.00212
21
5.52549
0
LINE
8
BLACK
6
CONTINUOUS
10
-4.00212
20
5.52549
11
-4.00386
21
5.5205
0
LINE
8
BLACK
6
CONTINUOUS
10
-4.00386
20
5.5205
11
-4.007
21
5.51625
0
LINE
8
BLACK
6
CONTINUOUS
10
-4.007
20
5.51625
11
-4.01125
21
5.51312
0
LINE
8
BLACK
6
CONTINUOUS
10
-4.01125
20
5.51312
11
-4.01623
21
5.51137
0
LINE
8
BLACK
6
CONTINUOUS
10
-4.01623
20
5.51137
11
-4.01953
21
5.51106
0
LINE
8
BLACK
6
CONTINUOUS
10
-4.01953
20
5.51106
11
-4.10614
21
5.51106
0
LINE
8
BLACK
6
CONTINUOUS
10
-4.10614
20
5.51106
11
-4.10944
21
5.51137
0
LINE
8
BLACK
6
CONTINUOUS
10
-4.10944
20
5.51137
11
-4.11442
21
5.51312
0
LINE
8
BLACK
6
CONTINUOUS
10
-4.11442
20
5.51312
11
-4.11867
21
5.51625
0
LINE
8
BLACK
6
CONTINUOUS
10
-4.11867
20
5.51625
11
-4.12181
21
5.5205
0
LINE
8
BLACK
6
CONTINUOUS
10
-4.12181
20
5.5205
11
-4.12355
21
5.52549
0
LINE
8
BLACK
6
CONTINUOUS
10
-4.12355
20
5.52549
11
-4.12386
21
5.52878
0
LINE
8
BLACK
6
CONTINUOUS
10
-4.12386
20
5.52878
11
-4.12386
21
5.54846
0
LINE
8
BLACK
6
CONTINUOUS
10
-4.12386
20
5.54846
11
-4.12355
21
5.55176
0
LINE
8
BLACK
6
CONTINUOUS
10
-4.12355
20
5.55176
11
-4.12181
21
5.55674
0
LINE
8
BLACK
6
CONTINUOUS
10
-4.12181
20
5.55674
11
-4.11867
21
5.56099
0
LINE
8
BLACK
6
CONTINUOUS
10
-4.11867
20
5.56099
11
-4.11442
21
5.56413
0
LINE
8
BLACK
6
CONTINUOUS
10
-4.11442
20
5.56413
11
-4.10944
21
5.56587
0
LINE
8
BLACK
6
CONTINUOUS
10
-4.10944
20
5.56587
11
-4.10614
21
5.56618
0
LINE
8
BLACK
6
CONTINUOUS
10
-4.10614
20
5.56618
11
-4.01953
21
5.56618
0
LINE
8
BLACK
6
CONTINUOUS
10
-4.01953
20
5.56618
11
-4.01623
21
5.56587
0
LINE
8
BLACK
6
CONTINUOUS
10
-4.53431
20
5.59137
11
-4.52992
21
5.58914
0
LINE
8
BLACK
6
CONTINUOUS
10
-4.52992
20
5.58914
11
-4.52643
21
5.58565
0
LINE
8
BLACK
6
CONTINUOUS
10
-4.52643
20
5.58565
11
-4.5242
21
5.58126
0
LINE
8
BLACK
6
CONTINUOUS
10
-4.5242
20
5.58126
11
-4.52343
21
5.5764
0
LINE
8
BLACK
6
CONTINUOUS
10
-4.52343
20
5.5764
11
-4.52343
21
5.56065
0
LINE
8
BLACK
6
CONTINUOUS
10
-4.52343
20
5.56065
11
-4.5242
21
5.55578
0
LINE
8
BLACK
6
CONTINUOUS
10
-4.5242
20
5.55578
11
-4.52643
21
5.55139
0
LINE
8
BLACK
6
CONTINUOUS
10
-4.52643
20
5.55139
11
-4.52992
21
5.54791
0
LINE
8
BLACK
6
CONTINUOUS
10
-4.52992
20
5.54791
11
-4.53431
21
5.54567
0
LINE
8
BLACK
6
CONTINUOUS
10
-4.53431
20
5.54567
11
-4.53917
21
5.5449
0
LINE
8
BLACK
6
CONTINUOUS
10
-4.53917
20
5.5449
11
-4.56083
21
5.5449
0
LINE
8
BLACK
6
CONTINUOUS
10
-4.56083
20
5.5449
11
-4.56569
21
5.54567
0
LINE
8
BLACK
6
CONTINUOUS
10
-4.56569
20
5.54567
11
-4.57008
21
5.54791
0
LINE
8
BLACK
6
CONTINUOUS
10
-4.57008
20
5.54791
11
-4.57357
21
5.55139
0
LINE
8
BLACK
6
CONTINUOUS
10
-4.57357
20
5.55139
11
-4.5758
21
5.55578
0
LINE
8
BLACK
6
CONTINUOUS
10
-4.5758
20
5.55578
11
-4.57657
21
5.56065
0
LINE
8
BLACK
6
CONTINUOUS
10
-4.57657
20
5.56065
11
-4.57657
21
5.5764
0
LINE
8
BLACK
6
CONTINUOUS
10
-4.57657
20
5.5764
11
-4.5758
21
5.58126
0
LINE
8
BLACK
6
CONTINUOUS
10
-4.5758
20
5.58126
11
-4.57357
21
5.58565
0
LINE
8
BLACK
6
CONTINUOUS
10
-4.57357
20
5.58565
11
-4.57008
21
5.58914
0
LINE
8
BLACK
6
CONTINUOUS
10
-4.57008
20
5.58914
11
-4.56569
21
5.59137
0
LINE
8
BLACK
6
CONTINUOUS
10
-4.56569
20
5.59137
11
-4.56083
21
5.59215
0
LINE
8
BLACK
6
CONTINUOUS
10
-4.56083
20
5.59215
11
-4.53917
21
5.59215
0
LINE
8
BLACK
6
CONTINUOUS
10
-4.53917
20
5.59215
11
-4.53431
21
5.59137
0
LINE
8
BLACK
6
CONTINUOUS
10
-4.68256
20
5.6186
11
-4.67849
21
5.61661
0
LINE
8
BLACK
6
CONTINUOUS
10
-4.67849
20
5.61661
11
-4.67528
21
5.6134
0
LINE
8
BLACK
6
CONTINUOUS
10
-4.67528
20
5.6134
11
-4.6737
21
5.61017
0
LINE
8
BLACK
6
CONTINUOUS
10
-4.6737
20
5.61017
11
-4.67212
21
5.6134
0
LINE
8
BLACK
6
CONTINUOUS
10
-4.67212
20
5.6134
11
-4.66891
21
5.61661
0
LINE
8
BLACK
6
CONTINUOUS
10
-4.66891
20
5.61661
11
-4.66484
21
5.6186
0
LINE
8
BLACK
6
CONTINUOUS
10
-4.66484
20
5.6186
11
-4.66091
21
5.61917
0
LINE
8
BLACK
6
CONTINUOUS
10
-4.66091
20
5.61917
11
-4.64909
21
5.61917
0
LINE
8
BLACK
6
CONTINUOUS
10
-4.64909
20
5.61917
11
-4.64516
21
5.6186
0
LINE
8
BLACK
6
CONTINUOUS
10
-4.64516
20
5.6186
11
-4.64109
21
5.61661
0
LINE
8
BLACK
6
CONTINUOUS
10
-4.64109
20
5.61661
11
-4.63788
21
5.6134
0
LINE
8
BLACK
6
CONTINUOUS
10
-4.63788
20
5.6134
11
-4.6363
21
5.61017
0
LINE
8
BLACK
6
CONTINUOUS
10
-4.6363
20
5.61017
11
-4.63472
21
5.6134
0
LINE
8
BLACK
6
CONTINUOUS
10
-4.63472
20
5.6134
11
-4.63151
21
5.61661
0
LINE
8
BLACK
6
CONTINUOUS
10
-4.63151
20
5.61661
11
-4.62744
21
5.6186
0
LINE
8
BLACK
6
CONTINUOUS
10
-4.62744
20
5.6186
11
-4.6235
21
5.61917
0
LINE
8
BLACK
6
CONTINUOUS
10
-4.6235
20
5.61917
11
-4.61169
21
5.61917
0
LINE
8
BLACK
6
CONTINUOUS
10
-4.61169
20
5.61917
11
-4.60776
21
5.6186
0
LINE
8
BLACK
6
CONTINUOUS
10
-4.60776
20
5.6186
11
-4.60369
21
5.61661
0
LINE
8
BLACK
6
CONTINUOUS
10
-4.60369
20
5.61661
11
-4.60048
21
5.6134
0
LINE
8
BLACK
6
CONTINUOUS
10
-4.60048
20
5.6134
11
-4.59849
21
5.60933
0
LINE
8
BLACK
6
CONTINUOUS
10
-4.59849
20
5.60933
11
-4.59791
21
5.60539
0
LINE
8
BLACK
6
CONTINUOUS
10
-4.59791
20
5.60539
11
-4.59791
21
5.56504
0
LINE
8
BLACK
6
CONTINUOUS
10
-4.59791
20
5.56504
11
-4.59849
21
5.56111
0
LINE
8
BLACK
6
CONTINUOUS
10
-4.59849
20
5.56111
11
-4.60048
21
5.55703
0
LINE
8
BLACK
6
CONTINUOUS
10
-4.60048
20
5.55703
11
-4.60369
21
5.55382
0
LINE
8
BLACK
6
CONTINUOUS
10
-4.60369
20
5.55382
11
-4.60776
21
5.55183
0
LINE
8
BLACK
6
CONTINUOUS
10
-4.60776
20
5.55183
11
-4.61169
21
5.55126
0
LINE
8
BLACK
6
CONTINUOUS
10
-4.61169
20
5.55126
11
-4.6235
21
5.55126
0
LINE
8
BLACK
6
CONTINUOUS
10
-4.6235
20
5.55126
11
-4.62744
21
5.55183
0
LINE
8
BLACK
6
CONTINUOUS
10
-4.62744
20
5.55183
11
-4.63151
21
5.55382
0
LINE
8
BLACK
6
CONTINUOUS
10
-4.63151
20
5.55382
11
-4.63472
21
5.55703
0
LINE
8
BLACK
6
CONTINUOUS
10
-4.63472
20
5.55703
11
-4.6363
21
5.56027
0
LINE
8
BLACK
6
CONTINUOUS
10
-4.6363
20
5.56027
11
-4.63788
21
5.55703
0
LINE
8
BLACK
6
CONTINUOUS
10
-4.63788
20
5.55703
11
-4.64109
21
5.55382
0
LINE
8
BLACK
6
CONTINUOUS
10
-4.64109
20
5.55382
11
-4.64516
21
5.55183
0
LINE
8
BLACK
6
CONTINUOUS
10
-4.64516
20
5.55183
11
-4.64909
21
5.55126
0
LINE
8
BLACK
6
CONTINUOUS
10
-4.64909
20
5.55126
11
-4.66091
21
5.55126
0
LINE
8
BLACK
6
CONTINUOUS
10
-4.66091
20
5.55126
11
-4.66484
21
5.55183
0
LINE
8
BLACK
6
CONTINUOUS
10
-4.66484
20
5.55183
11
-4.66891
21
5.55382
0
LINE
8
BLACK
6
CONTINUOUS
10
-4.66891
20
5.55382
11
-4.67212
21
5.55703
0
LINE
8
BLACK
6
CONTINUOUS
10
-4.67212
20
5.55703
11
-4.6737
21
5.56027
0
LINE
8
BLACK
6
CONTINUOUS
10
-4.6737
20
5.56027
11
-4.67528
21
5.55703
0
LINE
8
BLACK
6
CONTINUOUS
10
-4.67528
20
5.55703
11
-4.67849
21
5.55382
0
LINE
8
BLACK
6
CONTINUOUS
10
-4.67849
20
5.55382
11
-4.68256
21
5.55183
0
LINE
8
BLACK
6
CONTINUOUS
10
-4.68256
20
5.55183
11
-4.6865
21
5.55126
0
LINE
8
BLACK
6
CONTINUOUS
10
-4.6865
20
5.55126
11
-4.69831
21
5.55126
0
LINE
8
BLACK
6
CONTINUOUS
10
-4.69831
20
5.55126
11
-4.70224
21
5.55183
0
LINE
8
BLACK
6
CONTINUOUS
10
-4.70224
20
5.55183
11
-4.70631
21
5.55382
0
LINE
8
BLACK
6
CONTINUOUS
10
-4.70631
20
5.55382
11
-4.70952
21
5.55703
0
LINE
8
BLACK
6
CONTINUOUS
10
-4.70952
20
5.55703
11
-4.71151
21
5.56111
0
LINE
8
BLACK
6
CONTINUOUS
10
-4.71151
20
5.56111
11
-4.71209
21
5.56504
0
LINE
8
BLACK
6
CONTINUOUS
10
-4.71209
20
5.56504
11
-4.71209
21
5.60539
0
LINE
8
BLACK
6
CONTINUOUS
10
-4.71209
20
5.60539
11
-4.71151
21
5.60933
0
LINE
8
BLACK
6
CONTINUOUS
10
-4.71151
20
5.60933
11
-4.70952
21
5.6134
0
LINE
8
BLACK
6
CONTINUOUS
10
-4.70952
20
5.6134
11
-4.70631
21
5.61661
0
LINE
8
BLACK
6
CONTINUOUS
10
-4.70631
20
5.61661
11
-4.70224
21
5.6186
0
LINE
8
BLACK
6
CONTINUOUS
10
-4.70224
20
5.6186
11
-4.69831
21
5.61917
0
LINE
8
BLACK
6
CONTINUOUS
10
-4.69831
20
5.61917
11
-4.6865
21
5.61917
0
LINE
8
BLACK
6
CONTINUOUS
10
-4.6865
20
5.61917
11
-4.68256
21
5.6186
0
LINE
8
BLACK
6
CONTINUOUS
10
-4.43651
20
5.63448
11
-4.43559
21
5.63386
0
LINE
8
BLACK
6
CONTINUOUS
10
-4.43559
20
5.63386
11
-4.43467
21
5.63448
0
LINE
8
BLACK
6
CONTINUOUS
10
-4.43467
20
5.63448
11
-4.43165
21
5.63508
0
LINE
8
BLACK
6
CONTINUOUS
10
-4.43165
20
5.63508
11
-4.41394
21
5.63508
0
LINE
8
BLACK
6
CONTINUOUS
10
-4.41394
20
5.63508
11
-4.41092
21
5.63448
0
LINE
8
BLACK
6
CONTINUOUS
10
-4.41092
20
5.63448
11
-4.41
21
5.63386
0
LINE
8
BLACK
6
CONTINUOUS
10
-4.41
20
5.63386
11
-4.40908
21
5.63448
0
LINE
8
BLACK
6
CONTINUOUS
10
-4.40908
20
5.63448
11
-4.40606
21
5.63508
0
LINE
8
BLACK
6
CONTINUOUS
10
-4.40606
20
5.63508
11
-4.38835
21
5.63508
0
LINE
8
BLACK
6
CONTINUOUS
10
-4.38835
20
5.63508
11
-4.38533
21
5.63448
0
LINE
8
BLACK
6
CONTINUOUS
10
-4.38533
20
5.63448
11
-4.38441
21
5.63386
0
LINE
8
BLACK
6
CONTINUOUS
10
-4.38441
20
5.63386
11
-4.38349
21
5.63448
0
LINE
8
BLACK
6
CONTINUOUS
10
-4.38349
20
5.63448
11
-4.38047
21
5.63508
0
LINE
8
BLACK
6
CONTINUOUS
10
-4.38047
20
5.63508
11
-4.36276
21
5.63508
0
LINE
8
BLACK
6
CONTINUOUS
10
-4.36276
20
5.63508
11
-4.35974
21
5.63448
0
LINE
8
BLACK
6
CONTINUOUS
10
-4.35974
20
5.63448
11
-4.35719
21
5.63277
0
LINE
8
BLACK
6
CONTINUOUS
10
-4.35719
20
5.63277
11
-4.35548
21
5.63022
0
LINE
8
BLACK
6
CONTINUOUS
10
-4.35548
20
5.63022
11
-4.35488
21
5.6272
0
LINE
8
BLACK
6
CONTINUOUS
10
-4.35488
20
5.6272
11
-4.35488
21
5.57012
0
LINE
8
BLACK
6
CONTINUOUS
10
-4.35488
20
5.57012
11
-4.35548
21
5.5671
0
LINE
8
BLACK
6
CONTINUOUS
10
-4.35548
20
5.5671
11
-4.35719
21
5.56455
0
LINE
8
BLACK
6
CONTINUOUS
10
-4.35719
20
5.56455
11
-4.35974
21
5.56284
0
LINE
8
BLACK
6
CONTINUOUS
10
-4.35974
20
5.56284
11
-4.36276
21
5.56224
0
LINE
8
BLACK
6
CONTINUOUS
10
-4.36276
20
5.56224
11
-4.38047
21
5.56224
0
LINE
8
BLACK
6
CONTINUOUS
10
-4.38047
20
5.56224
11
-4.38349
21
5.56284
0
LINE
8
BLACK
6
CONTINUOUS
10
-4.38349
20
5.56284
11
-4.38441
21
5.56346
0
LINE
8
BLACK
6
CONTINUOUS
10
-4.38441
20
5.56346
11
-4.38533
21
5.56284
0
LINE
8
BLACK
6
CONTINUOUS
10
-4.38533
20
5.56284
11
-4.38835
21
5.56224
0
LINE
8
BLACK
6
CONTINUOUS
10
-4.38835
20
5.56224
11
-4.40606
21
5.56224
0
LINE
8
BLACK
6
CONTINUOUS
10
-4.40606
20
5.56224
11
-4.40908
21
5.56284
0
LINE
8
BLACK
6
CONTINUOUS
10
-4.40908
20
5.56284
11
-4.41
21
5.56346
0
LINE
8
BLACK
6
CONTINUOUS
10
-4.41
20
5.56346
11
-4.41092
21
5.56284
0
LINE
8
BLACK
6
CONTINUOUS
10
-4.41092
20
5.56284
11
-4.41394
21
5.56224
0
LINE
8
BLACK
6
CONTINUOUS
10
-4.41394
20
5.56224
11
-4.43165
21
5.56224
0
LINE
8
BLACK
6
CONTINUOUS
10
-4.43165
20
5.56224
11
-4.43467
21
5.56284
0
LINE
8
BLACK
6
CONTINUOUS
10
-4.43467
20
5.56284
11
-4.43559
21
5.56346
0
LINE
8
BLACK
6
CONTINUOUS
10
-4.43559
20
5.56346
11
-4.43651
21
5.56284
0
LINE
8
BLACK
6
CONTINUOUS
10
-4.43651
20
5.56284
11
-4.43953
21
5.56224
0
LINE
8
BLACK
6
CONTINUOUS
10
-4.43953
20
5.56224
11
-4.45724
21
5.56224
0
LINE
8
BLACK
6
CONTINUOUS
10
-4.45724
20
5.56224
11
-4.46026
21
5.56284
0
LINE
8
BLACK
6
CONTINUOUS
10
-4.46026
20
5.56284
11
-4.46281
21
5.56455
0
LINE
8
BLACK
6
CONTINUOUS
10
-4.46281
20
5.56455
11
-4.46452
21
5.5671
0
LINE
8
BLACK
6
CONTINUOUS
10
-4.46452
20
5.5671
11
-4.46512
21
5.57012
0
LINE
8
BLACK
6
CONTINUOUS
10
-4.46512
20
5.57012
11
-4.46512
21
5.6272
0
LINE
8
BLACK
6
CONTINUOUS
10
-4.46512
20
5.6272
11
-4.46452
21
5.63022
0
LINE
8
BLACK
6
CONTINUOUS
10
-4.46452
20
5.63022
11
-4.46281
21
5.63277
0
LINE
8
BLACK
6
CONTINUOUS
10
-4.46281
20
5.63277
11
-4.46026
21
5.63448
0
LINE
8
BLACK
6
CONTINUOUS
10
-4.46026
20
5.63448
11
-4.45724
21
5.63508
0
LINE
8
BLACK
6
CONTINUOUS
10
-4.45724
20
5.63508
11
-4.43953
21
5.63508
0
LINE
8
BLACK
6
CONTINUOUS
10
-4.43953
20
5.63508
11
-4.43651
21
5.63448
0
LINE
8
BLACK
6
CONTINUOUS
10
-4.77544
20
5.63057
11
-4.77136
21
5.62858
0
LINE
8
BLACK
6
CONTINUOUS
10
-4.77136
20
5.62858
11
-4.76816
21
5.62537
0
LINE
8
BLACK
6
CONTINUOUS
10
-4.76816
20
5.62537
11
-4.76616
21
5.62129
0
LINE
8
BLACK
6
CONTINUOUS
10
-4.76616
20
5.62129
11
-4.76559
21
5.61736
0
LINE
8
BLACK
6
CONTINUOUS
10
-4.76559
20
5.61736
11
-4.76559
21
5.60555
0
LINE
8
BLACK
6
CONTINUOUS
10
-4.76559
20
5.60555
11
-4.76616
21
5.60162
0
LINE
8
BLACK
6
CONTINUOUS
10
-4.76616
20
5.60162
11
-4.76816
21
5.59754
0
LINE
8
BLACK
6
CONTINUOUS
10
-4.76816
20
5.59754
11
-4.77136
21
5.59434
0
LINE
8
BLACK
6
CONTINUOUS
10
-4.77136
20
5.59434
11
-4.77544
21
5.59234
0
LINE
8
BLACK
6
CONTINUOUS
10
-4.77544
20
5.59234
11
-4.77937
21
5.59177
0
LINE
8
BLACK
6
CONTINUOUS
10
-4.77937
20
5.59177
11
-4.83449
21
5.59177
0
LINE
8
BLACK
6
CONTINUOUS
10
-4.83449
20
5.59177
11
-4.83842
21
5.59234
0
LINE
8
BLACK
6
CONTINUOUS
10
-4.83842
20
5.59234
11
-4.8425
21
5.59434
0
LINE
8
BLACK
6
CONTINUOUS
10
-4.8425
20
5.59434
11
-4.8457
21
5.59754
0
LINE
8
BLACK
6
CONTINUOUS
10
-4.8457
20
5.59754
11
-4.84769
21
5.60162
0
LINE
8
BLACK
6
CONTINUOUS
10
-4.84769
20
5.60162
11
-4.84827
21
5.60555
0
LINE
8
BLACK
6
CONTINUOUS
10
-4.84827
20
5.60555
11
-4.84827
21
5.61736
0
LINE
8
BLACK
6
CONTINUOUS
10
-4.84827
20
5.61736
11
-4.84769
21
5.62129
0
LINE
8
BLACK
6
CONTINUOUS
10
-4.84769
20
5.62129
11
-4.8457
21
5.62537
0
LINE
8
BLACK
6
CONTINUOUS
10
-4.8457
20
5.62537
11
-4.8425
21
5.62858
0
LINE
8
BLACK
6
CONTINUOUS
10
-4.8425
20
5.62858
11
-4.83842
21
5.63057
0
LINE
8
BLACK
6
CONTINUOUS
10
-4.83842
20
5.63057
11
-4.83449
21
5.63114
0
LINE
8
BLACK
6
CONTINUOUS
10
-4.83449
20
5.63114
11
-4.77937
21
5.63114
0
LINE
8
BLACK
6
CONTINUOUS
10
-4.77937
20
5.63114
11
-4.77544
21
5.63057
0
LINE
8
BLACK
6
CONTINUOUS
10
-4.15733
20
5.63057
11
-4.15325
21
5.62858
0
LINE
8
BLACK
6
CONTINUOUS
10
-4.15325
20
5.62858
11
-4.15005
21
5.62537
0
LINE
8
BLACK
6
CONTINUOUS
10
-4.15005
20
5.62537
11
-4.14805
21
5.62129
0
LINE
8
BLACK
6
CONTINUOUS
10
-4.14805
20
5.62129
11
-4.14748
21
5.61736
0
LINE
8
BLACK
6
CONTINUOUS
10
-4.14748
20
5.61736
11
-4.14748
21
5.60555
0
LINE
8
BLACK
6
CONTINUOUS
10
-4.14748
20
5.60555
11
-4.14805
21
5.60162
0
LINE
8
BLACK
6
CONTINUOUS
10
-4.14805
20
5.60162
11
-4.15005
21
5.59754
0
LINE
8
BLACK
6
CONTINUOUS
10
-4.15005
20
5.59754
11
-4.15325
21
5.59434
0
LINE
8
BLACK
6
CONTINUOUS
10
-4.15325
20
5.59434
11
-4.15733
21
5.59234
0
LINE
8
BLACK
6
CONTINUOUS
10
-4.15733
20
5.59234
11
-4.16126
21
5.59177
0
LINE
8
BLACK
6
CONTINUOUS
10
-4.16126
20
5.59177
11
-4.21638
21
5.59177
0
LINE
8
BLACK
6
CONTINUOUS
10
-4.21638
20
5.59177
11
-4.22031
21
5.59234
0
LINE
8
BLACK
6
CONTINUOUS
10
-4.22031
20
5.59234
11
-4.22438
21
5.59434
0
LINE
8
BLACK
6
CONTINUOUS
10
-4.22438
20
5.59434
11
-4.22759
21
5.59754
0
LINE
8
BLACK
6
CONTINUOUS
10
-4.22759
20
5.59754
11
-4.22958
21
5.60162
0
LINE
8
BLACK
6
CONTINUOUS
10
-4.22958
20
5.60162
11
-4.23016
21
5.60555
0
LINE
8
BLACK
6
CONTINUOUS
10
-4.23016
20
5.60555
11
-4.23016
21
5.61736
0
LINE
8
BLACK
6
CONTINUOUS
10
-4.23016
20
5.61736
11
-4.22958
21
5.62129
0
LINE
8
BLACK
6
CONTINUOUS
10
-4.22958
20
5.62129
11
-4.22759
21
5.62537
0
LINE
8
BLACK
6
CONTINUOUS
10
-4.22759
20
5.62537
11
-4.22438
21
5.62858
0
LINE
8
BLACK
6
CONTINUOUS
10
-4.22438
20
5.62858
11
-4.22031
21
5.63057
0
LINE
8
BLACK
6
CONTINUOUS
10
-4.22031
20
5.63057
11
-4.21638
21
5.63114
0
LINE
8
BLACK
6
CONTINUOUS
10
-4.21638
20
5.63114
11
-4.16126
21
5.63114
0
LINE
8
BLACK
6
CONTINUOUS
10
-4.16126
20
5.63114
11
-4.15733
21
5.63057
0
LINE
8
BLACK
6
CONTINUOUS
10
-4.53431
20
5.65634
11
-4.52992
21
5.6541
0
LINE
8
BLACK
6
CONTINUOUS
10
-4.52992
20
5.6541
11
-4.52643
21
5.65061
0
LINE
8
BLACK
6
CONTINUOUS
10
-4.52643
20
5.65061
11
-4.5242
21
5.64622
0
LINE
8
BLACK
6
CONTINUOUS
10
-4.5242
20
5.64622
11
-4.52343
21
5.64136
0
LINE
8
BLACK
6
CONTINUOUS
10
-4.52343
20
5.64136
11
-4.52343
21
5.62561
0
LINE
8
BLACK
6
CONTINUOUS
10
-4.52343
20
5.62561
11
-4.5242
21
5.62074
0
LINE
8
BLACK
6
CONTINUOUS
10
-4.5242
20
5.62074
11
-4.52643
21
5.61635
0
LINE
8
BLACK
6
CONTINUOUS
10
-4.52643
20
5.61635
11
-4.52992
21
5.61287
0
LINE
8
BLACK
6
CONTINUOUS
10
-4.52992
20
5.61287
11
-4.53431
21
5.61063
0
LINE
8
BLACK
6
CONTINUOUS
10
-4.53431
20
5.61063
11
-4.53917
21
5.60986
0
LINE
8
BLACK
6
CONTINUOUS
10
-4.53917
20
5.60986
11
-4.56083
21
5.60986
0
LINE
8
BLACK
6
CONTINUOUS
10
-4.56083
20
5.60986
11
-4.56569
21
5.61063
0
LINE
8
BLACK
6
CONTINUOUS
10
-4.56569
20
5.61063
11
-4.57008
21
5.61287
0
LINE
8
BLACK
6
CONTINUOUS
10
-4.57008
20
5.61287
11
-4.57357
21
5.61635
0
LINE
8
BLACK
6
CONTINUOUS
10
-4.57357
20
5.61635
11
-4.5758
21
5.62074
0
LINE
8
BLACK
6
CONTINUOUS
10
-4.5758
20
5.62074
11
-4.57657
21
5.62561
0
LINE
8
BLACK
6
CONTINUOUS
10
-4.57657
20
5.62561
11
-4.57657
21
5.64136
0
LINE
8
BLACK
6
CONTINUOUS
10
-4.57657
20
5.64136
11
-4.5758
21
5.64622
0
LINE
8
BLACK
6
CONTINUOUS
10
-4.5758
20
5.64622
11
-4.57357
21
5.65061
0
LINE
8
BLACK
6
CONTINUOUS
10
-4.57357
20
5.65061
11
-4.57008
21
5.6541
0
LINE
8
BLACK
6
CONTINUOUS
10
-4.57008
20
5.6541
11
-4.56569
21
5.65634
0
LINE
8
BLACK
6
CONTINUOUS
10
-4.56569
20
5.65634
11
-4.56083
21
5.65711
0
LINE
8
BLACK
6
CONTINUOUS
10
-4.56083
20
5.65711
11
-4.53917
21
5.65711
0
LINE
8
BLACK
6
CONTINUOUS
10
-4.53917
20
5.65711
11
-4.53431
21
5.65634
0
LINE
8
BLACK
6
CONTINUOUS
10
-4.68256
20
5.70817
11
-4.67849
21
5.70618
0
LINE
8
BLACK
6
CONTINUOUS
10
-4.67849
20
5.70618
11
-4.67528
21
5.70297
0
LINE
8
BLACK
6
CONTINUOUS
10
-4.67528
20
5.70297
11
-4.67329
21
5.69889
0
LINE
8
BLACK
6
CONTINUOUS
10
-4.67329
20
5.69889
11
-4.67272
21
5.69496
0
LINE
8
BLACK
6
CONTINUOUS
10
-4.67272
20
5.69496
11
-4.67272
21
5.65461
0
LINE
8
BLACK
6
CONTINUOUS
10
-4.67272
20
5.65461
11
-4.67329
21
5.65067
0
LINE
8
BLACK
6
CONTINUOUS
10
-4.67329
20
5.65067
11
-4.67528
21
5.6466
0
LINE
8
BLACK
6
CONTINUOUS
10
-4.67528
20
5.6466
11
-4.67849
21
5.64339
0
LINE
8
BLACK
6
CONTINUOUS
10
-4.67849
20
5.64339
11
-4.68256
21
5.6414
0
LINE
8
BLACK
6
CONTINUOUS
10
-4.68256
20
5.6414
11
-4.6865
21
5.64083
0
LINE
8
BLACK
6
CONTINUOUS
10
-4.6865
20
5.64083
11
-4.69831
21
5.64083
0
LINE
8
BLACK
6
CONTINUOUS
10
-4.69831
20
5.64083
11
-4.70224
21
5.6414
0
LINE
8
BLACK
6
CONTINUOUS
10
-4.70224
20
5.6414
11
-4.70631
21
5.64339
0
LINE
8
BLACK
6
CONTINUOUS
10
-4.70631
20
5.64339
11
-4.70952
21
5.6466
0
LINE
8
BLACK
6
CONTINUOUS
10
-4.70952
20
5.6466
11
-4.71151
21
5.65067
0
LINE
8
BLACK
6
CONTINUOUS
10
-4.71151
20
5.65067
11
-4.71209
21
5.65461
0
LINE
8
BLACK
6
CONTINUOUS
10
-4.71209
20
5.65461
11
-4.71209
21
5.69496
0
LINE
8
BLACK
6
CONTINUOUS
10
-4.71209
20
5.69496
11
-4.71151
21
5.69889
0
LINE
8
BLACK
6
CONTINUOUS
10
-4.71151
20
5.69889
11
-4.70952
21
5.70297
0
LINE
8
BLACK
6
CONTINUOUS
10
-4.70952
20
5.70297
11
-4.70631
21
5.70618
0
LINE
8
BLACK
6
CONTINUOUS
10
-4.70631
20
5.70618
11
-4.70224
21
5.70817
0
LINE
8
BLACK
6
CONTINUOUS
10
-4.70224
20
5.70817
11
-4.69831
21
5.70874
0
LINE
8
BLACK
6
CONTINUOUS
10
-4.69831
20
5.70874
11
-4.6865
21
5.70874
0
LINE
8
BLACK
6
CONTINUOUS
10
-4.6865
20
5.70874
11
-4.68256
21
5.70817
0
LINE
8
BLACK
6
CONTINUOUS
10
-4.60776
20
5.70817
11
-4.60369
21
5.70618
0
LINE
8
BLACK
6
CONTINUOUS
10
-4.60369
20
5.70618
11
-4.60048
21
5.70297
0
LINE
8
BLACK
6
CONTINUOUS
10
-4.60048
20
5.70297
11
-4.59849
21
5.69889
0
LINE
8
BLACK
6
CONTINUOUS
10
-4.59849
20
5.69889
11
-4.59791
21
5.69496
0
LINE
8
BLACK
6
CONTINUOUS
10
-4.59791
20
5.69496
11
-4.59791
21
5.65461
0
LINE
8
BLACK
6
CONTINUOUS
10
-4.59791
20
5.65461
11
-4.59849
21
5.65067
0
LINE
8
BLACK
6
CONTINUOUS
10
-4.59849
20
5.65067
11
-4.60048
21
5.6466
0
LINE
8
BLACK
6
CONTINUOUS
10
-4.60048
20
5.6466
11
-4.60369
21
5.64339
0
LINE
8
BLACK
6
CONTINUOUS
10
-4.60369
20
5.64339
11
-4.60776
21
5.6414
0
LINE
8
BLACK
6
CONTINUOUS
10
-4.60776
20
5.6414
11
-4.61169
21
5.64083
0
LINE
8
BLACK
6
CONTINUOUS
10
-4.61169
20
5.64083
11
-4.6235
21
5.64083
0
LINE
8
BLACK
6
CONTINUOUS
10
-4.6235
20
5.64083
11
-4.62744
21
5.6414
0
LINE
8
BLACK
6
CONTINUOUS
10
-4.62744
20
5.6414
11
-4.63151
21
5.64339
0
LINE
8
BLACK
6
CONTINUOUS
10
-4.63151
20
5.64339
11
-4.63472
21
5.6466
0
LINE
8
BLACK
6
CONTINUOUS
10
-4.63472
20
5.6466
11
-4.63671
21
5.65067
0
LINE
8
BLACK
6
CONTINUOUS
10
-4.63671
20
5.65067
11
-4.63728
21
5.65461
0
LINE
8
BLACK
6
CONTINUOUS
10
-4.63728
20
5.65461
11
-4.63728
21
5.69496
0
LINE
8
BLACK
6
CONTINUOUS
10
-4.63728
20
5.69496
11
-4.63671
21
5.69889
0
LINE
8
BLACK
6
CONTINUOUS
10
-4.63671
20
5.69889
11
-4.63472
21
5.70297
0
LINE
8
BLACK
6
CONTINUOUS
10
-4.63472
20
5.70297
11
-4.63151
21
5.70618
0
LINE
8
BLACK
6
CONTINUOUS
10
-4.63151
20
5.70618
11
-4.62744
21
5.70817
0
LINE
8
BLACK
6
CONTINUOUS
10
-4.62744
20
5.70817
11
-4.6235
21
5.70874
0
LINE
8
BLACK
6
CONTINUOUS
10
-4.6235
20
5.70874
11
-4.61169
21
5.70874
0
LINE
8
BLACK
6
CONTINUOUS
10
-4.61169
20
5.70874
11
-4.60776
21
5.70817
0
LINE
8
BLACK
6
CONTINUOUS
10
-4.77544
20
5.67978
11
-4.77136
21
5.67779
0
LINE
8
BLACK
6
CONTINUOUS
10
-4.77136
20
5.67779
11
-4.76816
21
5.67458
0
LINE
8
BLACK
6
CONTINUOUS
10
-4.76816
20
5.67458
11
-4.76616
21
5.67051
0
LINE
8
BLACK
6
CONTINUOUS
10
-4.76616
20
5.67051
11
-4.76559
21
5.66657
0
LINE
8
BLACK
6
CONTINUOUS
10
-4.76559
20
5.66657
11
-4.76559
21
5.65476
0
LINE
8
BLACK
6
CONTINUOUS
10
-4.76559
20
5.65476
11
-4.76616
21
5.65083
0
LINE
8
BLACK
6
CONTINUOUS
10
-4.76616
20
5.65083
11
-4.76816
21
5.64676
0
LINE
8
BLACK
6
CONTINUOUS
10
-4.76816
20
5.64676
11
-4.77136
21
5.64355
0
LINE
8
BLACK
6
CONTINUOUS
10
-4.77136
20
5.64355
11
-4.77544
21
5.64156
0
LINE
8
BLACK
6
CONTINUOUS
10
-4.77544
20
5.64156
11
-4.77937
21
5.64098
0
LINE
8
BLACK
6
CONTINUOUS
10
-4.77937
20
5.64098
11
-4.83449
21
5.64098
0
LINE
8
BLACK
6
CONTINUOUS
10
-4.83449
20
5.64098
11
-4.83842
21
5.64156
0
LINE
8
BLACK
6
CONTINUOUS
10
-4.83842
20
5.64156
11
-4.8425
21
5.64355
0
LINE
8
BLACK
6
CONTINUOUS
10
-4.8425
20
5.64355
11
-4.8457
21
5.64676
0
LINE
8
BLACK
6
CONTINUOUS
10
-4.8457
20
5.64676
11
-4.84769
21
5.65083
0
LINE
8
BLACK
6
CONTINUOUS
10
-4.84769
20
5.65083
11
-4.84827
21
5.65476
0
LINE
8
BLACK
6
CONTINUOUS
10
-4.84827
20
5.65476
11
-4.84827
21
5.66657
0
LINE
8
BLACK
6
CONTINUOUS
10
-4.84827
20
5.66657
11
-4.84769
21
5.67051
0
LINE
8
BLACK
6
CONTINUOUS
10
-4.84769
20
5.67051
11
-4.8457
21
5.67458
0
LINE
8
BLACK
6
CONTINUOUS
10
-4.8457
20
5.67458
11
-4.8425
21
5.67779
0
LINE
8
BLACK
6
CONTINUOUS
10
-4.8425
20
5.67779
11
-4.83842
21
5.67978
0
LINE
8
BLACK
6
CONTINUOUS
10
-4.83842
20
5.67978
11
-4.83449
21
5.68035
0
LINE
8
BLACK
6
CONTINUOUS
10
-4.83449
20
5.68035
11
-4.77937
21
5.68035
0
LINE
8
BLACK
6
CONTINUOUS
10
-4.77937
20
5.68035
11
-4.77544
21
5.67978
0
LINE
8
BLACK
6
CONTINUOUS
10
-4.15733
20
5.67978
11
-4.15325
21
5.67779
0
LINE
8
BLACK
6
CONTINUOUS
10
-4.15325
20
5.67779
11
-4.15005
21
5.67458
0
LINE
8
BLACK
6
CONTINUOUS
10
-4.15005
20
5.67458
11
-4.14805
21
5.67051
0
LINE
8
BLACK
6
CONTINUOUS
10
-4.14805
20
5.67051
11
-4.14748
21
5.66657
0
LINE
8
BLACK
6
CONTINUOUS
10
-4.14748
20
5.66657
11
-4.14748
21
5.65476
0
LINE
8
BLACK
6
CONTINUOUS
10
-4.14748
20
5.65476
11
-4.14805
21
5.65083
0
LINE
8
BLACK
6
CONTINUOUS
10
-4.14805
20
5.65083
11
-4.15005
21
5.64676
0
LINE
8
BLACK
6
CONTINUOUS
10
-4.15005
20
5.64676
11
-4.15325
21
5.64355
0
LINE
8
BLACK
6
CONTINUOUS
10
-4.15325
20
5.64355
11
-4.15733
21
5.64156
0
LINE
8
BLACK
6
CONTINUOUS
10
-4.15733
20
5.64156
11
-4.16126
21
5.64098
0
LINE
8
BLACK
6
CONTINUOUS
10
-4.16126
20
5.64098
11
-4.21638
21
5.64098
0
LINE
8
BLACK
6
CONTINUOUS
10
-4.21638
20
5.64098
11
-4.22031
21
5.64156
0
LINE
8
BLACK
6
CONTINUOUS
10
-4.22031
20
5.64156
11
-4.22438
21
5.64355
0
LINE
8
BLACK
6
CONTINUOUS
10
-4.22438
20
5.64355
11
-4.22759
21
5.64676
0
LINE
8
BLACK
6
CONTINUOUS
10
-4.22759
20
5.64676
11
-4.22958
21
5.65083
0
LINE
8
BLACK
6
CONTINUOUS
10
-4.22958
20
5.65083
11
-4.23016
21
5.65476
0
LINE
8
BLACK
6
CONTINUOUS
10
-4.23016
20
5.65476
11
-4.23016
21
5.66657
0
LINE
8
BLACK
6
CONTINUOUS
10
-4.23016
20
5.66657
11
-4.22958
21
5.67051
0
LINE
8
BLACK
6
CONTINUOUS
10
-4.22958
20
5.67051
11
-4.22759
21
5.67458
0
LINE
8
BLACK
6
CONTINUOUS
10
-4.22759
20
5.67458
11
-4.22438
21
5.67779
0
LINE
8
BLACK
6
CONTINUOUS
10
-4.22438
20
5.67779
11
-4.22031
21
5.67978
0
LINE
8
BLACK
6
CONTINUOUS
10
-4.22031
20
5.67978
11
-4.21638
21
5.68035
0
LINE
8
BLACK
6
CONTINUOUS
10
-4.21638
20
5.68035
11
-4.16126
21
5.68035
0
LINE
8
BLACK
6
CONTINUOUS
10
-4.16126
20
5.68035
11
-4.15733
21
5.67978
0
LINE
8
BLACK
6
CONTINUOUS
10
-4.77544
20
5.72899
11
-4.77136
21
5.727
0
LINE
8
BLACK
6
CONTINUOUS
10
-4.77136
20
5.727
11
-4.76816
21
5.72379
0
LINE
8
BLACK
6
CONTINUOUS
10
-4.76816
20
5.72379
11
-4.76616
21
5.71972
0
LINE
8
BLACK
6
CONTINUOUS
10
-4.76616
20
5.71972
11
-4.76559
21
5.71579
0
LINE
8
BLACK
6
CONTINUOUS
10
-4.76559
20
5.71579
11
-4.76559
21
5.70398
0
LINE
8
BLACK
6
CONTINUOUS
10
-4.76559
20
5.70398
11
-4.76616
21
5.70004
0
LINE
8
BLACK
6
CONTINUOUS
10
-4.76616
20
5.70004
11
-4.76816
21
5.69597
0
LINE
8
BLACK
6
CONTINUOUS
10
-4.76816
20
5.69597
11
-4.77136
21
5.69276
0
LINE
8
BLACK
6
CONTINUOUS
10
-4.77136
20
5.69276
11
-4.77544
21
5.69077
0
LINE
8
BLACK
6
CONTINUOUS
10
-4.77544
20
5.69077
11
-4.77937
21
5.6902
0
LINE
8
BLACK
6
CONTINUOUS
10
-4.77937
20
5.6902
11
-4.83449
21
5.6902
0
LINE
8
BLACK
6
CONTINUOUS
10
-4.83449
20
5.6902
11
-4.83842
21
5.69077
0
LINE
8
BLACK
6
CONTINUOUS
10
-4.83842
20
5.69077
11
-4.8425
21
5.69276
0
LINE
8
BLACK
6
CONTINUOUS
10
-4.8425
20
5.69276
11
-4.8457
21
5.69597
0
LINE
8
BLACK
6
CONTINUOUS
10
-4.8457
20
5.69597
11
-4.84769
21
5.70004
0
LINE
8
BLACK
6
CONTINUOUS
10
-4.84769
20
5.70004
11
-4.84827
21
5.70398
0
LINE
8
BLACK
6
CONTINUOUS
10
-4.84827
20
5.70398
11
-4.84827
21
5.71579
0
LINE
8
BLACK
6
CONTINUOUS
10
-4.84827
20
5.71579
11
-4.84769
21
5.71972
0
LINE
8
BLACK
6
CONTINUOUS
10
-4.84769
20
5.71972
11
-4.8457
21
5.72379
0
LINE
8
BLACK
6
CONTINUOUS
10
-4.8457
20
5.72379
11
-4.8425
21
5.727
0
LINE
8
BLACK
6
CONTINUOUS
10
-4.8425
20
5.727
11
-4.83842
21
5.72899
0
LINE
8
BLACK
6
CONTINUOUS
10
-4.83842
20
5.72899
11
-4.83449
21
5.72957
0
LINE
8
BLACK
6
CONTINUOUS
10
-4.83449
20
5.72957
11
-4.77937
21
5.72957
0
LINE
8
BLACK
6
CONTINUOUS
10
-4.77937
20
5.72957
11
-4.77544
21
5.72899
0
LINE
8
BLACK
6
CONTINUOUS
10
-4.15733
20
5.72899
11
-4.15325
21
5.727
0
LINE
8
BLACK
6
CONTINUOUS
10
-4.15325
20
5.727
11
-4.15005
21
5.72379
0
LINE
8
BLACK
6
CONTINUOUS
10
-4.15005
20
5.72379
11
-4.14805
21
5.71972
0
LINE
8
BLACK
6
CONTINUOUS
10
-4.14805
20
5.71972
11
-4.14748
21
5.71579
0
LINE
8
BLACK
6
CONTINUOUS
10
-4.14748
20
5.71579
11
-4.14748
21
5.70398
0
LINE
8
BLACK
6
CONTINUOUS
10
-4.14748
20
5.70398
11
-4.14805
21
5.70004
0
LINE
8
BLACK
6
CONTINUOUS
10
-4.14805
20
5.70004
11
-4.15005
21
5.69597
0
LINE
8
BLACK
6
CONTINUOUS
10
-4.15005
20
5.69597
11
-4.15325
21
5.69276
0
LINE
8
BLACK
6
CONTINUOUS
10
-4.15325
20
5.69276
11
-4.15733
21
5.69077
0
LINE
8
BLACK
6
CONTINUOUS
10
-4.15733
20
5.69077
11
-4.16126
21
5.6902
0
LINE
8
BLACK
6
CONTINUOUS
10
-4.16126
20
5.6902
11
-4.21638
21
5.6902
0
LINE
8
BLACK
6
CONTINUOUS
10
-4.21638
20
5.6902
11
-4.22031
21
5.69077
0
LINE
8
BLACK
6
CONTINUOUS
10
-4.22031
20
5.69077
11
-4.22438
21
5.69276
0
LINE
8
BLACK
6
CONTINUOUS
10
-4.22438
20
5.69276
11
-4.22759
21
5.69597
0
LINE
8
BLACK
6
CONTINUOUS
10
-4.22759
20
5.69597
11
-4.22958
21
5.70004
0
LINE
8
BLACK
6
CONTINUOUS
10
-4.22958
20
5.70004
11
-4.23016
21
5.70398
0
LINE
8
BLACK
6
CONTINUOUS
10
-4.23016
20
5.70398
11
-4.23016
21
5.71579
0
LINE
8
BLACK
6
CONTINUOUS
10
-4.23016
20
5.71579
11
-4.22958
21
5.71972
0
LINE
8
BLACK
6
CONTINUOUS
10
-4.22958
20
5.71972
11
-4.22759
21
5.72379
0
LINE
8
BLACK
6
CONTINUOUS
10
-4.22759
20
5.72379
11
-4.22438
21
5.727
0
LINE
8
BLACK
6
CONTINUOUS
10
-4.22438
20
5.727
11
-4.22031
21
5.72899
0
LINE
8
BLACK
6
CONTINUOUS
10
-4.22031
20
5.72899
11
-4.21638
21
5.72957
0
LINE
8
BLACK
6
CONTINUOUS
10
-4.21638
20
5.72957
11
-4.16126
21
5.72957
0
LINE
8
BLACK
6
CONTINUOUS
10
-4.16126
20
5.72957
11
-4.15733
21
5.72899
0
LINE
8
BLACK
6
CONTINUOUS
10
-4.27931
20
5.75037
11
-4.27492
21
5.74813
0
LINE
8
BLACK
6
CONTINUOUS
10
-4.27492
20
5.74813
11
-4.27143
21
5.74465
0
LINE
8
BLACK
6
CONTINUOUS
10
-4.27143
20
5.74465
11
-4.2692
21
5.74026
0
LINE
8
BLACK
6
CONTINUOUS
10
-4.2692
20
5.74026
11
-4.26843
21
5.73539
0
LINE
8
BLACK
6
CONTINUOUS
10
-4.26843
20
5.73539
11
-4.26843
21
5.71965
0
LINE
8
BLACK
6
CONTINUOUS
10
-4.26843
20
5.71965
11
-4.2692
21
5.71478
0
LINE
8
BLACK
6
CONTINUOUS
10
-4.2692
20
5.71478
11
-4.27143
21
5.71039
0
LINE
8
BLACK
6
CONTINUOUS
10
-4.27143
20
5.71039
11
-4.27492
21
5.70691
0
LINE
8
BLACK
6
CONTINUOUS
10
-4.27492
20
5.70691
11
-4.27931
21
5.70467
0
LINE
8
BLACK
6
CONTINUOUS
10
-4.27931
20
5.70467
11
-4.28417
21
5.7039
0
LINE
8
BLACK
6
CONTINUOUS
10
-4.28417
20
5.7039
11
-4.30583
21
5.7039
0
LINE
8
BLACK
6
CONTINUOUS
10
-4.30583
20
5.7039
11
-4.31069
21
5.70467
0
LINE
8
BLACK
6
CONTINUOUS
10
-4.31069
20
5.70467
11
-4.31508
21
5.70691
0
LINE
8
BLACK
6
CONTINUOUS
10
-4.31508
20
5.70691
11
-4.31857
21
5.71039
0
LINE
8
BLACK
6
CONTINUOUS
10
-4.31857
20
5.71039
11
-4.3208
21
5.71478
0
LINE
8
BLACK
6
CONTINUOUS
10
-4.3208
20
5.71478
11
-4.32157
21
5.71965
0
LINE
8
BLACK
6
CONTINUOUS
10
-4.32157
20
5.71965
11
-4.32157
21
5.73539
0
LINE
8
BLACK
6
CONTINUOUS
10
-4.32157
20
5.73539
11
-4.3208
21
5.74026
0
LINE
8
BLACK
6
CONTINUOUS
10
-4.3208
20
5.74026
11
-4.31857
21
5.74465
0
LINE
8
BLACK
6
CONTINUOUS
10
-4.31857
20
5.74465
11
-4.31508
21
5.74813
0
LINE
8
BLACK
6
CONTINUOUS
10
-4.31508
20
5.74813
11
-4.31069
21
5.75037
0
LINE
8
BLACK
6
CONTINUOUS
10
-4.31069
20
5.75037
11
-4.30583
21
5.75114
0
LINE
8
BLACK
6
CONTINUOUS
10
-4.30583
20
5.75114
11
-4.28417
21
5.75114
0
LINE
8
BLACK
6
CONTINUOUS
10
-4.28417
20
5.75114
11
-4.27931
21
5.75037
0
LINE
8
BLACK
6
CONTINUOUS
10
-4.52931
20
5.75437
11
-4.52492
21
5.75213
0
LINE
8
BLACK
6
CONTINUOUS
10
-4.52492
20
5.75213
11
-4.52143
21
5.74865
0
LINE
8
BLACK
6
CONTINUOUS
10
-4.52143
20
5.74865
11
-4.5192
21
5.74426
0
LINE
8
BLACK
6
CONTINUOUS
10
-4.5192
20
5.74426
11
-4.51843
21
5.73939
0
LINE
8
BLACK
6
CONTINUOUS
10
-4.51843
20
5.73939
11
-4.51843
21
5.72364
0
LINE
8
BLACK
6
CONTINUOUS
10
-4.51843
20
5.72364
11
-4.5192
21
5.71878
0
LINE
8
BLACK
6
CONTINUOUS
10
-4.5192
20
5.71878
11
-4.52143
21
5.71439
0
LINE
8
BLACK
6
CONTINUOUS
10
-4.52143
20
5.71439
11
-4.52492
21
5.7109
0
LINE
8
BLACK
6
CONTINUOUS
10
-4.52492
20
5.7109
11
-4.52931
21
5.70866
0
LINE
8
BLACK
6
CONTINUOUS
10
-4.52931
20
5.70866
11
-4.53417
21
5.70789
0
LINE
8
BLACK
6
CONTINUOUS
10
-4.53417
20
5.70789
11
-4.55583
21
5.70789
0
LINE
8
BLACK
6
CONTINUOUS
10
-4.55583
20
5.70789
11
-4.56069
21
5.70866
0
LINE
8
BLACK
6
CONTINUOUS
10
-4.56069
20
5.70866
11
-4.56508
21
5.7109
0
LINE
8
BLACK
6
CONTINUOUS
10
-4.56508
20
5.7109
11
-4.56857
21
5.71439
0
LINE
8
BLACK
6
CONTINUOUS
10
-4.56857
20
5.71439
11
-4.5708
21
5.71878
0
LINE
8
BLACK
6
CONTINUOUS
10
-4.5708
20
5.71878
11
-4.57157
21
5.72364
0
LINE
8
BLACK
6
CONTINUOUS
10
-4.57157
20
5.72364
11
-4.57157
21
5.73939
0
LINE
8
BLACK
6
CONTINUOUS
10
-4.57157
20
5.73939
11
-4.5708
21
5.74426
0
LINE
8
BLACK
6
CONTINUOUS
10
-4.5708
20
5.74426
11
-4.56857
21
5.74865
0
LINE
8
BLACK
6
CONTINUOUS
10
-4.56857
20
5.74865
11
-4.56508
21
5.75213
0
LINE
8
BLACK
6
CONTINUOUS
10
-4.56508
20
5.75213
11
-4.56069
21
5.75437
0
LINE
8
BLACK
6
CONTINUOUS
10
-4.56069
20
5.75437
11
-4.55583
21
5.75514
0
LINE
8
BLACK
6
CONTINUOUS
10
-4.55583
20
5.75514
11
-4.53417
21
5.75514
0
LINE
8
BLACK
6
CONTINUOUS
10
-4.53417
20
5.75514
11
-4.52931
21
5.75437
0
LINE
8
BLACK
6
CONTINUOUS
10
-4.59301
20
5.76735
11
-4.58802
21
5.7656
0
LINE
8
BLACK
6
CONTINUOUS
10
-4.58802
20
5.7656
11
-4.58377
21
5.76247
0
LINE
8
BLACK
6
CONTINUOUS
10
-4.58377
20
5.76247
11
-4.58064
21
5.75822
0
LINE
8
BLACK
6
CONTINUOUS
10
-4.58064
20
5.75822
11
-4.57889
21
5.75323
0
LINE
8
BLACK
6
CONTINUOUS
10
-4.57889
20
5.75323
11
-4.57858
21
5.74994
0
LINE
8
BLACK
6
CONTINUOUS
10
-4.57858
20
5.74994
11
-4.57858
21
5.73026
0
LINE
8
BLACK
6
CONTINUOUS
10
-4.57858
20
5.73026
11
-4.57889
21
5.72696
0
LINE
8
BLACK
6
CONTINUOUS
10
-4.57889
20
5.72696
11
-4.58064
21
5.72198
0
LINE
8
BLACK
6
CONTINUOUS
10
-4.58064
20
5.72198
11
-4.58377
21
5.71773
0
LINE
8
BLACK
6
CONTINUOUS
10
-4.58377
20
5.71773
11
-4.58802
21
5.71459
0
LINE
8
BLACK
6
CONTINUOUS
10
-4.58802
20
5.71459
11
-4.59301
21
5.71285
0
LINE
8
BLACK
6
CONTINUOUS
10
-4.59301
20
5.71285
11
-4.5963
21
5.71254
0
LINE
8
BLACK
6
CONTINUOUS
10
-4.5963
20
5.71254
11
-4.6337
21
5.71254
0
LINE
8
BLACK
6
CONTINUOUS
10
-4.6337
20
5.71254
11
-4.63699
21
5.71285
0
LINE
8
BLACK
6
CONTINUOUS
10
-4.63699
20
5.71285
11
-4.64198
21
5.71459
0
LINE
8
BLACK
6
CONTINUOUS
10
-4.64198
20
5.71459
11
-4.64623
21
5.71773
0
LINE
8
BLACK
6
CONTINUOUS
10
-4.64623
20
5.71773
11
-4.64936
21
5.72198
0
LINE
8
BLACK
6
CONTINUOUS
10
-4.64936
20
5.72198
11
-4.65111
21
5.72696
0
LINE
8
BLACK
6
CONTINUOUS
10
-4.65111
20
5.72696
11
-4.65142
21
5.73026
0
LINE
8
BLACK
6
CONTINUOUS
10
-4.65142
20
5.73026
11
-4.65142
21
5.74994
0
LINE
8
BLACK
6
CONTINUOUS
10
-4.65142
20
5.74994
11
-4.65111
21
5.75323
0
LINE
8
BLACK
6
CONTINUOUS
10
-4.65111
20
5.75323
11
-4.64936
21
5.75822
0
LINE
8
BLACK
6
CONTINUOUS
10
-4.64936
20
5.75822
11
-4.64623
21
5.76247
0
LINE
8
BLACK
6
CONTINUOUS
10
-4.64623
20
5.76247
11
-4.64198
21
5.7656
0
LINE
8
BLACK
6
CONTINUOUS
10
-4.64198
20
5.7656
11
-4.63699
21
5.76735
0
LINE
8
BLACK
6
CONTINUOUS
10
-4.63699
20
5.76735
11
-4.6337
21
5.76766
0
LINE
8
BLACK
6
CONTINUOUS
10
-4.6337
20
5.76766
11
-4.5963
21
5.76766
0
LINE
8
BLACK
6
CONTINUOUS
10
-4.5963
20
5.76766
11
-4.59301
21
5.76735
0
LINE
8
BLACK
6
CONTINUOUS
10
-4.43651
20
5.80771
11
-4.43559
21
5.80709
0
LINE
8
BLACK
6
CONTINUOUS
10
-4.43559
20
5.80709
11
-4.43467
21
5.80771
0
LINE
8
BLACK
6
CONTINUOUS
10
-4.43467
20
5.80771
11
-4.43165
21
5.80831
0
LINE
8
BLACK
6
CONTINUOUS
10
-4.43165
20
5.80831
11
-4.41394
21
5.80831
0
LINE
8
BLACK
6
CONTINUOUS
10
-4.41394
20
5.80831
11
-4.41092
21
5.80771
0
LINE
8
BLACK
6
CONTINUOUS
10
-4.41092
20
5.80771
11
-4.41
21
5.80709
0
LINE
8
BLACK
6
CONTINUOUS
10
-4.41
20
5.80709
11
-4.40908
21
5.80771
0
LINE
8
BLACK
6
CONTINUOUS
10
-4.40908
20
5.80771
11
-4.40606
21
5.80831
0
LINE
8
BLACK
6
CONTINUOUS
10
-4.40606
20
5.80831
11
-4.38835
21
5.80831
0
LINE
8
BLACK
6
CONTINUOUS
10
-4.38835
20
5.80831
11
-4.38533
21
5.80771
0
LINE
8
BLACK
6
CONTINUOUS
10
-4.38533
20
5.80771
11
-4.38441
21
5.80709
0
LINE
8
BLACK
6
CONTINUOUS
10
-4.38441
20
5.80709
11
-4.38349
21
5.80771
0
LINE
8
BLACK
6
CONTINUOUS
10
-4.38349
20
5.80771
11
-4.38047
21
5.80831
0
LINE
8
BLACK
6
CONTINUOUS
10
-4.38047
20
5.80831
11
-4.36276
21
5.80831
0
LINE
8
BLACK
6
CONTINUOUS
10
-4.36276
20
5.80831
11
-4.35974
21
5.80771
0
LINE
8
BLACK
6
CONTINUOUS
10
-4.35974
20
5.80771
11
-4.35719
21
5.806
0
LINE
8
BLACK
6
CONTINUOUS
10
-4.35719
20
5.806
11
-4.35548
21
5.80345
0
LINE
8
BLACK
6
CONTINUOUS
10
-4.35548
20
5.80345
11
-4.35488
21
5.80043
0
LINE
8
BLACK
6
CONTINUOUS
10
-4.35488
20
5.80043
11
-4.35488
21
5.74335
0
LINE
8
BLACK
6
CONTINUOUS
10
-4.35488
20
5.74335
11
-4.35548
21
5.74033
0
LINE
8
BLACK
6
CONTINUOUS
10
-4.35548
20
5.74033
11
-4.35719
21
5.73778
0
LINE
8
BLACK
6
CONTINUOUS
10
-4.35719
20
5.73778
11
-4.35974
21
5.73607
0
LINE
8
BLACK
6
CONTINUOUS
10
-4.35974
20
5.73607
11
-4.36276
21
5.73547
0
LINE
8
BLACK
6
CONTINUOUS
10
-4.36276
20
5.73547
11
-4.38047
21
5.73547
0
LINE
8
BLACK
6
CONTINUOUS
10
-4.38047
20
5.73547
11
-4.38349
21
5.73607
0
LINE
8
BLACK
6
CONTINUOUS
10
-4.38349
20
5.73607
11
-4.38441
21
5.73669
0
LINE
8
BLACK
6
CONTINUOUS
10
-4.38441
20
5.73669
11
-4.38533
21
5.73607
0
LINE
8
BLACK
6
CONTINUOUS
10
-4.38533
20
5.73607
11
-4.38835
21
5.73547
0
LINE
8
BLACK
6
CONTINUOUS
10
-4.38835
20
5.73547
11
-4.40606
21
5.73547
0
LINE
8
BLACK
6
CONTINUOUS
10
-4.40606
20
5.73547
11
-4.40908
21
5.73607
0
LINE
8
BLACK
6
CONTINUOUS
10
-4.40908
20
5.73607
11
-4.41
21
5.73669
0
LINE
8
BLACK
6
CONTINUOUS
10
-4.41
20
5.73669
11
-4.41092
21
5.73607
0
LINE
8
BLACK
6
CONTINUOUS
10
-4.41092
20
5.73607
11
-4.41394
21
5.73547
0
LINE
8
BLACK
6
CONTINUOUS
10
-4.41394
20
5.73547
11
-4.43165
21
5.73547
0
LINE
8
BLACK
6
CONTINUOUS
10
-4.43165
20
5.73547
11
-4.43467
21
5.73607
0
LINE
8
BLACK
6
CONTINUOUS
10
-4.43467
20
5.73607
11
-4.43559
21
5.73669
0
LINE
8
BLACK
6
CONTINUOUS
10
-4.43559
20
5.73669
11
-4.43651
21
5.73607
0
LINE
8
BLACK
6
CONTINUOUS
10
-4.43651
20
5.73607
11
-4.43953
21
5.73547
0
LINE
8
BLACK
6
CONTINUOUS
10
-4.43953
20
5.73547
11
-4.45724
21
5.73547
0
LINE
8
BLACK
6
CONTINUOUS
10
-4.45724
20
5.73547
11
-4.46026
21
5.73607
0
LINE
8
BLACK
6
CONTINUOUS
10
-4.46026
20
5.73607
11
-4.46281
21
5.73778
0
LINE
8
BLACK
6
CONTINUOUS
10
-4.46281
20
5.73778
11
-4.46452
21
5.74033
0
LINE
8
BLACK
6
CONTINUOUS
10
-4.46452
20
5.74033
11
-4.46512
21
5.74335
0
LINE
8
BLACK
6
CONTINUOUS
10
-4.46512
20
5.74335
11
-4.46512
21
5.80043
0
LINE
8
BLACK
6
CONTINUOUS
10
-4.46512
20
5.80043
11
-4.46452
21
5.80345
0
LINE
8
BLACK
6
CONTINUOUS
10
-4.46452
20
5.80345
11
-4.46281
21
5.806
0
LINE
8
BLACK
6
CONTINUOUS
10
-4.46281
20
5.806
11
-4.46026
21
5.80771
0
LINE
8
BLACK
6
CONTINUOUS
10
-4.46026
20
5.80771
11
-4.45724
21
5.80831
0
LINE
8
BLACK
6
CONTINUOUS
10
-4.45724
20
5.80831
11
-4.43953
21
5.80831
0
LINE
8
BLACK
6
CONTINUOUS
10
-4.43953
20
5.80831
11
-4.43651
21
5.80771
0
LINE
8
BLACK
6
CONTINUOUS
10
-4.77544
20
5.77821
11
-4.77136
21
5.77621
0
LINE
8
BLACK
6
CONTINUOUS
10
-4.77136
20
5.77621
11
-4.76816
21
5.77301
0
LINE
8
BLACK
6
CONTINUOUS
10
-4.76816
20
5.77301
11
-4.76616
21
5.76893
0
LINE
8
BLACK
6
CONTINUOUS
10
-4.76616
20
5.76893
11
-4.76559
21
5.765
0
LINE
8
BLACK
6
CONTINUOUS
10
-4.76559
20
5.765
11
-4.76559
21
5.75319
0
LINE
8
BLACK
6
CONTINUOUS
10
-4.76559
20
5.75319
11
-4.76616
21
5.74926
0
LINE
8
BLACK
6
CONTINUOUS
10
-4.76616
20
5.74926
11
-4.76816
21
5.74518
0
LINE
8
BLACK
6
CONTINUOUS
10
-4.76816
20
5.74518
11
-4.77136
21
5.74197
0
LINE
8
BLACK
6
CONTINUOUS
10
-4.77136
20
5.74197
11
-4.77544
21
5.73998
0
LINE
8
BLACK
6
CONTINUOUS
10
-4.77544
20
5.73998
11
-4.77937
21
5.73941
0
LINE
8
BLACK
6
CONTINUOUS
10
-4.77937
20
5.73941
11
-4.83449
21
5.73941
0
LINE
8
BLACK
6
CONTINUOUS
10
-4.83449
20
5.73941
11
-4.83842
21
5.73998
0
LINE
8
BLACK
6
CONTINUOUS
10
-4.83842
20
5.73998
11
-4.8425
21
5.74197
0
LINE
8
BLACK
6
CONTINUOUS
10
-4.8425
20
5.74197
11
-4.8457
21
5.74518
0
LINE
8
BLACK
6
CONTINUOUS
10
-4.8457
20
5.74518
11
-4.84769
21
5.74926
0
LINE
8
BLACK
6
CONTINUOUS
10
-4.84769
20
5.74926
11
-4.84827
21
5.75319
0
LINE
8
BLACK
6
CONTINUOUS
10
-4.84827
20
5.75319
11
-4.84827
21
5.765
0
LINE
8
BLACK
6
CONTINUOUS
10
-4.84827
20
5.765
11
-4.84769
21
5.76893
0
LINE
8
BLACK
6
CONTINUOUS
10
-4.84769
20
5.76893
11
-4.8457
21
5.77301
0
LINE
8
BLACK
6
CONTINUOUS
10
-4.8457
20
5.77301
11
-4.8425
21
5.77621
0
LINE
8
BLACK
6
CONTINUOUS
10
-4.8425
20
5.77621
11
-4.83842
21
5.77821
0
LINE
8
BLACK
6
CONTINUOUS
10
-4.83842
20
5.77821
11
-4.83449
21
5.77878
0
LINE
8
BLACK
6
CONTINUOUS
10
-4.83449
20
5.77878
11
-4.77937
21
5.77878
0
LINE
8
BLACK
6
CONTINUOUS
10
-4.77937
20
5.77878
11
-4.77544
21
5.77821
0
LINE
8
BLACK
6
CONTINUOUS
10
-4.15733
20
5.77821
11
-4.15325
21
5.77621
0
LINE
8
BLACK
6
CONTINUOUS
10
-4.15325
20
5.77621
11
-4.15005
21
5.77301
0
LINE
8
BLACK
6
CONTINUOUS
10
-4.15005
20
5.77301
11
-4.14805
21
5.76893
0
LINE
8
BLACK
6
CONTINUOUS
10
-4.14805
20
5.76893
11
-4.14748
21
5.765
0
LINE
8
BLACK
6
CONTINUOUS
10
-4.14748
20
5.765
11
-4.14748
21
5.75319
0
LINE
8
BLACK
6
CONTINUOUS
10
-4.14748
20
5.75319
11
-4.14805
21
5.74926
0
LINE
8
BLACK
6
CONTINUOUS
10
-4.14805
20
5.74926
11
-4.15005
21
5.74518
0
LINE
8
BLACK
6
CONTINUOUS
10
-4.15005
20
5.74518
11
-4.15325
21
5.74197
0
LINE
8
BLACK
6
CONTINUOUS
10
-4.15325
20
5.74197
11
-4.15733
21
5.73998
0
LINE
8
BLACK
6
CONTINUOUS
10
-4.15733
20
5.73998
11
-4.16126
21
5.73941
0
LINE
8
BLACK
6
CONTINUOUS
10
-4.16126
20
5.73941
11
-4.21638
21
5.73941
0
LINE
8
BLACK
6
CONTINUOUS
10
-4.21638
20
5.73941
11
-4.22031
21
5.73998
0
LINE
8
BLACK
6
CONTINUOUS
10
-4.22031
20
5.73998
11
-4.22438
21
5.74197
0
LINE
8
BLACK
6
CONTINUOUS
10
-4.22438
20
5.74197
11
-4.22759
21
5.74518
0
LINE
8
BLACK
6
CONTINUOUS
10
-4.22759
20
5.74518
11
-4.22958
21
5.74926
0
LINE
8
BLACK
6
CONTINUOUS
10
-4.22958
20
5.74926
11
-4.23016
21
5.75319
0
LINE
8
BLACK
6
CONTINUOUS
10
-4.23016
20
5.75319
11
-4.23016
21
5.765
0
LINE
8
BLACK
6
CONTINUOUS
10
-4.23016
20
5.765
11
-4.22958
21
5.76893
0
LINE
8
BLACK
6
CONTINUOUS
10
-4.22958
20
5.76893
11
-4.22759
21
5.77301
0
LINE
8
BLACK
6
CONTINUOUS
10
-4.22759
20
5.77301
11
-4.22438
21
5.77621
0
LINE
8
BLACK
6
CONTINUOUS
10
-4.22438
20
5.77621
11
-4.22031
21
5.77821
0
LINE
8
BLACK
6
CONTINUOUS
10
-4.22031
20
5.77821
11
-4.21638
21
5.77878
0
LINE
8
BLACK
6
CONTINUOUS
10
-4.21638
20
5.77878
11
-4.16126
21
5.77878
0
LINE
8
BLACK
6
CONTINUOUS
10
-4.16126
20
5.77878
11
-4.15733
21
5.77821
0
LINE
8
BLACK
6
CONTINUOUS
10
-4.68321
20
5.77897
11
-4.68065
21
5.77726
0
LINE
8
BLACK
6
CONTINUOUS
10
-4.68065
20
5.77726
11
-4.67895
21
5.77471
0
LINE
8
BLACK
6
CONTINUOUS
10
-4.67895
20
5.77471
11
-4.67835
21
5.77169
0
LINE
8
BLACK
6
CONTINUOUS
10
-4.67835
20
5.77169
11
-4.67835
21
5.74807
0
LINE
8
BLACK
6
CONTINUOUS
10
-4.67835
20
5.74807
11
-4.67895
21
5.74506
0
LINE
8
BLACK
6
CONTINUOUS
10
-4.67895
20
5.74506
11
-4.68065
21
5.7425
0
LINE
8
BLACK
6
CONTINUOUS
10
-4.68065
20
5.7425
11
-4.68321
21
5.7408
0
LINE
8
BLACK
6
CONTINUOUS
10
-4.68321
20
5.7408
11
-4.68622
21
5.7402
0
LINE
8
BLACK
6
CONTINUOUS
10
-4.68622
20
5.7402
11
-4.71378
21
5.7402
0
LINE
8
BLACK
6
CONTINUOUS
10
-4.71378
20
5.7402
11
-4.71679
21
5.7408
0
LINE
8
BLACK
6
CONTINUOUS
10
-4.71679
20
5.7408
11
-4.71935
21
5.7425
0
LINE
8
BLACK
6
CONTINUOUS
10
-4.71935
20
5.7425
11
-4.72105
21
5.74506
0
LINE
8
BLACK
6
CONTINUOUS
10
-4.72105
20
5.74506
11
-4.72165
21
5.74807
0
LINE
8
BLACK
6
CONTINUOUS
10
-4.72165
20
5.74807
11
-4.72165
21
5.77169
0
LINE
8
BLACK
6
CONTINUOUS
10
-4.72165
20
5.77169
11
-4.72105
21
5.77471
0
LINE
8
BLACK
6
CONTINUOUS
10
-4.72105
20
5.77471
11
-4.71935
21
5.77726
0
LINE
8
BLACK
6
CONTINUOUS
10
-4.71935
20
5.77726
11
-4.71679
21
5.77897
0
LINE
8
BLACK
6
CONTINUOUS
10
-4.71679
20
5.77897
11
-4.71378
21
5.77957
0
LINE
8
BLACK
6
CONTINUOUS
10
-4.71378
20
5.77957
11
-4.68622
21
5.77957
0
LINE
8
BLACK
6
CONTINUOUS
10
-4.68622
20
5.77957
11
-4.68321
21
5.77897
0
LINE
8
BLACK
6
CONTINUOUS
10
-4.27931
20
5.81533
11
-4.27492
21
5.81309
0
LINE
8
BLACK
6
CONTINUOUS
10
-4.27492
20
5.81309
11
-4.27143
21
5.80961
0
LINE
8
BLACK
6
CONTINUOUS
10
-4.27143
20
5.80961
11
-4.2692
21
5.80522
0
LINE
8
BLACK
6
CONTINUOUS
10
-4.2692
20
5.80522
11
-4.26843
21
5.80035
0
LINE
8
BLACK
6
CONTINUOUS
10
-4.26843
20
5.80035
11
-4.26843
21
5.78461
0
LINE
8
BLACK
6
CONTINUOUS
10
-4.26843
20
5.78461
11
-4.2692
21
5.77974
0
LINE
8
BLACK
6
CONTINUOUS
10
-4.2692
20
5.77974
11
-4.27143
21
5.77535
0
LINE
8
BLACK
6
CONTINUOUS
10
-4.27143
20
5.77535
11
-4.27492
21
5.77187
0
LINE
8
BLACK
6
CONTINUOUS
10
-4.27492
20
5.77187
11
-4.27931
21
5.76963
0
LINE
8
BLACK
6
CONTINUOUS
10
-4.27931
20
5.76963
11
-4.28417
21
5.76886
0
LINE
8
BLACK
6
CONTINUOUS
10
-4.28417
20
5.76886
11
-4.30583
21
5.76886
0
LINE
8
BLACK
6
CONTINUOUS
10
-4.30583
20
5.76886
11
-4.31069
21
5.76963
0
LINE
8
BLACK
6
CONTINUOUS
10
-4.31069
20
5.76963
11
-4.31508
21
5.77187
0
LINE
8
BLACK
6
CONTINUOUS
10
-4.31508
20
5.77187
11
-4.31857
21
5.77535
0
LINE
8
BLACK
6
CONTINUOUS
10
-4.31857
20
5.77535
11
-4.3208
21
5.77974
0
LINE
8
BLACK
6
CONTINUOUS
10
-4.3208
20
5.77974
11
-4.32157
21
5.78461
0
LINE
8
BLACK
6
CONTINUOUS
10
-4.32157
20
5.78461
11
-4.32157
21
5.80035
0
LINE
8
BLACK
6
CONTINUOUS
10
-4.32157
20
5.80035
11
-4.3208
21
5.80522
0
LINE
8
BLACK
6
CONTINUOUS
10
-4.3208
20
5.80522
11
-4.31857
21
5.80961
0
LINE
8
BLACK
6
CONTINUOUS
10
-4.31857
20
5.80961
11
-4.31508
21
5.81309
0
LINE
8
BLACK
6
CONTINUOUS
10
-4.31508
20
5.81309
11
-4.31069
21
5.81533
0
LINE
8
BLACK
6
CONTINUOUS
10
-4.31069
20
5.81533
11
-4.30583
21
5.8161
0
LINE
8
BLACK
6
CONTINUOUS
10
-4.30583
20
5.8161
11
-4.28417
21
5.8161
0
LINE
8
BLACK
6
CONTINUOUS
10
-4.28417
20
5.8161
11
-4.27931
21
5.81533
0
LINE
8
BLACK
6
CONTINUOUS
10
-4.52931
20
5.81933
11
-4.52492
21
5.81709
0
LINE
8
BLACK
6
CONTINUOUS
10
-4.52492
20
5.81709
11
-4.52143
21
5.81361
0
LINE
8
BLACK
6
CONTINUOUS
10
-4.52143
20
5.81361
11
-4.5192
21
5.80922
0
LINE
8
BLACK
6
CONTINUOUS
10
-4.5192
20
5.80922
11
-4.51843
21
5.80435
0
LINE
8
BLACK
6
CONTINUOUS
10
-4.51843
20
5.80435
11
-4.51843
21
5.7886
0
LINE
8
BLACK
6
CONTINUOUS
10
-4.51843
20
5.7886
11
-4.5192
21
5.78374
0
LINE
8
BLACK
6
CONTINUOUS
10
-4.5192
20
5.78374
11
-4.52143
21
5.77935
0
LINE
8
BLACK
6
CONTINUOUS
10
-4.52143
20
5.77935
11
-4.52492
21
5.77586
0
LINE
8
BLACK
6
CONTINUOUS
10
-4.52492
20
5.77586
11
-4.52931
21
5.77363
0
LINE
8
BLACK
6
CONTINUOUS
10
-4.52931
20
5.77363
11
-4.53417
21
5.77285
0
LINE
8
BLACK
6
CONTINUOUS
10
-4.53417
20
5.77285
11
-4.55583
21
5.77285
0
LINE
8
BLACK
6
CONTINUOUS
10
-4.55583
20
5.77285
11
-4.56069
21
5.77363
0
LINE
8
BLACK
6
CONTINUOUS
10
-4.56069
20
5.77363
11
-4.56508
21
5.77586
0
LINE
8
BLACK
6
CONTINUOUS
10
-4.56508
20
5.77586
11
-4.56857
21
5.77935
0
LINE
8
BLACK
6
CONTINUOUS
10
-4.56857
20
5.77935
11
-4.5708
21
5.78374
0
LINE
8
BLACK
6
CONTINUOUS
10
-4.5708
20
5.78374
11
-4.57157
21
5.7886
0
LINE
8
BLACK
6
CONTINUOUS
10
-4.57157
20
5.7886
11
-4.57157
21
5.80435
0
LINE
8
BLACK
6
CONTINUOUS
10
-4.57157
20
5.80435
11
-4.5708
21
5.80922
0
LINE
8
BLACK
6
CONTINUOUS
10
-4.5708
20
5.80922
11
-4.56857
21
5.81361
0
LINE
8
BLACK
6
CONTINUOUS
10
-4.56857
20
5.81361
11
-4.56508
21
5.81709
0
LINE
8
BLACK
6
CONTINUOUS
10
-4.56508
20
5.81709
11
-4.56069
21
5.81933
0
LINE
8
BLACK
6
CONTINUOUS
10
-4.56069
20
5.81933
11
-4.55583
21
5.8201
0
LINE
8
BLACK
6
CONTINUOUS
10
-4.55583
20
5.8201
11
-4.53417
21
5.8201
0
LINE
8
BLACK
6
CONTINUOUS
10
-4.53417
20
5.8201
11
-4.52931
21
5.81933
0
LINE
8
BLACK
6
CONTINUOUS
10
-4.59301
20
5.84215
11
-4.58802
21
5.84041
0
LINE
8
BLACK
6
CONTINUOUS
10
-4.58802
20
5.84041
11
-4.58377
21
5.83727
0
LINE
8
BLACK
6
CONTINUOUS
10
-4.58377
20
5.83727
11
-4.58064
21
5.83302
0
LINE
8
BLACK
6
CONTINUOUS
10
-4.58064
20
5.83302
11
-4.57889
21
5.82804
0
LINE
8
BLACK
6
CONTINUOUS
10
-4.57889
20
5.82804
11
-4.57858
21
5.82474
0
LINE
8
BLACK
6
CONTINUOUS
10
-4.57858
20
5.82474
11
-4.57858
21
5.80506
0
LINE
8
BLACK
6
CONTINUOUS
10
-4.57858
20
5.80506
11
-4.57889
21
5.80177
0
LINE
8
BLACK
6
CONTINUOUS
10
-4.57889
20
5.80177
11
-4.58064
21
5.79678
0
LINE
8
BLACK
6
CONTINUOUS
10
-4.58064
20
5.79678
11
-4.58377
21
5.79253
0
LINE
8
BLACK
6
CONTINUOUS
10
-4.58377
20
5.79253
11
-4.58802
21
5.7894
0
LINE
8
BLACK
6
CONTINUOUS
10
-4.58802
20
5.7894
11
-4.59301
21
5.78765
0
LINE
8
BLACK
6
CONTINUOUS
10
-4.59301
20
5.78765
11
-4.5963
21
5.78734
0
LINE
8
BLACK
6
CONTINUOUS
10
-4.5963
20
5.78734
11
-4.6337
21
5.78734
0
LINE
8
BLACK
6
CONTINUOUS
10
-4.6337
20
5.78734
11
-4.63699
21
5.78765
0
LINE
8
BLACK
6
CONTINUOUS
10
-4.63699
20
5.78765
11
-4.64198
21
5.7894
0
LINE
8
BLACK
6
CONTINUOUS
10
-4.64198
20
5.7894
11
-4.64623
21
5.79253
0
LINE
8
BLACK
6
CONTINUOUS
10
-4.64623
20
5.79253
11
-4.64936
21
5.79678
0
LINE
8
BLACK
6
CONTINUOUS
10
-4.64936
20
5.79678
11
-4.65111
21
5.80177
0
LINE
8
BLACK
6
CONTINUOUS
10
-4.65111
20
5.80177
11
-4.65142
21
5.80506
0
LINE
8
BLACK
6
CONTINUOUS
10
-4.65142
20
5.80506
11
-4.65142
21
5.82474
0
LINE
8
BLACK
6
CONTINUOUS
10
-4.65142
20
5.82474
11
-4.65111
21
5.82804
0
LINE
8
BLACK
6
CONTINUOUS
10
-4.65111
20
5.82804
11
-4.64936
21
5.83302
0
LINE
8
BLACK
6
CONTINUOUS
10
-4.64936
20
5.83302
11
-4.64623
21
5.83727
0
LINE
8
BLACK
6
CONTINUOUS
10
-4.64623
20
5.83727
11
-4.64198
21
5.84041
0
LINE
8
BLACK
6
CONTINUOUS
10
-4.64198
20
5.84041
11
-4.63699
21
5.84215
0
LINE
8
BLACK
6
CONTINUOUS
10
-4.63699
20
5.84215
11
-4.6337
21
5.84246
0
LINE
8
BLACK
6
CONTINUOUS
10
-4.6337
20
5.84246
11
-4.5963
21
5.84246
0
LINE
8
BLACK
6
CONTINUOUS
10
-4.5963
20
5.84246
11
-4.59301
21
5.84215
0
LINE
8
BLACK
6
CONTINUOUS
10
-4.68321
20
5.83409
11
-4.68065
21
5.83238
0
LINE
8
BLACK
6
CONTINUOUS
10
-4.68065
20
5.83238
11
-4.67895
21
5.82982
0
LINE
8
BLACK
6
CONTINUOUS
10
-4.67895
20
5.82982
11
-4.67835
21
5.82681
0
LINE
8
BLACK
6
CONTINUOUS
10
-4.67835
20
5.82681
11
-4.67835
21
5.80319
0
LINE
8
BLACK
6
CONTINUOUS
10
-4.67835
20
5.80319
11
-4.67895
21
5.80018
0
LINE
8
BLACK
6
CONTINUOUS
10
-4.67895
20
5.80018
11
-4.68065
21
5.79762
0
LINE
8
BLACK
6
CONTINUOUS
10
-4.68065
20
5.79762
11
-4.68321
21
5.79591
0
LINE
8
BLACK
6
CONTINUOUS
10
-4.68321
20
5.79591
11
-4.68622
21
5.79531
0
LINE
8
BLACK
6
CONTINUOUS
10
-4.68622
20
5.79531
11
-4.71378
21
5.79531
0
LINE
8
BLACK
6
CONTINUOUS
10
-4.71378
20
5.79531
11
-4.71679
21
5.79591
0
LINE
8
BLACK
6
CONTINUOUS
10
-4.71679
20
5.79591
11
-4.71935
21
5.79762
0
LINE
8
BLACK
6
CONTINUOUS
10
-4.71935
20
5.79762
11
-4.72105
21
5.80018
0
LINE
8
BLACK
6
CONTINUOUS
10
-4.72105
20
5.80018
11
-4.72165
21
5.80319
0
LINE
8
BLACK
6
CONTINUOUS
10
-4.72165
20
5.80319
11
-4.72165
21
5.82681
0
LINE
8
BLACK
6
CONTINUOUS
10
-4.72165
20
5.82681
11
-4.72105
21
5.82982
0
LINE
8
BLACK
6
CONTINUOUS
10
-4.72105
20
5.82982
11
-4.71935
21
5.83238
0
LINE
8
BLACK
6
CONTINUOUS
10
-4.71935
20
5.83238
11
-4.71679
21
5.83409
0
LINE
8
BLACK
6
CONTINUOUS
10
-4.71679
20
5.83409
11
-4.71378
21
5.83469
0
LINE
8
BLACK
6
CONTINUOUS
10
-4.71378
20
5.83469
11
-4.68622
21
5.83469
0
LINE
8
BLACK
6
CONTINUOUS
10
-4.68622
20
5.83469
11
-4.68321
21
5.83409
0
LINE
8
BLACK
6
CONTINUOUS
10
-4.88631
20
5.85918
11
-4.88133
21
5.85744
0
LINE
8
BLACK
6
CONTINUOUS
10
-4.88133
20
5.85744
11
-4.87708
21
5.8543
0
LINE
8
BLACK
6
CONTINUOUS
10
-4.87708
20
5.8543
11
-4.87394
21
5.85005
0
LINE
8
BLACK
6
CONTINUOUS
10
-4.87394
20
5.85005
11
-4.8722
21
5.84507
0
LINE
8
BLACK
6
CONTINUOUS
10
-4.8722
20
5.84507
11
-4.87189
21
5.84177
0
LINE
8
BLACK
6
CONTINUOUS
10
-4.87189
20
5.84177
11
-4.87189
21
5.82209
0
LINE
8
BLACK
6
CONTINUOUS
10
-4.87189
20
5.82209
11
-4.8722
21
5.81879
0
LINE
8
BLACK
6
CONTINUOUS
10
-4.8722
20
5.81879
11
-4.87394
21
5.81381
0
LINE
8
BLACK
6
CONTINUOUS
10
-4.87394
20
5.81381
11
-4.87708
21
5.80956
0
LINE
8
BLACK
6
CONTINUOUS
10
-4.87708
20
5.80956
11
-4.88133
21
5.80642
0
LINE
8
BLACK
6
CONTINUOUS
10
-4.88133
20
5.80642
11
-4.88631
21
5.80468
0
LINE
8
BLACK
6
CONTINUOUS
10
-4.88631
20
5.80468
11
-4.88961
21
5.80437
0
LINE
8
BLACK
6
CONTINUOUS
10
-4.88961
20
5.80437
11
-4.97622
21
5.80437
0
LINE
8
BLACK
6
CONTINUOUS
10
-4.97622
20
5.80437
11
-4.97951
21
5.80468
0
LINE
8
BLACK
6
CONTINUOUS
10
-4.97951
20
5.80468
11
-4.9845
21
5.80642
0
LINE
8
BLACK
6
CONTINUOUS
10
-4.9845
20
5.80642
11
-4.98875
21
5.80956
0
LINE
8
BLACK
6
CONTINUOUS
10
-4.98875
20
5.80956
11
-4.99188
21
5.81381
0
LINE
8
BLACK
6
CONTINUOUS
10
-4.99188
20
5.81381
11
-4.99363
21
5.81879
0
LINE
8
BLACK
6
CONTINUOUS
10
-4.99363
20
5.81879
11
-4.99394
21
5.82209
0
LINE
8
BLACK
6
CONTINUOUS
10
-4.99394
20
5.82209
11
-4.99394
21
5.84177
0
LINE
8
BLACK
6
CONTINUOUS
10
-4.99394
20
5.84177
11
-4.99363
21
5.84507
0
LINE
8
BLACK
6
CONTINUOUS
10
-4.99363
20
5.84507
11
-4.99188
21
5.85005
0
LINE
8
BLACK
6
CONTINUOUS
10
-4.99188
20
5.85005
11
-4.98875
21
5.8543
0
LINE
8
BLACK
6
CONTINUOUS
10
-4.98875
20
5.8543
11
-4.9845
21
5.85744
0
LINE
8
BLACK
6
CONTINUOUS
10
-4.9845
20
5.85744
11
-4.97951
21
5.85918
0
LINE
8
BLACK
6
CONTINUOUS
10
-4.97951
20
5.85918
11
-4.97622
21
5.85949
0
LINE
8
BLACK
6
CONTINUOUS
10
-4.97622
20
5.85949
11
-4.88961
21
5.85949
0
LINE
8
BLACK
6
CONTINUOUS
10
-4.88961
20
5.85949
11
-4.88631
21
5.85918
0
LINE
8
BLACK
6
CONTINUOUS
10
-4.01623
20
5.85918
11
-4.01125
21
5.85744
0
LINE
8
BLACK
6
CONTINUOUS
10
-4.01125
20
5.85744
11
-4.007
21
5.8543
0
LINE
8
BLACK
6
CONTINUOUS
10
-4.007
20
5.8543
11
-4.00386
21
5.85005
0
LINE
8
BLACK
6
CONTINUOUS
10
-4.00386
20
5.85005
11
-4.00212
21
5.84507
0
LINE
8
BLACK
6
CONTINUOUS
10
-4.00212
20
5.84507
11
-4.00181
21
5.84177
0
LINE
8
BLACK
6
CONTINUOUS
10
-4.00181
20
5.84177
11
-4.00181
21
5.82209
0
LINE
8
BLACK
6
CONTINUOUS
10
-4.00181
20
5.82209
11
-4.00212
21
5.81879
0
LINE
8
BLACK
6
CONTINUOUS
10
-4.00212
20
5.81879
11
-4.00386
21
5.81381
0
LINE
8
BLACK
6
CONTINUOUS
10
-4.00386
20
5.81381
11
-4.007
21
5.80956
0
LINE
8
BLACK
6
CONTINUOUS
10
-4.007
20
5.80956
11
-4.01125
21
5.80642
0
LINE
8
BLACK
6
CONTINUOUS
10
-4.01125
20
5.80642
11
-4.01623
21
5.80468
0
LINE
8
BLACK
6
CONTINUOUS
10
-4.01623
20
5.80468
11
-4.01953
21
5.80437
0
LINE
8
BLACK
6
CONTINUOUS
10
-4.01953
20
5.80437
11
-4.10614
21
5.80437
0
LINE
8
BLACK
6
CONTINUOUS
10
-4.10614
20
5.80437
11
-4.10944
21
5.80468
0
LINE
8
BLACK
6
CONTINUOUS
10
-4.10944
20
5.80468
11
-4.11442
21
5.80642
0
LINE
8
BLACK
6
CONTINUOUS
10
-4.11442
20
5.80642
11
-4.11867
21
5.80956
0
LINE
8
BLACK
6
CONTINUOUS
10
-4.11867
20
5.80956
11
-4.12181
21
5.81381
0
LINE
8
BLACK
6
CONTINUOUS
10
-4.12181
20
5.81381
11
-4.12355
21
5.81879
0
LINE
8
BLACK
6
CONTINUOUS
10
-4.12355
20
5.81879
11
-4.12386
21
5.82209
0
LINE
8
BLACK
6
CONTINUOUS
10
-4.12386
20
5.82209
11
-4.12386
21
5.84177
0
LINE
8
BLACK
6
CONTINUOUS
10
-4.12386
20
5.84177
11
-4.12355
21
5.84507
0
LINE
8
BLACK
6
CONTINUOUS
10
-4.12355
20
5.84507
11
-4.12181
21
5.85005
0
LINE
8
BLACK
6
CONTINUOUS
10
-4.12181
20
5.85005
11
-4.11867
21
5.8543
0
LINE
8
BLACK
6
CONTINUOUS
10
-4.11867
20
5.8543
11
-4.11442
21
5.85744
0
LINE
8
BLACK
6
CONTINUOUS
10
-4.11442
20
5.85744
11
-4.10944
21
5.85918
0
LINE
8
BLACK
6
CONTINUOUS
10
-4.10944
20
5.85918
11
-4.10614
21
5.85949
0
LINE
8
BLACK
6
CONTINUOUS
10
-4.10614
20
5.85949
11
-4.01953
21
5.85949
0
LINE
8
BLACK
6
CONTINUOUS
10
-4.01953
20
5.85949
11
-4.01623
21
5.85918
0
LINE
8
BLACK
6
CONTINUOUS
10
-4.37431
20
5.87437
11
-4.36992
21
5.87213
0
LINE
8
BLACK
6
CONTINUOUS
10
-4.36992
20
5.87213
11
-4.36643
21
5.86865
0
LINE
8
BLACK
6
CONTINUOUS
10
-4.36643
20
5.86865
11
-4.3642
21
5.86426
0
LINE
8
BLACK
6
CONTINUOUS
10
-4.3642
20
5.86426
11
-4.36343
21
5.85939
0
LINE
8
BLACK
6
CONTINUOUS
10
-4.36343
20
5.85939
11
-4.36343
21
5.84364
0
LINE
8
BLACK
6
CONTINUOUS
10
-4.36343
20
5.84364
11
-4.3642
21
5.83878
0
LINE
8
BLACK
6
CONTINUOUS
10
-4.3642
20
5.83878
11
-4.36643
21
5.83439
0
LINE
8
BLACK
6
CONTINUOUS
10
-4.36643
20
5.83439
11
-4.36992
21
5.8309
0
LINE
8
BLACK
6
CONTINUOUS
10
-4.36992
20
5.8309
11
-4.37431
21
5.82866
0
LINE
8
BLACK
6
CONTINUOUS
10
-4.37431
20
5.82866
11
-4.37917
21
5.82789
0
LINE
8
BLACK
6
CONTINUOUS
10
-4.37917
20
5.82789
11
-4.40083
21
5.82789
0
LINE
8
BLACK
6
CONTINUOUS
10
-4.40083
20
5.82789
11
-4.40569
21
5.82866
0
LINE
8
BLACK
6
CONTINUOUS
10
-4.40569
20
5.82866
11
-4.41008
21
5.8309
0
LINE
8
BLACK
6
CONTINUOUS
10
-4.41008
20
5.8309
11
-4.41357
21
5.83439
0
LINE
8
BLACK
6
CONTINUOUS
10
-4.41357
20
5.83439
11
-4.4158
21
5.83878
0
LINE
8
BLACK
6
CONTINUOUS
10
-4.4158
20
5.83878
11
-4.41657
21
5.84364
0
LINE
8
BLACK
6
CONTINUOUS
10
-4.41657
20
5.84364
11
-4.41657
21
5.85939
0
LINE
8
BLACK
6
CONTINUOUS
10
-4.41657
20
5.85939
11
-4.4158
21
5.86426
0
LINE
8
BLACK
6
CONTINUOUS
10
-4.4158
20
5.86426
11
-4.41357
21
5.86865
0
LINE
8
BLACK
6
CONTINUOUS
10
-4.41357
20
5.86865
11
-4.41008
21
5.87213
0
LINE
8
BLACK
6
CONTINUOUS
10
-4.41008
20
5.87213
11
-4.40569
21
5.87437
0
LINE
8
BLACK
6
CONTINUOUS
10
-4.40569
20
5.87437
11
-4.40083
21
5.87514
0
LINE
8
BLACK
6
CONTINUOUS
10
-4.40083
20
5.87514
11
-4.37917
21
5.87514
0
LINE
8
BLACK
6
CONTINUOUS
10
-4.37917
20
5.87514
11
-4.37431
21
5.87437
0
LINE
8
BLACK
6
CONTINUOUS
10
-4.29431
20
5.87437
11
-4.28992
21
5.87213
0
LINE
8
BLACK
6
CONTINUOUS
10
-4.28992
20
5.87213
11
-4.28643
21
5.86865
0
LINE
8
BLACK
6
CONTINUOUS
10
-4.28643
20
5.86865
11
-4.2842
21
5.86426
0
LINE
8
BLACK
6
CONTINUOUS
10
-4.2842
20
5.86426
11
-4.28343
21
5.85939
0
LINE
8
BLACK
6
CONTINUOUS
10
-4.28343
20
5.85939
11
-4.28343
21
5.84364
0
LINE
8
BLACK
6
CONTINUOUS
10
-4.28343
20
5.84364
11
-4.2842
21
5.83878
0
LINE
8
BLACK
6
CONTINUOUS
10
-4.2842
20
5.83878
11
-4.28643
21
5.83439
0
LINE
8
BLACK
6
CONTINUOUS
10
-4.28643
20
5.83439
11
-4.28992
21
5.8309
0
LINE
8
BLACK
6
CONTINUOUS
10
-4.28992
20
5.8309
11
-4.29431
21
5.82866
0
LINE
8
BLACK
6
CONTINUOUS
10
-4.29431
20
5.82866
11
-4.29917
21
5.82789
0
LINE
8
BLACK
6
CONTINUOUS
10
-4.29917
20
5.82789
11
-4.32083
21
5.82789
0
LINE
8
BLACK
6
CONTINUOUS
10
-4.32083
20
5.82789
11
-4.32569
21
5.82866
0
LINE
8
BLACK
6
CONTINUOUS
10
-4.32569
20
5.82866
11
-4.33008
21
5.8309
0
LINE
8
BLACK
6
CONTINUOUS
10
-4.33008
20
5.8309
11
-4.33357
21
5.83439
0
LINE
8
BLACK
6
CONTINUOUS
10
-4.33357
20
5.83439
11
-4.3358
21
5.83878
0
LINE
8
BLACK
6
CONTINUOUS
10
-4.3358
20
5.83878
11
-4.33657
21
5.84364
0
LINE
8
BLACK
6
CONTINUOUS
10
-4.33657
20
5.84364
11
-4.33657
21
5.85939
0
LINE
8
BLACK
6
CONTINUOUS
10
-4.33657
20
5.85939
11
-4.3358
21
5.86426
0
LINE
8
BLACK
6
CONTINUOUS
10
-4.3358
20
5.86426
11
-4.33357
21
5.86865
0
LINE
8
BLACK
6
CONTINUOUS
10
-4.33357
20
5.86865
11
-4.33008
21
5.87213
0
LINE
8
BLACK
6
CONTINUOUS
10
-4.33008
20
5.87213
11
-4.32569
21
5.87437
0
LINE
8
BLACK
6
CONTINUOUS
10
-4.32569
20
5.87437
11
-4.32083
21
5.87514
0
LINE
8
BLACK
6
CONTINUOUS
10
-4.32083
20
5.87514
11
-4.29917
21
5.87514
0
LINE
8
BLACK
6
CONTINUOUS
10
-4.29917
20
5.87514
11
-4.29431
21
5.87437
0
LINE
8
BLACK
6
CONTINUOUS
10
-4.50874
20
5.9158
11
-4.50435
21
5.91357
0
LINE
8
BLACK
6
CONTINUOUS
10
-4.50435
20
5.91357
11
-4.50086
21
5.91008
0
LINE
8
BLACK
6
CONTINUOUS
10
-4.50086
20
5.91008
11
-4.49863
21
5.90569
0
LINE
8
BLACK
6
CONTINUOUS
10
-4.49863
20
5.90569
11
-4.49785
21
5.90083
0
LINE
8
BLACK
6
CONTINUOUS
10
-4.49785
20
5.90083
11
-4.49785
21
5.87917
0
LINE
8
BLACK
6
CONTINUOUS
10
-4.49785
20
5.87917
11
-4.49863
21
5.87431
0
LINE
8
BLACK
6
CONTINUOUS
10
-4.49863
20
5.87431
11
-4.50086
21
5.86992
0
LINE
8
BLACK
6
CONTINUOUS
10
-4.50086
20
5.86992
11
-4.50435
21
5.86643
0
LINE
8
BLACK
6
CONTINUOUS
10
-4.50435
20
5.86643
11
-4.50874
21
5.8642
0
LINE
8
BLACK
6
CONTINUOUS
10
-4.50874
20
5.8642
11
-4.5136
21
5.86343
0
LINE
8
BLACK
6
CONTINUOUS
10
-4.5136
20
5.86343
11
-4.52935
21
5.86343
0
LINE
8
BLACK
6
CONTINUOUS
10
-4.52935
20
5.86343
11
-4.53422
21
5.8642
0
LINE
8
BLACK
6
CONTINUOUS
10
-4.53422
20
5.8642
11
-4.53861
21
5.86643
0
LINE
8
BLACK
6
CONTINUOUS
10
-4.53861
20
5.86643
11
-4.54209
21
5.86992
0
LINE
8
BLACK
6
CONTINUOUS
10
-4.54209
20
5.86992
11
-4.54433
21
5.87431
0
LINE
8
BLACK
6
CONTINUOUS
10
-4.54433
20
5.87431
11
-4.5451
21
5.87917
0
LINE
8
BLACK
6
CONTINUOUS
10
-4.5451
20
5.87917
11
-4.5451
21
5.90083
0
LINE
8
BLACK
6
CONTINUOUS
10
-4.5451
20
5.90083
11
-4.54433
21
5.90569
0
LINE
8
BLACK
6
CONTINUOUS
10
-4.54433
20
5.90569
11
-4.54209
21
5.91008
0
LINE
8
BLACK
6
CONTINUOUS
10
-4.54209
20
5.91008
11
-4.53861
21
5.91357
0
LINE
8
BLACK
6
CONTINUOUS
10
-4.53861
20
5.91357
11
-4.53422
21
5.9158
0
LINE
8
BLACK
6
CONTINUOUS
10
-4.53422
20
5.9158
11
-4.52935
21
5.91657
0
LINE
8
BLACK
6
CONTINUOUS
10
-4.52935
20
5.91657
11
-4.5136
21
5.91657
0
LINE
8
BLACK
6
CONTINUOUS
10
-4.5136
20
5.91657
11
-4.50874
21
5.9158
0
LINE
8
BLACK
6
CONTINUOUS
10
-4.44378
20
5.9158
11
-4.43939
21
5.91357
0
LINE
8
BLACK
6
CONTINUOUS
10
-4.43939
20
5.91357
11
-4.4359
21
5.91008
0
LINE
8
BLACK
6
CONTINUOUS
10
-4.4359
20
5.91008
11
-4.43366
21
5.90569
0
LINE
8
BLACK
6
CONTINUOUS
10
-4.43366
20
5.90569
11
-4.43289
21
5.90083
0
LINE
8
BLACK
6
CONTINUOUS
10
-4.43289
20
5.90083
11
-4.43289
21
5.87917
0
LINE
8
BLACK
6
CONTINUOUS
10
-4.43289
20
5.87917
11
-4.43366
21
5.87431
0
LINE
8
BLACK
6
CONTINUOUS
10
-4.43366
20
5.87431
11
-4.4359
21
5.86992
0
LINE
8
BLACK
6
CONTINUOUS
10
-4.4359
20
5.86992
11
-4.43939
21
5.86643
0
LINE
8
BLACK
6
CONTINUOUS
10
-4.43939
20
5.86643
11
-4.44378
21
5.8642
0
LINE
8
BLACK
6
CONTINUOUS
10
-4.44378
20
5.8642
11
-4.44864
21
5.86343
0
LINE
8
BLACK
6
CONTINUOUS
10
-4.44864
20
5.86343
11
-4.46439
21
5.86343
0
LINE
8
BLACK
6
CONTINUOUS
10
-4.46439
20
5.86343
11
-4.46926
21
5.8642
0
LINE
8
BLACK
6
CONTINUOUS
10
-4.46926
20
5.8642
11
-4.47365
21
5.86643
0
LINE
8
BLACK
6
CONTINUOUS
10
-4.47365
20
5.86643
11
-4.47713
21
5.86992
0
LINE
8
BLACK
6
CONTINUOUS
10
-4.47713
20
5.86992
11
-4.47937
21
5.87431
0
LINE
8
BLACK
6
CONTINUOUS
10
-4.47937
20
5.87431
11
-4.48014
21
5.87917
0
LINE
8
BLACK
6
CONTINUOUS
10
-4.48014
20
5.87917
11
-4.48014
21
5.90083
0
LINE
8
BLACK
6
CONTINUOUS
10
-4.48014
20
5.90083
11
-4.47937
21
5.90569
0
LINE
8
BLACK
6
CONTINUOUS
10
-4.47937
20
5.90569
11
-4.47713
21
5.91008
0
LINE
8
BLACK
6
CONTINUOUS
10
-4.47713
20
5.91008
11
-4.47365
21
5.91357
0
LINE
8
BLACK
6
CONTINUOUS
10
-4.47365
20
5.91357
11
-4.46926
21
5.9158
0
LINE
8
BLACK
6
CONTINUOUS
10
-4.46926
20
5.9158
11
-4.46439
21
5.91657
0
LINE
8
BLACK
6
CONTINUOUS
10
-4.46439
20
5.91657
11
-4.44864
21
5.91657
0
LINE
8
BLACK
6
CONTINUOUS
10
-4.44864
20
5.91657
11
-4.44378
21
5.9158
0
LINE
8
BLACK
6
CONTINUOUS
10
-4.70406
20
5.93861
11
-4.69979
21
5.93653
0
LINE
8
BLACK
6
CONTINUOUS
10
-4.69979
20
5.93653
11
-4.69643
21
5.93317
0
LINE
8
BLACK
6
CONTINUOUS
10
-4.69643
20
5.93317
11
-4.69434
21
5.9289
0
LINE
8
BLACK
6
CONTINUOUS
10
-4.69434
20
5.9289
11
-4.69374
21
5.92478
0
LINE
8
BLACK
6
CONTINUOUS
10
-4.69374
20
5.92478
11
-4.69374
21
5.87885
0
LINE
8
BLACK
6
CONTINUOUS
10
-4.69374
20
5.87885
11
-4.69434
21
5.87473
0
LINE
8
BLACK
6
CONTINUOUS
10
-4.69434
20
5.87473
11
-4.69643
21
5.87046
0
LINE
8
BLACK
6
CONTINUOUS
10
-4.69643
20
5.87046
11
-4.69979
21
5.8671
0
LINE
8
BLACK
6
CONTINUOUS
10
-4.69979
20
5.8671
11
-4.70406
21
5.86501
0
LINE
8
BLACK
6
CONTINUOUS
10
-4.70406
20
5.86501
11
-4.70818
21
5.86441
0
LINE
8
BLACK
6
CONTINUOUS
10
-4.70818
20
5.86441
11
-4.74427
21
5.86441
0
LINE
8
BLACK
6
CONTINUOUS
10
-4.74427
20
5.86441
11
-4.74838
21
5.86501
0
LINE
8
BLACK
6
CONTINUOUS
10
-4.74838
20
5.86501
11
-4.75265
21
5.8671
0
LINE
8
BLACK
6
CONTINUOUS
10
-4.75265
20
5.8671
11
-4.75601
21
5.87046
0
LINE
8
BLACK
6
CONTINUOUS
10
-4.75601
20
5.87046
11
-4.7581
21
5.87473
0
LINE
8
BLACK
6
CONTINUOUS
10
-4.7581
20
5.87473
11
-4.7587
21
5.87885
0
LINE
8
BLACK
6
CONTINUOUS
10
-4.7587
20
5.87885
11
-4.7587
21
5.92478
0
LINE
8
BLACK
6
CONTINUOUS
10
-4.7587
20
5.92478
11
-4.7581
21
5.9289
0
LINE
8
BLACK
6
CONTINUOUS
10
-4.7581
20
5.9289
11
-4.75601
21
5.93317
0
LINE
8
BLACK
6
CONTINUOUS
10
-4.75601
20
5.93317
11
-4.75265
21
5.93653
0
LINE
8
BLACK
6
CONTINUOUS
10
-4.75265
20
5.93653
11
-4.74838
21
5.93861
0
LINE
8
BLACK
6
CONTINUOUS
10
-4.74838
20
5.93861
11
-4.74427
21
5.93921
0
LINE
8
BLACK
6
CONTINUOUS
10
-4.74427
20
5.93921
11
-4.70818
21
5.93921
0
LINE
8
BLACK
6
CONTINUOUS
10
-4.70818
20
5.93921
11
-4.70406
21
5.93861
0
LINE
8
BLACK
6
CONTINUOUS
10
-4.56232
20
5.93861
11
-4.55806
21
5.93653
0
LINE
8
BLACK
6
CONTINUOUS
10
-4.55806
20
5.93653
11
-4.5547
21
5.93317
0
LINE
8
BLACK
6
CONTINUOUS
10
-4.5547
20
5.93317
11
-4.55261
21
5.9289
0
LINE
8
BLACK
6
CONTINUOUS
10
-4.55261
20
5.9289
11
-4.55201
21
5.92478
0
LINE
8
BLACK
6
CONTINUOUS
10
-4.55201
20
5.92478
11
-4.55201
21
5.87885
0
LINE
8
BLACK
6
CONTINUOUS
10
-4.55201
20
5.87885
11
-4.55261
21
5.87473
0
LINE
8
BLACK
6
CONTINUOUS
10
-4.55261
20
5.87473
11
-4.5547
21
5.87046
0
LINE
8
BLACK
6
CONTINUOUS
10
-4.5547
20
5.87046
11
-4.55806
21
5.8671
0
LINE
8
BLACK
6
CONTINUOUS
10
-4.55806
20
5.8671
11
-4.56232
21
5.86501
0
LINE
8
BLACK
6
CONTINUOUS
10
-4.56232
20
5.86501
11
-4.56644
21
5.86441
0
LINE
8
BLACK
6
CONTINUOUS
10
-4.56644
20
5.86441
11
-4.60253
21
5.86441
0
LINE
8
BLACK
6
CONTINUOUS
10
-4.60253
20
5.86441
11
-4.60665
21
5.86501
0
LINE
8
BLACK
6
CONTINUOUS
10
-4.60665
20
5.86501
11
-4.61092
21
5.8671
0
LINE
8
BLACK
6
CONTINUOUS
10
-4.61092
20
5.8671
11
-4.61428
21
5.87046
0
LINE
8
BLACK
6
CONTINUOUS
10
-4.61428
20
5.87046
11
-4.61637
21
5.87473
0
LINE
8
BLACK
6
CONTINUOUS
10
-4.61637
20
5.87473
11
-4.61697
21
5.87885
0
LINE
8
BLACK
6
CONTINUOUS
10
-4.61697
20
5.87885
11
-4.61697
21
5.92478
0
LINE
8
BLACK
6
CONTINUOUS
10
-4.61697
20
5.92478
11
-4.61637
21
5.9289
0
LINE
8
BLACK
6
CONTINUOUS
10
-4.61637
20
5.9289
11
-4.61428
21
5.93317
0
LINE
8
BLACK
6
CONTINUOUS
10
-4.61428
20
5.93317
11
-4.61092
21
5.93653
0
LINE
8
BLACK
6
CONTINUOUS
10
-4.61092
20
5.93653
11
-4.60665
21
5.93861
0
LINE
8
BLACK
6
CONTINUOUS
10
-4.60665
20
5.93861
11
-4.60253
21
5.93921
0
LINE
8
BLACK
6
CONTINUOUS
10
-4.60253
20
5.93921
11
-4.56644
21
5.93921
0
LINE
8
BLACK
6
CONTINUOUS
10
-4.56644
20
5.93921
11
-4.56232
21
5.93861
0
LINE
8
BLACK
6
CONTINUOUS
10
-4.37431
20
5.93933
11
-4.36992
21
5.93709
0
LINE
8
BLACK
6
CONTINUOUS
10
-4.36992
20
5.93709
11
-4.36643
21
5.93361
0
LINE
8
BLACK
6
CONTINUOUS
10
-4.36643
20
5.93361
11
-4.3642
21
5.92922
0
LINE
8
BLACK
6
CONTINUOUS
10
-4.3642
20
5.92922
11
-4.36343
21
5.92435
0
LINE
8
BLACK
6
CONTINUOUS
10
-4.36343
20
5.92435
11
-4.36343
21
5.9086
0
LINE
8
BLACK
6
CONTINUOUS
10
-4.36343
20
5.9086
11
-4.3642
21
5.90374
0
LINE
8
BLACK
6
CONTINUOUS
10
-4.3642
20
5.90374
11
-4.36643
21
5.89935
0
LINE
8
BLACK
6
CONTINUOUS
10
-4.36643
20
5.89935
11
-4.36992
21
5.89586
0
LINE
8
BLACK
6
CONTINUOUS
10
-4.36992
20
5.89586
11
-4.37431
21
5.89363
0
LINE
8
BLACK
6
CONTINUOUS
10
-4.37431
20
5.89363
11
-4.37917
21
5.89285
0
LINE
8
BLACK
6
CONTINUOUS
10
-4.37917
20
5.89285
11
-4.40083
21
5.89285
0
LINE
8
BLACK
6
CONTINUOUS
10
-4.40083
20
5.89285
11
-4.40569
21
5.89363
0
LINE
8
BLACK
6
CONTINUOUS
10
-4.40569
20
5.89363
11
-4.41008
21
5.89586
0
LINE
8
BLACK
6
CONTINUOUS
10
-4.41008
20
5.89586
11
-4.41357
21
5.89935
0
LINE
8
BLACK
6
CONTINUOUS
10
-4.41357
20
5.89935
11
-4.4158
21
5.90374
0
LINE
8
BLACK
6
CONTINUOUS
10
-4.4158
20
5.90374
11
-4.41657
21
5.9086
0
LINE
8
BLACK
6
CONTINUOUS
10
-4.41657
20
5.9086
11
-4.41657
21
5.92435
0
LINE
8
BLACK
6
CONTINUOUS
10
-4.41657
20
5.92435
11
-4.4158
21
5.92922
0
LINE
8
BLACK
6
CONTINUOUS
10
-4.4158
20
5.92922
11
-4.41357
21
5.93361
0
LINE
8
BLACK
6
CONTINUOUS
10
-4.41357
20
5.93361
11
-4.41008
21
5.93709
0
LINE
8
BLACK
6
CONTINUOUS
10
-4.41008
20
5.93709
11
-4.40569
21
5.93933
0
LINE
8
BLACK
6
CONTINUOUS
10
-4.40569
20
5.93933
11
-4.40083
21
5.9401
0
LINE
8
BLACK
6
CONTINUOUS
10
-4.40083
20
5.9401
11
-4.37917
21
5.9401
0
LINE
8
BLACK
6
CONTINUOUS
10
-4.37917
20
5.9401
11
-4.37431
21
5.93933
0
LINE
8
BLACK
6
CONTINUOUS
10
-4.29431
20
5.93933
11
-4.28992
21
5.93709
0
LINE
8
BLACK
6
CONTINUOUS
10
-4.28992
20
5.93709
11
-4.28643
21
5.93361
0
LINE
8
BLACK
6
CONTINUOUS
10
-4.28643
20
5.93361
11
-4.2842
21
5.92922
0
LINE
8
BLACK
6
CONTINUOUS
10
-4.2842
20
5.92922
11
-4.28343
21
5.92435
0
LINE
8
BLACK
6
CONTINUOUS
10
-4.28343
20
5.92435
11
-4.28343
21
5.9086
0
LINE
8
BLACK
6
CONTINUOUS
10
-4.28343
20
5.9086
11
-4.2842
21
5.90374
0
LINE
8
BLACK
6
CONTINUOUS
10
-4.2842
20
5.90374
11
-4.28643
21
5.89935
0
LINE
8
BLACK
6
CONTINUOUS
10
-4.28643
20
5.89935
11
-4.28992
21
5.89586
0
LINE
8
BLACK
6
CONTINUOUS
10
-4.28992
20
5.89586
11
-4.29431
21
5.89363
0
LINE
8
BLACK
6
CONTINUOUS
10
-4.29431
20
5.89363
11
-4.29917
21
5.89285
0
LINE
8
BLACK
6
CONTINUOUS
10
-4.29917
20
5.89285
11
-4.32083
21
5.89285
0
LINE
8
BLACK
6
CONTINUOUS
10
-4.32083
20
5.89285
11
-4.32569
21
5.89363
0
LINE
8
BLACK
6
CONTINUOUS
10
-4.32569
20
5.89363
11
-4.33008
21
5.89586
0
LINE
8
BLACK
6
CONTINUOUS
10
-4.33008
20
5.89586
11
-4.33357
21
5.89935
0
LINE
8
BLACK
6
CONTINUOUS
10
-4.33357
20
5.89935
11
-4.3358
21
5.90374
0
LINE
8
BLACK
6
CONTINUOUS
10
-4.3358
20
5.90374
11
-4.33657
21
5.9086
0
LINE
8
BLACK
6
CONTINUOUS
10
-4.33657
20
5.9086
11
-4.33657
21
5.92435
0
LINE
8
BLACK
6
CONTINUOUS
10
-4.33657
20
5.92435
11
-4.3358
21
5.92922
0
LINE
8
BLACK
6
CONTINUOUS
10
-4.3358
20
5.92922
11
-4.33357
21
5.93361
0
LINE
8
BLACK
6
CONTINUOUS
10
-4.33357
20
5.93361
11
-4.33008
21
5.93709
0
LINE
8
BLACK
6
CONTINUOUS
10
-4.33008
20
5.93709
11
-4.32569
21
5.93933
0
LINE
8
BLACK
6
CONTINUOUS
10
-4.32569
20
5.93933
11
-4.32083
21
5.9401
0
LINE
8
BLACK
6
CONTINUOUS
10
-4.32083
20
5.9401
11
-4.29917
21
5.9401
0
LINE
8
BLACK
6
CONTINUOUS
10
-4.29917
20
5.9401
11
-4.29431
21
5.93933
0
LINE
8
BLACK
6
CONTINUOUS
10
-4.87708
20
6.0378
11
-4.86785
21
6.03463
0
LINE
8
BLACK
6
CONTINUOUS
10
-4.86785
20
6.03463
11
-4.85927
21
6.02999
0
LINE
8
BLACK
6
CONTINUOUS
10
-4.85927
20
6.02999
11
-4.85158
21
6.024
0
LINE
8
BLACK
6
CONTINUOUS
10
-4.85158
20
6.024
11
-4.84497
21
6.01682
0
LINE
8
BLACK
6
CONTINUOUS
10
-4.84497
20
6.01682
11
-4.83964
21
6.00866
0
LINE
8
BLACK
6
CONTINUOUS
10
-4.83964
20
6.00866
11
-4.83572
21
5.99973
0
LINE
8
BLACK
6
CONTINUOUS
10
-4.83572
20
5.99973
11
-4.83333
21
5.99027
0
LINE
8
BLACK
6
CONTINUOUS
10
-4.83333
20
5.99027
11
-4.83252
21
5.98055
0
LINE
8
BLACK
6
CONTINUOUS
10
-4.83252
20
5.98055
11
-4.83333
21
5.97083
0
LINE
8
BLACK
6
CONTINUOUS
10
-4.83333
20
5.97083
11
-4.83572
21
5.96138
0
LINE
8
BLACK
6
CONTINUOUS
10
-4.83572
20
5.96138
11
-4.83964
21
5.95244
0
LINE
8
BLACK
6
CONTINUOUS
10
-4.83964
20
5.95244
11
-4.84497
21
5.94428
0
LINE
8
BLACK
6
CONTINUOUS
10
-4.84497
20
5.94428
11
-4.85158
21
5.9371
0
LINE
8
BLACK
6
CONTINUOUS
10
-4.85158
20
5.9371
11
-4.85927
21
5.93111
0
LINE
8
BLACK
6
CONTINUOUS
10
-4.85927
20
5.93111
11
-4.86785
21
5.92647
0
LINE
8
BLACK
6
CONTINUOUS
10
-4.86785
20
5.92647
11
-4.87708
21
5.9233
0
LINE
8
BLACK
6
CONTINUOUS
10
-4.87708
20
5.9233
11
-4.8867
21
5.9217
0
LINE
8
BLACK
6
CONTINUOUS
10
-4.8867
20
5.9217
11
-4.89645
21
5.9217
0
LINE
8
BLACK
6
CONTINUOUS
10
-4.89645
20
5.9217
11
-4.90607
21
5.9233
0
LINE
8
BLACK
6
CONTINUOUS
10
-4.90607
20
5.9233
11
-4.9153
21
5.92647
0
LINE
8
BLACK
6
CONTINUOUS
10
-4.9153
20
5.92647
11
-4.92387
21
5.93111
0
LINE
8
BLACK
6
CONTINUOUS
10
-4.92387
20
5.93111
11
-4.93157
21
5.9371
0
LINE
8
BLACK
6
CONTINUOUS
10
-4.93157
20
5.9371
11
-4.93818
21
5.94428
0
LINE
8
BLACK
6
CONTINUOUS
10
-4.93818
20
5.94428
11
-4.94351
21
5.95244
0
LINE
8
BLACK
6
CONTINUOUS
10
-4.94351
20
5.95244
11
-4.94743
21
5.96138
0
LINE
8
BLACK
6
CONTINUOUS
10
-4.94743
20
5.96138
11
-4.94982
21
5.97083
0
LINE
8
BLACK
6
CONTINUOUS
10
-4.94982
20
5.97083
11
-4.95063
21
5.98055
0
LINE
8
BLACK
6
CONTINUOUS
10
-4.95063
20
5.98055
11
-4.94982
21
5.99027
0
LINE
8
BLACK
6
CONTINUOUS
10
-4.94982
20
5.99027
11
-4.94743
21
5.99973
0
LINE
8
BLACK
6
CONTINUOUS
10
-4.94743
20
5.99973
11
-4.94351
21
6.00866
0
LINE
8
BLACK
6
CONTINUOUS
10
-4.94351
20
6.00866
11
-4.93818
21
6.01682
0
LINE
8
BLACK
6
CONTINUOUS
10
-4.93818
20
6.01682
11
-4.93157
21
6.024
0
LINE
8
BLACK
6
CONTINUOUS
10
-4.93157
20
6.024
11
-4.92387
21
6.02999
0
LINE
8
BLACK
6
CONTINUOUS
10
-4.92387
20
6.02999
11
-4.9153
21
6.03463
0
LINE
8
BLACK
6
CONTINUOUS
10
-4.9153
20
6.03463
11
-4.90607
21
6.0378
0
LINE
8
BLACK
6
CONTINUOUS
10
-4.90607
20
6.0378
11
-4.89645
21
6.0394
0
LINE
8
BLACK
6
CONTINUOUS
10
-4.89645
20
6.0394
11
-4.8867
21
6.0394
0
LINE
8
BLACK
6
CONTINUOUS
10
-4.8867
20
6.0394
11
-4.87708
21
6.0378
0
LINE
8
BLACK
6
CONTINUOUS
10
-4.48338
20
6.0378
11
-4.47415
21
6.03463
0
LINE
8
BLACK
6
CONTINUOUS
10
-4.47415
20
6.03463
11
-4.46557
21
6.02999
0
LINE
8
BLACK
6
CONTINUOUS
10
-4.46557
20
6.02999
11
-4.45788
21
6.024
0
LINE
8
BLACK
6
CONTINUOUS
10
-4.45788
20
6.024
11
-4.45127
21
6.01682
0
LINE
8
BLACK
6
CONTINUOUS
10
-4.45127
20
6.01682
11
-4.44594
21
6.00866
0
LINE
8
BLACK
6
CONTINUOUS
10
-4.44594
20
6.00866
11
-4.44202
21
5.99973
0
LINE
8
BLACK
6
CONTINUOUS
10
-4.44202
20
5.99973
11
-4.43962
21
5.99027
0
LINE
8
BLACK
6
CONTINUOUS
10
-4.43962
20
5.99027
11
-4.43882
21
5.98055
0
LINE
8
BLACK
6
CONTINUOUS
10
-4.43882
20
5.98055
11
-4.43962
21
5.97083
0
LINE
8
BLACK
6
CONTINUOUS
10
-4.43962
20
5.97083
11
-4.44202
21
5.96138
0
LINE
8
BLACK
6
CONTINUOUS
10
-4.44202
20
5.96138
11
-4.44594
21
5.95244
0
LINE
8
BLACK
6
CONTINUOUS
10
-4.44594
20
5.95244
11
-4.45127
21
5.94428
0
LINE
8
BLACK
6
CONTINUOUS
10
-4.45127
20
5.94428
11
-4.45788
21
5.9371
0
LINE
8
BLACK
6
CONTINUOUS
10
-4.45788
20
5.9371
11
-4.46557
21
5.93111
0
LINE
8
BLACK
6
CONTINUOUS
10
-4.46557
20
5.93111
11
-4.47415
21
5.92647
0
LINE
8
BLACK
6
CONTINUOUS
10
-4.47415
20
5.92647
11
-4.48338
21
5.9233
0
LINE
8
BLACK
6
CONTINUOUS
10
-4.48338
20
5.9233
11
-4.493
21
5.9217
0
LINE
8
BLACK
6
CONTINUOUS
10
-4.493
20
5.9217
11
-4.50275
21
5.9217
0
LINE
8
BLACK
6
CONTINUOUS
10
-4.50275
20
5.9217
11
-4.51237
21
5.9233
0
LINE
8
BLACK
6
CONTINUOUS
10
-4.51237
20
5.9233
11
-4.5216
21
5.92647
0
LINE
8
BLACK
6
CONTINUOUS
10
-4.5216
20
5.92647
11
-4.53017
21
5.93111
0
LINE
8
BLACK
6
CONTINUOUS
10
-4.53017
20
5.93111
11
-4.53787
21
5.9371
0
LINE
8
BLACK
6
CONTINUOUS
10
-4.53787
20
5.9371
11
-4.54448
21
5.94428
0
LINE
8
BLACK
6
CONTINUOUS
10
-4.54448
20
5.94428
11
-4.54981
21
5.95244
0
LINE
8
BLACK
6
CONTINUOUS
10
-4.54981
20
5.95244
11
-4.55373
21
5.96138
0
LINE
8
BLACK
6
CONTINUOUS
10
-4.55373
20
5.96138
11
-4.55612
21
5.97083
0
LINE
8
BLACK
6
CONTINUOUS
10
-4.55612
20
5.97083
11
-4.55693
21
5.98055
0
LINE
8
BLACK
6
CONTINUOUS
10
-4.55693
20
5.98055
11
-4.55612
21
5.99027
0
LINE
8
BLACK
6
CONTINUOUS
10
-4.55612
20
5.99027
11
-4.55373
21
5.99973
0
LINE
8
BLACK
6
CONTINUOUS
10
-4.55373
20
5.99973
11
-4.54981
21
6.00866
0
LINE
8
BLACK
6
CONTINUOUS
10
-4.54981
20
6.00866
11
-4.54448
21
6.01682
0
LINE
8
BLACK
6
CONTINUOUS
10
-4.54448
20
6.01682
11
-4.53787
21
6.024
0
LINE
8
BLACK
6
CONTINUOUS
10
-4.53787
20
6.024
11
-4.53017
21
6.02999
0
LINE
8
BLACK
6
CONTINUOUS
10
-4.53017
20
6.02999
11
-4.5216
21
6.03463
0
LINE
8
BLACK
6
CONTINUOUS
10
-4.5216
20
6.03463
11
-4.51237
21
6.0378
0
LINE
8
BLACK
6
CONTINUOUS
10
-4.51237
20
6.0378
11
-4.50275
21
6.0394
0
LINE
8
BLACK
6
CONTINUOUS
10
-4.50275
20
6.0394
11
-4.493
21
6.0394
0
LINE
8
BLACK
6
CONTINUOUS
10
-4.493
20
6.0394
11
-4.48338
21
6.0378
0
LINE
8
BLACK
6
CONTINUOUS
10
-4.08968
20
6.0378
11
-4.08045
21
6.03463
0
LINE
8
BLACK
6
CONTINUOUS
10
-4.08045
20
6.03463
11
-4.07187
21
6.02999
0
LINE
8
BLACK
6
CONTINUOUS
10
-4.07187
20
6.02999
11
-4.06418
21
6.024
0
LINE
8
BLACK
6
CONTINUOUS
10
-4.06418
20
6.024
11
-4.05757
21
6.01682
0
LINE
8
BLACK
6
CONTINUOUS
10
-4.05757
20
6.01682
11
-4.05224
21
6.00866
0
LINE
8
BLACK
6
CONTINUOUS
10
-4.05224
20
6.00866
11
-4.04832
21
5.99973
0
LINE
8
BLACK
6
CONTINUOUS
10
-4.04832
20
5.99973
11
-4.04592
21
5.99027
0
LINE
8
BLACK
6
CONTINUOUS
10
-4.04592
20
5.99027
11
-4.04512
21
5.98055
0
LINE
8
BLACK
6
CONTINUOUS
10
-4.04512
20
5.98055
11
-4.04592
21
5.97083
0
LINE
8
BLACK
6
CONTINUOUS
10
-4.04592
20
5.97083
11
-4.04832
21
5.96138
0
LINE
8
BLACK
6
CONTINUOUS
10
-4.04832
20
5.96138
11
-4.05224
21
5.95244
0
LINE
8
BLACK
6
CONTINUOUS
10
-4.05224
20
5.95244
11
-4.05757
21
5.94428
0
LINE
8
BLACK
6
CONTINUOUS
10
-4.05757
20
5.94428
11
-4.06418
21
5.9371
0
LINE
8
BLACK
6
CONTINUOUS
10
-4.06418
20
5.9371
11
-4.07187
21
5.93111
0
LINE
8
BLACK
6
CONTINUOUS
10
-4.07187
20
5.93111
11
-4.08045
21
5.92647
0
LINE
8
BLACK
6
CONTINUOUS
10
-4.08045
20
5.92647
11
-4.08968
21
5.9233
0
LINE
8
BLACK
6
CONTINUOUS
10
-4.08968
20
5.9233
11
-4.0993
21
5.9217
0
LINE
8
BLACK
6
CONTINUOUS
10
-4.0993
20
5.9217
11
-4.10905
21
5.9217
0
LINE
8
BLACK
6
CONTINUOUS
10
-4.10905
20
5.9217
11
-4.11867
21
5.9233
0
LINE
8
BLACK
6
CONTINUOUS
10
-4.11867
20
5.9233
11
-4.1279
21
5.92647
0
LINE
8
BLACK
6
CONTINUOUS
10
-4.1279
20
5.92647
11
-4.13647
21
5.93111
0
LINE
8
BLACK
6
CONTINUOUS
10
-4.13647
20
5.93111
11
-4.14417
21
5.9371
0
LINE
8
BLACK
6
CONTINUOUS
10
-4.14417
20
5.9371
11
-4.15078
21
5.94428
0
LINE
8
BLACK
6
CONTINUOUS
10
-4.15078
20
5.94428
11
-4.15611
21
5.95244
0
LINE
8
BLACK
6
CONTINUOUS
10
-4.15611
20
5.95244
11
-4.16003
21
5.96138
0
LINE
8
BLACK
6
CONTINUOUS
10
-4.16003
20
5.96138
11
-4.16242
21
5.97083
0
LINE
8
BLACK
6
CONTINUOUS
10
-4.16242
20
5.97083
11
-4.16323
21
5.98055
0
LINE
8
BLACK
6
CONTINUOUS
10
-4.16323
20
5.98055
11
-4.16242
21
5.99027
0
LINE
8
BLACK
6
CONTINUOUS
10
-4.16242
20
5.99027
11
-4.16003
21
5.99973
0
LINE
8
BLACK
6
CONTINUOUS
10
-4.16003
20
5.99973
11
-4.15611
21
6.00866
0
LINE
8
BLACK
6
CONTINUOUS
10
-4.15611
20
6.00866
11
-4.15078
21
6.01682
0
LINE
8
BLACK
6
CONTINUOUS
10
-4.15078
20
6.01682
11
-4.14417
21
6.024
0
LINE
8
BLACK
6
CONTINUOUS
10
-4.14417
20
6.024
11
-4.13647
21
6.02999
0
LINE
8
BLACK
6
CONTINUOUS
10
-4.13647
20
6.02999
11
-4.1279
21
6.03463
0
LINE
8
BLACK
6
CONTINUOUS
10
-4.1279
20
6.03463
11
-4.11867
21
6.0378
0
LINE
8
BLACK
6
CONTINUOUS
10
-4.11867
20
6.0378
11
-4.10905
21
6.0394
0
LINE
8
BLACK
6
CONTINUOUS
10
-4.10905
20
6.0394
11
-4.0993
21
6.0394
0
LINE
8
BLACK
6
CONTINUOUS
10
-4.0993
20
6.0394
11
-4.08968
21
6.0378
  0
ENDSEC
  0
EOF
