  0
SECTION
  2
HEADER
  9
$ANGBASE
  50
0.0
  9
$ANGDIR
  70
1
  9
$MEASUREMENT
  70
0
  0
ENDSEC
  0
SECTION
  2
TABLES
  0
TABLE
  2
LTYPE
  70
4
  0
LTYPE
  5
40F
  2
CONTINUOUS
  70
0
  3
Solid line
  72
65
  73
0
  40
0.0
  0
LTYPE
  5
410
  2
DASHDOT
 70
0
  3
Dash Dot ____ _ ____ _
 72
65
 73
4
 40
2.0
 49
1.25
 49
-0.25
 49
0.25
 49
-0.25
  0
LTYPE
  5
411
  2
DASHED
 70
0
  3
Dashed __ __ __ __ __
 72
65
 73
2
 40
0.75
 49
0.5
 49
-0.25
  0
LTYPE
  5
43B
  2
DOTTED
 70
0
  3
Dotted .  .  .  .
 72
65
 73
2
 40
0.2
 49
0.0
 49
-0.2
  0
ENDTAB
  0
TABLE
  2
STYLE
  70
4
  0
STYLE
  2
KICAD
  70
0
  40
0
  41
1
  42
1
  50
0
  71
0
  3
isocp.shx
  0
STYLE
  2
KICADB
  70
0
  40
0
  41
1
  42
1
  50
0
  71
0
  3
isocp.shx
  0
STYLE
  2
KICADI
  70
0
  40
0
  41
1
  42
1
  50
15
  71
0
  3
isocp.shx
  0
STYLE
  2
KICADBI
  70
0
  40
0
  41
1
  42
1
  50
15
  71
0
  3
isocp.shx
  0
ENDTAB
  0
TABLE
  2
LAYER
  70
1
  0
LAYER
  2
BLACK
  70
0
  62
7
  6
CONTINUOUS
  0
ENDTAB
  0
ENDSEC
  0
SECTION
  2
ENTITIES
0
LINE
8
BLACK
6
CONTINUOUS
10
-4.8770776377952751
20
5.4472480314960627
11
-4.8678526377952753
21
5.4440811023622047
0
LINE
8
BLACK
6
CONTINUOUS
10
-4.8678526377952753
20
5.4440811023622047
11
-4.859274724409449
21
5.4394389763779527
0
LINE
8
BLACK
6
CONTINUOUS
10
-4.859274724409449
20
5.4394389763779527
11
-4.8515778740157476
21
5.4334482677165354
0
LINE
8
BLACK
6
CONTINUOUS
10
-4.8515778740157476
20
5.4334482677165354
11
-4.8449720078740155
21
5.4262724015748027
0
LINE
8
BLACK
6
CONTINUOUS
10
-4.8449720078740155
20
5.4262724015748027
11
-4.8396373622047246
21
5.4181071259842515
0
LINE
8
BLACK
6
CONTINUOUS
10
-4.8396373622047246
20
5.4181071259842515
11
-4.8357194488188977
21
5.4091751574803144
0
LINE
8
BLACK
6
CONTINUOUS
10
-4.8357194488188977
20
5.4091751574803144
11
-4.8333251181102357
21
5.3997201574803144
0
LINE
8
BLACK
6
CONTINUOUS
10
-4.8333251181102357
20
5.3997201574803144
11
-4.8325196850393697
21
5.3899999999999997
0
LINE
8
BLACK
6
CONTINUOUS
10
-4.8325196850393697
20
5.3899999999999997
11
-4.8333251181102357
21
5.3802798425196849
0
LINE
8
BLACK
6
CONTINUOUS
10
-4.8333251181102357
20
5.3802798425196849
11
-4.8357194488188977
21
5.3708248425196849
0
LINE
8
BLACK
6
CONTINUOUS
10
-4.8357194488188977
20
5.3708248425196849
11
-4.8396373622047246
21
5.3618928740157479
0
LINE
8
BLACK
6
CONTINUOUS
10
-4.8396373622047246
20
5.3618928740157479
11
-4.8449720078740155
21
5.3537275984251966
0
LINE
8
BLACK
6
CONTINUOUS
10
-4.8449720078740155
20
5.3537275984251966
11
-4.8515778740157476
21
5.3465517322834648
0
LINE
8
BLACK
6
CONTINUOUS
10
-4.8515778740157476
20
5.3465517322834648
11
-4.859274724409449
21
5.3405610236220475
0
LINE
8
BLACK
6
CONTINUOUS
10
-4.859274724409449
20
5.3405610236220475
11
-4.8678526377952753
21
5.3359188976377956
0
LINE
8
BLACK
6
CONTINUOUS
10
-4.8678526377952753
20
5.3359188976377956
11
-4.8770776377952751
21
5.3327519685039366
0
LINE
8
BLACK
6
CONTINUOUS
10
-4.8770776377952751
20
5.3327519685039366
11
-4.8866980708661414
21
5.3311465748031495
0
LINE
8
BLACK
6
CONTINUOUS
10
-4.8866980708661414
20
5.3311465748031495
11
-4.8964515354330711
21
5.3311465748031495
0
LINE
8
BLACK
6
CONTINUOUS
10
-4.8964515354330711
20
5.3311465748031495
11
-4.9060719685039365
21
5.3327519685039366
0
LINE
8
BLACK
6
CONTINUOUS
10
-4.9060719685039365
20
5.3327519685039366
11
-4.9152969685039372
21
5.3359188976377956
0
LINE
8
BLACK
6
CONTINUOUS
10
-4.9152969685039372
20
5.3359188976377956
11
-4.9238748818897635
21
5.3405610236220475
0
LINE
8
BLACK
6
CONTINUOUS
10
-4.9238748818897635
20
5.3405610236220475
11
-4.931571732283464
21
5.3465517322834648
0
LINE
8
BLACK
6
CONTINUOUS
10
-4.931571732283464
20
5.3465517322834648
11
-4.938177598425197
21
5.3537275984251966
0
LINE
8
BLACK
6
CONTINUOUS
10
-4.938177598425197
20
5.3537275984251966
11
-4.9435122440944879
21
5.3618928740157479
0
LINE
8
BLACK
6
CONTINUOUS
10
-4.9435122440944879
20
5.3618928740157479
11
-4.9474301574803148
21
5.3708248425196849
0
LINE
8
BLACK
6
CONTINUOUS
10
-4.9474301574803148
20
5.3708248425196849
11
-4.9498244881889759
21
5.3802798425196849
0
LINE
8
BLACK
6
CONTINUOUS
10
-4.9498244881889759
20
5.3802798425196849
11
-4.9506299212598428
21
5.3899999999999997
0
LINE
8
BLACK
6
CONTINUOUS
10
-4.9506299212598428
20
5.3899999999999997
11
-4.9498244881889759
21
5.3997201574803144
0
LINE
8
BLACK
6
CONTINUOUS
10
-4.9498244881889759
20
5.3997201574803144
11
-4.9474301574803148
21
5.4091751574803144
0
LINE
8
BLACK
6
CONTINUOUS
10
-4.9474301574803148
20
5.4091751574803144
11
-4.9435122440944879
21
5.4181071259842515
0
LINE
8
BLACK
6
CONTINUOUS
10
-4.9435122440944879
20
5.4181071259842515
11
-4.938177598425197
21
5.4262724015748027
0
LINE
8
BLACK
6
CONTINUOUS
10
-4.938177598425197
20
5.4262724015748027
11
-4.931571732283464
21
5.4334482677165354
0
LINE
8
BLACK
6
CONTINUOUS
10
-4.931571732283464
20
5.4334482677165354
11
-4.9238748818897635
21
5.4394389763779527
0
LINE
8
BLACK
6
CONTINUOUS
10
-4.9238748818897635
20
5.4394389763779527
11
-4.9152969685039372
21
5.4440811023622047
0
LINE
8
BLACK
6
CONTINUOUS
10
-4.9152969685039372
20
5.4440811023622047
11
-4.9060719685039365
21
5.4472480314960627
0
LINE
8
BLACK
6
CONTINUOUS
10
-4.9060719685039365
20
5.4472480314960627
11
-4.8964515354330711
21
5.4488534251968499
0
LINE
8
BLACK
6
CONTINUOUS
10
-4.8964515354330711
20
5.4488534251968499
11
-4.8866980708661414
21
5.4488534251968499
0
LINE
8
BLACK
6
CONTINUOUS
10
-4.8866980708661414
20
5.4488534251968499
11
-4.8770776377952751
21
5.4472480314960627
0
LINE
8
BLACK
6
CONTINUOUS
10
-4.483376850393701
20
5.4472480314960627
11
-4.4741518503937003
21
5.4440811023622047
0
LINE
8
BLACK
6
CONTINUOUS
10
-4.4741518503937003
20
5.4440811023622047
11
-4.465573937007874
21
5.4394389763779527
0
LINE
8
BLACK
6
CONTINUOUS
10
-4.465573937007874
20
5.4394389763779527
11
-4.4578770866141735
21
5.4334482677165354
0
LINE
8
BLACK
6
CONTINUOUS
10
-4.4578770866141735
20
5.4334482677165354
11
-4.4512712204724405
21
5.4262724015748027
0
LINE
8
BLACK
6
CONTINUOUS
10
-4.4512712204724405
20
5.4262724015748027
11
-4.4459365748031496
21
5.4181071259842515
0
LINE
8
BLACK
6
CONTINUOUS
10
-4.4459365748031496
20
5.4181071259842515
11
-4.4420186614173227
21
5.4091751574803144
0
LINE
8
BLACK
6
CONTINUOUS
10
-4.4420186614173227
20
5.4091751574803144
11
-4.4396243307086616
21
5.3997201574803144
0
LINE
8
BLACK
6
CONTINUOUS
10
-4.4396243307086616
20
5.3997201574803144
11
-4.4388188976377956
21
5.3899999999999997
0
LINE
8
BLACK
6
CONTINUOUS
10
-4.4388188976377956
20
5.3899999999999997
11
-4.4396243307086616
21
5.3802798425196849
0
LINE
8
BLACK
6
CONTINUOUS
10
-4.4396243307086616
20
5.3802798425196849
11
-4.4420186614173227
21
5.3708248425196849
0
LINE
8
BLACK
6
CONTINUOUS
10
-4.4420186614173227
20
5.3708248425196849
11
-4.4459365748031496
21
5.3618928740157479
0
LINE
8
BLACK
6
CONTINUOUS
10
-4.4459365748031496
20
5.3618928740157479
11
-4.4512712204724405
21
5.3537275984251966
0
LINE
8
BLACK
6
CONTINUOUS
10
-4.4512712204724405
20
5.3537275984251966
11
-4.4578770866141735
21
5.3465517322834648
0
LINE
8
BLACK
6
CONTINUOUS
10
-4.4578770866141735
20
5.3465517322834648
11
-4.465573937007874
21
5.3405610236220475
0
LINE
8
BLACK
6
CONTINUOUS
10
-4.465573937007874
20
5.3405610236220475
11
-4.4741518503937003
21
5.3359188976377956
0
LINE
8
BLACK
6
CONTINUOUS
10
-4.4741518503937003
20
5.3359188976377956
11
-4.483376850393701
21
5.3327519685039366
0
LINE
8
BLACK
6
CONTINUOUS
10
-4.483376850393701
20
5.3327519685039366
11
-4.4929972834645664
21
5.3311465748031495
0
LINE
8
BLACK
6
CONTINUOUS
10
-4.4929972834645664
20
5.3311465748031495
11
-4.5027507480314961
21
5.3311465748031495
0
LINE
8
BLACK
6
CONTINUOUS
10
-4.5027507480314961
20
5.3311465748031495
11
-4.5123711811023623
21
5.3327519685039366
0
LINE
8
BLACK
6
CONTINUOUS
10
-4.5123711811023623
20
5.3327519685039366
11
-4.5215961811023622
21
5.3359188976377956
0
LINE
8
BLACK
6
CONTINUOUS
10
-4.5215961811023622
20
5.3359188976377956
11
-4.5301740944881885
21
5.3405610236220475
0
LINE
8
BLACK
6
CONTINUOUS
10
-4.5301740944881885
20
5.3405610236220475
11
-4.5378709448818899
21
5.3465517322834648
0
LINE
8
BLACK
6
CONTINUOUS
10
-4.5378709448818899
20
5.3465517322834648
11
-4.544476811023622
21
5.3537275984251966
0
LINE
8
BLACK
6
CONTINUOUS
10
-4.544476811023622
20
5.3537275984251966
11
-4.5498114566929129
21
5.3618928740157479
0
LINE
8
BLACK
6
CONTINUOUS
10
-4.5498114566929129
20
5.3618928740157479
11
-4.5537293700787398
21
5.3708248425196849
0
LINE
8
BLACK
6
CONTINUOUS
10
-4.5537293700787398
20
5.3708248425196849
11
-4.5561237007874018
21
5.3802798425196849
0
LINE
8
BLACK
6
CONTINUOUS
10
-4.5561237007874018
20
5.3802798425196849
11
-4.5569291338582678
21
5.3899999999999997
0
LINE
8
BLACK
6
CONTINUOUS
10
-4.5569291338582678
20
5.3899999999999997
11
-4.5561237007874018
21
5.3997201574803144
0
LINE
8
BLACK
6
CONTINUOUS
10
-4.5561237007874018
20
5.3997201574803144
11
-4.5537293700787398
21
5.4091751574803144
0
LINE
8
BLACK
6
CONTINUOUS
10
-4.5537293700787398
20
5.4091751574803144
11
-4.5498114566929129
21
5.4181071259842515
0
LINE
8
BLACK
6
CONTINUOUS
10
-4.5498114566929129
20
5.4181071259842515
11
-4.544476811023622
21
5.4262724015748027
0
LINE
8
BLACK
6
CONTINUOUS
10
-4.544476811023622
20
5.4262724015748027
11
-4.5378709448818899
21
5.4334482677165354
0
LINE
8
BLACK
6
CONTINUOUS
10
-4.5378709448818899
20
5.4334482677165354
11
-4.5301740944881885
21
5.4394389763779527
0
LINE
8
BLACK
6
CONTINUOUS
10
-4.5301740944881885
20
5.4394389763779527
11
-4.5215961811023622
21
5.4440811023622047
0
LINE
8
BLACK
6
CONTINUOUS
10
-4.5215961811023622
20
5.4440811023622047
11
-4.5123711811023623
21
5.4472480314960627
0
LINE
8
BLACK
6
CONTINUOUS
10
-4.5123711811023623
20
5.4472480314960627
11
-4.5027507480314961
21
5.4488534251968499
0
LINE
8
BLACK
6
CONTINUOUS
10
-4.5027507480314961
20
5.4488534251968499
11
-4.4929972834645664
21
5.4488534251968499
0
LINE
8
BLACK
6
CONTINUOUS
10
-4.4929972834645664
20
5.4488534251968499
11
-4.483376850393701
21
5.4472480314960627
0
LINE
8
BLACK
6
CONTINUOUS
10
-4.089676062992126
20
5.4472480314960627
11
-4.0804510629921262
21
5.4440811023622047
0
LINE
8
BLACK
6
CONTINUOUS
10
-4.0804510629921262
20
5.4440811023622047
11
-4.071873149606299
21
5.4394389763779527
0
LINE
8
BLACK
6
CONTINUOUS
10
-4.071873149606299
20
5.4394389763779527
11
-4.0641762992125985
21
5.4334482677165354
0
LINE
8
BLACK
6
CONTINUOUS
10
-4.0641762992125985
20
5.4334482677165354
11
-4.0575704330708664
21
5.4262724015748027
0
LINE
8
BLACK
6
CONTINUOUS
10
-4.0575704330708664
20
5.4262724015748027
11
-4.0522357874015746
21
5.4181071259842515
0
LINE
8
BLACK
6
CONTINUOUS
10
-4.0522357874015746
20
5.4181071259842515
11
-4.0483178740157477
21
5.4091751574803144
0
LINE
8
BLACK
6
CONTINUOUS
10
-4.0483178740157477
20
5.4091751574803144
11
-4.0459235433070866
21
5.3997201574803144
0
LINE
8
BLACK
6
CONTINUOUS
10
-4.0459235433070866
20
5.3997201574803144
11
-4.0451181102362206
21
5.3899999999999997
0
LINE
8
BLACK
6
CONTINUOUS
10
-4.0451181102362206
20
5.3899999999999997
11
-4.0459235433070866
21
5.3802798425196849
0
LINE
8
BLACK
6
CONTINUOUS
10
-4.0459235433070866
20
5.3802798425196849
11
-4.0483178740157477
21
5.3708248425196849
0
LINE
8
BLACK
6
CONTINUOUS
10
-4.0483178740157477
20
5.3708248425196849
11
-4.0522357874015746
21
5.3618928740157479
0
LINE
8
BLACK
6
CONTINUOUS
10
-4.0522357874015746
20
5.3618928740157479
11
-4.0575704330708664
21
5.3537275984251966
0
LINE
8
BLACK
6
CONTINUOUS
10
-4.0575704330708664
20
5.3537275984251966
11
-4.0641762992125985
21
5.3465517322834648
0
LINE
8
BLACK
6
CONTINUOUS
10
-4.0641762992125985
20
5.3465517322834648
11
-4.071873149606299
21
5.3405610236220475
0
LINE
8
BLACK
6
CONTINUOUS
10
-4.071873149606299
20
5.3405610236220475
11
-4.0804510629921262
21
5.3359188976377956
0
LINE
8
BLACK
6
CONTINUOUS
10
-4.0804510629921262
20
5.3359188976377956
11
-4.089676062992126
21
5.3327519685039366
0
LINE
8
BLACK
6
CONTINUOUS
10
-4.089676062992126
20
5.3327519685039366
11
-4.0992964960629923
21
5.3311465748031495
0
LINE
8
BLACK
6
CONTINUOUS
10
-4.0992964960629923
20
5.3311465748031495
11
-4.1090499606299211
21
5.3311465748031495
0
LINE
8
BLACK
6
CONTINUOUS
10
-4.1090499606299211
20
5.3311465748031495
11
-4.1186703937007874
21
5.3327519685039366
0
LINE
8
BLACK
6
CONTINUOUS
10
-4.1186703937007874
20
5.3327519685039366
11
-4.1278953937007872
21
5.3359188976377956
0
LINE
8
BLACK
6
CONTINUOUS
10
-4.1278953937007872
20
5.3359188976377956
11
-4.1364733070866144
21
5.3405610236220475
0
LINE
8
BLACK
6
CONTINUOUS
10
-4.1364733070866144
20
5.3405610236220475
11
-4.1441701574803149
21
5.3465517322834648
0
LINE
8
BLACK
6
CONTINUOUS
10
-4.1441701574803149
20
5.3465517322834648
11
-4.150776023622047
21
5.3537275984251966
0
LINE
8
BLACK
6
CONTINUOUS
10
-4.150776023622047
20
5.3537275984251966
11
-4.1561106692913388
21
5.3618928740157479
0
LINE
8
BLACK
6
CONTINUOUS
10
-4.1561106692913388
20
5.3618928740157479
11
-4.1600285826771657
21
5.3708248425196849
0
LINE
8
BLACK
6
CONTINUOUS
10
-4.1600285826771657
20
5.3708248425196849
11
-4.1624229133858268
21
5.3802798425196849
0
LINE
8
BLACK
6
CONTINUOUS
10
-4.1624229133858268
20
5.3802798425196849
11
-4.1632283464566928
21
5.3899999999999997
0
LINE
8
BLACK
6
CONTINUOUS
10
-4.1632283464566928
20
5.3899999999999997
11
-4.1624229133858268
21
5.3997201574803144
0
LINE
8
BLACK
6
CONTINUOUS
10
-4.1624229133858268
20
5.3997201574803144
11
-4.1600285826771657
21
5.4091751574803144
0
LINE
8
BLACK
6
CONTINUOUS
10
-4.1600285826771657
20
5.4091751574803144
11
-4.1561106692913388
21
5.4181071259842515
0
LINE
8
BLACK
6
CONTINUOUS
10
-4.1561106692913388
20
5.4181071259842515
11
-4.150776023622047
21
5.4262724015748027
0
LINE
8
BLACK
6
CONTINUOUS
10
-4.150776023622047
20
5.4262724015748027
11
-4.1441701574803149
21
5.4334482677165354
0
LINE
8
BLACK
6
CONTINUOUS
10
-4.1441701574803149
20
5.4334482677165354
11
-4.1364733070866144
21
5.4394389763779527
0
LINE
8
BLACK
6
CONTINUOUS
10
-4.1364733070866144
20
5.4394389763779527
11
-4.1278953937007872
21
5.4440811023622047
0
LINE
8
BLACK
6
CONTINUOUS
10
-4.1278953937007872
20
5.4440811023622047
11
-4.1186703937007874
21
5.4472480314960627
0
LINE
8
BLACK
6
CONTINUOUS
10
-4.1186703937007874
20
5.4472480314960627
11
-4.1090499606299211
21
5.4488534251968499
0
LINE
8
BLACK
6
CONTINUOUS
10
-4.1090499606299211
20
5.4488534251968499
11
-4.0992964960629923
21
5.4488534251968499
0
LINE
8
BLACK
6
CONTINUOUS
10
-4.0992964960629923
20
5.4488534251968499
11
-4.089676062992126
21
5.4472480314960627
0
LINE
8
BLACK
6
CONTINUOUS
10
-4.3743068110236223
20
5.4753709842519687
11
-4.3699167716535436
21
5.4731341338582675
0
LINE
8
BLACK
6
CONTINUOUS
10
-4.3699167716535436
20
5.4731341338582675
11
-4.3664327952755908
21
5.4696501574803147
0
LINE
8
BLACK
6
CONTINUOUS
10
-4.3664327952755908
20
5.4696501574803147
11
-4.3641959448818897
21
5.465260118110236
0
LINE
8
BLACK
6
CONTINUOUS
10
-4.3641959448818897
20
5.465260118110236
11
-4.3634251968503932
21
5.4603937007874013
0
LINE
8
BLACK
6
CONTINUOUS
10
-4.3634251968503932
20
5.4603937007874013
11
-4.3634251968503932
21
5.4446456692913383
0
LINE
8
BLACK
6
CONTINUOUS
10
-4.3634251968503932
20
5.4446456692913383
11
-4.3641959448818897
21
5.4397792519685035
0
LINE
8
BLACK
6
CONTINUOUS
10
-4.3641959448818897
20
5.4397792519685035
11
-4.3664327952755908
21
5.4353892125984249
0
LINE
8
BLACK
6
CONTINUOUS
10
-4.3664327952755908
20
5.4353892125984249
11
-4.3699167716535436
21
5.4319052362204721
0
LINE
8
BLACK
6
CONTINUOUS
10
-4.3699167716535436
20
5.4319052362204721
11
-4.3743068110236223
21
5.4296683858267718
0
LINE
8
BLACK
6
CONTINUOUS
10
-4.3743068110236223
20
5.4296683858267718
11
-4.3791732283464562
21
5.4288976377952753
0
LINE
8
BLACK
6
CONTINUOUS
10
-4.3791732283464562
20
5.4288976377952753
11
-4.4008267716535432
21
5.4288976377952753
0
LINE
8
BLACK
6
CONTINUOUS
10
-4.4008267716535432
20
5.4288976377952753
11
-4.405693188976378
21
5.4296683858267718
0
LINE
8
BLACK
6
CONTINUOUS
10
-4.405693188976378
20
5.4296683858267718
11
-4.4100832283464566
21
5.4319052362204721
0
LINE
8
BLACK
6
CONTINUOUS
10
-4.4100832283464566
20
5.4319052362204721
11
-4.4135672047244094
21
5.4353892125984249
0
LINE
8
BLACK
6
CONTINUOUS
10
-4.4135672047244094
20
5.4353892125984249
11
-4.4158040551181097
21
5.4397792519685035
0
LINE
8
BLACK
6
CONTINUOUS
10
-4.4158040551181097
20
5.4397792519685035
11
-4.4165748031496062
21
5.4446456692913383
0
LINE
8
BLACK
6
CONTINUOUS
10
-4.4165748031496062
20
5.4446456692913383
11
-4.4165748031496062
21
5.4603937007874013
0
LINE
8
BLACK
6
CONTINUOUS
10
-4.4165748031496062
20
5.4603937007874013
11
-4.4158040551181097
21
5.465260118110236
0
LINE
8
BLACK
6
CONTINUOUS
10
-4.4158040551181097
20
5.465260118110236
11
-4.4135672047244094
21
5.4696501574803147
0
LINE
8
BLACK
6
CONTINUOUS
10
-4.4135672047244094
20
5.4696501574803147
11
-4.4100832283464566
21
5.4731341338582675
0
LINE
8
BLACK
6
CONTINUOUS
10
-4.4100832283464566
20
5.4731341338582675
11
-4.405693188976378
21
5.4753709842519687
0
LINE
8
BLACK
6
CONTINUOUS
10
-4.405693188976378
20
5.4753709842519687
11
-4.4008267716535432
21
5.4761417322834642
0
LINE
8
BLACK
6
CONTINUOUS
10
-4.4008267716535432
20
5.4761417322834642
11
-4.3791732283464562
21
5.4761417322834642
0
LINE
8
BLACK
6
CONTINUOUS
10
-4.3791732283464562
20
5.4761417322834642
11
-4.3743068110236223
21
5.4753709842519687
0
LINE
8
BLACK
6
CONTINUOUS
10
-4.2943068110236222
20
5.4753709842519687
11
-4.2899167716535436
21
5.4731341338582675
0
LINE
8
BLACK
6
CONTINUOUS
10
-4.2899167716535436
20
5.4731341338582675
11
-4.2864327952755907
21
5.4696501574803147
0
LINE
8
BLACK
6
CONTINUOUS
10
-4.2864327952755907
20
5.4696501574803147
11
-4.2841959448818896
21
5.465260118110236
0
LINE
8
BLACK
6
CONTINUOUS
10
-4.2841959448818896
20
5.465260118110236
11
-4.283425196850394
21
5.4603937007874013
0
LINE
8
BLACK
6
CONTINUOUS
10
-4.283425196850394
20
5.4603937007874013
11
-4.283425196850394
21
5.4446456692913383
0
LINE
8
BLACK
6
CONTINUOUS
10
-4.283425196850394
20
5.4446456692913383
11
-4.2841959448818896
21
5.4397792519685035
0
LINE
8
BLACK
6
CONTINUOUS
10
-4.2841959448818896
20
5.4397792519685035
11
-4.2864327952755907
21
5.4353892125984249
0
LINE
8
BLACK
6
CONTINUOUS
10
-4.2864327952755907
20
5.4353892125984249
11
-4.2899167716535436
21
5.4319052362204721
0
LINE
8
BLACK
6
CONTINUOUS
10
-4.2899167716535436
20
5.4319052362204721
11
-4.2943068110236222
21
5.4296683858267718
0
LINE
8
BLACK
6
CONTINUOUS
10
-4.2943068110236222
20
5.4296683858267718
11
-4.299173228346457
21
5.4288976377952753
0
LINE
8
BLACK
6
CONTINUOUS
10
-4.299173228346457
20
5.4288976377952753
11
-4.3208267716535431
21
5.4288976377952753
0
LINE
8
BLACK
6
CONTINUOUS
10
-4.3208267716535431
20
5.4288976377952753
11
-4.3256931889763779
21
5.4296683858267718
0
LINE
8
BLACK
6
CONTINUOUS
10
-4.3256931889763779
20
5.4296683858267718
11
-4.3300832283464565
21
5.4319052362204721
0
LINE
8
BLACK
6
CONTINUOUS
10
-4.3300832283464565
20
5.4319052362204721
11
-4.3335672047244094
21
5.4353892125984249
0
LINE
8
BLACK
6
CONTINUOUS
10
-4.3335672047244094
20
5.4353892125984249
11
-4.3358040551181105
21
5.4397792519685035
0
LINE
8
BLACK
6
CONTINUOUS
10
-4.3358040551181105
20
5.4397792519685035
11
-4.3365748031496061
21
5.4446456692913383
0
LINE
8
BLACK
6
CONTINUOUS
10
-4.3365748031496061
20
5.4446456692913383
11
-4.3365748031496061
21
5.4603937007874013
0
LINE
8
BLACK
6
CONTINUOUS
10
-4.3365748031496061
20
5.4603937007874013
11
-4.3358040551181105
21
5.465260118110236
0
LINE
8
BLACK
6
CONTINUOUS
10
-4.3358040551181105
20
5.465260118110236
11
-4.3335672047244094
21
5.4696501574803147
0
LINE
8
BLACK
6
CONTINUOUS
10
-4.3335672047244094
20
5.4696501574803147
11
-4.3300832283464565
21
5.4731341338582675
0
LINE
8
BLACK
6
CONTINUOUS
10
-4.3300832283464565
20
5.4731341338582675
11
-4.3256931889763779
21
5.4753709842519687
0
LINE
8
BLACK
6
CONTINUOUS
10
-4.3256931889763779
20
5.4753709842519687
11
-4.3208267716535431
21
5.4761417322834642
0
LINE
8
BLACK
6
CONTINUOUS
10
-4.3208267716535431
20
5.4761417322834642
11
-4.299173228346457
21
5.4761417322834642
0
LINE
8
BLACK
6
CONTINUOUS
10
-4.299173228346457
20
5.4761417322834642
11
-4.2943068110236222
21
5.4753709842519687
0
LINE
8
BLACK
6
CONTINUOUS
10
-4.7040568503937008
20
5.5055416141732278
11
-4.6997875984251971
21
5.503454488188976
0
LINE
8
BLACK
6
CONTINUOUS
10
-4.6997875984251971
20
5.503454488188976
11
-4.6964274015748027
21
5.5000942913385824
0
LINE
8
BLACK
6
CONTINUOUS
10
-4.6964274015748027
20
5.5000942913385824
11
-4.6943402755905508
21
5.4958250393700787
0
LINE
8
BLACK
6
CONTINUOUS
10
-4.6943402755905508
20
5.4958250393700787
11
-4.6937401968503938
21
5.4917059842519684
0
LINE
8
BLACK
6
CONTINUOUS
10
-4.6937401968503938
20
5.4917059842519684
11
-4.693740157480315
21
5.4457742913385827
0
LINE
8
BLACK
6
CONTINUOUS
10
-4.693740157480315
20
5.4457742913385827
11
-4.6943402755905508
21
5.4416552755905512
0
LINE
8
BLACK
6
CONTINUOUS
10
-4.6943402755905508
20
5.4416552755905512
11
-4.6964274015748027
21
5.4373860236220475
0
LINE
8
BLACK
6
CONTINUOUS
10
-4.6964274015748027
20
5.4373860236220475
11
-4.6997875984251971
21
5.434025826771653
0
LINE
8
BLACK
6
CONTINUOUS
10
-4.6997875984251971
20
5.434025826771653
11
-4.7040568503937008
21
5.4319387007874012
0
LINE
8
BLACK
6
CONTINUOUS
10
-4.7040568503937008
20
5.4319387007874012
11
-4.7081759055118111
21
5.4313386220472442
0
LINE
8
BLACK
6
CONTINUOUS
10
-4.7081759055118111
20
5.4313386220472442
11
-4.744265078740157
21
5.4313385826771654
0
LINE
8
BLACK
6
CONTINUOUS
10
-4.744265078740157
20
5.4313385826771654
11
-4.7483840944881885
21
5.4319387007874012
0
LINE
8
BLACK
6
CONTINUOUS
10
-4.7483840944881885
20
5.4319387007874012
11
-4.7526533464566931
21
5.434025826771653
0
LINE
8
BLACK
6
CONTINUOUS
10
-4.7526533464566931
20
5.434025826771653
11
-4.7560135433070867
21
5.4373860236220475
0
LINE
8
BLACK
6
CONTINUOUS
10
-4.7560135433070867
20
5.4373860236220475
11
-4.7581006692913386
21
5.4416552755905512
0
LINE
8
BLACK
6
CONTINUOUS
10
-4.7581006692913386
20
5.4416552755905512
11
-4.7587007480314956
21
5.4457743307086615
0
LINE
8
BLACK
6
CONTINUOUS
10
-4.7587007480314956
20
5.4457743307086615
11
-4.7587007874015743
21
5.4917060236220472
0
LINE
8
BLACK
6
CONTINUOUS
10
-4.7587007874015743
20
5.4917060236220472
11
-4.7581006692913386
21
5.4958250393700787
0
LINE
8
BLACK
6
CONTINUOUS
10
-4.7581006692913386
20
5.4958250393700787
11
-4.7560135433070867
21
5.5000942913385824
0
LINE
8
BLACK
6
CONTINUOUS
10
-4.7560135433070867
20
5.5000942913385824
11
-4.7526533464566931
21
5.503454488188976
0
LINE
8
BLACK
6
CONTINUOUS
10
-4.7526533464566931
20
5.503454488188976
11
-4.7483840944881885
21
5.5055416141732278
0
LINE
8
BLACK
6
CONTINUOUS
10
-4.7483840944881885
20
5.5055416141732278
11
-4.7442650393700783
21
5.5061416929133857
0
LINE
8
BLACK
6
CONTINUOUS
10
-4.7442650393700783
20
5.5061416929133857
11
-4.7081758661417323
21
5.5061417322834645
0
LINE
8
BLACK
6
CONTINUOUS
10
-4.7081758661417323
20
5.5061417322834645
11
-4.7040568503937008
21
5.5055416141732278
0
LINE
8
BLACK
6
CONTINUOUS
10
-4.5623245669291341
20
5.5055416141732278
11
-4.5580553149606295
21
5.503454488188976
0
LINE
8
BLACK
6
CONTINUOUS
10
-4.5580553149606295
20
5.503454488188976
11
-4.554695118110236
21
5.5000942913385824
0
LINE
8
BLACK
6
CONTINUOUS
10
-4.554695118110236
20
5.5000942913385824
11
-4.5526079921259841
21
5.4958250393700787
0
LINE
8
BLACK
6
CONTINUOUS
10
-4.5526079921259841
20
5.4958250393700787
11
-4.5520079133858271
21
5.4917059842519684
0
LINE
8
BLACK
6
CONTINUOUS
10
-4.5520079133858271
20
5.4917059842519684
11
-4.5520078740157484
21
5.4457742913385827
0
LINE
8
BLACK
6
CONTINUOUS
10
-4.5520078740157484
20
5.4457742913385827
11
-4.5526079921259841
21
5.4416552755905512
0
LINE
8
BLACK
6
CONTINUOUS
10
-4.5526079921259841
20
5.4416552755905512
11
-4.554695118110236
21
5.4373860236220475
0
LINE
8
BLACK
6
CONTINUOUS
10
-4.554695118110236
20
5.4373860236220475
11
-4.5580553149606295
21
5.434025826771653
0
LINE
8
BLACK
6
CONTINUOUS
10
-4.5580553149606295
20
5.434025826771653
11
-4.5623245669291341
21
5.4319387007874012
0
LINE
8
BLACK
6
CONTINUOUS
10
-4.5623245669291341
20
5.4319387007874012
11
-4.5664436220472444
21
5.4313386220472442
0
LINE
8
BLACK
6
CONTINUOUS
10
-4.5664436220472444
20
5.4313386220472442
11
-4.6025327952755903
21
5.4313385826771654
0
LINE
8
BLACK
6
CONTINUOUS
10
-4.6025327952755903
20
5.4313385826771654
11
-4.6066518110236219
21
5.4319387007874012
0
LINE
8
BLACK
6
CONTINUOUS
10
-4.6066518110236219
20
5.4319387007874012
11
-4.6109210629921256
21
5.434025826771653
0
LINE
8
BLACK
6
CONTINUOUS
10
-4.6109210629921256
20
5.434025826771653
11
-4.61428125984252
21
5.4373860236220475
0
LINE
8
BLACK
6
CONTINUOUS
10
-4.61428125984252
20
5.4373860236220475
11
-4.6163683858267719
21
5.4416552755905512
0
LINE
8
BLACK
6
CONTINUOUS
10
-4.6163683858267719
20
5.4416552755905512
11
-4.6169684645669289
21
5.4457743307086615
0
LINE
8
BLACK
6
CONTINUOUS
10
-4.6169684645669289
20
5.4457743307086615
11
-4.6169685039370076
21
5.4917060236220472
0
LINE
8
BLACK
6
CONTINUOUS
10
-4.6169685039370076
20
5.4917060236220472
11
-4.6163683858267719
21
5.4958250393700787
0
LINE
8
BLACK
6
CONTINUOUS
10
-4.6163683858267719
20
5.4958250393700787
11
-4.61428125984252
21
5.5000942913385824
0
LINE
8
BLACK
6
CONTINUOUS
10
-4.61428125984252
20
5.5000942913385824
11
-4.6109210629921256
21
5.503454488188976
0
LINE
8
BLACK
6
CONTINUOUS
10
-4.6109210629921256
20
5.503454488188976
11
-4.6066518110236219
21
5.5055416141732278
0
LINE
8
BLACK
6
CONTINUOUS
10
-4.6066518110236219
20
5.5055416141732278
11
-4.6025327559055116
21
5.5061416929133857
0
LINE
8
BLACK
6
CONTINUOUS
10
-4.6025327559055116
20
5.5061416929133857
11
-4.5664435826771657
21
5.5061417322834645
0
LINE
8
BLACK
6
CONTINUOUS
10
-4.5664435826771657
20
5.5061417322834645
11
-4.5623245669291341
21
5.5055416141732278
0
LINE
8
BLACK
6
CONTINUOUS
10
-4.5097398818897636
20
5.5158040551181102
11
-4.505349842519685
21
5.5135672047244091
0
LINE
8
BLACK
6
CONTINUOUS
10
-4.505349842519685
20
5.5135672047244091
11
-4.5018658661417321
21
5.5100832283464563
0
LINE
8
BLACK
6
CONTINUOUS
10
-4.5018658661417321
20
5.5100832283464563
11
-4.499629015748031
21
5.5056931889763776
0
LINE
8
BLACK
6
CONTINUOUS
10
-4.499629015748031
20
5.5056931889763776
11
-4.4988582677165354
21
5.5008267716535428
0
LINE
8
BLACK
6
CONTINUOUS
10
-4.4988582677165354
20
5.5008267716535428
11
-4.4988582677165354
21
5.4791732283464567
0
LINE
8
BLACK
6
CONTINUOUS
10
-4.4988582677165354
20
5.4791732283464567
11
-4.499629015748031
21
5.4743068110236219
0
LINE
8
BLACK
6
CONTINUOUS
10
-4.499629015748031
20
5.4743068110236219
11
-4.5018658661417321
21
5.4699167716535433
0
LINE
8
BLACK
6
CONTINUOUS
10
-4.5018658661417321
20
5.4699167716535433
11
-4.505349842519685
21
5.4664327952755905
0
LINE
8
BLACK
6
CONTINUOUS
10
-4.505349842519685
20
5.4664327952755905
11
-4.5097398818897636
21
5.4641959448818893
0
LINE
8
BLACK
6
CONTINUOUS
10
-4.5097398818897636
20
5.4641959448818893
11
-4.5146062992125984
21
5.4634251968503937
0
LINE
8
BLACK
6
CONTINUOUS
10
-4.5146062992125984
20
5.4634251968503937
11
-4.5303543307086613
21
5.4634251968503937
0
LINE
8
BLACK
6
CONTINUOUS
10
-4.5303543307086613
20
5.4634251968503937
11
-4.5352207480314961
21
5.4641959448818893
0
LINE
8
BLACK
6
CONTINUOUS
10
-4.5352207480314961
20
5.4641959448818893
11
-4.5396107874015748
21
5.4664327952755905
0
LINE
8
BLACK
6
CONTINUOUS
10
-4.5396107874015748
20
5.4664327952755905
11
-4.5430947637795276
21
5.4699167716535433
0
LINE
8
BLACK
6
CONTINUOUS
10
-4.5430947637795276
20
5.4699167716535433
11
-4.5453316141732278
21
5.4743068110236219
0
LINE
8
BLACK
6
CONTINUOUS
10
-4.5453316141732278
20
5.4743068110236219
11
-4.5461023622047243
21
5.4791732283464567
0
LINE
8
BLACK
6
CONTINUOUS
10
-4.5461023622047243
20
5.4791732283464567
11
-4.5461023622047243
21
5.5008267716535428
0
LINE
8
BLACK
6
CONTINUOUS
10
-4.5461023622047243
20
5.5008267716535428
11
-4.5453316141732278
21
5.5056931889763776
0
LINE
8
BLACK
6
CONTINUOUS
10
-4.5453316141732278
20
5.5056931889763776
11
-4.5430947637795276
21
5.5100832283464563
0
LINE
8
BLACK
6
CONTINUOUS
10
-4.5430947637795276
20
5.5100832283464563
11
-4.5396107874015748
21
5.5135672047244091
0
LINE
8
BLACK
6
CONTINUOUS
10
-4.5396107874015748
20
5.5135672047244091
11
-4.5352207480314961
21
5.5158040551181102
0
LINE
8
BLACK
6
CONTINUOUS
10
-4.5352207480314961
20
5.5158040551181102
11
-4.5303543307086613
21
5.5165748031496058
0
LINE
8
BLACK
6
CONTINUOUS
10
-4.5303543307086613
20
5.5165748031496058
11
-4.5146062992125984
21
5.5165748031496058
0
LINE
8
BLACK
6
CONTINUOUS
10
-4.5146062992125984
20
5.5165748031496058
11
-4.5097398818897636
21
5.5158040551181102
0
LINE
8
BLACK
6
CONTINUOUS
10
-4.4447792519685034
20
5.5158040551181102
11
-4.4403892125984248
21
5.5135672047244091
0
LINE
8
BLACK
6
CONTINUOUS
10
-4.4403892125984248
20
5.5135672047244091
11
-4.4369052362204719
21
5.5100832283464563
0
LINE
8
BLACK
6
CONTINUOUS
10
-4.4369052362204719
20
5.5100832283464563
11
-4.4346683858267717
21
5.5056931889763776
0
LINE
8
BLACK
6
CONTINUOUS
10
-4.4346683858267717
20
5.5056931889763776
11
-4.4338976377952752
21
5.5008267716535428
0
LINE
8
BLACK
6
CONTINUOUS
10
-4.4338976377952752
20
5.5008267716535428
11
-4.4338976377952752
21
5.4791732283464567
0
LINE
8
BLACK
6
CONTINUOUS
10
-4.4338976377952752
20
5.4791732283464567
11
-4.4346683858267717
21
5.4743068110236219
0
LINE
8
BLACK
6
CONTINUOUS
10
-4.4346683858267717
20
5.4743068110236219
11
-4.4369052362204719
21
5.4699167716535433
0
LINE
8
BLACK
6
CONTINUOUS
10
-4.4369052362204719
20
5.4699167716535433
11
-4.4403892125984248
21
5.4664327952755905
0
LINE
8
BLACK
6
CONTINUOUS
10
-4.4403892125984248
20
5.4664327952755905
11
-4.4447792519685034
21
5.4641959448818893
0
LINE
8
BLACK
6
CONTINUOUS
10
-4.4447792519685034
20
5.4641959448818893
11
-4.4496456692913382
21
5.4634251968503937
0
LINE
8
BLACK
6
CONTINUOUS
10
-4.4496456692913382
20
5.4634251968503937
11
-4.4653937007874012
21
5.4634251968503937
0
LINE
8
BLACK
6
CONTINUOUS
10
-4.4653937007874012
20
5.4634251968503937
11
-4.4702601181102359
21
5.4641959448818893
0
LINE
8
BLACK
6
CONTINUOUS
10
-4.4702601181102359
20
5.4641959448818893
11
-4.4746501574803146
21
5.4664327952755905
0
LINE
8
BLACK
6
CONTINUOUS
10
-4.4746501574803146
20
5.4664327952755905
11
-4.4781341338582674
21
5.4699167716535433
0
LINE
8
BLACK
6
CONTINUOUS
10
-4.4781341338582674
20
5.4699167716535433
11
-4.4803709842519686
21
5.4743068110236219
0
LINE
8
BLACK
6
CONTINUOUS
10
-4.4803709842519686
20
5.4743068110236219
11
-4.4811417322834641
21
5.4791732283464567
0
LINE
8
BLACK
6
CONTINUOUS
10
-4.4811417322834641
20
5.4791732283464567
11
-4.4811417322834641
21
5.5008267716535428
0
LINE
8
BLACK
6
CONTINUOUS
10
-4.4811417322834641
20
5.5008267716535428
11
-4.4803709842519686
21
5.5056931889763776
0
LINE
8
BLACK
6
CONTINUOUS
10
-4.4803709842519686
20
5.5056931889763776
11
-4.4781341338582674
21
5.5100832283464563
0
LINE
8
BLACK
6
CONTINUOUS
10
-4.4781341338582674
20
5.5100832283464563
11
-4.4746501574803146
21
5.5135672047244091
0
LINE
8
BLACK
6
CONTINUOUS
10
-4.4746501574803146
20
5.5135672047244091
11
-4.4702601181102359
21
5.5158040551181102
0
LINE
8
BLACK
6
CONTINUOUS
10
-4.4702601181102359
20
5.5158040551181102
11
-4.4653937007874012
21
5.5165748031496058
0
LINE
8
BLACK
6
CONTINUOUS
10
-4.4653937007874012
20
5.5165748031496058
11
-4.4496456692913382
21
5.5165748031496058
0
LINE
8
BLACK
6
CONTINUOUS
10
-4.4496456692913382
20
5.5165748031496058
11
-4.4447792519685034
21
5.5158040551181102
0
LINE
8
BLACK
6
CONTINUOUS
10
-4.3743068110236223
20
5.5403316141732279
11
-4.3699167716535436
21
5.5380947637795277
0
LINE
8
BLACK
6
CONTINUOUS
10
-4.3699167716535436
20
5.5380947637795277
11
-4.3664327952755908
21
5.5346107874015749
0
LINE
8
BLACK
6
CONTINUOUS
10
-4.3664327952755908
20
5.5346107874015749
11
-4.3641959448818897
21
5.5302207480314962
0
LINE
8
BLACK
6
CONTINUOUS
10
-4.3641959448818897
20
5.5302207480314962
11
-4.3634251968503932
21
5.5253543307086614
0
LINE
8
BLACK
6
CONTINUOUS
10
-4.3634251968503932
20
5.5253543307086614
11
-4.3634251968503932
21
5.5096062992125985
0
LINE
8
BLACK
6
CONTINUOUS
10
-4.3634251968503932
20
5.5096062992125985
11
-4.3641959448818897
21
5.5047398818897637
0
LINE
8
BLACK
6
CONTINUOUS
10
-4.3641959448818897
20
5.5047398818897637
11
-4.3664327952755908
21
5.5003498425196851
0
LINE
8
BLACK
6
CONTINUOUS
10
-4.3664327952755908
20
5.5003498425196851
11
-4.3699167716535436
21
5.4968658661417322
0
LINE
8
BLACK
6
CONTINUOUS
10
-4.3699167716535436
20
5.4968658661417322
11
-4.3743068110236223
21
5.4946290157480311
0
LINE
8
BLACK
6
CONTINUOUS
10
-4.3743068110236223
20
5.4946290157480311
11
-4.3791732283464562
21
5.4938582677165355
0
LINE
8
BLACK
6
CONTINUOUS
10
-4.3791732283464562
20
5.4938582677165355
11
-4.4008267716535432
21
5.4938582677165355
0
LINE
8
BLACK
6
CONTINUOUS
10
-4.4008267716535432
20
5.4938582677165355
11
-4.405693188976378
21
5.4946290157480311
0
LINE
8
BLACK
6
CONTINUOUS
10
-4.405693188976378
20
5.4946290157480311
11
-4.4100832283464566
21
5.4968658661417322
0
LINE
8
BLACK
6
CONTINUOUS
10
-4.4100832283464566
20
5.4968658661417322
11
-4.4135672047244094
21
5.5003498425196851
0
LINE
8
BLACK
6
CONTINUOUS
10
-4.4135672047244094
20
5.5003498425196851
11
-4.4158040551181097
21
5.5047398818897637
0
LINE
8
BLACK
6
CONTINUOUS
10
-4.4158040551181097
20
5.5047398818897637
11
-4.4165748031496062
21
5.5096062992125985
0
LINE
8
BLACK
6
CONTINUOUS
10
-4.4165748031496062
20
5.5096062992125985
11
-4.4165748031496062
21
5.5253543307086614
0
LINE
8
BLACK
6
CONTINUOUS
10
-4.4165748031496062
20
5.5253543307086614
11
-4.4158040551181097
21
5.5302207480314962
0
LINE
8
BLACK
6
CONTINUOUS
10
-4.4158040551181097
20
5.5302207480314962
11
-4.4135672047244094
21
5.5346107874015749
0
LINE
8
BLACK
6
CONTINUOUS
10
-4.4135672047244094
20
5.5346107874015749
11
-4.4100832283464566
21
5.5380947637795277
0
LINE
8
BLACK
6
CONTINUOUS
10
-4.4100832283464566
20
5.5380947637795277
11
-4.405693188976378
21
5.5403316141732279
0
LINE
8
BLACK
6
CONTINUOUS
10
-4.405693188976378
20
5.5403316141732279
11
-4.4008267716535432
21
5.5411023622047244
0
LINE
8
BLACK
6
CONTINUOUS
10
-4.4008267716535432
20
5.5411023622047244
11
-4.3791732283464562
21
5.5411023622047244
0
LINE
8
BLACK
6
CONTINUOUS
10
-4.3791732283464562
20
5.5411023622047244
11
-4.3743068110236223
21
5.5403316141732279
0
LINE
8
BLACK
6
CONTINUOUS
10
-4.2943068110236222
20
5.5403316141732279
11
-4.2899167716535436
21
5.5380947637795277
0
LINE
8
BLACK
6
CONTINUOUS
10
-4.2899167716535436
20
5.5380947637795277
11
-4.2864327952755907
21
5.5346107874015749
0
LINE
8
BLACK
6
CONTINUOUS
10
-4.2864327952755907
20
5.5346107874015749
11
-4.2841959448818896
21
5.5302207480314962
0
LINE
8
BLACK
6
CONTINUOUS
10
-4.2841959448818896
20
5.5302207480314962
11
-4.283425196850394
21
5.5253543307086614
0
LINE
8
BLACK
6
CONTINUOUS
10
-4.283425196850394
20
5.5253543307086614
11
-4.283425196850394
21
5.5096062992125985
0
LINE
8
BLACK
6
CONTINUOUS
10
-4.283425196850394
20
5.5096062992125985
11
-4.2841959448818896
21
5.5047398818897637
0
LINE
8
BLACK
6
CONTINUOUS
10
-4.2841959448818896
20
5.5047398818897637
11
-4.2864327952755907
21
5.5003498425196851
0
LINE
8
BLACK
6
CONTINUOUS
10
-4.2864327952755907
20
5.5003498425196851
11
-4.2899167716535436
21
5.4968658661417322
0
LINE
8
BLACK
6
CONTINUOUS
10
-4.2899167716535436
20
5.4968658661417322
11
-4.2943068110236222
21
5.4946290157480311
0
LINE
8
BLACK
6
CONTINUOUS
10
-4.2943068110236222
20
5.4946290157480311
11
-4.299173228346457
21
5.4938582677165355
0
LINE
8
BLACK
6
CONTINUOUS
10
-4.299173228346457
20
5.4938582677165355
11
-4.3208267716535431
21
5.4938582677165355
0
LINE
8
BLACK
6
CONTINUOUS
10
-4.3208267716535431
20
5.4938582677165355
11
-4.3256931889763779
21
5.4946290157480311
0
LINE
8
BLACK
6
CONTINUOUS
10
-4.3256931889763779
20
5.4946290157480311
11
-4.3300832283464565
21
5.4968658661417322
0
LINE
8
BLACK
6
CONTINUOUS
10
-4.3300832283464565
20
5.4968658661417322
11
-4.3335672047244094
21
5.5003498425196851
0
LINE
8
BLACK
6
CONTINUOUS
10
-4.3335672047244094
20
5.5003498425196851
11
-4.3358040551181105
21
5.5047398818897637
0
LINE
8
BLACK
6
CONTINUOUS
10
-4.3358040551181105
20
5.5047398818897637
11
-4.3365748031496061
21
5.5096062992125985
0
LINE
8
BLACK
6
CONTINUOUS
10
-4.3365748031496061
20
5.5096062992125985
11
-4.3365748031496061
21
5.5253543307086614
0
LINE
8
BLACK
6
CONTINUOUS
10
-4.3365748031496061
20
5.5253543307086614
11
-4.3358040551181105
21
5.5302207480314962
0
LINE
8
BLACK
6
CONTINUOUS
10
-4.3358040551181105
20
5.5302207480314962
11
-4.3335672047244094
21
5.5346107874015749
0
LINE
8
BLACK
6
CONTINUOUS
10
-4.3335672047244094
20
5.5346107874015749
11
-4.3300832283464565
21
5.5380947637795277
0
LINE
8
BLACK
6
CONTINUOUS
10
-4.3300832283464565
20
5.5380947637795277
11
-4.3256931889763779
21
5.5403316141732279
0
LINE
8
BLACK
6
CONTINUOUS
10
-4.3256931889763779
20
5.5403316141732279
11
-4.3208267716535431
21
5.5411023622047244
0
LINE
8
BLACK
6
CONTINUOUS
10
-4.3208267716535431
20
5.5411023622047244
11
-4.299173228346457
21
5.5411023622047244
0
LINE
8
BLACK
6
CONTINUOUS
10
-4.299173228346457
20
5.5411023622047244
11
-4.2943068110236222
21
5.5403316141732279
0
LINE
8
BLACK
6
CONTINUOUS
10
-4.8863125984251967
20
5.5658722440944883
11
-4.8813279133858263
21
5.5641280314960628
0
LINE
8
BLACK
6
CONTINUOUS
10
-4.8813279133858263
20
5.5641280314960628
11
-4.8770788188976377
21
5.5609920472440946
0
LINE
8
BLACK
6
CONTINUOUS
10
-4.8770788188976377
20
5.5609920472440946
11
-4.8739428346456695
21
5.5567429527559051
0
LINE
8
BLACK
6
CONTINUOUS
10
-4.8739428346456695
20
5.5567429527559051
11
-4.872198622047244
21
5.5517582677165356
0
LINE
8
BLACK
6
CONTINUOUS
10
-4.872198622047244
20
5.5517582677165356
11
-4.8718897637795271
21
5.5484645669291339
0
LINE
8
BLACK
6
CONTINUOUS
10
-4.8718897637795271
20
5.5484645669291339
11
-4.8718897637795271
21
5.5287795275590552
0
LINE
8
BLACK
6
CONTINUOUS
10
-4.8718897637795271
20
5.5287795275590552
11
-4.872198622047244
21
5.5254858267716536
0
LINE
8
BLACK
6
CONTINUOUS
10
-4.872198622047244
20
5.5254858267716536
11
-4.8739428346456695
21
5.5205011417322831
0
LINE
8
BLACK
6
CONTINUOUS
10
-4.8739428346456695
20
5.5205011417322831
11
-4.8770788188976377
21
5.5162520472440946
0
LINE
8
BLACK
6
CONTINUOUS
10
-4.8770788188976377
20
5.5162520472440946
11
-4.8813279133858263
21
5.5131160629921254
0
LINE
8
BLACK
6
CONTINUOUS
10
-4.8813279133858263
20
5.5131160629921254
11
-4.8863125984251967
21
5.5113718503937008
0
LINE
8
BLACK
6
CONTINUOUS
10
-4.8863125984251967
20
5.5113718503937008
11
-4.8896062992125984
21
5.5110629921259839
0
LINE
8
BLACK
6
CONTINUOUS
10
-4.8896062992125984
20
5.5110629921259839
11
-4.9762204724409447
21
5.5110629921259839
0
LINE
8
BLACK
6
CONTINUOUS
10
-4.9762204724409447
20
5.5110629921259839
11
-4.9795141732283463
21
5.5113718503937008
0
LINE
8
BLACK
6
CONTINUOUS
10
-4.9795141732283463
20
5.5113718503937008
11
-4.9844988582677168
21
5.5131160629921254
0
LINE
8
BLACK
6
CONTINUOUS
10
-4.9844988582677168
20
5.5131160629921254
11
-4.9887479527559053
21
5.5162520472440946
0
LINE
8
BLACK
6
CONTINUOUS
10
-4.9887479527559053
20
5.5162520472440946
11
-4.9918839370078736
21
5.5205011417322831
0
LINE
8
BLACK
6
CONTINUOUS
10
-4.9918839370078736
20
5.5205011417322831
11
-4.9936281496062991
21
5.5254858267716536
0
LINE
8
BLACK
6
CONTINUOUS
10
-4.9936281496062991
20
5.5254858267716536
11
-4.993937007874016
21
5.5287795275590552
0
LINE
8
BLACK
6
CONTINUOUS
10
-4.993937007874016
20
5.5287795275590552
11
-4.993937007874016
21
5.5484645669291339
0
LINE
8
BLACK
6
CONTINUOUS
10
-4.993937007874016
20
5.5484645669291339
11
-4.9936281496062991
21
5.5517582677165356
0
LINE
8
BLACK
6
CONTINUOUS
10
-4.9936281496062991
20
5.5517582677165356
11
-4.9918839370078736
21
5.5567429527559051
0
LINE
8
BLACK
6
CONTINUOUS
10
-4.9918839370078736
20
5.5567429527559051
11
-4.9887479527559053
21
5.5609920472440946
0
LINE
8
BLACK
6
CONTINUOUS
10
-4.9887479527559053
20
5.5609920472440946
11
-4.9844988582677168
21
5.5641280314960628
0
LINE
8
BLACK
6
CONTINUOUS
10
-4.9844988582677168
20
5.5641280314960628
11
-4.9795141732283463
21
5.5658722440944883
0
LINE
8
BLACK
6
CONTINUOUS
10
-4.9795141732283463
20
5.5658722440944883
11
-4.9762204724409447
21
5.5661811023622043
0
LINE
8
BLACK
6
CONTINUOUS
10
-4.9762204724409447
20
5.5661811023622043
11
-4.8896062992125984
21
5.5661811023622043
0
LINE
8
BLACK
6
CONTINUOUS
10
-4.8896062992125984
20
5.5661811023622043
11
-4.8863125984251967
21
5.5658722440944883
0
LINE
8
BLACK
6
CONTINUOUS
10
-4.0162338582677162
20
5.5658722440944883
11
-4.0112491732283466
21
5.5641280314960628
0
LINE
8
BLACK
6
CONTINUOUS
10
-4.0112491732283466
20
5.5641280314960628
11
-4.0070000787401572
21
5.5609920472440946
0
LINE
8
BLACK
6
CONTINUOUS
10
-4.0070000787401572
20
5.5609920472440946
11
-4.0038640944881889
21
5.5567429527559051
0
LINE
8
BLACK
6
CONTINUOUS
10
-4.0038640944881889
20
5.5567429527559051
11
-4.0021198818897634
21
5.5517582677165356
0
LINE
8
BLACK
6
CONTINUOUS
10
-4.0021198818897634
20
5.5517582677165356
11
-4.0018110236220474
21
5.5484645669291339
0
LINE
8
BLACK
6
CONTINUOUS
10
-4.0018110236220474
20
5.5484645669291339
11
-4.0018110236220474
21
5.5287795275590552
0
LINE
8
BLACK
6
CONTINUOUS
10
-4.0018110236220474
20
5.5287795275590552
11
-4.0021198818897634
21
5.5254858267716536
0
LINE
8
BLACK
6
CONTINUOUS
10
-4.0021198818897634
20
5.5254858267716536
11
-4.0038640944881889
21
5.5205011417322831
0
LINE
8
BLACK
6
CONTINUOUS
10
-4.0038640944881889
20
5.5205011417322831
11
-4.0070000787401572
21
5.5162520472440946
0
LINE
8
BLACK
6
CONTINUOUS
10
-4.0070000787401572
20
5.5162520472440946
11
-4.0112491732283466
21
5.5131160629921254
0
LINE
8
BLACK
6
CONTINUOUS
10
-4.0112491732283466
20
5.5131160629921254
11
-4.0162338582677162
21
5.5113718503937008
0
LINE
8
BLACK
6
CONTINUOUS
10
-4.0162338582677162
20
5.5113718503937008
11
-4.0195275590551178
21
5.5110629921259839
0
LINE
8
BLACK
6
CONTINUOUS
10
-4.0195275590551178
20
5.5110629921259839
11
-4.1061417322834641
21
5.5110629921259839
0
LINE
8
BLACK
6
CONTINUOUS
10
-4.1061417322834641
20
5.5110629921259839
11
-4.1094354330708658
21
5.5113718503937008
0
LINE
8
BLACK
6
CONTINUOUS
10
-4.1094354330708658
20
5.5113718503937008
11
-4.1144201181102362
21
5.5131160629921254
0
LINE
8
BLACK
6
CONTINUOUS
10
-4.1144201181102362
20
5.5131160629921254
11
-4.1186692125984248
21
5.5162520472440946
0
LINE
8
BLACK
6
CONTINUOUS
10
-4.1186692125984248
20
5.5162520472440946
11
-4.1218051968503939
21
5.5205011417322831
0
LINE
8
BLACK
6
CONTINUOUS
10
-4.1218051968503939
20
5.5205011417322831
11
-4.1235494094488185
21
5.5254858267716536
0
LINE
8
BLACK
6
CONTINUOUS
10
-4.1235494094488185
20
5.5254858267716536
11
-4.1238582677165354
21
5.5287795275590552
0
LINE
8
BLACK
6
CONTINUOUS
10
-4.1238582677165354
20
5.5287795275590552
11
-4.1238582677165354
21
5.5484645669291339
0
LINE
8
BLACK
6
CONTINUOUS
10
-4.1238582677165354
20
5.5484645669291339
11
-4.1235494094488185
21
5.5517582677165356
0
LINE
8
BLACK
6
CONTINUOUS
10
-4.1235494094488185
20
5.5517582677165356
11
-4.1218051968503939
21
5.5567429527559051
0
LINE
8
BLACK
6
CONTINUOUS
10
-4.1218051968503939
20
5.5567429527559051
11
-4.1186692125984248
21
5.5609920472440946
0
LINE
8
BLACK
6
CONTINUOUS
10
-4.1186692125984248
20
5.5609920472440946
11
-4.1144201181102362
21
5.5641280314960628
0
LINE
8
BLACK
6
CONTINUOUS
10
-4.1144201181102362
20
5.5641280314960628
11
-4.1094354330708658
21
5.5658722440944883
0
LINE
8
BLACK
6
CONTINUOUS
10
-4.1094354330708658
20
5.5658722440944883
11
-4.1061417322834641
21
5.5661811023622043
0
LINE
8
BLACK
6
CONTINUOUS
10
-4.1061417322834641
20
5.5661811023622043
11
-4.0195275590551178
21
5.5661811023622043
0
LINE
8
BLACK
6
CONTINUOUS
10
-4.0195275590551178
20
5.5661811023622043
11
-4.0162338582677162
21
5.5658722440944883
0
LINE
8
BLACK
6
CONTINUOUS
10
-4.5343068110236215
20
5.5913749212598427
11
-4.5299167716535429
21
5.5891380708661416
0
LINE
8
BLACK
6
CONTINUOUS
10
-4.5299167716535429
20
5.5891380708661416
11
-4.5264327952755901
21
5.5856540944881887
0
LINE
8
BLACK
6
CONTINUOUS
10
-4.5264327952755901
20
5.5856540944881887
11
-4.5241959448818898
21
5.5812640551181101
0
LINE
8
BLACK
6
CONTINUOUS
10
-4.5241959448818898
20
5.5812640551181101
11
-4.5234251968503933
21
5.5763976377952753
0
LINE
8
BLACK
6
CONTINUOUS
10
-4.5234251968503933
20
5.5763976377952753
11
-4.5234251968503933
21
5.5606496062992123
0
LINE
8
BLACK
6
CONTINUOUS
10
-4.5234251968503933
20
5.5606496062992123
11
-4.5241959448818898
21
5.5557831889763776
0
LINE
8
BLACK
6
CONTINUOUS
10
-4.5241959448818898
20
5.5557831889763776
11
-4.5264327952755901
21
5.5513931496062989
0
LINE
8
BLACK
6
CONTINUOUS
10
-4.5264327952755901
20
5.5513931496062989
11
-4.5299167716535429
21
5.5479091732283461
0
LINE
8
BLACK
6
CONTINUOUS
10
-4.5299167716535429
20
5.5479091732283461
11
-4.5343068110236215
21
5.5456723228346458
0
LINE
8
BLACK
6
CONTINUOUS
10
-4.5343068110236215
20
5.5456723228346458
11
-4.5391732283464563
21
5.5449015748031494
0
LINE
8
BLACK
6
CONTINUOUS
10
-4.5391732283464563
20
5.5449015748031494
11
-4.5608267716535433
21
5.5449015748031494
0
LINE
8
BLACK
6
CONTINUOUS
10
-4.5608267716535433
20
5.5449015748031494
11
-4.5656931889763781
21
5.5456723228346458
0
LINE
8
BLACK
6
CONTINUOUS
10
-4.5656931889763781
20
5.5456723228346458
11
-4.5700832283464567
21
5.5479091732283461
0
LINE
8
BLACK
6
CONTINUOUS
10
-4.5700832283464567
20
5.5479091732283461
11
-4.5735672047244096
21
5.5513931496062989
0
LINE
8
BLACK
6
CONTINUOUS
10
-4.5735672047244096
20
5.5513931496062989
11
-4.5758040551181098
21
5.5557831889763776
0
LINE
8
BLACK
6
CONTINUOUS
10
-4.5758040551181098
20
5.5557831889763776
11
-4.5765748031496063
21
5.5606496062992123
0
LINE
8
BLACK
6
CONTINUOUS
10
-4.5765748031496063
20
5.5606496062992123
11
-4.5765748031496063
21
5.5763976377952753
0
LINE
8
BLACK
6
CONTINUOUS
10
-4.5765748031496063
20
5.5763976377952753
11
-4.5758040551181098
21
5.5812640551181101
0
LINE
8
BLACK
6
CONTINUOUS
10
-4.5758040551181098
20
5.5812640551181101
11
-4.5735672047244096
21
5.5856540944881887
0
LINE
8
BLACK
6
CONTINUOUS
10
-4.5735672047244096
20
5.5856540944881887
11
-4.5700832283464567
21
5.5891380708661416
0
LINE
8
BLACK
6
CONTINUOUS
10
-4.5700832283464567
20
5.5891380708661416
11
-4.5656931889763781
21
5.5913749212598427
0
LINE
8
BLACK
6
CONTINUOUS
10
-4.5656931889763781
20
5.5913749212598427
11
-4.5608267716535433
21
5.5921456692913383
0
LINE
8
BLACK
6
CONTINUOUS
10
-4.5608267716535433
20
5.5921456692913383
11
-4.5391732283464563
21
5.5921456692913383
0
LINE
8
BLACK
6
CONTINUOUS
10
-4.5391732283464563
20
5.5921456692913383
11
-4.5343068110236215
21
5.5913749212598427
0
LINE
8
BLACK
6
CONTINUOUS
10
-4.682564251968504
20
5.6186003937007873
11
-4.6784890944881887
21
5.6166081496062992
0
LINE
8
BLACK
6
CONTINUOUS
10
-4.6784890944881887
20
5.6166081496062992
11
-4.6752816141732279
21
5.6134006692913383
0
LINE
8
BLACK
6
CONTINUOUS
10
-4.6752816141732279
20
5.6134006692913383
11
-4.6737007874015744
21
5.6101670472440945
0
LINE
8
BLACK
6
CONTINUOUS
10
-4.6737007874015744
20
5.6101670472440945
11
-4.6721199606299209
21
5.6134006692913383
0
LINE
8
BLACK
6
CONTINUOUS
10
-4.6721199606299209
20
5.6134006692913383
11
-4.6689124803149609
21
5.6166081496062992
0
LINE
8
BLACK
6
CONTINUOUS
10
-4.6689124803149609
20
5.6166081496062992
11
-4.6648373228346456
21
5.6186003937007873
0
LINE
8
BLACK
6
CONTINUOUS
10
-4.6648373228346456
20
5.6186003937007873
11
-4.6609055118110234
21
5.6191732283464564
0
LINE
8
BLACK
6
CONTINUOUS
10
-4.6609055118110234
20
5.6191732283464564
11
-4.6490944881889762
21
5.6191732283464564
0
LINE
8
BLACK
6
CONTINUOUS
10
-4.6490944881889762
20
5.6191732283464564
11
-4.645162677165354
21
5.6186003937007873
0
LINE
8
BLACK
6
CONTINUOUS
10
-4.645162677165354
20
5.6186003937007873
11
-4.6410875196850396
21
5.6166081496062992
0
LINE
8
BLACK
6
CONTINUOUS
10
-4.6410875196850396
20
5.6166081496062992
11
-4.6378800393700788
21
5.6134006692913383
0
LINE
8
BLACK
6
CONTINUOUS
10
-4.6378800393700788
20
5.6134006692913383
11
-4.6362992125984253
21
5.6101670472440945
0
LINE
8
BLACK
6
CONTINUOUS
10
-4.6362992125984253
20
5.6101670472440945
11
-4.6347183858267718
21
5.6134006692913383
0
LINE
8
BLACK
6
CONTINUOUS
10
-4.6347183858267718
20
5.6134006692913383
11
-4.6315109055118109
21
5.6166081496062992
0
LINE
8
BLACK
6
CONTINUOUS
10
-4.6315109055118109
20
5.6166081496062992
11
-4.6274357480314956
21
5.6186003937007873
0
LINE
8
BLACK
6
CONTINUOUS
10
-4.6274357480314956
20
5.6186003937007873
11
-4.6235039370078743
21
5.6191732283464564
0
LINE
8
BLACK
6
CONTINUOUS
10
-4.6235039370078743
20
5.6191732283464564
11
-4.6116929133858271
21
5.6191732283464564
0
LINE
8
BLACK
6
CONTINUOUS
10
-4.6116929133858271
20
5.6191732283464564
11
-4.6077611023622049
21
5.6186003937007873
0
LINE
8
BLACK
6
CONTINUOUS
10
-4.6077611023622049
20
5.6186003937007873
11
-4.6036859448818896
21
5.6166081496062992
0
LINE
8
BLACK
6
CONTINUOUS
10
-4.6036859448818896
20
5.6166081496062992
11
-4.6004784645669288
21
5.6134006692913383
0
LINE
8
BLACK
6
CONTINUOUS
10
-4.6004784645669288
20
5.6134006692913383
11
-4.5984862204724406
21
5.6093255118110239
0
LINE
8
BLACK
6
CONTINUOUS
10
-4.5984862204724406
20
5.6093255118110239
11
-4.5979133858267716
21
5.6053937007874017
0
LINE
8
BLACK
6
CONTINUOUS
10
-4.5979133858267716
20
5.6053937007874017
11
-4.5979133858267716
21
5.5650393700787397
0
LINE
8
BLACK
6
CONTINUOUS
10
-4.5979133858267716
20
5.5650393700787397
11
-4.5984862204724406
21
5.5611075590551176
0
LINE
8
BLACK
6
CONTINUOUS
10
-4.5984862204724406
20
5.5611075590551176
11
-4.6004784645669288
21
5.5570324015748032
0
LINE
8
BLACK
6
CONTINUOUS
10
-4.6004784645669288
20
5.5570324015748032
11
-4.6036859448818896
21
5.5538249212598423
0
LINE
8
BLACK
6
CONTINUOUS
10
-4.6036859448818896
20
5.5538249212598423
11
-4.6077611023622049
21
5.5518326771653541
0
LINE
8
BLACK
6
CONTINUOUS
10
-4.6077611023622049
20
5.5518326771653541
11
-4.6116929133858271
21
5.5512598425196851
0
LINE
8
BLACK
6
CONTINUOUS
10
-4.6116929133858271
20
5.5512598425196851
11
-4.6235039370078743
21
5.5512598425196851
0
LINE
8
BLACK
6
CONTINUOUS
10
-4.6235039370078743
20
5.5512598425196851
11
-4.6274357480314956
21
5.5518326771653541
0
LINE
8
BLACK
6
CONTINUOUS
10
-4.6274357480314956
20
5.5518326771653541
11
-4.6315109055118109
21
5.5538249212598423
0
LINE
8
BLACK
6
CONTINUOUS
10
-4.6315109055118109
20
5.5538249212598423
11
-4.6347183858267718
21
5.5570324015748032
0
LINE
8
BLACK
6
CONTINUOUS
10
-4.6347183858267718
20
5.5570324015748032
11
-4.6362992125984253
21
5.5602659842519682
0
LINE
8
BLACK
6
CONTINUOUS
10
-4.6362992125984253
20
5.5602659842519682
11
-4.6378800393700788
21
5.5570324015748032
0
LINE
8
BLACK
6
CONTINUOUS
10
-4.6378800393700788
20
5.5570324015748032
11
-4.6410875196850396
21
5.5538249212598423
0
LINE
8
BLACK
6
CONTINUOUS
10
-4.6410875196850396
20
5.5538249212598423
11
-4.645162677165354
21
5.5518326771653541
0
LINE
8
BLACK
6
CONTINUOUS
10
-4.645162677165354
20
5.5518326771653541
11
-4.6490944881889762
21
5.5512598425196851
0
LINE
8
BLACK
6
CONTINUOUS
10
-4.6490944881889762
20
5.5512598425196851
11
-4.6609055118110234
21
5.5512598425196851
0
LINE
8
BLACK
6
CONTINUOUS
10
-4.6609055118110234
20
5.5512598425196851
11
-4.6648373228346456
21
5.5518326771653541
0
LINE
8
BLACK
6
CONTINUOUS
10
-4.6648373228346456
20
5.5518326771653541
11
-4.6689124803149609
21
5.5538249212598423
0
LINE
8
BLACK
6
CONTINUOUS
10
-4.6689124803149609
20
5.5538249212598423
11
-4.6721199606299209
21
5.5570324015748032
0
LINE
8
BLACK
6
CONTINUOUS
10
-4.6721199606299209
20
5.5570324015748032
11
-4.6737007874015744
21
5.5602659842519682
0
LINE
8
BLACK
6
CONTINUOUS
10
-4.6737007874015744
20
5.5602659842519682
11
-4.6752816141732279
21
5.5570324015748032
0
LINE
8
BLACK
6
CONTINUOUS
10
-4.6752816141732279
20
5.5570324015748032
11
-4.6784890944881887
21
5.5538249212598423
0
LINE
8
BLACK
6
CONTINUOUS
10
-4.6784890944881887
20
5.5538249212598423
11
-4.682564251968504
21
5.5518326771653541
0
LINE
8
BLACK
6
CONTINUOUS
10
-4.682564251968504
20
5.5518326771653541
11
-4.6864960629921262
21
5.5512598425196851
0
LINE
8
BLACK
6
CONTINUOUS
10
-4.6864960629921262
20
5.5512598425196851
11
-4.6983070866141734
21
5.5512598425196851
0
LINE
8
BLACK
6
CONTINUOUS
10
-4.6983070866141734
20
5.5512598425196851
11
-4.7022388976377956
21
5.5518326771653541
0
LINE
8
BLACK
6
CONTINUOUS
10
-4.7022388976377956
20
5.5518326771653541
11
-4.70631405511811
21
5.5538249212598423
0
LINE
8
BLACK
6
CONTINUOUS
10
-4.70631405511811
20
5.5538249212598423
11
-4.7095215354330708
21
5.5570324015748032
0
LINE
8
BLACK
6
CONTINUOUS
10
-4.7095215354330708
20
5.5570324015748032
11
-4.711513779527559
21
5.5611075590551176
0
LINE
8
BLACK
6
CONTINUOUS
10
-4.711513779527559
20
5.5611075590551176
11
-4.712086614173228
21
5.5650393700787397
0
LINE
8
BLACK
6
CONTINUOUS
10
-4.712086614173228
20
5.5650393700787397
11
-4.712086614173228
21
5.6053937007874017
0
LINE
8
BLACK
6
CONTINUOUS
10
-4.712086614173228
20
5.6053937007874017
11
-4.711513779527559
21
5.6093255118110239
0
LINE
8
BLACK
6
CONTINUOUS
10
-4.711513779527559
20
5.6093255118110239
11
-4.7095215354330708
21
5.6134006692913383
0
LINE
8
BLACK
6
CONTINUOUS
10
-4.7095215354330708
20
5.6134006692913383
11
-4.70631405511811
21
5.6166081496062992
0
LINE
8
BLACK
6
CONTINUOUS
10
-4.70631405511811
20
5.6166081496062992
11
-4.7022388976377956
21
5.6186003937007873
0
LINE
8
BLACK
6
CONTINUOUS
10
-4.7022388976377956
20
5.6186003937007873
11
-4.6983070866141734
21
5.6191732283464564
0
LINE
8
BLACK
6
CONTINUOUS
10
-4.6983070866141734
20
5.6191732283464564
11
-4.6864960629921262
21
5.6191732283464564
0
LINE
8
BLACK
6
CONTINUOUS
10
-4.6864960629921262
20
5.6191732283464564
11
-4.682564251968504
21
5.6186003937007873
0
LINE
8
BLACK
6
CONTINUOUS
10
-4.4365142913385824
20
5.6344793700787399
11
-4.435590551181102
21
5.6338621259842521
0
LINE
8
BLACK
6
CONTINUOUS
10
-4.435590551181102
20
5.6338621259842521
11
-4.4346668110236216
21
5.6344793700787399
0
LINE
8
BLACK
6
CONTINUOUS
10
-4.4346668110236216
20
5.6344793700787399
11
-4.4316535433070863
21
5.6350787401574802
0
LINE
8
BLACK
6
CONTINUOUS
10
-4.4316535433070863
20
5.6350787401574802
11
-4.4139370078740159
21
5.6350787401574802
0
LINE
8
BLACK
6
CONTINUOUS
10
-4.4139370078740159
20
5.6350787401574802
11
-4.4109237401574806
21
5.6344793700787399
0
LINE
8
BLACK
6
CONTINUOUS
10
-4.4109237401574806
20
5.6344793700787399
11
-4.4100000000000001
21
5.6338621259842521
0
LINE
8
BLACK
6
CONTINUOUS
10
-4.4100000000000001
20
5.6338621259842521
11
-4.4090762598425197
21
5.6344793700787399
0
LINE
8
BLACK
6
CONTINUOUS
10
-4.4090762598425197
20
5.6344793700787399
11
-4.4060629921259844
21
5.6350787401574802
0
LINE
8
BLACK
6
CONTINUOUS
10
-4.4060629921259844
20
5.6350787401574802
11
-4.3883464566929131
21
5.6350787401574802
0
LINE
8
BLACK
6
CONTINUOUS
10
-4.3883464566929131
20
5.6350787401574802
11
-4.3853331889763778
21
5.6344793700787399
0
LINE
8
BLACK
6
CONTINUOUS
10
-4.3853331889763778
20
5.6344793700787399
11
-4.3844094488188974
21
5.6338621259842521
0
LINE
8
BLACK
6
CONTINUOUS
10
-4.3844094488188974
20
5.6338621259842521
11
-4.383485708661417
21
5.6344793700787399
0
LINE
8
BLACK
6
CONTINUOUS
10
-4.383485708661417
20
5.6344793700787399
11
-4.3804724409448816
21
5.6350787401574802
0
LINE
8
BLACK
6
CONTINUOUS
10
-4.3804724409448816
20
5.6350787401574802
11
-4.3627559055118112
21
5.6350787401574802
0
LINE
8
BLACK
6
CONTINUOUS
10
-4.3627559055118112
20
5.6350787401574802
11
-4.3597426377952759
21
5.6344793700787399
0
LINE
8
BLACK
6
CONTINUOUS
10
-4.3597426377952759
20
5.6344793700787399
11
-4.3571881496062987
21
5.6327724803149604
0
LINE
8
BLACK
6
CONTINUOUS
10
-4.3571881496062987
20
5.6327724803149604
11
-4.3554812598425192
21
5.6302179921259841
0
LINE
8
BLACK
6
CONTINUOUS
10
-4.3554812598425192
20
5.6302179921259841
11
-4.3548818897637798
21
5.6272047244094487
0
LINE
8
BLACK
6
CONTINUOUS
10
-4.3548818897637798
20
5.6272047244094487
11
-4.3548818897637798
21
5.5701181102362201
0
LINE
8
BLACK
6
CONTINUOUS
10
-4.3548818897637798
20
5.5701181102362201
11
-4.3554812598425192
21
5.5671048425196847
0
LINE
8
BLACK
6
CONTINUOUS
10
-4.3554812598425192
20
5.5671048425196847
11
-4.3571881496062987
21
5.5645503543307084
0
LINE
8
BLACK
6
CONTINUOUS
10
-4.3571881496062987
20
5.5645503543307084
11
-4.3597426377952759
21
5.5628434645669289
0
LINE
8
BLACK
6
CONTINUOUS
10
-4.3597426377952759
20
5.5628434645669289
11
-4.3627559055118112
21
5.5622440944881886
0
LINE
8
BLACK
6
CONTINUOUS
10
-4.3627559055118112
20
5.5622440944881886
11
-4.3804724409448816
21
5.5622440944881886
0
LINE
8
BLACK
6
CONTINUOUS
10
-4.3804724409448816
20
5.5622440944881886
11
-4.383485708661417
21
5.5628434645669289
0
LINE
8
BLACK
6
CONTINUOUS
10
-4.383485708661417
20
5.5628434645669289
11
-4.3844094488188974
21
5.5634606692913389
0
LINE
8
BLACK
6
CONTINUOUS
10
-4.3844094488188974
20
5.5634606692913389
11
-4.3853331889763778
21
5.5628434645669289
0
LINE
8
BLACK
6
CONTINUOUS
10
-4.3853331889763778
20
5.5628434645669289
11
-4.3883464566929131
21
5.5622440944881886
0
LINE
8
BLACK
6
CONTINUOUS
10
-4.3883464566929131
20
5.5622440944881886
11
-4.4060629921259844
21
5.5622440944881886
0
LINE
8
BLACK
6
CONTINUOUS
10
-4.4060629921259844
20
5.5622440944881886
11
-4.4090762598425197
21
5.5628434645669289
0
LINE
8
BLACK
6
CONTINUOUS
10
-4.4090762598425197
20
5.5628434645669289
11
-4.4100000000000001
21
5.5634606692913389
0
LINE
8
BLACK
6
CONTINUOUS
10
-4.4100000000000001
20
5.5634606692913389
11
-4.4109237401574806
21
5.5628434645669289
0
LINE
8
BLACK
6
CONTINUOUS
10
-4.4109237401574806
20
5.5628434645669289
11
-4.4139370078740159
21
5.5622440944881886
0
LINE
8
BLACK
6
CONTINUOUS
10
-4.4139370078740159
20
5.5622440944881886
11
-4.4316535433070863
21
5.5622440944881886
0
LINE
8
BLACK
6
CONTINUOUS
10
-4.4316535433070863
20
5.5622440944881886
11
-4.4346668110236216
21
5.5628434645669289
0
LINE
8
BLACK
6
CONTINUOUS
10
-4.4346668110236216
20
5.5628434645669289
11
-4.435590551181102
21
5.5634606692913389
0
LINE
8
BLACK
6
CONTINUOUS
10
-4.435590551181102
20
5.5634606692913389
11
-4.4365142913385824
21
5.5628434645669289
0
LINE
8
BLACK
6
CONTINUOUS
10
-4.4365142913385824
20
5.5628434645669289
11
-4.4395275590551178
21
5.5622440944881886
0
LINE
8
BLACK
6
CONTINUOUS
10
-4.4395275590551178
20
5.5622440944881886
11
-4.457244094488189
21
5.5622440944881886
0
LINE
8
BLACK
6
CONTINUOUS
10
-4.457244094488189
20
5.5622440944881886
11
-4.4602573622047244
21
5.5628434645669289
0
LINE
8
BLACK
6
CONTINUOUS
10
-4.4602573622047244
20
5.5628434645669289
11
-4.4628118503937007
21
5.5645503543307084
0
LINE
8
BLACK
6
CONTINUOUS
10
-4.4628118503937007
20
5.5645503543307084
11
-4.4645187401574802
21
5.5671048425196847
0
LINE
8
BLACK
6
CONTINUOUS
10
-4.4645187401574802
20
5.5671048425196847
11
-4.4651181102362205
21
5.5701181102362201
0
LINE
8
BLACK
6
CONTINUOUS
10
-4.4651181102362205
20
5.5701181102362201
11
-4.4651181102362205
21
5.6272047244094487
0
LINE
8
BLACK
6
CONTINUOUS
10
-4.4651181102362205
20
5.6272047244094487
11
-4.4645187401574802
21
5.6302179921259841
0
LINE
8
BLACK
6
CONTINUOUS
10
-4.4645187401574802
20
5.6302179921259841
11
-4.4628118503937007
21
5.6327724803149604
0
LINE
8
BLACK
6
CONTINUOUS
10
-4.4628118503937007
20
5.6327724803149604
11
-4.4602573622047244
21
5.6344793700787399
0
LINE
8
BLACK
6
CONTINUOUS
10
-4.4602573622047244
20
5.6344793700787399
11
-4.457244094488189
21
5.6350787401574802
0
LINE
8
BLACK
6
CONTINUOUS
10
-4.457244094488189
20
5.6350787401574802
11
-4.4395275590551178
21
5.6350787401574802
0
LINE
8
BLACK
6
CONTINUOUS
10
-4.4395275590551178
20
5.6350787401574802
11
-4.4365142913385824
21
5.6344793700787399
0
LINE
8
BLACK
6
CONTINUOUS
10
-4.7754382677165355
20
5.6305688976377954
11
-4.7713631102362202
21
5.6285766535433073
0
LINE
8
BLACK
6
CONTINUOUS
10
-4.7713631102362202
20
5.6285766535433073
11
-4.7681556299212593
21
5.6253691732283464
0
LINE
8
BLACK
6
CONTINUOUS
10
-4.7681556299212593
20
5.6253691732283464
11
-4.7661633858267711
21
5.6212940157480311
0
LINE
8
BLACK
6
CONTINUOUS
10
-4.7661633858267711
20
5.6212940157480311
11
-4.7655905511811021
21
5.6173622047244089
0
LINE
8
BLACK
6
CONTINUOUS
10
-4.7655905511811021
20
5.6173622047244089
11
-4.7655905511811021
21
5.6055511811023617
0
LINE
8
BLACK
6
CONTINUOUS
10
-4.7655905511811021
20
5.6055511811023617
11
-4.7661633858267711
21
5.6016193700787404
0
LINE
8
BLACK
6
CONTINUOUS
10
-4.7661633858267711
20
5.6016193700787404
11
-4.7681556299212593
21
5.5975442125984252
0
LINE
8
BLACK
6
CONTINUOUS
10
-4.7681556299212593
20
5.5975442125984252
11
-4.7713631102362202
21
5.5943367322834643
0
LINE
8
BLACK
6
CONTINUOUS
10
-4.7713631102362202
20
5.5943367322834643
11
-4.7754382677165355
21
5.5923444881889761
0
LINE
8
BLACK
6
CONTINUOUS
10
-4.7754382677165355
20
5.5923444881889761
11
-4.7793700787401576
21
5.5917716535433071
0
LINE
8
BLACK
6
CONTINUOUS
10
-4.7793700787401576
20
5.5917716535433071
11
-4.834488188976378
21
5.5917716535433071
0
LINE
8
BLACK
6
CONTINUOUS
10
-4.834488188976378
20
5.5917716535433071
11
-4.8384200000000002
21
5.5923444881889761
0
LINE
8
BLACK
6
CONTINUOUS
10
-4.8384200000000002
20
5.5923444881889761
11
-4.8424951574803146
21
5.5943367322834643
0
LINE
8
BLACK
6
CONTINUOUS
10
-4.8424951574803146
20
5.5943367322834643
11
-4.8457026377952754
21
5.5975442125984252
0
LINE
8
BLACK
6
CONTINUOUS
10
-4.8457026377952754
20
5.5975442125984252
11
-4.8476948818897636
21
5.6016193700787404
0
LINE
8
BLACK
6
CONTINUOUS
10
-4.8476948818897636
20
5.6016193700787404
11
-4.8482677165354326
21
5.6055511811023617
0
LINE
8
BLACK
6
CONTINUOUS
10
-4.8482677165354326
20
5.6055511811023617
11
-4.8482677165354326
21
5.6173622047244089
0
LINE
8
BLACK
6
CONTINUOUS
10
-4.8482677165354326
20
5.6173622047244089
11
-4.8476948818897636
21
5.6212940157480311
0
LINE
8
BLACK
6
CONTINUOUS
10
-4.8476948818897636
20
5.6212940157480311
11
-4.8457026377952754
21
5.6253691732283464
0
LINE
8
BLACK
6
CONTINUOUS
10
-4.8457026377952754
20
5.6253691732283464
11
-4.8424951574803146
21
5.6285766535433073
0
LINE
8
BLACK
6
CONTINUOUS
10
-4.8424951574803146
20
5.6285766535433073
11
-4.8384200000000002
21
5.6305688976377954
0
LINE
8
BLACK
6
CONTINUOUS
10
-4.8384200000000002
20
5.6305688976377954
11
-4.834488188976378
21
5.6311417322834645
0
LINE
8
BLACK
6
CONTINUOUS
10
-4.834488188976378
20
5.6311417322834645
11
-4.7793700787401576
21
5.6311417322834645
0
LINE
8
BLACK
6
CONTINUOUS
10
-4.7793700787401576
20
5.6311417322834645
11
-4.7754382677165355
21
5.6305688976377954
0
LINE
8
BLACK
6
CONTINUOUS
10
-4.1573280314960632
20
5.6305688976377954
11
-4.1532528740157479
21
5.6285766535433073
0
LINE
8
BLACK
6
CONTINUOUS
10
-4.1532528740157479
20
5.6285766535433073
11
-4.1500453937007871
21
5.6253691732283464
0
LINE
8
BLACK
6
CONTINUOUS
10
-4.1500453937007871
20
5.6253691732283464
11
-4.1480531496062989
21
5.6212940157480311
0
LINE
8
BLACK
6
CONTINUOUS
10
-4.1480531496062989
20
5.6212940157480311
11
-4.1474803149606299
21
5.6173622047244089
0
LINE
8
BLACK
6
CONTINUOUS
10
-4.1474803149606299
20
5.6173622047244089
11
-4.1474803149606299
21
5.6055511811023617
0
LINE
8
BLACK
6
CONTINUOUS
10
-4.1474803149606299
20
5.6055511811023617
11
-4.1480531496062989
21
5.6016193700787404
0
LINE
8
BLACK
6
CONTINUOUS
10
-4.1480531496062989
20
5.6016193700787404
11
-4.1500453937007871
21
5.5975442125984252
0
LINE
8
BLACK
6
CONTINUOUS
10
-4.1500453937007871
20
5.5975442125984252
11
-4.1532528740157479
21
5.5943367322834643
0
LINE
8
BLACK
6
CONTINUOUS
10
-4.1532528740157479
20
5.5943367322834643
11
-4.1573280314960632
21
5.5923444881889761
0
LINE
8
BLACK
6
CONTINUOUS
10
-4.1573280314960632
20
5.5923444881889761
11
-4.1612598425196845
21
5.5917716535433071
0
LINE
8
BLACK
6
CONTINUOUS
10
-4.1612598425196845
20
5.5917716535433071
11
-4.2163779527559058
21
5.5917716535433071
0
LINE
8
BLACK
6
CONTINUOUS
10
-4.2163779527559058
20
5.5917716535433071
11
-4.220309763779527
21
5.5923444881889761
0
LINE
8
BLACK
6
CONTINUOUS
10
-4.220309763779527
20
5.5923444881889761
11
-4.2243849212598423
21
5.5943367322834643
0
LINE
8
BLACK
6
CONTINUOUS
10
-4.2243849212598423
20
5.5943367322834643
11
-4.2275924015748032
21
5.5975442125984252
0
LINE
8
BLACK
6
CONTINUOUS
10
-4.2275924015748032
20
5.5975442125984252
11
-4.2295846456692914
21
5.6016193700787404
0
LINE
8
BLACK
6
CONTINUOUS
10
-4.2295846456692914
20
5.6016193700787404
11
-4.2301574803149604
21
5.6055511811023617
0
LINE
8
BLACK
6
CONTINUOUS
10
-4.2301574803149604
20
5.6055511811023617
11
-4.2301574803149604
21
5.6173622047244089
0
LINE
8
BLACK
6
CONTINUOUS
10
-4.2301574803149604
20
5.6173622047244089
11
-4.2295846456692914
21
5.6212940157480311
0
LINE
8
BLACK
6
CONTINUOUS
10
-4.2295846456692914
20
5.6212940157480311
11
-4.2275924015748032
21
5.6253691732283464
0
LINE
8
BLACK
6
CONTINUOUS
10
-4.2275924015748032
20
5.6253691732283464
11
-4.2243849212598423
21
5.6285766535433073
0
LINE
8
BLACK
6
CONTINUOUS
10
-4.2243849212598423
20
5.6285766535433073
11
-4.220309763779527
21
5.6305688976377954
0
LINE
8
BLACK
6
CONTINUOUS
10
-4.220309763779527
20
5.6305688976377954
11
-4.2163779527559058
21
5.6311417322834645
0
LINE
8
BLACK
6
CONTINUOUS
10
-4.2163779527559058
20
5.6311417322834645
11
-4.1612598425196845
21
5.6311417322834645
0
LINE
8
BLACK
6
CONTINUOUS
10
-4.1612598425196845
20
5.6311417322834645
11
-4.1573280314960632
21
5.6305688976377954
0
LINE
8
BLACK
6
CONTINUOUS
10
-4.5343068110236215
20
5.656335551181102
11
-4.5299167716535429
21
5.6540987007874017
0
LINE
8
BLACK
6
CONTINUOUS
10
-4.5299167716535429
20
5.6540987007874017
11
-4.5264327952755901
21
5.6506147244094489
0
LINE
8
BLACK
6
CONTINUOUS
10
-4.5264327952755901
20
5.6506147244094489
11
-4.5241959448818898
21
5.6462246850393703
0
LINE
8
BLACK
6
CONTINUOUS
10
-4.5241959448818898
20
5.6462246850393703
11
-4.5234251968503933
21
5.6413582677165355
0
LINE
8
BLACK
6
CONTINUOUS
10
-4.5234251968503933
20
5.6413582677165355
11
-4.5234251968503933
21
5.6256102362204725
0
LINE
8
BLACK
6
CONTINUOUS
10
-4.5234251968503933
20
5.6256102362204725
11
-4.5241959448818898
21
5.6207438188976377
0
LINE
8
BLACK
6
CONTINUOUS
10
-4.5241959448818898
20
5.6207438188976377
11
-4.5264327952755901
21
5.6163537795275591
0
LINE
8
BLACK
6
CONTINUOUS
10
-4.5264327952755901
20
5.6163537795275591
11
-4.5299167716535429
21
5.6128698031496063
0
LINE
8
BLACK
6
CONTINUOUS
10
-4.5299167716535429
20
5.6128698031496063
11
-4.5343068110236215
21
5.6106329527559051
0
LINE
8
BLACK
6
CONTINUOUS
10
-4.5343068110236215
20
5.6106329527559051
11
-4.5391732283464563
21
5.6098622047244096
0
LINE
8
BLACK
6
CONTINUOUS
10
-4.5391732283464563
20
5.6098622047244096
11
-4.5608267716535433
21
5.6098622047244096
0
LINE
8
BLACK
6
CONTINUOUS
10
-4.5608267716535433
20
5.6098622047244096
11
-4.5656931889763781
21
5.6106329527559051
0
LINE
8
BLACK
6
CONTINUOUS
10
-4.5656931889763781
20
5.6106329527559051
11
-4.5700832283464567
21
5.6128698031496063
0
LINE
8
BLACK
6
CONTINUOUS
10
-4.5700832283464567
20
5.6128698031496063
11
-4.5735672047244096
21
5.6163537795275591
0
LINE
8
BLACK
6
CONTINUOUS
10
-4.5735672047244096
20
5.6163537795275591
11
-4.5758040551181098
21
5.6207438188976377
0
LINE
8
BLACK
6
CONTINUOUS
10
-4.5758040551181098
20
5.6207438188976377
11
-4.5765748031496063
21
5.6256102362204725
0
LINE
8
BLACK
6
CONTINUOUS
10
-4.5765748031496063
20
5.6256102362204725
11
-4.5765748031496063
21
5.6413582677165355
0
LINE
8
BLACK
6
CONTINUOUS
10
-4.5765748031496063
20
5.6413582677165355
11
-4.5758040551181098
21
5.6462246850393703
0
LINE
8
BLACK
6
CONTINUOUS
10
-4.5758040551181098
20
5.6462246850393703
11
-4.5735672047244096
21
5.6506147244094489
0
LINE
8
BLACK
6
CONTINUOUS
10
-4.5735672047244096
20
5.6506147244094489
11
-4.5700832283464567
21
5.6540987007874017
0
LINE
8
BLACK
6
CONTINUOUS
10
-4.5700832283464567
20
5.6540987007874017
11
-4.5656931889763781
21
5.656335551181102
0
LINE
8
BLACK
6
CONTINUOUS
10
-4.5656931889763781
20
5.656335551181102
11
-4.5608267716535433
21
5.6571062992125984
0
LINE
8
BLACK
6
CONTINUOUS
10
-4.5608267716535433
20
5.6571062992125984
11
-4.5391732283464563
21
5.6571062992125984
0
LINE
8
BLACK
6
CONTINUOUS
10
-4.5391732283464563
20
5.6571062992125984
11
-4.5343068110236215
21
5.656335551181102
0
LINE
8
BLACK
6
CONTINUOUS
10
-4.682564251968504
20
5.7081673228346457
11
-4.6784890944881887
21
5.7061750787401575
0
LINE
8
BLACK
6
CONTINUOUS
10
-4.6784890944881887
20
5.7061750787401575
11
-4.6752816141732279
21
5.7029675984251966
0
LINE
8
BLACK
6
CONTINUOUS
10
-4.6752816141732279
20
5.7029675984251966
11
-4.6732893700787397
21
5.6988924409448813
0
LINE
8
BLACK
6
CONTINUOUS
10
-4.6732893700787397
20
5.6988924409448813
11
-4.6727165354330706
21
5.6949606299212601
0
LINE
8
BLACK
6
CONTINUOUS
10
-4.6727165354330706
20
5.6949606299212601
11
-4.6727165354330706
21
5.6546062992125981
0
LINE
8
BLACK
6
CONTINUOUS
10
-4.6727165354330706
20
5.6546062992125981
11
-4.6732893700787397
21
5.6506744881889759
0
LINE
8
BLACK
6
CONTINUOUS
10
-4.6732893700787397
20
5.6506744881889759
11
-4.6752816141732279
21
5.6465993307086615
0
LINE
8
BLACK
6
CONTINUOUS
10
-4.6752816141732279
20
5.6465993307086615
11
-4.6784890944881887
21
5.6433918503937006
0
LINE
8
BLACK
6
CONTINUOUS
10
-4.6784890944881887
20
5.6433918503937006
11
-4.682564251968504
21
5.6413996062992124
0
LINE
8
BLACK
6
CONTINUOUS
10
-4.682564251968504
20
5.6413996062992124
11
-4.6864960629921262
21
5.6408267716535434
0
LINE
8
BLACK
6
CONTINUOUS
10
-4.6864960629921262
20
5.6408267716535434
11
-4.6983070866141734
21
5.6408267716535434
0
LINE
8
BLACK
6
CONTINUOUS
10
-4.6983070866141734
20
5.6408267716535434
11
-4.7022388976377956
21
5.6413996062992124
0
LINE
8
BLACK
6
CONTINUOUS
10
-4.7022388976377956
20
5.6413996062992124
11
-4.70631405511811
21
5.6433918503937006
0
LINE
8
BLACK
6
CONTINUOUS
10
-4.70631405511811
20
5.6433918503937006
11
-4.7095215354330708
21
5.6465993307086615
0
LINE
8
BLACK
6
CONTINUOUS
10
-4.7095215354330708
20
5.6465993307086615
11
-4.711513779527559
21
5.6506744881889759
0
LINE
8
BLACK
6
CONTINUOUS
10
-4.711513779527559
20
5.6506744881889759
11
-4.712086614173228
21
5.6546062992125981
0
LINE
8
BLACK
6
CONTINUOUS
10
-4.712086614173228
20
5.6546062992125981
11
-4.712086614173228
21
5.6949606299212601
0
LINE
8
BLACK
6
CONTINUOUS
10
-4.712086614173228
20
5.6949606299212601
11
-4.711513779527559
21
5.6988924409448813
0
LINE
8
BLACK
6
CONTINUOUS
10
-4.711513779527559
20
5.6988924409448813
11
-4.7095215354330708
21
5.7029675984251966
0
LINE
8
BLACK
6
CONTINUOUS
10
-4.7095215354330708
20
5.7029675984251966
11
-4.70631405511811
21
5.7061750787401575
0
LINE
8
BLACK
6
CONTINUOUS
10
-4.70631405511811
20
5.7061750787401575
11
-4.7022388976377956
21
5.7081673228346457
0
LINE
8
BLACK
6
CONTINUOUS
10
-4.7022388976377956
20
5.7081673228346457
11
-4.6983070866141734
21
5.7087401574803147
0
LINE
8
BLACK
6
CONTINUOUS
10
-4.6983070866141734
20
5.7087401574803147
11
-4.6864960629921262
21
5.7087401574803147
0
LINE
8
BLACK
6
CONTINUOUS
10
-4.6864960629921262
20
5.7087401574803147
11
-4.682564251968504
21
5.7081673228346457
0
LINE
8
BLACK
6
CONTINUOUS
10
-4.6077611023622049
20
5.7081673228346457
11
-4.6036859448818896
21
5.7061750787401575
0
LINE
8
BLACK
6
CONTINUOUS
10
-4.6036859448818896
20
5.7061750787401575
11
-4.6004784645669288
21
5.7029675984251966
0
LINE
8
BLACK
6
CONTINUOUS
10
-4.6004784645669288
20
5.7029675984251966
11
-4.5984862204724406
21
5.6988924409448813
0
LINE
8
BLACK
6
CONTINUOUS
10
-4.5984862204724406
20
5.6988924409448813
11
-4.5979133858267716
21
5.6949606299212601
0
LINE
8
BLACK
6
CONTINUOUS
10
-4.5979133858267716
20
5.6949606299212601
11
-4.5979133858267716
21
5.6546062992125981
0
LINE
8
BLACK
6
CONTINUOUS
10
-4.5979133858267716
20
5.6546062992125981
11
-4.5984862204724406
21
5.6506744881889759
0
LINE
8
BLACK
6
CONTINUOUS
10
-4.5984862204724406
20
5.6506744881889759
11
-4.6004784645669288
21
5.6465993307086615
0
LINE
8
BLACK
6
CONTINUOUS
10
-4.6004784645669288
20
5.6465993307086615
11
-4.6036859448818896
21
5.6433918503937006
0
LINE
8
BLACK
6
CONTINUOUS
10
-4.6036859448818896
20
5.6433918503937006
11
-4.6077611023622049
21
5.6413996062992124
0
LINE
8
BLACK
6
CONTINUOUS
10
-4.6077611023622049
20
5.6413996062992124
11
-4.6116929133858271
21
5.6408267716535434
0
LINE
8
BLACK
6
CONTINUOUS
10
-4.6116929133858271
20
5.6408267716535434
11
-4.6235039370078743
21
5.6408267716535434
0
LINE
8
BLACK
6
CONTINUOUS
10
-4.6235039370078743
20
5.6408267716535434
11
-4.6274357480314956
21
5.6413996062992124
0
LINE
8
BLACK
6
CONTINUOUS
10
-4.6274357480314956
20
5.6413996062992124
11
-4.6315109055118109
21
5.6433918503937006
0
LINE
8
BLACK
6
CONTINUOUS
10
-4.6315109055118109
20
5.6433918503937006
11
-4.6347183858267718
21
5.6465993307086615
0
LINE
8
BLACK
6
CONTINUOUS
10
-4.6347183858267718
20
5.6465993307086615
11
-4.6367106299212599
21
5.6506744881889759
0
LINE
8
BLACK
6
CONTINUOUS
10
-4.6367106299212599
20
5.6506744881889759
11
-4.637283464566929
21
5.6546062992125981
0
LINE
8
BLACK
6
CONTINUOUS
10
-4.637283464566929
20
5.6546062992125981
11
-4.637283464566929
21
5.6949606299212601
0
LINE
8
BLACK
6
CONTINUOUS
10
-4.637283464566929
20
5.6949606299212601
11
-4.6367106299212599
21
5.6988924409448813
0
LINE
8
BLACK
6
CONTINUOUS
10
-4.6367106299212599
20
5.6988924409448813
11
-4.6347183858267718
21
5.7029675984251966
0
LINE
8
BLACK
6
CONTINUOUS
10
-4.6347183858267718
20
5.7029675984251966
11
-4.6315109055118109
21
5.7061750787401575
0
LINE
8
BLACK
6
CONTINUOUS
10
-4.6315109055118109
20
5.7061750787401575
11
-4.6274357480314956
21
5.7081673228346457
0
LINE
8
BLACK
6
CONTINUOUS
10
-4.6274357480314956
20
5.7081673228346457
11
-4.6235039370078743
21
5.7087401574803147
0
LINE
8
BLACK
6
CONTINUOUS
10
-4.6235039370078743
20
5.7087401574803147
11
-4.6116929133858271
21
5.7087401574803147
0
LINE
8
BLACK
6
CONTINUOUS
10
-4.6116929133858271
20
5.7087401574803147
11
-4.6077611023622049
21
5.7081673228346457
0
LINE
8
BLACK
6
CONTINUOUS
10
-4.7754382677165355
20
5.6797814960629918
11
-4.7713631102362202
21
5.6777892519685036
0
LINE
8
BLACK
6
CONTINUOUS
10
-4.7713631102362202
20
5.6777892519685036
11
-4.7681556299212593
21
5.6745817716535436
0
LINE
8
BLACK
6
CONTINUOUS
10
-4.7681556299212593
20
5.6745817716535436
11
-4.7661633858267711
21
5.6705066141732283
0
LINE
8
BLACK
6
CONTINUOUS
10
-4.7661633858267711
20
5.6705066141732283
11
-4.7655905511811021
21
5.6665748031496062
0
LINE
8
BLACK
6
CONTINUOUS
10
-4.7655905511811021
20
5.6665748031496062
11
-4.7655905511811021
21
5.6547637795275589
0
LINE
8
BLACK
6
CONTINUOUS
10
-4.7655905511811021
20
5.6547637795275589
11
-4.7661633858267711
21
5.6508319685039368
0
LINE
8
BLACK
6
CONTINUOUS
10
-4.7661633858267711
20
5.6508319685039368
11
-4.7681556299212593
21
5.6467568110236215
0
LINE
8
BLACK
6
CONTINUOUS
10
-4.7681556299212593
20
5.6467568110236215
11
-4.7713631102362202
21
5.6435493307086615
0
LINE
8
BLACK
6
CONTINUOUS
10
-4.7713631102362202
20
5.6435493307086615
11
-4.7754382677165355
21
5.6415570866141733
0
LINE
8
BLACK
6
CONTINUOUS
10
-4.7754382677165355
20
5.6415570866141733
11
-4.7793700787401576
21
5.6409842519685034
0
LINE
8
BLACK
6
CONTINUOUS
10
-4.7793700787401576
20
5.6409842519685034
11
-4.834488188976378
21
5.6409842519685034
0
LINE
8
BLACK
6
CONTINUOUS
10
-4.834488188976378
20
5.6409842519685034
11
-4.8384200000000002
21
5.6415570866141733
0
LINE
8
BLACK
6
CONTINUOUS
10
-4.8384200000000002
20
5.6415570866141733
11
-4.8424951574803146
21
5.6435493307086615
0
LINE
8
BLACK
6
CONTINUOUS
10
-4.8424951574803146
20
5.6435493307086615
11
-4.8457026377952754
21
5.6467568110236215
0
LINE
8
BLACK
6
CONTINUOUS
10
-4.8457026377952754
20
5.6467568110236215
11
-4.8476948818897636
21
5.6508319685039368
0
LINE
8
BLACK
6
CONTINUOUS
10
-4.8476948818897636
20
5.6508319685039368
11
-4.8482677165354326
21
5.6547637795275589
0
LINE
8
BLACK
6
CONTINUOUS
10
-4.8482677165354326
20
5.6547637795275589
11
-4.8482677165354326
21
5.6665748031496062
0
LINE
8
BLACK
6
CONTINUOUS
10
-4.8482677165354326
20
5.6665748031496062
11
-4.8476948818897636
21
5.6705066141732283
0
LINE
8
BLACK
6
CONTINUOUS
10
-4.8476948818897636
20
5.6705066141732283
11
-4.8457026377952754
21
5.6745817716535436
0
LINE
8
BLACK
6
CONTINUOUS
10
-4.8457026377952754
20
5.6745817716535436
11
-4.8424951574803146
21
5.6777892519685036
0
LINE
8
BLACK
6
CONTINUOUS
10
-4.8424951574803146
20
5.6777892519685036
11
-4.8384200000000002
21
5.6797814960629918
0
LINE
8
BLACK
6
CONTINUOUS
10
-4.8384200000000002
20
5.6797814960629918
11
-4.834488188976378
21
5.6803543307086617
0
LINE
8
BLACK
6
CONTINUOUS
10
-4.834488188976378
20
5.6803543307086617
11
-4.7793700787401576
21
5.6803543307086617
0
LINE
8
BLACK
6
CONTINUOUS
10
-4.7793700787401576
20
5.6803543307086617
11
-4.7754382677165355
21
5.6797814960629918
0
LINE
8
BLACK
6
CONTINUOUS
10
-4.1573280314960632
20
5.6797814960629918
11
-4.1532528740157479
21
5.6777892519685036
0
LINE
8
BLACK
6
CONTINUOUS
10
-4.1532528740157479
20
5.6777892519685036
11
-4.1500453937007871
21
5.6745817716535436
0
LINE
8
BLACK
6
CONTINUOUS
10
-4.1500453937007871
20
5.6745817716535436
11
-4.1480531496062989
21
5.6705066141732283
0
LINE
8
BLACK
6
CONTINUOUS
10
-4.1480531496062989
20
5.6705066141732283
11
-4.1474803149606299
21
5.6665748031496062
0
LINE
8
BLACK
6
CONTINUOUS
10
-4.1474803149606299
20
5.6665748031496062
11
-4.1474803149606299
21
5.6547637795275589
0
LINE
8
BLACK
6
CONTINUOUS
10
-4.1474803149606299
20
5.6547637795275589
11
-4.1480531496062989
21
5.6508319685039368
0
LINE
8
BLACK
6
CONTINUOUS
10
-4.1480531496062989
20
5.6508319685039368
11
-4.1500453937007871
21
5.6467568110236215
0
LINE
8
BLACK
6
CONTINUOUS
10
-4.1500453937007871
20
5.6467568110236215
11
-4.1532528740157479
21
5.6435493307086615
0
LINE
8
BLACK
6
CONTINUOUS
10
-4.1532528740157479
20
5.6435493307086615
11
-4.1573280314960632
21
5.6415570866141733
0
LINE
8
BLACK
6
CONTINUOUS
10
-4.1573280314960632
20
5.6415570866141733
11
-4.1612598425196845
21
5.6409842519685034
0
LINE
8
BLACK
6
CONTINUOUS
10
-4.1612598425196845
20
5.6409842519685034
11
-4.2163779527559058
21
5.6409842519685034
0
LINE
8
BLACK
6
CONTINUOUS
10
-4.2163779527559058
20
5.6409842519685034
11
-4.220309763779527
21
5.6415570866141733
0
LINE
8
BLACK
6
CONTINUOUS
10
-4.220309763779527
20
5.6415570866141733
11
-4.2243849212598423
21
5.6435493307086615
0
LINE
8
BLACK
6
CONTINUOUS
10
-4.2243849212598423
20
5.6435493307086615
11
-4.2275924015748032
21
5.6467568110236215
0
LINE
8
BLACK
6
CONTINUOUS
10
-4.2275924015748032
20
5.6467568110236215
11
-4.2295846456692914
21
5.6508319685039368
0
LINE
8
BLACK
6
CONTINUOUS
10
-4.2295846456692914
20
5.6508319685039368
11
-4.2301574803149604
21
5.6547637795275589
0
LINE
8
BLACK
6
CONTINUOUS
10
-4.2301574803149604
20
5.6547637795275589
11
-4.2301574803149604
21
5.6665748031496062
0
LINE
8
BLACK
6
CONTINUOUS
10
-4.2301574803149604
20
5.6665748031496062
11
-4.2295846456692914
21
5.6705066141732283
0
LINE
8
BLACK
6
CONTINUOUS
10
-4.2295846456692914
20
5.6705066141732283
11
-4.2275924015748032
21
5.6745817716535436
0
LINE
8
BLACK
6
CONTINUOUS
10
-4.2275924015748032
20
5.6745817716535436
11
-4.2243849212598423
21
5.6777892519685036
0
LINE
8
BLACK
6
CONTINUOUS
10
-4.2243849212598423
20
5.6777892519685036
11
-4.220309763779527
21
5.6797814960629918
0
LINE
8
BLACK
6
CONTINUOUS
10
-4.220309763779527
20
5.6797814960629918
11
-4.2163779527559058
21
5.6803543307086617
0
LINE
8
BLACK
6
CONTINUOUS
10
-4.2163779527559058
20
5.6803543307086617
11
-4.1612598425196845
21
5.6803543307086617
0
LINE
8
BLACK
6
CONTINUOUS
10
-4.1612598425196845
20
5.6803543307086617
11
-4.1573280314960632
21
5.6797814960629918
0
LINE
8
BLACK
6
CONTINUOUS
10
-4.7754382677165355
20
5.728994094488189
11
-4.7713631102362202
21
5.7270018503937008
0
LINE
8
BLACK
6
CONTINUOUS
10
-4.7713631102362202
20
5.7270018503937008
11
-4.7681556299212593
21
5.7237943700787399
0
LINE
8
BLACK
6
CONTINUOUS
10
-4.7681556299212593
20
5.7237943700787399
11
-4.7661633858267711
21
5.7197192125984246
0
LINE
8
BLACK
6
CONTINUOUS
10
-4.7661633858267711
20
5.7197192125984246
11
-4.7655905511811021
21
5.7157874015748034
0
LINE
8
BLACK
6
CONTINUOUS
10
-4.7655905511811021
20
5.7157874015748034
11
-4.7655905511811021
21
5.7039763779527561
0
LINE
8
BLACK
6
CONTINUOUS
10
-4.7655905511811021
20
5.7039763779527561
11
-4.7661633858267711
21
5.700044566929134
0
LINE
8
BLACK
6
CONTINUOUS
10
-4.7661633858267711
20
5.700044566929134
11
-4.7681556299212593
21
5.6959694094488187
0
LINE
8
BLACK
6
CONTINUOUS
10
-4.7681556299212593
20
5.6959694094488187
11
-4.7713631102362202
21
5.6927619291338578
0
LINE
8
BLACK
6
CONTINUOUS
10
-4.7713631102362202
20
5.6927619291338578
11
-4.7754382677165355
21
5.6907696850393696
0
LINE
8
BLACK
6
CONTINUOUS
10
-4.7754382677165355
20
5.6907696850393696
11
-4.7793700787401576
21
5.6901968503937006
0
LINE
8
BLACK
6
CONTINUOUS
10
-4.7793700787401576
20
5.6901968503937006
11
-4.834488188976378
21
5.6901968503937006
0
LINE
8
BLACK
6
CONTINUOUS
10
-4.834488188976378
20
5.6901968503937006
11
-4.8384200000000002
21
5.6907696850393696
0
LINE
8
BLACK
6
CONTINUOUS
10
-4.8384200000000002
20
5.6907696850393696
11
-4.8424951574803146
21
5.6927619291338578
0
LINE
8
BLACK
6
CONTINUOUS
10
-4.8424951574803146
20
5.6927619291338578
11
-4.8457026377952754
21
5.6959694094488187
0
LINE
8
BLACK
6
CONTINUOUS
10
-4.8457026377952754
20
5.6959694094488187
11
-4.8476948818897636
21
5.700044566929134
0
LINE
8
BLACK
6
CONTINUOUS
10
-4.8476948818897636
20
5.700044566929134
11
-4.8482677165354326
21
5.7039763779527561
0
LINE
8
BLACK
6
CONTINUOUS
10
-4.8482677165354326
20
5.7039763779527561
11
-4.8482677165354326
21
5.7157874015748034
0
LINE
8
BLACK
6
CONTINUOUS
10
-4.8482677165354326
20
5.7157874015748034
11
-4.8476948818897636
21
5.7197192125984246
0
LINE
8
BLACK
6
CONTINUOUS
10
-4.8476948818897636
20
5.7197192125984246
11
-4.8457026377952754
21
5.7237943700787399
0
LINE
8
BLACK
6
CONTINUOUS
10
-4.8457026377952754
20
5.7237943700787399
11
-4.8424951574803146
21
5.7270018503937008
0
LINE
8
BLACK
6
CONTINUOUS
10
-4.8424951574803146
20
5.7270018503937008
11
-4.8384200000000002
21
5.728994094488189
0
LINE
8
BLACK
6
CONTINUOUS
10
-4.8384200000000002
20
5.728994094488189
11
-4.834488188976378
21
5.729566929133858
0
LINE
8
BLACK
6
CONTINUOUS
10
-4.834488188976378
20
5.729566929133858
11
-4.7793700787401576
21
5.729566929133858
0
LINE
8
BLACK
6
CONTINUOUS
10
-4.7793700787401576
20
5.729566929133858
11
-4.7754382677165355
21
5.728994094488189
0
LINE
8
BLACK
6
CONTINUOUS
10
-4.1573280314960632
20
5.728994094488189
11
-4.1532528740157479
21
5.7270018503937008
0
LINE
8
BLACK
6
CONTINUOUS
10
-4.1532528740157479
20
5.7270018503937008
11
-4.1500453937007871
21
5.7237943700787399
0
LINE
8
BLACK
6
CONTINUOUS
10
-4.1500453937007871
20
5.7237943700787399
11
-4.1480531496062989
21
5.7197192125984246
0
LINE
8
BLACK
6
CONTINUOUS
10
-4.1480531496062989
20
5.7197192125984246
11
-4.1474803149606299
21
5.7157874015748034
0
LINE
8
BLACK
6
CONTINUOUS
10
-4.1474803149606299
20
5.7157874015748034
11
-4.1474803149606299
21
5.7039763779527561
0
LINE
8
BLACK
6
CONTINUOUS
10
-4.1474803149606299
20
5.7039763779527561
11
-4.1480531496062989
21
5.700044566929134
0
LINE
8
BLACK
6
CONTINUOUS
10
-4.1480531496062989
20
5.700044566929134
11
-4.1500453937007871
21
5.6959694094488187
0
LINE
8
BLACK
6
CONTINUOUS
10
-4.1500453937007871
20
5.6959694094488187
11
-4.1532528740157479
21
5.6927619291338578
0
LINE
8
BLACK
6
CONTINUOUS
10
-4.1532528740157479
20
5.6927619291338578
11
-4.1573280314960632
21
5.6907696850393696
0
LINE
8
BLACK
6
CONTINUOUS
10
-4.1573280314960632
20
5.6907696850393696
11
-4.1612598425196845
21
5.6901968503937006
0
LINE
8
BLACK
6
CONTINUOUS
10
-4.1612598425196845
20
5.6901968503937006
11
-4.2163779527559058
21
5.6901968503937006
0
LINE
8
BLACK
6
CONTINUOUS
10
-4.2163779527559058
20
5.6901968503937006
11
-4.220309763779527
21
5.6907696850393696
0
LINE
8
BLACK
6
CONTINUOUS
10
-4.220309763779527
20
5.6907696850393696
11
-4.2243849212598423
21
5.6927619291338578
0
LINE
8
BLACK
6
CONTINUOUS
10
-4.2243849212598423
20
5.6927619291338578
11
-4.2275924015748032
21
5.6959694094488187
0
LINE
8
BLACK
6
CONTINUOUS
10
-4.2275924015748032
20
5.6959694094488187
11
-4.2295846456692914
21
5.700044566929134
0
LINE
8
BLACK
6
CONTINUOUS
10
-4.2295846456692914
20
5.700044566929134
11
-4.2301574803149604
21
5.7039763779527561
0
LINE
8
BLACK
6
CONTINUOUS
10
-4.2301574803149604
20
5.7039763779527561
11
-4.2301574803149604
21
5.7157874015748034
0
LINE
8
BLACK
6
CONTINUOUS
10
-4.2301574803149604
20
5.7157874015748034
11
-4.2295846456692914
21
5.7197192125984246
0
LINE
8
BLACK
6
CONTINUOUS
10
-4.2295846456692914
20
5.7197192125984246
11
-4.2275924015748032
21
5.7237943700787399
0
LINE
8
BLACK
6
CONTINUOUS
10
-4.2275924015748032
20
5.7237943700787399
11
-4.2243849212598423
21
5.7270018503937008
0
LINE
8
BLACK
6
CONTINUOUS
10
-4.2243849212598423
20
5.7270018503937008
11
-4.220309763779527
21
5.728994094488189
0
LINE
8
BLACK
6
CONTINUOUS
10
-4.220309763779527
20
5.728994094488189
11
-4.2163779527559058
21
5.729566929133858
0
LINE
8
BLACK
6
CONTINUOUS
10
-4.2163779527559058
20
5.729566929133858
11
-4.1612598425196845
21
5.729566929133858
0
LINE
8
BLACK
6
CONTINUOUS
10
-4.1612598425196845
20
5.729566929133858
11
-4.1573280314960632
21
5.728994094488189
0
LINE
8
BLACK
6
CONTINUOUS
10
-4.2793068110236216
20
5.7503709842519681
11
-4.274916771653543
21
5.7481341338582679
0
LINE
8
BLACK
6
CONTINUOUS
10
-4.274916771653543
20
5.7481341338582679
11
-4.2714327952755902
21
5.744650157480315
0
LINE
8
BLACK
6
CONTINUOUS
10
-4.2714327952755902
20
5.744650157480315
11
-4.2691959448818899
21
5.7402601181102364
0
LINE
8
BLACK
6
CONTINUOUS
10
-4.2691959448818899
20
5.7402601181102364
11
-4.2684251968503935
21
5.7353937007874016
0
LINE
8
BLACK
6
CONTINUOUS
10
-4.2684251968503935
20
5.7353937007874016
11
-4.2684251968503935
21
5.7196456692913387
0
LINE
8
BLACK
6
CONTINUOUS
10
-4.2684251968503935
20
5.7196456692913387
11
-4.2691959448818899
21
5.7147792519685039
0
LINE
8
BLACK
6
CONTINUOUS
10
-4.2691959448818899
20
5.7147792519685039
11
-4.2714327952755902
21
5.7103892125984252
0
LINE
8
BLACK
6
CONTINUOUS
10
-4.2714327952755902
20
5.7103892125984252
11
-4.274916771653543
21
5.7069052362204724
0
LINE
8
BLACK
6
CONTINUOUS
10
-4.274916771653543
20
5.7069052362204724
11
-4.2793068110236216
21
5.7046683858267713
0
LINE
8
BLACK
6
CONTINUOUS
10
-4.2793068110236216
20
5.7046683858267713
11
-4.2841732283464564
21
5.7038976377952757
0
LINE
8
BLACK
6
CONTINUOUS
10
-4.2841732283464564
20
5.7038976377952757
11
-4.3058267716535434
21
5.7038976377952757
0
LINE
8
BLACK
6
CONTINUOUS
10
-4.3058267716535434
20
5.7038976377952757
11
-4.3106931889763782
21
5.7046683858267713
0
LINE
8
BLACK
6
CONTINUOUS
10
-4.3106931889763782
20
5.7046683858267713
11
-4.3150832283464569
21
5.7069052362204724
0
LINE
8
BLACK
6
CONTINUOUS
10
-4.3150832283464569
20
5.7069052362204724
11
-4.3185672047244097
21
5.7103892125984252
0
LINE
8
BLACK
6
CONTINUOUS
10
-4.3185672047244097
20
5.7103892125984252
11
-4.3208040551181099
21
5.7147792519685039
0
LINE
8
BLACK
6
CONTINUOUS
10
-4.3208040551181099
20
5.7147792519685039
11
-4.3215748031496064
21
5.7196456692913387
0
LINE
8
BLACK
6
CONTINUOUS
10
-4.3215748031496064
20
5.7196456692913387
11
-4.3215748031496064
21
5.7353937007874016
0
LINE
8
BLACK
6
CONTINUOUS
10
-4.3215748031496064
20
5.7353937007874016
11
-4.3208040551181099
21
5.7402601181102364
0
LINE
8
BLACK
6
CONTINUOUS
10
-4.3208040551181099
20
5.7402601181102364
11
-4.3185672047244097
21
5.744650157480315
0
LINE
8
BLACK
6
CONTINUOUS
10
-4.3185672047244097
20
5.744650157480315
11
-4.3150832283464569
21
5.7481341338582679
0
LINE
8
BLACK
6
CONTINUOUS
10
-4.3150832283464569
20
5.7481341338582679
11
-4.3106931889763782
21
5.7503709842519681
0
LINE
8
BLACK
6
CONTINUOUS
10
-4.3106931889763782
20
5.7503709842519681
11
-4.3058267716535434
21
5.7511417322834646
0
LINE
8
BLACK
6
CONTINUOUS
10
-4.3058267716535434
20
5.7511417322834646
11
-4.2841732283464564
21
5.7511417322834646
0
LINE
8
BLACK
6
CONTINUOUS
10
-4.2841732283464564
20
5.7511417322834646
11
-4.2793068110236216
21
5.7503709842519681
0
LINE
8
BLACK
6
CONTINUOUS
10
-4.5293068110236216
20
5.7543670472440942
11
-4.524916771653543
21
5.752130196850394
0
LINE
8
BLACK
6
CONTINUOUS
10
-4.524916771653543
20
5.752130196850394
11
-4.5214327952755902
21
5.7486462204724411
0
LINE
8
BLACK
6
CONTINUOUS
10
-4.5214327952755902
20
5.7486462204724411
11
-4.5191959448818899
21
5.7442561811023625
0
LINE
8
BLACK
6
CONTINUOUS
10
-4.5191959448818899
20
5.7442561811023625
11
-4.5184251968503935
21
5.7393897637795277
0
LINE
8
BLACK
6
CONTINUOUS
10
-4.5184251968503935
20
5.7393897637795277
11
-4.5184251968503935
21
5.7236417322834647
0
LINE
8
BLACK
6
CONTINUOUS
10
-4.5184251968503935
20
5.7236417322834647
11
-4.5191959448818899
21
5.71877531496063
0
LINE
8
BLACK
6
CONTINUOUS
10
-4.5191959448818899
20
5.71877531496063
11
-4.5214327952755902
21
5.7143852755905513
0
LINE
8
BLACK
6
CONTINUOUS
10
-4.5214327952755902
20
5.7143852755905513
11
-4.524916771653543
21
5.7109012992125985
0
LINE
8
BLACK
6
CONTINUOUS
10
-4.524916771653543
20
5.7109012992125985
11
-4.5293068110236216
21
5.7086644488188973
0
LINE
8
BLACK
6
CONTINUOUS
10
-4.5293068110236216
20
5.7086644488188973
11
-4.5341732283464564
21
5.7078937007874018
0
LINE
8
BLACK
6
CONTINUOUS
10
-4.5341732283464564
20
5.7078937007874018
11
-4.5558267716535434
21
5.7078937007874018
0
LINE
8
BLACK
6
CONTINUOUS
10
-4.5558267716535434
20
5.7078937007874018
11
-4.5606931889763782
21
5.7086644488188973
0
LINE
8
BLACK
6
CONTINUOUS
10
-4.5606931889763782
20
5.7086644488188973
11
-4.5650832283464569
21
5.7109012992125985
0
LINE
8
BLACK
6
CONTINUOUS
10
-4.5650832283464569
20
5.7109012992125985
11
-4.5685672047244097
21
5.7143852755905513
0
LINE
8
BLACK
6
CONTINUOUS
10
-4.5685672047244097
20
5.7143852755905513
11
-4.5708040551181099
21
5.71877531496063
0
LINE
8
BLACK
6
CONTINUOUS
10
-4.5708040551181099
20
5.71877531496063
11
-4.5715748031496064
21
5.7236417322834647
0
LINE
8
BLACK
6
CONTINUOUS
10
-4.5715748031496064
20
5.7236417322834647
11
-4.5715748031496064
21
5.7393897637795277
0
LINE
8
BLACK
6
CONTINUOUS
10
-4.5715748031496064
20
5.7393897637795277
11
-4.5708040551181099
21
5.7442561811023625
0
LINE
8
BLACK
6
CONTINUOUS
10
-4.5708040551181099
20
5.7442561811023625
11
-4.5685672047244097
21
5.7486462204724411
0
LINE
8
BLACK
6
CONTINUOUS
10
-4.5685672047244097
20
5.7486462204724411
11
-4.5650832283464569
21
5.752130196850394
0
LINE
8
BLACK
6
CONTINUOUS
10
-4.5650832283464569
20
5.752130196850394
11
-4.5606931889763782
21
5.7543670472440942
0
LINE
8
BLACK
6
CONTINUOUS
10
-4.5606931889763782
20
5.7543670472440942
11
-4.5558267716535434
21
5.7551377952755907
0
LINE
8
BLACK
6
CONTINUOUS
10
-4.5558267716535434
20
5.7551377952755907
11
-4.5341732283464564
21
5.7551377952755907
0
LINE
8
BLACK
6
CONTINUOUS
10
-4.5341732283464564
20
5.7551377952755907
11
-4.5293068110236216
21
5.7543670472440942
0
LINE
8
BLACK
6
CONTINUOUS
10
-4.5930055118110236
20
5.7673486220472441
11
-4.5880208267716531
21
5.7656044094488186
0
LINE
8
BLACK
6
CONTINUOUS
10
-4.5880208267716531
20
5.7656044094488186
11
-4.5837717322834646
21
5.7624684251968503
0
LINE
8
BLACK
6
CONTINUOUS
10
-4.5837717322834646
20
5.7624684251968503
11
-4.5806357480314963
21
5.7582193307086609
0
LINE
8
BLACK
6
CONTINUOUS
10
-4.5806357480314963
20
5.7582193307086609
11
-4.5788915354330708
21
5.7532346456692913
0
LINE
8
BLACK
6
CONTINUOUS
10
-4.5788915354330708
20
5.7532346456692913
11
-4.5785826771653539
21
5.7499409448818897
0
LINE
8
BLACK
6
CONTINUOUS
10
-4.5785826771653539
20
5.7499409448818897
11
-4.5785826771653539
21
5.730255905511811
0
LINE
8
BLACK
6
CONTINUOUS
10
-4.5785826771653539
20
5.730255905511811
11
-4.5788915354330708
21
5.7269622047244093
0
LINE
8
BLACK
6
CONTINUOUS
10
-4.5788915354330708
20
5.7269622047244093
11
-4.5806357480314963
21
5.7219775196850389
0
LINE
8
BLACK
6
CONTINUOUS
10
-4.5806357480314963
20
5.7219775196850389
11
-4.5837717322834646
21
5.7177284251968503
0
LINE
8
BLACK
6
CONTINUOUS
10
-4.5837717322834646
20
5.7177284251968503
11
-4.5880208267716531
21
5.7145924409448821
0
LINE
8
BLACK
6
CONTINUOUS
10
-4.5880208267716531
20
5.7145924409448821
11
-4.5930055118110236
21
5.7128482283464566
0
LINE
8
BLACK
6
CONTINUOUS
10
-4.5930055118110236
20
5.7128482283464566
11
-4.5962992125984252
21
5.7125393700787397
0
LINE
8
BLACK
6
CONTINUOUS
10
-4.5962992125984252
20
5.7125393700787397
11
-4.6337007874015743
21
5.7125393700787397
0
LINE
8
BLACK
6
CONTINUOUS
10
-4.6337007874015743
20
5.7125393700787397
11
-4.636994488188976
21
5.7128482283464566
0
LINE
8
BLACK
6
CONTINUOUS
10
-4.636994488188976
20
5.7128482283464566
11
-4.6419791732283464
21
5.7145924409448821
0
LINE
8
BLACK
6
CONTINUOUS
10
-4.6419791732283464
20
5.7145924409448821
11
-4.646228267716535
21
5.7177284251968503
0
LINE
8
BLACK
6
CONTINUOUS
10
-4.646228267716535
20
5.7177284251968503
11
-4.6493642519685041
21
5.7219775196850389
0
LINE
8
BLACK
6
CONTINUOUS
10
-4.6493642519685041
20
5.7219775196850389
11
-4.6511084645669287
21
5.7269622047244093
0
LINE
8
BLACK
6
CONTINUOUS
10
-4.6511084645669287
20
5.7269622047244093
11
-4.6514173228346456
21
5.730255905511811
0
LINE
8
BLACK
6
CONTINUOUS
10
-4.6514173228346456
20
5.730255905511811
11
-4.6514173228346456
21
5.7499409448818897
0
LINE
8
BLACK
6
CONTINUOUS
10
-4.6514173228346456
20
5.7499409448818897
11
-4.6511084645669287
21
5.7532346456692913
0
LINE
8
BLACK
6
CONTINUOUS
10
-4.6511084645669287
20
5.7532346456692913
11
-4.6493642519685041
21
5.7582193307086609
0
LINE
8
BLACK
6
CONTINUOUS
10
-4.6493642519685041
20
5.7582193307086609
11
-4.646228267716535
21
5.7624684251968503
0
LINE
8
BLACK
6
CONTINUOUS
10
-4.646228267716535
20
5.7624684251968503
11
-4.6419791732283464
21
5.7656044094488186
0
LINE
8
BLACK
6
CONTINUOUS
10
-4.6419791732283464
20
5.7656044094488186
11
-4.636994488188976
21
5.7673486220472441
0
LINE
8
BLACK
6
CONTINUOUS
10
-4.636994488188976
20
5.7673486220472441
11
-4.6337007874015743
21
5.7676574803149601
0
LINE
8
BLACK
6
CONTINUOUS
10
-4.6337007874015743
20
5.7676574803149601
11
-4.5962992125984252
21
5.7676574803149601
0
LINE
8
BLACK
6
CONTINUOUS
10
-4.5962992125984252
20
5.7676574803149601
11
-4.5930055118110236
21
5.7673486220472441
0
LINE
8
BLACK
6
CONTINUOUS
10
-4.4365142913385824
20
5.8077077165354325
11
-4.435590551181102
21
5.8070904724409447
0
LINE
8
BLACK
6
CONTINUOUS
10
-4.435590551181102
20
5.8070904724409447
11
-4.4346668110236216
21
5.8077077165354325
0
LINE
8
BLACK
6
CONTINUOUS
10
-4.4346668110236216
20
5.8077077165354325
11
-4.4316535433070863
21
5.8083070866141728
0
LINE
8
BLACK
6
CONTINUOUS
10
-4.4316535433070863
20
5.8083070866141728
11
-4.4139370078740159
21
5.8083070866141728
0
LINE
8
BLACK
6
CONTINUOUS
10
-4.4139370078740159
20
5.8083070866141728
11
-4.4109237401574806
21
5.8077077165354325
0
LINE
8
BLACK
6
CONTINUOUS
10
-4.4109237401574806
20
5.8077077165354325
11
-4.4100000000000001
21
5.8070904724409447
0
LINE
8
BLACK
6
CONTINUOUS
10
-4.4100000000000001
20
5.8070904724409447
11
-4.4090762598425197
21
5.8077077165354325
0
LINE
8
BLACK
6
CONTINUOUS
10
-4.4090762598425197
20
5.8077077165354325
11
-4.4060629921259844
21
5.8083070866141728
0
LINE
8
BLACK
6
CONTINUOUS
10
-4.4060629921259844
20
5.8083070866141728
11
-4.3883464566929131
21
5.8083070866141728
0
LINE
8
BLACK
6
CONTINUOUS
10
-4.3883464566929131
20
5.8083070866141728
11
-4.3853331889763778
21
5.8077077165354325
0
LINE
8
BLACK
6
CONTINUOUS
10
-4.3853331889763778
20
5.8077077165354325
11
-4.3844094488188974
21
5.8070904724409447
0
LINE
8
BLACK
6
CONTINUOUS
10
-4.3844094488188974
20
5.8070904724409447
11
-4.383485708661417
21
5.8077077165354325
0
LINE
8
BLACK
6
CONTINUOUS
10
-4.383485708661417
20
5.8077077165354325
11
-4.3804724409448816
21
5.8083070866141728
0
LINE
8
BLACK
6
CONTINUOUS
10
-4.3804724409448816
20
5.8083070866141728
11
-4.3627559055118112
21
5.8083070866141728
0
LINE
8
BLACK
6
CONTINUOUS
10
-4.3627559055118112
20
5.8083070866141728
11
-4.3597426377952759
21
5.8077077165354325
0
LINE
8
BLACK
6
CONTINUOUS
10
-4.3597426377952759
20
5.8077077165354325
11
-4.3571881496062987
21
5.806000826771653
0
LINE
8
BLACK
6
CONTINUOUS
10
-4.3571881496062987
20
5.806000826771653
11
-4.3554812598425192
21
5.8034463385826767
0
LINE
8
BLACK
6
CONTINUOUS
10
-4.3554812598425192
20
5.8034463385826767
11
-4.3548818897637798
21
5.8004330708661413
0
LINE
8
BLACK
6
CONTINUOUS
10
-4.3548818897637798
20
5.8004330708661413
11
-4.3548818897637798
21
5.7433464566929135
0
LINE
8
BLACK
6
CONTINUOUS
10
-4.3548818897637798
20
5.7433464566929135
11
-4.3554812598425192
21
5.7403331889763782
0
LINE
8
BLACK
6
CONTINUOUS
10
-4.3554812598425192
20
5.7403331889763782
11
-4.3571881496062987
21
5.737778700787401
0
LINE
8
BLACK
6
CONTINUOUS
10
-4.3571881496062987
20
5.737778700787401
11
-4.3597426377952759
21
5.7360718110236215
0
LINE
8
BLACK
6
CONTINUOUS
10
-4.3597426377952759
20
5.7360718110236215
11
-4.3627559055118112
21
5.7354724409448821
0
LINE
8
BLACK
6
CONTINUOUS
10
-4.3627559055118112
20
5.7354724409448821
11
-4.3804724409448816
21
5.7354724409448821
0
LINE
8
BLACK
6
CONTINUOUS
10
-4.3804724409448816
20
5.7354724409448821
11
-4.383485708661417
21
5.7360718110236215
0
LINE
8
BLACK
6
CONTINUOUS
10
-4.383485708661417
20
5.7360718110236215
11
-4.3844094488188974
21
5.7366890157480315
0
LINE
8
BLACK
6
CONTINUOUS
10
-4.3844094488188974
20
5.7366890157480315
11
-4.3853331889763778
21
5.7360718110236215
0
LINE
8
BLACK
6
CONTINUOUS
10
-4.3853331889763778
20
5.7360718110236215
11
-4.3883464566929131
21
5.7354724409448821
0
LINE
8
BLACK
6
CONTINUOUS
10
-4.3883464566929131
20
5.7354724409448821
11
-4.4060629921259844
21
5.7354724409448821
0
LINE
8
BLACK
6
CONTINUOUS
10
-4.4060629921259844
20
5.7354724409448821
11
-4.4090762598425197
21
5.7360718110236215
0
LINE
8
BLACK
6
CONTINUOUS
10
-4.4090762598425197
20
5.7360718110236215
11
-4.4100000000000001
21
5.7366890157480315
0
LINE
8
BLACK
6
CONTINUOUS
10
-4.4100000000000001
20
5.7366890157480315
11
-4.4109237401574806
21
5.7360718110236215
0
LINE
8
BLACK
6
CONTINUOUS
10
-4.4109237401574806
20
5.7360718110236215
11
-4.4139370078740159
21
5.7354724409448821
0
LINE
8
BLACK
6
CONTINUOUS
10
-4.4139370078740159
20
5.7354724409448821
11
-4.4316535433070863
21
5.7354724409448821
0
LINE
8
BLACK
6
CONTINUOUS
10
-4.4316535433070863
20
5.7354724409448821
11
-4.4346668110236216
21
5.7360718110236215
0
LINE
8
BLACK
6
CONTINUOUS
10
-4.4346668110236216
20
5.7360718110236215
11
-4.435590551181102
21
5.7366890157480315
0
LINE
8
BLACK
6
CONTINUOUS
10
-4.435590551181102
20
5.7366890157480315
11
-4.4365142913385824
21
5.7360718110236215
0
LINE
8
BLACK
6
CONTINUOUS
10
-4.4365142913385824
20
5.7360718110236215
11
-4.4395275590551178
21
5.7354724409448821
0
LINE
8
BLACK
6
CONTINUOUS
10
-4.4395275590551178
20
5.7354724409448821
11
-4.457244094488189
21
5.7354724409448821
0
LINE
8
BLACK
6
CONTINUOUS
10
-4.457244094488189
20
5.7354724409448821
11
-4.4602573622047244
21
5.7360718110236215
0
LINE
8
BLACK
6
CONTINUOUS
10
-4.4602573622047244
20
5.7360718110236215
11
-4.4628118503937007
21
5.737778700787401
0
LINE
8
BLACK
6
CONTINUOUS
10
-4.4628118503937007
20
5.737778700787401
11
-4.4645187401574802
21
5.7403331889763782
0
LINE
8
BLACK
6
CONTINUOUS
10
-4.4645187401574802
20
5.7403331889763782
11
-4.4651181102362205
21
5.7433464566929135
0
LINE
8
BLACK
6
CONTINUOUS
10
-4.4651181102362205
20
5.7433464566929135
11
-4.4651181102362205
21
5.8004330708661413
0
LINE
8
BLACK
6
CONTINUOUS
10
-4.4651181102362205
20
5.8004330708661413
11
-4.4645187401574802
21
5.8034463385826767
0
LINE
8
BLACK
6
CONTINUOUS
10
-4.4645187401574802
20
5.8034463385826767
11
-4.4628118503937007
21
5.806000826771653
0
LINE
8
BLACK
6
CONTINUOUS
10
-4.4628118503937007
20
5.806000826771653
11
-4.4602573622047244
21
5.8077077165354325
0
LINE
8
BLACK
6
CONTINUOUS
10
-4.4602573622047244
20
5.8077077165354325
11
-4.457244094488189
21
5.8083070866141728
0
LINE
8
BLACK
6
CONTINUOUS
10
-4.457244094488189
20
5.8083070866141728
11
-4.4395275590551178
21
5.8083070866141728
0
LINE
8
BLACK
6
CONTINUOUS
10
-4.4395275590551178
20
5.8083070866141728
11
-4.4365142913385824
21
5.8077077165354325
0
LINE
8
BLACK
6
CONTINUOUS
10
-4.7754382677165355
20
5.7782066929133853
11
-4.7713631102362202
21
5.7762144488188971
0
LINE
8
BLACK
6
CONTINUOUS
10
-4.7713631102362202
20
5.7762144488188971
11
-4.7681556299212593
21
5.7730069685039371
0
LINE
8
BLACK
6
CONTINUOUS
10
-4.7681556299212593
20
5.7730069685039371
11
-4.7661633858267711
21
5.7689318110236218
0
LINE
8
BLACK
6
CONTINUOUS
10
-4.7661633858267711
20
5.7689318110236218
11
-4.7655905511811021
21
5.7649999999999997
0
LINE
8
BLACK
6
CONTINUOUS
10
-4.7655905511811021
20
5.7649999999999997
11
-4.7655905511811021
21
5.7531889763779525
0
LINE
8
BLACK
6
CONTINUOUS
10
-4.7655905511811021
20
5.7531889763779525
11
-4.7661633858267711
21
5.7492571653543303
0
LINE
8
BLACK
6
CONTINUOUS
10
-4.7661633858267711
20
5.7492571653543303
11
-4.7681556299212593
21
5.7451820078740159
0
LINE
8
BLACK
6
CONTINUOUS
10
-4.7681556299212593
20
5.7451820078740159
11
-4.7713631102362202
21
5.741974527559055
0
LINE
8
BLACK
6
CONTINUOUS
10
-4.7713631102362202
20
5.741974527559055
11
-4.7754382677165355
21
5.7399822834645668
0
LINE
8
BLACK
6
CONTINUOUS
10
-4.7754382677165355
20
5.7399822834645668
11
-4.7793700787401576
21
5.7394094488188978
0
LINE
8
BLACK
6
CONTINUOUS
10
-4.7793700787401576
20
5.7394094488188978
11
-4.834488188976378
21
5.7394094488188978
0
LINE
8
BLACK
6
CONTINUOUS
10
-4.834488188976378
20
5.7394094488188978
11
-4.8384200000000002
21
5.7399822834645668
0
LINE
8
BLACK
6
CONTINUOUS
10
-4.8384200000000002
20
5.7399822834645668
11
-4.8424951574803146
21
5.741974527559055
0
LINE
8
BLACK
6
CONTINUOUS
10
-4.8424951574803146
20
5.741974527559055
11
-4.8457026377952754
21
5.7451820078740159
0
LINE
8
BLACK
6
CONTINUOUS
10
-4.8457026377952754
20
5.7451820078740159
11
-4.8476948818897636
21
5.7492571653543303
0
LINE
8
BLACK
6
CONTINUOUS
10
-4.8476948818897636
20
5.7492571653543303
11
-4.8482677165354326
21
5.7531889763779525
0
LINE
8
BLACK
6
CONTINUOUS
10
-4.8482677165354326
20
5.7531889763779525
11
-4.8482677165354326
21
5.7649999999999997
0
LINE
8
BLACK
6
CONTINUOUS
10
-4.8482677165354326
20
5.7649999999999997
11
-4.8476948818897636
21
5.7689318110236218
0
LINE
8
BLACK
6
CONTINUOUS
10
-4.8476948818897636
20
5.7689318110236218
11
-4.8457026377952754
21
5.7730069685039371
0
LINE
8
BLACK
6
CONTINUOUS
10
-4.8457026377952754
20
5.7730069685039371
11
-4.8424951574803146
21
5.7762144488188971
0
LINE
8
BLACK
6
CONTINUOUS
10
-4.8424951574803146
20
5.7762144488188971
11
-4.8384200000000002
21
5.7782066929133853
0
LINE
8
BLACK
6
CONTINUOUS
10
-4.8384200000000002
20
5.7782066929133853
11
-4.834488188976378
21
5.7787795275590552
0
LINE
8
BLACK
6
CONTINUOUS
10
-4.834488188976378
20
5.7787795275590552
11
-4.7793700787401576
21
5.7787795275590552
0
LINE
8
BLACK
6
CONTINUOUS
10
-4.7793700787401576
20
5.7787795275590552
11
-4.7754382677165355
21
5.7782066929133853
0
LINE
8
BLACK
6
CONTINUOUS
10
-4.1573280314960632
20
5.7782066929133853
11
-4.1532528740157479
21
5.7762144488188971
0
LINE
8
BLACK
6
CONTINUOUS
10
-4.1532528740157479
20
5.7762144488188971
11
-4.1500453937007871
21
5.7730069685039371
0
LINE
8
BLACK
6
CONTINUOUS
10
-4.1500453937007871
20
5.7730069685039371
11
-4.1480531496062989
21
5.7689318110236218
0
LINE
8
BLACK
6
CONTINUOUS
10
-4.1480531496062989
20
5.7689318110236218
11
-4.1474803149606299
21
5.7649999999999997
0
LINE
8
BLACK
6
CONTINUOUS
10
-4.1474803149606299
20
5.7649999999999997
11
-4.1474803149606299
21
5.7531889763779525
0
LINE
8
BLACK
6
CONTINUOUS
10
-4.1474803149606299
20
5.7531889763779525
11
-4.1480531496062989
21
5.7492571653543303
0
LINE
8
BLACK
6
CONTINUOUS
10
-4.1480531496062989
20
5.7492571653543303
11
-4.1500453937007871
21
5.7451820078740159
0
LINE
8
BLACK
6
CONTINUOUS
10
-4.1500453937007871
20
5.7451820078740159
11
-4.1532528740157479
21
5.741974527559055
0
LINE
8
BLACK
6
CONTINUOUS
10
-4.1532528740157479
20
5.741974527559055
11
-4.1573280314960632
21
5.7399822834645668
0
LINE
8
BLACK
6
CONTINUOUS
10
-4.1573280314960632
20
5.7399822834645668
11
-4.1612598425196845
21
5.7394094488188978
0
LINE
8
BLACK
6
CONTINUOUS
10
-4.1612598425196845
20
5.7394094488188978
11
-4.2163779527559058
21
5.7394094488188978
0
LINE
8
BLACK
6
CONTINUOUS
10
-4.2163779527559058
20
5.7394094488188978
11
-4.220309763779527
21
5.7399822834645668
0
LINE
8
BLACK
6
CONTINUOUS
10
-4.220309763779527
20
5.7399822834645668
11
-4.2243849212598423
21
5.741974527559055
0
LINE
8
BLACK
6
CONTINUOUS
10
-4.2243849212598423
20
5.741974527559055
11
-4.2275924015748032
21
5.7451820078740159
0
LINE
8
BLACK
6
CONTINUOUS
10
-4.2275924015748032
20
5.7451820078740159
11
-4.2295846456692914
21
5.7492571653543303
0
LINE
8
BLACK
6
CONTINUOUS
10
-4.2295846456692914
20
5.7492571653543303
11
-4.2301574803149604
21
5.7531889763779525
0
LINE
8
BLACK
6
CONTINUOUS
10
-4.2301574803149604
20
5.7531889763779525
11
-4.2301574803149604
21
5.7649999999999997
0
LINE
8
BLACK
6
CONTINUOUS
10
-4.2301574803149604
20
5.7649999999999997
11
-4.2295846456692914
21
5.7689318110236218
0
LINE
8
BLACK
6
CONTINUOUS
10
-4.2295846456692914
20
5.7689318110236218
11
-4.2275924015748032
21
5.7730069685039371
0
LINE
8
BLACK
6
CONTINUOUS
10
-4.2275924015748032
20
5.7730069685039371
11
-4.2243849212598423
21
5.7762144488188971
0
LINE
8
BLACK
6
CONTINUOUS
10
-4.2243849212598423
20
5.7762144488188971
11
-4.220309763779527
21
5.7782066929133853
0
LINE
8
BLACK
6
CONTINUOUS
10
-4.220309763779527
20
5.7782066929133853
11
-4.2163779527559058
21
5.7787795275590552
0
LINE
8
BLACK
6
CONTINUOUS
10
-4.2163779527559058
20
5.7787795275590552
11
-4.1612598425196845
21
5.7787795275590552
0
LINE
8
BLACK
6
CONTINUOUS
10
-4.1612598425196845
20
5.7787795275590552
11
-4.1573280314960632
21
5.7782066929133853
0
LINE
8
BLACK
6
CONTINUOUS
10
-4.6832072047244093
20
5.7789675590551184
11
-4.680652716535433
21
5.7772606692913389
0
LINE
8
BLACK
6
CONTINUOUS
10
-4.680652716535433
20
5.7772606692913389
11
-4.6789458267716535
21
5.7747061811023617
0
LINE
8
BLACK
6
CONTINUOUS
10
-4.6789458267716535
20
5.7747061811023617
11
-4.6783464566929132
21
5.7716929133858264
0
LINE
8
BLACK
6
CONTINUOUS
10
-4.6783464566929132
20
5.7716929133858264
11
-4.6783464566929132
21
5.7480708661417319
0
LINE
8
BLACK
6
CONTINUOUS
10
-4.6783464566929132
20
5.7480708661417319
11
-4.6789458267716535
21
5.7450575984251966
0
LINE
8
BLACK
6
CONTINUOUS
10
-4.6789458267716535
20
5.7450575984251966
11
-4.680652716535433
21
5.7425031102362203
0
LINE
8
BLACK
6
CONTINUOUS
10
-4.680652716535433
20
5.7425031102362203
11
-4.6832072047244093
21
5.7407962204724408
0
LINE
8
BLACK
6
CONTINUOUS
10
-4.6832072047244093
20
5.7407962204724408
11
-4.6862204724409446
21
5.7401968503937004
0
LINE
8
BLACK
6
CONTINUOUS
10
-4.6862204724409446
20
5.7401968503937004
11
-4.7137795275590548
21
5.7401968503937004
0
LINE
8
BLACK
6
CONTINUOUS
10
-4.7137795275590548
20
5.7401968503937004
11
-4.7167927952755901
21
5.7407962204724408
0
LINE
8
BLACK
6
CONTINUOUS
10
-4.7167927952755901
20
5.7407962204724408
11
-4.7193472834645664
21
5.7425031102362203
0
LINE
8
BLACK
6
CONTINUOUS
10
-4.7193472834645664
20
5.7425031102362203
11
-4.721054173228346
21
5.7450575984251966
0
LINE
8
BLACK
6
CONTINUOUS
10
-4.721054173228346
20
5.7450575984251966
11
-4.7216535433070863
21
5.7480708661417319
0
LINE
8
BLACK
6
CONTINUOUS
10
-4.7216535433070863
20
5.7480708661417319
11
-4.7216535433070863
21
5.7716929133858264
0
LINE
8
BLACK
6
CONTINUOUS
10
-4.7216535433070863
20
5.7716929133858264
11
-4.721054173228346
21
5.7747061811023617
0
LINE
8
BLACK
6
CONTINUOUS
10
-4.721054173228346
20
5.7747061811023617
11
-4.7193472834645664
21
5.7772606692913389
0
LINE
8
BLACK
6
CONTINUOUS
10
-4.7193472834645664
20
5.7772606692913389
11
-4.7167927952755901
21
5.7789675590551184
0
LINE
8
BLACK
6
CONTINUOUS
10
-4.7167927952755901
20
5.7789675590551184
11
-4.7137795275590548
21
5.7795669291338578
0
LINE
8
BLACK
6
CONTINUOUS
10
-4.7137795275590548
20
5.7795669291338578
11
-4.6862204724409446
21
5.7795669291338578
0
LINE
8
BLACK
6
CONTINUOUS
10
-4.6862204724409446
20
5.7795669291338578
11
-4.6832072047244093
21
5.7789675590551184
0
LINE
8
BLACK
6
CONTINUOUS
10
-4.2793068110236216
20
5.8153316141732283
11
-4.274916771653543
21
5.8130947637795272
0
LINE
8
BLACK
6
CONTINUOUS
10
-4.274916771653543
20
5.8130947637795272
11
-4.2714327952755902
21
5.8096107874015743
0
LINE
8
BLACK
6
CONTINUOUS
10
-4.2714327952755902
20
5.8096107874015743
11
-4.2691959448818899
21
5.8052207480314957
0
LINE
8
BLACK
6
CONTINUOUS
10
-4.2691959448818899
20
5.8052207480314957
11
-4.2684251968503935
21
5.8003543307086609
0
LINE
8
BLACK
6
CONTINUOUS
10
-4.2684251968503935
20
5.8003543307086609
11
-4.2684251968503935
21
5.7846062992125979
0
LINE
8
BLACK
6
CONTINUOUS
10
-4.2684251968503935
20
5.7846062992125979
11
-4.2691959448818899
21
5.7797398818897641
0
LINE
8
BLACK
6
CONTINUOUS
10
-4.2691959448818899
20
5.7797398818897641
11
-4.2714327952755902
21
5.7753498425196845
0
LINE
8
BLACK
6
CONTINUOUS
10
-4.2714327952755902
20
5.7753498425196845
11
-4.274916771653543
21
5.7718658661417326
0
LINE
8
BLACK
6
CONTINUOUS
10
-4.274916771653543
20
5.7718658661417326
11
-4.2793068110236216
21
5.7696290157480314
0
LINE
8
BLACK
6
CONTINUOUS
10
-4.2793068110236216
20
5.7696290157480314
11
-4.2841732283464564
21
5.768858267716535
0
LINE
8
BLACK
6
CONTINUOUS
10
-4.2841732283464564
20
5.768858267716535
11
-4.3058267716535434
21
5.768858267716535
0
LINE
8
BLACK
6
CONTINUOUS
10
-4.3058267716535434
20
5.768858267716535
11
-4.3106931889763782
21
5.7696290157480314
0
LINE
8
BLACK
6
CONTINUOUS
10
-4.3106931889763782
20
5.7696290157480314
11
-4.3150832283464569
21
5.7718658661417326
0
LINE
8
BLACK
6
CONTINUOUS
10
-4.3150832283464569
20
5.7718658661417326
11
-4.3185672047244097
21
5.7753498425196845
0
LINE
8
BLACK
6
CONTINUOUS
10
-4.3185672047244097
20
5.7753498425196845
11
-4.3208040551181099
21
5.7797398818897641
0
LINE
8
BLACK
6
CONTINUOUS
10
-4.3208040551181099
20
5.7797398818897641
11
-4.3215748031496064
21
5.7846062992125979
0
LINE
8
BLACK
6
CONTINUOUS
10
-4.3215748031496064
20
5.7846062992125979
11
-4.3215748031496064
21
5.8003543307086609
0
LINE
8
BLACK
6
CONTINUOUS
10
-4.3215748031496064
20
5.8003543307086609
11
-4.3208040551181099
21
5.8052207480314957
0
LINE
8
BLACK
6
CONTINUOUS
10
-4.3208040551181099
20
5.8052207480314957
11
-4.3185672047244097
21
5.8096107874015743
0
LINE
8
BLACK
6
CONTINUOUS
10
-4.3185672047244097
20
5.8096107874015743
11
-4.3150832283464569
21
5.8130947637795272
0
LINE
8
BLACK
6
CONTINUOUS
10
-4.3150832283464569
20
5.8130947637795272
11
-4.3106931889763782
21
5.8153316141732283
0
LINE
8
BLACK
6
CONTINUOUS
10
-4.3106931889763782
20
5.8153316141732283
11
-4.3058267716535434
21
5.8161023622047239
0
LINE
8
BLACK
6
CONTINUOUS
10
-4.3058267716535434
20
5.8161023622047239
11
-4.2841732283464564
21
5.8161023622047239
0
LINE
8
BLACK
6
CONTINUOUS
10
-4.2841732283464564
20
5.8161023622047239
11
-4.2793068110236216
21
5.8153316141732283
0
LINE
8
BLACK
6
CONTINUOUS
10
-4.5293068110236216
20
5.8193276771653544
11
-4.524916771653543
21
5.8170908267716532
0
LINE
8
BLACK
6
CONTINUOUS
10
-4.524916771653543
20
5.8170908267716532
11
-4.5214327952755902
21
5.8136068503937004
0
LINE
8
BLACK
6
CONTINUOUS
10
-4.5214327952755902
20
5.8136068503937004
11
-4.5191959448818899
21
5.8092168110236218
0
LINE
8
BLACK
6
CONTINUOUS
10
-4.5191959448818899
20
5.8092168110236218
11
-4.5184251968503935
21
5.804350393700787
0
LINE
8
BLACK
6
CONTINUOUS
10
-4.5184251968503935
20
5.804350393700787
11
-4.5184251968503935
21
5.788602362204724
0
LINE
8
BLACK
6
CONTINUOUS
10
-4.5184251968503935
20
5.788602362204724
11
-4.5191959448818899
21
5.7837359448818892
0
LINE
8
BLACK
6
CONTINUOUS
10
-4.5191959448818899
20
5.7837359448818892
11
-4.5214327952755902
21
5.7793459055118106
0
LINE
8
BLACK
6
CONTINUOUS
10
-4.5214327952755902
20
5.7793459055118106
11
-4.524916771653543
21
5.7758619291338578
0
LINE
8
BLACK
6
CONTINUOUS
10
-4.524916771653543
20
5.7758619291338578
11
-4.5293068110236216
21
5.7736250787401575
0
LINE
8
BLACK
6
CONTINUOUS
10
-4.5293068110236216
20
5.7736250787401575
11
-4.5341732283464564
21
5.7728543307086611
0
LINE
8
BLACK
6
CONTINUOUS
10
-4.5341732283464564
20
5.7728543307086611
11
-4.5558267716535434
21
5.7728543307086611
0
LINE
8
BLACK
6
CONTINUOUS
10
-4.5558267716535434
20
5.7728543307086611
11
-4.5606931889763782
21
5.7736250787401575
0
LINE
8
BLACK
6
CONTINUOUS
10
-4.5606931889763782
20
5.7736250787401575
11
-4.5650832283464569
21
5.7758619291338578
0
LINE
8
BLACK
6
CONTINUOUS
10
-4.5650832283464569
20
5.7758619291338578
11
-4.5685672047244097
21
5.7793459055118106
0
LINE
8
BLACK
6
CONTINUOUS
10
-4.5685672047244097
20
5.7793459055118106
11
-4.5708040551181099
21
5.7837359448818892
0
LINE
8
BLACK
6
CONTINUOUS
10
-4.5708040551181099
20
5.7837359448818892
11
-4.5715748031496064
21
5.788602362204724
0
LINE
8
BLACK
6
CONTINUOUS
10
-4.5715748031496064
20
5.788602362204724
11
-4.5715748031496064
21
5.804350393700787
0
LINE
8
BLACK
6
CONTINUOUS
10
-4.5715748031496064
20
5.804350393700787
11
-4.5708040551181099
21
5.8092168110236218
0
LINE
8
BLACK
6
CONTINUOUS
10
-4.5708040551181099
20
5.8092168110236218
11
-4.5685672047244097
21
5.8136068503937004
0
LINE
8
BLACK
6
CONTINUOUS
10
-4.5685672047244097
20
5.8136068503937004
11
-4.5650832283464569
21
5.8170908267716532
0
LINE
8
BLACK
6
CONTINUOUS
10
-4.5650832283464569
20
5.8170908267716532
11
-4.5606931889763782
21
5.8193276771653544
0
LINE
8
BLACK
6
CONTINUOUS
10
-4.5606931889763782
20
5.8193276771653544
11
-4.5558267716535434
21
5.8200984251968499
0
LINE
8
BLACK
6
CONTINUOUS
10
-4.5558267716535434
20
5.8200984251968499
11
-4.5341732283464564
21
5.8200984251968499
0
LINE
8
BLACK
6
CONTINUOUS
10
-4.5341732283464564
20
5.8200984251968499
11
-4.5293068110236216
21
5.8193276771653544
0
LINE
8
BLACK
6
CONTINUOUS
10
-4.5930055118110236
20
5.8421517716535432
11
-4.5880208267716531
21
5.8404075590551177
0
LINE
8
BLACK
6
CONTINUOUS
10
-4.5880208267716531
20
5.8404075590551177
11
-4.5837717322834646
21
5.8372715748031494
0
LINE
8
BLACK
6
CONTINUOUS
10
-4.5837717322834646
20
5.8372715748031494
11
-4.5806357480314963
21
5.8330224803149608
0
LINE
8
BLACK
6
CONTINUOUS
10
-4.5806357480314963
20
5.8330224803149608
11
-4.5788915354330708
21
5.8280377952755904
0
LINE
8
BLACK
6
CONTINUOUS
10
-4.5788915354330708
20
5.8280377952755904
11
-4.5785826771653539
21
5.8247440944881888
0
LINE
8
BLACK
6
CONTINUOUS
10
-4.5785826771653539
20
5.8247440944881888
11
-4.5785826771653539
21
5.80505905511811
0
LINE
8
BLACK
6
CONTINUOUS
10
-4.5785826771653539
20
5.80505905511811
11
-4.5788915354330708
21
5.8017653543307084
0
LINE
8
BLACK
6
CONTINUOUS
10
-4.5788915354330708
20
5.8017653543307084
11
-4.5806357480314963
21
5.7967806692913388
0
LINE
8
BLACK
6
CONTINUOUS
10
-4.5806357480314963
20
5.7967806692913388
11
-4.5837717322834646
21
5.7925315748031494
0
LINE
8
BLACK
6
CONTINUOUS
10
-4.5837717322834646
20
5.7925315748031494
11
-4.5880208267716531
21
5.7893955905511811
0
LINE
8
BLACK
6
CONTINUOUS
10
-4.5880208267716531
20
5.7893955905511811
11
-4.5930055118110236
21
5.7876513779527556
0
LINE
8
BLACK
6
CONTINUOUS
10
-4.5930055118110236
20
5.7876513779527556
11
-4.5962992125984252
21
5.7873425196850397
0
LINE
8
BLACK
6
CONTINUOUS
10
-4.5962992125984252
20
5.7873425196850397
11
-4.6337007874015743
21
5.7873425196850397
0
LINE
8
BLACK
6
CONTINUOUS
10
-4.6337007874015743
20
5.7873425196850397
11
-4.636994488188976
21
5.7876513779527556
0
LINE
8
BLACK
6
CONTINUOUS
10
-4.636994488188976
20
5.7876513779527556
11
-4.6419791732283464
21
5.7893955905511811
0
LINE
8
BLACK
6
CONTINUOUS
10
-4.6419791732283464
20
5.7893955905511811
11
-4.646228267716535
21
5.7925315748031494
0
LINE
8
BLACK
6
CONTINUOUS
10
-4.646228267716535
20
5.7925315748031494
11
-4.6493642519685041
21
5.7967806692913388
0
LINE
8
BLACK
6
CONTINUOUS
10
-4.6493642519685041
20
5.7967806692913388
11
-4.6511084645669287
21
5.8017653543307084
0
LINE
8
BLACK
6
CONTINUOUS
10
-4.6511084645669287
20
5.8017653543307084
11
-4.6514173228346456
21
5.80505905511811
0
LINE
8
BLACK
6
CONTINUOUS
10
-4.6514173228346456
20
5.80505905511811
11
-4.6514173228346456
21
5.8247440944881888
0
LINE
8
BLACK
6
CONTINUOUS
10
-4.6514173228346456
20
5.8247440944881888
11
-4.6511084645669287
21
5.8280377952755904
0
LINE
8
BLACK
6
CONTINUOUS
10
-4.6511084645669287
20
5.8280377952755904
11
-4.6493642519685041
21
5.8330224803149608
0
LINE
8
BLACK
6
CONTINUOUS
10
-4.6493642519685041
20
5.8330224803149608
11
-4.646228267716535
21
5.8372715748031494
0
LINE
8
BLACK
6
CONTINUOUS
10
-4.646228267716535
20
5.8372715748031494
11
-4.6419791732283464
21
5.8404075590551177
0
LINE
8
BLACK
6
CONTINUOUS
10
-4.6419791732283464
20
5.8404075590551177
11
-4.636994488188976
21
5.8421517716535432
0
LINE
8
BLACK
6
CONTINUOUS
10
-4.636994488188976
20
5.8421517716535432
11
-4.6337007874015743
21
5.84246062992126
0
LINE
8
BLACK
6
CONTINUOUS
10
-4.6337007874015743
20
5.84246062992126
11
-4.5962992125984252
21
5.84246062992126
0
LINE
8
BLACK
6
CONTINUOUS
10
-4.5962992125984252
20
5.84246062992126
11
-4.5930055118110236
21
5.8421517716535432
0
LINE
8
BLACK
6
CONTINUOUS
10
-4.6832072047244093
20
5.8340856692913388
11
-4.680652716535433
21
5.8323787795275592
0
LINE
8
BLACK
6
CONTINUOUS
10
-4.680652716535433
20
5.8323787795275592
11
-4.6789458267716535
21
5.8298242913385829
0
LINE
8
BLACK
6
CONTINUOUS
10
-4.6789458267716535
20
5.8298242913385829
11
-4.6783464566929132
21
5.8268110236220467
0
LINE
8
BLACK
6
CONTINUOUS
10
-4.6783464566929132
20
5.8268110236220467
11
-4.6783464566929132
21
5.8031889763779523
0
LINE
8
BLACK
6
CONTINUOUS
10
-4.6783464566929132
20
5.8031889763779523
11
-4.6789458267716535
21
5.800175708661417
0
LINE
8
BLACK
6
CONTINUOUS
10
-4.6789458267716535
20
5.800175708661417
11
-4.680652716535433
21
5.7976212204724407
0
LINE
8
BLACK
6
CONTINUOUS
10
-4.680652716535433
20
5.7976212204724407
11
-4.6832072047244093
21
5.7959143307086611
0
LINE
8
BLACK
6
CONTINUOUS
10
-4.6832072047244093
20
5.7959143307086611
11
-4.6862204724409446
21
5.7953149606299208
0
LINE
8
BLACK
6
CONTINUOUS
10
-4.6862204724409446
20
5.7953149606299208
11
-4.7137795275590548
21
5.7953149606299208
0
LINE
8
BLACK
6
CONTINUOUS
10
-4.7137795275590548
20
5.7953149606299208
11
-4.7167927952755901
21
5.7959143307086611
0
LINE
8
BLACK
6
CONTINUOUS
10
-4.7167927952755901
20
5.7959143307086611
11
-4.7193472834645664
21
5.7976212204724407
0
LINE
8
BLACK
6
CONTINUOUS
10
-4.7193472834645664
20
5.7976212204724407
11
-4.721054173228346
21
5.800175708661417
0
LINE
8
BLACK
6
CONTINUOUS
10
-4.721054173228346
20
5.800175708661417
11
-4.7216535433070863
21
5.8031889763779523
0
LINE
8
BLACK
6
CONTINUOUS
10
-4.7216535433070863
20
5.8031889763779523
11
-4.7216535433070863
21
5.8268110236220467
0
LINE
8
BLACK
6
CONTINUOUS
10
-4.7216535433070863
20
5.8268110236220467
11
-4.721054173228346
21
5.8298242913385829
0
LINE
8
BLACK
6
CONTINUOUS
10
-4.721054173228346
20
5.8298242913385829
11
-4.7193472834645664
21
5.8323787795275592
0
LINE
8
BLACK
6
CONTINUOUS
10
-4.7193472834645664
20
5.8323787795275592
11
-4.7167927952755901
21
5.8340856692913388
0
LINE
8
BLACK
6
CONTINUOUS
10
-4.7167927952755901
20
5.8340856692913388
11
-4.7137795275590548
21
5.8346850393700782
0
LINE
8
BLACK
6
CONTINUOUS
10
-4.7137795275590548
20
5.8346850393700782
11
-4.6862204724409446
21
5.8346850393700782
0
LINE
8
BLACK
6
CONTINUOUS
10
-4.6862204724409446
20
5.8346850393700782
11
-4.6832072047244093
21
5.8340856692913388
0
LINE
8
BLACK
6
CONTINUOUS
10
-4.8863125984251967
20
5.8591793307086615
11
-4.8813279133858263
21
5.857435118110236
0
LINE
8
BLACK
6
CONTINUOUS
10
-4.8813279133858263
20
5.857435118110236
11
-4.8770788188976377
21
5.8542991338582677
0
LINE
8
BLACK
6
CONTINUOUS
10
-4.8770788188976377
20
5.8542991338582677
11
-4.8739428346456695
21
5.8500500393700783
0
LINE
8
BLACK
6
CONTINUOUS
10
-4.8739428346456695
20
5.8500500393700783
11
-4.872198622047244
21
5.8450653543307087
0
LINE
8
BLACK
6
CONTINUOUS
10
-4.872198622047244
20
5.8450653543307087
11
-4.8718897637795271
21
5.8417716535433071
0
LINE
8
BLACK
6
CONTINUOUS
10
-4.8718897637795271
20
5.8417716535433071
11
-4.8718897637795271
21
5.8220866141732284
0
LINE
8
BLACK
6
CONTINUOUS
10
-4.8718897637795271
20
5.8220866141732284
11
-4.872198622047244
21
5.8187929133858267
0
LINE
8
BLACK
6
CONTINUOUS
10
-4.872198622047244
20
5.8187929133858267
11
-4.8739428346456695
21
5.8138082283464563
0
LINE
8
BLACK
6
CONTINUOUS
10
-4.8739428346456695
20
5.8138082283464563
11
-4.8770788188976377
21
5.8095591338582677
0
LINE
8
BLACK
6
CONTINUOUS
10
-4.8770788188976377
20
5.8095591338582677
11
-4.8813279133858263
21
5.8064231496062995
0
LINE
8
BLACK
6
CONTINUOUS
10
-4.8813279133858263
20
5.8064231496062995
11
-4.8863125984251967
21
5.804678937007874
0
LINE
8
BLACK
6
CONTINUOUS
10
-4.8863125984251967
20
5.804678937007874
11
-4.8896062992125984
21
5.8043700787401571
0
LINE
8
BLACK
6
CONTINUOUS
10
-4.8896062992125984
20
5.8043700787401571
11
-4.9762204724409447
21
5.8043700787401571
0
LINE
8
BLACK
6
CONTINUOUS
10
-4.9762204724409447
20
5.8043700787401571
11
-4.9795141732283463
21
5.804678937007874
0
LINE
8
BLACK
6
CONTINUOUS
10
-4.9795141732283463
20
5.804678937007874
11
-4.9844988582677168
21
5.8064231496062995
0
LINE
8
BLACK
6
CONTINUOUS
10
-4.9844988582677168
20
5.8064231496062995
11
-4.9887479527559053
21
5.8095591338582677
0
LINE
8
BLACK
6
CONTINUOUS
10
-4.9887479527559053
20
5.8095591338582677
11
-4.9918839370078736
21
5.8138082283464563
0
LINE
8
BLACK
6
CONTINUOUS
10
-4.9918839370078736
20
5.8138082283464563
11
-4.9936281496062991
21
5.8187929133858267
0
LINE
8
BLACK
6
CONTINUOUS
10
-4.9936281496062991
20
5.8187929133858267
11
-4.993937007874016
21
5.8220866141732284
0
LINE
8
BLACK
6
CONTINUOUS
10
-4.993937007874016
20
5.8220866141732284
11
-4.993937007874016
21
5.8417716535433071
0
LINE
8
BLACK
6
CONTINUOUS
10
-4.993937007874016
20
5.8417716535433071
11
-4.9936281496062991
21
5.8450653543307087
0
LINE
8
BLACK
6
CONTINUOUS
10
-4.9936281496062991
20
5.8450653543307087
11
-4.9918839370078736
21
5.8500500393700783
0
LINE
8
BLACK
6
CONTINUOUS
10
-4.9918839370078736
20
5.8500500393700783
11
-4.9887479527559053
21
5.8542991338582677
0
LINE
8
BLACK
6
CONTINUOUS
10
-4.9887479527559053
20
5.8542991338582677
11
-4.9844988582677168
21
5.857435118110236
0
LINE
8
BLACK
6
CONTINUOUS
10
-4.9844988582677168
20
5.857435118110236
11
-4.9795141732283463
21
5.8591793307086615
0
LINE
8
BLACK
6
CONTINUOUS
10
-4.9795141732283463
20
5.8591793307086615
11
-4.9762204724409447
21
5.8594881889763775
0
LINE
8
BLACK
6
CONTINUOUS
10
-4.9762204724409447
20
5.8594881889763775
11
-4.8896062992125984
21
5.8594881889763775
0
LINE
8
BLACK
6
CONTINUOUS
10
-4.8896062992125984
20
5.8594881889763775
11
-4.8863125984251967
21
5.8591793307086615
0
LINE
8
BLACK
6
CONTINUOUS
10
-4.0162338582677162
20
5.8591793307086615
11
-4.0112491732283466
21
5.857435118110236
0
LINE
8
BLACK
6
CONTINUOUS
10
-4.0112491732283466
20
5.857435118110236
11
-4.0070000787401572
21
5.8542991338582677
0
LINE
8
BLACK
6
CONTINUOUS
10
-4.0070000787401572
20
5.8542991338582677
11
-4.0038640944881889
21
5.8500500393700783
0
LINE
8
BLACK
6
CONTINUOUS
10
-4.0038640944881889
20
5.8500500393700783
11
-4.0021198818897634
21
5.8450653543307087
0
LINE
8
BLACK
6
CONTINUOUS
10
-4.0021198818897634
20
5.8450653543307087
11
-4.0018110236220474
21
5.8417716535433071
0
LINE
8
BLACK
6
CONTINUOUS
10
-4.0018110236220474
20
5.8417716535433071
11
-4.0018110236220474
21
5.8220866141732284
0
LINE
8
BLACK
6
CONTINUOUS
10
-4.0018110236220474
20
5.8220866141732284
11
-4.0021198818897634
21
5.8187929133858267
0
LINE
8
BLACK
6
CONTINUOUS
10
-4.0021198818897634
20
5.8187929133858267
11
-4.0038640944881889
21
5.8138082283464563
0
LINE
8
BLACK
6
CONTINUOUS
10
-4.0038640944881889
20
5.8138082283464563
11
-4.0070000787401572
21
5.8095591338582677
0
LINE
8
BLACK
6
CONTINUOUS
10
-4.0070000787401572
20
5.8095591338582677
11
-4.0112491732283466
21
5.8064231496062995
0
LINE
8
BLACK
6
CONTINUOUS
10
-4.0112491732283466
20
5.8064231496062995
11
-4.0162338582677162
21
5.804678937007874
0
LINE
8
BLACK
6
CONTINUOUS
10
-4.0162338582677162
20
5.804678937007874
11
-4.0195275590551178
21
5.8043700787401571
0
LINE
8
BLACK
6
CONTINUOUS
10
-4.0195275590551178
20
5.8043700787401571
11
-4.1061417322834641
21
5.8043700787401571
0
LINE
8
BLACK
6
CONTINUOUS
10
-4.1061417322834641
20
5.8043700787401571
11
-4.1094354330708658
21
5.804678937007874
0
LINE
8
BLACK
6
CONTINUOUS
10
-4.1094354330708658
20
5.804678937007874
11
-4.1144201181102362
21
5.8064231496062995
0
LINE
8
BLACK
6
CONTINUOUS
10
-4.1144201181102362
20
5.8064231496062995
11
-4.1186692125984248
21
5.8095591338582677
0
LINE
8
BLACK
6
CONTINUOUS
10
-4.1186692125984248
20
5.8095591338582677
11
-4.1218051968503939
21
5.8138082283464563
0
LINE
8
BLACK
6
CONTINUOUS
10
-4.1218051968503939
20
5.8138082283464563
11
-4.1235494094488185
21
5.8187929133858267
0
LINE
8
BLACK
6
CONTINUOUS
10
-4.1235494094488185
20
5.8187929133858267
11
-4.1238582677165354
21
5.8220866141732284
0
LINE
8
BLACK
6
CONTINUOUS
10
-4.1238582677165354
20
5.8220866141732284
11
-4.1238582677165354
21
5.8417716535433071
0
LINE
8
BLACK
6
CONTINUOUS
10
-4.1238582677165354
20
5.8417716535433071
11
-4.1235494094488185
21
5.8450653543307087
0
LINE
8
BLACK
6
CONTINUOUS
10
-4.1235494094488185
20
5.8450653543307087
11
-4.1218051968503939
21
5.8500500393700783
0
LINE
8
BLACK
6
CONTINUOUS
10
-4.1218051968503939
20
5.8500500393700783
11
-4.1186692125984248
21
5.8542991338582677
0
LINE
8
BLACK
6
CONTINUOUS
10
-4.1186692125984248
20
5.8542991338582677
11
-4.1144201181102362
21
5.857435118110236
0
LINE
8
BLACK
6
CONTINUOUS
10
-4.1144201181102362
20
5.857435118110236
11
-4.1094354330708658
21
5.8591793307086615
0
LINE
8
BLACK
6
CONTINUOUS
10
-4.1094354330708658
20
5.8591793307086615
11
-4.1061417322834641
21
5.8594881889763775
0
LINE
8
BLACK
6
CONTINUOUS
10
-4.1061417322834641
20
5.8594881889763775
11
-4.0195275590551178
21
5.8594881889763775
0
LINE
8
BLACK
6
CONTINUOUS
10
-4.0195275590551178
20
5.8594881889763775
11
-4.0162338582677162
21
5.8591793307086615
0
LINE
8
BLACK
6
CONTINUOUS
10
-4.3743068110236223
20
5.8743670472440943
11
-4.3699167716535436
21
5.8721301968503932
0
LINE
8
BLACK
6
CONTINUOUS
10
-4.3699167716535436
20
5.8721301968503932
11
-4.3664327952755908
21
5.8686462204724412
0
LINE
8
BLACK
6
CONTINUOUS
10
-4.3664327952755908
20
5.8686462204724412
11
-4.3641959448818897
21
5.8642561811023617
0
LINE
8
BLACK
6
CONTINUOUS
10
-4.3641959448818897
20
5.8642561811023617
11
-4.3634251968503932
21
5.8593897637795278
0
LINE
8
BLACK
6
CONTINUOUS
10
-4.3634251968503932
20
5.8593897637795278
11
-4.3634251968503932
21
5.8436417322834648
0
LINE
8
BLACK
6
CONTINUOUS
10
-4.3634251968503932
20
5.8436417322834648
11
-4.3641959448818897
21
5.8387753149606301
0
LINE
8
BLACK
6
CONTINUOUS
10
-4.3641959448818897
20
5.8387753149606301
11
-4.3664327952755908
21
5.8343852755905514
0
LINE
8
BLACK
6
CONTINUOUS
10
-4.3664327952755908
20
5.8343852755905514
11
-4.3699167716535436
21
5.8309012992125986
0
LINE
8
BLACK
6
CONTINUOUS
10
-4.3699167716535436
20
5.8309012992125986
11
-4.3743068110236223
21
5.8286644488188974
0
LINE
8
BLACK
6
CONTINUOUS
10
-4.3743068110236223
20
5.8286644488188974
11
-4.3791732283464562
21
5.8278937007874019
0
LINE
8
BLACK
6
CONTINUOUS
10
-4.3791732283464562
20
5.8278937007874019
11
-4.4008267716535432
21
5.8278937007874019
0
LINE
8
BLACK
6
CONTINUOUS
10
-4.4008267716535432
20
5.8278937007874019
11
-4.405693188976378
21
5.8286644488188974
0
LINE
8
BLACK
6
CONTINUOUS
10
-4.405693188976378
20
5.8286644488188974
11
-4.4100832283464566
21
5.8309012992125986
0
LINE
8
BLACK
6
CONTINUOUS
10
-4.4100832283464566
20
5.8309012992125986
11
-4.4135672047244094
21
5.8343852755905514
0
LINE
8
BLACK
6
CONTINUOUS
10
-4.4135672047244094
20
5.8343852755905514
11
-4.4158040551181097
21
5.8387753149606301
0
LINE
8
BLACK
6
CONTINUOUS
10
-4.4158040551181097
20
5.8387753149606301
11
-4.4165748031496062
21
5.8436417322834648
0
LINE
8
BLACK
6
CONTINUOUS
10
-4.4165748031496062
20
5.8436417322834648
11
-4.4165748031496062
21
5.8593897637795278
0
LINE
8
BLACK
6
CONTINUOUS
10
-4.4165748031496062
20
5.8593897637795278
11
-4.4158040551181097
21
5.8642561811023617
0
LINE
8
BLACK
6
CONTINUOUS
10
-4.4158040551181097
20
5.8642561811023617
11
-4.4135672047244094
21
5.8686462204724412
0
LINE
8
BLACK
6
CONTINUOUS
10
-4.4135672047244094
20
5.8686462204724412
11
-4.4100832283464566
21
5.8721301968503932
0
LINE
8
BLACK
6
CONTINUOUS
10
-4.4100832283464566
20
5.8721301968503932
11
-4.405693188976378
21
5.8743670472440943
0
LINE
8
BLACK
6
CONTINUOUS
10
-4.405693188976378
20
5.8743670472440943
11
-4.4008267716535432
21
5.8751377952755908
0
LINE
8
BLACK
6
CONTINUOUS
10
-4.4008267716535432
20
5.8751377952755908
11
-4.3791732283464562
21
5.8751377952755908
0
LINE
8
BLACK
6
CONTINUOUS
10
-4.3791732283464562
20
5.8751377952755908
11
-4.3743068110236223
21
5.8743670472440943
0
LINE
8
BLACK
6
CONTINUOUS
10
-4.2943068110236222
20
5.8743670472440943
11
-4.2899167716535436
21
5.8721301968503932
0
LINE
8
BLACK
6
CONTINUOUS
10
-4.2899167716535436
20
5.8721301968503932
11
-4.2864327952755907
21
5.8686462204724412
0
LINE
8
BLACK
6
CONTINUOUS
10
-4.2864327952755907
20
5.8686462204724412
11
-4.2841959448818896
21
5.8642561811023617
0
LINE
8
BLACK
6
CONTINUOUS
10
-4.2841959448818896
20
5.8642561811023617
11
-4.283425196850394
21
5.8593897637795278
0
LINE
8
BLACK
6
CONTINUOUS
10
-4.283425196850394
20
5.8593897637795278
11
-4.283425196850394
21
5.8436417322834648
0
LINE
8
BLACK
6
CONTINUOUS
10
-4.283425196850394
20
5.8436417322834648
11
-4.2841959448818896
21
5.8387753149606301
0
LINE
8
BLACK
6
CONTINUOUS
10
-4.2841959448818896
20
5.8387753149606301
11
-4.2864327952755907
21
5.8343852755905514
0
LINE
8
BLACK
6
CONTINUOUS
10
-4.2864327952755907
20
5.8343852755905514
11
-4.2899167716535436
21
5.8309012992125986
0
LINE
8
BLACK
6
CONTINUOUS
10
-4.2899167716535436
20
5.8309012992125986
11
-4.2943068110236222
21
5.8286644488188974
0
LINE
8
BLACK
6
CONTINUOUS
10
-4.2943068110236222
20
5.8286644488188974
11
-4.299173228346457
21
5.8278937007874019
0
LINE
8
BLACK
6
CONTINUOUS
10
-4.299173228346457
20
5.8278937007874019
11
-4.3208267716535431
21
5.8278937007874019
0
LINE
8
BLACK
6
CONTINUOUS
10
-4.3208267716535431
20
5.8278937007874019
11
-4.3256931889763779
21
5.8286644488188974
0
LINE
8
BLACK
6
CONTINUOUS
10
-4.3256931889763779
20
5.8286644488188974
11
-4.3300832283464565
21
5.8309012992125986
0
LINE
8
BLACK
6
CONTINUOUS
10
-4.3300832283464565
20
5.8309012992125986
11
-4.3335672047244094
21
5.8343852755905514
0
LINE
8
BLACK
6
CONTINUOUS
10
-4.3335672047244094
20
5.8343852755905514
11
-4.3358040551181105
21
5.8387753149606301
0
LINE
8
BLACK
6
CONTINUOUS
10
-4.3358040551181105
20
5.8387753149606301
11
-4.3365748031496061
21
5.8436417322834648
0
LINE
8
BLACK
6
CONTINUOUS
10
-4.3365748031496061
20
5.8436417322834648
11
-4.3365748031496061
21
5.8593897637795278
0
LINE
8
BLACK
6
CONTINUOUS
10
-4.3365748031496061
20
5.8593897637795278
11
-4.3358040551181105
21
5.8642561811023617
0
LINE
8
BLACK
6
CONTINUOUS
10
-4.3358040551181105
20
5.8642561811023617
11
-4.3335672047244094
21
5.8686462204724412
0
LINE
8
BLACK
6
CONTINUOUS
10
-4.3335672047244094
20
5.8686462204724412
11
-4.3300832283464565
21
5.8721301968503932
0
LINE
8
BLACK
6
CONTINUOUS
10
-4.3300832283464565
20
5.8721301968503932
11
-4.3256931889763779
21
5.8743670472440943
0
LINE
8
BLACK
6
CONTINUOUS
10
-4.3256931889763779
20
5.8743670472440943
11
-4.3208267716535431
21
5.8751377952755908
0
LINE
8
BLACK
6
CONTINUOUS
10
-4.3208267716535431
20
5.8751377952755908
11
-4.299173228346457
21
5.8751377952755908
0
LINE
8
BLACK
6
CONTINUOUS
10
-4.299173228346457
20
5.8751377952755908
11
-4.2943068110236222
21
5.8743670472440943
0
LINE
8
BLACK
6
CONTINUOUS
10
-4.5087359448818898
20
5.9158040551181097
11
-4.5043459055118111
21
5.9135672047244094
0
LINE
8
BLACK
6
CONTINUOUS
10
-4.5043459055118111
20
5.9135672047244094
11
-4.5008619291338583
21
5.9100832283464566
0
LINE
8
BLACK
6
CONTINUOUS
10
-4.5008619291338583
20
5.9100832283464566
11
-4.4986250787401572
21
5.905693188976378
0
LINE
8
BLACK
6
CONTINUOUS
10
-4.4986250787401572
20
5.905693188976378
11
-4.4978543307086616
21
5.9008267716535432
0
LINE
8
BLACK
6
CONTINUOUS
10
-4.4978543307086616
20
5.9008267716535432
11
-4.4978543307086616
21
5.8791732283464562
0
LINE
8
BLACK
6
CONTINUOUS
10
-4.4978543307086616
20
5.8791732283464562
11
-4.4986250787401572
21
5.8743068110236223
0
LINE
8
BLACK
6
CONTINUOUS
10
-4.4986250787401572
20
5.8743068110236223
11
-4.5008619291338583
21
5.8699167716535428
0
LINE
8
BLACK
6
CONTINUOUS
10
-4.5008619291338583
20
5.8699167716535428
11
-4.5043459055118111
21
5.8664327952755908
0
LINE
8
BLACK
6
CONTINUOUS
10
-4.5043459055118111
20
5.8664327952755908
11
-4.5087359448818898
21
5.8641959448818897
0
LINE
8
BLACK
6
CONTINUOUS
10
-4.5087359448818898
20
5.8641959448818897
11
-4.5136023622047245
21
5.8634251968503932
0
LINE
8
BLACK
6
CONTINUOUS
10
-4.5136023622047245
20
5.8634251968503932
11
-4.5293503937007875
21
5.8634251968503932
0
LINE
8
BLACK
6
CONTINUOUS
10
-4.5293503937007875
20
5.8634251968503932
11
-4.5342168110236223
21
5.8641959448818897
0
LINE
8
BLACK
6
CONTINUOUS
10
-4.5342168110236223
20
5.8641959448818897
11
-4.5386068503937009
21
5.8664327952755908
0
LINE
8
BLACK
6
CONTINUOUS
10
-4.5386068503937009
20
5.8664327952755908
11
-4.5420908267716538
21
5.8699167716535428
0
LINE
8
BLACK
6
CONTINUOUS
10
-4.5420908267716538
20
5.8699167716535428
11
-4.544327677165354
21
5.8743068110236223
0
LINE
8
BLACK
6
CONTINUOUS
10
-4.544327677165354
20
5.8743068110236223
11
-4.5450984251968505
21
5.8791732283464562
0
LINE
8
BLACK
6
CONTINUOUS
10
-4.5450984251968505
20
5.8791732283464562
11
-4.5450984251968505
21
5.9008267716535432
0
LINE
8
BLACK
6
CONTINUOUS
10
-4.5450984251968505
20
5.9008267716535432
11
-4.544327677165354
21
5.905693188976378
0
LINE
8
BLACK
6
CONTINUOUS
10
-4.544327677165354
20
5.905693188976378
11
-4.5420908267716538
21
5.9100832283464566
0
LINE
8
BLACK
6
CONTINUOUS
10
-4.5420908267716538
20
5.9100832283464566
11
-4.5386068503937009
21
5.9135672047244094
0
LINE
8
BLACK
6
CONTINUOUS
10
-4.5386068503937009
20
5.9135672047244094
11
-4.5342168110236223
21
5.9158040551181097
0
LINE
8
BLACK
6
CONTINUOUS
10
-4.5342168110236223
20
5.9158040551181097
11
-4.5293503937007875
21
5.9165748031496062
0
LINE
8
BLACK
6
CONTINUOUS
10
-4.5293503937007875
20
5.9165748031496062
11
-4.5136023622047245
21
5.9165748031496062
0
LINE
8
BLACK
6
CONTINUOUS
10
-4.5136023622047245
20
5.9165748031496062
11
-4.5087359448818898
21
5.9158040551181097
0
LINE
8
BLACK
6
CONTINUOUS
10
-4.4437753149606296
20
5.9158040551181097
11
-4.439385275590551
21
5.9135672047244094
0
LINE
8
BLACK
6
CONTINUOUS
10
-4.439385275590551
20
5.9135672047244094
11
-4.4359012992125981
21
5.9100832283464566
0
LINE
8
BLACK
6
CONTINUOUS
10
-4.4359012992125981
20
5.9100832283464566
11
-4.4336644488188979
21
5.905693188976378
0
LINE
8
BLACK
6
CONTINUOUS
10
-4.4336644488188979
20
5.905693188976378
11
-4.4328937007874014
21
5.9008267716535432
0
LINE
8
BLACK
6
CONTINUOUS
10
-4.4328937007874014
20
5.9008267716535432
11
-4.4328937007874014
21
5.8791732283464562
0
LINE
8
BLACK
6
CONTINUOUS
10
-4.4328937007874014
20
5.8791732283464562
11
-4.4336644488188979
21
5.8743068110236223
0
LINE
8
BLACK
6
CONTINUOUS
10
-4.4336644488188979
20
5.8743068110236223
11
-4.4359012992125981
21
5.8699167716535428
0
LINE
8
BLACK
6
CONTINUOUS
10
-4.4359012992125981
20
5.8699167716535428
11
-4.439385275590551
21
5.8664327952755908
0
LINE
8
BLACK
6
CONTINUOUS
10
-4.439385275590551
20
5.8664327952755908
11
-4.4437753149606296
21
5.8641959448818897
0
LINE
8
BLACK
6
CONTINUOUS
10
-4.4437753149606296
20
5.8641959448818897
11
-4.4486417322834644
21
5.8634251968503932
0
LINE
8
BLACK
6
CONTINUOUS
10
-4.4486417322834644
20
5.8634251968503932
11
-4.4643897637795273
21
5.8634251968503932
0
LINE
8
BLACK
6
CONTINUOUS
10
-4.4643897637795273
20
5.8634251968503932
11
-4.4692561811023621
21
5.8641959448818897
0
LINE
8
BLACK
6
CONTINUOUS
10
-4.4692561811023621
20
5.8641959448818897
11
-4.4736462204724408
21
5.8664327952755908
0
LINE
8
BLACK
6
CONTINUOUS
10
-4.4736462204724408
20
5.8664327952755908
11
-4.4771301968503936
21
5.8699167716535428
0
LINE
8
BLACK
6
CONTINUOUS
10
-4.4771301968503936
20
5.8699167716535428
11
-4.4793670472440947
21
5.8743068110236223
0
LINE
8
BLACK
6
CONTINUOUS
10
-4.4793670472440947
20
5.8743068110236223
11
-4.4801377952755903
21
5.8791732283464562
0
LINE
8
BLACK
6
CONTINUOUS
10
-4.4801377952755903
20
5.8791732283464562
11
-4.4801377952755903
21
5.9008267716535432
0
LINE
8
BLACK
6
CONTINUOUS
10
-4.4801377952755903
20
5.9008267716535432
11
-4.4793670472440947
21
5.905693188976378
0
LINE
8
BLACK
6
CONTINUOUS
10
-4.4793670472440947
20
5.905693188976378
11
-4.4771301968503936
21
5.9100832283464566
0
LINE
8
BLACK
6
CONTINUOUS
10
-4.4771301968503936
20
5.9100832283464566
11
-4.4736462204724408
21
5.9135672047244094
0
LINE
8
BLACK
6
CONTINUOUS
10
-4.4736462204724408
20
5.9135672047244094
11
-4.4692561811023621
21
5.9158040551181097
0
LINE
8
BLACK
6
CONTINUOUS
10
-4.4692561811023621
20
5.9158040551181097
11
-4.4643897637795273
21
5.9165748031496062
0
LINE
8
BLACK
6
CONTINUOUS
10
-4.4643897637795273
20
5.9165748031496062
11
-4.4486417322834644
21
5.9165748031496062
0
LINE
8
BLACK
6
CONTINUOUS
10
-4.4486417322834644
20
5.9165748031496062
11
-4.4437753149606296
21
5.9158040551181097
0
LINE
8
BLACK
6
CONTINUOUS
10
-4.7040568503937008
20
5.9386124803149603
11
-4.6997875984251971
21
5.9365253543307084
0
LINE
8
BLACK
6
CONTINUOUS
10
-4.6997875984251971
20
5.9365253543307084
11
-4.6964274015748027
21
5.9331651574803148
0
LINE
8
BLACK
6
CONTINUOUS
10
-4.6964274015748027
20
5.9331651574803148
11
-4.6943402755905508
21
5.9288959055118111
0
LINE
8
BLACK
6
CONTINUOUS
10
-4.6943402755905508
20
5.9288959055118111
11
-4.6937401968503938
21
5.9247768503937008
0
LINE
8
BLACK
6
CONTINUOUS
10
-4.6937401968503938
20
5.9247768503937008
11
-4.693740157480315
21
5.8788451574803151
0
LINE
8
BLACK
6
CONTINUOUS
10
-4.693740157480315
20
5.8788451574803151
11
-4.6943402755905508
21
5.8747261417322836
0
LINE
8
BLACK
6
CONTINUOUS
10
-4.6943402755905508
20
5.8747261417322836
11
-4.6964274015748027
21
5.870456889763779
0
LINE
8
BLACK
6
CONTINUOUS
10
-4.6964274015748027
20
5.870456889763779
11
-4.6997875984251971
21
5.8670966929133854
0
LINE
8
BLACK
6
CONTINUOUS
10
-4.6997875984251971
20
5.8670966929133854
11
-4.7040568503937008
21
5.8650095669291336
0
LINE
8
BLACK
6
CONTINUOUS
10
-4.7040568503937008
20
5.8650095669291336
11
-4.7081759055118111
21
5.8644094881889766
0
LINE
8
BLACK
6
CONTINUOUS
10
-4.7081759055118111
20
5.8644094881889766
11
-4.744265078740157
21
5.8644094488188978
0
LINE
8
BLACK
6
CONTINUOUS
10
-4.744265078740157
20
5.8644094488188978
11
-4.7483840944881885
21
5.8650095669291336
0
LINE
8
BLACK
6
CONTINUOUS
10
-4.7483840944881885
20
5.8650095669291336
11
-4.7526533464566931
21
5.8670966929133854
0
LINE
8
BLACK
6
CONTINUOUS
10
-4.7526533464566931
20
5.8670966929133854
11
-4.7560135433070867
21
5.870456889763779
0
LINE
8
BLACK
6
CONTINUOUS
10
-4.7560135433070867
20
5.870456889763779
11
-4.7581006692913386
21
5.8747261417322836
0
LINE
8
BLACK
6
CONTINUOUS
10
-4.7581006692913386
20
5.8747261417322836
11
-4.7587007480314956
21
5.8788451968503939
0
LINE
8
BLACK
6
CONTINUOUS
10
-4.7587007480314956
20
5.8788451968503939
11
-4.7587007874015743
21
5.9247768897637796
0
LINE
8
BLACK
6
CONTINUOUS
10
-4.7587007874015743
20
5.9247768897637796
11
-4.7581006692913386
21
5.9288959055118111
0
LINE
8
BLACK
6
CONTINUOUS
10
-4.7581006692913386
20
5.9288959055118111
11
-4.7560135433070867
21
5.9331651574803148
0
LINE
8
BLACK
6
CONTINUOUS
10
-4.7560135433070867
20
5.9331651574803148
11
-4.7526533464566931
21
5.9365253543307084
0
LINE
8
BLACK
6
CONTINUOUS
10
-4.7526533464566931
20
5.9365253543307084
11
-4.7483840944881885
21
5.9386124803149603
0
LINE
8
BLACK
6
CONTINUOUS
10
-4.7483840944881885
20
5.9386124803149603
11
-4.7442650393700783
21
5.9392125590551181
0
LINE
8
BLACK
6
CONTINUOUS
10
-4.7442650393700783
20
5.9392125590551181
11
-4.7081758661417323
21
5.9392125984251969
0
LINE
8
BLACK
6
CONTINUOUS
10
-4.7081758661417323
20
5.9392125984251969
11
-4.7040568503937008
21
5.9386124803149603
0
LINE
8
BLACK
6
CONTINUOUS
10
-4.5623245669291341
20
5.9386124803149603
11
-4.5580553149606295
21
5.9365253543307084
0
LINE
8
BLACK
6
CONTINUOUS
10
-4.5580553149606295
20
5.9365253543307084
11
-4.554695118110236
21
5.9331651574803148
0
LINE
8
BLACK
6
CONTINUOUS
10
-4.554695118110236
20
5.9331651574803148
11
-4.5526079921259841
21
5.9288959055118111
0
LINE
8
BLACK
6
CONTINUOUS
10
-4.5526079921259841
20
5.9288959055118111
11
-4.5520079133858271
21
5.9247768503937008
0
LINE
8
BLACK
6
CONTINUOUS
10
-4.5520079133858271
20
5.9247768503937008
11
-4.5520078740157484
21
5.8788451574803151
0
LINE
8
BLACK
6
CONTINUOUS
10
-4.5520078740157484
20
5.8788451574803151
11
-4.5526079921259841
21
5.8747261417322836
0
LINE
8
BLACK
6
CONTINUOUS
10
-4.5526079921259841
20
5.8747261417322836
11
-4.554695118110236
21
5.870456889763779
0
LINE
8
BLACK
6
CONTINUOUS
10
-4.554695118110236
20
5.870456889763779
11
-4.5580553149606295
21
5.8670966929133854
0
LINE
8
BLACK
6
CONTINUOUS
10
-4.5580553149606295
20
5.8670966929133854
11
-4.5623245669291341
21
5.8650095669291336
0
LINE
8
BLACK
6
CONTINUOUS
10
-4.5623245669291341
20
5.8650095669291336
11
-4.5664436220472444
21
5.8644094881889766
0
LINE
8
BLACK
6
CONTINUOUS
10
-4.5664436220472444
20
5.8644094881889766
11
-4.6025327952755903
21
5.8644094488188978
0
LINE
8
BLACK
6
CONTINUOUS
10
-4.6025327952755903
20
5.8644094488188978
11
-4.6066518110236219
21
5.8650095669291336
0
LINE
8
BLACK
6
CONTINUOUS
10
-4.6066518110236219
20
5.8650095669291336
11
-4.6109210629921256
21
5.8670966929133854
0
LINE
8
BLACK
6
CONTINUOUS
10
-4.6109210629921256
20
5.8670966929133854
11
-4.61428125984252
21
5.870456889763779
0
LINE
8
BLACK
6
CONTINUOUS
10
-4.61428125984252
20
5.870456889763779
11
-4.6163683858267719
21
5.8747261417322836
0
LINE
8
BLACK
6
CONTINUOUS
10
-4.6163683858267719
20
5.8747261417322836
11
-4.6169684645669289
21
5.8788451968503939
0
LINE
8
BLACK
6
CONTINUOUS
10
-4.6169684645669289
20
5.8788451968503939
11
-4.6169685039370076
21
5.9247768897637796
0
LINE
8
BLACK
6
CONTINUOUS
10
-4.6169685039370076
20
5.9247768897637796
11
-4.6163683858267719
21
5.9288959055118111
0
LINE
8
BLACK
6
CONTINUOUS
10
-4.6163683858267719
20
5.9288959055118111
11
-4.61428125984252
21
5.9331651574803148
0
LINE
8
BLACK
6
CONTINUOUS
10
-4.61428125984252
20
5.9331651574803148
11
-4.6109210629921256
21
5.9365253543307084
0
LINE
8
BLACK
6
CONTINUOUS
10
-4.6109210629921256
20
5.9365253543307084
11
-4.6066518110236219
21
5.9386124803149603
0
LINE
8
BLACK
6
CONTINUOUS
10
-4.6066518110236219
20
5.9386124803149603
11
-4.6025327559055116
21
5.9392125590551181
0
LINE
8
BLACK
6
CONTINUOUS
10
-4.6025327559055116
20
5.9392125590551181
11
-4.5664435826771657
21
5.9392125984251969
0
LINE
8
BLACK
6
CONTINUOUS
10
-4.5664435826771657
20
5.9392125984251969
11
-4.5623245669291341
21
5.9386124803149603
0
LINE
8
BLACK
6
CONTINUOUS
10
-4.3743068110236223
20
5.9393276771653545
11
-4.3699167716535436
21
5.9370908267716533
0
LINE
8
BLACK
6
CONTINUOUS
10
-4.3699167716535436
20
5.9370908267716533
11
-4.3664327952755908
21
5.9336068503937005
0
LINE
8
BLACK
6
CONTINUOUS
10
-4.3664327952755908
20
5.9336068503937005
11
-4.3641959448818897
21
5.9292168110236219
0
LINE
8
BLACK
6
CONTINUOUS
10
-4.3641959448818897
20
5.9292168110236219
11
-4.3634251968503932
21
5.9243503937007871
0
LINE
8
BLACK
6
CONTINUOUS
10
-4.3634251968503932
20
5.9243503937007871
11
-4.3634251968503932
21
5.9086023622047241
0
LINE
8
BLACK
6
CONTINUOUS
10
-4.3634251968503932
20
5.9086023622047241
11
-4.3641959448818897
21
5.9037359448818894
0
LINE
8
BLACK
6
CONTINUOUS
10
-4.3641959448818897
20
5.9037359448818894
11
-4.3664327952755908
21
5.8993459055118107
0
LINE
8
BLACK
6
CONTINUOUS
10
-4.3664327952755908
20
5.8993459055118107
11
-4.3699167716535436
21
5.8958619291338579
0
LINE
8
BLACK
6
CONTINUOUS
10
-4.3699167716535436
20
5.8958619291338579
11
-4.3743068110236223
21
5.8936250787401576
0
LINE
8
BLACK
6
CONTINUOUS
10
-4.3743068110236223
20
5.8936250787401576
11
-4.3791732283464562
21
5.8928543307086612
0
LINE
8
BLACK
6
CONTINUOUS
10
-4.3791732283464562
20
5.8928543307086612
11
-4.4008267716535432
21
5.8928543307086612
0
LINE
8
BLACK
6
CONTINUOUS
10
-4.4008267716535432
20
5.8928543307086612
11
-4.405693188976378
21
5.8936250787401576
0
LINE
8
BLACK
6
CONTINUOUS
10
-4.405693188976378
20
5.8936250787401576
11
-4.4100832283464566
21
5.8958619291338579
0
LINE
8
BLACK
6
CONTINUOUS
10
-4.4100832283464566
20
5.8958619291338579
11
-4.4135672047244094
21
5.8993459055118107
0
LINE
8
BLACK
6
CONTINUOUS
10
-4.4135672047244094
20
5.8993459055118107
11
-4.4158040551181097
21
5.9037359448818894
0
LINE
8
BLACK
6
CONTINUOUS
10
-4.4158040551181097
20
5.9037359448818894
11
-4.4165748031496062
21
5.9086023622047241
0
LINE
8
BLACK
6
CONTINUOUS
10
-4.4165748031496062
20
5.9086023622047241
11
-4.4165748031496062
21
5.9243503937007871
0
LINE
8
BLACK
6
CONTINUOUS
10
-4.4165748031496062
20
5.9243503937007871
11
-4.4158040551181097
21
5.9292168110236219
0
LINE
8
BLACK
6
CONTINUOUS
10
-4.4158040551181097
20
5.9292168110236219
11
-4.4135672047244094
21
5.9336068503937005
0
LINE
8
BLACK
6
CONTINUOUS
10
-4.4135672047244094
20
5.9336068503937005
11
-4.4100832283464566
21
5.9370908267716533
0
LINE
8
BLACK
6
CONTINUOUS
10
-4.4100832283464566
20
5.9370908267716533
11
-4.405693188976378
21
5.9393276771653545
0
LINE
8
BLACK
6
CONTINUOUS
10
-4.405693188976378
20
5.9393276771653545
11
-4.4008267716535432
21
5.9400984251968501
0
LINE
8
BLACK
6
CONTINUOUS
10
-4.4008267716535432
20
5.9400984251968501
11
-4.3791732283464562
21
5.9400984251968501
0
LINE
8
BLACK
6
CONTINUOUS
10
-4.3791732283464562
20
5.9400984251968501
11
-4.3743068110236223
21
5.9393276771653545
0
LINE
8
BLACK
6
CONTINUOUS
10
-4.2943068110236222
20
5.9393276771653545
11
-4.2899167716535436
21
5.9370908267716533
0
LINE
8
BLACK
6
CONTINUOUS
10
-4.2899167716535436
20
5.9370908267716533
11
-4.2864327952755907
21
5.9336068503937005
0
LINE
8
BLACK
6
CONTINUOUS
10
-4.2864327952755907
20
5.9336068503937005
11
-4.2841959448818896
21
5.9292168110236219
0
LINE
8
BLACK
6
CONTINUOUS
10
-4.2841959448818896
20
5.9292168110236219
11
-4.283425196850394
21
5.9243503937007871
0
LINE
8
BLACK
6
CONTINUOUS
10
-4.283425196850394
20
5.9243503937007871
11
-4.283425196850394
21
5.9086023622047241
0
LINE
8
BLACK
6
CONTINUOUS
10
-4.283425196850394
20
5.9086023622047241
11
-4.2841959448818896
21
5.9037359448818894
0
LINE
8
BLACK
6
CONTINUOUS
10
-4.2841959448818896
20
5.9037359448818894
11
-4.2864327952755907
21
5.8993459055118107
0
LINE
8
BLACK
6
CONTINUOUS
10
-4.2864327952755907
20
5.8993459055118107
11
-4.2899167716535436
21
5.8958619291338579
0
LINE
8
BLACK
6
CONTINUOUS
10
-4.2899167716535436
20
5.8958619291338579
11
-4.2943068110236222
21
5.8936250787401576
0
LINE
8
BLACK
6
CONTINUOUS
10
-4.2943068110236222
20
5.8936250787401576
11
-4.299173228346457
21
5.8928543307086612
0
LINE
8
BLACK
6
CONTINUOUS
10
-4.299173228346457
20
5.8928543307086612
11
-4.3208267716535431
21
5.8928543307086612
0
LINE
8
BLACK
6
CONTINUOUS
10
-4.3208267716535431
20
5.8928543307086612
11
-4.3256931889763779
21
5.8936250787401576
0
LINE
8
BLACK
6
CONTINUOUS
10
-4.3256931889763779
20
5.8936250787401576
11
-4.3300832283464565
21
5.8958619291338579
0
LINE
8
BLACK
6
CONTINUOUS
10
-4.3300832283464565
20
5.8958619291338579
11
-4.3335672047244094
21
5.8993459055118107
0
LINE
8
BLACK
6
CONTINUOUS
10
-4.3335672047244094
20
5.8993459055118107
11
-4.3358040551181105
21
5.9037359448818894
0
LINE
8
BLACK
6
CONTINUOUS
10
-4.3358040551181105
20
5.9037359448818894
11
-4.3365748031496061
21
5.9086023622047241
0
LINE
8
BLACK
6
CONTINUOUS
10
-4.3365748031496061
20
5.9086023622047241
11
-4.3365748031496061
21
5.9243503937007871
0
LINE
8
BLACK
6
CONTINUOUS
10
-4.3365748031496061
20
5.9243503937007871
11
-4.3358040551181105
21
5.9292168110236219
0
LINE
8
BLACK
6
CONTINUOUS
10
-4.3358040551181105
20
5.9292168110236219
11
-4.3335672047244094
21
5.9336068503937005
0
LINE
8
BLACK
6
CONTINUOUS
10
-4.3335672047244094
20
5.9336068503937005
11
-4.3300832283464565
21
5.9370908267716533
0
LINE
8
BLACK
6
CONTINUOUS
10
-4.3300832283464565
20
5.9370908267716533
11
-4.3256931889763779
21
5.9393276771653545
0
LINE
8
BLACK
6
CONTINUOUS
10
-4.3256931889763779
20
5.9393276771653545
11
-4.3208267716535431
21
5.9400984251968501
0
LINE
8
BLACK
6
CONTINUOUS
10
-4.3208267716535431
20
5.9400984251968501
11
-4.299173228346457
21
5.9400984251968501
0
LINE
8
BLACK
6
CONTINUOUS
10
-4.299173228346457
20
5.9400984251968501
11
-4.2943068110236222
21
5.9393276771653545
0
LINE
8
BLACK
6
CONTINUOUS
10
-4.8770776377952751
20
6.0377992125984248
11
-4.8678526377952753
21
6.0346322834645667
0
LINE
8
BLACK
6
CONTINUOUS
10
-4.8678526377952753
20
6.0346322834645667
11
-4.859274724409449
21
6.0299901574803147
0
LINE
8
BLACK
6
CONTINUOUS
10
-4.859274724409449
20
6.0299901574803147
11
-4.8515778740157476
21
6.0239994488188975
0
LINE
8
BLACK
6
CONTINUOUS
10
-4.8515778740157476
20
6.0239994488188975
11
-4.8449720078740155
21
6.0168235826771657
0
LINE
8
BLACK
6
CONTINUOUS
10
-4.8449720078740155
20
6.0168235826771657
11
-4.8396373622047246
21
6.0086583070866144
0
LINE
8
BLACK
6
CONTINUOUS
10
-4.8396373622047246
20
6.0086583070866144
11
-4.8357194488188977
21
5.9997263385826773
0
LINE
8
BLACK
6
CONTINUOUS
10
-4.8357194488188977
20
5.9997263385826773
11
-4.8333251181102357
21
5.9902713385826774
0
LINE
8
BLACK
6
CONTINUOUS
10
-4.8333251181102357
20
5.9902713385826774
11
-4.8325196850393697
21
5.9805511811023617
0
LINE
8
BLACK
6
CONTINUOUS
10
-4.8325196850393697
20
5.9805511811023617
11
-4.8333251181102357
21
5.970831023622047
0
LINE
8
BLACK
6
CONTINUOUS
10
-4.8333251181102357
20
5.970831023622047
11
-4.8357194488188977
21
5.961376023622047
0
LINE
8
BLACK
6
CONTINUOUS
10
-4.8357194488188977
20
5.961376023622047
11
-4.8396373622047246
21
5.9524440551181099
0
LINE
8
BLACK
6
CONTINUOUS
10
-4.8396373622047246
20
5.9524440551181099
11
-4.8449720078740155
21
5.9442787795275587
0
LINE
8
BLACK
6
CONTINUOUS
10
-4.8449720078740155
20
5.9442787795275587
11
-4.8515778740157476
21
5.9371029133858269
0
LINE
8
BLACK
6
CONTINUOUS
10
-4.8515778740157476
20
5.9371029133858269
11
-4.859274724409449
21
5.9311122047244096
0
LINE
8
BLACK
6
CONTINUOUS
10
-4.859274724409449
20
5.9311122047244096
11
-4.8678526377952753
21
5.9264700787401576
0
LINE
8
BLACK
6
CONTINUOUS
10
-4.8678526377952753
20
5.9264700787401576
11
-4.8770776377952751
21
5.9233031496062987
0
LINE
8
BLACK
6
CONTINUOUS
10
-4.8770776377952751
20
5.9233031496062987
11
-4.8866980708661414
21
5.9216977559055115
0
LINE
8
BLACK
6
CONTINUOUS
10
-4.8866980708661414
20
5.9216977559055115
11
-4.8964515354330711
21
5.9216977559055115
0
LINE
8
BLACK
6
CONTINUOUS
10
-4.8964515354330711
20
5.9216977559055115
11
-4.9060719685039365
21
5.9233031496062987
0
LINE
8
BLACK
6
CONTINUOUS
10
-4.9060719685039365
20
5.9233031496062987
11
-4.9152969685039372
21
5.9264700787401576
0
LINE
8
BLACK
6
CONTINUOUS
10
-4.9152969685039372
20
5.9264700787401576
11
-4.9238748818897635
21
5.9311122047244096
0
LINE
8
BLACK
6
CONTINUOUS
10
-4.9238748818897635
20
5.9311122047244096
11
-4.931571732283464
21
5.9371029133858269
0
LINE
8
BLACK
6
CONTINUOUS
10
-4.931571732283464
20
5.9371029133858269
11
-4.938177598425197
21
5.9442787795275587
0
LINE
8
BLACK
6
CONTINUOUS
10
-4.938177598425197
20
5.9442787795275587
11
-4.9435122440944879
21
5.9524440551181099
0
LINE
8
BLACK
6
CONTINUOUS
10
-4.9435122440944879
20
5.9524440551181099
11
-4.9474301574803148
21
5.961376023622047
0
LINE
8
BLACK
6
CONTINUOUS
10
-4.9474301574803148
20
5.961376023622047
11
-4.9498244881889759
21
5.970831023622047
0
LINE
8
BLACK
6
CONTINUOUS
10
-4.9498244881889759
20
5.970831023622047
11
-4.9506299212598428
21
5.9805511811023617
0
LINE
8
BLACK
6
CONTINUOUS
10
-4.9506299212598428
20
5.9805511811023617
11
-4.9498244881889759
21
5.9902713385826774
0
LINE
8
BLACK
6
CONTINUOUS
10
-4.9498244881889759
20
5.9902713385826774
11
-4.9474301574803148
21
5.9997263385826773
0
LINE
8
BLACK
6
CONTINUOUS
10
-4.9474301574803148
20
5.9997263385826773
11
-4.9435122440944879
21
6.0086583070866144
0
LINE
8
BLACK
6
CONTINUOUS
10
-4.9435122440944879
20
6.0086583070866144
11
-4.938177598425197
21
6.0168235826771657
0
LINE
8
BLACK
6
CONTINUOUS
10
-4.938177598425197
20
6.0168235826771657
11
-4.931571732283464
21
6.0239994488188975
0
LINE
8
BLACK
6
CONTINUOUS
10
-4.931571732283464
20
6.0239994488188975
11
-4.9238748818897635
21
6.0299901574803147
0
LINE
8
BLACK
6
CONTINUOUS
10
-4.9238748818897635
20
6.0299901574803147
11
-4.9152969685039372
21
6.0346322834645667
0
LINE
8
BLACK
6
CONTINUOUS
10
-4.9152969685039372
20
6.0346322834645667
11
-4.9060719685039365
21
6.0377992125984248
0
LINE
8
BLACK
6
CONTINUOUS
10
-4.9060719685039365
20
6.0377992125984248
11
-4.8964515354330711
21
6.0394046062992128
0
LINE
8
BLACK
6
CONTINUOUS
10
-4.8964515354330711
20
6.0394046062992128
11
-4.8866980708661414
21
6.0394046062992128
0
LINE
8
BLACK
6
CONTINUOUS
10
-4.8866980708661414
20
6.0394046062992128
11
-4.8770776377952751
21
6.0377992125984248
0
LINE
8
BLACK
6
CONTINUOUS
10
-4.483376850393701
20
6.0377992125984248
11
-4.4741518503937003
21
6.0346322834645667
0
LINE
8
BLACK
6
CONTINUOUS
10
-4.4741518503937003
20
6.0346322834645667
11
-4.465573937007874
21
6.0299901574803147
0
LINE
8
BLACK
6
CONTINUOUS
10
-4.465573937007874
20
6.0299901574803147
11
-4.4578770866141735
21
6.0239994488188975
0
LINE
8
BLACK
6
CONTINUOUS
10
-4.4578770866141735
20
6.0239994488188975
11
-4.4512712204724405
21
6.0168235826771657
0
LINE
8
BLACK
6
CONTINUOUS
10
-4.4512712204724405
20
6.0168235826771657
11
-4.4459365748031496
21
6.0086583070866144
0
LINE
8
BLACK
6
CONTINUOUS
10
-4.4459365748031496
20
6.0086583070866144
11
-4.4420186614173227
21
5.9997263385826773
0
LINE
8
BLACK
6
CONTINUOUS
10
-4.4420186614173227
20
5.9997263385826773
11
-4.4396243307086616
21
5.9902713385826774
0
LINE
8
BLACK
6
CONTINUOUS
10
-4.4396243307086616
20
5.9902713385826774
11
-4.4388188976377956
21
5.9805511811023617
0
LINE
8
BLACK
6
CONTINUOUS
10
-4.4388188976377956
20
5.9805511811023617
11
-4.4396243307086616
21
5.970831023622047
0
LINE
8
BLACK
6
CONTINUOUS
10
-4.4396243307086616
20
5.970831023622047
11
-4.4420186614173227
21
5.961376023622047
0
LINE
8
BLACK
6
CONTINUOUS
10
-4.4420186614173227
20
5.961376023622047
11
-4.4459365748031496
21
5.9524440551181099
0
LINE
8
BLACK
6
CONTINUOUS
10
-4.4459365748031496
20
5.9524440551181099
11
-4.4512712204724405
21
5.9442787795275587
0
LINE
8
BLACK
6
CONTINUOUS
10
-4.4512712204724405
20
5.9442787795275587
11
-4.4578770866141735
21
5.9371029133858269
0
LINE
8
BLACK
6
CONTINUOUS
10
-4.4578770866141735
20
5.9371029133858269
11
-4.465573937007874
21
5.9311122047244096
0
LINE
8
BLACK
6
CONTINUOUS
10
-4.465573937007874
20
5.9311122047244096
11
-4.4741518503937003
21
5.9264700787401576
0
LINE
8
BLACK
6
CONTINUOUS
10
-4.4741518503937003
20
5.9264700787401576
11
-4.483376850393701
21
5.9233031496062987
0
LINE
8
BLACK
6
CONTINUOUS
10
-4.483376850393701
20
5.9233031496062987
11
-4.4929972834645664
21
5.9216977559055115
0
LINE
8
BLACK
6
CONTINUOUS
10
-4.4929972834645664
20
5.9216977559055115
11
-4.5027507480314961
21
5.9216977559055115
0
LINE
8
BLACK
6
CONTINUOUS
10
-4.5027507480314961
20
5.9216977559055115
11
-4.5123711811023623
21
5.9233031496062987
0
LINE
8
BLACK
6
CONTINUOUS
10
-4.5123711811023623
20
5.9233031496062987
11
-4.5215961811023622
21
5.9264700787401576
0
LINE
8
BLACK
6
CONTINUOUS
10
-4.5215961811023622
20
5.9264700787401576
11
-4.5301740944881885
21
5.9311122047244096
0
LINE
8
BLACK
6
CONTINUOUS
10
-4.5301740944881885
20
5.9311122047244096
11
-4.5378709448818899
21
5.9371029133858269
0
LINE
8
BLACK
6
CONTINUOUS
10
-4.5378709448818899
20
5.9371029133858269
11
-4.544476811023622
21
5.9442787795275587
0
LINE
8
BLACK
6
CONTINUOUS
10
-4.544476811023622
20
5.9442787795275587
11
-4.5498114566929129
21
5.9524440551181099
0
LINE
8
BLACK
6
CONTINUOUS
10
-4.5498114566929129
20
5.9524440551181099
11
-4.5537293700787398
21
5.961376023622047
0
LINE
8
BLACK
6
CONTINUOUS
10
-4.5537293700787398
20
5.961376023622047
11
-4.5561237007874018
21
5.970831023622047
0
LINE
8
BLACK
6
CONTINUOUS
10
-4.5561237007874018
20
5.970831023622047
11
-4.5569291338582678
21
5.9805511811023617
0
LINE
8
BLACK
6
CONTINUOUS
10
-4.5569291338582678
20
5.9805511811023617
11
-4.5561237007874018
21
5.9902713385826774
0
LINE
8
BLACK
6
CONTINUOUS
10
-4.5561237007874018
20
5.9902713385826774
11
-4.5537293700787398
21
5.9997263385826773
0
LINE
8
BLACK
6
CONTINUOUS
10
-4.5537293700787398
20
5.9997263385826773
11
-4.5498114566929129
21
6.0086583070866144
0
LINE
8
BLACK
6
CONTINUOUS
10
-4.5498114566929129
20
6.0086583070866144
11
-4.544476811023622
21
6.0168235826771657
0
LINE
8
BLACK
6
CONTINUOUS
10
-4.544476811023622
20
6.0168235826771657
11
-4.5378709448818899
21
6.0239994488188975
0
LINE
8
BLACK
6
CONTINUOUS
10
-4.5378709448818899
20
6.0239994488188975
11
-4.5301740944881885
21
6.0299901574803147
0
LINE
8
BLACK
6
CONTINUOUS
10
-4.5301740944881885
20
6.0299901574803147
11
-4.5215961811023622
21
6.0346322834645667
0
LINE
8
BLACK
6
CONTINUOUS
10
-4.5215961811023622
20
6.0346322834645667
11
-4.5123711811023623
21
6.0377992125984248
0
LINE
8
BLACK
6
CONTINUOUS
10
-4.5123711811023623
20
6.0377992125984248
11
-4.5027507480314961
21
6.0394046062992128
0
LINE
8
BLACK
6
CONTINUOUS
10
-4.5027507480314961
20
6.0394046062992128
11
-4.4929972834645664
21
6.0394046062992128
0
LINE
8
BLACK
6
CONTINUOUS
10
-4.4929972834645664
20
6.0394046062992128
11
-4.483376850393701
21
6.0377992125984248
0
LINE
8
BLACK
6
CONTINUOUS
10
-4.089676062992126
20
6.0377992125984248
11
-4.0804510629921262
21
6.0346322834645667
0
LINE
8
BLACK
6
CONTINUOUS
10
-4.0804510629921262
20
6.0346322834645667
11
-4.071873149606299
21
6.0299901574803147
0
LINE
8
BLACK
6
CONTINUOUS
10
-4.071873149606299
20
6.0299901574803147
11
-4.0641762992125985
21
6.0239994488188975
0
LINE
8
BLACK
6
CONTINUOUS
10
-4.0641762992125985
20
6.0239994488188975
11
-4.0575704330708664
21
6.0168235826771657
0
LINE
8
BLACK
6
CONTINUOUS
10
-4.0575704330708664
20
6.0168235826771657
11
-4.0522357874015746
21
6.0086583070866144
0
LINE
8
BLACK
6
CONTINUOUS
10
-4.0522357874015746
20
6.0086583070866144
11
-4.0483178740157477
21
5.9997263385826773
0
LINE
8
BLACK
6
CONTINUOUS
10
-4.0483178740157477
20
5.9997263385826773
11
-4.0459235433070866
21
5.9902713385826774
0
LINE
8
BLACK
6
CONTINUOUS
10
-4.0459235433070866
20
5.9902713385826774
11
-4.0451181102362206
21
5.9805511811023617
0
LINE
8
BLACK
6
CONTINUOUS
10
-4.0451181102362206
20
5.9805511811023617
11
-4.0459235433070866
21
5.970831023622047
0
LINE
8
BLACK
6
CONTINUOUS
10
-4.0459235433070866
20
5.970831023622047
11
-4.0483178740157477
21
5.961376023622047
0
LINE
8
BLACK
6
CONTINUOUS
10
-4.0483178740157477
20
5.961376023622047
11
-4.0522357874015746
21
5.9524440551181099
0
LINE
8
BLACK
6
CONTINUOUS
10
-4.0522357874015746
20
5.9524440551181099
11
-4.0575704330708664
21
5.9442787795275587
0
LINE
8
BLACK
6
CONTINUOUS
10
-4.0575704330708664
20
5.9442787795275587
11
-4.0641762992125985
21
5.9371029133858269
0
LINE
8
BLACK
6
CONTINUOUS
10
-4.0641762992125985
20
5.9371029133858269
11
-4.071873149606299
21
5.9311122047244096
0
LINE
8
BLACK
6
CONTINUOUS
10
-4.071873149606299
20
5.9311122047244096
11
-4.0804510629921262
21
5.9264700787401576
0
LINE
8
BLACK
6
CONTINUOUS
10
-4.0804510629921262
20
5.9264700787401576
11
-4.089676062992126
21
5.9233031496062987
0
LINE
8
BLACK
6
CONTINUOUS
10
-4.089676062992126
20
5.9233031496062987
11
-4.0992964960629923
21
5.9216977559055115
0
LINE
8
BLACK
6
CONTINUOUS
10
-4.0992964960629923
20
5.9216977559055115
11
-4.1090499606299211
21
5.9216977559055115
0
LINE
8
BLACK
6
CONTINUOUS
10
-4.1090499606299211
20
5.9216977559055115
11
-4.1186703937007874
21
5.9233031496062987
0
LINE
8
BLACK
6
CONTINUOUS
10
-4.1186703937007874
20
5.9233031496062987
11
-4.1278953937007872
21
5.9264700787401576
0
LINE
8
BLACK
6
CONTINUOUS
10
-4.1278953937007872
20
5.9264700787401576
11
-4.1364733070866144
21
5.9311122047244096
0
LINE
8
BLACK
6
CONTINUOUS
10
-4.1364733070866144
20
5.9311122047244096
11
-4.1441701574803149
21
5.9371029133858269
0
LINE
8
BLACK
6
CONTINUOUS
10
-4.1441701574803149
20
5.9371029133858269
11
-4.150776023622047
21
5.9442787795275587
0
LINE
8
BLACK
6
CONTINUOUS
10
-4.150776023622047
20
5.9442787795275587
11
-4.1561106692913388
21
5.9524440551181099
0
LINE
8
BLACK
6
CONTINUOUS
10
-4.1561106692913388
20
5.9524440551181099
11
-4.1600285826771657
21
5.961376023622047
0
LINE
8
BLACK
6
CONTINUOUS
10
-4.1600285826771657
20
5.961376023622047
11
-4.1624229133858268
21
5.970831023622047
0
LINE
8
BLACK
6
CONTINUOUS
10
-4.1624229133858268
20
5.970831023622047
11
-4.1632283464566928
21
5.9805511811023617
0
LINE
8
BLACK
6
CONTINUOUS
10
-4.1632283464566928
20
5.9805511811023617
11
-4.1624229133858268
21
5.9902713385826774
0
LINE
8
BLACK
6
CONTINUOUS
10
-4.1624229133858268
20
5.9902713385826774
11
-4.1600285826771657
21
5.9997263385826773
0
LINE
8
BLACK
6
CONTINUOUS
10
-4.1600285826771657
20
5.9997263385826773
11
-4.1561106692913388
21
6.0086583070866144
0
LINE
8
BLACK
6
CONTINUOUS
10
-4.1561106692913388
20
6.0086583070866144
11
-4.150776023622047
21
6.0168235826771657
0
LINE
8
BLACK
6
CONTINUOUS
10
-4.150776023622047
20
6.0168235826771657
11
-4.1441701574803149
21
6.0239994488188975
0
LINE
8
BLACK
6
CONTINUOUS
10
-4.1441701574803149
20
6.0239994488188975
11
-4.1364733070866144
21
6.0299901574803147
0
LINE
8
BLACK
6
CONTINUOUS
10
-4.1364733070866144
20
6.0299901574803147
11
-4.1278953937007872
21
6.0346322834645667
0
LINE
8
BLACK
6
CONTINUOUS
10
-4.1278953937007872
20
6.0346322834645667
11
-4.1186703937007874
21
6.0377992125984248
0
LINE
8
BLACK
6
CONTINUOUS
10
-4.1186703937007874
20
6.0377992125984248
11
-4.1090499606299211
21
6.0394046062992128
0
LINE
8
BLACK
6
CONTINUOUS
10
-4.1090499606299211
20
6.0394046062992128
11
-4.0992964960629923
21
6.0394046062992128
0
LINE
8
BLACK
6
CONTINUOUS
10
-4.0992964960629923
20
6.0394046062992128
11
-4.089676062992126
21
6.0377992125984248
  0
ENDSEC
  0
EOF
