  0
SECTION
  2
HEADER
  9
$ANGBASE
  50
0.0
  9
$ANGDIR
  70
1
  9
$MEASUREMENT
  70
0
  0
ENDSEC
  0
SECTION
  2
TABLES
  0
TABLE
  2
LTYPE
  70
4
  0
LTYPE
  5
40F
  2
CONTINUOUS
  70
0
  3
Solid line
  72
65
  73
0
  40
0.0
  0
LTYPE
  5
410
  2
DASHDOT
 70
0
  3
Dash Dot ____ _ ____ _
 72
65
 73
4
 40
2.0
 49
1.25
 49
-0.25
 49
0.25
 49
-0.25
  0
LTYPE
  5
411
  2
DASHED
 70
0
  3
Dashed __ __ __ __ __
 72
65
 73
2
 40
0.75
 49
0.5
 49
-0.25
  0
LTYPE
  5
43B
  2
DOTTED
 70
0
  3
Dotted .  .  .  .
 72
65
 73
2
 40
0.2
 49
0.0
 49
-0.2
  0
ENDTAB
  0
TABLE
  2
STYLE
  70
4
  0
STYLE
  2
KICAD
  70
0
  40
0
  41
1
  42
1
  50
0
  71
0
  3
isocp.shx
  0
STYLE
  2
KICADB
  70
0
  40
0
  41
1
  42
1
  50
0
  71
0
  3
isocp.shx
  0
STYLE
  2
KICADI
  70
0
  40
0
  41
1
  42
1
  50
15
  71
0
  3
isocp.shx
  0
STYLE
  2
KICADBI
  70
0
  40
0
  41
1
  42
1
  50
15
  71
0
  3
isocp.shx
  0
ENDTAB
  0
TABLE
  2
LAYER
  70
1
  0
LAYER
  2
BLACK
  70
0
  62
7
  6
CONTINUOUS
  0
ENDTAB
  0
ENDSEC
  0
SECTION
  2
ENTITIES
0
LINE
8
BLACK
6
CONTINUOUS
10
-4.74174
20
5.496
11
-4.71821
21
5.47247
0
LINE
8
BLACK
6
CONTINUOUS
10
-4.71821
20
5.47247
11
-4.71821
21
5.49392
0
LINE
8
BLACK
6
CONTINUOUS
10
-4.71821
20
5.49392
11
-4.71803
21
5.49493
0
LINE
8
BLACK
6
CONTINUOUS
10
-4.71803
20
5.49493
11
-4.71674
21
5.49647
0
LINE
8
BLACK
6
CONTINUOUS
10
-4.71674
20
5.49647
11
-4.71475
21
5.49682
0
LINE
8
BLACK
6
CONTINUOUS
10
-4.71475
20
5.49682
11
-4.713
21
5.49581
0
LINE
8
BLACK
6
CONTINUOUS
10
-4.713
20
5.49581
11
-4.71231
21
5.49392
0
LINE
8
BLACK
6
CONTINUOUS
10
-4.71231
20
5.49392
11
-4.71231
21
5.44392
0
LINE
8
BLACK
6
CONTINUOUS
10
-4.71231
20
5.44392
11
-4.71248
21
5.44291
0
LINE
8
BLACK
6
CONTINUOUS
10
-4.71248
20
5.44291
11
-4.71378
21
5.44136
0
LINE
8
BLACK
6
CONTINUOUS
10
-4.71378
20
5.44136
11
-4.71577
21
5.44101
0
LINE
8
BLACK
6
CONTINUOUS
10
-4.71577
20
5.44101
11
-4.71752
21
5.44202
0
LINE
8
BLACK
6
CONTINUOUS
10
-4.71752
20
5.44202
11
-4.71821
21
5.44392
0
LINE
8
BLACK
6
CONTINUOUS
10
-4.71821
20
5.44392
11
-4.71821
21
5.46412
0
LINE
8
BLACK
6
CONTINUOUS
10
-4.71821
20
5.46412
11
-4.72208
21
5.46799
0
LINE
8
BLACK
6
CONTINUOUS
10
-4.72208
20
5.46799
11
-4.74147
21
5.44214
0
LINE
8
BLACK
6
CONTINUOUS
10
-4.74147
20
5.44214
11
-4.74222
21
5.44144
0
LINE
8
BLACK
6
CONTINUOUS
10
-4.74222
20
5.44144
11
-4.74418
21
5.44098
0
LINE
8
BLACK
6
CONTINUOUS
10
-4.74418
20
5.44098
11
-4.74599
21
5.4419
0
LINE
8
BLACK
6
CONTINUOUS
10
-4.74599
20
5.4419
11
-4.74678
21
5.44376
0
LINE
8
BLACK
6
CONTINUOUS
10
-4.74678
20
5.44376
11
-4.74619
21
5.44569
0
LINE
8
BLACK
6
CONTINUOUS
10
-4.74619
20
5.44569
11
-4.7263
21
5.47221
0
LINE
8
BLACK
6
CONTINUOUS
10
-4.7263
20
5.47221
11
-4.74592
21
5.49183
0
LINE
8
BLACK
6
CONTINUOUS
10
-4.74592
20
5.49183
11
-4.74651
21
5.49267
0
LINE
8
BLACK
6
CONTINUOUS
10
-4.74651
20
5.49267
11
-4.74668
21
5.49468
0
LINE
8
BLACK
6
CONTINUOUS
10
-4.74668
20
5.49468
11
-4.74552
21
5.49634
0
LINE
8
BLACK
6
CONTINUOUS
10
-4.74552
20
5.49634
11
-4.74357
21
5.49686
0
LINE
8
BLACK
6
CONTINUOUS
10
-4.74357
20
5.49686
11
-4.74174
21
5.496
0
LINE
8
BLACK
6
CONTINUOUS
10
-4.55655
20
5.51887
11
-4.55642
21
5.51889
0
LINE
8
BLACK
6
CONTINUOUS
10
-4.55642
20
5.51889
11
-4.5563
21
5.51883
0
LINE
8
BLACK
6
CONTINUOUS
10
-4.5563
20
5.51883
11
-4.55592
21
5.51876
0
LINE
8
BLACK
6
CONTINUOUS
10
-4.55592
20
5.51876
11
-4.55533
21
5.51827
0
LINE
8
BLACK
6
CONTINUOUS
10
-4.55533
20
5.51827
11
-4.55467
21
5.51788
0
LINE
8
BLACK
6
CONTINUOUS
10
-4.55467
20
5.51788
11
-4.55458
21
5.51763
0
LINE
8
BLACK
6
CONTINUOUS
10
-4.55458
20
5.51763
11
-4.55437
21
5.51746
0
LINE
8
BLACK
6
CONTINUOUS
10
-4.55437
20
5.51746
11
-4.55424
21
5.51671
0
LINE
8
BLACK
6
CONTINUOUS
10
-4.55424
20
5.51671
11
-4.55398
21
5.51598
0
LINE
8
BLACK
6
CONTINUOUS
10
-4.55398
20
5.51598
11
-4.55398
21
5.4215
0
LINE
8
BLACK
6
CONTINUOUS
10
-4.55398
20
5.4215
11
-4.55404
21
5.42111
0
LINE
8
BLACK
6
CONTINUOUS
10
-4.55404
20
5.42111
11
-4.55402
21
5.42098
0
LINE
8
BLACK
6
CONTINUOUS
10
-4.55402
20
5.42098
11
-4.55409
21
5.42087
0
LINE
8
BLACK
6
CONTINUOUS
10
-4.55409
20
5.42087
11
-4.55415
21
5.42049
0
LINE
8
BLACK
6
CONTINUOUS
10
-4.55415
20
5.42049
11
-4.55465
21
5.4199
0
LINE
8
BLACK
6
CONTINUOUS
10
-4.55465
20
5.4199
11
-4.55503
21
5.41923
0
LINE
8
BLACK
6
CONTINUOUS
10
-4.55503
20
5.41923
11
-4.55528
21
5.41914
0
LINE
8
BLACK
6
CONTINUOUS
10
-4.55528
20
5.41914
11
-4.55545
21
5.41894
0
LINE
8
BLACK
6
CONTINUOUS
10
-4.55545
20
5.41894
11
-4.55621
21
5.41881
0
LINE
8
BLACK
6
CONTINUOUS
10
-4.55621
20
5.41881
11
-4.55693
21
5.41854
0
LINE
8
BLACK
6
CONTINUOUS
10
-4.55693
20
5.41854
11
-4.75378
21
5.41854
0
LINE
8
BLACK
6
CONTINUOUS
10
-4.75378
20
5.41854
11
-4.75416
21
5.41861
0
LINE
8
BLACK
6
CONTINUOUS
10
-4.75416
20
5.41861
11
-4.75429
21
5.41859
0
LINE
8
BLACK
6
CONTINUOUS
10
-4.75429
20
5.41859
11
-4.75441
21
5.41865
0
LINE
8
BLACK
6
CONTINUOUS
10
-4.75441
20
5.41865
11
-4.75479
21
5.41872
0
LINE
8
BLACK
6
CONTINUOUS
10
-4.75479
20
5.41872
11
-4.75538
21
5.41921
0
LINE
8
BLACK
6
CONTINUOUS
10
-4.75538
20
5.41921
11
-4.75604
21
5.4196
0
LINE
8
BLACK
6
CONTINUOUS
10
-4.75604
20
5.4196
11
-4.75613
21
5.41985
0
LINE
8
BLACK
6
CONTINUOUS
10
-4.75613
20
5.41985
11
-4.75634
21
5.42002
0
LINE
8
BLACK
6
CONTINUOUS
10
-4.75634
20
5.42002
11
-4.75647
21
5.42078
0
LINE
8
BLACK
6
CONTINUOUS
10
-4.75647
20
5.42078
11
-4.75673
21
5.4215
0
LINE
8
BLACK
6
CONTINUOUS
10
-4.75673
20
5.4215
11
-4.75673
21
5.51598
0
LINE
8
BLACK
6
CONTINUOUS
10
-4.75673
20
5.51598
11
-4.75666
21
5.51637
0
LINE
8
BLACK
6
CONTINUOUS
10
-4.75666
20
5.51637
11
-4.75669
21
5.5165
0
LINE
8
BLACK
6
CONTINUOUS
10
-4.75669
20
5.5165
11
-4.75662
21
5.51661
0
LINE
8
BLACK
6
CONTINUOUS
10
-4.75662
20
5.51661
11
-4.75655
21
5.51699
0
LINE
8
BLACK
6
CONTINUOUS
10
-4.75655
20
5.51699
11
-4.75606
21
5.51758
0
LINE
8
BLACK
6
CONTINUOUS
10
-4.75606
20
5.51758
11
-4.75568
21
5.51825
0
LINE
8
BLACK
6
CONTINUOUS
10
-4.75568
20
5.51825
11
-4.75543
21
5.51834
0
LINE
8
BLACK
6
CONTINUOUS
10
-4.75543
20
5.51834
11
-4.75526
21
5.51854
0
LINE
8
BLACK
6
CONTINUOUS
10
-4.75526
20
5.51854
11
-4.7545
21
5.51867
0
LINE
8
BLACK
6
CONTINUOUS
10
-4.7545
20
5.51867
11
-4.75378
21
5.51894
0
LINE
8
BLACK
6
CONTINUOUS
10
-4.75378
20
5.51894
11
-4.55693
21
5.51894
0
LINE
8
BLACK
6
CONTINUOUS
10
-4.55693
20
5.51894
11
-4.55655
21
5.51887
0
LINE
8
BLACK
6
CONTINUOUS
10
-4.75083
20
5.51303
11
-4.75083
21
5.42445
0
LINE
8
BLACK
6
CONTINUOUS
10
-4.75083
20
5.42445
11
-4.55988
21
5.42445
0
LINE
8
BLACK
6
CONTINUOUS
10
-4.55988
20
5.42445
11
-4.55988
21
5.51303
0
LINE
8
BLACK
6
CONTINUOUS
10
-4.55988
20
5.51303
11
-4.75083
21
5.51303
0
LINE
8
BLACK
6
CONTINUOUS
10
-4.382
20
5.48321
11
-4.38166
21
5.48238
0
LINE
8
BLACK
6
CONTINUOUS
10
-4.38166
20
5.48238
11
-4.38166
21
5.47263
0
LINE
8
BLACK
6
CONTINUOUS
10
-4.38166
20
5.47263
11
-4.382
21
5.47179
0
LINE
8
BLACK
6
CONTINUOUS
10
-4.382
20
5.47179
11
-4.38284
21
5.47145
0
LINE
8
BLACK
6
CONTINUOUS
10
-4.38284
20
5.47145
11
-4.38367
21
5.47179
0
LINE
8
BLACK
6
CONTINUOUS
10
-4.38367
20
5.47179
11
-4.38402
21
5.47263
0
LINE
8
BLACK
6
CONTINUOUS
10
-4.38402
20
5.47263
11
-4.38402
21
5.47952
0
LINE
8
BLACK
6
CONTINUOUS
10
-4.38402
20
5.47952
11
-4.391
21
5.47254
0
LINE
8
BLACK
6
CONTINUOUS
10
-4.391
20
5.47254
11
-4.39126
21
5.47244
0
LINE
8
BLACK
6
CONTINUOUS
10
-4.39126
20
5.47244
11
-4.39146
21
5.47226
0
LINE
8
BLACK
6
CONTINUOUS
10
-4.39146
20
5.47226
11
-4.39371
21
5.47151
0
LINE
8
BLACK
6
CONTINUOUS
10
-4.39371
20
5.47151
11
-4.39391
21
5.47152
0
LINE
8
BLACK
6
CONTINUOUS
10
-4.39391
20
5.47152
11
-4.39409
21
5.47145
0
LINE
8
BLACK
6
CONTINUOUS
10
-4.39409
20
5.47145
11
-4.39559
21
5.47145
0
LINE
8
BLACK
6
CONTINUOUS
10
-4.39559
20
5.47145
11
-4.39584
21
5.47155
0
LINE
8
BLACK
6
CONTINUOUS
10
-4.39584
20
5.47155
11
-4.39611
21
5.47157
0
LINE
8
BLACK
6
CONTINUOUS
10
-4.39611
20
5.47157
11
-4.39761
21
5.47232
0
LINE
8
BLACK
6
CONTINUOUS
10
-4.39761
20
5.47232
11
-4.39774
21
5.47247
0
LINE
8
BLACK
6
CONTINUOUS
10
-4.39774
20
5.47247
11
-4.39792
21
5.47254
0
LINE
8
BLACK
6
CONTINUOUS
10
-4.39792
20
5.47254
11
-4.39867
21
5.47329
0
LINE
8
BLACK
6
CONTINUOUS
10
-4.39867
20
5.47329
11
-4.39875
21
5.47347
0
LINE
8
BLACK
6
CONTINUOUS
10
-4.39875
20
5.47347
11
-4.39889
21
5.4736
0
LINE
8
BLACK
6
CONTINUOUS
10
-4.39889
20
5.4736
11
-4.39964
21
5.4751
0
LINE
8
BLACK
6
CONTINUOUS
10
-4.39964
20
5.4751
11
-4.39966
21
5.47537
0
LINE
8
BLACK
6
CONTINUOUS
10
-4.39966
20
5.47537
11
-4.39977
21
5.47563
0
LINE
8
BLACK
6
CONTINUOUS
10
-4.39977
20
5.47563
11
-4.39977
21
5.47938
0
LINE
8
BLACK
6
CONTINUOUS
10
-4.39977
20
5.47938
11
-4.39966
21
5.47963
0
LINE
8
BLACK
6
CONTINUOUS
10
-4.39966
20
5.47963
11
-4.39964
21
5.4799
0
LINE
8
BLACK
6
CONTINUOUS
10
-4.39964
20
5.4799
11
-4.39889
21
5.4814
0
LINE
8
BLACK
6
CONTINUOUS
10
-4.39889
20
5.4814
11
-4.39875
21
5.48153
0
LINE
8
BLACK
6
CONTINUOUS
10
-4.39875
20
5.48153
11
-4.39867
21
5.48171
0
LINE
8
BLACK
6
CONTINUOUS
10
-4.39867
20
5.48171
11
-4.39792
21
5.48246
0
LINE
8
BLACK
6
CONTINUOUS
10
-4.39792
20
5.48246
11
-4.39709
21
5.48281
0
LINE
8
BLACK
6
CONTINUOUS
10
-4.39709
20
5.48281
11
-4.39625
21
5.48246
0
LINE
8
BLACK
6
CONTINUOUS
10
-4.39625
20
5.48246
11
-4.3959
21
5.48163
0
LINE
8
BLACK
6
CONTINUOUS
10
-4.3959
20
5.48163
11
-4.39625
21
5.48079
0
LINE
8
BLACK
6
CONTINUOUS
10
-4.39625
20
5.48079
11
-4.39686
21
5.48018
0
LINE
8
BLACK
6
CONTINUOUS
10
-4.39686
20
5.48018
11
-4.3974
21
5.4791
0
LINE
8
BLACK
6
CONTINUOUS
10
-4.3974
20
5.4791
11
-4.3974
21
5.47591
0
LINE
8
BLACK
6
CONTINUOUS
10
-4.3974
20
5.47591
11
-4.39686
21
5.47483
0
LINE
8
BLACK
6
CONTINUOUS
10
-4.39686
20
5.47483
11
-4.39639
21
5.47435
0
LINE
8
BLACK
6
CONTINUOUS
10
-4.39639
20
5.47435
11
-4.39531
21
5.47381
0
LINE
8
BLACK
6
CONTINUOUS
10
-4.39531
20
5.47381
11
-4.39428
21
5.47381
0
LINE
8
BLACK
6
CONTINUOUS
10
-4.39428
20
5.47381
11
-4.39247
21
5.47441
0
LINE
8
BLACK
6
CONTINUOUS
10
-4.39247
20
5.47441
11
-4.38367
21
5.48321
0
LINE
8
BLACK
6
CONTINUOUS
10
-4.38367
20
5.48321
11
-4.38284
21
5.48356
0
LINE
8
BLACK
6
CONTINUOUS
10
-4.38284
20
5.48356
11
-4.382
21
5.48321
0
LINE
8
BLACK
6
CONTINUOUS
10
-4.382
20
5.49746
11
-4.38166
21
5.49662
0
LINE
8
BLACK
6
CONTINUOUS
10
-4.38166
20
5.49662
11
-4.382
21
5.49579
0
LINE
8
BLACK
6
CONTINUOUS
10
-4.382
20
5.49579
11
-4.38284
21
5.49544
0
LINE
8
BLACK
6
CONTINUOUS
10
-4.38284
20
5.49544
11
-4.38916
21
5.49544
0
LINE
8
BLACK
6
CONTINUOUS
10
-4.38916
20
5.49544
11
-4.38916
21
5.49349
0
LINE
8
BLACK
6
CONTINUOUS
10
-4.38916
20
5.49349
11
-4.38216
21
5.48859
0
LINE
8
BLACK
6
CONTINUOUS
10
-4.38216
20
5.48859
11
-4.38167
21
5.48783
0
LINE
8
BLACK
6
CONTINUOUS
10
-4.38167
20
5.48783
11
-4.38187
21
5.48695
0
LINE
8
BLACK
6
CONTINUOUS
10
-4.38187
20
5.48695
11
-4.38263
21
5.48646
0
LINE
8
BLACK
6
CONTINUOUS
10
-4.38263
20
5.48646
11
-4.38351
21
5.48666
0
LINE
8
BLACK
6
CONTINUOUS
10
-4.38351
20
5.48666
11
-4.38916
21
5.49061
0
LINE
8
BLACK
6
CONTINUOUS
10
-4.38916
20
5.49061
11
-4.38926
21
5.49037
0
LINE
8
BLACK
6
CONTINUOUS
10
-4.38926
20
5.49037
11
-4.38928
21
5.4901
0
LINE
8
BLACK
6
CONTINUOUS
10
-4.38928
20
5.4901
11
-4.39003
21
5.4886
0
LINE
8
BLACK
6
CONTINUOUS
10
-4.39003
20
5.4886
11
-4.39018
21
5.48847
0
LINE
8
BLACK
6
CONTINUOUS
10
-4.39018
20
5.48847
11
-4.39025
21
5.48829
0
LINE
8
BLACK
6
CONTINUOUS
10
-4.39025
20
5.48829
11
-4.391
21
5.48754
0
LINE
8
BLACK
6
CONTINUOUS
10
-4.391
20
5.48754
11
-4.39118
21
5.48747
0
LINE
8
BLACK
6
CONTINUOUS
10
-4.39118
20
5.48747
11
-4.39131
21
5.48732
0
LINE
8
BLACK
6
CONTINUOUS
10
-4.39131
20
5.48732
11
-4.39281
21
5.48657
0
LINE
8
BLACK
6
CONTINUOUS
10
-4.39281
20
5.48657
11
-4.39308
21
5.48655
0
LINE
8
BLACK
6
CONTINUOUS
10
-4.39308
20
5.48655
11
-4.39334
21
5.48644
0
LINE
8
BLACK
6
CONTINUOUS
10
-4.39334
20
5.48644
11
-4.39559
21
5.48644
0
LINE
8
BLACK
6
CONTINUOUS
10
-4.39559
20
5.48644
11
-4.39584
21
5.48655
0
LINE
8
BLACK
6
CONTINUOUS
10
-4.39584
20
5.48655
11
-4.39611
21
5.48657
0
LINE
8
BLACK
6
CONTINUOUS
10
-4.39611
20
5.48657
11
-4.39761
21
5.48732
0
LINE
8
BLACK
6
CONTINUOUS
10
-4.39761
20
5.48732
11
-4.39774
21
5.48746
0
LINE
8
BLACK
6
CONTINUOUS
10
-4.39774
20
5.48746
11
-4.39792
21
5.48754
0
LINE
8
BLACK
6
CONTINUOUS
10
-4.39792
20
5.48754
11
-4.39867
21
5.48829
0
LINE
8
BLACK
6
CONTINUOUS
10
-4.39867
20
5.48829
11
-4.39875
21
5.48847
0
LINE
8
BLACK
6
CONTINUOUS
10
-4.39875
20
5.48847
11
-4.39889
21
5.4886
0
LINE
8
BLACK
6
CONTINUOUS
10
-4.39889
20
5.4886
11
-4.39964
21
5.4901
0
LINE
8
BLACK
6
CONTINUOUS
10
-4.39964
20
5.4901
11
-4.39966
21
5.49037
0
LINE
8
BLACK
6
CONTINUOUS
10
-4.39966
20
5.49037
11
-4.39977
21
5.49062
0
LINE
8
BLACK
6
CONTINUOUS
10
-4.39977
20
5.49062
11
-4.39977
21
5.49662
0
LINE
8
BLACK
6
CONTINUOUS
10
-4.39977
20
5.49662
11
-4.39942
21
5.49746
0
LINE
8
BLACK
6
CONTINUOUS
10
-4.39942
20
5.49746
11
-4.39859
21
5.4978
0
LINE
8
BLACK
6
CONTINUOUS
10
-4.39859
20
5.4978
11
-4.38284
21
5.4978
0
LINE
8
BLACK
6
CONTINUOUS
10
-4.38284
20
5.4978
11
-4.382
21
5.49746
0
LINE
8
BLACK
6
CONTINUOUS
10
-4.3974
20
5.4909
11
-4.39686
21
5.48982
0
LINE
8
BLACK
6
CONTINUOUS
10
-4.39686
20
5.48982
11
-4.39639
21
5.48935
0
LINE
8
BLACK
6
CONTINUOUS
10
-4.39639
20
5.48935
11
-4.39531
21
5.48881
0
LINE
8
BLACK
6
CONTINUOUS
10
-4.39531
20
5.48881
11
-4.39362
21
5.48881
0
LINE
8
BLACK
6
CONTINUOUS
10
-4.39362
20
5.48881
11
-4.39254
21
5.48935
0
LINE
8
BLACK
6
CONTINUOUS
10
-4.39254
20
5.48935
11
-4.39206
21
5.48982
0
LINE
8
BLACK
6
CONTINUOUS
10
-4.39206
20
5.48982
11
-4.39152
21
5.4909
0
LINE
8
BLACK
6
CONTINUOUS
10
-4.39152
20
5.4909
11
-4.39152
21
5.49544
0
LINE
8
BLACK
6
CONTINUOUS
10
-4.39152
20
5.49544
11
-4.3974
21
5.49544
0
LINE
8
BLACK
6
CONTINUOUS
10
-4.3974
20
5.49544
11
-4.3974
21
5.4909
0
LINE
8
BLACK
6
CONTINUOUS
10
-4.37376
20
5.51846
11
-4.37237
21
5.51789
0
LINE
8
BLACK
6
CONTINUOUS
10
-4.37237
20
5.51789
11
-4.37179
21
5.5165
0
LINE
8
BLACK
6
CONTINUOUS
10
-4.37179
20
5.5165
11
-4.37179
21
5.4535
0
LINE
8
BLACK
6
CONTINUOUS
10
-4.37179
20
5.4535
11
-4.37237
21
5.45211
0
LINE
8
BLACK
6
CONTINUOUS
10
-4.37237
20
5.45211
11
-4.37376
21
5.45154
0
LINE
8
BLACK
6
CONTINUOUS
10
-4.37376
20
5.45154
11
-4.40624
21
5.45154
0
LINE
8
BLACK
6
CONTINUOUS
10
-4.40624
20
5.45154
11
-4.40763
21
5.45211
0
LINE
8
BLACK
6
CONTINUOUS
10
-4.40763
20
5.45211
11
-4.40821
21
5.4535
0
LINE
8
BLACK
6
CONTINUOUS
10
-4.40821
20
5.4535
11
-4.40821
21
5.5165
0
LINE
8
BLACK
6
CONTINUOUS
10
-4.40821
20
5.5165
11
-4.40763
21
5.51789
0
LINE
8
BLACK
6
CONTINUOUS
10
-4.40763
20
5.51789
11
-4.40624
21
5.51846
0
LINE
8
BLACK
6
CONTINUOUS
10
-4.40624
20
5.51846
11
-4.37376
21
5.51846
0
LINE
8
BLACK
6
CONTINUOUS
10
-4.40427
20
5.51453
11
-4.40427
21
5.45547
0
LINE
8
BLACK
6
CONTINUOUS
10
-4.40427
20
5.45547
11
-4.37573
21
5.45547
0
LINE
8
BLACK
6
CONTINUOUS
10
-4.37573
20
5.45547
11
-4.37573
21
5.51453
0
LINE
8
BLACK
6
CONTINUOUS
10
-4.37573
20
5.51453
11
-4.40427
21
5.51453
0
LINE
8
BLACK
6
CONTINUOUS
10
-4.3035
20
5.48246
11
-4.30275
21
5.48171
0
LINE
8
BLACK
6
CONTINUOUS
10
-4.30275
20
5.48171
11
-4.30268
21
5.48153
0
LINE
8
BLACK
6
CONTINUOUS
10
-4.30268
20
5.48153
11
-4.30253
21
5.4814
0
LINE
8
BLACK
6
CONTINUOUS
10
-4.30253
20
5.4814
11
-4.30178
21
5.4799
0
LINE
8
BLACK
6
CONTINUOUS
10
-4.30178
20
5.4799
11
-4.30176
21
5.47963
0
LINE
8
BLACK
6
CONTINUOUS
10
-4.30176
20
5.47963
11
-4.30166
21
5.47938
0
LINE
8
BLACK
6
CONTINUOUS
10
-4.30166
20
5.47938
11
-4.30166
21
5.47563
0
LINE
8
BLACK
6
CONTINUOUS
10
-4.30166
20
5.47563
11
-4.30176
21
5.47537
0
LINE
8
BLACK
6
CONTINUOUS
10
-4.30176
20
5.47537
11
-4.30178
21
5.4751
0
LINE
8
BLACK
6
CONTINUOUS
10
-4.30178
20
5.4751
11
-4.30253
21
5.4736
0
LINE
8
BLACK
6
CONTINUOUS
10
-4.30253
20
5.4736
11
-4.30268
21
5.47347
0
LINE
8
BLACK
6
CONTINUOUS
10
-4.30268
20
5.47347
11
-4.30275
21
5.47329
0
LINE
8
BLACK
6
CONTINUOUS
10
-4.30275
20
5.47329
11
-4.3035
21
5.47254
0
LINE
8
BLACK
6
CONTINUOUS
10
-4.3035
20
5.47254
11
-4.30368
21
5.47247
0
LINE
8
BLACK
6
CONTINUOUS
10
-4.30368
20
5.47247
11
-4.30381
21
5.47232
0
LINE
8
BLACK
6
CONTINUOUS
10
-4.30381
20
5.47232
11
-4.30531
21
5.47157
0
LINE
8
BLACK
6
CONTINUOUS
10
-4.30531
20
5.47157
11
-4.30558
21
5.47155
0
LINE
8
BLACK
6
CONTINUOUS
10
-4.30558
20
5.47155
11
-4.30584
21
5.47145
0
LINE
8
BLACK
6
CONTINUOUS
10
-4.30584
20
5.47145
11
-4.30959
21
5.47145
0
LINE
8
BLACK
6
CONTINUOUS
10
-4.30959
20
5.47145
11
-4.30984
21
5.47155
0
LINE
8
BLACK
6
CONTINUOUS
10
-4.30984
20
5.47155
11
-4.31011
21
5.47157
0
LINE
8
BLACK
6
CONTINUOUS
10
-4.31011
20
5.47157
11
-4.31161
21
5.47232
0
LINE
8
BLACK
6
CONTINUOUS
10
-4.31161
20
5.47232
11
-4.31174
21
5.47247
0
LINE
8
BLACK
6
CONTINUOUS
10
-4.31174
20
5.47247
11
-4.31192
21
5.47254
0
LINE
8
BLACK
6
CONTINUOUS
10
-4.31192
20
5.47254
11
-4.31267
21
5.47329
0
LINE
8
BLACK
6
CONTINUOUS
10
-4.31267
20
5.47329
11
-4.31275
21
5.47347
0
LINE
8
BLACK
6
CONTINUOUS
10
-4.31275
20
5.47347
11
-4.31289
21
5.4736
0
LINE
8
BLACK
6
CONTINUOUS
10
-4.31289
20
5.4736
11
-4.31364
21
5.4751
0
LINE
8
BLACK
6
CONTINUOUS
10
-4.31364
20
5.4751
11
-4.31366
21
5.47537
0
LINE
8
BLACK
6
CONTINUOUS
10
-4.31366
20
5.47537
11
-4.31377
21
5.47563
0
LINE
8
BLACK
6
CONTINUOUS
10
-4.31377
20
5.47563
11
-4.31377
21
5.47938
0
LINE
8
BLACK
6
CONTINUOUS
10
-4.31377
20
5.47938
11
-4.31366
21
5.47963
0
LINE
8
BLACK
6
CONTINUOUS
10
-4.31366
20
5.47963
11
-4.31364
21
5.4799
0
LINE
8
BLACK
6
CONTINUOUS
10
-4.31364
20
5.4799
11
-4.3135
21
5.4802
0
LINE
8
BLACK
6
CONTINUOUS
10
-4.3135
20
5.4802
11
-4.3174
21
5.47981
0
LINE
8
BLACK
6
CONTINUOUS
10
-4.3174
20
5.47981
11
-4.3174
21
5.47338
0
LINE
8
BLACK
6
CONTINUOUS
10
-4.3174
20
5.47338
11
-4.31775
21
5.47254
0
LINE
8
BLACK
6
CONTINUOUS
10
-4.31775
20
5.47254
11
-4.31859
21
5.4722
0
LINE
8
BLACK
6
CONTINUOUS
10
-4.31859
20
5.4722
11
-4.31942
21
5.47254
0
LINE
8
BLACK
6
CONTINUOUS
10
-4.31942
20
5.47254
11
-4.31977
21
5.47338
0
LINE
8
BLACK
6
CONTINUOUS
10
-4.31977
20
5.47338
11
-4.31977
21
5.48088
0
LINE
8
BLACK
6
CONTINUOUS
10
-4.31977
20
5.48088
11
-4.31961
21
5.48124
0
LINE
8
BLACK
6
CONTINUOUS
10
-4.31961
20
5.48124
11
-4.3195
21
5.48162
0
LINE
8
BLACK
6
CONTINUOUS
10
-4.3195
20
5.48162
11
-4.31944
21
5.48165
0
LINE
8
BLACK
6
CONTINUOUS
10
-4.31944
20
5.48165
11
-4.31942
21
5.48171
0
LINE
8
BLACK
6
CONTINUOUS
10
-4.31942
20
5.48171
11
-4.31905
21
5.48186
0
LINE
8
BLACK
6
CONTINUOUS
10
-4.31905
20
5.48186
11
-4.3187
21
5.48205
0
LINE
8
BLACK
6
CONTINUOUS
10
-4.3187
20
5.48205
11
-4.3112
21
5.4828
0
LINE
8
BLACK
6
CONTINUOUS
10
-4.3112
20
5.4828
11
-4.31114
21
5.48278
0
LINE
8
BLACK
6
CONTINUOUS
10
-4.31114
20
5.48278
11
-4.31109
21
5.48281
0
LINE
8
BLACK
6
CONTINUOUS
10
-4.31109
20
5.48281
11
-4.31072
21
5.48265
0
LINE
8
BLACK
6
CONTINUOUS
10
-4.31072
20
5.48265
11
-4.31034
21
5.48254
0
LINE
8
BLACK
6
CONTINUOUS
10
-4.31034
20
5.48254
11
-4.31031
21
5.48248
0
LINE
8
BLACK
6
CONTINUOUS
10
-4.31031
20
5.48248
11
-4.31025
21
5.48246
0
LINE
8
BLACK
6
CONTINUOUS
10
-4.31025
20
5.48246
11
-4.3101
21
5.48209
0
LINE
8
BLACK
6
CONTINUOUS
10
-4.3101
20
5.48209
11
-4.30991
21
5.48174
0
LINE
8
BLACK
6
CONTINUOUS
10
-4.30991
20
5.48174
11
-4.30993
21
5.48168
0
LINE
8
BLACK
6
CONTINUOUS
10
-4.30993
20
5.48168
11
-4.30991
21
5.48163
0
LINE
8
BLACK
6
CONTINUOUS
10
-4.30991
20
5.48163
11
-4.31006
21
5.48126
0
LINE
8
BLACK
6
CONTINUOUS
10
-4.31006
20
5.48126
11
-4.31017
21
5.48088
0
LINE
8
BLACK
6
CONTINUOUS
10
-4.31017
20
5.48088
11
-4.31023
21
5.48085
0
LINE
8
BLACK
6
CONTINUOUS
10
-4.31023
20
5.48085
11
-4.31025
21
5.48079
0
LINE
8
BLACK
6
CONTINUOUS
10
-4.31025
20
5.48079
11
-4.31087
21
5.48018
0
LINE
8
BLACK
6
CONTINUOUS
10
-4.31087
20
5.48018
11
-4.31141
21
5.4791
0
LINE
8
BLACK
6
CONTINUOUS
10
-4.31141
20
5.4791
11
-4.31141
21
5.47591
0
LINE
8
BLACK
6
CONTINUOUS
10
-4.31141
20
5.47591
11
-4.31087
21
5.47483
0
LINE
8
BLACK
6
CONTINUOUS
10
-4.31087
20
5.47483
11
-4.31039
21
5.47435
0
LINE
8
BLACK
6
CONTINUOUS
10
-4.31039
20
5.47435
11
-4.30931
21
5.47381
0
LINE
8
BLACK
6
CONTINUOUS
10
-4.30931
20
5.47381
11
-4.30612
21
5.47381
0
LINE
8
BLACK
6
CONTINUOUS
10
-4.30612
20
5.47381
11
-4.30504
21
5.47435
0
LINE
8
BLACK
6
CONTINUOUS
10
-4.30504
20
5.47435
11
-4.30456
21
5.47483
0
LINE
8
BLACK
6
CONTINUOUS
10
-4.30456
20
5.47483
11
-4.30402
21
5.4759
0
LINE
8
BLACK
6
CONTINUOUS
10
-4.30402
20
5.4759
11
-4.30402
21
5.4791
0
LINE
8
BLACK
6
CONTINUOUS
10
-4.30402
20
5.4791
11
-4.30456
21
5.48018
0
LINE
8
BLACK
6
CONTINUOUS
10
-4.30456
20
5.48018
11
-4.30517
21
5.48079
0
LINE
8
BLACK
6
CONTINUOUS
10
-4.30517
20
5.48079
11
-4.30552
21
5.48163
0
LINE
8
BLACK
6
CONTINUOUS
10
-4.30552
20
5.48163
11
-4.30517
21
5.48246
0
LINE
8
BLACK
6
CONTINUOUS
10
-4.30517
20
5.48246
11
-4.30434
21
5.48281
0
LINE
8
BLACK
6
CONTINUOUS
10
-4.30434
20
5.48281
11
-4.3035
21
5.48246
0
LINE
8
BLACK
6
CONTINUOUS
10
-4.302
20
5.49746
11
-4.30166
21
5.49662
0
LINE
8
BLACK
6
CONTINUOUS
10
-4.30166
20
5.49662
11
-4.302
21
5.49579
0
LINE
8
BLACK
6
CONTINUOUS
10
-4.302
20
5.49579
11
-4.30284
21
5.49544
0
LINE
8
BLACK
6
CONTINUOUS
10
-4.30284
20
5.49544
11
-4.30916
21
5.49544
0
LINE
8
BLACK
6
CONTINUOUS
10
-4.30916
20
5.49544
11
-4.30916
21
5.49349
0
LINE
8
BLACK
6
CONTINUOUS
10
-4.30916
20
5.49349
11
-4.30216
21
5.48859
0
LINE
8
BLACK
6
CONTINUOUS
10
-4.30216
20
5.48859
11
-4.30167
21
5.48783
0
LINE
8
BLACK
6
CONTINUOUS
10
-4.30167
20
5.48783
11
-4.30187
21
5.48695
0
LINE
8
BLACK
6
CONTINUOUS
10
-4.30187
20
5.48695
11
-4.30263
21
5.48646
0
LINE
8
BLACK
6
CONTINUOUS
10
-4.30263
20
5.48646
11
-4.30351
21
5.48666
0
LINE
8
BLACK
6
CONTINUOUS
10
-4.30351
20
5.48666
11
-4.30916
21
5.49061
0
LINE
8
BLACK
6
CONTINUOUS
10
-4.30916
20
5.49061
11
-4.30926
21
5.49037
0
LINE
8
BLACK
6
CONTINUOUS
10
-4.30926
20
5.49037
11
-4.30928
21
5.4901
0
LINE
8
BLACK
6
CONTINUOUS
10
-4.30928
20
5.4901
11
-4.31003
21
5.4886
0
LINE
8
BLACK
6
CONTINUOUS
10
-4.31003
20
5.4886
11
-4.31018
21
5.48847
0
LINE
8
BLACK
6
CONTINUOUS
10
-4.31018
20
5.48847
11
-4.31025
21
5.48829
0
LINE
8
BLACK
6
CONTINUOUS
10
-4.31025
20
5.48829
11
-4.311
21
5.48754
0
LINE
8
BLACK
6
CONTINUOUS
10
-4.311
20
5.48754
11
-4.31118
21
5.48747
0
LINE
8
BLACK
6
CONTINUOUS
10
-4.31118
20
5.48747
11
-4.31131
21
5.48732
0
LINE
8
BLACK
6
CONTINUOUS
10
-4.31131
20
5.48732
11
-4.31281
21
5.48657
0
LINE
8
BLACK
6
CONTINUOUS
10
-4.31281
20
5.48657
11
-4.31308
21
5.48655
0
LINE
8
BLACK
6
CONTINUOUS
10
-4.31308
20
5.48655
11
-4.31334
21
5.48644
0
LINE
8
BLACK
6
CONTINUOUS
10
-4.31334
20
5.48644
11
-4.31559
21
5.48644
0
LINE
8
BLACK
6
CONTINUOUS
10
-4.31559
20
5.48644
11
-4.31584
21
5.48655
0
LINE
8
BLACK
6
CONTINUOUS
10
-4.31584
20
5.48655
11
-4.31611
21
5.48657
0
LINE
8
BLACK
6
CONTINUOUS
10
-4.31611
20
5.48657
11
-4.31761
21
5.48732
0
LINE
8
BLACK
6
CONTINUOUS
10
-4.31761
20
5.48732
11
-4.31774
21
5.48746
0
LINE
8
BLACK
6
CONTINUOUS
10
-4.31774
20
5.48746
11
-4.31792
21
5.48754
0
LINE
8
BLACK
6
CONTINUOUS
10
-4.31792
20
5.48754
11
-4.31867
21
5.48829
0
LINE
8
BLACK
6
CONTINUOUS
10
-4.31867
20
5.48829
11
-4.31875
21
5.48847
0
LINE
8
BLACK
6
CONTINUOUS
10
-4.31875
20
5.48847
11
-4.31889
21
5.4886
0
LINE
8
BLACK
6
CONTINUOUS
10
-4.31889
20
5.4886
11
-4.31964
21
5.4901
0
LINE
8
BLACK
6
CONTINUOUS
10
-4.31964
20
5.4901
11
-4.31966
21
5.49037
0
LINE
8
BLACK
6
CONTINUOUS
10
-4.31966
20
5.49037
11
-4.31977
21
5.49062
0
LINE
8
BLACK
6
CONTINUOUS
10
-4.31977
20
5.49062
11
-4.31977
21
5.49662
0
LINE
8
BLACK
6
CONTINUOUS
10
-4.31977
20
5.49662
11
-4.31942
21
5.49746
0
LINE
8
BLACK
6
CONTINUOUS
10
-4.31942
20
5.49746
11
-4.31859
21
5.4978
0
LINE
8
BLACK
6
CONTINUOUS
10
-4.31859
20
5.4978
11
-4.30284
21
5.4978
0
LINE
8
BLACK
6
CONTINUOUS
10
-4.30284
20
5.4978
11
-4.302
21
5.49746
0
LINE
8
BLACK
6
CONTINUOUS
10
-4.3174
20
5.4909
11
-4.31686
21
5.48982
0
LINE
8
BLACK
6
CONTINUOUS
10
-4.31686
20
5.48982
11
-4.31639
21
5.48935
0
LINE
8
BLACK
6
CONTINUOUS
10
-4.31639
20
5.48935
11
-4.31531
21
5.48881
0
LINE
8
BLACK
6
CONTINUOUS
10
-4.31531
20
5.48881
11
-4.31362
21
5.48881
0
LINE
8
BLACK
6
CONTINUOUS
10
-4.31362
20
5.48881
11
-4.31254
21
5.48935
0
LINE
8
BLACK
6
CONTINUOUS
10
-4.31254
20
5.48935
11
-4.31206
21
5.48982
0
LINE
8
BLACK
6
CONTINUOUS
10
-4.31206
20
5.48982
11
-4.31152
21
5.4909
0
LINE
8
BLACK
6
CONTINUOUS
10
-4.31152
20
5.4909
11
-4.31152
21
5.49544
0
LINE
8
BLACK
6
CONTINUOUS
10
-4.31152
20
5.49544
11
-4.3174
21
5.49544
0
LINE
8
BLACK
6
CONTINUOUS
10
-4.3174
20
5.49544
11
-4.3174
21
5.4909
0
LINE
8
BLACK
6
CONTINUOUS
10
-4.29376
20
5.51846
11
-4.29237
21
5.51789
0
LINE
8
BLACK
6
CONTINUOUS
10
-4.29237
20
5.51789
11
-4.29179
21
5.5165
0
LINE
8
BLACK
6
CONTINUOUS
10
-4.29179
20
5.5165
11
-4.29179
21
5.4535
0
LINE
8
BLACK
6
CONTINUOUS
10
-4.29179
20
5.4535
11
-4.29237
21
5.45211
0
LINE
8
BLACK
6
CONTINUOUS
10
-4.29237
20
5.45211
11
-4.29376
21
5.45154
0
LINE
8
BLACK
6
CONTINUOUS
10
-4.29376
20
5.45154
11
-4.32624
21
5.45154
0
LINE
8
BLACK
6
CONTINUOUS
10
-4.32624
20
5.45154
11
-4.32763
21
5.45211
0
LINE
8
BLACK
6
CONTINUOUS
10
-4.32763
20
5.45211
11
-4.32821
21
5.4535
0
LINE
8
BLACK
6
CONTINUOUS
10
-4.32821
20
5.4535
11
-4.32821
21
5.5165
0
LINE
8
BLACK
6
CONTINUOUS
10
-4.32821
20
5.5165
11
-4.32763
21
5.51789
0
LINE
8
BLACK
6
CONTINUOUS
10
-4.32763
20
5.51789
11
-4.32624
21
5.51846
0
LINE
8
BLACK
6
CONTINUOUS
10
-4.32624
20
5.51846
11
-4.29376
21
5.51846
0
LINE
8
BLACK
6
CONTINUOUS
10
-4.32427
20
5.51453
11
-4.32427
21
5.45547
0
LINE
8
BLACK
6
CONTINUOUS
10
-4.32427
20
5.45547
11
-4.29573
21
5.45547
0
LINE
8
BLACK
6
CONTINUOUS
10
-4.29573
20
5.45547
11
-4.29573
21
5.51453
0
LINE
8
BLACK
6
CONTINUOUS
10
-4.29573
20
5.51453
11
-4.32427
21
5.51453
0
LINE
8
BLACK
6
CONTINUOUS
10
-4.4966
20
5.50039
11
-4.496
21
5.49971
0
LINE
8
BLACK
6
CONTINUOUS
10
-4.496
20
5.49971
11
-4.49225
21
5.48846
0
LINE
8
BLACK
6
CONTINUOUS
10
-4.49225
20
5.48846
11
-4.49227
21
5.48827
0
LINE
8
BLACK
6
CONTINUOUS
10
-4.49227
20
5.48827
11
-4.49219
21
5.48809
0
LINE
8
BLACK
6
CONTINUOUS
10
-4.49219
20
5.48809
11
-4.4923
21
5.48783
0
LINE
8
BLACK
6
CONTINUOUS
10
-4.4923
20
5.48783
11
-4.49232
21
5.48756
0
LINE
8
BLACK
6
CONTINUOUS
10
-4.49232
20
5.48756
11
-4.49247
21
5.48743
0
LINE
8
BLACK
6
CONTINUOUS
10
-4.49247
20
5.48743
11
-4.49254
21
5.48725
0
LINE
8
BLACK
6
CONTINUOUS
10
-4.49254
20
5.48725
11
-4.49279
21
5.48715
0
LINE
8
BLACK
6
CONTINUOUS
10
-4.49279
20
5.48715
11
-4.493
21
5.48697
0
LINE
8
BLACK
6
CONTINUOUS
10
-4.493
20
5.48697
11
-4.4932
21
5.48698
0
LINE
8
BLACK
6
CONTINUOUS
10
-4.4932
20
5.48698
11
-4.49337
21
5.48691
0
LINE
8
BLACK
6
CONTINUOUS
10
-4.49337
20
5.48691
11
-4.49969
21
5.48691
0
LINE
8
BLACK
6
CONTINUOUS
10
-4.49969
20
5.48691
11
-4.49969
21
5.48284
0
LINE
8
BLACK
6
CONTINUOUS
10
-4.49969
20
5.48284
11
-4.50004
21
5.482
0
LINE
8
BLACK
6
CONTINUOUS
10
-4.50004
20
5.482
11
-4.50087
21
5.48166
0
LINE
8
BLACK
6
CONTINUOUS
10
-4.50087
20
5.48166
11
-4.50171
21
5.482
0
LINE
8
BLACK
6
CONTINUOUS
10
-4.50171
20
5.482
11
-4.50205
21
5.48284
0
LINE
8
BLACK
6
CONTINUOUS
10
-4.50205
20
5.48284
11
-4.50205
21
5.48691
0
LINE
8
BLACK
6
CONTINUOUS
10
-4.50205
20
5.48691
11
-4.50312
21
5.48691
0
LINE
8
BLACK
6
CONTINUOUS
10
-4.50312
20
5.48691
11
-4.50396
21
5.48725
0
LINE
8
BLACK
6
CONTINUOUS
10
-4.50396
20
5.48725
11
-4.5043
21
5.48809
0
LINE
8
BLACK
6
CONTINUOUS
10
-4.5043
20
5.48809
11
-4.50396
21
5.48892
0
LINE
8
BLACK
6
CONTINUOUS
10
-4.50396
20
5.48892
11
-4.50312
21
5.48927
0
LINE
8
BLACK
6
CONTINUOUS
10
-4.50312
20
5.48927
11
-4.50205
21
5.48927
0
LINE
8
BLACK
6
CONTINUOUS
10
-4.50205
20
5.48927
11
-4.50205
21
5.49334
0
LINE
8
BLACK
6
CONTINUOUS
10
-4.50205
20
5.49334
11
-4.50171
21
5.49417
0
LINE
8
BLACK
6
CONTINUOUS
10
-4.50171
20
5.49417
11
-4.50087
21
5.49452
0
LINE
8
BLACK
6
CONTINUOUS
10
-4.50087
20
5.49452
11
-4.50004
21
5.49417
0
LINE
8
BLACK
6
CONTINUOUS
10
-4.50004
20
5.49417
11
-4.49969
21
5.49334
0
LINE
8
BLACK
6
CONTINUOUS
10
-4.49969
20
5.49334
11
-4.49969
21
5.48927
0
LINE
8
BLACK
6
CONTINUOUS
10
-4.49969
20
5.48927
11
-4.49501
21
5.48927
0
LINE
8
BLACK
6
CONTINUOUS
10
-4.49501
20
5.48927
11
-4.49824
21
5.49896
0
LINE
8
BLACK
6
CONTINUOUS
10
-4.49824
20
5.49896
11
-4.49818
21
5.49986
0
LINE
8
BLACK
6
CONTINUOUS
10
-4.49818
20
5.49986
11
-4.4975
21
5.50046
0
LINE
8
BLACK
6
CONTINUOUS
10
-4.4975
20
5.50046
11
-4.4966
21
5.50039
0
LINE
8
BLACK
6
CONTINUOUS
10
-4.47754
20
5.49942
11
-4.4772
21
5.49859
0
LINE
8
BLACK
6
CONTINUOUS
10
-4.4772
20
5.49859
11
-4.4772
21
5.48284
0
LINE
8
BLACK
6
CONTINUOUS
10
-4.4772
20
5.48284
11
-4.47754
21
5.482
0
LINE
8
BLACK
6
CONTINUOUS
10
-4.47754
20
5.482
11
-4.47838
21
5.48166
0
LINE
8
BLACK
6
CONTINUOUS
10
-4.47838
20
5.48166
11
-4.47921
21
5.482
0
LINE
8
BLACK
6
CONTINUOUS
10
-4.47921
20
5.482
11
-4.47956
21
5.48284
0
LINE
8
BLACK
6
CONTINUOUS
10
-4.47956
20
5.48284
11
-4.47956
21
5.48916
0
LINE
8
BLACK
6
CONTINUOUS
10
-4.47956
20
5.48916
11
-4.48151
21
5.48916
0
LINE
8
BLACK
6
CONTINUOUS
10
-4.48151
20
5.48916
11
-4.48641
21
5.48216
0
LINE
8
BLACK
6
CONTINUOUS
10
-4.48641
20
5.48216
11
-4.48717
21
5.48167
0
LINE
8
BLACK
6
CONTINUOUS
10
-4.48717
20
5.48167
11
-4.48805
21
5.48187
0
LINE
8
BLACK
6
CONTINUOUS
10
-4.48805
20
5.48187
11
-4.48854
21
5.48263
0
LINE
8
BLACK
6
CONTINUOUS
10
-4.48854
20
5.48263
11
-4.48834
21
5.48351
0
LINE
8
BLACK
6
CONTINUOUS
10
-4.48834
20
5.48351
11
-4.48439
21
5.48916
0
LINE
8
BLACK
6
CONTINUOUS
10
-4.48439
20
5.48916
11
-4.48463
21
5.48926
0
LINE
8
BLACK
6
CONTINUOUS
10
-4.48463
20
5.48926
11
-4.4849
21
5.48928
0
LINE
8
BLACK
6
CONTINUOUS
10
-4.4849
20
5.48928
11
-4.4864
21
5.49003
0
LINE
8
BLACK
6
CONTINUOUS
10
-4.4864
20
5.49003
11
-4.48653
21
5.49018
0
LINE
8
BLACK
6
CONTINUOUS
10
-4.48653
20
5.49018
11
-4.48671
21
5.49025
0
LINE
8
BLACK
6
CONTINUOUS
10
-4.48671
20
5.49025
11
-4.48746
21
5.491
0
LINE
8
BLACK
6
CONTINUOUS
10
-4.48746
20
5.491
11
-4.48753
21
5.49118
0
LINE
8
BLACK
6
CONTINUOUS
10
-4.48753
20
5.49118
11
-4.48768
21
5.49131
0
LINE
8
BLACK
6
CONTINUOUS
10
-4.48768
20
5.49131
11
-4.48843
21
5.49281
0
LINE
8
BLACK
6
CONTINUOUS
10
-4.48843
20
5.49281
11
-4.48845
21
5.49308
0
LINE
8
BLACK
6
CONTINUOUS
10
-4.48845
20
5.49308
11
-4.48856
21
5.49334
0
LINE
8
BLACK
6
CONTINUOUS
10
-4.48856
20
5.49334
11
-4.48856
21
5.49559
0
LINE
8
BLACK
6
CONTINUOUS
10
-4.48856
20
5.49559
11
-4.48845
21
5.49584
0
LINE
8
BLACK
6
CONTINUOUS
10
-4.48845
20
5.49584
11
-4.48843
21
5.49611
0
LINE
8
BLACK
6
CONTINUOUS
10
-4.48843
20
5.49611
11
-4.48768
21
5.49761
0
LINE
8
BLACK
6
CONTINUOUS
10
-4.48768
20
5.49761
11
-4.48753
21
5.49774
0
LINE
8
BLACK
6
CONTINUOUS
10
-4.48753
20
5.49774
11
-4.48746
21
5.49792
0
LINE
8
BLACK
6
CONTINUOUS
10
-4.48746
20
5.49792
11
-4.48671
21
5.49867
0
LINE
8
BLACK
6
CONTINUOUS
10
-4.48671
20
5.49867
11
-4.48653
21
5.49875
0
LINE
8
BLACK
6
CONTINUOUS
10
-4.48653
20
5.49875
11
-4.4864
21
5.49889
0
LINE
8
BLACK
6
CONTINUOUS
10
-4.4864
20
5.49889
11
-4.4849
21
5.49964
0
LINE
8
BLACK
6
CONTINUOUS
10
-4.4849
20
5.49964
11
-4.48463
21
5.49966
0
LINE
8
BLACK
6
CONTINUOUS
10
-4.48463
20
5.49966
11
-4.48438
21
5.49977
0
LINE
8
BLACK
6
CONTINUOUS
10
-4.48438
20
5.49977
11
-4.47838
21
5.49977
0
LINE
8
BLACK
6
CONTINUOUS
10
-4.47838
20
5.49977
11
-4.47754
21
5.49942
0
LINE
8
BLACK
6
CONTINUOUS
10
-4.48518
20
5.49686
11
-4.48565
21
5.49639
0
LINE
8
BLACK
6
CONTINUOUS
10
-4.48565
20
5.49639
11
-4.48619
21
5.49531
0
LINE
8
BLACK
6
CONTINUOUS
10
-4.48619
20
5.49531
11
-4.48619
21
5.49362
0
LINE
8
BLACK
6
CONTINUOUS
10
-4.48619
20
5.49362
11
-4.48565
21
5.49254
0
LINE
8
BLACK
6
CONTINUOUS
10
-4.48565
20
5.49254
11
-4.48518
21
5.49206
0
LINE
8
BLACK
6
CONTINUOUS
10
-4.48518
20
5.49206
11
-4.4841
21
5.49152
0
LINE
8
BLACK
6
CONTINUOUS
10
-4.4841
20
5.49152
11
-4.47956
21
5.49152
0
LINE
8
BLACK
6
CONTINUOUS
10
-4.47956
20
5.49152
11
-4.47956
21
5.4974
0
LINE
8
BLACK
6
CONTINUOUS
10
-4.47956
20
5.4974
11
-4.4841
21
5.4974
0
LINE
8
BLACK
6
CONTINUOUS
10
-4.4841
20
5.4974
11
-4.48518
21
5.49686
0
LINE
8
BLACK
6
CONTINUOUS
10
-4.4585
20
5.50821
11
-4.45711
21
5.50763
0
LINE
8
BLACK
6
CONTINUOUS
10
-4.45711
20
5.50763
11
-4.45654
21
5.50624
0
LINE
8
BLACK
6
CONTINUOUS
10
-4.45654
20
5.50624
11
-4.45654
21
5.47376
0
LINE
8
BLACK
6
CONTINUOUS
10
-4.45654
20
5.47376
11
-4.45711
21
5.47237
0
LINE
8
BLACK
6
CONTINUOUS
10
-4.45711
20
5.47237
11
-4.4585
21
5.47179
0
LINE
8
BLACK
6
CONTINUOUS
10
-4.4585
20
5.47179
11
-4.5215
21
5.47179
0
LINE
8
BLACK
6
CONTINUOUS
10
-4.5215
20
5.47179
11
-4.52289
21
5.47237
0
LINE
8
BLACK
6
CONTINUOUS
10
-4.52289
20
5.47237
11
-4.52346
21
5.47376
0
LINE
8
BLACK
6
CONTINUOUS
10
-4.52346
20
5.47376
11
-4.52346
21
5.50624
0
LINE
8
BLACK
6
CONTINUOUS
10
-4.52346
20
5.50624
11
-4.52289
21
5.50763
0
LINE
8
BLACK
6
CONTINUOUS
10
-4.52289
20
5.50763
11
-4.5215
21
5.50821
0
LINE
8
BLACK
6
CONTINUOUS
10
-4.5215
20
5.50821
11
-4.4585
21
5.50821
0
LINE
8
BLACK
6
CONTINUOUS
10
-4.51953
20
5.50427
11
-4.51953
21
5.47573
0
LINE
8
BLACK
6
CONTINUOUS
10
-4.51953
20
5.47573
11
-4.46047
21
5.47573
0
LINE
8
BLACK
6
CONTINUOUS
10
-4.46047
20
5.47573
11
-4.46047
21
5.50427
0
LINE
8
BLACK
6
CONTINUOUS
10
-4.46047
20
5.50427
11
-4.51953
21
5.50427
0
LINE
8
BLACK
6
CONTINUOUS
10
-4.88822
20
5.6839
11
-4.88711
21
5.68221
0
LINE
8
BLACK
6
CONTINUOUS
10
-4.88711
20
5.68221
11
-4.88734
21
5.68021
0
LINE
8
BLACK
6
CONTINUOUS
10
-4.88734
20
5.68021
11
-4.88921
21
5.67646
0
LINE
8
BLACK
6
CONTINUOUS
10
-4.88921
20
5.67646
11
-4.88974
21
5.67575
0
LINE
8
BLACK
6
CONTINUOUS
10
-4.88974
20
5.67575
11
-4.88977
21
5.67569
0
LINE
8
BLACK
6
CONTINUOUS
10
-4.88977
20
5.67569
11
-4.89222
21
5.67323
0
LINE
8
BLACK
6
CONTINUOUS
10
-4.89222
20
5.67323
11
-4.86481
21
5.67323
0
LINE
8
BLACK
6
CONTINUOUS
10
-4.86481
20
5.67323
11
-4.86481
21
5.68153
0
LINE
8
BLACK
6
CONTINUOUS
10
-4.86481
20
5.68153
11
-4.86463
21
5.68254
0
LINE
8
BLACK
6
CONTINUOUS
10
-4.86463
20
5.68254
11
-4.86333
21
5.68408
0
LINE
8
BLACK
6
CONTINUOUS
10
-4.86333
20
5.68408
11
-4.86134
21
5.68443
0
LINE
8
BLACK
6
CONTINUOUS
10
-4.86134
20
5.68443
11
-4.8596
21
5.68342
0
LINE
8
BLACK
6
CONTINUOUS
10
-4.8596
20
5.68342
11
-4.8589
21
5.68153
0
LINE
8
BLACK
6
CONTINUOUS
10
-4.8589
20
5.68153
11
-4.8589
21
5.65903
0
LINE
8
BLACK
6
CONTINUOUS
10
-4.8589
20
5.65903
11
-4.85908
21
5.65802
0
LINE
8
BLACK
6
CONTINUOUS
10
-4.85908
20
5.65802
11
-4.86038
21
5.65647
0
LINE
8
BLACK
6
CONTINUOUS
10
-4.86038
20
5.65647
11
-4.86237
21
5.65612
0
LINE
8
BLACK
6
CONTINUOUS
10
-4.86237
20
5.65612
11
-4.86412
21
5.65713
0
LINE
8
BLACK
6
CONTINUOUS
10
-4.86412
20
5.65713
11
-4.86481
21
5.65903
0
LINE
8
BLACK
6
CONTINUOUS
10
-4.86481
20
5.65903
11
-4.86481
21
5.66732
0
LINE
8
BLACK
6
CONTINUOUS
10
-4.86481
20
5.66732
11
-4.90123
21
5.66732
0
LINE
8
BLACK
6
CONTINUOUS
10
-4.90123
20
5.66732
11
-4.90224
21
5.6675
0
LINE
8
BLACK
6
CONTINUOUS
10
-4.90224
20
5.6675
11
-4.90237
21
5.66761
0
LINE
8
BLACK
6
CONTINUOUS
10
-4.90237
20
5.66761
11
-4.90254
21
5.66763
0
LINE
8
BLACK
6
CONTINUOUS
10
-4.90254
20
5.66763
11
-4.90313
21
5.66825
0
LINE
8
BLACK
6
CONTINUOUS
10
-4.90313
20
5.66825
11
-4.90378
21
5.6688
0
LINE
8
BLACK
6
CONTINUOUS
10
-4.90378
20
5.6688
11
-4.90381
21
5.66897
0
LINE
8
BLACK
6
CONTINUOUS
10
-4.90381
20
5.66897
11
-4.90393
21
5.66909
0
LINE
8
BLACK
6
CONTINUOUS
10
-4.90393
20
5.66909
11
-4.90399
21
5.66995
0
LINE
8
BLACK
6
CONTINUOUS
10
-4.90399
20
5.66995
11
-4.90414
21
5.67079
0
LINE
8
BLACK
6
CONTINUOUS
10
-4.90414
20
5.67079
11
-4.90405
21
5.67094
0
LINE
8
BLACK
6
CONTINUOUS
10
-4.90405
20
5.67094
11
-4.90406
21
5.67111
0
LINE
8
BLACK
6
CONTINUOUS
10
-4.90406
20
5.67111
11
-4.90355
21
5.6718
0
LINE
8
BLACK
6
CONTINUOUS
10
-4.90355
20
5.6718
11
-4.90313
21
5.67254
0
LINE
8
BLACK
6
CONTINUOUS
10
-4.90313
20
5.67254
11
-4.90297
21
5.6726
0
LINE
8
BLACK
6
CONTINUOUS
10
-4.90297
20
5.6726
11
-4.90287
21
5.67273
0
LINE
8
BLACK
6
CONTINUOUS
10
-4.90287
20
5.67273
11
-4.89748
21
5.67632
0
LINE
8
BLACK
6
CONTINUOUS
10
-4.89748
20
5.67632
11
-4.89428
21
5.67953
0
LINE
8
BLACK
6
CONTINUOUS
10
-4.89428
20
5.67953
11
-4.89262
21
5.68285
0
LINE
8
BLACK
6
CONTINUOUS
10
-4.89262
20
5.68285
11
-4.89201
21
5.68367
0
LINE
8
BLACK
6
CONTINUOUS
10
-4.89201
20
5.68367
11
-4.89016
21
5.68447
0
LINE
8
BLACK
6
CONTINUOUS
10
-4.89016
20
5.68447
11
-4.88822
21
5.6839
0
LINE
8
BLACK
6
CONTINUOUS
10
-4.8596
20
5.7153
11
-4.8589
21
5.7134
0
LINE
8
BLACK
6
CONTINUOUS
10
-4.8589
20
5.7134
11
-4.8589
21
5.70965
0
LINE
8
BLACK
6
CONTINUOUS
10
-4.8589
20
5.70965
11
-4.85906
21
5.70878
0
LINE
8
BLACK
6
CONTINUOUS
10
-4.85906
20
5.70878
11
-4.85906
21
5.70871
0
LINE
8
BLACK
6
CONTINUOUS
10
-4.85906
20
5.70871
11
-4.86093
21
5.70309
0
LINE
8
BLACK
6
CONTINUOUS
10
-4.86093
20
5.70309
11
-4.86142
21
5.70219
0
LINE
8
BLACK
6
CONTINUOUS
10
-4.86142
20
5.70219
11
-4.86157
21
5.7021
0
LINE
8
BLACK
6
CONTINUOUS
10
-4.86157
20
5.7021
11
-4.86164
21
5.70194
0
LINE
8
BLACK
6
CONTINUOUS
10
-4.86164
20
5.70194
11
-4.86539
21
5.69819
0
LINE
8
BLACK
6
CONTINUOUS
10
-4.86539
20
5.69819
11
-4.86623
21
5.6976
0
LINE
8
BLACK
6
CONTINUOUS
10
-4.86623
20
5.6976
11
-4.86641
21
5.69758
0
LINE
8
BLACK
6
CONTINUOUS
10
-4.86641
20
5.69758
11
-4.86655
21
5.69747
0
LINE
8
BLACK
6
CONTINUOUS
10
-4.86655
20
5.69747
11
-4.87217
21
5.6956
0
LINE
8
BLACK
6
CONTINUOUS
10
-4.87217
20
5.6956
11
-4.87305
21
5.69547
0
LINE
8
BLACK
6
CONTINUOUS
10
-4.87305
20
5.69547
11
-4.87311
21
5.69545
0
LINE
8
BLACK
6
CONTINUOUS
10
-4.87311
20
5.69545
11
-4.90123
21
5.69545
0
LINE
8
BLACK
6
CONTINUOUS
10
-4.90123
20
5.69545
11
-4.90224
21
5.69562
0
LINE
8
BLACK
6
CONTINUOUS
10
-4.90224
20
5.69562
11
-4.90378
21
5.69692
0
LINE
8
BLACK
6
CONTINUOUS
10
-4.90378
20
5.69692
11
-4.90414
21
5.69891
0
LINE
8
BLACK
6
CONTINUOUS
10
-4.90414
20
5.69891
11
-4.90313
21
5.70066
0
LINE
8
BLACK
6
CONTINUOUS
10
-4.90313
20
5.70066
11
-4.90123
21
5.70135
0
LINE
8
BLACK
6
CONTINUOUS
10
-4.90123
20
5.70135
11
-4.87359
21
5.70135
0
LINE
8
BLACK
6
CONTINUOUS
10
-4.87359
20
5.70135
11
-4.86908
21
5.70285
0
LINE
8
BLACK
6
CONTINUOUS
10
-4.86908
20
5.70285
11
-4.86631
21
5.70562
0
LINE
8
BLACK
6
CONTINUOUS
10
-4.86631
20
5.70562
11
-4.86481
21
5.71013
0
LINE
8
BLACK
6
CONTINUOUS
10
-4.86481
20
5.71013
11
-4.86481
21
5.7134
0
LINE
8
BLACK
6
CONTINUOUS
10
-4.86481
20
5.7134
11
-4.86463
21
5.71441
0
LINE
8
BLACK
6
CONTINUOUS
10
-4.86463
20
5.71441
11
-4.86333
21
5.71595
0
LINE
8
BLACK
6
CONTINUOUS
10
-4.86333
20
5.71595
11
-4.86134
21
5.7163
0
LINE
8
BLACK
6
CONTINUOUS
10
-4.86134
20
5.7163
11
-4.8596
21
5.7153
0
LINE
8
BLACK
6
CONTINUOUS
10
-4.81677
20
5.84965
11
-4.81538
21
5.84907
0
LINE
8
BLACK
6
CONTINUOUS
10
-4.81538
20
5.84907
11
-4.8148
21
5.84768
0
LINE
8
BLACK
6
CONTINUOUS
10
-4.8148
20
5.84768
11
-4.8148
21
5.52287
0
LINE
8
BLACK
6
CONTINUOUS
10
-4.8148
20
5.52287
11
-4.81538
21
5.52148
0
LINE
8
BLACK
6
CONTINUOUS
10
-4.81538
20
5.52148
11
-4.81677
21
5.52091
0
LINE
8
BLACK
6
CONTINUOUS
10
-4.81677
20
5.52091
11
-4.97622
21
5.52091
0
LINE
8
BLACK
6
CONTINUOUS
10
-4.97622
20
5.52091
11
-4.97761
21
5.52148
0
LINE
8
BLACK
6
CONTINUOUS
10
-4.97761
20
5.52148
11
-4.97819
21
5.52287
0
LINE
8
BLACK
6
CONTINUOUS
10
-4.97819
20
5.52287
11
-4.97819
21
5.84768
0
LINE
8
BLACK
6
CONTINUOUS
10
-4.97819
20
5.84768
11
-4.97761
21
5.84907
0
LINE
8
BLACK
6
CONTINUOUS
10
-4.97761
20
5.84907
11
-4.97622
21
5.84965
0
LINE
8
BLACK
6
CONTINUOUS
10
-4.97622
20
5.84965
11
-4.81677
21
5.84965
0
LINE
8
BLACK
6
CONTINUOUS
10
-4.97425
20
5.84571
11
-4.97425
21
5.52484
0
LINE
8
BLACK
6
CONTINUOUS
10
-4.97425
20
5.52484
11
-4.81874
21
5.52484
0
LINE
8
BLACK
6
CONTINUOUS
10
-4.81874
20
5.52484
11
-4.81874
21
5.59075
0
LINE
8
BLACK
6
CONTINUOUS
10
-4.81874
20
5.59075
11
-4.84575
21
5.60985
0
LINE
8
BLACK
6
CONTINUOUS
10
-4.84575
20
5.60985
11
-4.84593
21
5.61014
0
LINE
8
BLACK
6
CONTINUOUS
10
-4.84593
20
5.61014
11
-4.84622
21
5.61032
0
LINE
8
BLACK
6
CONTINUOUS
10
-4.84622
20
5.61032
11
-4.84632
21
5.61075
0
LINE
8
BLACK
6
CONTINUOUS
10
-4.84632
20
5.61075
11
-4.84655
21
5.61112
0
LINE
8
BLACK
6
CONTINUOUS
10
-4.84655
20
5.61112
11
-4.84648
21
5.61146
0
LINE
8
BLACK
6
CONTINUOUS
10
-4.84648
20
5.61146
11
-4.84655
21
5.61179
0
LINE
8
BLACK
6
CONTINUOUS
10
-4.84655
20
5.61179
11
-4.84632
21
5.61216
0
LINE
8
BLACK
6
CONTINUOUS
10
-4.84632
20
5.61216
11
-4.84622
21
5.61259
0
LINE
8
BLACK
6
CONTINUOUS
10
-4.84622
20
5.61259
11
-4.84593
21
5.61278
0
LINE
8
BLACK
6
CONTINUOUS
10
-4.84593
20
5.61278
11
-4.84575
21
5.61306
0
LINE
8
BLACK
6
CONTINUOUS
10
-4.84575
20
5.61306
11
-4.81874
21
5.63216
0
LINE
8
BLACK
6
CONTINUOUS
10
-4.81874
20
5.63216
11
-4.81874
21
5.84571
0
LINE
8
BLACK
6
CONTINUOUS
10
-4.81874
20
5.84571
11
-4.97425
21
5.84571
0
LINE
8
BLACK
6
CONTINUOUS
10
-4.8412
20
5.61146
11
-4.81874
21
5.59557
0
LINE
8
BLACK
6
CONTINUOUS
10
-4.81874
20
5.59557
11
-4.81874
21
5.62734
0
LINE
8
BLACK
6
CONTINUOUS
10
-4.81874
20
5.62734
11
-4.8412
21
5.61146
0
LINE
8
BLACK
6
CONTINUOUS
10
-4.09974
20
5.68549
11
-4.09786
21
5.68361
0
LINE
8
BLACK
6
CONTINUOUS
10
-4.09786
20
5.68361
11
-4.09736
21
5.68289
0
LINE
8
BLACK
6
CONTINUOUS
10
-4.09736
20
5.68289
11
-4.09731
21
5.68285
0
LINE
8
BLACK
6
CONTINUOUS
10
-4.09731
20
5.68285
11
-4.09544
21
5.6791
0
LINE
8
BLACK
6
CONTINUOUS
10
-4.09544
20
5.6791
11
-4.09514
21
5.67811
0
LINE
8
BLACK
6
CONTINUOUS
10
-4.09514
20
5.67811
11
-4.09519
21
5.67794
0
LINE
8
BLACK
6
CONTINUOUS
10
-4.09519
20
5.67794
11
-4.09513
21
5.67778
0
LINE
8
BLACK
6
CONTINUOUS
10
-4.09513
20
5.67778
11
-4.09513
21
5.66653
0
LINE
8
BLACK
6
CONTINUOUS
10
-4.09513
20
5.66653
11
-4.0953
21
5.66552
0
LINE
8
BLACK
6
CONTINUOUS
10
-4.0953
20
5.66552
11
-4.09542
21
5.66538
0
LINE
8
BLACK
6
CONTINUOUS
10
-4.09542
20
5.66538
11
-4.09544
21
5.66521
0
LINE
8
BLACK
6
CONTINUOUS
10
-4.09544
20
5.66521
11
-4.09731
21
5.66146
0
LINE
8
BLACK
6
CONTINUOUS
10
-4.09731
20
5.66146
11
-4.09784
21
5.66075
0
LINE
8
BLACK
6
CONTINUOUS
10
-4.09784
20
5.66075
11
-4.09786
21
5.66069
0
LINE
8
BLACK
6
CONTINUOUS
10
-4.09786
20
5.66069
11
-4.09974
21
5.65882
0
LINE
8
BLACK
6
CONTINUOUS
10
-4.09974
20
5.65882
11
-4.10046
21
5.65831
0
LINE
8
BLACK
6
CONTINUOUS
10
-4.10046
20
5.65831
11
-4.10051
21
5.65826
0
LINE
8
BLACK
6
CONTINUOUS
10
-4.10051
20
5.65826
11
-4.10426
21
5.65639
0
LINE
8
BLACK
6
CONTINUOUS
10
-4.10426
20
5.65639
11
-4.10524
21
5.6561
0
LINE
8
BLACK
6
CONTINUOUS
10
-4.10524
20
5.6561
11
-4.10541
21
5.65614
0
LINE
8
BLACK
6
CONTINUOUS
10
-4.10541
20
5.65614
11
-4.10558
21
5.65608
0
LINE
8
BLACK
6
CONTINUOUS
10
-4.10558
20
5.65608
11
-4.11495
21
5.65608
0
LINE
8
BLACK
6
CONTINUOUS
10
-4.11495
20
5.65608
11
-4.11596
21
5.65625
0
LINE
8
BLACK
6
CONTINUOUS
10
-4.11596
20
5.65625
11
-4.1161
21
5.65637
0
LINE
8
BLACK
6
CONTINUOUS
10
-4.1161
20
5.65637
11
-4.11627
21
5.65639
0
LINE
8
BLACK
6
CONTINUOUS
10
-4.11627
20
5.65639
11
-4.12002
21
5.65826
0
LINE
8
BLACK
6
CONTINUOUS
10
-4.12002
20
5.65826
11
-4.12073
21
5.65879
0
LINE
8
BLACK
6
CONTINUOUS
10
-4.12073
20
5.65879
11
-4.12079
21
5.65882
0
LINE
8
BLACK
6
CONTINUOUS
10
-4.12079
20
5.65882
11
-4.12266
21
5.66069
0
LINE
8
BLACK
6
CONTINUOUS
10
-4.12266
20
5.66069
11
-4.12317
21
5.66141
0
LINE
8
BLACK
6
CONTINUOUS
10
-4.12317
20
5.66141
11
-4.12322
21
5.66146
0
LINE
8
BLACK
6
CONTINUOUS
10
-4.12322
20
5.66146
11
-4.12509
21
5.66521
0
LINE
8
BLACK
6
CONTINUOUS
10
-4.12509
20
5.66521
11
-4.12526
21
5.66577
0
LINE
8
BLACK
6
CONTINUOUS
10
-4.12526
20
5.66577
11
-4.1355
21
5.65681
0
LINE
8
BLACK
6
CONTINUOUS
10
-4.1355
20
5.65681
11
-4.13588
21
5.65658
0
LINE
8
BLACK
6
CONTINUOUS
10
-4.13588
20
5.65658
11
-4.13597
21
5.65647
0
LINE
8
BLACK
6
CONTINUOUS
10
-4.13597
20
5.65647
11
-4.13609
21
5.65645
0
LINE
8
BLACK
6
CONTINUOUS
10
-4.13609
20
5.65645
11
-4.13638
21
5.65628
0
LINE
8
BLACK
6
CONTINUOUS
10
-4.13638
20
5.65628
11
-4.13718
21
5.65626
0
LINE
8
BLACK
6
CONTINUOUS
10
-4.13718
20
5.65626
11
-4.13796
21
5.65612
0
LINE
8
BLACK
6
CONTINUOUS
10
-4.13796
20
5.65612
11
-4.13816
21
5.65624
0
LINE
8
BLACK
6
CONTINUOUS
10
-4.13816
20
5.65624
11
-4.1384
21
5.65623
0
LINE
8
BLACK
6
CONTINUOUS
10
-4.1384
20
5.65623
11
-4.13902
21
5.65673
0
LINE
8
BLACK
6
CONTINUOUS
10
-4.13902
20
5.65673
11
-4.13971
21
5.65713
0
LINE
8
BLACK
6
CONTINUOUS
10
-4.13971
20
5.65713
11
-4.13979
21
5.65735
0
LINE
8
BLACK
6
CONTINUOUS
10
-4.13979
20
5.65735
11
-4.13997
21
5.6575
0
LINE
8
BLACK
6
CONTINUOUS
10
-4.13997
20
5.6575
11
-4.14013
21
5.65828
0
LINE
8
BLACK
6
CONTINUOUS
10
-4.14013
20
5.65828
11
-4.1404
21
5.65903
0
LINE
8
BLACK
6
CONTINUOUS
10
-4.1404
20
5.65903
11
-4.1404
21
5.6834
0
LINE
8
BLACK
6
CONTINUOUS
10
-4.1404
20
5.6834
11
-4.14022
21
5.68441
0
LINE
8
BLACK
6
CONTINUOUS
10
-4.14022
20
5.68441
11
-4.13892
21
5.68596
0
LINE
8
BLACK
6
CONTINUOUS
10
-4.13892
20
5.68596
11
-4.13694
21
5.68631
0
LINE
8
BLACK
6
CONTINUOUS
10
-4.13694
20
5.68631
11
-4.13519
21
5.6853
0
LINE
8
BLACK
6
CONTINUOUS
10
-4.13519
20
5.6853
11
-4.1345
21
5.6834
0
LINE
8
BLACK
6
CONTINUOUS
10
-4.1345
20
5.6834
11
-4.1345
21
5.66554
0
LINE
8
BLACK
6
CONTINUOUS
10
-4.1345
20
5.66554
11
-4.12439
21
5.67437
0
LINE
8
BLACK
6
CONTINUOUS
10
-4.12439
20
5.67437
11
-4.12401
21
5.6746
0
LINE
8
BLACK
6
CONTINUOUS
10
-4.12401
20
5.6746
11
-4.12393
21
5.67471
0
LINE
8
BLACK
6
CONTINUOUS
10
-4.12393
20
5.67471
11
-4.12381
21
5.67473
0
LINE
8
BLACK
6
CONTINUOUS
10
-4.12381
20
5.67473
11
-4.12352
21
5.67491
0
LINE
8
BLACK
6
CONTINUOUS
10
-4.12352
20
5.67491
11
-4.12272
21
5.67492
0
LINE
8
BLACK
6
CONTINUOUS
10
-4.12272
20
5.67492
11
-4.12194
21
5.67506
0
LINE
8
BLACK
6
CONTINUOUS
10
-4.12194
20
5.67506
11
-4.12173
21
5.67494
0
LINE
8
BLACK
6
CONTINUOUS
10
-4.12173
20
5.67494
11
-4.1215
21
5.67495
0
LINE
8
BLACK
6
CONTINUOUS
10
-4.1215
20
5.67495
11
-4.12088
21
5.67445
0
LINE
8
BLACK
6
CONTINUOUS
10
-4.12088
20
5.67445
11
-4.12019
21
5.67405
0
LINE
8
BLACK
6
CONTINUOUS
10
-4.12019
20
5.67405
11
-4.12011
21
5.67383
0
LINE
8
BLACK
6
CONTINUOUS
10
-4.12011
20
5.67383
11
-4.11992
21
5.67368
0
LINE
8
BLACK
6
CONTINUOUS
10
-4.11992
20
5.67368
11
-4.11977
21
5.6729
0
LINE
8
BLACK
6
CONTINUOUS
10
-4.11977
20
5.6729
11
-4.1195
21
5.67215
0
LINE
8
BLACK
6
CONTINUOUS
10
-4.1195
20
5.67215
11
-4.1195
21
5.66722
0
LINE
8
BLACK
6
CONTINUOUS
10
-4.1195
20
5.66722
11
-4.11815
21
5.66453
0
LINE
8
BLACK
6
CONTINUOUS
10
-4.11815
20
5.66453
11
-4.11695
21
5.66333
0
LINE
8
BLACK
6
CONTINUOUS
10
-4.11695
20
5.66333
11
-4.11425
21
5.66198
0
LINE
8
BLACK
6
CONTINUOUS
10
-4.11425
20
5.66198
11
-4.10627
21
5.66198
0
LINE
8
BLACK
6
CONTINUOUS
10
-4.10627
20
5.66198
11
-4.10358
21
5.66333
0
LINE
8
BLACK
6
CONTINUOUS
10
-4.10358
20
5.66333
11
-4.10238
21
5.66453
0
LINE
8
BLACK
6
CONTINUOUS
10
-4.10238
20
5.66453
11
-4.10103
21
5.66722
0
LINE
8
BLACK
6
CONTINUOUS
10
-4.10103
20
5.66722
11
-4.10103
21
5.67708
0
LINE
8
BLACK
6
CONTINUOUS
10
-4.10103
20
5.67708
11
-4.10238
21
5.67978
0
LINE
8
BLACK
6
CONTINUOUS
10
-4.10238
20
5.67978
11
-4.10392
21
5.68131
0
LINE
8
BLACK
6
CONTINUOUS
10
-4.10392
20
5.68131
11
-4.1045
21
5.68215
0
LINE
8
BLACK
6
CONTINUOUS
10
-4.1045
20
5.68215
11
-4.10468
21
5.68417
0
LINE
8
BLACK
6
CONTINUOUS
10
-4.10468
20
5.68417
11
-4.10352
21
5.68582
0
LINE
8
BLACK
6
CONTINUOUS
10
-4.10352
20
5.68582
11
-4.10157
21
5.68634
0
LINE
8
BLACK
6
CONTINUOUS
10
-4.10157
20
5.68634
11
-4.09974
21
5.68549
0
LINE
8
BLACK
6
CONTINUOUS
10
-4.09582
20
5.7153
11
-4.09513
21
5.7134
0
LINE
8
BLACK
6
CONTINUOUS
10
-4.09513
20
5.7134
11
-4.09513
21
5.70965
0
LINE
8
BLACK
6
CONTINUOUS
10
-4.09513
20
5.70965
11
-4.09528
21
5.70878
0
LINE
8
BLACK
6
CONTINUOUS
10
-4.09528
20
5.70878
11
-4.09528
21
5.70871
0
LINE
8
BLACK
6
CONTINUOUS
10
-4.09528
20
5.70871
11
-4.09715
21
5.70309
0
LINE
8
BLACK
6
CONTINUOUS
10
-4.09715
20
5.70309
11
-4.09764
21
5.70219
0
LINE
8
BLACK
6
CONTINUOUS
10
-4.09764
20
5.70219
11
-4.09779
21
5.7021
0
LINE
8
BLACK
6
CONTINUOUS
10
-4.09779
20
5.7021
11
-4.09786
21
5.70194
0
LINE
8
BLACK
6
CONTINUOUS
10
-4.09786
20
5.70194
11
-4.10161
21
5.69819
0
LINE
8
BLACK
6
CONTINUOUS
10
-4.10161
20
5.69819
11
-4.10245
21
5.6976
0
LINE
8
BLACK
6
CONTINUOUS
10
-4.10245
20
5.6976
11
-4.10263
21
5.69758
0
LINE
8
BLACK
6
CONTINUOUS
10
-4.10263
20
5.69758
11
-4.10277
21
5.69747
0
LINE
8
BLACK
6
CONTINUOUS
10
-4.10277
20
5.69747
11
-4.10839
21
5.6956
0
LINE
8
BLACK
6
CONTINUOUS
10
-4.10839
20
5.6956
11
-4.10927
21
5.69547
0
LINE
8
BLACK
6
CONTINUOUS
10
-4.10927
20
5.69547
11
-4.10933
21
5.69545
0
LINE
8
BLACK
6
CONTINUOUS
10
-4.10933
20
5.69545
11
-4.13745
21
5.69545
0
LINE
8
BLACK
6
CONTINUOUS
10
-4.13745
20
5.69545
11
-4.13846
21
5.69562
0
LINE
8
BLACK
6
CONTINUOUS
10
-4.13846
20
5.69562
11
-4.14001
21
5.69692
0
LINE
8
BLACK
6
CONTINUOUS
10
-4.14001
20
5.69692
11
-4.14036
21
5.69891
0
LINE
8
BLACK
6
CONTINUOUS
10
-4.14036
20
5.69891
11
-4.13935
21
5.70066
0
LINE
8
BLACK
6
CONTINUOUS
10
-4.13935
20
5.70066
11
-4.13745
21
5.70135
0
LINE
8
BLACK
6
CONTINUOUS
10
-4.13745
20
5.70135
11
-4.10981
21
5.70135
0
LINE
8
BLACK
6
CONTINUOUS
10
-4.10981
20
5.70135
11
-4.1053
21
5.70285
0
LINE
8
BLACK
6
CONTINUOUS
10
-4.1053
20
5.70285
11
-4.10253
21
5.70562
0
LINE
8
BLACK
6
CONTINUOUS
10
-4.10253
20
5.70562
11
-4.10103
21
5.71013
0
LINE
8
BLACK
6
CONTINUOUS
10
-4.10103
20
5.71013
11
-4.10103
21
5.7134
0
LINE
8
BLACK
6
CONTINUOUS
10
-4.10103
20
5.7134
11
-4.10085
21
5.71441
0
LINE
8
BLACK
6
CONTINUOUS
10
-4.10085
20
5.71441
11
-4.09955
21
5.71595
0
LINE
8
BLACK
6
CONTINUOUS
10
-4.09955
20
5.71595
11
-4.09757
21
5.7163
0
LINE
8
BLACK
6
CONTINUOUS
10
-4.09757
20
5.7163
11
-4.09582
21
5.7153
0
LINE
8
BLACK
6
CONTINUOUS
10
-4.01953
20
5.84965
11
-4.01814
21
5.84907
0
LINE
8
BLACK
6
CONTINUOUS
10
-4.01814
20
5.84907
11
-4.01756
21
5.84768
0
LINE
8
BLACK
6
CONTINUOUS
10
-4.01756
20
5.84768
11
-4.01756
21
5.52287
0
LINE
8
BLACK
6
CONTINUOUS
10
-4.01756
20
5.52287
11
-4.01814
21
5.52148
0
LINE
8
BLACK
6
CONTINUOUS
10
-4.01814
20
5.52148
11
-4.01953
21
5.52091
0
LINE
8
BLACK
6
CONTINUOUS
10
-4.01953
20
5.52091
11
-4.17898
21
5.52091
0
LINE
8
BLACK
6
CONTINUOUS
10
-4.17898
20
5.52091
11
-4.18037
21
5.52148
0
LINE
8
BLACK
6
CONTINUOUS
10
-4.18037
20
5.52148
11
-4.18094
21
5.52287
0
LINE
8
BLACK
6
CONTINUOUS
10
-4.18094
20
5.52287
11
-4.18094
21
5.84768
0
LINE
8
BLACK
6
CONTINUOUS
10
-4.18094
20
5.84768
11
-4.18037
21
5.84907
0
LINE
8
BLACK
6
CONTINUOUS
10
-4.18037
20
5.84907
11
-4.17898
21
5.84965
0
LINE
8
BLACK
6
CONTINUOUS
10
-4.17898
20
5.84965
11
-4.01953
21
5.84965
0
LINE
8
BLACK
6
CONTINUOUS
10
-4.17701
20
5.84571
11
-4.17701
21
5.7798
0
LINE
8
BLACK
6
CONTINUOUS
10
-4.17701
20
5.7798
11
-4.15
21
5.7607
0
LINE
8
BLACK
6
CONTINUOUS
10
-4.15
20
5.7607
11
-4.14982
21
5.76041
0
LINE
8
BLACK
6
CONTINUOUS
10
-4.14982
20
5.76041
11
-4.14953
21
5.76023
0
LINE
8
BLACK
6
CONTINUOUS
10
-4.14953
20
5.76023
11
-4.14943
21
5.7598
0
LINE
8
BLACK
6
CONTINUOUS
10
-4.14943
20
5.7598
11
-4.1492
21
5.75943
0
LINE
8
BLACK
6
CONTINUOUS
10
-4.1492
20
5.75943
11
-4.14927
21
5.75909
0
LINE
8
BLACK
6
CONTINUOUS
10
-4.14927
20
5.75909
11
-4.1492
21
5.75876
0
LINE
8
BLACK
6
CONTINUOUS
10
-4.1492
20
5.75876
11
-4.14943
21
5.75839
0
LINE
8
BLACK
6
CONTINUOUS
10
-4.14943
20
5.75839
11
-4.14953
21
5.75796
0
LINE
8
BLACK
6
CONTINUOUS
10
-4.14953
20
5.75796
11
-4.14982
21
5.75778
0
LINE
8
BLACK
6
CONTINUOUS
10
-4.14982
20
5.75778
11
-4.15
21
5.75749
0
LINE
8
BLACK
6
CONTINUOUS
10
-4.15
20
5.75749
11
-4.17701
21
5.73839
0
LINE
8
BLACK
6
CONTINUOUS
10
-4.17701
20
5.73839
11
-4.17701
21
5.52484
0
LINE
8
BLACK
6
CONTINUOUS
10
-4.17701
20
5.52484
11
-4.0215
21
5.52484
0
LINE
8
BLACK
6
CONTINUOUS
10
-4.0215
20
5.52484
11
-4.0215
21
5.84571
0
LINE
8
BLACK
6
CONTINUOUS
10
-4.0215
20
5.84571
11
-4.17701
21
5.84571
0
LINE
8
BLACK
6
CONTINUOUS
10
-4.17701
20
5.74321
11
-4.15455
21
5.75909
0
LINE
8
BLACK
6
CONTINUOUS
10
-4.15455
20
5.75909
11
-4.17701
21
5.77498
0
LINE
8
BLACK
6
CONTINUOUS
10
-4.17701
20
5.77498
11
-4.17701
21
5.74321
0
LINE
8
BLACK
6
CONTINUOUS
10
-4.542
20
5.59921
11
-4.54166
21
5.59838
0
LINE
8
BLACK
6
CONTINUOUS
10
-4.54166
20
5.59838
11
-4.54166
21
5.58863
0
LINE
8
BLACK
6
CONTINUOUS
10
-4.54166
20
5.58863
11
-4.542
21
5.5878
0
LINE
8
BLACK
6
CONTINUOUS
10
-4.542
20
5.5878
11
-4.54284
21
5.58745
0
LINE
8
BLACK
6
CONTINUOUS
10
-4.54284
20
5.58745
11
-4.54367
21
5.5878
0
LINE
8
BLACK
6
CONTINUOUS
10
-4.54367
20
5.5878
11
-4.54402
21
5.58863
0
LINE
8
BLACK
6
CONTINUOUS
10
-4.54402
20
5.58863
11
-4.54402
21
5.59553
0
LINE
8
BLACK
6
CONTINUOUS
10
-4.54402
20
5.59553
11
-4.551
21
5.58855
0
LINE
8
BLACK
6
CONTINUOUS
10
-4.551
20
5.58855
11
-4.55126
21
5.58844
0
LINE
8
BLACK
6
CONTINUOUS
10
-4.55126
20
5.58844
11
-4.55146
21
5.58826
0
LINE
8
BLACK
6
CONTINUOUS
10
-4.55146
20
5.58826
11
-4.55371
21
5.58751
0
LINE
8
BLACK
6
CONTINUOUS
10
-4.55371
20
5.58751
11
-4.55391
21
5.58752
0
LINE
8
BLACK
6
CONTINUOUS
10
-4.55391
20
5.58752
11
-4.55409
21
5.58745
0
LINE
8
BLACK
6
CONTINUOUS
10
-4.55409
20
5.58745
11
-4.55559
21
5.58745
0
LINE
8
BLACK
6
CONTINUOUS
10
-4.55559
20
5.58745
11
-4.55584
21
5.58755
0
LINE
8
BLACK
6
CONTINUOUS
10
-4.55584
20
5.58755
11
-4.55611
21
5.58757
0
LINE
8
BLACK
6
CONTINUOUS
10
-4.55611
20
5.58757
11
-4.55761
21
5.58832
0
LINE
8
BLACK
6
CONTINUOUS
10
-4.55761
20
5.58832
11
-4.55774
21
5.58847
0
LINE
8
BLACK
6
CONTINUOUS
10
-4.55774
20
5.58847
11
-4.55792
21
5.58855
0
LINE
8
BLACK
6
CONTINUOUS
10
-4.55792
20
5.58855
11
-4.55867
21
5.5893
0
LINE
8
BLACK
6
CONTINUOUS
10
-4.55867
20
5.5893
11
-4.55875
21
5.58947
0
LINE
8
BLACK
6
CONTINUOUS
10
-4.55875
20
5.58947
11
-4.55889
21
5.5896
0
LINE
8
BLACK
6
CONTINUOUS
10
-4.55889
20
5.5896
11
-4.55964
21
5.5911
0
LINE
8
BLACK
6
CONTINUOUS
10
-4.55964
20
5.5911
11
-4.55966
21
5.59138
0
LINE
8
BLACK
6
CONTINUOUS
10
-4.55966
20
5.59138
11
-4.55977
21
5.59163
0
LINE
8
BLACK
6
CONTINUOUS
10
-4.55977
20
5.59163
11
-4.55977
21
5.59538
0
LINE
8
BLACK
6
CONTINUOUS
10
-4.55977
20
5.59538
11
-4.55966
21
5.59563
0
LINE
8
BLACK
6
CONTINUOUS
10
-4.55966
20
5.59563
11
-4.55964
21
5.59591
0
LINE
8
BLACK
6
CONTINUOUS
10
-4.55964
20
5.59591
11
-4.55889
21
5.59741
0
LINE
8
BLACK
6
CONTINUOUS
10
-4.55889
20
5.59741
11
-4.55875
21
5.59753
0
LINE
8
BLACK
6
CONTINUOUS
10
-4.55875
20
5.59753
11
-4.55867
21
5.59771
0
LINE
8
BLACK
6
CONTINUOUS
10
-4.55867
20
5.59771
11
-4.55792
21
5.59846
0
LINE
8
BLACK
6
CONTINUOUS
10
-4.55792
20
5.59846
11
-4.55709
21
5.59881
0
LINE
8
BLACK
6
CONTINUOUS
10
-4.55709
20
5.59881
11
-4.55625
21
5.59846
0
LINE
8
BLACK
6
CONTINUOUS
10
-4.55625
20
5.59846
11
-4.5559
21
5.59763
0
LINE
8
BLACK
6
CONTINUOUS
10
-4.5559
20
5.59763
11
-4.55625
21
5.59679
0
LINE
8
BLACK
6
CONTINUOUS
10
-4.55625
20
5.59679
11
-4.55686
21
5.59618
0
LINE
8
BLACK
6
CONTINUOUS
10
-4.55686
20
5.59618
11
-4.5574
21
5.5951
0
LINE
8
BLACK
6
CONTINUOUS
10
-4.5574
20
5.5951
11
-4.5574
21
5.59191
0
LINE
8
BLACK
6
CONTINUOUS
10
-4.5574
20
5.59191
11
-4.55686
21
5.59083
0
LINE
8
BLACK
6
CONTINUOUS
10
-4.55686
20
5.59083
11
-4.55639
21
5.59035
0
LINE
8
BLACK
6
CONTINUOUS
10
-4.55639
20
5.59035
11
-4.55531
21
5.58981
0
LINE
8
BLACK
6
CONTINUOUS
10
-4.55531
20
5.58981
11
-4.55428
21
5.58981
0
LINE
8
BLACK
6
CONTINUOUS
10
-4.55428
20
5.58981
11
-4.55247
21
5.59041
0
LINE
8
BLACK
6
CONTINUOUS
10
-4.55247
20
5.59041
11
-4.54367
21
5.59921
0
LINE
8
BLACK
6
CONTINUOUS
10
-4.54367
20
5.59921
11
-4.54284
21
5.59956
0
LINE
8
BLACK
6
CONTINUOUS
10
-4.54284
20
5.59956
11
-4.542
21
5.59921
0
LINE
8
BLACK
6
CONTINUOUS
10
-4.54945
20
5.6145
11
-4.5493
21
5.61452
0
LINE
8
BLACK
6
CONTINUOUS
10
-4.5493
20
5.61452
11
-4.5463
21
5.61377
0
LINE
8
BLACK
6
CONTINUOUS
10
-4.5463
20
5.61377
11
-4.54619
21
5.61369
0
LINE
8
BLACK
6
CONTINUOUS
10
-4.54619
20
5.61369
11
-4.54606
21
5.61368
0
LINE
8
BLACK
6
CONTINUOUS
10
-4.54606
20
5.61368
11
-4.54456
21
5.61293
0
LINE
8
BLACK
6
CONTINUOUS
10
-4.54456
20
5.61293
11
-4.54443
21
5.61279
0
LINE
8
BLACK
6
CONTINUOUS
10
-4.54443
20
5.61279
11
-4.54425
21
5.61271
0
LINE
8
BLACK
6
CONTINUOUS
10
-4.54425
20
5.61271
11
-4.54275
21
5.61121
0
LINE
8
BLACK
6
CONTINUOUS
10
-4.54275
20
5.61121
11
-4.54265
21
5.61096
0
LINE
8
BLACK
6
CONTINUOUS
10
-4.54265
20
5.61096
11
-4.54247
21
5.61075
0
LINE
8
BLACK
6
CONTINUOUS
10
-4.54247
20
5.61075
11
-4.54172
21
5.6085
0
LINE
8
BLACK
6
CONTINUOUS
10
-4.54172
20
5.6085
11
-4.54173
21
5.60831
0
LINE
8
BLACK
6
CONTINUOUS
10
-4.54173
20
5.60831
11
-4.54166
21
5.60813
0
LINE
8
BLACK
6
CONTINUOUS
10
-4.54166
20
5.60813
11
-4.54166
21
5.60663
0
LINE
8
BLACK
6
CONTINUOUS
10
-4.54166
20
5.60663
11
-4.54173
21
5.60645
0
LINE
8
BLACK
6
CONTINUOUS
10
-4.54173
20
5.60645
11
-4.54172
21
5.60625
0
LINE
8
BLACK
6
CONTINUOUS
10
-4.54172
20
5.60625
11
-4.54247
21
5.604
0
LINE
8
BLACK
6
CONTINUOUS
10
-4.54247
20
5.604
11
-4.54265
21
5.6038
0
LINE
8
BLACK
6
CONTINUOUS
10
-4.54265
20
5.6038
11
-4.54275
21
5.60354
0
LINE
8
BLACK
6
CONTINUOUS
10
-4.54275
20
5.60354
11
-4.5435
21
5.60279
0
LINE
8
BLACK
6
CONTINUOUS
10
-4.5435
20
5.60279
11
-4.54434
21
5.60245
0
LINE
8
BLACK
6
CONTINUOUS
10
-4.54434
20
5.60245
11
-4.54517
21
5.60279
0
LINE
8
BLACK
6
CONTINUOUS
10
-4.54517
20
5.60279
11
-4.54552
21
5.60363
0
LINE
8
BLACK
6
CONTINUOUS
10
-4.54552
20
5.60363
11
-4.54517
21
5.60446
0
LINE
8
BLACK
6
CONTINUOUS
10
-4.54517
20
5.60446
11
-4.54462
21
5.60502
0
LINE
8
BLACK
6
CONTINUOUS
10
-4.54462
20
5.60502
11
-4.54402
21
5.60682
0
LINE
8
BLACK
6
CONTINUOUS
10
-4.54402
20
5.60682
11
-4.54402
21
5.60794
0
LINE
8
BLACK
6
CONTINUOUS
10
-4.54402
20
5.60794
11
-4.54462
21
5.60974
0
LINE
8
BLACK
6
CONTINUOUS
10
-4.54462
20
5.60974
11
-4.54579
21
5.61091
0
LINE
8
BLACK
6
CONTINUOUS
10
-4.54579
20
5.61091
11
-4.547
21
5.61151
0
LINE
8
BLACK
6
CONTINUOUS
10
-4.547
20
5.61151
11
-4.54973
21
5.6122
0
LINE
8
BLACK
6
CONTINUOUS
10
-4.54973
20
5.6122
11
-4.55169
21
5.6122
0
LINE
8
BLACK
6
CONTINUOUS
10
-4.55169
20
5.6122
11
-4.55442
21
5.61151
0
LINE
8
BLACK
6
CONTINUOUS
10
-4.55442
20
5.61151
11
-4.55564
21
5.61091
0
LINE
8
BLACK
6
CONTINUOUS
10
-4.55564
20
5.61091
11
-4.5568
21
5.60974
0
LINE
8
BLACK
6
CONTINUOUS
10
-4.5568
20
5.60974
11
-4.5574
21
5.60794
0
LINE
8
BLACK
6
CONTINUOUS
10
-4.5574
20
5.60794
11
-4.5574
21
5.60682
0
LINE
8
BLACK
6
CONTINUOUS
10
-4.5574
20
5.60682
11
-4.5568
21
5.60502
0
LINE
8
BLACK
6
CONTINUOUS
10
-4.5568
20
5.60502
11
-4.55625
21
5.60446
0
LINE
8
BLACK
6
CONTINUOUS
10
-4.55625
20
5.60446
11
-4.5559
21
5.60363
0
LINE
8
BLACK
6
CONTINUOUS
10
-4.5559
20
5.60363
11
-4.55625
21
5.60279
0
LINE
8
BLACK
6
CONTINUOUS
10
-4.55625
20
5.60279
11
-4.55709
21
5.60245
0
LINE
8
BLACK
6
CONTINUOUS
10
-4.55709
20
5.60245
11
-4.55792
21
5.60279
0
LINE
8
BLACK
6
CONTINUOUS
10
-4.55792
20
5.60279
11
-4.55867
21
5.60354
0
LINE
8
BLACK
6
CONTINUOUS
10
-4.55867
20
5.60354
11
-4.55878
21
5.6038
0
LINE
8
BLACK
6
CONTINUOUS
10
-4.55878
20
5.6038
11
-4.55896
21
5.604
0
LINE
8
BLACK
6
CONTINUOUS
10
-4.55896
20
5.604
11
-4.55971
21
5.60625
0
LINE
8
BLACK
6
CONTINUOUS
10
-4.55971
20
5.60625
11
-4.55969
21
5.60645
0
LINE
8
BLACK
6
CONTINUOUS
10
-4.55969
20
5.60645
11
-4.55977
21
5.60663
0
LINE
8
BLACK
6
CONTINUOUS
10
-4.55977
20
5.60663
11
-4.55977
21
5.60813
0
LINE
8
BLACK
6
CONTINUOUS
10
-4.55977
20
5.60813
11
-4.55969
21
5.60831
0
LINE
8
BLACK
6
CONTINUOUS
10
-4.55969
20
5.60831
11
-4.55971
21
5.6085
0
LINE
8
BLACK
6
CONTINUOUS
10
-4.55971
20
5.6085
11
-4.55896
21
5.61075
0
LINE
8
BLACK
6
CONTINUOUS
10
-4.55896
20
5.61075
11
-4.55878
21
5.61096
0
LINE
8
BLACK
6
CONTINUOUS
10
-4.55878
20
5.61096
11
-4.55867
21
5.61121
0
LINE
8
BLACK
6
CONTINUOUS
10
-4.55867
20
5.61121
11
-4.55717
21
5.61271
0
LINE
8
BLACK
6
CONTINUOUS
10
-4.55717
20
5.61271
11
-4.55699
21
5.61279
0
LINE
8
BLACK
6
CONTINUOUS
10
-4.55699
20
5.61279
11
-4.55686
21
5.61293
0
LINE
8
BLACK
6
CONTINUOUS
10
-4.55686
20
5.61293
11
-4.55536
21
5.61368
0
LINE
8
BLACK
6
CONTINUOUS
10
-4.55536
20
5.61368
11
-4.55523
21
5.61369
0
LINE
8
BLACK
6
CONTINUOUS
10
-4.55523
20
5.61369
11
-4.55512
21
5.61377
0
LINE
8
BLACK
6
CONTINUOUS
10
-4.55512
20
5.61377
11
-4.55212
21
5.61452
0
LINE
8
BLACK
6
CONTINUOUS
10
-4.55212
20
5.61452
11
-4.55197
21
5.6145
0
LINE
8
BLACK
6
CONTINUOUS
10
-4.55197
20
5.6145
11
-4.55184
21
5.61456
0
LINE
8
BLACK
6
CONTINUOUS
10
-4.55184
20
5.61456
11
-4.54959
21
5.61456
0
LINE
8
BLACK
6
CONTINUOUS
10
-4.54959
20
5.61456
11
-4.54945
21
5.6145
0
LINE
8
BLACK
6
CONTINUOUS
10
-4.53376
20
5.63447
11
-4.53237
21
5.63389
0
LINE
8
BLACK
6
CONTINUOUS
10
-4.53237
20
5.63389
11
-4.53179
21
5.6325
0
LINE
8
BLACK
6
CONTINUOUS
10
-4.53179
20
5.6325
11
-4.53179
21
5.56951
0
LINE
8
BLACK
6
CONTINUOUS
10
-4.53179
20
5.56951
11
-4.53237
21
5.56812
0
LINE
8
BLACK
6
CONTINUOUS
10
-4.53237
20
5.56812
11
-4.53376
21
5.56754
0
LINE
8
BLACK
6
CONTINUOUS
10
-4.53376
20
5.56754
11
-4.56624
21
5.56754
0
LINE
8
BLACK
6
CONTINUOUS
10
-4.56624
20
5.56754
11
-4.56763
21
5.56812
0
LINE
8
BLACK
6
CONTINUOUS
10
-4.56763
20
5.56812
11
-4.56821
21
5.56951
0
LINE
8
BLACK
6
CONTINUOUS
10
-4.56821
20
5.56951
11
-4.56821
21
5.6325
0
LINE
8
BLACK
6
CONTINUOUS
10
-4.56821
20
5.6325
11
-4.56763
21
5.63389
0
LINE
8
BLACK
6
CONTINUOUS
10
-4.56763
20
5.63389
11
-4.56624
21
5.63447
0
LINE
8
BLACK
6
CONTINUOUS
10
-4.56624
20
5.63447
11
-4.53376
21
5.63447
0
LINE
8
BLACK
6
CONTINUOUS
10
-4.56427
20
5.63053
11
-4.56427
21
5.57148
0
LINE
8
BLACK
6
CONTINUOUS
10
-4.56427
20
5.57148
11
-4.53573
21
5.57148
0
LINE
8
BLACK
6
CONTINUOUS
10
-4.53573
20
5.57148
11
-4.53573
21
5.63053
0
LINE
8
BLACK
6
CONTINUOUS
10
-4.53573
20
5.63053
11
-4.56427
21
5.63053
0
LINE
8
BLACK
6
CONTINUOUS
10
-4.647
20
5.62709
11
-4.64666
21
5.62625
0
LINE
8
BLACK
6
CONTINUOUS
10
-4.64666
20
5.62625
11
-4.64666
21
5.61725
0
LINE
8
BLACK
6
CONTINUOUS
10
-4.64666
20
5.61725
11
-4.647
21
5.61642
0
LINE
8
BLACK
6
CONTINUOUS
10
-4.647
20
5.61642
11
-4.64784
21
5.61607
0
LINE
8
BLACK
6
CONTINUOUS
10
-4.64784
20
5.61607
11
-4.64867
21
5.61642
0
LINE
8
BLACK
6
CONTINUOUS
10
-4.64867
20
5.61642
11
-4.64902
21
5.61725
0
LINE
8
BLACK
6
CONTINUOUS
10
-4.64902
20
5.61725
11
-4.64902
21
5.62057
0
LINE
8
BLACK
6
CONTINUOUS
10
-4.64902
20
5.62057
11
-4.66359
21
5.62057
0
LINE
8
BLACK
6
CONTINUOUS
10
-4.66359
20
5.62057
11
-4.6637
21
5.62062
0
LINE
8
BLACK
6
CONTINUOUS
10
-4.6637
20
5.62062
11
-4.66382
21
5.62059
0
LINE
8
BLACK
6
CONTINUOUS
10
-4.66382
20
5.62059
11
-4.6641
21
5.62078
0
LINE
8
BLACK
6
CONTINUOUS
10
-4.6641
20
5.62078
11
-4.66442
21
5.62092
0
LINE
8
BLACK
6
CONTINUOUS
10
-4.66442
20
5.62092
11
-4.66447
21
5.62103
0
LINE
8
BLACK
6
CONTINUOUS
10
-4.66447
20
5.62103
11
-4.66457
21
5.6211
0
LINE
8
BLACK
6
CONTINUOUS
10
-4.66457
20
5.6211
11
-4.66464
21
5.62143
0
LINE
8
BLACK
6
CONTINUOUS
10
-4.66464
20
5.62143
11
-4.66477
21
5.62175
0
LINE
8
BLACK
6
CONTINUOUS
10
-4.66477
20
5.62175
11
-4.66472
21
5.62186
0
LINE
8
BLACK
6
CONTINUOUS
10
-4.66472
20
5.62186
11
-4.66474
21
5.62198
0
LINE
8
BLACK
6
CONTINUOUS
10
-4.66474
20
5.62198
11
-4.66455
21
5.62227
0
LINE
8
BLACK
6
CONTINUOUS
10
-4.66455
20
5.62227
11
-4.66442
21
5.62259
0
LINE
8
BLACK
6
CONTINUOUS
10
-4.66442
20
5.62259
11
-4.66431
21
5.62263
0
LINE
8
BLACK
6
CONTINUOUS
10
-4.66431
20
5.62263
11
-4.66424
21
5.62273
0
LINE
8
BLACK
6
CONTINUOUS
10
-4.66424
20
5.62273
11
-4.66209
21
5.62417
0
LINE
8
BLACK
6
CONTINUOUS
10
-4.66209
20
5.62417
11
-4.66081
21
5.62545
0
LINE
8
BLACK
6
CONTINUOUS
10
-4.66081
20
5.62545
11
-4.66014
21
5.62678
0
LINE
8
BLACK
6
CONTINUOUS
10
-4.66014
20
5.62678
11
-4.65946
21
5.62737
0
LINE
8
BLACK
6
CONTINUOUS
10
-4.65946
20
5.62737
11
-4.65856
21
5.62731
0
LINE
8
BLACK
6
CONTINUOUS
10
-4.65856
20
5.62731
11
-4.65797
21
5.62662
0
LINE
8
BLACK
6
CONTINUOUS
10
-4.65797
20
5.62662
11
-4.65803
21
5.62572
0
LINE
8
BLACK
6
CONTINUOUS
10
-4.65803
20
5.62572
11
-4.65878
21
5.62422
0
LINE
8
BLACK
6
CONTINUOUS
10
-4.65878
20
5.62422
11
-4.65893
21
5.62409
0
LINE
8
BLACK
6
CONTINUOUS
10
-4.65893
20
5.62409
11
-4.659
21
5.62392
0
LINE
8
BLACK
6
CONTINUOUS
10
-4.659
20
5.62392
11
-4.65998
21
5.62293
0
LINE
8
BLACK
6
CONTINUOUS
10
-4.65998
20
5.62293
11
-4.64902
21
5.62293
0
LINE
8
BLACK
6
CONTINUOUS
10
-4.64902
20
5.62293
11
-4.64902
21
5.62625
0
LINE
8
BLACK
6
CONTINUOUS
10
-4.64902
20
5.62625
11
-4.64867
21
5.62709
0
LINE
8
BLACK
6
CONTINUOUS
10
-4.64867
20
5.62709
11
-4.64784
21
5.62743
0
LINE
8
BLACK
6
CONTINUOUS
10
-4.64784
20
5.62743
11
-4.647
21
5.62709
0
LINE
8
BLACK
6
CONTINUOUS
10
-4.65058
20
5.64307
11
-4.65031
21
5.64305
0
LINE
8
BLACK
6
CONTINUOUS
10
-4.65031
20
5.64305
11
-4.64881
21
5.6423
0
LINE
8
BLACK
6
CONTINUOUS
10
-4.64881
20
5.6423
11
-4.64868
21
5.64216
0
LINE
8
BLACK
6
CONTINUOUS
10
-4.64868
20
5.64216
11
-4.6485
21
5.64208
0
LINE
8
BLACK
6
CONTINUOUS
10
-4.6485
20
5.64208
11
-4.64775
21
5.64133
0
LINE
8
BLACK
6
CONTINUOUS
10
-4.64775
20
5.64133
11
-4.64768
21
5.64115
0
LINE
8
BLACK
6
CONTINUOUS
10
-4.64768
20
5.64115
11
-4.64753
21
5.64103
0
LINE
8
BLACK
6
CONTINUOUS
10
-4.64753
20
5.64103
11
-4.64678
21
5.63953
0
LINE
8
BLACK
6
CONTINUOUS
10
-4.64678
20
5.63953
11
-4.64676
21
5.63925
0
LINE
8
BLACK
6
CONTINUOUS
10
-4.64676
20
5.63925
11
-4.64666
21
5.639
0
LINE
8
BLACK
6
CONTINUOUS
10
-4.64666
20
5.639
11
-4.64666
21
5.636
0
LINE
8
BLACK
6
CONTINUOUS
10
-4.64666
20
5.636
11
-4.64676
21
5.63575
0
LINE
8
BLACK
6
CONTINUOUS
10
-4.64676
20
5.63575
11
-4.64678
21
5.63547
0
LINE
8
BLACK
6
CONTINUOUS
10
-4.64678
20
5.63547
11
-4.64753
21
5.63397
0
LINE
8
BLACK
6
CONTINUOUS
10
-4.64753
20
5.63397
11
-4.64768
21
5.63384
0
LINE
8
BLACK
6
CONTINUOUS
10
-4.64768
20
5.63384
11
-4.64775
21
5.63366
0
LINE
8
BLACK
6
CONTINUOUS
10
-4.64775
20
5.63366
11
-4.6485
21
5.63291
0
LINE
8
BLACK
6
CONTINUOUS
10
-4.6485
20
5.63291
11
-4.64868
21
5.63284
0
LINE
8
BLACK
6
CONTINUOUS
10
-4.64868
20
5.63284
11
-4.64881
21
5.63269
0
LINE
8
BLACK
6
CONTINUOUS
10
-4.64881
20
5.63269
11
-4.65031
21
5.63194
0
LINE
8
BLACK
6
CONTINUOUS
10
-4.65031
20
5.63194
11
-4.65058
21
5.63192
0
LINE
8
BLACK
6
CONTINUOUS
10
-4.65058
20
5.63192
11
-4.65084
21
5.63182
0
LINE
8
BLACK
6
CONTINUOUS
10
-4.65084
20
5.63182
11
-4.66359
21
5.63182
0
LINE
8
BLACK
6
CONTINUOUS
10
-4.66359
20
5.63182
11
-4.66442
21
5.63216
0
LINE
8
BLACK
6
CONTINUOUS
10
-4.66442
20
5.63216
11
-4.66477
21
5.633
0
LINE
8
BLACK
6
CONTINUOUS
10
-4.66477
20
5.633
11
-4.66442
21
5.63383
0
LINE
8
BLACK
6
CONTINUOUS
10
-4.66442
20
5.63383
11
-4.66359
21
5.63418
0
LINE
8
BLACK
6
CONTINUOUS
10
-4.66359
20
5.63418
11
-4.65112
21
5.63418
0
LINE
8
BLACK
6
CONTINUOUS
10
-4.65112
20
5.63418
11
-4.65004
21
5.63472
0
LINE
8
BLACK
6
CONTINUOUS
10
-4.65004
20
5.63472
11
-4.64956
21
5.6352
0
LINE
8
BLACK
6
CONTINUOUS
10
-4.64956
20
5.6352
11
-4.64902
21
5.63628
0
LINE
8
BLACK
6
CONTINUOUS
10
-4.64902
20
5.63628
11
-4.64902
21
5.63872
0
LINE
8
BLACK
6
CONTINUOUS
10
-4.64902
20
5.63872
11
-4.64956
21
5.6398
0
LINE
8
BLACK
6
CONTINUOUS
10
-4.64956
20
5.6398
11
-4.65004
21
5.64028
0
LINE
8
BLACK
6
CONTINUOUS
10
-4.65004
20
5.64028
11
-4.65112
21
5.64082
0
LINE
8
BLACK
6
CONTINUOUS
10
-4.65112
20
5.64082
11
-4.66359
21
5.64082
0
LINE
8
BLACK
6
CONTINUOUS
10
-4.66359
20
5.64082
11
-4.66442
21
5.64116
0
LINE
8
BLACK
6
CONTINUOUS
10
-4.66442
20
5.64116
11
-4.66477
21
5.642
0
LINE
8
BLACK
6
CONTINUOUS
10
-4.66477
20
5.642
11
-4.66442
21
5.64283
0
LINE
8
BLACK
6
CONTINUOUS
10
-4.66442
20
5.64283
11
-4.66359
21
5.64318
0
LINE
8
BLACK
6
CONTINUOUS
10
-4.66359
20
5.64318
11
-4.65084
21
5.64318
0
LINE
8
BLACK
6
CONTINUOUS
10
-4.65084
20
5.64318
11
-4.65058
21
5.64307
0
LINE
8
BLACK
6
CONTINUOUS
10
-4.59791
20
5.66346
11
-4.59652
21
5.66289
0
LINE
8
BLACK
6
CONTINUOUS
10
-4.59652
20
5.66289
11
-4.59594
21
5.6615
0
LINE
8
BLACK
6
CONTINUOUS
10
-4.59594
20
5.6615
11
-4.59594
21
5.61425
0
LINE
8
BLACK
6
CONTINUOUS
10
-4.59594
20
5.61425
11
-4.59635
21
5.61327
0
LINE
8
BLACK
6
CONTINUOUS
10
-4.59635
20
5.61327
11
-4.59652
21
5.61286
0
LINE
8
BLACK
6
CONTINUOUS
10
-4.59652
20
5.61286
11
-4.61227
21
5.59711
0
LINE
8
BLACK
6
CONTINUOUS
10
-4.61227
20
5.59711
11
-4.61366
21
5.59654
0
LINE
8
BLACK
6
CONTINUOUS
10
-4.61366
20
5.59654
11
-4.71209
21
5.59654
0
LINE
8
BLACK
6
CONTINUOUS
10
-4.71209
20
5.59654
11
-4.71348
21
5.59711
0
LINE
8
BLACK
6
CONTINUOUS
10
-4.71348
20
5.59711
11
-4.71406
21
5.5985
0
LINE
8
BLACK
6
CONTINUOUS
10
-4.71406
20
5.5985
11
-4.71406
21
5.6615
0
LINE
8
BLACK
6
CONTINUOUS
10
-4.71406
20
5.6615
11
-4.71348
21
5.66289
0
LINE
8
BLACK
6
CONTINUOUS
10
-4.71348
20
5.66289
11
-4.71209
21
5.66346
0
LINE
8
BLACK
6
CONTINUOUS
10
-4.71209
20
5.66346
11
-4.59791
21
5.66346
0
LINE
8
BLACK
6
CONTINUOUS
10
-4.71012
20
5.65953
11
-4.71012
21
5.60047
0
LINE
8
BLACK
6
CONTINUOUS
10
-4.71012
20
5.60047
11
-4.61448
21
5.60047
0
LINE
8
BLACK
6
CONTINUOUS
10
-4.61448
20
5.60047
11
-4.59988
21
5.61507
0
LINE
8
BLACK
6
CONTINUOUS
10
-4.59988
20
5.61507
11
-4.59988
21
5.65953
0
LINE
8
BLACK
6
CONTINUOUS
10
-4.59988
20
5.65953
11
-4.71012
21
5.65953
0
LINE
8
BLACK
6
CONTINUOUS
10
-4.39971
20
5.68292
11
-4.39932
21
5.68198
0
LINE
8
BLACK
6
CONTINUOUS
10
-4.39932
20
5.68198
11
-4.39913
21
5.68153
0
LINE
8
BLACK
6
CONTINUOUS
10
-4.39913
20
5.68153
11
-4.39913
21
5.66934
0
LINE
8
BLACK
6
CONTINUOUS
10
-4.39913
20
5.66934
11
-4.39971
21
5.66795
0
LINE
8
BLACK
6
CONTINUOUS
10
-4.39971
20
5.66795
11
-4.4011
21
5.66737
0
LINE
8
BLACK
6
CONTINUOUS
10
-4.4011
20
5.66737
11
-4.40249
21
5.66795
0
LINE
8
BLACK
6
CONTINUOUS
10
-4.40249
20
5.66795
11
-4.40307
21
5.66934
0
LINE
8
BLACK
6
CONTINUOUS
10
-4.40307
20
5.66934
11
-4.40307
21
5.67677
0
LINE
8
BLACK
6
CONTINUOUS
10
-4.40307
20
5.67677
11
-4.41095
21
5.66889
0
LINE
8
BLACK
6
CONTINUOUS
10
-4.41095
20
5.66889
11
-4.41138
21
5.66871
0
LINE
8
BLACK
6
CONTINUOUS
10
-4.41138
20
5.66871
11
-4.41172
21
5.66841
0
LINE
8
BLACK
6
CONTINUOUS
10
-4.41172
20
5.66841
11
-4.41454
21
5.66747
0
LINE
8
BLACK
6
CONTINUOUS
10
-4.41454
20
5.66747
11
-4.41486
21
5.6675
0
LINE
8
BLACK
6
CONTINUOUS
10
-4.41486
20
5.6675
11
-4.41516
21
5.66737
0
LINE
8
BLACK
6
CONTINUOUS
10
-4.41516
20
5.66737
11
-4.41703
21
5.66737
0
LINE
8
BLACK
6
CONTINUOUS
10
-4.41703
20
5.66737
11
-4.41746
21
5.66755
0
LINE
8
BLACK
6
CONTINUOUS
10
-4.41746
20
5.66755
11
-4.41791
21
5.66758
0
LINE
8
BLACK
6
CONTINUOUS
10
-4.41791
20
5.66758
11
-4.41979
21
5.66852
0
LINE
8
BLACK
6
CONTINUOUS
10
-4.41979
20
5.66852
11
-4.42
21
5.66876
0
LINE
8
BLACK
6
CONTINUOUS
10
-4.42
20
5.66876
11
-4.4203
21
5.66889
0
LINE
8
BLACK
6
CONTINUOUS
10
-4.4203
20
5.66889
11
-4.42124
21
5.66982
0
LINE
8
BLACK
6
CONTINUOUS
10
-4.42124
20
5.66982
11
-4.42136
21
5.67012
0
LINE
8
BLACK
6
CONTINUOUS
10
-4.42136
20
5.67012
11
-4.42161
21
5.67033
0
LINE
8
BLACK
6
CONTINUOUS
10
-4.42161
20
5.67033
11
-4.42254
21
5.67221
0
LINE
8
BLACK
6
CONTINUOUS
10
-4.42254
20
5.67221
11
-4.42258
21
5.67267
0
LINE
8
BLACK
6
CONTINUOUS
10
-4.42258
20
5.67267
11
-4.42275
21
5.67309
0
LINE
8
BLACK
6
CONTINUOUS
10
-4.42275
20
5.67309
11
-4.42275
21
5.67778
0
LINE
8
BLACK
6
CONTINUOUS
10
-4.42275
20
5.67778
11
-4.42258
21
5.6782
0
LINE
8
BLACK
6
CONTINUOUS
10
-4.42258
20
5.6782
11
-4.42254
21
5.67866
0
LINE
8
BLACK
6
CONTINUOUS
10
-4.42254
20
5.67866
11
-4.42161
21
5.68053
0
LINE
8
BLACK
6
CONTINUOUS
10
-4.42161
20
5.68053
11
-4.42136
21
5.68074
0
LINE
8
BLACK
6
CONTINUOUS
10
-4.42136
20
5.68074
11
-4.42124
21
5.68104
0
LINE
8
BLACK
6
CONTINUOUS
10
-4.42124
20
5.68104
11
-4.4203
21
5.68198
0
LINE
8
BLACK
6
CONTINUOUS
10
-4.4203
20
5.68198
11
-4.41891
21
5.68256
0
LINE
8
BLACK
6
CONTINUOUS
10
-4.41891
20
5.68256
11
-4.41752
21
5.68198
0
LINE
8
BLACK
6
CONTINUOUS
10
-4.41752
20
5.68198
11
-4.41694
21
5.68059
0
LINE
8
BLACK
6
CONTINUOUS
10
-4.41694
20
5.68059
11
-4.41752
21
5.6792
0
LINE
8
BLACK
6
CONTINUOUS
10
-4.41752
20
5.6792
11
-4.41823
21
5.67849
0
LINE
8
BLACK
6
CONTINUOUS
10
-4.41823
20
5.67849
11
-4.41881
21
5.67731
0
LINE
8
BLACK
6
CONTINUOUS
10
-4.41881
20
5.67731
11
-4.41881
21
5.67355
0
LINE
8
BLACK
6
CONTINUOUS
10
-4.41881
20
5.67355
11
-4.41823
21
5.67238
0
LINE
8
BLACK
6
CONTINUOUS
10
-4.41823
20
5.67238
11
-4.41774
21
5.6719
0
LINE
8
BLACK
6
CONTINUOUS
10
-4.41774
20
5.6719
11
-4.41657
21
5.67131
0
LINE
8
BLACK
6
CONTINUOUS
10
-4.41657
20
5.67131
11
-4.41548
21
5.67131
0
LINE
8
BLACK
6
CONTINUOUS
10
-4.41548
20
5.67131
11
-4.41341
21
5.672
0
LINE
8
BLACK
6
CONTINUOUS
10
-4.41341
20
5.672
11
-4.40249
21
5.68292
0
LINE
8
BLACK
6
CONTINUOUS
10
-4.40249
20
5.68292
11
-4.4011
21
5.68349
0
LINE
8
BLACK
6
CONTINUOUS
10
-4.4011
20
5.68349
11
-4.39971
21
5.68292
0
LINE
8
BLACK
6
CONTINUOUS
10
-4.40442
20
5.70207
11
-4.40397
21
5.70203
0
LINE
8
BLACK
6
CONTINUOUS
10
-4.40397
20
5.70203
11
-4.40209
21
5.7011
0
LINE
8
BLACK
6
CONTINUOUS
10
-4.40209
20
5.7011
11
-4.40188
21
5.70085
0
LINE
8
BLACK
6
CONTINUOUS
10
-4.40188
20
5.70085
11
-4.40158
21
5.70073
0
LINE
8
BLACK
6
CONTINUOUS
10
-4.40158
20
5.70073
11
-4.40064
21
5.69979
0
LINE
8
BLACK
6
CONTINUOUS
10
-4.40064
20
5.69979
11
-4.40052
21
5.69949
0
LINE
8
BLACK
6
CONTINUOUS
10
-4.40052
20
5.69949
11
-4.40027
21
5.69928
0
LINE
8
BLACK
6
CONTINUOUS
10
-4.40027
20
5.69928
11
-4.39934
21
5.6974
0
LINE
8
BLACK
6
CONTINUOUS
10
-4.39934
20
5.6974
11
-4.3993
21
5.69695
0
LINE
8
BLACK
6
CONTINUOUS
10
-4.3993
20
5.69695
11
-4.39913
21
5.69652
0
LINE
8
BLACK
6
CONTINUOUS
10
-4.39913
20
5.69652
11
-4.39913
21
5.69277
0
LINE
8
BLACK
6
CONTINUOUS
10
-4.39913
20
5.69277
11
-4.3993
21
5.69235
0
LINE
8
BLACK
6
CONTINUOUS
10
-4.3993
20
5.69235
11
-4.39934
21
5.69189
0
LINE
8
BLACK
6
CONTINUOUS
10
-4.39934
20
5.69189
11
-4.40027
21
5.69002
0
LINE
8
BLACK
6
CONTINUOUS
10
-4.40027
20
5.69002
11
-4.40052
21
5.68981
0
LINE
8
BLACK
6
CONTINUOUS
10
-4.40052
20
5.68981
11
-4.40064
21
5.68951
0
LINE
8
BLACK
6
CONTINUOUS
10
-4.40064
20
5.68951
11
-4.40158
21
5.68857
0
LINE
8
BLACK
6
CONTINUOUS
10
-4.40158
20
5.68857
11
-4.40188
21
5.68845
0
LINE
8
BLACK
6
CONTINUOUS
10
-4.40188
20
5.68845
11
-4.40209
21
5.6882
0
LINE
8
BLACK
6
CONTINUOUS
10
-4.40209
20
5.6882
11
-4.40397
21
5.68726
0
LINE
8
BLACK
6
CONTINUOUS
10
-4.40397
20
5.68726
11
-4.40442
21
5.68723
0
LINE
8
BLACK
6
CONTINUOUS
10
-4.40442
20
5.68723
11
-4.40485
21
5.68706
0
LINE
8
BLACK
6
CONTINUOUS
10
-4.40485
20
5.68706
11
-4.42078
21
5.68706
0
LINE
8
BLACK
6
CONTINUOUS
10
-4.42078
20
5.68706
11
-4.42218
21
5.68763
0
LINE
8
BLACK
6
CONTINUOUS
10
-4.42218
20
5.68763
11
-4.42275
21
5.68903
0
LINE
8
BLACK
6
CONTINUOUS
10
-4.42275
20
5.68903
11
-4.42218
21
5.69042
0
LINE
8
BLACK
6
CONTINUOUS
10
-4.42218
20
5.69042
11
-4.42078
21
5.69099
0
LINE
8
BLACK
6
CONTINUOUS
10
-4.42078
20
5.69099
11
-4.40531
21
5.69099
0
LINE
8
BLACK
6
CONTINUOUS
10
-4.40531
20
5.69099
11
-4.40414
21
5.69158
0
LINE
8
BLACK
6
CONTINUOUS
10
-4.40414
20
5.69158
11
-4.40365
21
5.69207
0
LINE
8
BLACK
6
CONTINUOUS
10
-4.40365
20
5.69207
11
-4.40307
21
5.69324
0
LINE
8
BLACK
6
CONTINUOUS
10
-4.40307
20
5.69324
11
-4.40307
21
5.69606
0
LINE
8
BLACK
6
CONTINUOUS
10
-4.40307
20
5.69606
11
-4.40365
21
5.69723
0
LINE
8
BLACK
6
CONTINUOUS
10
-4.40365
20
5.69723
11
-4.40414
21
5.69772
0
LINE
8
BLACK
6
CONTINUOUS
10
-4.40414
20
5.69772
11
-4.40531
21
5.69831
0
LINE
8
BLACK
6
CONTINUOUS
10
-4.40531
20
5.69831
11
-4.42078
21
5.69831
0
LINE
8
BLACK
6
CONTINUOUS
10
-4.42078
20
5.69831
11
-4.42218
21
5.69888
0
LINE
8
BLACK
6
CONTINUOUS
10
-4.42218
20
5.69888
11
-4.42275
21
5.70027
0
LINE
8
BLACK
6
CONTINUOUS
10
-4.42275
20
5.70027
11
-4.42218
21
5.70167
0
LINE
8
BLACK
6
CONTINUOUS
10
-4.42218
20
5.70167
11
-4.42078
21
5.70224
0
LINE
8
BLACK
6
CONTINUOUS
10
-4.42078
20
5.70224
11
-4.40485
21
5.70224
0
LINE
8
BLACK
6
CONTINUOUS
10
-4.40485
20
5.70224
11
-4.40442
21
5.70207
0
LINE
8
BLACK
6
CONTINUOUS
10
-4.35094
20
5.7463
11
-4.34955
21
5.74572
0
LINE
8
BLACK
6
CONTINUOUS
10
-4.34955
20
5.74572
11
-4.34898
21
5.74433
0
LINE
8
BLACK
6
CONTINUOUS
10
-4.34898
20
5.74433
11
-4.34898
21
5.66559
0
LINE
8
BLACK
6
CONTINUOUS
10
-4.34898
20
5.66559
11
-4.34955
21
5.6642
0
LINE
8
BLACK
6
CONTINUOUS
10
-4.34955
20
5.6642
11
-4.38892
21
5.62483
0
LINE
8
BLACK
6
CONTINUOUS
10
-4.38892
20
5.62483
11
-4.39031
21
5.62425
0
LINE
8
BLACK
6
CONTINUOUS
10
-4.39031
20
5.62425
11
-4.46906
21
5.62425
0
LINE
8
BLACK
6
CONTINUOUS
10
-4.46906
20
5.62425
11
-4.47045
21
5.62483
0
LINE
8
BLACK
6
CONTINUOUS
10
-4.47045
20
5.62483
11
-4.47102
21
5.62622
0
LINE
8
BLACK
6
CONTINUOUS
10
-4.47102
20
5.62622
11
-4.47102
21
5.74433
0
LINE
8
BLACK
6
CONTINUOUS
10
-4.47102
20
5.74433
11
-4.47045
21
5.74572
0
LINE
8
BLACK
6
CONTINUOUS
10
-4.47045
20
5.74572
11
-4.46906
21
5.7463
0
LINE
8
BLACK
6
CONTINUOUS
10
-4.46906
20
5.7463
11
-4.35094
21
5.7463
0
LINE
8
BLACK
6
CONTINUOUS
10
-4.46709
20
5.74236
11
-4.46709
21
5.62819
0
LINE
8
BLACK
6
CONTINUOUS
10
-4.46709
20
5.62819
11
-4.39113
21
5.62819
0
LINE
8
BLACK
6
CONTINUOUS
10
-4.39113
20
5.62819
11
-4.35291
21
5.66641
0
LINE
8
BLACK
6
CONTINUOUS
10
-4.35291
20
5.66641
11
-4.35291
21
5.74236
0
LINE
8
BLACK
6
CONTINUOUS
10
-4.35291
20
5.74236
11
-4.46709
21
5.74236
0
LINE
8
BLACK
6
CONTINUOUS
10
-4.29283
20
5.7577
11
-4.29256
21
5.75768
0
LINE
8
BLACK
6
CONTINUOUS
10
-4.29256
20
5.75768
11
-4.29243
21
5.75753
0
LINE
8
BLACK
6
CONTINUOUS
10
-4.29243
20
5.75753
11
-4.29225
21
5.75746
0
LINE
8
BLACK
6
CONTINUOUS
10
-4.29225
20
5.75746
11
-4.29215
21
5.75721
0
LINE
8
BLACK
6
CONTINUOUS
10
-4.29215
20
5.75721
11
-4.29197
21
5.757
0
LINE
8
BLACK
6
CONTINUOUS
10
-4.29197
20
5.757
11
-4.29198
21
5.7568
0
LINE
8
BLACK
6
CONTINUOUS
10
-4.29198
20
5.7568
11
-4.29191
21
5.75663
0
LINE
8
BLACK
6
CONTINUOUS
10
-4.29191
20
5.75663
11
-4.29191
21
5.75031
0
LINE
8
BLACK
6
CONTINUOUS
10
-4.29191
20
5.75031
11
-4.28784
21
5.75031
0
LINE
8
BLACK
6
CONTINUOUS
10
-4.28784
20
5.75031
11
-4.287
21
5.74996
0
LINE
8
BLACK
6
CONTINUOUS
10
-4.287
20
5.74996
11
-4.28666
21
5.74913
0
LINE
8
BLACK
6
CONTINUOUS
10
-4.28666
20
5.74913
11
-4.287
21
5.74829
0
LINE
8
BLACK
6
CONTINUOUS
10
-4.287
20
5.74829
11
-4.28784
21
5.74795
0
LINE
8
BLACK
6
CONTINUOUS
10
-4.28784
20
5.74795
11
-4.29191
21
5.74795
0
LINE
8
BLACK
6
CONTINUOUS
10
-4.29191
20
5.74795
11
-4.29191
21
5.74688
0
LINE
8
BLACK
6
CONTINUOUS
10
-4.29191
20
5.74688
11
-4.29225
21
5.74604
0
LINE
8
BLACK
6
CONTINUOUS
10
-4.29225
20
5.74604
11
-4.29309
21
5.7457
0
LINE
8
BLACK
6
CONTINUOUS
10
-4.29309
20
5.7457
11
-4.29392
21
5.74604
0
LINE
8
BLACK
6
CONTINUOUS
10
-4.29392
20
5.74604
11
-4.29427
21
5.74688
0
LINE
8
BLACK
6
CONTINUOUS
10
-4.29427
20
5.74688
11
-4.29427
21
5.74795
0
LINE
8
BLACK
6
CONTINUOUS
10
-4.29427
20
5.74795
11
-4.29834
21
5.74795
0
LINE
8
BLACK
6
CONTINUOUS
10
-4.29834
20
5.74795
11
-4.29917
21
5.74829
0
LINE
8
BLACK
6
CONTINUOUS
10
-4.29917
20
5.74829
11
-4.29952
21
5.74913
0
LINE
8
BLACK
6
CONTINUOUS
10
-4.29952
20
5.74913
11
-4.29917
21
5.74996
0
LINE
8
BLACK
6
CONTINUOUS
10
-4.29917
20
5.74996
11
-4.29834
21
5.75031
0
LINE
8
BLACK
6
CONTINUOUS
10
-4.29834
20
5.75031
11
-4.29427
21
5.75031
0
LINE
8
BLACK
6
CONTINUOUS
10
-4.29427
20
5.75031
11
-4.29427
21
5.75499
0
LINE
8
BLACK
6
CONTINUOUS
10
-4.29427
20
5.75499
11
-4.30396
21
5.75176
0
LINE
8
BLACK
6
CONTINUOUS
10
-4.30396
20
5.75176
11
-4.30486
21
5.75182
0
LINE
8
BLACK
6
CONTINUOUS
10
-4.30486
20
5.75182
11
-4.30546
21
5.7525
0
LINE
8
BLACK
6
CONTINUOUS
10
-4.30546
20
5.7525
11
-4.30539
21
5.7534
0
LINE
8
BLACK
6
CONTINUOUS
10
-4.30539
20
5.7534
11
-4.30471
21
5.754
0
LINE
8
BLACK
6
CONTINUOUS
10
-4.30471
20
5.754
11
-4.29346
21
5.75775
0
LINE
8
BLACK
6
CONTINUOUS
10
-4.29346
20
5.75775
11
-4.29327
21
5.75773
0
LINE
8
BLACK
6
CONTINUOUS
10
-4.29327
20
5.75773
11
-4.29309
21
5.75781
0
LINE
8
BLACK
6
CONTINUOUS
10
-4.29309
20
5.75781
11
-4.29283
21
5.7577
0
LINE
8
BLACK
6
CONTINUOUS
10
-4.29445
20
5.7735
11
-4.2943
21
5.77352
0
LINE
8
BLACK
6
CONTINUOUS
10
-4.2943
20
5.77352
11
-4.2913
21
5.77277
0
LINE
8
BLACK
6
CONTINUOUS
10
-4.2913
20
5.77277
11
-4.29119
21
5.77269
0
LINE
8
BLACK
6
CONTINUOUS
10
-4.29119
20
5.77269
11
-4.29106
21
5.77268
0
LINE
8
BLACK
6
CONTINUOUS
10
-4.29106
20
5.77268
11
-4.28956
21
5.77193
0
LINE
8
BLACK
6
CONTINUOUS
10
-4.28956
20
5.77193
11
-4.28943
21
5.77178
0
LINE
8
BLACK
6
CONTINUOUS
10
-4.28943
20
5.77178
11
-4.28925
21
5.77171
0
LINE
8
BLACK
6
CONTINUOUS
10
-4.28925
20
5.77171
11
-4.28775
21
5.77021
0
LINE
8
BLACK
6
CONTINUOUS
10
-4.28775
20
5.77021
11
-4.28765
21
5.76995
0
LINE
8
BLACK
6
CONTINUOUS
10
-4.28765
20
5.76995
11
-4.28747
21
5.76975
0
LINE
8
BLACK
6
CONTINUOUS
10
-4.28747
20
5.76975
11
-4.28672
21
5.7675
0
LINE
8
BLACK
6
CONTINUOUS
10
-4.28672
20
5.7675
11
-4.28673
21
5.7673
0
LINE
8
BLACK
6
CONTINUOUS
10
-4.28673
20
5.7673
11
-4.28666
21
5.76712
0
LINE
8
BLACK
6
CONTINUOUS
10
-4.28666
20
5.76712
11
-4.28666
21
5.76562
0
LINE
8
BLACK
6
CONTINUOUS
10
-4.28666
20
5.76562
11
-4.28673
21
5.76544
0
LINE
8
BLACK
6
CONTINUOUS
10
-4.28673
20
5.76544
11
-4.28672
21
5.76525
0
LINE
8
BLACK
6
CONTINUOUS
10
-4.28672
20
5.76525
11
-4.28747
21
5.763
0
LINE
8
BLACK
6
CONTINUOUS
10
-4.28747
20
5.763
11
-4.28765
21
5.76279
0
LINE
8
BLACK
6
CONTINUOUS
10
-4.28765
20
5.76279
11
-4.28775
21
5.76254
0
LINE
8
BLACK
6
CONTINUOUS
10
-4.28775
20
5.76254
11
-4.2885
21
5.76179
0
LINE
8
BLACK
6
CONTINUOUS
10
-4.2885
20
5.76179
11
-4.28934
21
5.76144
0
LINE
8
BLACK
6
CONTINUOUS
10
-4.28934
20
5.76144
11
-4.29017
21
5.76179
0
LINE
8
BLACK
6
CONTINUOUS
10
-4.29017
20
5.76179
11
-4.29052
21
5.76262
0
LINE
8
BLACK
6
CONTINUOUS
10
-4.29052
20
5.76262
11
-4.29017
21
5.76346
0
LINE
8
BLACK
6
CONTINUOUS
10
-4.29017
20
5.76346
11
-4.28962
21
5.76401
0
LINE
8
BLACK
6
CONTINUOUS
10
-4.28962
20
5.76401
11
-4.28902
21
5.76582
0
LINE
8
BLACK
6
CONTINUOUS
10
-4.28902
20
5.76582
11
-4.28902
21
5.76693
0
LINE
8
BLACK
6
CONTINUOUS
10
-4.28902
20
5.76693
11
-4.28962
21
5.76874
0
LINE
8
BLACK
6
CONTINUOUS
10
-4.28962
20
5.76874
11
-4.29079
21
5.7699
0
LINE
8
BLACK
6
CONTINUOUS
10
-4.29079
20
5.7699
11
-4.292
21
5.77051
0
LINE
8
BLACK
6
CONTINUOUS
10
-4.292
20
5.77051
11
-4.29473
21
5.77119
0
LINE
8
BLACK
6
CONTINUOUS
10
-4.29473
20
5.77119
11
-4.29669
21
5.77119
0
LINE
8
BLACK
6
CONTINUOUS
10
-4.29669
20
5.77119
11
-4.29942
21
5.77051
0
LINE
8
BLACK
6
CONTINUOUS
10
-4.29942
20
5.77051
11
-4.30064
21
5.7699
0
LINE
8
BLACK
6
CONTINUOUS
10
-4.30064
20
5.7699
11
-4.3018
21
5.76874
0
LINE
8
BLACK
6
CONTINUOUS
10
-4.3018
20
5.76874
11
-4.3024
21
5.76693
0
LINE
8
BLACK
6
CONTINUOUS
10
-4.3024
20
5.76693
11
-4.3024
21
5.76582
0
LINE
8
BLACK
6
CONTINUOUS
10
-4.3024
20
5.76582
11
-4.3018
21
5.76401
0
LINE
8
BLACK
6
CONTINUOUS
10
-4.3018
20
5.76401
11
-4.30125
21
5.76346
0
LINE
8
BLACK
6
CONTINUOUS
10
-4.30125
20
5.76346
11
-4.3009
21
5.76262
0
LINE
8
BLACK
6
CONTINUOUS
10
-4.3009
20
5.76262
11
-4.30125
21
5.76179
0
LINE
8
BLACK
6
CONTINUOUS
10
-4.30125
20
5.76179
11
-4.30209
21
5.76144
0
LINE
8
BLACK
6
CONTINUOUS
10
-4.30209
20
5.76144
11
-4.30292
21
5.76179
0
LINE
8
BLACK
6
CONTINUOUS
10
-4.30292
20
5.76179
11
-4.30367
21
5.76254
0
LINE
8
BLACK
6
CONTINUOUS
10
-4.30367
20
5.76254
11
-4.30378
21
5.76279
0
LINE
8
BLACK
6
CONTINUOUS
10
-4.30378
20
5.76279
11
-4.30396
21
5.763
0
LINE
8
BLACK
6
CONTINUOUS
10
-4.30396
20
5.763
11
-4.30471
21
5.76525
0
LINE
8
BLACK
6
CONTINUOUS
10
-4.30471
20
5.76525
11
-4.30469
21
5.76544
0
LINE
8
BLACK
6
CONTINUOUS
10
-4.30469
20
5.76544
11
-4.30477
21
5.76562
0
LINE
8
BLACK
6
CONTINUOUS
10
-4.30477
20
5.76562
11
-4.30477
21
5.76712
0
LINE
8
BLACK
6
CONTINUOUS
10
-4.30477
20
5.76712
11
-4.30469
21
5.7673
0
LINE
8
BLACK
6
CONTINUOUS
10
-4.30469
20
5.7673
11
-4.30471
21
5.7675
0
LINE
8
BLACK
6
CONTINUOUS
10
-4.30471
20
5.7675
11
-4.30396
21
5.76975
0
LINE
8
BLACK
6
CONTINUOUS
10
-4.30396
20
5.76975
11
-4.30378
21
5.76995
0
LINE
8
BLACK
6
CONTINUOUS
10
-4.30378
20
5.76995
11
-4.30367
21
5.77021
0
LINE
8
BLACK
6
CONTINUOUS
10
-4.30367
20
5.77021
11
-4.30217
21
5.77171
0
LINE
8
BLACK
6
CONTINUOUS
10
-4.30217
20
5.77171
11
-4.30199
21
5.77178
0
LINE
8
BLACK
6
CONTINUOUS
10
-4.30199
20
5.77178
11
-4.30186
21
5.77193
0
LINE
8
BLACK
6
CONTINUOUS
10
-4.30186
20
5.77193
11
-4.30036
21
5.77268
0
LINE
8
BLACK
6
CONTINUOUS
10
-4.30036
20
5.77268
11
-4.30023
21
5.77269
0
LINE
8
BLACK
6
CONTINUOUS
10
-4.30023
20
5.77269
11
-4.30012
21
5.77277
0
LINE
8
BLACK
6
CONTINUOUS
10
-4.30012
20
5.77277
11
-4.29712
21
5.77352
0
LINE
8
BLACK
6
CONTINUOUS
10
-4.29712
20
5.77352
11
-4.29697
21
5.7735
0
LINE
8
BLACK
6
CONTINUOUS
10
-4.29697
20
5.7735
11
-4.29684
21
5.77355
0
LINE
8
BLACK
6
CONTINUOUS
10
-4.29684
20
5.77355
11
-4.29459
21
5.77355
0
LINE
8
BLACK
6
CONTINUOUS
10
-4.29459
20
5.77355
11
-4.29445
21
5.7735
0
LINE
8
BLACK
6
CONTINUOUS
10
-4.27876
20
5.79346
11
-4.27737
21
5.79289
0
LINE
8
BLACK
6
CONTINUOUS
10
-4.27737
20
5.79289
11
-4.27679
21
5.7915
0
LINE
8
BLACK
6
CONTINUOUS
10
-4.27679
20
5.7915
11
-4.27679
21
5.7285
0
LINE
8
BLACK
6
CONTINUOUS
10
-4.27679
20
5.7285
11
-4.27737
21
5.72711
0
LINE
8
BLACK
6
CONTINUOUS
10
-4.27737
20
5.72711
11
-4.27876
21
5.72654
0
LINE
8
BLACK
6
CONTINUOUS
10
-4.27876
20
5.72654
11
-4.31124
21
5.72654
0
LINE
8
BLACK
6
CONTINUOUS
10
-4.31124
20
5.72654
11
-4.31263
21
5.72711
0
LINE
8
BLACK
6
CONTINUOUS
10
-4.31263
20
5.72711
11
-4.31321
21
5.7285
0
LINE
8
BLACK
6
CONTINUOUS
10
-4.31321
20
5.7285
11
-4.31321
21
5.7915
0
LINE
8
BLACK
6
CONTINUOUS
10
-4.31321
20
5.7915
11
-4.31263
21
5.79289
0
LINE
8
BLACK
6
CONTINUOUS
10
-4.31263
20
5.79289
11
-4.31124
21
5.79346
0
LINE
8
BLACK
6
CONTINUOUS
10
-4.31124
20
5.79346
11
-4.27876
21
5.79346
0
LINE
8
BLACK
6
CONTINUOUS
10
-4.30927
20
5.78953
11
-4.30927
21
5.73047
0
LINE
8
BLACK
6
CONTINUOUS
10
-4.30927
20
5.73047
11
-4.28073
21
5.73047
0
LINE
8
BLACK
6
CONTINUOUS
10
-4.28073
20
5.73047
11
-4.28073
21
5.78953
0
LINE
8
BLACK
6
CONTINUOUS
10
-4.28073
20
5.78953
11
-4.30927
21
5.78953
0
LINE
8
BLACK
6
CONTINUOUS
10
-4.5385
20
5.76221
11
-4.53775
21
5.76146
0
LINE
8
BLACK
6
CONTINUOUS
10
-4.53775
20
5.76146
11
-4.53768
21
5.76128
0
LINE
8
BLACK
6
CONTINUOUS
10
-4.53768
20
5.76128
11
-4.53753
21
5.76115
0
LINE
8
BLACK
6
CONTINUOUS
10
-4.53753
20
5.76115
11
-4.53678
21
5.75965
0
LINE
8
BLACK
6
CONTINUOUS
10
-4.53678
20
5.75965
11
-4.53676
21
5.75938
0
LINE
8
BLACK
6
CONTINUOUS
10
-4.53676
20
5.75938
11
-4.53666
21
5.75912
0
LINE
8
BLACK
6
CONTINUOUS
10
-4.53666
20
5.75912
11
-4.53666
21
5.75462
0
LINE
8
BLACK
6
CONTINUOUS
10
-4.53666
20
5.75462
11
-4.53676
21
5.75437
0
LINE
8
BLACK
6
CONTINUOUS
10
-4.53676
20
5.75437
11
-4.53678
21
5.75409
0
LINE
8
BLACK
6
CONTINUOUS
10
-4.53678
20
5.75409
11
-4.53753
21
5.75259
0
LINE
8
BLACK
6
CONTINUOUS
10
-4.53753
20
5.75259
11
-4.53768
21
5.75247
0
LINE
8
BLACK
6
CONTINUOUS
10
-4.53768
20
5.75247
11
-4.53775
21
5.75229
0
LINE
8
BLACK
6
CONTINUOUS
10
-4.53775
20
5.75229
11
-4.5385
21
5.75154
0
LINE
8
BLACK
6
CONTINUOUS
10
-4.5385
20
5.75154
11
-4.53868
21
5.75146
0
LINE
8
BLACK
6
CONTINUOUS
10
-4.53868
20
5.75146
11
-4.53881
21
5.75132
0
LINE
8
BLACK
6
CONTINUOUS
10
-4.53881
20
5.75132
11
-4.54031
21
5.75057
0
LINE
8
BLACK
6
CONTINUOUS
10
-4.54031
20
5.75057
11
-4.54058
21
5.75055
0
LINE
8
BLACK
6
CONTINUOUS
10
-4.54058
20
5.75055
11
-4.54084
21
5.75044
0
LINE
8
BLACK
6
CONTINUOUS
10
-4.54084
20
5.75044
11
-4.54459
21
5.75044
0
LINE
8
BLACK
6
CONTINUOUS
10
-4.54459
20
5.75044
11
-4.54484
21
5.75055
0
LINE
8
BLACK
6
CONTINUOUS
10
-4.54484
20
5.75055
11
-4.54511
21
5.75057
0
LINE
8
BLACK
6
CONTINUOUS
10
-4.54511
20
5.75057
11
-4.54661
21
5.75132
0
LINE
8
BLACK
6
CONTINUOUS
10
-4.54661
20
5.75132
11
-4.54674
21
5.75146
0
LINE
8
BLACK
6
CONTINUOUS
10
-4.54674
20
5.75146
11
-4.54692
21
5.75154
0
LINE
8
BLACK
6
CONTINUOUS
10
-4.54692
20
5.75154
11
-4.54767
21
5.75229
0
LINE
8
BLACK
6
CONTINUOUS
10
-4.54767
20
5.75229
11
-4.54775
21
5.75247
0
LINE
8
BLACK
6
CONTINUOUS
10
-4.54775
20
5.75247
11
-4.54789
21
5.75259
0
LINE
8
BLACK
6
CONTINUOUS
10
-4.54789
20
5.75259
11
-4.54864
21
5.75409
0
LINE
8
BLACK
6
CONTINUOUS
10
-4.54864
20
5.75409
11
-4.54866
21
5.75436
0
LINE
8
BLACK
6
CONTINUOUS
10
-4.54866
20
5.75436
11
-4.55281
21
5.75073
0
LINE
8
BLACK
6
CONTINUOUS
10
-4.55281
20
5.75073
11
-4.5532
21
5.7506
0
LINE
8
BLACK
6
CONTINUOUS
10
-4.5532
20
5.7506
11
-4.55359
21
5.75044
0
LINE
8
BLACK
6
CONTINUOUS
10
-4.55359
20
5.75044
11
-4.55362
21
5.75046
0
LINE
8
BLACK
6
CONTINUOUS
10
-4.55362
20
5.75046
11
-4.55366
21
5.75044
0
LINE
8
BLACK
6
CONTINUOUS
10
-4.55366
20
5.75044
11
-4.55404
21
5.75063
0
LINE
8
BLACK
6
CONTINUOUS
10
-4.55404
20
5.75063
11
-4.55442
21
5.75079
0
LINE
8
BLACK
6
CONTINUOUS
10
-4.55442
20
5.75079
11
-4.55444
21
5.75083
0
LINE
8
BLACK
6
CONTINUOUS
10
-4.55444
20
5.75083
11
-4.55447
21
5.75084
0
LINE
8
BLACK
6
CONTINUOUS
10
-4.55447
20
5.75084
11
-4.55461
21
5.75124
0
LINE
8
BLACK
6
CONTINUOUS
10
-4.55461
20
5.75124
11
-4.55477
21
5.75162
0
LINE
8
BLACK
6
CONTINUOUS
10
-4.55477
20
5.75162
11
-4.55477
21
5.76137
0
LINE
8
BLACK
6
CONTINUOUS
10
-4.55477
20
5.76137
11
-4.55442
21
5.76221
0
LINE
8
BLACK
6
CONTINUOUS
10
-4.55442
20
5.76221
11
-4.55359
21
5.76255
0
LINE
8
BLACK
6
CONTINUOUS
10
-4.55359
20
5.76255
11
-4.55275
21
5.76221
0
LINE
8
BLACK
6
CONTINUOUS
10
-4.55275
20
5.76221
11
-4.5524
21
5.76137
0
LINE
8
BLACK
6
CONTINUOUS
10
-4.5524
20
5.76137
11
-4.5524
21
5.75423
0
LINE
8
BLACK
6
CONTINUOUS
10
-4.5524
20
5.75423
11
-4.54836
21
5.75776
0
LINE
8
BLACK
6
CONTINUOUS
10
-4.54836
20
5.75776
11
-4.54797
21
5.75789
0
LINE
8
BLACK
6
CONTINUOUS
10
-4.54797
20
5.75789
11
-4.54759
21
5.75805
0
LINE
8
BLACK
6
CONTINUOUS
10
-4.54759
20
5.75805
11
-4.54755
21
5.75804
0
LINE
8
BLACK
6
CONTINUOUS
10
-4.54755
20
5.75804
11
-4.54751
21
5.75805
0
LINE
8
BLACK
6
CONTINUOUS
10
-4.54751
20
5.75805
11
-4.54714
21
5.75787
0
LINE
8
BLACK
6
CONTINUOUS
10
-4.54714
20
5.75787
11
-4.54675
21
5.75771
0
LINE
8
BLACK
6
CONTINUOUS
10
-4.54675
20
5.75771
11
-4.54674
21
5.75767
0
LINE
8
BLACK
6
CONTINUOUS
10
-4.54674
20
5.75767
11
-4.5467
21
5.75765
0
LINE
8
BLACK
6
CONTINUOUS
10
-4.5467
20
5.75765
11
-4.54656
21
5.75726
0
LINE
8
BLACK
6
CONTINUOUS
10
-4.54656
20
5.75726
11
-4.54641
21
5.75687
0
LINE
8
BLACK
6
CONTINUOUS
10
-4.54641
20
5.75687
11
-4.54641
21
5.7549
0
LINE
8
BLACK
6
CONTINUOUS
10
-4.54641
20
5.7549
11
-4.54587
21
5.75382
0
LINE
8
BLACK
6
CONTINUOUS
10
-4.54587
20
5.75382
11
-4.54539
21
5.75334
0
LINE
8
BLACK
6
CONTINUOUS
10
-4.54539
20
5.75334
11
-4.54431
21
5.7528
0
LINE
8
BLACK
6
CONTINUOUS
10
-4.54431
20
5.7528
11
-4.54112
21
5.7528
0
LINE
8
BLACK
6
CONTINUOUS
10
-4.54112
20
5.7528
11
-4.54004
21
5.75334
0
LINE
8
BLACK
6
CONTINUOUS
10
-4.54004
20
5.75334
11
-4.53956
21
5.75382
0
LINE
8
BLACK
6
CONTINUOUS
10
-4.53956
20
5.75382
11
-4.53902
21
5.7549
0
LINE
8
BLACK
6
CONTINUOUS
10
-4.53902
20
5.7549
11
-4.53902
21
5.75884
0
LINE
8
BLACK
6
CONTINUOUS
10
-4.53902
20
5.75884
11
-4.53956
21
5.75992
0
LINE
8
BLACK
6
CONTINUOUS
10
-4.53956
20
5.75992
11
-4.54017
21
5.76054
0
LINE
8
BLACK
6
CONTINUOUS
10
-4.54017
20
5.76054
11
-4.54052
21
5.76137
0
LINE
8
BLACK
6
CONTINUOUS
10
-4.54052
20
5.76137
11
-4.54017
21
5.76221
0
LINE
8
BLACK
6
CONTINUOUS
10
-4.54017
20
5.76221
11
-4.53934
21
5.76255
0
LINE
8
BLACK
6
CONTINUOUS
10
-4.53934
20
5.76255
11
-4.5385
21
5.76221
0
LINE
8
BLACK
6
CONTINUOUS
10
-4.54445
20
5.77749
11
-4.5443
21
5.77752
0
LINE
8
BLACK
6
CONTINUOUS
10
-4.5443
20
5.77752
11
-4.5413
21
5.77677
0
LINE
8
BLACK
6
CONTINUOUS
10
-4.5413
20
5.77677
11
-4.54119
21
5.77669
0
LINE
8
BLACK
6
CONTINUOUS
10
-4.54119
20
5.77669
11
-4.54106
21
5.77668
0
LINE
8
BLACK
6
CONTINUOUS
10
-4.54106
20
5.77668
11
-4.53956
21
5.77593
0
LINE
8
BLACK
6
CONTINUOUS
10
-4.53956
20
5.77593
11
-4.53943
21
5.77578
0
LINE
8
BLACK
6
CONTINUOUS
10
-4.53943
20
5.77578
11
-4.53925
21
5.7757
0
LINE
8
BLACK
6
CONTINUOUS
10
-4.53925
20
5.7757
11
-4.53775
21
5.77421
0
LINE
8
BLACK
6
CONTINUOUS
10
-4.53775
20
5.77421
11
-4.53765
21
5.77395
0
LINE
8
BLACK
6
CONTINUOUS
10
-4.53765
20
5.77395
11
-4.53747
21
5.77374
0
LINE
8
BLACK
6
CONTINUOUS
10
-4.53747
20
5.77374
11
-4.53672
21
5.77149
0
LINE
8
BLACK
6
CONTINUOUS
10
-4.53672
20
5.77149
11
-4.53673
21
5.7713
0
LINE
8
BLACK
6
CONTINUOUS
10
-4.53673
20
5.7713
11
-4.53666
21
5.77112
0
LINE
8
BLACK
6
CONTINUOUS
10
-4.53666
20
5.77112
11
-4.53666
21
5.76962
0
LINE
8
BLACK
6
CONTINUOUS
10
-4.53666
20
5.76962
11
-4.53673
21
5.76944
0
LINE
8
BLACK
6
CONTINUOUS
10
-4.53673
20
5.76944
11
-4.53672
21
5.76925
0
LINE
8
BLACK
6
CONTINUOUS
10
-4.53672
20
5.76925
11
-4.53747
21
5.767
0
LINE
8
BLACK
6
CONTINUOUS
10
-4.53747
20
5.767
11
-4.53765
21
5.76679
0
LINE
8
BLACK
6
CONTINUOUS
10
-4.53765
20
5.76679
11
-4.53775
21
5.76654
0
LINE
8
BLACK
6
CONTINUOUS
10
-4.53775
20
5.76654
11
-4.5385
21
5.76579
0
LINE
8
BLACK
6
CONTINUOUS
10
-4.5385
20
5.76579
11
-4.53934
21
5.76544
0
LINE
8
BLACK
6
CONTINUOUS
10
-4.53934
20
5.76544
11
-4.54017
21
5.76579
0
LINE
8
BLACK
6
CONTINUOUS
10
-4.54017
20
5.76579
11
-4.54052
21
5.76662
0
LINE
8
BLACK
6
CONTINUOUS
10
-4.54052
20
5.76662
11
-4.54017
21
5.76746
0
LINE
8
BLACK
6
CONTINUOUS
10
-4.54017
20
5.76746
11
-4.53962
21
5.76801
0
LINE
8
BLACK
6
CONTINUOUS
10
-4.53962
20
5.76801
11
-4.53902
21
5.76981
0
LINE
8
BLACK
6
CONTINUOUS
10
-4.53902
20
5.76981
11
-4.53902
21
5.77093
0
LINE
8
BLACK
6
CONTINUOUS
10
-4.53902
20
5.77093
11
-4.53962
21
5.77273
0
LINE
8
BLACK
6
CONTINUOUS
10
-4.53962
20
5.77273
11
-4.54079
21
5.7739
0
LINE
8
BLACK
6
CONTINUOUS
10
-4.54079
20
5.7739
11
-4.542
21
5.77451
0
LINE
8
BLACK
6
CONTINUOUS
10
-4.542
20
5.77451
11
-4.54473
21
5.77519
0
LINE
8
BLACK
6
CONTINUOUS
10
-4.54473
20
5.77519
11
-4.54669
21
5.77519
0
LINE
8
BLACK
6
CONTINUOUS
10
-4.54669
20
5.77519
11
-4.54942
21
5.77451
0
LINE
8
BLACK
6
CONTINUOUS
10
-4.54942
20
5.77451
11
-4.55064
21
5.7739
0
LINE
8
BLACK
6
CONTINUOUS
10
-4.55064
20
5.7739
11
-4.5518
21
5.77273
0
LINE
8
BLACK
6
CONTINUOUS
10
-4.5518
20
5.77273
11
-4.5524
21
5.77093
0
LINE
8
BLACK
6
CONTINUOUS
10
-4.5524
20
5.77093
11
-4.5524
21
5.76981
0
LINE
8
BLACK
6
CONTINUOUS
10
-4.5524
20
5.76981
11
-4.5518
21
5.76801
0
LINE
8
BLACK
6
CONTINUOUS
10
-4.5518
20
5.76801
11
-4.55125
21
5.76746
0
LINE
8
BLACK
6
CONTINUOUS
10
-4.55125
20
5.76746
11
-4.5509
21
5.76662
0
LINE
8
BLACK
6
CONTINUOUS
10
-4.5509
20
5.76662
11
-4.55125
21
5.76579
0
LINE
8
BLACK
6
CONTINUOUS
10
-4.55125
20
5.76579
11
-4.55209
21
5.76544
0
LINE
8
BLACK
6
CONTINUOUS
10
-4.55209
20
5.76544
11
-4.55292
21
5.76579
0
LINE
8
BLACK
6
CONTINUOUS
10
-4.55292
20
5.76579
11
-4.55367
21
5.76654
0
LINE
8
BLACK
6
CONTINUOUS
10
-4.55367
20
5.76654
11
-4.55378
21
5.76679
0
LINE
8
BLACK
6
CONTINUOUS
10
-4.55378
20
5.76679
11
-4.55396
21
5.767
0
LINE
8
BLACK
6
CONTINUOUS
10
-4.55396
20
5.767
11
-4.55471
21
5.76925
0
LINE
8
BLACK
6
CONTINUOUS
10
-4.55471
20
5.76925
11
-4.55469
21
5.76944
0
LINE
8
BLACK
6
CONTINUOUS
10
-4.55469
20
5.76944
11
-4.55477
21
5.76962
0
LINE
8
BLACK
6
CONTINUOUS
10
-4.55477
20
5.76962
11
-4.55477
21
5.77112
0
LINE
8
BLACK
6
CONTINUOUS
10
-4.55477
20
5.77112
11
-4.55469
21
5.7713
0
LINE
8
BLACK
6
CONTINUOUS
10
-4.55469
20
5.7713
11
-4.55471
21
5.77149
0
LINE
8
BLACK
6
CONTINUOUS
10
-4.55471
20
5.77149
11
-4.55396
21
5.77374
0
LINE
8
BLACK
6
CONTINUOUS
10
-4.55396
20
5.77374
11
-4.55378
21
5.77395
0
LINE
8
BLACK
6
CONTINUOUS
10
-4.55378
20
5.77395
11
-4.55367
21
5.77421
0
LINE
8
BLACK
6
CONTINUOUS
10
-4.55367
20
5.77421
11
-4.55217
21
5.7757
0
LINE
8
BLACK
6
CONTINUOUS
10
-4.55217
20
5.7757
11
-4.55199
21
5.77578
0
LINE
8
BLACK
6
CONTINUOUS
10
-4.55199
20
5.77578
11
-4.55186
21
5.77593
0
LINE
8
BLACK
6
CONTINUOUS
10
-4.55186
20
5.77593
11
-4.55036
21
5.77668
0
LINE
8
BLACK
6
CONTINUOUS
10
-4.55036
20
5.77668
11
-4.55023
21
5.77669
0
LINE
8
BLACK
6
CONTINUOUS
10
-4.55023
20
5.77669
11
-4.55012
21
5.77677
0
LINE
8
BLACK
6
CONTINUOUS
10
-4.55012
20
5.77677
11
-4.54712
21
5.77752
0
LINE
8
BLACK
6
CONTINUOUS
10
-4.54712
20
5.77752
11
-4.54697
21
5.77749
0
LINE
8
BLACK
6
CONTINUOUS
10
-4.54697
20
5.77749
11
-4.54684
21
5.77755
0
LINE
8
BLACK
6
CONTINUOUS
10
-4.54684
20
5.77755
11
-4.54459
21
5.77755
0
LINE
8
BLACK
6
CONTINUOUS
10
-4.54459
20
5.77755
11
-4.54445
21
5.77749
0
LINE
8
BLACK
6
CONTINUOUS
10
-4.52876
20
5.79746
11
-4.52737
21
5.79688
0
LINE
8
BLACK
6
CONTINUOUS
10
-4.52737
20
5.79688
11
-4.52679
21
5.79549
0
LINE
8
BLACK
6
CONTINUOUS
10
-4.52679
20
5.79549
11
-4.52679
21
5.7325
0
LINE
8
BLACK
6
CONTINUOUS
10
-4.52679
20
5.7325
11
-4.52737
21
5.73111
0
LINE
8
BLACK
6
CONTINUOUS
10
-4.52737
20
5.73111
11
-4.52876
21
5.73053
0
LINE
8
BLACK
6
CONTINUOUS
10
-4.52876
20
5.73053
11
-4.56124
21
5.73053
0
LINE
8
BLACK
6
CONTINUOUS
10
-4.56124
20
5.73053
11
-4.56263
21
5.73111
0
LINE
8
BLACK
6
CONTINUOUS
10
-4.56263
20
5.73111
11
-4.56321
21
5.7325
0
LINE
8
BLACK
6
CONTINUOUS
10
-4.56321
20
5.7325
11
-4.56321
21
5.79549
0
LINE
8
BLACK
6
CONTINUOUS
10
-4.56321
20
5.79549
11
-4.56263
21
5.79688
0
LINE
8
BLACK
6
CONTINUOUS
10
-4.56263
20
5.79688
11
-4.56124
21
5.79746
0
LINE
8
BLACK
6
CONTINUOUS
10
-4.56124
20
5.79746
11
-4.52876
21
5.79746
0
LINE
8
BLACK
6
CONTINUOUS
10
-4.55927
20
5.79352
11
-4.55927
21
5.73447
0
LINE
8
BLACK
6
CONTINUOUS
10
-4.55927
20
5.73447
11
-4.53073
21
5.73447
0
LINE
8
BLACK
6
CONTINUOUS
10
-4.53073
20
5.73447
11
-4.53073
21
5.79352
0
LINE
8
BLACK
6
CONTINUOUS
10
-4.53073
20
5.79352
11
-4.55927
21
5.79352
0
LINE
8
BLACK
6
CONTINUOUS
10
-4.60494
20
5.7744
11
-4.60448
21
5.77328
0
LINE
8
BLACK
6
CONTINUOUS
10
-4.60448
20
5.77328
11
-4.60448
21
5.76203
0
LINE
8
BLACK
6
CONTINUOUS
10
-4.60448
20
5.76203
11
-4.60494
21
5.76092
0
LINE
8
BLACK
6
CONTINUOUS
10
-4.60494
20
5.76092
11
-4.60606
21
5.76046
0
LINE
8
BLACK
6
CONTINUOUS
10
-4.60606
20
5.76046
11
-4.60717
21
5.76092
0
LINE
8
BLACK
6
CONTINUOUS
10
-4.60717
20
5.76092
11
-4.60763
21
5.76203
0
LINE
8
BLACK
6
CONTINUOUS
10
-4.60763
20
5.76203
11
-4.60763
21
5.76608
0
LINE
8
BLACK
6
CONTINUOUS
10
-4.60763
20
5.76608
11
-4.62574
21
5.76608
0
LINE
8
BLACK
6
CONTINUOUS
10
-4.62574
20
5.76608
11
-4.62589
21
5.76614
0
LINE
8
BLACK
6
CONTINUOUS
10
-4.62589
20
5.76614
11
-4.62605
21
5.76611
0
LINE
8
BLACK
6
CONTINUOUS
10
-4.62605
20
5.76611
11
-4.62643
21
5.76637
0
LINE
8
BLACK
6
CONTINUOUS
10
-4.62643
20
5.76637
11
-4.62686
21
5.76654
0
LINE
8
BLACK
6
CONTINUOUS
10
-4.62686
20
5.76654
11
-4.62692
21
5.76669
0
LINE
8
BLACK
6
CONTINUOUS
10
-4.62692
20
5.76669
11
-4.62705
21
5.76678
0
LINE
8
BLACK
6
CONTINUOUS
10
-4.62705
20
5.76678
11
-4.62714
21
5.76723
0
LINE
8
BLACK
6
CONTINUOUS
10
-4.62714
20
5.76723
11
-4.62732
21
5.76766
0
LINE
8
BLACK
6
CONTINUOUS
10
-4.62732
20
5.76766
11
-4.62725
21
5.76781
0
LINE
8
BLACK
6
CONTINUOUS
10
-4.62725
20
5.76781
11
-4.62729
21
5.76797
0
LINE
8
BLACK
6
CONTINUOUS
10
-4.62729
20
5.76797
11
-4.62703
21
5.76835
0
LINE
8
BLACK
6
CONTINUOUS
10
-4.62703
20
5.76835
11
-4.62686
21
5.76877
0
LINE
8
BLACK
6
CONTINUOUS
10
-4.62686
20
5.76877
11
-4.62671
21
5.76883
0
LINE
8
BLACK
6
CONTINUOUS
10
-4.62671
20
5.76883
11
-4.62662
21
5.76897
0
LINE
8
BLACK
6
CONTINUOUS
10
-4.62662
20
5.76897
11
-4.62393
21
5.77076
0
LINE
8
BLACK
6
CONTINUOUS
10
-4.62393
20
5.77076
11
-4.62235
21
5.77234
0
LINE
8
BLACK
6
CONTINUOUS
10
-4.62235
20
5.77234
11
-4.62153
21
5.77399
0
LINE
8
BLACK
6
CONTINUOUS
10
-4.62153
20
5.77399
11
-4.62062
21
5.77478
0
LINE
8
BLACK
6
CONTINUOUS
10
-4.62062
20
5.77478
11
-4.61941
21
5.77469
0
LINE
8
BLACK
6
CONTINUOUS
10
-4.61941
20
5.77469
11
-4.61862
21
5.77378
0
LINE
8
BLACK
6
CONTINUOUS
10
-4.61862
20
5.77378
11
-4.61871
21
5.77258
0
LINE
8
BLACK
6
CONTINUOUS
10
-4.61871
20
5.77258
11
-4.61965
21
5.7707
0
LINE
8
BLACK
6
CONTINUOUS
10
-4.61965
20
5.7707
11
-4.61984
21
5.77053
0
LINE
8
BLACK
6
CONTINUOUS
10
-4.61984
20
5.77053
11
-4.61994
21
5.77029
0
LINE
8
BLACK
6
CONTINUOUS
10
-4.61994
20
5.77029
11
-4.621
21
5.76923
0
LINE
8
BLACK
6
CONTINUOUS
10
-4.621
20
5.76923
11
-4.60763
21
5.76923
0
LINE
8
BLACK
6
CONTINUOUS
10
-4.60763
20
5.76923
11
-4.60763
21
5.77328
0
LINE
8
BLACK
6
CONTINUOUS
10
-4.60763
20
5.77328
11
-4.60717
21
5.7744
0
LINE
8
BLACK
6
CONTINUOUS
10
-4.60717
20
5.7744
11
-4.60606
21
5.77486
0
LINE
8
BLACK
6
CONTINUOUS
10
-4.60606
20
5.77486
11
-4.60494
21
5.7744
0
LINE
8
BLACK
6
CONTINUOUS
10
-4.61431
20
5.79447
11
-4.61411
21
5.79449
0
LINE
8
BLACK
6
CONTINUOUS
10
-4.61411
20
5.79449
11
-4.61036
21
5.79356
0
LINE
8
BLACK
6
CONTINUOUS
10
-4.61036
20
5.79356
11
-4.61022
21
5.79345
0
LINE
8
BLACK
6
CONTINUOUS
10
-4.61022
20
5.79345
11
-4.61004
21
5.79344
0
LINE
8
BLACK
6
CONTINUOUS
10
-4.61004
20
5.79344
11
-4.60816
21
5.7925
0
LINE
8
BLACK
6
CONTINUOUS
10
-4.60816
20
5.7925
11
-4.608
21
5.7923
0
LINE
8
BLACK
6
CONTINUOUS
10
-4.608
20
5.7923
11
-4.60776
21
5.79221
0
LINE
8
BLACK
6
CONTINUOUS
10
-4.60776
20
5.79221
11
-4.60588
21
5.79033
0
LINE
8
BLACK
6
CONTINUOUS
10
-4.60588
20
5.79033
11
-4.60574
21
5.78999
0
LINE
8
BLACK
6
CONTINUOUS
10
-4.60574
20
5.78999
11
-4.6055
21
5.78972
0
LINE
8
BLACK
6
CONTINUOUS
10
-4.6055
20
5.78972
11
-4.60456
21
5.7869
0
LINE
8
BLACK
6
CONTINUOUS
10
-4.60456
20
5.7869
11
-4.60458
21
5.78664
0
LINE
8
BLACK
6
CONTINUOUS
10
-4.60458
20
5.78664
11
-4.60448
21
5.78641
0
LINE
8
BLACK
6
CONTINUOUS
10
-4.60448
20
5.78641
11
-4.60448
21
5.78453
0
LINE
8
BLACK
6
CONTINUOUS
10
-4.60448
20
5.78453
11
-4.60458
21
5.78429
0
LINE
8
BLACK
6
CONTINUOUS
10
-4.60458
20
5.78429
11
-4.60456
21
5.78403
0
LINE
8
BLACK
6
CONTINUOUS
10
-4.60456
20
5.78403
11
-4.6055
21
5.78122
0
LINE
8
BLACK
6
CONTINUOUS
10
-4.6055
20
5.78122
11
-4.60574
21
5.78094
0
LINE
8
BLACK
6
CONTINUOUS
10
-4.60574
20
5.78094
11
-4.60588
21
5.7806
0
LINE
8
BLACK
6
CONTINUOUS
10
-4.60588
20
5.7806
11
-4.60682
21
5.77967
0
LINE
8
BLACK
6
CONTINUOUS
10
-4.60682
20
5.77967
11
-4.60793
21
5.77921
0
LINE
8
BLACK
6
CONTINUOUS
10
-4.60793
20
5.77921
11
-4.60905
21
5.77967
0
LINE
8
BLACK
6
CONTINUOUS
10
-4.60905
20
5.77967
11
-4.60951
21
5.78078
0
LINE
8
BLACK
6
CONTINUOUS
10
-4.60951
20
5.78078
11
-4.60905
21
5.78189
0
LINE
8
BLACK
6
CONTINUOUS
10
-4.60905
20
5.78189
11
-4.60837
21
5.78257
0
LINE
8
BLACK
6
CONTINUOUS
10
-4.60837
20
5.78257
11
-4.60763
21
5.78479
0
LINE
8
BLACK
6
CONTINUOUS
10
-4.60763
20
5.78479
11
-4.60763
21
5.78615
0
LINE
8
BLACK
6
CONTINUOUS
10
-4.60763
20
5.78615
11
-4.60837
21
5.78837
0
LINE
8
BLACK
6
CONTINUOUS
10
-4.60837
20
5.78837
11
-4.6098
21
5.7898
0
LINE
8
BLACK
6
CONTINUOUS
10
-4.6098
20
5.7898
11
-4.61129
21
5.79054
0
LINE
8
BLACK
6
CONTINUOUS
10
-4.61129
20
5.79054
11
-4.61469
21
5.79139
0
LINE
8
BLACK
6
CONTINUOUS
10
-4.61469
20
5.79139
11
-4.61711
21
5.79139
0
LINE
8
BLACK
6
CONTINUOUS
10
-4.61711
20
5.79139
11
-4.62051
21
5.79054
0
LINE
8
BLACK
6
CONTINUOUS
10
-4.62051
20
5.79054
11
-4.622
21
5.7898
0
LINE
8
BLACK
6
CONTINUOUS
10
-4.622
20
5.7898
11
-4.62343
21
5.78837
0
LINE
8
BLACK
6
CONTINUOUS
10
-4.62343
20
5.78837
11
-4.62417
21
5.78615
0
LINE
8
BLACK
6
CONTINUOUS
10
-4.62417
20
5.78615
11
-4.62417
21
5.78479
0
LINE
8
BLACK
6
CONTINUOUS
10
-4.62417
20
5.78479
11
-4.62343
21
5.78257
0
LINE
8
BLACK
6
CONTINUOUS
10
-4.62343
20
5.78257
11
-4.62275
21
5.78189
0
LINE
8
BLACK
6
CONTINUOUS
10
-4.62275
20
5.78189
11
-4.62229
21
5.78078
0
LINE
8
BLACK
6
CONTINUOUS
10
-4.62229
20
5.78078
11
-4.62275
21
5.77967
0
LINE
8
BLACK
6
CONTINUOUS
10
-4.62275
20
5.77967
11
-4.62387
21
5.77921
0
LINE
8
BLACK
6
CONTINUOUS
10
-4.62387
20
5.77921
11
-4.62498
21
5.77967
0
LINE
8
BLACK
6
CONTINUOUS
10
-4.62498
20
5.77967
11
-4.62592
21
5.7806
0
LINE
8
BLACK
6
CONTINUOUS
10
-4.62592
20
5.7806
11
-4.62606
21
5.78094
0
LINE
8
BLACK
6
CONTINUOUS
10
-4.62606
20
5.78094
11
-4.6263
21
5.78122
0
LINE
8
BLACK
6
CONTINUOUS
10
-4.6263
20
5.78122
11
-4.62724
21
5.78403
0
LINE
8
BLACK
6
CONTINUOUS
10
-4.62724
20
5.78403
11
-4.62722
21
5.78429
0
LINE
8
BLACK
6
CONTINUOUS
10
-4.62722
20
5.78429
11
-4.62732
21
5.78453
0
LINE
8
BLACK
6
CONTINUOUS
10
-4.62732
20
5.78453
11
-4.62732
21
5.78641
0
LINE
8
BLACK
6
CONTINUOUS
10
-4.62732
20
5.78641
11
-4.62722
21
5.78664
0
LINE
8
BLACK
6
CONTINUOUS
10
-4.62722
20
5.78664
11
-4.62724
21
5.7869
0
LINE
8
BLACK
6
CONTINUOUS
10
-4.62724
20
5.7869
11
-4.6263
21
5.78972
0
LINE
8
BLACK
6
CONTINUOUS
10
-4.6263
20
5.78972
11
-4.62606
21
5.78999
0
LINE
8
BLACK
6
CONTINUOUS
10
-4.62606
20
5.78999
11
-4.62592
21
5.79033
0
LINE
8
BLACK
6
CONTINUOUS
10
-4.62592
20
5.79033
11
-4.62404
21
5.79221
0
LINE
8
BLACK
6
CONTINUOUS
10
-4.62404
20
5.79221
11
-4.6238
21
5.7923
0
LINE
8
BLACK
6
CONTINUOUS
10
-4.6238
20
5.7923
11
-4.62363
21
5.7925
0
LINE
8
BLACK
6
CONTINUOUS
10
-4.62363
20
5.7925
11
-4.62176
21
5.79344
0
LINE
8
BLACK
6
CONTINUOUS
10
-4.62176
20
5.79344
11
-4.62158
21
5.79345
0
LINE
8
BLACK
6
CONTINUOUS
10
-4.62158
20
5.79345
11
-4.62144
21
5.79356
0
LINE
8
BLACK
6
CONTINUOUS
10
-4.62144
20
5.79356
11
-4.61769
21
5.79449
0
LINE
8
BLACK
6
CONTINUOUS
10
-4.61769
20
5.79449
11
-4.61749
21
5.79447
0
LINE
8
BLACK
6
CONTINUOUS
10
-4.61749
20
5.79447
11
-4.61731
21
5.79454
0
LINE
8
BLACK
6
CONTINUOUS
10
-4.61731
20
5.79454
11
-4.61449
21
5.79454
0
LINE
8
BLACK
6
CONTINUOUS
10
-4.61449
20
5.79454
11
-4.61431
21
5.79447
0
LINE
8
BLACK
6
CONTINUOUS
10
-4.59039
20
5.81884
11
-4.589
21
5.81826
0
LINE
8
BLACK
6
CONTINUOUS
10
-4.589
20
5.81826
11
-4.58843
21
5.81687
0
LINE
8
BLACK
6
CONTINUOUS
10
-4.58843
20
5.81687
11
-4.58843
21
5.73813
0
LINE
8
BLACK
6
CONTINUOUS
10
-4.58843
20
5.73813
11
-4.589
21
5.73674
0
LINE
8
BLACK
6
CONTINUOUS
10
-4.589
20
5.73674
11
-4.59039
21
5.73616
0
LINE
8
BLACK
6
CONTINUOUS
10
-4.59039
20
5.73616
11
-4.63961
21
5.73616
0
LINE
8
BLACK
6
CONTINUOUS
10
-4.63961
20
5.73616
11
-4.641
21
5.73674
0
LINE
8
BLACK
6
CONTINUOUS
10
-4.641
20
5.73674
11
-4.64157
21
5.73813
0
LINE
8
BLACK
6
CONTINUOUS
10
-4.64157
20
5.73813
11
-4.64157
21
5.81687
0
LINE
8
BLACK
6
CONTINUOUS
10
-4.64157
20
5.81687
11
-4.641
21
5.81826
0
LINE
8
BLACK
6
CONTINUOUS
10
-4.641
20
5.81826
11
-4.63961
21
5.81884
0
LINE
8
BLACK
6
CONTINUOUS
10
-4.63961
20
5.81884
11
-4.59039
21
5.81884
0
LINE
8
BLACK
6
CONTINUOUS
10
-4.63764
20
5.8149
11
-4.63764
21
5.7401
0
LINE
8
BLACK
6
CONTINUOUS
10
-4.63764
20
5.7401
11
-4.59236
21
5.7401
0
LINE
8
BLACK
6
CONTINUOUS
10
-4.59236
20
5.7401
11
-4.59236
21
5.8149
0
LINE
8
BLACK
6
CONTINUOUS
10
-4.59236
20
5.8149
11
-4.63764
21
5.8149
0
LINE
8
BLACK
6
CONTINUOUS
10
-4.73146
20
5.78372
11
-4.73133
21
5.78373
0
LINE
8
BLACK
6
CONTINUOUS
10
-4.73133
20
5.78373
11
-4.7306
21
5.78322
0
LINE
8
BLACK
6
CONTINUOUS
10
-4.7306
20
5.78322
11
-4.72983
21
5.78278
0
LINE
8
BLACK
6
CONTINUOUS
10
-4.72983
20
5.78278
11
-4.72979
21
5.78265
0
LINE
8
BLACK
6
CONTINUOUS
10
-4.72979
20
5.78265
11
-4.72967
21
5.78257
0
LINE
8
BLACK
6
CONTINUOUS
10
-4.72967
20
5.78257
11
-4.72944
21
5.78171
0
LINE
8
BLACK
6
CONTINUOUS
10
-4.72944
20
5.78171
11
-4.72914
21
5.78088
0
LINE
8
BLACK
6
CONTINUOUS
10
-4.72914
20
5.78088
11
-4.72914
21
5.75651
0
LINE
8
BLACK
6
CONTINUOUS
10
-4.72914
20
5.75651
11
-4.72932
21
5.7555
0
LINE
8
BLACK
6
CONTINUOUS
10
-4.72932
20
5.7555
11
-4.73062
21
5.75395
0
LINE
8
BLACK
6
CONTINUOUS
10
-4.73062
20
5.75395
11
-4.73261
21
5.7536
0
LINE
8
BLACK
6
CONTINUOUS
10
-4.73261
20
5.7536
11
-4.73436
21
5.75461
0
LINE
8
BLACK
6
CONTINUOUS
10
-4.73436
20
5.75461
11
-4.73505
21
5.75651
0
LINE
8
BLACK
6
CONTINUOUS
10
-4.73505
20
5.75651
11
-4.73505
21
5.77375
0
LINE
8
BLACK
6
CONTINUOUS
10
-4.73505
20
5.77375
11
-4.7525
21
5.75629
0
LINE
8
BLACK
6
CONTINUOUS
10
-4.7525
20
5.75629
11
-4.75334
21
5.75571
0
LINE
8
BLACK
6
CONTINUOUS
10
-4.75334
20
5.75571
11
-4.75352
21
5.75569
0
LINE
8
BLACK
6
CONTINUOUS
10
-4.75352
20
5.75569
11
-4.75366
21
5.75558
0
LINE
8
BLACK
6
CONTINUOUS
10
-4.75366
20
5.75558
11
-4.75928
21
5.75371
0
LINE
8
BLACK
6
CONTINUOUS
10
-4.75928
20
5.75371
11
-4.76015
21
5.75358
0
LINE
8
BLACK
6
CONTINUOUS
10
-4.76015
20
5.75358
11
-4.76022
21
5.75355
0
LINE
8
BLACK
6
CONTINUOUS
10
-4.76022
20
5.75355
11
-4.76396
21
5.75355
0
LINE
8
BLACK
6
CONTINUOUS
10
-4.76396
20
5.75355
11
-4.76497
21
5.75373
0
LINE
8
BLACK
6
CONTINUOUS
10
-4.76497
20
5.75373
11
-4.76511
21
5.75385
0
LINE
8
BLACK
6
CONTINUOUS
10
-4.76511
20
5.75385
11
-4.76529
21
5.75387
0
LINE
8
BLACK
6
CONTINUOUS
10
-4.76529
20
5.75387
11
-4.76903
21
5.75574
0
LINE
8
BLACK
6
CONTINUOUS
10
-4.76903
20
5.75574
11
-4.76974
21
5.75627
0
LINE
8
BLACK
6
CONTINUOUS
10
-4.76974
20
5.75627
11
-4.7698
21
5.75629
0
LINE
8
BLACK
6
CONTINUOUS
10
-4.7698
20
5.75629
11
-4.77168
21
5.75817
0
LINE
8
BLACK
6
CONTINUOUS
10
-4.77168
20
5.75817
11
-4.77218
21
5.75889
0
LINE
8
BLACK
6
CONTINUOUS
10
-4.77218
20
5.75889
11
-4.77223
21
5.75894
0
LINE
8
BLACK
6
CONTINUOUS
10
-4.77223
20
5.75894
11
-4.7741
21
5.76269
0
LINE
8
BLACK
6
CONTINUOUS
10
-4.7741
20
5.76269
11
-4.7744
21
5.76367
0
LINE
8
BLACK
6
CONTINUOUS
10
-4.7744
20
5.76367
11
-4.77436
21
5.76384
0
LINE
8
BLACK
6
CONTINUOUS
10
-4.77436
20
5.76384
11
-4.77442
21
5.76401
0
LINE
8
BLACK
6
CONTINUOUS
10
-4.77442
20
5.76401
11
-4.77442
21
5.77338
0
LINE
8
BLACK
6
CONTINUOUS
10
-4.77442
20
5.77338
11
-4.77424
21
5.77439
0
LINE
8
BLACK
6
CONTINUOUS
10
-4.77424
20
5.77439
11
-4.77413
21
5.77453
0
LINE
8
BLACK
6
CONTINUOUS
10
-4.77413
20
5.77453
11
-4.7741
21
5.7747
0
LINE
8
BLACK
6
CONTINUOUS
10
-4.7741
20
5.7747
11
-4.77223
21
5.77845
0
LINE
8
BLACK
6
CONTINUOUS
10
-4.77223
20
5.77845
11
-4.7717
21
5.77916
0
LINE
8
BLACK
6
CONTINUOUS
10
-4.7717
20
5.77916
11
-4.77168
21
5.77922
0
LINE
8
BLACK
6
CONTINUOUS
10
-4.77168
20
5.77922
11
-4.7698
21
5.78109
0
LINE
8
BLACK
6
CONTINUOUS
10
-4.7698
20
5.78109
11
-4.76896
21
5.78168
0
LINE
8
BLACK
6
CONTINUOUS
10
-4.76896
20
5.78168
11
-4.76695
21
5.78186
0
LINE
8
BLACK
6
CONTINUOUS
10
-4.76695
20
5.78186
11
-4.7653
21
5.7807
0
LINE
8
BLACK
6
CONTINUOUS
10
-4.7653
20
5.7807
11
-4.76477
21
5.77875
0
LINE
8
BLACK
6
CONTINUOUS
10
-4.76477
20
5.77875
11
-4.76563
21
5.77692
0
LINE
8
BLACK
6
CONTINUOUS
10
-4.76563
20
5.77692
11
-4.76716
21
5.77538
0
LINE
8
BLACK
6
CONTINUOUS
10
-4.76716
20
5.77538
11
-4.76851
21
5.77268
0
LINE
8
BLACK
6
CONTINUOUS
10
-4.76851
20
5.77268
11
-4.76851
21
5.7647
0
LINE
8
BLACK
6
CONTINUOUS
10
-4.76851
20
5.7647
11
-4.76716
21
5.76201
0
LINE
8
BLACK
6
CONTINUOUS
10
-4.76716
20
5.76201
11
-4.76597
21
5.76081
0
LINE
8
BLACK
6
CONTINUOUS
10
-4.76597
20
5.76081
11
-4.76327
21
5.75946
0
LINE
8
BLACK
6
CONTINUOUS
10
-4.76327
20
5.75946
11
-4.76069
21
5.75946
0
LINE
8
BLACK
6
CONTINUOUS
10
-4.76069
20
5.75946
11
-4.75619
21
5.76096
0
LINE
8
BLACK
6
CONTINUOUS
10
-4.75619
20
5.76096
11
-4.73418
21
5.78297
0
LINE
8
BLACK
6
CONTINUOUS
10
-4.73418
20
5.78297
11
-4.73365
21
5.78334
0
LINE
8
BLACK
6
CONTINUOUS
10
-4.73365
20
5.78334
11
-4.73357
21
5.78344
0
LINE
8
BLACK
6
CONTINUOUS
10
-4.73357
20
5.78344
11
-4.73349
21
5.78345
0
LINE
8
BLACK
6
CONTINUOUS
10
-4.73349
20
5.78345
11
-4.73334
21
5.78356
0
LINE
8
BLACK
6
CONTINUOUS
10
-4.73334
20
5.78356
11
-4.73246
21
5.78363
0
LINE
8
BLACK
6
CONTINUOUS
10
-4.73246
20
5.78363
11
-4.73158
21
5.78379
0
LINE
8
BLACK
6
CONTINUOUS
10
-4.73158
20
5.78379
11
-4.73146
21
5.78372
0
LINE
8
BLACK
6
CONTINUOUS
10
-4.69861
20
5.79868
11
-4.69803
21
5.79728
0
LINE
8
BLACK
6
CONTINUOUS
10
-4.69803
20
5.79728
11
-4.69803
21
5.79335
0
LINE
8
BLACK
6
CONTINUOUS
10
-4.69803
20
5.79335
11
-4.69213
21
5.79335
0
LINE
8
BLACK
6
CONTINUOUS
10
-4.69213
20
5.79335
11
-4.6916
21
5.79313
0
LINE
8
BLACK
6
CONTINUOUS
10
-4.6916
20
5.79313
11
-4.69103
21
5.79302
0
LINE
8
BLACK
6
CONTINUOUS
10
-4.69103
20
5.79302
11
-4.69092
21
5.79285
0
LINE
8
BLACK
6
CONTINUOUS
10
-4.69092
20
5.79285
11
-4.69073
21
5.79277
0
LINE
8
BLACK
6
CONTINUOUS
10
-4.69073
20
5.79277
11
-4.69051
21
5.79224
0
LINE
8
BLACK
6
CONTINUOUS
10
-4.69051
20
5.79224
11
-4.6902
21
5.79176
0
LINE
8
BLACK
6
CONTINUOUS
10
-4.6902
20
5.79176
11
-4.69024
21
5.79157
0
LINE
8
BLACK
6
CONTINUOUS
10
-4.69024
20
5.79157
11
-4.69016
21
5.79138
0
LINE
8
BLACK
6
CONTINUOUS
10
-4.69016
20
5.79138
11
-4.69038
21
5.79085
0
LINE
8
BLACK
6
CONTINUOUS
10
-4.69038
20
5.79085
11
-4.69049
21
5.79029
0
LINE
8
BLACK
6
CONTINUOUS
10
-4.69049
20
5.79029
11
-4.69632
21
5.78154
0
LINE
8
BLACK
6
CONTINUOUS
10
-4.69632
20
5.78154
11
-4.69213
21
5.78154
0
LINE
8
BLACK
6
CONTINUOUS
10
-4.69213
20
5.78154
11
-4.69073
21
5.78096
0
LINE
8
BLACK
6
CONTINUOUS
10
-4.69073
20
5.78096
11
-4.69016
21
5.77957
0
LINE
8
BLACK
6
CONTINUOUS
10
-4.69016
20
5.77957
11
-4.69073
21
5.77818
0
LINE
8
BLACK
6
CONTINUOUS
10
-4.69073
20
5.77818
11
-4.69213
21
5.7776
0
LINE
8
BLACK
6
CONTINUOUS
10
-4.69213
20
5.7776
11
-4.69803
21
5.7776
0
LINE
8
BLACK
6
CONTINUOUS
10
-4.69803
20
5.7776
11
-4.69803
21
5.77366
0
LINE
8
BLACK
6
CONTINUOUS
10
-4.69803
20
5.77366
11
-4.69861
21
5.77227
0
LINE
8
BLACK
6
CONTINUOUS
10
-4.69861
20
5.77227
11
-4.7
21
5.77169
0
LINE
8
BLACK
6
CONTINUOUS
10
-4.7
20
5.77169
11
-4.70139
21
5.77227
0
LINE
8
BLACK
6
CONTINUOUS
10
-4.70139
20
5.77227
11
-4.70197
21
5.77366
0
LINE
8
BLACK
6
CONTINUOUS
10
-4.70197
20
5.77366
11
-4.70197
21
5.7776
0
LINE
8
BLACK
6
CONTINUOUS
10
-4.70197
20
5.7776
11
-4.70787
21
5.7776
0
LINE
8
BLACK
6
CONTINUOUS
10
-4.70787
20
5.7776
11
-4.70927
21
5.77818
0
LINE
8
BLACK
6
CONTINUOUS
10
-4.70927
20
5.77818
11
-4.70984
21
5.77957
0
LINE
8
BLACK
6
CONTINUOUS
10
-4.70984
20
5.77957
11
-4.70927
21
5.78096
0
LINE
8
BLACK
6
CONTINUOUS
10
-4.70927
20
5.78096
11
-4.70787
21
5.78154
0
LINE
8
BLACK
6
CONTINUOUS
10
-4.70787
20
5.78154
11
-4.70368
21
5.78154
0
LINE
8
BLACK
6
CONTINUOUS
10
-4.70368
20
5.78154
11
-4.70951
21
5.79029
0
LINE
8
BLACK
6
CONTINUOUS
10
-4.70951
20
5.79029
11
-4.70962
21
5.79085
0
LINE
8
BLACK
6
CONTINUOUS
10
-4.70962
20
5.79085
11
-4.70984
21
5.79138
0
LINE
8
BLACK
6
CONTINUOUS
10
-4.70984
20
5.79138
11
-4.70976
21
5.79157
0
LINE
8
BLACK
6
CONTINUOUS
10
-4.70976
20
5.79157
11
-4.7098
21
5.79176
0
LINE
8
BLACK
6
CONTINUOUS
10
-4.7098
20
5.79176
11
-4.70949
21
5.79224
0
LINE
8
BLACK
6
CONTINUOUS
10
-4.70949
20
5.79224
11
-4.70927
21
5.79277
0
LINE
8
BLACK
6
CONTINUOUS
10
-4.70927
20
5.79277
11
-4.70908
21
5.79285
0
LINE
8
BLACK
6
CONTINUOUS
10
-4.70908
20
5.79285
11
-4.70897
21
5.79302
0
LINE
8
BLACK
6
CONTINUOUS
10
-4.70897
20
5.79302
11
-4.7084
21
5.79313
0
LINE
8
BLACK
6
CONTINUOUS
10
-4.7084
20
5.79313
11
-4.70787
21
5.79335
0
LINE
8
BLACK
6
CONTINUOUS
10
-4.70787
20
5.79335
11
-4.70197
21
5.79335
0
LINE
8
BLACK
6
CONTINUOUS
10
-4.70197
20
5.79335
11
-4.70197
21
5.79728
0
LINE
8
BLACK
6
CONTINUOUS
10
-4.70197
20
5.79728
11
-4.70139
21
5.79868
0
LINE
8
BLACK
6
CONTINUOUS
10
-4.70139
20
5.79868
11
-4.7
21
5.79925
0
LINE
8
BLACK
6
CONTINUOUS
10
-4.7
20
5.79925
11
-4.69861
21
5.79868
0
LINE
8
BLACK
6
CONTINUOUS
10
-4.7
20
5.78941
11
-4.7042
21
5.78941
0
LINE
8
BLACK
6
CONTINUOUS
10
-4.7042
20
5.78941
11
-4.7
21
5.78312
0
LINE
8
BLACK
6
CONTINUOUS
10
-4.7
20
5.78312
11
-4.6958
21
5.78941
0
LINE
8
BLACK
6
CONTINUOUS
10
-4.6958
20
5.78941
11
-4.7
21
5.78941
0
LINE
8
BLACK
6
CONTINUOUS
10
-4.68228
20
5.815
11
-4.68089
21
5.81442
0
LINE
8
BLACK
6
CONTINUOUS
10
-4.68089
20
5.81442
11
-4.68031
21
5.81303
0
LINE
8
BLACK
6
CONTINUOUS
10
-4.68031
20
5.81303
11
-4.68031
21
5.76185
0
LINE
8
BLACK
6
CONTINUOUS
10
-4.68031
20
5.76185
11
-4.68089
21
5.76046
0
LINE
8
BLACK
6
CONTINUOUS
10
-4.68089
20
5.76046
11
-4.68228
21
5.75988
0
LINE
8
BLACK
6
CONTINUOUS
10
-4.68228
20
5.75988
11
-4.71772
21
5.75988
0
LINE
8
BLACK
6
CONTINUOUS
10
-4.71772
20
5.75988
11
-4.71911
21
5.76046
0
LINE
8
BLACK
6
CONTINUOUS
10
-4.71911
20
5.76046
11
-4.71969
21
5.76185
0
LINE
8
BLACK
6
CONTINUOUS
10
-4.71969
20
5.76185
11
-4.71969
21
5.81303
0
LINE
8
BLACK
6
CONTINUOUS
10
-4.71969
20
5.81303
11
-4.71911
21
5.81442
0
LINE
8
BLACK
6
CONTINUOUS
10
-4.71911
20
5.81442
11
-4.71772
21
5.815
0
LINE
8
BLACK
6
CONTINUOUS
10
-4.71772
20
5.815
11
-4.68228
21
5.815
0
LINE
8
BLACK
6
CONTINUOUS
10
-4.71575
20
5.81106
11
-4.71575
21
5.76382
0
LINE
8
BLACK
6
CONTINUOUS
10
-4.71575
20
5.76382
11
-4.68425
21
5.76382
0
LINE
8
BLACK
6
CONTINUOUS
10
-4.68425
20
5.76382
11
-4.68425
21
5.81106
0
LINE
8
BLACK
6
CONTINUOUS
10
-4.68425
20
5.81106
11
-4.71575
21
5.81106
0
LINE
8
BLACK
6
CONTINUOUS
10
-4.73171
20
5.81938
11
-4.73158
21
5.81941
0
LINE
8
BLACK
6
CONTINUOUS
10
-4.73158
20
5.81941
11
-4.73147
21
5.81934
0
LINE
8
BLACK
6
CONTINUOUS
10
-4.73147
20
5.81934
11
-4.73108
21
5.81927
0
LINE
8
BLACK
6
CONTINUOUS
10
-4.73108
20
5.81927
11
-4.7305
21
5.81878
0
LINE
8
BLACK
6
CONTINUOUS
10
-4.7305
20
5.81878
11
-4.72983
21
5.8184
0
LINE
8
BLACK
6
CONTINUOUS
10
-4.72983
20
5.8184
11
-4.72974
21
5.81815
0
LINE
8
BLACK
6
CONTINUOUS
10
-4.72974
20
5.81815
11
-4.72954
21
5.81798
0
LINE
8
BLACK
6
CONTINUOUS
10
-4.72954
20
5.81798
11
-4.7294
21
5.81722
0
LINE
8
BLACK
6
CONTINUOUS
10
-4.7294
20
5.81722
11
-4.72914
21
5.8165
0
LINE
8
BLACK
6
CONTINUOUS
10
-4.72914
20
5.8165
11
-4.72914
21
5.80713
0
LINE
8
BLACK
6
CONTINUOUS
10
-4.72914
20
5.80713
11
-4.72929
21
5.80626
0
LINE
8
BLACK
6
CONTINUOUS
10
-4.72929
20
5.80626
11
-4.72929
21
5.80619
0
LINE
8
BLACK
6
CONTINUOUS
10
-4.72929
20
5.80619
11
-4.73117
21
5.80057
0
LINE
8
BLACK
6
CONTINUOUS
10
-4.73117
20
5.80057
11
-4.73166
21
5.79967
0
LINE
8
BLACK
6
CONTINUOUS
10
-4.73166
20
5.79967
11
-4.73181
21
5.79957
0
LINE
8
BLACK
6
CONTINUOUS
10
-4.73181
20
5.79957
11
-4.73188
21
5.79941
0
LINE
8
BLACK
6
CONTINUOUS
10
-4.73188
20
5.79941
11
-4.73563
21
5.79566
0
LINE
8
BLACK
6
CONTINUOUS
10
-4.73563
20
5.79566
11
-4.73635
21
5.79516
0
LINE
8
BLACK
6
CONTINUOUS
10
-4.73635
20
5.79516
11
-4.7364
21
5.79511
0
LINE
8
BLACK
6
CONTINUOUS
10
-4.7364
20
5.79511
11
-4.74015
21
5.79324
0
LINE
8
BLACK
6
CONTINUOUS
10
-4.74015
20
5.79324
11
-4.74064
21
5.79309
0
LINE
8
BLACK
6
CONTINUOUS
10
-4.74064
20
5.79309
11
-4.74075
21
5.79301
0
LINE
8
BLACK
6
CONTINUOUS
10
-4.74075
20
5.79301
11
-4.74825
21
5.79114
0
LINE
8
BLACK
6
CONTINUOUS
10
-4.74825
20
5.79114
11
-4.74884
21
5.7911
0
LINE
8
BLACK
6
CONTINUOUS
10
-4.74884
20
5.7911
11
-4.74897
21
5.79105
0
LINE
8
BLACK
6
CONTINUOUS
10
-4.74897
20
5.79105
11
-4.75459
21
5.79105
0
LINE
8
BLACK
6
CONTINUOUS
10
-4.75459
20
5.79105
11
-4.75517
21
5.79115
0
LINE
8
BLACK
6
CONTINUOUS
10
-4.75517
20
5.79115
11
-4.75531
21
5.79114
0
LINE
8
BLACK
6
CONTINUOUS
10
-4.75531
20
5.79114
11
-4.76281
21
5.79301
0
LINE
8
BLACK
6
CONTINUOUS
10
-4.76281
20
5.79301
11
-4.76327
21
5.79322
0
LINE
8
BLACK
6
CONTINUOUS
10
-4.76327
20
5.79322
11
-4.76341
21
5.79324
0
LINE
8
BLACK
6
CONTINUOUS
10
-4.76341
20
5.79324
11
-4.76716
21
5.79511
0
LINE
8
BLACK
6
CONTINUOUS
10
-4.76716
20
5.79511
11
-4.76787
21
5.79564
0
LINE
8
BLACK
6
CONTINUOUS
10
-4.76787
20
5.79564
11
-4.76793
21
5.79566
0
LINE
8
BLACK
6
CONTINUOUS
10
-4.76793
20
5.79566
11
-4.77168
21
5.79941
0
LINE
8
BLACK
6
CONTINUOUS
10
-4.77168
20
5.79941
11
-4.77227
21
5.80025
0
LINE
8
BLACK
6
CONTINUOUS
10
-4.77227
20
5.80025
11
-4.77228
21
5.80043
0
LINE
8
BLACK
6
CONTINUOUS
10
-4.77228
20
5.80043
11
-4.77239
21
5.80057
0
LINE
8
BLACK
6
CONTINUOUS
10
-4.77239
20
5.80057
11
-4.77427
21
5.80619
0
LINE
8
BLACK
6
CONTINUOUS
10
-4.77427
20
5.80619
11
-4.77439
21
5.80707
0
LINE
8
BLACK
6
CONTINUOUS
10
-4.77439
20
5.80707
11
-4.77442
21
5.80713
0
LINE
8
BLACK
6
CONTINUOUS
10
-4.77442
20
5.80713
11
-4.77442
21
5.8165
0
LINE
8
BLACK
6
CONTINUOUS
10
-4.77442
20
5.8165
11
-4.77435
21
5.81688
0
LINE
8
BLACK
6
CONTINUOUS
10
-4.77435
20
5.81688
11
-4.77437
21
5.81701
0
LINE
8
BLACK
6
CONTINUOUS
10
-4.77437
20
5.81701
11
-4.77431
21
5.81713
0
LINE
8
BLACK
6
CONTINUOUS
10
-4.77431
20
5.81713
11
-4.77424
21
5.81751
0
LINE
8
BLACK
6
CONTINUOUS
10
-4.77424
20
5.81751
11
-4.77375
21
5.8181
0
LINE
8
BLACK
6
CONTINUOUS
10
-4.77375
20
5.8181
11
-4.77336
21
5.81876
0
LINE
8
BLACK
6
CONTINUOUS
10
-4.77336
20
5.81876
11
-4.77311
21
5.81885
0
LINE
8
BLACK
6
CONTINUOUS
10
-4.77311
20
5.81885
11
-4.77294
21
5.81906
0
LINE
8
BLACK
6
CONTINUOUS
10
-4.77294
20
5.81906
11
-4.77218
21
5.81919
0
LINE
8
BLACK
6
CONTINUOUS
10
-4.77218
20
5.81919
11
-4.77146
21
5.81945
0
LINE
8
BLACK
6
CONTINUOUS
10
-4.77146
20
5.81945
11
-4.73209
21
5.81945
0
LINE
8
BLACK
6
CONTINUOUS
10
-4.73209
20
5.81945
11
-4.73171
21
5.81938
0
LINE
8
BLACK
6
CONTINUOUS
10
-4.76851
20
5.80761
11
-4.76701
21
5.8031
0
LINE
8
BLACK
6
CONTINUOUS
10
-4.76701
20
5.8031
11
-4.76409
21
5.80018
0
LINE
8
BLACK
6
CONTINUOUS
10
-4.76409
20
5.80018
11
-4.76106
21
5.79866
0
LINE
8
BLACK
6
CONTINUOUS
10
-4.76106
20
5.79866
11
-4.75423
21
5.79696
0
LINE
8
BLACK
6
CONTINUOUS
10
-4.75423
20
5.79696
11
-4.74933
21
5.79696
0
LINE
8
BLACK
6
CONTINUOUS
10
-4.74933
20
5.79696
11
-4.7425
21
5.79866
0
LINE
8
BLACK
6
CONTINUOUS
10
-4.7425
20
5.79866
11
-4.73947
21
5.80018
0
LINE
8
BLACK
6
CONTINUOUS
10
-4.73947
20
5.80018
11
-4.73655
21
5.8031
0
LINE
8
BLACK
6
CONTINUOUS
10
-4.73655
20
5.8031
11
-4.73505
21
5.80761
0
LINE
8
BLACK
6
CONTINUOUS
10
-4.73505
20
5.80761
11
-4.73505
21
5.81355
0
LINE
8
BLACK
6
CONTINUOUS
10
-4.73505
20
5.81355
11
-4.76851
21
5.81355
0
LINE
8
BLACK
6
CONTINUOUS
10
-4.76851
20
5.81355
11
-4.76851
21
5.80761
0
LINE
8
BLACK
6
CONTINUOUS
10
-4.3835
20
5.88221
11
-4.38275
21
5.88146
0
LINE
8
BLACK
6
CONTINUOUS
10
-4.38275
20
5.88146
11
-4.38268
21
5.88128
0
LINE
8
BLACK
6
CONTINUOUS
10
-4.38268
20
5.88128
11
-4.38253
21
5.88115
0
LINE
8
BLACK
6
CONTINUOUS
10
-4.38253
20
5.88115
11
-4.38178
21
5.87965
0
LINE
8
BLACK
6
CONTINUOUS
10
-4.38178
20
5.87965
11
-4.38176
21
5.87938
0
LINE
8
BLACK
6
CONTINUOUS
10
-4.38176
20
5.87938
11
-4.38166
21
5.87912
0
LINE
8
BLACK
6
CONTINUOUS
10
-4.38166
20
5.87912
11
-4.38166
21
5.87462
0
LINE
8
BLACK
6
CONTINUOUS
10
-4.38166
20
5.87462
11
-4.38176
21
5.87437
0
LINE
8
BLACK
6
CONTINUOUS
10
-4.38176
20
5.87437
11
-4.38178
21
5.87409
0
LINE
8
BLACK
6
CONTINUOUS
10
-4.38178
20
5.87409
11
-4.38253
21
5.87259
0
LINE
8
BLACK
6
CONTINUOUS
10
-4.38253
20
5.87259
11
-4.38268
21
5.87247
0
LINE
8
BLACK
6
CONTINUOUS
10
-4.38268
20
5.87247
11
-4.38275
21
5.87229
0
LINE
8
BLACK
6
CONTINUOUS
10
-4.38275
20
5.87229
11
-4.3835
21
5.87154
0
LINE
8
BLACK
6
CONTINUOUS
10
-4.3835
20
5.87154
11
-4.38368
21
5.87146
0
LINE
8
BLACK
6
CONTINUOUS
10
-4.38368
20
5.87146
11
-4.38381
21
5.87132
0
LINE
8
BLACK
6
CONTINUOUS
10
-4.38381
20
5.87132
11
-4.38531
21
5.87057
0
LINE
8
BLACK
6
CONTINUOUS
10
-4.38531
20
5.87057
11
-4.38558
21
5.87055
0
LINE
8
BLACK
6
CONTINUOUS
10
-4.38558
20
5.87055
11
-4.38584
21
5.87044
0
LINE
8
BLACK
6
CONTINUOUS
10
-4.38584
20
5.87044
11
-4.38959
21
5.87044
0
LINE
8
BLACK
6
CONTINUOUS
10
-4.38959
20
5.87044
11
-4.38984
21
5.87055
0
LINE
8
BLACK
6
CONTINUOUS
10
-4.38984
20
5.87055
11
-4.39011
21
5.87057
0
LINE
8
BLACK
6
CONTINUOUS
10
-4.39011
20
5.87057
11
-4.39161
21
5.87132
0
LINE
8
BLACK
6
CONTINUOUS
10
-4.39161
20
5.87132
11
-4.39174
21
5.87146
0
LINE
8
BLACK
6
CONTINUOUS
10
-4.39174
20
5.87146
11
-4.39192
21
5.87154
0
LINE
8
BLACK
6
CONTINUOUS
10
-4.39192
20
5.87154
11
-4.39267
21
5.87229
0
LINE
8
BLACK
6
CONTINUOUS
10
-4.39267
20
5.87229
11
-4.39275
21
5.87247
0
LINE
8
BLACK
6
CONTINUOUS
10
-4.39275
20
5.87247
11
-4.39289
21
5.87259
0
LINE
8
BLACK
6
CONTINUOUS
10
-4.39289
20
5.87259
11
-4.39364
21
5.87409
0
LINE
8
BLACK
6
CONTINUOUS
10
-4.39364
20
5.87409
11
-4.39366
21
5.87436
0
LINE
8
BLACK
6
CONTINUOUS
10
-4.39366
20
5.87436
11
-4.39781
21
5.87073
0
LINE
8
BLACK
6
CONTINUOUS
10
-4.39781
20
5.87073
11
-4.3982
21
5.8706
0
LINE
8
BLACK
6
CONTINUOUS
10
-4.3982
20
5.8706
11
-4.39859
21
5.87044
0
LINE
8
BLACK
6
CONTINUOUS
10
-4.39859
20
5.87044
11
-4.39862
21
5.87046
0
LINE
8
BLACK
6
CONTINUOUS
10
-4.39862
20
5.87046
11
-4.39866
21
5.87044
0
LINE
8
BLACK
6
CONTINUOUS
10
-4.39866
20
5.87044
11
-4.39904
21
5.87063
0
LINE
8
BLACK
6
CONTINUOUS
10
-4.39904
20
5.87063
11
-4.39942
21
5.87079
0
LINE
8
BLACK
6
CONTINUOUS
10
-4.39942
20
5.87079
11
-4.39944
21
5.87083
0
LINE
8
BLACK
6
CONTINUOUS
10
-4.39944
20
5.87083
11
-4.39947
21
5.87084
0
LINE
8
BLACK
6
CONTINUOUS
10
-4.39947
20
5.87084
11
-4.39961
21
5.87124
0
LINE
8
BLACK
6
CONTINUOUS
10
-4.39961
20
5.87124
11
-4.39977
21
5.87162
0
LINE
8
BLACK
6
CONTINUOUS
10
-4.39977
20
5.87162
11
-4.39977
21
5.88137
0
LINE
8
BLACK
6
CONTINUOUS
10
-4.39977
20
5.88137
11
-4.39942
21
5.88221
0
LINE
8
BLACK
6
CONTINUOUS
10
-4.39942
20
5.88221
11
-4.39859
21
5.88255
0
LINE
8
BLACK
6
CONTINUOUS
10
-4.39859
20
5.88255
11
-4.39775
21
5.88221
0
LINE
8
BLACK
6
CONTINUOUS
10
-4.39775
20
5.88221
11
-4.3974
21
5.88137
0
LINE
8
BLACK
6
CONTINUOUS
10
-4.3974
20
5.88137
11
-4.3974
21
5.87423
0
LINE
8
BLACK
6
CONTINUOUS
10
-4.3974
20
5.87423
11
-4.39336
21
5.87776
0
LINE
8
BLACK
6
CONTINUOUS
10
-4.39336
20
5.87776
11
-4.39297
21
5.87789
0
LINE
8
BLACK
6
CONTINUOUS
10
-4.39297
20
5.87789
11
-4.39259
21
5.87805
0
LINE
8
BLACK
6
CONTINUOUS
10
-4.39259
20
5.87805
11
-4.39255
21
5.87804
0
LINE
8
BLACK
6
CONTINUOUS
10
-4.39255
20
5.87804
11
-4.39251
21
5.87805
0
LINE
8
BLACK
6
CONTINUOUS
10
-4.39251
20
5.87805
11
-4.39214
21
5.87787
0
LINE
8
BLACK
6
CONTINUOUS
10
-4.39214
20
5.87787
11
-4.39175
21
5.87771
0
LINE
8
BLACK
6
CONTINUOUS
10
-4.39175
20
5.87771
11
-4.39174
21
5.87767
0
LINE
8
BLACK
6
CONTINUOUS
10
-4.39174
20
5.87767
11
-4.3917
21
5.87765
0
LINE
8
BLACK
6
CONTINUOUS
10
-4.3917
20
5.87765
11
-4.39156
21
5.87726
0
LINE
8
BLACK
6
CONTINUOUS
10
-4.39156
20
5.87726
11
-4.39141
21
5.87687
0
LINE
8
BLACK
6
CONTINUOUS
10
-4.39141
20
5.87687
11
-4.39141
21
5.8749
0
LINE
8
BLACK
6
CONTINUOUS
10
-4.39141
20
5.8749
11
-4.39087
21
5.87382
0
LINE
8
BLACK
6
CONTINUOUS
10
-4.39087
20
5.87382
11
-4.39039
21
5.87334
0
LINE
8
BLACK
6
CONTINUOUS
10
-4.39039
20
5.87334
11
-4.38931
21
5.8728
0
LINE
8
BLACK
6
CONTINUOUS
10
-4.38931
20
5.8728
11
-4.38612
21
5.8728
0
LINE
8
BLACK
6
CONTINUOUS
10
-4.38612
20
5.8728
11
-4.38504
21
5.87334
0
LINE
8
BLACK
6
CONTINUOUS
10
-4.38504
20
5.87334
11
-4.38456
21
5.87382
0
LINE
8
BLACK
6
CONTINUOUS
10
-4.38456
20
5.87382
11
-4.38402
21
5.8749
0
LINE
8
BLACK
6
CONTINUOUS
10
-4.38402
20
5.8749
11
-4.38402
21
5.87884
0
LINE
8
BLACK
6
CONTINUOUS
10
-4.38402
20
5.87884
11
-4.38456
21
5.87992
0
LINE
8
BLACK
6
CONTINUOUS
10
-4.38456
20
5.87992
11
-4.38517
21
5.88054
0
LINE
8
BLACK
6
CONTINUOUS
10
-4.38517
20
5.88054
11
-4.38552
21
5.88137
0
LINE
8
BLACK
6
CONTINUOUS
10
-4.38552
20
5.88137
11
-4.38517
21
5.88221
0
LINE
8
BLACK
6
CONTINUOUS
10
-4.38517
20
5.88221
11
-4.38434
21
5.88255
0
LINE
8
BLACK
6
CONTINUOUS
10
-4.38434
20
5.88255
11
-4.3835
21
5.88221
0
LINE
8
BLACK
6
CONTINUOUS
10
-4.382
20
5.89645
11
-4.38166
21
5.89562
0
LINE
8
BLACK
6
CONTINUOUS
10
-4.38166
20
5.89562
11
-4.382
21
5.89478
0
LINE
8
BLACK
6
CONTINUOUS
10
-4.382
20
5.89478
11
-4.38284
21
5.89444
0
LINE
8
BLACK
6
CONTINUOUS
10
-4.38284
20
5.89444
11
-4.38916
21
5.89444
0
LINE
8
BLACK
6
CONTINUOUS
10
-4.38916
20
5.89444
11
-4.38916
21
5.89248
0
LINE
8
BLACK
6
CONTINUOUS
10
-4.38916
20
5.89248
11
-4.38216
21
5.88759
0
LINE
8
BLACK
6
CONTINUOUS
10
-4.38216
20
5.88759
11
-4.38167
21
5.88683
0
LINE
8
BLACK
6
CONTINUOUS
10
-4.38167
20
5.88683
11
-4.38187
21
5.88594
0
LINE
8
BLACK
6
CONTINUOUS
10
-4.38187
20
5.88594
11
-4.38263
21
5.88546
0
LINE
8
BLACK
6
CONTINUOUS
10
-4.38263
20
5.88546
11
-4.38351
21
5.88565
0
LINE
8
BLACK
6
CONTINUOUS
10
-4.38351
20
5.88565
11
-4.38916
21
5.88961
0
LINE
8
BLACK
6
CONTINUOUS
10
-4.38916
20
5.88961
11
-4.38926
21
5.88937
0
LINE
8
BLACK
6
CONTINUOUS
10
-4.38926
20
5.88937
11
-4.38928
21
5.88909
0
LINE
8
BLACK
6
CONTINUOUS
10
-4.38928
20
5.88909
11
-4.39003
21
5.88759
0
LINE
8
BLACK
6
CONTINUOUS
10
-4.39003
20
5.88759
11
-4.39018
21
5.88746
0
LINE
8
BLACK
6
CONTINUOUS
10
-4.39018
20
5.88746
11
-4.39025
21
5.88729
0
LINE
8
BLACK
6
CONTINUOUS
10
-4.39025
20
5.88729
11
-4.391
21
5.88654
0
LINE
8
BLACK
6
CONTINUOUS
10
-4.391
20
5.88654
11
-4.39118
21
5.88646
0
LINE
8
BLACK
6
CONTINUOUS
10
-4.39118
20
5.88646
11
-4.39131
21
5.88631
0
LINE
8
BLACK
6
CONTINUOUS
10
-4.39131
20
5.88631
11
-4.39281
21
5.88556
0
LINE
8
BLACK
6
CONTINUOUS
10
-4.39281
20
5.88556
11
-4.39308
21
5.88554
0
LINE
8
BLACK
6
CONTINUOUS
10
-4.39308
20
5.88554
11
-4.39334
21
5.88544
0
LINE
8
BLACK
6
CONTINUOUS
10
-4.39334
20
5.88544
11
-4.39559
21
5.88544
0
LINE
8
BLACK
6
CONTINUOUS
10
-4.39559
20
5.88544
11
-4.39584
21
5.88554
0
LINE
8
BLACK
6
CONTINUOUS
10
-4.39584
20
5.88554
11
-4.39611
21
5.88556
0
LINE
8
BLACK
6
CONTINUOUS
10
-4.39611
20
5.88556
11
-4.39761
21
5.88631
0
LINE
8
BLACK
6
CONTINUOUS
10
-4.39761
20
5.88631
11
-4.39774
21
5.88646
0
LINE
8
BLACK
6
CONTINUOUS
10
-4.39774
20
5.88646
11
-4.39792
21
5.88654
0
LINE
8
BLACK
6
CONTINUOUS
10
-4.39792
20
5.88654
11
-4.39867
21
5.88729
0
LINE
8
BLACK
6
CONTINUOUS
10
-4.39867
20
5.88729
11
-4.39875
21
5.88746
0
LINE
8
BLACK
6
CONTINUOUS
10
-4.39875
20
5.88746
11
-4.39889
21
5.88759
0
LINE
8
BLACK
6
CONTINUOUS
10
-4.39889
20
5.88759
11
-4.39964
21
5.88909
0
LINE
8
BLACK
6
CONTINUOUS
10
-4.39964
20
5.88909
11
-4.39966
21
5.88937
0
LINE
8
BLACK
6
CONTINUOUS
10
-4.39966
20
5.88937
11
-4.39977
21
5.88962
0
LINE
8
BLACK
6
CONTINUOUS
10
-4.39977
20
5.88962
11
-4.39977
21
5.89562
0
LINE
8
BLACK
6
CONTINUOUS
10
-4.39977
20
5.89562
11
-4.39942
21
5.89645
0
LINE
8
BLACK
6
CONTINUOUS
10
-4.39942
20
5.89645
11
-4.39859
21
5.8968
0
LINE
8
BLACK
6
CONTINUOUS
10
-4.39859
20
5.8968
11
-4.38284
21
5.8968
0
LINE
8
BLACK
6
CONTINUOUS
10
-4.38284
20
5.8968
11
-4.382
21
5.89645
0
LINE
8
BLACK
6
CONTINUOUS
10
-4.3974
20
5.8899
11
-4.39686
21
5.88882
0
LINE
8
BLACK
6
CONTINUOUS
10
-4.39686
20
5.88882
11
-4.39639
21
5.88834
0
LINE
8
BLACK
6
CONTINUOUS
10
-4.39639
20
5.88834
11
-4.39531
21
5.8878
0
LINE
8
BLACK
6
CONTINUOUS
10
-4.39531
20
5.8878
11
-4.39362
21
5.8878
0
LINE
8
BLACK
6
CONTINUOUS
10
-4.39362
20
5.8878
11
-4.39254
21
5.88834
0
LINE
8
BLACK
6
CONTINUOUS
10
-4.39254
20
5.88834
11
-4.39206
21
5.88882
0
LINE
8
BLACK
6
CONTINUOUS
10
-4.39206
20
5.88882
11
-4.39152
21
5.8899
0
LINE
8
BLACK
6
CONTINUOUS
10
-4.39152
20
5.8899
11
-4.39152
21
5.89444
0
LINE
8
BLACK
6
CONTINUOUS
10
-4.39152
20
5.89444
11
-4.3974
21
5.89444
0
LINE
8
BLACK
6
CONTINUOUS
10
-4.3974
20
5.89444
11
-4.3974
21
5.8899
0
LINE
8
BLACK
6
CONTINUOUS
10
-4.37376
20
5.91746
11
-4.37237
21
5.91688
0
LINE
8
BLACK
6
CONTINUOUS
10
-4.37237
20
5.91688
11
-4.37179
21
5.91549
0
LINE
8
BLACK
6
CONTINUOUS
10
-4.37179
20
5.91549
11
-4.37179
21
5.8525
0
LINE
8
BLACK
6
CONTINUOUS
10
-4.37179
20
5.8525
11
-4.37237
21
5.85111
0
LINE
8
BLACK
6
CONTINUOUS
10
-4.37237
20
5.85111
11
-4.37376
21
5.85053
0
LINE
8
BLACK
6
CONTINUOUS
10
-4.37376
20
5.85053
11
-4.40624
21
5.85053
0
LINE
8
BLACK
6
CONTINUOUS
10
-4.40624
20
5.85053
11
-4.40763
21
5.85111
0
LINE
8
BLACK
6
CONTINUOUS
10
-4.40763
20
5.85111
11
-4.40821
21
5.8525
0
LINE
8
BLACK
6
CONTINUOUS
10
-4.40821
20
5.8525
11
-4.40821
21
5.91549
0
LINE
8
BLACK
6
CONTINUOUS
10
-4.40821
20
5.91549
11
-4.40763
21
5.91688
0
LINE
8
BLACK
6
CONTINUOUS
10
-4.40763
20
5.91688
11
-4.40624
21
5.91746
0
LINE
8
BLACK
6
CONTINUOUS
10
-4.40624
20
5.91746
11
-4.37376
21
5.91746
0
LINE
8
BLACK
6
CONTINUOUS
10
-4.40427
20
5.91352
11
-4.40427
21
5.85447
0
LINE
8
BLACK
6
CONTINUOUS
10
-4.40427
20
5.85447
11
-4.37573
21
5.85447
0
LINE
8
BLACK
6
CONTINUOUS
10
-4.37573
20
5.85447
11
-4.37573
21
5.91352
0
LINE
8
BLACK
6
CONTINUOUS
10
-4.37573
20
5.91352
11
-4.40427
21
5.91352
0
LINE
8
BLACK
6
CONTINUOUS
10
-4.30558
20
5.8817
11
-4.30531
21
5.88168
0
LINE
8
BLACK
6
CONTINUOUS
10
-4.30531
20
5.88168
11
-4.30381
21
5.88093
0
LINE
8
BLACK
6
CONTINUOUS
10
-4.30381
20
5.88093
11
-4.30368
21
5.88078
0
LINE
8
BLACK
6
CONTINUOUS
10
-4.30368
20
5.88078
11
-4.3035
21
5.88071
0
LINE
8
BLACK
6
CONTINUOUS
10
-4.3035
20
5.88071
11
-4.30275
21
5.87996
0
LINE
8
BLACK
6
CONTINUOUS
10
-4.30275
20
5.87996
11
-4.30268
21
5.87978
0
LINE
8
BLACK
6
CONTINUOUS
10
-4.30268
20
5.87978
11
-4.30253
21
5.87965
0
LINE
8
BLACK
6
CONTINUOUS
10
-4.30253
20
5.87965
11
-4.30178
21
5.87815
0
LINE
8
BLACK
6
CONTINUOUS
10
-4.30178
20
5.87815
11
-4.30176
21
5.87788
0
LINE
8
BLACK
6
CONTINUOUS
10
-4.30176
20
5.87788
11
-4.30166
21
5.87762
0
LINE
8
BLACK
6
CONTINUOUS
10
-4.30166
20
5.87762
11
-4.30166
21
5.87462
0
LINE
8
BLACK
6
CONTINUOUS
10
-4.30166
20
5.87462
11
-4.30176
21
5.87437
0
LINE
8
BLACK
6
CONTINUOUS
10
-4.30176
20
5.87437
11
-4.30178
21
5.87409
0
LINE
8
BLACK
6
CONTINUOUS
10
-4.30178
20
5.87409
11
-4.30253
21
5.87259
0
LINE
8
BLACK
6
CONTINUOUS
10
-4.30253
20
5.87259
11
-4.30268
21
5.87247
0
LINE
8
BLACK
6
CONTINUOUS
10
-4.30268
20
5.87247
11
-4.30275
21
5.87229
0
LINE
8
BLACK
6
CONTINUOUS
10
-4.30275
20
5.87229
11
-4.3035
21
5.87154
0
LINE
8
BLACK
6
CONTINUOUS
10
-4.3035
20
5.87154
11
-4.30368
21
5.87146
0
LINE
8
BLACK
6
CONTINUOUS
10
-4.30368
20
5.87146
11
-4.30381
21
5.87132
0
LINE
8
BLACK
6
CONTINUOUS
10
-4.30381
20
5.87132
11
-4.30531
21
5.87057
0
LINE
8
BLACK
6
CONTINUOUS
10
-4.30531
20
5.87057
11
-4.30558
21
5.87055
0
LINE
8
BLACK
6
CONTINUOUS
10
-4.30558
20
5.87055
11
-4.30584
21
5.87044
0
LINE
8
BLACK
6
CONTINUOUS
10
-4.30584
20
5.87044
11
-4.30959
21
5.87044
0
LINE
8
BLACK
6
CONTINUOUS
10
-4.30959
20
5.87044
11
-4.30984
21
5.87055
0
LINE
8
BLACK
6
CONTINUOUS
10
-4.30984
20
5.87055
11
-4.31011
21
5.87057
0
LINE
8
BLACK
6
CONTINUOUS
10
-4.31011
20
5.87057
11
-4.31161
21
5.87132
0
LINE
8
BLACK
6
CONTINUOUS
10
-4.31161
20
5.87132
11
-4.31174
21
5.87146
0
LINE
8
BLACK
6
CONTINUOUS
10
-4.31174
20
5.87146
11
-4.31192
21
5.87154
0
LINE
8
BLACK
6
CONTINUOUS
10
-4.31192
20
5.87154
11
-4.31267
21
5.87229
0
LINE
8
BLACK
6
CONTINUOUS
10
-4.31267
20
5.87229
11
-4.31275
21
5.87247
0
LINE
8
BLACK
6
CONTINUOUS
10
-4.31275
20
5.87247
11
-4.31289
21
5.87259
0
LINE
8
BLACK
6
CONTINUOUS
10
-4.31289
20
5.87259
11
-4.31364
21
5.87409
0
LINE
8
BLACK
6
CONTINUOUS
10
-4.31364
20
5.87409
11
-4.31366
21
5.87437
0
LINE
8
BLACK
6
CONTINUOUS
10
-4.31366
20
5.87437
11
-4.31377
21
5.87462
0
LINE
8
BLACK
6
CONTINUOUS
10
-4.31377
20
5.87462
11
-4.31377
21
5.87762
0
LINE
8
BLACK
6
CONTINUOUS
10
-4.31377
20
5.87762
11
-4.31366
21
5.87788
0
LINE
8
BLACK
6
CONTINUOUS
10
-4.31366
20
5.87788
11
-4.31364
21
5.87815
0
LINE
8
BLACK
6
CONTINUOUS
10
-4.31364
20
5.87815
11
-4.31318
21
5.87907
0
LINE
8
BLACK
6
CONTINUOUS
10
-4.31318
20
5.87907
11
-4.31435
21
5.87878
0
LINE
8
BLACK
6
CONTINUOUS
10
-4.31435
20
5.87878
11
-4.31633
21
5.87745
0
LINE
8
BLACK
6
CONTINUOUS
10
-4.31633
20
5.87745
11
-4.31686
21
5.87692
0
LINE
8
BLACK
6
CONTINUOUS
10
-4.31686
20
5.87692
11
-4.3174
21
5.87584
0
LINE
8
BLACK
6
CONTINUOUS
10
-4.3174
20
5.87584
11
-4.3174
21
5.87312
0
LINE
8
BLACK
6
CONTINUOUS
10
-4.3174
20
5.87312
11
-4.31775
21
5.87229
0
LINE
8
BLACK
6
CONTINUOUS
10
-4.31775
20
5.87229
11
-4.31859
21
5.87194
0
LINE
8
BLACK
6
CONTINUOUS
10
-4.31859
20
5.87194
11
-4.31942
21
5.87229
0
LINE
8
BLACK
6
CONTINUOUS
10
-4.31942
20
5.87229
11
-4.31977
21
5.87312
0
LINE
8
BLACK
6
CONTINUOUS
10
-4.31977
20
5.87312
11
-4.31977
21
5.87612
0
LINE
8
BLACK
6
CONTINUOUS
10
-4.31977
20
5.87612
11
-4.31966
21
5.87638
0
LINE
8
BLACK
6
CONTINUOUS
10
-4.31966
20
5.87638
11
-4.31964
21
5.87665
0
LINE
8
BLACK
6
CONTINUOUS
10
-4.31964
20
5.87665
11
-4.31889
21
5.87815
0
LINE
8
BLACK
6
CONTINUOUS
10
-4.31889
20
5.87815
11
-4.31875
21
5.87828
0
LINE
8
BLACK
6
CONTINUOUS
10
-4.31875
20
5.87828
11
-4.31867
21
5.87846
0
LINE
8
BLACK
6
CONTINUOUS
10
-4.31867
20
5.87846
11
-4.31792
21
5.87921
0
LINE
8
BLACK
6
CONTINUOUS
10
-4.31792
20
5.87921
11
-4.31781
21
5.87925
0
LINE
8
BLACK
6
CONTINUOUS
10
-4.31781
20
5.87925
11
-4.31774
21
5.87935
0
LINE
8
BLACK
6
CONTINUOUS
10
-4.31774
20
5.87935
11
-4.31549
21
5.88085
0
LINE
8
BLACK
6
CONTINUOUS
10
-4.31549
20
5.88085
11
-4.31529
21
5.88089
0
LINE
8
BLACK
6
CONTINUOUS
10
-4.31529
20
5.88089
11
-4.31512
21
5.88102
0
LINE
8
BLACK
6
CONTINUOUS
10
-4.31512
20
5.88102
11
-4.31212
21
5.88177
0
LINE
8
BLACK
6
CONTINUOUS
10
-4.31212
20
5.88177
11
-4.31197
21
5.88175
0
LINE
8
BLACK
6
CONTINUOUS
10
-4.31197
20
5.88175
11
-4.31184
21
5.8818
0
LINE
8
BLACK
6
CONTINUOUS
10
-4.31184
20
5.8818
11
-4.30584
21
5.8818
0
LINE
8
BLACK
6
CONTINUOUS
10
-4.30584
20
5.8818
11
-4.30558
21
5.8817
0
LINE
8
BLACK
6
CONTINUOUS
10
-4.31039
20
5.8789
11
-4.31087
21
5.87842
0
LINE
8
BLACK
6
CONTINUOUS
10
-4.31087
20
5.87842
11
-4.31141
21
5.87734
0
LINE
8
BLACK
6
CONTINUOUS
10
-4.31141
20
5.87734
11
-4.31141
21
5.8749
0
LINE
8
BLACK
6
CONTINUOUS
10
-4.31141
20
5.8749
11
-4.31087
21
5.87382
0
LINE
8
BLACK
6
CONTINUOUS
10
-4.31087
20
5.87382
11
-4.31039
21
5.87334
0
LINE
8
BLACK
6
CONTINUOUS
10
-4.31039
20
5.87334
11
-4.30931
21
5.8728
0
LINE
8
BLACK
6
CONTINUOUS
10
-4.30931
20
5.8728
11
-4.30612
21
5.8728
0
LINE
8
BLACK
6
CONTINUOUS
10
-4.30612
20
5.8728
11
-4.30504
21
5.87334
0
LINE
8
BLACK
6
CONTINUOUS
10
-4.30504
20
5.87334
11
-4.30456
21
5.87382
0
LINE
8
BLACK
6
CONTINUOUS
10
-4.30456
20
5.87382
11
-4.30402
21
5.8749
0
LINE
8
BLACK
6
CONTINUOUS
10
-4.30402
20
5.8749
11
-4.30402
21
5.87734
0
LINE
8
BLACK
6
CONTINUOUS
10
-4.30402
20
5.87734
11
-4.30456
21
5.87842
0
LINE
8
BLACK
6
CONTINUOUS
10
-4.30456
20
5.87842
11
-4.30504
21
5.8789
0
LINE
8
BLACK
6
CONTINUOUS
10
-4.30504
20
5.8789
11
-4.30612
21
5.87944
0
LINE
8
BLACK
6
CONTINUOUS
10
-4.30612
20
5.87944
11
-4.30931
21
5.87944
0
LINE
8
BLACK
6
CONTINUOUS
10
-4.30931
20
5.87944
11
-4.31039
21
5.8789
0
LINE
8
BLACK
6
CONTINUOUS
10
-4.302
20
5.89645
11
-4.30166
21
5.89562
0
LINE
8
BLACK
6
CONTINUOUS
10
-4.30166
20
5.89562
11
-4.302
21
5.89478
0
LINE
8
BLACK
6
CONTINUOUS
10
-4.302
20
5.89478
11
-4.30284
21
5.89444
0
LINE
8
BLACK
6
CONTINUOUS
10
-4.30284
20
5.89444
11
-4.30916
21
5.89444
0
LINE
8
BLACK
6
CONTINUOUS
10
-4.30916
20
5.89444
11
-4.30916
21
5.89248
0
LINE
8
BLACK
6
CONTINUOUS
10
-4.30916
20
5.89248
11
-4.30216
21
5.88759
0
LINE
8
BLACK
6
CONTINUOUS
10
-4.30216
20
5.88759
11
-4.30167
21
5.88683
0
LINE
8
BLACK
6
CONTINUOUS
10
-4.30167
20
5.88683
11
-4.30187
21
5.88594
0
LINE
8
BLACK
6
CONTINUOUS
10
-4.30187
20
5.88594
11
-4.30263
21
5.88546
0
LINE
8
BLACK
6
CONTINUOUS
10
-4.30263
20
5.88546
11
-4.30351
21
5.88565
0
LINE
8
BLACK
6
CONTINUOUS
10
-4.30351
20
5.88565
11
-4.30916
21
5.88961
0
LINE
8
BLACK
6
CONTINUOUS
10
-4.30916
20
5.88961
11
-4.30926
21
5.88937
0
LINE
8
BLACK
6
CONTINUOUS
10
-4.30926
20
5.88937
11
-4.30928
21
5.88909
0
LINE
8
BLACK
6
CONTINUOUS
10
-4.30928
20
5.88909
11
-4.31003
21
5.88759
0
LINE
8
BLACK
6
CONTINUOUS
10
-4.31003
20
5.88759
11
-4.31018
21
5.88746
0
LINE
8
BLACK
6
CONTINUOUS
10
-4.31018
20
5.88746
11
-4.31025
21
5.88729
0
LINE
8
BLACK
6
CONTINUOUS
10
-4.31025
20
5.88729
11
-4.311
21
5.88654
0
LINE
8
BLACK
6
CONTINUOUS
10
-4.311
20
5.88654
11
-4.31118
21
5.88646
0
LINE
8
BLACK
6
CONTINUOUS
10
-4.31118
20
5.88646
11
-4.31131
21
5.88631
0
LINE
8
BLACK
6
CONTINUOUS
10
-4.31131
20
5.88631
11
-4.31281
21
5.88556
0
LINE
8
BLACK
6
CONTINUOUS
10
-4.31281
20
5.88556
11
-4.31308
21
5.88554
0
LINE
8
BLACK
6
CONTINUOUS
10
-4.31308
20
5.88554
11
-4.31334
21
5.88544
0
LINE
8
BLACK
6
CONTINUOUS
10
-4.31334
20
5.88544
11
-4.31559
21
5.88544
0
LINE
8
BLACK
6
CONTINUOUS
10
-4.31559
20
5.88544
11
-4.31584
21
5.88554
0
LINE
8
BLACK
6
CONTINUOUS
10
-4.31584
20
5.88554
11
-4.31611
21
5.88556
0
LINE
8
BLACK
6
CONTINUOUS
10
-4.31611
20
5.88556
11
-4.31761
21
5.88631
0
LINE
8
BLACK
6
CONTINUOUS
10
-4.31761
20
5.88631
11
-4.31774
21
5.88646
0
LINE
8
BLACK
6
CONTINUOUS
10
-4.31774
20
5.88646
11
-4.31792
21
5.88654
0
LINE
8
BLACK
6
CONTINUOUS
10
-4.31792
20
5.88654
11
-4.31867
21
5.88729
0
LINE
8
BLACK
6
CONTINUOUS
10
-4.31867
20
5.88729
11
-4.31875
21
5.88746
0
LINE
8
BLACK
6
CONTINUOUS
10
-4.31875
20
5.88746
11
-4.31889
21
5.88759
0
LINE
8
BLACK
6
CONTINUOUS
10
-4.31889
20
5.88759
11
-4.31964
21
5.88909
0
LINE
8
BLACK
6
CONTINUOUS
10
-4.31964
20
5.88909
11
-4.31966
21
5.88937
0
LINE
8
BLACK
6
CONTINUOUS
10
-4.31966
20
5.88937
11
-4.31977
21
5.88962
0
LINE
8
BLACK
6
CONTINUOUS
10
-4.31977
20
5.88962
11
-4.31977
21
5.89562
0
LINE
8
BLACK
6
CONTINUOUS
10
-4.31977
20
5.89562
11
-4.31942
21
5.89645
0
LINE
8
BLACK
6
CONTINUOUS
10
-4.31942
20
5.89645
11
-4.31859
21
5.8968
0
LINE
8
BLACK
6
CONTINUOUS
10
-4.31859
20
5.8968
11
-4.30284
21
5.8968
0
LINE
8
BLACK
6
CONTINUOUS
10
-4.30284
20
5.8968
11
-4.302
21
5.89645
0
LINE
8
BLACK
6
CONTINUOUS
10
-4.3174
20
5.8899
11
-4.31686
21
5.88882
0
LINE
8
BLACK
6
CONTINUOUS
10
-4.31686
20
5.88882
11
-4.31639
21
5.88834
0
LINE
8
BLACK
6
CONTINUOUS
10
-4.31639
20
5.88834
11
-4.31531
21
5.8878
0
LINE
8
BLACK
6
CONTINUOUS
10
-4.31531
20
5.8878
11
-4.31362
21
5.8878
0
LINE
8
BLACK
6
CONTINUOUS
10
-4.31362
20
5.8878
11
-4.31254
21
5.88834
0
LINE
8
BLACK
6
CONTINUOUS
10
-4.31254
20
5.88834
11
-4.31206
21
5.88882
0
LINE
8
BLACK
6
CONTINUOUS
10
-4.31206
20
5.88882
11
-4.31152
21
5.8899
0
LINE
8
BLACK
6
CONTINUOUS
10
-4.31152
20
5.8899
11
-4.31152
21
5.89444
0
LINE
8
BLACK
6
CONTINUOUS
10
-4.31152
20
5.89444
11
-4.3174
21
5.89444
0
LINE
8
BLACK
6
CONTINUOUS
10
-4.3174
20
5.89444
11
-4.3174
21
5.8899
0
LINE
8
BLACK
6
CONTINUOUS
10
-4.29376
20
5.91746
11
-4.29237
21
5.91688
0
LINE
8
BLACK
6
CONTINUOUS
10
-4.29237
20
5.91688
11
-4.29179
21
5.91549
0
LINE
8
BLACK
6
CONTINUOUS
10
-4.29179
20
5.91549
11
-4.29179
21
5.8525
0
LINE
8
BLACK
6
CONTINUOUS
10
-4.29179
20
5.8525
11
-4.29237
21
5.85111
0
LINE
8
BLACK
6
CONTINUOUS
10
-4.29237
20
5.85111
11
-4.29376
21
5.85053
0
LINE
8
BLACK
6
CONTINUOUS
10
-4.29376
20
5.85053
11
-4.32624
21
5.85053
0
LINE
8
BLACK
6
CONTINUOUS
10
-4.32624
20
5.85053
11
-4.32763
21
5.85111
0
LINE
8
BLACK
6
CONTINUOUS
10
-4.32763
20
5.85111
11
-4.32821
21
5.8525
0
LINE
8
BLACK
6
CONTINUOUS
10
-4.32821
20
5.8525
11
-4.32821
21
5.91549
0
LINE
8
BLACK
6
CONTINUOUS
10
-4.32821
20
5.91549
11
-4.32763
21
5.91688
0
LINE
8
BLACK
6
CONTINUOUS
10
-4.32763
20
5.91688
11
-4.32624
21
5.91746
0
LINE
8
BLACK
6
CONTINUOUS
10
-4.32624
20
5.91746
11
-4.29376
21
5.91746
0
LINE
8
BLACK
6
CONTINUOUS
10
-4.32427
20
5.91352
11
-4.32427
21
5.85447
0
LINE
8
BLACK
6
CONTINUOUS
10
-4.32427
20
5.85447
11
-4.29573
21
5.85447
0
LINE
8
BLACK
6
CONTINUOUS
10
-4.29573
20
5.85447
11
-4.29573
21
5.91352
0
LINE
8
BLACK
6
CONTINUOUS
10
-4.29573
20
5.91352
11
-4.32427
21
5.91352
0
LINE
8
BLACK
6
CONTINUOUS
10
-4.74174
20
5.92908
11
-4.71821
21
5.90554
0
LINE
8
BLACK
6
CONTINUOUS
10
-4.71821
20
5.90554
11
-4.71821
21
5.92699
0
LINE
8
BLACK
6
CONTINUOUS
10
-4.71821
20
5.92699
11
-4.71803
21
5.928
0
LINE
8
BLACK
6
CONTINUOUS
10
-4.71803
20
5.928
11
-4.71674
21
5.92954
0
LINE
8
BLACK
6
CONTINUOUS
10
-4.71674
20
5.92954
11
-4.71475
21
5.9299
0
LINE
8
BLACK
6
CONTINUOUS
10
-4.71475
20
5.9299
11
-4.713
21
5.92889
0
LINE
8
BLACK
6
CONTINUOUS
10
-4.713
20
5.92889
11
-4.71231
21
5.92699
0
LINE
8
BLACK
6
CONTINUOUS
10
-4.71231
20
5.92699
11
-4.71231
21
5.87699
0
LINE
8
BLACK
6
CONTINUOUS
10
-4.71231
20
5.87699
11
-4.71248
21
5.87598
0
LINE
8
BLACK
6
CONTINUOUS
10
-4.71248
20
5.87598
11
-4.71378
21
5.87443
0
LINE
8
BLACK
6
CONTINUOUS
10
-4.71378
20
5.87443
11
-4.71577
21
5.87408
0
LINE
8
BLACK
6
CONTINUOUS
10
-4.71577
20
5.87408
11
-4.71752
21
5.87509
0
LINE
8
BLACK
6
CONTINUOUS
10
-4.71752
20
5.87509
11
-4.71821
21
5.87699
0
LINE
8
BLACK
6
CONTINUOUS
10
-4.71821
20
5.87699
11
-4.71821
21
5.89719
0
LINE
8
BLACK
6
CONTINUOUS
10
-4.71821
20
5.89719
11
-4.72208
21
5.90106
0
LINE
8
BLACK
6
CONTINUOUS
10
-4.72208
20
5.90106
11
-4.74147
21
5.87522
0
LINE
8
BLACK
6
CONTINUOUS
10
-4.74147
20
5.87522
11
-4.74222
21
5.87451
0
LINE
8
BLACK
6
CONTINUOUS
10
-4.74222
20
5.87451
11
-4.74418
21
5.87406
0
LINE
8
BLACK
6
CONTINUOUS
10
-4.74418
20
5.87406
11
-4.74599
21
5.87497
0
LINE
8
BLACK
6
CONTINUOUS
10
-4.74599
20
5.87497
11
-4.74678
21
5.87683
0
LINE
8
BLACK
6
CONTINUOUS
10
-4.74678
20
5.87683
11
-4.74619
21
5.87876
0
LINE
8
BLACK
6
CONTINUOUS
10
-4.74619
20
5.87876
11
-4.7263
21
5.90528
0
LINE
8
BLACK
6
CONTINUOUS
10
-4.7263
20
5.90528
11
-4.74592
21
5.9249
0
LINE
8
BLACK
6
CONTINUOUS
10
-4.74592
20
5.9249
11
-4.74651
21
5.92574
0
LINE
8
BLACK
6
CONTINUOUS
10
-4.74651
20
5.92574
11
-4.74668
21
5.92775
0
LINE
8
BLACK
6
CONTINUOUS
10
-4.74668
20
5.92775
11
-4.74552
21
5.92941
0
LINE
8
BLACK
6
CONTINUOUS
10
-4.74552
20
5.92941
11
-4.74357
21
5.92993
0
LINE
8
BLACK
6
CONTINUOUS
10
-4.74357
20
5.92993
11
-4.74174
21
5.92908
0
LINE
8
BLACK
6
CONTINUOUS
10
-4.55655
20
5.95194
11
-4.55642
21
5.95196
0
LINE
8
BLACK
6
CONTINUOUS
10
-4.55642
20
5.95196
11
-4.5563
21
5.9519
0
LINE
8
BLACK
6
CONTINUOUS
10
-4.5563
20
5.9519
11
-4.55592
21
5.95183
0
LINE
8
BLACK
6
CONTINUOUS
10
-4.55592
20
5.95183
11
-4.55533
21
5.95134
0
LINE
8
BLACK
6
CONTINUOUS
10
-4.55533
20
5.95134
11
-4.55467
21
5.95095
0
LINE
8
BLACK
6
CONTINUOUS
10
-4.55467
20
5.95095
11
-4.55458
21
5.9507
0
LINE
8
BLACK
6
CONTINUOUS
10
-4.55458
20
5.9507
11
-4.55437
21
5.95053
0
LINE
8
BLACK
6
CONTINUOUS
10
-4.55437
20
5.95053
11
-4.55424
21
5.94978
0
LINE
8
BLACK
6
CONTINUOUS
10
-4.55424
20
5.94978
11
-4.55398
21
5.94906
0
LINE
8
BLACK
6
CONTINUOUS
10
-4.55398
20
5.94906
11
-4.55398
21
5.85457
0
LINE
8
BLACK
6
CONTINUOUS
10
-4.55398
20
5.85457
11
-4.55404
21
5.85418
0
LINE
8
BLACK
6
CONTINUOUS
10
-4.55404
20
5.85418
11
-4.55402
21
5.85405
0
LINE
8
BLACK
6
CONTINUOUS
10
-4.55402
20
5.85405
11
-4.55409
21
5.85394
0
LINE
8
BLACK
6
CONTINUOUS
10
-4.55409
20
5.85394
11
-4.55415
21
5.85356
0
LINE
8
BLACK
6
CONTINUOUS
10
-4.55415
20
5.85356
11
-4.55465
21
5.85297
0
LINE
8
BLACK
6
CONTINUOUS
10
-4.55465
20
5.85297
11
-4.55503
21
5.8523
0
LINE
8
BLACK
6
CONTINUOUS
10
-4.55503
20
5.8523
11
-4.55528
21
5.85221
0
LINE
8
BLACK
6
CONTINUOUS
10
-4.55528
20
5.85221
11
-4.55545
21
5.85201
0
LINE
8
BLACK
6
CONTINUOUS
10
-4.55545
20
5.85201
11
-4.55621
21
5.85188
0
LINE
8
BLACK
6
CONTINUOUS
10
-4.55621
20
5.85188
11
-4.55693
21
5.85161
0
LINE
8
BLACK
6
CONTINUOUS
10
-4.55693
20
5.85161
11
-4.75378
21
5.85161
0
LINE
8
BLACK
6
CONTINUOUS
10
-4.75378
20
5.85161
11
-4.75416
21
5.85168
0
LINE
8
BLACK
6
CONTINUOUS
10
-4.75416
20
5.85168
11
-4.75429
21
5.85166
0
LINE
8
BLACK
6
CONTINUOUS
10
-4.75429
20
5.85166
11
-4.75441
21
5.85172
0
LINE
8
BLACK
6
CONTINUOUS
10
-4.75441
20
5.85172
11
-4.75479
21
5.85179
0
LINE
8
BLACK
6
CONTINUOUS
10
-4.75479
20
5.85179
11
-4.75538
21
5.85229
0
LINE
8
BLACK
6
CONTINUOUS
10
-4.75538
20
5.85229
11
-4.75604
21
5.85267
0
LINE
8
BLACK
6
CONTINUOUS
10
-4.75604
20
5.85267
11
-4.75613
21
5.85292
0
LINE
8
BLACK
6
CONTINUOUS
10
-4.75613
20
5.85292
11
-4.75634
21
5.85309
0
LINE
8
BLACK
6
CONTINUOUS
10
-4.75634
20
5.85309
11
-4.75647
21
5.85385
0
LINE
8
BLACK
6
CONTINUOUS
10
-4.75647
20
5.85385
11
-4.75673
21
5.85457
0
LINE
8
BLACK
6
CONTINUOUS
10
-4.75673
20
5.85457
11
-4.75673
21
5.94906
0
LINE
8
BLACK
6
CONTINUOUS
10
-4.75673
20
5.94906
11
-4.75666
21
5.94944
0
LINE
8
BLACK
6
CONTINUOUS
10
-4.75666
20
5.94944
11
-4.75669
21
5.94957
0
LINE
8
BLACK
6
CONTINUOUS
10
-4.75669
20
5.94957
11
-4.75662
21
5.94968
0
LINE
8
BLACK
6
CONTINUOUS
10
-4.75662
20
5.94968
11
-4.75655
21
5.95007
0
LINE
8
BLACK
6
CONTINUOUS
10
-4.75655
20
5.95007
11
-4.75606
21
5.95065
0
LINE
8
BLACK
6
CONTINUOUS
10
-4.75606
20
5.95065
11
-4.75568
21
5.95132
0
LINE
8
BLACK
6
CONTINUOUS
10
-4.75568
20
5.95132
11
-4.75543
21
5.95141
0
LINE
8
BLACK
6
CONTINUOUS
10
-4.75543
20
5.95141
11
-4.75526
21
5.95161
0
LINE
8
BLACK
6
CONTINUOUS
10
-4.75526
20
5.95161
11
-4.7545
21
5.95175
0
LINE
8
BLACK
6
CONTINUOUS
10
-4.7545
20
5.95175
11
-4.75378
21
5.95201
0
LINE
8
BLACK
6
CONTINUOUS
10
-4.75378
20
5.95201
11
-4.55693
21
5.95201
0
LINE
8
BLACK
6
CONTINUOUS
10
-4.55693
20
5.95201
11
-4.55655
21
5.95194
0
LINE
8
BLACK
6
CONTINUOUS
10
-4.75083
20
5.9461
11
-4.75083
21
5.85752
0
LINE
8
BLACK
6
CONTINUOUS
10
-4.75083
20
5.85752
11
-4.55988
21
5.85752
0
LINE
8
BLACK
6
CONTINUOUS
10
-4.55988
20
5.85752
11
-4.55988
21
5.9461
0
LINE
8
BLACK
6
CONTINUOUS
10
-4.55988
20
5.9461
11
-4.75083
21
5.9461
0
LINE
8
BLACK
6
CONTINUOUS
10
-4.49676
20
5.89972
11
-4.49664
21
5.89974
0
LINE
8
BLACK
6
CONTINUOUS
10
-4.49664
20
5.89974
11
-4.49635
21
5.89955
0
LINE
8
BLACK
6
CONTINUOUS
10
-4.49635
20
5.89955
11
-4.49603
21
5.89942
0
LINE
8
BLACK
6
CONTINUOUS
10
-4.49603
20
5.89942
11
-4.49599
21
5.89931
0
LINE
8
BLACK
6
CONTINUOUS
10
-4.49599
20
5.89931
11
-4.49589
21
5.89924
0
LINE
8
BLACK
6
CONTINUOUS
10
-4.49589
20
5.89924
11
-4.49445
21
5.89709
0
LINE
8
BLACK
6
CONTINUOUS
10
-4.49445
20
5.89709
11
-4.49317
21
5.89581
0
LINE
8
BLACK
6
CONTINUOUS
10
-4.49317
20
5.89581
11
-4.49184
21
5.89514
0
LINE
8
BLACK
6
CONTINUOUS
10
-4.49184
20
5.89514
11
-4.49125
21
5.89446
0
LINE
8
BLACK
6
CONTINUOUS
10
-4.49125
20
5.89446
11
-4.49131
21
5.89356
0
LINE
8
BLACK
6
CONTINUOUS
10
-4.49131
20
5.89356
11
-4.492
21
5.89297
0
LINE
8
BLACK
6
CONTINUOUS
10
-4.492
20
5.89297
11
-4.4929
21
5.89303
0
LINE
8
BLACK
6
CONTINUOUS
10
-4.4929
20
5.89303
11
-4.4944
21
5.89378
0
LINE
8
BLACK
6
CONTINUOUS
10
-4.4944
20
5.89378
11
-4.49453
21
5.89393
0
LINE
8
BLACK
6
CONTINUOUS
10
-4.49453
20
5.89393
11
-4.49471
21
5.894
0
LINE
8
BLACK
6
CONTINUOUS
10
-4.49471
20
5.894
11
-4.49569
21
5.89498
0
LINE
8
BLACK
6
CONTINUOUS
10
-4.49569
20
5.89498
11
-4.49569
21
5.88402
0
LINE
8
BLACK
6
CONTINUOUS
10
-4.49569
20
5.88402
11
-4.49237
21
5.88402
0
LINE
8
BLACK
6
CONTINUOUS
10
-4.49237
20
5.88402
11
-4.49154
21
5.88367
0
LINE
8
BLACK
6
CONTINUOUS
10
-4.49154
20
5.88367
11
-4.49119
21
5.88284
0
LINE
8
BLACK
6
CONTINUOUS
10
-4.49119
20
5.88284
11
-4.49154
21
5.882
0
LINE
8
BLACK
6
CONTINUOUS
10
-4.49154
20
5.882
11
-4.49237
21
5.88166
0
LINE
8
BLACK
6
CONTINUOUS
10
-4.49237
20
5.88166
11
-4.49687
21
5.88166
0
LINE
8
BLACK
6
CONTINUOUS
10
-4.49687
20
5.88166
11
-4.50137
21
5.88166
0
LINE
8
BLACK
6
CONTINUOUS
10
-4.50137
20
5.88166
11
-4.5022
21
5.882
0
LINE
8
BLACK
6
CONTINUOUS
10
-4.5022
20
5.882
11
-4.50255
21
5.88284
0
LINE
8
BLACK
6
CONTINUOUS
10
-4.50255
20
5.88284
11
-4.5022
21
5.88367
0
LINE
8
BLACK
6
CONTINUOUS
10
-4.5022
20
5.88367
11
-4.50137
21
5.88402
0
LINE
8
BLACK
6
CONTINUOUS
10
-4.50137
20
5.88402
11
-4.49805
21
5.88402
0
LINE
8
BLACK
6
CONTINUOUS
10
-4.49805
20
5.88402
11
-4.49805
21
5.89859
0
LINE
8
BLACK
6
CONTINUOUS
10
-4.49805
20
5.89859
11
-4.498
21
5.8987
0
LINE
8
BLACK
6
CONTINUOUS
10
-4.498
20
5.8987
11
-4.49803
21
5.89882
0
LINE
8
BLACK
6
CONTINUOUS
10
-4.49803
20
5.89882
11
-4.49784
21
5.8991
0
LINE
8
BLACK
6
CONTINUOUS
10
-4.49784
20
5.8991
11
-4.49771
21
5.89942
0
LINE
8
BLACK
6
CONTINUOUS
10
-4.49771
20
5.89942
11
-4.49759
21
5.89947
0
LINE
8
BLACK
6
CONTINUOUS
10
-4.49759
20
5.89947
11
-4.49753
21
5.89957
0
LINE
8
BLACK
6
CONTINUOUS
10
-4.49753
20
5.89957
11
-4.49719
21
5.89963
0
LINE
8
BLACK
6
CONTINUOUS
10
-4.49719
20
5.89963
11
-4.49687
21
5.89977
0
LINE
8
BLACK
6
CONTINUOUS
10
-4.49687
20
5.89977
11
-4.49676
21
5.89972
0
LINE
8
BLACK
6
CONTINUOUS
10
-4.47654
20
5.89942
11
-4.47619
21
5.89859
0
LINE
8
BLACK
6
CONTINUOUS
10
-4.47619
20
5.89859
11
-4.47619
21
5.88284
0
LINE
8
BLACK
6
CONTINUOUS
10
-4.47619
20
5.88284
11
-4.47654
21
5.882
0
LINE
8
BLACK
6
CONTINUOUS
10
-4.47654
20
5.882
11
-4.47737
21
5.88166
0
LINE
8
BLACK
6
CONTINUOUS
10
-4.47737
20
5.88166
11
-4.47821
21
5.882
0
LINE
8
BLACK
6
CONTINUOUS
10
-4.47821
20
5.882
11
-4.47855
21
5.88284
0
LINE
8
BLACK
6
CONTINUOUS
10
-4.47855
20
5.88284
11
-4.47855
21
5.88916
0
LINE
8
BLACK
6
CONTINUOUS
10
-4.47855
20
5.88916
11
-4.48051
21
5.88916
0
LINE
8
BLACK
6
CONTINUOUS
10
-4.48051
20
5.88916
11
-4.4854
21
5.88216
0
LINE
8
BLACK
6
CONTINUOUS
10
-4.4854
20
5.88216
11
-4.48617
21
5.88167
0
LINE
8
BLACK
6
CONTINUOUS
10
-4.48617
20
5.88167
11
-4.48705
21
5.88187
0
LINE
8
BLACK
6
CONTINUOUS
10
-4.48705
20
5.88187
11
-4.48753
21
5.88263
0
LINE
8
BLACK
6
CONTINUOUS
10
-4.48753
20
5.88263
11
-4.48734
21
5.88351
0
LINE
8
BLACK
6
CONTINUOUS
10
-4.48734
20
5.88351
11
-4.48339
21
5.88916
0
LINE
8
BLACK
6
CONTINUOUS
10
-4.48339
20
5.88916
11
-4.48363
21
5.88926
0
LINE
8
BLACK
6
CONTINUOUS
10
-4.48363
20
5.88926
11
-4.4839
21
5.88928
0
LINE
8
BLACK
6
CONTINUOUS
10
-4.4839
20
5.88928
11
-4.4854
21
5.89003
0
LINE
8
BLACK
6
CONTINUOUS
10
-4.4854
20
5.89003
11
-4.48553
21
5.89018
0
LINE
8
BLACK
6
CONTINUOUS
10
-4.48553
20
5.89018
11
-4.48571
21
5.89025
0
LINE
8
BLACK
6
CONTINUOUS
10
-4.48571
20
5.89025
11
-4.48646
21
5.891
0
LINE
8
BLACK
6
CONTINUOUS
10
-4.48646
20
5.891
11
-4.48653
21
5.89118
0
LINE
8
BLACK
6
CONTINUOUS
10
-4.48653
20
5.89118
11
-4.48668
21
5.89131
0
LINE
8
BLACK
6
CONTINUOUS
10
-4.48668
20
5.89131
11
-4.48743
21
5.89281
0
LINE
8
BLACK
6
CONTINUOUS
10
-4.48743
20
5.89281
11
-4.48745
21
5.89308
0
LINE
8
BLACK
6
CONTINUOUS
10
-4.48745
20
5.89308
11
-4.48755
21
5.89334
0
LINE
8
BLACK
6
CONTINUOUS
10
-4.48755
20
5.89334
11
-4.48755
21
5.89559
0
LINE
8
BLACK
6
CONTINUOUS
10
-4.48755
20
5.89559
11
-4.48745
21
5.89584
0
LINE
8
BLACK
6
CONTINUOUS
10
-4.48745
20
5.89584
11
-4.48743
21
5.89611
0
LINE
8
BLACK
6
CONTINUOUS
10
-4.48743
20
5.89611
11
-4.48668
21
5.89761
0
LINE
8
BLACK
6
CONTINUOUS
10
-4.48668
20
5.89761
11
-4.48653
21
5.89774
0
LINE
8
BLACK
6
CONTINUOUS
10
-4.48653
20
5.89774
11
-4.48646
21
5.89792
0
LINE
8
BLACK
6
CONTINUOUS
10
-4.48646
20
5.89792
11
-4.48571
21
5.89867
0
LINE
8
BLACK
6
CONTINUOUS
10
-4.48571
20
5.89867
11
-4.48553
21
5.89875
0
LINE
8
BLACK
6
CONTINUOUS
10
-4.48553
20
5.89875
11
-4.4854
21
5.89889
0
LINE
8
BLACK
6
CONTINUOUS
10
-4.4854
20
5.89889
11
-4.4839
21
5.89964
0
LINE
8
BLACK
6
CONTINUOUS
10
-4.4839
20
5.89964
11
-4.48363
21
5.89966
0
LINE
8
BLACK
6
CONTINUOUS
10
-4.48363
20
5.89966
11
-4.48337
21
5.89977
0
LINE
8
BLACK
6
CONTINUOUS
10
-4.48337
20
5.89977
11
-4.47737
21
5.89977
0
LINE
8
BLACK
6
CONTINUOUS
10
-4.47737
20
5.89977
11
-4.47654
21
5.89942
0
LINE
8
BLACK
6
CONTINUOUS
10
-4.48417
20
5.89686
11
-4.48465
21
5.89639
0
LINE
8
BLACK
6
CONTINUOUS
10
-4.48465
20
5.89639
11
-4.48519
21
5.89531
0
LINE
8
BLACK
6
CONTINUOUS
10
-4.48519
20
5.89531
11
-4.48519
21
5.89361
0
LINE
8
BLACK
6
CONTINUOUS
10
-4.48519
20
5.89361
11
-4.48465
21
5.89254
0
LINE
8
BLACK
6
CONTINUOUS
10
-4.48465
20
5.89254
11
-4.48417
21
5.89206
0
LINE
8
BLACK
6
CONTINUOUS
10
-4.48417
20
5.89206
11
-4.48309
21
5.89152
0
LINE
8
BLACK
6
CONTINUOUS
10
-4.48309
20
5.89152
11
-4.47855
21
5.89152
0
LINE
8
BLACK
6
CONTINUOUS
10
-4.47855
20
5.89152
11
-4.47855
21
5.8974
0
LINE
8
BLACK
6
CONTINUOUS
10
-4.47855
20
5.8974
11
-4.48309
21
5.8974
0
LINE
8
BLACK
6
CONTINUOUS
10
-4.48309
20
5.8974
11
-4.48417
21
5.89686
0
LINE
8
BLACK
6
CONTINUOUS
10
-4.4575
20
5.90821
11
-4.45611
21
5.90763
0
LINE
8
BLACK
6
CONTINUOUS
10
-4.45611
20
5.90763
11
-4.45553
21
5.90624
0
LINE
8
BLACK
6
CONTINUOUS
10
-4.45553
20
5.90624
11
-4.45553
21
5.87376
0
LINE
8
BLACK
6
CONTINUOUS
10
-4.45553
20
5.87376
11
-4.45611
21
5.87237
0
LINE
8
BLACK
6
CONTINUOUS
10
-4.45611
20
5.87237
11
-4.4575
21
5.87179
0
LINE
8
BLACK
6
CONTINUOUS
10
-4.4575
20
5.87179
11
-4.52049
21
5.87179
0
LINE
8
BLACK
6
CONTINUOUS
10
-4.52049
20
5.87179
11
-4.52188
21
5.87237
0
LINE
8
BLACK
6
CONTINUOUS
10
-4.52188
20
5.87237
11
-4.52246
21
5.87376
0
LINE
8
BLACK
6
CONTINUOUS
10
-4.52246
20
5.87376
11
-4.52246
21
5.90624
0
LINE
8
BLACK
6
CONTINUOUS
10
-4.52246
20
5.90624
11
-4.52188
21
5.90763
0
LINE
8
BLACK
6
CONTINUOUS
10
-4.52188
20
5.90763
11
-4.52049
21
5.90821
0
LINE
8
BLACK
6
CONTINUOUS
10
-4.52049
20
5.90821
11
-4.4575
21
5.90821
0
LINE
8
BLACK
6
CONTINUOUS
10
-4.51852
20
5.90427
11
-4.51852
21
5.87573
0
LINE
8
BLACK
6
CONTINUOUS
10
-4.51852
20
5.87573
11
-4.45947
21
5.87573
0
LINE
8
BLACK
6
CONTINUOUS
10
-4.45947
20
5.87573
11
-4.45947
21
5.90427
0
LINE
8
BLACK
6
CONTINUOUS
10
-4.45947
20
5.90427
11
-4.51852
21
5.90427
  0
ENDSEC
  0
EOF
