  0
SECTION
  2
HEADER
  9
$ANGBASE
  50
0.0
  9
$ANGDIR
  70
1
  9
$MEASUREMENT
  70
0
  0
ENDSEC
  0
SECTION
  2
TABLES
  0
TABLE
  2
LTYPE
  70
4
  0
LTYPE
  5
40F
  2
CONTINUOUS
  70
0
  3
Solid line
  72
65
  73
0
  40
0.0
  0
LTYPE
  5
410
  2
DASHDOT
 70
0
  3
Dash Dot ____ _ ____ _
 72
65
 73
4
 40
2.0
 49
1.25
 49
-0.25
 49
0.25
 49
-0.25
  0
LTYPE
  5
411
  2
DASHED
 70
0
  3
Dashed __ __ __ __ __
 72
65
 73
2
 40
0.75
 49
0.5
 49
-0.25
  0
LTYPE
  5
43B
  2
DOTTED
 70
0
  3
Dotted .  .  .  .
 72
65
 73
2
 40
0.2
 49
0.0
 49
-0.2
  0
ENDTAB
  0
TABLE
  2
STYLE
  70
4
  0
STYLE
  2
KICAD
  70
0
  40
0
  41
1
  42
1
  50
0
  71
0
  3
isocp.shx
  0
STYLE
  2
KICADB
  70
0
  40
0
  41
1
  42
1
  50
0
  71
0
  3
isocp.shx
  0
STYLE
  2
KICADI
  70
0
  40
0
  41
1
  42
1
  50
15
  71
0
  3
isocp.shx
  0
STYLE
  2
KICADBI
  70
0
  40
0
  41
1
  42
1
  50
15
  71
0
  3
isocp.shx
  0
ENDTAB
  0
TABLE
  2
LAYER
  70
1
  0
LAYER
  2
BLACK
  70
0
  62
7
  6
CONTINUOUS
  0
ENDTAB
  0
ENDSEC
  0
SECTION
  2
ENTITIES
0
LINE
8
BLACK
6
CONTINUOUS
10
-4.62386
20
5.50909
11
-4.6199
21
5.50847
0
LINE
8
BLACK
6
CONTINUOUS
10
-4.6199
20
5.50847
11
-4.61634
21
5.50665
0
LINE
8
BLACK
6
CONTINUOUS
10
-4.61634
20
5.50665
11
-4.61351
21
5.50382
0
LINE
8
BLACK
6
CONTINUOUS
10
-4.61351
20
5.50382
11
-4.61169
21
5.50025
0
LINE
8
BLACK
6
CONTINUOUS
10
-4.61169
20
5.50025
11
-4.61106
21
5.4963
0
LINE
8
BLACK
6
CONTINUOUS
10
-4.61106
20
5.4963
11
-4.61106
21
5.44118
0
LINE
8
BLACK
6
CONTINUOUS
10
-4.61106
20
5.44118
11
-4.61169
21
5.43723
0
LINE
8
BLACK
6
CONTINUOUS
10
-4.61169
20
5.43723
11
-4.61351
21
5.43366
0
LINE
8
BLACK
6
CONTINUOUS
10
-4.61351
20
5.43366
11
-4.61634
21
5.43083
0
LINE
8
BLACK
6
CONTINUOUS
10
-4.61634
20
5.43083
11
-4.6199
21
5.42901
0
LINE
8
BLACK
6
CONTINUOUS
10
-4.6199
20
5.42901
11
-4.62386
21
5.42839
0
LINE
8
BLACK
6
CONTINUOUS
10
-4.62386
20
5.42839
11
-4.68685
21
5.42839
0
LINE
8
BLACK
6
CONTINUOUS
10
-4.68685
20
5.42839
11
-4.6908
21
5.42901
0
LINE
8
BLACK
6
CONTINUOUS
10
-4.6908
20
5.42901
11
-4.69437
21
5.43083
0
LINE
8
BLACK
6
CONTINUOUS
10
-4.69437
20
5.43083
11
-4.6972
21
5.43366
0
LINE
8
BLACK
6
CONTINUOUS
10
-4.6972
20
5.43366
11
-4.69902
21
5.43723
0
LINE
8
BLACK
6
CONTINUOUS
10
-4.69902
20
5.43723
11
-4.69965
21
5.44118
0
LINE
8
BLACK
6
CONTINUOUS
10
-4.69965
20
5.44118
11
-4.69965
21
5.4963
0
LINE
8
BLACK
6
CONTINUOUS
10
-4.69965
20
5.4963
11
-4.69902
21
5.50025
0
LINE
8
BLACK
6
CONTINUOUS
10
-4.69902
20
5.50025
11
-4.6972
21
5.50382
0
LINE
8
BLACK
6
CONTINUOUS
10
-4.6972
20
5.50382
11
-4.69437
21
5.50665
0
LINE
8
BLACK
6
CONTINUOUS
10
-4.69437
20
5.50665
11
-4.6908
21
5.50847
0
LINE
8
BLACK
6
CONTINUOUS
10
-4.6908
20
5.50847
11
-4.68685
21
5.50909
0
LINE
8
BLACK
6
CONTINUOUS
10
-4.68685
20
5.50909
11
-4.62386
21
5.50909
0
LINE
8
BLACK
6
CONTINUOUS
10
-4.68685
20
5.50713
11
-4.68857
21
5.50713
0
LINE
8
BLACK
6
CONTINUOUS
10
-4.68857
20
5.50713
11
-4.69183
21
5.50607
0
LINE
8
BLACK
6
CONTINUOUS
10
-4.69183
20
5.50607
11
-4.6946
21
5.50405
0
LINE
8
BLACK
6
CONTINUOUS
10
-4.6946
20
5.50405
11
-4.69662
21
5.50128
0
LINE
8
BLACK
6
CONTINUOUS
10
-4.69662
20
5.50128
11
-4.69768
21
5.49801
0
LINE
8
BLACK
6
CONTINUOUS
10
-4.69768
20
5.49801
11
-4.69768
21
5.4963
0
LINE
8
BLACK
6
CONTINUOUS
10
-4.69768
20
5.4963
11
-4.69768
21
5.44118
0
LINE
8
BLACK
6
CONTINUOUS
10
-4.69768
20
5.44118
11
-4.69768
21
5.43947
0
LINE
8
BLACK
6
CONTINUOUS
10
-4.69768
20
5.43947
11
-4.69662
21
5.4362
0
LINE
8
BLACK
6
CONTINUOUS
10
-4.69662
20
5.4362
11
-4.6946
21
5.43343
0
LINE
8
BLACK
6
CONTINUOUS
10
-4.6946
20
5.43343
11
-4.69183
21
5.43141
0
LINE
8
BLACK
6
CONTINUOUS
10
-4.69183
20
5.43141
11
-4.68857
21
5.43035
0
LINE
8
BLACK
6
CONTINUOUS
10
-4.68857
20
5.43035
11
-4.68685
21
5.43035
0
LINE
8
BLACK
6
CONTINUOUS
10
-4.68685
20
5.43035
11
-4.62386
21
5.43035
0
LINE
8
BLACK
6
CONTINUOUS
10
-4.62386
20
5.43035
11
-4.62214
21
5.43035
0
LINE
8
BLACK
6
CONTINUOUS
10
-4.62214
20
5.43035
11
-4.61888
21
5.43141
0
LINE
8
BLACK
6
CONTINUOUS
10
-4.61888
20
5.43141
11
-4.61611
21
5.43343
0
LINE
8
BLACK
6
CONTINUOUS
10
-4.61611
20
5.43343
11
-4.61409
21
5.4362
0
LINE
8
BLACK
6
CONTINUOUS
10
-4.61409
20
5.4362
11
-4.61303
21
5.43947
0
LINE
8
BLACK
6
CONTINUOUS
10
-4.61303
20
5.43947
11
-4.61303
21
5.44118
0
LINE
8
BLACK
6
CONTINUOUS
10
-4.61303
20
5.44118
11
-4.61303
21
5.4963
0
LINE
8
BLACK
6
CONTINUOUS
10
-4.61303
20
5.4963
11
-4.61303
21
5.49801
0
LINE
8
BLACK
6
CONTINUOUS
10
-4.61303
20
5.49801
11
-4.61409
21
5.50128
0
LINE
8
BLACK
6
CONTINUOUS
10
-4.61409
20
5.50128
11
-4.61611
21
5.50405
0
LINE
8
BLACK
6
CONTINUOUS
10
-4.61611
20
5.50405
11
-4.61888
21
5.50607
0
LINE
8
BLACK
6
CONTINUOUS
10
-4.61888
20
5.50607
11
-4.62214
21
5.50713
0
LINE
8
BLACK
6
CONTINUOUS
10
-4.62214
20
5.50713
11
-4.62386
21
5.50713
0
LINE
8
BLACK
6
CONTINUOUS
10
-4.62386
20
5.50713
11
-4.68685
21
5.50713
0
LINE
8
BLACK
6
CONTINUOUS
10
-4.62386
20
5.94217
11
-4.6199
21
5.94154
0
LINE
8
BLACK
6
CONTINUOUS
10
-4.6199
20
5.94154
11
-4.61634
21
5.93972
0
LINE
8
BLACK
6
CONTINUOUS
10
-4.61634
20
5.93972
11
-4.61351
21
5.93689
0
LINE
8
BLACK
6
CONTINUOUS
10
-4.61351
20
5.93689
11
-4.61169
21
5.93332
0
LINE
8
BLACK
6
CONTINUOUS
10
-4.61169
20
5.93332
11
-4.61106
21
5.92937
0
LINE
8
BLACK
6
CONTINUOUS
10
-4.61106
20
5.92937
11
-4.61106
21
5.87425
0
LINE
8
BLACK
6
CONTINUOUS
10
-4.61106
20
5.87425
11
-4.61169
21
5.8703
0
LINE
8
BLACK
6
CONTINUOUS
10
-4.61169
20
5.8703
11
-4.61351
21
5.86673
0
LINE
8
BLACK
6
CONTINUOUS
10
-4.61351
20
5.86673
11
-4.61634
21
5.8639
0
LINE
8
BLACK
6
CONTINUOUS
10
-4.61634
20
5.8639
11
-4.6199
21
5.86208
0
LINE
8
BLACK
6
CONTINUOUS
10
-4.6199
20
5.86208
11
-4.62386
21
5.86146
0
LINE
8
BLACK
6
CONTINUOUS
10
-4.62386
20
5.86146
11
-4.68685
21
5.86146
0
LINE
8
BLACK
6
CONTINUOUS
10
-4.68685
20
5.86146
11
-4.6908
21
5.86208
0
LINE
8
BLACK
6
CONTINUOUS
10
-4.6908
20
5.86208
11
-4.69437
21
5.8639
0
LINE
8
BLACK
6
CONTINUOUS
10
-4.69437
20
5.8639
11
-4.6972
21
5.86673
0
LINE
8
BLACK
6
CONTINUOUS
10
-4.6972
20
5.86673
11
-4.69902
21
5.8703
0
LINE
8
BLACK
6
CONTINUOUS
10
-4.69902
20
5.8703
11
-4.69965
21
5.87425
0
LINE
8
BLACK
6
CONTINUOUS
10
-4.69965
20
5.87425
11
-4.69965
21
5.92937
0
LINE
8
BLACK
6
CONTINUOUS
10
-4.69965
20
5.92937
11
-4.69902
21
5.93332
0
LINE
8
BLACK
6
CONTINUOUS
10
-4.69902
20
5.93332
11
-4.6972
21
5.93689
0
LINE
8
BLACK
6
CONTINUOUS
10
-4.6972
20
5.93689
11
-4.69437
21
5.93972
0
LINE
8
BLACK
6
CONTINUOUS
10
-4.69437
20
5.93972
11
-4.6908
21
5.94154
0
LINE
8
BLACK
6
CONTINUOUS
10
-4.6908
20
5.94154
11
-4.68685
21
5.94217
0
LINE
8
BLACK
6
CONTINUOUS
10
-4.68685
20
5.94217
11
-4.62386
21
5.94217
0
LINE
8
BLACK
6
CONTINUOUS
10
-4.68685
20
5.9402
11
-4.68857
21
5.9402
0
LINE
8
BLACK
6
CONTINUOUS
10
-4.68857
20
5.9402
11
-4.69183
21
5.93914
0
LINE
8
BLACK
6
CONTINUOUS
10
-4.69183
20
5.93914
11
-4.6946
21
5.93712
0
LINE
8
BLACK
6
CONTINUOUS
10
-4.6946
20
5.93712
11
-4.69662
21
5.93435
0
LINE
8
BLACK
6
CONTINUOUS
10
-4.69662
20
5.93435
11
-4.69768
21
5.93108
0
LINE
8
BLACK
6
CONTINUOUS
10
-4.69768
20
5.93108
11
-4.69768
21
5.92937
0
LINE
8
BLACK
6
CONTINUOUS
10
-4.69768
20
5.92937
11
-4.69768
21
5.87425
0
LINE
8
BLACK
6
CONTINUOUS
10
-4.69768
20
5.87425
11
-4.69768
21
5.87254
0
LINE
8
BLACK
6
CONTINUOUS
10
-4.69768
20
5.87254
11
-4.69662
21
5.86928
0
LINE
8
BLACK
6
CONTINUOUS
10
-4.69662
20
5.86928
11
-4.6946
21
5.8665
0
LINE
8
BLACK
6
CONTINUOUS
10
-4.6946
20
5.8665
11
-4.69183
21
5.86449
0
LINE
8
BLACK
6
CONTINUOUS
10
-4.69183
20
5.86449
11
-4.68857
21
5.86343
0
LINE
8
BLACK
6
CONTINUOUS
10
-4.68857
20
5.86343
11
-4.68685
21
5.86343
0
LINE
8
BLACK
6
CONTINUOUS
10
-4.68685
20
5.86343
11
-4.62386
21
5.86343
0
LINE
8
BLACK
6
CONTINUOUS
10
-4.62386
20
5.86343
11
-4.62214
21
5.86343
0
LINE
8
BLACK
6
CONTINUOUS
10
-4.62214
20
5.86343
11
-4.61888
21
5.86449
0
LINE
8
BLACK
6
CONTINUOUS
10
-4.61888
20
5.86449
11
-4.61611
21
5.8665
0
LINE
8
BLACK
6
CONTINUOUS
10
-4.61611
20
5.8665
11
-4.61409
21
5.86928
0
LINE
8
BLACK
6
CONTINUOUS
10
-4.61409
20
5.86928
11
-4.61303
21
5.87254
0
LINE
8
BLACK
6
CONTINUOUS
10
-4.61303
20
5.87254
11
-4.61303
21
5.87425
0
LINE
8
BLACK
6
CONTINUOUS
10
-4.61303
20
5.87425
11
-4.61303
21
5.92937
0
LINE
8
BLACK
6
CONTINUOUS
10
-4.61303
20
5.92937
11
-4.61303
21
5.93108
0
LINE
8
BLACK
6
CONTINUOUS
10
-4.61303
20
5.93108
11
-4.61409
21
5.93435
0
LINE
8
BLACK
6
CONTINUOUS
10
-4.61409
20
5.93435
11
-4.61611
21
5.93712
0
LINE
8
BLACK
6
CONTINUOUS
10
-4.61611
20
5.93712
11
-4.61888
21
5.93914
0
LINE
8
BLACK
6
CONTINUOUS
10
-4.61888
20
5.93914
11
-4.62214
21
5.9402
0
LINE
8
BLACK
6
CONTINUOUS
10
-4.62214
20
5.9402
11
-4.62386
21
5.9402
0
LINE
8
BLACK
6
CONTINUOUS
10
-4.62386
20
5.9402
11
-4.68685
21
5.9402
0
LINE
8
BLACK
6
CONTINUOUS
10
-4.00536
20
5.98344
11
-4.00524
21
5.98346
0
LINE
8
BLACK
6
CONTINUOUS
10
-4.00524
20
5.98346
11
-4.00512
21
5.98339
0
LINE
8
BLACK
6
CONTINUOUS
10
-4.00512
20
5.98339
11
-4.00474
21
5.98333
0
LINE
8
BLACK
6
CONTINUOUS
10
-4.00474
20
5.98333
11
-4.00415
21
5.98283
0
LINE
8
BLACK
6
CONTINUOUS
10
-4.00415
20
5.98283
11
-4.00349
21
5.98245
0
LINE
8
BLACK
6
CONTINUOUS
10
-4.00349
20
5.98245
11
-4.0034
21
5.9822
0
LINE
8
BLACK
6
CONTINUOUS
10
-4.0034
20
5.9822
11
-4.00319
21
5.98203
0
LINE
8
BLACK
6
CONTINUOUS
10
-4.00319
20
5.98203
11
-4.00306
21
5.98127
0
LINE
8
BLACK
6
CONTINUOUS
10
-4.00306
20
5.98127
11
-4.0028
21
5.98055
0
LINE
8
BLACK
6
CONTINUOUS
10
-4.0028
20
5.98055
11
-4.0028
21
5.39
0
LINE
8
BLACK
6
CONTINUOUS
10
-4.0028
20
5.39
11
-4.00286
21
5.38962
0
LINE
8
BLACK
6
CONTINUOUS
10
-4.00286
20
5.38962
11
-4.00284
21
5.38949
0
LINE
8
BLACK
6
CONTINUOUS
10
-4.00284
20
5.38949
11
-4.00291
21
5.38937
0
LINE
8
BLACK
6
CONTINUOUS
10
-4.00291
20
5.38937
11
-4.00297
21
5.38899
0
LINE
8
BLACK
6
CONTINUOUS
10
-4.00297
20
5.38899
11
-4.00347
21
5.3884
0
LINE
8
BLACK
6
CONTINUOUS
10
-4.00347
20
5.3884
11
-4.00385
21
5.38774
0
LINE
8
BLACK
6
CONTINUOUS
10
-4.00385
20
5.38774
11
-4.0041
21
5.38765
0
LINE
8
BLACK
6
CONTINUOUS
10
-4.0041
20
5.38765
11
-4.00427
21
5.38744
0
LINE
8
BLACK
6
CONTINUOUS
10
-4.00427
20
5.38744
11
-4.00503
21
5.38731
0
LINE
8
BLACK
6
CONTINUOUS
10
-4.00503
20
5.38731
11
-4.00575
21
5.38705
0
LINE
8
BLACK
6
CONTINUOUS
10
-4.00575
20
5.38705
11
-4.99
21
5.38705
0
LINE
8
BLACK
6
CONTINUOUS
10
-4.99
20
5.38705
11
-4.99038
21
5.38711
0
LINE
8
BLACK
6
CONTINUOUS
10
-4.99038
20
5.38711
11
-4.99051
21
5.38709
0
LINE
8
BLACK
6
CONTINUOUS
10
-4.99051
20
5.38709
11
-4.99063
21
5.38716
0
LINE
8
BLACK
6
CONTINUOUS
10
-4.99063
20
5.38716
11
-4.99101
21
5.38723
0
LINE
8
BLACK
6
CONTINUOUS
10
-4.99101
20
5.38723
11
-4.9916
21
5.38772
0
LINE
8
BLACK
6
CONTINUOUS
10
-4.9916
20
5.38772
11
-4.99226
21
5.3881
0
LINE
8
BLACK
6
CONTINUOUS
10
-4.99226
20
5.3881
11
-4.99235
21
5.38835
0
LINE
8
BLACK
6
CONTINUOUS
10
-4.99235
20
5.38835
11
-4.99256
21
5.38852
0
LINE
8
BLACK
6
CONTINUOUS
10
-4.99256
20
5.38852
11
-4.99269
21
5.38928
0
LINE
8
BLACK
6
CONTINUOUS
10
-4.99269
20
5.38928
11
-4.99295
21
5.39
0
LINE
8
BLACK
6
CONTINUOUS
10
-4.99295
20
5.39
11
-4.99295
21
5.98055
0
LINE
8
BLACK
6
CONTINUOUS
10
-4.99295
20
5.98055
11
-4.99289
21
5.98093
0
LINE
8
BLACK
6
CONTINUOUS
10
-4.99289
20
5.98093
11
-4.99291
21
5.98106
0
LINE
8
BLACK
6
CONTINUOUS
10
-4.99291
20
5.98106
11
-4.99284
21
5.98118
0
LINE
8
BLACK
6
CONTINUOUS
10
-4.99284
20
5.98118
11
-4.99277
21
5.98156
0
LINE
8
BLACK
6
CONTINUOUS
10
-4.99277
20
5.98156
11
-4.99228
21
5.98215
0
LINE
8
BLACK
6
CONTINUOUS
10
-4.99228
20
5.98215
11
-4.9919
21
5.98281
0
LINE
8
BLACK
6
CONTINUOUS
10
-4.9919
20
5.98281
11
-4.99165
21
5.9829
0
LINE
8
BLACK
6
CONTINUOUS
10
-4.99165
20
5.9829
11
-4.99148
21
5.98311
0
LINE
8
BLACK
6
CONTINUOUS
10
-4.99148
20
5.98311
11
-4.99072
21
5.98324
0
LINE
8
BLACK
6
CONTINUOUS
10
-4.99072
20
5.98324
11
-4.99
21
5.9835
0
LINE
8
BLACK
6
CONTINUOUS
10
-4.99
20
5.9835
11
-4.00575
21
5.9835
0
LINE
8
BLACK
6
CONTINUOUS
10
-4.00575
20
5.9835
11
-4.00536
21
5.98344
0
LINE
8
BLACK
6
CONTINUOUS
10
-4.98705
20
5.9776
11
-4.98705
21
5.39295
0
LINE
8
BLACK
6
CONTINUOUS
10
-4.98705
20
5.39295
11
-4.0087
21
5.39295
0
LINE
8
BLACK
6
CONTINUOUS
10
-4.0087
20
5.39295
11
-4.0087
21
5.9776
0
LINE
8
BLACK
6
CONTINUOUS
10
-4.0087
20
5.9776
11
-4.98705
21
5.9776
  0
ENDSEC
  0
EOF
