  0
SECTION
  2
HEADER
  9
$ANGBASE
  50
0.0
  9
$ANGDIR
  70
1
  9
$MEASUREMENT
  70
0
  0
ENDSEC
  0
SECTION
  2
TABLES
  0
TABLE
  2
LTYPE
  70
4
  0
LTYPE
  5
40F
  2
CONTINUOUS
  70
0
  3
Solid line
  72
65
  73
0
  40
0.0
  0
LTYPE
  5
410
  2
DASHDOT
 70
0
  3
Dash Dot ____ _ ____ _
 72
65
 73
4
 40
2.0
 49
1.25
 49
-0.25
 49
0.25
 49
-0.25
  0
LTYPE
  5
411
  2
DASHED
 70
0
  3
Dashed __ __ __ __ __
 72
65
 73
2
 40
0.75
 49
0.5
 49
-0.25
  0
LTYPE
  5
43B
  2
DOTTED
 70
0
  3
Dotted .  .  .  .
 72
65
 73
2
 40
0.2
 49
0.0
 49
-0.2
  0
ENDTAB
  0
TABLE
  2
STYLE
  70
4
  0
STYLE
  2
KICAD
  70
0
  40
0
  41
1
  42
1
  50
0
  71
0
  3
isocp.shx
  0
STYLE
  2
KICADB
  70
0
  40
0
  41
1
  42
1
  50
0
  71
0
  3
isocp.shx
  0
STYLE
  2
KICADI
  70
0
  40
0
  41
1
  42
1
  50
15
  71
0
  3
isocp.shx
  0
STYLE
  2
KICADBI
  70
0
  40
0
  41
1
  42
1
  50
15
  71
0
  3
isocp.shx
  0
ENDTAB
  0
TABLE
  2
LAYER
  70
1
  0
LAYER
  2
BLACK
  70
0
  62
7
  6
CONTINUOUS
  0
ENDTAB
  0
ENDSEC
  0
SECTION
  2
ENTITIES
0
LINE
8
BLACK
6
CONTINUOUS
10
-4.74545
20
5.49029
11
-4.728
21
5.47284
0
LINE
8
BLACK
6
CONTINUOUS
10
-4.728
20
5.47284
11
-4.728
21
5.4882
0
LINE
8
BLACK
6
CONTINUOUS
10
-4.728
20
5.4882
11
-4.72782
21
5.48921
0
LINE
8
BLACK
6
CONTINUOUS
10
-4.72782
20
5.48921
11
-4.72652
21
5.49076
0
LINE
8
BLACK
6
CONTINUOUS
10
-4.72652
20
5.49076
11
-4.72453
21
5.49111
0
LINE
8
BLACK
6
CONTINUOUS
10
-4.72453
20
5.49111
11
-4.72278
21
5.4901
0
LINE
8
BLACK
6
CONTINUOUS
10
-4.72278
20
5.4901
11
-4.72209
21
5.4882
0
LINE
8
BLACK
6
CONTINUOUS
10
-4.72209
20
5.4882
11
-4.72209
21
5.44883
0
LINE
8
BLACK
6
CONTINUOUS
10
-4.72209
20
5.44883
11
-4.72227
21
5.44782
0
LINE
8
BLACK
6
CONTINUOUS
10
-4.72227
20
5.44782
11
-4.72357
21
5.44628
0
LINE
8
BLACK
6
CONTINUOUS
10
-4.72357
20
5.44628
11
-4.72556
21
5.44593
0
LINE
8
BLACK
6
CONTINUOUS
10
-4.72556
20
5.44593
11
-4.72731
21
5.44694
0
LINE
8
BLACK
6
CONTINUOUS
10
-4.72731
20
5.44694
11
-4.728
21
5.44883
0
LINE
8
BLACK
6
CONTINUOUS
10
-4.728
20
5.44883
11
-4.728
21
5.46448
0
LINE
8
BLACK
6
CONTINUOUS
10
-4.728
20
5.46448
11
-4.73035
21
5.46684
0
LINE
8
BLACK
6
CONTINUOUS
10
-4.73035
20
5.46684
11
-4.74518
21
5.44706
0
LINE
8
BLACK
6
CONTINUOUS
10
-4.74518
20
5.44706
11
-4.74593
21
5.44636
0
LINE
8
BLACK
6
CONTINUOUS
10
-4.74593
20
5.44636
11
-4.74789
21
5.4459
0
LINE
8
BLACK
6
CONTINUOUS
10
-4.74789
20
5.4459
11
-4.7497
21
5.44682
0
LINE
8
BLACK
6
CONTINUOUS
10
-4.7497
20
5.44682
11
-4.75049
21
5.44867
0
LINE
8
BLACK
6
CONTINUOUS
10
-4.75049
20
5.44867
11
-4.7499
21
5.45061
0
LINE
8
BLACK
6
CONTINUOUS
10
-4.7499
20
5.45061
11
-4.73457
21
5.47105
0
LINE
8
BLACK
6
CONTINUOUS
10
-4.73457
20
5.47105
11
-4.74963
21
5.48612
0
LINE
8
BLACK
6
CONTINUOUS
10
-4.74963
20
5.48612
11
-4.75022
21
5.48696
0
LINE
8
BLACK
6
CONTINUOUS
10
-4.75022
20
5.48696
11
-4.75039
21
5.48897
0
LINE
8
BLACK
6
CONTINUOUS
10
-4.75039
20
5.48897
11
-4.74923
21
5.49062
0
LINE
8
BLACK
6
CONTINUOUS
10
-4.74923
20
5.49062
11
-4.74728
21
5.49115
0
LINE
8
BLACK
6
CONTINUOUS
10
-4.74728
20
5.49115
11
-4.74545
21
5.49029
0
LINE
8
BLACK
6
CONTINUOUS
10
-4.87224
20
5.67495
11
-4.87217
21
5.67495
0
LINE
8
BLACK
6
CONTINUOUS
10
-4.87217
20
5.67495
11
-4.86655
21
5.67308
0
LINE
8
BLACK
6
CONTINUOUS
10
-4.86655
20
5.67308
11
-4.86565
21
5.67259
0
LINE
8
BLACK
6
CONTINUOUS
10
-4.86565
20
5.67259
11
-4.86555
21
5.67244
0
LINE
8
BLACK
6
CONTINUOUS
10
-4.86555
20
5.67244
11
-4.86539
21
5.67237
0
LINE
8
BLACK
6
CONTINUOUS
10
-4.86539
20
5.67237
11
-4.86164
21
5.66862
0
LINE
8
BLACK
6
CONTINUOUS
10
-4.86164
20
5.66862
11
-4.86106
21
5.66778
0
LINE
8
BLACK
6
CONTINUOUS
10
-4.86106
20
5.66778
11
-4.86104
21
5.6676
0
LINE
8
BLACK
6
CONTINUOUS
10
-4.86104
20
5.6676
11
-4.86093
21
5.66746
0
LINE
8
BLACK
6
CONTINUOUS
10
-4.86093
20
5.66746
11
-4.85906
21
5.66184
0
LINE
8
BLACK
6
CONTINUOUS
10
-4.85906
20
5.66184
11
-4.85893
21
5.66096
0
LINE
8
BLACK
6
CONTINUOUS
10
-4.85893
20
5.66096
11
-4.8589
21
5.6609
0
LINE
8
BLACK
6
CONTINUOUS
10
-4.8589
20
5.6609
11
-4.8589
21
5.65715
0
LINE
8
BLACK
6
CONTINUOUS
10
-4.8589
20
5.65715
11
-4.85908
21
5.65614
0
LINE
8
BLACK
6
CONTINUOUS
10
-4.85908
20
5.65614
11
-4.86038
21
5.6546
0
LINE
8
BLACK
6
CONTINUOUS
10
-4.86038
20
5.6546
11
-4.86237
21
5.65425
0
LINE
8
BLACK
6
CONTINUOUS
10
-4.86237
20
5.65425
11
-4.86412
21
5.65526
0
LINE
8
BLACK
6
CONTINUOUS
10
-4.86412
20
5.65526
11
-4.86481
21
5.65715
0
LINE
8
BLACK
6
CONTINUOUS
10
-4.86481
20
5.65715
11
-4.86481
21
5.66042
0
LINE
8
BLACK
6
CONTINUOUS
10
-4.86481
20
5.66042
11
-4.86631
21
5.66493
0
LINE
8
BLACK
6
CONTINUOUS
10
-4.86631
20
5.66493
11
-4.86908
21
5.6677
0
LINE
8
BLACK
6
CONTINUOUS
10
-4.86908
20
5.6677
11
-4.87359
21
5.6692
0
LINE
8
BLACK
6
CONTINUOUS
10
-4.87359
20
5.6692
11
-4.90123
21
5.6692
0
LINE
8
BLACK
6
CONTINUOUS
10
-4.90123
20
5.6692
11
-4.90224
21
5.66938
0
LINE
8
BLACK
6
CONTINUOUS
10
-4.90224
20
5.66938
11
-4.90378
21
5.67068
0
LINE
8
BLACK
6
CONTINUOUS
10
-4.90378
20
5.67068
11
-4.90414
21
5.67266
0
LINE
8
BLACK
6
CONTINUOUS
10
-4.90414
20
5.67266
11
-4.90313
21
5.67441
0
LINE
8
BLACK
6
CONTINUOUS
10
-4.90313
20
5.67441
11
-4.90123
21
5.6751
0
LINE
8
BLACK
6
CONTINUOUS
10
-4.90123
20
5.6751
11
-4.87311
21
5.6751
0
LINE
8
BLACK
6
CONTINUOUS
10
-4.87311
20
5.6751
11
-4.87224
21
5.67495
0
LINE
8
BLACK
6
CONTINUOUS
10
-4.88911
20
5.71432
11
-4.88905
21
5.71432
0
LINE
8
BLACK
6
CONTINUOUS
10
-4.88905
20
5.71432
11
-4.88342
21
5.71245
0
LINE
8
BLACK
6
CONTINUOUS
10
-4.88342
20
5.71245
11
-4.88252
21
5.71196
0
LINE
8
BLACK
6
CONTINUOUS
10
-4.88252
20
5.71196
11
-4.88243
21
5.71181
0
LINE
8
BLACK
6
CONTINUOUS
10
-4.88243
20
5.71181
11
-4.88227
21
5.71174
0
LINE
8
BLACK
6
CONTINUOUS
10
-4.88227
20
5.71174
11
-4.86481
21
5.69428
0
LINE
8
BLACK
6
CONTINUOUS
10
-4.86481
20
5.69428
11
-4.86481
21
5.71152
0
LINE
8
BLACK
6
CONTINUOUS
10
-4.86481
20
5.71152
11
-4.86463
21
5.71253
0
LINE
8
BLACK
6
CONTINUOUS
10
-4.86463
20
5.71253
11
-4.86333
21
5.71408
0
LINE
8
BLACK
6
CONTINUOUS
10
-4.86333
20
5.71408
11
-4.86134
21
5.71443
0
LINE
8
BLACK
6
CONTINUOUS
10
-4.86134
20
5.71443
11
-4.8596
21
5.71342
0
LINE
8
BLACK
6
CONTINUOUS
10
-4.8596
20
5.71342
11
-4.8589
21
5.71152
0
LINE
8
BLACK
6
CONTINUOUS
10
-4.8589
20
5.71152
11
-4.8589
21
5.68715
0
LINE
8
BLACK
6
CONTINUOUS
10
-4.8589
20
5.68715
11
-4.85902
21
5.68652
0
LINE
8
BLACK
6
CONTINUOUS
10
-4.85902
20
5.68652
11
-4.85901
21
5.68639
0
LINE
8
BLACK
6
CONTINUOUS
10
-4.85901
20
5.68639
11
-4.85905
21
5.68632
0
LINE
8
BLACK
6
CONTINUOUS
10
-4.85905
20
5.68632
11
-4.85908
21
5.68614
0
LINE
8
BLACK
6
CONTINUOUS
10
-4.85908
20
5.68614
11
-4.85965
21
5.68546
0
LINE
8
BLACK
6
CONTINUOUS
10
-4.85965
20
5.68546
11
-4.86016
21
5.68473
0
LINE
8
BLACK
6
CONTINUOUS
10
-4.86016
20
5.68473
11
-4.86029
21
5.6847
0
LINE
8
BLACK
6
CONTINUOUS
10
-4.86029
20
5.6847
11
-4.86038
21
5.68459
0
LINE
8
BLACK
6
CONTINUOUS
10
-4.86038
20
5.68459
11
-4.86126
21
5.68444
0
LINE
8
BLACK
6
CONTINUOUS
10
-4.86126
20
5.68444
11
-4.86211
21
5.68421
0
LINE
8
BLACK
6
CONTINUOUS
10
-4.86211
20
5.68421
11
-4.86224
21
5.68427
0
LINE
8
BLACK
6
CONTINUOUS
10
-4.86224
20
5.68427
11
-4.86237
21
5.68424
0
LINE
8
BLACK
6
CONTINUOUS
10
-4.86237
20
5.68424
11
-4.86314
21
5.68469
0
LINE
8
BLACK
6
CONTINUOUS
10
-4.86314
20
5.68469
11
-4.86395
21
5.68506
0
LINE
8
BLACK
6
CONTINUOUS
10
-4.86395
20
5.68506
11
-4.88595
21
5.70707
0
LINE
8
BLACK
6
CONTINUOUS
10
-4.88595
20
5.70707
11
-4.89046
21
5.70857
0
LINE
8
BLACK
6
CONTINUOUS
10
-4.89046
20
5.70857
11
-4.89303
21
5.70857
0
LINE
8
BLACK
6
CONTINUOUS
10
-4.89303
20
5.70857
11
-4.89573
21
5.70722
0
LINE
8
BLACK
6
CONTINUOUS
10
-4.89573
20
5.70722
11
-4.89693
21
5.70602
0
LINE
8
BLACK
6
CONTINUOUS
10
-4.89693
20
5.70602
11
-4.89827
21
5.70333
0
LINE
8
BLACK
6
CONTINUOUS
10
-4.89827
20
5.70333
11
-4.89827
21
5.69535
0
LINE
8
BLACK
6
CONTINUOUS
10
-4.89827
20
5.69535
11
-4.89693
21
5.69265
0
LINE
8
BLACK
6
CONTINUOUS
10
-4.89693
20
5.69265
11
-4.89539
21
5.69111
0
LINE
8
BLACK
6
CONTINUOUS
10
-4.89539
20
5.69111
11
-4.8948
21
5.69027
0
LINE
8
BLACK
6
CONTINUOUS
10
-4.8948
20
5.69027
11
-4.89463
21
5.68826
0
LINE
8
BLACK
6
CONTINUOUS
10
-4.89463
20
5.68826
11
-4.89578
21
5.68661
0
LINE
8
BLACK
6
CONTINUOUS
10
-4.89578
20
5.68661
11
-4.89774
21
5.68608
0
LINE
8
BLACK
6
CONTINUOUS
10
-4.89774
20
5.68608
11
-4.89957
21
5.68694
0
LINE
8
BLACK
6
CONTINUOUS
10
-4.89957
20
5.68694
11
-4.90144
21
5.68881
0
LINE
8
BLACK
6
CONTINUOUS
10
-4.90144
20
5.68881
11
-4.90195
21
5.68954
0
LINE
8
BLACK
6
CONTINUOUS
10
-4.90195
20
5.68954
11
-4.90199
21
5.68958
0
LINE
8
BLACK
6
CONTINUOUS
10
-4.90199
20
5.68958
11
-4.90387
21
5.69333
0
LINE
8
BLACK
6
CONTINUOUS
10
-4.90387
20
5.69333
11
-4.90416
21
5.69431
0
LINE
8
BLACK
6
CONTINUOUS
10
-4.90416
20
5.69431
11
-4.90412
21
5.69448
0
LINE
8
BLACK
6
CONTINUOUS
10
-4.90412
20
5.69448
11
-4.90418
21
5.69465
0
LINE
8
BLACK
6
CONTINUOUS
10
-4.90418
20
5.69465
11
-4.90418
21
5.70402
0
LINE
8
BLACK
6
CONTINUOUS
10
-4.90418
20
5.70402
11
-4.904
21
5.70503
0
LINE
8
BLACK
6
CONTINUOUS
10
-4.904
20
5.70503
11
-4.90389
21
5.70517
0
LINE
8
BLACK
6
CONTINUOUS
10
-4.90389
20
5.70517
11
-4.90387
21
5.70534
0
LINE
8
BLACK
6
CONTINUOUS
10
-4.90387
20
5.70534
11
-4.90199
21
5.70909
0
LINE
8
BLACK
6
CONTINUOUS
10
-4.90199
20
5.70909
11
-4.90147
21
5.7098
0
LINE
8
BLACK
6
CONTINUOUS
10
-4.90147
20
5.7098
11
-4.90144
21
5.70986
0
LINE
8
BLACK
6
CONTINUOUS
10
-4.90144
20
5.70986
11
-4.89957
21
5.71174
0
LINE
8
BLACK
6
CONTINUOUS
10
-4.89957
20
5.71174
11
-4.89884
21
5.71224
0
LINE
8
BLACK
6
CONTINUOUS
10
-4.89884
20
5.71224
11
-4.8988
21
5.71229
0
LINE
8
BLACK
6
CONTINUOUS
10
-4.8988
20
5.71229
11
-4.89505
21
5.71416
0
LINE
8
BLACK
6
CONTINUOUS
10
-4.89505
20
5.71416
11
-4.89407
21
5.71446
0
LINE
8
BLACK
6
CONTINUOUS
10
-4.89407
20
5.71446
11
-4.89389
21
5.71441
0
LINE
8
BLACK
6
CONTINUOUS
10
-4.89389
20
5.71441
11
-4.89373
21
5.71448
0
LINE
8
BLACK
6
CONTINUOUS
10
-4.89373
20
5.71448
11
-4.88998
21
5.71448
0
LINE
8
BLACK
6
CONTINUOUS
10
-4.88998
20
5.71448
11
-4.88911
21
5.71432
0
LINE
8
BLACK
6
CONTINUOUS
10
-4.81677
20
5.84965
11
-4.81538
21
5.84907
0
LINE
8
BLACK
6
CONTINUOUS
10
-4.81538
20
5.84907
11
-4.8148
21
5.84768
0
LINE
8
BLACK
6
CONTINUOUS
10
-4.8148
20
5.84768
11
-4.8148
21
5.52287
0
LINE
8
BLACK
6
CONTINUOUS
10
-4.8148
20
5.52287
11
-4.81538
21
5.52148
0
LINE
8
BLACK
6
CONTINUOUS
10
-4.81538
20
5.52148
11
-4.81677
21
5.52091
0
LINE
8
BLACK
6
CONTINUOUS
10
-4.81677
20
5.52091
11
-4.97622
21
5.52091
0
LINE
8
BLACK
6
CONTINUOUS
10
-4.97622
20
5.52091
11
-4.97761
21
5.52148
0
LINE
8
BLACK
6
CONTINUOUS
10
-4.97761
20
5.52148
11
-4.97819
21
5.52287
0
LINE
8
BLACK
6
CONTINUOUS
10
-4.97819
20
5.52287
11
-4.97819
21
5.84768
0
LINE
8
BLACK
6
CONTINUOUS
10
-4.97819
20
5.84768
11
-4.97761
21
5.84907
0
LINE
8
BLACK
6
CONTINUOUS
10
-4.97761
20
5.84907
11
-4.97622
21
5.84965
0
LINE
8
BLACK
6
CONTINUOUS
10
-4.97622
20
5.84965
11
-4.81677
21
5.84965
0
LINE
8
BLACK
6
CONTINUOUS
10
-4.97425
20
5.84571
11
-4.97425
21
5.52484
0
LINE
8
BLACK
6
CONTINUOUS
10
-4.97425
20
5.52484
11
-4.81874
21
5.52484
0
LINE
8
BLACK
6
CONTINUOUS
10
-4.81874
20
5.52484
11
-4.81874
21
5.73839
0
LINE
8
BLACK
6
CONTINUOUS
10
-4.81874
20
5.73839
11
-4.84575
21
5.75749
0
LINE
8
BLACK
6
CONTINUOUS
10
-4.84575
20
5.75749
11
-4.84593
21
5.75778
0
LINE
8
BLACK
6
CONTINUOUS
10
-4.84593
20
5.75778
11
-4.84622
21
5.75796
0
LINE
8
BLACK
6
CONTINUOUS
10
-4.84622
20
5.75796
11
-4.84632
21
5.75839
0
LINE
8
BLACK
6
CONTINUOUS
10
-4.84632
20
5.75839
11
-4.84655
21
5.75876
0
LINE
8
BLACK
6
CONTINUOUS
10
-4.84655
20
5.75876
11
-4.84648
21
5.75909
0
LINE
8
BLACK
6
CONTINUOUS
10
-4.84648
20
5.75909
11
-4.84655
21
5.75943
0
LINE
8
BLACK
6
CONTINUOUS
10
-4.84655
20
5.75943
11
-4.84632
21
5.7598
0
LINE
8
BLACK
6
CONTINUOUS
10
-4.84632
20
5.7598
11
-4.84622
21
5.76023
0
LINE
8
BLACK
6
CONTINUOUS
10
-4.84622
20
5.76023
11
-4.84593
21
5.76041
0
LINE
8
BLACK
6
CONTINUOUS
10
-4.84593
20
5.76041
11
-4.84575
21
5.7607
0
LINE
8
BLACK
6
CONTINUOUS
10
-4.84575
20
5.7607
11
-4.81874
21
5.7798
0
LINE
8
BLACK
6
CONTINUOUS
10
-4.81874
20
5.7798
11
-4.81874
21
5.84571
0
LINE
8
BLACK
6
CONTINUOUS
10
-4.81874
20
5.84571
11
-4.97425
21
5.84571
0
LINE
8
BLACK
6
CONTINUOUS
10
-4.8412
20
5.75909
11
-4.81874
21
5.74321
0
LINE
8
BLACK
6
CONTINUOUS
10
-4.81874
20
5.74321
11
-4.81874
21
5.77498
0
LINE
8
BLACK
6
CONTINUOUS
10
-4.81874
20
5.77498
11
-4.8412
21
5.75909
0
LINE
8
BLACK
6
CONTINUOUS
10
-4.10846
20
5.67495
11
-4.10839
21
5.67495
0
LINE
8
BLACK
6
CONTINUOUS
10
-4.10839
20
5.67495
11
-4.10277
21
5.67308
0
LINE
8
BLACK
6
CONTINUOUS
10
-4.10277
20
5.67308
11
-4.10187
21
5.67259
0
LINE
8
BLACK
6
CONTINUOUS
10
-4.10187
20
5.67259
11
-4.10177
21
5.67244
0
LINE
8
BLACK
6
CONTINUOUS
10
-4.10177
20
5.67244
11
-4.10161
21
5.67237
0
LINE
8
BLACK
6
CONTINUOUS
10
-4.10161
20
5.67237
11
-4.09786
21
5.66862
0
LINE
8
BLACK
6
CONTINUOUS
10
-4.09786
20
5.66862
11
-4.09728
21
5.66778
0
LINE
8
BLACK
6
CONTINUOUS
10
-4.09728
20
5.66778
11
-4.09726
21
5.6676
0
LINE
8
BLACK
6
CONTINUOUS
10
-4.09726
20
5.6676
11
-4.09715
21
5.66746
0
LINE
8
BLACK
6
CONTINUOUS
10
-4.09715
20
5.66746
11
-4.09528
21
5.66184
0
LINE
8
BLACK
6
CONTINUOUS
10
-4.09528
20
5.66184
11
-4.09515
21
5.66096
0
LINE
8
BLACK
6
CONTINUOUS
10
-4.09515
20
5.66096
11
-4.09513
21
5.6609
0
LINE
8
BLACK
6
CONTINUOUS
10
-4.09513
20
5.6609
11
-4.09513
21
5.65715
0
LINE
8
BLACK
6
CONTINUOUS
10
-4.09513
20
5.65715
11
-4.0953
21
5.65614
0
LINE
8
BLACK
6
CONTINUOUS
10
-4.0953
20
5.65614
11
-4.0966
21
5.6546
0
LINE
8
BLACK
6
CONTINUOUS
10
-4.0966
20
5.6546
11
-4.09859
21
5.65425
0
LINE
8
BLACK
6
CONTINUOUS
10
-4.09859
20
5.65425
11
-4.10034
21
5.65526
0
LINE
8
BLACK
6
CONTINUOUS
10
-4.10034
20
5.65526
11
-4.10103
21
5.65715
0
LINE
8
BLACK
6
CONTINUOUS
10
-4.10103
20
5.65715
11
-4.10103
21
5.66042
0
LINE
8
BLACK
6
CONTINUOUS
10
-4.10103
20
5.66042
11
-4.10253
21
5.66493
0
LINE
8
BLACK
6
CONTINUOUS
10
-4.10253
20
5.66493
11
-4.1053
21
5.6677
0
LINE
8
BLACK
6
CONTINUOUS
10
-4.1053
20
5.6677
11
-4.10981
21
5.6692
0
LINE
8
BLACK
6
CONTINUOUS
10
-4.10981
20
5.6692
11
-4.13745
21
5.6692
0
LINE
8
BLACK
6
CONTINUOUS
10
-4.13745
20
5.6692
11
-4.13846
21
5.66938
0
LINE
8
BLACK
6
CONTINUOUS
10
-4.13846
20
5.66938
11
-4.14001
21
5.67068
0
LINE
8
BLACK
6
CONTINUOUS
10
-4.14001
20
5.67068
11
-4.14036
21
5.67266
0
LINE
8
BLACK
6
CONTINUOUS
10
-4.14036
20
5.67266
11
-4.13935
21
5.67441
0
LINE
8
BLACK
6
CONTINUOUS
10
-4.13935
20
5.67441
11
-4.13745
21
5.6751
0
LINE
8
BLACK
6
CONTINUOUS
10
-4.13745
20
5.6751
11
-4.10933
21
5.6751
0
LINE
8
BLACK
6
CONTINUOUS
10
-4.10933
20
5.6751
11
-4.10846
21
5.67495
0
LINE
8
BLACK
6
CONTINUOUS
10
-4.10894
20
5.7153
11
-4.10825
21
5.7134
0
LINE
8
BLACK
6
CONTINUOUS
10
-4.10825
20
5.7134
11
-4.10825
21
5.71073
0
LINE
8
BLACK
6
CONTINUOUS
10
-4.10825
20
5.71073
11
-4.09808
21
5.71073
0
LINE
8
BLACK
6
CONTINUOUS
10
-4.09808
20
5.71073
11
-4.09707
21
5.71055
0
LINE
8
BLACK
6
CONTINUOUS
10
-4.09707
20
5.71055
11
-4.09552
21
5.70925
0
LINE
8
BLACK
6
CONTINUOUS
10
-4.09552
20
5.70925
11
-4.09517
21
5.70726
0
LINE
8
BLACK
6
CONTINUOUS
10
-4.09517
20
5.70726
11
-4.09618
21
5.70551
0
LINE
8
BLACK
6
CONTINUOUS
10
-4.09618
20
5.70551
11
-4.09808
21
5.70482
0
LINE
8
BLACK
6
CONTINUOUS
10
-4.09808
20
5.70482
11
-4.10825
21
5.70482
0
LINE
8
BLACK
6
CONTINUOUS
10
-4.10825
20
5.70482
11
-4.10825
21
5.68903
0
LINE
8
BLACK
6
CONTINUOUS
10
-4.10825
20
5.68903
11
-4.10843
21
5.68802
0
LINE
8
BLACK
6
CONTINUOUS
10
-4.10843
20
5.68802
11
-4.10857
21
5.68784
0
LINE
8
BLACK
6
CONTINUOUS
10
-4.10857
20
5.68784
11
-4.1086
21
5.68762
0
LINE
8
BLACK
6
CONTINUOUS
10
-4.1086
20
5.68762
11
-4.10921
21
5.68708
0
LINE
8
BLACK
6
CONTINUOUS
10
-4.10921
20
5.68708
11
-4.10973
21
5.68647
0
LINE
8
BLACK
6
CONTINUOUS
10
-4.10973
20
5.68647
11
-4.10995
21
5.68643
0
LINE
8
BLACK
6
CONTINUOUS
10
-4.10995
20
5.68643
11
-4.11012
21
5.68628
0
LINE
8
BLACK
6
CONTINUOUS
10
-4.11012
20
5.68628
11
-4.11092
21
5.68626
0
LINE
8
BLACK
6
CONTINUOUS
10
-4.11092
20
5.68626
11
-4.11171
21
5.68612
0
LINE
8
BLACK
6
CONTINUOUS
10
-4.11171
20
5.68612
11
-4.11191
21
5.68623
0
LINE
8
BLACK
6
CONTINUOUS
10
-4.11191
20
5.68623
11
-4.11214
21
5.68622
0
LINE
8
BLACK
6
CONTINUOUS
10
-4.11214
20
5.68622
11
-4.14026
21
5.6956
0
LINE
8
BLACK
6
CONTINUOUS
10
-4.14026
20
5.6956
11
-4.14116
21
5.69609
0
LINE
8
BLACK
6
CONTINUOUS
10
-4.14116
20
5.69609
11
-4.14222
21
5.69781
0
LINE
8
BLACK
6
CONTINUOUS
10
-4.14222
20
5.69781
11
-4.14192
21
5.6998
0
LINE
8
BLACK
6
CONTINUOUS
10
-4.14192
20
5.6998
11
-4.14041
21
5.70114
0
LINE
8
BLACK
6
CONTINUOUS
10
-4.14041
20
5.70114
11
-4.13839
21
5.7012
0
LINE
8
BLACK
6
CONTINUOUS
10
-4.13839
20
5.7012
11
-4.11415
21
5.69312
0
LINE
8
BLACK
6
CONTINUOUS
10
-4.11415
20
5.69312
11
-4.11415
21
5.70482
0
LINE
8
BLACK
6
CONTINUOUS
10
-4.11415
20
5.70482
11
-4.12432
21
5.70482
0
LINE
8
BLACK
6
CONTINUOUS
10
-4.12432
20
5.70482
11
-4.12533
21
5.705
0
LINE
8
BLACK
6
CONTINUOUS
10
-4.12533
20
5.705
11
-4.12688
21
5.7063
0
LINE
8
BLACK
6
CONTINUOUS
10
-4.12688
20
5.7063
11
-4.12723
21
5.70829
0
LINE
8
BLACK
6
CONTINUOUS
10
-4.12723
20
5.70829
11
-4.12622
21
5.71003
0
LINE
8
BLACK
6
CONTINUOUS
10
-4.12622
20
5.71003
11
-4.12432
21
5.71073
0
LINE
8
BLACK
6
CONTINUOUS
10
-4.12432
20
5.71073
11
-4.11415
21
5.71073
0
LINE
8
BLACK
6
CONTINUOUS
10
-4.11415
20
5.71073
11
-4.11415
21
5.7134
0
LINE
8
BLACK
6
CONTINUOUS
10
-4.11415
20
5.7134
11
-4.11398
21
5.71441
0
LINE
8
BLACK
6
CONTINUOUS
10
-4.11398
20
5.71441
11
-4.11268
21
5.71595
0
LINE
8
BLACK
6
CONTINUOUS
10
-4.11268
20
5.71595
11
-4.11069
21
5.7163
0
LINE
8
BLACK
6
CONTINUOUS
10
-4.11069
20
5.7163
11
-4.10894
21
5.7153
0
LINE
8
BLACK
6
CONTINUOUS
10
-4.01953
20
5.84965
11
-4.01814
21
5.84907
0
LINE
8
BLACK
6
CONTINUOUS
10
-4.01814
20
5.84907
11
-4.01756
21
5.84768
0
LINE
8
BLACK
6
CONTINUOUS
10
-4.01756
20
5.84768
11
-4.01756
21
5.52287
0
LINE
8
BLACK
6
CONTINUOUS
10
-4.01756
20
5.52287
11
-4.01814
21
5.52148
0
LINE
8
BLACK
6
CONTINUOUS
10
-4.01814
20
5.52148
11
-4.01953
21
5.52091
0
LINE
8
BLACK
6
CONTINUOUS
10
-4.01953
20
5.52091
11
-4.17898
21
5.52091
0
LINE
8
BLACK
6
CONTINUOUS
10
-4.17898
20
5.52091
11
-4.18037
21
5.52148
0
LINE
8
BLACK
6
CONTINUOUS
10
-4.18037
20
5.52148
11
-4.18094
21
5.52287
0
LINE
8
BLACK
6
CONTINUOUS
10
-4.18094
20
5.52287
11
-4.18094
21
5.84768
0
LINE
8
BLACK
6
CONTINUOUS
10
-4.18094
20
5.84768
11
-4.18037
21
5.84907
0
LINE
8
BLACK
6
CONTINUOUS
10
-4.18037
20
5.84907
11
-4.17898
21
5.84965
0
LINE
8
BLACK
6
CONTINUOUS
10
-4.17898
20
5.84965
11
-4.01953
21
5.84965
0
LINE
8
BLACK
6
CONTINUOUS
10
-4.17701
20
5.84571
11
-4.17701
21
5.63216
0
LINE
8
BLACK
6
CONTINUOUS
10
-4.17701
20
5.63216
11
-4.15
21
5.61306
0
LINE
8
BLACK
6
CONTINUOUS
10
-4.15
20
5.61306
11
-4.14982
21
5.61278
0
LINE
8
BLACK
6
CONTINUOUS
10
-4.14982
20
5.61278
11
-4.14953
21
5.61259
0
LINE
8
BLACK
6
CONTINUOUS
10
-4.14953
20
5.61259
11
-4.14943
21
5.61216
0
LINE
8
BLACK
6
CONTINUOUS
10
-4.14943
20
5.61216
11
-4.1492
21
5.61179
0
LINE
8
BLACK
6
CONTINUOUS
10
-4.1492
20
5.61179
11
-4.14927
21
5.61146
0
LINE
8
BLACK
6
CONTINUOUS
10
-4.14927
20
5.61146
11
-4.1492
21
5.61112
0
LINE
8
BLACK
6
CONTINUOUS
10
-4.1492
20
5.61112
11
-4.14943
21
5.61075
0
LINE
8
BLACK
6
CONTINUOUS
10
-4.14943
20
5.61075
11
-4.14953
21
5.61032
0
LINE
8
BLACK
6
CONTINUOUS
10
-4.14953
20
5.61032
11
-4.14982
21
5.61014
0
LINE
8
BLACK
6
CONTINUOUS
10
-4.14982
20
5.61014
11
-4.15
21
5.60985
0
LINE
8
BLACK
6
CONTINUOUS
10
-4.15
20
5.60985
11
-4.17701
21
5.59075
0
LINE
8
BLACK
6
CONTINUOUS
10
-4.17701
20
5.59075
11
-4.17701
21
5.52484
0
LINE
8
BLACK
6
CONTINUOUS
10
-4.17701
20
5.52484
11
-4.0215
21
5.52484
0
LINE
8
BLACK
6
CONTINUOUS
10
-4.0215
20
5.52484
11
-4.0215
21
5.84571
0
LINE
8
BLACK
6
CONTINUOUS
10
-4.0215
20
5.84571
11
-4.17701
21
5.84571
0
LINE
8
BLACK
6
CONTINUOUS
10
-4.17701
20
5.59557
11
-4.15455
21
5.61146
0
LINE
8
BLACK
6
CONTINUOUS
10
-4.15455
20
5.61146
11
-4.17701
21
5.62734
0
LINE
8
BLACK
6
CONTINUOUS
10
-4.17701
20
5.62734
11
-4.17701
21
5.59557
0
LINE
8
BLACK
6
CONTINUOUS
10
-4.74545
20
5.92336
11
-4.728
21
5.90591
0
LINE
8
BLACK
6
CONTINUOUS
10
-4.728
20
5.90591
11
-4.728
21
5.92127
0
LINE
8
BLACK
6
CONTINUOUS
10
-4.728
20
5.92127
11
-4.72782
21
5.92228
0
LINE
8
BLACK
6
CONTINUOUS
10
-4.72782
20
5.92228
11
-4.72652
21
5.92383
0
LINE
8
BLACK
6
CONTINUOUS
10
-4.72652
20
5.92383
11
-4.72453
21
5.92418
0
LINE
8
BLACK
6
CONTINUOUS
10
-4.72453
20
5.92418
11
-4.72278
21
5.92317
0
LINE
8
BLACK
6
CONTINUOUS
10
-4.72278
20
5.92317
11
-4.72209
21
5.92127
0
LINE
8
BLACK
6
CONTINUOUS
10
-4.72209
20
5.92127
11
-4.72209
21
5.8819
0
LINE
8
BLACK
6
CONTINUOUS
10
-4.72209
20
5.8819
11
-4.72227
21
5.88089
0
LINE
8
BLACK
6
CONTINUOUS
10
-4.72227
20
5.88089
11
-4.72357
21
5.87935
0
LINE
8
BLACK
6
CONTINUOUS
10
-4.72357
20
5.87935
11
-4.72556
21
5.879
0
LINE
8
BLACK
6
CONTINUOUS
10
-4.72556
20
5.879
11
-4.72731
21
5.88001
0
LINE
8
BLACK
6
CONTINUOUS
10
-4.72731
20
5.88001
11
-4.728
21
5.8819
0
LINE
8
BLACK
6
CONTINUOUS
10
-4.728
20
5.8819
11
-4.728
21
5.89755
0
LINE
8
BLACK
6
CONTINUOUS
10
-4.728
20
5.89755
11
-4.73035
21
5.89991
0
LINE
8
BLACK
6
CONTINUOUS
10
-4.73035
20
5.89991
11
-4.74518
21
5.88013
0
LINE
8
BLACK
6
CONTINUOUS
10
-4.74518
20
5.88013
11
-4.74593
21
5.87943
0
LINE
8
BLACK
6
CONTINUOUS
10
-4.74593
20
5.87943
11
-4.74789
21
5.87897
0
LINE
8
BLACK
6
CONTINUOUS
10
-4.74789
20
5.87897
11
-4.7497
21
5.87989
0
LINE
8
BLACK
6
CONTINUOUS
10
-4.7497
20
5.87989
11
-4.75049
21
5.88174
0
LINE
8
BLACK
6
CONTINUOUS
10
-4.75049
20
5.88174
11
-4.7499
21
5.88368
0
LINE
8
BLACK
6
CONTINUOUS
10
-4.7499
20
5.88368
11
-4.73457
21
5.90412
0
LINE
8
BLACK
6
CONTINUOUS
10
-4.73457
20
5.90412
11
-4.74963
21
5.91919
0
LINE
8
BLACK
6
CONTINUOUS
10
-4.74963
20
5.91919
11
-4.75022
21
5.92003
0
LINE
8
BLACK
6
CONTINUOUS
10
-4.75022
20
5.92003
11
-4.75039
21
5.92204
0
LINE
8
BLACK
6
CONTINUOUS
10
-4.75039
20
5.92204
11
-4.74923
21
5.92369
0
LINE
8
BLACK
6
CONTINUOUS
10
-4.74923
20
5.92369
11
-4.74728
21
5.92422
0
LINE
8
BLACK
6
CONTINUOUS
10
-4.74728
20
5.92422
11
-4.74545
21
5.92336
  0
ENDSEC
  0
EOF
