  0
SECTION
  2
HEADER
  9
$ANGBASE
  50
0.0
  9
$ANGDIR
  70
1
  9
$MEASUREMENT
  70
0
  0
ENDSEC
  0
SECTION
  2
TABLES
  0
TABLE
  2
LTYPE
  70
4
  0
LTYPE
  5
40F
  2
CONTINUOUS
  70
0
  3
Solid line
  72
65
  73
0
  40
0.0
  0
LTYPE
  5
410
  2
DASHDOT
 70
0
  3
Dash Dot ____ _ ____ _
 72
65
 73
4
 40
2.0
 49
1.25
 49
-0.25
 49
0.25
 49
-0.25
  0
LTYPE
  5
411
  2
DASHED
 70
0
  3
Dashed __ __ __ __ __
 72
65
 73
2
 40
0.75
 49
0.5
 49
-0.25
  0
LTYPE
  5
43B
  2
DOTTED
 70
0
  3
Dotted .  .  .  .
 72
65
 73
2
 40
0.2
 49
0.0
 49
-0.2
  0
ENDTAB
  0
TABLE
  2
STYLE
  70
4
  0
STYLE
  2
KICAD
  70
0
  40
0
  41
1
  42
1
  50
0
  71
0
  3
isocp.shx
  0
STYLE
  2
KICADB
  70
0
  40
0
  41
1
  42
1
  50
0
  71
0
  3
isocp.shx
  0
STYLE
  2
KICADI
  70
0
  40
0
  41
1
  42
1
  50
15
  71
0
  3
isocp.shx
  0
STYLE
  2
KICADBI
  70
0
  40
0
  41
1
  42
1
  50
15
  71
0
  3
isocp.shx
  0
ENDTAB
  0
TABLE
  2
LAYER
  70
1
  0
LAYER
  2
BLACK
  70
0
  62
7
  6
CONTINUOUS
  0
ENDTAB
  0
ENDSEC
  0
SECTION
  2
ENTITIES
0
LINE
8
BLACK
6
CONTINUOUS
10
-4.7537795275590549
20
5.8720866141732282
11
-4.7530835433070866
21
5.8717983464566927
0
LINE
8
BLACK
6
CONTINUOUS
10
-4.7530835433070866
20
5.8717983464566927
11
-4.7527952755905511
21
5.8711023622047245
0
LINE
8
BLACK
6
CONTINUOUS
10
-4.7527952755905511
20
5.8711023622047245
11
-4.7527952755905511
21
5.4994488188976378
0
LINE
8
BLACK
6
CONTINUOUS
10
-4.7527952755905511
20
5.4994488188976378
11
-4.7530835433070866
21
5.4987528346456696
0
LINE
8
BLACK
6
CONTINUOUS
10
-4.7530835433070866
20
5.4987528346456696
11
-4.7537795275590549
21
5.4984645669291341
0
LINE
8
BLACK
6
CONTINUOUS
10
-4.7537795275590549
20
5.4984645669291341
11
-5.0057480314960632
21
5.4984645669291341
0
LINE
8
BLACK
6
CONTINUOUS
10
-5.0057480314960632
20
5.4984645669291341
11
-5.0064440157480314
21
5.4987528346456696
0
LINE
8
BLACK
6
CONTINUOUS
10
-5.0064440157480314
20
5.4987528346456696
11
-5.0067322834645669
21
5.4994488188976378
0
LINE
8
BLACK
6
CONTINUOUS
10
-5.0067322834645669
20
5.4994488188976378
11
-5.0067322834645669
21
5.8711023622047245
0
LINE
8
BLACK
6
CONTINUOUS
10
-5.0067322834645669
20
5.8711023622047245
11
-5.0064440157480314
21
5.8717983464566927
0
LINE
8
BLACK
6
CONTINUOUS
10
-5.0064440157480314
20
5.8717983464566927
11
-5.0057480314960632
21
5.8720866141732282
0
LINE
8
BLACK
6
CONTINUOUS
10
-5.0057480314960632
20
5.8720866141732282
11
-4.7537795275590549
21
5.8720866141732282
0
LINE
8
BLACK
6
CONTINUOUS
10
-5.0047637795275586
20
5.8701181102362208
11
-5.0047637795275586
21
5.5004330708661415
0
LINE
8
BLACK
6
CONTINUOUS
10
-5.0047637795275586
20
5.5004330708661415
11
-4.7547637795275586
21
5.5004330708661415
0
LINE
8
BLACK
6
CONTINUOUS
10
-4.7547637795275586
20
5.5004330708661415
11
-4.7547637795275586
21
5.8701181102362208
0
LINE
8
BLACK
6
CONTINUOUS
10
-4.7547637795275586
20
5.8701181102362208
11
-5.0047637795275586
21
5.8701181102362208
0
LINE
8
BLACK
6
CONTINUOUS
10
-3.9899999999999998
20
5.8720866141732282
11
-3.9893040157480315
21
5.8717983464566927
0
LINE
8
BLACK
6
CONTINUOUS
10
-3.9893040157480315
20
5.8717983464566927
11
-3.9890157480314961
21
5.8711023622047245
0
LINE
8
BLACK
6
CONTINUOUS
10
-3.9890157480314961
20
5.8711023622047245
11
-3.9890157480314961
21
5.4994488188976378
0
LINE
8
BLACK
6
CONTINUOUS
10
-3.9890157480314961
20
5.4994488188976378
11
-3.9893040157480315
21
5.4987528346456696
0
LINE
8
BLACK
6
CONTINUOUS
10
-3.9893040157480315
20
5.4987528346456696
11
-3.9899999999999998
21
5.4984645669291341
0
LINE
8
BLACK
6
CONTINUOUS
10
-3.9899999999999998
20
5.4984645669291341
11
-4.2419685039370076
21
5.4984645669291341
0
LINE
8
BLACK
6
CONTINUOUS
10
-4.2419685039370076
20
5.4984645669291341
11
-4.2426644881889759
21
5.4987528346456696
0
LINE
8
BLACK
6
CONTINUOUS
10
-4.2426644881889759
20
5.4987528346456696
11
-4.2429527559055114
21
5.4994488188976378
0
LINE
8
BLACK
6
CONTINUOUS
10
-4.2429527559055114
20
5.4994488188976378
11
-4.2429527559055114
21
5.8711023622047245
0
LINE
8
BLACK
6
CONTINUOUS
10
-4.2429527559055114
20
5.8711023622047245
11
-4.2426644881889759
21
5.8717983464566927
0
LINE
8
BLACK
6
CONTINUOUS
10
-4.2426644881889759
20
5.8717983464566927
11
-4.2419685039370076
21
5.8720866141732282
0
LINE
8
BLACK
6
CONTINUOUS
10
-4.2419685039370076
20
5.8720866141732282
11
-3.9899999999999998
21
5.8720866141732282
0
LINE
8
BLACK
6
CONTINUOUS
10
-4.2409842519685039
20
5.8701181102362208
11
-4.2409842519685039
21
5.5004330708661415
0
LINE
8
BLACK
6
CONTINUOUS
10
-4.2409842519685039
20
5.5004330708661415
11
-3.9909842519685039
21
5.5004330708661415
0
LINE
8
BLACK
6
CONTINUOUS
10
-3.9909842519685039
20
5.5004330708661415
11
-3.9909842519685039
21
5.8701181102362208
0
LINE
8
BLACK
6
CONTINUOUS
10
-3.9909842519685039
20
5.8701181102362208
11
-4.2409842519685039
21
5.8701181102362208
  0
ENDSEC
  0
EOF
