  0
SECTION
  2
HEADER
  9
$ANGBASE
  50
0.0
  9
$ANGDIR
  70
1
  9
$MEASUREMENT
  70
0
  0
ENDSEC
  0
SECTION
  2
TABLES
  0
TABLE
  2
LTYPE
  70
4
  0
LTYPE
  5
40F
  2
CONTINUOUS
  70
0
  3
Solid line
  72
65
  73
0
  40
0.0
  0
LTYPE
  5
410
  2
DASHDOT
 70
0
  3
Dash Dot ____ _ ____ _
 72
65
 73
4
 40
2.0
 49
1.25
 49
-0.25
 49
0.25
 49
-0.25
  0
LTYPE
  5
411
  2
DASHED
 70
0
  3
Dashed __ __ __ __ __
 72
65
 73
2
 40
0.75
 49
0.5
 49
-0.25
  0
LTYPE
  5
43B
  2
DOTTED
 70
0
  3
Dotted .  .  .  .
 72
65
 73
2
 40
0.2
 49
0.0
 49
-0.2
  0
ENDTAB
  0
TABLE
  2
STYLE
  70
4
  0
STYLE
  2
KICAD
  70
0
  40
0
  41
1
  42
1
  50
0
  71
0
  3
isocp.shx
  0
STYLE
  2
KICADB
  70
0
  40
0
  41
1
  42
1
  50
0
  71
0
  3
isocp.shx
  0
STYLE
  2
KICADI
  70
0
  40
0
  41
1
  42
1
  50
15
  71
0
  3
isocp.shx
  0
STYLE
  2
KICADBI
  70
0
  40
0
  41
1
  42
1
  50
15
  71
0
  3
isocp.shx
  0
ENDTAB
  0
TABLE
  2
LAYER
  70
1
  0
LAYER
  2
BLACK
  70
0
  62
7
  6
CONTINUOUS
  0
ENDTAB
  0
ENDSEC
  0
SECTION
  2
ENTITIES
0
LINE
8
BLACK
6
CONTINUOUS
10
-4.6238582677165354
20
5.5090944881889765
11
-4.6199042913385826
21
5.508468228346457
0
LINE
8
BLACK
6
CONTINUOUS
10
-4.6199042913385826
20
5.508468228346457
11
-4.6163374015748033
21
5.5066508267716534
0
LINE
8
BLACK
6
CONTINUOUS
10
-4.6163374015748033
20
5.5066508267716534
11
-4.6135066535433067
21
5.5038200787401577
0
LINE
8
BLACK
6
CONTINUOUS
10
-4.6135066535433067
20
5.5038200787401577
11
-4.611689251968504
21
5.5002531889763775
0
LINE
8
BLACK
6
CONTINUOUS
10
-4.611689251968504
20
5.5002531889763775
11
-4.6110629921259845
21
5.4962992125984247
0
LINE
8
BLACK
6
CONTINUOUS
10
-4.6110629921259845
20
5.4962992125984247
11
-4.6110629921259845
21
5.4411811023622043
0
LINE
8
BLACK
6
CONTINUOUS
10
-4.6110629921259845
20
5.4411811023622043
11
-4.611689251968504
21
5.4372271259842515
0
LINE
8
BLACK
6
CONTINUOUS
10
-4.611689251968504
20
5.4372271259842515
11
-4.6135066535433067
21
5.4336602362204722
0
LINE
8
BLACK
6
CONTINUOUS
10
-4.6135066535433067
20
5.4336602362204722
11
-4.6163374015748033
21
5.4308294881889765
0
LINE
8
BLACK
6
CONTINUOUS
10
-4.6163374015748033
20
5.4308294881889765
11
-4.6199042913385826
21
5.4290120866141729
0
LINE
8
BLACK
6
CONTINUOUS
10
-4.6199042913385826
20
5.4290120866141729
11
-4.6238582677165354
21
5.4283858267716534
0
LINE
8
BLACK
6
CONTINUOUS
10
-4.6238582677165354
20
5.4283858267716534
11
-4.6868503937007873
21
5.4283858267716534
0
LINE
8
BLACK
6
CONTINUOUS
10
-4.6868503937007873
20
5.4283858267716534
11
-4.6908043700787401
21
5.4290120866141729
0
LINE
8
BLACK
6
CONTINUOUS
10
-4.6908043700787401
20
5.4290120866141729
11
-4.6943712598425194
21
5.4308294881889765
0
LINE
8
BLACK
6
CONTINUOUS
10
-4.6943712598425194
20
5.4308294881889765
11
-4.697202007874016
21
5.4336602362204722
0
LINE
8
BLACK
6
CONTINUOUS
10
-4.697202007874016
20
5.4336602362204722
11
-4.6990194094488187
21
5.4372271259842515
0
LINE
8
BLACK
6
CONTINUOUS
10
-4.6990194094488187
20
5.4372271259842515
11
-4.6996456692913382
21
5.4411811023622043
0
LINE
8
BLACK
6
CONTINUOUS
10
-4.6996456692913382
20
5.4411811023622043
11
-4.6996456692913382
21
5.4962992125984247
0
LINE
8
BLACK
6
CONTINUOUS
10
-4.6996456692913382
20
5.4962992125984247
11
-4.6990194094488187
21
5.5002531889763775
0
LINE
8
BLACK
6
CONTINUOUS
10
-4.6990194094488187
20
5.5002531889763775
11
-4.697202007874016
21
5.5038200787401577
0
LINE
8
BLACK
6
CONTINUOUS
10
-4.697202007874016
20
5.5038200787401577
11
-4.6943712598425194
21
5.5066508267716534
0
LINE
8
BLACK
6
CONTINUOUS
10
-4.6943712598425194
20
5.5066508267716534
11
-4.6908043700787401
21
5.508468228346457
0
LINE
8
BLACK
6
CONTINUOUS
10
-4.6908043700787401
20
5.508468228346457
11
-4.6868503937007873
21
5.5090944881889765
0
LINE
8
BLACK
6
CONTINUOUS
10
-4.6868503937007873
20
5.5090944881889765
11
-4.6238582677165354
21
5.5090944881889765
0
LINE
8
BLACK
6
CONTINUOUS
10
-4.6868503937007873
20
5.5071259842519682
11
-4.6885651968503934
21
5.5071259842519682
0
LINE
8
BLACK
6
CONTINUOUS
10
-4.6885651968503934
20
5.5071259842519682
11
-4.6918269291338586
21
5.5060661811023621
0
LINE
8
BLACK
6
CONTINUOUS
10
-4.6918269291338586
20
5.5060661811023621
11
-4.694601496062992
21
5.5040503149606295
0
LINE
8
BLACK
6
CONTINUOUS
10
-4.694601496062992
20
5.5040503149606295
11
-4.6966173622047247
21
5.501275748031496
0
LINE
8
BLACK
6
CONTINUOUS
10
-4.6966173622047247
20
5.501275748031496
11
-4.6976771653543308
21
5.4980140157480317
0
LINE
8
BLACK
6
CONTINUOUS
10
-4.6976771653543308
20
5.4980140157480317
11
-4.6976771653543308
21
5.4962992125984247
0
LINE
8
BLACK
6
CONTINUOUS
10
-4.6976771653543308
20
5.4962992125984247
11
-4.6976771653543308
21
5.4411811023622043
0
LINE
8
BLACK
6
CONTINUOUS
10
-4.6976771653543308
20
5.4411811023622043
11
-4.6976771653543308
21
5.4394662992125982
0
LINE
8
BLACK
6
CONTINUOUS
10
-4.6976771653543308
20
5.4394662992125982
11
-4.6966173622047247
21
5.4362045669291339
0
LINE
8
BLACK
6
CONTINUOUS
10
-4.6966173622047247
20
5.4362045669291339
11
-4.694601496062992
21
5.4334299999999995
0
LINE
8
BLACK
6
CONTINUOUS
10
-4.694601496062992
20
5.4334299999999995
11
-4.6918269291338586
21
5.4314141338582678
0
LINE
8
BLACK
6
CONTINUOUS
10
-4.6918269291338586
20
5.4314141338582678
11
-4.6885651968503934
21
5.4303543307086617
0
LINE
8
BLACK
6
CONTINUOUS
10
-4.6885651968503934
20
5.4303543307086617
11
-4.6868503937007873
21
5.4303543307086617
0
LINE
8
BLACK
6
CONTINUOUS
10
-4.6868503937007873
20
5.4303543307086617
11
-4.6238582677165354
21
5.4303543307086617
0
LINE
8
BLACK
6
CONTINUOUS
10
-4.6238582677165354
20
5.4303543307086617
11
-4.6221434645669293
21
5.4303543307086617
0
LINE
8
BLACK
6
CONTINUOUS
10
-4.6221434645669293
20
5.4303543307086617
11
-4.6188817322834641
21
5.4314141338582678
0
LINE
8
BLACK
6
CONTINUOUS
10
-4.6188817322834641
20
5.4314141338582678
11
-4.6161071653543306
21
5.4334299999999995
0
LINE
8
BLACK
6
CONTINUOUS
10
-4.6161071653543306
20
5.4334299999999995
11
-4.614091299212598
21
5.4362045669291339
0
LINE
8
BLACK
6
CONTINUOUS
10
-4.614091299212598
20
5.4362045669291339
11
-4.6130314960629919
21
5.4394662992125982
0
LINE
8
BLACK
6
CONTINUOUS
10
-4.6130314960629919
20
5.4394662992125982
11
-4.6130314960629919
21
5.4411811023622043
0
LINE
8
BLACK
6
CONTINUOUS
10
-4.6130314960629919
20
5.4411811023622043
11
-4.6130314960629919
21
5.4962992125984247
0
LINE
8
BLACK
6
CONTINUOUS
10
-4.6130314960629919
20
5.4962992125984247
11
-4.6130314960629919
21
5.4980140157480317
0
LINE
8
BLACK
6
CONTINUOUS
10
-4.6130314960629919
20
5.4980140157480317
11
-4.614091299212598
21
5.501275748031496
0
LINE
8
BLACK
6
CONTINUOUS
10
-4.614091299212598
20
5.501275748031496
11
-4.6161071653543306
21
5.5040503149606295
0
LINE
8
BLACK
6
CONTINUOUS
10
-4.6161071653543306
20
5.5040503149606295
11
-4.6188817322834641
21
5.5060661811023621
0
LINE
8
BLACK
6
CONTINUOUS
10
-4.6188817322834641
20
5.5060661811023621
11
-4.6221434645669293
21
5.5071259842519682
0
LINE
8
BLACK
6
CONTINUOUS
10
-4.6221434645669293
20
5.5071259842519682
11
-4.6238582677165354
21
5.5071259842519682
0
LINE
8
BLACK
6
CONTINUOUS
10
-4.6238582677165354
20
5.5071259842519682
11
-4.6868503937007873
21
5.5071259842519682
0
LINE
8
BLACK
6
CONTINUOUS
10
-4.6238582677165354
20
5.9421653543307089
11
-4.6199042913385826
21
5.9415390944881885
0
LINE
8
BLACK
6
CONTINUOUS
10
-4.6199042913385826
20
5.9415390944881885
11
-4.6163374015748033
21
5.9397216929133858
0
LINE
8
BLACK
6
CONTINUOUS
10
-4.6163374015748033
20
5.9397216929133858
11
-4.6135066535433067
21
5.9368909448818901
0
LINE
8
BLACK
6
CONTINUOUS
10
-4.6135066535433067
20
5.9368909448818901
11
-4.611689251968504
21
5.9333240551181099
0
LINE
8
BLACK
6
CONTINUOUS
10
-4.611689251968504
20
5.9333240551181099
11
-4.6110629921259845
21
5.9293700787401571
0
LINE
8
BLACK
6
CONTINUOUS
10
-4.6110629921259845
20
5.9293700787401571
11
-4.6110629921259845
21
5.8742519685039367
0
LINE
8
BLACK
6
CONTINUOUS
10
-4.6110629921259845
20
5.8742519685039367
11
-4.611689251968504
21
5.8702979921259839
0
LINE
8
BLACK
6
CONTINUOUS
10
-4.611689251968504
20
5.8702979921259839
11
-4.6135066535433067
21
5.8667311023622046
0
LINE
8
BLACK
6
CONTINUOUS
10
-4.6135066535433067
20
5.8667311023622046
11
-4.6163374015748033
21
5.8639003543307089
0
LINE
8
BLACK
6
CONTINUOUS
10
-4.6163374015748033
20
5.8639003543307089
11
-4.6199042913385826
21
5.8620829527559053
0
LINE
8
BLACK
6
CONTINUOUS
10
-4.6199042913385826
20
5.8620829527559053
11
-4.6238582677165354
21
5.8614566929133858
0
LINE
8
BLACK
6
CONTINUOUS
10
-4.6238582677165354
20
5.8614566929133858
11
-4.6868503937007873
21
5.8614566929133858
0
LINE
8
BLACK
6
CONTINUOUS
10
-4.6868503937007873
20
5.8614566929133858
11
-4.6908043700787401
21
5.8620829527559053
0
LINE
8
BLACK
6
CONTINUOUS
10
-4.6908043700787401
20
5.8620829527559053
11
-4.6943712598425194
21
5.8639003543307089
0
LINE
8
BLACK
6
CONTINUOUS
10
-4.6943712598425194
20
5.8639003543307089
11
-4.697202007874016
21
5.8667311023622046
0
LINE
8
BLACK
6
CONTINUOUS
10
-4.697202007874016
20
5.8667311023622046
11
-4.6990194094488187
21
5.8702979921259839
0
LINE
8
BLACK
6
CONTINUOUS
10
-4.6990194094488187
20
5.8702979921259839
11
-4.6996456692913382
21
5.8742519685039367
0
LINE
8
BLACK
6
CONTINUOUS
10
-4.6996456692913382
20
5.8742519685039367
11
-4.6996456692913382
21
5.9293700787401571
0
LINE
8
BLACK
6
CONTINUOUS
10
-4.6996456692913382
20
5.9293700787401571
11
-4.6990194094488187
21
5.9333240551181099
0
LINE
8
BLACK
6
CONTINUOUS
10
-4.6990194094488187
20
5.9333240551181099
11
-4.697202007874016
21
5.9368909448818901
0
LINE
8
BLACK
6
CONTINUOUS
10
-4.697202007874016
20
5.9368909448818901
11
-4.6943712598425194
21
5.9397216929133858
0
LINE
8
BLACK
6
CONTINUOUS
10
-4.6943712598425194
20
5.9397216929133858
11
-4.6908043700787401
21
5.9415390944881885
0
LINE
8
BLACK
6
CONTINUOUS
10
-4.6908043700787401
20
5.9415390944881885
11
-4.6868503937007873
21
5.9421653543307089
0
LINE
8
BLACK
6
CONTINUOUS
10
-4.6868503937007873
20
5.9421653543307089
11
-4.6238582677165354
21
5.9421653543307089
0
LINE
8
BLACK
6
CONTINUOUS
10
-4.6868503937007873
20
5.9401968503937006
11
-4.6885651968503934
21
5.9401968503937006
0
LINE
8
BLACK
6
CONTINUOUS
10
-4.6885651968503934
20
5.9401968503937006
11
-4.6918269291338586
21
5.9391370472440945
0
LINE
8
BLACK
6
CONTINUOUS
10
-4.6918269291338586
20
5.9391370472440945
11
-4.694601496062992
21
5.9371211811023619
0
LINE
8
BLACK
6
CONTINUOUS
10
-4.694601496062992
20
5.9371211811023619
11
-4.6966173622047247
21
5.9343466141732284
0
LINE
8
BLACK
6
CONTINUOUS
10
-4.6966173622047247
20
5.9343466141732284
11
-4.6976771653543308
21
5.9310848818897632
0
LINE
8
BLACK
6
CONTINUOUS
10
-4.6976771653543308
20
5.9310848818897632
11
-4.6976771653543308
21
5.9293700787401571
0
LINE
8
BLACK
6
CONTINUOUS
10
-4.6976771653543308
20
5.9293700787401571
11
-4.6976771653543308
21
5.8742519685039367
0
LINE
8
BLACK
6
CONTINUOUS
10
-4.6976771653543308
20
5.8742519685039367
11
-4.6976771653543308
21
5.8725371653543306
0
LINE
8
BLACK
6
CONTINUOUS
10
-4.6976771653543308
20
5.8725371653543306
11
-4.6966173622047247
21
5.8692754330708663
0
LINE
8
BLACK
6
CONTINUOUS
10
-4.6966173622047247
20
5.8692754330708663
11
-4.694601496062992
21
5.8665008661417319
0
LINE
8
BLACK
6
CONTINUOUS
10
-4.694601496062992
20
5.8665008661417319
11
-4.6918269291338586
21
5.8644850000000002
0
LINE
8
BLACK
6
CONTINUOUS
10
-4.6918269291338586
20
5.8644850000000002
11
-4.6885651968503934
21
5.8634251968503932
0
LINE
8
BLACK
6
CONTINUOUS
10
-4.6885651968503934
20
5.8634251968503932
11
-4.6868503937007873
21
5.8634251968503932
0
LINE
8
BLACK
6
CONTINUOUS
10
-4.6868503937007873
20
5.8634251968503932
11
-4.6238582677165354
21
5.8634251968503932
0
LINE
8
BLACK
6
CONTINUOUS
10
-4.6238582677165354
20
5.8634251968503932
11
-4.6221434645669293
21
5.8634251968503932
0
LINE
8
BLACK
6
CONTINUOUS
10
-4.6221434645669293
20
5.8634251968503932
11
-4.6188817322834641
21
5.8644850000000002
0
LINE
8
BLACK
6
CONTINUOUS
10
-4.6188817322834641
20
5.8644850000000002
11
-4.6161071653543306
21
5.8665008661417319
0
LINE
8
BLACK
6
CONTINUOUS
10
-4.6161071653543306
20
5.8665008661417319
11
-4.614091299212598
21
5.8692754330708663
0
LINE
8
BLACK
6
CONTINUOUS
10
-4.614091299212598
20
5.8692754330708663
11
-4.6130314960629919
21
5.8725371653543306
0
LINE
8
BLACK
6
CONTINUOUS
10
-4.6130314960629919
20
5.8725371653543306
11
-4.6130314960629919
21
5.8742519685039367
0
LINE
8
BLACK
6
CONTINUOUS
10
-4.6130314960629919
20
5.8742519685039367
11
-4.6130314960629919
21
5.9293700787401571
0
LINE
8
BLACK
6
CONTINUOUS
10
-4.6130314960629919
20
5.9293700787401571
11
-4.6130314960629919
21
5.9310848818897632
0
LINE
8
BLACK
6
CONTINUOUS
10
-4.6130314960629919
20
5.9310848818897632
11
-4.614091299212598
21
5.9343466141732284
0
LINE
8
BLACK
6
CONTINUOUS
10
-4.614091299212598
20
5.9343466141732284
11
-4.6161071653543306
21
5.9371211811023619
0
LINE
8
BLACK
6
CONTINUOUS
10
-4.6161071653543306
20
5.9371211811023619
11
-4.6188817322834641
21
5.9391370472440945
0
LINE
8
BLACK
6
CONTINUOUS
10
-4.6188817322834641
20
5.9391370472440945
11
-4.6221434645669293
21
5.9401968503937006
0
LINE
8
BLACK
6
CONTINUOUS
10
-4.6221434645669293
20
5.9401968503937006
11
-4.6238582677165354
21
5.9401968503937006
0
LINE
8
BLACK
6
CONTINUOUS
10
-4.6238582677165354
20
5.9401968503937006
11
-4.6868503937007873
21
5.9401968503937006
0
LINE
8
BLACK
6
CONTINUOUS
10
-4.0053645275590553
20
5.983436299212598
11
-4.0052352755905511
21
5.9834590944881887
0
LINE
8
BLACK
6
CONTINUOUS
10
-4.0052352755905511
20
5.9834590944881887
11
-4.0051216929133862
21
5.9833934645669293
0
LINE
8
BLACK
6
CONTINUOUS
10
-4.0051216929133862
20
5.9833934645669293
11
-4.0047381102362207
21
5.9833258661417323
0
LINE
8
BLACK
6
CONTINUOUS
10
-4.0047381102362207
20
5.9833258661417323
11
-4.0041504330708664
21
5.9828327165354329
0
LINE
8
BLACK
6
CONTINUOUS
10
-4.0041504330708664
20
5.9828327165354329
11
-4.0034861023622046
21
5.9824491732283462
0
LINE
8
BLACK
6
CONTINUOUS
10
-4.0034861023622046
20
5.9824491732283462
11
-4.0033950000000003
21
5.982198818897638
0
LINE
8
BLACK
6
CONTINUOUS
10
-4.0033950000000003
20
5.982198818897638
11
-4.0031908661417326
21
5.9820275590551182
0
LINE
8
BLACK
6
CONTINUOUS
10
-4.0031908661417326
20
5.9820275590551182
11
-4.0030576377952753
21
5.9812719685039371
0
LINE
8
BLACK
6
CONTINUOUS
10
-4.0030576377952753
20
5.9812719685039371
11
-4.0027952755905511
21
5.9805511811023617
0
LINE
8
BLACK
6
CONTINUOUS
10
-4.0027952755905511
20
5.9805511811023617
11
-4.0027952755905511
21
5.3899999999999997
0
LINE
8
BLACK
6
CONTINUOUS
10
-4.0027952755905511
20
5.3899999999999997
11
-4.0028629133858269
21
5.3896164960629918
0
LINE
8
BLACK
6
CONTINUOUS
10
-4.0028629133858269
20
5.3896164960629918
11
-4.0028401181102362
21
5.3894872440944877
0
LINE
8
BLACK
6
CONTINUOUS
10
-4.0028401181102362
20
5.3894872440944877
11
-4.0029057480314956
21
5.3893736614173227
0
LINE
8
BLACK
6
CONTINUOUS
10
-4.0029057480314956
20
5.3893736614173227
11
-4.0029733464566926
21
5.3889900787401572
0
LINE
8
BLACK
6
CONTINUOUS
10
-4.0029733464566926
20
5.3889900787401572
11
-4.003466496062992
21
5.3884024015748029
0
LINE
8
BLACK
6
CONTINUOUS
10
-4.003466496062992
20
5.3884024015748029
11
-4.0038500393700787
21
5.387738070866142
0
LINE
8
BLACK
6
CONTINUOUS
10
-4.0038500393700787
20
5.387738070866142
11
-4.0041003937007877
21
5.3876469685039368
0
LINE
8
BLACK
6
CONTINUOUS
10
-4.0041003937007877
20
5.3876469685039368
11
-4.0042716535433067
21
5.3874428346456691
0
LINE
8
BLACK
6
CONTINUOUS
10
-4.0042716535433067
20
5.3874428346456691
11
-4.0050272440944878
21
5.3873096062992127
0
LINE
8
BLACK
6
CONTINUOUS
10
-4.0050272440944878
20
5.3873096062992127
11
-4.0057480314960632
21
5.3870472440944877
0
LINE
8
BLACK
6
CONTINUOUS
10
-4.0057480314960632
20
5.3870472440944877
11
-4.9900000000000002
21
5.3870472440944877
0
LINE
8
BLACK
6
CONTINUOUS
10
-4.9900000000000002
20
5.3870472440944877
11
-4.9903835039370081
21
5.3871148818897634
0
LINE
8
BLACK
6
CONTINUOUS
10
-4.9903835039370081
20
5.3871148818897634
11
-4.9905127559055114
21
5.3870920866141727
0
LINE
8
BLACK
6
CONTINUOUS
10
-4.9905127559055114
20
5.3870920866141727
11
-4.9906263385826772
21
5.387157716535433
0
LINE
8
BLACK
6
CONTINUOUS
10
-4.9906263385826772
20
5.387157716535433
11
-4.9910099212598427
21
5.38722531496063
0
LINE
8
BLACK
6
CONTINUOUS
10
-4.9910099212598427
20
5.38722531496063
11
-4.991597598425197
21
5.3877184645669294
0
LINE
8
BLACK
6
CONTINUOUS
10
-4.991597598425197
20
5.3877184645669294
11
-4.9922619291338579
21
5.3881020078740161
0
LINE
8
BLACK
6
CONTINUOUS
10
-4.9922619291338579
20
5.3881020078740161
11
-4.9923530314960631
21
5.3883523622047242
0
LINE
8
BLACK
6
CONTINUOUS
10
-4.9923530314960631
20
5.3883523622047242
11
-4.9925571653543308
21
5.3885236220472441
0
LINE
8
BLACK
6
CONTINUOUS
10
-4.9925571653543308
20
5.3885236220472441
11
-4.9926903937007872
21
5.3892792125984252
0
LINE
8
BLACK
6
CONTINUOUS
10
-4.9926903937007872
20
5.3892792125984252
11
-4.9929527559055114
21
5.3899999999999997
0
LINE
8
BLACK
6
CONTINUOUS
10
-4.9929527559055114
20
5.3899999999999997
11
-4.9929527559055114
21
5.9805511811023617
0
LINE
8
BLACK
6
CONTINUOUS
10
-4.9929527559055114
20
5.9805511811023617
11
-4.9928851181102365
21
5.9809346850393696
0
LINE
8
BLACK
6
CONTINUOUS
10
-4.9928851181102365
20
5.9809346850393696
11
-4.9929079133858263
21
5.9810639370078738
0
LINE
8
BLACK
6
CONTINUOUS
10
-4.9929079133858263
20
5.9810639370078738
11
-4.9928422834645669
21
5.9811775196850396
0
LINE
8
BLACK
6
CONTINUOUS
10
-4.9928422834645669
20
5.9811775196850396
11
-4.9927746850393699
21
5.9815611023622042
0
LINE
8
BLACK
6
CONTINUOUS
10
-4.9927746850393699
20
5.9815611023622042
11
-4.9922815354330705
21
5.9821487795275585
0
LINE
8
BLACK
6
CONTINUOUS
10
-4.9922815354330705
20
5.9821487795275585
11
-4.9918979921259838
21
5.9828131102362203
0
LINE
8
BLACK
6
CONTINUOUS
10
-4.9918979921259838
20
5.9828131102362203
11
-4.9916476377952756
21
5.9829042125984246
0
LINE
8
BLACK
6
CONTINUOUS
10
-4.9916476377952756
20
5.9829042125984246
11
-4.9914763779527558
21
5.9831083464566932
0
LINE
8
BLACK
6
CONTINUOUS
10
-4.9914763779527558
20
5.9831083464566932
11
-4.9907207874015747
21
5.9832415748031496
0
LINE
8
BLACK
6
CONTINUOUS
10
-4.9907207874015747
20
5.9832415748031496
11
-4.9900000000000002
21
5.9835039370078738
0
LINE
8
BLACK
6
CONTINUOUS
10
-4.9900000000000002
20
5.9835039370078738
11
-4.0057480314960632
21
5.9835039370078738
0
LINE
8
BLACK
6
CONTINUOUS
10
-4.0057480314960632
20
5.9835039370078738
11
-4.0053645275590553
21
5.983436299212598
0
LINE
8
BLACK
6
CONTINUOUS
10
-4.9870472440944882
20
5.9775984251968506
11
-4.9870472440944882
21
5.3929527559055117
0
LINE
8
BLACK
6
CONTINUOUS
10
-4.9870472440944882
20
5.3929527559055117
11
-4.0087007874015743
21
5.3929527559055117
0
LINE
8
BLACK
6
CONTINUOUS
10
-4.0087007874015743
20
5.3929527559055117
11
-4.0087007874015743
21
5.9775984251968506
0
LINE
8
BLACK
6
CONTINUOUS
10
-4.0087007874015743
20
5.9775984251968506
11
-4.9870472440944882
21
5.9775984251968506
  0
ENDSEC
  0
EOF
