  0
SECTION
  2
HEADER
  9
$ANGBASE
  50
0.0
  9
$ANGDIR
  70
1
  9
$MEASUREMENT
  70
0
  0
ENDSEC
  0
SECTION
  2
TABLES
  0
TABLE
  2
LTYPE
  70
4
  0
LTYPE
  5
40F
  2
CONTINUOUS
  70
0
  3
Solid line
  72
65
  73
0
  40
0.0
  0
LTYPE
  5
410
  2
DASHDOT
 70
0
  3
Dash Dot ____ _ ____ _
 72
65
 73
4
 40
2.0
 49
1.25
 49
-0.25
 49
0.25
 49
-0.25
  0
LTYPE
  5
411
  2
DASHED
 70
0
  3
Dashed __ __ __ __ __
 72
65
 73
2
 40
0.75
 49
0.5
 49
-0.25
  0
LTYPE
  5
43B
  2
DOTTED
 70
0
  3
Dotted .  .  .  .
 72
65
 73
2
 40
0.2
 49
0.0
 49
-0.2
  0
ENDTAB
  0
TABLE
  2
STYLE
  70
4
  0
STYLE
  2
KICAD
  70
0
  40
0
  41
1
  42
1
  50
0
  71
0
  3
isocp.shx
  0
STYLE
  2
KICADB
  70
0
  40
0
  41
1
  42
1
  50
0
  71
0
  3
isocp.shx
  0
STYLE
  2
KICADI
  70
0
  40
0
  41
1
  42
1
  50
15
  71
0
  3
isocp.shx
  0
STYLE
  2
KICADBI
  70
0
  40
0
  41
1
  42
1
  50
15
  71
0
  3
isocp.shx
  0
ENDTAB
  0
TABLE
  2
LAYER
  70
1
  0
LAYER
  2
BLACK
  70
0
  62
7
  6
CONTINUOUS
  0
ENDTAB
  0
ENDSEC
  0
SECTION
  2
ENTITIES
0
LINE
8
BLACK
6
CONTINUOUS
10
-4.6199042913385826
20
5.508468228346457
11
-4.6163374015748033
21
5.5066508267716534
0
LINE
8
BLACK
6
CONTINUOUS
10
-4.6163374015748033
20
5.5066508267716534
11
-4.6135066535433067
21
5.5038200787401577
0
LINE
8
BLACK
6
CONTINUOUS
10
-4.6135066535433067
20
5.5038200787401577
11
-4.611689251968504
21
5.5002531889763775
0
LINE
8
BLACK
6
CONTINUOUS
10
-4.611689251968504
20
5.5002531889763775
11
-4.6110629921259845
21
5.4962992125984247
0
LINE
8
BLACK
6
CONTINUOUS
10
-4.6110629921259845
20
5.4962992125984247
11
-4.6111371259842517
21
5.4960711417322834
0
LINE
8
BLACK
6
CONTINUOUS
10
-4.6111371259842517
20
5.4960711417322834
11
-4.6110629921259845
21
5.4411811023622043
0
LINE
8
BLACK
6
CONTINUOUS
10
-4.6110629921259845
20
5.4411811023622043
11
-4.611689251968504
21
5.4372271259842515
0
LINE
8
BLACK
6
CONTINUOUS
10
-4.611689251968504
20
5.4372271259842515
11
-4.6135066535433067
21
5.4336602362204722
0
LINE
8
BLACK
6
CONTINUOUS
10
-4.6135066535433067
20
5.4336602362204722
11
-4.6163374015748033
21
5.4308294881889765
0
LINE
8
BLACK
6
CONTINUOUS
10
-4.6163374015748033
20
5.4308294881889765
11
-4.6199042913385826
21
5.4290120866141729
0
LINE
8
BLACK
6
CONTINUOUS
10
-4.6199042913385826
20
5.4290120866141729
11
-4.6238582677165354
21
5.4283858267716534
0
LINE
8
BLACK
6
CONTINUOUS
10
-4.6238582677165354
20
5.4283858267716534
11
-4.6240866535433067
21
5.4284600000000003
0
LINE
8
BLACK
6
CONTINUOUS
10
-4.6240866535433067
20
5.4284600000000003
11
-4.6868503937007873
21
5.4283858267716534
0
LINE
8
BLACK
6
CONTINUOUS
10
-4.6868503937007873
20
5.4283858267716534
11
-4.6908043700787401
21
5.4290120866141729
0
LINE
8
BLACK
6
CONTINUOUS
10
-4.6908043700787401
20
5.4290120866141729
11
-4.6943712598425194
21
5.4308294881889765
0
LINE
8
BLACK
6
CONTINUOUS
10
-4.6943712598425194
20
5.4308294881889765
11
-4.697202007874016
21
5.4336602362204722
0
LINE
8
BLACK
6
CONTINUOUS
10
-4.697202007874016
20
5.4336602362204722
11
-4.6990194094488187
21
5.4372271259842515
0
LINE
8
BLACK
6
CONTINUOUS
10
-4.6990194094488187
20
5.4372271259842515
11
-4.6996456692913382
21
5.4411811023622043
0
LINE
8
BLACK
6
CONTINUOUS
10
-4.6996456692913382
20
5.4411811023622043
11
-4.6995715748031497
21
5.4414091338582677
0
LINE
8
BLACK
6
CONTINUOUS
10
-4.6995715748031497
20
5.4414091338582677
11
-4.6996456692913382
21
5.4962992125984247
0
LINE
8
BLACK
6
CONTINUOUS
10
-4.6996456692913382
20
5.4962992125984247
11
-4.6990194094488187
21
5.5002531889763775
0
LINE
8
BLACK
6
CONTINUOUS
10
-4.6990194094488187
20
5.5002531889763775
11
-4.697202007874016
21
5.5038200787401577
0
LINE
8
BLACK
6
CONTINUOUS
10
-4.697202007874016
20
5.5038200787401577
11
-4.6943712598425194
21
5.5066508267716534
0
LINE
8
BLACK
6
CONTINUOUS
10
-4.6943712598425194
20
5.5066508267716534
11
-4.6908043700787401
21
5.508468228346457
0
LINE
8
BLACK
6
CONTINUOUS
10
-4.6908043700787401
20
5.508468228346457
11
-4.6868503937007873
21
5.5090944881889765
0
LINE
8
BLACK
6
CONTINUOUS
10
-4.6868503937007873
20
5.5090944881889765
11
-4.6866220472440947
21
5.5090202755905509
0
LINE
8
BLACK
6
CONTINUOUS
10
-4.6866220472440947
20
5.5090202755905509
11
-4.6238582677165354
21
5.5090944881889765
0
LINE
8
BLACK
6
CONTINUOUS
10
-4.6238582677165354
20
5.5090944881889765
11
-4.6199042913385826
21
5.508468228346457
0
LINE
8
BLACK
6
CONTINUOUS
10
-4.6868503937007873
20
5.5071259842519682
11
-4.6885651968503934
21
5.5071259842519682
0
LINE
8
BLACK
6
CONTINUOUS
10
-4.6885651968503934
20
5.5071259842519682
11
-4.6918269291338586
21
5.5060661811023621
0
LINE
8
BLACK
6
CONTINUOUS
10
-4.6918269291338586
20
5.5060661811023621
11
-4.694601496062992
21
5.5040503149606295
0
LINE
8
BLACK
6
CONTINUOUS
10
-4.694601496062992
20
5.5040503149606295
11
-4.6966173622047247
21
5.501275748031496
0
LINE
8
BLACK
6
CONTINUOUS
10
-4.6966173622047247
20
5.501275748031496
11
-4.6976771653543308
21
5.4980140157480317
0
LINE
8
BLACK
6
CONTINUOUS
10
-4.6976771653543308
20
5.4980140157480317
11
-4.6976771653543308
21
5.4962992125984247
0
LINE
8
BLACK
6
CONTINUOUS
10
-4.6976771653543308
20
5.4962992125984247
11
-4.697751299212598
21
5.4960711417322834
0
LINE
8
BLACK
6
CONTINUOUS
10
-4.697751299212598
20
5.4960711417322834
11
-4.6976771653543308
21
5.4411811023622043
0
LINE
8
BLACK
6
CONTINUOUS
10
-4.6976771653543308
20
5.4411811023622043
11
-4.6976771653543308
21
5.4394662992125982
0
LINE
8
BLACK
6
CONTINUOUS
10
-4.6976771653543308
20
5.4394662992125982
11
-4.6966173622047247
21
5.4362045669291339
0
LINE
8
BLACK
6
CONTINUOUS
10
-4.6966173622047247
20
5.4362045669291339
11
-4.694601496062992
21
5.4334299999999995
0
LINE
8
BLACK
6
CONTINUOUS
10
-4.694601496062992
20
5.4334299999999995
11
-4.6918269291338586
21
5.4314141338582678
0
LINE
8
BLACK
6
CONTINUOUS
10
-4.6918269291338586
20
5.4314141338582678
11
-4.6885651968503934
21
5.4303543307086617
0
LINE
8
BLACK
6
CONTINUOUS
10
-4.6885651968503934
20
5.4303543307086617
11
-4.6868503937007873
21
5.4303543307086617
0
LINE
8
BLACK
6
CONTINUOUS
10
-4.6868503937007873
20
5.4303543307086617
11
-4.6866220472440947
21
5.430280118110236
0
LINE
8
BLACK
6
CONTINUOUS
10
-4.6866220472440947
20
5.430280118110236
11
-4.6238582677165354
21
5.4303543307086617
0
LINE
8
BLACK
6
CONTINUOUS
10
-4.6238582677165354
20
5.4303543307086617
11
-4.6221434645669293
21
5.4303543307086617
0
LINE
8
BLACK
6
CONTINUOUS
10
-4.6221434645669293
20
5.4303543307086617
11
-4.6188817322834641
21
5.4314141338582678
0
LINE
8
BLACK
6
CONTINUOUS
10
-4.6188817322834641
20
5.4314141338582678
11
-4.6161071653543306
21
5.4334299999999995
0
LINE
8
BLACK
6
CONTINUOUS
10
-4.6161071653543306
20
5.4334299999999995
11
-4.614091299212598
21
5.4362045669291339
0
LINE
8
BLACK
6
CONTINUOUS
10
-4.614091299212598
20
5.4362045669291339
11
-4.6130314960629919
21
5.4394662992125982
0
LINE
8
BLACK
6
CONTINUOUS
10
-4.6130314960629919
20
5.4394662992125982
11
-4.6130314960629919
21
5.4411811023622043
0
LINE
8
BLACK
6
CONTINUOUS
10
-4.6130314960629919
20
5.4411811023622043
11
-4.6129574015748034
21
5.4414091338582677
0
LINE
8
BLACK
6
CONTINUOUS
10
-4.6129574015748034
20
5.4414091338582677
11
-4.6130314960629919
21
5.4962992125984247
0
LINE
8
BLACK
6
CONTINUOUS
10
-4.6130314960629919
20
5.4962992125984247
11
-4.6130314960629919
21
5.4980140157480317
0
LINE
8
BLACK
6
CONTINUOUS
10
-4.6130314960629919
20
5.4980140157480317
11
-4.614091299212598
21
5.501275748031496
0
LINE
8
BLACK
6
CONTINUOUS
10
-4.614091299212598
20
5.501275748031496
11
-4.6161071653543306
21
5.5040503149606295
0
LINE
8
BLACK
6
CONTINUOUS
10
-4.6161071653543306
20
5.5040503149606295
11
-4.6188817322834641
21
5.5060661811023621
0
LINE
8
BLACK
6
CONTINUOUS
10
-4.6188817322834641
20
5.5060661811023621
11
-4.6221434645669293
21
5.5071259842519682
0
LINE
8
BLACK
6
CONTINUOUS
10
-4.6221434645669293
20
5.5071259842519682
11
-4.6238582677165354
21
5.5071259842519682
0
LINE
8
BLACK
6
CONTINUOUS
10
-4.6238582677165354
20
5.5071259842519682
11
-4.6240866535433067
21
5.5072001574803151
0
LINE
8
BLACK
6
CONTINUOUS
10
-4.6240866535433067
20
5.5072001574803151
11
-4.6868503937007873
21
5.5071259842519682
0
LINE
8
BLACK
6
CONTINUOUS
10
-4.6199042913385826
20
5.9415390944881885
11
-4.6163374015748033
21
5.9397216929133858
0
LINE
8
BLACK
6
CONTINUOUS
10
-4.6163374015748033
20
5.9397216929133858
11
-4.6135066535433067
21
5.9368909448818901
0
LINE
8
BLACK
6
CONTINUOUS
10
-4.6135066535433067
20
5.9368909448818901
11
-4.611689251968504
21
5.9333240551181099
0
LINE
8
BLACK
6
CONTINUOUS
10
-4.611689251968504
20
5.9333240551181099
11
-4.6110629921259845
21
5.9293700787401571
0
LINE
8
BLACK
6
CONTINUOUS
10
-4.6110629921259845
20
5.9293700787401571
11
-4.6111371259842517
21
5.9291420078740158
0
LINE
8
BLACK
6
CONTINUOUS
10
-4.6111371259842517
20
5.9291420078740158
11
-4.6110629921259845
21
5.8742519685039367
0
LINE
8
BLACK
6
CONTINUOUS
10
-4.6110629921259845
20
5.8742519685039367
11
-4.611689251968504
21
5.8702979921259839
0
LINE
8
BLACK
6
CONTINUOUS
10
-4.611689251968504
20
5.8702979921259839
11
-4.6135066535433067
21
5.8667311023622046
0
LINE
8
BLACK
6
CONTINUOUS
10
-4.6135066535433067
20
5.8667311023622046
11
-4.6163374015748033
21
5.8639003543307089
0
LINE
8
BLACK
6
CONTINUOUS
10
-4.6163374015748033
20
5.8639003543307089
11
-4.6199042913385826
21
5.8620829527559053
0
LINE
8
BLACK
6
CONTINUOUS
10
-4.6199042913385826
20
5.8620829527559053
11
-4.6238582677165354
21
5.8614566929133858
0
LINE
8
BLACK
6
CONTINUOUS
10
-4.6238582677165354
20
5.8614566929133858
11
-4.6240866535433067
21
5.8615308661417318
0
LINE
8
BLACK
6
CONTINUOUS
10
-4.6240866535433067
20
5.8615308661417318
11
-4.6868503937007873
21
5.8614566929133858
0
LINE
8
BLACK
6
CONTINUOUS
10
-4.6868503937007873
20
5.8614566929133858
11
-4.6908043700787401
21
5.8620829527559053
0
LINE
8
BLACK
6
CONTINUOUS
10
-4.6908043700787401
20
5.8620829527559053
11
-4.6943712598425194
21
5.8639003543307089
0
LINE
8
BLACK
6
CONTINUOUS
10
-4.6943712598425194
20
5.8639003543307089
11
-4.697202007874016
21
5.8667311023622046
0
LINE
8
BLACK
6
CONTINUOUS
10
-4.697202007874016
20
5.8667311023622046
11
-4.6990194094488187
21
5.8702979921259839
0
LINE
8
BLACK
6
CONTINUOUS
10
-4.6990194094488187
20
5.8702979921259839
11
-4.6996456692913382
21
5.8742519685039367
0
LINE
8
BLACK
6
CONTINUOUS
10
-4.6996456692913382
20
5.8742519685039367
11
-4.6995715748031497
21
5.8744800000000001
0
LINE
8
BLACK
6
CONTINUOUS
10
-4.6995715748031497
20
5.8744800000000001
11
-4.6996456692913382
21
5.9293700787401571
0
LINE
8
BLACK
6
CONTINUOUS
10
-4.6996456692913382
20
5.9293700787401571
11
-4.6990194094488187
21
5.9333240551181099
0
LINE
8
BLACK
6
CONTINUOUS
10
-4.6990194094488187
20
5.9333240551181099
11
-4.697202007874016
21
5.9368909448818901
0
LINE
8
BLACK
6
CONTINUOUS
10
-4.697202007874016
20
5.9368909448818901
11
-4.6943712598425194
21
5.9397216929133858
0
LINE
8
BLACK
6
CONTINUOUS
10
-4.6943712598425194
20
5.9397216929133858
11
-4.6908043700787401
21
5.9415390944881885
0
LINE
8
BLACK
6
CONTINUOUS
10
-4.6908043700787401
20
5.9415390944881885
11
-4.6868503937007873
21
5.9421653543307089
0
LINE
8
BLACK
6
CONTINUOUS
10
-4.6868503937007873
20
5.9421653543307089
11
-4.6866220472440947
21
5.9420911417322833
0
LINE
8
BLACK
6
CONTINUOUS
10
-4.6866220472440947
20
5.9420911417322833
11
-4.6238582677165354
21
5.9421653543307089
0
LINE
8
BLACK
6
CONTINUOUS
10
-4.6238582677165354
20
5.9421653543307089
11
-4.6199042913385826
21
5.9415390944881885
0
LINE
8
BLACK
6
CONTINUOUS
10
-4.6868503937007873
20
5.9401968503937006
11
-4.6885651968503934
21
5.9401968503937006
0
LINE
8
BLACK
6
CONTINUOUS
10
-4.6885651968503934
20
5.9401968503937006
11
-4.6918269291338586
21
5.9391370472440945
0
LINE
8
BLACK
6
CONTINUOUS
10
-4.6918269291338586
20
5.9391370472440945
11
-4.694601496062992
21
5.9371211811023619
0
LINE
8
BLACK
6
CONTINUOUS
10
-4.694601496062992
20
5.9371211811023619
11
-4.6966173622047247
21
5.9343466141732284
0
LINE
8
BLACK
6
CONTINUOUS
10
-4.6966173622047247
20
5.9343466141732284
11
-4.6976771653543308
21
5.9310848818897632
0
LINE
8
BLACK
6
CONTINUOUS
10
-4.6976771653543308
20
5.9310848818897632
11
-4.6976771653543308
21
5.9293700787401571
0
LINE
8
BLACK
6
CONTINUOUS
10
-4.6976771653543308
20
5.9293700787401571
11
-4.697751299212598
21
5.9291420078740158
0
LINE
8
BLACK
6
CONTINUOUS
10
-4.697751299212598
20
5.9291420078740158
11
-4.6976771653543308
21
5.8742519685039367
0
LINE
8
BLACK
6
CONTINUOUS
10
-4.6976771653543308
20
5.8742519685039367
11
-4.6976771653543308
21
5.8725371653543306
0
LINE
8
BLACK
6
CONTINUOUS
10
-4.6976771653543308
20
5.8725371653543306
11
-4.6966173622047247
21
5.8692754330708663
0
LINE
8
BLACK
6
CONTINUOUS
10
-4.6966173622047247
20
5.8692754330708663
11
-4.694601496062992
21
5.8665008661417319
0
LINE
8
BLACK
6
CONTINUOUS
10
-4.694601496062992
20
5.8665008661417319
11
-4.6918269291338586
21
5.8644850000000002
0
LINE
8
BLACK
6
CONTINUOUS
10
-4.6918269291338586
20
5.8644850000000002
11
-4.6885651968503934
21
5.8634251968503932
0
LINE
8
BLACK
6
CONTINUOUS
10
-4.6885651968503934
20
5.8634251968503932
11
-4.6868503937007873
21
5.8634251968503932
0
LINE
8
BLACK
6
CONTINUOUS
10
-4.6868503937007873
20
5.8634251968503932
11
-4.6866220472440947
21
5.8633509842519684
0
LINE
8
BLACK
6
CONTINUOUS
10
-4.6866220472440947
20
5.8633509842519684
11
-4.6238582677165354
21
5.8634251968503932
0
LINE
8
BLACK
6
CONTINUOUS
10
-4.6238582677165354
20
5.8634251968503932
11
-4.6221434645669293
21
5.8634251968503932
0
LINE
8
BLACK
6
CONTINUOUS
10
-4.6221434645669293
20
5.8634251968503932
11
-4.6188817322834641
21
5.8644850000000002
0
LINE
8
BLACK
6
CONTINUOUS
10
-4.6188817322834641
20
5.8644850000000002
11
-4.6161071653543306
21
5.8665008661417319
0
LINE
8
BLACK
6
CONTINUOUS
10
-4.6161071653543306
20
5.8665008661417319
11
-4.614091299212598
21
5.8692754330708663
0
LINE
8
BLACK
6
CONTINUOUS
10
-4.614091299212598
20
5.8692754330708663
11
-4.6130314960629919
21
5.8725371653543306
0
LINE
8
BLACK
6
CONTINUOUS
10
-4.6130314960629919
20
5.8725371653543306
11
-4.6130314960629919
21
5.8742519685039367
0
LINE
8
BLACK
6
CONTINUOUS
10
-4.6130314960629919
20
5.8742519685039367
11
-4.6129574015748034
21
5.8744800000000001
0
LINE
8
BLACK
6
CONTINUOUS
10
-4.6129574015748034
20
5.8744800000000001
11
-4.6130314960629919
21
5.9293700787401571
0
LINE
8
BLACK
6
CONTINUOUS
10
-4.6130314960629919
20
5.9293700787401571
11
-4.6130314960629919
21
5.9310848818897632
0
LINE
8
BLACK
6
CONTINUOUS
10
-4.6130314960629919
20
5.9310848818897632
11
-4.614091299212598
21
5.9343466141732284
0
LINE
8
BLACK
6
CONTINUOUS
10
-4.614091299212598
20
5.9343466141732284
11
-4.6161071653543306
21
5.9371211811023619
0
LINE
8
BLACK
6
CONTINUOUS
10
-4.6161071653543306
20
5.9371211811023619
11
-4.6188817322834641
21
5.9391370472440945
0
LINE
8
BLACK
6
CONTINUOUS
10
-4.6188817322834641
20
5.9391370472440945
11
-4.6221434645669293
21
5.9401968503937006
0
LINE
8
BLACK
6
CONTINUOUS
10
-4.6221434645669293
20
5.9401968503937006
11
-4.6238582677165354
21
5.9401968503937006
0
LINE
8
BLACK
6
CONTINUOUS
10
-4.6238582677165354
20
5.9401968503937006
11
-4.6240866535433067
21
5.9402710236220475
0
LINE
8
BLACK
6
CONTINUOUS
10
-4.6240866535433067
20
5.9402710236220475
11
-4.6868503937007873
21
5.9401968503937006
0
LINE
8
BLACK
6
CONTINUOUS
10
-4.0051719685039373
20
5.9834472047244089
11
-4.0041075590551181
21
5.9830062992125983
0
LINE
8
BLACK
6
CONTINUOUS
10
-4.0041075590551181
20
5.9830062992125983
11
-4.0032929133858266
21
5.9821916535433068
0
LINE
8
BLACK
6
CONTINUOUS
10
-4.0032929133858266
20
5.9821916535433068
11
-4.002852007874016
21
5.9811272440944885
0
LINE
8
BLACK
6
CONTINUOUS
10
-4.002852007874016
20
5.9811272440944885
11
-4.0027952755905511
21
5.3899999999999997
0
LINE
8
BLACK
6
CONTINUOUS
10
-4.0027952755905511
20
5.3899999999999997
11
-4.002852007874016
21
5.3894239370078738
0
LINE
8
BLACK
6
CONTINUOUS
10
-4.002852007874016
20
5.3894239370078738
11
-4.0032929133858266
21
5.3883595275590546
0
LINE
8
BLACK
6
CONTINUOUS
10
-4.0032929133858266
20
5.3883595275590546
11
-4.0041075590551181
21
5.387544881889764
0
LINE
8
BLACK
6
CONTINUOUS
10
-4.0041075590551181
20
5.387544881889764
11
-4.0051719685039373
21
5.3871039763779525
0
LINE
8
BLACK
6
CONTINUOUS
10
-4.0051719685039373
20
5.3871039763779525
11
-4.9900000000000002
21
5.3870472440944877
0
LINE
8
BLACK
6
CONTINUOUS
10
-4.9900000000000002
20
5.3870472440944877
11
-4.9905760629921261
21
5.3871039763779525
0
LINE
8
BLACK
6
CONTINUOUS
10
-4.9905760629921261
20
5.3871039763779525
11
-4.9916404724409444
21
5.387544881889764
0
LINE
8
BLACK
6
CONTINUOUS
10
-4.9916404724409444
20
5.387544881889764
11
-4.9924551181102359
21
5.3883595275590546
0
LINE
8
BLACK
6
CONTINUOUS
10
-4.9924551181102359
20
5.3883595275590546
11
-4.9928960236220474
21
5.3894239370078738
0
LINE
8
BLACK
6
CONTINUOUS
10
-4.9928960236220474
20
5.3894239370078738
11
-4.9929527559055114
21
5.9805511811023617
0
LINE
8
BLACK
6
CONTINUOUS
10
-4.9929527559055114
20
5.9805511811023617
11
-4.9928960236220474
21
5.9811272440944885
0
LINE
8
BLACK
6
CONTINUOUS
10
-4.9928960236220474
20
5.9811272440944885
11
-4.9924551181102359
21
5.9821916535433068
0
LINE
8
BLACK
6
CONTINUOUS
10
-4.9924551181102359
20
5.9821916535433068
11
-4.9916404724409444
21
5.9830062992125983
0
LINE
8
BLACK
6
CONTINUOUS
10
-4.9916404724409444
20
5.9830062992125983
11
-4.9905760629921261
21
5.9834472047244089
0
LINE
8
BLACK
6
CONTINUOUS
10
-4.9905760629921261
20
5.9834472047244089
11
-4.0057480314960632
21
5.9835039370078738
0
LINE
8
BLACK
6
CONTINUOUS
10
-4.0057480314960632
20
5.9835039370078738
11
-4.0051719685039373
21
5.9834472047244089
0
LINE
8
BLACK
6
CONTINUOUS
10
-4.987103661417323
20
5.9775985826771656
11
-4.9870475590551182
21
5.3928962204724407
0
LINE
8
BLACK
6
CONTINUOUS
10
-4.9870475590551182
20
5.3928962204724407
11
-4.0086444094488192
21
5.3929525590551179
0
LINE
8
BLACK
6
CONTINUOUS
10
-4.0086444094488192
20
5.3929525590551179
11
-4.0087005118110239
21
5.977654921259842
0
LINE
8
BLACK
6
CONTINUOUS
10
-4.0087005118110239
20
5.977654921259842
11
-4.987103661417323
21
5.9775985826771656
  0
ENDSEC
  0
EOF
