  0
SECTION
  2
HEADER
  9
$ANGBASE
  50
0.0
  9
$ANGDIR
  70
1
  9
$MEASUREMENT
  70
0
  0
ENDSEC
  0
SECTION
  2
TABLES
  0
TABLE
  2
LTYPE
  70
4
  0
LTYPE
  5
40F
  2
CONTINUOUS
  70
0
  3
Solid line
  72
65
  73
0
  40
0.0
  0
LTYPE
  5
410
  2
DASHDOT
 70
0
  3
Dash Dot ____ _ ____ _
 72
65
 73
4
 40
2.0
 49
1.25
 49
-0.25
 49
0.25
 49
-0.25
  0
LTYPE
  5
411
  2
DASHED
 70
0
  3
Dashed __ __ __ __ __
 72
65
 73
2
 40
0.75
 49
0.5
 49
-0.25
  0
LTYPE
  5
43B
  2
DOTTED
 70
0
  3
Dotted .  .  .  .
 72
65
 73
2
 40
0.2
 49
0.0
 49
-0.2
  0
ENDTAB
  0
TABLE
  2
STYLE
  70
4
  0
STYLE
  2
KICAD
  70
0
  40
0
  41
1
  42
1
  50
0
  71
0
  3
isocp.shx
  0
STYLE
  2
KICADB
  70
0
  40
0
  41
1
  42
1
  50
0
  71
0
  3
isocp.shx
  0
STYLE
  2
KICADI
  70
0
  40
0
  41
1
  42
1
  50
15
  71
0
  3
isocp.shx
  0
STYLE
  2
KICADBI
  70
0
  40
0
  41
1
  42
1
  50
15
  71
0
  3
isocp.shx
  0
ENDTAB
  0
TABLE
  2
LAYER
  70
1
  0
LAYER
  2
BLACK
  70
0
  62
7
  6
CONTINUOUS
  0
ENDTAB
  0
ENDSEC
  0
SECTION
  2
ENTITIES
0
LINE
8
BLACK
6
CONTINUOUS
10
-4.8858397244094487
20
5.5575578740157479
11
-4.8826465748031493
21
5.555424291338583
0
LINE
8
BLACK
6
CONTINUOUS
10
-4.8826465748031493
20
5.555424291338583
11
-4.8805129921259844
21
5.5522311417322836
0
LINE
8
BLACK
6
CONTINUOUS
10
-4.8805129921259844
20
5.5522311417322836
11
-4.8797637795275586
21
5.5484645669291339
0
LINE
8
BLACK
6
CONTINUOUS
10
-4.8797637795275586
20
5.5484645669291339
11
-4.8797637795275586
21
5.5287795275590552
0
LINE
8
BLACK
6
CONTINUOUS
10
-4.8797637795275586
20
5.5287795275590552
11
-4.8805129921259844
21
5.5250129527559055
0
LINE
8
BLACK
6
CONTINUOUS
10
-4.8805129921259844
20
5.5250129527559055
11
-4.8826465748031493
21
5.5218198031496062
0
LINE
8
BLACK
6
CONTINUOUS
10
-4.8826465748031493
20
5.5218198031496062
11
-4.8858397244094487
21
5.5196862204724404
0
LINE
8
BLACK
6
CONTINUOUS
10
-4.8858397244094487
20
5.5196862204724404
11
-4.8896062992125984
21
5.5189370078740154
0
LINE
8
BLACK
6
CONTINUOUS
10
-4.8896062992125984
20
5.5189370078740154
11
-4.9762204724409447
21
5.5189370078740154
0
LINE
8
BLACK
6
CONTINUOUS
10
-4.9762204724409447
20
5.5189370078740154
11
-4.9799870472440944
21
5.5196862204724404
0
LINE
8
BLACK
6
CONTINUOUS
10
-4.9799870472440944
20
5.5196862204724404
11
-4.9831801968503937
21
5.5218198031496062
0
LINE
8
BLACK
6
CONTINUOUS
10
-4.9831801968503937
20
5.5218198031496062
11
-4.9853137795275586
21
5.5250129527559055
0
LINE
8
BLACK
6
CONTINUOUS
10
-4.9853137795275586
20
5.5250129527559055
11
-4.9860629921259845
21
5.5287795275590552
0
LINE
8
BLACK
6
CONTINUOUS
10
-4.9860629921259845
20
5.5287795275590552
11
-4.9860629921259845
21
5.5484645669291339
0
LINE
8
BLACK
6
CONTINUOUS
10
-4.9860629921259845
20
5.5484645669291339
11
-4.9853137795275586
21
5.5522311417322836
0
LINE
8
BLACK
6
CONTINUOUS
10
-4.9853137795275586
20
5.5522311417322836
11
-4.9831801968503937
21
5.555424291338583
0
LINE
8
BLACK
6
CONTINUOUS
10
-4.9831801968503937
20
5.555424291338583
11
-4.9799870472440944
21
5.5575578740157479
0
LINE
8
BLACK
6
CONTINUOUS
10
-4.9799870472440944
20
5.5575578740157479
11
-4.9762204724409447
21
5.5583070866141728
0
LINE
8
BLACK
6
CONTINUOUS
10
-4.9762204724409447
20
5.5583070866141728
11
-4.8896062992125984
21
5.5583070866141728
0
LINE
8
BLACK
6
CONTINUOUS
10
-4.8896062992125984
20
5.5583070866141728
11
-4.8858397244094487
21
5.5575578740157479
0
LINE
8
BLACK
6
CONTINUOUS
10
-4.0157609842519681
20
5.5575578740157479
11
-4.0125678346456688
21
5.555424291338583
0
LINE
8
BLACK
6
CONTINUOUS
10
-4.0125678346456688
20
5.555424291338583
11
-4.0104342519685039
21
5.5522311417322836
0
LINE
8
BLACK
6
CONTINUOUS
10
-4.0104342519685039
20
5.5522311417322836
11
-4.0096850393700789
21
5.5484645669291339
0
LINE
8
BLACK
6
CONTINUOUS
10
-4.0096850393700789
20
5.5484645669291339
11
-4.0096850393700789
21
5.5287795275590552
0
LINE
8
BLACK
6
CONTINUOUS
10
-4.0096850393700789
20
5.5287795275590552
11
-4.0104342519685039
21
5.5250129527559055
0
LINE
8
BLACK
6
CONTINUOUS
10
-4.0104342519685039
20
5.5250129527559055
11
-4.0125678346456688
21
5.5218198031496062
0
LINE
8
BLACK
6
CONTINUOUS
10
-4.0125678346456688
20
5.5218198031496062
11
-4.0157609842519681
21
5.5196862204724404
0
LINE
8
BLACK
6
CONTINUOUS
10
-4.0157609842519681
20
5.5196862204724404
11
-4.0195275590551178
21
5.5189370078740154
0
LINE
8
BLACK
6
CONTINUOUS
10
-4.0195275590551178
20
5.5189370078740154
11
-4.1061417322834641
21
5.5189370078740154
0
LINE
8
BLACK
6
CONTINUOUS
10
-4.1061417322834641
20
5.5189370078740154
11
-4.1099083070866138
21
5.5196862204724404
0
LINE
8
BLACK
6
CONTINUOUS
10
-4.1099083070866138
20
5.5196862204724404
11
-4.1131014566929132
21
5.5218198031496062
0
LINE
8
BLACK
6
CONTINUOUS
10
-4.1131014566929132
20
5.5218198031496062
11
-4.115235039370079
21
5.5250129527559055
0
LINE
8
BLACK
6
CONTINUOUS
10
-4.115235039370079
20
5.5250129527559055
11
-4.1159842519685039
21
5.5287795275590552
0
LINE
8
BLACK
6
CONTINUOUS
10
-4.1159842519685039
20
5.5287795275590552
11
-4.1159842519685039
21
5.5484645669291339
0
LINE
8
BLACK
6
CONTINUOUS
10
-4.1159842519685039
20
5.5484645669291339
11
-4.115235039370079
21
5.5522311417322836
0
LINE
8
BLACK
6
CONTINUOUS
10
-4.115235039370079
20
5.5522311417322836
11
-4.1131014566929132
21
5.555424291338583
0
LINE
8
BLACK
6
CONTINUOUS
10
-4.1131014566929132
20
5.555424291338583
11
-4.1099083070866138
21
5.5575578740157479
0
LINE
8
BLACK
6
CONTINUOUS
10
-4.1099083070866138
20
5.5575578740157479
11
-4.1061417322834641
21
5.5583070866141728
0
LINE
8
BLACK
6
CONTINUOUS
10
-4.1061417322834641
20
5.5583070866141728
11
-4.0195275590551178
21
5.5583070866141728
0
LINE
8
BLACK
6
CONTINUOUS
10
-4.0195275590551178
20
5.5583070866141728
11
-4.0157609842519681
21
5.5575578740157479
0
LINE
8
BLACK
6
CONTINUOUS
10
-4.7771101181102358
20
5.6228181889763782
11
-4.7751942519685038
21
5.6215380314960628
0
LINE
8
BLACK
6
CONTINUOUS
10
-4.7751942519685038
20
5.6215380314960628
11
-4.7739140944881893
21
5.6196221653543308
0
LINE
8
BLACK
6
CONTINUOUS
10
-4.7739140944881893
20
5.6196221653543308
11
-4.7734645669291336
21
5.6173622047244089
0
LINE
8
BLACK
6
CONTINUOUS
10
-4.7734645669291336
20
5.6173622047244089
11
-4.7734645669291336
21
5.6055511811023617
0
LINE
8
BLACK
6
CONTINUOUS
10
-4.7734645669291336
20
5.6055511811023617
11
-4.7739140944881893
21
5.6032912204724408
0
LINE
8
BLACK
6
CONTINUOUS
10
-4.7739140944881893
20
5.6032912204724408
11
-4.7751942519685038
21
5.6013753543307088
0
LINE
8
BLACK
6
CONTINUOUS
10
-4.7751942519685038
20
5.6013753543307088
11
-4.7771101181102358
21
5.6000951968503934
0
LINE
8
BLACK
6
CONTINUOUS
10
-4.7771101181102358
20
5.6000951968503934
11
-4.7793700787401576
21
5.5996456692913386
0
LINE
8
BLACK
6
CONTINUOUS
10
-4.7793700787401576
20
5.5996456692913386
11
-4.834488188976378
21
5.5996456692913386
0
LINE
8
BLACK
6
CONTINUOUS
10
-4.834488188976378
20
5.5996456692913386
11
-4.836748149606299
21
5.6000951968503934
0
LINE
8
BLACK
6
CONTINUOUS
10
-4.836748149606299
20
5.6000951968503934
11
-4.838664015748031
21
5.6013753543307088
0
LINE
8
BLACK
6
CONTINUOUS
10
-4.838664015748031
20
5.6013753543307088
11
-4.8399441732283464
21
5.6032912204724408
0
LINE
8
BLACK
6
CONTINUOUS
10
-4.8399441732283464
20
5.6032912204724408
11
-4.8403937007874012
21
5.6055511811023617
0
LINE
8
BLACK
6
CONTINUOUS
10
-4.8403937007874012
20
5.6055511811023617
11
-4.8403937007874012
21
5.6173622047244089
0
LINE
8
BLACK
6
CONTINUOUS
10
-4.8403937007874012
20
5.6173622047244089
11
-4.8399441732283464
21
5.6196221653543308
0
LINE
8
BLACK
6
CONTINUOUS
10
-4.8399441732283464
20
5.6196221653543308
11
-4.838664015748031
21
5.6215380314960628
0
LINE
8
BLACK
6
CONTINUOUS
10
-4.838664015748031
20
5.6215380314960628
11
-4.836748149606299
21
5.6228181889763782
0
LINE
8
BLACK
6
CONTINUOUS
10
-4.836748149606299
20
5.6228181889763782
11
-4.834488188976378
21
5.623267716535433
0
LINE
8
BLACK
6
CONTINUOUS
10
-4.834488188976378
20
5.623267716535433
11
-4.7793700787401576
21
5.623267716535433
0
LINE
8
BLACK
6
CONTINUOUS
10
-4.7793700787401576
20
5.623267716535433
11
-4.7771101181102358
21
5.6228181889763782
0
LINE
8
BLACK
6
CONTINUOUS
10
-4.1589998818897636
20
5.6228181889763782
11
-4.1570840157480315
21
5.6215380314960628
0
LINE
8
BLACK
6
CONTINUOUS
10
-4.1570840157480315
20
5.6215380314960628
11
-4.1558038582677161
21
5.6196221653543308
0
LINE
8
BLACK
6
CONTINUOUS
10
-4.1558038582677161
20
5.6196221653543308
11
-4.1553543307086613
21
5.6173622047244089
0
LINE
8
BLACK
6
CONTINUOUS
10
-4.1553543307086613
20
5.6173622047244089
11
-4.1553543307086613
21
5.6055511811023617
0
LINE
8
BLACK
6
CONTINUOUS
10
-4.1553543307086613
20
5.6055511811023617
11
-4.1558038582677161
21
5.6032912204724408
0
LINE
8
BLACK
6
CONTINUOUS
10
-4.1558038582677161
20
5.6032912204724408
11
-4.1570840157480315
21
5.6013753543307088
0
LINE
8
BLACK
6
CONTINUOUS
10
-4.1570840157480315
20
5.6013753543307088
11
-4.1589998818897636
21
5.6000951968503934
0
LINE
8
BLACK
6
CONTINUOUS
10
-4.1589998818897636
20
5.6000951968503934
11
-4.1612598425196845
21
5.5996456692913386
0
LINE
8
BLACK
6
CONTINUOUS
10
-4.1612598425196845
20
5.5996456692913386
11
-4.2163779527559058
21
5.5996456692913386
0
LINE
8
BLACK
6
CONTINUOUS
10
-4.2163779527559058
20
5.5996456692913386
11
-4.2186379133858267
21
5.6000951968503934
0
LINE
8
BLACK
6
CONTINUOUS
10
-4.2186379133858267
20
5.6000951968503934
11
-4.2205537795275587
21
5.6013753543307088
0
LINE
8
BLACK
6
CONTINUOUS
10
-4.2205537795275587
20
5.6013753543307088
11
-4.2218339370078741
21
5.6032912204724408
0
LINE
8
BLACK
6
CONTINUOUS
10
-4.2218339370078741
20
5.6032912204724408
11
-4.2222834645669289
21
5.6055511811023617
0
LINE
8
BLACK
6
CONTINUOUS
10
-4.2222834645669289
20
5.6055511811023617
11
-4.2222834645669289
21
5.6173622047244089
0
LINE
8
BLACK
6
CONTINUOUS
10
-4.2222834645669289
20
5.6173622047244089
11
-4.2218339370078741
21
5.6196221653543308
0
LINE
8
BLACK
6
CONTINUOUS
10
-4.2218339370078741
20
5.6196221653543308
11
-4.2205537795275587
21
5.6215380314960628
0
LINE
8
BLACK
6
CONTINUOUS
10
-4.2205537795275587
20
5.6215380314960628
11
-4.2186379133858267
21
5.6228181889763782
0
LINE
8
BLACK
6
CONTINUOUS
10
-4.2186379133858267
20
5.6228181889763782
11
-4.2163779527559058
21
5.623267716535433
0
LINE
8
BLACK
6
CONTINUOUS
10
-4.2163779527559058
20
5.623267716535433
11
-4.1612598425196845
21
5.623267716535433
0
LINE
8
BLACK
6
CONTINUOUS
10
-4.1612598425196845
20
5.623267716535433
11
-4.1589998818897636
21
5.6228181889763782
0
LINE
8
BLACK
6
CONTINUOUS
10
-4.7771101181102358
20
5.6720307874015745
11
-4.7751942519685038
21
5.67075062992126
0
LINE
8
BLACK
6
CONTINUOUS
10
-4.7751942519685038
20
5.67075062992126
11
-4.7739140944881893
21
5.6688347637795271
0
LINE
8
BLACK
6
CONTINUOUS
10
-4.7739140944881893
20
5.6688347637795271
11
-4.7734645669291336
21
5.6665748031496062
0
LINE
8
BLACK
6
CONTINUOUS
10
-4.7734645669291336
20
5.6665748031496062
11
-4.7734645669291336
21
5.6547637795275589
0
LINE
8
BLACK
6
CONTINUOUS
10
-4.7734645669291336
20
5.6547637795275589
11
-4.7739140944881893
21
5.652503818897638
0
LINE
8
BLACK
6
CONTINUOUS
10
-4.7739140944881893
20
5.652503818897638
11
-4.7751942519685038
21
5.6505879527559051
0
LINE
8
BLACK
6
CONTINUOUS
10
-4.7751942519685038
20
5.6505879527559051
11
-4.7771101181102358
21
5.6493077952755906
0
LINE
8
BLACK
6
CONTINUOUS
10
-4.7771101181102358
20
5.6493077952755906
11
-4.7793700787401576
21
5.6488582677165349
0
LINE
8
BLACK
6
CONTINUOUS
10
-4.7793700787401576
20
5.6488582677165349
11
-4.834488188976378
21
5.6488582677165349
0
LINE
8
BLACK
6
CONTINUOUS
10
-4.834488188976378
20
5.6488582677165349
11
-4.836748149606299
21
5.6493077952755906
0
LINE
8
BLACK
6
CONTINUOUS
10
-4.836748149606299
20
5.6493077952755906
11
-4.838664015748031
21
5.6505879527559051
0
LINE
8
BLACK
6
CONTINUOUS
10
-4.838664015748031
20
5.6505879527559051
11
-4.8399441732283464
21
5.652503818897638
0
LINE
8
BLACK
6
CONTINUOUS
10
-4.8399441732283464
20
5.652503818897638
11
-4.8403937007874012
21
5.6547637795275589
0
LINE
8
BLACK
6
CONTINUOUS
10
-4.8403937007874012
20
5.6547637795275589
11
-4.8403937007874012
21
5.6665748031496062
0
LINE
8
BLACK
6
CONTINUOUS
10
-4.8403937007874012
20
5.6665748031496062
11
-4.8399441732283464
21
5.6688347637795271
0
LINE
8
BLACK
6
CONTINUOUS
10
-4.8399441732283464
20
5.6688347637795271
11
-4.838664015748031
21
5.67075062992126
0
LINE
8
BLACK
6
CONTINUOUS
10
-4.838664015748031
20
5.67075062992126
11
-4.836748149606299
21
5.6720307874015745
0
LINE
8
BLACK
6
CONTINUOUS
10
-4.836748149606299
20
5.6720307874015745
11
-4.834488188976378
21
5.6724803149606302
0
LINE
8
BLACK
6
CONTINUOUS
10
-4.834488188976378
20
5.6724803149606302
11
-4.7793700787401576
21
5.6724803149606302
0
LINE
8
BLACK
6
CONTINUOUS
10
-4.7793700787401576
20
5.6724803149606302
11
-4.7771101181102358
21
5.6720307874015745
0
LINE
8
BLACK
6
CONTINUOUS
10
-4.1589998818897636
20
5.6720307874015745
11
-4.1570840157480315
21
5.67075062992126
0
LINE
8
BLACK
6
CONTINUOUS
10
-4.1570840157480315
20
5.67075062992126
11
-4.1558038582677161
21
5.6688347637795271
0
LINE
8
BLACK
6
CONTINUOUS
10
-4.1558038582677161
20
5.6688347637795271
11
-4.1553543307086613
21
5.6665748031496062
0
LINE
8
BLACK
6
CONTINUOUS
10
-4.1553543307086613
20
5.6665748031496062
11
-4.1553543307086613
21
5.6547637795275589
0
LINE
8
BLACK
6
CONTINUOUS
10
-4.1553543307086613
20
5.6547637795275589
11
-4.1558038582677161
21
5.652503818897638
0
LINE
8
BLACK
6
CONTINUOUS
10
-4.1558038582677161
20
5.652503818897638
11
-4.1570840157480315
21
5.6505879527559051
0
LINE
8
BLACK
6
CONTINUOUS
10
-4.1570840157480315
20
5.6505879527559051
11
-4.1589998818897636
21
5.6493077952755906
0
LINE
8
BLACK
6
CONTINUOUS
10
-4.1589998818897636
20
5.6493077952755906
11
-4.1612598425196845
21
5.6488582677165349
0
LINE
8
BLACK
6
CONTINUOUS
10
-4.1612598425196845
20
5.6488582677165349
11
-4.2163779527559058
21
5.6488582677165349
0
LINE
8
BLACK
6
CONTINUOUS
10
-4.2163779527559058
20
5.6488582677165349
11
-4.2186379133858267
21
5.6493077952755906
0
LINE
8
BLACK
6
CONTINUOUS
10
-4.2186379133858267
20
5.6493077952755906
11
-4.2205537795275587
21
5.6505879527559051
0
LINE
8
BLACK
6
CONTINUOUS
10
-4.2205537795275587
20
5.6505879527559051
11
-4.2218339370078741
21
5.652503818897638
0
LINE
8
BLACK
6
CONTINUOUS
10
-4.2218339370078741
20
5.652503818897638
11
-4.2222834645669289
21
5.6547637795275589
0
LINE
8
BLACK
6
CONTINUOUS
10
-4.2222834645669289
20
5.6547637795275589
11
-4.2222834645669289
21
5.6665748031496062
0
LINE
8
BLACK
6
CONTINUOUS
10
-4.2222834645669289
20
5.6665748031496062
11
-4.2218339370078741
21
5.6688347637795271
0
LINE
8
BLACK
6
CONTINUOUS
10
-4.2218339370078741
20
5.6688347637795271
11
-4.2205537795275587
21
5.67075062992126
0
LINE
8
BLACK
6
CONTINUOUS
10
-4.2205537795275587
20
5.67075062992126
11
-4.2186379133858267
21
5.6720307874015745
0
LINE
8
BLACK
6
CONTINUOUS
10
-4.2186379133858267
20
5.6720307874015745
11
-4.2163779527559058
21
5.6724803149606302
0
LINE
8
BLACK
6
CONTINUOUS
10
-4.2163779527559058
20
5.6724803149606302
11
-4.1612598425196845
21
5.6724803149606302
0
LINE
8
BLACK
6
CONTINUOUS
10
-4.1612598425196845
20
5.6724803149606302
11
-4.1589998818897636
21
5.6720307874015745
0
LINE
8
BLACK
6
CONTINUOUS
10
-4.7771101181102358
20
5.7212433858267717
11
-4.7751942519685038
21
5.7199632283464563
0
LINE
8
BLACK
6
CONTINUOUS
10
-4.7751942519685038
20
5.7199632283464563
11
-4.7739140944881893
21
5.7180473622047243
0
LINE
8
BLACK
6
CONTINUOUS
10
-4.7739140944881893
20
5.7180473622047243
11
-4.7734645669291336
21
5.7157874015748034
0
LINE
8
BLACK
6
CONTINUOUS
10
-4.7734645669291336
20
5.7157874015748034
11
-4.7734645669291336
21
5.7039763779527561
0
LINE
8
BLACK
6
CONTINUOUS
10
-4.7734645669291336
20
5.7039763779527561
11
-4.7739140944881893
21
5.7017164173228343
0
LINE
8
BLACK
6
CONTINUOUS
10
-4.7739140944881893
20
5.7017164173228343
11
-4.7751942519685038
21
5.6998005511811023
0
LINE
8
BLACK
6
CONTINUOUS
10
-4.7751942519685038
20
5.6998005511811023
11
-4.7771101181102358
21
5.6985203937007869
0
LINE
8
BLACK
6
CONTINUOUS
10
-4.7771101181102358
20
5.6985203937007869
11
-4.7793700787401576
21
5.6980708661417321
0
LINE
8
BLACK
6
CONTINUOUS
10
-4.7793700787401576
20
5.6980708661417321
11
-4.834488188976378
21
5.6980708661417321
0
LINE
8
BLACK
6
CONTINUOUS
10
-4.834488188976378
20
5.6980708661417321
11
-4.836748149606299
21
5.6985203937007869
0
LINE
8
BLACK
6
CONTINUOUS
10
-4.836748149606299
20
5.6985203937007869
11
-4.838664015748031
21
5.6998005511811023
0
LINE
8
BLACK
6
CONTINUOUS
10
-4.838664015748031
20
5.6998005511811023
11
-4.8399441732283464
21
5.7017164173228343
0
LINE
8
BLACK
6
CONTINUOUS
10
-4.8399441732283464
20
5.7017164173228343
11
-4.8403937007874012
21
5.7039763779527561
0
LINE
8
BLACK
6
CONTINUOUS
10
-4.8403937007874012
20
5.7039763779527561
11
-4.8403937007874012
21
5.7157874015748034
0
LINE
8
BLACK
6
CONTINUOUS
10
-4.8403937007874012
20
5.7157874015748034
11
-4.8399441732283464
21
5.7180473622047243
0
LINE
8
BLACK
6
CONTINUOUS
10
-4.8399441732283464
20
5.7180473622047243
11
-4.838664015748031
21
5.7199632283464563
0
LINE
8
BLACK
6
CONTINUOUS
10
-4.838664015748031
20
5.7199632283464563
11
-4.836748149606299
21
5.7212433858267717
0
LINE
8
BLACK
6
CONTINUOUS
10
-4.836748149606299
20
5.7212433858267717
11
-4.834488188976378
21
5.7216929133858265
0
LINE
8
BLACK
6
CONTINUOUS
10
-4.834488188976378
20
5.7216929133858265
11
-4.7793700787401576
21
5.7216929133858265
0
LINE
8
BLACK
6
CONTINUOUS
10
-4.7793700787401576
20
5.7216929133858265
11
-4.7771101181102358
21
5.7212433858267717
0
LINE
8
BLACK
6
CONTINUOUS
10
-4.1589998818897636
20
5.7212433858267717
11
-4.1570840157480315
21
5.7199632283464563
0
LINE
8
BLACK
6
CONTINUOUS
10
-4.1570840157480315
20
5.7199632283464563
11
-4.1558038582677161
21
5.7180473622047243
0
LINE
8
BLACK
6
CONTINUOUS
10
-4.1558038582677161
20
5.7180473622047243
11
-4.1553543307086613
21
5.7157874015748034
0
LINE
8
BLACK
6
CONTINUOUS
10
-4.1553543307086613
20
5.7157874015748034
11
-4.1553543307086613
21
5.7039763779527561
0
LINE
8
BLACK
6
CONTINUOUS
10
-4.1553543307086613
20
5.7039763779527561
11
-4.1558038582677161
21
5.7017164173228343
0
LINE
8
BLACK
6
CONTINUOUS
10
-4.1558038582677161
20
5.7017164173228343
11
-4.1570840157480315
21
5.6998005511811023
0
LINE
8
BLACK
6
CONTINUOUS
10
-4.1570840157480315
20
5.6998005511811023
11
-4.1589998818897636
21
5.6985203937007869
0
LINE
8
BLACK
6
CONTINUOUS
10
-4.1589998818897636
20
5.6985203937007869
11
-4.1612598425196845
21
5.6980708661417321
0
LINE
8
BLACK
6
CONTINUOUS
10
-4.1612598425196845
20
5.6980708661417321
11
-4.2163779527559058
21
5.6980708661417321
0
LINE
8
BLACK
6
CONTINUOUS
10
-4.2163779527559058
20
5.6980708661417321
11
-4.2186379133858267
21
5.6985203937007869
0
LINE
8
BLACK
6
CONTINUOUS
10
-4.2186379133858267
20
5.6985203937007869
11
-4.2205537795275587
21
5.6998005511811023
0
LINE
8
BLACK
6
CONTINUOUS
10
-4.2205537795275587
20
5.6998005511811023
11
-4.2218339370078741
21
5.7017164173228343
0
LINE
8
BLACK
6
CONTINUOUS
10
-4.2218339370078741
20
5.7017164173228343
11
-4.2222834645669289
21
5.7039763779527561
0
LINE
8
BLACK
6
CONTINUOUS
10
-4.2222834645669289
20
5.7039763779527561
11
-4.2222834645669289
21
5.7157874015748034
0
LINE
8
BLACK
6
CONTINUOUS
10
-4.2222834645669289
20
5.7157874015748034
11
-4.2218339370078741
21
5.7180473622047243
0
LINE
8
BLACK
6
CONTINUOUS
10
-4.2218339370078741
20
5.7180473622047243
11
-4.2205537795275587
21
5.7199632283464563
0
LINE
8
BLACK
6
CONTINUOUS
10
-4.2205537795275587
20
5.7199632283464563
11
-4.2186379133858267
21
5.7212433858267717
0
LINE
8
BLACK
6
CONTINUOUS
10
-4.2186379133858267
20
5.7212433858267717
11
-4.2163779527559058
21
5.7216929133858265
0
LINE
8
BLACK
6
CONTINUOUS
10
-4.2163779527559058
20
5.7216929133858265
11
-4.1612598425196845
21
5.7216929133858265
0
LINE
8
BLACK
6
CONTINUOUS
10
-4.1612598425196845
20
5.7216929133858265
11
-4.1589998818897636
21
5.7212433858267717
0
LINE
8
BLACK
6
CONTINUOUS
10
-4.7771101181102358
20
5.770455984251968
11
-4.7751942519685038
21
5.7691758267716535
0
LINE
8
BLACK
6
CONTINUOUS
10
-4.7751942519685038
20
5.7691758267716535
11
-4.7739140944881893
21
5.7672599606299215
0
LINE
8
BLACK
6
CONTINUOUS
10
-4.7739140944881893
20
5.7672599606299215
11
-4.7734645669291336
21
5.7649999999999997
0
LINE
8
BLACK
6
CONTINUOUS
10
-4.7734645669291336
20
5.7649999999999997
11
-4.7734645669291336
21
5.7531889763779525
0
LINE
8
BLACK
6
CONTINUOUS
10
-4.7734645669291336
20
5.7531889763779525
11
-4.7739140944881893
21
5.7509290157480315
0
LINE
8
BLACK
6
CONTINUOUS
10
-4.7739140944881893
20
5.7509290157480315
11
-4.7751942519685038
21
5.7490131496062995
0
LINE
8
BLACK
6
CONTINUOUS
10
-4.7751942519685038
20
5.7490131496062995
11
-4.7771101181102358
21
5.7477329921259841
0
LINE
8
BLACK
6
CONTINUOUS
10
-4.7771101181102358
20
5.7477329921259841
11
-4.7793700787401576
21
5.7472834645669293
0
LINE
8
BLACK
6
CONTINUOUS
10
-4.7793700787401576
20
5.7472834645669293
11
-4.834488188976378
21
5.7472834645669293
0
LINE
8
BLACK
6
CONTINUOUS
10
-4.834488188976378
20
5.7472834645669293
11
-4.836748149606299
21
5.7477329921259841
0
LINE
8
BLACK
6
CONTINUOUS
10
-4.836748149606299
20
5.7477329921259841
11
-4.838664015748031
21
5.7490131496062995
0
LINE
8
BLACK
6
CONTINUOUS
10
-4.838664015748031
20
5.7490131496062995
11
-4.8399441732283464
21
5.7509290157480315
0
LINE
8
BLACK
6
CONTINUOUS
10
-4.8399441732283464
20
5.7509290157480315
11
-4.8403937007874012
21
5.7531889763779525
0
LINE
8
BLACK
6
CONTINUOUS
10
-4.8403937007874012
20
5.7531889763779525
11
-4.8403937007874012
21
5.7649999999999997
0
LINE
8
BLACK
6
CONTINUOUS
10
-4.8403937007874012
20
5.7649999999999997
11
-4.8399441732283464
21
5.7672599606299215
0
LINE
8
BLACK
6
CONTINUOUS
10
-4.8399441732283464
20
5.7672599606299215
11
-4.838664015748031
21
5.7691758267716535
0
LINE
8
BLACK
6
CONTINUOUS
10
-4.838664015748031
20
5.7691758267716535
11
-4.836748149606299
21
5.770455984251968
0
LINE
8
BLACK
6
CONTINUOUS
10
-4.836748149606299
20
5.770455984251968
11
-4.834488188976378
21
5.7709055118110237
0
LINE
8
BLACK
6
CONTINUOUS
10
-4.834488188976378
20
5.7709055118110237
11
-4.7793700787401576
21
5.7709055118110237
0
LINE
8
BLACK
6
CONTINUOUS
10
-4.7793700787401576
20
5.7709055118110237
11
-4.7771101181102358
21
5.770455984251968
0
LINE
8
BLACK
6
CONTINUOUS
10
-4.1589998818897636
20
5.770455984251968
11
-4.1570840157480315
21
5.7691758267716535
0
LINE
8
BLACK
6
CONTINUOUS
10
-4.1570840157480315
20
5.7691758267716535
11
-4.1558038582677161
21
5.7672599606299215
0
LINE
8
BLACK
6
CONTINUOUS
10
-4.1558038582677161
20
5.7672599606299215
11
-4.1553543307086613
21
5.7649999999999997
0
LINE
8
BLACK
6
CONTINUOUS
10
-4.1553543307086613
20
5.7649999999999997
11
-4.1553543307086613
21
5.7531889763779525
0
LINE
8
BLACK
6
CONTINUOUS
10
-4.1553543307086613
20
5.7531889763779525
11
-4.1558038582677161
21
5.7509290157480315
0
LINE
8
BLACK
6
CONTINUOUS
10
-4.1558038582677161
20
5.7509290157480315
11
-4.1570840157480315
21
5.7490131496062995
0
LINE
8
BLACK
6
CONTINUOUS
10
-4.1570840157480315
20
5.7490131496062995
11
-4.1589998818897636
21
5.7477329921259841
0
LINE
8
BLACK
6
CONTINUOUS
10
-4.1589998818897636
20
5.7477329921259841
11
-4.1612598425196845
21
5.7472834645669293
0
LINE
8
BLACK
6
CONTINUOUS
10
-4.1612598425196845
20
5.7472834645669293
11
-4.2163779527559058
21
5.7472834645669293
0
LINE
8
BLACK
6
CONTINUOUS
10
-4.2163779527559058
20
5.7472834645669293
11
-4.2186379133858267
21
5.7477329921259841
0
LINE
8
BLACK
6
CONTINUOUS
10
-4.2186379133858267
20
5.7477329921259841
11
-4.2205537795275587
21
5.7490131496062995
0
LINE
8
BLACK
6
CONTINUOUS
10
-4.2205537795275587
20
5.7490131496062995
11
-4.2218339370078741
21
5.7509290157480315
0
LINE
8
BLACK
6
CONTINUOUS
10
-4.2218339370078741
20
5.7509290157480315
11
-4.2222834645669289
21
5.7531889763779525
0
LINE
8
BLACK
6
CONTINUOUS
10
-4.2222834645669289
20
5.7531889763779525
11
-4.2222834645669289
21
5.7649999999999997
0
LINE
8
BLACK
6
CONTINUOUS
10
-4.2222834645669289
20
5.7649999999999997
11
-4.2218339370078741
21
5.7672599606299215
0
LINE
8
BLACK
6
CONTINUOUS
10
-4.2218339370078741
20
5.7672599606299215
11
-4.2205537795275587
21
5.7691758267716535
0
LINE
8
BLACK
6
CONTINUOUS
10
-4.2205537795275587
20
5.7691758267716535
11
-4.2186379133858267
21
5.770455984251968
0
LINE
8
BLACK
6
CONTINUOUS
10
-4.2186379133858267
20
5.770455984251968
11
-4.2163779527559058
21
5.7709055118110237
0
LINE
8
BLACK
6
CONTINUOUS
10
-4.2163779527559058
20
5.7709055118110237
11
-4.1612598425196845
21
5.7709055118110237
0
LINE
8
BLACK
6
CONTINUOUS
10
-4.1612598425196845
20
5.7709055118110237
11
-4.1589998818897636
21
5.770455984251968
0
LINE
8
BLACK
6
CONTINUOUS
10
-4.8858397244094487
20
5.850864960629921
11
-4.8826465748031493
21
5.8487313779527561
0
LINE
8
BLACK
6
CONTINUOUS
10
-4.8826465748031493
20
5.8487313779527561
11
-4.8805129921259844
21
5.8455382283464568
0
LINE
8
BLACK
6
CONTINUOUS
10
-4.8805129921259844
20
5.8455382283464568
11
-4.8797637795275586
21
5.8417716535433071
0
LINE
8
BLACK
6
CONTINUOUS
10
-4.8797637795275586
20
5.8417716535433071
11
-4.8797637795275586
21
5.8220866141732284
0
LINE
8
BLACK
6
CONTINUOUS
10
-4.8797637795275586
20
5.8220866141732284
11
-4.8805129921259844
21
5.8183200393700787
0
LINE
8
BLACK
6
CONTINUOUS
10
-4.8805129921259844
20
5.8183200393700787
11
-4.8826465748031493
21
5.8151268897637793
0
LINE
8
BLACK
6
CONTINUOUS
10
-4.8826465748031493
20
5.8151268897637793
11
-4.8858397244094487
21
5.8129933070866144
0
LINE
8
BLACK
6
CONTINUOUS
10
-4.8858397244094487
20
5.8129933070866144
11
-4.8896062992125984
21
5.8122440944881886
0
LINE
8
BLACK
6
CONTINUOUS
10
-4.8896062992125984
20
5.8122440944881886
11
-4.9762204724409447
21
5.8122440944881886
0
LINE
8
BLACK
6
CONTINUOUS
10
-4.9762204724409447
20
5.8122440944881886
11
-4.9799870472440944
21
5.8129933070866144
0
LINE
8
BLACK
6
CONTINUOUS
10
-4.9799870472440944
20
5.8129933070866144
11
-4.9831801968503937
21
5.8151268897637793
0
LINE
8
BLACK
6
CONTINUOUS
10
-4.9831801968503937
20
5.8151268897637793
11
-4.9853137795275586
21
5.8183200393700787
0
LINE
8
BLACK
6
CONTINUOUS
10
-4.9853137795275586
20
5.8183200393700787
11
-4.9860629921259845
21
5.8220866141732284
0
LINE
8
BLACK
6
CONTINUOUS
10
-4.9860629921259845
20
5.8220866141732284
11
-4.9860629921259845
21
5.8417716535433071
0
LINE
8
BLACK
6
CONTINUOUS
10
-4.9860629921259845
20
5.8417716535433071
11
-4.9853137795275586
21
5.8455382283464568
0
LINE
8
BLACK
6
CONTINUOUS
10
-4.9853137795275586
20
5.8455382283464568
11
-4.9831801968503937
21
5.8487313779527561
0
LINE
8
BLACK
6
CONTINUOUS
10
-4.9831801968503937
20
5.8487313779527561
11
-4.9799870472440944
21
5.850864960629921
0
LINE
8
BLACK
6
CONTINUOUS
10
-4.9799870472440944
20
5.850864960629921
11
-4.9762204724409447
21
5.851614173228346
0
LINE
8
BLACK
6
CONTINUOUS
10
-4.9762204724409447
20
5.851614173228346
11
-4.8896062992125984
21
5.851614173228346
0
LINE
8
BLACK
6
CONTINUOUS
10
-4.8896062992125984
20
5.851614173228346
11
-4.8858397244094487
21
5.850864960629921
0
LINE
8
BLACK
6
CONTINUOUS
10
-4.0157609842519681
20
5.850864960629921
11
-4.0125678346456688
21
5.8487313779527561
0
LINE
8
BLACK
6
CONTINUOUS
10
-4.0125678346456688
20
5.8487313779527561
11
-4.0104342519685039
21
5.8455382283464568
0
LINE
8
BLACK
6
CONTINUOUS
10
-4.0104342519685039
20
5.8455382283464568
11
-4.0096850393700789
21
5.8417716535433071
0
LINE
8
BLACK
6
CONTINUOUS
10
-4.0096850393700789
20
5.8417716535433071
11
-4.0096850393700789
21
5.8220866141732284
0
LINE
8
BLACK
6
CONTINUOUS
10
-4.0096850393700789
20
5.8220866141732284
11
-4.0104342519685039
21
5.8183200393700787
0
LINE
8
BLACK
6
CONTINUOUS
10
-4.0104342519685039
20
5.8183200393700787
11
-4.0125678346456688
21
5.8151268897637793
0
LINE
8
BLACK
6
CONTINUOUS
10
-4.0125678346456688
20
5.8151268897637793
11
-4.0157609842519681
21
5.8129933070866144
0
LINE
8
BLACK
6
CONTINUOUS
10
-4.0157609842519681
20
5.8129933070866144
11
-4.0195275590551178
21
5.8122440944881886
0
LINE
8
BLACK
6
CONTINUOUS
10
-4.0195275590551178
20
5.8122440944881886
11
-4.1061417322834641
21
5.8122440944881886
0
LINE
8
BLACK
6
CONTINUOUS
10
-4.1061417322834641
20
5.8122440944881886
11
-4.1099083070866138
21
5.8129933070866144
0
LINE
8
BLACK
6
CONTINUOUS
10
-4.1099083070866138
20
5.8129933070866144
11
-4.1131014566929132
21
5.8151268897637793
0
LINE
8
BLACK
6
CONTINUOUS
10
-4.1131014566929132
20
5.8151268897637793
11
-4.115235039370079
21
5.8183200393700787
0
LINE
8
BLACK
6
CONTINUOUS
10
-4.115235039370079
20
5.8183200393700787
11
-4.1159842519685039
21
5.8220866141732284
0
LINE
8
BLACK
6
CONTINUOUS
10
-4.1159842519685039
20
5.8220866141732284
11
-4.1159842519685039
21
5.8417716535433071
0
LINE
8
BLACK
6
CONTINUOUS
10
-4.1159842519685039
20
5.8417716535433071
11
-4.115235039370079
21
5.8455382283464568
0
LINE
8
BLACK
6
CONTINUOUS
10
-4.115235039370079
20
5.8455382283464568
11
-4.1131014566929132
21
5.8487313779527561
0
LINE
8
BLACK
6
CONTINUOUS
10
-4.1131014566929132
20
5.8487313779527561
11
-4.1099083070866138
21
5.850864960629921
0
LINE
8
BLACK
6
CONTINUOUS
10
-4.1099083070866138
20
5.850864960629921
11
-4.1061417322834641
21
5.851614173228346
0
LINE
8
BLACK
6
CONTINUOUS
10
-4.1061417322834641
20
5.851614173228346
11
-4.0195275590551178
21
5.851614173228346
0
LINE
8
BLACK
6
CONTINUOUS
10
-4.0195275590551178
20
5.851614173228346
11
-4.0157609842519681
21
5.850864960629921
  0
ENDSEC
  0
EOF
