  0
SECTION
  2
HEADER
  9
$ANGBASE
  50
0.0
  9
$ANGDIR
  70
1
  9
$MEASUREMENT
  70
0
  0
ENDSEC
  0
SECTION
  2
TABLES
  0
TABLE
  2
LTYPE
  70
4
  0
LTYPE
  5
40F
  2
CONTINUOUS
  70
0
  3
Solid line
  72
65
  73
0
  40
0.0
  0
LTYPE
  5
410
  2
DASHDOT
 70
0
  3
Dash Dot ____ _ ____ _
 72
65
 73
4
 40
2.0
 49
1.25
 49
-0.25
 49
0.25
 49
-0.25
  0
LTYPE
  5
411
  2
DASHED
 70
0
  3
Dashed __ __ __ __ __
 72
65
 73
2
 40
0.75
 49
0.5
 49
-0.25
  0
LTYPE
  5
43B
  2
DOTTED
 70
0
  3
Dotted .  .  .  .
 72
65
 73
2
 40
0.2
 49
0.0
 49
-0.2
  0
ENDTAB
  0
TABLE
  2
STYLE
  70
4
  0
STYLE
  2
KICAD
  70
0
  40
0
  41
1
  42
1
  50
0
  71
0
  3
isocp.shx
  0
STYLE
  2
KICADB
  70
0
  40
0
  41
1
  42
1
  50
0
  71
0
  3
isocp.shx
  0
STYLE
  2
KICADI
  70
0
  40
0
  41
1
  42
1
  50
15
  71
0
  3
isocp.shx
  0
STYLE
  2
KICADBI
  70
0
  40
0
  41
1
  42
1
  50
15
  71
0
  3
isocp.shx
  0
ENDTAB
  0
TABLE
  2
LAYER
  70
1
  0
LAYER
  2
BLACK
  70
0
  62
7
  6
CONTINUOUS
  0
ENDTAB
  0
ENDSEC
  0
SECTION
  2
ENTITIES
0
LINE
8
BLACK
6
CONTINUOUS
10
-4.4751335826771657
20
5.8549772834645664
11
-4.4707435433070861
21
5.8527404330708661
0
LINE
8
BLACK
6
CONTINUOUS
10
-4.4707435433070861
20
5.8527404330708661
11
-4.4672595669291342
21
5.8492564566929133
0
LINE
8
BLACK
6
CONTINUOUS
10
-4.4672595669291342
20
5.8492564566929133
11
-4.4664827165354328
21
5.8477317322834645
0
LINE
8
BLACK
6
CONTINUOUS
10
-4.4664827165354328
20
5.8477317322834645
11
-4.2299999999999995
21
5.8478740157480313
0
LINE
8
BLACK
6
CONTINUOUS
10
-4.2299999999999995
20
5.8478740157480313
11
-4.2284638582677161
21
5.8477227165354329
0
LINE
8
BLACK
6
CONTINUOUS
10
-4.2284638582677161
20
5.8477227165354329
11
-4.2256254330708662
21
5.8465470078740154
0
LINE
8
BLACK
6
CONTINUOUS
10
-4.2256254330708662
20
5.8465470078740154
11
-4.1940248818897636
21
5.8151105511811023
0
LINE
8
BLACK
6
CONTINUOUS
10
-4.1940248818897636
20
5.8151105511811023
11
-4.1899999999999995
21
5.8157480314960628
0
LINE
8
BLACK
6
CONTINUOUS
10
-4.1899999999999995
20
5.8157480314960628
11
-4.1851335826771656
21
5.8149772834645672
0
LINE
8
BLACK
6
CONTINUOUS
10
-4.1851335826771656
20
5.8149772834645672
11
-4.1807435433070861
21
5.8127404330708661
0
LINE
8
BLACK
6
CONTINUOUS
10
-4.1807435433070861
20
5.8127404330708661
11
-4.1772595669291341
21
5.8092564566929132
0
LINE
8
BLACK
6
CONTINUOUS
10
-4.1772595669291341
20
5.8092564566929132
11
-4.1764965748031493
21
5.8077589370078737
0
LINE
8
BLACK
6
CONTINUOUS
10
-4.1764965748031493
20
5.8077589370078737
11
-4.1287401574803146
21
5.8078740157480313
0
LINE
8
BLACK
6
CONTINUOUS
10
-4.1287401574803146
20
5.8078740157480313
11
-4.1272040157480312
21
5.8077227165354328
0
LINE
8
BLACK
6
CONTINUOUS
10
-4.1272040157480312
20
5.8077227165354328
11
-4.1243655905511813
21
5.8065470078740153
0
LINE
8
BLACK
6
CONTINUOUS
10
-4.1243655905511813
20
5.8065470078740153
11
-4.0744322440944885
21
5.7568276377952756
0
LINE
8
BLACK
6
CONTINUOUS
10
-4.0744322440944885
20
5.7568276377952756
11
-4.0734529921259846
21
5.7556344094488185
0
LINE
8
BLACK
6
CONTINUOUS
10
-4.0734529921259846
20
5.7556344094488185
11
-4.0722772834645671
21
5.7527959842519687
0
LINE
8
BLACK
6
CONTINUOUS
10
-4.0722772834645671
20
5.7527959842519687
11
-4.0721259842519686
21
5.6399999999999997
0
LINE
8
BLACK
6
CONTINUOUS
10
-4.0721259842519686
20
5.6399999999999997
11
-4.0722772834645671
21
5.6384638582677162
0
LINE
8
BLACK
6
CONTINUOUS
10
-4.0722772834645671
20
5.6384638582677162
11
-4.0734529921259846
21
5.6356254330708664
0
LINE
8
BLACK
6
CONTINUOUS
10
-4.0734529921259846
20
5.6356254330708664
11
-4.1029755511811024
21
5.6058889370078742
0
LINE
8
BLACK
6
CONTINUOUS
10
-4.1029755511811024
20
5.6058889370078742
11
-4.1041687401574798
21
5.6049096850393703
0
LINE
8
BLACK
6
CONTINUOUS
10
-4.1041687401574798
20
5.6049096850393703
11
-4.1070071653543305
21
5.6037339763779528
0
LINE
8
BLACK
6
CONTINUOUS
10
-4.1070071653543305
20
5.6037339763779528
11
-4.1557337401574799
21
5.6036438582677164
0
LINE
8
BLACK
6
CONTINUOUS
10
-4.1557337401574799
20
5.6036438582677164
11
-4.1558038582677161
21
5.6032912204724408
0
LINE
8
BLACK
6
CONTINUOUS
10
-4.1558038582677161
20
5.6032912204724408
11
-4.1570840157480315
21
5.6013753543307088
0
LINE
8
BLACK
6
CONTINUOUS
10
-4.1570840157480315
20
5.6013753543307088
11
-4.1589998818897636
21
5.6000951968503934
0
LINE
8
BLACK
6
CONTINUOUS
10
-4.1589998818897636
20
5.6000951968503934
11
-4.1612598425196845
21
5.5996456692913386
0
LINE
8
BLACK
6
CONTINUOUS
10
-4.1612598425196845
20
5.5996456692913386
11
-4.2163779527559058
21
5.5996456692913386
0
LINE
8
BLACK
6
CONTINUOUS
10
-4.2163779527559058
20
5.5996456692913386
11
-4.2186379133858267
21
5.6000951968503934
0
LINE
8
BLACK
6
CONTINUOUS
10
-4.2186379133858267
20
5.6000951968503934
11
-4.2205537795275587
21
5.6013753543307088
0
LINE
8
BLACK
6
CONTINUOUS
10
-4.2205537795275587
20
5.6013753543307088
11
-4.2218339370078741
21
5.6032912204724408
0
LINE
8
BLACK
6
CONTINUOUS
10
-4.2218339370078741
20
5.6032912204724408
11
-4.2222834645669289
21
5.6055511811023617
0
LINE
8
BLACK
6
CONTINUOUS
10
-4.2222834645669289
20
5.6055511811023617
11
-4.2222834645669289
21
5.6173622047244089
0
LINE
8
BLACK
6
CONTINUOUS
10
-4.2222834645669289
20
5.6173622047244089
11
-4.2218339370078741
21
5.6196221653543308
0
LINE
8
BLACK
6
CONTINUOUS
10
-4.2218339370078741
20
5.6196221653543308
11
-4.2205537795275587
21
5.6215380314960628
0
LINE
8
BLACK
6
CONTINUOUS
10
-4.2205537795275587
20
5.6215380314960628
11
-4.2186379133858267
21
5.6228181889763782
0
LINE
8
BLACK
6
CONTINUOUS
10
-4.2186379133858267
20
5.6228181889763782
11
-4.2163779527559058
21
5.623267716535433
0
LINE
8
BLACK
6
CONTINUOUS
10
-4.2163779527559058
20
5.623267716535433
11
-4.1612598425196845
21
5.623267716535433
0
LINE
8
BLACK
6
CONTINUOUS
10
-4.1612598425196845
20
5.623267716535433
11
-4.1589998818897636
21
5.6228181889763782
0
LINE
8
BLACK
6
CONTINUOUS
10
-4.1589998818897636
20
5.6228181889763782
11
-4.1570840157480315
21
5.6215380314960628
0
LINE
8
BLACK
6
CONTINUOUS
10
-4.1570840157480315
20
5.6215380314960628
11
-4.1558038582677161
21
5.6196221653543308
0
LINE
8
BLACK
6
CONTINUOUS
10
-4.1558038582677161
20
5.6196221653543308
11
-4.1557285433070863
21
5.6192434251968502
0
LINE
8
BLACK
6
CONTINUOUS
10
-4.1557285433070863
20
5.6192434251968502
11
-4.1116217322834645
21
5.6193249999999999
0
LINE
8
BLACK
6
CONTINUOUS
10
-4.1116217322834645
20
5.6193249999999999
11
-4.0877293307086617
21
5.6433905118110239
0
LINE
8
BLACK
6
CONTINUOUS
10
-4.0877293307086617
20
5.6433905118110239
11
-4.0878699212598422
21
5.7481931889763782
0
LINE
8
BLACK
6
CONTINUOUS
10
-4.0878699212598422
20
5.7481931889763782
11
-4.1321317716535431
21
5.7922653937007871
0
LINE
8
BLACK
6
CONTINUOUS
10
-4.1321317716535431
20
5.7922653937007871
11
-4.1765386614173226
21
5.7921583858267711
0
LINE
8
BLACK
6
CONTINUOUS
10
-4.1765386614173226
20
5.7921583858267711
11
-4.1772595669291341
21
5.7907435433070864
0
LINE
8
BLACK
6
CONTINUOUS
10
-4.1772595669291341
20
5.7907435433070864
11
-4.1807435433070861
21
5.7872595669291336
0
LINE
8
BLACK
6
CONTINUOUS
10
-4.1807435433070861
20
5.7872595669291336
11
-4.1851335826771656
21
5.7850227165354333
0
LINE
8
BLACK
6
CONTINUOUS
10
-4.1851335826771656
20
5.7850227165354333
11
-4.1899999999999995
21
5.7842519685039369
0
LINE
8
BLACK
6
CONTINUOUS
10
-4.1899999999999995
20
5.7842519685039369
11
-4.1948664173228343
21
5.7850227165354333
0
LINE
8
BLACK
6
CONTINUOUS
10
-4.1948664173228343
20
5.7850227165354333
11
-4.1992564566929129
21
5.7872595669291336
0
LINE
8
BLACK
6
CONTINUOUS
10
-4.1992564566929129
20
5.7872595669291336
11
-4.2027404330708658
21
5.7907435433070864
0
LINE
8
BLACK
6
CONTINUOUS
10
-4.2027404330708658
20
5.7907435433070864
11
-4.2049772834645669
21
5.7951335826771651
0
LINE
8
BLACK
6
CONTINUOUS
10
-4.2049772834645669
20
5.7951335826771651
11
-4.2057480314960625
21
5.7999999999999998
0
LINE
8
BLACK
6
CONTINUOUS
10
-4.2057480314960625
20
5.7999999999999998
11
-4.2050957480314963
21
5.8041184645669288
0
LINE
8
BLACK
6
CONTINUOUS
10
-4.2050957480314963
20
5.8041184645669288
11
-4.2333985826771654
21
5.8322742913385826
0
LINE
8
BLACK
6
CONTINUOUS
10
-4.2333985826771654
20
5.8322742913385826
11
-4.4665510629921261
21
5.83213405511811
0
LINE
8
BLACK
6
CONTINUOUS
10
-4.4665510629921261
20
5.83213405511811
11
-4.4672595669291342
21
5.8307435433070864
0
LINE
8
BLACK
6
CONTINUOUS
10
-4.4672595669291342
20
5.8307435433070864
11
-4.4707435433070861
21
5.8272595669291336
0
LINE
8
BLACK
6
CONTINUOUS
10
-4.4707435433070861
20
5.8272595669291336
11
-4.4751335826771657
21
5.8250227165354334
0
LINE
8
BLACK
6
CONTINUOUS
10
-4.4751335826771657
20
5.8250227165354334
11
-4.4799999999999995
21
5.8242519685039369
0
LINE
8
BLACK
6
CONTINUOUS
10
-4.4799999999999995
20
5.8242519685039369
11
-4.4848664173228343
21
5.8250227165354334
0
LINE
8
BLACK
6
CONTINUOUS
10
-4.4848664173228343
20
5.8250227165354334
11
-4.489256456692913
21
5.8272595669291336
0
LINE
8
BLACK
6
CONTINUOUS
10
-4.489256456692913
20
5.8272595669291336
11
-4.4927404330708658
21
5.8307435433070864
0
LINE
8
BLACK
6
CONTINUOUS
10
-4.4927404330708658
20
5.8307435433070864
11
-4.4935047244094486
21
5.832243464566929
0
LINE
8
BLACK
6
CONTINUOUS
10
-4.4935047244094486
20
5.832243464566929
11
-4.5427631496062988
21
5.8321328346456696
0
LINE
8
BLACK
6
CONTINUOUS
10
-4.5427631496062988
20
5.8321328346456696
11
-4.6202590157480312
21
5.7544322440944882
0
LINE
8
BLACK
6
CONTINUOUS
10
-4.6202590157480312
20
5.7544322440944882
11
-4.6214522047244095
21
5.7534529921259843
0
LINE
8
BLACK
6
CONTINUOUS
10
-4.6214522047244095
20
5.7534529921259843
11
-4.6242906299212594
21
5.7522772834645668
0
LINE
8
BLACK
6
CONTINUOUS
10
-4.6242906299212594
20
5.7522772834645668
11
-4.7215458267716537
21
5.7521443700787405
0
LINE
8
BLACK
6
CONTINUOUS
10
-4.7215458267716537
20
5.7521443700787405
11
-4.7222595669291341
21
5.7507435433070864
0
LINE
8
BLACK
6
CONTINUOUS
10
-4.7222595669291341
20
5.7507435433070864
11
-4.7257435433070869
21
5.7472595669291335
0
LINE
8
BLACK
6
CONTINUOUS
10
-4.7257435433070869
20
5.7472595669291335
11
-4.7301335826771655
21
5.7450227165354333
0
LINE
8
BLACK
6
CONTINUOUS
10
-4.7301335826771655
20
5.7450227165354333
11
-4.7350000000000003
21
5.7442519685039368
0
LINE
8
BLACK
6
CONTINUOUS
10
-4.7350000000000003
20
5.7442519685039368
11
-4.7398664173228342
21
5.7450227165354333
0
LINE
8
BLACK
6
CONTINUOUS
10
-4.7398664173228342
20
5.7450227165354333
11
-4.7442564566929128
21
5.7472595669291335
0
LINE
8
BLACK
6
CONTINUOUS
10
-4.7442564566929128
20
5.7472595669291335
11
-4.7477404330708657
21
5.7507435433070864
0
LINE
8
BLACK
6
CONTINUOUS
10
-4.7477404330708657
20
5.7507435433070864
11
-4.7485059448818898
21
5.7522459055118107
0
LINE
8
BLACK
6
CONTINUOUS
10
-4.7485059448818898
20
5.7522459055118107
11
-4.7736625984251964
21
5.7521934251968503
0
LINE
8
BLACK
6
CONTINUOUS
10
-4.7736625984251964
20
5.7521934251968503
11
-4.7739140944881893
21
5.7509290157480315
0
LINE
8
BLACK
6
CONTINUOUS
10
-4.7739140944881893
20
5.7509290157480315
11
-4.7751942519685038
21
5.7490131496062995
0
LINE
8
BLACK
6
CONTINUOUS
10
-4.7751942519685038
20
5.7490131496062995
11
-4.7771101181102358
21
5.7477329921259841
0
LINE
8
BLACK
6
CONTINUOUS
10
-4.7771101181102358
20
5.7477329921259841
11
-4.7793700787401576
21
5.7472834645669293
0
LINE
8
BLACK
6
CONTINUOUS
10
-4.7793700787401576
20
5.7472834645669293
11
-4.834488188976378
21
5.7472834645669293
0
LINE
8
BLACK
6
CONTINUOUS
10
-4.834488188976378
20
5.7472834645669293
11
-4.836748149606299
21
5.7477329921259841
0
LINE
8
BLACK
6
CONTINUOUS
10
-4.836748149606299
20
5.7477329921259841
11
-4.838664015748031
21
5.7490131496062995
0
LINE
8
BLACK
6
CONTINUOUS
10
-4.838664015748031
20
5.7490131496062995
11
-4.8399441732283464
21
5.7509290157480315
0
LINE
8
BLACK
6
CONTINUOUS
10
-4.8399441732283464
20
5.7509290157480315
11
-4.8400148031496064
21
5.7512839370078739
0
LINE
8
BLACK
6
CONTINUOUS
10
-4.8400148031496064
20
5.7512839370078739
11
-4.8619678740157477
21
5.7512282283464566
0
LINE
8
BLACK
6
CONTINUOUS
10
-4.8619678740157477
20
5.7512282283464566
11
-4.9022674409448816
21
5.7107409842519683
0
LINE
8
BLACK
6
CONTINUOUS
10
-4.9022674409448816
20
5.7107409842519683
11
-4.9021321653543302
21
5.6430822440944883
0
LINE
8
BLACK
6
CONTINUOUS
10
-4.9021321653543302
20
5.6430822440944883
11
-4.8816396062992125
21
5.6227570866141727
0
LINE
8
BLACK
6
CONTINUOUS
10
-4.8816396062992125
20
5.6227570866141727
11
-4.8784931496062995
21
5.6227792125984255
0
LINE
8
BLACK
6
CONTINUOUS
10
-4.8784931496062995
20
5.6227792125984255
11
-4.8777404330708665
21
5.6242564566929136
0
LINE
8
BLACK
6
CONTINUOUS
10
-4.8777404330708665
20
5.6242564566929136
11
-4.8742564566929136
21
5.6277404330708656
0
LINE
8
BLACK
6
CONTINUOUS
10
-4.8742564566929136
20
5.6277404330708656
11
-4.8698664173228341
21
5.6299772834645667
0
LINE
8
BLACK
6
CONTINUOUS
10
-4.8698664173228341
20
5.6299772834645667
11
-4.8650000000000002
21
5.6307480314960632
0
LINE
8
BLACK
6
CONTINUOUS
10
-4.8650000000000002
20
5.6307480314960632
11
-4.8601335826771654
21
5.6299772834645667
0
LINE
8
BLACK
6
CONTINUOUS
10
-4.8601335826771654
20
5.6299772834645667
11
-4.8557435433070868
21
5.6277404330708656
0
LINE
8
BLACK
6
CONTINUOUS
10
-4.8557435433070868
20
5.6277404330708656
11
-4.852259566929134
21
5.6242564566929136
0
LINE
8
BLACK
6
CONTINUOUS
10
-4.852259566929134
20
5.6242564566929136
11
-4.8500227165354328
21
5.6198664173228341
0
LINE
8
BLACK
6
CONTINUOUS
10
-4.8500227165354328
20
5.6198664173228341
11
-4.8492519685039372
21
5.6150000000000002
0
LINE
8
BLACK
6
CONTINUOUS
10
-4.8492519685039372
20
5.6150000000000002
11
-4.8500227165354328
21
5.6101335826771654
0
LINE
8
BLACK
6
CONTINUOUS
10
-4.8500227165354328
20
5.6101335826771654
11
-4.852259566929134
21
5.6057435433070868
0
LINE
8
BLACK
6
CONTINUOUS
10
-4.852259566929134
20
5.6057435433070868
11
-4.8557435433070868
21
5.602259566929134
0
LINE
8
BLACK
6
CONTINUOUS
10
-4.8557435433070868
20
5.602259566929134
11
-4.8601335826771654
21
5.6000227165354328
0
LINE
8
BLACK
6
CONTINUOUS
10
-4.8601335826771654
20
5.6000227165354328
11
-4.8650000000000002
21
5.5992519685039372
0
LINE
8
BLACK
6
CONTINUOUS
10
-4.8650000000000002
20
5.5992519685039372
11
-4.8698664173228341
21
5.6000227165354328
0
LINE
8
BLACK
6
CONTINUOUS
10
-4.8698664173228341
20
5.6000227165354328
11
-4.8742564566929136
21
5.602259566929134
0
LINE
8
BLACK
6
CONTINUOUS
10
-4.8742564566929136
20
5.602259566929134
11
-4.8777404330708665
21
5.6057435433070868
0
LINE
8
BLACK
6
CONTINUOUS
10
-4.8777404330708665
20
5.6057435433070868
11
-4.8784682283464562
21
5.6071718503937005
0
LINE
8
BLACK
6
CONTINUOUS
10
-4.8784682283464562
20
5.6071718503937005
11
-4.8849999999999998
21
5.6071259842519687
0
LINE
8
BLACK
6
CONTINUOUS
10
-4.8849999999999998
20
5.6071259842519687
11
-4.8865361417322832
21
5.6072772834645672
0
LINE
8
BLACK
6
CONTINUOUS
10
-4.8865361417322832
20
5.6072772834645672
11
-4.889374566929134
21
5.6084529921259838
0
LINE
8
BLACK
6
CONTINUOUS
10
-4.889374566929134
20
5.6084529921259838
11
-4.9155677559055118
21
5.6344322440944881
0
LINE
8
BLACK
6
CONTINUOUS
10
-4.9155677559055118
20
5.6344322440944881
11
-4.9165470078740157
21
5.6356254330708664
0
LINE
8
BLACK
6
CONTINUOUS
10
-4.9165470078740157
20
5.6356254330708664
11
-4.9177227165354331
21
5.6384638582677162
0
LINE
8
BLACK
6
CONTINUOUS
10
-4.9177227165354331
20
5.6384638582677162
11
-4.9178740157480316
21
5.7141338582677168
0
LINE
8
BLACK
6
CONTINUOUS
10
-4.9178740157480316
20
5.7141338582677168
11
-4.9177227165354331
21
5.7156700000000003
0
LINE
8
BLACK
6
CONTINUOUS
10
-4.9177227165354331
20
5.7156700000000003
11
-4.9165470078740157
21
5.7185084251968501
0
LINE
8
BLACK
6
CONTINUOUS
10
-4.9165470078740157
20
5.7185084251968501
11
-4.8706071259842521
21
5.7646622440944881
0
LINE
8
BLACK
6
CONTINUOUS
10
-4.8706071259842521
20
5.7646622440944881
11
-4.8694139370078737
21
5.765641496062992
0
LINE
8
BLACK
6
CONTINUOUS
10
-4.8694139370078737
20
5.765641496062992
11
-4.8665755118110239
21
5.7668172047244095
0
LINE
8
BLACK
6
CONTINUOUS
10
-4.8665755118110239
20
5.7668172047244095
11
-4.8400188582677162
21
5.766884566929134
0
LINE
8
BLACK
6
CONTINUOUS
10
-4.8400188582677162
20
5.766884566929134
11
-4.8399441732283464
21
5.7672599606299215
0
LINE
8
BLACK
6
CONTINUOUS
10
-4.8399441732283464
20
5.7672599606299215
11
-4.838664015748031
21
5.7691758267716535
0
LINE
8
BLACK
6
CONTINUOUS
10
-4.838664015748031
20
5.7691758267716535
11
-4.836748149606299
21
5.770455984251968
0
LINE
8
BLACK
6
CONTINUOUS
10
-4.836748149606299
20
5.770455984251968
11
-4.834488188976378
21
5.7709055118110237
0
LINE
8
BLACK
6
CONTINUOUS
10
-4.834488188976378
20
5.7709055118110237
11
-4.7793700787401576
21
5.7709055118110237
0
LINE
8
BLACK
6
CONTINUOUS
10
-4.7793700787401576
20
5.7709055118110237
11
-4.7771101181102358
21
5.770455984251968
0
LINE
8
BLACK
6
CONTINUOUS
10
-4.7771101181102358
20
5.770455984251968
11
-4.7751942519685038
21
5.7691758267716535
0
LINE
8
BLACK
6
CONTINUOUS
10
-4.7751942519685038
20
5.7691758267716535
11
-4.7742696850393695
21
5.7677921259842515
0
LINE
8
BLACK
6
CONTINUOUS
10
-4.7742696850393695
20
5.7677921259842515
11
-4.748459133858268
21
5.7678459448818895
0
LINE
8
BLACK
6
CONTINUOUS
10
-4.748459133858268
20
5.7678459448818895
11
-4.7477404330708657
21
5.7692564566929132
0
LINE
8
BLACK
6
CONTINUOUS
10
-4.7477404330708657
20
5.7692564566929132
11
-4.7442564566929128
21
5.772740433070866
0
LINE
8
BLACK
6
CONTINUOUS
10
-4.7442564566929128
20
5.772740433070866
11
-4.7398664173228342
21
5.7749772834645672
0
LINE
8
BLACK
6
CONTINUOUS
10
-4.7398664173228342
20
5.7749772834645672
11
-4.7350000000000003
21
5.7757480314960628
0
LINE
8
BLACK
6
CONTINUOUS
10
-4.7350000000000003
20
5.7757480314960628
11
-4.7301335826771655
21
5.7749772834645672
0
LINE
8
BLACK
6
CONTINUOUS
10
-4.7301335826771655
20
5.7749772834645672
11
-4.7257435433070869
21
5.772740433070866
0
LINE
8
BLACK
6
CONTINUOUS
10
-4.7257435433070869
20
5.772740433070866
11
-4.7222595669291341
21
5.7692564566929132
0
LINE
8
BLACK
6
CONTINUOUS
10
-4.7222595669291341
20
5.7692564566929132
11
-4.7214885826771651
21
5.7677432677165354
0
LINE
8
BLACK
6
CONTINUOUS
10
-4.7214885826771651
20
5.7677432677165354
11
-4.6288877559055113
21
5.7678698031496065
0
LINE
8
BLACK
6
CONTINUOUS
10
-4.6288877559055113
20
5.7678698031496065
11
-4.5513945275590553
21
5.8455677559055115
0
LINE
8
BLACK
6
CONTINUOUS
10
-4.5513945275590553
20
5.8455677559055115
11
-4.5502013385826769
21
5.8465470078740154
0
LINE
8
BLACK
6
CONTINUOUS
10
-4.5502013385826769
20
5.8465470078740154
11
-4.5473629133858271
21
5.8477227165354329
0
LINE
8
BLACK
6
CONTINUOUS
10
-4.5473629133858271
20
5.8477227165354329
11
-4.4934602362204723
21
5.8478437795275591
0
LINE
8
BLACK
6
CONTINUOUS
10
-4.4934602362204723
20
5.8478437795275591
11
-4.4927404330708658
21
5.8492564566929133
0
LINE
8
BLACK
6
CONTINUOUS
10
-4.4927404330708658
20
5.8492564566929133
11
-4.489256456692913
21
5.8527404330708661
0
LINE
8
BLACK
6
CONTINUOUS
10
-4.489256456692913
20
5.8527404330708661
11
-4.4848664173228343
21
5.8549772834645664
0
LINE
8
BLACK
6
CONTINUOUS
10
-4.4848664173228343
20
5.8549772834645664
11
-4.4799999999999995
21
5.8557480314960628
0
LINE
8
BLACK
6
CONTINUOUS
10
-4.4799999999999995
20
5.8557480314960628
11
-4.4751335826771657
21
5.8549772834645664
0
LINE
8
BLACK
6
CONTINUOUS
10
-4.4650329133858264
20
5.6753622440944884
11
-4.4606428740157478
21
5.6731253937007873
0
LINE
8
BLACK
6
CONTINUOUS
10
-4.4606428740157478
20
5.6731253937007873
11
-4.4571588976377949
21
5.6696414173228344
0
LINE
8
BLACK
6
CONTINUOUS
10
-4.4571588976377949
20
5.6696414173228344
11
-4.4549220472440947
21
5.6652513779527558
0
LINE
8
BLACK
6
CONTINUOUS
10
-4.4549220472440947
20
5.6652513779527558
11
-4.4541512992125982
21
5.660384960629921
0
LINE
8
BLACK
6
CONTINUOUS
10
-4.4541512992125982
20
5.660384960629921
11
-4.4549220472440947
21
5.6555185433070863
0
LINE
8
BLACK
6
CONTINUOUS
10
-4.4549220472440947
20
5.6555185433070863
11
-4.4571588976377949
21
5.6511285039370076
0
LINE
8
BLACK
6
CONTINUOUS
10
-4.4571588976377949
20
5.6511285039370076
11
-4.4606428740157478
21
5.6476445275590548
0
LINE
8
BLACK
6
CONTINUOUS
10
-4.4606428740157478
20
5.6476445275590548
11
-4.4650329133858264
21
5.6454076771653545
0
LINE
8
BLACK
6
CONTINUOUS
10
-4.4650329133858264
20
5.6454076771653545
11
-4.4698993307086612
21
5.6446369291338581
0
LINE
8
BLACK
6
CONTINUOUS
10
-4.4698993307086612
20
5.6446369291338581
11
-4.474765748031496
21
5.6454076771653545
0
LINE
8
BLACK
6
CONTINUOUS
10
-4.474765748031496
20
5.6454076771653545
11
-4.4791557874015746
21
5.6476445275590548
0
LINE
8
BLACK
6
CONTINUOUS
10
-4.4791557874015746
20
5.6476445275590548
11
-4.4826397637795274
21
5.6511285039370076
0
LINE
8
BLACK
6
CONTINUOUS
10
-4.4826397637795274
20
5.6511285039370076
11
-4.4835627559055116
21
5.6529398818897638
0
LINE
8
BLACK
6
CONTINUOUS
10
-4.4835627559055116
20
5.6529398818897638
11
-4.7738531889763776
21
5.6528100393700784
0
LINE
8
BLACK
6
CONTINUOUS
10
-4.7738531889763776
20
5.6528100393700784
11
-4.7739140944881893
21
5.652503818897638
0
LINE
8
BLACK
6
CONTINUOUS
10
-4.7739140944881893
20
5.652503818897638
11
-4.7751942519685038
21
5.6505879527559051
0
LINE
8
BLACK
6
CONTINUOUS
10
-4.7751942519685038
20
5.6505879527559051
11
-4.7771101181102358
21
5.6493077952755906
0
LINE
8
BLACK
6
CONTINUOUS
10
-4.7771101181102358
20
5.6493077952755906
11
-4.7793700787401576
21
5.6488582677165349
0
LINE
8
BLACK
6
CONTINUOUS
10
-4.7793700787401576
20
5.6488582677165349
11
-4.834488188976378
21
5.6488582677165349
0
LINE
8
BLACK
6
CONTINUOUS
10
-4.834488188976378
20
5.6488582677165349
11
-4.836748149606299
21
5.6493077952755906
0
LINE
8
BLACK
6
CONTINUOUS
10
-4.836748149606299
20
5.6493077952755906
11
-4.838664015748031
21
5.6505879527559051
0
LINE
8
BLACK
6
CONTINUOUS
10
-4.838664015748031
20
5.6505879527559051
11
-4.8397434251968505
21
5.6522033464566928
0
LINE
8
BLACK
6
CONTINUOUS
10
-4.8397434251968505
20
5.6522033464566928
11
-4.8615401574803148
21
5.6521555118110234
0
LINE
8
BLACK
6
CONTINUOUS
10
-4.8615401574803148
20
5.6521555118110234
11
-4.8622595669291337
21
5.6507435433070867
0
LINE
8
BLACK
6
CONTINUOUS
10
-4.8622595669291337
20
5.6507435433070867
11
-4.8657435433070866
21
5.6472595669291339
0
LINE
8
BLACK
6
CONTINUOUS
10
-4.8657435433070866
20
5.6472595669291339
11
-4.8701335826771652
21
5.6450227165354327
0
LINE
8
BLACK
6
CONTINUOUS
10
-4.8701335826771652
20
5.6450227165354327
11
-4.875
21
5.6442519685039372
0
LINE
8
BLACK
6
CONTINUOUS
10
-4.875
20
5.6442519685039372
11
-4.8798664173228348
21
5.6450227165354327
0
LINE
8
BLACK
6
CONTINUOUS
10
-4.8798664173228348
20
5.6450227165354327
11
-4.8842564566929134
21
5.6472595669291339
0
LINE
8
BLACK
6
CONTINUOUS
10
-4.8842564566929134
20
5.6472595669291339
11
-4.8877404330708663
21
5.6507435433070867
0
LINE
8
BLACK
6
CONTINUOUS
10
-4.8877404330708663
20
5.6507435433070867
11
-4.8899772834645665
21
5.6551335826771654
0
LINE
8
BLACK
6
CONTINUOUS
10
-4.8899772834645665
20
5.6551335826771654
11
-4.890748031496063
21
5.6600000000000001
0
LINE
8
BLACK
6
CONTINUOUS
10
-4.890748031496063
20
5.6600000000000001
11
-4.8899772834645665
21
5.6648664173228349
0
LINE
8
BLACK
6
CONTINUOUS
10
-4.8899772834645665
20
5.6648664173228349
11
-4.8877404330708663
21
5.6692564566929136
0
LINE
8
BLACK
6
CONTINUOUS
10
-4.8877404330708663
20
5.6692564566929136
11
-4.8842564566929134
21
5.6727404330708664
0
LINE
8
BLACK
6
CONTINUOUS
10
-4.8842564566929134
20
5.6727404330708664
11
-4.8798664173228348
21
5.6749772834645666
0
LINE
8
BLACK
6
CONTINUOUS
10
-4.8798664173228348
20
5.6749772834645666
11
-4.875
21
5.6757480314960631
0
LINE
8
BLACK
6
CONTINUOUS
10
-4.875
20
5.6757480314960631
11
-4.8701335826771652
21
5.6749772834645666
0
LINE
8
BLACK
6
CONTINUOUS
10
-4.8701335826771652
20
5.6749772834645666
11
-4.8657435433070866
21
5.6727404330708664
0
LINE
8
BLACK
6
CONTINUOUS
10
-4.8657435433070866
20
5.6727404330708664
11
-4.8622595669291337
21
5.6692564566929136
0
LINE
8
BLACK
6
CONTINUOUS
10
-4.8622595669291337
20
5.6692564566929136
11
-4.8614949212598422
21
5.6677557086614172
0
LINE
8
BLACK
6
CONTINUOUS
10
-4.8614949212598422
20
5.6677557086614172
11
-4.8401494881889766
21
5.6678025590551178
0
LINE
8
BLACK
6
CONTINUOUS
10
-4.8401494881889766
20
5.6678025590551178
11
-4.8399441732283464
21
5.6688347637795271
0
LINE
8
BLACK
6
CONTINUOUS
10
-4.8399441732283464
20
5.6688347637795271
11
-4.838664015748031
21
5.67075062992126
0
LINE
8
BLACK
6
CONTINUOUS
10
-4.838664015748031
20
5.67075062992126
11
-4.836748149606299
21
5.6720307874015745
0
LINE
8
BLACK
6
CONTINUOUS
10
-4.836748149606299
20
5.6720307874015745
11
-4.834488188976378
21
5.6724803149606302
0
LINE
8
BLACK
6
CONTINUOUS
10
-4.834488188976378
20
5.6724803149606302
11
-4.7793700787401576
21
5.6724803149606302
0
LINE
8
BLACK
6
CONTINUOUS
10
-4.7793700787401576
20
5.6724803149606302
11
-4.7771101181102358
21
5.6720307874015745
0
LINE
8
BLACK
6
CONTINUOUS
10
-4.7771101181102358
20
5.6720307874015745
11
-4.7751942519685038
21
5.67075062992126
0
LINE
8
BLACK
6
CONTINUOUS
10
-4.7751942519685038
20
5.67075062992126
11
-4.7739140944881893
21
5.6688347637795271
0
LINE
8
BLACK
6
CONTINUOUS
10
-4.7739140944881893
20
5.6688347637795271
11
-4.7738291338582677
21
5.6684074803149604
0
LINE
8
BLACK
6
CONTINUOUS
10
-4.7738291338582677
20
5.6684074803149604
11
-4.4832022834645668
21
5.6685374803149609
0
LINE
8
BLACK
6
CONTINUOUS
10
-4.4832022834645668
20
5.6685374803149609
11
-4.4826397637795274
21
5.6696414173228344
0
LINE
8
BLACK
6
CONTINUOUS
10
-4.4826397637795274
20
5.6696414173228344
11
-4.4791557874015746
21
5.6731253937007873
0
LINE
8
BLACK
6
CONTINUOUS
10
-4.4791557874015746
20
5.6731253937007873
11
-4.474765748031496
21
5.6753622440944884
0
LINE
8
BLACK
6
CONTINUOUS
10
-4.474765748031496
20
5.6753622440944884
11
-4.4698993307086612
21
5.676132992125984
0
LINE
8
BLACK
6
CONTINUOUS
10
-4.4698993307086612
20
5.676132992125984
11
-4.4650329133858264
21
5.6753622440944884
0
LINE
8
BLACK
6
CONTINUOUS
10
-4.7350154724409448
20
5.7248591732283467
11
-4.7306254330708661
21
5.7226223228346456
0
LINE
8
BLACK
6
CONTINUOUS
10
-4.7306254330708661
20
5.7226223228346456
11
-4.7271414566929133
21
5.7191383464566927
0
LINE
8
BLACK
6
CONTINUOUS
10
-4.7271414566929133
20
5.7191383464566927
11
-4.7249046062992122
21
5.7147483070866141
0
LINE
8
BLACK
6
CONTINUOUS
10
-4.7249046062992122
20
5.7147483070866141
11
-4.7241338582677166
21
5.7098818897637793
0
LINE
8
BLACK
6
CONTINUOUS
10
-4.7241338582677166
20
5.7098818897637793
11
-4.7247774409448819
21
5.7058184645669288
0
LINE
8
BLACK
6
CONTINUOUS
10
-4.7247774409448819
20
5.7058184645669288
11
-4.7184761023622048
21
5.6995872440944879
0
LINE
8
BLACK
6
CONTINUOUS
10
-4.7184761023622048
20
5.6995872440944879
11
-4.4568617716535428
21
5.6997357874015746
0
LINE
8
BLACK
6
CONTINUOUS
10
-4.4568617716535428
20
5.6997357874015746
11
-4.4553256299212594
21
5.6995844881889761
0
LINE
8
BLACK
6
CONTINUOUS
10
-4.4553256299212594
20
5.6995844881889761
11
-4.4524872047244095
21
5.6984087795275586
0
LINE
8
BLACK
6
CONTINUOUS
10
-4.4524872047244095
20
5.6984087795275586
11
-4.4290355118110236
21
5.6751088582677163
0
LINE
8
BLACK
6
CONTINUOUS
10
-4.4290355118110236
20
5.6751088582677163
11
-4.4249999999999998
21
5.6757480314960631
0
LINE
8
BLACK
6
CONTINUOUS
10
-4.4249999999999998
20
5.6757480314960631
11
-4.4201335826771651
21
5.6749772834645666
0
LINE
8
BLACK
6
CONTINUOUS
10
-4.4201335826771651
20
5.6749772834645666
11
-4.4157435433070864
21
5.6727404330708664
0
LINE
8
BLACK
6
CONTINUOUS
10
-4.4157435433070864
20
5.6727404330708664
11
-4.4122595669291336
21
5.6692564566929136
0
LINE
8
BLACK
6
CONTINUOUS
10
-4.4122595669291336
20
5.6692564566929136
11
-4.4100227165354333
21
5.6648664173228349
0
LINE
8
BLACK
6
CONTINUOUS
10
-4.4100227165354333
20
5.6648664173228349
11
-4.4092519685039369
21
5.6600000000000001
0
LINE
8
BLACK
6
CONTINUOUS
10
-4.4092519685039369
20
5.6600000000000001
11
-4.4100227165354333
21
5.6551335826771654
0
LINE
8
BLACK
6
CONTINUOUS
10
-4.4100227165354333
20
5.6551335826771654
11
-4.4122595669291336
21
5.6507435433070867
0
LINE
8
BLACK
6
CONTINUOUS
10
-4.4122595669291336
20
5.6507435433070867
11
-4.4157435433070864
21
5.6472595669291339
0
LINE
8
BLACK
6
CONTINUOUS
10
-4.4157435433070864
20
5.6472595669291339
11
-4.4201335826771651
21
5.6450227165354327
0
LINE
8
BLACK
6
CONTINUOUS
10
-4.4201335826771651
20
5.6450227165354327
11
-4.4249999999999998
21
5.6442519685039372
0
LINE
8
BLACK
6
CONTINUOUS
10
-4.4249999999999998
20
5.6442519685039372
11
-4.4298664173228346
21
5.6450227165354327
0
LINE
8
BLACK
6
CONTINUOUS
10
-4.4298664173228346
20
5.6450227165354327
11
-4.4342564566929132
21
5.6472595669291339
0
LINE
8
BLACK
6
CONTINUOUS
10
-4.4342564566929132
20
5.6472595669291339
11
-4.4377404330708661
21
5.6507435433070867
0
LINE
8
BLACK
6
CONTINUOUS
10
-4.4377404330708661
20
5.6507435433070867
11
-4.4399772834645672
21
5.6551335826771654
0
LINE
8
BLACK
6
CONTINUOUS
10
-4.4399772834645672
20
5.6551335826771654
11
-4.4407480314960628
21
5.6600000000000001
0
LINE
8
BLACK
6
CONTINUOUS
10
-4.4407480314960628
20
5.6600000000000001
11
-4.4400976377952759
21
5.6641066535433069
0
LINE
8
BLACK
6
CONTINUOUS
10
-4.4400976377952759
20
5.6641066535433069
11
-4.4602577165354331
21
5.6841362204724408
0
LINE
8
BLACK
6
CONTINUOUS
10
-4.4602577165354331
20
5.6841362204724408
11
-4.7218617716535434
21
5.6839877559055116
0
LINE
8
BLACK
6
CONTINUOUS
10
-4.7218617716535434
20
5.6839877559055116
11
-4.7233979133858268
21
5.6841390551181101
0
LINE
8
BLACK
6
CONTINUOUS
10
-4.7233979133858268
20
5.6841390551181101
11
-4.7262363385826767
21
5.6853147637795276
0
LINE
8
BLACK
6
CONTINUOUS
10
-4.7262363385826767
20
5.6853147637795276
11
-4.7358073622047243
21
5.6947791732283459
0
LINE
8
BLACK
6
CONTINUOUS
10
-4.7358073622047243
20
5.6947791732283459
11
-4.7398818897637796
21
5.6941338582677163
0
LINE
8
BLACK
6
CONTINUOUS
10
-4.7398818897637796
20
5.6941338582677163
11
-4.7447483070866143
21
5.6949046062992128
0
LINE
8
BLACK
6
CONTINUOUS
10
-4.7447483070866143
20
5.6949046062992128
11
-4.749138346456693
21
5.6971414566929131
0
LINE
8
BLACK
6
CONTINUOUS
10
-4.749138346456693
20
5.6971414566929131
11
-4.7526223228346458
21
5.7006254330708659
0
LINE
8
BLACK
6
CONTINUOUS
10
-4.7526223228346458
20
5.7006254330708659
11
-4.7533869291338577
21
5.7021259842519685
0
LINE
8
BLACK
6
CONTINUOUS
10
-4.7533869291338577
20
5.7021259842519685
11
-4.7738416141732278
21
5.7020808661417322
0
LINE
8
BLACK
6
CONTINUOUS
10
-4.7738416141732278
20
5.7020808661417322
11
-4.7739140944881893
21
5.7017164173228343
0
LINE
8
BLACK
6
CONTINUOUS
10
-4.7739140944881893
20
5.7017164173228343
11
-4.7751942519685038
21
5.6998005511811023
0
LINE
8
BLACK
6
CONTINUOUS
10
-4.7751942519685038
20
5.6998005511811023
11
-4.7771101181102358
21
5.6985203937007869
0
LINE
8
BLACK
6
CONTINUOUS
10
-4.7771101181102358
20
5.6985203937007869
11
-4.7793700787401576
21
5.6980708661417321
0
LINE
8
BLACK
6
CONTINUOUS
10
-4.7793700787401576
20
5.6980708661417321
11
-4.834488188976378
21
5.6980708661417321
0
LINE
8
BLACK
6
CONTINUOUS
10
-4.834488188976378
20
5.6980708661417321
11
-4.836748149606299
21
5.6985203937007869
0
LINE
8
BLACK
6
CONTINUOUS
10
-4.836748149606299
20
5.6985203937007869
11
-4.838664015748031
21
5.6998005511811023
0
LINE
8
BLACK
6
CONTINUOUS
10
-4.838664015748031
20
5.6998005511811023
11
-4.8399441732283464
21
5.7017164173228343
0
LINE
8
BLACK
6
CONTINUOUS
10
-4.8399441732283464
20
5.7017164173228343
11
-4.8403937007874012
21
5.7039763779527561
0
LINE
8
BLACK
6
CONTINUOUS
10
-4.8403937007874012
20
5.7039763779527561
11
-4.8403937007874012
21
5.7157874015748034
0
LINE
8
BLACK
6
CONTINUOUS
10
-4.8403937007874012
20
5.7157874015748034
11
-4.8399441732283464
21
5.7180473622047243
0
LINE
8
BLACK
6
CONTINUOUS
10
-4.8399441732283464
20
5.7180473622047243
11
-4.838664015748031
21
5.7199632283464563
0
LINE
8
BLACK
6
CONTINUOUS
10
-4.838664015748031
20
5.7199632283464563
11
-4.836748149606299
21
5.7212433858267717
0
LINE
8
BLACK
6
CONTINUOUS
10
-4.836748149606299
20
5.7212433858267717
11
-4.834488188976378
21
5.7216929133858265
0
LINE
8
BLACK
6
CONTINUOUS
10
-4.834488188976378
20
5.7216929133858265
11
-4.7793700787401576
21
5.7216929133858265
0
LINE
8
BLACK
6
CONTINUOUS
10
-4.7793700787401576
20
5.7216929133858265
11
-4.7771101181102358
21
5.7212433858267717
0
LINE
8
BLACK
6
CONTINUOUS
10
-4.7771101181102358
20
5.7212433858267717
11
-4.7751942519685038
21
5.7199632283464563
0
LINE
8
BLACK
6
CONTINUOUS
10
-4.7751942519685038
20
5.7199632283464563
11
-4.7739140944881893
21
5.7180473622047243
0
LINE
8
BLACK
6
CONTINUOUS
10
-4.7739140944881893
20
5.7180473622047243
11
-4.7738412204724412
21
5.7176809842519685
0
LINE
8
BLACK
6
CONTINUOUS
10
-4.7738412204724412
20
5.7176809842519685
11
-4.7533418503937011
21
5.7177261811023623
0
LINE
8
BLACK
6
CONTINUOUS
10
-4.7533418503937011
20
5.7177261811023623
11
-4.7526223228346458
21
5.7191383464566927
0
LINE
8
BLACK
6
CONTINUOUS
10
-4.7526223228346458
20
5.7191383464566927
11
-4.749138346456693
21
5.7226223228346456
0
LINE
8
BLACK
6
CONTINUOUS
10
-4.749138346456693
20
5.7226223228346456
11
-4.7447483070866143
21
5.7248591732283467
0
LINE
8
BLACK
6
CONTINUOUS
10
-4.7447483070866143
20
5.7248591732283467
11
-4.7398818897637796
21
5.7256299212598423
0
LINE
8
BLACK
6
CONTINUOUS
10
-4.7398818897637796
20
5.7256299212598423
11
-4.7350154724409448
21
5.7248591732283467
0
LINE
8
BLACK
6
CONTINUOUS
10
-4.250802874015748
20
5.6756465748031495
11
-4.2464128346456693
21
5.6734097244094484
0
LINE
8
BLACK
6
CONTINUOUS
10
-4.2464128346456693
20
5.6734097244094484
11
-4.2429288582677165
21
5.6699257480314955
0
LINE
8
BLACK
6
CONTINUOUS
10
-4.2429288582677165
20
5.6699257480314955
11
-4.2421643307086612
21
5.6684252755905513
0
LINE
8
BLACK
6
CONTINUOUS
10
-4.2421643307086612
20
5.6684252755905513
11
-4.2219064960629922
21
5.6684700787401576
0
LINE
8
BLACK
6
CONTINUOUS
10
-4.2219064960629922
20
5.6684700787401576
11
-4.2218339370078741
21
5.6688347637795271
0
LINE
8
BLACK
6
CONTINUOUS
10
-4.2218339370078741
20
5.6688347637795271
11
-4.2205537795275587
21
5.67075062992126
0
LINE
8
BLACK
6
CONTINUOUS
10
-4.2205537795275587
20
5.67075062992126
11
-4.2186379133858267
21
5.6720307874015745
0
LINE
8
BLACK
6
CONTINUOUS
10
-4.2186379133858267
20
5.6720307874015745
11
-4.2163779527559058
21
5.6724803149606302
0
LINE
8
BLACK
6
CONTINUOUS
10
-4.2163779527559058
20
5.6724803149606302
11
-4.1612598425196845
21
5.6724803149606302
0
LINE
8
BLACK
6
CONTINUOUS
10
-4.1612598425196845
20
5.6724803149606302
11
-4.1589998818897636
21
5.6720307874015745
0
LINE
8
BLACK
6
CONTINUOUS
10
-4.1589998818897636
20
5.6720307874015745
11
-4.1570840157480315
21
5.67075062992126
0
LINE
8
BLACK
6
CONTINUOUS
10
-4.1570840157480315
20
5.67075062992126
11
-4.1558038582677161
21
5.6688347637795271
0
LINE
8
BLACK
6
CONTINUOUS
10
-4.1558038582677161
20
5.6688347637795271
11
-4.1553543307086613
21
5.6665748031496062
0
LINE
8
BLACK
6
CONTINUOUS
10
-4.1553543307086613
20
5.6665748031496062
11
-4.1553543307086613
21
5.6547637795275589
0
LINE
8
BLACK
6
CONTINUOUS
10
-4.1553543307086613
20
5.6547637795275589
11
-4.1558038582677161
21
5.652503818897638
0
LINE
8
BLACK
6
CONTINUOUS
10
-4.1558038582677161
20
5.652503818897638
11
-4.1570840157480315
21
5.6505879527559051
0
LINE
8
BLACK
6
CONTINUOUS
10
-4.1570840157480315
20
5.6505879527559051
11
-4.1589998818897636
21
5.6493077952755906
0
LINE
8
BLACK
6
CONTINUOUS
10
-4.1589998818897636
20
5.6493077952755906
11
-4.1612598425196845
21
5.6488582677165349
0
LINE
8
BLACK
6
CONTINUOUS
10
-4.1612598425196845
20
5.6488582677165349
11
-4.2163779527559058
21
5.6488582677165349
0
LINE
8
BLACK
6
CONTINUOUS
10
-4.2163779527559058
20
5.6488582677165349
11
-4.2186379133858267
21
5.6493077952755906
0
LINE
8
BLACK
6
CONTINUOUS
10
-4.2186379133858267
20
5.6493077952755906
11
-4.2205537795275587
21
5.6505879527559051
0
LINE
8
BLACK
6
CONTINUOUS
10
-4.2205537795275587
20
5.6505879527559051
11
-4.2218339370078741
21
5.652503818897638
0
LINE
8
BLACK
6
CONTINUOUS
10
-4.2218339370078741
20
5.652503818897638
11
-4.2219067716535434
21
5.6528699606299213
0
LINE
8
BLACK
6
CONTINUOUS
10
-4.2219067716535434
20
5.6528699606299213
11
-4.2422093307086612
21
5.6528250393700787
0
LINE
8
BLACK
6
CONTINUOUS
10
-4.2422093307086612
20
5.6528250393700787
11
-4.2429288582677165
21
5.6514128346456696
0
LINE
8
BLACK
6
CONTINUOUS
10
-4.2429288582677165
20
5.6514128346456696
11
-4.2464128346456693
21
5.6479288582677167
0
LINE
8
BLACK
6
CONTINUOUS
10
-4.2464128346456693
20
5.6479288582677167
11
-4.250802874015748
21
5.6456920078740156
0
LINE
8
BLACK
6
CONTINUOUS
10
-4.250802874015748
20
5.6456920078740156
11
-4.2556692913385827
21
5.6449212598425191
0
LINE
8
BLACK
6
CONTINUOUS
10
-4.2556692913385827
20
5.6449212598425191
11
-4.2605357086614175
21
5.6456920078740156
0
LINE
8
BLACK
6
CONTINUOUS
10
-4.2605357086614175
20
5.6456920078740156
11
-4.2649257480314962
21
5.6479288582677167
0
LINE
8
BLACK
6
CONTINUOUS
10
-4.2649257480314962
20
5.6479288582677167
11
-4.268409724409449
21
5.6514128346456696
0
LINE
8
BLACK
6
CONTINUOUS
10
-4.268409724409449
20
5.6514128346456696
11
-4.2691807086614171
21
5.6529259055118111
0
LINE
8
BLACK
6
CONTINUOUS
10
-4.2691807086614171
20
5.6529259055118111
11
-4.3512050000000002
21
5.6528132677165353
0
LINE
8
BLACK
6
CONTINUOUS
10
-4.3512050000000002
20
5.6528132677165353
11
-4.352259566929134
21
5.6507435433070867
0
LINE
8
BLACK
6
CONTINUOUS
10
-4.352259566929134
20
5.6507435433070867
11
-4.3557435433070868
21
5.6472595669291339
0
LINE
8
BLACK
6
CONTINUOUS
10
-4.3557435433070868
20
5.6472595669291339
11
-4.3601335826771654
21
5.6450227165354327
0
LINE
8
BLACK
6
CONTINUOUS
10
-4.3601335826771654
20
5.6450227165354327
11
-4.3650000000000002
21
5.6442519685039372
0
LINE
8
BLACK
6
CONTINUOUS
10
-4.3650000000000002
20
5.6442519685039372
11
-4.369866417322835
21
5.6450227165354327
0
LINE
8
BLACK
6
CONTINUOUS
10
-4.369866417322835
20
5.6450227165354327
11
-4.3742564566929136
21
5.6472595669291339
0
LINE
8
BLACK
6
CONTINUOUS
10
-4.3742564566929136
20
5.6472595669291339
11
-4.3777404330708665
21
5.6507435433070867
0
LINE
8
BLACK
6
CONTINUOUS
10
-4.3777404330708665
20
5.6507435433070867
11
-4.3799772834645667
21
5.6551335826771654
0
LINE
8
BLACK
6
CONTINUOUS
10
-4.3799772834645667
20
5.6551335826771654
11
-4.3807480314960632
21
5.6600000000000001
0
LINE
8
BLACK
6
CONTINUOUS
10
-4.3807480314960632
20
5.6600000000000001
11
-4.3799772834645667
21
5.6648664173228349
0
LINE
8
BLACK
6
CONTINUOUS
10
-4.3799772834645667
20
5.6648664173228349
11
-4.3777404330708665
21
5.6692564566929136
0
LINE
8
BLACK
6
CONTINUOUS
10
-4.3777404330708665
20
5.6692564566929136
11
-4.3742564566929136
21
5.6727404330708664
0
LINE
8
BLACK
6
CONTINUOUS
10
-4.3742564566929136
20
5.6727404330708664
11
-4.369866417322835
21
5.6749772834645666
0
LINE
8
BLACK
6
CONTINUOUS
10
-4.369866417322835
20
5.6749772834645666
11
-4.3650000000000002
21
5.6757480314960631
0
LINE
8
BLACK
6
CONTINUOUS
10
-4.3650000000000002
20
5.6757480314960631
11
-4.3601335826771654
21
5.6749772834645666
0
LINE
8
BLACK
6
CONTINUOUS
10
-4.3601335826771654
20
5.6749772834645666
11
-4.3557435433070868
21
5.6727404330708664
0
LINE
8
BLACK
6
CONTINUOUS
10
-4.3557435433070868
20
5.6727404330708664
11
-4.352259566929134
21
5.6692564566929136
0
LINE
8
BLACK
6
CONTINUOUS
10
-4.352259566929134
20
5.6692564566929136
11
-4.3518289370078742
21
5.6684112598425198
0
LINE
8
BLACK
6
CONTINUOUS
10
-4.3518289370078742
20
5.6684112598425198
11
-4.2691235433070869
21
5.6685248031496061
0
LINE
8
BLACK
6
CONTINUOUS
10
-4.2691235433070869
20
5.6685248031496061
11
-4.268409724409449
21
5.6699257480314955
0
LINE
8
BLACK
6
CONTINUOUS
10
-4.268409724409449
20
5.6699257480314955
11
-4.2649257480314962
21
5.6734097244094484
0
LINE
8
BLACK
6
CONTINUOUS
10
-4.2649257480314962
20
5.6734097244094484
11
-4.2605357086614175
21
5.6756465748031495
0
LINE
8
BLACK
6
CONTINUOUS
10
-4.2605357086614175
20
5.6756465748031495
11
-4.2556692913385827
21
5.676417322834646
0
LINE
8
BLACK
6
CONTINUOUS
10
-4.2556692913385827
20
5.676417322834646
11
-4.250802874015748
21
5.6756465748031495
0
LINE
8
BLACK
6
CONTINUOUS
10
-4.3891084251968504
20
5.7245271259842516
11
-4.3847183858267718
21
5.7222902755905514
0
LINE
8
BLACK
6
CONTINUOUS
10
-4.3847183858267718
20
5.7222902755905514
11
-4.3812344094488189
21
5.7188062992125985
0
LINE
8
BLACK
6
CONTINUOUS
10
-4.3812344094488189
20
5.7188062992125985
11
-4.3806275590551182
21
5.717615236220472
0
LINE
8
BLACK
6
CONTINUOUS
10
-4.3806275590551182
20
5.717615236220472
11
-4.2218967716535429
21
5.7177316141732284
0
LINE
8
BLACK
6
CONTINUOUS
10
-4.2218967716535429
20
5.7177316141732284
11
-4.2218339370078741
21
5.7180473622047243
0
LINE
8
BLACK
6
CONTINUOUS
10
-4.2218339370078741
20
5.7180473622047243
11
-4.2205537795275587
21
5.7199632283464563
0
LINE
8
BLACK
6
CONTINUOUS
10
-4.2205537795275587
20
5.7199632283464563
11
-4.2186379133858267
21
5.7212433858267717
0
LINE
8
BLACK
6
CONTINUOUS
10
-4.2186379133858267
20
5.7212433858267717
11
-4.2163779527559058
21
5.7216929133858265
0
LINE
8
BLACK
6
CONTINUOUS
10
-4.2163779527559058
20
5.7216929133858265
11
-4.1612598425196845
21
5.7216929133858265
0
LINE
8
BLACK
6
CONTINUOUS
10
-4.1612598425196845
20
5.7216929133858265
11
-4.1589998818897636
21
5.7212433858267717
0
LINE
8
BLACK
6
CONTINUOUS
10
-4.1589998818897636
20
5.7212433858267717
11
-4.1570840157480315
21
5.7199632283464563
0
LINE
8
BLACK
6
CONTINUOUS
10
-4.1570840157480315
20
5.7199632283464563
11
-4.1558038582677161
21
5.7180473622047243
0
LINE
8
BLACK
6
CONTINUOUS
10
-4.1558038582677161
20
5.7180473622047243
11
-4.1557421653543303
21
5.7177370866141732
0
LINE
8
BLACK
6
CONTINUOUS
10
-4.1557421653543303
20
5.7177370866141732
11
-4.1508267716535432
21
5.7177559055118108
0
LINE
8
BLACK
6
CONTINUOUS
10
-4.1508267716535432
20
5.7177559055118108
11
-4.1492906299212597
21
5.7176046062992123
0
LINE
8
BLACK
6
CONTINUOUS
10
-4.1492906299212597
20
5.7176046062992123
11
-4.146452204724409
21
5.7164288976377948
0
LINE
8
BLACK
6
CONTINUOUS
10
-4.146452204724409
20
5.7164288976377948
11
-4.1261842125984254
21
5.6963748818897635
0
LINE
8
BLACK
6
CONTINUOUS
10
-4.1261842125984254
20
5.6963748818897635
11
-4.1252049606299215
21
5.6951816535433073
0
LINE
8
BLACK
6
CONTINUOUS
10
-4.1252049606299215
20
5.6951816535433073
11
-4.124029251968504
21
5.6923432283464566
0
LINE
8
BLACK
6
CONTINUOUS
10
-4.124029251968504
20
5.6923432283464566
11
-4.1239461417322838
21
5.675912559055118
0
LINE
8
BLACK
6
CONTINUOUS
10
-4.1239461417322838
20
5.675912559055118
11
-4.1224955118110236
21
5.6751734251968502
0
LINE
8
BLACK
6
CONTINUOUS
10
-4.1224955118110236
20
5.6751734251968502
11
-4.1190115354330707
21
5.6716894488188974
0
LINE
8
BLACK
6
CONTINUOUS
10
-4.1190115354330707
20
5.6716894488188974
11
-4.1167746850393696
21
5.6672994094488187
0
LINE
8
BLACK
6
CONTINUOUS
10
-4.1167746850393696
20
5.6672994094488187
11
-4.116003937007874
21
5.6624329921259839
0
LINE
8
BLACK
6
CONTINUOUS
10
-4.116003937007874
20
5.6624329921259839
11
-4.1167746850393696
21
5.6575665748031492
0
LINE
8
BLACK
6
CONTINUOUS
10
-4.1167746850393696
20
5.6575665748031492
11
-4.1190115354330707
21
5.6531765354330705
0
LINE
8
BLACK
6
CONTINUOUS
10
-4.1190115354330707
20
5.6531765354330705
11
-4.1224955118110236
21
5.6496925590551177
0
LINE
8
BLACK
6
CONTINUOUS
10
-4.1224955118110236
20
5.6496925590551177
11
-4.1268855511811022
21
5.6474557086614174
0
LINE
8
BLACK
6
CONTINUOUS
10
-4.1268855511811022
20
5.6474557086614174
11
-4.131751968503937
21
5.646684960629921
0
LINE
8
BLACK
6
CONTINUOUS
10
-4.131751968503937
20
5.646684960629921
11
-4.1366183858267718
21
5.6474557086614174
0
LINE
8
BLACK
6
CONTINUOUS
10
-4.1366183858267718
20
5.6474557086614174
11
-4.1410084251968504
21
5.6496925590551177
0
LINE
8
BLACK
6
CONTINUOUS
10
-4.1410084251968504
20
5.6496925590551177
11
-4.1444924015748033
21
5.6531765354330705
0
LINE
8
BLACK
6
CONTINUOUS
10
-4.1444924015748033
20
5.6531765354330705
11
-4.1467292519685035
21
5.6575665748031492
0
LINE
8
BLACK
6
CONTINUOUS
10
-4.1467292519685035
20
5.6575665748031492
11
-4.1475
21
5.6624329921259839
0
LINE
8
BLACK
6
CONTINUOUS
10
-4.1475
20
5.6624329921259839
11
-4.1467292519685035
21
5.6672994094488187
0
LINE
8
BLACK
6
CONTINUOUS
10
-4.1467292519685035
20
5.6672994094488187
11
-4.1444924015748033
21
5.6716894488188974
0
LINE
8
BLACK
6
CONTINUOUS
10
-4.1444924015748033
20
5.6716894488188974
11
-4.1410084251968504
21
5.6751734251968502
0
LINE
8
BLACK
6
CONTINUOUS
10
-4.1410084251968504
20
5.6751734251968502
11
-4.1395506692913386
21
5.6759161811023624
0
LINE
8
BLACK
6
CONTINUOUS
10
-4.1395506692913386
20
5.6759161811023624
11
-4.1396103149606303
21
5.6877070472440945
0
LINE
8
BLACK
6
CONTINUOUS
10
-4.1396103149606303
20
5.6877070472440945
11
-4.1541975984251964
21
5.7021403543307088
0
LINE
8
BLACK
6
CONTINUOUS
10
-4.1541975984251964
20
5.7021403543307088
11
-4.1557207086614172
21
5.7021345275590551
0
LINE
8
BLACK
6
CONTINUOUS
10
-4.1557207086614172
20
5.7021345275590551
11
-4.1558038582677161
21
5.7017164173228343
0
LINE
8
BLACK
6
CONTINUOUS
10
-4.1558038582677161
20
5.7017164173228343
11
-4.1570840157480315
21
5.6998005511811023
0
LINE
8
BLACK
6
CONTINUOUS
10
-4.1570840157480315
20
5.6998005511811023
11
-4.1589998818897636
21
5.6985203937007869
0
LINE
8
BLACK
6
CONTINUOUS
10
-4.1589998818897636
20
5.6985203937007869
11
-4.1612598425196845
21
5.6980708661417321
0
LINE
8
BLACK
6
CONTINUOUS
10
-4.1612598425196845
20
5.6980708661417321
11
-4.2163779527559058
21
5.6980708661417321
0
LINE
8
BLACK
6
CONTINUOUS
10
-4.2163779527559058
20
5.6980708661417321
11
-4.2186379133858267
21
5.6985203937007869
0
LINE
8
BLACK
6
CONTINUOUS
10
-4.2186379133858267
20
5.6985203937007869
11
-4.2205537795275587
21
5.6998005511811023
0
LINE
8
BLACK
6
CONTINUOUS
10
-4.2205537795275587
20
5.6998005511811023
11
-4.2218339370078741
21
5.7017164173228343
0
LINE
8
BLACK
6
CONTINUOUS
10
-4.2218339370078741
20
5.7017164173228343
11
-4.2219169685039368
21
5.7021337795275588
0
LINE
8
BLACK
6
CONTINUOUS
10
-4.2219169685039368
20
5.7021337795275588
11
-4.3803558661417323
21
5.7020175984251971
0
LINE
8
BLACK
6
CONTINUOUS
10
-4.3803558661417323
20
5.7020175984251971
11
-4.3812344094488189
21
5.7002933858267717
0
LINE
8
BLACK
6
CONTINUOUS
10
-4.3812344094488189
20
5.7002933858267717
11
-4.3847183858267718
21
5.6968094094488189
0
LINE
8
BLACK
6
CONTINUOUS
10
-4.3847183858267718
20
5.6968094094488189
11
-4.3891084251968504
21
5.6945725590551177
0
LINE
8
BLACK
6
CONTINUOUS
10
-4.3891084251968504
20
5.6945725590551177
11
-4.3939748425196852
21
5.6938018110236222
0
LINE
8
BLACK
6
CONTINUOUS
10
-4.3939748425196852
20
5.6938018110236222
11
-4.3988412598425199
21
5.6945725590551177
0
LINE
8
BLACK
6
CONTINUOUS
10
-4.3988412598425199
20
5.6945725590551177
11
-4.4032312992125986
21
5.6968094094488189
0
LINE
8
BLACK
6
CONTINUOUS
10
-4.4032312992125986
20
5.6968094094488189
11
-4.4067152755905514
21
5.7002933858267717
0
LINE
8
BLACK
6
CONTINUOUS
10
-4.4067152755905514
20
5.7002933858267717
11
-4.4089521259842517
21
5.7046834251968503
0
LINE
8
BLACK
6
CONTINUOUS
10
-4.4089521259842517
20
5.7046834251968503
11
-4.4097228740157481
21
5.7095498425196851
0
LINE
8
BLACK
6
CONTINUOUS
10
-4.4097228740157481
20
5.7095498425196851
11
-4.4089521259842517
21
5.7144162598425199
0
LINE
8
BLACK
6
CONTINUOUS
10
-4.4089521259842517
20
5.7144162598425199
11
-4.4067152755905514
21
5.7188062992125985
0
LINE
8
BLACK
6
CONTINUOUS
10
-4.4067152755905514
20
5.7188062992125985
11
-4.4032312992125986
21
5.7222902755905514
0
LINE
8
BLACK
6
CONTINUOUS
10
-4.4032312992125986
20
5.7222902755905514
11
-4.3988412598425199
21
5.7245271259842516
0
LINE
8
BLACK
6
CONTINUOUS
10
-4.3988412598425199
20
5.7245271259842516
11
-4.3939748425196852
21
5.7252978740157481
0
LINE
8
BLACK
6
CONTINUOUS
10
-4.3939748425196852
20
5.7252978740157481
11
-4.3891084251968504
21
5.7245271259842516
0
LINE
8
BLACK
6
CONTINUOUS
10
-4.3330272834645669
20
5.786867047244094
11
-4.3286372440944882
21
5.7846301968503937
0
LINE
8
BLACK
6
CONTINUOUS
10
-4.3286372440944882
20
5.7846301968503937
11
-4.3251532677165354
21
5.7811462204724409
0
LINE
8
BLACK
6
CONTINUOUS
10
-4.3251532677165354
20
5.7811462204724409
11
-4.3229164173228343
21
5.7767561811023622
0
LINE
8
BLACK
6
CONTINUOUS
10
-4.3229164173228343
20
5.7767561811023622
11
-4.3221456692913387
21
5.7718897637795274
0
LINE
8
BLACK
6
CONTINUOUS
10
-4.3221456692913387
20
5.7718897637795274
11
-4.3229164173228343
21
5.7670233464566927
0
LINE
8
BLACK
6
CONTINUOUS
10
-4.3229164173228343
20
5.7670233464566927
11
-4.3251532677165354
21
5.762633307086614
0
LINE
8
BLACK
6
CONTINUOUS
10
-4.3251532677165354
20
5.762633307086614
11
-4.3286372440944882
21
5.7591493307086612
0
LINE
8
BLACK
6
CONTINUOUS
10
-4.3286372440944882
20
5.7591493307086612
11
-4.3330272834645669
21
5.7569124803149601
0
LINE
8
BLACK
6
CONTINUOUS
10
-4.3330272834645669
20
5.7569124803149601
11
-4.3378937007874017
21
5.7561417322834645
0
LINE
8
BLACK
6
CONTINUOUS
10
-4.3378937007874017
20
5.7561417322834645
11
-4.3427601181102364
21
5.7569124803149601
0
LINE
8
BLACK
6
CONTINUOUS
10
-4.3427601181102364
20
5.7569124803149601
11
-4.3471501574803151
21
5.7591493307086612
0
LINE
8
BLACK
6
CONTINUOUS
10
-4.3471501574803151
20
5.7591493307086612
11
-4.3506341338582679
21
5.762633307086614
0
LINE
8
BLACK
6
CONTINUOUS
10
-4.3506341338582679
20
5.762633307086614
11
-4.3514087795275591
21
5.7641535826771655
0
LINE
8
BLACK
6
CONTINUOUS
10
-4.3514087795275591
20
5.7641535826771655
11
-4.4926148818897635
21
5.7640274803149607
0
LINE
8
BLACK
6
CONTINUOUS
10
-4.4926148818897635
20
5.7640274803149607
11
-4.4934455905511808
21
5.7623970866141727
0
LINE
8
BLACK
6
CONTINUOUS
10
-4.4934455905511808
20
5.7623970866141727
11
-4.4969295669291336
21
5.7589131102362208
0
LINE
8
BLACK
6
CONTINUOUS
10
-4.4969295669291336
20
5.7589131102362208
11
-4.5013196062992122
21
5.7566762598425196
0
LINE
8
BLACK
6
CONTINUOUS
10
-4.5013196062992122
20
5.7566762598425196
11
-4.506186023622047
21
5.7559055118110232
0
LINE
8
BLACK
6
CONTINUOUS
10
-4.506186023622047
20
5.7559055118110232
11
-4.5110524409448818
21
5.7566762598425196
0
LINE
8
BLACK
6
CONTINUOUS
10
-4.5110524409448818
20
5.7566762598425196
11
-4.5154424803149604
21
5.7589131102362208
0
LINE
8
BLACK
6
CONTINUOUS
10
-4.5154424803149604
20
5.7589131102362208
11
-4.5189264566929133
21
5.7623970866141727
0
LINE
8
BLACK
6
CONTINUOUS
10
-4.5189264566929133
20
5.7623970866141727
11
-4.5211633070866144
21
5.7667871259842522
0
LINE
8
BLACK
6
CONTINUOUS
10
-4.5211633070866144
20
5.7667871259842522
11
-4.52193405511811
21
5.7716535433070861
0
LINE
8
BLACK
6
CONTINUOUS
10
-4.52193405511811
20
5.7716535433070861
11
-4.5211633070866144
21
5.7765199606299209
0
LINE
8
BLACK
6
CONTINUOUS
10
-4.5211633070866144
20
5.7765199606299209
11
-4.5189264566929133
21
5.7809099999999995
0
LINE
8
BLACK
6
CONTINUOUS
10
-4.5189264566929133
20
5.7809099999999995
11
-4.5154424803149604
21
5.7843939763779524
0
LINE
8
BLACK
6
CONTINUOUS
10
-4.5154424803149604
20
5.7843939763779524
11
-4.5110524409448818
21
5.7866308267716535
0
LINE
8
BLACK
6
CONTINUOUS
10
-4.5110524409448818
20
5.7866308267716535
11
-4.506186023622047
21
5.7874015748031491
0
LINE
8
BLACK
6
CONTINUOUS
10
-4.506186023622047
20
5.7874015748031491
11
-4.5013196062992122
21
5.7866308267716535
0
LINE
8
BLACK
6
CONTINUOUS
10
-4.5013196062992122
20
5.7866308267716535
11
-4.4969295669291336
21
5.7843939763779524
0
LINE
8
BLACK
6
CONTINUOUS
10
-4.4969295669291336
20
5.7843939763779524
11
-4.4934455905511808
21
5.7809099999999995
0
LINE
8
BLACK
6
CONTINUOUS
10
-4.4934455905511808
20
5.7809099999999995
11
-4.4927911023622045
21
5.7796254330708656
0
LINE
8
BLACK
6
CONTINUOUS
10
-4.4927911023622045
20
5.7796254330708656
11
-4.3513446850393702
21
5.7797517322834642
0
LINE
8
BLACK
6
CONTINUOUS
10
-4.3513446850393702
20
5.7797517322834642
11
-4.3506341338582679
21
5.7811462204724409
0
LINE
8
BLACK
6
CONTINUOUS
10
-4.3506341338582679
20
5.7811462204724409
11
-4.3471501574803151
21
5.7846301968503937
0
LINE
8
BLACK
6
CONTINUOUS
10
-4.3471501574803151
20
5.7846301968503937
11
-4.3427601181102364
21
5.786867047244094
0
LINE
8
BLACK
6
CONTINUOUS
10
-4.3427601181102364
20
5.786867047244094
11
-4.3378937007874017
21
5.7876377952755904
0
LINE
8
BLACK
6
CONTINUOUS
10
-4.3378937007874017
20
5.7876377952755904
11
-4.3330272834645669
21
5.786867047244094
0
LINE
8
BLACK
6
CONTINUOUS
10
-4.704013582677165
20
5.9599931496062988
11
-4.7031602755905508
21
5.957933070866142
0
LINE
8
BLACK
6
CONTINUOUS
10
-4.7031602755905508
20
5.957933070866142
11
-4.704013582677165
21
5.9558729921259843
0
LINE
8
BLACK
6
CONTINUOUS
10
-4.704013582677165
20
5.9558729921259843
11
-4.7044550787401578
21
5.9555106692913382
0
LINE
8
BLACK
6
CONTINUOUS
10
-4.7044550787401578
20
5.9555106692913382
11
-4.7069405118110232
21
5.9538499606299213
0
LINE
8
BLACK
6
CONTINUOUS
10
-4.7069405118110232
20
5.9538499606299213
11
-4.7113303149606294
21
5.9494601574803152
0
LINE
8
BLACK
6
CONTINUOUS
10
-4.7113303149606294
20
5.9494601574803152
11
-4.7147794094488189
21
5.9442981889763775
0
LINE
8
BLACK
6
CONTINUOUS
10
-4.7147794094488189
20
5.9442981889763775
11
-4.7171549606299212
21
5.9385630314960629
0
LINE
8
BLACK
6
CONTINUOUS
10
-4.7171549606299212
20
5.9385630314960629
11
-4.7171550787401575
21
5.9385626377952754
0
LINE
8
BLACK
6
CONTINUOUS
10
-4.7171550787401575
20
5.9385626377952754
11
-4.7183661417322833
21
5.9324740157480313
0
LINE
8
BLACK
6
CONTINUOUS
10
-4.7183661417322833
20
5.9324740157480313
11
-4.7183661417322833
21
5.8711479921259837
0
LINE
8
BLACK
6
CONTINUOUS
10
-4.7183661417322833
20
5.8711479921259837
11
-4.7171550787401575
21
5.8650593700787397
0
LINE
8
BLACK
6
CONTINUOUS
10
-4.7171550787401575
20
5.8650593700787397
11
-4.7171549606299212
21
5.865058976377953
0
LINE
8
BLACK
6
CONTINUOUS
10
-4.7171549606299212
20
5.865058976377953
11
-4.7147794094488189
21
5.8593238188976375
0
LINE
8
BLACK
6
CONTINUOUS
10
-4.7147794094488189
20
5.8593238188976375
11
-4.7113303149606294
21
5.8541618503937007
0
LINE
8
BLACK
6
CONTINUOUS
10
-4.7113303149606294
20
5.8541618503937007
11
-4.7113302362204728
21
5.854161811023622
0
LINE
8
BLACK
6
CONTINUOUS
10
-4.7113302362204728
20
5.854161811023622
11
-4.706940551181102
21
5.8497721259842521
0
LINE
8
BLACK
6
CONTINUOUS
10
-4.706940551181102
20
5.8497721259842521
11
-4.7069405118110232
21
5.8497720472440946
0
LINE
8
BLACK
6
CONTINUOUS
10
-4.7069405118110232
20
5.8497720472440946
11
-4.7040600787401576
21
5.8478474409448822
0
LINE
8
BLACK
6
CONTINUOUS
10
-4.7040600787401576
20
5.8478474409448822
11
-4.7017787007874015
21
5.8463230708661413
0
LINE
8
BLACK
6
CONTINUOUS
10
-4.7017787007874015
20
5.8463230708661413
11
-4.7017786614173227
21
5.8463230314960626
0
LINE
8
BLACK
6
CONTINUOUS
10
-4.7017786614173227
20
5.8463230314960626
11
-4.7017785039370077
21
5.8463229527559051
0
LINE
8
BLACK
6
CONTINUOUS
10
-4.7017785039370077
20
5.8463229527559051
11
-4.7017785433070864
21
5.8463229527559051
0
LINE
8
BLACK
6
CONTINUOUS
10
-4.7017785433070864
20
5.8463229527559051
11
-4.6960433858267718
21
5.8439474015748027
0
LINE
8
BLACK
6
CONTINUOUS
10
-4.6960433858267718
20
5.8439474015748027
11
-4.6960429921259843
21
5.8439472834645665
0
LINE
8
BLACK
6
CONTINUOUS
10
-4.6960429921259843
20
5.8439472834645665
11
-4.6916805118110236
21
5.8430795275590546
0
LINE
8
BLACK
6
CONTINUOUS
10
-4.6916805118110236
20
5.8430795275590546
11
-4.689954409448819
21
5.8427362204724407
0
LINE
8
BLACK
6
CONTINUOUS
10
-4.689954409448819
20
5.8427362204724407
11
-4.6899543307086615
21
5.8427362204724407
0
LINE
8
BLACK
6
CONTINUOUS
10
-4.6899543307086615
20
5.8427362204724407
11
-4.6207543307086612
21
5.8427362204724407
0
LINE
8
BLACK
6
CONTINUOUS
10
-4.6207543307086612
20
5.8427362204724407
11
-4.6207542519685036
21
5.8427362204724407
0
LINE
8
BLACK
6
CONTINUOUS
10
-4.6207542519685036
20
5.8427362204724407
11
-4.6187431102362204
21
5.8431362598425194
0
LINE
8
BLACK
6
CONTINUOUS
10
-4.6187431102362204
20
5.8431362598425194
11
-4.6146657086614171
21
5.8439472834645665
0
LINE
8
BLACK
6
CONTINUOUS
10
-4.6146657086614171
20
5.8439472834645665
11
-4.6146653149606296
21
5.8439474015748027
0
LINE
8
BLACK
6
CONTINUOUS
10
-4.6146653149606296
20
5.8439474015748027
11
-4.608930157480315
21
5.8463229527559051
0
LINE
8
BLACK
6
CONTINUOUS
10
-4.608930157480315
20
5.8463229527559051
11
-4.6089300393700787
21
5.8463230314960626
0
LINE
8
BLACK
6
CONTINUOUS
10
-4.6089300393700787
20
5.8463230314960626
11
-4.6089299606299212
21
5.8463230708661413
0
LINE
8
BLACK
6
CONTINUOUS
10
-4.6089299606299212
20
5.8463230708661413
11
-4.6037681496062994
21
5.8497720866141734
0
LINE
8
BLACK
6
CONTINUOUS
10
-4.6037681496062994
20
5.8497720866141734
11
-4.5993783858267712
21
5.8541618503937007
0
LINE
8
BLACK
6
CONTINUOUS
10
-4.5993783858267712
20
5.8541618503937007
11
-4.59592937007874
21
5.8593236614173225
0
LINE
8
BLACK
6
CONTINUOUS
10
-4.59592937007874
20
5.8593236614173225
11
-4.5954805511811019
21
5.8604071653543306
0
LINE
8
BLACK
6
CONTINUOUS
10
-4.5954805511811019
20
5.8604071653543306
11
-4.5935537401574802
21
5.865058976377953
0
LINE
8
BLACK
6
CONTINUOUS
10
-4.5935537401574802
20
5.865058976377953
11
-4.5935536220472439
21
5.8650593700787397
0
LINE
8
BLACK
6
CONTINUOUS
10
-4.5935536220472439
20
5.8650593700787397
11
-4.5923425196850394
21
5.8711479921259837
0
LINE
8
BLACK
6
CONTINUOUS
10
-4.5923425196850394
20
5.8711479921259837
11
-4.5923425196850394
21
5.9324740157480313
0
LINE
8
BLACK
6
CONTINUOUS
10
-4.5923425196850394
20
5.9324740157480313
11
-4.5935536220472439
21
5.9385626377952754
0
LINE
8
BLACK
6
CONTINUOUS
10
-4.5935536220472439
20
5.9385626377952754
11
-4.5935536614173227
21
5.9385628740157479
0
LINE
8
BLACK
6
CONTINUOUS
10
-4.5935536614173227
20
5.9385628740157479
11
-4.59592937007874
21
5.9442983858267713
0
LINE
8
BLACK
6
CONTINUOUS
10
-4.59592937007874
20
5.9442983858267713
11
-4.5993783858267712
21
5.949460196850394
0
LINE
8
BLACK
6
CONTINUOUS
10
-4.5993783858267712
20
5.949460196850394
11
-4.6037681496062994
21
5.9538499606299213
0
LINE
8
BLACK
6
CONTINUOUS
10
-4.6037681496062994
20
5.9538499606299213
11
-4.6062536220472436
21
5.9555106692913382
0
LINE
8
BLACK
6
CONTINUOUS
10
-4.6062536220472436
20
5.9555106692913382
11
-4.6074924015748033
21
5.9573646850393702
0
LINE
8
BLACK
6
CONTINUOUS
10
-4.6074924015748033
20
5.9573646850393702
11
-4.6070574015748029
21
5.9595516535433068
0
LINE
8
BLACK
6
CONTINUOUS
10
-4.6070574015748029
20
5.9595516535433068
11
-4.6052033858267718
21
5.9607904724409444
0
LINE
8
BLACK
6
CONTINUOUS
10
-4.6052033858267718
20
5.9607904724409444
11
-4.604635
21
5.9608464566929129
0
LINE
8
BLACK
6
CONTINUOUS
10
-4.604635
20
5.9608464566929129
11
-4.0283661417322838
21
5.9608464566929129
0
LINE
8
BLACK
6
CONTINUOUS
10
-4.0283661417322838
20
5.9608464566929129
11
-4.0263060629921261
21
5.9599931496062988
0
LINE
8
BLACK
6
CONTINUOUS
10
-4.0263060629921261
20
5.9599931496062988
11
-4.025452755905512
21
5.957933070866142
0
LINE
8
BLACK
6
CONTINUOUS
10
-4.025452755905512
20
5.957933070866142
11
-4.025452755905512
21
5.9057103937007875
0
LINE
8
BLACK
6
CONTINUOUS
10
-4.025452755905512
20
5.9057103937007875
11
-4.0250227165354326
21
5.9048664173228342
0
LINE
8
BLACK
6
CONTINUOUS
10
-4.0250227165354326
20
5.9048664173228342
11
-4.0242519685039371
21
5.8999999999999995
0
LINE
8
BLACK
6
CONTINUOUS
10
-4.0242519685039371
20
5.8999999999999995
11
-4.0250227165354326
21
5.8951335826771656
0
LINE
8
BLACK
6
CONTINUOUS
10
-4.0250227165354326
20
5.8951335826771656
11
-4.025452755905512
21
5.8942895669291335
0
LINE
8
BLACK
6
CONTINUOUS
10
-4.025452755905512
20
5.8942895669291335
11
-4.025452755905512
21
5.8745275590551183
0
LINE
8
BLACK
6
CONTINUOUS
10
-4.025452755905512
20
5.8745275590551183
11
-4.0263060629921261
21
5.8724674803149606
0
LINE
8
BLACK
6
CONTINUOUS
10
-4.0263060629921261
20
5.8724674803149606
11
-4.0283661417322838
21
5.8716141732283464
0
LINE
8
BLACK
6
CONTINUOUS
10
-4.0283661417322838
20
5.8716141732283464
11
-4.0528346456692912
21
5.8716141732283464
0
LINE
8
BLACK
6
CONTINUOUS
10
-4.0528346456692912
20
5.8716141732283464
11
-4.0528346456692912
21
5.851614173228346
0
LINE
8
BLACK
6
CONTINUOUS
10
-4.0528346456692912
20
5.851614173228346
11
-4.0195275590551178
21
5.851614173228346
0
LINE
8
BLACK
6
CONTINUOUS
10
-4.0195275590551178
20
5.851614173228346
11
-4.0157609842519681
21
5.850864960629921
0
LINE
8
BLACK
6
CONTINUOUS
10
-4.0157609842519681
20
5.850864960629921
11
-4.0125678346456688
21
5.8487313779527561
0
LINE
8
BLACK
6
CONTINUOUS
10
-4.0125678346456688
20
5.8487313779527561
11
-4.0104342519685039
21
5.8455382283464568
0
LINE
8
BLACK
6
CONTINUOUS
10
-4.0104342519685039
20
5.8455382283464568
11
-4.0096850393700789
21
5.8417716535433071
0
LINE
8
BLACK
6
CONTINUOUS
10
-4.0096850393700789
20
5.8417716535433071
11
-4.0096850393700789
21
5.8220866141732284
0
LINE
8
BLACK
6
CONTINUOUS
10
-4.0096850393700789
20
5.8220866141732284
11
-4.0104342519685039
21
5.8183200393700787
0
LINE
8
BLACK
6
CONTINUOUS
10
-4.0104342519685039
20
5.8183200393700787
11
-4.0125678346456688
21
5.8151268897637793
0
LINE
8
BLACK
6
CONTINUOUS
10
-4.0125678346456688
20
5.8151268897637793
11
-4.0157609842519681
21
5.8129933070866144
0
LINE
8
BLACK
6
CONTINUOUS
10
-4.0157609842519681
20
5.8129933070866144
11
-4.0195275590551178
21
5.8122440944881886
0
LINE
8
BLACK
6
CONTINUOUS
10
-4.0195275590551178
20
5.8122440944881886
11
-4.0528346456692912
21
5.8122440944881886
0
LINE
8
BLACK
6
CONTINUOUS
10
-4.0528346456692912
20
5.8122440944881886
11
-4.0528346456692912
21
5.792244094488189
0
LINE
8
BLACK
6
CONTINUOUS
10
-4.0528346456692912
20
5.792244094488189
11
-4.0283661417322838
21
5.792244094488189
0
LINE
8
BLACK
6
CONTINUOUS
10
-4.0283661417322838
20
5.792244094488189
11
-4.0263060629921261
21
5.7913907874015749
0
LINE
8
BLACK
6
CONTINUOUS
10
-4.0263060629921261
20
5.7913907874015749
11
-4.025452755905512
21
5.7893307086614172
0
LINE
8
BLACK
6
CONTINUOUS
10
-4.025452755905512
20
5.7893307086614172
11
-4.025452755905512
21
5.5812204724409451
0
LINE
8
BLACK
6
CONTINUOUS
10
-4.025452755905512
20
5.5812204724409451
11
-4.0263060629921261
21
5.5791603937007874
0
LINE
8
BLACK
6
CONTINUOUS
10
-4.0263060629921261
20
5.5791603937007874
11
-4.0283661417322838
21
5.5783070866141733
0
LINE
8
BLACK
6
CONTINUOUS
10
-4.0283661417322838
20
5.5783070866141733
11
-4.0528346456692912
21
5.5783070866141733
0
LINE
8
BLACK
6
CONTINUOUS
10
-4.0528346456692912
20
5.5783070866141733
11
-4.0528346456692912
21
5.5583070866141728
0
LINE
8
BLACK
6
CONTINUOUS
10
-4.0528346456692912
20
5.5583070866141728
11
-4.0195275590551178
21
5.5583070866141728
0
LINE
8
BLACK
6
CONTINUOUS
10
-4.0195275590551178
20
5.5583070866141728
11
-4.0157609842519681
21
5.5575578740157479
0
LINE
8
BLACK
6
CONTINUOUS
10
-4.0157609842519681
20
5.5575578740157479
11
-4.0125678346456688
21
5.555424291338583
0
LINE
8
BLACK
6
CONTINUOUS
10
-4.0125678346456688
20
5.555424291338583
11
-4.0104342519685039
21
5.5522311417322836
0
LINE
8
BLACK
6
CONTINUOUS
10
-4.0104342519685039
20
5.5522311417322836
11
-4.0096850393700789
21
5.5484645669291339
0
LINE
8
BLACK
6
CONTINUOUS
10
-4.0096850393700789
20
5.5484645669291339
11
-4.0096850393700789
21
5.5287795275590552
0
LINE
8
BLACK
6
CONTINUOUS
10
-4.0096850393700789
20
5.5287795275590552
11
-4.0104342519685039
21
5.5250129527559055
0
LINE
8
BLACK
6
CONTINUOUS
10
-4.0104342519685039
20
5.5250129527559055
11
-4.0125678346456688
21
5.5218198031496062
0
LINE
8
BLACK
6
CONTINUOUS
10
-4.0125678346456688
20
5.5218198031496062
11
-4.0157609842519681
21
5.5196862204724404
0
LINE
8
BLACK
6
CONTINUOUS
10
-4.0157609842519681
20
5.5196862204724404
11
-4.0195275590551178
21
5.5189370078740154
0
LINE
8
BLACK
6
CONTINUOUS
10
-4.0195275590551178
20
5.5189370078740154
11
-4.0528346456692912
21
5.5189370078740154
0
LINE
8
BLACK
6
CONTINUOUS
10
-4.0528346456692912
20
5.5189370078740154
11
-4.0528346456692912
21
5.4989370078740158
0
LINE
8
BLACK
6
CONTINUOUS
10
-4.0528346456692912
20
5.4989370078740158
11
-4.0283661417322838
21
5.4989370078740158
0
LINE
8
BLACK
6
CONTINUOUS
10
-4.0283661417322838
20
5.4989370078740158
11
-4.0263060629921261
21
5.4980837007874017
0
LINE
8
BLACK
6
CONTINUOUS
10
-4.0263060629921261
20
5.4980837007874017
11
-4.025452755905512
21
5.496023622047244
0
LINE
8
BLACK
6
CONTINUOUS
10
-4.025452755905512
20
5.496023622047244
11
-4.025452755905512
21
5.4757103937007869
0
LINE
8
BLACK
6
CONTINUOUS
10
-4.025452755905512
20
5.4757103937007869
11
-4.0250227165354326
21
5.4748664173228345
0
LINE
8
BLACK
6
CONTINUOUS
10
-4.0250227165354326
20
5.4748664173228345
11
-4.0242519685039371
21
5.4699999999999998
0
LINE
8
BLACK
6
CONTINUOUS
10
-4.0242519685039371
20
5.4699999999999998
11
-4.0250227165354326
21
5.465133582677165
0
LINE
8
BLACK
6
CONTINUOUS
10
-4.0250227165354326
20
5.465133582677165
11
-4.025452755905512
21
5.4642895669291338
0
LINE
8
BLACK
6
CONTINUOUS
10
-4.025452755905512
20
5.4642895669291338
11
-4.025452755905512
21
5.4126181102362203
0
LINE
8
BLACK
6
CONTINUOUS
10
-4.025452755905512
20
5.4126181102362203
11
-4.0263060629921261
21
5.4105580314960626
0
LINE
8
BLACK
6
CONTINUOUS
10
-4.0263060629921261
20
5.4105580314960626
11
-4.0283661417322838
21
5.4097047244094485
0
LINE
8
BLACK
6
CONTINUOUS
10
-4.0283661417322838
20
5.4097047244094485
11
-4.604635
21
5.4097047244094485
0
LINE
8
BLACK
6
CONTINUOUS
10
-4.604635
20
5.4097047244094485
11
-4.6066950787401577
21
5.4105580314960626
0
LINE
8
BLACK
6
CONTINUOUS
10
-4.6066950787401577
20
5.4105580314960626
11
-4.6075483858267718
21
5.4126181102362203
0
LINE
8
BLACK
6
CONTINUOUS
10
-4.6075483858267718
20
5.4126181102362203
11
-4.6066950787401577
21
5.414678188976378
0
LINE
8
BLACK
6
CONTINUOUS
10
-4.6066950787401577
20
5.414678188976378
11
-4.6062535826771649
21
5.4150405118110232
0
LINE
8
BLACK
6
CONTINUOUS
10
-4.6062535826771649
20
5.4150405118110232
11
-4.6037681889763782
21
5.4167011811023622
0
LINE
8
BLACK
6
CONTINUOUS
10
-4.6037681889763782
20
5.4167011811023622
11
-4.5993783858267712
21
5.4210909842519683
0
LINE
8
BLACK
6
CONTINUOUS
10
-4.5993783858267712
20
5.4210909842519683
11
-4.59592937007874
21
5.4262527952755901
0
LINE
8
BLACK
6
CONTINUOUS
10
-4.59592937007874
20
5.4262527952755901
11
-4.5935536614173227
21
5.4319883070866144
0
LINE
8
BLACK
6
CONTINUOUS
10
-4.5935536614173227
20
5.4319883070866144
11
-4.5923425196850394
21
5.4380770866141734
0
LINE
8
BLACK
6
CONTINUOUS
10
-4.5923425196850394
20
5.4380770866141734
11
-4.5923425196850394
21
5.4411811023622043
0
LINE
8
BLACK
6
CONTINUOUS
10
-4.5923425196850394
20
5.4411811023622043
11
-4.5923425196850394
21
5.4437752755905509
0
LINE
8
BLACK
6
CONTINUOUS
10
-4.5923425196850394
20
5.4437752755905509
11
-4.5923425196850394
21
5.4988933858267712
0
LINE
8
BLACK
6
CONTINUOUS
10
-4.5923425196850394
20
5.4988933858267712
11
-4.5923425196850394
21
5.4994032283464565
0
LINE
8
BLACK
6
CONTINUOUS
10
-4.5923425196850394
20
5.4994032283464565
11
-4.5935536614173227
21
5.5054920078740155
0
LINE
8
BLACK
6
CONTINUOUS
10
-4.5935536614173227
20
5.5054920078740155
11
-4.59592937007874
21
5.5112275196850389
0
LINE
8
BLACK
6
CONTINUOUS
10
-4.59592937007874
20
5.5112275196850389
11
-4.5993783858267712
21
5.5163893307086616
0
LINE
8
BLACK
6
CONTINUOUS
10
-4.5993783858267712
20
5.5163893307086616
11
-4.6037681496062994
21
5.5207790944881889
0
LINE
8
BLACK
6
CONTINUOUS
10
-4.6037681496062994
20
5.5207790944881889
11
-4.6089299606299212
21
5.5242281102362201
0
LINE
8
BLACK
6
CONTINUOUS
10
-4.6089299606299212
20
5.5242281102362201
11
-4.6146654724409446
21
5.5266038188976374
0
LINE
8
BLACK
6
CONTINUOUS
10
-4.6146654724409446
20
5.5266038188976374
11
-4.6156072047244097
21
5.526791141732283
0
LINE
8
BLACK
6
CONTINUOUS
10
-4.6156072047244097
20
5.526791141732283
11
-4.6207542519685036
21
5.5278149606299207
0
LINE
8
BLACK
6
CONTINUOUS
10
-4.6207542519685036
20
5.5278149606299207
11
-4.6212640944881889
21
5.5278149606299207
0
LINE
8
BLACK
6
CONTINUOUS
10
-4.6212640944881889
20
5.5278149606299207
11
-4.6842562204724407
21
5.5278149606299207
0
LINE
8
BLACK
6
CONTINUOUS
10
-4.6842562204724407
20
5.5278149606299207
11
-4.6868503937007873
21
5.5278149606299207
0
LINE
8
BLACK
6
CONTINUOUS
10
-4.6868503937007873
20
5.5278149606299207
11
-4.689954409448819
21
5.5278149606299207
0
LINE
8
BLACK
6
CONTINUOUS
10
-4.689954409448819
20
5.5278149606299207
11
-4.6960431889763781
21
5.5266038188976374
0
LINE
8
BLACK
6
CONTINUOUS
10
-4.6960431889763781
20
5.5266038188976374
11
-4.6960433858267718
21
5.5266037401574799
0
LINE
8
BLACK
6
CONTINUOUS
10
-4.6960433858267718
20
5.5266037401574799
11
-4.7017785433070864
21
5.5242281889763776
0
LINE
8
BLACK
6
CONTINUOUS
10
-4.7017785433070864
20
5.5242281889763776
11
-4.7017786220472439
21
5.5242281496062988
0
LINE
8
BLACK
6
CONTINUOUS
10
-4.7017786220472439
20
5.5242281496062988
11
-4.7017787007874015
21
5.5242281102362201
0
LINE
8
BLACK
6
CONTINUOUS
10
-4.7017787007874015
20
5.5242281102362201
11
-4.7069405118110232
21
5.5207790944881889
0
LINE
8
BLACK
6
CONTINUOUS
10
-4.7069405118110232
20
5.5207790944881889
11
-4.7113303149606294
21
5.5163892913385828
0
LINE
8
BLACK
6
CONTINUOUS
10
-4.7113303149606294
20
5.5163892913385828
11
-4.7147794094488189
21
5.5112273228346451
0
LINE
8
BLACK
6
CONTINUOUS
10
-4.7147794094488189
20
5.5112273228346451
11
-4.7171549606299212
21
5.5054921653543305
0
LINE
8
BLACK
6
CONTINUOUS
10
-4.7171549606299212
20
5.5054921653543305
11
-4.7171550787401575
21
5.505491771653543
0
LINE
8
BLACK
6
CONTINUOUS
10
-4.7171550787401575
20
5.505491771653543
11
-4.7183661417322833
21
5.4994031496062989
0
LINE
8
BLACK
6
CONTINUOUS
10
-4.7183661417322833
20
5.4994031496062989
11
-4.7183661417322833
21
5.4380771259842522
0
LINE
8
BLACK
6
CONTINUOUS
10
-4.7183661417322833
20
5.4380771259842522
11
-4.7171550787401575
21
5.4319885039370082
0
LINE
8
BLACK
6
CONTINUOUS
10
-4.7171550787401575
20
5.4319885039370082
11
-4.7171549606299212
21
5.4319881102362206
0
LINE
8
BLACK
6
CONTINUOUS
10
-4.7171549606299212
20
5.4319881102362206
11
-4.7147794094488189
21
5.4262529527559051
0
LINE
8
BLACK
6
CONTINUOUS
10
-4.7147794094488189
20
5.4262529527559051
11
-4.7113303149606294
21
5.4210909842519683
0
LINE
8
BLACK
6
CONTINUOUS
10
-4.7113303149606294
20
5.4210909842519683
11
-4.7113302362204728
21
5.4210909448818896
0
LINE
8
BLACK
6
CONTINUOUS
10
-4.7113302362204728
20
5.4210909448818896
11
-4.706940551181102
21
5.4167012598425197
0
LINE
8
BLACK
6
CONTINUOUS
10
-4.706940551181102
20
5.4167012598425197
11
-4.7069405118110232
21
5.4167011811023622
0
LINE
8
BLACK
6
CONTINUOUS
10
-4.7069405118110232
20
5.4167011811023622
11
-4.7044550787401578
21
5.4150405118110232
0
LINE
8
BLACK
6
CONTINUOUS
10
-4.7044550787401578
20
5.4150405118110232
11
-4.7032162598425193
21
5.4131864960629921
0
LINE
8
BLACK
6
CONTINUOUS
10
-4.7032162598425193
20
5.4131864960629921
11
-4.7036512598425197
21
5.4109995275590546
0
LINE
8
BLACK
6
CONTINUOUS
10
-4.7036512598425197
20
5.4109995275590546
11
-4.7055052755905509
21
5.409760708661417
0
LINE
8
BLACK
6
CONTINUOUS
10
-4.7055052755905509
20
5.409760708661417
11
-4.7060736614173226
21
5.4097047244094485
0
LINE
8
BLACK
6
CONTINUOUS
10
-4.7060736614173226
20
5.4097047244094485
11
-4.9673818897637796
21
5.4097047244094485
0
LINE
8
BLACK
6
CONTINUOUS
10
-4.9673818897637796
20
5.4097047244094485
11
-4.9694419685039373
21
5.4105580314960626
0
LINE
8
BLACK
6
CONTINUOUS
10
-4.9694419685039373
20
5.4105580314960626
11
-4.9702952755905514
21
5.4126181102362203
0
LINE
8
BLACK
6
CONTINUOUS
10
-4.9702952755905514
20
5.4126181102362203
11
-4.9702952755905514
21
5.496023622047244
0
LINE
8
BLACK
6
CONTINUOUS
10
-4.9702952755905514
20
5.496023622047244
11
-4.9694419685039373
21
5.4980837007874017
0
LINE
8
BLACK
6
CONTINUOUS
10
-4.9694419685039373
20
5.4980837007874017
11
-4.9673818897637796
21
5.4989370078740158
0
LINE
8
BLACK
6
CONTINUOUS
10
-4.9673818897637796
20
5.4989370078740158
11
-4.9429133858267713
21
5.4989370078740158
0
LINE
8
BLACK
6
CONTINUOUS
10
-4.9429133858267713
20
5.4989370078740158
11
-4.9429133858267713
21
5.5189370078740154
0
LINE
8
BLACK
6
CONTINUOUS
10
-4.9429133858267713
20
5.5189370078740154
11
-4.9762204724409447
21
5.5189370078740154
0
LINE
8
BLACK
6
CONTINUOUS
10
-4.9762204724409447
20
5.5189370078740154
11
-4.9799870472440944
21
5.5196862204724404
0
LINE
8
BLACK
6
CONTINUOUS
10
-4.9799870472440944
20
5.5196862204724404
11
-4.9831801968503937
21
5.5218198031496062
0
LINE
8
BLACK
6
CONTINUOUS
10
-4.9831801968503937
20
5.5218198031496062
11
-4.9853137795275586
21
5.5250129527559055
0
LINE
8
BLACK
6
CONTINUOUS
10
-4.9853137795275586
20
5.5250129527559055
11
-4.9860629921259845
21
5.5287795275590552
0
LINE
8
BLACK
6
CONTINUOUS
10
-4.9860629921259845
20
5.5287795275590552
11
-4.9860629921259845
21
5.5484645669291339
0
LINE
8
BLACK
6
CONTINUOUS
10
-4.9860629921259845
20
5.5484645669291339
11
-4.9853137795275586
21
5.5522311417322836
0
LINE
8
BLACK
6
CONTINUOUS
10
-4.9853137795275586
20
5.5522311417322836
11
-4.9831801968503937
21
5.555424291338583
0
LINE
8
BLACK
6
CONTINUOUS
10
-4.9831801968503937
20
5.555424291338583
11
-4.9799870472440944
21
5.5575578740157479
0
LINE
8
BLACK
6
CONTINUOUS
10
-4.9799870472440944
20
5.5575578740157479
11
-4.9762204724409447
21
5.5583070866141728
0
LINE
8
BLACK
6
CONTINUOUS
10
-4.9762204724409447
20
5.5583070866141728
11
-4.9429133858267713
21
5.5583070866141728
0
LINE
8
BLACK
6
CONTINUOUS
10
-4.9429133858267713
20
5.5583070866141728
11
-4.9429133858267713
21
5.5783070866141733
0
LINE
8
BLACK
6
CONTINUOUS
10
-4.9429133858267713
20
5.5783070866141733
11
-4.9673818897637796
21
5.5783070866141733
0
LINE
8
BLACK
6
CONTINUOUS
10
-4.9673818897637796
20
5.5783070866141733
11
-4.9694419685039373
21
5.5791603937007874
0
LINE
8
BLACK
6
CONTINUOUS
10
-4.9694419685039373
20
5.5791603937007874
11
-4.9702952755905514
21
5.5812204724409451
0
LINE
8
BLACK
6
CONTINUOUS
10
-4.9702952755905514
20
5.5812204724409451
11
-4.9702952755905514
21
5.716209724409449
0
LINE
8
BLACK
6
CONTINUOUS
10
-4.9702952755905514
20
5.716209724409449
11
-4.9702952755905514
21
5.7893307086614172
0
LINE
8
BLACK
6
CONTINUOUS
10
-4.9702952755905514
20
5.7893307086614172
11
-4.9694419685039373
21
5.7913907874015749
0
LINE
8
BLACK
6
CONTINUOUS
10
-4.9694419685039373
20
5.7913907874015749
11
-4.9673818897637796
21
5.792244094488189
0
LINE
8
BLACK
6
CONTINUOUS
10
-4.9673818897637796
20
5.792244094488189
11
-4.9429133858267713
21
5.792244094488189
0
LINE
8
BLACK
6
CONTINUOUS
10
-4.9429133858267713
20
5.792244094488189
11
-4.9429133858267713
21
5.8122440944881886
0
LINE
8
BLACK
6
CONTINUOUS
10
-4.9429133858267713
20
5.8122440944881886
11
-4.9762204724409447
21
5.8122440944881886
0
LINE
8
BLACK
6
CONTINUOUS
10
-4.9762204724409447
20
5.8122440944881886
11
-4.9799870472440944
21
5.8129933070866144
0
LINE
8
BLACK
6
CONTINUOUS
10
-4.9799870472440944
20
5.8129933070866144
11
-4.9831801968503937
21
5.8151268897637793
0
LINE
8
BLACK
6
CONTINUOUS
10
-4.9831801968503937
20
5.8151268897637793
11
-4.9853137795275586
21
5.8183200393700787
0
LINE
8
BLACK
6
CONTINUOUS
10
-4.9853137795275586
20
5.8183200393700787
11
-4.9860629921259845
21
5.8220866141732284
0
LINE
8
BLACK
6
CONTINUOUS
10
-4.9860629921259845
20
5.8220866141732284
11
-4.9860629921259845
21
5.8417716535433071
0
LINE
8
BLACK
6
CONTINUOUS
10
-4.9860629921259845
20
5.8417716535433071
11
-4.9853137795275586
21
5.8455382283464568
0
LINE
8
BLACK
6
CONTINUOUS
10
-4.9853137795275586
20
5.8455382283464568
11
-4.9831801968503937
21
5.8487313779527561
0
LINE
8
BLACK
6
CONTINUOUS
10
-4.9831801968503937
20
5.8487313779527561
11
-4.9799870472440944
21
5.850864960629921
0
LINE
8
BLACK
6
CONTINUOUS
10
-4.9799870472440944
20
5.850864960629921
11
-4.9762204724409447
21
5.851614173228346
0
LINE
8
BLACK
6
CONTINUOUS
10
-4.9762204724409447
20
5.851614173228346
11
-4.9429133858267713
21
5.851614173228346
0
LINE
8
BLACK
6
CONTINUOUS
10
-4.9429133858267713
20
5.851614173228346
11
-4.9429133858267713
21
5.8716141732283464
0
LINE
8
BLACK
6
CONTINUOUS
10
-4.9429133858267713
20
5.8716141732283464
11
-4.9673818897637796
21
5.8716141732283464
0
LINE
8
BLACK
6
CONTINUOUS
10
-4.9673818897637796
20
5.8716141732283464
11
-4.9694419685039373
21
5.8724674803149606
0
LINE
8
BLACK
6
CONTINUOUS
10
-4.9694419685039373
20
5.8724674803149606
11
-4.9702952755905514
21
5.8745275590551183
0
LINE
8
BLACK
6
CONTINUOUS
10
-4.9702952755905514
20
5.8745275590551183
11
-4.9702952755905514
21
5.957933070866142
0
LINE
8
BLACK
6
CONTINUOUS
10
-4.9702952755905514
20
5.957933070866142
11
-4.9694419685039373
21
5.9599931496062988
0
LINE
8
BLACK
6
CONTINUOUS
10
-4.9694419685039373
20
5.9599931496062988
11
-4.9673818897637796
21
5.9608464566929129
0
LINE
8
BLACK
6
CONTINUOUS
10
-4.9673818897637796
20
5.9608464566929129
11
-4.7060736614173226
21
5.9608464566929129
0
LINE
8
BLACK
6
CONTINUOUS
10
-4.7060736614173226
20
5.9608464566929129
11
-4.704013582677165
21
5.9599931496062988
0
LINE
8
BLACK
6
CONTINUOUS
10
-4.1359842519685035
20
5.526791141732283
11
-4.1355666929133861
21
5.5227037007874014
0
LINE
8
BLACK
6
CONTINUOUS
10
-4.1355666929133861
20
5.5227037007874014
11
-4.1333723622047245
21
5.516081692913386
0
LINE
8
BLACK
6
CONTINUOUS
10
-4.1333723622047245
20
5.516081692913386
11
-4.129710039370079
21
5.510144133858268
0
LINE
8
BLACK
6
CONTINUOUS
10
-4.129710039370079
20
5.510144133858268
11
-4.1247771259842523
21
5.5052112204724404
0
LINE
8
BLACK
6
CONTINUOUS
10
-4.1247771259842523
20
5.5052112204724404
11
-4.1188395669291333
21
5.5015488976377949
0
LINE
8
BLACK
6
CONTINUOUS
10
-4.1188395669291333
20
5.5015488976377949
11
-4.112217559055118
21
5.4993545669291342
0
LINE
8
BLACK
6
CONTINUOUS
10
-4.112217559055118
20
5.4993545669291342
11
-4.1081301181102363
21
5.4989370078740158
0
LINE
8
BLACK
6
CONTINUOUS
10
-4.1081301181102363
20
5.4989370078740158
11
-4.0728346456692917
21
5.4989370078740158
0
LINE
8
BLACK
6
CONTINUOUS
10
-4.0728346456692917
20
5.4989370078740158
11
-4.0728346456692917
21
5.5189370078740154
0
LINE
8
BLACK
6
CONTINUOUS
10
-4.0728346456692917
20
5.5189370078740154
11
-4.1061417322834641
21
5.5189370078740154
0
LINE
8
BLACK
6
CONTINUOUS
10
-4.1061417322834641
20
5.5189370078740154
11
-4.1099083070866138
21
5.5196862204724404
0
LINE
8
BLACK
6
CONTINUOUS
10
-4.1099083070866138
20
5.5196862204724404
11
-4.1131014566929132
21
5.5218198031496062
0
LINE
8
BLACK
6
CONTINUOUS
10
-4.1131014566929132
20
5.5218198031496062
11
-4.115235039370079
21
5.5250129527559055
0
LINE
8
BLACK
6
CONTINUOUS
10
-4.115235039370079
20
5.5250129527559055
11
-4.1159529133858266
21
5.5286220472440943
0
LINE
8
BLACK
6
CONTINUOUS
10
-4.1159529133858266
20
5.5286220472440943
11
-4.1359842519685035
21
5.5286220472440943
0
LINE
8
BLACK
6
CONTINUOUS
10
-4.1359842519685035
20
5.5286220472440943
11
-4.1359842519685035
21
5.526791141732283
0
LINE
8
BLACK
6
CONTINUOUS
10
-4.9229133858267717
20
5.5583070866141728
11
-4.8896062992125984
21
5.5583070866141728
0
LINE
8
BLACK
6
CONTINUOUS
10
-4.8896062992125984
20
5.5583070866141728
11
-4.8858397244094487
21
5.5575578740157479
0
LINE
8
BLACK
6
CONTINUOUS
10
-4.8858397244094487
20
5.5575578740157479
11
-4.8826465748031493
21
5.555424291338583
0
LINE
8
BLACK
6
CONTINUOUS
10
-4.8826465748031493
20
5.555424291338583
11
-4.8805129921259844
21
5.5522311417322836
0
LINE
8
BLACK
6
CONTINUOUS
10
-4.8805129921259844
20
5.5522311417322836
11
-4.8797951181102359
21
5.5486220472440948
0
LINE
8
BLACK
6
CONTINUOUS
10
-4.8797951181102359
20
5.5486220472440948
11
-4.859763779527559
21
5.5486220472440948
0
LINE
8
BLACK
6
CONTINUOUS
10
-4.859763779527559
20
5.5486220472440948
11
-4.859763779527559
21
5.550452834645669
0
LINE
8
BLACK
6
CONTINUOUS
10
-4.859763779527559
20
5.550452834645669
11
-4.8597638188976378
21
5.5504529133858265
0
LINE
8
BLACK
6
CONTINUOUS
10
-4.8597638188976378
20
5.5504529133858265
11
-4.8601813779527561
21
5.5545403543307081
0
LINE
8
BLACK
6
CONTINUOUS
10
-4.8601813779527561
20
5.5545403543307081
11
-4.8623757086614168
21
5.5611623622047244
0
LINE
8
BLACK
6
CONTINUOUS
10
-4.8623757086614168
20
5.5611623622047244
11
-4.8660380314960632
21
5.5670999212598424
0
LINE
8
BLACK
6
CONTINUOUS
10
-4.8660380314960632
20
5.5670999212598424
11
-4.8660381102362207
21
5.5671000787401574
0
LINE
8
BLACK
6
CONTINUOUS
10
-4.8660381102362207
20
5.5671000787401574
11
-4.8709707874015749
21
5.5720327559055116
0
LINE
8
BLACK
6
CONTINUOUS
10
-4.8709707874015749
20
5.5720327559055116
11
-4.8709709448818899
21
5.5720328346456691
0
LINE
8
BLACK
6
CONTINUOUS
10
-4.8709709448818899
20
5.5720328346456691
11
-4.8769085039370079
21
5.5756951574803146
0
LINE
8
BLACK
6
CONTINUOUS
10
-4.8769085039370079
20
5.5756951574803146
11
-4.8835305118110233
21
5.5778894881889762
0
LINE
8
BLACK
6
CONTINUOUS
10
-4.8835305118110233
20
5.5778894881889762
11
-4.8876179527559058
21
5.5783070472440945
0
LINE
8
BLACK
6
CONTINUOUS
10
-4.8876179527559058
20
5.5783070472440945
11
-4.8876180314960624
21
5.5783070866141733
0
LINE
8
BLACK
6
CONTINUOUS
10
-4.8876180314960624
20
5.5783070866141733
11
-4.9229133858267717
21
5.5783070866141733
0
LINE
8
BLACK
6
CONTINUOUS
10
-4.9229133858267717
20
5.5783070866141733
11
-4.9229133858267717
21
5.5583070866141728
0
LINE
8
BLACK
6
CONTINUOUS
10
-4.1081301181102363
20
5.5783070472440945
11
-4.112217559055118
21
5.5778894881889762
0
LINE
8
BLACK
6
CONTINUOUS
10
-4.112217559055118
20
5.5778894881889762
11
-4.1188395669291333
21
5.5756951574803146
0
LINE
8
BLACK
6
CONTINUOUS
10
-4.1188395669291333
20
5.5756951574803146
11
-4.1247771259842523
21
5.5720328346456691
0
LINE
8
BLACK
6
CONTINUOUS
10
-4.1247771259842523
20
5.5720328346456691
11
-4.1247772440944885
21
5.5720327559055116
0
LINE
8
BLACK
6
CONTINUOUS
10
-4.1247772440944885
20
5.5720327559055116
11
-4.1297099212598427
21
5.5671000787401574
0
LINE
8
BLACK
6
CONTINUOUS
10
-4.1297099212598427
20
5.5671000787401574
11
-4.129710039370079
21
5.5670999212598424
0
LINE
8
BLACK
6
CONTINUOUS
10
-4.129710039370079
20
5.5670999212598424
11
-4.1333723622047245
21
5.5611623622047244
0
LINE
8
BLACK
6
CONTINUOUS
10
-4.1333723622047245
20
5.5611623622047244
11
-4.1355666929133861
21
5.5545403543307081
0
LINE
8
BLACK
6
CONTINUOUS
10
-4.1355666929133861
20
5.5545403543307081
11
-4.1359842519685035
21
5.5504529133858265
0
LINE
8
BLACK
6
CONTINUOUS
10
-4.1359842519685035
20
5.5504529133858265
11
-4.1359842519685035
21
5.5486220472440948
0
LINE
8
BLACK
6
CONTINUOUS
10
-4.1359842519685035
20
5.5486220472440948
11
-4.1159529133858266
21
5.5486220472440948
0
LINE
8
BLACK
6
CONTINUOUS
10
-4.1159529133858266
20
5.5486220472440948
11
-4.115235039370079
21
5.5522311417322836
0
LINE
8
BLACK
6
CONTINUOUS
10
-4.115235039370079
20
5.5522311417322836
11
-4.1131014566929132
21
5.555424291338583
0
LINE
8
BLACK
6
CONTINUOUS
10
-4.1131014566929132
20
5.555424291338583
11
-4.1099083070866138
21
5.5575578740157479
0
LINE
8
BLACK
6
CONTINUOUS
10
-4.1099083070866138
20
5.5575578740157479
11
-4.1061417322834641
21
5.5583070866141728
0
LINE
8
BLACK
6
CONTINUOUS
10
-4.1061417322834641
20
5.5583070866141728
11
-4.0728346456692917
21
5.5583070866141728
0
LINE
8
BLACK
6
CONTINUOUS
10
-4.0728346456692917
20
5.5583070866141728
11
-4.0728346456692917
21
5.5783070866141733
0
LINE
8
BLACK
6
CONTINUOUS
10
-4.0728346456692917
20
5.5783070866141733
11
-4.1081300000000001
21
5.5783070866141733
0
LINE
8
BLACK
6
CONTINUOUS
10
-4.1081300000000001
20
5.5783070866141733
11
-4.1081301181102363
21
5.5783070472440945
0
LINE
8
BLACK
6
CONTINUOUS
10
-4.7751942519685038
20
5.6013753543307088
11
-4.7771101181102358
21
5.6000951968503934
0
LINE
8
BLACK
6
CONTINUOUS
10
-4.7771101181102358
20
5.6000951968503934
11
-4.7793700787401576
21
5.5996456692913386
0
LINE
8
BLACK
6
CONTINUOUS
10
-4.7793700787401576
20
5.5996456692913386
11
-4.796929133858268
21
5.5996456692913386
0
LINE
8
BLACK
6
CONTINUOUS
10
-4.796929133858268
20
5.5996456692913386
11
-4.796929133858268
21
5.5796456692913381
0
LINE
8
BLACK
6
CONTINUOUS
10
-4.796929133858268
20
5.5796456692913381
11
-4.7767537795275592
21
5.5796456692913381
0
LINE
8
BLACK
6
CONTINUOUS
10
-4.7767537795275592
20
5.5796456692913381
11
-4.7767537007874017
21
5.5796457086614168
0
LINE
8
BLACK
6
CONTINUOUS
10
-4.7767537007874017
20
5.5796457086614168
11
-4.7752853543307081
21
5.5797612204724407
0
LINE
8
BLACK
6
CONTINUOUS
10
-4.7752853543307081
20
5.5797612204724407
11
-4.7689999606299214
21
5.581587322834646
0
LINE
8
BLACK
6
CONTINUOUS
10
-4.7689999606299214
20
5.581587322834646
11
-4.7633662204724407
21
5.584919094488189
0
LINE
8
BLACK
6
CONTINUOUS
10
-4.7633662204724407
20
5.584919094488189
11
-4.7587380314960628
21
5.589547283464567
0
LINE
8
BLACK
6
CONTINUOUS
10
-4.7587380314960628
20
5.589547283464567
11
-4.7554062598425197
21
5.5951810236220467
0
LINE
8
BLACK
6
CONTINUOUS
10
-4.7554062598425197
20
5.5951810236220467
11
-4.753582952755905
21
5.601456692913386
0
LINE
8
BLACK
6
CONTINUOUS
10
-4.753582952755905
20
5.601456692913386
11
-4.775139921259842
21
5.601456692913386
0
LINE
8
BLACK
6
CONTINUOUS
10
-4.775139921259842
20
5.601456692913386
11
-4.7751942519685038
21
5.6013753543307088
0
LINE
8
BLACK
6
CONTINUOUS
10
-4.2203183858267712
20
5.8526173228346456
11
-4.223913858267716
21
5.8546931889763778
0
LINE
8
BLACK
6
CONTINUOUS
10
-4.223913858267716
20
5.8546931889763778
11
-4.2279241338582674
21
5.8557677165354329
0
LINE
8
BLACK
6
CONTINUOUS
10
-4.2279241338582674
20
5.8557677165354329
11
-4.2279241732283461
21
5.8557677165354329
0
LINE
8
BLACK
6
CONTINUOUS
10
-4.2279241732283461
20
5.8557677165354329
11
-4.4608625196850396
21
5.8557677165354329
0
LINE
8
BLACK
6
CONTINUOUS
10
-4.4608625196850396
20
5.8557677165354329
11
-4.4629225984251963
21
5.8566210236220471
0
LINE
8
BLACK
6
CONTINUOUS
10
-4.4629225984251963
20
5.8566210236220471
11
-4.4630975984251968
21
5.8568205118110237
0
LINE
8
BLACK
6
CONTINUOUS
10
-4.4630975984251968
20
5.8568205118110237
11
-4.4631383858267712
21
5.8568612992125981
0
LINE
8
BLACK
6
CONTINUOUS
10
-4.4631383858267712
20
5.8568612992125981
11
-4.4631385039370075
21
5.8568614960629919
0
LINE
8
BLACK
6
CONTINUOUS
10
-4.4631385039370075
20
5.8568614960629919
11
-4.4680771259842516
21
5.8606510236220473
0
LINE
8
BLACK
6
CONTINUOUS
10
-4.4680771259842516
20
5.8606510236220473
11
-4.4738282677165353
21
5.8630332283464561
0
LINE
8
BLACK
6
CONTINUOUS
10
-4.4738282677165353
20
5.8630332283464561
11
-4.4799999999999995
21
5.8638457480314958
0
LINE
8
BLACK
6
CONTINUOUS
10
-4.4799999999999995
20
5.8638457480314958
11
-4.4861717322834647
21
5.8630332283464561
0
LINE
8
BLACK
6
CONTINUOUS
10
-4.4861717322834647
20
5.8630332283464561
11
-4.4919228740157475
21
5.8606510236220473
0
LINE
8
BLACK
6
CONTINUOUS
10
-4.4919228740157475
20
5.8606510236220473
11
-4.4919229133858263
21
5.8606509842519685
0
LINE
8
BLACK
6
CONTINUOUS
10
-4.4919229133858263
20
5.8606509842519685
11
-4.4968613385826774
21
5.8568616535433069
0
LINE
8
BLACK
6
CONTINUOUS
10
-4.4968613385826774
20
5.8568616535433069
11
-4.4969963385826768
21
5.8567266141732279
0
LINE
8
BLACK
6
CONTINUOUS
10
-4.4969963385826768
20
5.8567266141732279
11
-4.4970487401574806
21
5.856778976377953
0
LINE
8
BLACK
6
CONTINUOUS
10
-4.4970487401574806
20
5.856778976377953
11
-4.4987572834645668
21
5.8557926377952754
0
LINE
8
BLACK
6
CONTINUOUS
10
-4.4987572834645668
20
5.8557926377952754
11
-4.4991374803149604
21
5.8557677165354329
0
LINE
8
BLACK
6
CONTINUOUS
10
-4.4991374803149604
20
5.8557677165354329
11
-4.5437509055118106
21
5.8557677165354329
0
LINE
8
BLACK
6
CONTINUOUS
10
-4.5437509055118106
20
5.8557677165354329
11
-4.5479026377952758
21
5.8557677165354329
0
LINE
8
BLACK
6
CONTINUOUS
10
-4.5479026377952758
20
5.8557677165354329
11
-4.5519129133858263
21
5.8546931889763778
0
LINE
8
BLACK
6
CONTINUOUS
10
-4.5519129133858263
20
5.8546931889763778
11
-4.555508385826772
21
5.8526173228346456
0
LINE
8
BLACK
6
CONTINUOUS
10
-4.555508385826772
20
5.8526173228346456
11
-4.5955083858267711
21
5.8126173228346456
0
LINE
8
BLACK
6
CONTINUOUS
10
-4.5955083858267711
20
5.8126173228346456
11
-4.6315046850393697
21
5.776621023622047
0
LINE
8
BLACK
6
CONTINUOUS
10
-4.6315046850393697
20
5.776621023622047
11
-4.6335647637795274
21
5.7757677165354329
0
LINE
8
BLACK
6
CONTINUOUS
10
-4.6335647637795274
20
5.7757677165354329
11
-4.7158625196850394
21
5.7757677165354329
0
LINE
8
BLACK
6
CONTINUOUS
10
-4.7158625196850394
20
5.7757677165354329
11
-4.7179225984251971
21
5.776621023622047
0
LINE
8
BLACK
6
CONTINUOUS
10
-4.7179225984251971
20
5.776621023622047
11
-4.7180975984251967
21
5.7768205118110236
0
LINE
8
BLACK
6
CONTINUOUS
10
-4.7180975984251967
20
5.7768205118110236
11
-4.7181383858267711
21
5.7768612992125981
0
LINE
8
BLACK
6
CONTINUOUS
10
-4.7181383858267711
20
5.7768612992125981
11
-4.7181385039370074
21
5.7768614960629918
0
LINE
8
BLACK
6
CONTINUOUS
10
-4.7181385039370074
20
5.7768614960629918
11
-4.7230771259842514
21
5.7806510236220472
0
LINE
8
BLACK
6
CONTINUOUS
10
-4.7230771259842514
20
5.7806510236220472
11
-4.7288282677165352
21
5.7830332283464569
0
LINE
8
BLACK
6
CONTINUOUS
10
-4.7288282677165352
20
5.7830332283464569
11
-4.7350000000000003
21
5.7838457480314958
0
LINE
8
BLACK
6
CONTINUOUS
10
-4.7350000000000003
20
5.7838457480314958
11
-4.7411717322834646
21
5.7830332283464569
0
LINE
8
BLACK
6
CONTINUOUS
10
-4.7411717322834646
20
5.7830332283464569
11
-4.7469228740157483
21
5.7806510236220472
0
LINE
8
BLACK
6
CONTINUOUS
10
-4.7469228740157483
20
5.7806510236220472
11
-4.7469229133858271
21
5.7806509842519684
0
LINE
8
BLACK
6
CONTINUOUS
10
-4.7469229133858271
20
5.7806509842519684
11
-4.7518613385826773
21
5.7768616535433068
0
LINE
8
BLACK
6
CONTINUOUS
10
-4.7518613385826773
20
5.7768616535433068
11
-4.7519963385826767
21
5.7767266141732279
0
LINE
8
BLACK
6
CONTINUOUS
10
-4.7519963385826767
20
5.7767266141732279
11
-4.7520487401574805
21
5.7767789763779529
0
LINE
8
BLACK
6
CONTINUOUS
10
-4.7520487401574805
20
5.7767789763779529
11
-4.7537572834645667
21
5.7757926377952753
0
LINE
8
BLACK
6
CONTINUOUS
10
-4.7537572834645667
20
5.7757926377952753
11
-4.7541374803149603
21
5.7757677165354329
0
LINE
8
BLACK
6
CONTINUOUS
10
-4.7541374803149603
20
5.7757677165354329
11
-4.7694418897637796
21
5.7757677165354329
0
LINE
8
BLACK
6
CONTINUOUS
10
-4.7694418897637796
20
5.7757677165354329
11
-4.7711347244094489
21
5.7763099999999996
0
LINE
8
BLACK
6
CONTINUOUS
10
-4.7711347244094489
20
5.7763099999999996
11
-4.771240748031496
21
5.7763856299212595
0
LINE
8
BLACK
6
CONTINUOUS
10
-4.771240748031496
20
5.7763856299212595
11
-4.7712408267716535
21
5.7763857480314957
0
LINE
8
BLACK
6
CONTINUOUS
10
-4.7712408267716535
20
5.7763857480314957
11
-4.7753782283464563
21
5.7784083858267712
0
LINE
8
BLACK
6
CONTINUOUS
10
-4.7753782283464563
20
5.7784083858267712
11
-4.77806062992126
21
5.7787992125984253
0
LINE
8
BLACK
6
CONTINUOUS
10
-4.77806062992126
20
5.7787992125984253
11
-4.8357976377952756
21
5.7787992125984253
0
LINE
8
BLACK
6
CONTINUOUS
10
-4.8357976377952756
20
5.7787992125984253
11
-4.8384800393700784
21
5.7784083858267712
0
LINE
8
BLACK
6
CONTINUOUS
10
-4.8384800393700784
20
5.7784083858267712
11
-4.8384801181102359
21
5.7784083464566924
0
LINE
8
BLACK
6
CONTINUOUS
10
-4.8384801181102359
20
5.7784083464566924
11
-4.8426174409448821
21
5.7763857480314957
0
LINE
8
BLACK
6
CONTINUOUS
10
-4.8426174409448821
20
5.7763857480314957
11
-4.8432876771653541
21
5.7757155118110237
0
LINE
8
BLACK
6
CONTINUOUS
10
-4.8432876771653541
20
5.7757155118110237
11
-4.8453477559055118
21
5.7748622047244096
0
LINE
8
BLACK
6
CONTINUOUS
10
-4.8453477559055118
20
5.7748622047244096
11
-4.8629635039370074
21
5.7748622047244096
0
LINE
8
BLACK
6
CONTINUOUS
10
-4.8629635039370074
20
5.7748622047244096
11
-4.8671152362204726
21
5.7748622047244096
0
LINE
8
BLACK
6
CONTINUOUS
10
-4.8671152362204726
20
5.7748622047244096
11
-4.8711255118110239
21
5.7737876771653545
0
LINE
8
BLACK
6
CONTINUOUS
10
-4.8711255118110239
20
5.7737876771653545
11
-4.8711257086614168
21
5.7737875590551182
0
LINE
8
BLACK
6
CONTINUOUS
10
-4.8711257086614168
20
5.7737875590551182
11
-4.8744127559055119
21
5.7718897637795274
0
LINE
8
BLACK
6
CONTINUOUS
10
-4.8744127559055119
20
5.7718897637795274
11
-4.8747209842519688
21
5.7717118110236223
0
LINE
8
BLACK
6
CONTINUOUS
10
-4.8747209842519688
20
5.7717118110236223
11
-4.9226173228346459
21
5.7238154724409451
0
LINE
8
BLACK
6
CONTINUOUS
10
-4.9226173228346459
20
5.7238154724409451
11
-4.9226174015748034
21
5.7238153543307089
0
LINE
8
BLACK
6
CONTINUOUS
10
-4.9226174015748034
20
5.7238153543307089
11
-4.9226174409448822
21
5.7238153149606301
0
LINE
8
BLACK
6
CONTINUOUS
10
-4.9226174409448822
20
5.7238153149606301
11
-4.9246931889763781
21
5.7202200393700782
0
LINE
8
BLACK
6
CONTINUOUS
10
-4.9246931889763781
20
5.7202200393700782
11
-4.9246932283464568
21
5.720219881889764
0
LINE
8
BLACK
6
CONTINUOUS
10
-4.9246932283464568
20
5.720219881889764
11
-4.9249581102362203
21
5.7192314566929134
0
LINE
8
BLACK
6
CONTINUOUS
10
-4.9249581102362203
20
5.7192314566929134
11
-4.9249580708661416
21
5.7192314566929134
0
LINE
8
BLACK
6
CONTINUOUS
10
-4.9249580708661416
20
5.7192314566929134
11
-4.9257677165354332
21
5.716209724409449
0
LINE
8
BLACK
6
CONTINUOUS
10
-4.9257677165354332
20
5.716209724409449
11
-4.9257677165354332
21
5.6420758661417318
0
LINE
8
BLACK
6
CONTINUOUS
10
-4.9257677165354332
20
5.6420758661417318
11
-4.9257677165354332
21
5.6379241338582675
0
LINE
8
BLACK
6
CONTINUOUS
10
-4.9257677165354332
20
5.6379241338582675
11
-4.925339251968504
21
5.6363251181102365
0
LINE
8
BLACK
6
CONTINUOUS
10
-4.925339251968504
20
5.6363251181102365
11
-4.9246931889763781
21
5.6339138188976374
0
LINE
8
BLACK
6
CONTINUOUS
10
-4.9246931889763781
20
5.6339138188976374
11
-4.9246931102362206
21
5.6339136614173224
0
LINE
8
BLACK
6
CONTINUOUS
10
-4.9246931102362206
20
5.6339136614173224
11
-4.9226174409448822
21
5.6303185039370076
0
LINE
8
BLACK
6
CONTINUOUS
10
-4.9226174409448822
20
5.6303185039370076
11
-4.8976174015748031
21
5.6053184645669294
0
LINE
8
BLACK
6
CONTINUOUS
10
-4.8976174015748031
20
5.6053184645669294
11
-4.8946816535433069
21
5.6023826771653544
0
LINE
8
BLACK
6
CONTINUOUS
10
-4.8946816535433069
20
5.6023826771653544
11
-4.891086181102362
21
5.6003068110236223
0
LINE
8
BLACK
6
CONTINUOUS
10
-4.891086181102362
20
5.6003068110236223
11
-4.8910859842519683
21
5.6003067322834648
0
LINE
8
BLACK
6
CONTINUOUS
10
-4.8910859842519683
20
5.6003067322834648
11
-4.8870759842519682
21
5.5992322440944884
0
LINE
8
BLACK
6
CONTINUOUS
10
-4.8870759842519682
20
5.5992322440944884
11
-4.8841374409448814
21
5.5992322440944884
0
LINE
8
BLACK
6
CONTINUOUS
10
-4.8841374409448814
20
5.5992322440944884
11
-4.8820773622047247
21
5.5983789370078743
0
LINE
8
BLACK
6
CONTINUOUS
10
-4.8820773622047247
20
5.5983789370078743
11
-4.8819025196850392
21
5.5981795275590551
0
LINE
8
BLACK
6
CONTINUOUS
10
-4.8819025196850392
20
5.5981795275590551
11
-4.8818613385826772
21
5.5981383070866144
0
LINE
8
BLACK
6
CONTINUOUS
10
-4.8818613385826772
20
5.5981383070866144
11
-4.876922913385827
21
5.5943489763779528
0
LINE
8
BLACK
6
CONTINUOUS
10
-4.876922913385827
20
5.5943489763779528
11
-4.8711717322834645
21
5.5919667322834643
0
LINE
8
BLACK
6
CONTINUOUS
10
-4.8711717322834645
20
5.5919667322834643
11
-4.865000039370079
21
5.5911542519685042
0
LINE
8
BLACK
6
CONTINUOUS
10
-4.865000039370079
20
5.5911542519685042
11
-4.8650000000000002
21
5.5911542519685042
0
LINE
8
BLACK
6
CONTINUOUS
10
-4.8650000000000002
20
5.5911542519685042
11
-4.8588282677165351
21
5.5919667716535431
0
LINE
8
BLACK
6
CONTINUOUS
10
-4.8588282677165351
20
5.5919667716535431
11
-4.8586389763779527
21
5.5919916929133855
0
LINE
8
BLACK
6
CONTINUOUS
10
-4.8586389763779527
20
5.5919916929133855
11
-4.8586233464566924
21
5.5918729133858269
0
LINE
8
BLACK
6
CONTINUOUS
10
-4.8586233464566924
20
5.5918729133858269
11
-4.856783622047244
21
5.5916275196850389
0
LINE
8
BLACK
6
CONTINUOUS
10
-4.856783622047244
20
5.5916275196850389
11
-4.8557370078740156
21
5.5905900787401572
0
LINE
8
BLACK
6
CONTINUOUS
10
-4.8557370078740156
20
5.5905900787401572
11
-4.8551203149606295
21
5.5895473228346457
0
LINE
8
BLACK
6
CONTINUOUS
10
-4.8551203149606295
20
5.5895473228346457
11
-4.8504920866141727
21
5.584919094488189
0
LINE
8
BLACK
6
CONTINUOUS
10
-4.8504920866141727
20
5.584919094488189
11
-4.844858346456693
21
5.581587322834646
0
LINE
8
BLACK
6
CONTINUOUS
10
-4.844858346456693
20
5.581587322834646
11
-4.8385730314960629
21
5.5797612204724407
0
LINE
8
BLACK
6
CONTINUOUS
10
-4.8385730314960629
20
5.5797612204724407
11
-4.8371045669291339
21
5.5796456692913381
0
LINE
8
BLACK
6
CONTINUOUS
10
-4.8371045669291339
20
5.5796456692913381
11
-4.8169291338582676
21
5.5796456692913381
0
LINE
8
BLACK
6
CONTINUOUS
10
-4.8169291338582676
20
5.5796456692913381
11
-4.8169291338582676
21
5.5996456692913386
0
LINE
8
BLACK
6
CONTINUOUS
10
-4.8169291338582676
20
5.5996456692913386
11
-4.834488188976378
21
5.5996456692913386
0
LINE
8
BLACK
6
CONTINUOUS
10
-4.834488188976378
20
5.5996456692913386
11
-4.836748149606299
21
5.6000951968503934
0
LINE
8
BLACK
6
CONTINUOUS
10
-4.836748149606299
20
5.6000951968503934
11
-4.838664015748031
21
5.6013753543307088
0
LINE
8
BLACK
6
CONTINUOUS
10
-4.838664015748031
20
5.6013753543307088
11
-4.8399441732283464
21
5.6032912204724408
0
LINE
8
BLACK
6
CONTINUOUS
10
-4.8399441732283464
20
5.6032912204724408
11
-4.8403937007874012
21
5.6055511811023617
0
LINE
8
BLACK
6
CONTINUOUS
10
-4.8403937007874012
20
5.6055511811023617
11
-4.8403937007874012
21
5.6173622047244089
0
LINE
8
BLACK
6
CONTINUOUS
10
-4.8403937007874012
20
5.6173622047244089
11
-4.8399441732283464
21
5.6196221653543308
0
LINE
8
BLACK
6
CONTINUOUS
10
-4.8399441732283464
20
5.6196221653543308
11
-4.838664015748031
21
5.6215380314960628
0
LINE
8
BLACK
6
CONTINUOUS
10
-4.838664015748031
20
5.6215380314960628
11
-4.836748149606299
21
5.6228181889763782
0
LINE
8
BLACK
6
CONTINUOUS
10
-4.836748149606299
20
5.6228181889763782
11
-4.834488188976378
21
5.623267716535433
0
LINE
8
BLACK
6
CONTINUOUS
10
-4.834488188976378
20
5.623267716535433
11
-4.7793700787401576
21
5.623267716535433
0
LINE
8
BLACK
6
CONTINUOUS
10
-4.7793700787401576
20
5.623267716535433
11
-4.7771101181102358
21
5.6228181889763782
0
LINE
8
BLACK
6
CONTINUOUS
10
-4.7771101181102358
20
5.6228181889763782
11
-4.7751942519685038
21
5.6215380314960628
0
LINE
8
BLACK
6
CONTINUOUS
10
-4.7751942519685038
20
5.6215380314960628
11
-4.775139921259842
21
5.6214566929133856
0
LINE
8
BLACK
6
CONTINUOUS
10
-4.775139921259842
20
5.6214566929133856
11
-4.753582952755905
21
5.6214566929133856
0
LINE
8
BLACK
6
CONTINUOUS
10
-4.753582952755905
20
5.6214566929133856
11
-4.7554062598425197
21
5.6277323228346452
0
LINE
8
BLACK
6
CONTINUOUS
10
-4.7554062598425197
20
5.6277323228346452
11
-4.7587380314960628
21
5.6333660629921258
0
LINE
8
BLACK
6
CONTINUOUS
10
-4.7587380314960628
20
5.6333660629921258
11
-4.7633662204724407
21
5.6379942519685038
0
LINE
8
BLACK
6
CONTINUOUS
10
-4.7633662204724407
20
5.6379942519685038
11
-4.7658793307086613
21
5.6394805118110236
0
LINE
8
BLACK
6
CONTINUOUS
10
-4.7658793307086613
20
5.6394805118110236
11
-4.7672181496062995
21
5.641263661417323
0
LINE
8
BLACK
6
CONTINUOUS
10
-4.7672181496062995
20
5.641263661417323
11
-4.7669039763779528
21
5.6434712204724411
0
LINE
8
BLACK
6
CONTINUOUS
10
-4.7669039763779528
20
5.6434712204724411
11
-4.7651208267716534
21
5.6448100393700784
0
LINE
8
BLACK
6
CONTINUOUS
10
-4.7651208267716534
20
5.6448100393700784
11
-4.7643962992125983
21
5.6449015748031499
0
LINE
8
BLACK
6
CONTINUOUS
10
-4.7643962992125983
20
5.6449015748031499
11
-4.6552485826771655
21
5.6449015748031499
0
LINE
8
BLACK
6
CONTINUOUS
10
-4.6552485826771655
20
5.6449015748031499
11
-4.6550000000000002
21
5.6449409448818892
0
LINE
8
BLACK
6
CONTINUOUS
10
-4.6550000000000002
20
5.6449409448818892
11
-4.6547514173228342
21
5.6449015748031499
0
LINE
8
BLACK
6
CONTINUOUS
10
-4.6547514173228342
20
5.6449015748031499
11
-4.489255
21
5.6449015748031499
0
LINE
8
BLACK
6
CONTINUOUS
10
-4.489255
20
5.6449015748031499
11
-4.4871949212598423
21
5.6440482677165349
0
LINE
8
BLACK
6
CONTINUOUS
10
-4.4871949212598423
20
5.6440482677165349
11
-4.4869435826771653
21
5.6437616535433071
0
LINE
8
BLACK
6
CONTINUOUS
10
-4.4869435826771653
20
5.6437616535433071
11
-4.4867609055118107
21
5.6435235433070865
0
LINE
8
BLACK
6
CONTINUOUS
10
-4.4867609055118107
20
5.6435235433070865
11
-4.4867608267716532
21
5.6435234251968502
0
LINE
8
BLACK
6
CONTINUOUS
10
-4.4867608267716532
20
5.6435234251968502
11
-4.4818222440944879
21
5.6397339370078736
0
LINE
8
BLACK
6
CONTINUOUS
10
-4.4818222440944879
20
5.6397339370078736
11
-4.4760710629921263
21
5.637351692913386
0
LINE
8
BLACK
6
CONTINUOUS
10
-4.4760710629921263
20
5.637351692913386
11
-4.4698993307086612
21
5.6365392125984251
0
LINE
8
BLACK
6
CONTINUOUS
10
-4.4698993307086612
20
5.6365392125984251
11
-4.4637276771653545
21
5.637351692913386
0
LINE
8
BLACK
6
CONTINUOUS
10
-4.4637276771653545
20
5.637351692913386
11
-4.4637276377952757
21
5.637351692913386
0
LINE
8
BLACK
6
CONTINUOUS
10
-4.4637276377952757
20
5.637351692913386
11
-4.4579764566929132
21
5.6397339370078736
0
LINE
8
BLACK
6
CONTINUOUS
10
-4.4579764566929132
20
5.6397339370078736
11
-4.4530379527559054
21
5.6435233464566927
0
LINE
8
BLACK
6
CONTINUOUS
10
-4.4530379527559054
20
5.6435233464566927
11
-4.4530377559055117
21
5.6435235433070865
0
LINE
8
BLACK
6
CONTINUOUS
10
-4.4530377559055117
20
5.6435235433070865
11
-4.4499087007874012
21
5.6476014173228348
0
LINE
8
BLACK
6
CONTINUOUS
10
-4.4499087007874012
20
5.6476014173228348
11
-4.4479776377952751
21
5.6487163385826769
0
LINE
8
BLACK
6
CONTINUOUS
10
-4.4479776377952751
20
5.6487163385826769
11
-4.4458238188976376
21
5.6481392125984247
0
LINE
8
BLACK
6
CONTINUOUS
10
-4.4458238188976376
20
5.6481392125984247
11
-4.4452860236220468
21
5.6476014173228348
0
LINE
8
BLACK
6
CONTINUOUS
10
-4.4452860236220468
20
5.6476014173228348
11
-4.4418616141732281
21
5.6431385826771656
0
LINE
8
BLACK
6
CONTINUOUS
10
-4.4418616141732281
20
5.6431385826771656
11
-4.4418614173228343
21
5.6431383858267719
0
LINE
8
BLACK
6
CONTINUOUS
10
-4.4418614173228343
20
5.6431383858267719
11
-4.4369229133858266
21
5.6393489763779527
0
LINE
8
BLACK
6
CONTINUOUS
10
-4.4369229133858266
20
5.6393489763779527
11
-4.4311717322834641
21
5.6369667322834642
0
LINE
8
BLACK
6
CONTINUOUS
10
-4.4311717322834641
20
5.6369667322834642
11
-4.4249999999999998
21
5.6361542519685042
0
LINE
8
BLACK
6
CONTINUOUS
10
-4.4249999999999998
20
5.6361542519685042
11
-4.4188283464566931
21
5.6369667322834642
0
LINE
8
BLACK
6
CONTINUOUS
10
-4.4188283464566931
20
5.6369667322834642
11
-4.4188283070866143
21
5.6369667322834642
0
LINE
8
BLACK
6
CONTINUOUS
10
-4.4188283070866143
20
5.6369667322834642
11
-4.4130771259842518
21
5.6393489763779527
0
LINE
8
BLACK
6
CONTINUOUS
10
-4.4130771259842518
20
5.6393489763779527
11
-4.408138622047244
21
5.6431383858267719
0
LINE
8
BLACK
6
CONTINUOUS
10
-4.408138622047244
20
5.6431383858267719
11
-4.4081384251968503
21
5.6431385826771656
0
LINE
8
BLACK
6
CONTINUOUS
10
-4.4081384251968503
20
5.6431385826771656
11
-4.4054559055118112
21
5.6466345275590548
0
LINE
8
BLACK
6
CONTINUOUS
10
-4.4054559055118112
20
5.6466345275590548
11
-4.4043489763779524
21
5.6480771259842522
0
LINE
8
BLACK
6
CONTINUOUS
10
-4.4043489763779524
20
5.6480771259842522
11
-4.4019667716535436
21
5.653828267716535
0
LINE
8
BLACK
6
CONTINUOUS
10
-4.4019667716535436
20
5.653828267716535
11
-4.4011542519685038
21
5.6600000000000001
0
LINE
8
BLACK
6
CONTINUOUS
10
-4.4011542519685038
20
5.6600000000000001
11
-4.4019667716535436
21
5.6661717322834644
0
LINE
8
BLACK
6
CONTINUOUS
10
-4.4019667716535436
20
5.6661717322834644
11
-4.4043489763779524
21
5.6719228740157481
0
LINE
8
BLACK
6
CONTINUOUS
10
-4.4043489763779524
20
5.6719228740157481
11
-4.4081385039370078
21
5.6768614960629922
0
LINE
8
BLACK
6
CONTINUOUS
10
-4.4081385039370078
20
5.6768614960629922
11
-4.4130771259842518
21
5.6806510236220475
0
LINE
8
BLACK
6
CONTINUOUS
10
-4.4130771259842518
20
5.6806510236220475
11
-4.4188282677165356
21
5.6830332283464564
0
LINE
8
BLACK
6
CONTINUOUS
10
-4.4188282677165356
20
5.6830332283464564
11
-4.4249999999999998
21
5.6838457480314961
0
LINE
8
BLACK
6
CONTINUOUS
10
-4.4249999999999998
20
5.6838457480314961
11
-4.4250000393700786
21
5.6838457086614174
0
LINE
8
BLACK
6
CONTINUOUS
10
-4.4250000393700786
20
5.6838457086614174
11
-4.4250000393700786
21
5.6838457480314961
0
LINE
8
BLACK
6
CONTINUOUS
10
-4.4250000393700786
20
5.6838457480314961
11
-4.4251909448818898
21
5.6838457480314961
0
LINE
8
BLACK
6
CONTINUOUS
10
-4.4251909448818898
20
5.6838457480314961
11
-4.4251909448818898
21
5.6839199212598421
0
LINE
8
BLACK
6
CONTINUOUS
10
-4.4251909448818898
20
5.6839199212598421
11
-4.4270961417322834
21
5.6844303149606299
0
LINE
8
BLACK
6
CONTINUOUS
10
-4.4270961417322834
20
5.6844303149606299
11
-4.4273825196850396
21
5.6846813779527556
0
LINE
8
BLACK
6
CONTINUOUS
10
-4.4273825196850396
20
5.6846813779527556
11
-4.4471801574803145
21
5.7044790944881889
0
LINE
8
BLACK
6
CONTINUOUS
10
-4.4471801574803145
20
5.7044790944881889
11
-4.4507756299212593
21
5.7065549606299211
0
LINE
8
BLACK
6
CONTINUOUS
10
-4.4507756299212593
20
5.7065549606299211
11
-4.4547859055118106
21
5.7076294881889762
0
LINE
8
BLACK
6
CONTINUOUS
10
-4.4547859055118106
20
5.7076294881889762
11
-4.4547859448818894
21
5.7076294881889762
0
LINE
8
BLACK
6
CONTINUOUS
10
-4.4547859448818894
20
5.7076294881889762
11
-4.7131846456692914
21
5.7076294881889762
0
LINE
8
BLACK
6
CONTINUOUS
10
-4.7131846456692914
20
5.7076294881889762
11
-4.7152447244094491
21
5.7084827952755903
0
LINE
8
BLACK
6
CONTINUOUS
10
-4.7152447244094491
20
5.7084827952755903
11
-4.7157709448818901
21
5.7095498425196851
0
LINE
8
BLACK
6
CONTINUOUS
10
-4.7157709448818901
20
5.7095498425196851
11
-4.7160731102362208
21
5.7101625984251969
0
LINE
8
BLACK
6
CONTINUOUS
10
-4.7160731102362208
20
5.7101625984251969
11
-4.7168049606299212
21
5.7157214960629918
0
LINE
8
BLACK
6
CONTINUOUS
10
-4.7168049606299212
20
5.7157214960629918
11
-4.7168486614173224
21
5.7160536220472435
0
LINE
8
BLACK
6
CONTINUOUS
10
-4.7168486614173224
20
5.7160536220472435
11
-4.7192308661417322
21
5.7218047637795273
0
LINE
8
BLACK
6
CONTINUOUS
10
-4.7192308661417322
20
5.7218047637795273
11
-4.7230203937007875
21
5.7267433858267713
0
LINE
8
BLACK
6
CONTINUOUS
10
-4.7230203937007875
20
5.7267433858267713
11
-4.7279590157480316
21
5.7305329133858267
0
LINE
8
BLACK
6
CONTINUOUS
10
-4.7279590157480316
20
5.7305329133858267
11
-4.7299099212598428
21
5.7313409842519683
0
LINE
8
BLACK
6
CONTINUOUS
10
-4.7299099212598428
20
5.7313409842519683
11
-4.7314866141732281
21
5.7329176771653545
0
LINE
8
BLACK
6
CONTINUOUS
10
-4.7314866141732281
20
5.7329176771653545
11
-4.7314866141732281
21
5.7351474803149607
0
LINE
8
BLACK
6
CONTINUOUS
10
-4.7314866141732281
20
5.7351474803149607
11
-4.7299099212598428
21
5.7367242125984248
0
LINE
8
BLACK
6
CONTINUOUS
10
-4.7299099212598428
20
5.7367242125984248
11
-4.7291753937007872
21
5.7369210629921259
0
LINE
8
BLACK
6
CONTINUOUS
10
-4.7291753937007872
20
5.7369210629921259
11
-4.7288282677165352
21
5.7369667716535435
0
LINE
8
BLACK
6
CONTINUOUS
10
-4.7288282677165352
20
5.7369667716535435
11
-4.7230771259842514
21
5.7393489763779524
0
LINE
8
BLACK
6
CONTINUOUS
10
-4.7230771259842514
20
5.7393489763779524
11
-4.7181387007874012
21
5.743138307086614
0
LINE
8
BLACK
6
CONTINUOUS
10
-4.7181387007874012
20
5.743138307086614
11
-4.7180036614173231
21
5.7432733858267717
0
LINE
8
BLACK
6
CONTINUOUS
10
-4.7180036614173231
20
5.7432733858267717
11
-4.717951299212598
21
5.7432209842519688
0
LINE
8
BLACK
6
CONTINUOUS
10
-4.717951299212598
20
5.7432209842519688
11
-4.716242716535433
21
5.7442073622047243
0
LINE
8
BLACK
6
CONTINUOUS
10
-4.716242716535433
20
5.7442073622047243
11
-4.7158625196850394
21
5.7442322834645667
0
LINE
8
BLACK
6
CONTINUOUS
10
-4.7158625196850394
20
5.7442322834645667
11
-4.6237509448818894
21
5.7442322834645667
0
LINE
8
BLACK
6
CONTINUOUS
10
-4.6237509448818894
20
5.7442322834645667
11
-4.6237509055118107
21
5.7442322834645667
0
LINE
8
BLACK
6
CONTINUOUS
10
-4.6237509055118107
20
5.7442322834645667
11
-4.6197406299212593
21
5.7453068110236218
0
LINE
8
BLACK
6
CONTINUOUS
10
-4.6197406299212593
20
5.7453068110236218
11
-4.6197404724409452
21
5.7453068897637793
0
LINE
8
BLACK
6
CONTINUOUS
10
-4.6197404724409452
20
5.7453068897637793
11
-4.6161453149606295
21
5.7473825590551177
0
LINE
8
BLACK
6
CONTINUOUS
10
-4.6161453149606295
20
5.7473825590551177
11
-4.6161452755905508
21
5.7473825984251965
0
LINE
8
BLACK
6
CONTINUOUS
10
-4.6161452755905508
20
5.7473825984251965
11
-4.6161451574803145
21
5.747382677165354
0
LINE
8
BLACK
6
CONTINUOUS
10
-4.6161451574803145
20
5.747382677165354
11
-4.5918742913385824
21
5.7716535433070861
0
LINE
8
BLACK
6
CONTINUOUS
10
-4.5918742913385824
20
5.7716535433070861
11
-4.5401488582677167
21
5.8233789763779527
0
LINE
8
BLACK
6
CONTINUOUS
10
-4.5401488582677167
20
5.8233789763779527
11
-4.5380887795275591
21
5.8242322834645668
0
LINE
8
BLACK
6
CONTINUOUS
10
-4.5380887795275591
20
5.8242322834645668
11
-4.4991374803149604
21
5.8242322834645668
0
LINE
8
BLACK
6
CONTINUOUS
10
-4.4991374803149604
20
5.8242322834645668
11
-4.4970774015748027
21
5.8233789763779527
0
LINE
8
BLACK
6
CONTINUOUS
10
-4.4970774015748027
20
5.8233789763779527
11
-4.4969024409448819
21
5.8231794488188973
0
LINE
8
BLACK
6
CONTINUOUS
10
-4.4969024409448819
20
5.8231794488188973
11
-4.4968613385826774
21
5.8231383070866141
0
LINE
8
BLACK
6
CONTINUOUS
10
-4.4968613385826774
20
5.8231383070866141
11
-4.4919229133858263
21
5.8193489763779525
0
LINE
8
BLACK
6
CONTINUOUS
10
-4.4919229133858263
20
5.8193489763779525
11
-4.4861717322834647
21
5.8169667322834648
0
LINE
8
BLACK
6
CONTINUOUS
10
-4.4861717322834647
20
5.8169667322834648
11
-4.4799999999999995
21
5.8161542519685039
0
LINE
8
BLACK
6
CONTINUOUS
10
-4.4799999999999995
20
5.8161542519685039
11
-4.4738283464566928
21
5.8169667322834648
0
LINE
8
BLACK
6
CONTINUOUS
10
-4.4738283464566928
20
5.8169667322834648
11
-4.4738283070866141
21
5.8169667322834648
0
LINE
8
BLACK
6
CONTINUOUS
10
-4.4738283070866141
20
5.8169667322834648
11
-4.4680771259842516
21
5.8193489763779525
0
LINE
8
BLACK
6
CONTINUOUS
10
-4.4680771259842516
20
5.8193489763779525
11
-4.4631387007874013
21
5.8231383070866141
0
LINE
8
BLACK
6
CONTINUOUS
10
-4.4631387007874013
20
5.8231383070866141
11
-4.4630036614173223
21
5.8232733858267718
0
LINE
8
BLACK
6
CONTINUOUS
10
-4.4630036614173223
20
5.8232733858267718
11
-4.4629512992125981
21
5.823220984251968
0
LINE
8
BLACK
6
CONTINUOUS
10
-4.4629512992125981
20
5.823220984251968
11
-4.4612427165354331
21
5.8242073622047243
0
LINE
8
BLACK
6
CONTINUOUS
10
-4.4612427165354331
20
5.8242073622047243
11
-4.4608625196850396
21
5.8242322834645668
0
LINE
8
BLACK
6
CONTINUOUS
10
-4.4608625196850396
20
5.8242322834645668
11
-4.3202485826771655
21
5.8242322834645668
0
LINE
8
BLACK
6
CONTINUOUS
10
-4.3202485826771655
20
5.8242322834645668
11
-4.3200000000000003
21
5.824271653543307
0
LINE
8
BLACK
6
CONTINUOUS
10
-4.3200000000000003
20
5.824271653543307
11
-4.3197514173228342
21
5.8242322834645668
0
LINE
8
BLACK
6
CONTINUOUS
10
-4.3197514173228342
20
5.8242322834645668
11
-4.2377379921259841
21
5.8242322834645668
0
LINE
8
BLACK
6
CONTINUOUS
10
-4.2377379921259841
20
5.8242322834645668
11
-4.2356779133858264
21
5.8233789763779527
0
LINE
8
BLACK
6
CONTINUOUS
10
-4.2356779133858264
20
5.8233789763779527
11
-4.2146817322834647
21
5.8023827165354334
0
LINE
8
BLACK
6
CONTINUOUS
10
-4.2146817322834647
20
5.8023827165354334
11
-4.2138284251968505
21
5.8003226377952757
0
LINE
8
BLACK
6
CONTINUOUS
10
-4.2138284251968505
20
5.8003226377952757
11
-4.2138457480314964
21
5.8000581889763776
0
LINE
8
BLACK
6
CONTINUOUS
10
-4.2138457480314964
20
5.8000581889763776
11
-4.2138457480314964
21
5.7999999606299211
0
LINE
8
BLACK
6
CONTINUOUS
10
-4.2138457480314964
20
5.7999999606299211
11
-4.213082047244094
21
5.7941991338582675
0
LINE
8
BLACK
6
CONTINUOUS
10
-4.213082047244094
20
5.7941991338582675
11
-4.2136591732283462
21
5.7920453149606299
0
LINE
8
BLACK
6
CONTINUOUS
10
-4.2136591732283462
20
5.7920453149606299
11
-4.2155902362204722
21
5.790930393700787
0
LINE
8
BLACK
6
CONTINUOUS
10
-4.2155902362204722
20
5.790930393700787
11
-4.2159705118110233
21
5.7909054724409446
0
LINE
8
BLACK
6
CONTINUOUS
10
-4.2159705118110233
20
5.7909054724409446
11
-4.2189942913385829
21
5.7909054724409446
0
LINE
8
BLACK
6
CONTINUOUS
10
-4.2189942913385829
20
5.7909054724409446
11
-4.2189943700787405
21
5.7909054330708658
0
LINE
8
BLACK
6
CONTINUOUS
10
-4.2189943700787405
20
5.7909054330708658
11
-4.2204627165354331
21
5.7907899212598428
0
LINE
8
BLACK
6
CONTINUOUS
10
-4.2204627165354331
20
5.7907899212598428
11
-4.2267481102362208
21
5.7889638188976376
0
LINE
8
BLACK
6
CONTINUOUS
10
-4.2267481102362208
20
5.7889638188976376
11
-4.2323818503937005
21
5.7856320472440945
0
LINE
8
BLACK
6
CONTINUOUS
10
-4.2323818503937005
20
5.7856320472440945
11
-4.2370100393700785
21
5.7810038582677166
0
LINE
8
BLACK
6
CONTINUOUS
10
-4.2370100393700785
20
5.7810038582677166
11
-4.2403418110236215
21
5.7753701181102359
0
LINE
8
BLACK
6
CONTINUOUS
10
-4.2403418110236215
20
5.7753701181102359
11
-4.2421650787401575
21
5.7690944881889763
0
LINE
8
BLACK
6
CONTINUOUS
10
-4.2421650787401575
20
5.7690944881889763
11
-4.2206081102362205
21
5.7690944881889763
0
LINE
8
BLACK
6
CONTINUOUS
10
-4.2206081102362205
20
5.7690944881889763
11
-4.2205537795275587
21
5.7691758267716535
0
LINE
8
BLACK
6
CONTINUOUS
10
-4.2205537795275587
20
5.7691758267716535
11
-4.2186379133858267
21
5.770455984251968
0
LINE
8
BLACK
6
CONTINUOUS
10
-4.2186379133858267
20
5.770455984251968
11
-4.2163779527559058
21
5.7709055118110237
0
LINE
8
BLACK
6
CONTINUOUS
10
-4.2163779527559058
20
5.7709055118110237
11
-4.1612598425196845
21
5.7709055118110237
0
LINE
8
BLACK
6
CONTINUOUS
10
-4.1612598425196845
20
5.7709055118110237
11
-4.1589998818897636
21
5.770455984251968
0
LINE
8
BLACK
6
CONTINUOUS
10
-4.1589998818897636
20
5.770455984251968
11
-4.1570840157480315
21
5.7691758267716535
0
LINE
8
BLACK
6
CONTINUOUS
10
-4.1570840157480315
20
5.7691758267716535
11
-4.1570296850393698
21
5.7690944881889763
0
LINE
8
BLACK
6
CONTINUOUS
10
-4.1570296850393698
20
5.7690944881889763
11
-4.1354727165354328
21
5.7690944881889763
0
LINE
8
BLACK
6
CONTINUOUS
10
-4.1354727165354328
20
5.7690944881889763
11
-4.1372960236220475
21
5.7753701574803147
0
LINE
8
BLACK
6
CONTINUOUS
10
-4.1372960236220475
20
5.7753701574803147
11
-4.1399370078740159
21
5.7798358661417319
0
LINE
8
BLACK
6
CONTINUOUS
10
-4.1399370078740159
20
5.7798358661417319
11
-4.1402511811023617
21
5.78204342519685
0
LINE
8
BLACK
6
CONTINUOUS
10
-4.1402511811023617
20
5.78204342519685
11
-4.1389123622047244
21
5.7838265748031494
0
LINE
8
BLACK
6
CONTINUOUS
10
-4.1389123622047244
20
5.7838265748031494
11
-4.1374293307086614
21
5.7842322834645667
0
LINE
8
BLACK
6
CONTINUOUS
10
-4.1374293307086614
20
5.7842322834645667
11
-4.1364781496062992
21
5.7842322834645667
0
LINE
8
BLACK
6
CONTINUOUS
10
-4.1364781496062992
20
5.7842322834645667
11
-4.1344180708661415
21
5.7833789763779526
0
LINE
8
BLACK
6
CONTINUOUS
10
-4.1344180708661415
20
5.7833789763779526
11
-4.0966210236220473
21
5.7455819291338583
0
LINE
8
BLACK
6
CONTINUOUS
10
-4.0966210236220473
20
5.7455819291338583
11
-4.0957677165354331
21
5.7435218503937007
0
LINE
8
BLACK
6
CONTINUOUS
10
-4.0957677165354331
20
5.7435218503937007
11
-4.0957677165354331
21
5.6477379921259843
0
LINE
8
BLACK
6
CONTINUOUS
10
-4.0957677165354331
20
5.6477379921259843
11
-4.0966210236220473
21
5.6456779133858266
0
LINE
8
BLACK
6
CONTINUOUS
10
-4.0966210236220473
20
5.6456779133858266
11
-4.1142212204724409
21
5.628077716535433
0
LINE
8
BLACK
6
CONTINUOUS
10
-4.1142212204724409
20
5.628077716535433
11
-4.1162812992125986
21
5.6272244094488189
0
LINE
8
BLACK
6
CONTINUOUS
10
-4.1162812992125986
20
5.6272244094488189
11
-4.1504002755905507
21
5.6272244094488189
0
LINE
8
BLACK
6
CONTINUOUS
10
-4.1504002755905507
20
5.6272244094488189
11
-4.1524603543307084
21
5.628077716535433
0
LINE
8
BLACK
6
CONTINUOUS
10
-4.1524603543307084
20
5.628077716535433
11
-4.1531305905511813
21
5.628747952755905
0
LINE
8
BLACK
6
CONTINUOUS
10
-4.1531305905511813
20
5.628747952755905
11
-4.1572679921259841
21
5.6307705905511813
0
LINE
8
BLACK
6
CONTINUOUS
10
-4.1572679921259841
20
5.6307705905511813
11
-4.1599503937007869
21
5.6311614173228346
0
LINE
8
BLACK
6
CONTINUOUS
10
-4.1599503937007869
20
5.6311614173228346
11
-4.2176874015748034
21
5.6311614173228346
0
LINE
8
BLACK
6
CONTINUOUS
10
-4.2176874015748034
20
5.6311614173228346
11
-4.2203698031496062
21
5.6307705905511813
0
LINE
8
BLACK
6
CONTINUOUS
10
-4.2203698031496062
20
5.6307705905511813
11
-4.2203698818897637
21
5.6307705511811026
0
LINE
8
BLACK
6
CONTINUOUS
10
-4.2203698818897637
20
5.6307705511811026
11
-4.224507204724409
21
5.628747952755905
0
LINE
8
BLACK
6
CONTINUOUS
10
-4.224507204724409
20
5.628747952755905
11
-4.2277637401574806
21
5.6254914173228343
0
LINE
8
BLACK
6
CONTINUOUS
10
-4.2277637401574806
20
5.6254914173228343
11
-4.2297863385826773
21
5.621354094488189
0
LINE
8
BLACK
6
CONTINUOUS
10
-4.2297863385826773
20
5.621354094488189
11
-4.2297863385826773
21
5.6213540551181103
0
LINE
8
BLACK
6
CONTINUOUS
10
-4.2297863385826773
20
5.6213540551181103
11
-4.2301771653543305
21
5.6186718110236216
0
LINE
8
BLACK
6
CONTINUOUS
10
-4.2301771653543305
20
5.6186718110236216
11
-4.2301771653543305
21
5.6042415354330704
0
LINE
8
BLACK
6
CONTINUOUS
10
-4.2301771653543305
20
5.6042415354330704
11
-4.2297863385826773
21
5.6015592913385825
0
LINE
8
BLACK
6
CONTINUOUS
10
-4.2297863385826773
20
5.6015592913385825
11
-4.2297863385826773
21
5.6015592519685038
0
LINE
8
BLACK
6
CONTINUOUS
10
-4.2297863385826773
20
5.6015592519685038
11
-4.2277637401574806
21
5.5974219291338585
0
LINE
8
BLACK
6
CONTINUOUS
10
-4.2277637401574806
20
5.5974219291338585
11
-4.224507204724409
21
5.5941653937007869
0
LINE
8
BLACK
6
CONTINUOUS
10
-4.224507204724409
20
5.5941653937007869
11
-4.2203698818897637
21
5.5921427952755902
0
LINE
8
BLACK
6
CONTINUOUS
10
-4.2203698818897637
20
5.5921427952755902
11
-4.2176875984251971
21
5.591751968503937
0
LINE
8
BLACK
6
CONTINUOUS
10
-4.2176875984251971
20
5.591751968503937
11
-4.2176874015748034
21
5.591751968503937
0
LINE
8
BLACK
6
CONTINUOUS
10
-4.2176874015748034
20
5.591751968503937
11
-4.1599502362204728
21
5.591751968503937
0
LINE
8
BLACK
6
CONTINUOUS
10
-4.1599502362204728
20
5.591751968503937
11
-4.1572679921259841
21
5.5921427952755902
0
LINE
8
BLACK
6
CONTINUOUS
10
-4.1572679921259841
20
5.5921427952755902
11
-4.1572679527559053
21
5.5921427952755902
0
LINE
8
BLACK
6
CONTINUOUS
10
-4.1572679527559053
20
5.5921427952755902
11
-4.15313062992126
21
5.5941653937007869
0
LINE
8
BLACK
6
CONTINUOUS
10
-4.15313062992126
20
5.5941653937007869
11
-4.1524603543307084
21
5.5948356692913386
0
LINE
8
BLACK
6
CONTINUOUS
10
-4.1524603543307084
20
5.5948356692913386
11
-4.1504002755905507
21
5.5956889763779527
0
LINE
8
BLACK
6
CONTINUOUS
10
-4.1504002755905507
20
5.5956889763779527
11
-4.1064674803149606
21
5.5956889763779527
0
LINE
8
BLACK
6
CONTINUOUS
10
-4.1064674803149606
20
5.5956889763779527
11
-4.1064674409448818
21
5.5956889763779527
0
LINE
8
BLACK
6
CONTINUOUS
10
-4.1064674409448818
20
5.5956889763779527
11
-4.1024571653543305
21
5.5967635039370078
0
LINE
8
BLACK
6
CONTINUOUS
10
-4.1024571653543305
20
5.5967635039370078
11
-4.1024570078740155
21
5.5967635826771653
0
LINE
8
BLACK
6
CONTINUOUS
10
-4.1024570078740155
20
5.5967635826771653
11
-4.0988618503937007
21
5.5988392519685037
0
LINE
8
BLACK
6
CONTINUOUS
10
-4.0988618503937007
20
5.5988392519685037
11
-4.0988618110236219
21
5.5988392913385825
0
LINE
8
BLACK
6
CONTINUOUS
10
-4.0988618110236219
20
5.5988392913385825
11
-4.0988616929133856
21
5.59883937007874
0
LINE
8
BLACK
6
CONTINUOUS
10
-4.0988616929133856
20
5.59883937007874
11
-4.0673826771653543
21
5.6303183858267714
0
LINE
8
BLACK
6
CONTINUOUS
10
-4.0673826771653543
20
5.6303183858267714
11
-4.0668959448818898
21
5.6311613779527558
0
LINE
8
BLACK
6
CONTINUOUS
10
-4.0668959448818898
20
5.6311613779527558
11
-4.0653069291338584
21
5.6339136614173224
0
LINE
8
BLACK
6
CONTINUOUS
10
-4.0653069291338584
20
5.6339136614173224
11
-4.0653068503937009
21
5.6339138188976374
0
LINE
8
BLACK
6
CONTINUOUS
10
-4.0653068503937009
20
5.6339138188976374
11
-4.0653068110236221
21
5.6339138582677162
0
LINE
8
BLACK
6
CONTINUOUS
10
-4.0653068110236221
20
5.6339138582677162
11
-4.064232283464567
21
5.6379241338582675
0
LINE
8
BLACK
6
CONTINUOUS
10
-4.064232283464567
20
5.6379241338582675
11
-4.064232283464567
21
5.6420758661417318
0
LINE
8
BLACK
6
CONTINUOUS
10
-4.064232283464567
20
5.6420758661417318
11
-4.064232283464567
21
5.7533357086614174
0
LINE
8
BLACK
6
CONTINUOUS
10
-4.064232283464567
20
5.7533357086614174
11
-4.064232283464567
21
5.7533357874015749
0
LINE
8
BLACK
6
CONTINUOUS
10
-4.064232283464567
20
5.7533357874015749
11
-4.0653067716535434
21
5.7573457480314962
0
LINE
8
BLACK
6
CONTINUOUS
10
-4.0653067716535434
20
5.7573457480314962
11
-4.0653068110236221
21
5.75734594488189
0
LINE
8
BLACK
6
CONTINUOUS
10
-4.0653068110236221
20
5.75734594488189
11
-4.0673826771653543
21
5.7609414566929136
0
LINE
8
BLACK
6
CONTINUOUS
10
-4.0673826771653543
20
5.7609414566929136
11
-4.0703183858267717
21
5.7638771653543301
0
LINE
8
BLACK
6
CONTINUOUS
10
-4.0703183858267717
20
5.7638771653543301
11
-4.0937118503937011
21
5.7872706299212595
0
LINE
8
BLACK
6
CONTINUOUS
10
-4.0937118503937011
20
5.7872706299212595
11
-4.0945651574803152
21
5.7893307086614172
0
LINE
8
BLACK
6
CONTINUOUS
10
-4.0945651574803152
20
5.7893307086614172
11
-4.0937118503937011
21
5.7913907874015749
0
LINE
8
BLACK
6
CONTINUOUS
10
-4.0937118503937011
20
5.7913907874015749
11
-4.0916517716535434
21
5.792244094488189
0
LINE
8
BLACK
6
CONTINUOUS
10
-4.0916517716535434
20
5.792244094488189
11
-4.0728346456692917
21
5.792244094488189
0
LINE
8
BLACK
6
CONTINUOUS
10
-4.0728346456692917
20
5.792244094488189
11
-4.0728346456692917
21
5.8122440944881886
0
LINE
8
BLACK
6
CONTINUOUS
10
-4.0728346456692917
20
5.8122440944881886
11
-4.1061417322834641
21
5.8122440944881886
0
LINE
8
BLACK
6
CONTINUOUS
10
-4.1061417322834641
20
5.8122440944881886
11
-4.1099083070866138
21
5.8129933070866144
0
LINE
8
BLACK
6
CONTINUOUS
10
-4.1099083070866138
20
5.8129933070866144
11
-4.1131014566929132
21
5.8151268897637793
0
LINE
8
BLACK
6
CONTINUOUS
10
-4.1131014566929132
20
5.8151268897637793
11
-4.115235039370079
21
5.8183200393700787
0
LINE
8
BLACK
6
CONTINUOUS
10
-4.115235039370079
20
5.8183200393700787
11
-4.1159529133858266
21
5.8219291338582675
0
LINE
8
BLACK
6
CONTINUOUS
10
-4.1159529133858266
20
5.8219291338582675
11
-4.1359842519685035
21
5.8219291338582675
0
LINE
8
BLACK
6
CONTINUOUS
10
-4.1359842519685035
20
5.8219291338582675
11
-4.1359842519685035
21
5.8200982283464562
0
LINE
8
BLACK
6
CONTINUOUS
10
-4.1359842519685035
20
5.8200982283464562
11
-4.1358697244094484
21
5.8189772047244093
0
LINE
8
BLACK
6
CONTINUOUS
10
-4.1358697244094484
20
5.8189772047244093
11
-4.1365092519685041
21
5.8168410629921254
0
LINE
8
BLACK
6
CONTINUOUS
10
-4.1365092519685041
20
5.8168410629921254
11
-4.1384719291338579
21
5.8157827952755907
0
LINE
8
BLACK
6
CONTINUOUS
10
-4.1384719291338579
20
5.8157827952755907
11
-4.1387680314960633
21
5.8157677165354329
0
LINE
8
BLACK
6
CONTINUOUS
10
-4.1387680314960633
20
5.8157677165354329
11
-4.1708625196850395
21
5.8157677165354329
0
LINE
8
BLACK
6
CONTINUOUS
10
-4.1708625196850395
20
5.8157677165354329
11
-4.1729225984251972
21
5.816621023622047
0
LINE
8
BLACK
6
CONTINUOUS
10
-4.1729225984251972
20
5.816621023622047
11
-4.1730975984251968
21
5.8168205118110237
0
LINE
8
BLACK
6
CONTINUOUS
10
-4.1730975984251968
20
5.8168205118110237
11
-4.1731383858267712
21
5.8168612992125981
0
LINE
8
BLACK
6
CONTINUOUS
10
-4.1731383858267712
20
5.8168612992125981
11
-4.1731385039370075
21
5.8168614960629919
0
LINE
8
BLACK
6
CONTINUOUS
10
-4.1731385039370075
20
5.8168614960629919
11
-4.1732756692913382
21
5.8169667322834648
0
LINE
8
BLACK
6
CONTINUOUS
10
-4.1732756692913382
20
5.8169667322834648
11
-4.1738322440944877
21
5.817393779527559
0
LINE
8
BLACK
6
CONTINUOUS
10
-4.1738322440944877
20
5.817393779527559
11
-4.1780771259842515
21
5.8206510236220472
0
LINE
8
BLACK
6
CONTINUOUS
10
-4.1780771259842515
20
5.8206510236220472
11
-4.1838282677165353
21
5.823033228346457
0
LINE
8
BLACK
6
CONTINUOUS
10
-4.1838282677165353
20
5.823033228346457
11
-4.1899999999999995
21
5.8238457480314958
0
LINE
8
BLACK
6
CONTINUOUS
10
-4.1899999999999995
20
5.8238457480314958
11
-4.1900000393700783
21
5.823845708661417
0
LINE
8
BLACK
6
CONTINUOUS
10
-4.1900000393700783
20
5.823845708661417
11
-4.1900000393700783
21
5.8238457480314958
0
LINE
8
BLACK
6
CONTINUOUS
10
-4.1900000393700783
20
5.8238457480314958
11
-4.1901909448818895
21
5.8238457480314958
0
LINE
8
BLACK
6
CONTINUOUS
10
-4.1901909448818895
20
5.8238457480314958
11
-4.1901909448818895
21
5.8239199212598427
0
LINE
8
BLACK
6
CONTINUOUS
10
-4.1901909448818895
20
5.8239199212598427
11
-4.1920961417322831
21
5.8244303149606296
0
LINE
8
BLACK
6
CONTINUOUS
10
-4.1920961417322831
20
5.8244303149606296
11
-4.1923825196850393
21
5.8246813779527562
0
LINE
8
BLACK
6
CONTINUOUS
10
-4.1923825196850393
20
5.8246813779527562
11
-4.2114611023622048
21
5.8437599999999996
0
LINE
8
BLACK
6
CONTINUOUS
10
-4.2114611023622048
20
5.8437599999999996
11
-4.2203183858267712
21
5.8526173228346456
0
LINE
8
BLACK
6
CONTINUOUS
10
-4.2403418110236215
20
5.7428188188976375
11
-4.2370100393700785
21
5.7371850787401577
0
LINE
8
BLACK
6
CONTINUOUS
10
-4.2370100393700785
20
5.7371850787401577
11
-4.2323818503937005
21
5.7325568897637798
0
LINE
8
BLACK
6
CONTINUOUS
10
-4.2323818503937005
20
5.7325568897637798
11
-4.2298687007874012
21
5.7310706692913387
0
LINE
8
BLACK
6
CONTINUOUS
10
-4.2298687007874012
20
5.7310706692913387
11
-4.2285298818897639
21
5.7292875196850392
0
LINE
8
BLACK
6
CONTINUOUS
10
-4.2285298818897639
20
5.7292875196850392
11
-4.2288440551181106
21
5.7270799606299212
0
LINE
8
BLACK
6
CONTINUOUS
10
-4.2288440551181106
20
5.7270799606299212
11
-4.2306272047244091
21
5.725741141732283
0
LINE
8
BLACK
6
CONTINUOUS
10
-4.2306272047244091
20
5.725741141732283
11
-4.2313517322834642
21
5.7256496062992124
0
LINE
8
BLACK
6
CONTINUOUS
10
-4.2313517322834642
20
5.7256496062992124
11
-4.3751448818897636
21
5.7256496062992124
0
LINE
8
BLACK
6
CONTINUOUS
10
-4.3751448818897636
20
5.7256496062992124
11
-4.3768994881889762
21
5.7263763385826767
0
LINE
8
BLACK
6
CONTINUOUS
10
-4.3768994881889762
20
5.7263763385826767
11
-4.3769618503937009
21
5.726295078740157
0
LINE
8
BLACK
6
CONTINUOUS
10
-4.3769618503937009
20
5.726295078740157
11
-4.3771134645669294
21
5.7264114173228347
0
LINE
8
BLACK
6
CONTINUOUS
10
-4.3771134645669294
20
5.7264114173228347
11
-4.3820519685039372
21
5.7302008661417325
0
LINE
8
BLACK
6
CONTINUOUS
10
-4.3820519685039372
20
5.7302008661417325
11
-4.38780311023622
21
5.7325830708661414
0
LINE
8
BLACK
6
CONTINUOUS
10
-4.38780311023622
20
5.7325830708661414
11
-4.3939748425196852
21
5.7333955905511811
0
LINE
8
BLACK
6
CONTINUOUS
10
-4.3939748425196852
20
5.7333955905511811
11
-4.4001465748031494
21
5.7325830708661414
0
LINE
8
BLACK
6
CONTINUOUS
10
-4.4001465748031494
20
5.7325830708661414
11
-4.4058977165354332
21
5.7302008661417325
0
LINE
8
BLACK
6
CONTINUOUS
10
-4.4058977165354332
20
5.7302008661417325
11
-4.4058977559055119
21
5.7302008267716538
0
LINE
8
BLACK
6
CONTINUOUS
10
-4.4058977559055119
20
5.7302008267716538
11
-4.4108362598425197
21
5.7264114173228347
0
LINE
8
BLACK
6
CONTINUOUS
10
-4.4108362598425197
20
5.7264114173228347
11
-4.4108364566929135
21
5.7264112204724409
0
LINE
8
BLACK
6
CONTINUOUS
10
-4.4108364566929135
20
5.7264112204724409
11
-4.4146258661417326
21
5.7214727165354331
0
LINE
8
BLACK
6
CONTINUOUS
10
-4.4146258661417326
20
5.7214727165354331
11
-4.4170081102362202
21
5.7157215354330706
0
LINE
8
BLACK
6
CONTINUOUS
10
-4.4170081102362202
20
5.7157215354330706
11
-4.4170081102362202
21
5.7157214960629918
0
LINE
8
BLACK
6
CONTINUOUS
10
-4.4170081102362202
20
5.7157214960629918
11
-4.4178205905511811
21
5.7095498425196851
0
LINE
8
BLACK
6
CONTINUOUS
10
-4.4178205905511811
20
5.7095498425196851
11
-4.4170081102362202
21
5.7033781496062987
0
LINE
8
BLACK
6
CONTINUOUS
10
-4.4170081102362202
20
5.7033781496062987
11
-4.4170081102362202
21
5.70337811023622
0
LINE
8
BLACK
6
CONTINUOUS
10
-4.4170081102362202
20
5.70337811023622
11
-4.4146258661417326
21
5.6976269291338584
0
LINE
8
BLACK
6
CONTINUOUS
10
-4.4146258661417326
20
5.6976269291338584
11
-4.4108364566929135
21
5.6926884251968506
0
LINE
8
BLACK
6
CONTINUOUS
10
-4.4108364566929135
20
5.6926884251968506
11
-4.4108362598425197
21
5.6926882283464568
0
LINE
8
BLACK
6
CONTINUOUS
10
-4.4108362598425197
20
5.6926882283464568
11
-4.4058977559055119
21
5.6888988188976377
0
LINE
8
BLACK
6
CONTINUOUS
10
-4.4058977559055119
20
5.6888988188976377
11
-4.4001465748031494
21
5.6865165748031492
0
LINE
8
BLACK
6
CONTINUOUS
10
-4.4001465748031494
20
5.6865165748031492
11
-4.3939748425196852
21
5.6857040944881891
0
LINE
8
BLACK
6
CONTINUOUS
10
-4.3939748425196852
20
5.6857040944881891
11
-4.3878031889763776
21
5.6865165748031492
0
LINE
8
BLACK
6
CONTINUOUS
10
-4.3878031889763776
20
5.6865165748031492
11
-4.3878031496062988
21
5.6865165748031492
0
LINE
8
BLACK
6
CONTINUOUS
10
-4.3878031496062988
20
5.6865165748031492
11
-4.3820519685039372
21
5.6888988188976377
0
LINE
8
BLACK
6
CONTINUOUS
10
-4.3820519685039372
20
5.6888988188976377
11
-4.3803859842519683
21
5.6901771653543305
0
LINE
8
BLACK
6
CONTINUOUS
10
-4.3803859842519683
20
5.6901771653543305
11
-4.3771133464566931
21
5.6926883464566931
0
LINE
8
BLACK
6
CONTINUOUS
10
-4.3771133464566931
20
5.6926883464566931
11
-4.3768939370078739
21
5.6929743307086609
0
LINE
8
BLACK
6
CONTINUOUS
10
-4.3768939370078739
20
5.6929743307086609
11
-4.3749629133858265
21
5.6940892519685038
0
LINE
8
BLACK
6
CONTINUOUS
10
-4.3749629133858265
20
5.6940892519685038
11
-4.3745825590551179
21
5.6941141732283462
0
LINE
8
BLACK
6
CONTINUOUS
10
-4.3745825590551179
20
5.6941141732283462
11
-4.2272375196850396
21
5.6941141732283462
0
LINE
8
BLACK
6
CONTINUOUS
10
-4.2272375196850396
20
5.6941141732283462
11
-4.2251774409448819
21
5.6932608661417321
0
LINE
8
BLACK
6
CONTINUOUS
10
-4.2251774409448819
20
5.6932608661417321
11
-4.224507204724409
21
5.6925905905511813
0
LINE
8
BLACK
6
CONTINUOUS
10
-4.224507204724409
20
5.6925905905511813
11
-4.2203698818897637
21
5.6905679921259837
0
LINE
8
BLACK
6
CONTINUOUS
10
-4.2203698818897637
20
5.6905679921259837
11
-4.2176875984251971
21
5.6901771653543305
0
LINE
8
BLACK
6
CONTINUOUS
10
-4.2176875984251971
20
5.6901771653543305
11
-4.2176874015748034
21
5.6901771653543305
0
LINE
8
BLACK
6
CONTINUOUS
10
-4.2176874015748034
20
5.6901771653543305
11
-4.1599502362204728
21
5.6901771653543305
0
LINE
8
BLACK
6
CONTINUOUS
10
-4.1599502362204728
20
5.6901771653543305
11
-4.1572679921259841
21
5.6905679921259837
0
LINE
8
BLACK
6
CONTINUOUS
10
-4.1572679921259841
20
5.6905679921259837
11
-4.1568153937007875
21
5.6907892519685035
0
LINE
8
BLACK
6
CONTINUOUS
10
-4.1568153937007875
20
5.6907892519685035
11
-4.1545898425196848
21
5.6909273622047243
0
LINE
8
BLACK
6
CONTINUOUS
10
-4.1545898425196848
20
5.6909273622047243
11
-4.1534758267716532
21
5.6902319291338586
0
LINE
8
BLACK
6
CONTINUOUS
10
-4.1534758267716532
20
5.6902319291338586
11
-4.1483729921259842
21
5.6851291338582675
0
LINE
8
BLACK
6
CONTINUOUS
10
-4.1483729921259842
20
5.6851291338582675
11
-4.1475196850393701
21
5.6830690551181098
0
LINE
8
BLACK
6
CONTINUOUS
10
-4.1475196850393701
20
5.6830690551181098
11
-4.1475196850393701
21
5.6815704724409448
0
LINE
8
BLACK
6
CONTINUOUS
10
-4.1475196850393701
20
5.6815704724409448
11
-4.1483729921259842
21
5.6795103937007871
0
LINE
8
BLACK
6
CONTINUOUS
10
-4.1483729921259842
20
5.6795103937007871
11
-4.1485724015748033
21
5.6793355118110238
0
LINE
8
BLACK
6
CONTINUOUS
10
-4.1485724015748033
20
5.6793355118110238
11
-4.148613307086614
21
5.6792946062992122
0
LINE
8
BLACK
6
CONTINUOUS
10
-4.148613307086614
20
5.6792946062992122
11
-4.148613464566929
21
5.679294488188976
0
LINE
8
BLACK
6
CONTINUOUS
10
-4.148613464566929
20
5.679294488188976
11
-4.1486135826771653
21
5.679294330708661
0
LINE
8
BLACK
6
CONTINUOUS
10
-4.1486135826771653
20
5.679294330708661
11
-4.1486136614173228
21
5.6792942519685035
0
LINE
8
BLACK
6
CONTINUOUS
10
-4.1486136614173228
20
5.6792942519685035
11
-4.1491601574803152
21
5.6785820866141732
0
LINE
8
BLACK
6
CONTINUOUS
10
-4.1491601574803152
20
5.6785820866141732
11
-4.1510912204724413
21
5.677467204724409
0
LINE
8
BLACK
6
CONTINUOUS
10
-4.1510912204724413
20
5.677467204724409
11
-4.1528842125984253
21
5.6779148425196846
0
LINE
8
BLACK
6
CONTINUOUS
10
-4.1528842125984253
20
5.6779148425196846
11
-4.1529137007874013
21
5.6778545275590551
0
LINE
8
BLACK
6
CONTINUOUS
10
-4.1529137007874013
20
5.6778545275590551
11
-4.1556179527559056
21
5.6791765354330703
0
LINE
8
BLACK
6
CONTINUOUS
10
-4.1556179527559056
20
5.6791765354330703
11
-4.1572679921259841
21
5.6799831889763777
0
LINE
8
BLACK
6
CONTINUOUS
10
-4.1572679921259841
20
5.6799831889763777
11
-4.1599503937007869
21
5.6803740157480318
0
LINE
8
BLACK
6
CONTINUOUS
10
-4.1599503937007869
20
5.6803740157480318
11
-4.2176874015748034
21
5.6803740157480318
0
LINE
8
BLACK
6
CONTINUOUS
10
-4.2176874015748034
20
5.6803740157480318
11
-4.2203698031496062
21
5.6799831889763777
0
LINE
8
BLACK
6
CONTINUOUS
10
-4.2203698031496062
20
5.6799831889763777
11
-4.2203698818897637
21
5.6799831496062989
0
LINE
8
BLACK
6
CONTINUOUS
10
-4.2203698818897637
20
5.6799831496062989
11
-4.224507204724409
21
5.6779605511811022
0
LINE
8
BLACK
6
CONTINUOUS
10
-4.224507204724409
20
5.6779605511811022
11
-4.2251774409448819
21
5.6772903149606302
0
LINE
8
BLACK
6
CONTINUOUS
10
-4.2251774409448819
20
5.6772903149606302
11
-4.2272375196850396
21
5.6764370078740161
0
LINE
8
BLACK
6
CONTINUOUS
10
-4.2272375196850396
20
5.6764370078740161
11
-4.2365318110236219
21
5.6764370078740161
0
LINE
8
BLACK
6
CONTINUOUS
10
-4.2365318110236219
20
5.6764370078740161
11
-4.2385918897637795
21
5.6772903149606302
0
LINE
8
BLACK
6
CONTINUOUS
10
-4.2385918897637795
20
5.6772903149606302
11
-4.2387668897637791
21
5.6774898031496059
0
LINE
8
BLACK
6
CONTINUOUS
10
-4.2387668897637791
20
5.6774898031496059
11
-4.2388076771653544
21
5.6775305905511813
0
LINE
8
BLACK
6
CONTINUOUS
10
-4.2388076771653544
20
5.6775305905511813
11
-4.2388077952755907
21
5.677530787401575
0
LINE
8
BLACK
6
CONTINUOUS
10
-4.2388077952755907
20
5.677530787401575
11
-4.2437464173228348
21
5.6813203149606295
0
LINE
8
BLACK
6
CONTINUOUS
10
-4.2437464173228348
20
5.6813203149606295
11
-4.2494975590551176
21
5.6837025196850393
0
LINE
8
BLACK
6
CONTINUOUS
10
-4.2494975590551176
20
5.6837025196850393
11
-4.2556692913385827
21
5.684515039370079
0
LINE
8
BLACK
6
CONTINUOUS
10
-4.2556692913385827
20
5.684515039370079
11
-4.261841023622047
21
5.6837025196850393
0
LINE
8
BLACK
6
CONTINUOUS
10
-4.261841023622047
20
5.6837025196850393
11
-4.2675921653543307
21
5.6813203149606295
0
LINE
8
BLACK
6
CONTINUOUS
10
-4.2675921653543307
20
5.6813203149606295
11
-4.2684644094488187
21
5.6806510236220475
0
LINE
8
BLACK
6
CONTINUOUS
10
-4.2684644094488187
20
5.6806510236220475
11
-4.2725306299212598
21
5.67753094488189
0
LINE
8
BLACK
6
CONTINUOUS
10
-4.2725306299212598
20
5.67753094488189
11
-4.27266562992126
21
5.6773959055118111
0
LINE
8
BLACK
6
CONTINUOUS
10
-4.27266562992126
20
5.6773959055118111
11
-4.2727180314960629
21
5.6774482677165352
0
LINE
8
BLACK
6
CONTINUOUS
10
-4.2727180314960629
20
5.6774482677165352
11
-4.2744265748031491
21
5.6764619291338585
0
LINE
8
BLACK
6
CONTINUOUS
10
-4.2744265748031491
20
5.6764619291338585
11
-4.2748067716535436
21
5.6764370078740161
0
LINE
8
BLACK
6
CONTINUOUS
10
-4.2748067716535436
20
5.6764370078740161
11
-4.3465963385826774
21
5.6764370078740161
0
LINE
8
BLACK
6
CONTINUOUS
10
-4.3465963385826774
20
5.6764370078740161
11
-4.3483698818897638
21
5.6770390551181098
0
LINE
8
BLACK
6
CONTINUOUS
10
-4.3483698818897638
20
5.6770390551181098
11
-4.3503808267716533
21
5.6785820866141732
0
LINE
8
BLACK
6
CONTINUOUS
10
-4.3503808267716533
20
5.6785820866141732
11
-4.3530771259842522
21
5.6806510236220475
0
LINE
8
BLACK
6
CONTINUOUS
10
-4.3530771259842522
20
5.6806510236220475
11
-4.3588282677165351
21
5.6830332283464564
0
LINE
8
BLACK
6
CONTINUOUS
10
-4.3588282677165351
20
5.6830332283464564
11
-4.3650000000000002
21
5.6838457480314961
0
LINE
8
BLACK
6
CONTINUOUS
10
-4.3650000000000002
20
5.6838457480314961
11
-4.3711717322834645
21
5.6830332283464564
0
LINE
8
BLACK
6
CONTINUOUS
10
-4.3711717322834645
20
5.6830332283464564
11
-4.3769228740157482
21
5.6806510236220475
0
LINE
8
BLACK
6
CONTINUOUS
10
-4.3769228740157482
20
5.6806510236220475
11
-4.3772839370078742
21
5.680373976377953
0
LINE
8
BLACK
6
CONTINUOUS
10
-4.3772839370078742
20
5.680373976377953
11
-4.3818614173228347
21
5.6768615748031497
0
LINE
8
BLACK
6
CONTINUOUS
10
-4.3818614173228347
20
5.6768615748031497
11
-4.3818616141732285
21
5.6768613779527559
0
LINE
8
BLACK
6
CONTINUOUS
10
-4.3818616141732285
20
5.6768613779527559
11
-4.3856510236220467
21
5.6719228740157481
0
LINE
8
BLACK
6
CONTINUOUS
10
-4.3856510236220467
20
5.6719228740157481
11
-4.3880332677165352
21
5.6661716929133856
0
LINE
8
BLACK
6
CONTINUOUS
10
-4.3880332677165352
20
5.6661716929133856
11
-4.3880332677165352
21
5.6661716535433069
0
LINE
8
BLACK
6
CONTINUOUS
10
-4.3880332677165352
20
5.6661716535433069
11
-4.3888457480314962
21
5.6600000000000001
0
LINE
8
BLACK
6
CONTINUOUS
10
-4.3888457480314962
20
5.6600000000000001
11
-4.3880332677165352
21
5.6538283070866138
0
LINE
8
BLACK
6
CONTINUOUS
10
-4.3880332677165352
20
5.6538283070866138
11
-4.3880332677165352
21
5.653828267716535
0
LINE
8
BLACK
6
CONTINUOUS
10
-4.3880332677165352
20
5.653828267716535
11
-4.3856510236220467
21
5.6480770866141734
0
LINE
8
BLACK
6
CONTINUOUS
10
-4.3856510236220467
20
5.6480770866141734
11
-4.3818616141732285
21
5.6431385826771656
0
LINE
8
BLACK
6
CONTINUOUS
10
-4.3818616141732285
20
5.6431385826771656
11
-4.3818614173228347
21
5.6431383858267719
0
LINE
8
BLACK
6
CONTINUOUS
10
-4.3818614173228347
20
5.6431383858267719
11
-4.376922913385827
21
5.6393489763779527
0
LINE
8
BLACK
6
CONTINUOUS
10
-4.376922913385827
20
5.6393489763779527
11
-4.3711717322834645
21
5.6369667322834642
0
LINE
8
BLACK
6
CONTINUOUS
10
-4.3711717322834645
20
5.6369667322834642
11
-4.3650000000000002
21
5.6361542519685042
0
LINE
8
BLACK
6
CONTINUOUS
10
-4.3650000000000002
20
5.6361542519685042
11
-4.3588283464566926
21
5.6369667322834642
0
LINE
8
BLACK
6
CONTINUOUS
10
-4.3588283464566926
20
5.6369667322834642
11
-4.3588283070866138
21
5.6369667322834642
0
LINE
8
BLACK
6
CONTINUOUS
10
-4.3588283070866138
20
5.6369667322834642
11
-4.3530771259842522
21
5.6393489763779527
0
LINE
8
BLACK
6
CONTINUOUS
10
-4.3530771259842522
20
5.6393489763779527
11
-4.3481386220472444
21
5.6431383858267719
0
LINE
8
BLACK
6
CONTINUOUS
10
-4.3481386220472444
20
5.6431383858267719
11
-4.3481384645669294
21
5.6431385433070869
0
LINE
8
BLACK
6
CONTINUOUS
10
-4.3481384645669294
20
5.6431385433070869
11
-4.3476603149606294
21
5.6437616929133858
0
LINE
8
BLACK
6
CONTINUOUS
10
-4.3476603149606294
20
5.6437616929133858
11
-4.3457292519685042
21
5.6448766535433066
0
LINE
8
BLACK
6
CONTINUOUS
10
-4.3457292519685042
20
5.6448766535433066
11
-4.3453489370078735
21
5.6449015748031499
0
LINE
8
BLACK
6
CONTINUOUS
10
-4.3453489370078735
20
5.6449015748031499
11
-4.2748067716535436
21
5.6449015748031499
0
LINE
8
BLACK
6
CONTINUOUS
10
-4.2748067716535436
20
5.6449015748031499
11
-4.2727466929133859
21
5.6440482677165349
0
LINE
8
BLACK
6
CONTINUOUS
10
-4.2727466929133859
20
5.6440482677165349
11
-4.2725717322834642
21
5.6438487401574804
0
LINE
8
BLACK
6
CONTINUOUS
10
-4.2725717322834642
20
5.6438487401574804
11
-4.2725306299212598
21
5.6438075984251963
0
LINE
8
BLACK
6
CONTINUOUS
10
-4.2725306299212598
20
5.6438075984251963
11
-4.2675922047244095
21
5.6400182677165356
0
LINE
8
BLACK
6
CONTINUOUS
10
-4.2675922047244095
20
5.6400182677165356
11
-4.261841023622047
21
5.6376360236220471
0
LINE
8
BLACK
6
CONTINUOUS
10
-4.261841023622047
20
5.6376360236220471
11
-4.2556692913385827
21
5.6368235433070861
0
LINE
8
BLACK
6
CONTINUOUS
10
-4.2556692913385827
20
5.6368235433070861
11
-4.2494976377952751
21
5.6376360236220471
0
LINE
8
BLACK
6
CONTINUOUS
10
-4.2494976377952751
20
5.6376360236220471
11
-4.2494975984251964
21
5.6376360236220471
0
LINE
8
BLACK
6
CONTINUOUS
10
-4.2494975984251964
20
5.6376360236220471
11
-4.2437464173228348
21
5.6400182677165356
0
LINE
8
BLACK
6
CONTINUOUS
10
-4.2437464173228348
20
5.6400182677165356
11
-4.2388079921259845
21
5.6438075984251963
0
LINE
8
BLACK
6
CONTINUOUS
10
-4.2388079921259845
20
5.6438075984251963
11
-4.2386729527559055
21
5.643942677165354
0
LINE
8
BLACK
6
CONTINUOUS
10
-4.2386729527559055
20
5.643942677165354
11
-4.2386205905511813
21
5.6438902755905511
0
LINE
8
BLACK
6
CONTINUOUS
10
-4.2386205905511813
20
5.6438902755905511
11
-4.2369120078740155
21
5.6448766535433066
0
LINE
8
BLACK
6
CONTINUOUS
10
-4.2369120078740155
20
5.6448766535433066
11
-4.2365318110236219
21
5.6449015748031499
0
LINE
8
BLACK
6
CONTINUOUS
10
-4.2365318110236219
20
5.6449015748031499
11
-4.2272375196850396
21
5.6449015748031499
0
LINE
8
BLACK
6
CONTINUOUS
10
-4.2272375196850396
20
5.6449015748031499
11
-4.2251774409448819
21
5.6440482677165349
0
LINE
8
BLACK
6
CONTINUOUS
10
-4.2251774409448819
20
5.6440482677165349
11
-4.224507204724409
21
5.6433779921259841
0
LINE
8
BLACK
6
CONTINUOUS
10
-4.224507204724409
20
5.6433779921259841
11
-4.2203698818897637
21
5.6413553937007874
0
LINE
8
BLACK
6
CONTINUOUS
10
-4.2203698818897637
20
5.6413553937007874
11
-4.2176875984251971
21
5.6409645669291342
0
LINE
8
BLACK
6
CONTINUOUS
10
-4.2176875984251971
20
5.6409645669291342
11
-4.2176874015748034
21
5.6409645669291342
0
LINE
8
BLACK
6
CONTINUOUS
10
-4.2176874015748034
20
5.6409645669291342
11
-4.1599502362204728
21
5.6409645669291342
0
LINE
8
BLACK
6
CONTINUOUS
10
-4.1599502362204728
20
5.6409645669291342
11
-4.1572679921259841
21
5.6413553937007874
0
LINE
8
BLACK
6
CONTINUOUS
10
-4.1572679921259841
20
5.6413553937007874
11
-4.1572679527559053
21
5.6413553937007874
0
LINE
8
BLACK
6
CONTINUOUS
10
-4.1572679527559053
20
5.6413553937007874
11
-4.15313062992126
21
5.6433779921259841
0
LINE
8
BLACK
6
CONTINUOUS
10
-4.15313062992126
20
5.6433779921259841
11
-4.151734921259842
21
5.6447737007874013
0
LINE
8
BLACK
6
CONTINUOUS
10
-4.151734921259842
20
5.6447737007874013
11
-4.1496748425196852
21
5.6456270078740154
0
LINE
8
BLACK
6
CONTINUOUS
10
-4.1496748425196852
20
5.6456270078740154
11
-4.1479012992125988
21
5.6450249999999995
0
LINE
8
BLACK
6
CONTINUOUS
10
-4.1479012992125988
20
5.6450249999999995
11
-4.1436748031496062
21
5.6417819291338578
0
LINE
8
BLACK
6
CONTINUOUS
10
-4.1436748031496062
20
5.6417819291338578
11
-4.1379237007874012
21
5.6393997244094489
0
LINE
8
BLACK
6
CONTINUOUS
10
-4.1379237007874012
20
5.6393997244094489
11
-4.131751968503937
21
5.638587244094488
0
LINE
8
BLACK
6
CONTINUOUS
10
-4.131751968503937
20
5.638587244094488
11
-4.1255803149606303
21
5.6393997244094489
0
LINE
8
BLACK
6
CONTINUOUS
10
-4.1255803149606303
20
5.6393997244094489
11
-4.1255802755905515
21
5.6393997244094489
0
LINE
8
BLACK
6
CONTINUOUS
10
-4.1255802755905515
20
5.6393997244094489
11
-4.119829094488189
21
5.6417819685039365
0
LINE
8
BLACK
6
CONTINUOUS
10
-4.119829094488189
20
5.6417819685039365
11
-4.1148905905511812
21
5.6455713779527557
0
LINE
8
BLACK
6
CONTINUOUS
10
-4.1148905905511812
20
5.6455713779527557
11
-4.1148903937007875
21
5.6455715748031494
0
LINE
8
BLACK
6
CONTINUOUS
10
-4.1148903937007875
20
5.6455715748031494
11
-4.1111009842519683
21
5.6505100787401572
0
LINE
8
BLACK
6
CONTINUOUS
10
-4.1111009842519683
20
5.6505100787401572
11
-4.1111009448818896
21
5.650510118110236
0
LINE
8
BLACK
6
CONTINUOUS
10
-4.1111009448818896
20
5.650510118110236
11
-4.1087187401574798
21
5.6562612598425197
0
LINE
8
BLACK
6
CONTINUOUS
10
-4.1087187401574798
20
5.6562612598425197
11
-4.107906220472441
21
5.6624329921259839
0
LINE
8
BLACK
6
CONTINUOUS
10
-4.107906220472441
20
5.6624329921259839
11
-4.1087187401574798
21
5.6686047244094491
0
LINE
8
BLACK
6
CONTINUOUS
10
-4.1087187401574798
20
5.6686047244094491
11
-4.1111009448818896
21
5.6743558661417319
0
LINE
8
BLACK
6
CONTINUOUS
10
-4.1111009448818896
20
5.6743558661417319
11
-4.114890472440945
21
5.679294488188976
0
LINE
8
BLACK
6
CONTINUOUS
10
-4.114890472440945
20
5.679294488188976
11
-4.1148906692913387
21
5.6792946062992122
0
LINE
8
BLACK
6
CONTINUOUS
10
-4.1148906692913387
20
5.6792946062992122
11
-4.1150253937007877
21
5.6794293700787399
0
LINE
8
BLACK
6
CONTINUOUS
10
-4.1150253937007877
20
5.6794293700787399
11
-4.1149729921259839
21
5.6794818110236216
0
LINE
8
BLACK
6
CONTINUOUS
10
-4.1149729921259839
20
5.6794818110236216
11
-4.1159593307086615
21
5.6811901181102362
0
LINE
8
BLACK
6
CONTINUOUS
10
-4.1159593307086615
20
5.6811901181102362
11
-4.1159842519685039
21
5.6815704724409448
0
LINE
8
BLACK
6
CONTINUOUS
10
-4.1159842519685039
20
5.6815704724409448
11
-4.1159842519685039
21
5.6928830314960628
0
LINE
8
BLACK
6
CONTINUOUS
10
-4.1159842519685039
20
5.6928830314960628
11
-4.1170587401574803
21
5.6968929921259841
0
LINE
8
BLACK
6
CONTINUOUS
10
-4.1170587401574803
20
5.6968929921259841
11
-4.1170587795275591
21
5.6968931889763779
0
LINE
8
BLACK
6
CONTINUOUS
10
-4.1170587795275591
20
5.6968931889763779
11
-4.1191346456692912
21
5.7004887007874014
0
LINE
8
BLACK
6
CONTINUOUS
10
-4.1191346456692912
20
5.7004887007874014
11
-4.1220703543307087
21
5.7034244094488189
0
LINE
8
BLACK
6
CONTINUOUS
10
-4.1220703543307087
20
5.7034244094488189
11
-4.1411451574803149
21
5.7224992125984251
0
LINE
8
BLACK
6
CONTINUOUS
10
-4.1411451574803149
20
5.7224992125984251
11
-4.1447406299212597
21
5.7245750787401573
0
LINE
8
BLACK
6
CONTINUOUS
10
-4.1447406299212597
20
5.7245750787401573
11
-4.1476891732283461
21
5.7253650787401575
0
LINE
8
BLACK
6
CONTINUOUS
10
-4.1476891732283461
20
5.7253650787401575
11
-4.1494580708661415
21
5.726722440944882
0
LINE
8
BLACK
6
CONTINUOUS
10
-4.1494580708661415
20
5.726722440944882
11
-4.1497491732283462
21
5.7289331889763782
0
LINE
8
BLACK
6
CONTINUOUS
10
-4.1497491732283462
20
5.7289331889763782
11
-4.1484180708661418
21
5.7306868503937007
0
LINE
8
BLACK
6
CONTINUOUS
10
-4.1484180708661418
20
5.7306868503937007
11
-4.1452559842519685
21
5.7325568897637798
0
LINE
8
BLACK
6
CONTINUOUS
10
-4.1452559842519685
20
5.7325568897637798
11
-4.1406277952755906
21
5.7371850787401577
0
LINE
8
BLACK
6
CONTINUOUS
10
-4.1406277952755906
20
5.7371850787401577
11
-4.1372960236220475
21
5.7428188188976375
0
LINE
8
BLACK
6
CONTINUOUS
10
-4.1372960236220475
20
5.7428188188976375
11
-4.1354727165354328
21
5.7490944881889758
0
LINE
8
BLACK
6
CONTINUOUS
10
-4.1354727165354328
20
5.7490944881889758
11
-4.1570296850393698
21
5.7490944881889758
0
LINE
8
BLACK
6
CONTINUOUS
10
-4.1570296850393698
20
5.7490944881889758
11
-4.1570840157480315
21
5.7490131496062995
0
LINE
8
BLACK
6
CONTINUOUS
10
-4.1570840157480315
20
5.7490131496062995
11
-4.1589998818897636
21
5.7477329921259841
0
LINE
8
BLACK
6
CONTINUOUS
10
-4.1589998818897636
20
5.7477329921259841
11
-4.1612598425196845
21
5.7472834645669293
0
LINE
8
BLACK
6
CONTINUOUS
10
-4.1612598425196845
20
5.7472834645669293
11
-4.2163779527559058
21
5.7472834645669293
0
LINE
8
BLACK
6
CONTINUOUS
10
-4.2163779527559058
20
5.7472834645669293
11
-4.2186379133858267
21
5.7477329921259841
0
LINE
8
BLACK
6
CONTINUOUS
10
-4.2186379133858267
20
5.7477329921259841
11
-4.2205537795275587
21
5.7490131496062995
0
LINE
8
BLACK
6
CONTINUOUS
10
-4.2205537795275587
20
5.7490131496062995
11
-4.2206081102362205
21
5.7490944881889758
0
LINE
8
BLACK
6
CONTINUOUS
10
-4.2206081102362205
20
5.7490944881889758
11
-4.2421650787401575
21
5.7490944881889758
0
LINE
8
BLACK
6
CONTINUOUS
10
-4.2421650787401575
20
5.7490944881889758
11
-4.2403418110236215
21
5.7428188188976375
0
LINE
8
BLACK
6
CONTINUOUS
10
-4.5292192913385829
20
5.7654818503937006
11
-4.5292192913385829
21
5.7654818110236219
0
LINE
8
BLACK
6
CONTINUOUS
10
-4.5292192913385829
20
5.7654818110236219
11
-4.5268370472440944
21
5.7597306299212594
0
LINE
8
BLACK
6
CONTINUOUS
10
-4.5268370472440944
20
5.7597306299212594
11
-4.5230476377952753
21
5.7547921259842516
0
LINE
8
BLACK
6
CONTINUOUS
10
-4.5230476377952753
20
5.7547921259842516
11
-4.5230474409448815
21
5.7547919291338578
0
LINE
8
BLACK
6
CONTINUOUS
10
-4.5230474409448815
20
5.7547919291338578
11
-4.5181089370078737
21
5.7510025196850396
0
LINE
8
BLACK
6
CONTINUOUS
10
-4.5181089370078737
20
5.7510025196850396
11
-4.5123577559055121
21
5.7486202755905511
0
LINE
8
BLACK
6
CONTINUOUS
10
-4.5123577559055121
20
5.7486202755905511
11
-4.506186023622047
21
5.7478077952755902
0
LINE
8
BLACK
6
CONTINUOUS
10
-4.506186023622047
20
5.7478077952755902
11
-4.5000143700787403
21
5.7486202755905511
0
LINE
8
BLACK
6
CONTINUOUS
10
-4.5000143700787403
20
5.7486202755905511
11
-4.5000143307086615
21
5.7486202755905511
0
LINE
8
BLACK
6
CONTINUOUS
10
-4.5000143307086615
20
5.7486202755905511
11
-4.494263149606299
21
5.7510025196850396
0
LINE
8
BLACK
6
CONTINUOUS
10
-4.494263149606299
20
5.7510025196850396
11
-4.4893247244094487
21
5.7547918503937003
0
LINE
8
BLACK
6
CONTINUOUS
10
-4.4893247244094487
20
5.7547918503937003
11
-4.4893246456692912
21
5.7547919291338578
0
LINE
8
BLACK
6
CONTINUOUS
10
-4.4893246456692912
20
5.7547919291338578
11
-4.4893246062992125
21
5.7547919685039366
0
LINE
8
BLACK
6
CONTINUOUS
10
-4.4893246062992125
20
5.7547919685039366
11
-4.489324527559055
21
5.7547920472440941
0
LINE
8
BLACK
6
CONTINUOUS
10
-4.489324527559055
20
5.7547920472440941
11
-4.4891785826771651
21
5.7549822834645665
0
LINE
8
BLACK
6
CONTINUOUS
10
-4.4891785826771651
20
5.7549822834645665
11
-4.487247519685039
21
5.7560971259842519
0
LINE
8
BLACK
6
CONTINUOUS
10
-4.487247519685039
20
5.7560971259842519
11
-4.4868672834645666
21
5.7561220472440944
0
LINE
8
BLACK
6
CONTINUOUS
10
-4.4868672834645666
20
5.7561220472440944
11
-4.3570311811023625
21
5.7561220472440944
0
LINE
8
BLACK
6
CONTINUOUS
10
-4.3570311811023625
20
5.7561220472440944
11
-4.3549711023622049
21
5.7552687401574802
0
LINE
8
BLACK
6
CONTINUOUS
10
-4.3549711023622049
20
5.7552687401574802
11
-4.3547961417322831
21
5.7550692125984249
0
LINE
8
BLACK
6
CONTINUOUS
10
-4.3547961417322831
20
5.7550692125984249
11
-4.3547550393700787
21
5.7550280708661417
0
LINE
8
BLACK
6
CONTINUOUS
10
-4.3547550393700787
20
5.7550280708661417
11
-4.3498166141732284
21
5.75123874015748
0
LINE
8
BLACK
6
CONTINUOUS
10
-4.3498166141732284
20
5.75123874015748
11
-4.3440654330708659
21
5.7488564960629924
0
LINE
8
BLACK
6
CONTINUOUS
10
-4.3440654330708659
20
5.7488564960629924
11
-4.3378937007874017
21
5.7480440157480315
0
LINE
8
BLACK
6
CONTINUOUS
10
-4.3378937007874017
20
5.7480440157480315
11
-4.331722047244094
21
5.7488564960629924
0
LINE
8
BLACK
6
CONTINUOUS
10
-4.331722047244094
20
5.7488564960629924
11
-4.3317220078740153
21
5.7488564960629924
0
LINE
8
BLACK
6
CONTINUOUS
10
-4.3317220078740153
20
5.7488564960629924
11
-4.3259708267716537
21
5.75123874015748
0
LINE
8
BLACK
6
CONTINUOUS
10
-4.3259708267716537
20
5.75123874015748
11
-4.3210323228346459
21
5.7550281496062992
0
LINE
8
BLACK
6
CONTINUOUS
10
-4.3210323228346459
20
5.7550281496062992
11
-4.3210321259842521
21
5.7550283464566929
0
LINE
8
BLACK
6
CONTINUOUS
10
-4.3210321259842521
20
5.7550283464566929
11
-4.317242716535433
21
5.7599668503937007
0
LINE
8
BLACK
6
CONTINUOUS
10
-4.317242716535433
20
5.7599668503937007
11
-4.3172426771653543
21
5.7599668897637795
0
LINE
8
BLACK
6
CONTINUOUS
10
-4.3172426771653543
20
5.7599668897637795
11
-4.3148604724409445
21
5.7657180314960632
0
LINE
8
BLACK
6
CONTINUOUS
10
-4.3148604724409445
20
5.7657180314960632
11
-4.3140479527559057
21
5.7718897637795274
0
LINE
8
BLACK
6
CONTINUOUS
10
-4.3140479527559057
20
5.7718897637795274
11
-4.3148604724409445
21
5.7780614960629917
0
LINE
8
BLACK
6
CONTINUOUS
10
-4.3148604724409445
20
5.7780614960629917
11
-4.3172426771653543
21
5.7838126377952754
0
LINE
8
BLACK
6
CONTINUOUS
10
-4.3172426771653543
20
5.7838126377952754
11
-4.3210322047244096
21
5.7887512598425195
0
LINE
8
BLACK
6
CONTINUOUS
10
-4.3210322047244096
20
5.7887512598425195
11
-4.3259708267716537
21
5.7925407874015749
0
LINE
8
BLACK
6
CONTINUOUS
10
-4.3259708267716537
20
5.7925407874015749
11
-4.3317219685039365
21
5.7949229921259837
0
LINE
8
BLACK
6
CONTINUOUS
10
-4.3317219685039365
20
5.7949229921259837
11
-4.3378937007874017
21
5.7957355118110234
0
LINE
8
BLACK
6
CONTINUOUS
10
-4.3378937007874017
20
5.7957355118110234
11
-4.3440654330708659
21
5.7949229921259837
0
LINE
8
BLACK
6
CONTINUOUS
10
-4.3440654330708659
20
5.7949229921259837
11
-4.3498165748031496
21
5.7925407874015749
0
LINE
8
BLACK
6
CONTINUOUS
10
-4.3498165748031496
20
5.7925407874015749
11
-4.3502032283464569
21
5.792244094488189
0
LINE
8
BLACK
6
CONTINUOUS
10
-4.3502032283464569
20
5.792244094488189
11
-4.3547550393700787
21
5.7887514173228345
0
LINE
8
BLACK
6
CONTINUOUS
10
-4.3547550393700787
20
5.7887514173228345
11
-4.3548900393700789
21
5.7886163779527555
0
LINE
8
BLACK
6
CONTINUOUS
10
-4.3548900393700789
20
5.7886163779527555
11
-4.3549424409448818
21
5.7886687401574806
0
LINE
8
BLACK
6
CONTINUOUS
10
-4.3549424409448818
20
5.7886687401574806
11
-4.3566509842519681
21
5.787682401574803
0
LINE
8
BLACK
6
CONTINUOUS
10
-4.3566509842519681
20
5.787682401574803
11
-4.3570311811023625
21
5.7876574803149605
0
LINE
8
BLACK
6
CONTINUOUS
10
-4.3570311811023625
20
5.7876574803149605
11
-4.4872602362204725
21
5.7876574803149605
0
LINE
8
BLACK
6
CONTINUOUS
10
-4.4872602362204725
20
5.7876574803149605
11
-4.4891433858267717
21
5.7884374803149603
0
LINE
8
BLACK
6
CONTINUOUS
10
-4.4891433858267717
20
5.7884374803149603
11
-4.4891730314960627
21
5.7883988188976376
0
LINE
8
BLACK
6
CONTINUOUS
10
-4.4891730314960627
20
5.7883988188976376
11
-4.4893173622047247
21
5.7885095275590546
0
LINE
8
BLACK
6
CONTINUOUS
10
-4.4893173622047247
20
5.7885095275590546
11
-4.4893203149606302
21
5.7885107874015747
0
LINE
8
BLACK
6
CONTINUOUS
10
-4.4893203149606302
20
5.7885107874015747
11
-4.4893244488188975
21
5.7885149212598428
0
LINE
8
BLACK
6
CONTINUOUS
10
-4.4893244488188975
20
5.7885149212598428
11
-4.489324527559055
21
5.7885150393700791
0
LINE
8
BLACK
6
CONTINUOUS
10
-4.489324527559055
20
5.7885150393700791
11
-4.4893247244094487
21
5.7885151574803144
0
LINE
8
BLACK
6
CONTINUOUS
10
-4.4893247244094487
20
5.7885151574803144
11
-4.4893248031496062
21
5.7885152755905507
0
LINE
8
BLACK
6
CONTINUOUS
10
-4.4893248031496062
20
5.7885152755905507
11
-4.4912311417322837
21
5.7899779921259844
0
LINE
8
BLACK
6
CONTINUOUS
10
-4.4912311417322837
20
5.7899779921259844
11
-4.494263149606299
21
5.7923045669291335
0
LINE
8
BLACK
6
CONTINUOUS
10
-4.494263149606299
20
5.7923045669291335
11
-4.5000142913385828
21
5.7946867716535433
0
LINE
8
BLACK
6
CONTINUOUS
10
-4.5000142913385828
20
5.7946867716535433
11
-4.506186023622047
21
5.7954992913385821
0
LINE
8
BLACK
6
CONTINUOUS
10
-4.506186023622047
20
5.7954992913385821
11
-4.5123577559055121
21
5.7946867716535433
0
LINE
8
BLACK
6
CONTINUOUS
10
-4.5123577559055121
20
5.7946867716535433
11
-4.518108897637795
21
5.7923045669291335
0
LINE
8
BLACK
6
CONTINUOUS
10
-4.518108897637795
20
5.7923045669291335
11
-4.5184467716535428
21
5.7920453149606299
0
LINE
8
BLACK
6
CONTINUOUS
10
-4.5184467716535428
20
5.7920453149606299
11
-4.5230474409448815
21
5.7885151181102357
0
LINE
8
BLACK
6
CONTINUOUS
10
-4.5230474409448815
20
5.7885151181102357
11
-4.5230476377952753
21
5.7885149212598428
0
LINE
8
BLACK
6
CONTINUOUS
10
-4.5230476377952753
20
5.7885149212598428
11
-4.5268370472440944
21
5.7835764173228341
0
LINE
8
BLACK
6
CONTINUOUS
10
-4.5268370472440944
20
5.7835764173228341
11
-4.5292192913385829
21
5.7778252362204725
0
LINE
8
BLACK
6
CONTINUOUS
10
-4.5292192913385829
20
5.7778252362204725
11
-4.5292192913385829
21
5.7778251968503938
0
LINE
8
BLACK
6
CONTINUOUS
10
-4.5292192913385829
20
5.7778251968503938
11
-4.530031771653543
21
5.7716535433070861
0
LINE
8
BLACK
6
CONTINUOUS
10
-4.530031771653543
20
5.7716535433070861
11
-4.5292192913385829
21
5.7654818503937006
0
LINE
8
BLACK
6
CONTINUOUS
10
-4.9229133858267717
20
5.851614173228346
11
-4.8896062992125984
21
5.851614173228346
0
LINE
8
BLACK
6
CONTINUOUS
10
-4.8896062992125984
20
5.851614173228346
11
-4.8858397244094487
21
5.850864960629921
0
LINE
8
BLACK
6
CONTINUOUS
10
-4.8858397244094487
20
5.850864960629921
11
-4.8826465748031493
21
5.8487313779527561
0
LINE
8
BLACK
6
CONTINUOUS
10
-4.8826465748031493
20
5.8487313779527561
11
-4.8805129921259844
21
5.8455382283464568
0
LINE
8
BLACK
6
CONTINUOUS
10
-4.8805129921259844
20
5.8455382283464568
11
-4.8797951181102359
21
5.841929133858268
0
LINE
8
BLACK
6
CONTINUOUS
10
-4.8797951181102359
20
5.841929133858268
11
-4.859763779527559
21
5.841929133858268
0
LINE
8
BLACK
6
CONTINUOUS
10
-4.859763779527559
20
5.841929133858268
11
-4.859763779527559
21
5.8437599212598421
0
LINE
8
BLACK
6
CONTINUOUS
10
-4.859763779527559
20
5.8437599212598421
11
-4.8597638188976378
21
5.8437599999999996
0
LINE
8
BLACK
6
CONTINUOUS
10
-4.8597638188976378
20
5.8437599999999996
11
-4.8601813779527561
21
5.8478474409448822
0
LINE
8
BLACK
6
CONTINUOUS
10
-4.8601813779527561
20
5.8478474409448822
11
-4.8623757086614168
21
5.8544694488188975
0
LINE
8
BLACK
6
CONTINUOUS
10
-4.8623757086614168
20
5.8544694488188975
11
-4.8660380314960632
21
5.8604070078740156
0
LINE
8
BLACK
6
CONTINUOUS
10
-4.8660380314960632
20
5.8604070078740156
11
-4.8660381102362207
21
5.8604071653543306
0
LINE
8
BLACK
6
CONTINUOUS
10
-4.8660381102362207
20
5.8604071653543306
11
-4.8709707874015749
21
5.8653398425196848
0
LINE
8
BLACK
6
CONTINUOUS
10
-4.8709707874015749
20
5.8653398425196848
11
-4.8709709448818899
21
5.8653399212598423
0
LINE
8
BLACK
6
CONTINUOUS
10
-4.8709709448818899
20
5.8653399212598423
11
-4.8769085039370079
21
5.8690022440944878
0
LINE
8
BLACK
6
CONTINUOUS
10
-4.8769085039370079
20
5.8690022440944878
11
-4.8835305118110233
21
5.8711965748031494
0
LINE
8
BLACK
6
CONTINUOUS
10
-4.8835305118110233
20
5.8711965748031494
11
-4.8876179527559058
21
5.8716141338582677
0
LINE
8
BLACK
6
CONTINUOUS
10
-4.8876179527559058
20
5.8716141338582677
11
-4.8876180314960624
21
5.8716141732283464
0
LINE
8
BLACK
6
CONTINUOUS
10
-4.8876180314960624
20
5.8716141732283464
11
-4.9229133858267717
21
5.8716141732283464
0
LINE
8
BLACK
6
CONTINUOUS
10
-4.9229133858267717
20
5.8716141732283464
11
-4.9229133858267717
21
5.851614173228346
0
LINE
8
BLACK
6
CONTINUOUS
10
-4.8876179527559058
20
5.4989370078740158
11
-4.8835305118110233
21
5.4993545669291342
0
LINE
8
BLACK
6
CONTINUOUS
10
-4.8835305118110233
20
5.4993545669291342
11
-4.8769085039370079
21
5.5015488976377949
0
LINE
8
BLACK
6
CONTINUOUS
10
-4.8769085039370079
20
5.5015488976377949
11
-4.8709709448818899
21
5.5052112204724404
0
LINE
8
BLACK
6
CONTINUOUS
10
-4.8709709448818899
20
5.5052112204724404
11
-4.8709707874015749
21
5.5052113385826766
0
LINE
8
BLACK
6
CONTINUOUS
10
-4.8709707874015749
20
5.5052113385826766
11
-4.8660381102362207
21
5.5101440157480317
0
LINE
8
BLACK
6
CONTINUOUS
10
-4.8660381102362207
20
5.5101440157480317
11
-4.8660380314960632
21
5.510144133858268
0
LINE
8
BLACK
6
CONTINUOUS
10
-4.8660380314960632
20
5.510144133858268
11
-4.8623757086614168
21
5.516081692913386
0
LINE
8
BLACK
6
CONTINUOUS
10
-4.8623757086614168
20
5.516081692913386
11
-4.8601813779527561
21
5.5227037007874014
0
LINE
8
BLACK
6
CONTINUOUS
10
-4.8601813779527561
20
5.5227037007874014
11
-4.8597638188976378
21
5.526791141732283
0
LINE
8
BLACK
6
CONTINUOUS
10
-4.8597638188976378
20
5.526791141732283
11
-4.859763779527559
21
5.5267912204724405
0
LINE
8
BLACK
6
CONTINUOUS
10
-4.859763779527559
20
5.5267912204724405
11
-4.859763779527559
21
5.5286220472440943
0
LINE
8
BLACK
6
CONTINUOUS
10
-4.859763779527559
20
5.5286220472440943
11
-4.8797951181102359
21
5.5286220472440943
0
LINE
8
BLACK
6
CONTINUOUS
10
-4.8797951181102359
20
5.5286220472440943
11
-4.8805129921259844
21
5.5250129527559055
0
LINE
8
BLACK
6
CONTINUOUS
10
-4.8805129921259844
20
5.5250129527559055
11
-4.8826465748031493
21
5.5218198031496062
0
LINE
8
BLACK
6
CONTINUOUS
10
-4.8826465748031493
20
5.5218198031496062
11
-4.8858397244094487
21
5.5196862204724404
0
LINE
8
BLACK
6
CONTINUOUS
10
-4.8858397244094487
20
5.5196862204724404
11
-4.8896062992125984
21
5.5189370078740154
0
LINE
8
BLACK
6
CONTINUOUS
10
-4.8896062992125984
20
5.5189370078740154
11
-4.9229133858267717
21
5.5189370078740154
0
LINE
8
BLACK
6
CONTINUOUS
10
-4.9229133858267717
20
5.5189370078740154
11
-4.9229133858267717
21
5.4989370078740158
0
LINE
8
BLACK
6
CONTINUOUS
10
-4.9229133858267717
20
5.4989370078740158
11
-4.8876179527559058
21
5.4989370078740158
0
LINE
8
BLACK
6
CONTINUOUS
10
-4.8876179527559058
20
5.792244094488189
11
-4.8835305118110233
21
5.7926616535433073
0
LINE
8
BLACK
6
CONTINUOUS
10
-4.8835305118110233
20
5.7926616535433073
11
-4.8769085039370079
21
5.794855984251968
0
LINE
8
BLACK
6
CONTINUOUS
10
-4.8769085039370079
20
5.794855984251968
11
-4.8709709448818899
21
5.7985183070866144
0
LINE
8
BLACK
6
CONTINUOUS
10
-4.8709709448818899
20
5.7985183070866144
11
-4.8709707874015749
21
5.7985184251968507
0
LINE
8
BLACK
6
CONTINUOUS
10
-4.8709707874015749
20
5.7985184251968507
11
-4.8660381102362207
21
5.8034511023622048
0
LINE
8
BLACK
6
CONTINUOUS
10
-4.8660381102362207
20
5.8034511023622048
11
-4.8660380314960632
21
5.8034512204724411
0
LINE
8
BLACK
6
CONTINUOUS
10
-4.8660380314960632
20
5.8034512204724411
11
-4.8623757086614168
21
5.8093887795275592
0
LINE
8
BLACK
6
CONTINUOUS
10
-4.8623757086614168
20
5.8093887795275592
11
-4.8601813779527561
21
5.8160107874015745
0
LINE
8
BLACK
6
CONTINUOUS
10
-4.8601813779527561
20
5.8160107874015745
11
-4.8597638188976378
21
5.8200982283464562
0
LINE
8
BLACK
6
CONTINUOUS
10
-4.8597638188976378
20
5.8200982283464562
11
-4.859763779527559
21
5.8200983070866137
0
LINE
8
BLACK
6
CONTINUOUS
10
-4.859763779527559
20
5.8200983070866137
11
-4.859763779527559
21
5.8219291338582675
0
LINE
8
BLACK
6
CONTINUOUS
10
-4.859763779527559
20
5.8219291338582675
11
-4.8797951181102359
21
5.8219291338582675
0
LINE
8
BLACK
6
CONTINUOUS
10
-4.8797951181102359
20
5.8219291338582675
11
-4.8805129921259844
21
5.8183200393700787
0
LINE
8
BLACK
6
CONTINUOUS
10
-4.8805129921259844
20
5.8183200393700787
11
-4.8826465748031493
21
5.8151268897637793
0
LINE
8
BLACK
6
CONTINUOUS
10
-4.8826465748031493
20
5.8151268897637793
11
-4.8858397244094487
21
5.8129933070866144
0
LINE
8
BLACK
6
CONTINUOUS
10
-4.8858397244094487
20
5.8129933070866144
11
-4.8896062992125984
21
5.8122440944881886
0
LINE
8
BLACK
6
CONTINUOUS
10
-4.8896062992125984
20
5.8122440944881886
11
-4.9229133858267717
21
5.8122440944881886
0
LINE
8
BLACK
6
CONTINUOUS
10
-4.9229133858267717
20
5.8122440944881886
11
-4.9229133858267717
21
5.792244094488189
0
LINE
8
BLACK
6
CONTINUOUS
10
-4.9229133858267717
20
5.792244094488189
11
-4.8876179527559058
21
5.792244094488189
0
LINE
8
BLACK
6
CONTINUOUS
10
-4.1359842519685035
20
5.841929133858268
11
-4.1159529133858266
21
5.841929133858268
0
LINE
8
BLACK
6
CONTINUOUS
10
-4.1159529133858266
20
5.841929133858268
11
-4.115235039370079
21
5.8455382283464568
0
LINE
8
BLACK
6
CONTINUOUS
10
-4.115235039370079
20
5.8455382283464568
11
-4.1131014566929132
21
5.8487313779527561
0
LINE
8
BLACK
6
CONTINUOUS
10
-4.1131014566929132
20
5.8487313779527561
11
-4.1099083070866138
21
5.850864960629921
0
LINE
8
BLACK
6
CONTINUOUS
10
-4.1099083070866138
20
5.850864960629921
11
-4.1061417322834641
21
5.851614173228346
0
LINE
8
BLACK
6
CONTINUOUS
10
-4.1061417322834641
20
5.851614173228346
11
-4.0728346456692917
21
5.851614173228346
0
LINE
8
BLACK
6
CONTINUOUS
10
-4.0728346456692917
20
5.851614173228346
11
-4.0728346456692917
21
5.8716141732283464
0
LINE
8
BLACK
6
CONTINUOUS
10
-4.0728346456692917
20
5.8716141732283464
11
-4.1081300000000001
21
5.8716141732283464
0
LINE
8
BLACK
6
CONTINUOUS
10
-4.1081300000000001
20
5.8716141732283464
11
-4.1081301181102363
21
5.8716141338582677
0
LINE
8
BLACK
6
CONTINUOUS
10
-4.1081301181102363
20
5.8716141338582677
11
-4.112217559055118
21
5.8711965748031494
0
LINE
8
BLACK
6
CONTINUOUS
10
-4.112217559055118
20
5.8711965748031494
11
-4.1188395669291333
21
5.8690022440944878
0
LINE
8
BLACK
6
CONTINUOUS
10
-4.1188395669291333
20
5.8690022440944878
11
-4.1247771259842523
21
5.8653399212598423
0
LINE
8
BLACK
6
CONTINUOUS
10
-4.1247771259842523
20
5.8653399212598423
11
-4.1247772440944885
21
5.8653398425196848
0
LINE
8
BLACK
6
CONTINUOUS
10
-4.1247772440944885
20
5.8653398425196848
11
-4.1297099212598427
21
5.8604071653543306
0
LINE
8
BLACK
6
CONTINUOUS
10
-4.1297099212598427
20
5.8604071653543306
11
-4.129710039370079
21
5.8604070078740156
0
LINE
8
BLACK
6
CONTINUOUS
10
-4.129710039370079
20
5.8604070078740156
11
-4.1333723622047245
21
5.8544694488188975
0
LINE
8
BLACK
6
CONTINUOUS
10
-4.1333723622047245
20
5.8544694488188975
11
-4.1355666929133861
21
5.8478474409448822
0
LINE
8
BLACK
6
CONTINUOUS
10
-4.1355666929133861
20
5.8478474409448822
11
-4.1359842519685035
21
5.8437599999999996
0
LINE
8
BLACK
6
CONTINUOUS
10
-4.1359842519685035
20
5.8437599999999996
11
-4.1359842519685035
21
5.841929133858268
0
CIRCLE
8
BLACK
10
-4.8915748031496058
20
5.3899999999999997
40
0.0068897637795276
0
CIRCLE
8
BLACK
10
-4.8915748031496058
20
5.9805511811023617
40
0.0068897637795276
0
CIRCLE
8
BLACK
10
-4.1041732283464567
20
5.9805511811023617
40
0.0068897637795276
0
CIRCLE
8
BLACK
10
-4.4978740157480317
20
5.9805511811023617
40
0.0068897637795276
0
CIRCLE
8
BLACK
10
-4.1041732283464567
20
5.3899999999999997
40
0.0068897637795276
0
CIRCLE
8
BLACK
10
-4.4978740157480317
20
5.3899999999999997
40
0.0068897637795276
0
CIRCLE
8
BLACK
10
-4.0800000000000001
20
5.4699999999999998
40
0.0078740157480315
0
CIRCLE
8
BLACK
10
-4.8700000000000001
20
5.4699999999999998
40
0.0078740157480315
0
CIRCLE
8
BLACK
10
-4.0800000000000001
20
5.8999999999999995
40
0.0078740157480315
0
CIRCLE
8
BLACK
10
-4.165
20
5.4950000000000001
40
0.0078740157480315
0
CIRCLE
8
BLACK
10
-4.8099999999999996
20
5.9349999999999996
40
0.0078740157480315
0
CIRCLE
8
BLACK
10
-4.8149999999999995
20
5.4649999999999999
40
0.0078740157480315
0
CIRCLE
8
BLACK
10
-4.7450000000000001
20
5.5599999999999996
40
0.0078740157480315
0
CIRCLE
8
BLACK
10
-4.3200000000000003
20
5.808523622047244
40
0.0078740157480315
0
CIRCLE
8
BLACK
10
-4.8049999999999997
20
5.835
40
0.0078740157480315
0
CIRCLE
8
BLACK
10
-4.0449999999999999
20
5.6499999999999995
40
0.0078740157480315
0
CIRCLE
8
BLACK
10
-4.2149999999999999
20
5.5499999999999998
40
0.0078740157480315
0
CIRCLE
8
BLACK
10
-4.7450000000000001
20
5.835
40
0.0078740157480315
0
CIRCLE
8
BLACK
10
-4.0449999999999999
20
5.7699999999999996
40
0.0078740157480315
0
CIRCLE
8
BLACK
10
-4.6661024409448819
20
5.7249999999999996
40
0.0078740157480315
0
CIRCLE
8
BLACK
10
-4.9500000000000002
20
5.4699999999999998
40
0.0078740157480315
0
CIRCLE
8
BLACK
10
-4.8099999999999996
20
5.8949999999999996
40
0.0078740157480315
0
CIRCLE
8
BLACK
10
-4.2149999999999999
20
5.4450000000000003
40
0.0078740157480315
0
CIRCLE
8
BLACK
10
-4.8099999999999996
20
5.54
40
0.0078740157480315
0
CIRCLE
8
BLACK
10
-4.9500000000000002
20
5.9199999999999999
40
0.0078740157480315
0
CIRCLE
8
BLACK
10
-4.0449999999999999
20
5.6099999999999994
40
0.0078740157480315
0
CIRCLE
8
BLACK
10
-4.165
20
5.5499999999999998
40
0.0078740157480315
0
CIRCLE
8
BLACK
10
-4.04
20
5.8999999999999995
40
0.0078740157480315
0
CIRCLE
8
BLACK
10
-4.04
20
5.4699999999999998
40
0.0078740157480315
0
CIRCLE
8
BLACK
10
-4.9500000000000002
20
5.6899999999999995
40
0.0078740157480315
0
CIRCLE
8
BLACK
10
-4.2149999999999999
20
5.4950000000000001
40
0.0078740157480315
0
CIRCLE
8
BLACK
10
-4.1899999999999995
20
5.9249999999999998
40
0.0078740157480315
0
CIRCLE
8
BLACK
10
-4.2400000000000002
20
5.9249999999999998
40
0.0078740157480315
0
CIRCLE
8
BLACK
10
-4.9405365748031498
20
5.7526341338582672
40
0.0078740157480315
0
CIRCLE
8
BLACK
10
-4.9500000000000002
20
5.6049999999999995
40
0.0078740157480315
0
CIRCLE
8
BLACK
10
-4.0449999999999999
20
5.7299999999999995
40
0.0078740157480315
0
CIRCLE
8
BLACK
10
-4.4699999999999998
20
5.5350000000000001
40
0.0078740157480315
0
CIRCLE
8
BLACK
10
-4.6550000000000002
20
5.6291929133858263
40
0.0078740157480315
0
CIRCLE
8
BLACK
10
-4.0449999999999999
20
5.6899999999999995
40
0.0078740157480315
0
CIRCLE
8
BLACK
10
-4.3378937007874017
20
5.7718897637795274
40
0.0078740157480315
0
CIRCLE
8
BLACK
10
-4.506186023622047
20
5.7716535433070861
40
0.0078740157480315
0
CIRCLE
8
BLACK
10
-4.7350000000000003
20
5.7599999999999998
40
0.0078740157480315
0
CIRCLE
8
BLACK
10
-4.4799999999999995
20
5.8399999999999999
40
0.0078740157480315
0
CIRCLE
8
BLACK
10
-4.1899999999999995
20
5.7999999999999998
40
0.0078740157480315
0
CIRCLE
8
BLACK
10
-4.8650000000000002
20
5.6150000000000002
40
0.0078740157480315
0
CIRCLE
8
BLACK
10
-4.875
20
5.6600000000000001
40
0.0078740157480315
0
CIRCLE
8
BLACK
10
-4.4698993307086612
20
5.660384960629921
40
0.0078740157480315
0
CIRCLE
8
BLACK
10
-4.7398818897637796
20
5.7098818897637793
40
0.0078740157480315
0
CIRCLE
8
BLACK
10
-4.4249999999999998
20
5.6600000000000001
40
0.0078740157480315
0
CIRCLE
8
BLACK
10
-4.3650000000000002
20
5.6600000000000001
40
0.0078740157480315
0
CIRCLE
8
BLACK
10
-4.2556692913385827
20
5.660669291338583
40
0.0078740157480315
0
CIRCLE
8
BLACK
10
-4.3939748425196852
20
5.7095498425196851
40
0.0078740157480315
0
CIRCLE
8
BLACK
10
-4.131751968503937
20
5.6624329921259839
40
0.0078740157480315
  0
ENDSEC
  0
EOF
