  0
SECTION
  2
HEADER
  9
$ANGBASE
  50
0.0
  9
$ANGDIR
  70
1
  9
$MEASUREMENT
  70
0
  0
ENDSEC
  0
SECTION
  2
TABLES
  0
TABLE
  2
LTYPE
  70
4
  0
LTYPE
  5
40F
  2
CONTINUOUS
  70
0
  3
Solid line
  72
65
  73
0
  40
0.0
  0
LTYPE
  5
410
  2
DASHDOT
 70
0
  3
Dash Dot ____ _ ____ _
 72
65
 73
4
 40
2.0
 49
1.25
 49
-0.25
 49
0.25
 49
-0.25
  0
LTYPE
  5
411
  2
DASHED
 70
0
  3
Dashed __ __ __ __ __
 72
65
 73
2
 40
0.75
 49
0.5
 49
-0.25
  0
LTYPE
  5
43B
  2
DOTTED
 70
0
  3
Dotted .  .  .  .
 72
65
 73
2
 40
0.2
 49
0.0
 49
-0.2
  0
ENDTAB
  0
TABLE
  2
STYLE
  70
4
  0
STYLE
  2
KICAD
  70
0
  40
0
  41
1
  42
1
  50
0
  71
0
  3
isocp.shx
  0
STYLE
  2
KICADB
  70
0
  40
0
  41
1
  42
1
  50
0
  71
0
  3
isocp.shx
  0
STYLE
  2
KICADI
  70
0
  40
0
  41
1
  42
1
  50
15
  71
0
  3
isocp.shx
  0
STYLE
  2
KICADBI
  70
0
  40
0
  41
1
  42
1
  50
15
  71
0
  3
isocp.shx
  0
ENDTAB
  0
TABLE
  2
LAYER
  70
1
  0
LAYER
  2
BLACK
  70
0
  62
7
  6
CONTINUOUS
  0
ENDTAB
  0
ENDSEC
  0
SECTION
  2
ENTITIES
0
LINE
8
BLACK
6
CONTINUOUS
10
-4.29317
20
5.4933
11
-4.291
21
5.49114
0
LINE
8
BLACK
6
CONTINUOUS
10
-4.291
20
5.49114
11
-4.29021
21
5.48818
0
LINE
8
BLACK
6
CONTINUOUS
10
-4.29021
20
5.48818
11
-4.29021
21
5.47946
0
LINE
8
BLACK
6
CONTINUOUS
10
-4.29021
20
5.47946
11
-4.24494
21
5.47946
0
LINE
8
BLACK
6
CONTINUOUS
10
-4.24494
20
5.47946
11
-4.24198
21
5.47867
0
LINE
8
BLACK
6
CONTINUOUS
10
-4.24198
20
5.47867
11
-4.23982
21
5.47651
0
LINE
8
BLACK
6
CONTINUOUS
10
-4.23982
20
5.47651
11
-4.23903
21
5.47356
0
LINE
8
BLACK
6
CONTINUOUS
10
-4.23903
20
5.47356
11
-4.23982
21
5.47061
0
LINE
8
BLACK
6
CONTINUOUS
10
-4.23982
20
5.47061
11
-4.24198
21
5.46845
0
LINE
8
BLACK
6
CONTINUOUS
10
-4.24198
20
5.46845
11
-4.24494
21
5.46765
0
LINE
8
BLACK
6
CONTINUOUS
10
-4.24494
20
5.46765
11
-4.29021
21
5.46765
0
LINE
8
BLACK
6
CONTINUOUS
10
-4.29021
20
5.46765
11
-4.29021
21
5.45894
0
LINE
8
BLACK
6
CONTINUOUS
10
-4.29021
20
5.45894
11
-4.291
21
5.45598
0
LINE
8
BLACK
6
CONTINUOUS
10
-4.291
20
5.45598
11
-4.29317
21
5.45382
0
LINE
8
BLACK
6
CONTINUOUS
10
-4.29317
20
5.45382
11
-4.29612
21
5.45303
0
LINE
8
BLACK
6
CONTINUOUS
10
-4.29612
20
5.45303
11
-4.29907
21
5.45382
0
LINE
8
BLACK
6
CONTINUOUS
10
-4.29907
20
5.45382
11
-4.30123
21
5.45598
0
LINE
8
BLACK
6
CONTINUOUS
10
-4.30123
20
5.45598
11
-4.30202
21
5.45894
0
LINE
8
BLACK
6
CONTINUOUS
10
-4.30202
20
5.45894
11
-4.30202
21
5.48818
0
LINE
8
BLACK
6
CONTINUOUS
10
-4.30202
20
5.48818
11
-4.30123
21
5.49114
0
LINE
8
BLACK
6
CONTINUOUS
10
-4.30123
20
5.49114
11
-4.29907
21
5.4933
0
LINE
8
BLACK
6
CONTINUOUS
10
-4.29907
20
5.4933
11
-4.29612
21
5.49409
0
LINE
8
BLACK
6
CONTINUOUS
10
-4.29612
20
5.49409
11
-4.29317
21
5.4933
0
LINE
8
BLACK
6
CONTINUOUS
10
-4.54924
20
5.53367
11
-4.54791
21
5.5334
0
LINE
8
BLACK
6
CONTINUOUS
10
-4.54791
20
5.5334
11
-4.54303
21
5.53096
0
LINE
8
BLACK
6
CONTINUOUS
10
-4.54303
20
5.53096
11
-4.54232
21
5.53033
0
LINE
8
BLACK
6
CONTINUOUS
10
-4.54232
20
5.53033
11
-4.5415
21
5.52986
0
LINE
8
BLACK
6
CONTINUOUS
10
-4.5415
20
5.52986
11
-4.53906
21
5.52742
0
LINE
8
BLACK
6
CONTINUOUS
10
-4.53906
20
5.52742
11
-4.53858
21
5.5266
0
LINE
8
BLACK
6
CONTINUOUS
10
-4.53858
20
5.5266
11
-4.53795
21
5.52588
0
LINE
8
BLACK
6
CONTINUOUS
10
-4.53795
20
5.52588
11
-4.53552
21
5.52101
0
LINE
8
BLACK
6
CONTINUOUS
10
-4.53552
20
5.52101
11
-4.53524
21
5.51968
0
LINE
8
BLACK
6
CONTINUOUS
10
-4.53524
20
5.51968
11
-4.53489
21
5.51837
0
LINE
8
BLACK
6
CONTINUOUS
10
-4.53489
20
5.51837
11
-4.53489
21
5.51106
0
LINE
8
BLACK
6
CONTINUOUS
10
-4.53489
20
5.51106
11
-4.53524
21
5.50975
0
LINE
8
BLACK
6
CONTINUOUS
10
-4.53524
20
5.50975
11
-4.53552
21
5.50842
0
LINE
8
BLACK
6
CONTINUOUS
10
-4.53552
20
5.50842
11
-4.53795
21
5.50354
0
LINE
8
BLACK
6
CONTINUOUS
10
-4.53795
20
5.50354
11
-4.53858
21
5.50283
0
LINE
8
BLACK
6
CONTINUOUS
10
-4.53858
20
5.50283
11
-4.53906
21
5.50201
0
LINE
8
BLACK
6
CONTINUOUS
10
-4.53906
20
5.50201
11
-4.5415
21
5.49957
0
LINE
8
BLACK
6
CONTINUOUS
10
-4.5415
20
5.49957
11
-4.54232
21
5.49909
0
LINE
8
BLACK
6
CONTINUOUS
10
-4.54232
20
5.49909
11
-4.54303
21
5.49846
0
LINE
8
BLACK
6
CONTINUOUS
10
-4.54303
20
5.49846
11
-4.5472
21
5.49638
0
LINE
8
BLACK
6
CONTINUOUS
10
-4.5472
20
5.49638
11
-4.53596
21
5.48032
0
LINE
8
BLACK
6
CONTINUOUS
10
-4.53596
20
5.48032
11
-4.53491
21
5.47745
0
LINE
8
BLACK
6
CONTINUOUS
10
-4.53491
20
5.47745
11
-4.53545
21
5.47444
0
LINE
8
BLACK
6
CONTINUOUS
10
-4.53545
20
5.47444
11
-4.53741
21
5.4721
0
LINE
8
BLACK
6
CONTINUOUS
10
-4.53741
20
5.4721
11
-4.54028
21
5.47105
0
LINE
8
BLACK
6
CONTINUOUS
10
-4.54028
20
5.47105
11
-4.54329
21
5.47158
0
LINE
8
BLACK
6
CONTINUOUS
10
-4.54329
20
5.47158
11
-4.54564
21
5.47355
0
LINE
8
BLACK
6
CONTINUOUS
10
-4.54564
20
5.47355
11
-4.56093
21
5.4954
0
LINE
8
BLACK
6
CONTINUOUS
10
-4.56093
20
5.4954
11
-4.56414
21
5.4954
0
LINE
8
BLACK
6
CONTINUOUS
10
-4.56414
20
5.4954
11
-4.56414
21
5.47694
0
LINE
8
BLACK
6
CONTINUOUS
10
-4.56414
20
5.47694
11
-4.56493
21
5.47398
0
LINE
8
BLACK
6
CONTINUOUS
10
-4.56493
20
5.47398
11
-4.56709
21
5.47182
0
LINE
8
BLACK
6
CONTINUOUS
10
-4.56709
20
5.47182
11
-4.57004
21
5.47103
0
LINE
8
BLACK
6
CONTINUOUS
10
-4.57004
20
5.47103
11
-4.573
21
5.47182
0
LINE
8
BLACK
6
CONTINUOUS
10
-4.573
20
5.47182
11
-4.57516
21
5.47398
0
LINE
8
BLACK
6
CONTINUOUS
10
-4.57516
20
5.47398
11
-4.57595
21
5.47694
0
LINE
8
BLACK
6
CONTINUOUS
10
-4.57595
20
5.47694
11
-4.57595
21
5.52812
0
LINE
8
BLACK
6
CONTINUOUS
10
-4.57595
20
5.52812
11
-4.57516
21
5.53107
0
LINE
8
BLACK
6
CONTINUOUS
10
-4.57516
20
5.53107
11
-4.573
21
5.53323
0
LINE
8
BLACK
6
CONTINUOUS
10
-4.573
20
5.53323
11
-4.57004
21
5.53402
0
LINE
8
BLACK
6
CONTINUOUS
10
-4.57004
20
5.53402
11
-4.55055
21
5.53402
0
LINE
8
BLACK
6
CONTINUOUS
10
-4.55055
20
5.53402
11
-4.54924
21
5.53367
0
LINE
8
BLACK
6
CONTINUOUS
10
-4.56414
20
5.50721
11
-4.55194
21
5.50721
0
LINE
8
BLACK
6
CONTINUOUS
10
-4.55194
20
5.50721
11
-4.54917
21
5.5086
0
LINE
8
BLACK
6
CONTINUOUS
10
-4.54917
20
5.5086
11
-4.54809
21
5.50968
0
LINE
8
BLACK
6
CONTINUOUS
10
-4.54809
20
5.50968
11
-4.5467
21
5.51245
0
LINE
8
BLACK
6
CONTINUOUS
10
-4.5467
20
5.51245
11
-4.5467
21
5.51698
0
LINE
8
BLACK
6
CONTINUOUS
10
-4.5467
20
5.51698
11
-4.54809
21
5.51975
0
LINE
8
BLACK
6
CONTINUOUS
10
-4.54809
20
5.51975
11
-4.54917
21
5.52083
0
LINE
8
BLACK
6
CONTINUOUS
10
-4.54917
20
5.52083
11
-4.55194
21
5.52221
0
LINE
8
BLACK
6
CONTINUOUS
10
-4.55194
20
5.52221
11
-4.56414
21
5.52221
0
LINE
8
BLACK
6
CONTINUOUS
10
-4.56414
20
5.52221
11
-4.56414
21
5.50721
0
LINE
8
BLACK
6
CONTINUOUS
10
-4.49154
20
5.53323
11
-4.48938
21
5.53107
0
LINE
8
BLACK
6
CONTINUOUS
10
-4.48938
20
5.53107
11
-4.48859
21
5.52812
0
LINE
8
BLACK
6
CONTINUOUS
10
-4.48859
20
5.52812
11
-4.48938
21
5.52517
0
LINE
8
BLACK
6
CONTINUOUS
10
-4.48938
20
5.52517
11
-4.49154
21
5.523
0
LINE
8
BLACK
6
CONTINUOUS
10
-4.49154
20
5.523
11
-4.49449
21
5.52221
0
LINE
8
BLACK
6
CONTINUOUS
10
-4.49449
20
5.52221
11
-4.51296
21
5.52221
0
LINE
8
BLACK
6
CONTINUOUS
10
-4.51296
20
5.52221
11
-4.51296
21
5.50965
0
LINE
8
BLACK
6
CONTINUOUS
10
-4.51296
20
5.50965
11
-4.5018
21
5.50965
0
LINE
8
BLACK
6
CONTINUOUS
10
-4.5018
20
5.50965
11
-4.49885
21
5.50886
0
LINE
8
BLACK
6
CONTINUOUS
10
-4.49885
20
5.50886
11
-4.49669
21
5.5067
0
LINE
8
BLACK
6
CONTINUOUS
10
-4.49669
20
5.5067
11
-4.4959
21
5.50375
0
LINE
8
BLACK
6
CONTINUOUS
10
-4.4959
20
5.50375
11
-4.49669
21
5.50079
0
LINE
8
BLACK
6
CONTINUOUS
10
-4.49669
20
5.50079
11
-4.49885
21
5.49863
0
LINE
8
BLACK
6
CONTINUOUS
10
-4.49885
20
5.49863
11
-4.5018
21
5.49784
0
LINE
8
BLACK
6
CONTINUOUS
10
-4.5018
20
5.49784
11
-4.51296
21
5.49784
0
LINE
8
BLACK
6
CONTINUOUS
10
-4.51296
20
5.49784
11
-4.51296
21
5.48284
0
LINE
8
BLACK
6
CONTINUOUS
10
-4.51296
20
5.48284
11
-4.49449
21
5.48284
0
LINE
8
BLACK
6
CONTINUOUS
10
-4.49449
20
5.48284
11
-4.49154
21
5.48205
0
LINE
8
BLACK
6
CONTINUOUS
10
-4.49154
20
5.48205
11
-4.48938
21
5.47989
0
LINE
8
BLACK
6
CONTINUOUS
10
-4.48938
20
5.47989
11
-4.48859
21
5.47694
0
LINE
8
BLACK
6
CONTINUOUS
10
-4.48859
20
5.47694
11
-4.48938
21
5.47398
0
LINE
8
BLACK
6
CONTINUOUS
10
-4.48938
20
5.47398
11
-4.49154
21
5.47182
0
LINE
8
BLACK
6
CONTINUOUS
10
-4.49154
20
5.47182
11
-4.49449
21
5.47103
0
LINE
8
BLACK
6
CONTINUOUS
10
-4.49449
20
5.47103
11
-4.51886
21
5.47103
0
LINE
8
BLACK
6
CONTINUOUS
10
-4.51886
20
5.47103
11
-4.52182
21
5.47182
0
LINE
8
BLACK
6
CONTINUOUS
10
-4.52182
20
5.47182
11
-4.52398
21
5.47398
0
LINE
8
BLACK
6
CONTINUOUS
10
-4.52398
20
5.47398
11
-4.52477
21
5.47694
0
LINE
8
BLACK
6
CONTINUOUS
10
-4.52477
20
5.47694
11
-4.52477
21
5.52812
0
LINE
8
BLACK
6
CONTINUOUS
10
-4.52477
20
5.52812
11
-4.52398
21
5.53107
0
LINE
8
BLACK
6
CONTINUOUS
10
-4.52398
20
5.53107
11
-4.52182
21
5.53323
0
LINE
8
BLACK
6
CONTINUOUS
10
-4.52182
20
5.53323
11
-4.51886
21
5.53402
0
LINE
8
BLACK
6
CONTINUOUS
10
-4.51886
20
5.53402
11
-4.49449
21
5.53402
0
LINE
8
BLACK
6
CONTINUOUS
10
-4.49449
20
5.53402
11
-4.49154
21
5.53323
0
LINE
8
BLACK
6
CONTINUOUS
10
-4.41558
20
5.53378
11
-4.41463
21
5.53372
0
LINE
8
BLACK
6
CONTINUOUS
10
-4.41463
20
5.53372
11
-4.40732
21
5.53128
0
LINE
8
BLACK
6
CONTINUOUS
10
-4.40732
20
5.53128
11
-4.40619
21
5.53054
0
LINE
8
BLACK
6
CONTINUOUS
10
-4.40619
20
5.53054
11
-4.40501
21
5.52986
0
LINE
8
BLACK
6
CONTINUOUS
10
-4.40501
20
5.52986
11
-4.40014
21
5.52498
0
LINE
8
BLACK
6
CONTINUOUS
10
-4.40014
20
5.52498
11
-4.39966
21
5.52416
0
LINE
8
BLACK
6
CONTINUOUS
10
-4.39966
20
5.52416
11
-4.39903
21
5.52345
0
LINE
8
BLACK
6
CONTINUOUS
10
-4.39903
20
5.52345
11
-4.3966
21
5.51857
0
LINE
8
BLACK
6
CONTINUOUS
10
-4.3966
20
5.51857
11
-4.39646
21
5.51793
0
LINE
8
BLACK
6
CONTINUOUS
10
-4.39646
20
5.51793
11
-4.39615
21
5.51736
0
LINE
8
BLACK
6
CONTINUOUS
10
-4.39615
20
5.51736
11
-4.39371
21
5.50762
0
LINE
8
BLACK
6
CONTINUOUS
10
-4.39371
20
5.50762
11
-4.39372
21
5.50689
0
LINE
8
BLACK
6
CONTINUOUS
10
-4.39372
20
5.50689
11
-4.39353
21
5.50618
0
LINE
8
BLACK
6
CONTINUOUS
10
-4.39353
20
5.50618
11
-4.39353
21
5.49887
0
LINE
8
BLACK
6
CONTINUOUS
10
-4.39353
20
5.49887
11
-4.39372
21
5.49817
0
LINE
8
BLACK
6
CONTINUOUS
10
-4.39372
20
5.49817
11
-4.39371
21
5.49744
0
LINE
8
BLACK
6
CONTINUOUS
10
-4.39371
20
5.49744
11
-4.39615
21
5.48769
0
LINE
8
BLACK
6
CONTINUOUS
10
-4.39615
20
5.48769
11
-4.39646
21
5.48712
0
LINE
8
BLACK
6
CONTINUOUS
10
-4.39646
20
5.48712
11
-4.3966
21
5.48648
0
LINE
8
BLACK
6
CONTINUOUS
10
-4.3966
20
5.48648
11
-4.39903
21
5.48161
0
LINE
8
BLACK
6
CONTINUOUS
10
-4.39903
20
5.48161
11
-4.39966
21
5.4809
0
LINE
8
BLACK
6
CONTINUOUS
10
-4.39966
20
5.4809
11
-4.40014
21
5.48007
0
LINE
8
BLACK
6
CONTINUOUS
10
-4.40014
20
5.48007
11
-4.40501
21
5.4752
0
LINE
8
BLACK
6
CONTINUOUS
10
-4.40501
20
5.4752
11
-4.40619
21
5.47452
0
LINE
8
BLACK
6
CONTINUOUS
10
-4.40619
20
5.47452
11
-4.40732
21
5.47377
0
LINE
8
BLACK
6
CONTINUOUS
10
-4.40732
20
5.47377
11
-4.41463
21
5.47133
0
LINE
8
BLACK
6
CONTINUOUS
10
-4.41463
20
5.47133
11
-4.41558
21
5.47128
0
LINE
8
BLACK
6
CONTINUOUS
10
-4.41558
20
5.47128
11
-4.4165
21
5.47103
0
LINE
8
BLACK
6
CONTINUOUS
10
-4.4165
20
5.47103
11
-4.42869
21
5.47103
0
LINE
8
BLACK
6
CONTINUOUS
10
-4.42869
20
5.47103
11
-4.43164
21
5.47182
0
LINE
8
BLACK
6
CONTINUOUS
10
-4.43164
20
5.47182
11
-4.4338
21
5.47398
0
LINE
8
BLACK
6
CONTINUOUS
10
-4.4338
20
5.47398
11
-4.43459
21
5.47694
0
LINE
8
BLACK
6
CONTINUOUS
10
-4.43459
20
5.47694
11
-4.43459
21
5.52812
0
LINE
8
BLACK
6
CONTINUOUS
10
-4.43459
20
5.52812
11
-4.4338
21
5.53107
0
LINE
8
BLACK
6
CONTINUOUS
10
-4.4338
20
5.53107
11
-4.43164
21
5.53323
0
LINE
8
BLACK
6
CONTINUOUS
10
-4.43164
20
5.53323
11
-4.42869
21
5.53402
0
LINE
8
BLACK
6
CONTINUOUS
10
-4.42869
20
5.53402
11
-4.4165
21
5.53402
0
LINE
8
BLACK
6
CONTINUOUS
10
-4.4165
20
5.53402
11
-4.41558
21
5.53378
0
LINE
8
BLACK
6
CONTINUOUS
10
-4.42278
20
5.48284
11
-4.41746
21
5.48284
0
LINE
8
BLACK
6
CONTINUOUS
10
-4.41746
20
5.48284
11
-4.41238
21
5.48454
0
LINE
8
BLACK
6
CONTINUOUS
10
-4.41238
20
5.48454
11
-4.40917
21
5.48775
0
LINE
8
BLACK
6
CONTINUOUS
10
-4.40917
20
5.48775
11
-4.40745
21
5.49118
0
LINE
8
BLACK
6
CONTINUOUS
10
-4.40745
20
5.49118
11
-4.40535
21
5.4996
0
LINE
8
BLACK
6
CONTINUOUS
10
-4.40535
20
5.4996
11
-4.40535
21
5.50546
0
LINE
8
BLACK
6
CONTINUOUS
10
-4.40535
20
5.50546
11
-4.40745
21
5.51387
0
LINE
8
BLACK
6
CONTINUOUS
10
-4.40745
20
5.51387
11
-4.40917
21
5.51731
0
LINE
8
BLACK
6
CONTINUOUS
10
-4.40917
20
5.51731
11
-4.41238
21
5.52052
0
LINE
8
BLACK
6
CONTINUOUS
10
-4.41238
20
5.52052
11
-4.41746
21
5.52221
0
LINE
8
BLACK
6
CONTINUOUS
10
-4.41746
20
5.52221
11
-4.42278
21
5.52221
0
LINE
8
BLACK
6
CONTINUOUS
10
-4.42278
20
5.52221
11
-4.42278
21
5.48284
0
LINE
8
BLACK
6
CONTINUOUS
10
-4.38209
20
5.53335
11
-4.37983
21
5.53129
0
LINE
8
BLACK
6
CONTINUOUS
10
-4.37983
20
5.53129
11
-4.36776
21
5.51231
0
LINE
8
BLACK
6
CONTINUOUS
10
-4.36776
20
5.51231
11
-4.35568
21
5.53129
0
LINE
8
BLACK
6
CONTINUOUS
10
-4.35568
20
5.53129
11
-4.35343
21
5.53335
0
LINE
8
BLACK
6
CONTINUOUS
10
-4.35343
20
5.53335
11
-4.35044
21
5.53402
0
LINE
8
BLACK
6
CONTINUOUS
10
-4.35044
20
5.53402
11
-4.34753
21
5.5331
0
LINE
8
BLACK
6
CONTINUOUS
10
-4.34753
20
5.5331
11
-4.34546
21
5.53085
0
LINE
8
BLACK
6
CONTINUOUS
10
-4.34546
20
5.53085
11
-4.3448
21
5.52786
0
LINE
8
BLACK
6
CONTINUOUS
10
-4.3448
20
5.52786
11
-4.34571
21
5.52495
0
LINE
8
BLACK
6
CONTINUOUS
10
-4.34571
20
5.52495
11
-4.36185
21
5.49959
0
LINE
8
BLACK
6
CONTINUOUS
10
-4.36185
20
5.49959
11
-4.36185
21
5.47694
0
LINE
8
BLACK
6
CONTINUOUS
10
-4.36185
20
5.47694
11
-4.36264
21
5.47398
0
LINE
8
BLACK
6
CONTINUOUS
10
-4.36264
20
5.47398
11
-4.3648
21
5.47182
0
LINE
8
BLACK
6
CONTINUOUS
10
-4.3648
20
5.47182
11
-4.36776
21
5.47103
0
LINE
8
BLACK
6
CONTINUOUS
10
-4.36776
20
5.47103
11
-4.37071
21
5.47182
0
LINE
8
BLACK
6
CONTINUOUS
10
-4.37071
20
5.47182
11
-4.37287
21
5.47398
0
LINE
8
BLACK
6
CONTINUOUS
10
-4.37287
20
5.47398
11
-4.37366
21
5.47694
0
LINE
8
BLACK
6
CONTINUOUS
10
-4.37366
20
5.47694
11
-4.37366
21
5.49959
0
LINE
8
BLACK
6
CONTINUOUS
10
-4.37366
20
5.49959
11
-4.3898
21
5.52495
0
LINE
8
BLACK
6
CONTINUOUS
10
-4.3898
20
5.52495
11
-4.39072
21
5.52786
0
LINE
8
BLACK
6
CONTINUOUS
10
-4.39072
20
5.52786
11
-4.39005
21
5.53085
0
LINE
8
BLACK
6
CONTINUOUS
10
-4.39005
20
5.53085
11
-4.38799
21
5.5331
0
LINE
8
BLACK
6
CONTINUOUS
10
-4.38799
20
5.5331
11
-4.38507
21
5.53402
0
LINE
8
BLACK
6
CONTINUOUS
10
-4.38507
20
5.53402
11
-4.38209
21
5.53335
0
LINE
8
BLACK
6
CONTINUOUS
10
-4.4613
20
5.53374
11
-4.46094
21
5.53372
0
LINE
8
BLACK
6
CONTINUOUS
10
-4.46094
20
5.53372
11
-4.45995
21
5.53307
0
LINE
8
BLACK
6
CONTINUOUS
10
-4.45995
20
5.53307
11
-4.45889
21
5.53254
0
LINE
8
BLACK
6
CONTINUOUS
10
-4.45889
20
5.53254
11
-4.45869
21
5.53223
0
LINE
8
BLACK
6
CONTINUOUS
10
-4.45869
20
5.53223
11
-4.45839
21
5.53204
0
LINE
8
BLACK
6
CONTINUOUS
10
-4.45839
20
5.53204
11
-4.45786
21
5.53098
0
LINE
8
BLACK
6
CONTINUOUS
10
-4.45786
20
5.53098
11
-4.4572
21
5.52999
0
LINE
8
BLACK
6
CONTINUOUS
10
-4.4572
20
5.52999
11
-4.44014
21
5.4788
0
LINE
8
BLACK
6
CONTINUOUS
10
-4.44014
20
5.4788
11
-4.43996
21
5.47575
0
LINE
8
BLACK
6
CONTINUOUS
10
-4.43996
20
5.47575
11
-4.44133
21
5.47302
0
LINE
8
BLACK
6
CONTINUOUS
10
-4.44133
20
5.47302
11
-4.44388
21
5.47133
0
LINE
8
BLACK
6
CONTINUOUS
10
-4.44388
20
5.47133
11
-4.44693
21
5.47115
0
LINE
8
BLACK
6
CONTINUOUS
10
-4.44693
20
5.47115
11
-4.44966
21
5.47252
0
LINE
8
BLACK
6
CONTINUOUS
10
-4.44966
20
5.47252
11
-4.45135
21
5.47507
0
LINE
8
BLACK
6
CONTINUOUS
10
-4.45135
20
5.47507
11
-4.45488
21
5.48565
0
LINE
8
BLACK
6
CONTINUOUS
10
-4.45488
20
5.48565
11
-4.47074
21
5.48565
0
LINE
8
BLACK
6
CONTINUOUS
10
-4.47074
20
5.48565
11
-4.47426
21
5.47507
0
LINE
8
BLACK
6
CONTINUOUS
10
-4.47426
20
5.47507
11
-4.47595
21
5.47252
0
LINE
8
BLACK
6
CONTINUOUS
10
-4.47595
20
5.47252
11
-4.47868
21
5.47115
0
LINE
8
BLACK
6
CONTINUOUS
10
-4.47868
20
5.47115
11
-4.48173
21
5.47133
0
LINE
8
BLACK
6
CONTINUOUS
10
-4.48173
20
5.47133
11
-4.48429
21
5.47302
0
LINE
8
BLACK
6
CONTINUOUS
10
-4.48429
20
5.47302
11
-4.48565
21
5.47575
0
LINE
8
BLACK
6
CONTINUOUS
10
-4.48565
20
5.47575
11
-4.48547
21
5.4788
0
LINE
8
BLACK
6
CONTINUOUS
10
-4.48547
20
5.4788
11
-4.46841
21
5.52999
0
LINE
8
BLACK
6
CONTINUOUS
10
-4.46841
20
5.52999
11
-4.46776
21
5.53098
0
LINE
8
BLACK
6
CONTINUOUS
10
-4.46776
20
5.53098
11
-4.46723
21
5.53204
0
LINE
8
BLACK
6
CONTINUOUS
10
-4.46723
20
5.53204
11
-4.46692
21
5.53224
0
LINE
8
BLACK
6
CONTINUOUS
10
-4.46692
20
5.53224
11
-4.46673
21
5.53254
0
LINE
8
BLACK
6
CONTINUOUS
10
-4.46673
20
5.53254
11
-4.46566
21
5.53307
0
LINE
8
BLACK
6
CONTINUOUS
10
-4.46566
20
5.53307
11
-4.46467
21
5.53372
0
LINE
8
BLACK
6
CONTINUOUS
10
-4.46467
20
5.53372
11
-4.46431
21
5.53374
0
LINE
8
BLACK
6
CONTINUOUS
10
-4.46431
20
5.53374
11
-4.46399
21
5.5339
0
LINE
8
BLACK
6
CONTINUOUS
10
-4.46399
20
5.5339
11
-4.46281
21
5.53383
0
LINE
8
BLACK
6
CONTINUOUS
10
-4.46281
20
5.53383
11
-4.46162
21
5.5339
0
LINE
8
BLACK
6
CONTINUOUS
10
-4.46162
20
5.5339
11
-4.4613
21
5.53374
0
LINE
8
BLACK
6
CONTINUOUS
10
-4.4668
20
5.49747
11
-4.45881
21
5.49747
0
LINE
8
BLACK
6
CONTINUOUS
10
-4.45881
20
5.49747
11
-4.46281
21
5.50944
0
LINE
8
BLACK
6
CONTINUOUS
10
-4.46281
20
5.50944
11
-4.4668
21
5.49747
0
LINE
8
BLACK
6
CONTINUOUS
10
-4.29317
20
5.53473
11
-4.291
21
5.53257
0
LINE
8
BLACK
6
CONTINUOUS
10
-4.291
20
5.53257
11
-4.29021
21
5.52961
0
LINE
8
BLACK
6
CONTINUOUS
10
-4.29021
20
5.52961
11
-4.29021
21
5.51115
0
LINE
8
BLACK
6
CONTINUOUS
10
-4.29021
20
5.51115
11
-4.27765
21
5.51115
0
LINE
8
BLACK
6
CONTINUOUS
10
-4.27765
20
5.51115
11
-4.27765
21
5.5223
0
LINE
8
BLACK
6
CONTINUOUS
10
-4.27765
20
5.5223
11
-4.27686
21
5.52526
0
LINE
8
BLACK
6
CONTINUOUS
10
-4.27686
20
5.52526
11
-4.2747
21
5.52742
0
LINE
8
BLACK
6
CONTINUOUS
10
-4.2747
20
5.52742
11
-4.27175
21
5.52821
0
LINE
8
BLACK
6
CONTINUOUS
10
-4.27175
20
5.52821
11
-4.26879
21
5.52742
0
LINE
8
BLACK
6
CONTINUOUS
10
-4.26879
20
5.52742
11
-4.26663
21
5.52526
0
LINE
8
BLACK
6
CONTINUOUS
10
-4.26663
20
5.52526
11
-4.26584
21
5.5223
0
LINE
8
BLACK
6
CONTINUOUS
10
-4.26584
20
5.5223
11
-4.26584
21
5.51115
0
LINE
8
BLACK
6
CONTINUOUS
10
-4.26584
20
5.51115
11
-4.24494
21
5.51115
0
LINE
8
BLACK
6
CONTINUOUS
10
-4.24494
20
5.51115
11
-4.24198
21
5.51036
0
LINE
8
BLACK
6
CONTINUOUS
10
-4.24198
20
5.51036
11
-4.23982
21
5.5082
0
LINE
8
BLACK
6
CONTINUOUS
10
-4.23982
20
5.5082
11
-4.23903
21
5.50524
0
LINE
8
BLACK
6
CONTINUOUS
10
-4.23903
20
5.50524
11
-4.23982
21
5.50229
0
LINE
8
BLACK
6
CONTINUOUS
10
-4.23982
20
5.50229
11
-4.24198
21
5.50013
0
LINE
8
BLACK
6
CONTINUOUS
10
-4.24198
20
5.50013
11
-4.24494
21
5.49934
0
LINE
8
BLACK
6
CONTINUOUS
10
-4.24494
20
5.49934
11
-4.27175
21
5.49934
0
LINE
8
BLACK
6
CONTINUOUS
10
-4.27175
20
5.49934
11
-4.29612
21
5.49934
0
LINE
8
BLACK
6
CONTINUOUS
10
-4.29612
20
5.49934
11
-4.29907
21
5.50013
0
LINE
8
BLACK
6
CONTINUOUS
10
-4.29907
20
5.50013
11
-4.30123
21
5.50229
0
LINE
8
BLACK
6
CONTINUOUS
10
-4.30123
20
5.50229
11
-4.30202
21
5.50524
0
LINE
8
BLACK
6
CONTINUOUS
10
-4.30202
20
5.50524
11
-4.30202
21
5.52961
0
LINE
8
BLACK
6
CONTINUOUS
10
-4.30202
20
5.52961
11
-4.30123
21
5.53257
0
LINE
8
BLACK
6
CONTINUOUS
10
-4.30123
20
5.53257
11
-4.29907
21
5.53473
0
LINE
8
BLACK
6
CONTINUOUS
10
-4.29907
20
5.53473
11
-4.29612
21
5.53552
0
LINE
8
BLACK
6
CONTINUOUS
10
-4.29612
20
5.53552
11
-4.29317
21
5.53473
0
LINE
8
BLACK
6
CONTINUOUS
10
-4.81077
20
5.59108
11
-4.81008
21
5.58941
0
LINE
8
BLACK
6
CONTINUOUS
10
-4.81008
20
5.58941
11
-4.81008
21
5.51854
0
LINE
8
BLACK
6
CONTINUOUS
10
-4.81008
20
5.51854
11
-4.81077
21
5.51687
0
LINE
8
BLACK
6
CONTINUOUS
10
-4.81077
20
5.51687
11
-4.81244
21
5.51618
0
LINE
8
BLACK
6
CONTINUOUS
10
-4.81244
20
5.51618
11
-4.86953
21
5.51618
0
LINE
8
BLACK
6
CONTINUOUS
10
-4.86953
20
5.51618
11
-4.8712
21
5.51687
0
LINE
8
BLACK
6
CONTINUOUS
10
-4.8712
20
5.51687
11
-4.87189
21
5.51854
0
LINE
8
BLACK
6
CONTINUOUS
10
-4.87189
20
5.51854
11
-4.8712
21
5.52021
0
LINE
8
BLACK
6
CONTINUOUS
10
-4.8712
20
5.52021
11
-4.86953
21
5.52091
0
LINE
8
BLACK
6
CONTINUOUS
10
-4.86953
20
5.52091
11
-4.8148
21
5.52091
0
LINE
8
BLACK
6
CONTINUOUS
10
-4.8148
20
5.52091
11
-4.8148
21
5.58941
0
LINE
8
BLACK
6
CONTINUOUS
10
-4.8148
20
5.58941
11
-4.81411
21
5.59108
0
LINE
8
BLACK
6
CONTINUOUS
10
-4.81411
20
5.59108
11
-4.81244
21
5.59177
0
LINE
8
BLACK
6
CONTINUOUS
10
-4.81244
20
5.59177
11
-4.81077
21
5.59108
0
LINE
8
BLACK
6
CONTINUOUS
10
-4.18331
20
5.59177
11
-4.18164
21
5.59108
0
LINE
8
BLACK
6
CONTINUOUS
10
-4.18164
20
5.59108
11
-4.18094
21
5.58941
0
LINE
8
BLACK
6
CONTINUOUS
10
-4.18094
20
5.58941
11
-4.18094
21
5.52091
0
LINE
8
BLACK
6
CONTINUOUS
10
-4.18094
20
5.52091
11
-4.12622
21
5.52091
0
LINE
8
BLACK
6
CONTINUOUS
10
-4.12622
20
5.52091
11
-4.12455
21
5.52021
0
LINE
8
BLACK
6
CONTINUOUS
10
-4.12455
20
5.52021
11
-4.12386
21
5.51854
0
LINE
8
BLACK
6
CONTINUOUS
10
-4.12386
20
5.51854
11
-4.12455
21
5.51687
0
LINE
8
BLACK
6
CONTINUOUS
10
-4.12455
20
5.51687
11
-4.12622
21
5.51618
0
LINE
8
BLACK
6
CONTINUOUS
10
-4.12622
20
5.51618
11
-4.18331
21
5.51618
0
LINE
8
BLACK
6
CONTINUOUS
10
-4.18331
20
5.51618
11
-4.18498
21
5.51687
0
LINE
8
BLACK
6
CONTINUOUS
10
-4.18498
20
5.51687
11
-4.18567
21
5.51854
0
LINE
8
BLACK
6
CONTINUOUS
10
-4.18567
20
5.51854
11
-4.18567
21
5.58705
0
LINE
8
BLACK
6
CONTINUOUS
10
-4.18567
20
5.58705
11
-4.22228
21
5.58705
0
LINE
8
BLACK
6
CONTINUOUS
10
-4.22228
20
5.58705
11
-4.22395
21
5.58774
0
LINE
8
BLACK
6
CONTINUOUS
10
-4.22395
20
5.58774
11
-4.22465
21
5.58941
0
LINE
8
BLACK
6
CONTINUOUS
10
-4.22465
20
5.58941
11
-4.22395
21
5.59108
0
LINE
8
BLACK
6
CONTINUOUS
10
-4.22395
20
5.59108
11
-4.22228
21
5.59177
0
LINE
8
BLACK
6
CONTINUOUS
10
-4.22228
20
5.59177
11
-4.18331
21
5.59177
0
LINE
8
BLACK
6
CONTINUOUS
10
-4.24198
20
5.55423
11
-4.23982
21
5.55207
0
LINE
8
BLACK
6
CONTINUOUS
10
-4.23982
20
5.55207
11
-4.23903
21
5.54911
0
LINE
8
BLACK
6
CONTINUOUS
10
-4.23903
20
5.54911
11
-4.23982
21
5.54616
0
LINE
8
BLACK
6
CONTINUOUS
10
-4.23982
20
5.54616
11
-4.24198
21
5.544
0
LINE
8
BLACK
6
CONTINUOUS
10
-4.24198
20
5.544
11
-4.24494
21
5.54321
0
LINE
8
BLACK
6
CONTINUOUS
10
-4.24494
20
5.54321
11
-4.29612
21
5.54321
0
LINE
8
BLACK
6
CONTINUOUS
10
-4.29612
20
5.54321
11
-4.29907
21
5.544
0
LINE
8
BLACK
6
CONTINUOUS
10
-4.29907
20
5.544
11
-4.30123
21
5.54616
0
LINE
8
BLACK
6
CONTINUOUS
10
-4.30123
20
5.54616
11
-4.30202
21
5.54911
0
LINE
8
BLACK
6
CONTINUOUS
10
-4.30202
20
5.54911
11
-4.30123
21
5.55207
0
LINE
8
BLACK
6
CONTINUOUS
10
-4.30123
20
5.55207
11
-4.29907
21
5.55423
0
LINE
8
BLACK
6
CONTINUOUS
10
-4.29907
20
5.55423
11
-4.29612
21
5.55502
0
LINE
8
BLACK
6
CONTINUOUS
10
-4.29612
20
5.55502
11
-4.24494
21
5.55502
0
LINE
8
BLACK
6
CONTINUOUS
10
-4.24494
20
5.55502
11
-4.24198
21
5.55423
0
LINE
8
BLACK
6
CONTINUOUS
10
-4.42452
20
5.59978
11
-4.42342
21
5.59973
0
LINE
8
BLACK
6
CONTINUOUS
10
-4.42342
20
5.59973
11
-4.42274
21
5.59966
0
LINE
8
BLACK
6
CONTINUOUS
10
-4.42274
20
5.59966
11
-4.42243
21
5.59955
0
LINE
8
BLACK
6
CONTINUOUS
10
-4.42243
20
5.59955
11
-4.4224
21
5.59948
0
LINE
8
BLACK
6
CONTINUOUS
10
-4.4224
20
5.59948
11
-4.42244
21
5.59918
0
LINE
8
BLACK
6
CONTINUOUS
10
-4.42244
20
5.59918
11
-4.42257
21
5.59842
0
LINE
8
BLACK
6
CONTINUOUS
10
-4.42257
20
5.59842
11
-4.42277
21
5.59722
0
LINE
8
BLACK
6
CONTINUOUS
10
-4.42277
20
5.59722
11
-4.42305
21
5.59563
0
LINE
8
BLACK
6
CONTINUOUS
10
-4.42305
20
5.59563
11
-4.42338
21
5.59369
0
LINE
8
BLACK
6
CONTINUOUS
10
-4.42338
20
5.59369
11
-4.42377
21
5.59144
0
LINE
8
BLACK
6
CONTINUOUS
10
-4.42377
20
5.59144
11
-4.42421
21
5.58892
0
LINE
8
BLACK
6
CONTINUOUS
10
-4.42421
20
5.58892
11
-4.42469
21
5.58617
0
LINE
8
BLACK
6
CONTINUOUS
10
-4.42469
20
5.58617
11
-4.42521
21
5.58322
0
LINE
8
BLACK
6
CONTINUOUS
10
-4.42521
20
5.58322
11
-4.42575
21
5.58011
0
LINE
8
BLACK
6
CONTINUOUS
10
-4.42575
20
5.58011
11
-4.42589
21
5.57934
0
LINE
8
BLACK
6
CONTINUOUS
10
-4.42589
20
5.57934
11
-4.42644
21
5.5762
0
LINE
8
BLACK
6
CONTINUOUS
10
-4.42644
20
5.5762
11
-4.42696
21
5.57321
0
LINE
8
BLACK
6
CONTINUOUS
10
-4.42696
20
5.57321
11
-4.42745
21
5.57041
0
LINE
8
BLACK
6
CONTINUOUS
10
-4.42745
20
5.57041
11
-4.4279
21
5.56783
0
LINE
8
BLACK
6
CONTINUOUS
10
-4.4279
20
5.56783
11
-4.4283
21
5.56552
0
LINE
8
BLACK
6
CONTINUOUS
10
-4.4283
20
5.56552
11
-4.42865
21
5.56351
0
LINE
8
BLACK
6
CONTINUOUS
10
-4.42865
20
5.56351
11
-4.42894
21
5.56184
0
LINE
8
BLACK
6
CONTINUOUS
10
-4.42894
20
5.56184
11
-4.42916
21
5.56055
0
LINE
8
BLACK
6
CONTINUOUS
10
-4.42916
20
5.56055
11
-4.42931
21
5.55968
0
LINE
8
BLACK
6
CONTINUOUS
10
-4.42931
20
5.55968
11
-4.42937
21
5.55927
0
LINE
8
BLACK
6
CONTINUOUS
10
-4.42937
20
5.55927
11
-4.42937
21
5.55925
0
LINE
8
BLACK
6
CONTINUOUS
10
-4.42937
20
5.55925
11
-4.42962
21
5.55915
0
LINE
8
BLACK
6
CONTINUOUS
10
-4.42962
20
5.55915
11
-4.43033
21
5.55907
0
LINE
8
BLACK
6
CONTINUOUS
10
-4.43033
20
5.55907
11
-4.43144
21
5.55902
0
LINE
8
BLACK
6
CONTINUOUS
10
-4.43144
20
5.55902
11
-4.43291
21
5.559
0
LINE
8
BLACK
6
CONTINUOUS
10
-4.43291
20
5.559
11
-4.43315
21
5.559
0
LINE
8
BLACK
6
CONTINUOUS
10
-4.43315
20
5.559
11
-4.43692
21
5.559
0
LINE
8
BLACK
6
CONTINUOUS
10
-4.43692
20
5.559
11
-4.43679
21
5.55971
0
LINE
8
BLACK
6
CONTINUOUS
10
-4.43679
20
5.55971
11
-4.43673
21
5.56007
0
LINE
8
BLACK
6
CONTINUOUS
10
-4.43673
20
5.56007
11
-4.43658
21
5.5609
0
LINE
8
BLACK
6
CONTINUOUS
10
-4.43658
20
5.5609
11
-4.43636
21
5.56216
0
LINE
8
BLACK
6
CONTINUOUS
10
-4.43636
20
5.56216
11
-4.43607
21
5.5638
0
LINE
8
BLACK
6
CONTINUOUS
10
-4.43607
20
5.5638
11
-4.43572
21
5.56579
0
LINE
8
BLACK
6
CONTINUOUS
10
-4.43572
20
5.56579
11
-4.43531
21
5.56809
0
LINE
8
BLACK
6
CONTINUOUS
10
-4.43531
20
5.56809
11
-4.43486
21
5.57065
0
LINE
8
BLACK
6
CONTINUOUS
10
-4.43486
20
5.57065
11
-4.43438
21
5.57344
0
LINE
8
BLACK
6
CONTINUOUS
10
-4.43438
20
5.57344
11
-4.43386
21
5.57641
0
LINE
8
BLACK
6
CONTINUOUS
10
-4.43386
20
5.57641
11
-4.43331
21
5.57953
0
LINE
8
BLACK
6
CONTINUOUS
10
-4.43331
20
5.57953
11
-4.43321
21
5.5801
0
LINE
8
BLACK
6
CONTINUOUS
10
-4.43321
20
5.5801
11
-4.42976
21
5.59979
0
LINE
8
BLACK
6
CONTINUOUS
10
-4.42976
20
5.59979
11
-4.42608
21
5.59979
0
LINE
8
BLACK
6
CONTINUOUS
10
-4.42608
20
5.59979
11
-4.42452
21
5.59978
0
LINE
8
BLACK
6
CONTINUOUS
10
-4.39305
20
5.59921
11
-4.39312
21
5.59887
0
LINE
8
BLACK
6
CONTINUOUS
10
-4.39312
20
5.59887
11
-4.39326
21
5.59806
0
LINE
8
BLACK
6
CONTINUOUS
10
-4.39326
20
5.59806
11
-4.39349
21
5.59682
0
LINE
8
BLACK
6
CONTINUOUS
10
-4.39349
20
5.59682
11
-4.39378
21
5.59519
0
LINE
8
BLACK
6
CONTINUOUS
10
-4.39378
20
5.59519
11
-4.39412
21
5.59322
0
LINE
8
BLACK
6
CONTINUOUS
10
-4.39412
20
5.59322
11
-4.39453
21
5.59095
0
LINE
8
BLACK
6
CONTINUOUS
10
-4.39453
20
5.59095
11
-4.39497
21
5.5884
0
LINE
8
BLACK
6
CONTINUOUS
10
-4.39497
20
5.5884
11
-4.39546
21
5.58564
0
LINE
8
BLACK
6
CONTINUOUS
10
-4.39546
20
5.58564
11
-4.39598
21
5.58269
0
LINE
8
BLACK
6
CONTINUOUS
10
-4.39598
20
5.58269
11
-4.39652
21
5.57959
0
LINE
8
BLACK
6
CONTINUOUS
10
-4.39652
20
5.57959
11
-4.39658
21
5.57926
0
LINE
8
BLACK
6
CONTINUOUS
10
-4.39658
20
5.57926
11
-4.39712
21
5.57616
0
LINE
8
BLACK
6
CONTINUOUS
10
-4.39712
20
5.57616
11
-4.39764
21
5.5732
0
LINE
8
BLACK
6
CONTINUOUS
10
-4.39764
20
5.5732
11
-4.39813
21
5.57042
0
LINE
8
BLACK
6
CONTINUOUS
10
-4.39813
20
5.57042
11
-4.39858
21
5.56787
0
LINE
8
BLACK
6
CONTINUOUS
10
-4.39858
20
5.56787
11
-4.39899
21
5.56557
0
LINE
8
BLACK
6
CONTINUOUS
10
-4.39899
20
5.56557
11
-4.39934
21
5.56358
0
LINE
8
BLACK
6
CONTINUOUS
10
-4.39934
20
5.56358
11
-4.39964
21
5.56194
0
LINE
8
BLACK
6
CONTINUOUS
10
-4.39964
20
5.56194
11
-4.39987
21
5.56067
0
LINE
8
BLACK
6
CONTINUOUS
10
-4.39987
20
5.56067
11
-4.40002
21
5.55983
0
LINE
8
BLACK
6
CONTINUOUS
10
-4.40002
20
5.55983
11
-4.40009
21
5.55946
0
LINE
8
BLACK
6
CONTINUOUS
10
-4.40009
20
5.55946
11
-4.4001
21
5.55945
0
LINE
8
BLACK
6
CONTINUOUS
10
-4.4001
20
5.55945
11
-4.4002
21
5.55927
0
LINE
8
BLACK
6
CONTINUOUS
10
-4.4002
20
5.55927
11
-4.40043
21
5.55914
0
LINE
8
BLACK
6
CONTINUOUS
10
-4.40043
20
5.55914
11
-4.40088
21
5.55906
0
LINE
8
BLACK
6
CONTINUOUS
10
-4.40088
20
5.55906
11
-4.40162
21
5.55902
0
LINE
8
BLACK
6
CONTINUOUS
10
-4.40162
20
5.55902
11
-4.40273
21
5.559
0
LINE
8
BLACK
6
CONTINUOUS
10
-4.40273
20
5.559
11
-4.40393
21
5.559
0
LINE
8
BLACK
6
CONTINUOUS
10
-4.40393
20
5.559
11
-4.40539
21
5.559
0
LINE
8
BLACK
6
CONTINUOUS
10
-4.40539
20
5.559
11
-4.4064
21
5.55902
0
LINE
8
BLACK
6
CONTINUOUS
10
-4.4064
20
5.55902
11
-4.40704
21
5.55907
0
LINE
8
BLACK
6
CONTINUOUS
10
-4.40704
20
5.55907
11
-4.4074
21
5.55915
0
LINE
8
BLACK
6
CONTINUOUS
10
-4.4074
20
5.55915
11
-4.40753
21
5.55927
0
LINE
8
BLACK
6
CONTINUOUS
10
-4.40753
20
5.55927
11
-4.40753
21
5.55945
0
LINE
8
BLACK
6
CONTINUOUS
10
-4.40753
20
5.55945
11
-4.40747
21
5.55977
0
LINE
8
BLACK
6
CONTINUOUS
10
-4.40747
20
5.55977
11
-4.40733
21
5.56056
0
LINE
8
BLACK
6
CONTINUOUS
10
-4.40733
20
5.56056
11
-4.40711
21
5.56178
0
LINE
8
BLACK
6
CONTINUOUS
10
-4.40711
20
5.56178
11
-4.40683
21
5.56338
0
LINE
8
BLACK
6
CONTINUOUS
10
-4.40683
20
5.56338
11
-4.40648
21
5.56533
0
LINE
8
BLACK
6
CONTINUOUS
10
-4.40648
20
5.56533
11
-4.40608
21
5.56759
0
LINE
8
BLACK
6
CONTINUOUS
10
-4.40608
20
5.56759
11
-4.40564
21
5.57012
0
LINE
8
BLACK
6
CONTINUOUS
10
-4.40564
20
5.57012
11
-4.40516
21
5.57287
0
LINE
8
BLACK
6
CONTINUOUS
10
-4.40516
20
5.57287
11
-4.40464
21
5.57581
0
LINE
8
BLACK
6
CONTINUOUS
10
-4.40464
20
5.57581
11
-4.40411
21
5.57889
0
LINE
8
BLACK
6
CONTINUOUS
10
-4.40411
20
5.57889
11
-4.40406
21
5.57914
0
LINE
8
BLACK
6
CONTINUOUS
10
-4.40406
20
5.57914
11
-4.40352
21
5.58223
0
LINE
8
BLACK
6
CONTINUOUS
10
-4.40352
20
5.58223
11
-4.403
21
5.5852
0
LINE
8
BLACK
6
CONTINUOUS
10
-4.403
20
5.5852
11
-4.40251
21
5.58798
0
LINE
8
BLACK
6
CONTINUOUS
10
-4.40251
20
5.58798
11
-4.40206
21
5.59055
0
LINE
8
BLACK
6
CONTINUOUS
10
-4.40206
20
5.59055
11
-4.40166
21
5.59286
0
LINE
8
BLACK
6
CONTINUOUS
10
-4.40166
20
5.59286
11
-4.40131
21
5.59487
0
LINE
8
BLACK
6
CONTINUOUS
10
-4.40131
20
5.59487
11
-4.40101
21
5.59654
0
LINE
8
BLACK
6
CONTINUOUS
10
-4.40101
20
5.59654
11
-4.40079
21
5.59782
0
LINE
8
BLACK
6
CONTINUOUS
10
-4.40079
20
5.59782
11
-4.40063
21
5.59868
0
LINE
8
BLACK
6
CONTINUOUS
10
-4.40063
20
5.59868
11
-4.40056
21
5.59907
0
LINE
8
BLACK
6
CONTINUOUS
10
-4.40056
20
5.59907
11
-4.40056
21
5.59908
0
LINE
8
BLACK
6
CONTINUOUS
10
-4.40056
20
5.59908
11
-4.40041
21
5.59979
0
LINE
8
BLACK
6
CONTINUOUS
10
-4.40041
20
5.59979
11
-4.39291
21
5.59979
0
LINE
8
BLACK
6
CONTINUOUS
10
-4.39291
20
5.59979
11
-4.39305
21
5.59921
0
LINE
8
BLACK
6
CONTINUOUS
10
-4.36474
20
5.59975
11
-4.36409
21
5.59972
0
LINE
8
BLACK
6
CONTINUOUS
10
-4.36409
20
5.59972
11
-4.36373
21
5.59964
0
LINE
8
BLACK
6
CONTINUOUS
10
-4.36373
20
5.59964
11
-4.36357
21
5.59952
0
LINE
8
BLACK
6
CONTINUOUS
10
-4.36357
20
5.59952
11
-4.36353
21
5.59936
0
LINE
8
BLACK
6
CONTINUOUS
10
-4.36353
20
5.59936
11
-4.36358
21
5.59904
0
LINE
8
BLACK
6
CONTINUOUS
10
-4.36358
20
5.59904
11
-4.3637
21
5.59825
0
LINE
8
BLACK
6
CONTINUOUS
10
-4.3637
20
5.59825
11
-4.36391
21
5.59703
0
LINE
8
BLACK
6
CONTINUOUS
10
-4.36391
20
5.59703
11
-4.36418
21
5.59542
0
LINE
8
BLACK
6
CONTINUOUS
10
-4.36418
20
5.59542
11
-4.36451
21
5.59347
0
LINE
8
BLACK
6
CONTINUOUS
10
-4.36451
20
5.59347
11
-4.3649
21
5.5912
0
LINE
8
BLACK
6
CONTINUOUS
10
-4.3649
20
5.5912
11
-4.36534
21
5.58866
0
LINE
8
BLACK
6
CONTINUOUS
10
-4.36534
20
5.58866
11
-4.36583
21
5.5859
0
LINE
8
BLACK
6
CONTINUOUS
10
-4.36583
20
5.5859
11
-4.36634
21
5.58294
0
LINE
8
BLACK
6
CONTINUOUS
10
-4.36634
20
5.58294
11
-4.36689
21
5.57983
0
LINE
8
BLACK
6
CONTINUOUS
10
-4.36689
20
5.57983
11
-4.36702
21
5.5791
0
LINE
8
BLACK
6
CONTINUOUS
10
-4.36702
20
5.5791
11
-4.36757
21
5.57597
0
LINE
8
BLACK
6
CONTINUOUS
10
-4.36757
20
5.57597
11
-4.36809
21
5.57299
0
LINE
8
BLACK
6
CONTINUOUS
10
-4.36809
20
5.57299
11
-4.36858
21
5.5702
0
LINE
8
BLACK
6
CONTINUOUS
10
-4.36858
20
5.5702
11
-4.36903
21
5.56763
0
LINE
8
BLACK
6
CONTINUOUS
10
-4.36903
20
5.56763
11
-4.36943
21
5.56533
0
LINE
8
BLACK
6
CONTINUOUS
10
-4.36943
20
5.56533
11
-4.36978
21
5.56333
0
LINE
8
BLACK
6
CONTINUOUS
10
-4.36978
20
5.56333
11
-4.37007
21
5.56168
0
LINE
8
BLACK
6
CONTINUOUS
10
-4.37007
20
5.56168
11
-4.37029
21
5.5604
0
LINE
8
BLACK
6
CONTINUOUS
10
-4.37029
20
5.5604
11
-4.37044
21
5.55955
0
LINE
8
BLACK
6
CONTINUOUS
10
-4.37044
20
5.55955
11
-4.3705
21
5.55916
0
LINE
8
BLACK
6
CONTINUOUS
10
-4.3705
20
5.55916
11
-4.3705
21
5.55914
0
LINE
8
BLACK
6
CONTINUOUS
10
-4.3705
20
5.55914
11
-4.37075
21
5.55909
0
LINE
8
BLACK
6
CONTINUOUS
10
-4.37075
20
5.55909
11
-4.37142
21
5.55905
0
LINE
8
BLACK
6
CONTINUOUS
10
-4.37142
20
5.55905
11
-4.37242
21
5.55901
0
LINE
8
BLACK
6
CONTINUOUS
10
-4.37242
20
5.55901
11
-4.37367
21
5.559
0
LINE
8
BLACK
6
CONTINUOUS
10
-4.37367
20
5.559
11
-4.37425
21
5.559
0
LINE
8
BLACK
6
CONTINUOUS
10
-4.37425
20
5.559
11
-4.37557
21
5.55901
0
LINE
8
BLACK
6
CONTINUOUS
10
-4.37557
20
5.55901
11
-4.37669
21
5.55904
0
LINE
8
BLACK
6
CONTINUOUS
10
-4.37669
20
5.55904
11
-4.3775
21
5.55909
0
LINE
8
BLACK
6
CONTINUOUS
10
-4.3775
20
5.55909
11
-4.37793
21
5.55916
0
LINE
8
BLACK
6
CONTINUOUS
10
-4.37793
20
5.55916
11
-4.37798
21
5.55919
0
LINE
8
BLACK
6
CONTINUOUS
10
-4.37798
20
5.55919
11
-4.37793
21
5.55947
0
LINE
8
BLACK
6
CONTINUOUS
10
-4.37793
20
5.55947
11
-4.3778
21
5.56022
0
LINE
8
BLACK
6
CONTINUOUS
10
-4.3778
20
5.56022
11
-4.3776
21
5.5614
0
LINE
8
BLACK
6
CONTINUOUS
10
-4.3776
20
5.5614
11
-4.37732
21
5.56297
0
LINE
8
BLACK
6
CONTINUOUS
10
-4.37732
20
5.56297
11
-4.37699
21
5.56489
0
LINE
8
BLACK
6
CONTINUOUS
10
-4.37699
20
5.56489
11
-4.3766
21
5.56713
0
LINE
8
BLACK
6
CONTINUOUS
10
-4.3766
20
5.56713
11
-4.37615
21
5.56965
0
LINE
8
BLACK
6
CONTINUOUS
10
-4.37615
20
5.56965
11
-4.37567
21
5.5724
0
LINE
8
BLACK
6
CONTINUOUS
10
-4.37567
20
5.5724
11
-4.37515
21
5.57536
0
LINE
8
BLACK
6
CONTINUOUS
10
-4.37515
20
5.57536
11
-4.3746
21
5.57847
0
LINE
8
BLACK
6
CONTINUOUS
10
-4.3746
20
5.57847
11
-4.37442
21
5.57952
0
LINE
8
BLACK
6
CONTINUOUS
10
-4.37442
20
5.57952
11
-4.37087
21
5.59966
0
LINE
8
BLACK
6
CONTINUOUS
10
-4.37087
20
5.59966
11
-4.3672
21
5.59973
0
LINE
8
BLACK
6
CONTINUOUS
10
-4.3672
20
5.59973
11
-4.36575
21
5.59976
0
LINE
8
BLACK
6
CONTINUOUS
10
-4.36575
20
5.59976
11
-4.36474
21
5.59975
0
LINE
8
BLACK
6
CONTINUOUS
10
-4.28058
20
5.60595
11
-4.27963
21
5.6059
0
LINE
8
BLACK
6
CONTINUOUS
10
-4.27963
20
5.6059
11
-4.27232
21
5.60346
0
LINE
8
BLACK
6
CONTINUOUS
10
-4.27232
20
5.60346
11
-4.27118
21
5.60271
0
LINE
8
BLACK
6
CONTINUOUS
10
-4.27118
20
5.60271
11
-4.27001
21
5.60203
0
LINE
8
BLACK
6
CONTINUOUS
10
-4.27001
20
5.60203
11
-4.25084
21
5.58287
0
LINE
8
BLACK
6
CONTINUOUS
10
-4.25084
20
5.58287
11
-4.25084
21
5.60029
0
LINE
8
BLACK
6
CONTINUOUS
10
-4.25084
20
5.60029
11
-4.25005
21
5.60325
0
LINE
8
BLACK
6
CONTINUOUS
10
-4.25005
20
5.60325
11
-4.24789
21
5.60541
0
LINE
8
BLACK
6
CONTINUOUS
10
-4.24789
20
5.60541
11
-4.24494
21
5.6062
0
LINE
8
BLACK
6
CONTINUOUS
10
-4.24494
20
5.6062
11
-4.24198
21
5.60541
0
LINE
8
BLACK
6
CONTINUOUS
10
-4.24198
20
5.60541
11
-4.23982
21
5.60325
0
LINE
8
BLACK
6
CONTINUOUS
10
-4.23982
20
5.60325
11
-4.23903
21
5.60029
0
LINE
8
BLACK
6
CONTINUOUS
10
-4.23903
20
5.60029
11
-4.23903
21
5.56861
0
LINE
8
BLACK
6
CONTINUOUS
10
-4.23903
20
5.56861
11
-4.23923
21
5.56786
0
LINE
8
BLACK
6
CONTINUOUS
10
-4.23923
20
5.56786
11
-4.23923
21
5.56708
0
LINE
8
BLACK
6
CONTINUOUS
10
-4.23923
20
5.56708
11
-4.23962
21
5.56641
0
LINE
8
BLACK
6
CONTINUOUS
10
-4.23962
20
5.56641
11
-4.23982
21
5.56566
0
LINE
8
BLACK
6
CONTINUOUS
10
-4.23982
20
5.56566
11
-4.24037
21
5.56511
0
LINE
8
BLACK
6
CONTINUOUS
10
-4.24037
20
5.56511
11
-4.24076
21
5.56443
0
LINE
8
BLACK
6
CONTINUOUS
10
-4.24076
20
5.56443
11
-4.24143
21
5.56405
0
LINE
8
BLACK
6
CONTINUOUS
10
-4.24143
20
5.56405
11
-4.24198
21
5.5635
0
LINE
8
BLACK
6
CONTINUOUS
10
-4.24198
20
5.5635
11
-4.24274
21
5.56329
0
LINE
8
BLACK
6
CONTINUOUS
10
-4.24274
20
5.56329
11
-4.24341
21
5.56291
0
LINE
8
BLACK
6
CONTINUOUS
10
-4.24341
20
5.56291
11
-4.24419
21
5.56291
0
LINE
8
BLACK
6
CONTINUOUS
10
-4.24419
20
5.56291
11
-4.24494
21
5.5627
0
LINE
8
BLACK
6
CONTINUOUS
10
-4.24494
20
5.5627
11
-4.24569
21
5.56291
0
LINE
8
BLACK
6
CONTINUOUS
10
-4.24569
20
5.56291
11
-4.24647
21
5.56291
0
LINE
8
BLACK
6
CONTINUOUS
10
-4.24647
20
5.56291
11
-4.24714
21
5.56329
0
LINE
8
BLACK
6
CONTINUOUS
10
-4.24714
20
5.56329
11
-4.24789
21
5.5635
0
LINE
8
BLACK
6
CONTINUOUS
10
-4.24789
20
5.5635
11
-4.24844
21
5.56405
0
LINE
8
BLACK
6
CONTINUOUS
10
-4.24844
20
5.56405
11
-4.24911
21
5.56443
0
LINE
8
BLACK
6
CONTINUOUS
10
-4.24911
20
5.56443
11
-4.27737
21
5.59269
0
LINE
8
BLACK
6
CONTINUOUS
10
-4.27737
20
5.59269
11
-4.28245
21
5.59439
0
LINE
8
BLACK
6
CONTINUOUS
10
-4.28245
20
5.59439
11
-4.28498
21
5.59439
0
LINE
8
BLACK
6
CONTINUOUS
10
-4.28498
20
5.59439
11
-4.28775
21
5.593
0
LINE
8
BLACK
6
CONTINUOUS
10
-4.28775
20
5.593
11
-4.28883
21
5.59192
0
LINE
8
BLACK
6
CONTINUOUS
10
-4.28883
20
5.59192
11
-4.29021
21
5.58915
0
LINE
8
BLACK
6
CONTINUOUS
10
-4.29021
20
5.58915
11
-4.29021
21
5.57975
0
LINE
8
BLACK
6
CONTINUOUS
10
-4.29021
20
5.57975
11
-4.28883
21
5.57698
0
LINE
8
BLACK
6
CONTINUOUS
10
-4.28883
20
5.57698
11
-4.28707
21
5.57522
0
LINE
8
BLACK
6
CONTINUOUS
10
-4.28707
20
5.57522
11
-4.28554
21
5.57258
0
LINE
8
BLACK
6
CONTINUOUS
10
-4.28554
20
5.57258
11
-4.28554
21
5.56952
0
LINE
8
BLACK
6
CONTINUOUS
10
-4.28554
20
5.56952
11
-4.28707
21
5.56687
0
LINE
8
BLACK
6
CONTINUOUS
10
-4.28707
20
5.56687
11
-4.28972
21
5.56534
0
LINE
8
BLACK
6
CONTINUOUS
10
-4.28972
20
5.56534
11
-4.29277
21
5.56534
0
LINE
8
BLACK
6
CONTINUOUS
10
-4.29277
20
5.56534
11
-4.29542
21
5.56687
0
LINE
8
BLACK
6
CONTINUOUS
10
-4.29542
20
5.56687
11
-4.29786
21
5.56931
0
LINE
8
BLACK
6
CONTINUOUS
10
-4.29786
20
5.56931
11
-4.29833
21
5.57013
0
LINE
8
BLACK
6
CONTINUOUS
10
-4.29833
20
5.57013
11
-4.29896
21
5.57084
0
LINE
8
BLACK
6
CONTINUOUS
10
-4.29896
20
5.57084
11
-4.3014
21
5.57572
0
LINE
8
BLACK
6
CONTINUOUS
10
-4.3014
20
5.57572
11
-4.30167
21
5.57705
0
LINE
8
BLACK
6
CONTINUOUS
10
-4.30167
20
5.57705
11
-4.30202
21
5.57836
0
LINE
8
BLACK
6
CONTINUOUS
10
-4.30202
20
5.57836
11
-4.30202
21
5.59054
0
LINE
8
BLACK
6
CONTINUOUS
10
-4.30202
20
5.59054
11
-4.30167
21
5.59186
0
LINE
8
BLACK
6
CONTINUOUS
10
-4.30167
20
5.59186
11
-4.3014
21
5.59319
0
LINE
8
BLACK
6
CONTINUOUS
10
-4.3014
20
5.59319
11
-4.29896
21
5.59806
0
LINE
8
BLACK
6
CONTINUOUS
10
-4.29896
20
5.59806
11
-4.29833
21
5.59877
0
LINE
8
BLACK
6
CONTINUOUS
10
-4.29833
20
5.59877
11
-4.29786
21
5.5996
0
LINE
8
BLACK
6
CONTINUOUS
10
-4.29786
20
5.5996
11
-4.29542
21
5.60203
0
LINE
8
BLACK
6
CONTINUOUS
10
-4.29542
20
5.60203
11
-4.2946
21
5.60251
0
LINE
8
BLACK
6
CONTINUOUS
10
-4.2946
20
5.60251
11
-4.29388
21
5.60314
0
LINE
8
BLACK
6
CONTINUOUS
10
-4.29388
20
5.60314
11
-4.28901
21
5.60558
0
LINE
8
BLACK
6
CONTINUOUS
10
-4.28901
20
5.60558
11
-4.28768
21
5.60585
0
LINE
8
BLACK
6
CONTINUOUS
10
-4.28768
20
5.60585
11
-4.28637
21
5.6062
0
LINE
8
BLACK
6
CONTINUOUS
10
-4.28637
20
5.6062
11
-4.28149
21
5.6062
0
LINE
8
BLACK
6
CONTINUOUS
10
-4.28149
20
5.6062
11
-4.28058
21
5.60595
0
LINE
8
BLACK
6
CONTINUOUS
10
-4.97888
20
5.80368
11
-4.97819
21
5.80201
0
LINE
8
BLACK
6
CONTINUOUS
10
-4.97819
20
5.80201
11
-4.97819
21
5.56854
0
LINE
8
BLACK
6
CONTINUOUS
10
-4.97819
20
5.56854
11
-4.97888
21
5.56687
0
LINE
8
BLACK
6
CONTINUOUS
10
-4.97888
20
5.56687
11
-4.98055
21
5.56618
0
LINE
8
BLACK
6
CONTINUOUS
10
-4.98055
20
5.56618
11
-4.98222
21
5.56687
0
LINE
8
BLACK
6
CONTINUOUS
10
-4.98222
20
5.56687
11
-4.98291
21
5.56854
0
LINE
8
BLACK
6
CONTINUOUS
10
-4.98291
20
5.56854
11
-4.98291
21
5.80201
0
LINE
8
BLACK
6
CONTINUOUS
10
-4.98291
20
5.80201
11
-4.98222
21
5.80368
0
LINE
8
BLACK
6
CONTINUOUS
10
-4.98222
20
5.80368
11
-4.98055
21
5.80437
0
LINE
8
BLACK
6
CONTINUOUS
10
-4.98055
20
5.80437
11
-4.97888
21
5.80368
0
LINE
8
BLACK
6
CONTINUOUS
10
-4.01353
20
5.80368
11
-4.01283
21
5.80201
0
LINE
8
BLACK
6
CONTINUOUS
10
-4.01283
20
5.80201
11
-4.01283
21
5.56854
0
LINE
8
BLACK
6
CONTINUOUS
10
-4.01283
20
5.56854
11
-4.01353
21
5.56687
0
LINE
8
BLACK
6
CONTINUOUS
10
-4.01353
20
5.56687
11
-4.0152
21
5.56618
0
LINE
8
BLACK
6
CONTINUOUS
10
-4.0152
20
5.56618
11
-4.01687
21
5.56687
0
LINE
8
BLACK
6
CONTINUOUS
10
-4.01687
20
5.56687
11
-4.01756
21
5.56854
0
LINE
8
BLACK
6
CONTINUOUS
10
-4.01756
20
5.56854
11
-4.01756
21
5.80201
0
LINE
8
BLACK
6
CONTINUOUS
10
-4.01756
20
5.80201
11
-4.01687
21
5.80368
0
LINE
8
BLACK
6
CONTINUOUS
10
-4.01687
20
5.80368
11
-4.0152
21
5.80437
0
LINE
8
BLACK
6
CONTINUOUS
10
-4.0152
20
5.80437
11
-4.01353
21
5.80368
0
LINE
8
BLACK
6
CONTINUOUS
10
-4.61083
20
5.63691
11
-4.61081
21
5.63392
0
LINE
8
BLACK
6
CONTINUOUS
10
-4.61081
20
5.63392
11
-4.61079
21
5.6314
0
LINE
8
BLACK
6
CONTINUOUS
10
-4.61079
20
5.6314
11
-4.61077
21
5.6293
0
LINE
8
BLACK
6
CONTINUOUS
10
-4.61077
20
5.6293
11
-4.61074
21
5.62758
0
LINE
8
BLACK
6
CONTINUOUS
10
-4.61074
20
5.62758
11
-4.61072
21
5.62619
0
LINE
8
BLACK
6
CONTINUOUS
10
-4.61072
20
5.62619
11
-4.61068
21
5.62508
0
LINE
8
BLACK
6
CONTINUOUS
10
-4.61068
20
5.62508
11
-4.61063
21
5.62421
0
LINE
8
BLACK
6
CONTINUOUS
10
-4.61063
20
5.62421
11
-4.61057
21
5.62353
0
LINE
8
BLACK
6
CONTINUOUS
10
-4.61057
20
5.62353
11
-4.6105
21
5.62299
0
LINE
8
BLACK
6
CONTINUOUS
10
-4.6105
20
5.62299
11
-4.61042
21
5.62255
0
LINE
8
BLACK
6
CONTINUOUS
10
-4.61042
20
5.62255
11
-4.61031
21
5.62216
0
LINE
8
BLACK
6
CONTINUOUS
10
-4.61031
20
5.62216
11
-4.61019
21
5.62177
0
LINE
8
BLACK
6
CONTINUOUS
10
-4.61019
20
5.62177
11
-4.61017
21
5.62171
0
LINE
8
BLACK
6
CONTINUOUS
10
-4.61017
20
5.62171
11
-4.60928
21
5.61976
0
LINE
8
BLACK
6
CONTINUOUS
10
-4.60928
20
5.61976
11
-4.60808
21
5.6182
0
LINE
8
BLACK
6
CONTINUOUS
10
-4.60808
20
5.6182
11
-4.60655
21
5.61705
0
LINE
8
BLACK
6
CONTINUOUS
10
-4.60655
20
5.61705
11
-4.6047
21
5.61631
0
LINE
8
BLACK
6
CONTINUOUS
10
-4.6047
20
5.61631
11
-4.60253
21
5.61597
0
LINE
8
BLACK
6
CONTINUOUS
10
-4.60253
20
5.61597
11
-4.60004
21
5.61603
0
LINE
8
BLACK
6
CONTINUOUS
10
-4.60004
20
5.61603
11
-4.59986
21
5.61605
0
LINE
8
BLACK
6
CONTINUOUS
10
-4.59986
20
5.61605
11
-4.59781
21
5.61647
0
LINE
8
BLACK
6
CONTINUOUS
10
-4.59781
20
5.61647
11
-4.5961
21
5.61725
0
LINE
8
BLACK
6
CONTINUOUS
10
-4.5961
20
5.61725
11
-4.59471
21
5.61841
0
LINE
8
BLACK
6
CONTINUOUS
10
-4.59471
20
5.61841
11
-4.59363
21
5.61996
0
LINE
8
BLACK
6
CONTINUOUS
10
-4.59363
20
5.61996
11
-4.59284
21
5.62192
0
LINE
8
BLACK
6
CONTINUOUS
10
-4.59284
20
5.62192
11
-4.59233
21
5.62431
0
LINE
8
BLACK
6
CONTINUOUS
10
-4.59233
20
5.62431
11
-4.59232
21
5.62442
0
LINE
8
BLACK
6
CONTINUOUS
10
-4.59232
20
5.62442
11
-4.59225
21
5.62517
0
LINE
8
BLACK
6
CONTINUOUS
10
-4.59225
20
5.62517
11
-4.59219
21
5.62639
0
LINE
8
BLACK
6
CONTINUOUS
10
-4.59219
20
5.62639
11
-4.59214
21
5.62803
0
LINE
8
BLACK
6
CONTINUOUS
10
-4.59214
20
5.62803
11
-4.5921
21
5.63004
0
LINE
8
BLACK
6
CONTINUOUS
10
-4.5921
20
5.63004
11
-4.59207
21
5.63237
0
LINE
8
BLACK
6
CONTINUOUS
10
-4.59207
20
5.63237
11
-4.59205
21
5.63499
0
LINE
8
BLACK
6
CONTINUOUS
10
-4.59205
20
5.63499
11
-4.59204
21
5.63784
0
LINE
8
BLACK
6
CONTINUOUS
10
-4.59204
20
5.63784
11
-4.59204
21
5.63841
0
LINE
8
BLACK
6
CONTINUOUS
10
-4.59204
20
5.63841
11
-4.59204
21
5.6504
0
LINE
8
BLACK
6
CONTINUOUS
10
-4.59204
20
5.6504
11
-4.58455
21
5.6504
0
LINE
8
BLACK
6
CONTINUOUS
10
-4.58455
20
5.6504
11
-4.58455
21
5.63776
0
LINE
8
BLACK
6
CONTINUOUS
10
-4.58455
20
5.63776
11
-4.58455
21
5.63452
0
LINE
8
BLACK
6
CONTINUOUS
10
-4.58455
20
5.63452
11
-4.58457
21
5.63175
0
LINE
8
BLACK
6
CONTINUOUS
10
-4.58457
20
5.63175
11
-4.58459
21
5.62939
0
LINE
8
BLACK
6
CONTINUOUS
10
-4.58459
20
5.62939
11
-4.58463
21
5.6274
0
LINE
8
BLACK
6
CONTINUOUS
10
-4.58463
20
5.6274
11
-4.58469
21
5.62573
0
LINE
8
BLACK
6
CONTINUOUS
10
-4.58469
20
5.62573
11
-4.58477
21
5.62433
0
LINE
8
BLACK
6
CONTINUOUS
10
-4.58477
20
5.62433
11
-4.58487
21
5.62314
0
LINE
8
BLACK
6
CONTINUOUS
10
-4.58487
20
5.62314
11
-4.58501
21
5.62213
0
LINE
8
BLACK
6
CONTINUOUS
10
-4.58501
20
5.62213
11
-4.58517
21
5.62123
0
LINE
8
BLACK
6
CONTINUOUS
10
-4.58517
20
5.62123
11
-4.58537
21
5.6204
0
LINE
8
BLACK
6
CONTINUOUS
10
-4.58537
20
5.6204
11
-4.58561
21
5.6196
0
LINE
8
BLACK
6
CONTINUOUS
10
-4.58561
20
5.6196
11
-4.58575
21
5.61916
0
LINE
8
BLACK
6
CONTINUOUS
10
-4.58575
20
5.61916
11
-4.58687
21
5.61651
0
LINE
8
BLACK
6
CONTINUOUS
10
-4.58687
20
5.61651
11
-4.58832
21
5.61425
0
LINE
8
BLACK
6
CONTINUOUS
10
-4.58832
20
5.61425
11
-4.59012
21
5.61238
0
LINE
8
BLACK
6
CONTINUOUS
10
-4.59012
20
5.61238
11
-4.59228
21
5.61088
0
LINE
8
BLACK
6
CONTINUOUS
10
-4.59228
20
5.61088
11
-4.59478
21
5.60975
0
LINE
8
BLACK
6
CONTINUOUS
10
-4.59478
20
5.60975
11
-4.59526
21
5.60959
0
LINE
8
BLACK
6
CONTINUOUS
10
-4.59526
20
5.60959
11
-4.59668
21
5.60926
0
LINE
8
BLACK
6
CONTINUOUS
10
-4.59668
20
5.60926
11
-4.59845
21
5.60903
0
LINE
8
BLACK
6
CONTINUOUS
10
-4.59845
20
5.60903
11
-4.60042
21
5.6089
0
LINE
8
BLACK
6
CONTINUOUS
10
-4.60042
20
5.6089
11
-4.60243
21
5.60888
0
LINE
8
BLACK
6
CONTINUOUS
10
-4.60243
20
5.60888
11
-4.60434
21
5.60897
0
LINE
8
BLACK
6
CONTINUOUS
10
-4.60434
20
5.60897
11
-4.606
21
5.60916
0
LINE
8
BLACK
6
CONTINUOUS
10
-4.606
20
5.60916
11
-4.60668
21
5.60931
0
LINE
8
BLACK
6
CONTINUOUS
10
-4.60668
20
5.60931
11
-4.60936
21
5.61022
0
LINE
8
BLACK
6
CONTINUOUS
10
-4.60936
20
5.61022
11
-4.6117
21
5.61151
0
LINE
8
BLACK
6
CONTINUOUS
10
-4.6117
20
5.61151
11
-4.6137
21
5.61318
0
LINE
8
BLACK
6
CONTINUOUS
10
-4.6137
20
5.61318
11
-4.61537
21
5.61525
0
LINE
8
BLACK
6
CONTINUOUS
10
-4.61537
20
5.61525
11
-4.61672
21
5.61772
0
LINE
8
BLACK
6
CONTINUOUS
10
-4.61672
20
5.61772
11
-4.61763
21
5.62019
0
LINE
8
BLACK
6
CONTINUOUS
10
-4.61763
20
5.62019
11
-4.61776
21
5.62062
0
LINE
8
BLACK
6
CONTINUOUS
10
-4.61776
20
5.62062
11
-4.61787
21
5.62104
0
LINE
8
BLACK
6
CONTINUOUS
10
-4.61787
20
5.62104
11
-4.61796
21
5.62149
0
LINE
8
BLACK
6
CONTINUOUS
10
-4.61796
20
5.62149
11
-4.61803
21
5.62202
0
LINE
8
BLACK
6
CONTINUOUS
10
-4.61803
20
5.62202
11
-4.61809
21
5.62268
0
LINE
8
BLACK
6
CONTINUOUS
10
-4.61809
20
5.62268
11
-4.61814
21
5.62351
0
LINE
8
BLACK
6
CONTINUOUS
10
-4.61814
20
5.62351
11
-4.61818
21
5.62455
0
LINE
8
BLACK
6
CONTINUOUS
10
-4.61818
20
5.62455
11
-4.61821
21
5.62586
0
LINE
8
BLACK
6
CONTINUOUS
10
-4.61821
20
5.62586
11
-4.61824
21
5.62747
0
LINE
8
BLACK
6
CONTINUOUS
10
-4.61824
20
5.62747
11
-4.61826
21
5.62944
0
LINE
8
BLACK
6
CONTINUOUS
10
-4.61826
20
5.62944
11
-4.61828
21
5.63182
0
LINE
8
BLACK
6
CONTINUOUS
10
-4.61828
20
5.63182
11
-4.6183
21
5.63463
0
LINE
8
BLACK
6
CONTINUOUS
10
-4.6183
20
5.63463
11
-4.61831
21
5.63626
0
LINE
8
BLACK
6
CONTINUOUS
10
-4.61831
20
5.63626
11
-4.6184
21
5.6504
0
LINE
8
BLACK
6
CONTINUOUS
10
-4.6184
20
5.6504
11
-4.61092
21
5.6504
0
LINE
8
BLACK
6
CONTINUOUS
10
-4.61092
20
5.6504
11
-4.61083
21
5.63691
0
LINE
8
BLACK
6
CONTINUOUS
10
-4.66407
20
5.64317
11
-4.67569
21
5.64317
0
LINE
8
BLACK
6
CONTINUOUS
10
-4.67569
20
5.64317
11
-4.67569
21
5.6096
0
LINE
8
BLACK
6
CONTINUOUS
10
-4.67569
20
5.6096
11
-4.68318
21
5.6096
0
LINE
8
BLACK
6
CONTINUOUS
10
-4.68318
20
5.6096
11
-4.68318
21
5.64317
0
LINE
8
BLACK
6
CONTINUOUS
10
-4.68318
20
5.64317
11
-4.6948
21
5.64317
0
LINE
8
BLACK
6
CONTINUOUS
10
-4.6948
20
5.64317
11
-4.6948
21
5.6504
0
LINE
8
BLACK
6
CONTINUOUS
10
-4.6948
20
5.6504
11
-4.66407
21
5.6504
0
LINE
8
BLACK
6
CONTINUOUS
10
-4.66407
20
5.6504
11
-4.66407
21
5.64317
0
LINE
8
BLACK
6
CONTINUOUS
10
-4.65246
20
5.63439
11
-4.63361
21
5.63439
0
LINE
8
BLACK
6
CONTINUOUS
10
-4.63361
20
5.63439
11
-4.63361
21
5.6504
0
LINE
8
BLACK
6
CONTINUOUS
10
-4.63361
20
5.6504
11
-4.62612
21
5.6504
0
LINE
8
BLACK
6
CONTINUOUS
10
-4.62612
20
5.6504
11
-4.62612
21
5.6096
0
LINE
8
BLACK
6
CONTINUOUS
10
-4.62612
20
5.6096
11
-4.63361
21
5.6096
0
LINE
8
BLACK
6
CONTINUOUS
10
-4.63361
20
5.6096
11
-4.63361
21
5.62716
0
LINE
8
BLACK
6
CONTINUOUS
10
-4.63361
20
5.62716
11
-4.65246
21
5.62716
0
LINE
8
BLACK
6
CONTINUOUS
10
-4.65246
20
5.62716
11
-4.65246
21
5.6096
0
LINE
8
BLACK
6
CONTINUOUS
10
-4.65246
20
5.6096
11
-4.65994
21
5.6096
0
LINE
8
BLACK
6
CONTINUOUS
10
-4.65994
20
5.6096
11
-4.65994
21
5.6504
0
LINE
8
BLACK
6
CONTINUOUS
10
-4.65994
20
5.6504
11
-4.65246
21
5.6504
0
LINE
8
BLACK
6
CONTINUOUS
10
-4.65246
20
5.6504
11
-4.65246
21
5.63439
0
LINE
8
BLACK
6
CONTINUOUS
10
-4.56069
20
5.63729
11
-4.55202
21
5.62419
0
LINE
8
BLACK
6
CONTINUOUS
10
-4.55202
20
5.62419
11
-4.55202
21
5.63729
0
LINE
8
BLACK
6
CONTINUOUS
10
-4.55202
20
5.63729
11
-4.55202
21
5.6504
0
LINE
8
BLACK
6
CONTINUOUS
10
-4.55202
20
5.6504
11
-4.54453
21
5.6504
0
LINE
8
BLACK
6
CONTINUOUS
10
-4.54453
20
5.6504
11
-4.54453
21
5.6096
0
LINE
8
BLACK
6
CONTINUOUS
10
-4.54453
20
5.6096
11
-4.55064
21
5.6096
0
LINE
8
BLACK
6
CONTINUOUS
10
-4.55064
20
5.6096
11
-4.55998
21
5.62361
0
LINE
8
BLACK
6
CONTINUOUS
10
-4.55998
20
5.62361
11
-4.56932
21
5.63762
0
LINE
8
BLACK
6
CONTINUOUS
10
-4.56932
20
5.63762
11
-4.56932
21
5.62361
0
LINE
8
BLACK
6
CONTINUOUS
10
-4.56932
20
5.62361
11
-4.56932
21
5.6096
0
LINE
8
BLACK
6
CONTINUOUS
10
-4.56932
20
5.6096
11
-4.5768
21
5.6096
0
LINE
8
BLACK
6
CONTINUOUS
10
-4.5768
20
5.6096
11
-4.5768
21
5.6504
0
LINE
8
BLACK
6
CONTINUOUS
10
-4.5768
20
5.6504
11
-4.56937
21
5.6504
0
LINE
8
BLACK
6
CONTINUOUS
10
-4.56937
20
5.6504
11
-4.56069
21
5.63729
0
LINE
8
BLACK
6
CONTINUOUS
10
-4.52639
20
5.65033
11
-4.5237
21
5.6503
0
LINE
8
BLACK
6
CONTINUOUS
10
-4.5237
20
5.6503
11
-4.52146
21
5.65027
0
LINE
8
BLACK
6
CONTINUOUS
10
-4.52146
20
5.65027
11
-4.51961
21
5.65022
0
LINE
8
BLACK
6
CONTINUOUS
10
-4.51961
20
5.65022
11
-4.51809
21
5.65015
0
LINE
8
BLACK
6
CONTINUOUS
10
-4.51809
20
5.65015
11
-4.51684
21
5.65005
0
LINE
8
BLACK
6
CONTINUOUS
10
-4.51684
20
5.65005
11
-4.51579
21
5.64992
0
LINE
8
BLACK
6
CONTINUOUS
10
-4.51579
20
5.64992
11
-4.51487
21
5.64974
0
LINE
8
BLACK
6
CONTINUOUS
10
-4.51487
20
5.64974
11
-4.51404
21
5.6495
0
LINE
8
BLACK
6
CONTINUOUS
10
-4.51404
20
5.6495
11
-4.51322
21
5.64919
0
LINE
8
BLACK
6
CONTINUOUS
10
-4.51322
20
5.64919
11
-4.51235
21
5.64881
0
LINE
8
BLACK
6
CONTINUOUS
10
-4.51235
20
5.64881
11
-4.51138
21
5.64835
0
LINE
8
BLACK
6
CONTINUOUS
10
-4.51138
20
5.64835
11
-4.51098
21
5.64816
0
LINE
8
BLACK
6
CONTINUOUS
10
-4.51098
20
5.64816
11
-4.50973
21
5.64751
0
LINE
8
BLACK
6
CONTINUOUS
10
-4.50973
20
5.64751
11
-4.50871
21
5.64688
0
LINE
8
BLACK
6
CONTINUOUS
10
-4.50871
20
5.64688
11
-4.50776
21
5.64613
0
LINE
8
BLACK
6
CONTINUOUS
10
-4.50776
20
5.64613
11
-4.50669
21
5.64513
0
LINE
8
BLACK
6
CONTINUOUS
10
-4.50669
20
5.64513
11
-4.50643
21
5.64486
0
LINE
8
BLACK
6
CONTINUOUS
10
-4.50643
20
5.64486
11
-4.50536
21
5.64375
0
LINE
8
BLACK
6
CONTINUOUS
10
-4.50536
20
5.64375
11
-4.50456
21
5.64279
0
LINE
8
BLACK
6
CONTINUOUS
10
-4.50456
20
5.64279
11
-4.50391
21
5.6418
0
LINE
8
BLACK
6
CONTINUOUS
10
-4.50391
20
5.6418
11
-4.50328
21
5.64061
0
LINE
8
BLACK
6
CONTINUOUS
10
-4.50328
20
5.64061
11
-4.50313
21
5.64031
0
LINE
8
BLACK
6
CONTINUOUS
10
-4.50313
20
5.64031
11
-4.50242
21
5.63878
0
LINE
8
BLACK
6
CONTINUOUS
10
-4.50242
20
5.63878
11
-4.50189
21
5.63745
0
LINE
8
BLACK
6
CONTINUOUS
10
-4.50189
20
5.63745
11
-4.50151
21
5.63621
0
LINE
8
BLACK
6
CONTINUOUS
10
-4.50151
20
5.63621
11
-4.50126
21
5.63493
0
LINE
8
BLACK
6
CONTINUOUS
10
-4.50126
20
5.63493
11
-4.50112
21
5.63348
0
LINE
8
BLACK
6
CONTINUOUS
10
-4.50112
20
5.63348
11
-4.50105
21
5.63175
0
LINE
8
BLACK
6
CONTINUOUS
10
-4.50105
20
5.63175
11
-4.50104
21
5.63
0
LINE
8
BLACK
6
CONTINUOUS
10
-4.50104
20
5.63
11
-4.50106
21
5.62792
0
LINE
8
BLACK
6
CONTINUOUS
10
-4.50106
20
5.62792
11
-4.50114
21
5.62624
0
LINE
8
BLACK
6
CONTINUOUS
10
-4.50114
20
5.62624
11
-4.5013
21
5.62482
0
LINE
8
BLACK
6
CONTINUOUS
10
-4.5013
20
5.62482
11
-4.50157
21
5.62355
0
LINE
8
BLACK
6
CONTINUOUS
10
-4.50157
20
5.62355
11
-4.50198
21
5.62231
0
LINE
8
BLACK
6
CONTINUOUS
10
-4.50198
20
5.62231
11
-4.50254
21
5.62097
0
LINE
8
BLACK
6
CONTINUOUS
10
-4.50254
20
5.62097
11
-4.50316
21
5.61967
0
LINE
8
BLACK
6
CONTINUOUS
10
-4.50316
20
5.61967
11
-4.50468
21
5.61715
0
LINE
8
BLACK
6
CONTINUOUS
10
-4.50468
20
5.61715
11
-4.50659
21
5.61494
0
LINE
8
BLACK
6
CONTINUOUS
10
-4.50659
20
5.61494
11
-4.50886
21
5.61307
0
LINE
8
BLACK
6
CONTINUOUS
10
-4.50886
20
5.61307
11
-4.51144
21
5.61159
0
LINE
8
BLACK
6
CONTINUOUS
10
-4.51144
20
5.61159
11
-4.51318
21
5.61088
0
LINE
8
BLACK
6
CONTINUOUS
10
-4.51318
20
5.61088
11
-4.51416
21
5.61055
0
LINE
8
BLACK
6
CONTINUOUS
10
-4.51416
20
5.61055
11
-4.5151
21
5.61029
0
LINE
8
BLACK
6
CONTINUOUS
10
-4.5151
20
5.61029
11
-4.51606
21
5.61007
0
LINE
8
BLACK
6
CONTINUOUS
10
-4.51606
20
5.61007
11
-4.51711
21
5.60991
0
LINE
8
BLACK
6
CONTINUOUS
10
-4.51711
20
5.60991
11
-4.51831
21
5.60979
0
LINE
8
BLACK
6
CONTINUOUS
10
-4.51831
20
5.60979
11
-4.51974
21
5.6097
0
LINE
8
BLACK
6
CONTINUOUS
10
-4.51974
20
5.6097
11
-4.52145
21
5.60965
0
LINE
8
BLACK
6
CONTINUOUS
10
-4.52145
20
5.60965
11
-4.52352
21
5.60962
0
LINE
8
BLACK
6
CONTINUOUS
10
-4.52352
20
5.60962
11
-4.52601
21
5.6096
0
LINE
8
BLACK
6
CONTINUOUS
10
-4.52601
20
5.6096
11
-4.52738
21
5.6096
0
LINE
8
BLACK
6
CONTINUOUS
10
-4.52738
20
5.6096
11
-4.53627
21
5.6096
0
LINE
8
BLACK
6
CONTINUOUS
10
-4.53627
20
5.6096
11
-4.53627
21
5.64372
0
LINE
8
BLACK
6
CONTINUOUS
10
-4.53627
20
5.64372
11
-4.53627
21
5.65044
0
LINE
8
BLACK
6
CONTINUOUS
10
-4.53627
20
5.65044
11
-4.52639
21
5.65033
0
LINE
8
BLACK
6
CONTINUOUS
10
-4.52878
20
5.61627
11
-4.52303
21
5.61636
0
LINE
8
BLACK
6
CONTINUOUS
10
-4.52303
20
5.61636
11
-4.51729
21
5.61644
0
LINE
8
BLACK
6
CONTINUOUS
10
-4.51729
20
5.61644
11
-4.51556
21
5.61726
0
LINE
8
BLACK
6
CONTINUOUS
10
-4.51556
20
5.61726
11
-4.51358
21
5.61846
0
LINE
8
BLACK
6
CONTINUOUS
10
-4.51358
20
5.61846
11
-4.51196
21
5.62002
0
LINE
8
BLACK
6
CONTINUOUS
10
-4.51196
20
5.62002
11
-4.5107
21
5.62193
0
LINE
8
BLACK
6
CONTINUOUS
10
-4.5107
20
5.62193
11
-4.5098
21
5.6242
0
LINE
8
BLACK
6
CONTINUOUS
10
-4.5098
20
5.6242
11
-4.50926
21
5.62685
0
LINE
8
BLACK
6
CONTINUOUS
10
-4.50926
20
5.62685
11
-4.50907
21
5.62986
0
LINE
8
BLACK
6
CONTINUOUS
10
-4.50907
20
5.62986
11
-4.50907
21
5.63
0
LINE
8
BLACK
6
CONTINUOUS
10
-4.50907
20
5.63
11
-4.50924
21
5.63303
0
LINE
8
BLACK
6
CONTINUOUS
10
-4.50924
20
5.63303
11
-4.50977
21
5.63569
0
LINE
8
BLACK
6
CONTINUOUS
10
-4.50977
20
5.63569
11
-4.51065
21
5.63798
0
LINE
8
BLACK
6
CONTINUOUS
10
-4.51065
20
5.63798
11
-4.5119
21
5.63991
0
LINE
8
BLACK
6
CONTINUOUS
10
-4.5119
20
5.63991
11
-4.5135
21
5.64148
0
LINE
8
BLACK
6
CONTINUOUS
10
-4.5135
20
5.64148
11
-4.51547
21
5.64269
0
LINE
8
BLACK
6
CONTINUOUS
10
-4.51547
20
5.64269
11
-4.51556
21
5.64274
0
LINE
8
BLACK
6
CONTINUOUS
10
-4.51556
20
5.64274
11
-4.51729
21
5.64356
0
LINE
8
BLACK
6
CONTINUOUS
10
-4.51729
20
5.64356
11
-4.52303
21
5.64364
0
LINE
8
BLACK
6
CONTINUOUS
10
-4.52303
20
5.64364
11
-4.52878
21
5.64372
0
LINE
8
BLACK
6
CONTINUOUS
10
-4.52878
20
5.64372
11
-4.52878
21
5.61627
0
LINE
8
BLACK
6
CONTINUOUS
10
-4.46862
20
5.64317
11
-4.48721
21
5.64317
0
LINE
8
BLACK
6
CONTINUOUS
10
-4.48721
20
5.64317
11
-4.48721
21
5.63439
0
LINE
8
BLACK
6
CONTINUOUS
10
-4.48721
20
5.63439
11
-4.47301
21
5.63439
0
LINE
8
BLACK
6
CONTINUOUS
10
-4.47301
20
5.63439
11
-4.47301
21
5.62716
0
LINE
8
BLACK
6
CONTINUOUS
10
-4.47301
20
5.62716
11
-4.48721
21
5.62716
0
LINE
8
BLACK
6
CONTINUOUS
10
-4.48721
20
5.62716
11
-4.48721
21
5.61683
0
LINE
8
BLACK
6
CONTINUOUS
10
-4.48721
20
5.61683
11
-4.4681
21
5.61683
0
LINE
8
BLACK
6
CONTINUOUS
10
-4.4681
20
5.61683
11
-4.4681
21
5.6096
0
LINE
8
BLACK
6
CONTINUOUS
10
-4.4681
20
5.6096
11
-4.49495
21
5.6096
0
LINE
8
BLACK
6
CONTINUOUS
10
-4.49495
20
5.6096
11
-4.49495
21
5.6504
0
LINE
8
BLACK
6
CONTINUOUS
10
-4.49495
20
5.6504
11
-4.46862
21
5.6504
0
LINE
8
BLACK
6
CONTINUOUS
10
-4.46862
20
5.6504
11
-4.46862
21
5.64317
0
LINE
8
BLACK
6
CONTINUOUS
10
-4.45087
20
5.6504
11
-4.4489
21
5.65039
0
LINE
8
BLACK
6
CONTINUOUS
10
-4.4489
20
5.65039
11
-4.44732
21
5.65037
0
LINE
8
BLACK
6
CONTINUOUS
10
-4.44732
20
5.65037
11
-4.44607
21
5.65034
0
LINE
8
BLACK
6
CONTINUOUS
10
-4.44607
20
5.65034
11
-4.44507
21
5.65029
0
LINE
8
BLACK
6
CONTINUOUS
10
-4.44507
20
5.65029
11
-4.44427
21
5.65022
0
LINE
8
BLACK
6
CONTINUOUS
10
-4.44427
20
5.65022
11
-4.4436
21
5.65014
0
LINE
8
BLACK
6
CONTINUOUS
10
-4.4436
20
5.65014
11
-4.443
21
5.65002
0
LINE
8
BLACK
6
CONTINUOUS
10
-4.443
20
5.65002
11
-4.44241
21
5.64988
0
LINE
8
BLACK
6
CONTINUOUS
10
-4.44241
20
5.64988
11
-4.44239
21
5.64988
0
LINE
8
BLACK
6
CONTINUOUS
10
-4.44239
20
5.64988
11
-4.43986
21
5.64903
0
LINE
8
BLACK
6
CONTINUOUS
10
-4.43986
20
5.64903
11
-4.43774
21
5.64787
0
LINE
8
BLACK
6
CONTINUOUS
10
-4.43774
20
5.64787
11
-4.43604
21
5.64641
0
LINE
8
BLACK
6
CONTINUOUS
10
-4.43604
20
5.64641
11
-4.43474
21
5.64462
0
LINE
8
BLACK
6
CONTINUOUS
10
-4.43474
20
5.64462
11
-4.43385
21
5.64252
0
LINE
8
BLACK
6
CONTINUOUS
10
-4.43385
20
5.64252
11
-4.43335
21
5.64009
0
LINE
8
BLACK
6
CONTINUOUS
10
-4.43335
20
5.64009
11
-4.43325
21
5.63807
0
LINE
8
BLACK
6
CONTINUOUS
10
-4.43325
20
5.63807
11
-4.43343
21
5.63547
0
LINE
8
BLACK
6
CONTINUOUS
10
-4.43343
20
5.63547
11
-4.43401
21
5.63319
0
LINE
8
BLACK
6
CONTINUOUS
10
-4.43401
20
5.63319
11
-4.43498
21
5.63121
0
LINE
8
BLACK
6
CONTINUOUS
10
-4.43498
20
5.63121
11
-4.43638
21
5.62948
0
LINE
8
BLACK
6
CONTINUOUS
10
-4.43638
20
5.62948
11
-4.43809
21
5.62806
0
LINE
8
BLACK
6
CONTINUOUS
10
-4.43809
20
5.62806
11
-4.43892
21
5.62746
0
LINE
8
BLACK
6
CONTINUOUS
10
-4.43892
20
5.62746
11
-4.43956
21
5.62696
0
LINE
8
BLACK
6
CONTINUOUS
10
-4.43956
20
5.62696
11
-4.43991
21
5.62664
0
LINE
8
BLACK
6
CONTINUOUS
10
-4.43991
20
5.62664
11
-4.43994
21
5.62658
0
LINE
8
BLACK
6
CONTINUOUS
10
-4.43994
20
5.62658
11
-4.43983
21
5.62632
0
LINE
8
BLACK
6
CONTINUOUS
10
-4.43983
20
5.62632
11
-4.4395
21
5.62567
0
LINE
8
BLACK
6
CONTINUOUS
10
-4.4395
20
5.62567
11
-4.439
21
5.62469
0
LINE
8
BLACK
6
CONTINUOUS
10
-4.439
20
5.62469
11
-4.43834
21
5.62344
0
LINE
8
BLACK
6
CONTINUOUS
10
-4.43834
20
5.62344
11
-4.43757
21
5.62197
0
LINE
8
BLACK
6
CONTINUOUS
10
-4.43757
20
5.62197
11
-4.43672
21
5.62036
0
LINE
8
BLACK
6
CONTINUOUS
10
-4.43672
20
5.62036
11
-4.43582
21
5.61867
0
LINE
8
BLACK
6
CONTINUOUS
10
-4.43582
20
5.61867
11
-4.4349
21
5.61695
0
LINE
8
BLACK
6
CONTINUOUS
10
-4.4349
20
5.61695
11
-4.43399
21
5.61526
0
LINE
8
BLACK
6
CONTINUOUS
10
-4.43399
20
5.61526
11
-4.43314
21
5.61368
0
LINE
8
BLACK
6
CONTINUOUS
10
-4.43314
20
5.61368
11
-4.43236
21
5.61225
0
LINE
8
BLACK
6
CONTINUOUS
10
-4.43236
20
5.61225
11
-4.43179
21
5.61122
0
LINE
8
BLACK
6
CONTINUOUS
10
-4.43179
20
5.61122
11
-4.4309
21
5.6096
0
LINE
8
BLACK
6
CONTINUOUS
10
-4.4309
20
5.6096
11
-4.4351
21
5.60961
0
LINE
8
BLACK
6
CONTINUOUS
10
-4.4351
20
5.60961
11
-4.43931
21
5.60961
0
LINE
8
BLACK
6
CONTINUOUS
10
-4.43931
20
5.60961
11
-4.44323
21
5.61716
0
LINE
8
BLACK
6
CONTINUOUS
10
-4.44323
20
5.61716
11
-4.44714
21
5.62471
0
LINE
8
BLACK
6
CONTINUOUS
10
-4.44714
20
5.62471
11
-4.45468
21
5.62485
0
LINE
8
BLACK
6
CONTINUOUS
10
-4.45468
20
5.62485
11
-4.45468
21
5.6096
0
LINE
8
BLACK
6
CONTINUOUS
10
-4.45468
20
5.6096
11
-4.46216
21
5.6096
0
LINE
8
BLACK
6
CONTINUOUS
10
-4.46216
20
5.6096
11
-4.46216
21
5.64425
0
LINE
8
BLACK
6
CONTINUOUS
10
-4.46216
20
5.64425
11
-4.46216
21
5.6504
0
LINE
8
BLACK
6
CONTINUOUS
10
-4.46216
20
5.6504
11
-4.4533
21
5.6504
0
LINE
8
BLACK
6
CONTINUOUS
10
-4.4533
20
5.6504
11
-4.45087
21
5.6504
0
LINE
8
BLACK
6
CONTINUOUS
10
-4.45468
20
5.63098
11
-4.45035
21
5.63107
0
LINE
8
BLACK
6
CONTINUOUS
10
-4.45035
20
5.63107
11
-4.44875
21
5.63111
0
LINE
8
BLACK
6
CONTINUOUS
10
-4.44875
20
5.63111
11
-4.44757
21
5.63115
0
LINE
8
BLACK
6
CONTINUOUS
10
-4.44757
20
5.63115
11
-4.4467
21
5.63122
0
LINE
8
BLACK
6
CONTINUOUS
10
-4.4467
20
5.63122
11
-4.44605
21
5.63132
0
LINE
8
BLACK
6
CONTINUOUS
10
-4.44605
20
5.63132
11
-4.44552
21
5.63147
0
LINE
8
BLACK
6
CONTINUOUS
10
-4.44552
20
5.63147
11
-4.445
21
5.63169
0
LINE
8
BLACK
6
CONTINUOUS
10
-4.445
20
5.63169
11
-4.44449
21
5.63194
0
LINE
8
BLACK
6
CONTINUOUS
10
-4.44449
20
5.63194
11
-4.44301
21
5.63288
0
LINE
8
BLACK
6
CONTINUOUS
10
-4.44301
20
5.63288
11
-4.44197
21
5.63403
0
LINE
8
BLACK
6
CONTINUOUS
10
-4.44197
20
5.63403
11
-4.44134
21
5.63544
0
LINE
8
BLACK
6
CONTINUOUS
10
-4.44134
20
5.63544
11
-4.44121
21
5.63595
0
LINE
8
BLACK
6
CONTINUOUS
10
-4.44121
20
5.63595
11
-4.44101
21
5.63788
0
LINE
8
BLACK
6
CONTINUOUS
10
-4.44101
20
5.63788
11
-4.44124
21
5.63965
0
LINE
8
BLACK
6
CONTINUOUS
10
-4.44124
20
5.63965
11
-4.44187
21
5.64118
0
LINE
8
BLACK
6
CONTINUOUS
10
-4.44187
20
5.64118
11
-4.44288
21
5.64244
0
LINE
8
BLACK
6
CONTINUOUS
10
-4.44288
20
5.64244
11
-4.44425
21
5.64336
0
LINE
8
BLACK
6
CONTINUOUS
10
-4.44425
20
5.64336
11
-4.44429
21
5.64337
0
LINE
8
BLACK
6
CONTINUOUS
10
-4.44429
20
5.64337
11
-4.44486
21
5.64363
0
LINE
8
BLACK
6
CONTINUOUS
10
-4.44486
20
5.64363
11
-4.44539
21
5.64381
0
LINE
8
BLACK
6
CONTINUOUS
10
-4.44539
20
5.64381
11
-4.44598
21
5.64394
0
LINE
8
BLACK
6
CONTINUOUS
10
-4.44598
20
5.64394
11
-4.44673
21
5.64403
0
LINE
8
BLACK
6
CONTINUOUS
10
-4.44673
20
5.64403
11
-4.44773
21
5.64409
0
LINE
8
BLACK
6
CONTINUOUS
10
-4.44773
20
5.64409
11
-4.44908
21
5.64413
0
LINE
8
BLACK
6
CONTINUOUS
10
-4.44908
20
5.64413
11
-4.45022
21
5.64416
0
LINE
8
BLACK
6
CONTINUOUS
10
-4.45022
20
5.64416
11
-4.45468
21
5.64425
0
LINE
8
BLACK
6
CONTINUOUS
10
-4.45468
20
5.64425
11
-4.45468
21
5.63098
0
LINE
8
BLACK
6
CONTINUOUS
10
-4.40647
20
5.65039
11
-4.40419
21
5.65038
0
LINE
8
BLACK
6
CONTINUOUS
10
-4.40419
20
5.65038
11
-4.40213
21
5.65036
0
LINE
8
BLACK
6
CONTINUOUS
10
-4.40213
20
5.65036
11
-4.40034
21
5.65034
0
LINE
8
BLACK
6
CONTINUOUS
10
-4.40034
20
5.65034
11
-4.39886
21
5.65031
0
LINE
8
BLACK
6
CONTINUOUS
10
-4.39886
20
5.65031
11
-4.39775
21
5.65028
0
LINE
8
BLACK
6
CONTINUOUS
10
-4.39775
20
5.65028
11
-4.39706
21
5.65024
0
LINE
8
BLACK
6
CONTINUOUS
10
-4.39706
20
5.65024
11
-4.39683
21
5.6502
0
LINE
8
BLACK
6
CONTINUOUS
10
-4.39683
20
5.6502
11
-4.39687
21
5.64989
0
LINE
8
BLACK
6
CONTINUOUS
10
-4.39687
20
5.64989
11
-4.39698
21
5.64917
0
LINE
8
BLACK
6
CONTINUOUS
10
-4.39698
20
5.64917
11
-4.39715
21
5.64814
0
LINE
8
BLACK
6
CONTINUOUS
10
-4.39715
20
5.64814
11
-4.39736
21
5.6469
0
LINE
8
BLACK
6
CONTINUOUS
10
-4.39736
20
5.6469
11
-4.39741
21
5.64659
0
LINE
8
BLACK
6
CONTINUOUS
10
-4.39741
20
5.64659
11
-4.39799
21
5.64318
0
LINE
8
BLACK
6
CONTINUOUS
10
-4.39799
20
5.64318
11
-4.40637
21
5.64311
0
LINE
8
BLACK
6
CONTINUOUS
10
-4.40637
20
5.64311
11
-4.41476
21
5.64304
0
LINE
8
BLACK
6
CONTINUOUS
10
-4.41476
20
5.64304
11
-4.41547
21
5.63917
0
LINE
8
BLACK
6
CONTINUOUS
10
-4.41547
20
5.63917
11
-4.41572
21
5.63778
0
LINE
8
BLACK
6
CONTINUOUS
10
-4.41572
20
5.63778
11
-4.41593
21
5.63656
0
LINE
8
BLACK
6
CONTINUOUS
10
-4.41593
20
5.63656
11
-4.41609
21
5.63559
0
LINE
8
BLACK
6
CONTINUOUS
10
-4.41609
20
5.63559
11
-4.41618
21
5.63498
0
LINE
8
BLACK
6
CONTINUOUS
10
-4.41618
20
5.63498
11
-4.41619
21
5.63484
0
LINE
8
BLACK
6
CONTINUOUS
10
-4.41619
20
5.63484
11
-4.41616
21
5.6347
0
LINE
8
BLACK
6
CONTINUOUS
10
-4.41616
20
5.6347
11
-4.41603
21
5.63459
0
LINE
8
BLACK
6
CONTINUOUS
10
-4.41603
20
5.63459
11
-4.41574
21
5.63451
0
LINE
8
BLACK
6
CONTINUOUS
10
-4.41574
20
5.63451
11
-4.41522
21
5.63446
0
LINE
8
BLACK
6
CONTINUOUS
10
-4.41522
20
5.63446
11
-4.41442
21
5.63442
0
LINE
8
BLACK
6
CONTINUOUS
10
-4.41442
20
5.63442
11
-4.41328
21
5.6344
0
LINE
8
BLACK
6
CONTINUOUS
10
-4.41328
20
5.6344
11
-4.41175
21
5.63439
0
LINE
8
BLACK
6
CONTINUOUS
10
-4.41175
20
5.63439
11
-4.40975
21
5.63439
0
LINE
8
BLACK
6
CONTINUOUS
10
-4.40975
20
5.63439
11
-4.40973
21
5.63439
0
LINE
8
BLACK
6
CONTINUOUS
10
-4.40973
20
5.63439
11
-4.40774
21
5.63439
0
LINE
8
BLACK
6
CONTINUOUS
10
-4.40774
20
5.63439
11
-4.4062
21
5.63438
0
LINE
8
BLACK
6
CONTINUOUS
10
-4.4062
20
5.63438
11
-4.40507
21
5.63436
0
LINE
8
BLACK
6
CONTINUOUS
10
-4.40507
20
5.63436
11
-4.40428
21
5.63432
0
LINE
8
BLACK
6
CONTINUOUS
10
-4.40428
20
5.63432
11
-4.40377
21
5.63427
0
LINE
8
BLACK
6
CONTINUOUS
10
-4.40377
20
5.63427
11
-4.40349
21
5.63419
0
LINE
8
BLACK
6
CONTINUOUS
10
-4.40349
20
5.63419
11
-4.40338
21
5.63409
0
LINE
8
BLACK
6
CONTINUOUS
10
-4.40338
20
5.63409
11
-4.40339
21
5.63395
0
LINE
8
BLACK
6
CONTINUOUS
10
-4.40339
20
5.63395
11
-4.40339
21
5.63394
0
LINE
8
BLACK
6
CONTINUOUS
10
-4.40339
20
5.63394
11
-4.40348
21
5.63355
0
LINE
8
BLACK
6
CONTINUOUS
10
-4.40348
20
5.63355
11
-4.40363
21
5.63279
0
LINE
8
BLACK
6
CONTINUOUS
10
-4.40363
20
5.63279
11
-4.40381
21
5.63178
0
LINE
8
BLACK
6
CONTINUOUS
10
-4.40381
20
5.63178
11
-4.40402
21
5.63065
0
LINE
8
BLACK
6
CONTINUOUS
10
-4.40402
20
5.63065
11
-4.40422
21
5.62952
0
LINE
8
BLACK
6
CONTINUOUS
10
-4.40422
20
5.62952
11
-4.4044
21
5.6285
0
LINE
8
BLACK
6
CONTINUOUS
10
-4.4044
20
5.6285
11
-4.40453
21
5.62773
0
LINE
8
BLACK
6
CONTINUOUS
10
-4.40453
20
5.62773
11
-4.40458
21
5.62732
0
LINE
8
BLACK
6
CONTINUOUS
10
-4.40458
20
5.62732
11
-4.40459
21
5.6273
0
LINE
8
BLACK
6
CONTINUOUS
10
-4.40459
20
5.6273
11
-4.40483
21
5.62726
0
LINE
8
BLACK
6
CONTINUOUS
10
-4.40483
20
5.62726
11
-4.40553
21
5.62723
0
LINE
8
BLACK
6
CONTINUOUS
10
-4.40553
20
5.62723
11
-4.4066
21
5.6272
0
LINE
8
BLACK
6
CONTINUOUS
10
-4.4066
20
5.6272
11
-4.40798
21
5.62718
0
LINE
8
BLACK
6
CONTINUOUS
10
-4.40798
20
5.62718
11
-4.40961
21
5.62716
0
LINE
8
BLACK
6
CONTINUOUS
10
-4.40961
20
5.62716
11
-4.41111
21
5.62716
0
LINE
8
BLACK
6
CONTINUOUS
10
-4.41111
20
5.62716
11
-4.41762
21
5.62716
0
LINE
8
BLACK
6
CONTINUOUS
10
-4.41762
20
5.62716
11
-4.41862
21
5.62141
0
LINE
8
BLACK
6
CONTINUOUS
10
-4.41862
20
5.62141
11
-4.41895
21
5.61952
0
LINE
8
BLACK
6
CONTINUOUS
10
-4.41895
20
5.61952
11
-4.41928
21
5.61758
0
LINE
8
BLACK
6
CONTINUOUS
10
-4.41928
20
5.61758
11
-4.4196
21
5.61573
0
LINE
8
BLACK
6
CONTINUOUS
10
-4.4196
20
5.61573
11
-4.41989
21
5.6141
0
LINE
8
BLACK
6
CONTINUOUS
10
-4.41989
20
5.6141
11
-4.42011
21
5.61283
0
LINE
8
BLACK
6
CONTINUOUS
10
-4.42011
20
5.61283
11
-4.42014
21
5.61264
0
LINE
8
BLACK
6
CONTINUOUS
10
-4.42014
20
5.61264
11
-4.42067
21
5.6096
0
LINE
8
BLACK
6
CONTINUOUS
10
-4.42067
20
5.6096
11
-4.42441
21
5.6096
0
LINE
8
BLACK
6
CONTINUOUS
10
-4.42441
20
5.6096
11
-4.42586
21
5.6096
0
LINE
8
BLACK
6
CONTINUOUS
10
-4.42586
20
5.6096
11
-4.42688
21
5.60962
0
LINE
8
BLACK
6
CONTINUOUS
10
-4.42688
20
5.60962
11
-4.42753
21
5.60966
0
LINE
8
BLACK
6
CONTINUOUS
10
-4.42753
20
5.60966
11
-4.42789
21
5.60973
0
LINE
8
BLACK
6
CONTINUOUS
10
-4.42789
20
5.60973
11
-4.42804
21
5.60986
0
LINE
8
BLACK
6
CONTINUOUS
10
-4.42804
20
5.60986
11
-4.42806
21
5.61004
0
LINE
8
BLACK
6
CONTINUOUS
10
-4.42806
20
5.61004
11
-4.42803
21
5.61018
0
LINE
8
BLACK
6
CONTINUOUS
10
-4.42803
20
5.61018
11
-4.42797
21
5.61052
0
LINE
8
BLACK
6
CONTINUOUS
10
-4.42797
20
5.61052
11
-4.42783
21
5.61133
0
LINE
8
BLACK
6
CONTINUOUS
10
-4.42783
20
5.61133
11
-4.42761
21
5.61257
0
LINE
8
BLACK
6
CONTINUOUS
10
-4.42761
20
5.61257
11
-4.42733
21
5.6142
0
LINE
8
BLACK
6
CONTINUOUS
10
-4.42733
20
5.6142
11
-4.42698
21
5.61618
0
LINE
8
BLACK
6
CONTINUOUS
10
-4.42698
20
5.61618
11
-4.42658
21
5.61846
0
LINE
8
BLACK
6
CONTINUOUS
10
-4.42658
20
5.61846
11
-4.42613
21
5.62101
0
LINE
8
BLACK
6
CONTINUOUS
10
-4.42613
20
5.62101
11
-4.42564
21
5.62379
0
LINE
8
BLACK
6
CONTINUOUS
10
-4.42564
20
5.62379
11
-4.42512
21
5.62676
0
LINE
8
BLACK
6
CONTINUOUS
10
-4.42512
20
5.62676
11
-4.42458
21
5.62987
0
LINE
8
BLACK
6
CONTINUOUS
10
-4.42458
20
5.62987
11
-4.42445
21
5.63058
0
LINE
8
BLACK
6
CONTINUOUS
10
-4.42445
20
5.63058
11
-4.42098
21
5.6504
0
LINE
8
BLACK
6
CONTINUOUS
10
-4.42098
20
5.6504
11
-4.40891
21
5.6504
0
LINE
8
BLACK
6
CONTINUOUS
10
-4.40891
20
5.6504
11
-4.40647
21
5.65039
0
LINE
8
BLACK
6
CONTINUOUS
10
-4.38832
20
5.65035
11
-4.38789
21
5.65034
0
LINE
8
BLACK
6
CONTINUOUS
10
-4.38789
20
5.65034
11
-4.38429
21
5.65027
0
LINE
8
BLACK
6
CONTINUOUS
10
-4.38429
20
5.65027
11
-4.38706
21
5.63452
0
LINE
8
BLACK
6
CONTINUOUS
10
-4.38706
20
5.63452
11
-4.38755
21
5.63171
0
LINE
8
BLACK
6
CONTINUOUS
10
-4.38755
20
5.63171
11
-4.38802
21
5.62902
0
LINE
8
BLACK
6
CONTINUOUS
10
-4.38802
20
5.62902
11
-4.38846
21
5.62652
0
LINE
8
BLACK
6
CONTINUOUS
10
-4.38846
20
5.62652
11
-4.38886
21
5.62423
0
LINE
8
BLACK
6
CONTINUOUS
10
-4.38886
20
5.62423
11
-4.38921
21
5.62222
0
LINE
8
BLACK
6
CONTINUOUS
10
-4.38921
20
5.62222
11
-4.3895
21
5.62053
0
LINE
8
BLACK
6
CONTINUOUS
10
-4.3895
20
5.62053
11
-4.38974
21
5.6192
0
LINE
8
BLACK
6
CONTINUOUS
10
-4.38974
20
5.6192
11
-4.3899
21
5.61828
0
LINE
8
BLACK
6
CONTINUOUS
10
-4.3899
20
5.61828
11
-4.38997
21
5.61782
0
LINE
8
BLACK
6
CONTINUOUS
10
-4.38997
20
5.61782
11
-4.38998
21
5.6178
0
LINE
8
BLACK
6
CONTINUOUS
10
-4.38998
20
5.6178
11
-4.39013
21
5.61683
0
LINE
8
BLACK
6
CONTINUOUS
10
-4.39013
20
5.61683
11
-4.38316
21
5.61683
0
LINE
8
BLACK
6
CONTINUOUS
10
-4.38316
20
5.61683
11
-4.38107
21
5.61683
0
LINE
8
BLACK
6
CONTINUOUS
10
-4.38107
20
5.61683
11
-4.37944
21
5.61682
0
LINE
8
BLACK
6
CONTINUOUS
10
-4.37944
20
5.61682
11
-4.37821
21
5.6168
0
LINE
8
BLACK
6
CONTINUOUS
10
-4.37821
20
5.6168
11
-4.37734
21
5.61676
0
LINE
8
BLACK
6
CONTINUOUS
10
-4.37734
20
5.61676
11
-4.37675
21
5.61671
0
LINE
8
BLACK
6
CONTINUOUS
10
-4.37675
20
5.61671
11
-4.3764
21
5.61664
0
LINE
8
BLACK
6
CONTINUOUS
10
-4.3764
20
5.61664
11
-4.37623
21
5.61654
0
LINE
8
BLACK
6
CONTINUOUS
10
-4.37623
20
5.61654
11
-4.37618
21
5.61642
0
LINE
8
BLACK
6
CONTINUOUS
10
-4.37618
20
5.61642
11
-4.37618
21
5.61641
0
LINE
8
BLACK
6
CONTINUOUS
10
-4.37618
20
5.61641
11
-4.37623
21
5.616
0
LINE
8
BLACK
6
CONTINUOUS
10
-4.37623
20
5.616
11
-4.37634
21
5.6152
0
LINE
8
BLACK
6
CONTINUOUS
10
-4.37634
20
5.6152
11
-4.37652
21
5.61412
0
LINE
8
BLACK
6
CONTINUOUS
10
-4.37652
20
5.61412
11
-4.37673
21
5.61287
0
LINE
8
BLACK
6
CONTINUOUS
10
-4.37673
20
5.61287
11
-4.37675
21
5.6128
0
LINE
8
BLACK
6
CONTINUOUS
10
-4.37675
20
5.6128
11
-4.37731
21
5.6096
0
LINE
8
BLACK
6
CONTINUOUS
10
-4.37731
20
5.6096
11
-4.38811
21
5.6096
0
LINE
8
BLACK
6
CONTINUOUS
10
-4.38811
20
5.6096
11
-4.39041
21
5.6096
0
LINE
8
BLACK
6
CONTINUOUS
10
-4.39041
20
5.6096
11
-4.39255
21
5.60961
0
LINE
8
BLACK
6
CONTINUOUS
10
-4.39255
20
5.60961
11
-4.39446
21
5.60961
0
LINE
8
BLACK
6
CONTINUOUS
10
-4.39446
20
5.60961
11
-4.3961
21
5.60962
0
LINE
8
BLACK
6
CONTINUOUS
10
-4.3961
20
5.60962
11
-4.39741
21
5.60963
0
LINE
8
BLACK
6
CONTINUOUS
10
-4.39741
20
5.60963
11
-4.39834
21
5.60965
0
LINE
8
BLACK
6
CONTINUOUS
10
-4.39834
20
5.60965
11
-4.39883
21
5.60966
0
LINE
8
BLACK
6
CONTINUOUS
10
-4.39883
20
5.60966
11
-4.3989
21
5.60967
0
LINE
8
BLACK
6
CONTINUOUS
10
-4.3989
20
5.60967
11
-4.39883
21
5.6101
0
LINE
8
BLACK
6
CONTINUOUS
10
-4.39883
20
5.6101
11
-4.39868
21
5.61098
0
LINE
8
BLACK
6
CONTINUOUS
10
-4.39868
20
5.61098
11
-4.39846
21
5.61226
0
LINE
8
BLACK
6
CONTINUOUS
10
-4.39846
20
5.61226
11
-4.39818
21
5.61389
0
LINE
8
BLACK
6
CONTINUOUS
10
-4.39818
20
5.61389
11
-4.39784
21
5.61583
0
LINE
8
BLACK
6
CONTINUOUS
10
-4.39784
20
5.61583
11
-4.39745
21
5.61802
0
LINE
8
BLACK
6
CONTINUOUS
10
-4.39745
20
5.61802
11
-4.39702
21
5.62043
0
LINE
8
BLACK
6
CONTINUOUS
10
-4.39702
20
5.62043
11
-4.39657
21
5.623
0
LINE
8
BLACK
6
CONTINUOUS
10
-4.39657
20
5.623
11
-4.39609
21
5.62569
0
LINE
8
BLACK
6
CONTINUOUS
10
-4.39609
20
5.62569
11
-4.3956
21
5.62845
0
LINE
8
BLACK
6
CONTINUOUS
10
-4.3956
20
5.62845
11
-4.3951
21
5.63123
0
LINE
8
BLACK
6
CONTINUOUS
10
-4.3951
20
5.63123
11
-4.3946
21
5.634
0
LINE
8
BLACK
6
CONTINUOUS
10
-4.3946
20
5.634
11
-4.39412
21
5.63669
0
LINE
8
BLACK
6
CONTINUOUS
10
-4.39412
20
5.63669
11
-4.39365
21
5.63927
0
LINE
8
BLACK
6
CONTINUOUS
10
-4.39365
20
5.63927
11
-4.39322
21
5.64169
0
LINE
8
BLACK
6
CONTINUOUS
10
-4.39322
20
5.64169
11
-4.39282
21
5.6439
0
LINE
8
BLACK
6
CONTINUOUS
10
-4.39282
20
5.6439
11
-4.39246
21
5.64586
0
LINE
8
BLACK
6
CONTINUOUS
10
-4.39246
20
5.64586
11
-4.39216
21
5.64752
0
LINE
8
BLACK
6
CONTINUOUS
10
-4.39216
20
5.64752
11
-4.39191
21
5.64883
0
LINE
8
BLACK
6
CONTINUOUS
10
-4.39191
20
5.64883
11
-4.39174
21
5.64974
0
LINE
8
BLACK
6
CONTINUOUS
10
-4.39174
20
5.64974
11
-4.39165
21
5.65021
0
LINE
8
BLACK
6
CONTINUOUS
10
-4.39165
20
5.65021
11
-4.39163
21
5.65027
0
LINE
8
BLACK
6
CONTINUOUS
10
-4.39163
20
5.65027
11
-4.39134
21
5.65032
0
LINE
8
BLACK
6
CONTINUOUS
10
-4.39134
20
5.65032
11
-4.39062
21
5.65035
0
LINE
8
BLACK
6
CONTINUOUS
10
-4.39062
20
5.65035
11
-4.38958
21
5.65036
0
LINE
8
BLACK
6
CONTINUOUS
10
-4.38958
20
5.65036
11
-4.38832
21
5.65035
0
LINE
8
BLACK
6
CONTINUOUS
10
-4.3434
20
5.65038
11
-4.34228
21
5.65035
0
LINE
8
BLACK
6
CONTINUOUS
10
-4.34228
20
5.65035
11
-4.34158
21
5.65029
0
LINE
8
BLACK
6
CONTINUOUS
10
-4.34158
20
5.65029
11
-4.34125
21
5.6502
0
LINE
8
BLACK
6
CONTINUOUS
10
-4.34125
20
5.6502
11
-4.34122
21
5.6501
0
LINE
8
BLACK
6
CONTINUOUS
10
-4.34122
20
5.6501
11
-4.34141
21
5.64984
0
LINE
8
BLACK
6
CONTINUOUS
10
-4.34141
20
5.64984
11
-4.34189
21
5.64921
0
LINE
8
BLACK
6
CONTINUOUS
10
-4.34189
20
5.64921
11
-4.34262
21
5.64826
0
LINE
8
BLACK
6
CONTINUOUS
10
-4.34262
20
5.64826
11
-4.34358
21
5.64701
0
LINE
8
BLACK
6
CONTINUOUS
10
-4.34358
20
5.64701
11
-4.34474
21
5.64551
0
LINE
8
BLACK
6
CONTINUOUS
10
-4.34474
20
5.64551
11
-4.34607
21
5.6438
0
LINE
8
BLACK
6
CONTINUOUS
10
-4.34607
20
5.6438
11
-4.34753
21
5.64191
0
LINE
8
BLACK
6
CONTINUOUS
10
-4.34753
20
5.64191
11
-4.3491
21
5.63988
0
LINE
8
BLACK
6
CONTINUOUS
10
-4.3491
20
5.63988
11
-4.34985
21
5.63891
0
LINE
8
BLACK
6
CONTINUOUS
10
-4.34985
20
5.63891
11
-4.35145
21
5.63683
0
LINE
8
BLACK
6
CONTINUOUS
10
-4.35145
20
5.63683
11
-4.35297
21
5.63488
0
LINE
8
BLACK
6
CONTINUOUS
10
-4.35297
20
5.63488
11
-4.35435
21
5.63309
0
LINE
8
BLACK
6
CONTINUOUS
10
-4.35435
20
5.63309
11
-4.35559
21
5.63149
0
LINE
8
BLACK
6
CONTINUOUS
10
-4.35559
20
5.63149
11
-4.35664
21
5.63013
0
LINE
8
BLACK
6
CONTINUOUS
10
-4.35664
20
5.63013
11
-4.35747
21
5.62904
0
LINE
8
BLACK
6
CONTINUOUS
10
-4.35747
20
5.62904
11
-4.35806
21
5.62827
0
LINE
8
BLACK
6
CONTINUOUS
10
-4.35806
20
5.62827
11
-4.35838
21
5.62785
0
LINE
8
BLACK
6
CONTINUOUS
10
-4.35838
20
5.62785
11
-4.35843
21
5.62778
0
LINE
8
BLACK
6
CONTINUOUS
10
-4.35843
20
5.62778
11
-4.3585
21
5.6275
0
LINE
8
BLACK
6
CONTINUOUS
10
-4.3585
20
5.6275
11
-4.35865
21
5.62678
0
LINE
8
BLACK
6
CONTINUOUS
10
-4.35865
20
5.62678
11
-4.35886
21
5.62569
0
LINE
8
BLACK
6
CONTINUOUS
10
-4.35886
20
5.62569
11
-4.35912
21
5.62431
0
LINE
8
BLACK
6
CONTINUOUS
10
-4.35912
20
5.62431
11
-4.35942
21
5.6227
0
LINE
8
BLACK
6
CONTINUOUS
10
-4.35942
20
5.6227
11
-4.35974
21
5.62093
0
LINE
8
BLACK
6
CONTINUOUS
10
-4.35974
20
5.62093
11
-4.36008
21
5.61909
0
LINE
8
BLACK
6
CONTINUOUS
10
-4.36008
20
5.61909
11
-4.36042
21
5.61723
0
LINE
8
BLACK
6
CONTINUOUS
10
-4.36042
20
5.61723
11
-4.36075
21
5.61543
0
LINE
8
BLACK
6
CONTINUOUS
10
-4.36075
20
5.61543
11
-4.36104
21
5.61376
0
LINE
8
BLACK
6
CONTINUOUS
10
-4.36104
20
5.61376
11
-4.3613
21
5.61228
0
LINE
8
BLACK
6
CONTINUOUS
10
-4.3613
20
5.61228
11
-4.36151
21
5.61108
0
LINE
8
BLACK
6
CONTINUOUS
10
-4.36151
20
5.61108
11
-4.36166
21
5.61022
0
LINE
8
BLACK
6
CONTINUOUS
10
-4.36166
20
5.61022
11
-4.36172
21
5.60977
0
LINE
8
BLACK
6
CONTINUOUS
10
-4.36172
20
5.60977
11
-4.36172
21
5.60974
0
LINE
8
BLACK
6
CONTINUOUS
10
-4.36172
20
5.60974
11
-4.36197
21
5.60969
0
LINE
8
BLACK
6
CONTINUOUS
10
-4.36197
20
5.60969
11
-4.36264
21
5.60965
0
LINE
8
BLACK
6
CONTINUOUS
10
-4.36264
20
5.60965
11
-4.36364
21
5.60962
0
LINE
8
BLACK
6
CONTINUOUS
10
-4.36364
20
5.60962
11
-4.36489
21
5.6096
0
LINE
8
BLACK
6
CONTINUOUS
10
-4.36489
20
5.6096
11
-4.36547
21
5.6096
0
LINE
8
BLACK
6
CONTINUOUS
10
-4.36547
20
5.6096
11
-4.36922
21
5.6096
0
LINE
8
BLACK
6
CONTINUOUS
10
-4.36922
20
5.6096
11
-4.36909
21
5.61018
0
LINE
8
BLACK
6
CONTINUOUS
10
-4.36909
20
5.61018
11
-4.36899
21
5.61066
0
LINE
8
BLACK
6
CONTINUOUS
10
-4.36899
20
5.61066
11
-4.36883
21
5.61154
0
LINE
8
BLACK
6
CONTINUOUS
10
-4.36883
20
5.61154
11
-4.36861
21
5.61277
0
LINE
8
BLACK
6
CONTINUOUS
10
-4.36861
20
5.61277
11
-4.36835
21
5.61425
0
LINE
8
BLACK
6
CONTINUOUS
10
-4.36835
20
5.61425
11
-4.36805
21
5.61593
0
LINE
8
BLACK
6
CONTINUOUS
10
-4.36805
20
5.61593
11
-4.36774
21
5.61773
0
LINE
8
BLACK
6
CONTINUOUS
10
-4.36774
20
5.61773
11
-4.36743
21
5.61957
0
LINE
8
BLACK
6
CONTINUOUS
10
-4.36743
20
5.61957
11
-4.36712
21
5.62138
0
LINE
8
BLACK
6
CONTINUOUS
10
-4.36712
20
5.62138
11
-4.36683
21
5.62308
0
LINE
8
BLACK
6
CONTINUOUS
10
-4.36683
20
5.62308
11
-4.36657
21
5.62461
0
LINE
8
BLACK
6
CONTINUOUS
10
-4.36657
20
5.62461
11
-4.36636
21
5.62589
0
LINE
8
BLACK
6
CONTINUOUS
10
-4.36636
20
5.62589
11
-4.36621
21
5.62684
0
LINE
8
BLACK
6
CONTINUOUS
10
-4.36621
20
5.62684
11
-4.36613
21
5.6274
0
LINE
8
BLACK
6
CONTINUOUS
10
-4.36613
20
5.6274
11
-4.36611
21
5.6275
0
LINE
8
BLACK
6
CONTINUOUS
10
-4.36611
20
5.6275
11
-4.36621
21
5.62781
0
LINE
8
BLACK
6
CONTINUOUS
10
-4.36621
20
5.62781
11
-4.36649
21
5.62855
0
LINE
8
BLACK
6
CONTINUOUS
10
-4.36649
20
5.62855
11
-4.36693
21
5.62966
0
LINE
8
BLACK
6
CONTINUOUS
10
-4.36693
20
5.62966
11
-4.36751
21
5.6311
0
LINE
8
BLACK
6
CONTINUOUS
10
-4.36751
20
5.6311
11
-4.36822
21
5.63282
0
LINE
8
BLACK
6
CONTINUOUS
10
-4.36822
20
5.63282
11
-4.36902
21
5.63477
0
LINE
8
BLACK
6
CONTINUOUS
10
-4.36902
20
5.63477
11
-4.36991
21
5.63689
0
LINE
8
BLACK
6
CONTINUOUS
10
-4.36991
20
5.63689
11
-4.37066
21
5.63869
0
LINE
8
BLACK
6
CONTINUOUS
10
-4.37066
20
5.63869
11
-4.3716
21
5.64093
0
LINE
8
BLACK
6
CONTINUOUS
10
-4.3716
20
5.64093
11
-4.37249
21
5.64303
0
LINE
8
BLACK
6
CONTINUOUS
10
-4.37249
20
5.64303
11
-4.37328
21
5.64494
0
LINE
8
BLACK
6
CONTINUOUS
10
-4.37328
20
5.64494
11
-4.37398
21
5.64662
0
LINE
8
BLACK
6
CONTINUOUS
10
-4.37398
20
5.64662
11
-4.37456
21
5.64801
0
LINE
8
BLACK
6
CONTINUOUS
10
-4.37456
20
5.64801
11
-4.37499
21
5.64906
0
LINE
8
BLACK
6
CONTINUOUS
10
-4.37499
20
5.64906
11
-4.37526
21
5.64973
0
LINE
8
BLACK
6
CONTINUOUS
10
-4.37526
20
5.64973
11
-4.37534
21
5.64995
0
LINE
8
BLACK
6
CONTINUOUS
10
-4.37534
20
5.64995
11
-4.37536
21
5.65013
0
LINE
8
BLACK
6
CONTINUOUS
10
-4.37536
20
5.65013
11
-4.37525
21
5.65025
0
LINE
8
BLACK
6
CONTINUOUS
10
-4.37525
20
5.65025
11
-4.37493
21
5.65032
0
LINE
8
BLACK
6
CONTINUOUS
10
-4.37493
20
5.65032
11
-4.37433
21
5.65036
0
LINE
8
BLACK
6
CONTINUOUS
10
-4.37433
20
5.65036
11
-4.37339
21
5.65037
0
LINE
8
BLACK
6
CONTINUOUS
10
-4.37339
20
5.65037
11
-4.37203
21
5.65035
0
LINE
8
BLACK
6
CONTINUOUS
10
-4.37203
20
5.65035
11
-4.37153
21
5.65034
0
LINE
8
BLACK
6
CONTINUOUS
10
-4.37153
20
5.65034
11
-4.36759
21
5.65027
0
LINE
8
BLACK
6
CONTINUOUS
10
-4.36759
20
5.65027
11
-4.36437
21
5.64233
0
LINE
8
BLACK
6
CONTINUOUS
10
-4.36437
20
5.64233
11
-4.36359
21
5.64043
0
LINE
8
BLACK
6
CONTINUOUS
10
-4.36359
20
5.64043
11
-4.36287
21
5.6387
0
LINE
8
BLACK
6
CONTINUOUS
10
-4.36287
20
5.6387
11
-4.36224
21
5.63718
0
LINE
8
BLACK
6
CONTINUOUS
10
-4.36224
20
5.63718
11
-4.3617
21
5.63594
0
LINE
8
BLACK
6
CONTINUOUS
10
-4.3617
20
5.63594
11
-4.3613
21
5.63503
0
LINE
8
BLACK
6
CONTINUOUS
10
-4.3613
20
5.63503
11
-4.36104
21
5.6345
0
LINE
8
BLACK
6
CONTINUOUS
10
-4.36104
20
5.6345
11
-4.36097
21
5.63439
0
LINE
8
BLACK
6
CONTINUOUS
10
-4.36097
20
5.63439
11
-4.36078
21
5.63459
0
LINE
8
BLACK
6
CONTINUOUS
10
-4.36078
20
5.63459
11
-4.36032
21
5.63516
0
LINE
8
BLACK
6
CONTINUOUS
10
-4.36032
20
5.63516
11
-4.35963
21
5.63606
0
LINE
8
BLACK
6
CONTINUOUS
10
-4.35963
20
5.63606
11
-4.35873
21
5.63724
0
LINE
8
BLACK
6
CONTINUOUS
10
-4.35873
20
5.63724
11
-4.35766
21
5.63865
0
LINE
8
BLACK
6
CONTINUOUS
10
-4.35766
20
5.63865
11
-4.35645
21
5.64026
0
LINE
8
BLACK
6
CONTINUOUS
10
-4.35645
20
5.64026
11
-4.35515
21
5.64201
0
LINE
8
BLACK
6
CONTINUOUS
10
-4.35515
20
5.64201
11
-4.35487
21
5.64238
0
LINE
8
BLACK
6
CONTINUOUS
10
-4.35487
20
5.64238
11
-4.34894
21
5.65038
0
LINE
8
BLACK
6
CONTINUOUS
10
-4.34894
20
5.65038
11
-4.34499
21
5.65039
0
LINE
8
BLACK
6
CONTINUOUS
10
-4.34499
20
5.65039
11
-4.3434
21
5.65038
0
LINE
8
BLACK
6
CONTINUOUS
10
-4.28707
20
5.65565
11
-4.28554
21
5.653
0
LINE
8
BLACK
6
CONTINUOUS
10
-4.28554
20
5.653
11
-4.28554
21
5.64995
0
LINE
8
BLACK
6
CONTINUOUS
10
-4.28554
20
5.64995
11
-4.28707
21
5.6473
0
LINE
8
BLACK
6
CONTINUOUS
10
-4.28707
20
5.6473
11
-4.28852
21
5.64585
0
LINE
8
BLACK
6
CONTINUOUS
10
-4.28852
20
5.64585
11
-4.29021
21
5.64077
0
LINE
8
BLACK
6
CONTINUOUS
10
-4.29021
20
5.64077
11
-4.29021
21
5.63781
0
LINE
8
BLACK
6
CONTINUOUS
10
-4.29021
20
5.63781
11
-4.28852
21
5.63273
0
LINE
8
BLACK
6
CONTINUOUS
10
-4.28852
20
5.63273
11
-4.28531
21
5.62952
0
LINE
8
BLACK
6
CONTINUOUS
10
-4.28531
20
5.62952
11
-4.28187
21
5.6278
0
LINE
8
BLACK
6
CONTINUOUS
10
-4.28187
20
5.6278
11
-4.27346
21
5.6257
0
LINE
8
BLACK
6
CONTINUOUS
10
-4.27346
20
5.6257
11
-4.2676
21
5.6257
0
LINE
8
BLACK
6
CONTINUOUS
10
-4.2676
20
5.6257
11
-4.25918
21
5.6278
0
LINE
8
BLACK
6
CONTINUOUS
10
-4.25918
20
5.6278
11
-4.25575
21
5.62952
0
LINE
8
BLACK
6
CONTINUOUS
10
-4.25575
20
5.62952
11
-4.25254
21
5.63273
0
LINE
8
BLACK
6
CONTINUOUS
10
-4.25254
20
5.63273
11
-4.25084
21
5.63781
0
LINE
8
BLACK
6
CONTINUOUS
10
-4.25084
20
5.63781
11
-4.25084
21
5.64077
0
LINE
8
BLACK
6
CONTINUOUS
10
-4.25084
20
5.64077
11
-4.25254
21
5.64585
0
LINE
8
BLACK
6
CONTINUOUS
10
-4.25254
20
5.64585
11
-4.25399
21
5.6473
0
LINE
8
BLACK
6
CONTINUOUS
10
-4.25399
20
5.6473
11
-4.25552
21
5.64995
0
LINE
8
BLACK
6
CONTINUOUS
10
-4.25552
20
5.64995
11
-4.25552
21
5.653
0
LINE
8
BLACK
6
CONTINUOUS
10
-4.25552
20
5.653
11
-4.25399
21
5.65565
0
LINE
8
BLACK
6
CONTINUOUS
10
-4.25399
20
5.65565
11
-4.25134
21
5.65718
0
LINE
8
BLACK
6
CONTINUOUS
10
-4.25134
20
5.65718
11
-4.24828
21
5.65718
0
LINE
8
BLACK
6
CONTINUOUS
10
-4.24828
20
5.65718
11
-4.24564
21
5.65565
0
LINE
8
BLACK
6
CONTINUOUS
10
-4.24564
20
5.65565
11
-4.2432
21
5.65321
0
LINE
8
BLACK
6
CONTINUOUS
10
-4.2432
20
5.65321
11
-4.24252
21
5.65204
0
LINE
8
BLACK
6
CONTINUOUS
10
-4.24252
20
5.65204
11
-4.24177
21
5.6509
0
LINE
8
BLACK
6
CONTINUOUS
10
-4.24177
20
5.6509
11
-4.23933
21
5.64359
0
LINE
8
BLACK
6
CONTINUOUS
10
-4.23933
20
5.64359
11
-4.23928
21
5.64264
0
LINE
8
BLACK
6
CONTINUOUS
10
-4.23928
20
5.64264
11
-4.23903
21
5.64173
0
LINE
8
BLACK
6
CONTINUOUS
10
-4.23903
20
5.64173
11
-4.23903
21
5.63685
0
LINE
8
BLACK
6
CONTINUOUS
10
-4.23903
20
5.63685
11
-4.23928
21
5.63593
0
LINE
8
BLACK
6
CONTINUOUS
10
-4.23928
20
5.63593
11
-4.23933
21
5.63498
0
LINE
8
BLACK
6
CONTINUOUS
10
-4.23933
20
5.63498
11
-4.24177
21
5.62767
0
LINE
8
BLACK
6
CONTINUOUS
10
-4.24177
20
5.62767
11
-4.24252
21
5.62654
0
LINE
8
BLACK
6
CONTINUOUS
10
-4.24252
20
5.62654
11
-4.2432
21
5.62536
0
LINE
8
BLACK
6
CONTINUOUS
10
-4.2432
20
5.62536
11
-4.24807
21
5.62049
0
LINE
8
BLACK
6
CONTINUOUS
10
-4.24807
20
5.62049
11
-4.2489
21
5.62001
0
LINE
8
BLACK
6
CONTINUOUS
10
-4.2489
20
5.62001
11
-4.24961
21
5.61938
0
LINE
8
BLACK
6
CONTINUOUS
10
-4.24961
20
5.61938
11
-4.25448
21
5.61695
0
LINE
8
BLACK
6
CONTINUOUS
10
-4.25448
20
5.61695
11
-4.25512
21
5.61682
0
LINE
8
BLACK
6
CONTINUOUS
10
-4.25512
20
5.61682
11
-4.25569
21
5.6165
0
LINE
8
BLACK
6
CONTINUOUS
10
-4.25569
20
5.6165
11
-4.26544
21
5.61406
0
LINE
8
BLACK
6
CONTINUOUS
10
-4.26544
20
5.61406
11
-4.26617
21
5.61407
0
LINE
8
BLACK
6
CONTINUOUS
10
-4.26617
20
5.61407
11
-4.26687
21
5.61389
0
LINE
8
BLACK
6
CONTINUOUS
10
-4.26687
20
5.61389
11
-4.27418
21
5.61389
0
LINE
8
BLACK
6
CONTINUOUS
10
-4.27418
20
5.61389
11
-4.27489
21
5.61407
0
LINE
8
BLACK
6
CONTINUOUS
10
-4.27489
20
5.61407
11
-4.27562
21
5.61406
0
LINE
8
BLACK
6
CONTINUOUS
10
-4.27562
20
5.61406
11
-4.28536
21
5.6165
0
LINE
8
BLACK
6
CONTINUOUS
10
-4.28536
20
5.6165
11
-4.28593
21
5.61682
0
LINE
8
BLACK
6
CONTINUOUS
10
-4.28593
20
5.61682
11
-4.28657
21
5.61695
0
LINE
8
BLACK
6
CONTINUOUS
10
-4.28657
20
5.61695
11
-4.29145
21
5.61938
0
LINE
8
BLACK
6
CONTINUOUS
10
-4.29145
20
5.61938
11
-4.29216
21
5.62001
0
LINE
8
BLACK
6
CONTINUOUS
10
-4.29216
20
5.62001
11
-4.29298
21
5.62049
0
LINE
8
BLACK
6
CONTINUOUS
10
-4.29298
20
5.62049
11
-4.29786
21
5.62536
0
LINE
8
BLACK
6
CONTINUOUS
10
-4.29786
20
5.62536
11
-4.29854
21
5.62654
0
LINE
8
BLACK
6
CONTINUOUS
10
-4.29854
20
5.62654
11
-4.29928
21
5.62767
0
LINE
8
BLACK
6
CONTINUOUS
10
-4.29928
20
5.62767
11
-4.30172
21
5.63498
0
LINE
8
BLACK
6
CONTINUOUS
10
-4.30172
20
5.63498
11
-4.30178
21
5.63593
0
LINE
8
BLACK
6
CONTINUOUS
10
-4.30178
20
5.63593
11
-4.30202
21
5.63685
0
LINE
8
BLACK
6
CONTINUOUS
10
-4.30202
20
5.63685
11
-4.30202
21
5.64173
0
LINE
8
BLACK
6
CONTINUOUS
10
-4.30202
20
5.64173
11
-4.30178
21
5.64264
0
LINE
8
BLACK
6
CONTINUOUS
10
-4.30178
20
5.64264
11
-4.30172
21
5.64359
0
LINE
8
BLACK
6
CONTINUOUS
10
-4.30172
20
5.64359
11
-4.29928
21
5.6509
0
LINE
8
BLACK
6
CONTINUOUS
10
-4.29928
20
5.6509
11
-4.29854
21
5.65204
0
LINE
8
BLACK
6
CONTINUOUS
10
-4.29854
20
5.65204
11
-4.29786
21
5.65321
0
LINE
8
BLACK
6
CONTINUOUS
10
-4.29786
20
5.65321
11
-4.29542
21
5.65565
0
LINE
8
BLACK
6
CONTINUOUS
10
-4.29542
20
5.65565
11
-4.29277
21
5.65718
0
LINE
8
BLACK
6
CONTINUOUS
10
-4.29277
20
5.65718
11
-4.28972
21
5.65718
0
LINE
8
BLACK
6
CONTINUOUS
10
-4.28972
20
5.65718
11
-4.28707
21
5.65565
0
LINE
8
BLACK
6
CONTINUOUS
10
-4.87247
20
5.67468
11
-4.87241
21
5.67468
0
LINE
8
BLACK
6
CONTINUOUS
10
-4.87241
20
5.67468
11
-4.86678
21
5.6728
0
LINE
8
BLACK
6
CONTINUOUS
10
-4.86678
20
5.6728
11
-4.86588
21
5.67231
0
LINE
8
BLACK
6
CONTINUOUS
10
-4.86588
20
5.67231
11
-4.86579
21
5.67216
0
LINE
8
BLACK
6
CONTINUOUS
10
-4.86579
20
5.67216
11
-4.86563
21
5.67209
0
LINE
8
BLACK
6
CONTINUOUS
10
-4.86563
20
5.67209
11
-4.86188
21
5.66834
0
LINE
8
BLACK
6
CONTINUOUS
10
-4.86188
20
5.66834
11
-4.86129
21
5.6675
0
LINE
8
BLACK
6
CONTINUOUS
10
-4.86129
20
5.6675
11
-4.86128
21
5.66732
0
LINE
8
BLACK
6
CONTINUOUS
10
-4.86128
20
5.66732
11
-4.86117
21
5.66719
0
LINE
8
BLACK
6
CONTINUOUS
10
-4.86117
20
5.66719
11
-4.85929
21
5.66156
0
LINE
8
BLACK
6
CONTINUOUS
10
-4.85929
20
5.66156
11
-4.85916
21
5.66069
0
LINE
8
BLACK
6
CONTINUOUS
10
-4.85916
20
5.66069
11
-4.85914
21
5.66063
0
LINE
8
BLACK
6
CONTINUOUS
10
-4.85914
20
5.66063
11
-4.85914
21
5.65688
0
LINE
8
BLACK
6
CONTINUOUS
10
-4.85914
20
5.65688
11
-4.85932
21
5.65587
0
LINE
8
BLACK
6
CONTINUOUS
10
-4.85932
20
5.65587
11
-4.86062
21
5.65432
0
LINE
8
BLACK
6
CONTINUOUS
10
-4.86062
20
5.65432
11
-4.86261
21
5.65397
0
LINE
8
BLACK
6
CONTINUOUS
10
-4.86261
20
5.65397
11
-4.86436
21
5.65498
0
LINE
8
BLACK
6
CONTINUOUS
10
-4.86436
20
5.65498
11
-4.86505
21
5.65688
0
LINE
8
BLACK
6
CONTINUOUS
10
-4.86505
20
5.65688
11
-4.86505
21
5.66015
0
LINE
8
BLACK
6
CONTINUOUS
10
-4.86505
20
5.66015
11
-4.86655
21
5.66466
0
LINE
8
BLACK
6
CONTINUOUS
10
-4.86655
20
5.66466
11
-4.86931
21
5.66742
0
LINE
8
BLACK
6
CONTINUOUS
10
-4.86931
20
5.66742
11
-4.87382
21
5.66892
0
LINE
8
BLACK
6
CONTINUOUS
10
-4.87382
20
5.66892
11
-4.90146
21
5.66892
0
LINE
8
BLACK
6
CONTINUOUS
10
-4.90146
20
5.66892
11
-4.90247
21
5.6691
0
LINE
8
BLACK
6
CONTINUOUS
10
-4.90247
20
5.6691
11
-4.90402
21
5.6704
0
LINE
8
BLACK
6
CONTINUOUS
10
-4.90402
20
5.6704
11
-4.90437
21
5.67239
0
LINE
8
BLACK
6
CONTINUOUS
10
-4.90437
20
5.67239
11
-4.90336
21
5.67414
0
LINE
8
BLACK
6
CONTINUOUS
10
-4.90336
20
5.67414
11
-4.90146
21
5.67483
0
LINE
8
BLACK
6
CONTINUOUS
10
-4.90146
20
5.67483
11
-4.87334
21
5.67483
0
LINE
8
BLACK
6
CONTINUOUS
10
-4.87334
20
5.67483
11
-4.87247
21
5.67468
0
LINE
8
BLACK
6
CONTINUOUS
10
-4.40471
20
5.70068
11
-4.40478
21
5.70034
0
LINE
8
BLACK
6
CONTINUOUS
10
-4.40478
20
5.70034
11
-4.40492
21
5.69953
0
LINE
8
BLACK
6
CONTINUOUS
10
-4.40492
20
5.69953
11
-4.40514
21
5.69829
0
LINE
8
BLACK
6
CONTINUOUS
10
-4.40514
20
5.69829
11
-4.40543
21
5.69667
0
LINE
8
BLACK
6
CONTINUOUS
10
-4.40543
20
5.69667
11
-4.40578
21
5.6947
0
LINE
8
BLACK
6
CONTINUOUS
10
-4.40578
20
5.6947
11
-4.40618
21
5.69242
0
LINE
8
BLACK
6
CONTINUOUS
10
-4.40618
20
5.69242
11
-4.40663
21
5.68988
0
LINE
8
BLACK
6
CONTINUOUS
10
-4.40663
20
5.68988
11
-4.40711
21
5.68712
0
LINE
8
BLACK
6
CONTINUOUS
10
-4.40711
20
5.68712
11
-4.40763
21
5.68417
0
LINE
8
BLACK
6
CONTINUOUS
10
-4.40763
20
5.68417
11
-4.40817
21
5.68109
0
LINE
8
BLACK
6
CONTINUOUS
10
-4.40817
20
5.68109
11
-4.40821
21
5.68086
0
LINE
8
BLACK
6
CONTINUOUS
10
-4.40821
20
5.68086
11
-4.40875
21
5.67777
0
LINE
8
BLACK
6
CONTINUOUS
10
-4.40875
20
5.67777
11
-4.40927
21
5.6748
0
LINE
8
BLACK
6
CONTINUOUS
10
-4.40927
20
5.6748
11
-4.40976
21
5.67202
0
LINE
8
BLACK
6
CONTINUOUS
10
-4.40976
20
5.67202
11
-4.41021
21
5.66945
0
LINE
8
BLACK
6
CONTINUOUS
10
-4.41021
20
5.66945
11
-4.41061
21
5.66714
0
LINE
8
BLACK
6
CONTINUOUS
10
-4.41061
20
5.66714
11
-4.41096
21
5.66513
0
LINE
8
BLACK
6
CONTINUOUS
10
-4.41096
20
5.66513
11
-4.41126
21
5.66346
0
LINE
8
BLACK
6
CONTINUOUS
10
-4.41126
20
5.66346
11
-4.41149
21
5.66218
0
LINE
8
BLACK
6
CONTINUOUS
10
-4.41149
20
5.66218
11
-4.41164
21
5.66132
0
LINE
8
BLACK
6
CONTINUOUS
10
-4.41164
20
5.66132
11
-4.41171
21
5.66093
0
LINE
8
BLACK
6
CONTINUOUS
10
-4.41171
20
5.66093
11
-4.41171
21
5.66092
0
LINE
8
BLACK
6
CONTINUOUS
10
-4.41171
20
5.66092
11
-4.41186
21
5.66021
0
LINE
8
BLACK
6
CONTINUOUS
10
-4.41186
20
5.66021
11
-4.41936
21
5.66021
0
LINE
8
BLACK
6
CONTINUOUS
10
-4.41936
20
5.66021
11
-4.41922
21
5.66079
0
LINE
8
BLACK
6
CONTINUOUS
10
-4.41922
20
5.66079
11
-4.41915
21
5.66113
0
LINE
8
BLACK
6
CONTINUOUS
10
-4.41915
20
5.66113
11
-4.419
21
5.66195
0
LINE
8
BLACK
6
CONTINUOUS
10
-4.419
20
5.66195
11
-4.41878
21
5.66318
0
LINE
8
BLACK
6
CONTINUOUS
10
-4.41878
20
5.66318
11
-4.41849
21
5.6648
0
LINE
8
BLACK
6
CONTINUOUS
10
-4.41849
20
5.6648
11
-4.41815
21
5.66677
0
LINE
8
BLACK
6
CONTINUOUS
10
-4.41815
20
5.66677
11
-4.41775
21
5.66903
0
LINE
8
BLACK
6
CONTINUOUS
10
-4.41775
20
5.66903
11
-4.4173
21
5.67156
0
LINE
8
BLACK
6
CONTINUOUS
10
-4.4173
20
5.67156
11
-4.41682
21
5.6743
0
LINE
8
BLACK
6
CONTINUOUS
10
-4.41682
20
5.6743
11
-4.41631
21
5.67722
0
LINE
8
BLACK
6
CONTINUOUS
10
-4.41631
20
5.67722
11
-4.41583
21
5.67996
0
LINE
8
BLACK
6
CONTINUOUS
10
-4.41583
20
5.67996
11
-4.41529
21
5.68303
0
LINE
8
BLACK
6
CONTINUOUS
10
-4.41529
20
5.68303
11
-4.41478
21
5.68598
0
LINE
8
BLACK
6
CONTINUOUS
10
-4.41478
20
5.68598
11
-4.41429
21
5.68876
0
LINE
8
BLACK
6
CONTINUOUS
10
-4.41429
20
5.68876
11
-4.41384
21
5.69133
0
LINE
8
BLACK
6
CONTINUOUS
10
-4.41384
20
5.69133
11
-4.41343
21
5.69365
0
LINE
8
BLACK
6
CONTINUOUS
10
-4.41343
20
5.69365
11
-4.41307
21
5.69568
0
LINE
8
BLACK
6
CONTINUOUS
10
-4.41307
20
5.69568
11
-4.41277
21
5.69736
0
LINE
8
BLACK
6
CONTINUOUS
10
-4.41277
20
5.69736
11
-4.41254
21
5.69866
0
LINE
8
BLACK
6
CONTINUOUS
10
-4.41254
20
5.69866
11
-4.41238
21
5.69953
0
LINE
8
BLACK
6
CONTINUOUS
10
-4.41238
20
5.69953
11
-4.41231
21
5.69991
0
LINE
8
BLACK
6
CONTINUOUS
10
-4.41231
20
5.69991
11
-4.41204
21
5.70126
0
LINE
8
BLACK
6
CONTINUOUS
10
-4.41204
20
5.70126
11
-4.40458
21
5.70126
0
LINE
8
BLACK
6
CONTINUOUS
10
-4.40458
20
5.70126
11
-4.40471
21
5.70068
0
LINE
8
BLACK
6
CONTINUOUS
10
-4.34811
20
5.70126
11
-4.347
21
5.70124
0
LINE
8
BLACK
6
CONTINUOUS
10
-4.347
20
5.70124
11
-4.34619
21
5.70121
0
LINE
8
BLACK
6
CONTINUOUS
10
-4.34619
20
5.70121
11
-4.34576
21
5.70117
0
LINE
8
BLACK
6
CONTINUOUS
10
-4.34576
20
5.70117
11
-4.34572
21
5.70116
0
LINE
8
BLACK
6
CONTINUOUS
10
-4.34572
20
5.70116
11
-4.34576
21
5.70088
0
LINE
8
BLACK
6
CONTINUOUS
10
-4.34576
20
5.70088
11
-4.34589
21
5.70014
0
LINE
8
BLACK
6
CONTINUOUS
10
-4.34589
20
5.70014
11
-4.34608
21
5.69899
0
LINE
8
BLACK
6
CONTINUOUS
10
-4.34608
20
5.69899
11
-4.34635
21
5.69747
0
LINE
8
BLACK
6
CONTINUOUS
10
-4.34635
20
5.69747
11
-4.34667
21
5.69564
0
LINE
8
BLACK
6
CONTINUOUS
10
-4.34667
20
5.69564
11
-4.34704
21
5.69352
0
LINE
8
BLACK
6
CONTINUOUS
10
-4.34704
20
5.69352
11
-4.34745
21
5.69118
0
LINE
8
BLACK
6
CONTINUOUS
10
-4.34745
20
5.69118
11
-4.34789
21
5.68866
0
LINE
8
BLACK
6
CONTINUOUS
10
-4.34789
20
5.68866
11
-4.34835
21
5.68601
0
LINE
8
BLACK
6
CONTINUOUS
10
-4.34835
20
5.68601
11
-4.34884
21
5.68327
0
LINE
8
BLACK
6
CONTINUOUS
10
-4.34884
20
5.68327
11
-4.34932
21
5.6805
0
LINE
8
BLACK
6
CONTINUOUS
10
-4.34932
20
5.6805
11
-4.34981
21
5.67773
0
LINE
8
BLACK
6
CONTINUOUS
10
-4.34981
20
5.67773
11
-4.35029
21
5.67501
0
LINE
8
BLACK
6
CONTINUOUS
10
-4.35029
20
5.67501
11
-4.35075
21
5.6724
0
LINE
8
BLACK
6
CONTINUOUS
10
-4.35075
20
5.6724
11
-4.35119
21
5.66994
0
LINE
8
BLACK
6
CONTINUOUS
10
-4.35119
20
5.66994
11
-4.35159
21
5.66767
0
LINE
8
BLACK
6
CONTINUOUS
10
-4.35159
20
5.66767
11
-4.35195
21
5.66564
0
LINE
8
BLACK
6
CONTINUOUS
10
-4.35195
20
5.66564
11
-4.35225
21
5.66391
0
LINE
8
BLACK
6
CONTINUOUS
10
-4.35225
20
5.66391
11
-4.3525
21
5.66251
0
LINE
8
BLACK
6
CONTINUOUS
10
-4.3525
20
5.66251
11
-4.35269
21
5.6615
0
LINE
8
BLACK
6
CONTINUOUS
10
-4.35269
20
5.6615
11
-4.35279
21
5.66091
0
LINE
8
BLACK
6
CONTINUOUS
10
-4.35279
20
5.66091
11
-4.35282
21
5.66079
0
LINE
8
BLACK
6
CONTINUOUS
10
-4.35282
20
5.66079
11
-4.35289
21
5.66056
0
LINE
8
BLACK
6
CONTINUOUS
10
-4.35289
20
5.66056
11
-4.35304
21
5.6604
0
LINE
8
BLACK
6
CONTINUOUS
10
-4.35304
20
5.6604
11
-4.35334
21
5.6603
0
LINE
8
BLACK
6
CONTINUOUS
10
-4.35334
20
5.6603
11
-4.35387
21
5.66024
0
LINE
8
BLACK
6
CONTINUOUS
10
-4.35387
20
5.66024
11
-4.35473
21
5.66022
0
LINE
8
BLACK
6
CONTINUOUS
10
-4.35473
20
5.66022
11
-4.35598
21
5.66021
0
LINE
8
BLACK
6
CONTINUOUS
10
-4.35598
20
5.66021
11
-4.35667
21
5.66021
0
LINE
8
BLACK
6
CONTINUOUS
10
-4.35667
20
5.66021
11
-4.35813
21
5.66021
0
LINE
8
BLACK
6
CONTINUOUS
10
-4.35813
20
5.66021
11
-4.35914
21
5.66023
0
LINE
8
BLACK
6
CONTINUOUS
10
-4.35914
20
5.66023
11
-4.35979
21
5.66028
0
LINE
8
BLACK
6
CONTINUOUS
10
-4.35979
20
5.66028
11
-4.36014
21
5.66036
0
LINE
8
BLACK
6
CONTINUOUS
10
-4.36014
20
5.66036
11
-4.36028
21
5.66048
0
LINE
8
BLACK
6
CONTINUOUS
10
-4.36028
20
5.66048
11
-4.36028
21
5.66066
0
LINE
8
BLACK
6
CONTINUOUS
10
-4.36028
20
5.66066
11
-4.36028
21
5.66066
0
LINE
8
BLACK
6
CONTINUOUS
10
-4.36028
20
5.66066
11
-4.36022
21
5.66098
0
LINE
8
BLACK
6
CONTINUOUS
10
-4.36022
20
5.66098
11
-4.36008
21
5.66177
0
LINE
8
BLACK
6
CONTINUOUS
10
-4.36008
20
5.66177
11
-4.35986
21
5.66299
0
LINE
8
BLACK
6
CONTINUOUS
10
-4.35986
20
5.66299
11
-4.35958
21
5.6646
0
LINE
8
BLACK
6
CONTINUOUS
10
-4.35958
20
5.6646
11
-4.35923
21
5.66655
0
LINE
8
BLACK
6
CONTINUOUS
10
-4.35923
20
5.66655
11
-4.35883
21
5.66881
0
LINE
8
BLACK
6
CONTINUOUS
10
-4.35883
20
5.66881
11
-4.35839
21
5.67133
0
LINE
8
BLACK
6
CONTINUOUS
10
-4.35839
20
5.67133
11
-4.35791
21
5.67408
0
LINE
8
BLACK
6
CONTINUOUS
10
-4.35791
20
5.67408
11
-4.35739
21
5.67702
0
LINE
8
BLACK
6
CONTINUOUS
10
-4.35739
20
5.67702
11
-4.35685
21
5.6801
0
LINE
8
BLACK
6
CONTINUOUS
10
-4.35685
20
5.6801
11
-4.35681
21
5.68035
0
LINE
8
BLACK
6
CONTINUOUS
10
-4.35681
20
5.68035
11
-4.35627
21
5.68345
0
LINE
8
BLACK
6
CONTINUOUS
10
-4.35627
20
5.68345
11
-4.35575
21
5.68642
0
LINE
8
BLACK
6
CONTINUOUS
10
-4.35575
20
5.68642
11
-4.35526
21
5.68922
0
LINE
8
BLACK
6
CONTINUOUS
10
-4.35526
20
5.68922
11
-4.35481
21
5.6918
0
LINE
8
BLACK
6
CONTINUOUS
10
-4.35481
20
5.6918
11
-4.3544
21
5.69412
0
LINE
8
BLACK
6
CONTINUOUS
10
-4.3544
20
5.69412
11
-4.35405
21
5.69614
0
LINE
8
BLACK
6
CONTINUOUS
10
-4.35405
20
5.69614
11
-4.35375
21
5.69783
0
LINE
8
BLACK
6
CONTINUOUS
10
-4.35375
20
5.69783
11
-4.35353
21
5.69913
0
LINE
8
BLACK
6
CONTINUOUS
10
-4.35353
20
5.69913
11
-4.35337
21
5.7
0
LINE
8
BLACK
6
CONTINUOUS
10
-4.35337
20
5.7
11
-4.3533
21
5.70042
0
LINE
8
BLACK
6
CONTINUOUS
10
-4.3533
20
5.70042
11
-4.3533
21
5.70042
0
LINE
8
BLACK
6
CONTINUOUS
10
-4.3533
20
5.70042
11
-4.35315
21
5.70126
0
LINE
8
BLACK
6
CONTINUOUS
10
-4.35315
20
5.70126
11
-4.34943
21
5.70126
0
LINE
8
BLACK
6
CONTINUOUS
10
-4.34943
20
5.70126
11
-4.34811
21
5.70126
0
LINE
8
BLACK
6
CONTINUOUS
10
-4.37546
20
5.70055
11
-4.37552
21
5.70019
0
LINE
8
BLACK
6
CONTINUOUS
10
-4.37552
20
5.70019
11
-4.37566
21
5.69936
0
LINE
8
BLACK
6
CONTINUOUS
10
-4.37566
20
5.69936
11
-4.37588
21
5.6981
0
LINE
8
BLACK
6
CONTINUOUS
10
-4.37588
20
5.6981
11
-4.37616
21
5.69646
0
LINE
8
BLACK
6
CONTINUOUS
10
-4.37616
20
5.69646
11
-4.37651
21
5.69446
0
LINE
8
BLACK
6
CONTINUOUS
10
-4.37651
20
5.69446
11
-4.37691
21
5.69216
0
LINE
8
BLACK
6
CONTINUOUS
10
-4.37691
20
5.69216
11
-4.37736
21
5.6896
0
LINE
8
BLACK
6
CONTINUOUS
10
-4.37736
20
5.6896
11
-4.37785
21
5.68681
0
LINE
8
BLACK
6
CONTINUOUS
10
-4.37785
20
5.68681
11
-4.37837
21
5.68383
0
LINE
8
BLACK
6
CONTINUOUS
10
-4.37837
20
5.68383
11
-4.37892
21
5.68071
0
LINE
8
BLACK
6
CONTINUOUS
10
-4.37892
20
5.68071
11
-4.37904
21
5.68003
0
LINE
8
BLACK
6
CONTINUOUS
10
-4.37904
20
5.68003
11
-4.38251
21
5.66021
0
LINE
8
BLACK
6
CONTINUOUS
10
-4.38251
20
5.66021
11
-4.38619
21
5.66021
0
LINE
8
BLACK
6
CONTINUOUS
10
-4.38619
20
5.66021
11
-4.3877
21
5.66022
0
LINE
8
BLACK
6
CONTINUOUS
10
-4.3877
20
5.66022
11
-4.38876
21
5.66025
0
LINE
8
BLACK
6
CONTINUOUS
10
-4.38876
20
5.66025
11
-4.38943
21
5.66032
0
LINE
8
BLACK
6
CONTINUOUS
10
-4.38943
20
5.66032
11
-4.38978
21
5.66042
0
LINE
8
BLACK
6
CONTINUOUS
10
-4.38978
20
5.66042
11
-4.38987
21
5.66055
0
LINE
8
BLACK
6
CONTINUOUS
10
-4.38987
20
5.66055
11
-4.38982
21
5.66086
0
LINE
8
BLACK
6
CONTINUOUS
10
-4.38982
20
5.66086
11
-4.3897
21
5.66163
0
LINE
8
BLACK
6
CONTINUOUS
10
-4.3897
20
5.66163
11
-4.3895
21
5.66281
0
LINE
8
BLACK
6
CONTINUOUS
10
-4.3895
20
5.66281
11
-4.38923
21
5.66437
0
LINE
8
BLACK
6
CONTINUOUS
10
-4.38923
20
5.66437
11
-4.38891
21
5.66623
0
LINE
8
BLACK
6
CONTINUOUS
10
-4.38891
20
5.66623
11
-4.38854
21
5.66837
0
LINE
8
BLACK
6
CONTINUOUS
10
-4.38854
20
5.66837
11
-4.38813
21
5.67074
0
LINE
8
BLACK
6
CONTINUOUS
10
-4.38813
20
5.67074
11
-4.38769
21
5.67328
0
LINE
8
BLACK
6
CONTINUOUS
10
-4.38769
20
5.67328
11
-4.38722
21
5.67595
0
LINE
8
BLACK
6
CONTINUOUS
10
-4.38722
20
5.67595
11
-4.38674
21
5.6787
0
LINE
8
BLACK
6
CONTINUOUS
10
-4.38674
20
5.6787
11
-4.38625
21
5.68149
0
LINE
8
BLACK
6
CONTINUOUS
10
-4.38625
20
5.68149
11
-4.38576
21
5.68427
0
LINE
8
BLACK
6
CONTINUOUS
10
-4.38576
20
5.68427
11
-4.38528
21
5.68698
0
LINE
8
BLACK
6
CONTINUOUS
10
-4.38528
20
5.68698
11
-4.38482
21
5.68959
0
LINE
8
BLACK
6
CONTINUOUS
10
-4.38482
20
5.68959
11
-4.38439
21
5.69204
0
LINE
8
BLACK
6
CONTINUOUS
10
-4.38439
20
5.69204
11
-4.38399
21
5.69429
0
LINE
8
BLACK
6
CONTINUOUS
10
-4.38399
20
5.69429
11
-4.38363
21
5.69629
0
LINE
8
BLACK
6
CONTINUOUS
10
-4.38363
20
5.69629
11
-4.38332
21
5.698
0
LINE
8
BLACK
6
CONTINUOUS
10
-4.38332
20
5.698
11
-4.38308
21
5.69936
0
LINE
8
BLACK
6
CONTINUOUS
10
-4.38308
20
5.69936
11
-4.3829
21
5.70033
0
LINE
8
BLACK
6
CONTINUOUS
10
-4.3829
20
5.70033
11
-4.38279
21
5.70086
0
LINE
8
BLACK
6
CONTINUOUS
10
-4.38279
20
5.70086
11
-4.38277
21
5.70094
0
LINE
8
BLACK
6
CONTINUOUS
10
-4.38277
20
5.70094
11
-4.38257
21
5.70108
0
LINE
8
BLACK
6
CONTINUOUS
10
-4.38257
20
5.70108
11
-4.38203
21
5.70117
0
LINE
8
BLACK
6
CONTINUOUS
10
-4.38203
20
5.70117
11
-4.38111
21
5.70123
0
LINE
8
BLACK
6
CONTINUOUS
10
-4.38111
20
5.70123
11
-4.37974
21
5.70126
0
LINE
8
BLACK
6
CONTINUOUS
10
-4.37974
20
5.70126
11
-4.379
21
5.70126
0
LINE
8
BLACK
6
CONTINUOUS
10
-4.379
20
5.70126
11
-4.37535
21
5.70126
0
LINE
8
BLACK
6
CONTINUOUS
10
-4.37535
20
5.70126
11
-4.37546
21
5.70055
0
LINE
8
BLACK
6
CONTINUOUS
10
-4.24198
20
5.7029
11
-4.23982
21
5.70073
0
LINE
8
BLACK
6
CONTINUOUS
10
-4.23982
20
5.70073
11
-4.23903
21
5.69778
0
LINE
8
BLACK
6
CONTINUOUS
10
-4.23903
20
5.69778
11
-4.23903
21
5.67341
0
LINE
8
BLACK
6
CONTINUOUS
10
-4.23903
20
5.67341
11
-4.23982
21
5.67046
0
LINE
8
BLACK
6
CONTINUOUS
10
-4.23982
20
5.67046
11
-4.24198
21
5.6683
0
LINE
8
BLACK
6
CONTINUOUS
10
-4.24198
20
5.6683
11
-4.24494
21
5.6675
0
LINE
8
BLACK
6
CONTINUOUS
10
-4.24494
20
5.6675
11
-4.27175
21
5.6675
0
LINE
8
BLACK
6
CONTINUOUS
10
-4.27175
20
5.6675
11
-4.29612
21
5.6675
0
LINE
8
BLACK
6
CONTINUOUS
10
-4.29612
20
5.6675
11
-4.29907
21
5.6683
0
LINE
8
BLACK
6
CONTINUOUS
10
-4.29907
20
5.6683
11
-4.30123
21
5.67046
0
LINE
8
BLACK
6
CONTINUOUS
10
-4.30123
20
5.67046
11
-4.30202
21
5.67341
0
LINE
8
BLACK
6
CONTINUOUS
10
-4.30202
20
5.67341
11
-4.30202
21
5.69778
0
LINE
8
BLACK
6
CONTINUOUS
10
-4.30202
20
5.69778
11
-4.30123
21
5.70073
0
LINE
8
BLACK
6
CONTINUOUS
10
-4.30123
20
5.70073
11
-4.29907
21
5.7029
0
LINE
8
BLACK
6
CONTINUOUS
10
-4.29907
20
5.7029
11
-4.29612
21
5.70369
0
LINE
8
BLACK
6
CONTINUOUS
10
-4.29612
20
5.70369
11
-4.29317
21
5.7029
0
LINE
8
BLACK
6
CONTINUOUS
10
-4.29317
20
5.7029
11
-4.291
21
5.70073
0
LINE
8
BLACK
6
CONTINUOUS
10
-4.291
20
5.70073
11
-4.29021
21
5.69778
0
LINE
8
BLACK
6
CONTINUOUS
10
-4.29021
20
5.69778
11
-4.29021
21
5.67931
0
LINE
8
BLACK
6
CONTINUOUS
10
-4.29021
20
5.67931
11
-4.27765
21
5.67931
0
LINE
8
BLACK
6
CONTINUOUS
10
-4.27765
20
5.67931
11
-4.27765
21
5.69047
0
LINE
8
BLACK
6
CONTINUOUS
10
-4.27765
20
5.69047
11
-4.27686
21
5.69342
0
LINE
8
BLACK
6
CONTINUOUS
10
-4.27686
20
5.69342
11
-4.2747
21
5.69558
0
LINE
8
BLACK
6
CONTINUOUS
10
-4.2747
20
5.69558
11
-4.27175
21
5.69638
0
LINE
8
BLACK
6
CONTINUOUS
10
-4.27175
20
5.69638
11
-4.26879
21
5.69558
0
LINE
8
BLACK
6
CONTINUOUS
10
-4.26879
20
5.69558
11
-4.26663
21
5.69342
0
LINE
8
BLACK
6
CONTINUOUS
10
-4.26663
20
5.69342
11
-4.26584
21
5.69047
0
LINE
8
BLACK
6
CONTINUOUS
10
-4.26584
20
5.69047
11
-4.26584
21
5.67931
0
LINE
8
BLACK
6
CONTINUOUS
10
-4.26584
20
5.67931
11
-4.25084
21
5.67931
0
LINE
8
BLACK
6
CONTINUOUS
10
-4.25084
20
5.67931
11
-4.25084
21
5.69778
0
LINE
8
BLACK
6
CONTINUOUS
10
-4.25084
20
5.69778
11
-4.25005
21
5.70073
0
LINE
8
BLACK
6
CONTINUOUS
10
-4.25005
20
5.70073
11
-4.24789
21
5.7029
0
LINE
8
BLACK
6
CONTINUOUS
10
-4.24789
20
5.7029
11
-4.24494
21
5.70369
0
LINE
8
BLACK
6
CONTINUOUS
10
-4.24494
20
5.70369
11
-4.24198
21
5.7029
0
LINE
8
BLACK
6
CONTINUOUS
10
-4.09747
20
5.70168
11
-4.09741
21
5.70168
0
LINE
8
BLACK
6
CONTINUOUS
10
-4.09741
20
5.70168
11
-4.09178
21
5.6998
0
LINE
8
BLACK
6
CONTINUOUS
10
-4.09178
20
5.6998
11
-4.09088
21
5.69931
0
LINE
8
BLACK
6
CONTINUOUS
10
-4.09088
20
5.69931
11
-4.09079
21
5.69916
0
LINE
8
BLACK
6
CONTINUOUS
10
-4.09079
20
5.69916
11
-4.09063
21
5.69909
0
LINE
8
BLACK
6
CONTINUOUS
10
-4.09063
20
5.69909
11
-4.08688
21
5.69534
0
LINE
8
BLACK
6
CONTINUOUS
10
-4.08688
20
5.69534
11
-4.08629
21
5.6945
0
LINE
8
BLACK
6
CONTINUOUS
10
-4.08629
20
5.6945
11
-4.08628
21
5.69432
0
LINE
8
BLACK
6
CONTINUOUS
10
-4.08628
20
5.69432
11
-4.08617
21
5.69419
0
LINE
8
BLACK
6
CONTINUOUS
10
-4.08617
20
5.69419
11
-4.08429
21
5.68856
0
LINE
8
BLACK
6
CONTINUOUS
10
-4.08429
20
5.68856
11
-4.08416
21
5.68769
0
LINE
8
BLACK
6
CONTINUOUS
10
-4.08416
20
5.68769
11
-4.08414
21
5.68763
0
LINE
8
BLACK
6
CONTINUOUS
10
-4.08414
20
5.68763
11
-4.08414
21
5.68388
0
LINE
8
BLACK
6
CONTINUOUS
10
-4.08414
20
5.68388
11
-4.08432
21
5.68287
0
LINE
8
BLACK
6
CONTINUOUS
10
-4.08432
20
5.68287
11
-4.08562
21
5.68132
0
LINE
8
BLACK
6
CONTINUOUS
10
-4.08562
20
5.68132
11
-4.08761
21
5.68097
0
LINE
8
BLACK
6
CONTINUOUS
10
-4.08761
20
5.68097
11
-4.08936
21
5.68198
0
LINE
8
BLACK
6
CONTINUOUS
10
-4.08936
20
5.68198
11
-4.09005
21
5.68388
0
LINE
8
BLACK
6
CONTINUOUS
10
-4.09005
20
5.68388
11
-4.09005
21
5.68715
0
LINE
8
BLACK
6
CONTINUOUS
10
-4.09005
20
5.68715
11
-4.09155
21
5.69166
0
LINE
8
BLACK
6
CONTINUOUS
10
-4.09155
20
5.69166
11
-4.09431
21
5.69442
0
LINE
8
BLACK
6
CONTINUOUS
10
-4.09431
20
5.69442
11
-4.09882
21
5.69592
0
LINE
8
BLACK
6
CONTINUOUS
10
-4.09882
20
5.69592
11
-4.12646
21
5.69592
0
LINE
8
BLACK
6
CONTINUOUS
10
-4.12646
20
5.69592
11
-4.12747
21
5.6961
0
LINE
8
BLACK
6
CONTINUOUS
10
-4.12747
20
5.6961
11
-4.12902
21
5.6974
0
LINE
8
BLACK
6
CONTINUOUS
10
-4.12902
20
5.6974
11
-4.12937
21
5.69939
0
LINE
8
BLACK
6
CONTINUOUS
10
-4.12937
20
5.69939
11
-4.12836
21
5.70114
0
LINE
8
BLACK
6
CONTINUOUS
10
-4.12836
20
5.70114
11
-4.12646
21
5.70183
0
LINE
8
BLACK
6
CONTINUOUS
10
-4.12646
20
5.70183
11
-4.09834
21
5.70183
0
LINE
8
BLACK
6
CONTINUOUS
10
-4.09834
20
5.70183
11
-4.09747
21
5.70168
0
LINE
8
BLACK
6
CONTINUOUS
10
-4.88935
20
5.71405
11
-4.88928
21
5.71405
0
LINE
8
BLACK
6
CONTINUOUS
10
-4.88928
20
5.71405
11
-4.88366
21
5.71217
0
LINE
8
BLACK
6
CONTINUOUS
10
-4.88366
20
5.71217
11
-4.88276
21
5.71168
0
LINE
8
BLACK
6
CONTINUOUS
10
-4.88276
20
5.71168
11
-4.88266
21
5.71153
0
LINE
8
BLACK
6
CONTINUOUS
10
-4.88266
20
5.71153
11
-4.8825
21
5.71146
0
LINE
8
BLACK
6
CONTINUOUS
10
-4.8825
20
5.71146
11
-4.86505
21
5.694
0
LINE
8
BLACK
6
CONTINUOUS
10
-4.86505
20
5.694
11
-4.86505
21
5.71125
0
LINE
8
BLACK
6
CONTINUOUS
10
-4.86505
20
5.71125
11
-4.86487
21
5.71226
0
LINE
8
BLACK
6
CONTINUOUS
10
-4.86487
20
5.71226
11
-4.86357
21
5.7138
0
LINE
8
BLACK
6
CONTINUOUS
10
-4.86357
20
5.7138
11
-4.86158
21
5.71415
0
LINE
8
BLACK
6
CONTINUOUS
10
-4.86158
20
5.71415
11
-4.85983
21
5.71314
0
LINE
8
BLACK
6
CONTINUOUS
10
-4.85983
20
5.71314
11
-4.85914
21
5.71125
0
LINE
8
BLACK
6
CONTINUOUS
10
-4.85914
20
5.71125
11
-4.85914
21
5.68687
0
LINE
8
BLACK
6
CONTINUOUS
10
-4.85914
20
5.68687
11
-4.85925
21
5.68624
0
LINE
8
BLACK
6
CONTINUOUS
10
-4.85925
20
5.68624
11
-4.85924
21
5.68611
0
LINE
8
BLACK
6
CONTINUOUS
10
-4.85924
20
5.68611
11
-4.85929
21
5.68605
0
LINE
8
BLACK
6
CONTINUOUS
10
-4.85929
20
5.68605
11
-4.85932
21
5.68586
0
LINE
8
BLACK
6
CONTINUOUS
10
-4.85932
20
5.68586
11
-4.85989
21
5.68518
0
LINE
8
BLACK
6
CONTINUOUS
10
-4.85989
20
5.68518
11
-4.8604
21
5.68446
0
LINE
8
BLACK
6
CONTINUOUS
10
-4.8604
20
5.68446
11
-4.86053
21
5.68442
0
LINE
8
BLACK
6
CONTINUOUS
10
-4.86053
20
5.68442
11
-4.86062
21
5.68432
0
LINE
8
BLACK
6
CONTINUOUS
10
-4.86062
20
5.68432
11
-4.86149
21
5.68416
0
LINE
8
BLACK
6
CONTINUOUS
10
-4.86149
20
5.68416
11
-4.86235
21
5.68393
0
LINE
8
BLACK
6
CONTINUOUS
10
-4.86235
20
5.68393
11
-4.86247
21
5.68399
0
LINE
8
BLACK
6
CONTINUOUS
10
-4.86247
20
5.68399
11
-4.86261
21
5.68397
0
LINE
8
BLACK
6
CONTINUOUS
10
-4.86261
20
5.68397
11
-4.86338
21
5.68441
0
LINE
8
BLACK
6
CONTINUOUS
10
-4.86338
20
5.68441
11
-4.86418
21
5.68479
0
LINE
8
BLACK
6
CONTINUOUS
10
-4.86418
20
5.68479
11
-4.88619
21
5.70679
0
LINE
8
BLACK
6
CONTINUOUS
10
-4.88619
20
5.70679
11
-4.89069
21
5.70829
0
LINE
8
BLACK
6
CONTINUOUS
10
-4.89069
20
5.70829
11
-4.89327
21
5.70829
0
LINE
8
BLACK
6
CONTINUOUS
10
-4.89327
20
5.70829
11
-4.89597
21
5.70695
0
LINE
8
BLACK
6
CONTINUOUS
10
-4.89597
20
5.70695
11
-4.89716
21
5.70575
0
LINE
8
BLACK
6
CONTINUOUS
10
-4.89716
20
5.70575
11
-4.89851
21
5.70305
0
LINE
8
BLACK
6
CONTINUOUS
10
-4.89851
20
5.70305
11
-4.89851
21
5.69507
0
LINE
8
BLACK
6
CONTINUOUS
10
-4.89851
20
5.69507
11
-4.89716
21
5.69237
0
LINE
8
BLACK
6
CONTINUOUS
10
-4.89716
20
5.69237
11
-4.89563
21
5.69084
0
LINE
8
BLACK
6
CONTINUOUS
10
-4.89563
20
5.69084
11
-4.89504
21
5.69
0
LINE
8
BLACK
6
CONTINUOUS
10
-4.89504
20
5.69
11
-4.89486
21
5.68799
0
LINE
8
BLACK
6
CONTINUOUS
10
-4.89486
20
5.68799
11
-4.89602
21
5.68633
0
LINE
8
BLACK
6
CONTINUOUS
10
-4.89602
20
5.68633
11
-4.89797
21
5.68581
0
LINE
8
BLACK
6
CONTINUOUS
10
-4.89797
20
5.68581
11
-4.8998
21
5.68666
0
LINE
8
BLACK
6
CONTINUOUS
10
-4.8998
20
5.68666
11
-4.90168
21
5.68854
0
LINE
8
BLACK
6
CONTINUOUS
10
-4.90168
20
5.68854
11
-4.90218
21
5.68926
0
LINE
8
BLACK
6
CONTINUOUS
10
-4.90218
20
5.68926
11
-4.90223
21
5.6893
0
LINE
8
BLACK
6
CONTINUOUS
10
-4.90223
20
5.6893
11
-4.9041
21
5.69305
0
LINE
8
BLACK
6
CONTINUOUS
10
-4.9041
20
5.69305
11
-4.9044
21
5.69404
0
LINE
8
BLACK
6
CONTINUOUS
10
-4.9044
20
5.69404
11
-4.90436
21
5.69421
0
LINE
8
BLACK
6
CONTINUOUS
10
-4.90436
20
5.69421
11
-4.90442
21
5.69437
0
LINE
8
BLACK
6
CONTINUOUS
10
-4.90442
20
5.69437
11
-4.90442
21
5.70375
0
LINE
8
BLACK
6
CONTINUOUS
10
-4.90442
20
5.70375
11
-4.90424
21
5.70476
0
LINE
8
BLACK
6
CONTINUOUS
10
-4.90424
20
5.70476
11
-4.90413
21
5.70489
0
LINE
8
BLACK
6
CONTINUOUS
10
-4.90413
20
5.70489
11
-4.9041
21
5.70507
0
LINE
8
BLACK
6
CONTINUOUS
10
-4.9041
20
5.70507
11
-4.90223
21
5.70882
0
LINE
8
BLACK
6
CONTINUOUS
10
-4.90223
20
5.70882
11
-4.9017
21
5.70953
0
LINE
8
BLACK
6
CONTINUOUS
10
-4.9017
20
5.70953
11
-4.90168
21
5.70959
0
LINE
8
BLACK
6
CONTINUOUS
10
-4.90168
20
5.70959
11
-4.8998
21
5.71146
0
LINE
8
BLACK
6
CONTINUOUS
10
-4.8998
20
5.71146
11
-4.89908
21
5.71197
0
LINE
8
BLACK
6
CONTINUOUS
10
-4.89908
20
5.71197
11
-4.89903
21
5.71201
0
LINE
8
BLACK
6
CONTINUOUS
10
-4.89903
20
5.71201
11
-4.89529
21
5.71389
0
LINE
8
BLACK
6
CONTINUOUS
10
-4.89529
20
5.71389
11
-4.8943
21
5.71418
0
LINE
8
BLACK
6
CONTINUOUS
10
-4.8943
20
5.71418
11
-4.89413
21
5.71414
0
LINE
8
BLACK
6
CONTINUOUS
10
-4.89413
20
5.71414
11
-4.89396
21
5.7142
0
LINE
8
BLACK
6
CONTINUOUS
10
-4.89396
20
5.7142
11
-4.89022
21
5.7142
0
LINE
8
BLACK
6
CONTINUOUS
10
-4.89022
20
5.7142
11
-4.88935
21
5.71405
0
LINE
8
BLACK
6
CONTINUOUS
10
-4.49133
20
5.73867
11
-4.47433
21
5.72167
0
LINE
8
BLACK
6
CONTINUOUS
10
-4.47433
20
5.72167
11
-4.47433
21
5.72167
0
LINE
8
BLACK
6
CONTINUOUS
10
-4.47433
20
5.72167
11
-4.47364
21
5.72
0
LINE
8
BLACK
6
CONTINUOUS
10
-4.47364
20
5.72
11
-4.47374
21
5.71975
0
LINE
8
BLACK
6
CONTINUOUS
10
-4.47374
20
5.71975
11
-4.47364
21
5.7195
0
LINE
8
BLACK
6
CONTINUOUS
10
-4.47364
20
5.7195
11
-4.47433
21
5.71783
0
LINE
8
BLACK
6
CONTINUOUS
10
-4.47433
20
5.71783
11
-4.49133
21
5.70083
0
LINE
8
BLACK
6
CONTINUOUS
10
-4.49133
20
5.70083
11
-4.493
21
5.70014
0
LINE
8
BLACK
6
CONTINUOUS
10
-4.493
20
5.70014
11
-4.49467
21
5.70083
0
LINE
8
BLACK
6
CONTINUOUS
10
-4.49467
20
5.70083
11
-4.49536
21
5.7025
0
LINE
8
BLACK
6
CONTINUOUS
10
-4.49536
20
5.7025
11
-4.49467
21
5.70417
0
LINE
8
BLACK
6
CONTINUOUS
10
-4.49467
20
5.70417
11
-4.4812
21
5.71764
0
LINE
8
BLACK
6
CONTINUOUS
10
-4.4812
20
5.71764
11
-4.594
21
5.71764
0
LINE
8
BLACK
6
CONTINUOUS
10
-4.594
20
5.71764
11
-4.59567
21
5.71833
0
LINE
8
BLACK
6
CONTINUOUS
10
-4.59567
20
5.71833
11
-4.59636
21
5.72
0
LINE
8
BLACK
6
CONTINUOUS
10
-4.59636
20
5.72
11
-4.59567
21
5.72167
0
LINE
8
BLACK
6
CONTINUOUS
10
-4.59567
20
5.72167
11
-4.594
21
5.72236
0
LINE
8
BLACK
6
CONTINUOUS
10
-4.594
20
5.72236
11
-4.4817
21
5.72236
0
LINE
8
BLACK
6
CONTINUOUS
10
-4.4817
20
5.72236
11
-4.49467
21
5.73533
0
LINE
8
BLACK
6
CONTINUOUS
10
-4.49467
20
5.73533
11
-4.49536
21
5.737
0
LINE
8
BLACK
6
CONTINUOUS
10
-4.49536
20
5.737
11
-4.49467
21
5.73867
0
LINE
8
BLACK
6
CONTINUOUS
10
-4.49467
20
5.73867
11
-4.493
21
5.73936
0
LINE
8
BLACK
6
CONTINUOUS
10
-4.493
20
5.73936
11
-4.49133
21
5.73867
0
LINE
8
BLACK
6
CONTINUOUS
10
-4.24232
20
5.75426
11
-4.24002
21
5.75224
0
LINE
8
BLACK
6
CONTINUOUS
10
-4.24002
20
5.75224
11
-4.23904
21
5.74934
0
LINE
8
BLACK
6
CONTINUOUS
10
-4.23904
20
5.74934
11
-4.23964
21
5.74634
0
LINE
8
BLACK
6
CONTINUOUS
10
-4.23964
20
5.74634
11
-4.24166
21
5.74405
0
LINE
8
BLACK
6
CONTINUOUS
10
-4.24166
20
5.74405
11
-4.25988
21
5.7319
0
LINE
8
BLACK
6
CONTINUOUS
10
-4.25988
20
5.7319
11
-4.24166
21
5.71976
0
LINE
8
BLACK
6
CONTINUOUS
10
-4.24166
20
5.71976
11
-4.23964
21
5.71746
0
LINE
8
BLACK
6
CONTINUOUS
10
-4.23964
20
5.71746
11
-4.23904
21
5.71446
0
LINE
8
BLACK
6
CONTINUOUS
10
-4.23904
20
5.71446
11
-4.24002
21
5.71157
0
LINE
8
BLACK
6
CONTINUOUS
10
-4.24002
20
5.71157
11
-4.24232
21
5.70955
0
LINE
8
BLACK
6
CONTINUOUS
10
-4.24232
20
5.70955
11
-4.24532
21
5.70895
0
LINE
8
BLACK
6
CONTINUOUS
10
-4.24532
20
5.70895
11
-4.24821
21
5.70993
0
LINE
8
BLACK
6
CONTINUOUS
10
-4.24821
20
5.70993
11
-4.27053
21
5.7248
0
LINE
8
BLACK
6
CONTINUOUS
10
-4.27053
20
5.7248
11
-4.29284
21
5.70993
0
LINE
8
BLACK
6
CONTINUOUS
10
-4.29284
20
5.70993
11
-4.29574
21
5.70895
0
LINE
8
BLACK
6
CONTINUOUS
10
-4.29574
20
5.70895
11
-4.29874
21
5.70955
0
LINE
8
BLACK
6
CONTINUOUS
10
-4.29874
20
5.70955
11
-4.30103
21
5.71157
0
LINE
8
BLACK
6
CONTINUOUS
10
-4.30103
20
5.71157
11
-4.30201
21
5.71446
0
LINE
8
BLACK
6
CONTINUOUS
10
-4.30201
20
5.71446
11
-4.30141
21
5.71746
0
LINE
8
BLACK
6
CONTINUOUS
10
-4.30141
20
5.71746
11
-4.29939
21
5.71976
0
LINE
8
BLACK
6
CONTINUOUS
10
-4.29939
20
5.71976
11
-4.28117
21
5.7319
0
LINE
8
BLACK
6
CONTINUOUS
10
-4.28117
20
5.7319
11
-4.29939
21
5.74405
0
LINE
8
BLACK
6
CONTINUOUS
10
-4.29939
20
5.74405
11
-4.30141
21
5.74634
0
LINE
8
BLACK
6
CONTINUOUS
10
-4.30141
20
5.74634
11
-4.30201
21
5.74934
0
LINE
8
BLACK
6
CONTINUOUS
10
-4.30201
20
5.74934
11
-4.30103
21
5.75224
0
LINE
8
BLACK
6
CONTINUOUS
10
-4.30103
20
5.75224
11
-4.29874
21
5.75426
0
LINE
8
BLACK
6
CONTINUOUS
10
-4.29874
20
5.75426
11
-4.29574
21
5.75486
0
LINE
8
BLACK
6
CONTINUOUS
10
-4.29574
20
5.75486
11
-4.29284
21
5.75388
0
LINE
8
BLACK
6
CONTINUOUS
10
-4.29284
20
5.75388
11
-4.27053
21
5.739
0
LINE
8
BLACK
6
CONTINUOUS
10
-4.27053
20
5.739
11
-4.24821
21
5.75388
0
LINE
8
BLACK
6
CONTINUOUS
10
-4.24821
20
5.75388
11
-4.24532
21
5.75486
0
LINE
8
BLACK
6
CONTINUOUS
10
-4.24532
20
5.75486
11
-4.24232
21
5.75426
0
LINE
8
BLACK
6
CONTINUOUS
10
-4.09796
20
5.74202
11
-4.09726
21
5.74012
0
LINE
8
BLACK
6
CONTINUOUS
10
-4.09726
20
5.74012
11
-4.09726
21
5.73745
0
LINE
8
BLACK
6
CONTINUOUS
10
-4.09726
20
5.73745
11
-4.08709
21
5.73745
0
LINE
8
BLACK
6
CONTINUOUS
10
-4.08709
20
5.73745
11
-4.08608
21
5.73727
0
LINE
8
BLACK
6
CONTINUOUS
10
-4.08608
20
5.73727
11
-4.08454
21
5.73597
0
LINE
8
BLACK
6
CONTINUOUS
10
-4.08454
20
5.73597
11
-4.08419
21
5.73398
0
LINE
8
BLACK
6
CONTINUOUS
10
-4.08419
20
5.73398
11
-4.0852
21
5.73224
0
LINE
8
BLACK
6
CONTINUOUS
10
-4.0852
20
5.73224
11
-4.08709
21
5.73154
0
LINE
8
BLACK
6
CONTINUOUS
10
-4.08709
20
5.73154
11
-4.09726
21
5.73154
0
LINE
8
BLACK
6
CONTINUOUS
10
-4.09726
20
5.73154
11
-4.09726
21
5.71575
0
LINE
8
BLACK
6
CONTINUOUS
10
-4.09726
20
5.71575
11
-4.09744
21
5.71474
0
LINE
8
BLACK
6
CONTINUOUS
10
-4.09744
20
5.71474
11
-4.09759
21
5.71457
0
LINE
8
BLACK
6
CONTINUOUS
10
-4.09759
20
5.71457
11
-4.09762
21
5.71434
0
LINE
8
BLACK
6
CONTINUOUS
10
-4.09762
20
5.71434
11
-4.09822
21
5.71381
0
LINE
8
BLACK
6
CONTINUOUS
10
-4.09822
20
5.71381
11
-4.09874
21
5.71319
0
LINE
8
BLACK
6
CONTINUOUS
10
-4.09874
20
5.71319
11
-4.09896
21
5.71315
0
LINE
8
BLACK
6
CONTINUOUS
10
-4.09896
20
5.71315
11
-4.09913
21
5.713
0
LINE
8
BLACK
6
CONTINUOUS
10
-4.09913
20
5.713
11
-4.09994
21
5.71298
0
LINE
8
BLACK
6
CONTINUOUS
10
-4.09994
20
5.71298
11
-4.10073
21
5.71284
0
LINE
8
BLACK
6
CONTINUOUS
10
-4.10073
20
5.71284
11
-4.10093
21
5.71295
0
LINE
8
BLACK
6
CONTINUOUS
10
-4.10093
20
5.71295
11
-4.10115
21
5.71295
0
LINE
8
BLACK
6
CONTINUOUS
10
-4.10115
20
5.71295
11
-4.12927
21
5.72232
0
LINE
8
BLACK
6
CONTINUOUS
10
-4.12927
20
5.72232
11
-4.13017
21
5.72281
0
LINE
8
BLACK
6
CONTINUOUS
10
-4.13017
20
5.72281
11
-4.13123
21
5.72453
0
LINE
8
BLACK
6
CONTINUOUS
10
-4.13123
20
5.72453
11
-4.13094
21
5.72653
0
LINE
8
BLACK
6
CONTINUOUS
10
-4.13094
20
5.72653
11
-4.12942
21
5.72787
0
LINE
8
BLACK
6
CONTINUOUS
10
-4.12942
20
5.72787
11
-4.1274
21
5.72792
0
LINE
8
BLACK
6
CONTINUOUS
10
-4.1274
20
5.72792
11
-4.10317
21
5.71985
0
LINE
8
BLACK
6
CONTINUOUS
10
-4.10317
20
5.71985
11
-4.10317
21
5.73154
0
LINE
8
BLACK
6
CONTINUOUS
10
-4.10317
20
5.73154
11
-4.11334
21
5.73154
0
LINE
8
BLACK
6
CONTINUOUS
10
-4.11334
20
5.73154
11
-4.11435
21
5.73172
0
LINE
8
BLACK
6
CONTINUOUS
10
-4.11435
20
5.73172
11
-4.1159
21
5.73302
0
LINE
8
BLACK
6
CONTINUOUS
10
-4.1159
20
5.73302
11
-4.11625
21
5.73501
0
LINE
8
BLACK
6
CONTINUOUS
10
-4.11625
20
5.73501
11
-4.11524
21
5.73676
0
LINE
8
BLACK
6
CONTINUOUS
10
-4.11524
20
5.73676
11
-4.11334
21
5.73745
0
LINE
8
BLACK
6
CONTINUOUS
10
-4.11334
20
5.73745
11
-4.10317
21
5.73745
0
LINE
8
BLACK
6
CONTINUOUS
10
-4.10317
20
5.73745
11
-4.10317
21
5.74012
0
LINE
8
BLACK
6
CONTINUOUS
10
-4.10317
20
5.74012
11
-4.10299
21
5.74113
0
LINE
8
BLACK
6
CONTINUOUS
10
-4.10299
20
5.74113
11
-4.10169
21
5.74268
0
LINE
8
BLACK
6
CONTINUOUS
10
-4.10169
20
5.74268
11
-4.0997
21
5.74303
0
LINE
8
BLACK
6
CONTINUOUS
10
-4.0997
20
5.74303
11
-4.09796
21
5.74202
0
LINE
8
BLACK
6
CONTINUOUS
10
-4.69348
20
5.78926
11
-4.69342
21
5.78926
0
LINE
8
BLACK
6
CONTINUOUS
10
-4.69342
20
5.78926
11
-4.6878
21
5.78739
0
LINE
8
BLACK
6
CONTINUOUS
10
-4.6878
20
5.78739
11
-4.68689
21
5.7869
0
LINE
8
BLACK
6
CONTINUOUS
10
-4.68689
20
5.7869
11
-4.68584
21
5.78518
0
LINE
8
BLACK
6
CONTINUOUS
10
-4.68584
20
5.78518
11
-4.68613
21
5.78318
0
LINE
8
BLACK
6
CONTINUOUS
10
-4.68613
20
5.78318
11
-4.68764
21
5.78184
0
LINE
8
BLACK
6
CONTINUOUS
10
-4.68764
20
5.78184
11
-4.68966
21
5.78179
0
LINE
8
BLACK
6
CONTINUOUS
10
-4.68966
20
5.78179
11
-4.69483
21
5.78351
0
LINE
8
BLACK
6
CONTINUOUS
10
-4.69483
20
5.78351
11
-4.70303
21
5.78351
0
LINE
8
BLACK
6
CONTINUOUS
10
-4.70303
20
5.78351
11
-4.70573
21
5.78216
0
LINE
8
BLACK
6
CONTINUOUS
10
-4.70573
20
5.78216
11
-4.70692
21
5.78097
0
LINE
8
BLACK
6
CONTINUOUS
10
-4.70692
20
5.78097
11
-4.70827
21
5.77827
0
LINE
8
BLACK
6
CONTINUOUS
10
-4.70827
20
5.77827
11
-4.70827
21
5.77591
0
LINE
8
BLACK
6
CONTINUOUS
10
-4.70827
20
5.77591
11
-4.70692
21
5.77321
0
LINE
8
BLACK
6
CONTINUOUS
10
-4.70692
20
5.77321
11
-4.70573
21
5.77202
0
LINE
8
BLACK
6
CONTINUOUS
10
-4.70573
20
5.77202
11
-4.7027
21
5.7705
0
LINE
8
BLACK
6
CONTINUOUS
10
-4.7027
20
5.7705
11
-4.69551
21
5.76871
0
LINE
8
BLACK
6
CONTINUOUS
10
-4.69551
20
5.76871
11
-4.69505
21
5.7685
0
LINE
8
BLACK
6
CONTINUOUS
10
-4.69505
20
5.7685
11
-4.69491
21
5.76848
0
LINE
8
BLACK
6
CONTINUOUS
10
-4.69491
20
5.76848
11
-4.69116
21
5.76661
0
LINE
8
BLACK
6
CONTINUOUS
10
-4.69116
20
5.76661
11
-4.69045
21
5.76608
0
LINE
8
BLACK
6
CONTINUOUS
10
-4.69045
20
5.76608
11
-4.69039
21
5.76605
0
LINE
8
BLACK
6
CONTINUOUS
10
-4.69039
20
5.76605
11
-4.68852
21
5.76418
0
LINE
8
BLACK
6
CONTINUOUS
10
-4.68852
20
5.76418
11
-4.68801
21
5.76346
0
LINE
8
BLACK
6
CONTINUOUS
10
-4.68801
20
5.76346
11
-4.68796
21
5.76341
0
LINE
8
BLACK
6
CONTINUOUS
10
-4.68796
20
5.76341
11
-4.68609
21
5.75966
0
LINE
8
BLACK
6
CONTINUOUS
10
-4.68609
20
5.75966
11
-4.6858
21
5.75868
0
LINE
8
BLACK
6
CONTINUOUS
10
-4.6858
20
5.75868
11
-4.68584
21
5.75851
0
LINE
8
BLACK
6
CONTINUOUS
10
-4.68584
20
5.75851
11
-4.68578
21
5.75834
0
LINE
8
BLACK
6
CONTINUOUS
10
-4.68578
20
5.75834
11
-4.68578
21
5.75459
0
LINE
8
BLACK
6
CONTINUOUS
10
-4.68578
20
5.75459
11
-4.68595
21
5.75358
0
LINE
8
BLACK
6
CONTINUOUS
10
-4.68595
20
5.75358
11
-4.68607
21
5.75345
0
LINE
8
BLACK
6
CONTINUOUS
10
-4.68607
20
5.75345
11
-4.68609
21
5.75327
0
LINE
8
BLACK
6
CONTINUOUS
10
-4.68609
20
5.75327
11
-4.68796
21
5.74952
0
LINE
8
BLACK
6
CONTINUOUS
10
-4.68796
20
5.74952
11
-4.68849
21
5.74881
0
LINE
8
BLACK
6
CONTINUOUS
10
-4.68849
20
5.74881
11
-4.68852
21
5.74876
0
LINE
8
BLACK
6
CONTINUOUS
10
-4.68852
20
5.74876
11
-4.69039
21
5.74688
0
LINE
8
BLACK
6
CONTINUOUS
10
-4.69039
20
5.74688
11
-4.69111
21
5.74637
0
LINE
8
BLACK
6
CONTINUOUS
10
-4.69111
20
5.74637
11
-4.69116
21
5.74633
0
LINE
8
BLACK
6
CONTINUOUS
10
-4.69116
20
5.74633
11
-4.69491
21
5.74445
0
LINE
8
BLACK
6
CONTINUOUS
10
-4.69491
20
5.74445
11
-4.69589
21
5.74416
0
LINE
8
BLACK
6
CONTINUOUS
10
-4.69589
20
5.74416
11
-4.69606
21
5.7442
0
LINE
8
BLACK
6
CONTINUOUS
10
-4.69606
20
5.7442
11
-4.69623
21
5.74414
0
LINE
8
BLACK
6
CONTINUOUS
10
-4.69623
20
5.74414
11
-4.7056
21
5.74414
0
LINE
8
BLACK
6
CONTINUOUS
10
-4.7056
20
5.74414
11
-4.70647
21
5.74429
0
LINE
8
BLACK
6
CONTINUOUS
10
-4.70647
20
5.74429
11
-4.70654
21
5.74429
0
LINE
8
BLACK
6
CONTINUOUS
10
-4.70654
20
5.74429
11
-4.71216
21
5.74617
0
LINE
8
BLACK
6
CONTINUOUS
10
-4.71216
20
5.74617
11
-4.71306
21
5.74666
0
LINE
8
BLACK
6
CONTINUOUS
10
-4.71306
20
5.74666
11
-4.71412
21
5.74838
0
LINE
8
BLACK
6
CONTINUOUS
10
-4.71412
20
5.74838
11
-4.71382
21
5.75037
0
LINE
8
BLACK
6
CONTINUOUS
10
-4.71382
20
5.75037
11
-4.71231
21
5.75171
0
LINE
8
BLACK
6
CONTINUOUS
10
-4.71231
20
5.75171
11
-4.71029
21
5.75177
0
LINE
8
BLACK
6
CONTINUOUS
10
-4.71029
20
5.75177
11
-4.70512
21
5.75005
0
LINE
8
BLACK
6
CONTINUOUS
10
-4.70512
20
5.75005
11
-4.69693
21
5.75005
0
LINE
8
BLACK
6
CONTINUOUS
10
-4.69693
20
5.75005
11
-4.69423
21
5.7514
0
LINE
8
BLACK
6
CONTINUOUS
10
-4.69423
20
5.7514
11
-4.69303
21
5.75259
0
LINE
8
BLACK
6
CONTINUOUS
10
-4.69303
20
5.75259
11
-4.69168
21
5.75529
0
LINE
8
BLACK
6
CONTINUOUS
10
-4.69168
20
5.75529
11
-4.69168
21
5.75765
0
LINE
8
BLACK
6
CONTINUOUS
10
-4.69168
20
5.75765
11
-4.69303
21
5.76034
0
LINE
8
BLACK
6
CONTINUOUS
10
-4.69303
20
5.76034
11
-4.69423
21
5.76154
0
LINE
8
BLACK
6
CONTINUOUS
10
-4.69423
20
5.76154
11
-4.69726
21
5.76306
0
LINE
8
BLACK
6
CONTINUOUS
10
-4.69726
20
5.76306
11
-4.70444
21
5.76485
0
LINE
8
BLACK
6
CONTINUOUS
10
-4.70444
20
5.76485
11
-4.70491
21
5.76506
0
LINE
8
BLACK
6
CONTINUOUS
10
-4.70491
20
5.76506
11
-4.70505
21
5.76508
0
LINE
8
BLACK
6
CONTINUOUS
10
-4.70505
20
5.76508
11
-4.7088
21
5.76695
0
LINE
8
BLACK
6
CONTINUOUS
10
-4.7088
20
5.76695
11
-4.70951
21
5.76748
0
LINE
8
BLACK
6
CONTINUOUS
10
-4.70951
20
5.76748
11
-4.70956
21
5.7675
0
LINE
8
BLACK
6
CONTINUOUS
10
-4.70956
20
5.7675
11
-4.71144
21
5.76938
0
LINE
8
BLACK
6
CONTINUOUS
10
-4.71144
20
5.76938
11
-4.71195
21
5.7701
0
LINE
8
BLACK
6
CONTINUOUS
10
-4.71195
20
5.7701
11
-4.71199
21
5.77015
0
LINE
8
BLACK
6
CONTINUOUS
10
-4.71199
20
5.77015
11
-4.71387
21
5.77389
0
LINE
8
BLACK
6
CONTINUOUS
10
-4.71387
20
5.77389
11
-4.71416
21
5.77488
0
LINE
8
BLACK
6
CONTINUOUS
10
-4.71416
20
5.77488
11
-4.71412
21
5.77505
0
LINE
8
BLACK
6
CONTINUOUS
10
-4.71412
20
5.77505
11
-4.71418
21
5.77522
0
LINE
8
BLACK
6
CONTINUOUS
10
-4.71418
20
5.77522
11
-4.71418
21
5.77896
0
LINE
8
BLACK
6
CONTINUOUS
10
-4.71418
20
5.77896
11
-4.714
21
5.77997
0
LINE
8
BLACK
6
CONTINUOUS
10
-4.714
20
5.77997
11
-4.71389
21
5.78011
0
LINE
8
BLACK
6
CONTINUOUS
10
-4.71389
20
5.78011
11
-4.71387
21
5.78029
0
LINE
8
BLACK
6
CONTINUOUS
10
-4.71387
20
5.78029
11
-4.71199
21
5.78403
0
LINE
8
BLACK
6
CONTINUOUS
10
-4.71199
20
5.78403
11
-4.71147
21
5.78474
0
LINE
8
BLACK
6
CONTINUOUS
10
-4.71147
20
5.78474
11
-4.71144
21
5.7848
0
LINE
8
BLACK
6
CONTINUOUS
10
-4.71144
20
5.7848
11
-4.70956
21
5.78668
0
LINE
8
BLACK
6
CONTINUOUS
10
-4.70956
20
5.78668
11
-4.70884
21
5.78718
0
LINE
8
BLACK
6
CONTINUOUS
10
-4.70884
20
5.78718
11
-4.7088
21
5.78723
0
LINE
8
BLACK
6
CONTINUOUS
10
-4.7088
20
5.78723
11
-4.70505
21
5.7891
0
LINE
8
BLACK
6
CONTINUOUS
10
-4.70505
20
5.7891
11
-4.70406
21
5.7894
0
LINE
8
BLACK
6
CONTINUOUS
10
-4.70406
20
5.7894
11
-4.70389
21
5.78936
0
LINE
8
BLACK
6
CONTINUOUS
10
-4.70389
20
5.78936
11
-4.70373
21
5.78942
0
LINE
8
BLACK
6
CONTINUOUS
10
-4.70373
20
5.78942
11
-4.69435
21
5.78942
0
LINE
8
BLACK
6
CONTINUOUS
10
-4.69435
20
5.78942
11
-4.69348
21
5.78926
0
LINE
8
BLACK
6
CONTINUOUS
10
-4.65599
20
5.78926
11
-4.65592
21
5.78926
0
LINE
8
BLACK
6
CONTINUOUS
10
-4.65592
20
5.78926
11
-4.6503
21
5.78739
0
LINE
8
BLACK
6
CONTINUOUS
10
-4.6503
20
5.78739
11
-4.6494
21
5.7869
0
LINE
8
BLACK
6
CONTINUOUS
10
-4.6494
20
5.7869
11
-4.64931
21
5.78675
0
LINE
8
BLACK
6
CONTINUOUS
10
-4.64931
20
5.78675
11
-4.64915
21
5.78668
0
LINE
8
BLACK
6
CONTINUOUS
10
-4.64915
20
5.78668
11
-4.64727
21
5.7848
0
LINE
8
BLACK
6
CONTINUOUS
10
-4.64727
20
5.7848
11
-4.64668
21
5.78396
0
LINE
8
BLACK
6
CONTINUOUS
10
-4.64668
20
5.78396
11
-4.64651
21
5.78195
0
LINE
8
BLACK
6
CONTINUOUS
10
-4.64651
20
5.78195
11
-4.64767
21
5.7803
0
LINE
8
BLACK
6
CONTINUOUS
10
-4.64767
20
5.7803
11
-4.64962
21
5.77977
0
LINE
8
BLACK
6
CONTINUOUS
10
-4.64962
20
5.77977
11
-4.65145
21
5.78063
0
LINE
8
BLACK
6
CONTINUOUS
10
-4.65145
20
5.78063
11
-4.65283
21
5.78201
0
LINE
8
BLACK
6
CONTINUOUS
10
-4.65283
20
5.78201
11
-4.65734
21
5.78351
0
LINE
8
BLACK
6
CONTINUOUS
10
-4.65734
20
5.78351
11
-4.66013
21
5.78351
0
LINE
8
BLACK
6
CONTINUOUS
10
-4.66013
20
5.78351
11
-4.66464
21
5.78201
0
LINE
8
BLACK
6
CONTINUOUS
10
-4.66464
20
5.78201
11
-4.66755
21
5.77909
0
LINE
8
BLACK
6
CONTINUOUS
10
-4.66755
20
5.77909
11
-4.66907
21
5.77606
0
LINE
8
BLACK
6
CONTINUOUS
10
-4.66907
20
5.77606
11
-4.67078
21
5.76923
0
LINE
8
BLACK
6
CONTINUOUS
10
-4.67078
20
5.76923
11
-4.67078
21
5.76433
0
LINE
8
BLACK
6
CONTINUOUS
10
-4.67078
20
5.76433
11
-4.66907
21
5.7575
0
LINE
8
BLACK
6
CONTINUOUS
10
-4.66907
20
5.7575
11
-4.66755
21
5.75447
0
LINE
8
BLACK
6
CONTINUOUS
10
-4.66755
20
5.75447
11
-4.66464
21
5.75155
0
LINE
8
BLACK
6
CONTINUOUS
10
-4.66464
20
5.75155
11
-4.66013
21
5.75005
0
LINE
8
BLACK
6
CONTINUOUS
10
-4.66013
20
5.75005
11
-4.65734
21
5.75005
0
LINE
8
BLACK
6
CONTINUOUS
10
-4.65734
20
5.75005
11
-4.65283
21
5.75155
0
LINE
8
BLACK
6
CONTINUOUS
10
-4.65283
20
5.75155
11
-4.65145
21
5.75293
0
LINE
8
BLACK
6
CONTINUOUS
10
-4.65145
20
5.75293
11
-4.65061
21
5.75352
0
LINE
8
BLACK
6
CONTINUOUS
10
-4.65061
20
5.75352
11
-4.64859
21
5.7537
0
LINE
8
BLACK
6
CONTINUOUS
10
-4.64859
20
5.7537
11
-4.64694
21
5.75254
0
LINE
8
BLACK
6
CONTINUOUS
10
-4.64694
20
5.75254
11
-4.64642
21
5.75059
0
LINE
8
BLACK
6
CONTINUOUS
10
-4.64642
20
5.75059
11
-4.64727
21
5.74876
0
LINE
8
BLACK
6
CONTINUOUS
10
-4.64727
20
5.74876
11
-4.64915
21
5.74688
0
LINE
8
BLACK
6
CONTINUOUS
10
-4.64915
20
5.74688
11
-4.64999
21
5.74629
0
LINE
8
BLACK
6
CONTINUOUS
10
-4.64999
20
5.74629
11
-4.65016
21
5.74628
0
LINE
8
BLACK
6
CONTINUOUS
10
-4.65016
20
5.74628
11
-4.6503
21
5.74617
0
LINE
8
BLACK
6
CONTINUOUS
10
-4.6503
20
5.74617
11
-4.65592
21
5.74429
0
LINE
8
BLACK
6
CONTINUOUS
10
-4.65592
20
5.74429
11
-4.6568
21
5.74416
0
LINE
8
BLACK
6
CONTINUOUS
10
-4.6568
20
5.74416
11
-4.65686
21
5.74414
0
LINE
8
BLACK
6
CONTINUOUS
10
-4.65686
20
5.74414
11
-4.66061
21
5.74414
0
LINE
8
BLACK
6
CONTINUOUS
10
-4.66061
20
5.74414
11
-4.66148
21
5.74429
0
LINE
8
BLACK
6
CONTINUOUS
10
-4.66148
20
5.74429
11
-4.66154
21
5.74429
0
LINE
8
BLACK
6
CONTINUOUS
10
-4.66154
20
5.74429
11
-4.66717
21
5.74617
0
LINE
8
BLACK
6
CONTINUOUS
10
-4.66717
20
5.74617
11
-4.66807
21
5.74666
0
LINE
8
BLACK
6
CONTINUOUS
10
-4.66807
20
5.74666
11
-4.66816
21
5.74681
0
LINE
8
BLACK
6
CONTINUOUS
10
-4.66816
20
5.74681
11
-4.66832
21
5.74688
0
LINE
8
BLACK
6
CONTINUOUS
10
-4.66832
20
5.74688
11
-4.67207
21
5.75063
0
LINE
8
BLACK
6
CONTINUOUS
10
-4.67207
20
5.75063
11
-4.67258
21
5.75135
0
LINE
8
BLACK
6
CONTINUOUS
10
-4.67258
20
5.75135
11
-4.67262
21
5.7514
0
LINE
8
BLACK
6
CONTINUOUS
10
-4.67262
20
5.7514
11
-4.6745
21
5.75515
0
LINE
8
BLACK
6
CONTINUOUS
10
-4.6745
20
5.75515
11
-4.67464
21
5.75564
0
LINE
8
BLACK
6
CONTINUOUS
10
-4.67464
20
5.75564
11
-4.67472
21
5.75575
0
LINE
8
BLACK
6
CONTINUOUS
10
-4.67472
20
5.75575
11
-4.6766
21
5.76325
0
LINE
8
BLACK
6
CONTINUOUS
10
-4.6766
20
5.76325
11
-4.67664
21
5.76384
0
LINE
8
BLACK
6
CONTINUOUS
10
-4.67664
20
5.76384
11
-4.67668
21
5.76397
0
LINE
8
BLACK
6
CONTINUOUS
10
-4.67668
20
5.76397
11
-4.67668
21
5.76959
0
LINE
8
BLACK
6
CONTINUOUS
10
-4.67668
20
5.76959
11
-4.67658
21
5.77017
0
LINE
8
BLACK
6
CONTINUOUS
10
-4.67658
20
5.77017
11
-4.6766
21
5.77031
0
LINE
8
BLACK
6
CONTINUOUS
10
-4.6766
20
5.77031
11
-4.67472
21
5.77781
0
LINE
8
BLACK
6
CONTINUOUS
10
-4.67472
20
5.77781
11
-4.67451
21
5.77827
0
LINE
8
BLACK
6
CONTINUOUS
10
-4.67451
20
5.77827
11
-4.6745
21
5.77841
0
LINE
8
BLACK
6
CONTINUOUS
10
-4.6745
20
5.77841
11
-4.67262
21
5.78216
0
LINE
8
BLACK
6
CONTINUOUS
10
-4.67262
20
5.78216
11
-4.6721
21
5.78287
0
LINE
8
BLACK
6
CONTINUOUS
10
-4.6721
20
5.78287
11
-4.67207
21
5.78293
0
LINE
8
BLACK
6
CONTINUOUS
10
-4.67207
20
5.78293
11
-4.66832
21
5.78668
0
LINE
8
BLACK
6
CONTINUOUS
10
-4.66832
20
5.78668
11
-4.66748
21
5.78727
0
LINE
8
BLACK
6
CONTINUOUS
10
-4.66748
20
5.78727
11
-4.6673
21
5.78728
0
LINE
8
BLACK
6
CONTINUOUS
10
-4.6673
20
5.78728
11
-4.66717
21
5.78739
0
LINE
8
BLACK
6
CONTINUOUS
10
-4.66717
20
5.78739
11
-4.66154
21
5.78926
0
LINE
8
BLACK
6
CONTINUOUS
10
-4.66154
20
5.78926
11
-4.66067
21
5.78939
0
LINE
8
BLACK
6
CONTINUOUS
10
-4.66067
20
5.78939
11
-4.66061
21
5.78942
0
LINE
8
BLACK
6
CONTINUOUS
10
-4.66061
20
5.78942
11
-4.65686
21
5.78942
0
LINE
8
BLACK
6
CONTINUOUS
10
-4.65686
20
5.78942
11
-4.65599
21
5.78926
0
LINE
8
BLACK
6
CONTINUOUS
10
-4.63022
20
5.78836
11
-4.62953
21
5.78646
0
LINE
8
BLACK
6
CONTINUOUS
10
-4.62953
20
5.78646
11
-4.62953
21
5.75005
0
LINE
8
BLACK
6
CONTINUOUS
10
-4.62953
20
5.75005
11
-4.61374
21
5.75005
0
LINE
8
BLACK
6
CONTINUOUS
10
-4.61374
20
5.75005
11
-4.61273
21
5.74987
0
LINE
8
BLACK
6
CONTINUOUS
10
-4.61273
20
5.74987
11
-4.61118
21
5.74857
0
LINE
8
BLACK
6
CONTINUOUS
10
-4.61118
20
5.74857
11
-4.61083
21
5.74658
0
LINE
8
BLACK
6
CONTINUOUS
10
-4.61083
20
5.74658
11
-4.61184
21
5.74483
0
LINE
8
BLACK
6
CONTINUOUS
10
-4.61184
20
5.74483
11
-4.61374
21
5.74414
0
LINE
8
BLACK
6
CONTINUOUS
10
-4.61374
20
5.74414
11
-4.63249
21
5.74414
0
LINE
8
BLACK
6
CONTINUOUS
10
-4.63249
20
5.74414
11
-4.63287
21
5.74421
0
LINE
8
BLACK
6
CONTINUOUS
10
-4.63287
20
5.74421
11
-4.633
21
5.74419
0
LINE
8
BLACK
6
CONTINUOUS
10
-4.633
20
5.74419
11
-4.63311
21
5.74425
0
LINE
8
BLACK
6
CONTINUOUS
10
-4.63311
20
5.74425
11
-4.6335
21
5.74432
0
LINE
8
BLACK
6
CONTINUOUS
10
-4.6335
20
5.74432
11
-4.63408
21
5.74481
0
LINE
8
BLACK
6
CONTINUOUS
10
-4.63408
20
5.74481
11
-4.63475
21
5.7452
0
LINE
8
BLACK
6
CONTINUOUS
10
-4.63475
20
5.7452
11
-4.63484
21
5.74545
0
LINE
8
BLACK
6
CONTINUOUS
10
-4.63484
20
5.74545
11
-4.63504
21
5.74562
0
LINE
8
BLACK
6
CONTINUOUS
10
-4.63504
20
5.74562
11
-4.63518
21
5.74637
0
LINE
8
BLACK
6
CONTINUOUS
10
-4.63518
20
5.74637
11
-4.63544
21
5.74709
0
LINE
8
BLACK
6
CONTINUOUS
10
-4.63544
20
5.74709
11
-4.63544
21
5.78646
0
LINE
8
BLACK
6
CONTINUOUS
10
-4.63544
20
5.78646
11
-4.63526
21
5.78747
0
LINE
8
BLACK
6
CONTINUOUS
10
-4.63526
20
5.78747
11
-4.63396
21
5.78902
0
LINE
8
BLACK
6
CONTINUOUS
10
-4.63396
20
5.78902
11
-4.63197
21
5.78937
0
LINE
8
BLACK
6
CONTINUOUS
10
-4.63197
20
5.78937
11
-4.63022
21
5.78836
0
LINE
8
BLACK
6
CONTINUOUS
10
-4.55148
20
5.78836
11
-4.55079
21
5.78646
0
LINE
8
BLACK
6
CONTINUOUS
10
-4.55079
20
5.78646
11
-4.55079
21
5.74709
0
LINE
8
BLACK
6
CONTINUOUS
10
-4.55079
20
5.74709
11
-4.55097
21
5.74608
0
LINE
8
BLACK
6
CONTINUOUS
10
-4.55097
20
5.74608
11
-4.55227
21
5.74454
0
LINE
8
BLACK
6
CONTINUOUS
10
-4.55227
20
5.74454
11
-4.55426
21
5.74419
0
LINE
8
BLACK
6
CONTINUOUS
10
-4.55426
20
5.74419
11
-4.5554
21
5.74484
0
LINE
8
BLACK
6
CONTINUOUS
10
-4.5554
20
5.74484
11
-4.55617
21
5.74445
0
LINE
8
BLACK
6
CONTINUOUS
10
-4.55617
20
5.74445
11
-4.55716
21
5.74416
0
LINE
8
BLACK
6
CONTINUOUS
10
-4.55716
20
5.74416
11
-4.55733
21
5.7442
0
LINE
8
BLACK
6
CONTINUOUS
10
-4.55733
20
5.7442
11
-4.5575
21
5.74414
0
LINE
8
BLACK
6
CONTINUOUS
10
-4.5575
20
5.74414
11
-4.56499
21
5.74414
0
LINE
8
BLACK
6
CONTINUOUS
10
-4.56499
20
5.74414
11
-4.566
21
5.74432
0
LINE
8
BLACK
6
CONTINUOUS
10
-4.566
20
5.74432
11
-4.56614
21
5.74443
0
LINE
8
BLACK
6
CONTINUOUS
10
-4.56614
20
5.74443
11
-4.56631
21
5.74445
0
LINE
8
BLACK
6
CONTINUOUS
10
-4.56631
20
5.74445
11
-4.57006
21
5.74633
0
LINE
8
BLACK
6
CONTINUOUS
10
-4.57006
20
5.74633
11
-4.57077
21
5.74685
0
LINE
8
BLACK
6
CONTINUOUS
10
-4.57077
20
5.74685
11
-4.57083
21
5.74688
0
LINE
8
BLACK
6
CONTINUOUS
10
-4.57083
20
5.74688
11
-4.57271
21
5.74876
0
LINE
8
BLACK
6
CONTINUOUS
10
-4.57271
20
5.74876
11
-4.57321
21
5.74948
0
LINE
8
BLACK
6
CONTINUOUS
10
-4.57321
20
5.74948
11
-4.57326
21
5.74952
0
LINE
8
BLACK
6
CONTINUOUS
10
-4.57326
20
5.74952
11
-4.57513
21
5.75327
0
LINE
8
BLACK
6
CONTINUOUS
10
-4.57513
20
5.75327
11
-4.57543
21
5.75426
0
LINE
8
BLACK
6
CONTINUOUS
10
-4.57543
20
5.75426
11
-4.57539
21
5.75443
0
LINE
8
BLACK
6
CONTINUOUS
10
-4.57539
20
5.75443
11
-4.57545
21
5.75459
0
LINE
8
BLACK
6
CONTINUOUS
10
-4.57545
20
5.75459
11
-4.57545
21
5.76584
0
LINE
8
BLACK
6
CONTINUOUS
10
-4.57545
20
5.76584
11
-4.57527
21
5.76685
0
LINE
8
BLACK
6
CONTINUOUS
10
-4.57527
20
5.76685
11
-4.57515
21
5.76699
0
LINE
8
BLACK
6
CONTINUOUS
10
-4.57515
20
5.76699
11
-4.57513
21
5.76716
0
LINE
8
BLACK
6
CONTINUOUS
10
-4.57513
20
5.76716
11
-4.57326
21
5.77091
0
LINE
8
BLACK
6
CONTINUOUS
10
-4.57326
20
5.77091
11
-4.57273
21
5.77162
0
LINE
8
BLACK
6
CONTINUOUS
10
-4.57273
20
5.77162
11
-4.57271
21
5.77168
0
LINE
8
BLACK
6
CONTINUOUS
10
-4.57271
20
5.77168
11
-4.57083
21
5.77355
0
LINE
8
BLACK
6
CONTINUOUS
10
-4.57083
20
5.77355
11
-4.57011
21
5.77406
0
LINE
8
BLACK
6
CONTINUOUS
10
-4.57011
20
5.77406
11
-4.57006
21
5.77411
0
LINE
8
BLACK
6
CONTINUOUS
10
-4.57006
20
5.77411
11
-4.56631
21
5.77598
0
LINE
8
BLACK
6
CONTINUOUS
10
-4.56631
20
5.77598
11
-4.56533
21
5.77627
0
LINE
8
BLACK
6
CONTINUOUS
10
-4.56533
20
5.77627
11
-4.56516
21
5.77623
0
LINE
8
BLACK
6
CONTINUOUS
10
-4.56516
20
5.77623
11
-4.56499
21
5.77629
0
LINE
8
BLACK
6
CONTINUOUS
10
-4.56499
20
5.77629
11
-4.5575
21
5.77629
0
LINE
8
BLACK
6
CONTINUOUS
10
-4.5575
20
5.77629
11
-4.5567
21
5.77615
0
LINE
8
BLACK
6
CONTINUOUS
10
-4.5567
20
5.77615
11
-4.5567
21
5.78646
0
LINE
8
BLACK
6
CONTINUOUS
10
-4.5567
20
5.78646
11
-4.55652
21
5.78747
0
LINE
8
BLACK
6
CONTINUOUS
10
-4.55652
20
5.78747
11
-4.55522
21
5.78902
0
LINE
8
BLACK
6
CONTINUOUS
10
-4.55522
20
5.78902
11
-4.55323
21
5.78937
0
LINE
8
BLACK
6
CONTINUOUS
10
-4.55323
20
5.78937
11
-4.55148
21
5.78836
0
LINE
8
BLACK
6
CONTINUOUS
10
-4.56699
20
5.76904
11
-4.56819
21
5.76784
0
LINE
8
BLACK
6
CONTINUOUS
10
-4.56819
20
5.76784
11
-4.56954
21
5.76514
0
LINE
8
BLACK
6
CONTINUOUS
10
-4.56954
20
5.76514
11
-4.56954
21
5.75529
0
LINE
8
BLACK
6
CONTINUOUS
10
-4.56954
20
5.75529
11
-4.56819
21
5.75259
0
LINE
8
BLACK
6
CONTINUOUS
10
-4.56819
20
5.75259
11
-4.56699
21
5.7514
0
LINE
8
BLACK
6
CONTINUOUS
10
-4.56699
20
5.7514
11
-4.5643
21
5.75005
0
LINE
8
BLACK
6
CONTINUOUS
10
-4.5643
20
5.75005
11
-4.55819
21
5.75005
0
LINE
8
BLACK
6
CONTINUOUS
10
-4.55819
20
5.75005
11
-4.5567
21
5.75079
0
LINE
8
BLACK
6
CONTINUOUS
10
-4.5567
20
5.75079
11
-4.5567
21
5.76964
0
LINE
8
BLACK
6
CONTINUOUS
10
-4.5567
20
5.76964
11
-4.55819
21
5.77039
0
LINE
8
BLACK
6
CONTINUOUS
10
-4.55819
20
5.77039
11
-4.5643
21
5.77039
0
LINE
8
BLACK
6
CONTINUOUS
10
-4.5643
20
5.77039
11
-4.56699
21
5.76904
0
LINE
8
BLACK
6
CONTINUOUS
10
-4.47962
20
5.77612
11
-4.47948
21
5.776
0
LINE
8
BLACK
6
CONTINUOUS
10
-4.47948
20
5.776
11
-4.47931
21
5.77598
0
LINE
8
BLACK
6
CONTINUOUS
10
-4.47931
20
5.77598
11
-4.47556
21
5.77411
0
LINE
8
BLACK
6
CONTINUOUS
10
-4.47556
20
5.77411
11
-4.47474
21
5.7735
0
LINE
8
BLACK
6
CONTINUOUS
10
-4.47474
20
5.7735
11
-4.47456
21
5.77309
0
LINE
8
BLACK
6
CONTINUOUS
10
-4.47456
20
5.77309
11
-4.47424
21
5.77279
0
LINE
8
BLACK
6
CONTINUOUS
10
-4.47424
20
5.77279
11
-4.47236
21
5.76904
0
LINE
8
BLACK
6
CONTINUOUS
10
-4.47236
20
5.76904
11
-4.47207
21
5.76805
0
LINE
8
BLACK
6
CONTINUOUS
10
-4.47207
20
5.76805
11
-4.47211
21
5.76788
0
LINE
8
BLACK
6
CONTINUOUS
10
-4.47211
20
5.76788
11
-4.47205
21
5.76772
0
LINE
8
BLACK
6
CONTINUOUS
10
-4.47205
20
5.76772
11
-4.47205
21
5.76397
0
LINE
8
BLACK
6
CONTINUOUS
10
-4.47205
20
5.76397
11
-4.47223
21
5.76296
0
LINE
8
BLACK
6
CONTINUOUS
10
-4.47223
20
5.76296
11
-4.47254
21
5.76258
0
LINE
8
BLACK
6
CONTINUOUS
10
-4.47254
20
5.76258
11
-4.4727
21
5.76212
0
LINE
8
BLACK
6
CONTINUOUS
10
-4.4727
20
5.76212
11
-4.47317
21
5.76183
0
LINE
8
BLACK
6
CONTINUOUS
10
-4.47317
20
5.76183
11
-4.47353
21
5.76141
0
LINE
8
BLACK
6
CONTINUOUS
10
-4.47353
20
5.76141
11
-4.47401
21
5.76132
0
LINE
8
BLACK
6
CONTINUOUS
10
-4.47401
20
5.76132
11
-4.47443
21
5.76107
0
LINE
8
BLACK
6
CONTINUOUS
10
-4.47443
20
5.76107
11
-4.4908
21
5.7578
0
LINE
8
BLACK
6
CONTINUOUS
10
-4.4908
20
5.7578
11
-4.4908
21
5.75342
0
LINE
8
BLACK
6
CONTINUOUS
10
-4.4908
20
5.75342
11
-4.48968
21
5.75117
0
LINE
8
BLACK
6
CONTINUOUS
10
-4.48968
20
5.75117
11
-4.48743
21
5.75005
0
LINE
8
BLACK
6
CONTINUOUS
10
-4.48743
20
5.75005
11
-4.48133
21
5.75005
0
LINE
8
BLACK
6
CONTINUOUS
10
-4.48133
20
5.75005
11
-4.4782
21
5.75161
0
LINE
8
BLACK
6
CONTINUOUS
10
-4.4782
20
5.75161
11
-4.47722
21
5.7519
0
LINE
8
BLACK
6
CONTINUOUS
10
-4.47722
20
5.7519
11
-4.47525
21
5.75143
0
LINE
8
BLACK
6
CONTINUOUS
10
-4.47525
20
5.75143
11
-4.47405
21
5.74981
0
LINE
8
BLACK
6
CONTINUOUS
10
-4.47405
20
5.74981
11
-4.47417
21
5.74779
0
LINE
8
BLACK
6
CONTINUOUS
10
-4.47417
20
5.74779
11
-4.47556
21
5.74633
0
LINE
8
BLACK
6
CONTINUOUS
10
-4.47556
20
5.74633
11
-4.47931
21
5.74445
0
LINE
8
BLACK
6
CONTINUOUS
10
-4.47931
20
5.74445
11
-4.48029
21
5.74416
0
LINE
8
BLACK
6
CONTINUOUS
10
-4.48029
20
5.74416
11
-4.48046
21
5.7442
0
LINE
8
BLACK
6
CONTINUOUS
10
-4.48046
20
5.7442
11
-4.48063
21
5.74414
0
LINE
8
BLACK
6
CONTINUOUS
10
-4.48063
20
5.74414
11
-4.48813
21
5.74414
0
LINE
8
BLACK
6
CONTINUOUS
10
-4.48813
20
5.74414
11
-4.48914
21
5.74432
0
LINE
8
BLACK
6
CONTINUOUS
10
-4.48914
20
5.74432
11
-4.48927
21
5.74443
0
LINE
8
BLACK
6
CONTINUOUS
10
-4.48927
20
5.74443
11
-4.48945
21
5.74445
0
LINE
8
BLACK
6
CONTINUOUS
10
-4.48945
20
5.74445
11
-4.4932
21
5.74633
0
LINE
8
BLACK
6
CONTINUOUS
10
-4.4932
20
5.74633
11
-4.49402
21
5.74694
0
LINE
8
BLACK
6
CONTINUOUS
10
-4.49402
20
5.74694
11
-4.4942
21
5.74734
0
LINE
8
BLACK
6
CONTINUOUS
10
-4.4942
20
5.74734
11
-4.49452
21
5.74765
0
LINE
8
BLACK
6
CONTINUOUS
10
-4.49452
20
5.74765
11
-4.49639
21
5.7514
0
LINE
8
BLACK
6
CONTINUOUS
10
-4.49639
20
5.7514
11
-4.49669
21
5.75238
0
LINE
8
BLACK
6
CONTINUOUS
10
-4.49669
20
5.75238
11
-4.49665
21
5.75255
0
LINE
8
BLACK
6
CONTINUOUS
10
-4.49665
20
5.75255
11
-4.49671
21
5.75272
0
LINE
8
BLACK
6
CONTINUOUS
10
-4.49671
20
5.75272
11
-4.49671
21
5.76772
0
LINE
8
BLACK
6
CONTINUOUS
10
-4.49671
20
5.76772
11
-4.49653
21
5.76873
0
LINE
8
BLACK
6
CONTINUOUS
10
-4.49653
20
5.76873
11
-4.49641
21
5.76886
0
LINE
8
BLACK
6
CONTINUOUS
10
-4.49641
20
5.76886
11
-4.49639
21
5.76904
0
LINE
8
BLACK
6
CONTINUOUS
10
-4.49639
20
5.76904
11
-4.49452
21
5.77279
0
LINE
8
BLACK
6
CONTINUOUS
10
-4.49452
20
5.77279
11
-4.49391
21
5.77361
0
LINE
8
BLACK
6
CONTINUOUS
10
-4.49391
20
5.77361
11
-4.4935
21
5.77379
0
LINE
8
BLACK
6
CONTINUOUS
10
-4.4935
20
5.77379
11
-4.4932
21
5.77411
0
LINE
8
BLACK
6
CONTINUOUS
10
-4.4932
20
5.77411
11
-4.48945
21
5.77598
0
LINE
8
BLACK
6
CONTINUOUS
10
-4.48945
20
5.77598
11
-4.48847
21
5.77627
0
LINE
8
BLACK
6
CONTINUOUS
10
-4.48847
20
5.77627
11
-4.48829
21
5.77623
0
LINE
8
BLACK
6
CONTINUOUS
10
-4.48829
20
5.77623
11
-4.48813
21
5.77629
0
LINE
8
BLACK
6
CONTINUOUS
10
-4.48813
20
5.77629
11
-4.48063
21
5.77629
0
LINE
8
BLACK
6
CONTINUOUS
10
-4.48063
20
5.77629
11
-4.47962
21
5.77612
0
LINE
8
BLACK
6
CONTINUOUS
10
-4.48968
20
5.76926
11
-4.4908
21
5.76702
0
LINE
8
BLACK
6
CONTINUOUS
10
-4.4908
20
5.76702
11
-4.4908
21
5.76382
0
LINE
8
BLACK
6
CONTINUOUS
10
-4.4908
20
5.76382
11
-4.47796
21
5.76639
0
LINE
8
BLACK
6
CONTINUOUS
10
-4.47796
20
5.76639
11
-4.47796
21
5.76702
0
LINE
8
BLACK
6
CONTINUOUS
10
-4.47796
20
5.76702
11
-4.47908
21
5.76926
0
LINE
8
BLACK
6
CONTINUOUS
10
-4.47908
20
5.76926
11
-4.48133
21
5.77039
0
LINE
8
BLACK
6
CONTINUOUS
10
-4.48133
20
5.77039
11
-4.48743
21
5.77039
0
LINE
8
BLACK
6
CONTINUOUS
10
-4.48743
20
5.77039
11
-4.48968
21
5.76926
0
LINE
8
BLACK
6
CONTINUOUS
10
-4.444
20
5.77612
11
-4.44386
21
5.776
0
LINE
8
BLACK
6
CONTINUOUS
10
-4.44386
20
5.776
11
-4.44369
21
5.77598
0
LINE
8
BLACK
6
CONTINUOUS
10
-4.44369
20
5.77598
11
-4.43994
21
5.77411
0
LINE
8
BLACK
6
CONTINUOUS
10
-4.43994
20
5.77411
11
-4.43912
21
5.7735
0
LINE
8
BLACK
6
CONTINUOUS
10
-4.43912
20
5.7735
11
-4.43831
21
5.77164
0
LINE
8
BLACK
6
CONTINUOUS
10
-4.43831
20
5.77164
11
-4.43889
21
5.76971
0
LINE
8
BLACK
6
CONTINUOUS
10
-4.43889
20
5.76971
11
-4.44057
21
5.76859
0
LINE
8
BLACK
6
CONTINUOUS
10
-4.44057
20
5.76859
11
-4.44258
21
5.76882
0
LINE
8
BLACK
6
CONTINUOUS
10
-4.44258
20
5.76882
11
-4.44571
21
5.77039
0
LINE
8
BLACK
6
CONTINUOUS
10
-4.44571
20
5.77039
11
-4.45181
21
5.77039
0
LINE
8
BLACK
6
CONTINUOUS
10
-4.45181
20
5.77039
11
-4.45451
21
5.76904
0
LINE
8
BLACK
6
CONTINUOUS
10
-4.45451
20
5.76904
11
-4.45571
21
5.76784
0
LINE
8
BLACK
6
CONTINUOUS
10
-4.45571
20
5.76784
11
-4.45705
21
5.76514
0
LINE
8
BLACK
6
CONTINUOUS
10
-4.45705
20
5.76514
11
-4.45705
21
5.75529
0
LINE
8
BLACK
6
CONTINUOUS
10
-4.45705
20
5.75529
11
-4.45571
21
5.75259
0
LINE
8
BLACK
6
CONTINUOUS
10
-4.45571
20
5.75259
11
-4.45451
21
5.7514
0
LINE
8
BLACK
6
CONTINUOUS
10
-4.45451
20
5.7514
11
-4.45181
21
5.75005
0
LINE
8
BLACK
6
CONTINUOUS
10
-4.45181
20
5.75005
11
-4.44571
21
5.75005
0
LINE
8
BLACK
6
CONTINUOUS
10
-4.44571
20
5.75005
11
-4.44258
21
5.75161
0
LINE
8
BLACK
6
CONTINUOUS
10
-4.44258
20
5.75161
11
-4.4416
21
5.7519
0
LINE
8
BLACK
6
CONTINUOUS
10
-4.4416
20
5.7519
11
-4.43963
21
5.75143
0
LINE
8
BLACK
6
CONTINUOUS
10
-4.43963
20
5.75143
11
-4.43843
21
5.74981
0
LINE
8
BLACK
6
CONTINUOUS
10
-4.43843
20
5.74981
11
-4.43855
21
5.74779
0
LINE
8
BLACK
6
CONTINUOUS
10
-4.43855
20
5.74779
11
-4.43994
21
5.74633
0
LINE
8
BLACK
6
CONTINUOUS
10
-4.43994
20
5.74633
11
-4.44369
21
5.74445
0
LINE
8
BLACK
6
CONTINUOUS
10
-4.44369
20
5.74445
11
-4.44467
21
5.74416
0
LINE
8
BLACK
6
CONTINUOUS
10
-4.44467
20
5.74416
11
-4.44484
21
5.7442
0
LINE
8
BLACK
6
CONTINUOUS
10
-4.44484
20
5.7442
11
-4.44501
21
5.74414
0
LINE
8
BLACK
6
CONTINUOUS
10
-4.44501
20
5.74414
11
-4.45251
21
5.74414
0
LINE
8
BLACK
6
CONTINUOUS
10
-4.45251
20
5.74414
11
-4.45352
21
5.74432
0
LINE
8
BLACK
6
CONTINUOUS
10
-4.45352
20
5.74432
11
-4.45365
21
5.74443
0
LINE
8
BLACK
6
CONTINUOUS
10
-4.45365
20
5.74443
11
-4.45383
21
5.74445
0
LINE
8
BLACK
6
CONTINUOUS
10
-4.45383
20
5.74445
11
-4.45758
21
5.74633
0
LINE
8
BLACK
6
CONTINUOUS
10
-4.45758
20
5.74633
11
-4.45829
21
5.74685
0
LINE
8
BLACK
6
CONTINUOUS
10
-4.45829
20
5.74685
11
-4.45835
21
5.74688
0
LINE
8
BLACK
6
CONTINUOUS
10
-4.45835
20
5.74688
11
-4.46022
21
5.74876
0
LINE
8
BLACK
6
CONTINUOUS
10
-4.46022
20
5.74876
11
-4.46073
21
5.74948
0
LINE
8
BLACK
6
CONTINUOUS
10
-4.46073
20
5.74948
11
-4.46077
21
5.74952
0
LINE
8
BLACK
6
CONTINUOUS
10
-4.46077
20
5.74952
11
-4.46265
21
5.75327
0
LINE
8
BLACK
6
CONTINUOUS
10
-4.46265
20
5.75327
11
-4.46294
21
5.75426
0
LINE
8
BLACK
6
CONTINUOUS
10
-4.46294
20
5.75426
11
-4.4629
21
5.75443
0
LINE
8
BLACK
6
CONTINUOUS
10
-4.4629
20
5.75443
11
-4.46296
21
5.75459
0
LINE
8
BLACK
6
CONTINUOUS
10
-4.46296
20
5.75459
11
-4.46296
21
5.76584
0
LINE
8
BLACK
6
CONTINUOUS
10
-4.46296
20
5.76584
11
-4.46278
21
5.76685
0
LINE
8
BLACK
6
CONTINUOUS
10
-4.46278
20
5.76685
11
-4.46267
21
5.76699
0
LINE
8
BLACK
6
CONTINUOUS
10
-4.46267
20
5.76699
11
-4.46265
21
5.76716
0
LINE
8
BLACK
6
CONTINUOUS
10
-4.46265
20
5.76716
11
-4.46077
21
5.77091
0
LINE
8
BLACK
6
CONTINUOUS
10
-4.46077
20
5.77091
11
-4.46025
21
5.77162
0
LINE
8
BLACK
6
CONTINUOUS
10
-4.46025
20
5.77162
11
-4.46022
21
5.77168
0
LINE
8
BLACK
6
CONTINUOUS
10
-4.46022
20
5.77168
11
-4.45835
21
5.77355
0
LINE
8
BLACK
6
CONTINUOUS
10
-4.45835
20
5.77355
11
-4.45762
21
5.77406
0
LINE
8
BLACK
6
CONTINUOUS
10
-4.45762
20
5.77406
11
-4.45758
21
5.77411
0
LINE
8
BLACK
6
CONTINUOUS
10
-4.45758
20
5.77411
11
-4.45383
21
5.77598
0
LINE
8
BLACK
6
CONTINUOUS
10
-4.45383
20
5.77598
11
-4.45285
21
5.77627
0
LINE
8
BLACK
6
CONTINUOUS
10
-4.45285
20
5.77627
11
-4.45267
21
5.77623
0
LINE
8
BLACK
6
CONTINUOUS
10
-4.45267
20
5.77623
11
-4.45251
21
5.77629
0
LINE
8
BLACK
6
CONTINUOUS
10
-4.45251
20
5.77629
11
-4.44501
21
5.77629
0
LINE
8
BLACK
6
CONTINUOUS
10
-4.44501
20
5.77629
11
-4.444
21
5.77612
0
LINE
8
BLACK
6
CONTINUOUS
10
-4.42213
20
5.78836
11
-4.42143
21
5.78646
0
LINE
8
BLACK
6
CONTINUOUS
10
-4.42143
20
5.78646
11
-4.42143
21
5.77629
0
LINE
8
BLACK
6
CONTINUOUS
10
-4.42143
20
5.77629
11
-4.41501
21
5.77629
0
LINE
8
BLACK
6
CONTINUOUS
10
-4.41501
20
5.77629
11
-4.414
21
5.77612
0
LINE
8
BLACK
6
CONTINUOUS
10
-4.414
20
5.77612
11
-4.41246
21
5.77482
0
LINE
8
BLACK
6
CONTINUOUS
10
-4.41246
20
5.77482
11
-4.41211
21
5.77283
0
LINE
8
BLACK
6
CONTINUOUS
10
-4.41211
20
5.77283
11
-4.41312
21
5.77108
0
LINE
8
BLACK
6
CONTINUOUS
10
-4.41312
20
5.77108
11
-4.41501
21
5.77039
0
LINE
8
BLACK
6
CONTINUOUS
10
-4.41501
20
5.77039
11
-4.42143
21
5.77039
0
LINE
8
BLACK
6
CONTINUOUS
10
-4.42143
20
5.77039
11
-4.42143
21
5.75342
0
LINE
8
BLACK
6
CONTINUOUS
10
-4.42143
20
5.75342
11
-4.42031
21
5.75117
0
LINE
8
BLACK
6
CONTINUOUS
10
-4.42031
20
5.75117
11
-4.41807
21
5.75005
0
LINE
8
BLACK
6
CONTINUOUS
10
-4.41807
20
5.75005
11
-4.41501
21
5.75005
0
LINE
8
BLACK
6
CONTINUOUS
10
-4.41501
20
5.75005
11
-4.414
21
5.74987
0
LINE
8
BLACK
6
CONTINUOUS
10
-4.414
20
5.74987
11
-4.41246
21
5.74857
0
LINE
8
BLACK
6
CONTINUOUS
10
-4.41246
20
5.74857
11
-4.41211
21
5.74658
0
LINE
8
BLACK
6
CONTINUOUS
10
-4.41211
20
5.74658
11
-4.41312
21
5.74483
0
LINE
8
BLACK
6
CONTINUOUS
10
-4.41312
20
5.74483
11
-4.41501
21
5.74414
0
LINE
8
BLACK
6
CONTINUOUS
10
-4.41501
20
5.74414
11
-4.41876
21
5.74414
0
LINE
8
BLACK
6
CONTINUOUS
10
-4.41876
20
5.74414
11
-4.41977
21
5.74432
0
LINE
8
BLACK
6
CONTINUOUS
10
-4.41977
20
5.74432
11
-4.41991
21
5.74443
0
LINE
8
BLACK
6
CONTINUOUS
10
-4.41991
20
5.74443
11
-4.42008
21
5.74445
0
LINE
8
BLACK
6
CONTINUOUS
10
-4.42008
20
5.74445
11
-4.42383
21
5.74633
0
LINE
8
BLACK
6
CONTINUOUS
10
-4.42383
20
5.74633
11
-4.42466
21
5.74694
0
LINE
8
BLACK
6
CONTINUOUS
10
-4.42466
20
5.74694
11
-4.42483
21
5.74734
0
LINE
8
BLACK
6
CONTINUOUS
10
-4.42483
20
5.74734
11
-4.42515
21
5.74765
0
LINE
8
BLACK
6
CONTINUOUS
10
-4.42515
20
5.74765
11
-4.42703
21
5.7514
0
LINE
8
BLACK
6
CONTINUOUS
10
-4.42703
20
5.7514
11
-4.42732
21
5.75238
0
LINE
8
BLACK
6
CONTINUOUS
10
-4.42732
20
5.75238
11
-4.42728
21
5.75255
0
LINE
8
BLACK
6
CONTINUOUS
10
-4.42728
20
5.75255
11
-4.42734
21
5.75272
0
LINE
8
BLACK
6
CONTINUOUS
10
-4.42734
20
5.75272
11
-4.42734
21
5.77039
0
LINE
8
BLACK
6
CONTINUOUS
10
-4.42734
20
5.77039
11
-4.43001
21
5.77039
0
LINE
8
BLACK
6
CONTINUOUS
10
-4.43001
20
5.77039
11
-4.43102
21
5.77057
0
LINE
8
BLACK
6
CONTINUOUS
10
-4.43102
20
5.77057
11
-4.43257
21
5.77186
0
LINE
8
BLACK
6
CONTINUOUS
10
-4.43257
20
5.77186
11
-4.43292
21
5.77385
0
LINE
8
BLACK
6
CONTINUOUS
10
-4.43292
20
5.77385
11
-4.43191
21
5.7756
0
LINE
8
BLACK
6
CONTINUOUS
10
-4.43191
20
5.7756
11
-4.43001
21
5.77629
0
LINE
8
BLACK
6
CONTINUOUS
10
-4.43001
20
5.77629
11
-4.42734
21
5.77629
0
LINE
8
BLACK
6
CONTINUOUS
10
-4.42734
20
5.77629
11
-4.42734
21
5.78646
0
LINE
8
BLACK
6
CONTINUOUS
10
-4.42734
20
5.78646
11
-4.42716
21
5.78747
0
LINE
8
BLACK
6
CONTINUOUS
10
-4.42716
20
5.78747
11
-4.42586
21
5.78902
0
LINE
8
BLACK
6
CONTINUOUS
10
-4.42586
20
5.78902
11
-4.42387
21
5.78937
0
LINE
8
BLACK
6
CONTINUOUS
10
-4.42387
20
5.78937
11
-4.42213
21
5.78836
0
LINE
8
BLACK
6
CONTINUOUS
10
-4.37088
20
5.77612
11
-4.37075
21
5.776
0
LINE
8
BLACK
6
CONTINUOUS
10
-4.37075
20
5.776
11
-4.37057
21
5.77598
0
LINE
8
BLACK
6
CONTINUOUS
10
-4.37057
20
5.77598
11
-4.36682
21
5.77411
0
LINE
8
BLACK
6
CONTINUOUS
10
-4.36682
20
5.77411
11
-4.36611
21
5.77358
0
LINE
8
BLACK
6
CONTINUOUS
10
-4.36611
20
5.77358
11
-4.36606
21
5.77355
0
LINE
8
BLACK
6
CONTINUOUS
10
-4.36606
20
5.77355
11
-4.36418
21
5.77168
0
LINE
8
BLACK
6
CONTINUOUS
10
-4.36418
20
5.77168
11
-4.36368
21
5.77096
0
LINE
8
BLACK
6
CONTINUOUS
10
-4.36368
20
5.77096
11
-4.36363
21
5.77091
0
LINE
8
BLACK
6
CONTINUOUS
10
-4.36363
20
5.77091
11
-4.36175
21
5.76716
0
LINE
8
BLACK
6
CONTINUOUS
10
-4.36175
20
5.76716
11
-4.36146
21
5.76618
0
LINE
8
BLACK
6
CONTINUOUS
10
-4.36146
20
5.76618
11
-4.3615
21
5.76601
0
LINE
8
BLACK
6
CONTINUOUS
10
-4.3615
20
5.76601
11
-4.36144
21
5.76584
0
LINE
8
BLACK
6
CONTINUOUS
10
-4.36144
20
5.76584
11
-4.36144
21
5.75459
0
LINE
8
BLACK
6
CONTINUOUS
10
-4.36144
20
5.75459
11
-4.36162
21
5.75358
0
LINE
8
BLACK
6
CONTINUOUS
10
-4.36162
20
5.75358
11
-4.36173
21
5.75345
0
LINE
8
BLACK
6
CONTINUOUS
10
-4.36173
20
5.75345
11
-4.36175
21
5.75327
0
LINE
8
BLACK
6
CONTINUOUS
10
-4.36175
20
5.75327
11
-4.36363
21
5.74952
0
LINE
8
BLACK
6
CONTINUOUS
10
-4.36363
20
5.74952
11
-4.36415
21
5.74881
0
LINE
8
BLACK
6
CONTINUOUS
10
-4.36415
20
5.74881
11
-4.36418
21
5.74876
0
LINE
8
BLACK
6
CONTINUOUS
10
-4.36418
20
5.74876
11
-4.36606
21
5.74688
0
LINE
8
BLACK
6
CONTINUOUS
10
-4.36606
20
5.74688
11
-4.36678
21
5.74637
0
LINE
8
BLACK
6
CONTINUOUS
10
-4.36678
20
5.74637
11
-4.36682
21
5.74633
0
LINE
8
BLACK
6
CONTINUOUS
10
-4.36682
20
5.74633
11
-4.37057
21
5.74445
0
LINE
8
BLACK
6
CONTINUOUS
10
-4.37057
20
5.74445
11
-4.37156
21
5.74416
0
LINE
8
BLACK
6
CONTINUOUS
10
-4.37156
20
5.74416
11
-4.37173
21
5.7442
0
LINE
8
BLACK
6
CONTINUOUS
10
-4.37173
20
5.7442
11
-4.37189
21
5.74414
0
LINE
8
BLACK
6
CONTINUOUS
10
-4.37189
20
5.74414
11
-4.37752
21
5.74414
0
LINE
8
BLACK
6
CONTINUOUS
10
-4.37752
20
5.74414
11
-4.37853
21
5.74432
0
LINE
8
BLACK
6
CONTINUOUS
10
-4.37853
20
5.74432
11
-4.37866
21
5.74443
0
LINE
8
BLACK
6
CONTINUOUS
10
-4.37866
20
5.74443
11
-4.37884
21
5.74445
0
LINE
8
BLACK
6
CONTINUOUS
10
-4.37884
20
5.74445
11
-4.38259
21
5.74633
0
LINE
8
BLACK
6
CONTINUOUS
10
-4.38259
20
5.74633
11
-4.3833
21
5.74685
0
LINE
8
BLACK
6
CONTINUOUS
10
-4.3833
20
5.74685
11
-4.38336
21
5.74688
0
LINE
8
BLACK
6
CONTINUOUS
10
-4.38336
20
5.74688
11
-4.38523
21
5.74876
0
LINE
8
BLACK
6
CONTINUOUS
10
-4.38523
20
5.74876
11
-4.38574
21
5.74948
0
LINE
8
BLACK
6
CONTINUOUS
10
-4.38574
20
5.74948
11
-4.38578
21
5.74952
0
LINE
8
BLACK
6
CONTINUOUS
10
-4.38578
20
5.74952
11
-4.38766
21
5.75327
0
LINE
8
BLACK
6
CONTINUOUS
10
-4.38766
20
5.75327
11
-4.38795
21
5.75426
0
LINE
8
BLACK
6
CONTINUOUS
10
-4.38795
20
5.75426
11
-4.38791
21
5.75443
0
LINE
8
BLACK
6
CONTINUOUS
10
-4.38791
20
5.75443
11
-4.38797
21
5.75459
0
LINE
8
BLACK
6
CONTINUOUS
10
-4.38797
20
5.75459
11
-4.38797
21
5.76584
0
LINE
8
BLACK
6
CONTINUOUS
10
-4.38797
20
5.76584
11
-4.38779
21
5.76685
0
LINE
8
BLACK
6
CONTINUOUS
10
-4.38779
20
5.76685
11
-4.38768
21
5.76699
0
LINE
8
BLACK
6
CONTINUOUS
10
-4.38768
20
5.76699
11
-4.38766
21
5.76716
0
LINE
8
BLACK
6
CONTINUOUS
10
-4.38766
20
5.76716
11
-4.38578
21
5.77091
0
LINE
8
BLACK
6
CONTINUOUS
10
-4.38578
20
5.77091
11
-4.38526
21
5.77162
0
LINE
8
BLACK
6
CONTINUOUS
10
-4.38526
20
5.77162
11
-4.38523
21
5.77168
0
LINE
8
BLACK
6
CONTINUOUS
10
-4.38523
20
5.77168
11
-4.38336
21
5.77355
0
LINE
8
BLACK
6
CONTINUOUS
10
-4.38336
20
5.77355
11
-4.38263
21
5.77406
0
LINE
8
BLACK
6
CONTINUOUS
10
-4.38263
20
5.77406
11
-4.38259
21
5.77411
0
LINE
8
BLACK
6
CONTINUOUS
10
-4.38259
20
5.77411
11
-4.37884
21
5.77598
0
LINE
8
BLACK
6
CONTINUOUS
10
-4.37884
20
5.77598
11
-4.37786
21
5.77627
0
LINE
8
BLACK
6
CONTINUOUS
10
-4.37786
20
5.77627
11
-4.37768
21
5.77623
0
LINE
8
BLACK
6
CONTINUOUS
10
-4.37768
20
5.77623
11
-4.37752
21
5.77629
0
LINE
8
BLACK
6
CONTINUOUS
10
-4.37752
20
5.77629
11
-4.37189
21
5.77629
0
LINE
8
BLACK
6
CONTINUOUS
10
-4.37189
20
5.77629
11
-4.37088
21
5.77612
0
LINE
8
BLACK
6
CONTINUOUS
10
-4.37952
20
5.76904
11
-4.38072
21
5.76784
0
LINE
8
BLACK
6
CONTINUOUS
10
-4.38072
20
5.76784
11
-4.38206
21
5.76514
0
LINE
8
BLACK
6
CONTINUOUS
10
-4.38206
20
5.76514
11
-4.38206
21
5.75529
0
LINE
8
BLACK
6
CONTINUOUS
10
-4.38206
20
5.75529
11
-4.38072
21
5.75259
0
LINE
8
BLACK
6
CONTINUOUS
10
-4.38072
20
5.75259
11
-4.37952
21
5.7514
0
LINE
8
BLACK
6
CONTINUOUS
10
-4.37952
20
5.7514
11
-4.37682
21
5.75005
0
LINE
8
BLACK
6
CONTINUOUS
10
-4.37682
20
5.75005
11
-4.37259
21
5.75005
0
LINE
8
BLACK
6
CONTINUOUS
10
-4.37259
20
5.75005
11
-4.36989
21
5.7514
0
LINE
8
BLACK
6
CONTINUOUS
10
-4.36989
20
5.7514
11
-4.3687
21
5.75259
0
LINE
8
BLACK
6
CONTINUOUS
10
-4.3687
20
5.75259
11
-4.36735
21
5.75529
0
LINE
8
BLACK
6
CONTINUOUS
10
-4.36735
20
5.75529
11
-4.36735
21
5.76514
0
LINE
8
BLACK
6
CONTINUOUS
10
-4.36735
20
5.76514
11
-4.3687
21
5.76784
0
LINE
8
BLACK
6
CONTINUOUS
10
-4.3687
20
5.76784
11
-4.36989
21
5.76904
0
LINE
8
BLACK
6
CONTINUOUS
10
-4.36989
20
5.76904
11
-4.37259
21
5.77039
0
LINE
8
BLACK
6
CONTINUOUS
10
-4.37259
20
5.77039
11
-4.37682
21
5.77039
0
LINE
8
BLACK
6
CONTINUOUS
10
-4.37682
20
5.77039
11
-4.37952
21
5.76904
0
LINE
8
BLACK
6
CONTINUOUS
10
-4.53274
20
5.77524
11
-4.53205
21
5.77334
0
LINE
8
BLACK
6
CONTINUOUS
10
-4.53205
20
5.77334
11
-4.53205
21
5.74709
0
LINE
8
BLACK
6
CONTINUOUS
10
-4.53205
20
5.74709
11
-4.53222
21
5.74608
0
LINE
8
BLACK
6
CONTINUOUS
10
-4.53222
20
5.74608
11
-4.53352
21
5.74454
0
LINE
8
BLACK
6
CONTINUOUS
10
-4.53352
20
5.74454
11
-4.53551
21
5.74419
0
LINE
8
BLACK
6
CONTINUOUS
10
-4.53551
20
5.74419
11
-4.53726
21
5.7452
0
LINE
8
BLACK
6
CONTINUOUS
10
-4.53726
20
5.7452
11
-4.53795
21
5.74709
0
LINE
8
BLACK
6
CONTINUOUS
10
-4.53795
20
5.74709
11
-4.53795
21
5.77334
0
LINE
8
BLACK
6
CONTINUOUS
10
-4.53795
20
5.77334
11
-4.53777
21
5.77435
0
LINE
8
BLACK
6
CONTINUOUS
10
-4.53777
20
5.77435
11
-4.53647
21
5.7759
0
LINE
8
BLACK
6
CONTINUOUS
10
-4.53647
20
5.7759
11
-4.53449
21
5.77625
0
LINE
8
BLACK
6
CONTINUOUS
10
-4.53449
20
5.77625
11
-4.53274
21
5.77524
0
LINE
8
BLACK
6
CONTINUOUS
10
-4.50399
20
5.77612
11
-4.50244
21
5.77482
0
LINE
8
BLACK
6
CONTINUOUS
10
-4.50244
20
5.77482
11
-4.50209
21
5.77283
0
LINE
8
BLACK
6
CONTINUOUS
10
-4.50209
20
5.77283
11
-4.5031
21
5.77108
0
LINE
8
BLACK
6
CONTINUOUS
10
-4.5031
20
5.77108
11
-4.505
21
5.77039
0
LINE
8
BLACK
6
CONTINUOUS
10
-4.505
20
5.77039
11
-4.50805
21
5.77039
0
LINE
8
BLACK
6
CONTINUOUS
10
-4.50805
20
5.77039
11
-4.51075
21
5.76904
0
LINE
8
BLACK
6
CONTINUOUS
10
-4.51075
20
5.76904
11
-4.51195
21
5.76784
0
LINE
8
BLACK
6
CONTINUOUS
10
-4.51195
20
5.76784
11
-4.5133
21
5.76514
0
LINE
8
BLACK
6
CONTINUOUS
10
-4.5133
20
5.76514
11
-4.5133
21
5.74709
0
LINE
8
BLACK
6
CONTINUOUS
10
-4.5133
20
5.74709
11
-4.51348
21
5.74608
0
LINE
8
BLACK
6
CONTINUOUS
10
-4.51348
20
5.74608
11
-4.51477
21
5.74454
0
LINE
8
BLACK
6
CONTINUOUS
10
-4.51477
20
5.74454
11
-4.51676
21
5.74419
0
LINE
8
BLACK
6
CONTINUOUS
10
-4.51676
20
5.74419
11
-4.51851
21
5.7452
0
LINE
8
BLACK
6
CONTINUOUS
10
-4.51851
20
5.7452
11
-4.5192
21
5.74709
0
LINE
8
BLACK
6
CONTINUOUS
10
-4.5192
20
5.74709
11
-4.5192
21
5.77334
0
LINE
8
BLACK
6
CONTINUOUS
10
-4.5192
20
5.77334
11
-4.51903
21
5.77435
0
LINE
8
BLACK
6
CONTINUOUS
10
-4.51903
20
5.77435
11
-4.51773
21
5.7759
0
LINE
8
BLACK
6
CONTINUOUS
10
-4.51773
20
5.7759
11
-4.51574
21
5.77625
0
LINE
8
BLACK
6
CONTINUOUS
10
-4.51574
20
5.77625
11
-4.51399
21
5.77524
0
LINE
8
BLACK
6
CONTINUOUS
10
-4.51399
20
5.77524
11
-4.51361
21
5.77421
0
LINE
8
BLACK
6
CONTINUOUS
10
-4.51361
20
5.77421
11
-4.51007
21
5.77598
0
LINE
8
BLACK
6
CONTINUOUS
10
-4.51007
20
5.77598
11
-4.50909
21
5.77627
0
LINE
8
BLACK
6
CONTINUOUS
10
-4.50909
20
5.77627
11
-4.50892
21
5.77623
0
LINE
8
BLACK
6
CONTINUOUS
10
-4.50892
20
5.77623
11
-4.50875
21
5.77629
0
LINE
8
BLACK
6
CONTINUOUS
10
-4.50875
20
5.77629
11
-4.505
21
5.77629
0
LINE
8
BLACK
6
CONTINUOUS
10
-4.505
20
5.77629
11
-4.50399
21
5.77612
0
LINE
8
BLACK
6
CONTINUOUS
10
-4.39963
20
5.77524
11
-4.39894
21
5.77334
0
LINE
8
BLACK
6
CONTINUOUS
10
-4.39894
20
5.77334
11
-4.39894
21
5.74709
0
LINE
8
BLACK
6
CONTINUOUS
10
-4.39894
20
5.74709
11
-4.39912
21
5.74608
0
LINE
8
BLACK
6
CONTINUOUS
10
-4.39912
20
5.74608
11
-4.40041
21
5.74454
0
LINE
8
BLACK
6
CONTINUOUS
10
-4.40041
20
5.74454
11
-4.4024
21
5.74419
0
LINE
8
BLACK
6
CONTINUOUS
10
-4.4024
20
5.74419
11
-4.40415
21
5.7452
0
LINE
8
BLACK
6
CONTINUOUS
10
-4.40415
20
5.7452
11
-4.40484
21
5.74709
0
LINE
8
BLACK
6
CONTINUOUS
10
-4.40484
20
5.74709
11
-4.40484
21
5.77334
0
LINE
8
BLACK
6
CONTINUOUS
10
-4.40484
20
5.77334
11
-4.40466
21
5.77435
0
LINE
8
BLACK
6
CONTINUOUS
10
-4.40466
20
5.77435
11
-4.40337
21
5.7759
0
LINE
8
BLACK
6
CONTINUOUS
10
-4.40337
20
5.7759
11
-4.40138
21
5.77625
0
LINE
8
BLACK
6
CONTINUOUS
10
-4.40138
20
5.77625
11
-4.39963
21
5.77524
0
LINE
8
BLACK
6
CONTINUOUS
10
-4.33526
20
5.77612
11
-4.33513
21
5.776
0
LINE
8
BLACK
6
CONTINUOUS
10
-4.33513
20
5.776
11
-4.33495
21
5.77598
0
LINE
8
BLACK
6
CONTINUOUS
10
-4.33495
20
5.77598
11
-4.3312
21
5.77411
0
LINE
8
BLACK
6
CONTINUOUS
10
-4.3312
20
5.77411
11
-4.33038
21
5.7735
0
LINE
8
BLACK
6
CONTINUOUS
10
-4.33038
20
5.7735
11
-4.3302
21
5.77309
0
LINE
8
BLACK
6
CONTINUOUS
10
-4.3302
20
5.77309
11
-4.32988
21
5.77279
0
LINE
8
BLACK
6
CONTINUOUS
10
-4.32988
20
5.77279
11
-4.32801
21
5.76904
0
LINE
8
BLACK
6
CONTINUOUS
10
-4.32801
20
5.76904
11
-4.32772
21
5.76805
0
LINE
8
BLACK
6
CONTINUOUS
10
-4.32772
20
5.76805
11
-4.32776
21
5.76788
0
LINE
8
BLACK
6
CONTINUOUS
10
-4.32776
20
5.76788
11
-4.3277
21
5.76772
0
LINE
8
BLACK
6
CONTINUOUS
10
-4.3277
20
5.76772
11
-4.3277
21
5.74709
0
LINE
8
BLACK
6
CONTINUOUS
10
-4.3277
20
5.74709
11
-4.32787
21
5.74608
0
LINE
8
BLACK
6
CONTINUOUS
10
-4.32787
20
5.74608
11
-4.32917
21
5.74454
0
LINE
8
BLACK
6
CONTINUOUS
10
-4.32917
20
5.74454
11
-4.33116
21
5.74419
0
LINE
8
BLACK
6
CONTINUOUS
10
-4.33116
20
5.74419
11
-4.33291
21
5.7452
0
LINE
8
BLACK
6
CONTINUOUS
10
-4.33291
20
5.7452
11
-4.3336
21
5.74709
0
LINE
8
BLACK
6
CONTINUOUS
10
-4.3336
20
5.74709
11
-4.3336
21
5.76702
0
LINE
8
BLACK
6
CONTINUOUS
10
-4.3336
20
5.76702
11
-4.33472
21
5.76926
0
LINE
8
BLACK
6
CONTINUOUS
10
-4.33472
20
5.76926
11
-4.33697
21
5.77039
0
LINE
8
BLACK
6
CONTINUOUS
10
-4.33697
20
5.77039
11
-4.3412
21
5.77039
0
LINE
8
BLACK
6
CONTINUOUS
10
-4.3412
20
5.77039
11
-4.3439
21
5.76904
0
LINE
8
BLACK
6
CONTINUOUS
10
-4.3439
20
5.76904
11
-4.34457
21
5.76837
0
LINE
8
BLACK
6
CONTINUOUS
10
-4.34457
20
5.76837
11
-4.34457
21
5.74709
0
LINE
8
BLACK
6
CONTINUOUS
10
-4.34457
20
5.74709
11
-4.34475
21
5.74608
0
LINE
8
BLACK
6
CONTINUOUS
10
-4.34475
20
5.74608
11
-4.34605
21
5.74454
0
LINE
8
BLACK
6
CONTINUOUS
10
-4.34605
20
5.74454
11
-4.34803
21
5.74419
0
LINE
8
BLACK
6
CONTINUOUS
10
-4.34803
20
5.74419
11
-4.34978
21
5.7452
0
LINE
8
BLACK
6
CONTINUOUS
10
-4.34978
20
5.7452
11
-4.35047
21
5.74709
0
LINE
8
BLACK
6
CONTINUOUS
10
-4.35047
20
5.74709
11
-4.35047
21
5.77334
0
LINE
8
BLACK
6
CONTINUOUS
10
-4.35047
20
5.77334
11
-4.3503
21
5.77435
0
LINE
8
BLACK
6
CONTINUOUS
10
-4.3503
20
5.77435
11
-4.349
21
5.7759
0
LINE
8
BLACK
6
CONTINUOUS
10
-4.349
20
5.7759
11
-4.34701
21
5.77625
0
LINE
8
BLACK
6
CONTINUOUS
10
-4.34701
20
5.77625
11
-4.34526
21
5.77524
0
LINE
8
BLACK
6
CONTINUOUS
10
-4.34526
20
5.77524
11
-4.34517
21
5.775
0
LINE
8
BLACK
6
CONTINUOUS
10
-4.34517
20
5.775
11
-4.34322
21
5.77598
0
LINE
8
BLACK
6
CONTINUOUS
10
-4.34322
20
5.77598
11
-4.34223
21
5.77627
0
LINE
8
BLACK
6
CONTINUOUS
10
-4.34223
20
5.77627
11
-4.34206
21
5.77623
0
LINE
8
BLACK
6
CONTINUOUS
10
-4.34206
20
5.77623
11
-4.3419
21
5.77629
0
LINE
8
BLACK
6
CONTINUOUS
10
-4.3419
20
5.77629
11
-4.33627
21
5.77629
0
LINE
8
BLACK
6
CONTINUOUS
10
-4.33627
20
5.77629
11
-4.33526
21
5.77612
0
LINE
8
BLACK
6
CONTINUOUS
10
-4.29317
20
5.79551
11
-4.291
21
5.79335
0
LINE
8
BLACK
6
CONTINUOUS
10
-4.291
20
5.79335
11
-4.29021
21
5.79039
0
LINE
8
BLACK
6
CONTINUOUS
10
-4.29021
20
5.79039
11
-4.29021
21
5.78168
0
LINE
8
BLACK
6
CONTINUOUS
10
-4.29021
20
5.78168
11
-4.24494
21
5.78168
0
LINE
8
BLACK
6
CONTINUOUS
10
-4.24494
20
5.78168
11
-4.24198
21
5.78089
0
LINE
8
BLACK
6
CONTINUOUS
10
-4.24198
20
5.78089
11
-4.23982
21
5.77872
0
LINE
8
BLACK
6
CONTINUOUS
10
-4.23982
20
5.77872
11
-4.23903
21
5.77577
0
LINE
8
BLACK
6
CONTINUOUS
10
-4.23903
20
5.77577
11
-4.23982
21
5.77282
0
LINE
8
BLACK
6
CONTINUOUS
10
-4.23982
20
5.77282
11
-4.24198
21
5.77066
0
LINE
8
BLACK
6
CONTINUOUS
10
-4.24198
20
5.77066
11
-4.24494
21
5.76987
0
LINE
8
BLACK
6
CONTINUOUS
10
-4.24494
20
5.76987
11
-4.29021
21
5.76987
0
LINE
8
BLACK
6
CONTINUOUS
10
-4.29021
20
5.76987
11
-4.29021
21
5.76115
0
LINE
8
BLACK
6
CONTINUOUS
10
-4.29021
20
5.76115
11
-4.291
21
5.7582
0
LINE
8
BLACK
6
CONTINUOUS
10
-4.291
20
5.7582
11
-4.29317
21
5.75603
0
LINE
8
BLACK
6
CONTINUOUS
10
-4.29317
20
5.75603
11
-4.29612
21
5.75524
0
LINE
8
BLACK
6
CONTINUOUS
10
-4.29612
20
5.75524
11
-4.29907
21
5.75603
0
LINE
8
BLACK
6
CONTINUOUS
10
-4.29907
20
5.75603
11
-4.30123
21
5.7582
0
LINE
8
BLACK
6
CONTINUOUS
10
-4.30123
20
5.7582
11
-4.30202
21
5.76115
0
LINE
8
BLACK
6
CONTINUOUS
10
-4.30202
20
5.76115
11
-4.30202
21
5.79039
0
LINE
8
BLACK
6
CONTINUOUS
10
-4.30202
20
5.79039
11
-4.30123
21
5.79335
0
LINE
8
BLACK
6
CONTINUOUS
10
-4.30123
20
5.79335
11
-4.29907
21
5.79551
0
LINE
8
BLACK
6
CONTINUOUS
10
-4.29907
20
5.79551
11
-4.29612
21
5.7963
0
LINE
8
BLACK
6
CONTINUOUS
10
-4.29612
20
5.7963
11
-4.29317
21
5.79551
0
LINE
8
BLACK
6
CONTINUOUS
10
-4.81244
20
5.85437
11
-4.81077
21
5.85368
0
LINE
8
BLACK
6
CONTINUOUS
10
-4.81077
20
5.85368
11
-4.81008
21
5.85201
0
LINE
8
BLACK
6
CONTINUOUS
10
-4.81008
20
5.85201
11
-4.81008
21
5.7835
0
LINE
8
BLACK
6
CONTINUOUS
10
-4.81008
20
5.7835
11
-4.77346
21
5.7835
0
LINE
8
BLACK
6
CONTINUOUS
10
-4.77346
20
5.7835
11
-4.77179
21
5.78281
0
LINE
8
BLACK
6
CONTINUOUS
10
-4.77179
20
5.78281
11
-4.7711
21
5.78114
0
LINE
8
BLACK
6
CONTINUOUS
10
-4.7711
20
5.78114
11
-4.77179
21
5.77947
0
LINE
8
BLACK
6
CONTINUOUS
10
-4.77179
20
5.77947
11
-4.77346
21
5.77878
0
LINE
8
BLACK
6
CONTINUOUS
10
-4.77346
20
5.77878
11
-4.81244
21
5.77878
0
LINE
8
BLACK
6
CONTINUOUS
10
-4.81244
20
5.77878
11
-4.81411
21
5.77947
0
LINE
8
BLACK
6
CONTINUOUS
10
-4.81411
20
5.77947
11
-4.8148
21
5.78114
0
LINE
8
BLACK
6
CONTINUOUS
10
-4.8148
20
5.78114
11
-4.8148
21
5.84965
0
LINE
8
BLACK
6
CONTINUOUS
10
-4.8148
20
5.84965
11
-4.86953
21
5.84965
0
LINE
8
BLACK
6
CONTINUOUS
10
-4.86953
20
5.84965
11
-4.8712
21
5.85034
0
LINE
8
BLACK
6
CONTINUOUS
10
-4.8712
20
5.85034
11
-4.87189
21
5.85201
0
LINE
8
BLACK
6
CONTINUOUS
10
-4.87189
20
5.85201
11
-4.8712
21
5.85368
0
LINE
8
BLACK
6
CONTINUOUS
10
-4.8712
20
5.85368
11
-4.86953
21
5.85437
0
LINE
8
BLACK
6
CONTINUOUS
10
-4.86953
20
5.85437
11
-4.81244
21
5.85437
0
LINE
8
BLACK
6
CONTINUOUS
10
-4.12455
20
5.85368
11
-4.12386
21
5.85201
0
LINE
8
BLACK
6
CONTINUOUS
10
-4.12386
20
5.85201
11
-4.12455
21
5.85034
0
LINE
8
BLACK
6
CONTINUOUS
10
-4.12455
20
5.85034
11
-4.12622
21
5.84965
0
LINE
8
BLACK
6
CONTINUOUS
10
-4.12622
20
5.84965
11
-4.18094
21
5.84965
0
LINE
8
BLACK
6
CONTINUOUS
10
-4.18094
20
5.84965
11
-4.18094
21
5.78114
0
LINE
8
BLACK
6
CONTINUOUS
10
-4.18094
20
5.78114
11
-4.18164
21
5.77947
0
LINE
8
BLACK
6
CONTINUOUS
10
-4.18164
20
5.77947
11
-4.18331
21
5.77878
0
LINE
8
BLACK
6
CONTINUOUS
10
-4.18331
20
5.77878
11
-4.18498
21
5.77947
0
LINE
8
BLACK
6
CONTINUOUS
10
-4.18498
20
5.77947
11
-4.18567
21
5.78114
0
LINE
8
BLACK
6
CONTINUOUS
10
-4.18567
20
5.78114
11
-4.18567
21
5.85201
0
LINE
8
BLACK
6
CONTINUOUS
10
-4.18567
20
5.85201
11
-4.18498
21
5.85368
0
LINE
8
BLACK
6
CONTINUOUS
10
-4.18498
20
5.85368
11
-4.18331
21
5.85437
0
LINE
8
BLACK
6
CONTINUOUS
10
-4.18331
20
5.85437
11
-4.12622
21
5.85437
0
LINE
8
BLACK
6
CONTINUOUS
10
-4.12622
20
5.85437
11
-4.12455
21
5.85368
0
LINE
8
BLACK
6
CONTINUOUS
10
-4.53462
20
5.78935
11
-4.53449
21
5.78937
0
LINE
8
BLACK
6
CONTINUOUS
10
-4.53449
20
5.78937
11
-4.53437
21
5.7893
0
LINE
8
BLACK
6
CONTINUOUS
10
-4.53437
20
5.7893
11
-4.53423
21
5.78932
0
LINE
8
BLACK
6
CONTINUOUS
10
-4.53423
20
5.78932
11
-4.53361
21
5.78888
0
LINE
8
BLACK
6
CONTINUOUS
10
-4.53361
20
5.78888
11
-4.53291
21
5.78855
0
LINE
8
BLACK
6
CONTINUOUS
10
-4.53291
20
5.78855
11
-4.53104
21
5.78668
0
LINE
8
BLACK
6
CONTINUOUS
10
-4.53104
20
5.78668
11
-4.53081
21
5.78636
0
LINE
8
BLACK
6
CONTINUOUS
10
-4.53081
20
5.78636
11
-4.5307
21
5.78628
0
LINE
8
BLACK
6
CONTINUOUS
10
-4.5307
20
5.78628
11
-4.53067
21
5.78616
0
LINE
8
BLACK
6
CONTINUOUS
10
-4.53067
20
5.78616
11
-4.53045
21
5.78584
0
LINE
8
BLACK
6
CONTINUOUS
10
-4.53045
20
5.78584
11
-4.53038
21
5.78507
0
LINE
8
BLACK
6
CONTINUOUS
10
-4.53038
20
5.78507
11
-4.53018
21
5.78433
0
LINE
8
BLACK
6
CONTINUOUS
10
-4.53018
20
5.78433
11
-4.53029
21
5.78409
0
LINE
8
BLACK
6
CONTINUOUS
10
-4.53029
20
5.78409
11
-4.53027
21
5.78382
0
LINE
8
BLACK
6
CONTINUOUS
10
-4.53027
20
5.78382
11
-4.53071
21
5.7832
0
LINE
8
BLACK
6
CONTINUOUS
10
-4.53071
20
5.7832
11
-4.53104
21
5.7825
0
LINE
8
BLACK
6
CONTINUOUS
10
-4.53104
20
5.7825
11
-4.53291
21
5.78063
0
LINE
8
BLACK
6
CONTINUOUS
10
-4.53291
20
5.78063
11
-4.53323
21
5.7804
0
LINE
8
BLACK
6
CONTINUOUS
10
-4.53323
20
5.7804
11
-4.5333
21
5.7803
0
LINE
8
BLACK
6
CONTINUOUS
10
-4.5333
20
5.7803
11
-4.53343
21
5.78026
0
LINE
8
BLACK
6
CONTINUOUS
10
-4.53343
20
5.78026
11
-4.53344
21
5.78026
0
LINE
8
BLACK
6
CONTINUOUS
10
-4.53344
20
5.78026
11
-4.53352
21
5.78016
0
LINE
8
BLACK
6
CONTINUOUS
10
-4.53352
20
5.78016
11
-4.5336
21
5.78014
0
LINE
8
BLACK
6
CONTINUOUS
10
-4.5336
20
5.78014
11
-4.53375
21
5.78004
0
LINE
8
BLACK
6
CONTINUOUS
10
-4.53375
20
5.78004
11
-4.53451
21
5.77997
0
LINE
8
BLACK
6
CONTINUOUS
10
-4.53451
20
5.77997
11
-4.53526
21
5.77977
0
LINE
8
BLACK
6
CONTINUOUS
10
-4.53526
20
5.77977
11
-4.53538
21
5.77983
0
LINE
8
BLACK
6
CONTINUOUS
10
-4.53538
20
5.77983
11
-4.53551
21
5.77981
0
LINE
8
BLACK
6
CONTINUOUS
10
-4.53551
20
5.77981
11
-4.53563
21
5.77987
0
LINE
8
BLACK
6
CONTINUOUS
10
-4.53563
20
5.77987
11
-4.53576
21
5.77986
0
LINE
8
BLACK
6
CONTINUOUS
10
-4.53576
20
5.77986
11
-4.53639
21
5.7803
0
LINE
8
BLACK
6
CONTINUOUS
10
-4.53639
20
5.7803
11
-4.53709
21
5.78063
0
LINE
8
BLACK
6
CONTINUOUS
10
-4.53709
20
5.78063
11
-4.53896
21
5.7825
0
LINE
8
BLACK
6
CONTINUOUS
10
-4.53896
20
5.7825
11
-4.53918
21
5.78282
0
LINE
8
BLACK
6
CONTINUOUS
10
-4.53918
20
5.78282
11
-4.53929
21
5.7829
0
LINE
8
BLACK
6
CONTINUOUS
10
-4.53929
20
5.7829
11
-4.53933
21
5.78302
0
LINE
8
BLACK
6
CONTINUOUS
10
-4.53933
20
5.78302
11
-4.53955
21
5.78334
0
LINE
8
BLACK
6
CONTINUOUS
10
-4.53955
20
5.78334
11
-4.53962
21
5.78411
0
LINE
8
BLACK
6
CONTINUOUS
10
-4.53962
20
5.78411
11
-4.53981
21
5.78485
0
LINE
8
BLACK
6
CONTINUOUS
10
-4.53981
20
5.78485
11
-4.5397
21
5.78509
0
LINE
8
BLACK
6
CONTINUOUS
10
-4.5397
20
5.78509
11
-4.53973
21
5.78535
0
LINE
8
BLACK
6
CONTINUOUS
10
-4.53973
20
5.78535
11
-4.53928
21
5.78598
0
LINE
8
BLACK
6
CONTINUOUS
10
-4.53928
20
5.78598
11
-4.53896
21
5.78668
0
LINE
8
BLACK
6
CONTINUOUS
10
-4.53896
20
5.78668
11
-4.53709
21
5.78855
0
LINE
8
BLACK
6
CONTINUOUS
10
-4.53709
20
5.78855
11
-4.53677
21
5.78878
0
LINE
8
BLACK
6
CONTINUOUS
10
-4.53677
20
5.78878
11
-4.53669
21
5.78888
0
LINE
8
BLACK
6
CONTINUOUS
10
-4.53669
20
5.78888
11
-4.53656
21
5.78892
0
LINE
8
BLACK
6
CONTINUOUS
10
-4.53656
20
5.78892
11
-4.53656
21
5.78892
0
LINE
8
BLACK
6
CONTINUOUS
10
-4.53656
20
5.78892
11
-4.53647
21
5.78902
0
LINE
8
BLACK
6
CONTINUOUS
10
-4.53647
20
5.78902
11
-4.5364
21
5.78903
0
LINE
8
BLACK
6
CONTINUOUS
10
-4.5364
20
5.78903
11
-4.53625
21
5.78914
0
LINE
8
BLACK
6
CONTINUOUS
10
-4.53625
20
5.78914
11
-4.53548
21
5.78921
0
LINE
8
BLACK
6
CONTINUOUS
10
-4.53548
20
5.78921
11
-4.53474
21
5.78941
0
LINE
8
BLACK
6
CONTINUOUS
10
-4.53474
20
5.78941
11
-4.53462
21
5.78935
0
LINE
8
BLACK
6
CONTINUOUS
10
-4.40151
20
5.78935
11
-4.40138
21
5.78937
0
LINE
8
BLACK
6
CONTINUOUS
10
-4.40138
20
5.78937
11
-4.40126
21
5.7893
0
LINE
8
BLACK
6
CONTINUOUS
10
-4.40126
20
5.7893
11
-4.40113
21
5.78932
0
LINE
8
BLACK
6
CONTINUOUS
10
-4.40113
20
5.78932
11
-4.4005
21
5.78888
0
LINE
8
BLACK
6
CONTINUOUS
10
-4.4005
20
5.78888
11
-4.3998
21
5.78855
0
LINE
8
BLACK
6
CONTINUOUS
10
-4.3998
20
5.78855
11
-4.39793
21
5.78668
0
LINE
8
BLACK
6
CONTINUOUS
10
-4.39793
20
5.78668
11
-4.3977
21
5.78636
0
LINE
8
BLACK
6
CONTINUOUS
10
-4.3977
20
5.78636
11
-4.3976
21
5.78628
0
LINE
8
BLACK
6
CONTINUOUS
10
-4.3976
20
5.78628
11
-4.39756
21
5.78616
0
LINE
8
BLACK
6
CONTINUOUS
10
-4.39756
20
5.78616
11
-4.39734
21
5.78584
0
LINE
8
BLACK
6
CONTINUOUS
10
-4.39734
20
5.78584
11
-4.39727
21
5.78507
0
LINE
8
BLACK
6
CONTINUOUS
10
-4.39727
20
5.78507
11
-4.39707
21
5.78433
0
LINE
8
BLACK
6
CONTINUOUS
10
-4.39707
20
5.78433
11
-4.39719
21
5.78409
0
LINE
8
BLACK
6
CONTINUOUS
10
-4.39719
20
5.78409
11
-4.39716
21
5.78382
0
LINE
8
BLACK
6
CONTINUOUS
10
-4.39716
20
5.78382
11
-4.3976
21
5.7832
0
LINE
8
BLACK
6
CONTINUOUS
10
-4.3976
20
5.7832
11
-4.39793
21
5.7825
0
LINE
8
BLACK
6
CONTINUOUS
10
-4.39793
20
5.7825
11
-4.3998
21
5.78063
0
LINE
8
BLACK
6
CONTINUOUS
10
-4.3998
20
5.78063
11
-4.40012
21
5.7804
0
LINE
8
BLACK
6
CONTINUOUS
10
-4.40012
20
5.7804
11
-4.4002
21
5.7803
0
LINE
8
BLACK
6
CONTINUOUS
10
-4.4002
20
5.7803
11
-4.40032
21
5.78026
0
LINE
8
BLACK
6
CONTINUOUS
10
-4.40032
20
5.78026
11
-4.40033
21
5.78026
0
LINE
8
BLACK
6
CONTINUOUS
10
-4.40033
20
5.78026
11
-4.40041
21
5.78016
0
LINE
8
BLACK
6
CONTINUOUS
10
-4.40041
20
5.78016
11
-4.40049
21
5.78014
0
LINE
8
BLACK
6
CONTINUOUS
10
-4.40049
20
5.78014
11
-4.40064
21
5.78004
0
LINE
8
BLACK
6
CONTINUOUS
10
-4.40064
20
5.78004
11
-4.40141
21
5.77997
0
LINE
8
BLACK
6
CONTINUOUS
10
-4.40141
20
5.77997
11
-4.40215
21
5.77977
0
LINE
8
BLACK
6
CONTINUOUS
10
-4.40215
20
5.77977
11
-4.40227
21
5.77983
0
LINE
8
BLACK
6
CONTINUOUS
10
-4.40227
20
5.77983
11
-4.4024
21
5.77981
0
LINE
8
BLACK
6
CONTINUOUS
10
-4.4024
20
5.77981
11
-4.40252
21
5.77987
0
LINE
8
BLACK
6
CONTINUOUS
10
-4.40252
20
5.77987
11
-4.40265
21
5.77986
0
LINE
8
BLACK
6
CONTINUOUS
10
-4.40265
20
5.77986
11
-4.40328
21
5.7803
0
LINE
8
BLACK
6
CONTINUOUS
10
-4.40328
20
5.7803
11
-4.40398
21
5.78063
0
LINE
8
BLACK
6
CONTINUOUS
10
-4.40398
20
5.78063
11
-4.40585
21
5.7825
0
LINE
8
BLACK
6
CONTINUOUS
10
-4.40585
20
5.7825
11
-4.40608
21
5.78282
0
LINE
8
BLACK
6
CONTINUOUS
10
-4.40608
20
5.78282
11
-4.40618
21
5.7829
0
LINE
8
BLACK
6
CONTINUOUS
10
-4.40618
20
5.7829
11
-4.40622
21
5.78302
0
LINE
8
BLACK
6
CONTINUOUS
10
-4.40622
20
5.78302
11
-4.40644
21
5.78334
0
LINE
8
BLACK
6
CONTINUOUS
10
-4.40644
20
5.78334
11
-4.40651
21
5.78411
0
LINE
8
BLACK
6
CONTINUOUS
10
-4.40651
20
5.78411
11
-4.40671
21
5.78485
0
LINE
8
BLACK
6
CONTINUOUS
10
-4.40671
20
5.78485
11
-4.40659
21
5.78509
0
LINE
8
BLACK
6
CONTINUOUS
10
-4.40659
20
5.78509
11
-4.40662
21
5.78535
0
LINE
8
BLACK
6
CONTINUOUS
10
-4.40662
20
5.78535
11
-4.40618
21
5.78598
0
LINE
8
BLACK
6
CONTINUOUS
10
-4.40618
20
5.78598
11
-4.40585
21
5.78668
0
LINE
8
BLACK
6
CONTINUOUS
10
-4.40585
20
5.78668
11
-4.40398
21
5.78855
0
LINE
8
BLACK
6
CONTINUOUS
10
-4.40398
20
5.78855
11
-4.40366
21
5.78878
0
LINE
8
BLACK
6
CONTINUOUS
10
-4.40366
20
5.78878
11
-4.40358
21
5.78888
0
LINE
8
BLACK
6
CONTINUOUS
10
-4.40358
20
5.78888
11
-4.40346
21
5.78892
0
LINE
8
BLACK
6
CONTINUOUS
10
-4.40346
20
5.78892
11
-4.40345
21
5.78892
0
LINE
8
BLACK
6
CONTINUOUS
10
-4.40345
20
5.78892
11
-4.40337
21
5.78902
0
LINE
8
BLACK
6
CONTINUOUS
10
-4.40337
20
5.78902
11
-4.40329
21
5.78903
0
LINE
8
BLACK
6
CONTINUOUS
10
-4.40329
20
5.78903
11
-4.40314
21
5.78914
0
LINE
8
BLACK
6
CONTINUOUS
10
-4.40314
20
5.78914
11
-4.40237
21
5.78921
0
LINE
8
BLACK
6
CONTINUOUS
10
-4.40237
20
5.78921
11
-4.40163
21
5.78941
0
LINE
8
BLACK
6
CONTINUOUS
10
-4.40163
20
5.78941
11
-4.40151
21
5.78935
0
LINE
8
BLACK
6
CONTINUOUS
10
-4.26373
20
5.83998
11
-4.263
21
5.83999
0
LINE
8
BLACK
6
CONTINUOUS
10
-4.263
20
5.83999
11
-4.25325
21
5.83756
0
LINE
8
BLACK
6
CONTINUOUS
10
-4.25325
20
5.83756
11
-4.25268
21
5.83724
0
LINE
8
BLACK
6
CONTINUOUS
10
-4.25268
20
5.83724
11
-4.25204
21
5.83711
0
LINE
8
BLACK
6
CONTINUOUS
10
-4.25204
20
5.83711
11
-4.24717
21
5.83467
0
LINE
8
BLACK
6
CONTINUOUS
10
-4.24717
20
5.83467
11
-4.24646
21
5.83404
0
LINE
8
BLACK
6
CONTINUOUS
10
-4.24646
20
5.83404
11
-4.24564
21
5.83357
0
LINE
8
BLACK
6
CONTINUOUS
10
-4.24564
20
5.83357
11
-4.2432
21
5.83113
0
LINE
8
BLACK
6
CONTINUOUS
10
-4.2432
20
5.83113
11
-4.24272
21
5.83031
0
LINE
8
BLACK
6
CONTINUOUS
10
-4.24272
20
5.83031
11
-4.24209
21
5.82959
0
LINE
8
BLACK
6
CONTINUOUS
10
-4.24209
20
5.82959
11
-4.23965
21
5.82472
0
LINE
8
BLACK
6
CONTINUOUS
10
-4.23965
20
5.82472
11
-4.23938
21
5.82339
0
LINE
8
BLACK
6
CONTINUOUS
10
-4.23938
20
5.82339
11
-4.23903
21
5.82208
0
LINE
8
BLACK
6
CONTINUOUS
10
-4.23903
20
5.82208
11
-4.23903
21
5.8172
0
LINE
8
BLACK
6
CONTINUOUS
10
-4.23903
20
5.8172
11
-4.23938
21
5.81589
0
LINE
8
BLACK
6
CONTINUOUS
10
-4.23938
20
5.81589
11
-4.23965
21
5.81456
0
LINE
8
BLACK
6
CONTINUOUS
10
-4.23965
20
5.81456
11
-4.24209
21
5.80969
0
LINE
8
BLACK
6
CONTINUOUS
10
-4.24209
20
5.80969
11
-4.24272
21
5.80898
0
LINE
8
BLACK
6
CONTINUOUS
10
-4.24272
20
5.80898
11
-4.2432
21
5.80815
0
LINE
8
BLACK
6
CONTINUOUS
10
-4.2432
20
5.80815
11
-4.24564
21
5.80572
0
LINE
8
BLACK
6
CONTINUOUS
10
-4.24564
20
5.80572
11
-4.24646
21
5.80524
0
LINE
8
BLACK
6
CONTINUOUS
10
-4.24646
20
5.80524
11
-4.24717
21
5.80461
0
LINE
8
BLACK
6
CONTINUOUS
10
-4.24717
20
5.80461
11
-4.25204
21
5.80217
0
LINE
8
BLACK
6
CONTINUOUS
10
-4.25204
20
5.80217
11
-4.25268
21
5.80204
0
LINE
8
BLACK
6
CONTINUOUS
10
-4.25268
20
5.80204
11
-4.25325
21
5.80173
0
LINE
8
BLACK
6
CONTINUOUS
10
-4.25325
20
5.80173
11
-4.263
21
5.79929
0
LINE
8
BLACK
6
CONTINUOUS
10
-4.263
20
5.79929
11
-4.26373
21
5.7993
0
LINE
8
BLACK
6
CONTINUOUS
10
-4.26373
20
5.7993
11
-4.26443
21
5.79911
0
LINE
8
BLACK
6
CONTINUOUS
10
-4.26443
20
5.79911
11
-4.27662
21
5.79911
0
LINE
8
BLACK
6
CONTINUOUS
10
-4.27662
20
5.79911
11
-4.27732
21
5.7993
0
LINE
8
BLACK
6
CONTINUOUS
10
-4.27732
20
5.7993
11
-4.27805
21
5.79929
0
LINE
8
BLACK
6
CONTINUOUS
10
-4.27805
20
5.79929
11
-4.2878
21
5.80173
0
LINE
8
BLACK
6
CONTINUOUS
10
-4.2878
20
5.80173
11
-4.28837
21
5.80204
0
LINE
8
BLACK
6
CONTINUOUS
10
-4.28837
20
5.80204
11
-4.28901
21
5.80217
0
LINE
8
BLACK
6
CONTINUOUS
10
-4.28901
20
5.80217
11
-4.29388
21
5.80461
0
LINE
8
BLACK
6
CONTINUOUS
10
-4.29388
20
5.80461
11
-4.2946
21
5.80524
0
LINE
8
BLACK
6
CONTINUOUS
10
-4.2946
20
5.80524
11
-4.29542
21
5.80572
0
LINE
8
BLACK
6
CONTINUOUS
10
-4.29542
20
5.80572
11
-4.29786
21
5.80815
0
LINE
8
BLACK
6
CONTINUOUS
10
-4.29786
20
5.80815
11
-4.29833
21
5.80898
0
LINE
8
BLACK
6
CONTINUOUS
10
-4.29833
20
5.80898
11
-4.29896
21
5.80969
0
LINE
8
BLACK
6
CONTINUOUS
10
-4.29896
20
5.80969
11
-4.3014
21
5.81456
0
LINE
8
BLACK
6
CONTINUOUS
10
-4.3014
20
5.81456
11
-4.30167
21
5.81589
0
LINE
8
BLACK
6
CONTINUOUS
10
-4.30167
20
5.81589
11
-4.30202
21
5.8172
0
LINE
8
BLACK
6
CONTINUOUS
10
-4.30202
20
5.8172
11
-4.30202
21
5.82208
0
LINE
8
BLACK
6
CONTINUOUS
10
-4.30202
20
5.82208
11
-4.30167
21
5.82339
0
LINE
8
BLACK
6
CONTINUOUS
10
-4.30167
20
5.82339
11
-4.3014
21
5.82472
0
LINE
8
BLACK
6
CONTINUOUS
10
-4.3014
20
5.82472
11
-4.29896
21
5.82959
0
LINE
8
BLACK
6
CONTINUOUS
10
-4.29896
20
5.82959
11
-4.29833
21
5.83031
0
LINE
8
BLACK
6
CONTINUOUS
10
-4.29833
20
5.83031
11
-4.29786
21
5.83113
0
LINE
8
BLACK
6
CONTINUOUS
10
-4.29786
20
5.83113
11
-4.29542
21
5.83357
0
LINE
8
BLACK
6
CONTINUOUS
10
-4.29542
20
5.83357
11
-4.2946
21
5.83404
0
LINE
8
BLACK
6
CONTINUOUS
10
-4.2946
20
5.83404
11
-4.29388
21
5.83467
0
LINE
8
BLACK
6
CONTINUOUS
10
-4.29388
20
5.83467
11
-4.28901
21
5.83711
0
LINE
8
BLACK
6
CONTINUOUS
10
-4.28901
20
5.83711
11
-4.28837
21
5.83724
0
LINE
8
BLACK
6
CONTINUOUS
10
-4.28837
20
5.83724
11
-4.2878
21
5.83756
0
LINE
8
BLACK
6
CONTINUOUS
10
-4.2878
20
5.83756
11
-4.27805
21
5.83999
0
LINE
8
BLACK
6
CONTINUOUS
10
-4.27805
20
5.83999
11
-4.27732
21
5.83998
0
LINE
8
BLACK
6
CONTINUOUS
10
-4.27732
20
5.83998
11
-4.27662
21
5.84017
0
LINE
8
BLACK
6
CONTINUOUS
10
-4.27662
20
5.84017
11
-4.26443
21
5.84017
0
LINE
8
BLACK
6
CONTINUOUS
10
-4.26443
20
5.84017
11
-4.26373
21
5.83998
0
LINE
8
BLACK
6
CONTINUOUS
10
-4.28431
20
5.82626
11
-4.28775
21
5.82454
0
LINE
8
BLACK
6
CONTINUOUS
10
-4.28775
20
5.82454
11
-4.28883
21
5.82345
0
LINE
8
BLACK
6
CONTINUOUS
10
-4.28883
20
5.82345
11
-4.29021
21
5.82068
0
LINE
8
BLACK
6
CONTINUOUS
10
-4.29021
20
5.82068
11
-4.29021
21
5.8186
0
LINE
8
BLACK
6
CONTINUOUS
10
-4.29021
20
5.8186
11
-4.28883
21
5.81583
0
LINE
8
BLACK
6
CONTINUOUS
10
-4.28883
20
5.81583
11
-4.28775
21
5.81475
0
LINE
8
BLACK
6
CONTINUOUS
10
-4.28775
20
5.81475
11
-4.28431
21
5.81303
0
LINE
8
BLACK
6
CONTINUOUS
10
-4.28431
20
5.81303
11
-4.27589
21
5.81092
0
LINE
8
BLACK
6
CONTINUOUS
10
-4.27589
20
5.81092
11
-4.26516
21
5.81092
0
LINE
8
BLACK
6
CONTINUOUS
10
-4.26516
20
5.81092
11
-4.25675
21
5.81303
0
LINE
8
BLACK
6
CONTINUOUS
10
-4.25675
20
5.81303
11
-4.25331
21
5.81475
0
LINE
8
BLACK
6
CONTINUOUS
10
-4.25331
20
5.81475
11
-4.25223
21
5.81583
0
LINE
8
BLACK
6
CONTINUOUS
10
-4.25223
20
5.81583
11
-4.25084
21
5.8186
0
LINE
8
BLACK
6
CONTINUOUS
10
-4.25084
20
5.8186
11
-4.25084
21
5.82068
0
LINE
8
BLACK
6
CONTINUOUS
10
-4.25084
20
5.82068
11
-4.25223
21
5.82345
0
LINE
8
BLACK
6
CONTINUOUS
10
-4.25223
20
5.82345
11
-4.25331
21
5.82454
0
LINE
8
BLACK
6
CONTINUOUS
10
-4.25331
20
5.82454
11
-4.25675
21
5.82626
0
LINE
8
BLACK
6
CONTINUOUS
10
-4.25675
20
5.82626
11
-4.26516
21
5.82836
0
LINE
8
BLACK
6
CONTINUOUS
10
-4.26516
20
5.82836
11
-4.27589
21
5.82836
0
LINE
8
BLACK
6
CONTINUOUS
10
-4.27589
20
5.82836
11
-4.28431
21
5.82626
0
LINE
8
BLACK
6
CONTINUOUS
10
-4.54924
20
5.90367
11
-4.54791
21
5.9034
0
LINE
8
BLACK
6
CONTINUOUS
10
-4.54791
20
5.9034
11
-4.54303
21
5.90096
0
LINE
8
BLACK
6
CONTINUOUS
10
-4.54303
20
5.90096
11
-4.54232
21
5.90033
0
LINE
8
BLACK
6
CONTINUOUS
10
-4.54232
20
5.90033
11
-4.5415
21
5.89986
0
LINE
8
BLACK
6
CONTINUOUS
10
-4.5415
20
5.89986
11
-4.53906
21
5.89742
0
LINE
8
BLACK
6
CONTINUOUS
10
-4.53906
20
5.89742
11
-4.53858
21
5.8966
0
LINE
8
BLACK
6
CONTINUOUS
10
-4.53858
20
5.8966
11
-4.53795
21
5.89588
0
LINE
8
BLACK
6
CONTINUOUS
10
-4.53795
20
5.89588
11
-4.53552
21
5.89101
0
LINE
8
BLACK
6
CONTINUOUS
10
-4.53552
20
5.89101
11
-4.53524
21
5.88968
0
LINE
8
BLACK
6
CONTINUOUS
10
-4.53524
20
5.88968
11
-4.53489
21
5.88837
0
LINE
8
BLACK
6
CONTINUOUS
10
-4.53489
20
5.88837
11
-4.53489
21
5.88106
0
LINE
8
BLACK
6
CONTINUOUS
10
-4.53489
20
5.88106
11
-4.53524
21
5.87975
0
LINE
8
BLACK
6
CONTINUOUS
10
-4.53524
20
5.87975
11
-4.53552
21
5.87842
0
LINE
8
BLACK
6
CONTINUOUS
10
-4.53552
20
5.87842
11
-4.53795
21
5.87354
0
LINE
8
BLACK
6
CONTINUOUS
10
-4.53795
20
5.87354
11
-4.53858
21
5.87283
0
LINE
8
BLACK
6
CONTINUOUS
10
-4.53858
20
5.87283
11
-4.53906
21
5.87201
0
LINE
8
BLACK
6
CONTINUOUS
10
-4.53906
20
5.87201
11
-4.5415
21
5.86957
0
LINE
8
BLACK
6
CONTINUOUS
10
-4.5415
20
5.86957
11
-4.54232
21
5.86909
0
LINE
8
BLACK
6
CONTINUOUS
10
-4.54232
20
5.86909
11
-4.54303
21
5.86846
0
LINE
8
BLACK
6
CONTINUOUS
10
-4.54303
20
5.86846
11
-4.54791
21
5.86603
0
LINE
8
BLACK
6
CONTINUOUS
10
-4.54791
20
5.86603
11
-4.54924
21
5.86575
0
LINE
8
BLACK
6
CONTINUOUS
10
-4.54924
20
5.86575
11
-4.55055
21
5.8654
0
LINE
8
BLACK
6
CONTINUOUS
10
-4.55055
20
5.8654
11
-4.56414
21
5.8654
0
LINE
8
BLACK
6
CONTINUOUS
10
-4.56414
20
5.8654
11
-4.56414
21
5.84694
0
LINE
8
BLACK
6
CONTINUOUS
10
-4.56414
20
5.84694
11
-4.56493
21
5.84398
0
LINE
8
BLACK
6
CONTINUOUS
10
-4.56493
20
5.84398
11
-4.56709
21
5.84182
0
LINE
8
BLACK
6
CONTINUOUS
10
-4.56709
20
5.84182
11
-4.57004
21
5.84103
0
LINE
8
BLACK
6
CONTINUOUS
10
-4.57004
20
5.84103
11
-4.573
21
5.84182
0
LINE
8
BLACK
6
CONTINUOUS
10
-4.573
20
5.84182
11
-4.57516
21
5.84398
0
LINE
8
BLACK
6
CONTINUOUS
10
-4.57516
20
5.84398
11
-4.57595
21
5.84694
0
LINE
8
BLACK
6
CONTINUOUS
10
-4.57595
20
5.84694
11
-4.57595
21
5.89812
0
LINE
8
BLACK
6
CONTINUOUS
10
-4.57595
20
5.89812
11
-4.57516
21
5.90107
0
LINE
8
BLACK
6
CONTINUOUS
10
-4.57516
20
5.90107
11
-4.573
21
5.90323
0
LINE
8
BLACK
6
CONTINUOUS
10
-4.573
20
5.90323
11
-4.57004
21
5.90402
0
LINE
8
BLACK
6
CONTINUOUS
10
-4.57004
20
5.90402
11
-4.55055
21
5.90402
0
LINE
8
BLACK
6
CONTINUOUS
10
-4.55055
20
5.90402
11
-4.54924
21
5.90367
0
LINE
8
BLACK
6
CONTINUOUS
10
-4.56414
20
5.87721
11
-4.55194
21
5.87721
0
LINE
8
BLACK
6
CONTINUOUS
10
-4.55194
20
5.87721
11
-4.54917
21
5.8786
0
LINE
8
BLACK
6
CONTINUOUS
10
-4.54917
20
5.8786
11
-4.54809
21
5.87968
0
LINE
8
BLACK
6
CONTINUOUS
10
-4.54809
20
5.87968
11
-4.5467
21
5.88245
0
LINE
8
BLACK
6
CONTINUOUS
10
-4.5467
20
5.88245
11
-4.5467
21
5.88698
0
LINE
8
BLACK
6
CONTINUOUS
10
-4.5467
20
5.88698
11
-4.54809
21
5.88975
0
LINE
8
BLACK
6
CONTINUOUS
10
-4.54809
20
5.88975
11
-4.54917
21
5.89083
0
LINE
8
BLACK
6
CONTINUOUS
10
-4.54917
20
5.89083
11
-4.55194
21
5.89221
0
LINE
8
BLACK
6
CONTINUOUS
10
-4.55194
20
5.89221
11
-4.56414
21
5.89221
0
LINE
8
BLACK
6
CONTINUOUS
10
-4.56414
20
5.89221
11
-4.56414
21
5.87721
0
LINE
8
BLACK
6
CONTINUOUS
10
-4.43956
20
5.90367
11
-4.43823
21
5.9034
0
LINE
8
BLACK
6
CONTINUOUS
10
-4.43823
20
5.9034
11
-4.43336
21
5.90096
0
LINE
8
BLACK
6
CONTINUOUS
10
-4.43336
20
5.90096
11
-4.43265
21
5.90033
0
LINE
8
BLACK
6
CONTINUOUS
10
-4.43265
20
5.90033
11
-4.43182
21
5.89986
0
LINE
8
BLACK
6
CONTINUOUS
10
-4.43182
20
5.89986
11
-4.42938
21
5.89742
0
LINE
8
BLACK
6
CONTINUOUS
10
-4.42938
20
5.89742
11
-4.42891
21
5.8966
0
LINE
8
BLACK
6
CONTINUOUS
10
-4.42891
20
5.8966
11
-4.42828
21
5.89588
0
LINE
8
BLACK
6
CONTINUOUS
10
-4.42828
20
5.89588
11
-4.42584
21
5.89101
0
LINE
8
BLACK
6
CONTINUOUS
10
-4.42584
20
5.89101
11
-4.42557
21
5.88968
0
LINE
8
BLACK
6
CONTINUOUS
10
-4.42557
20
5.88968
11
-4.42522
21
5.88837
0
LINE
8
BLACK
6
CONTINUOUS
10
-4.42522
20
5.88837
11
-4.42522
21
5.88106
0
LINE
8
BLACK
6
CONTINUOUS
10
-4.42522
20
5.88106
11
-4.42557
21
5.87975
0
LINE
8
BLACK
6
CONTINUOUS
10
-4.42557
20
5.87975
11
-4.42584
21
5.87842
0
LINE
8
BLACK
6
CONTINUOUS
10
-4.42584
20
5.87842
11
-4.42828
21
5.87354
0
LINE
8
BLACK
6
CONTINUOUS
10
-4.42828
20
5.87354
11
-4.42891
21
5.87283
0
LINE
8
BLACK
6
CONTINUOUS
10
-4.42891
20
5.87283
11
-4.42938
21
5.87201
0
LINE
8
BLACK
6
CONTINUOUS
10
-4.42938
20
5.87201
11
-4.43182
21
5.86957
0
LINE
8
BLACK
6
CONTINUOUS
10
-4.43182
20
5.86957
11
-4.43265
21
5.86909
0
LINE
8
BLACK
6
CONTINUOUS
10
-4.43265
20
5.86909
11
-4.43336
21
5.86846
0
LINE
8
BLACK
6
CONTINUOUS
10
-4.43336
20
5.86846
11
-4.43753
21
5.86638
0
LINE
8
BLACK
6
CONTINUOUS
10
-4.43753
20
5.86638
11
-4.42629
21
5.85032
0
LINE
8
BLACK
6
CONTINUOUS
10
-4.42629
20
5.85032
11
-4.42524
21
5.84745
0
LINE
8
BLACK
6
CONTINUOUS
10
-4.42524
20
5.84745
11
-4.42577
21
5.84444
0
LINE
8
BLACK
6
CONTINUOUS
10
-4.42577
20
5.84444
11
-4.42774
21
5.8421
0
LINE
8
BLACK
6
CONTINUOUS
10
-4.42774
20
5.8421
11
-4.43061
21
5.84105
0
LINE
8
BLACK
6
CONTINUOUS
10
-4.43061
20
5.84105
11
-4.43362
21
5.84158
0
LINE
8
BLACK
6
CONTINUOUS
10
-4.43362
20
5.84158
11
-4.43596
21
5.84355
0
LINE
8
BLACK
6
CONTINUOUS
10
-4.43596
20
5.84355
11
-4.45126
21
5.8654
0
LINE
8
BLACK
6
CONTINUOUS
10
-4.45126
20
5.8654
11
-4.45446
21
5.8654
0
LINE
8
BLACK
6
CONTINUOUS
10
-4.45446
20
5.8654
11
-4.45446
21
5.84694
0
LINE
8
BLACK
6
CONTINUOUS
10
-4.45446
20
5.84694
11
-4.45526
21
5.84398
0
LINE
8
BLACK
6
CONTINUOUS
10
-4.45526
20
5.84398
11
-4.45742
21
5.84182
0
LINE
8
BLACK
6
CONTINUOUS
10
-4.45742
20
5.84182
11
-4.46037
21
5.84103
0
LINE
8
BLACK
6
CONTINUOUS
10
-4.46037
20
5.84103
11
-4.46332
21
5.84182
0
LINE
8
BLACK
6
CONTINUOUS
10
-4.46332
20
5.84182
11
-4.46548
21
5.84398
0
LINE
8
BLACK
6
CONTINUOUS
10
-4.46548
20
5.84398
11
-4.46628
21
5.84694
0
LINE
8
BLACK
6
CONTINUOUS
10
-4.46628
20
5.84694
11
-4.46628
21
5.89812
0
LINE
8
BLACK
6
CONTINUOUS
10
-4.46628
20
5.89812
11
-4.46548
21
5.90107
0
LINE
8
BLACK
6
CONTINUOUS
10
-4.46548
20
5.90107
11
-4.46332
21
5.90323
0
LINE
8
BLACK
6
CONTINUOUS
10
-4.46332
20
5.90323
11
-4.46037
21
5.90402
0
LINE
8
BLACK
6
CONTINUOUS
10
-4.46037
20
5.90402
11
-4.44087
21
5.90402
0
LINE
8
BLACK
6
CONTINUOUS
10
-4.44087
20
5.90402
11
-4.43956
21
5.90367
0
LINE
8
BLACK
6
CONTINUOUS
10
-4.45446
20
5.87721
11
-4.44227
21
5.87721
0
LINE
8
BLACK
6
CONTINUOUS
10
-4.44227
20
5.87721
11
-4.4395
21
5.8786
0
LINE
8
BLACK
6
CONTINUOUS
10
-4.4395
20
5.8786
11
-4.43841
21
5.87968
0
LINE
8
BLACK
6
CONTINUOUS
10
-4.43841
20
5.87968
11
-4.43703
21
5.88245
0
LINE
8
BLACK
6
CONTINUOUS
10
-4.43703
20
5.88245
11
-4.43703
21
5.88698
0
LINE
8
BLACK
6
CONTINUOUS
10
-4.43703
20
5.88698
11
-4.43841
21
5.88975
0
LINE
8
BLACK
6
CONTINUOUS
10
-4.43841
20
5.88975
11
-4.4395
21
5.89083
0
LINE
8
BLACK
6
CONTINUOUS
10
-4.4395
20
5.89083
11
-4.44227
21
5.89221
0
LINE
8
BLACK
6
CONTINUOUS
10
-4.44227
20
5.89221
11
-4.45446
21
5.89221
0
LINE
8
BLACK
6
CONTINUOUS
10
-4.45446
20
5.89221
11
-4.45446
21
5.87721
0
LINE
8
BLACK
6
CONTINUOUS
10
-4.47581
20
5.90241
11
-4.47421
21
5.89981
0
LINE
8
BLACK
6
CONTINUOUS
10
-4.47421
20
5.89981
11
-4.47412
21
5.89675
0
LINE
8
BLACK
6
CONTINUOUS
10
-4.47412
20
5.89675
11
-4.48631
21
5.84557
0
LINE
8
BLACK
6
CONTINUOUS
10
-4.48631
20
5.84557
11
-4.48635
21
5.84549
0
LINE
8
BLACK
6
CONTINUOUS
10
-4.48635
20
5.84549
11
-4.48635
21
5.8454
0
LINE
8
BLACK
6
CONTINUOUS
10
-4.48635
20
5.8454
11
-4.48707
21
5.84415
0
LINE
8
BLACK
6
CONTINUOUS
10
-4.48707
20
5.84415
11
-4.48776
21
5.84288
0
LINE
8
BLACK
6
CONTINUOUS
10
-4.48776
20
5.84288
11
-4.48784
21
5.84283
0
LINE
8
BLACK
6
CONTINUOUS
10
-4.48784
20
5.84283
11
-4.48788
21
5.84276
0
LINE
8
BLACK
6
CONTINUOUS
10
-4.48788
20
5.84276
11
-4.48913
21
5.84204
0
LINE
8
BLACK
6
CONTINUOUS
10
-4.48913
20
5.84204
11
-4.49037
21
5.84128
0
LINE
8
BLACK
6
CONTINUOUS
10
-4.49037
20
5.84128
11
-4.49045
21
5.84128
0
LINE
8
BLACK
6
CONTINUOUS
10
-4.49045
20
5.84128
11
-4.49053
21
5.84123
0
LINE
8
BLACK
6
CONTINUOUS
10
-4.49053
20
5.84123
11
-4.49198
21
5.84123
0
LINE
8
BLACK
6
CONTINUOUS
10
-4.49198
20
5.84123
11
-4.49342
21
5.84119
0
LINE
8
BLACK
6
CONTINUOUS
10
-4.49342
20
5.84119
11
-4.4935
21
5.84123
0
LINE
8
BLACK
6
CONTINUOUS
10
-4.4935
20
5.84123
11
-4.49359
21
5.84123
0
LINE
8
BLACK
6
CONTINUOUS
10
-4.49359
20
5.84123
11
-4.49484
21
5.84196
0
LINE
8
BLACK
6
CONTINUOUS
10
-4.49484
20
5.84196
11
-4.49611
21
5.84265
0
LINE
8
BLACK
6
CONTINUOUS
10
-4.49611
20
5.84265
11
-4.49616
21
5.84272
0
LINE
8
BLACK
6
CONTINUOUS
10
-4.49616
20
5.84272
11
-4.49623
21
5.84277
0
LINE
8
BLACK
6
CONTINUOUS
10
-4.49623
20
5.84277
11
-4.49695
21
5.84402
0
LINE
8
BLACK
6
CONTINUOUS
10
-4.49695
20
5.84402
11
-4.49771
21
5.84525
0
LINE
8
BLACK
6
CONTINUOUS
10
-4.49771
20
5.84525
11
-4.49772
21
5.84534
0
LINE
8
BLACK
6
CONTINUOUS
10
-4.49772
20
5.84534
11
-4.49776
21
5.84542
0
LINE
8
BLACK
6
CONTINUOUS
10
-4.49776
20
5.84542
11
-4.5018
21
5.86058
0
LINE
8
BLACK
6
CONTINUOUS
10
-4.5018
20
5.86058
11
-4.50584
21
5.84542
0
LINE
8
BLACK
6
CONTINUOUS
10
-4.50584
20
5.84542
11
-4.50589
21
5.84534
0
LINE
8
BLACK
6
CONTINUOUS
10
-4.50589
20
5.84534
11
-4.50589
21
5.84525
0
LINE
8
BLACK
6
CONTINUOUS
10
-4.50589
20
5.84525
11
-4.50665
21
5.84402
0
LINE
8
BLACK
6
CONTINUOUS
10
-4.50665
20
5.84402
11
-4.50737
21
5.84277
0
LINE
8
BLACK
6
CONTINUOUS
10
-4.50737
20
5.84277
11
-4.50745
21
5.84272
0
LINE
8
BLACK
6
CONTINUOUS
10
-4.50745
20
5.84272
11
-4.50749
21
5.84265
0
LINE
8
BLACK
6
CONTINUOUS
10
-4.50749
20
5.84265
11
-4.50877
21
5.84196
0
LINE
8
BLACK
6
CONTINUOUS
10
-4.50877
20
5.84196
11
-4.51002
21
5.84123
0
LINE
8
BLACK
6
CONTINUOUS
10
-4.51002
20
5.84123
11
-4.5101
21
5.84123
0
LINE
8
BLACK
6
CONTINUOUS
10
-4.5101
20
5.84123
11
-4.51018
21
5.84119
0
LINE
8
BLACK
6
CONTINUOUS
10
-4.51018
20
5.84119
11
-4.51163
21
5.84123
0
LINE
8
BLACK
6
CONTINUOUS
10
-4.51163
20
5.84123
11
-4.51307
21
5.84123
0
LINE
8
BLACK
6
CONTINUOUS
10
-4.51307
20
5.84123
11
-4.51315
21
5.84128
0
LINE
8
BLACK
6
CONTINUOUS
10
-4.51315
20
5.84128
11
-4.51324
21
5.84128
0
LINE
8
BLACK
6
CONTINUOUS
10
-4.51324
20
5.84128
11
-4.51447
21
5.84204
0
LINE
8
BLACK
6
CONTINUOUS
10
-4.51447
20
5.84204
11
-4.51572
21
5.84276
0
LINE
8
BLACK
6
CONTINUOUS
10
-4.51572
20
5.84276
11
-4.51577
21
5.84283
0
LINE
8
BLACK
6
CONTINUOUS
10
-4.51577
20
5.84283
11
-4.51584
21
5.84288
0
LINE
8
BLACK
6
CONTINUOUS
10
-4.51584
20
5.84288
11
-4.51653
21
5.84415
0
LINE
8
BLACK
6
CONTINUOUS
10
-4.51653
20
5.84415
11
-4.51725
21
5.8454
0
LINE
8
BLACK
6
CONTINUOUS
10
-4.51725
20
5.8454
11
-4.51725
21
5.84549
0
LINE
8
BLACK
6
CONTINUOUS
10
-4.51725
20
5.84549
11
-4.5173
21
5.84557
0
LINE
8
BLACK
6
CONTINUOUS
10
-4.5173
20
5.84557
11
-4.52948
21
5.89675
0
LINE
8
BLACK
6
CONTINUOUS
10
-4.52948
20
5.89675
11
-4.5294
21
5.89981
0
LINE
8
BLACK
6
CONTINUOUS
10
-4.5294
20
5.89981
11
-4.52779
21
5.90241
0
LINE
8
BLACK
6
CONTINUOUS
10
-4.52779
20
5.90241
11
-4.5251
21
5.90386
0
LINE
8
BLACK
6
CONTINUOUS
10
-4.5251
20
5.90386
11
-4.52205
21
5.90378
0
LINE
8
BLACK
6
CONTINUOUS
10
-4.52205
20
5.90378
11
-4.51945
21
5.90217
0
LINE
8
BLACK
6
CONTINUOUS
10
-4.51945
20
5.90217
11
-4.51799
21
5.89949
0
LINE
8
BLACK
6
CONTINUOUS
10
-4.51799
20
5.89949
11
-4.51123
21
5.87107
0
LINE
8
BLACK
6
CONTINUOUS
10
-4.51123
20
5.87107
11
-4.50751
21
5.88502
0
LINE
8
BLACK
6
CONTINUOUS
10
-4.50751
20
5.88502
11
-4.5075
21
5.88502
0
LINE
8
BLACK
6
CONTINUOUS
10
-4.5075
20
5.88502
11
-4.5075
21
5.88503
0
LINE
8
BLACK
6
CONTINUOUS
10
-4.5075
20
5.88503
11
-4.50674
21
5.88635
0
LINE
8
BLACK
6
CONTINUOUS
10
-4.50674
20
5.88635
11
-4.50598
21
5.88767
0
LINE
8
BLACK
6
CONTINUOUS
10
-4.50598
20
5.88767
11
-4.50598
21
5.88767
0
LINE
8
BLACK
6
CONTINUOUS
10
-4.50598
20
5.88767
11
-4.50597
21
5.88768
0
LINE
8
BLACK
6
CONTINUOUS
10
-4.50597
20
5.88768
11
-4.50466
21
5.88843
0
LINE
8
BLACK
6
CONTINUOUS
10
-4.50466
20
5.88843
11
-4.50334
21
5.8892
0
LINE
8
BLACK
6
CONTINUOUS
10
-4.50334
20
5.8892
11
-4.50333
21
5.8892
0
LINE
8
BLACK
6
CONTINUOUS
10
-4.50333
20
5.8892
11
-4.50332
21
5.8892
0
LINE
8
BLACK
6
CONTINUOUS
10
-4.50332
20
5.8892
11
-4.50181
21
5.8892
0
LINE
8
BLACK
6
CONTINUOUS
10
-4.50181
20
5.8892
11
-4.50028
21
5.8892
0
LINE
8
BLACK
6
CONTINUOUS
10
-4.50028
20
5.8892
11
-4.50027
21
5.8892
0
LINE
8
BLACK
6
CONTINUOUS
10
-4.50027
20
5.8892
11
-4.50027
21
5.8892
0
LINE
8
BLACK
6
CONTINUOUS
10
-4.50027
20
5.8892
11
-4.49895
21
5.88843
0
LINE
8
BLACK
6
CONTINUOUS
10
-4.49895
20
5.88843
11
-4.49763
21
5.88768
0
LINE
8
BLACK
6
CONTINUOUS
10
-4.49763
20
5.88768
11
-4.49763
21
5.88767
0
LINE
8
BLACK
6
CONTINUOUS
10
-4.49763
20
5.88767
11
-4.49762
21
5.88767
0
LINE
8
BLACK
6
CONTINUOUS
10
-4.49762
20
5.88767
11
-4.49687
21
5.88635
0
LINE
8
BLACK
6
CONTINUOUS
10
-4.49687
20
5.88635
11
-4.4961
21
5.88503
0
LINE
8
BLACK
6
CONTINUOUS
10
-4.4961
20
5.88503
11
-4.4961
21
5.88502
0
LINE
8
BLACK
6
CONTINUOUS
10
-4.4961
20
5.88502
11
-4.4961
21
5.88502
0
LINE
8
BLACK
6
CONTINUOUS
10
-4.4961
20
5.88502
11
-4.49238
21
5.87107
0
LINE
8
BLACK
6
CONTINUOUS
10
-4.49238
20
5.87107
11
-4.48561
21
5.89949
0
LINE
8
BLACK
6
CONTINUOUS
10
-4.48561
20
5.89949
11
-4.48416
21
5.90217
0
LINE
8
BLACK
6
CONTINUOUS
10
-4.48416
20
5.90217
11
-4.48156
21
5.90378
0
LINE
8
BLACK
6
CONTINUOUS
10
-4.48156
20
5.90378
11
-4.4785
21
5.90386
0
LINE
8
BLACK
6
CONTINUOUS
10
-4.4785
20
5.90386
11
-4.47581
21
5.90241
0
LINE
8
BLACK
6
CONTINUOUS
10
-4.24198
20
5.88812
11
-4.23982
21
5.88596
0
LINE
8
BLACK
6
CONTINUOUS
10
-4.23982
20
5.88596
11
-4.23903
21
5.88301
0
LINE
8
BLACK
6
CONTINUOUS
10
-4.23903
20
5.88301
11
-4.23903
21
5.85376
0
LINE
8
BLACK
6
CONTINUOUS
10
-4.23903
20
5.85376
11
-4.23982
21
5.85081
0
LINE
8
BLACK
6
CONTINUOUS
10
-4.23982
20
5.85081
11
-4.24198
21
5.84865
0
LINE
8
BLACK
6
CONTINUOUS
10
-4.24198
20
5.84865
11
-4.24494
21
5.84786
0
LINE
8
BLACK
6
CONTINUOUS
10
-4.24494
20
5.84786
11
-4.24789
21
5.84865
0
LINE
8
BLACK
6
CONTINUOUS
10
-4.24789
20
5.84865
11
-4.25005
21
5.85081
0
LINE
8
BLACK
6
CONTINUOUS
10
-4.25005
20
5.85081
11
-4.25084
21
5.85376
0
LINE
8
BLACK
6
CONTINUOUS
10
-4.25084
20
5.85376
11
-4.25084
21
5.86248
0
LINE
8
BLACK
6
CONTINUOUS
10
-4.25084
20
5.86248
11
-4.27956
21
5.86248
0
LINE
8
BLACK
6
CONTINUOUS
10
-4.27956
20
5.86248
11
-4.27928
21
5.86199
0
LINE
8
BLACK
6
CONTINUOUS
10
-4.27928
20
5.86199
11
-4.27865
21
5.86128
0
LINE
8
BLACK
6
CONTINUOUS
10
-4.27865
20
5.86128
11
-4.27621
21
5.8564
0
LINE
8
BLACK
6
CONTINUOUS
10
-4.27621
20
5.8564
11
-4.2756
21
5.85341
0
LINE
8
BLACK
6
CONTINUOUS
10
-4.2756
20
5.85341
11
-4.27657
21
5.85051
0
LINE
8
BLACK
6
CONTINUOUS
10
-4.27657
20
5.85051
11
-4.27885
21
5.84848
0
LINE
8
BLACK
6
CONTINUOUS
10
-4.27885
20
5.84848
11
-4.28185
21
5.84787
0
LINE
8
BLACK
6
CONTINUOUS
10
-4.28185
20
5.84787
11
-4.28475
21
5.84883
0
LINE
8
BLACK
6
CONTINUOUS
10
-4.28475
20
5.84883
11
-4.28678
21
5.85112
0
LINE
8
BLACK
6
CONTINUOUS
10
-4.28678
20
5.85112
11
-4.28879
21
5.85514
0
LINE
8
BLACK
6
CONTINUOUS
10
-4.28879
20
5.85514
11
-4.29257
21
5.85892
0
LINE
8
BLACK
6
CONTINUOUS
10
-4.29257
20
5.85892
11
-4.29939
21
5.86347
0
LINE
8
BLACK
6
CONTINUOUS
10
-4.29939
20
5.86347
11
-4.30028
21
5.86448
0
LINE
8
BLACK
6
CONTINUOUS
10
-4.30028
20
5.86448
11
-4.30123
21
5.86543
0
LINE
8
BLACK
6
CONTINUOUS
10
-4.30123
20
5.86543
11
-4.30128
21
5.86562
0
LINE
8
BLACK
6
CONTINUOUS
10
-4.30128
20
5.86562
11
-4.30141
21
5.86577
0
LINE
8
BLACK
6
CONTINUOUS
10
-4.30141
20
5.86577
11
-4.30168
21
5.86709
0
LINE
8
BLACK
6
CONTINUOUS
10
-4.30168
20
5.86709
11
-4.30202
21
5.86839
0
LINE
8
BLACK
6
CONTINUOUS
10
-4.30202
20
5.86839
11
-4.30197
21
5.86857
0
LINE
8
BLACK
6
CONTINUOUS
10
-4.30197
20
5.86857
11
-4.30201
21
5.86877
0
LINE
8
BLACK
6
CONTINUOUS
10
-4.30201
20
5.86877
11
-4.30158
21
5.87004
0
LINE
8
BLACK
6
CONTINUOUS
10
-4.30158
20
5.87004
11
-4.30123
21
5.87134
0
LINE
8
BLACK
6
CONTINUOUS
10
-4.30123
20
5.87134
11
-4.30109
21
5.87148
0
LINE
8
BLACK
6
CONTINUOUS
10
-4.30109
20
5.87148
11
-4.30103
21
5.87166
0
LINE
8
BLACK
6
CONTINUOUS
10
-4.30103
20
5.87166
11
-4.30002
21
5.87255
0
LINE
8
BLACK
6
CONTINUOUS
10
-4.30002
20
5.87255
11
-4.29907
21
5.8735
0
LINE
8
BLACK
6
CONTINUOUS
10
-4.29907
20
5.8735
11
-4.29888
21
5.87355
0
LINE
8
BLACK
6
CONTINUOUS
10
-4.29888
20
5.87355
11
-4.29874
21
5.87368
0
LINE
8
BLACK
6
CONTINUOUS
10
-4.29874
20
5.87368
11
-4.29742
21
5.87394
0
LINE
8
BLACK
6
CONTINUOUS
10
-4.29742
20
5.87394
11
-4.29612
21
5.87429
0
LINE
8
BLACK
6
CONTINUOUS
10
-4.29612
20
5.87429
11
-4.25084
21
5.87429
0
LINE
8
BLACK
6
CONTINUOUS
10
-4.25084
20
5.87429
11
-4.25084
21
5.88301
0
LINE
8
BLACK
6
CONTINUOUS
10
-4.25084
20
5.88301
11
-4.25005
21
5.88596
0
LINE
8
BLACK
6
CONTINUOUS
10
-4.25005
20
5.88596
11
-4.24789
21
5.88812
0
LINE
8
BLACK
6
CONTINUOUS
10
-4.24789
20
5.88812
11
-4.24494
21
5.88891
0
LINE
8
BLACK
6
CONTINUOUS
10
-4.24494
20
5.88891
11
-4.24198
21
5.88812
0
LINE
8
BLACK
6
CONTINUOUS
10
-4.25337
20
5.93974
11
-4.25204
21
5.93947
0
LINE
8
BLACK
6
CONTINUOUS
10
-4.25204
20
5.93947
11
-4.24717
21
5.93703
0
LINE
8
BLACK
6
CONTINUOUS
10
-4.24717
20
5.93703
11
-4.24646
21
5.9364
0
LINE
8
BLACK
6
CONTINUOUS
10
-4.24646
20
5.9364
11
-4.24564
21
5.93593
0
LINE
8
BLACK
6
CONTINUOUS
10
-4.24564
20
5.93593
11
-4.2432
21
5.93349
0
LINE
8
BLACK
6
CONTINUOUS
10
-4.2432
20
5.93349
11
-4.24272
21
5.93267
0
LINE
8
BLACK
6
CONTINUOUS
10
-4.24272
20
5.93267
11
-4.24209
21
5.93196
0
LINE
8
BLACK
6
CONTINUOUS
10
-4.24209
20
5.93196
11
-4.23965
21
5.92708
0
LINE
8
BLACK
6
CONTINUOUS
10
-4.23965
20
5.92708
11
-4.23938
21
5.92575
0
LINE
8
BLACK
6
CONTINUOUS
10
-4.23938
20
5.92575
11
-4.23903
21
5.92444
0
LINE
8
BLACK
6
CONTINUOUS
10
-4.23903
20
5.92444
11
-4.23903
21
5.90494
0
LINE
8
BLACK
6
CONTINUOUS
10
-4.23903
20
5.90494
11
-4.23982
21
5.90199
0
LINE
8
BLACK
6
CONTINUOUS
10
-4.23982
20
5.90199
11
-4.24198
21
5.89983
0
LINE
8
BLACK
6
CONTINUOUS
10
-4.24198
20
5.89983
11
-4.24494
21
5.89904
0
LINE
8
BLACK
6
CONTINUOUS
10
-4.24494
20
5.89904
11
-4.27175
21
5.89904
0
LINE
8
BLACK
6
CONTINUOUS
10
-4.27175
20
5.89904
11
-4.29612
21
5.89904
0
LINE
8
BLACK
6
CONTINUOUS
10
-4.29612
20
5.89904
11
-4.29907
21
5.89983
0
LINE
8
BLACK
6
CONTINUOUS
10
-4.29907
20
5.89983
11
-4.30123
21
5.90199
0
LINE
8
BLACK
6
CONTINUOUS
10
-4.30123
20
5.90199
11
-4.30202
21
5.90494
0
LINE
8
BLACK
6
CONTINUOUS
10
-4.30202
20
5.90494
11
-4.30202
21
5.922
0
LINE
8
BLACK
6
CONTINUOUS
10
-4.30202
20
5.922
11
-4.30167
21
5.92331
0
LINE
8
BLACK
6
CONTINUOUS
10
-4.30167
20
5.92331
11
-4.3014
21
5.92464
0
LINE
8
BLACK
6
CONTINUOUS
10
-4.3014
20
5.92464
11
-4.29896
21
5.92952
0
LINE
8
BLACK
6
CONTINUOUS
10
-4.29896
20
5.92952
11
-4.29833
21
5.93023
0
LINE
8
BLACK
6
CONTINUOUS
10
-4.29833
20
5.93023
11
-4.29786
21
5.93105
0
LINE
8
BLACK
6
CONTINUOUS
10
-4.29786
20
5.93105
11
-4.29542
21
5.93349
0
LINE
8
BLACK
6
CONTINUOUS
10
-4.29542
20
5.93349
11
-4.2946
21
5.93397
0
LINE
8
BLACK
6
CONTINUOUS
10
-4.2946
20
5.93397
11
-4.29388
21
5.9346
0
LINE
8
BLACK
6
CONTINUOUS
10
-4.29388
20
5.9346
11
-4.28901
21
5.93703
0
LINE
8
BLACK
6
CONTINUOUS
10
-4.28901
20
5.93703
11
-4.28768
21
5.93731
0
LINE
8
BLACK
6
CONTINUOUS
10
-4.28768
20
5.93731
11
-4.28637
21
5.93766
0
LINE
8
BLACK
6
CONTINUOUS
10
-4.28637
20
5.93766
11
-4.28149
21
5.93766
0
LINE
8
BLACK
6
CONTINUOUS
10
-4.28149
20
5.93766
11
-4.28018
21
5.93731
0
LINE
8
BLACK
6
CONTINUOUS
10
-4.28018
20
5.93731
11
-4.27885
21
5.93703
0
LINE
8
BLACK
6
CONTINUOUS
10
-4.27885
20
5.93703
11
-4.27398
21
5.9346
0
LINE
8
BLACK
6
CONTINUOUS
10
-4.27398
20
5.9346
11
-4.27327
21
5.93397
0
LINE
8
BLACK
6
CONTINUOUS
10
-4.27327
20
5.93397
11
-4.2731
21
5.93387
0
LINE
8
BLACK
6
CONTINUOUS
10
-4.2731
20
5.93387
11
-4.27105
21
5.93593
0
LINE
8
BLACK
6
CONTINUOUS
10
-4.27105
20
5.93593
11
-4.27022
21
5.9364
0
LINE
8
BLACK
6
CONTINUOUS
10
-4.27022
20
5.9364
11
-4.26951
21
5.93703
0
LINE
8
BLACK
6
CONTINUOUS
10
-4.26951
20
5.93703
11
-4.26464
21
5.93947
0
LINE
8
BLACK
6
CONTINUOUS
10
-4.26464
20
5.93947
11
-4.26331
21
5.93974
0
LINE
8
BLACK
6
CONTINUOUS
10
-4.26331
20
5.93974
11
-4.262
21
5.94009
0
LINE
8
BLACK
6
CONTINUOUS
10
-4.262
20
5.94009
11
-4.25469
21
5.94009
0
LINE
8
BLACK
6
CONTINUOUS
10
-4.25469
20
5.94009
11
-4.25337
21
5.93974
0
LINE
8
BLACK
6
CONTINUOUS
10
-4.28775
20
5.92446
11
-4.28883
21
5.92338
0
LINE
8
BLACK
6
CONTINUOUS
10
-4.28883
20
5.92338
11
-4.29021
21
5.92061
0
LINE
8
BLACK
6
CONTINUOUS
10
-4.29021
20
5.92061
11
-4.29021
21
5.91085
0
LINE
8
BLACK
6
CONTINUOUS
10
-4.29021
20
5.91085
11
-4.27765
21
5.91085
0
LINE
8
BLACK
6
CONTINUOUS
10
-4.27765
20
5.91085
11
-4.27765
21
5.92061
0
LINE
8
BLACK
6
CONTINUOUS
10
-4.27765
20
5.92061
11
-4.27904
21
5.92338
0
LINE
8
BLACK
6
CONTINUOUS
10
-4.27904
20
5.92338
11
-4.28012
21
5.92446
0
LINE
8
BLACK
6
CONTINUOUS
10
-4.28012
20
5.92446
11
-4.28289
21
5.92585
0
LINE
8
BLACK
6
CONTINUOUS
10
-4.28289
20
5.92585
11
-4.28498
21
5.92585
0
LINE
8
BLACK
6
CONTINUOUS
10
-4.28498
20
5.92585
11
-4.28775
21
5.92446
0
LINE
8
BLACK
6
CONTINUOUS
10
-4.26337
20
5.9269
11
-4.26415
21
5.92612
0
LINE
8
BLACK
6
CONTINUOUS
10
-4.26415
20
5.92612
11
-4.26584
21
5.92105
0
LINE
8
BLACK
6
CONTINUOUS
10
-4.26584
20
5.92105
11
-4.26584
21
5.91085
0
LINE
8
BLACK
6
CONTINUOUS
10
-4.26584
20
5.91085
11
-4.25084
21
5.91085
0
LINE
8
BLACK
6
CONTINUOUS
10
-4.25084
20
5.91085
11
-4.25084
21
5.92305
0
LINE
8
BLACK
6
CONTINUOUS
10
-4.25084
20
5.92305
11
-4.25223
21
5.92582
0
LINE
8
BLACK
6
CONTINUOUS
10
-4.25223
20
5.92582
11
-4.25331
21
5.9269
0
LINE
8
BLACK
6
CONTINUOUS
10
-4.25331
20
5.9269
11
-4.25608
21
5.92828
0
LINE
8
BLACK
6
CONTINUOUS
10
-4.25608
20
5.92828
11
-4.2606
21
5.92828
0
LINE
8
BLACK
6
CONTINUOUS
10
-4.2606
20
5.92828
11
-4.26337
21
5.9269
0
CIRCLE
8
BLACK
10
-4.89157
20
5.39
40
0.00688976
0
CIRCLE
8
BLACK
10
-4.89157
20
5.98055
40
0.00688976
0
CIRCLE
8
BLACK
10
-4.10417
20
5.98055
40
0.00688976
0
CIRCLE
8
BLACK
10
-4.49787
20
5.98055
40
0.00688976
0
CIRCLE
8
BLACK
10
-4.10417
20
5.39
40
0.00688976
0
CIRCLE
8
BLACK
10
-4.49787
20
5.39
40
0.00688976
  0
ENDSEC
  0
EOF
