  0
SECTION
  2
HEADER
  9
$ANGBASE
  50
0.0
  9
$ANGDIR
  70
1
  9
$MEASUREMENT
  70
0
  0
ENDSEC
  0
SECTION
  2
TABLES
  0
TABLE
  2
LTYPE
  70
4
  0
LTYPE
  5
40F
  2
CONTINUOUS
  70
0
  3
Solid line
  72
65
  73
0
  40
0.0
  0
LTYPE
  5
410
  2
DASHDOT
 70
0
  3
Dash Dot ____ _ ____ _
 72
65
 73
4
 40
2.0
 49
1.25
 49
-0.25
 49
0.25
 49
-0.25
  0
LTYPE
  5
411
  2
DASHED
 70
0
  3
Dashed __ __ __ __ __
 72
65
 73
2
 40
0.75
 49
0.5
 49
-0.25
  0
LTYPE
  5
43B
  2
DOTTED
 70
0
  3
Dotted .  .  .  .
 72
65
 73
2
 40
0.2
 49
0.0
 49
-0.2
  0
ENDTAB
  0
TABLE
  2
STYLE
  70
4
  0
STYLE
  2
KICAD
  70
0
  40
0
  41
1
  42
1
  50
0
  71
0
  3
isocp.shx
  0
STYLE
  2
KICADB
  70
0
  40
0
  41
1
  42
1
  50
0
  71
0
  3
isocp.shx
  0
STYLE
  2
KICADI
  70
0
  40
0
  41
1
  42
1
  50
15
  71
0
  3
isocp.shx
  0
STYLE
  2
KICADBI
  70
0
  40
0
  41
1
  42
1
  50
15
  71
0
  3
isocp.shx
  0
ENDTAB
  0
TABLE
  2
LAYER
  70
1
  0
LAYER
  2
BLACK
  70
0
  62
7
  6
CONTINUOUS
  0
ENDTAB
  0
ENDSEC
  0
SECTION
  2
ENTITIES
0
LINE
8
BLACK
6
CONTINUOUS
10
-4.47513
20
5.85498
11
-4.47074
21
5.85274
0
LINE
8
BLACK
6
CONTINUOUS
10
-4.47074
20
5.85274
11
-4.46726
21
5.84926
0
LINE
8
BLACK
6
CONTINUOUS
10
-4.46726
20
5.84926
11
-4.46656
21
5.84787
0
LINE
8
BLACK
6
CONTINUOUS
10
-4.46656
20
5.84787
11
-4.23
21
5.84787
0
LINE
8
BLACK
6
CONTINUOUS
10
-4.23
20
5.84787
11
-4.22871
21
5.84758
0
LINE
8
BLACK
6
CONTINUOUS
10
-4.22871
20
5.84758
11
-4.2274
21
5.84743
0
LINE
8
BLACK
6
CONTINUOUS
10
-4.2274
20
5.84743
11
-4.22702
21
5.84719
0
LINE
8
BLACK
6
CONTINUOUS
10
-4.22702
20
5.84719
11
-4.22658
21
5.84709
0
LINE
8
BLACK
6
CONTINUOUS
10
-4.22658
20
5.84709
11
-4.22555
21
5.84627
0
LINE
8
BLACK
6
CONTINUOUS
10
-4.22555
20
5.84627
11
-4.22443
21
5.84557
0
LINE
8
BLACK
6
CONTINUOUS
10
-4.22443
20
5.84557
11
-4.19398
21
5.81512
0
LINE
8
BLACK
6
CONTINUOUS
10
-4.19398
20
5.81512
11
-4.19
21
5.81575
0
LINE
8
BLACK
6
CONTINUOUS
10
-4.19
20
5.81575
11
-4.18513
21
5.81498
0
LINE
8
BLACK
6
CONTINUOUS
10
-4.18513
20
5.81498
11
-4.18074
21
5.81274
0
LINE
8
BLACK
6
CONTINUOUS
10
-4.18074
20
5.81274
11
-4.17726
21
5.80926
0
LINE
8
BLACK
6
CONTINUOUS
10
-4.17726
20
5.80926
11
-4.17656
21
5.80787
0
LINE
8
BLACK
6
CONTINUOUS
10
-4.17656
20
5.80787
11
-4.12874
21
5.80787
0
LINE
8
BLACK
6
CONTINUOUS
10
-4.12874
20
5.80787
11
-4.12745
21
5.80758
0
LINE
8
BLACK
6
CONTINUOUS
10
-4.12745
20
5.80758
11
-4.12614
21
5.80743
0
LINE
8
BLACK
6
CONTINUOUS
10
-4.12614
20
5.80743
11
-4.12576
21
5.80719
0
LINE
8
BLACK
6
CONTINUOUS
10
-4.12576
20
5.80719
11
-4.12532
21
5.80709
0
LINE
8
BLACK
6
CONTINUOUS
10
-4.12532
20
5.80709
11
-4.12429
21
5.80627
0
LINE
8
BLACK
6
CONTINUOUS
10
-4.12429
20
5.80627
11
-4.12317
21
5.80557
0
LINE
8
BLACK
6
CONTINUOUS
10
-4.12317
20
5.80557
11
-4.07443
21
5.75683
0
LINE
8
BLACK
6
CONTINUOUS
10
-4.07443
20
5.75683
11
-4.07373
21
5.75571
0
LINE
8
BLACK
6
CONTINUOUS
10
-4.07373
20
5.75571
11
-4.07291
21
5.75468
0
LINE
8
BLACK
6
CONTINUOUS
10
-4.07291
20
5.75468
11
-4.07281
21
5.75424
0
LINE
8
BLACK
6
CONTINUOUS
10
-4.07281
20
5.75424
11
-4.07257
21
5.75386
0
LINE
8
BLACK
6
CONTINUOUS
10
-4.07257
20
5.75386
11
-4.07242
21
5.75255
0
LINE
8
BLACK
6
CONTINUOUS
10
-4.07242
20
5.75255
11
-4.07213
21
5.75126
0
LINE
8
BLACK
6
CONTINUOUS
10
-4.07213
20
5.75126
11
-4.07213
21
5.64
0
LINE
8
BLACK
6
CONTINUOUS
10
-4.07213
20
5.64
11
-4.07242
21
5.63871
0
LINE
8
BLACK
6
CONTINUOUS
10
-4.07242
20
5.63871
11
-4.07257
21
5.6374
0
LINE
8
BLACK
6
CONTINUOUS
10
-4.07257
20
5.6374
11
-4.07281
21
5.63702
0
LINE
8
BLACK
6
CONTINUOUS
10
-4.07281
20
5.63702
11
-4.07291
21
5.63658
0
LINE
8
BLACK
6
CONTINUOUS
10
-4.07291
20
5.63658
11
-4.07373
21
5.63555
0
LINE
8
BLACK
6
CONTINUOUS
10
-4.07373
20
5.63555
11
-4.07443
21
5.63443
0
LINE
8
BLACK
6
CONTINUOUS
10
-4.07443
20
5.63443
11
-4.10298
21
5.60589
0
LINE
8
BLACK
6
CONTINUOUS
10
-4.10298
20
5.60589
11
-4.10409
21
5.60519
0
LINE
8
BLACK
6
CONTINUOUS
10
-4.10409
20
5.60519
11
-4.10513
21
5.60436
0
LINE
8
BLACK
6
CONTINUOUS
10
-4.10513
20
5.60436
11
-4.10556
21
5.60426
0
LINE
8
BLACK
6
CONTINUOUS
10
-4.10556
20
5.60426
11
-4.10594
21
5.60402
0
LINE
8
BLACK
6
CONTINUOUS
10
-4.10594
20
5.60402
11
-4.10726
21
5.60388
0
LINE
8
BLACK
6
CONTINUOUS
10
-4.10726
20
5.60388
11
-4.10854
21
5.60358
0
LINE
8
BLACK
6
CONTINUOUS
10
-4.10854
20
5.60358
11
-4.15575
21
5.60358
0
LINE
8
BLACK
6
CONTINUOUS
10
-4.15575
20
5.60358
11
-4.1558
21
5.60329
0
LINE
8
BLACK
6
CONTINUOUS
10
-4.1558
20
5.60329
11
-4.15708
21
5.60138
0
LINE
8
BLACK
6
CONTINUOUS
10
-4.15708
20
5.60138
11
-4.159
21
5.6001
0
LINE
8
BLACK
6
CONTINUOUS
10
-4.159
20
5.6001
11
-4.16126
21
5.59965
0
LINE
8
BLACK
6
CONTINUOUS
10
-4.16126
20
5.59965
11
-4.21638
21
5.59965
0
LINE
8
BLACK
6
CONTINUOUS
10
-4.21638
20
5.59965
11
-4.21864
21
5.6001
0
LINE
8
BLACK
6
CONTINUOUS
10
-4.21864
20
5.6001
11
-4.22055
21
5.60138
0
LINE
8
BLACK
6
CONTINUOUS
10
-4.22055
20
5.60138
11
-4.22183
21
5.60329
0
LINE
8
BLACK
6
CONTINUOUS
10
-4.22183
20
5.60329
11
-4.22228
21
5.60555
0
LINE
8
BLACK
6
CONTINUOUS
10
-4.22228
20
5.60555
11
-4.22228
21
5.61736
0
LINE
8
BLACK
6
CONTINUOUS
10
-4.22228
20
5.61736
11
-4.22183
21
5.61962
0
LINE
8
BLACK
6
CONTINUOUS
10
-4.22183
20
5.61962
11
-4.22055
21
5.62154
0
LINE
8
BLACK
6
CONTINUOUS
10
-4.22055
20
5.62154
11
-4.21864
21
5.62282
0
LINE
8
BLACK
6
CONTINUOUS
10
-4.21864
20
5.62282
11
-4.21638
21
5.62327
0
LINE
8
BLACK
6
CONTINUOUS
10
-4.21638
20
5.62327
11
-4.16126
21
5.62327
0
LINE
8
BLACK
6
CONTINUOUS
10
-4.16126
20
5.62327
11
-4.159
21
5.62282
0
LINE
8
BLACK
6
CONTINUOUS
10
-4.159
20
5.62282
11
-4.15708
21
5.62154
0
LINE
8
BLACK
6
CONTINUOUS
10
-4.15708
20
5.62154
11
-4.1558
21
5.61962
0
LINE
8
BLACK
6
CONTINUOUS
10
-4.1558
20
5.61962
11
-4.15575
21
5.61933
0
LINE
8
BLACK
6
CONTINUOUS
10
-4.15575
20
5.61933
11
-4.1118
21
5.61933
0
LINE
8
BLACK
6
CONTINUOUS
10
-4.1118
20
5.61933
11
-4.08787
21
5.64326
0
LINE
8
BLACK
6
CONTINUOUS
10
-4.08787
20
5.64326
11
-4.08787
21
5.748
0
LINE
8
BLACK
6
CONTINUOUS
10
-4.08787
20
5.748
11
-4.132
21
5.79213
0
LINE
8
BLACK
6
CONTINUOUS
10
-4.132
20
5.79213
11
-4.17656
21
5.79213
0
LINE
8
BLACK
6
CONTINUOUS
10
-4.17656
20
5.79213
11
-4.17726
21
5.79074
0
LINE
8
BLACK
6
CONTINUOUS
10
-4.17726
20
5.79074
11
-4.18074
21
5.78726
0
LINE
8
BLACK
6
CONTINUOUS
10
-4.18074
20
5.78726
11
-4.18513
21
5.78502
0
LINE
8
BLACK
6
CONTINUOUS
10
-4.18513
20
5.78502
11
-4.19
21
5.78425
0
LINE
8
BLACK
6
CONTINUOUS
10
-4.19
20
5.78425
11
-4.19487
21
5.78502
0
LINE
8
BLACK
6
CONTINUOUS
10
-4.19487
20
5.78502
11
-4.19926
21
5.78726
0
LINE
8
BLACK
6
CONTINUOUS
10
-4.19926
20
5.78726
11
-4.20274
21
5.79074
0
LINE
8
BLACK
6
CONTINUOUS
10
-4.20274
20
5.79074
11
-4.20498
21
5.79513
0
LINE
8
BLACK
6
CONTINUOUS
10
-4.20498
20
5.79513
11
-4.20575
21
5.8
0
LINE
8
BLACK
6
CONTINUOUS
10
-4.20575
20
5.8
11
-4.20512
21
5.80398
0
LINE
8
BLACK
6
CONTINUOUS
10
-4.20512
20
5.80398
11
-4.23326
21
5.83213
0
LINE
8
BLACK
6
CONTINUOUS
10
-4.23326
20
5.83213
11
-4.46656
21
5.83213
0
LINE
8
BLACK
6
CONTINUOUS
10
-4.46656
20
5.83213
11
-4.46726
21
5.83074
0
LINE
8
BLACK
6
CONTINUOUS
10
-4.46726
20
5.83074
11
-4.47074
21
5.82726
0
LINE
8
BLACK
6
CONTINUOUS
10
-4.47074
20
5.82726
11
-4.47513
21
5.82502
0
LINE
8
BLACK
6
CONTINUOUS
10
-4.47513
20
5.82502
11
-4.48
21
5.82425
0
LINE
8
BLACK
6
CONTINUOUS
10
-4.48
20
5.82425
11
-4.48487
21
5.82502
0
LINE
8
BLACK
6
CONTINUOUS
10
-4.48487
20
5.82502
11
-4.48926
21
5.82726
0
LINE
8
BLACK
6
CONTINUOUS
10
-4.48926
20
5.82726
11
-4.49274
21
5.83074
0
LINE
8
BLACK
6
CONTINUOUS
10
-4.49274
20
5.83074
11
-4.49344
21
5.83213
0
LINE
8
BLACK
6
CONTINUOUS
10
-4.49344
20
5.83213
11
-4.54257
21
5.83213
0
LINE
8
BLACK
6
CONTINUOUS
10
-4.54257
20
5.83213
11
-4.62026
21
5.75443
0
LINE
8
BLACK
6
CONTINUOUS
10
-4.62026
20
5.75443
11
-4.62138
21
5.75373
0
LINE
8
BLACK
6
CONTINUOUS
10
-4.62138
20
5.75373
11
-4.62241
21
5.75291
0
LINE
8
BLACK
6
CONTINUOUS
10
-4.62241
20
5.75291
11
-4.62285
21
5.75281
0
LINE
8
BLACK
6
CONTINUOUS
10
-4.62285
20
5.75281
11
-4.62323
21
5.75257
0
LINE
8
BLACK
6
CONTINUOUS
10
-4.62323
20
5.75257
11
-4.62454
21
5.75242
0
LINE
8
BLACK
6
CONTINUOUS
10
-4.62454
20
5.75242
11
-4.62583
21
5.75213
0
LINE
8
BLACK
6
CONTINUOUS
10
-4.62583
20
5.75213
11
-4.72156
21
5.75213
0
LINE
8
BLACK
6
CONTINUOUS
10
-4.72156
20
5.75213
11
-4.72226
21
5.75074
0
LINE
8
BLACK
6
CONTINUOUS
10
-4.72226
20
5.75074
11
-4.72574
21
5.74726
0
LINE
8
BLACK
6
CONTINUOUS
10
-4.72574
20
5.74726
11
-4.73013
21
5.74502
0
LINE
8
BLACK
6
CONTINUOUS
10
-4.73013
20
5.74502
11
-4.735
21
5.74425
0
LINE
8
BLACK
6
CONTINUOUS
10
-4.735
20
5.74425
11
-4.73987
21
5.74502
0
LINE
8
BLACK
6
CONTINUOUS
10
-4.73987
20
5.74502
11
-4.74426
21
5.74726
0
LINE
8
BLACK
6
CONTINUOUS
10
-4.74426
20
5.74726
11
-4.74774
21
5.75074
0
LINE
8
BLACK
6
CONTINUOUS
10
-4.74774
20
5.75074
11
-4.74844
21
5.75213
0
LINE
8
BLACK
6
CONTINUOUS
10
-4.74844
20
5.75213
11
-4.77368
21
5.75213
0
LINE
8
BLACK
6
CONTINUOUS
10
-4.77368
20
5.75213
11
-4.77391
21
5.75093
0
LINE
8
BLACK
6
CONTINUOUS
10
-4.77391
20
5.75093
11
-4.77519
21
5.74901
0
LINE
8
BLACK
6
CONTINUOUS
10
-4.77519
20
5.74901
11
-4.77711
21
5.74773
0
LINE
8
BLACK
6
CONTINUOUS
10
-4.77711
20
5.74773
11
-4.77937
21
5.74728
0
LINE
8
BLACK
6
CONTINUOUS
10
-4.77937
20
5.74728
11
-4.83449
21
5.74728
0
LINE
8
BLACK
6
CONTINUOUS
10
-4.83449
20
5.74728
11
-4.83675
21
5.74773
0
LINE
8
BLACK
6
CONTINUOUS
10
-4.83675
20
5.74773
11
-4.83866
21
5.74901
0
LINE
8
BLACK
6
CONTINUOUS
10
-4.83866
20
5.74901
11
-4.83994
21
5.75093
0
LINE
8
BLACK
6
CONTINUOUS
10
-4.83994
20
5.75093
11
-4.84
21
5.75122
0
LINE
8
BLACK
6
CONTINUOUS
10
-4.84
20
5.75122
11
-4.86178
21
5.75122
0
LINE
8
BLACK
6
CONTINUOUS
10
-4.86178
20
5.75122
11
-4.90213
21
5.71087
0
LINE
8
BLACK
6
CONTINUOUS
10
-4.90213
20
5.71087
11
-4.90213
21
5.64326
0
LINE
8
BLACK
6
CONTINUOUS
10
-4.90213
20
5.64326
11
-4.88174
21
5.62287
0
LINE
8
BLACK
6
CONTINUOUS
10
-4.88174
20
5.62287
11
-4.87844
21
5.62287
0
LINE
8
BLACK
6
CONTINUOUS
10
-4.87844
20
5.62287
11
-4.87774
21
5.62426
0
LINE
8
BLACK
6
CONTINUOUS
10
-4.87774
20
5.62426
11
-4.87426
21
5.62774
0
LINE
8
BLACK
6
CONTINUOUS
10
-4.87426
20
5.62774
11
-4.86987
21
5.62998
0
LINE
8
BLACK
6
CONTINUOUS
10
-4.86987
20
5.62998
11
-4.865
21
5.63075
0
LINE
8
BLACK
6
CONTINUOUS
10
-4.865
20
5.63075
11
-4.86013
21
5.62998
0
LINE
8
BLACK
6
CONTINUOUS
10
-4.86013
20
5.62998
11
-4.85574
21
5.62774
0
LINE
8
BLACK
6
CONTINUOUS
10
-4.85574
20
5.62774
11
-4.85226
21
5.62426
0
LINE
8
BLACK
6
CONTINUOUS
10
-4.85226
20
5.62426
11
-4.85002
21
5.61987
0
LINE
8
BLACK
6
CONTINUOUS
10
-4.85002
20
5.61987
11
-4.84925
21
5.615
0
LINE
8
BLACK
6
CONTINUOUS
10
-4.84925
20
5.615
11
-4.85002
21
5.61013
0
LINE
8
BLACK
6
CONTINUOUS
10
-4.85002
20
5.61013
11
-4.85226
21
5.60574
0
LINE
8
BLACK
6
CONTINUOUS
10
-4.85226
20
5.60574
11
-4.85574
21
5.60226
0
LINE
8
BLACK
6
CONTINUOUS
10
-4.85574
20
5.60226
11
-4.86013
21
5.60002
0
LINE
8
BLACK
6
CONTINUOUS
10
-4.86013
20
5.60002
11
-4.865
21
5.59925
0
LINE
8
BLACK
6
CONTINUOUS
10
-4.865
20
5.59925
11
-4.86987
21
5.60002
0
LINE
8
BLACK
6
CONTINUOUS
10
-4.86987
20
5.60002
11
-4.87426
21
5.60226
0
LINE
8
BLACK
6
CONTINUOUS
10
-4.87426
20
5.60226
11
-4.87774
21
5.60574
0
LINE
8
BLACK
6
CONTINUOUS
10
-4.87774
20
5.60574
11
-4.87844
21
5.60713
0
LINE
8
BLACK
6
CONTINUOUS
10
-4.87844
20
5.60713
11
-4.885
21
5.60713
0
LINE
8
BLACK
6
CONTINUOUS
10
-4.885
20
5.60713
11
-4.88629
21
5.60742
0
LINE
8
BLACK
6
CONTINUOUS
10
-4.88629
20
5.60742
11
-4.8876
21
5.60757
0
LINE
8
BLACK
6
CONTINUOUS
10
-4.8876
20
5.60757
11
-4.88798
21
5.60781
0
LINE
8
BLACK
6
CONTINUOUS
10
-4.88798
20
5.60781
11
-4.88842
21
5.60791
0
LINE
8
BLACK
6
CONTINUOUS
10
-4.88842
20
5.60791
11
-4.88945
21
5.60873
0
LINE
8
BLACK
6
CONTINUOUS
10
-4.88945
20
5.60873
11
-4.89057
21
5.60943
0
LINE
8
BLACK
6
CONTINUOUS
10
-4.89057
20
5.60943
11
-4.91557
21
5.63443
0
LINE
8
BLACK
6
CONTINUOUS
10
-4.91557
20
5.63443
11
-4.91627
21
5.63555
0
LINE
8
BLACK
6
CONTINUOUS
10
-4.91627
20
5.63555
11
-4.91709
21
5.63658
0
LINE
8
BLACK
6
CONTINUOUS
10
-4.91709
20
5.63658
11
-4.91719
21
5.63702
0
LINE
8
BLACK
6
CONTINUOUS
10
-4.91719
20
5.63702
11
-4.91743
21
5.6374
0
LINE
8
BLACK
6
CONTINUOUS
10
-4.91743
20
5.6374
11
-4.91758
21
5.63871
0
LINE
8
BLACK
6
CONTINUOUS
10
-4.91758
20
5.63871
11
-4.91787
21
5.64
0
LINE
8
BLACK
6
CONTINUOUS
10
-4.91787
20
5.64
11
-4.91787
21
5.71413
0
LINE
8
BLACK
6
CONTINUOUS
10
-4.91787
20
5.71413
11
-4.91758
21
5.71542
0
LINE
8
BLACK
6
CONTINUOUS
10
-4.91758
20
5.71542
11
-4.91743
21
5.71673
0
LINE
8
BLACK
6
CONTINUOUS
10
-4.91743
20
5.71673
11
-4.91719
21
5.71711
0
LINE
8
BLACK
6
CONTINUOUS
10
-4.91719
20
5.71711
11
-4.91709
21
5.71755
0
LINE
8
BLACK
6
CONTINUOUS
10
-4.91709
20
5.71755
11
-4.91627
21
5.71858
0
LINE
8
BLACK
6
CONTINUOUS
10
-4.91627
20
5.71858
11
-4.91557
21
5.7197
0
LINE
8
BLACK
6
CONTINUOUS
10
-4.91557
20
5.7197
11
-4.87061
21
5.76466
0
LINE
8
BLACK
6
CONTINUOUS
10
-4.87061
20
5.76466
11
-4.86949
21
5.76537
0
LINE
8
BLACK
6
CONTINUOUS
10
-4.86949
20
5.76537
11
-4.86846
21
5.76619
0
LINE
8
BLACK
6
CONTINUOUS
10
-4.86846
20
5.76619
11
-4.86802
21
5.76629
0
LINE
8
BLACK
6
CONTINUOUS
10
-4.86802
20
5.76629
11
-4.86764
21
5.76653
0
LINE
8
BLACK
6
CONTINUOUS
10
-4.86764
20
5.76653
11
-4.86633
21
5.76667
0
LINE
8
BLACK
6
CONTINUOUS
10
-4.86633
20
5.76667
11
-4.86504
21
5.76697
0
LINE
8
BLACK
6
CONTINUOUS
10
-4.86504
20
5.76697
11
-4.84
21
5.76697
0
LINE
8
BLACK
6
CONTINUOUS
10
-4.84
20
5.76697
11
-4.83994
21
5.76726
0
LINE
8
BLACK
6
CONTINUOUS
10
-4.83994
20
5.76726
11
-4.83866
21
5.76918
0
LINE
8
BLACK
6
CONTINUOUS
10
-4.83866
20
5.76918
11
-4.83675
21
5.77046
0
LINE
8
BLACK
6
CONTINUOUS
10
-4.83675
20
5.77046
11
-4.83449
21
5.77091
0
LINE
8
BLACK
6
CONTINUOUS
10
-4.83449
20
5.77091
11
-4.77937
21
5.77091
0
LINE
8
BLACK
6
CONTINUOUS
10
-4.77937
20
5.77091
11
-4.77711
21
5.77046
0
LINE
8
BLACK
6
CONTINUOUS
10
-4.77711
20
5.77046
11
-4.77519
21
5.76918
0
LINE
8
BLACK
6
CONTINUOUS
10
-4.77519
20
5.76918
11
-4.77432
21
5.76787
0
LINE
8
BLACK
6
CONTINUOUS
10
-4.77432
20
5.76787
11
-4.74844
21
5.76787
0
LINE
8
BLACK
6
CONTINUOUS
10
-4.74844
20
5.76787
11
-4.74774
21
5.76926
0
LINE
8
BLACK
6
CONTINUOUS
10
-4.74774
20
5.76926
11
-4.74426
21
5.77274
0
LINE
8
BLACK
6
CONTINUOUS
10
-4.74426
20
5.77274
11
-4.73987
21
5.77498
0
LINE
8
BLACK
6
CONTINUOUS
10
-4.73987
20
5.77498
11
-4.735
21
5.77575
0
LINE
8
BLACK
6
CONTINUOUS
10
-4.735
20
5.77575
11
-4.73013
21
5.77498
0
LINE
8
BLACK
6
CONTINUOUS
10
-4.73013
20
5.77498
11
-4.72574
21
5.77274
0
LINE
8
BLACK
6
CONTINUOUS
10
-4.72574
20
5.77274
11
-4.72226
21
5.76926
0
LINE
8
BLACK
6
CONTINUOUS
10
-4.72226
20
5.76926
11
-4.72156
21
5.76787
0
LINE
8
BLACK
6
CONTINUOUS
10
-4.72156
20
5.76787
11
-4.62909
21
5.76787
0
LINE
8
BLACK
6
CONTINUOUS
10
-4.62909
20
5.76787
11
-4.55139
21
5.84557
0
LINE
8
BLACK
6
CONTINUOUS
10
-4.55139
20
5.84557
11
-4.55028
21
5.84627
0
LINE
8
BLACK
6
CONTINUOUS
10
-4.55028
20
5.84627
11
-4.54924
21
5.84709
0
LINE
8
BLACK
6
CONTINUOUS
10
-4.54924
20
5.84709
11
-4.54881
21
5.84719
0
LINE
8
BLACK
6
CONTINUOUS
10
-4.54881
20
5.84719
11
-4.54843
21
5.84743
0
LINE
8
BLACK
6
CONTINUOUS
10
-4.54843
20
5.84743
11
-4.54711
21
5.84758
0
LINE
8
BLACK
6
CONTINUOUS
10
-4.54711
20
5.84758
11
-4.54583
21
5.84787
0
LINE
8
BLACK
6
CONTINUOUS
10
-4.54583
20
5.84787
11
-4.49344
21
5.84787
0
LINE
8
BLACK
6
CONTINUOUS
10
-4.49344
20
5.84787
11
-4.49274
21
5.84926
0
LINE
8
BLACK
6
CONTINUOUS
10
-4.49274
20
5.84926
11
-4.48926
21
5.85274
0
LINE
8
BLACK
6
CONTINUOUS
10
-4.48926
20
5.85274
11
-4.48487
21
5.85498
0
LINE
8
BLACK
6
CONTINUOUS
10
-4.48487
20
5.85498
11
-4.48
21
5.85575
0
LINE
8
BLACK
6
CONTINUOUS
10
-4.48
20
5.85575
11
-4.47513
21
5.85498
0
LINE
8
BLACK
6
CONTINUOUS
10
-4.46503
20
5.67536
11
-4.46064
21
5.67313
0
LINE
8
BLACK
6
CONTINUOUS
10
-4.46064
20
5.67313
11
-4.45716
21
5.66964
0
LINE
8
BLACK
6
CONTINUOUS
10
-4.45716
20
5.66964
11
-4.45492
21
5.66525
0
LINE
8
BLACK
6
CONTINUOUS
10
-4.45492
20
5.66525
11
-4.45415
21
5.66038
0
LINE
8
BLACK
6
CONTINUOUS
10
-4.45415
20
5.66038
11
-4.45492
21
5.65552
0
LINE
8
BLACK
6
CONTINUOUS
10
-4.45492
20
5.65552
11
-4.45716
21
5.65113
0
LINE
8
BLACK
6
CONTINUOUS
10
-4.45716
20
5.65113
11
-4.46064
21
5.64764
0
LINE
8
BLACK
6
CONTINUOUS
10
-4.46064
20
5.64764
11
-4.46503
21
5.64541
0
LINE
8
BLACK
6
CONTINUOUS
10
-4.46503
20
5.64541
11
-4.4699
21
5.64464
0
LINE
8
BLACK
6
CONTINUOUS
10
-4.4699
20
5.64464
11
-4.47477
21
5.64541
0
LINE
8
BLACK
6
CONTINUOUS
10
-4.47477
20
5.64541
11
-4.47916
21
5.64764
0
LINE
8
BLACK
6
CONTINUOUS
10
-4.47916
20
5.64764
11
-4.48264
21
5.65113
0
LINE
8
BLACK
6
CONTINUOUS
10
-4.48264
20
5.65113
11
-4.48349
21
5.6528
0
LINE
8
BLACK
6
CONTINUOUS
10
-4.48349
20
5.6528
11
-4.77386
21
5.6528
0
LINE
8
BLACK
6
CONTINUOUS
10
-4.77386
20
5.6528
11
-4.77391
21
5.6525
0
LINE
8
BLACK
6
CONTINUOUS
10
-4.77391
20
5.6525
11
-4.77519
21
5.65059
0
LINE
8
BLACK
6
CONTINUOUS
10
-4.77519
20
5.65059
11
-4.77711
21
5.64931
0
LINE
8
BLACK
6
CONTINUOUS
10
-4.77711
20
5.64931
11
-4.77937
21
5.64886
0
LINE
8
BLACK
6
CONTINUOUS
10
-4.77937
20
5.64886
11
-4.83449
21
5.64886
0
LINE
8
BLACK
6
CONTINUOUS
10
-4.83449
20
5.64886
11
-4.83675
21
5.64931
0
LINE
8
BLACK
6
CONTINUOUS
10
-4.83675
20
5.64931
11
-4.83866
21
5.65059
0
LINE
8
BLACK
6
CONTINUOUS
10
-4.83866
20
5.65059
11
-4.83969
21
5.65213
0
LINE
8
BLACK
6
CONTINUOUS
10
-4.83969
20
5.65213
11
-4.86156
21
5.65213
0
LINE
8
BLACK
6
CONTINUOUS
10
-4.86156
20
5.65213
11
-4.86226
21
5.65074
0
LINE
8
BLACK
6
CONTINUOUS
10
-4.86226
20
5.65074
11
-4.86574
21
5.64726
0
LINE
8
BLACK
6
CONTINUOUS
10
-4.86574
20
5.64726
11
-4.87013
21
5.64502
0
LINE
8
BLACK
6
CONTINUOUS
10
-4.87013
20
5.64502
11
-4.875
21
5.64425
0
LINE
8
BLACK
6
CONTINUOUS
10
-4.875
20
5.64425
11
-4.87987
21
5.64502
0
LINE
8
BLACK
6
CONTINUOUS
10
-4.87987
20
5.64502
11
-4.88426
21
5.64726
0
LINE
8
BLACK
6
CONTINUOUS
10
-4.88426
20
5.64726
11
-4.88774
21
5.65074
0
LINE
8
BLACK
6
CONTINUOUS
10
-4.88774
20
5.65074
11
-4.88998
21
5.65513
0
LINE
8
BLACK
6
CONTINUOUS
10
-4.88998
20
5.65513
11
-4.89075
21
5.66
0
LINE
8
BLACK
6
CONTINUOUS
10
-4.89075
20
5.66
11
-4.88998
21
5.66487
0
LINE
8
BLACK
6
CONTINUOUS
10
-4.88998
20
5.66487
11
-4.88774
21
5.66926
0
LINE
8
BLACK
6
CONTINUOUS
10
-4.88774
20
5.66926
11
-4.88426
21
5.67274
0
LINE
8
BLACK
6
CONTINUOUS
10
-4.88426
20
5.67274
11
-4.87987
21
5.67498
0
LINE
8
BLACK
6
CONTINUOUS
10
-4.87987
20
5.67498
11
-4.875
21
5.67575
0
LINE
8
BLACK
6
CONTINUOUS
10
-4.875
20
5.67575
11
-4.87013
21
5.67498
0
LINE
8
BLACK
6
CONTINUOUS
10
-4.87013
20
5.67498
11
-4.86574
21
5.67274
0
LINE
8
BLACK
6
CONTINUOUS
10
-4.86574
20
5.67274
11
-4.86226
21
5.66926
0
LINE
8
BLACK
6
CONTINUOUS
10
-4.86226
20
5.66926
11
-4.86156
21
5.66787
0
LINE
8
BLACK
6
CONTINUOUS
10
-4.86156
20
5.66787
11
-4.84014
21
5.66787
0
LINE
8
BLACK
6
CONTINUOUS
10
-4.84014
20
5.66787
11
-4.83994
21
5.66883
0
LINE
8
BLACK
6
CONTINUOUS
10
-4.83994
20
5.66883
11
-4.83866
21
5.67075
0
LINE
8
BLACK
6
CONTINUOUS
10
-4.83866
20
5.67075
11
-4.83675
21
5.67203
0
LINE
8
BLACK
6
CONTINUOUS
10
-4.83675
20
5.67203
11
-4.83449
21
5.67248
0
LINE
8
BLACK
6
CONTINUOUS
10
-4.83449
20
5.67248
11
-4.77937
21
5.67248
0
LINE
8
BLACK
6
CONTINUOUS
10
-4.77937
20
5.67248
11
-4.77711
21
5.67203
0
LINE
8
BLACK
6
CONTINUOUS
10
-4.77711
20
5.67203
11
-4.77519
21
5.67075
0
LINE
8
BLACK
6
CONTINUOUS
10
-4.77519
20
5.67075
11
-4.77391
21
5.66883
0
LINE
8
BLACK
6
CONTINUOUS
10
-4.77391
20
5.66883
11
-4.77386
21
5.66854
0
LINE
8
BLACK
6
CONTINUOUS
10
-4.77386
20
5.66854
11
-4.4832
21
5.66854
0
LINE
8
BLACK
6
CONTINUOUS
10
-4.4832
20
5.66854
11
-4.48264
21
5.66964
0
LINE
8
BLACK
6
CONTINUOUS
10
-4.48264
20
5.66964
11
-4.47916
21
5.67313
0
LINE
8
BLACK
6
CONTINUOUS
10
-4.47916
20
5.67313
11
-4.47477
21
5.67536
0
LINE
8
BLACK
6
CONTINUOUS
10
-4.47477
20
5.67536
11
-4.4699
21
5.67613
0
LINE
8
BLACK
6
CONTINUOUS
10
-4.4699
20
5.67613
11
-4.46503
21
5.67536
0
LINE
8
BLACK
6
CONTINUOUS
10
-4.73502
20
5.72486
11
-4.73063
21
5.72262
0
LINE
8
BLACK
6
CONTINUOUS
10
-4.73063
20
5.72262
11
-4.72714
21
5.71914
0
LINE
8
BLACK
6
CONTINUOUS
10
-4.72714
20
5.71914
11
-4.7249
21
5.71475
0
LINE
8
BLACK
6
CONTINUOUS
10
-4.7249
20
5.71475
11
-4.72413
21
5.70988
0
LINE
8
BLACK
6
CONTINUOUS
10
-4.72413
20
5.70988
11
-4.72476
21
5.7059
0
LINE
8
BLACK
6
CONTINUOUS
10
-4.72476
20
5.7059
11
-4.7186
21
5.69974
0
LINE
8
BLACK
6
CONTINUOUS
10
-4.7186
20
5.69974
11
-4.45686
21
5.69974
0
LINE
8
BLACK
6
CONTINUOUS
10
-4.45686
20
5.69974
11
-4.45557
21
5.69944
0
LINE
8
BLACK
6
CONTINUOUS
10
-4.45557
20
5.69944
11
-4.45426
21
5.69929
0
LINE
8
BLACK
6
CONTINUOUS
10
-4.45426
20
5.69929
11
-4.45388
21
5.69906
0
LINE
8
BLACK
6
CONTINUOUS
10
-4.45388
20
5.69906
11
-4.45345
21
5.69896
0
LINE
8
BLACK
6
CONTINUOUS
10
-4.45345
20
5.69896
11
-4.45241
21
5.69813
0
LINE
8
BLACK
6
CONTINUOUS
10
-4.45241
20
5.69813
11
-4.45129
21
5.69743
0
LINE
8
BLACK
6
CONTINUOUS
10
-4.45129
20
5.69743
11
-4.42898
21
5.67512
0
LINE
8
BLACK
6
CONTINUOUS
10
-4.42898
20
5.67512
11
-4.425
21
5.67575
0
LINE
8
BLACK
6
CONTINUOUS
10
-4.425
20
5.67575
11
-4.42013
21
5.67498
0
LINE
8
BLACK
6
CONTINUOUS
10
-4.42013
20
5.67498
11
-4.41574
21
5.67274
0
LINE
8
BLACK
6
CONTINUOUS
10
-4.41574
20
5.67274
11
-4.41226
21
5.66926
0
LINE
8
BLACK
6
CONTINUOUS
10
-4.41226
20
5.66926
11
-4.41002
21
5.66487
0
LINE
8
BLACK
6
CONTINUOUS
10
-4.41002
20
5.66487
11
-4.40925
21
5.66
0
LINE
8
BLACK
6
CONTINUOUS
10
-4.40925
20
5.66
11
-4.41002
21
5.65513
0
LINE
8
BLACK
6
CONTINUOUS
10
-4.41002
20
5.65513
11
-4.41226
21
5.65074
0
LINE
8
BLACK
6
CONTINUOUS
10
-4.41226
20
5.65074
11
-4.41574
21
5.64726
0
LINE
8
BLACK
6
CONTINUOUS
10
-4.41574
20
5.64726
11
-4.42013
21
5.64502
0
LINE
8
BLACK
6
CONTINUOUS
10
-4.42013
20
5.64502
11
-4.425
21
5.64425
0
LINE
8
BLACK
6
CONTINUOUS
10
-4.425
20
5.64425
11
-4.42987
21
5.64502
0
LINE
8
BLACK
6
CONTINUOUS
10
-4.42987
20
5.64502
11
-4.43426
21
5.64726
0
LINE
8
BLACK
6
CONTINUOUS
10
-4.43426
20
5.64726
11
-4.43774
21
5.65074
0
LINE
8
BLACK
6
CONTINUOUS
10
-4.43774
20
5.65074
11
-4.43998
21
5.65513
0
LINE
8
BLACK
6
CONTINUOUS
10
-4.43998
20
5.65513
11
-4.44075
21
5.66
0
LINE
8
BLACK
6
CONTINUOUS
10
-4.44075
20
5.66
11
-4.44012
21
5.66398
0
LINE
8
BLACK
6
CONTINUOUS
10
-4.44012
20
5.66398
11
-4.46012
21
5.68399
0
LINE
8
BLACK
6
CONTINUOUS
10
-4.46012
20
5.68399
11
-4.72186
21
5.68399
0
LINE
8
BLACK
6
CONTINUOUS
10
-4.72186
20
5.68399
11
-4.72315
21
5.68428
0
LINE
8
BLACK
6
CONTINUOUS
10
-4.72315
20
5.68428
11
-4.72446
21
5.68443
0
LINE
8
BLACK
6
CONTINUOUS
10
-4.72446
20
5.68443
11
-4.72484
21
5.68467
0
LINE
8
BLACK
6
CONTINUOUS
10
-4.72484
20
5.68467
11
-4.72528
21
5.68477
0
LINE
8
BLACK
6
CONTINUOUS
10
-4.72528
20
5.68477
11
-4.72631
21
5.68559
0
LINE
8
BLACK
6
CONTINUOUS
10
-4.72631
20
5.68559
11
-4.72743
21
5.68629
0
LINE
8
BLACK
6
CONTINUOUS
10
-4.72743
20
5.68629
11
-4.7359
21
5.69476
0
LINE
8
BLACK
6
CONTINUOUS
10
-4.7359
20
5.69476
11
-4.73988
21
5.69413
0
LINE
8
BLACK
6
CONTINUOUS
10
-4.73988
20
5.69413
11
-4.74475
21
5.6949
0
LINE
8
BLACK
6
CONTINUOUS
10
-4.74475
20
5.6949
11
-4.74914
21
5.69714
0
LINE
8
BLACK
6
CONTINUOUS
10
-4.74914
20
5.69714
11
-4.75262
21
5.70063
0
LINE
8
BLACK
6
CONTINUOUS
10
-4.75262
20
5.70063
11
-4.75333
21
5.70201
0
LINE
8
BLACK
6
CONTINUOUS
10
-4.75333
20
5.70201
11
-4.77386
21
5.70201
0
LINE
8
BLACK
6
CONTINUOUS
10
-4.77386
20
5.70201
11
-4.77391
21
5.70172
0
LINE
8
BLACK
6
CONTINUOUS
10
-4.77391
20
5.70172
11
-4.77519
21
5.6998
0
LINE
8
BLACK
6
CONTINUOUS
10
-4.77519
20
5.6998
11
-4.77711
21
5.69852
0
LINE
8
BLACK
6
CONTINUOUS
10
-4.77711
20
5.69852
11
-4.77937
21
5.69807
0
LINE
8
BLACK
6
CONTINUOUS
10
-4.77937
20
5.69807
11
-4.83449
21
5.69807
0
LINE
8
BLACK
6
CONTINUOUS
10
-4.83449
20
5.69807
11
-4.83675
21
5.69852
0
LINE
8
BLACK
6
CONTINUOUS
10
-4.83675
20
5.69852
11
-4.83866
21
5.6998
0
LINE
8
BLACK
6
CONTINUOUS
10
-4.83866
20
5.6998
11
-4.83994
21
5.70172
0
LINE
8
BLACK
6
CONTINUOUS
10
-4.83994
20
5.70172
11
-4.84039
21
5.70398
0
LINE
8
BLACK
6
CONTINUOUS
10
-4.84039
20
5.70398
11
-4.84039
21
5.71579
0
LINE
8
BLACK
6
CONTINUOUS
10
-4.84039
20
5.71579
11
-4.83994
21
5.71805
0
LINE
8
BLACK
6
CONTINUOUS
10
-4.83994
20
5.71805
11
-4.83866
21
5.71996
0
LINE
8
BLACK
6
CONTINUOUS
10
-4.83866
20
5.71996
11
-4.83675
21
5.72124
0
LINE
8
BLACK
6
CONTINUOUS
10
-4.83675
20
5.72124
11
-4.83449
21
5.72169
0
LINE
8
BLACK
6
CONTINUOUS
10
-4.83449
20
5.72169
11
-4.77937
21
5.72169
0
LINE
8
BLACK
6
CONTINUOUS
10
-4.77937
20
5.72169
11
-4.77711
21
5.72124
0
LINE
8
BLACK
6
CONTINUOUS
10
-4.77711
20
5.72124
11
-4.77519
21
5.71996
0
LINE
8
BLACK
6
CONTINUOUS
10
-4.77519
20
5.71996
11
-4.77391
21
5.71805
0
LINE
8
BLACK
6
CONTINUOUS
10
-4.77391
20
5.71805
11
-4.77386
21
5.71776
0
LINE
8
BLACK
6
CONTINUOUS
10
-4.77386
20
5.71776
11
-4.75333
21
5.71776
0
LINE
8
BLACK
6
CONTINUOUS
10
-4.75333
20
5.71776
11
-4.75262
21
5.71914
0
LINE
8
BLACK
6
CONTINUOUS
10
-4.75262
20
5.71914
11
-4.74914
21
5.72262
0
LINE
8
BLACK
6
CONTINUOUS
10
-4.74914
20
5.72262
11
-4.74475
21
5.72486
0
LINE
8
BLACK
6
CONTINUOUS
10
-4.74475
20
5.72486
11
-4.73988
21
5.72563
0
LINE
8
BLACK
6
CONTINUOUS
10
-4.73988
20
5.72563
11
-4.73502
21
5.72486
0
LINE
8
BLACK
6
CONTINUOUS
10
-4.2508
20
5.67565
11
-4.24641
21
5.67341
0
LINE
8
BLACK
6
CONTINUOUS
10
-4.24641
20
5.67341
11
-4.24293
21
5.66993
0
LINE
8
BLACK
6
CONTINUOUS
10
-4.24293
20
5.66993
11
-4.24222
21
5.66854
0
LINE
8
BLACK
6
CONTINUOUS
10
-4.24222
20
5.66854
11
-4.22189
21
5.66854
0
LINE
8
BLACK
6
CONTINUOUS
10
-4.22189
20
5.66854
11
-4.22183
21
5.66883
0
LINE
8
BLACK
6
CONTINUOUS
10
-4.22183
20
5.66883
11
-4.22055
21
5.67075
0
LINE
8
BLACK
6
CONTINUOUS
10
-4.22055
20
5.67075
11
-4.21864
21
5.67203
0
LINE
8
BLACK
6
CONTINUOUS
10
-4.21864
20
5.67203
11
-4.21638
21
5.67248
0
LINE
8
BLACK
6
CONTINUOUS
10
-4.21638
20
5.67248
11
-4.16126
21
5.67248
0
LINE
8
BLACK
6
CONTINUOUS
10
-4.16126
20
5.67248
11
-4.159
21
5.67203
0
LINE
8
BLACK
6
CONTINUOUS
10
-4.159
20
5.67203
11
-4.15708
21
5.67075
0
LINE
8
BLACK
6
CONTINUOUS
10
-4.15708
20
5.67075
11
-4.1558
21
5.66883
0
LINE
8
BLACK
6
CONTINUOUS
10
-4.1558
20
5.66883
11
-4.15535
21
5.66657
0
LINE
8
BLACK
6
CONTINUOUS
10
-4.15535
20
5.66657
11
-4.15535
21
5.65476
0
LINE
8
BLACK
6
CONTINUOUS
10
-4.15535
20
5.65476
11
-4.1558
21
5.6525
0
LINE
8
BLACK
6
CONTINUOUS
10
-4.1558
20
5.6525
11
-4.15708
21
5.65059
0
LINE
8
BLACK
6
CONTINUOUS
10
-4.15708
20
5.65059
11
-4.159
21
5.64931
0
LINE
8
BLACK
6
CONTINUOUS
10
-4.159
20
5.64931
11
-4.16126
21
5.64886
0
LINE
8
BLACK
6
CONTINUOUS
10
-4.16126
20
5.64886
11
-4.21638
21
5.64886
0
LINE
8
BLACK
6
CONTINUOUS
10
-4.21638
20
5.64886
11
-4.21864
21
5.64931
0
LINE
8
BLACK
6
CONTINUOUS
10
-4.21864
20
5.64931
11
-4.22055
21
5.65059
0
LINE
8
BLACK
6
CONTINUOUS
10
-4.22055
20
5.65059
11
-4.22183
21
5.6525
0
LINE
8
BLACK
6
CONTINUOUS
10
-4.22183
20
5.6525
11
-4.22189
21
5.6528
0
LINE
8
BLACK
6
CONTINUOUS
10
-4.22189
20
5.6528
11
-4.24222
21
5.6528
0
LINE
8
BLACK
6
CONTINUOUS
10
-4.24222
20
5.6528
11
-4.24293
21
5.65141
0
LINE
8
BLACK
6
CONTINUOUS
10
-4.24293
20
5.65141
11
-4.24641
21
5.64793
0
LINE
8
BLACK
6
CONTINUOUS
10
-4.24641
20
5.64793
11
-4.2508
21
5.64569
0
LINE
8
BLACK
6
CONTINUOUS
10
-4.2508
20
5.64569
11
-4.25567
21
5.64492
0
LINE
8
BLACK
6
CONTINUOUS
10
-4.25567
20
5.64492
11
-4.26054
21
5.64569
0
LINE
8
BLACK
6
CONTINUOUS
10
-4.26054
20
5.64569
11
-4.26493
21
5.64793
0
LINE
8
BLACK
6
CONTINUOUS
10
-4.26493
20
5.64793
11
-4.26841
21
5.65141
0
LINE
8
BLACK
6
CONTINUOUS
10
-4.26841
20
5.65141
11
-4.26911
21
5.6528
0
LINE
8
BLACK
6
CONTINUOUS
10
-4.26911
20
5.6528
11
-4.35121
21
5.6528
0
LINE
8
BLACK
6
CONTINUOUS
10
-4.35121
20
5.6528
11
-4.35226
21
5.65074
0
LINE
8
BLACK
6
CONTINUOUS
10
-4.35226
20
5.65074
11
-4.35574
21
5.64726
0
LINE
8
BLACK
6
CONTINUOUS
10
-4.35574
20
5.64726
11
-4.36013
21
5.64502
0
LINE
8
BLACK
6
CONTINUOUS
10
-4.36013
20
5.64502
11
-4.365
21
5.64425
0
LINE
8
BLACK
6
CONTINUOUS
10
-4.365
20
5.64425
11
-4.36987
21
5.64502
0
LINE
8
BLACK
6
CONTINUOUS
10
-4.36987
20
5.64502
11
-4.37426
21
5.64726
0
LINE
8
BLACK
6
CONTINUOUS
10
-4.37426
20
5.64726
11
-4.37774
21
5.65074
0
LINE
8
BLACK
6
CONTINUOUS
10
-4.37774
20
5.65074
11
-4.37998
21
5.65513
0
LINE
8
BLACK
6
CONTINUOUS
10
-4.37998
20
5.65513
11
-4.38075
21
5.66
0
LINE
8
BLACK
6
CONTINUOUS
10
-4.38075
20
5.66
11
-4.37998
21
5.66487
0
LINE
8
BLACK
6
CONTINUOUS
10
-4.37998
20
5.66487
11
-4.37774
21
5.66926
0
LINE
8
BLACK
6
CONTINUOUS
10
-4.37774
20
5.66926
11
-4.37426
21
5.67274
0
LINE
8
BLACK
6
CONTINUOUS
10
-4.37426
20
5.67274
11
-4.36987
21
5.67498
0
LINE
8
BLACK
6
CONTINUOUS
10
-4.36987
20
5.67498
11
-4.365
21
5.67575
0
LINE
8
BLACK
6
CONTINUOUS
10
-4.365
20
5.67575
11
-4.36013
21
5.67498
0
LINE
8
BLACK
6
CONTINUOUS
10
-4.36013
20
5.67498
11
-4.35574
21
5.67274
0
LINE
8
BLACK
6
CONTINUOUS
10
-4.35574
20
5.67274
11
-4.35226
21
5.66926
0
LINE
8
BLACK
6
CONTINUOUS
10
-4.35226
20
5.66926
11
-4.3519
21
5.66854
0
LINE
8
BLACK
6
CONTINUOUS
10
-4.3519
20
5.66854
11
-4.26911
21
5.66854
0
LINE
8
BLACK
6
CONTINUOUS
10
-4.26911
20
5.66854
11
-4.26841
21
5.66993
0
LINE
8
BLACK
6
CONTINUOUS
10
-4.26841
20
5.66993
11
-4.26493
21
5.67341
0
LINE
8
BLACK
6
CONTINUOUS
10
-4.26493
20
5.67341
11
-4.26054
21
5.67565
0
LINE
8
BLACK
6
CONTINUOUS
10
-4.26054
20
5.67565
11
-4.25567
21
5.67642
0
LINE
8
BLACK
6
CONTINUOUS
10
-4.25567
20
5.67642
11
-4.2508
21
5.67565
0
LINE
8
BLACK
6
CONTINUOUS
10
-4.38911
20
5.72453
11
-4.38472
21
5.72229
0
LINE
8
BLACK
6
CONTINUOUS
10
-4.38472
20
5.72229
11
-4.38123
21
5.71881
0
LINE
8
BLACK
6
CONTINUOUS
10
-4.38123
20
5.71881
11
-4.3807
21
5.71776
0
LINE
8
BLACK
6
CONTINUOUS
10
-4.3807
20
5.71776
11
-4.22189
21
5.71776
0
LINE
8
BLACK
6
CONTINUOUS
10
-4.22189
20
5.71776
11
-4.22183
21
5.71805
0
LINE
8
BLACK
6
CONTINUOUS
10
-4.22183
20
5.71805
11
-4.22055
21
5.71996
0
LINE
8
BLACK
6
CONTINUOUS
10
-4.22055
20
5.71996
11
-4.21864
21
5.72124
0
LINE
8
BLACK
6
CONTINUOUS
10
-4.21864
20
5.72124
11
-4.21638
21
5.72169
0
LINE
8
BLACK
6
CONTINUOUS
10
-4.21638
20
5.72169
11
-4.16126
21
5.72169
0
LINE
8
BLACK
6
CONTINUOUS
10
-4.16126
20
5.72169
11
-4.159
21
5.72124
0
LINE
8
BLACK
6
CONTINUOUS
10
-4.159
20
5.72124
11
-4.15708
21
5.71996
0
LINE
8
BLACK
6
CONTINUOUS
10
-4.15708
20
5.71996
11
-4.1558
21
5.71805
0
LINE
8
BLACK
6
CONTINUOUS
10
-4.1558
20
5.71805
11
-4.15575
21
5.71776
0
LINE
8
BLACK
6
CONTINUOUS
10
-4.15575
20
5.71776
11
-4.15083
21
5.71776
0
LINE
8
BLACK
6
CONTINUOUS
10
-4.15083
20
5.71776
11
-4.14954
21
5.71746
0
LINE
8
BLACK
6
CONTINUOUS
10
-4.14954
20
5.71746
11
-4.14823
21
5.71731
0
LINE
8
BLACK
6
CONTINUOUS
10
-4.14823
20
5.71731
11
-4.14785
21
5.71708
0
LINE
8
BLACK
6
CONTINUOUS
10
-4.14785
20
5.71708
11
-4.14741
21
5.71698
0
LINE
8
BLACK
6
CONTINUOUS
10
-4.14741
20
5.71698
11
-4.14638
21
5.71615
0
LINE
8
BLACK
6
CONTINUOUS
10
-4.14638
20
5.71615
11
-4.14526
21
5.71545
0
LINE
8
BLACK
6
CONTINUOUS
10
-4.14526
20
5.71545
11
-4.12618
21
5.69637
0
LINE
8
BLACK
6
CONTINUOUS
10
-4.12618
20
5.69637
11
-4.12548
21
5.69526
0
LINE
8
BLACK
6
CONTINUOUS
10
-4.12548
20
5.69526
11
-4.12466
21
5.69422
0
LINE
8
BLACK
6
CONTINUOUS
10
-4.12466
20
5.69422
11
-4.12456
21
5.69379
0
LINE
8
BLACK
6
CONTINUOUS
10
-4.12456
20
5.69379
11
-4.12432
21
5.69341
0
LINE
8
BLACK
6
CONTINUOUS
10
-4.12432
20
5.69341
11
-4.12417
21
5.69209
0
LINE
8
BLACK
6
CONTINUOUS
10
-4.12417
20
5.69209
11
-4.12388
21
5.69081
0
LINE
8
BLACK
6
CONTINUOUS
10
-4.12388
20
5.69081
11
-4.12388
21
5.67588
0
LINE
8
BLACK
6
CONTINUOUS
10
-4.12388
20
5.67588
11
-4.1225
21
5.67517
0
LINE
8
BLACK
6
CONTINUOUS
10
-4.1225
20
5.67517
11
-4.11901
21
5.67169
0
LINE
8
BLACK
6
CONTINUOUS
10
-4.11901
20
5.67169
11
-4.11677
21
5.6673
0
LINE
8
BLACK
6
CONTINUOUS
10
-4.11677
20
5.6673
11
-4.116
21
5.66243
0
LINE
8
BLACK
6
CONTINUOUS
10
-4.116
20
5.66243
11
-4.11677
21
5.65757
0
LINE
8
BLACK
6
CONTINUOUS
10
-4.11677
20
5.65757
11
-4.11901
21
5.65318
0
LINE
8
BLACK
6
CONTINUOUS
10
-4.11901
20
5.65318
11
-4.1225
21
5.64969
0
LINE
8
BLACK
6
CONTINUOUS
10
-4.1225
20
5.64969
11
-4.12689
21
5.64746
0
LINE
8
BLACK
6
CONTINUOUS
10
-4.12689
20
5.64746
11
-4.13175
21
5.64668
0
LINE
8
BLACK
6
CONTINUOUS
10
-4.13175
20
5.64668
11
-4.13662
21
5.64746
0
LINE
8
BLACK
6
CONTINUOUS
10
-4.13662
20
5.64746
11
-4.14101
21
5.64969
0
LINE
8
BLACK
6
CONTINUOUS
10
-4.14101
20
5.64969
11
-4.14449
21
5.65318
0
LINE
8
BLACK
6
CONTINUOUS
10
-4.14449
20
5.65318
11
-4.14673
21
5.65757
0
LINE
8
BLACK
6
CONTINUOUS
10
-4.14673
20
5.65757
11
-4.1475
21
5.66243
0
LINE
8
BLACK
6
CONTINUOUS
10
-4.1475
20
5.66243
11
-4.14673
21
5.6673
0
LINE
8
BLACK
6
CONTINUOUS
10
-4.14673
20
5.6673
11
-4.14449
21
5.67169
0
LINE
8
BLACK
6
CONTINUOUS
10
-4.14449
20
5.67169
11
-4.14101
21
5.67517
0
LINE
8
BLACK
6
CONTINUOUS
10
-4.14101
20
5.67517
11
-4.13963
21
5.67588
0
LINE
8
BLACK
6
CONTINUOUS
10
-4.13963
20
5.67588
11
-4.13963
21
5.68755
0
LINE
8
BLACK
6
CONTINUOUS
10
-4.13963
20
5.68755
11
-4.15409
21
5.70201
0
LINE
8
BLACK
6
CONTINUOUS
10
-4.15409
20
5.70201
11
-4.15575
21
5.70201
0
LINE
8
BLACK
6
CONTINUOUS
10
-4.15575
20
5.70201
11
-4.1558
21
5.70172
0
LINE
8
BLACK
6
CONTINUOUS
10
-4.1558
20
5.70172
11
-4.15708
21
5.6998
0
LINE
8
BLACK
6
CONTINUOUS
10
-4.15708
20
5.6998
11
-4.159
21
5.69852
0
LINE
8
BLACK
6
CONTINUOUS
10
-4.159
20
5.69852
11
-4.16126
21
5.69807
0
LINE
8
BLACK
6
CONTINUOUS
10
-4.16126
20
5.69807
11
-4.21638
21
5.69807
0
LINE
8
BLACK
6
CONTINUOUS
10
-4.21638
20
5.69807
11
-4.21864
21
5.69852
0
LINE
8
BLACK
6
CONTINUOUS
10
-4.21864
20
5.69852
11
-4.22055
21
5.6998
0
LINE
8
BLACK
6
CONTINUOUS
10
-4.22055
20
5.6998
11
-4.22183
21
5.70172
0
LINE
8
BLACK
6
CONTINUOUS
10
-4.22183
20
5.70172
11
-4.22189
21
5.70201
0
LINE
8
BLACK
6
CONTINUOUS
10
-4.22189
20
5.70201
11
-4.38036
21
5.70201
0
LINE
8
BLACK
6
CONTINUOUS
10
-4.38036
20
5.70201
11
-4.38123
21
5.70029
0
LINE
8
BLACK
6
CONTINUOUS
10
-4.38123
20
5.70029
11
-4.38472
21
5.69681
0
LINE
8
BLACK
6
CONTINUOUS
10
-4.38472
20
5.69681
11
-4.38911
21
5.69457
0
LINE
8
BLACK
6
CONTINUOUS
10
-4.38911
20
5.69457
11
-4.39397
21
5.6938
0
LINE
8
BLACK
6
CONTINUOUS
10
-4.39397
20
5.6938
11
-4.39884
21
5.69457
0
LINE
8
BLACK
6
CONTINUOUS
10
-4.39884
20
5.69457
11
-4.40323
21
5.69681
0
LINE
8
BLACK
6
CONTINUOUS
10
-4.40323
20
5.69681
11
-4.40672
21
5.70029
0
LINE
8
BLACK
6
CONTINUOUS
10
-4.40672
20
5.70029
11
-4.40895
21
5.70468
0
LINE
8
BLACK
6
CONTINUOUS
10
-4.40895
20
5.70468
11
-4.40972
21
5.70955
0
LINE
8
BLACK
6
CONTINUOUS
10
-4.40972
20
5.70955
11
-4.40895
21
5.71442
0
LINE
8
BLACK
6
CONTINUOUS
10
-4.40895
20
5.71442
11
-4.40672
21
5.71881
0
LINE
8
BLACK
6
CONTINUOUS
10
-4.40672
20
5.71881
11
-4.40323
21
5.72229
0
LINE
8
BLACK
6
CONTINUOUS
10
-4.40323
20
5.72229
11
-4.39884
21
5.72453
0
LINE
8
BLACK
6
CONTINUOUS
10
-4.39884
20
5.72453
11
-4.39397
21
5.7253
0
LINE
8
BLACK
6
CONTINUOUS
10
-4.39397
20
5.7253
11
-4.38911
21
5.72453
0
LINE
8
BLACK
6
CONTINUOUS
10
-4.33303
20
5.78687
11
-4.32864
21
5.78463
0
LINE
8
BLACK
6
CONTINUOUS
10
-4.32864
20
5.78463
11
-4.32515
21
5.78115
0
LINE
8
BLACK
6
CONTINUOUS
10
-4.32515
20
5.78115
11
-4.32292
21
5.77676
0
LINE
8
BLACK
6
CONTINUOUS
10
-4.32292
20
5.77676
11
-4.32215
21
5.77189
0
LINE
8
BLACK
6
CONTINUOUS
10
-4.32215
20
5.77189
11
-4.32292
21
5.76702
0
LINE
8
BLACK
6
CONTINUOUS
10
-4.32292
20
5.76702
11
-4.32515
21
5.76263
0
LINE
8
BLACK
6
CONTINUOUS
10
-4.32515
20
5.76263
11
-4.32864
21
5.75915
0
LINE
8
BLACK
6
CONTINUOUS
10
-4.32864
20
5.75915
11
-4.33303
21
5.75691
0
LINE
8
BLACK
6
CONTINUOUS
10
-4.33303
20
5.75691
11
-4.33789
21
5.75614
0
LINE
8
BLACK
6
CONTINUOUS
10
-4.33789
20
5.75614
11
-4.34276
21
5.75691
0
LINE
8
BLACK
6
CONTINUOUS
10
-4.34276
20
5.75691
11
-4.34715
21
5.75915
0
LINE
8
BLACK
6
CONTINUOUS
10
-4.34715
20
5.75915
11
-4.35063
21
5.76263
0
LINE
8
BLACK
6
CONTINUOUS
10
-4.35063
20
5.76263
11
-4.35134
21
5.76402
0
LINE
8
BLACK
6
CONTINUOUS
10
-4.35134
20
5.76402
11
-4.49262
21
5.76402
0
LINE
8
BLACK
6
CONTINUOUS
10
-4.49262
20
5.76402
11
-4.49345
21
5.7624
0
LINE
8
BLACK
6
CONTINUOUS
10
-4.49345
20
5.7624
11
-4.49693
21
5.75891
0
LINE
8
BLACK
6
CONTINUOUS
10
-4.49693
20
5.75891
11
-4.50132
21
5.75668
0
LINE
8
BLACK
6
CONTINUOUS
10
-4.50132
20
5.75668
11
-4.50619
21
5.75591
0
LINE
8
BLACK
6
CONTINUOUS
10
-4.50619
20
5.75591
11
-4.51105
21
5.75668
0
LINE
8
BLACK
6
CONTINUOUS
10
-4.51105
20
5.75668
11
-4.51544
21
5.75891
0
LINE
8
BLACK
6
CONTINUOUS
10
-4.51544
20
5.75891
11
-4.51893
21
5.7624
0
LINE
8
BLACK
6
CONTINUOUS
10
-4.51893
20
5.7624
11
-4.52116
21
5.76679
0
LINE
8
BLACK
6
CONTINUOUS
10
-4.52116
20
5.76679
11
-4.52193
21
5.77165
0
LINE
8
BLACK
6
CONTINUOUS
10
-4.52193
20
5.77165
11
-4.52116
21
5.77652
0
LINE
8
BLACK
6
CONTINUOUS
10
-4.52116
20
5.77652
11
-4.51893
21
5.78091
0
LINE
8
BLACK
6
CONTINUOUS
10
-4.51893
20
5.78091
11
-4.51544
21
5.78439
0
LINE
8
BLACK
6
CONTINUOUS
10
-4.51544
20
5.78439
11
-4.51105
21
5.78663
0
LINE
8
BLACK
6
CONTINUOUS
10
-4.51105
20
5.78663
11
-4.50619
21
5.7874
0
LINE
8
BLACK
6
CONTINUOUS
10
-4.50619
20
5.7874
11
-4.50132
21
5.78663
0
LINE
8
BLACK
6
CONTINUOUS
10
-4.50132
20
5.78663
11
-4.49693
21
5.78439
0
LINE
8
BLACK
6
CONTINUOUS
10
-4.49693
20
5.78439
11
-4.49345
21
5.78091
0
LINE
8
BLACK
6
CONTINUOUS
10
-4.49345
20
5.78091
11
-4.49286
21
5.77976
0
LINE
8
BLACK
6
CONTINUOUS
10
-4.49286
20
5.77976
11
-4.35134
21
5.77976
0
LINE
8
BLACK
6
CONTINUOUS
10
-4.35134
20
5.77976
11
-4.35063
21
5.78115
0
LINE
8
BLACK
6
CONTINUOUS
10
-4.35063
20
5.78115
11
-4.34715
21
5.78463
0
LINE
8
BLACK
6
CONTINUOUS
10
-4.34715
20
5.78463
11
-4.34276
21
5.78687
0
LINE
8
BLACK
6
CONTINUOUS
10
-4.34276
20
5.78687
11
-4.33789
21
5.78764
0
LINE
8
BLACK
6
CONTINUOUS
10
-4.33789
20
5.78764
11
-4.33303
21
5.78687
0
LINE
8
BLACK
6
CONTINUOUS
10
-4.7042
20
5.96016
11
-4.7032
21
5.95844
0
LINE
8
BLACK
6
CONTINUOUS
10
-4.7032
20
5.95844
11
-4.70355
21
5.95648
0
LINE
8
BLACK
6
CONTINUOUS
10
-4.70355
20
5.95648
11
-4.70446
21
5.95551
0
LINE
8
BLACK
6
CONTINUOUS
10
-4.70446
20
5.95551
11
-4.70694
21
5.95385
0
LINE
8
BLACK
6
CONTINUOUS
10
-4.70694
20
5.95385
11
-4.71133
21
5.94946
0
LINE
8
BLACK
6
CONTINUOUS
10
-4.71133
20
5.94946
11
-4.71478
21
5.9443
0
LINE
8
BLACK
6
CONTINUOUS
10
-4.71478
20
5.9443
11
-4.71715
21
5.93856
0
LINE
8
BLACK
6
CONTINUOUS
10
-4.71715
20
5.93856
11
-4.71716
21
5.93856
0
LINE
8
BLACK
6
CONTINUOUS
10
-4.71716
20
5.93856
11
-4.71837
21
5.93247
0
LINE
8
BLACK
6
CONTINUOUS
10
-4.71837
20
5.93247
11
-4.71837
21
5.87115
0
LINE
8
BLACK
6
CONTINUOUS
10
-4.71837
20
5.87115
11
-4.71716
21
5.86506
0
LINE
8
BLACK
6
CONTINUOUS
10
-4.71716
20
5.86506
11
-4.71715
21
5.86506
0
LINE
8
BLACK
6
CONTINUOUS
10
-4.71715
20
5.86506
11
-4.71478
21
5.85932
0
LINE
8
BLACK
6
CONTINUOUS
10
-4.71478
20
5.85932
11
-4.71133
21
5.85416
0
LINE
8
BLACK
6
CONTINUOUS
10
-4.71133
20
5.85416
11
-4.71133
21
5.85416
0
LINE
8
BLACK
6
CONTINUOUS
10
-4.71133
20
5.85416
11
-4.70694
21
5.84977
0
LINE
8
BLACK
6
CONTINUOUS
10
-4.70694
20
5.84977
11
-4.70694
21
5.84977
0
LINE
8
BLACK
6
CONTINUOUS
10
-4.70694
20
5.84977
11
-4.70406
21
5.84785
0
LINE
8
BLACK
6
CONTINUOUS
10
-4.70406
20
5.84785
11
-4.70178
21
5.84632
0
LINE
8
BLACK
6
CONTINUOUS
10
-4.70178
20
5.84632
11
-4.70178
21
5.84632
0
LINE
8
BLACK
6
CONTINUOUS
10
-4.70178
20
5.84632
11
-4.70178
21
5.84632
0
LINE
8
BLACK
6
CONTINUOUS
10
-4.70178
20
5.84632
11
-4.70178
21
5.84632
0
LINE
8
BLACK
6
CONTINUOUS
10
-4.70178
20
5.84632
11
-4.69604
21
5.84395
0
LINE
8
BLACK
6
CONTINUOUS
10
-4.69604
20
5.84395
11
-4.69604
21
5.84395
0
LINE
8
BLACK
6
CONTINUOUS
10
-4.69604
20
5.84395
11
-4.69168
21
5.84308
0
LINE
8
BLACK
6
CONTINUOUS
10
-4.69168
20
5.84308
11
-4.68995
21
5.84274
0
LINE
8
BLACK
6
CONTINUOUS
10
-4.68995
20
5.84274
11
-4.68995
21
5.84274
0
LINE
8
BLACK
6
CONTINUOUS
10
-4.68995
20
5.84274
11
-4.62075
21
5.84274
0
LINE
8
BLACK
6
CONTINUOUS
10
-4.62075
20
5.84274
11
-4.62075
21
5.84274
0
LINE
8
BLACK
6
CONTINUOUS
10
-4.62075
20
5.84274
11
-4.61874
21
5.84314
0
LINE
8
BLACK
6
CONTINUOUS
10
-4.61874
20
5.84314
11
-4.61467
21
5.84395
0
LINE
8
BLACK
6
CONTINUOUS
10
-4.61467
20
5.84395
11
-4.61467
21
5.84395
0
LINE
8
BLACK
6
CONTINUOUS
10
-4.61467
20
5.84395
11
-4.60893
21
5.84632
0
LINE
8
BLACK
6
CONTINUOUS
10
-4.60893
20
5.84632
11
-4.60893
21
5.84632
0
LINE
8
BLACK
6
CONTINUOUS
10
-4.60893
20
5.84632
11
-4.60893
21
5.84632
0
LINE
8
BLACK
6
CONTINUOUS
10
-4.60893
20
5.84632
11
-4.60377
21
5.84977
0
LINE
8
BLACK
6
CONTINUOUS
10
-4.60377
20
5.84977
11
-4.59938
21
5.85416
0
LINE
8
BLACK
6
CONTINUOUS
10
-4.59938
20
5.85416
11
-4.59593
21
5.85932
0
LINE
8
BLACK
6
CONTINUOUS
10
-4.59593
20
5.85932
11
-4.59548
21
5.86041
0
LINE
8
BLACK
6
CONTINUOUS
10
-4.59548
20
5.86041
11
-4.59355
21
5.86506
0
LINE
8
BLACK
6
CONTINUOUS
10
-4.59355
20
5.86506
11
-4.59355
21
5.86506
0
LINE
8
BLACK
6
CONTINUOUS
10
-4.59355
20
5.86506
11
-4.59234
21
5.87115
0
LINE
8
BLACK
6
CONTINUOUS
10
-4.59234
20
5.87115
11
-4.59234
21
5.93247
0
LINE
8
BLACK
6
CONTINUOUS
10
-4.59234
20
5.93247
11
-4.59355
21
5.93856
0
LINE
8
BLACK
6
CONTINUOUS
10
-4.59355
20
5.93856
11
-4.59355
21
5.93856
0
LINE
8
BLACK
6
CONTINUOUS
10
-4.59355
20
5.93856
11
-4.59593
21
5.9443
0
LINE
8
BLACK
6
CONTINUOUS
10
-4.59593
20
5.9443
11
-4.59938
21
5.94946
0
LINE
8
BLACK
6
CONTINUOUS
10
-4.59938
20
5.94946
11
-4.60377
21
5.95385
0
LINE
8
BLACK
6
CONTINUOUS
10
-4.60377
20
5.95385
11
-4.60625
21
5.95551
0
LINE
8
BLACK
6
CONTINUOUS
10
-4.60625
20
5.95551
11
-4.60743
21
5.95712
0
LINE
8
BLACK
6
CONTINUOUS
10
-4.60743
20
5.95712
11
-4.6073
21
5.95911
0
LINE
8
BLACK
6
CONTINUOUS
10
-4.6073
20
5.95911
11
-4.60592
21
5.96055
0
LINE
8
BLACK
6
CONTINUOUS
10
-4.60592
20
5.96055
11
-4.60464
21
5.96085
0
LINE
8
BLACK
6
CONTINUOUS
10
-4.60464
20
5.96085
11
-4.02837
21
5.96085
0
LINE
8
BLACK
6
CONTINUOUS
10
-4.02837
20
5.96085
11
-4.02649
21
5.96016
0
LINE
8
BLACK
6
CONTINUOUS
10
-4.02649
20
5.96016
11
-4.0255
21
5.95844
0
LINE
8
BLACK
6
CONTINUOUS
10
-4.0255
20
5.95844
11
-4.02545
21
5.95793
0
LINE
8
BLACK
6
CONTINUOUS
10
-4.02545
20
5.95793
11
-4.02545
21
5.90571
0
LINE
8
BLACK
6
CONTINUOUS
10
-4.02545
20
5.90571
11
-4.02502
21
5.90487
0
LINE
8
BLACK
6
CONTINUOUS
10
-4.02502
20
5.90487
11
-4.02425
21
5.9
0
LINE
8
BLACK
6
CONTINUOUS
10
-4.02425
20
5.9
11
-4.02502
21
5.89513
0
LINE
8
BLACK
6
CONTINUOUS
10
-4.02502
20
5.89513
11
-4.02545
21
5.89429
0
LINE
8
BLACK
6
CONTINUOUS
10
-4.02545
20
5.89429
11
-4.02545
21
5.87453
0
LINE
8
BLACK
6
CONTINUOUS
10
-4.02545
20
5.87453
11
-4.02613
21
5.87265
0
LINE
8
BLACK
6
CONTINUOUS
10
-4.02613
20
5.87265
11
-4.02786
21
5.87166
0
LINE
8
BLACK
6
CONTINUOUS
10
-4.02786
20
5.87166
11
-4.02837
21
5.87161
0
LINE
8
BLACK
6
CONTINUOUS
10
-4.02837
20
5.87161
11
-4.05283
21
5.87161
0
LINE
8
BLACK
6
CONTINUOUS
10
-4.05283
20
5.87161
11
-4.05283
21
5.85161
0
LINE
8
BLACK
6
CONTINUOUS
10
-4.05283
20
5.85161
11
-4.01953
21
5.85161
0
LINE
8
BLACK
6
CONTINUOUS
10
-4.01953
20
5.85161
11
-4.01576
21
5.85086
0
LINE
8
BLACK
6
CONTINUOUS
10
-4.01576
20
5.85086
11
-4.01257
21
5.84873
0
LINE
8
BLACK
6
CONTINUOUS
10
-4.01257
20
5.84873
11
-4.01043
21
5.84554
0
LINE
8
BLACK
6
CONTINUOUS
10
-4.01043
20
5.84554
11
-4.00969
21
5.84177
0
LINE
8
BLACK
6
CONTINUOUS
10
-4.00969
20
5.84177
11
-4.00969
21
5.82209
0
LINE
8
BLACK
6
CONTINUOUS
10
-4.00969
20
5.82209
11
-4.01043
21
5.81832
0
LINE
8
BLACK
6
CONTINUOUS
10
-4.01043
20
5.81832
11
-4.01257
21
5.81513
0
LINE
8
BLACK
6
CONTINUOUS
10
-4.01257
20
5.81513
11
-4.01576
21
5.81299
0
LINE
8
BLACK
6
CONTINUOUS
10
-4.01576
20
5.81299
11
-4.01953
21
5.81224
0
LINE
8
BLACK
6
CONTINUOUS
10
-4.01953
20
5.81224
11
-4.05283
21
5.81224
0
LINE
8
BLACK
6
CONTINUOUS
10
-4.05283
20
5.81224
11
-4.05283
21
5.79224
0
LINE
8
BLACK
6
CONTINUOUS
10
-4.05283
20
5.79224
11
-4.02837
21
5.79224
0
LINE
8
BLACK
6
CONTINUOUS
10
-4.02837
20
5.79224
11
-4.02649
21
5.79156
0
LINE
8
BLACK
6
CONTINUOUS
10
-4.02649
20
5.79156
11
-4.0255
21
5.78984
0
LINE
8
BLACK
6
CONTINUOUS
10
-4.0255
20
5.78984
11
-4.02545
21
5.78933
0
LINE
8
BLACK
6
CONTINUOUS
10
-4.02545
20
5.78933
11
-4.02545
21
5.58122
0
LINE
8
BLACK
6
CONTINUOUS
10
-4.02545
20
5.58122
11
-4.02613
21
5.57935
0
LINE
8
BLACK
6
CONTINUOUS
10
-4.02613
20
5.57935
11
-4.02786
21
5.57835
0
LINE
8
BLACK
6
CONTINUOUS
10
-4.02786
20
5.57835
11
-4.02837
21
5.57831
0
LINE
8
BLACK
6
CONTINUOUS
10
-4.02837
20
5.57831
11
-4.05283
21
5.57831
0
LINE
8
BLACK
6
CONTINUOUS
10
-4.05283
20
5.57831
11
-4.05283
21
5.55831
0
LINE
8
BLACK
6
CONTINUOUS
10
-4.05283
20
5.55831
11
-4.01953
21
5.55831
0
LINE
8
BLACK
6
CONTINUOUS
10
-4.01953
20
5.55831
11
-4.01576
21
5.55756
0
LINE
8
BLACK
6
CONTINUOUS
10
-4.01576
20
5.55756
11
-4.01257
21
5.55542
0
LINE
8
BLACK
6
CONTINUOUS
10
-4.01257
20
5.55542
11
-4.01043
21
5.55223
0
LINE
8
BLACK
6
CONTINUOUS
10
-4.01043
20
5.55223
11
-4.00969
21
5.54846
0
LINE
8
BLACK
6
CONTINUOUS
10
-4.00969
20
5.54846
11
-4.00969
21
5.52878
0
LINE
8
BLACK
6
CONTINUOUS
10
-4.00969
20
5.52878
11
-4.01043
21
5.52501
0
LINE
8
BLACK
6
CONTINUOUS
10
-4.01043
20
5.52501
11
-4.01257
21
5.52182
0
LINE
8
BLACK
6
CONTINUOUS
10
-4.01257
20
5.52182
11
-4.01576
21
5.51969
0
LINE
8
BLACK
6
CONTINUOUS
10
-4.01576
20
5.51969
11
-4.01953
21
5.51894
0
LINE
8
BLACK
6
CONTINUOUS
10
-4.01953
20
5.51894
11
-4.05283
21
5.51894
0
LINE
8
BLACK
6
CONTINUOUS
10
-4.05283
20
5.51894
11
-4.05283
21
5.49894
0
LINE
8
BLACK
6
CONTINUOUS
10
-4.05283
20
5.49894
11
-4.02837
21
5.49894
0
LINE
8
BLACK
6
CONTINUOUS
10
-4.02837
20
5.49894
11
-4.02649
21
5.49826
0
LINE
8
BLACK
6
CONTINUOUS
10
-4.02649
20
5.49826
11
-4.0255
21
5.49653
0
LINE
8
BLACK
6
CONTINUOUS
10
-4.0255
20
5.49653
11
-4.02545
21
5.49602
0
LINE
8
BLACK
6
CONTINUOUS
10
-4.02545
20
5.49602
11
-4.02545
21
5.47571
0
LINE
8
BLACK
6
CONTINUOUS
10
-4.02545
20
5.47571
11
-4.02502
21
5.47487
0
LINE
8
BLACK
6
CONTINUOUS
10
-4.02502
20
5.47487
11
-4.02425
21
5.47
0
LINE
8
BLACK
6
CONTINUOUS
10
-4.02425
20
5.47
11
-4.02502
21
5.46513
0
LINE
8
BLACK
6
CONTINUOUS
10
-4.02502
20
5.46513
11
-4.02545
21
5.46429
0
LINE
8
BLACK
6
CONTINUOUS
10
-4.02545
20
5.46429
11
-4.02545
21
5.41262
0
LINE
8
BLACK
6
CONTINUOUS
10
-4.02545
20
5.41262
11
-4.02613
21
5.41075
0
LINE
8
BLACK
6
CONTINUOUS
10
-4.02613
20
5.41075
11
-4.02786
21
5.40975
0
LINE
8
BLACK
6
CONTINUOUS
10
-4.02786
20
5.40975
11
-4.02837
21
5.4097
0
LINE
8
BLACK
6
CONTINUOUS
10
-4.02837
20
5.4097
11
-4.60464
21
5.4097
0
LINE
8
BLACK
6
CONTINUOUS
10
-4.60464
20
5.4097
11
-4.60651
21
5.41039
0
LINE
8
BLACK
6
CONTINUOUS
10
-4.60651
20
5.41039
11
-4.6075
21
5.41211
0
LINE
8
BLACK
6
CONTINUOUS
10
-4.6075
20
5.41211
11
-4.60716
21
5.41407
0
LINE
8
BLACK
6
CONTINUOUS
10
-4.60716
20
5.41407
11
-4.60625
21
5.41504
0
LINE
8
BLACK
6
CONTINUOUS
10
-4.60625
20
5.41504
11
-4.60377
21
5.4167
0
LINE
8
BLACK
6
CONTINUOUS
10
-4.60377
20
5.4167
11
-4.59938
21
5.42109
0
LINE
8
BLACK
6
CONTINUOUS
10
-4.59938
20
5.42109
11
-4.59593
21
5.42625
0
LINE
8
BLACK
6
CONTINUOUS
10
-4.59593
20
5.42625
11
-4.59355
21
5.43199
0
LINE
8
BLACK
6
CONTINUOUS
10
-4.59355
20
5.43199
11
-4.59234
21
5.43808
0
LINE
8
BLACK
6
CONTINUOUS
10
-4.59234
20
5.43808
11
-4.59234
21
5.44118
0
LINE
8
BLACK
6
CONTINUOUS
10
-4.59234
20
5.44118
11
-4.59234
21
5.44378
0
LINE
8
BLACK
6
CONTINUOUS
10
-4.59234
20
5.44378
11
-4.59234
21
5.49771
0
LINE
8
BLACK
6
CONTINUOUS
10
-4.59234
20
5.49771
11
-4.59234
21
5.4994
0
LINE
8
BLACK
6
CONTINUOUS
10
-4.59234
20
5.4994
11
-4.59355
21
5.50549
0
LINE
8
BLACK
6
CONTINUOUS
10
-4.59355
20
5.50549
11
-4.59593
21
5.51123
0
LINE
8
BLACK
6
CONTINUOUS
10
-4.59593
20
5.51123
11
-4.59938
21
5.51639
0
LINE
8
BLACK
6
CONTINUOUS
10
-4.59938
20
5.51639
11
-4.60377
21
5.52078
0
LINE
8
BLACK
6
CONTINUOUS
10
-4.60377
20
5.52078
11
-4.60893
21
5.52423
0
LINE
8
BLACK
6
CONTINUOUS
10
-4.60893
20
5.52423
11
-4.61467
21
5.5266
0
LINE
8
BLACK
6
CONTINUOUS
10
-4.61467
20
5.5266
11
-4.62075
21
5.52781
0
LINE
8
BLACK
6
CONTINUOUS
10
-4.62075
20
5.52781
11
-4.62245
21
5.52781
0
LINE
8
BLACK
6
CONTINUOUS
10
-4.62245
20
5.52781
11
-4.68426
21
5.52781
0
LINE
8
BLACK
6
CONTINUOUS
10
-4.68426
20
5.52781
11
-4.68685
21
5.52781
0
LINE
8
BLACK
6
CONTINUOUS
10
-4.68685
20
5.52781
11
-4.68995
21
5.52781
0
LINE
8
BLACK
6
CONTINUOUS
10
-4.68995
20
5.52781
11
-4.69604
21
5.5266
0
LINE
8
BLACK
6
CONTINUOUS
10
-4.69604
20
5.5266
11
-4.69604
21
5.5266
0
LINE
8
BLACK
6
CONTINUOUS
10
-4.69604
20
5.5266
11
-4.70178
21
5.52423
0
LINE
8
BLACK
6
CONTINUOUS
10
-4.70178
20
5.52423
11
-4.70178
21
5.52423
0
LINE
8
BLACK
6
CONTINUOUS
10
-4.70178
20
5.52423
11
-4.70178
21
5.52423
0
LINE
8
BLACK
6
CONTINUOUS
10
-4.70178
20
5.52423
11
-4.70694
21
5.52078
0
LINE
8
BLACK
6
CONTINUOUS
10
-4.70694
20
5.52078
11
-4.71133
21
5.51639
0
LINE
8
BLACK
6
CONTINUOUS
10
-4.71133
20
5.51639
11
-4.71478
21
5.51123
0
LINE
8
BLACK
6
CONTINUOUS
10
-4.71478
20
5.51123
11
-4.71715
21
5.50549
0
LINE
8
BLACK
6
CONTINUOUS
10
-4.71715
20
5.50549
11
-4.71716
21
5.50549
0
LINE
8
BLACK
6
CONTINUOUS
10
-4.71716
20
5.50549
11
-4.71837
21
5.4994
0
LINE
8
BLACK
6
CONTINUOUS
10
-4.71837
20
5.4994
11
-4.71837
21
5.43808
0
LINE
8
BLACK
6
CONTINUOUS
10
-4.71837
20
5.43808
11
-4.71716
21
5.43199
0
LINE
8
BLACK
6
CONTINUOUS
10
-4.71716
20
5.43199
11
-4.71715
21
5.43199
0
LINE
8
BLACK
6
CONTINUOUS
10
-4.71715
20
5.43199
11
-4.71478
21
5.42625
0
LINE
8
BLACK
6
CONTINUOUS
10
-4.71478
20
5.42625
11
-4.71133
21
5.42109
0
LINE
8
BLACK
6
CONTINUOUS
10
-4.71133
20
5.42109
11
-4.71133
21
5.42109
0
LINE
8
BLACK
6
CONTINUOUS
10
-4.71133
20
5.42109
11
-4.70694
21
5.4167
0
LINE
8
BLACK
6
CONTINUOUS
10
-4.70694
20
5.4167
11
-4.70694
21
5.4167
0
LINE
8
BLACK
6
CONTINUOUS
10
-4.70694
20
5.4167
11
-4.70446
21
5.41504
0
LINE
8
BLACK
6
CONTINUOUS
10
-4.70446
20
5.41504
11
-4.70328
21
5.41343
0
LINE
8
BLACK
6
CONTINUOUS
10
-4.70328
20
5.41343
11
-4.70341
21
5.41144
0
LINE
8
BLACK
6
CONTINUOUS
10
-4.70341
20
5.41144
11
-4.70479
21
5.41001
0
LINE
8
BLACK
6
CONTINUOUS
10
-4.70479
20
5.41001
11
-4.70607
21
5.4097
0
LINE
8
BLACK
6
CONTINUOUS
10
-4.70607
20
5.4097
11
-4.96738
21
5.4097
0
LINE
8
BLACK
6
CONTINUOUS
10
-4.96738
20
5.4097
11
-4.96925
21
5.41039
0
LINE
8
BLACK
6
CONTINUOUS
10
-4.96925
20
5.41039
11
-4.97025
21
5.41211
0
LINE
8
BLACK
6
CONTINUOUS
10
-4.97025
20
5.41211
11
-4.9703
21
5.41262
0
LINE
8
BLACK
6
CONTINUOUS
10
-4.9703
20
5.41262
11
-4.9703
21
5.49602
0
LINE
8
BLACK
6
CONTINUOUS
10
-4.9703
20
5.49602
11
-4.96961
21
5.4979
0
LINE
8
BLACK
6
CONTINUOUS
10
-4.96961
20
5.4979
11
-4.96789
21
5.49889
0
LINE
8
BLACK
6
CONTINUOUS
10
-4.96789
20
5.49889
11
-4.96738
21
5.49894
0
LINE
8
BLACK
6
CONTINUOUS
10
-4.96738
20
5.49894
11
-4.94291
21
5.49894
0
LINE
8
BLACK
6
CONTINUOUS
10
-4.94291
20
5.49894
11
-4.94291
21
5.51894
0
LINE
8
BLACK
6
CONTINUOUS
10
-4.94291
20
5.51894
11
-4.97622
21
5.51894
0
LINE
8
BLACK
6
CONTINUOUS
10
-4.97622
20
5.51894
11
-4.97999
21
5.51969
0
LINE
8
BLACK
6
CONTINUOUS
10
-4.97999
20
5.51969
11
-4.98318
21
5.52182
0
LINE
8
BLACK
6
CONTINUOUS
10
-4.98318
20
5.52182
11
-4.98531
21
5.52501
0
LINE
8
BLACK
6
CONTINUOUS
10
-4.98531
20
5.52501
11
-4.98606
21
5.52878
0
LINE
8
BLACK
6
CONTINUOUS
10
-4.98606
20
5.52878
11
-4.98606
21
5.54846
0
LINE
8
BLACK
6
CONTINUOUS
10
-4.98606
20
5.54846
11
-4.98531
21
5.55223
0
LINE
8
BLACK
6
CONTINUOUS
10
-4.98531
20
5.55223
11
-4.98318
21
5.55542
0
LINE
8
BLACK
6
CONTINUOUS
10
-4.98318
20
5.55542
11
-4.97999
21
5.55756
0
LINE
8
BLACK
6
CONTINUOUS
10
-4.97999
20
5.55756
11
-4.97622
21
5.55831
0
LINE
8
BLACK
6
CONTINUOUS
10
-4.97622
20
5.55831
11
-4.94291
21
5.55831
0
LINE
8
BLACK
6
CONTINUOUS
10
-4.94291
20
5.55831
11
-4.94291
21
5.57831
0
LINE
8
BLACK
6
CONTINUOUS
10
-4.94291
20
5.57831
11
-4.96738
21
5.57831
0
LINE
8
BLACK
6
CONTINUOUS
10
-4.96738
20
5.57831
11
-4.96925
21
5.57899
0
LINE
8
BLACK
6
CONTINUOUS
10
-4.96925
20
5.57899
11
-4.97025
21
5.58071
0
LINE
8
BLACK
6
CONTINUOUS
10
-4.97025
20
5.58071
11
-4.9703
21
5.58122
0
LINE
8
BLACK
6
CONTINUOUS
10
-4.9703
20
5.58122
11
-4.9703
21
5.6375
0
LINE
8
BLACK
6
CONTINUOUS
10
-4.9703
20
5.6375
11
-4.9703
21
5.78933
0
LINE
8
BLACK
6
CONTINUOUS
10
-4.9703
20
5.78933
11
-4.96961
21
5.7912
0
LINE
8
BLACK
6
CONTINUOUS
10
-4.96961
20
5.7912
11
-4.96789
21
5.7922
0
LINE
8
BLACK
6
CONTINUOUS
10
-4.96789
20
5.7922
11
-4.96738
21
5.79224
0
LINE
8
BLACK
6
CONTINUOUS
10
-4.96738
20
5.79224
11
-4.94291
21
5.79224
0
LINE
8
BLACK
6
CONTINUOUS
10
-4.94291
20
5.79224
11
-4.94291
21
5.81224
0
LINE
8
BLACK
6
CONTINUOUS
10
-4.94291
20
5.81224
11
-4.97622
21
5.81224
0
LINE
8
BLACK
6
CONTINUOUS
10
-4.97622
20
5.81224
11
-4.97999
21
5.81299
0
LINE
8
BLACK
6
CONTINUOUS
10
-4.97999
20
5.81299
11
-4.98318
21
5.81513
0
LINE
8
BLACK
6
CONTINUOUS
10
-4.98318
20
5.81513
11
-4.98531
21
5.81832
0
LINE
8
BLACK
6
CONTINUOUS
10
-4.98531
20
5.81832
11
-4.98606
21
5.82209
0
LINE
8
BLACK
6
CONTINUOUS
10
-4.98606
20
5.82209
11
-4.98606
21
5.84177
0
LINE
8
BLACK
6
CONTINUOUS
10
-4.98606
20
5.84177
11
-4.98531
21
5.84554
0
LINE
8
BLACK
6
CONTINUOUS
10
-4.98531
20
5.84554
11
-4.98318
21
5.84873
0
LINE
8
BLACK
6
CONTINUOUS
10
-4.98318
20
5.84873
11
-4.97999
21
5.85086
0
LINE
8
BLACK
6
CONTINUOUS
10
-4.97999
20
5.85086
11
-4.97622
21
5.85161
0
LINE
8
BLACK
6
CONTINUOUS
10
-4.97622
20
5.85161
11
-4.94291
21
5.85161
0
LINE
8
BLACK
6
CONTINUOUS
10
-4.94291
20
5.85161
11
-4.94291
21
5.87161
0
LINE
8
BLACK
6
CONTINUOUS
10
-4.94291
20
5.87161
11
-4.96738
21
5.87161
0
LINE
8
BLACK
6
CONTINUOUS
10
-4.96738
20
5.87161
11
-4.96925
21
5.8723
0
LINE
8
BLACK
6
CONTINUOUS
10
-4.96925
20
5.8723
11
-4.97025
21
5.87402
0
LINE
8
BLACK
6
CONTINUOUS
10
-4.97025
20
5.87402
11
-4.9703
21
5.87453
0
LINE
8
BLACK
6
CONTINUOUS
10
-4.9703
20
5.87453
11
-4.9703
21
5.95793
0
LINE
8
BLACK
6
CONTINUOUS
10
-4.9703
20
5.95793
11
-4.96961
21
5.95981
0
LINE
8
BLACK
6
CONTINUOUS
10
-4.96961
20
5.95981
11
-4.96789
21
5.9608
0
LINE
8
BLACK
6
CONTINUOUS
10
-4.96789
20
5.9608
11
-4.96738
21
5.96085
0
LINE
8
BLACK
6
CONTINUOUS
10
-4.96738
20
5.96085
11
-4.70607
21
5.96085
0
LINE
8
BLACK
6
CONTINUOUS
10
-4.70607
20
5.96085
11
-4.7042
21
5.96016
0
LINE
8
BLACK
6
CONTINUOUS
10
-4.88051
20
5.52501
11
-4.88265
21
5.52182
0
LINE
8
BLACK
6
CONTINUOUS
10
-4.88265
20
5.52182
11
-4.88584
21
5.51969
0
LINE
8
BLACK
6
CONTINUOUS
10
-4.88584
20
5.51969
11
-4.88961
21
5.51894
0
LINE
8
BLACK
6
CONTINUOUS
10
-4.88961
20
5.51894
11
-4.92291
21
5.51894
0
LINE
8
BLACK
6
CONTINUOUS
10
-4.92291
20
5.51894
11
-4.92291
21
5.49894
0
LINE
8
BLACK
6
CONTINUOUS
10
-4.92291
20
5.49894
11
-4.88762
21
5.49894
0
LINE
8
BLACK
6
CONTINUOUS
10
-4.88762
20
5.49894
11
-4.88353
21
5.49935
0
LINE
8
BLACK
6
CONTINUOUS
10
-4.88353
20
5.49935
11
-4.87691
21
5.50155
0
LINE
8
BLACK
6
CONTINUOUS
10
-4.87691
20
5.50155
11
-4.87097
21
5.50521
0
LINE
8
BLACK
6
CONTINUOUS
10
-4.87097
20
5.50521
11
-4.87097
21
5.50521
0
LINE
8
BLACK
6
CONTINUOUS
10
-4.87097
20
5.50521
11
-4.86604
21
5.51014
0
LINE
8
BLACK
6
CONTINUOUS
10
-4.86604
20
5.51014
11
-4.86604
21
5.51014
0
LINE
8
BLACK
6
CONTINUOUS
10
-4.86604
20
5.51014
11
-4.86238
21
5.51608
0
LINE
8
BLACK
6
CONTINUOUS
10
-4.86238
20
5.51608
11
-4.86018
21
5.5227
0
LINE
8
BLACK
6
CONTINUOUS
10
-4.86018
20
5.5227
11
-4.85976
21
5.52679
0
LINE
8
BLACK
6
CONTINUOUS
10
-4.85976
20
5.52679
11
-4.85976
21
5.52679
0
LINE
8
BLACK
6
CONTINUOUS
10
-4.85976
20
5.52679
11
-4.85976
21
5.52862
0
LINE
8
BLACK
6
CONTINUOUS
10
-4.85976
20
5.52862
11
-4.8798
21
5.52862
0
LINE
8
BLACK
6
CONTINUOUS
10
-4.8798
20
5.52862
11
-4.88051
21
5.52501
0
LINE
8
BLACK
6
CONTINUOUS
10
-4.13598
20
5.52679
11
-4.13557
21
5.5227
0
LINE
8
BLACK
6
CONTINUOUS
10
-4.13557
20
5.5227
11
-4.13337
21
5.51608
0
LINE
8
BLACK
6
CONTINUOUS
10
-4.13337
20
5.51608
11
-4.12971
21
5.51014
0
LINE
8
BLACK
6
CONTINUOUS
10
-4.12971
20
5.51014
11
-4.12478
21
5.50521
0
LINE
8
BLACK
6
CONTINUOUS
10
-4.12478
20
5.50521
11
-4.11884
21
5.50155
0
LINE
8
BLACK
6
CONTINUOUS
10
-4.11884
20
5.50155
11
-4.11222
21
5.49935
0
LINE
8
BLACK
6
CONTINUOUS
10
-4.11222
20
5.49935
11
-4.10813
21
5.49894
0
LINE
8
BLACK
6
CONTINUOUS
10
-4.10813
20
5.49894
11
-4.07283
21
5.49894
0
LINE
8
BLACK
6
CONTINUOUS
10
-4.07283
20
5.49894
11
-4.07283
21
5.51894
0
LINE
8
BLACK
6
CONTINUOUS
10
-4.07283
20
5.51894
11
-4.10614
21
5.51894
0
LINE
8
BLACK
6
CONTINUOUS
10
-4.10614
20
5.51894
11
-4.10991
21
5.51969
0
LINE
8
BLACK
6
CONTINUOUS
10
-4.10991
20
5.51969
11
-4.1131
21
5.52182
0
LINE
8
BLACK
6
CONTINUOUS
10
-4.1131
20
5.52182
11
-4.11524
21
5.52501
0
LINE
8
BLACK
6
CONTINUOUS
10
-4.11524
20
5.52501
11
-4.11595
21
5.52862
0
LINE
8
BLACK
6
CONTINUOUS
10
-4.11595
20
5.52862
11
-4.13598
21
5.52862
0
LINE
8
BLACK
6
CONTINUOUS
10
-4.13598
20
5.52862
11
-4.13598
21
5.52679
0
LINE
8
BLACK
6
CONTINUOUS
10
-4.10813
20
5.57831
11
-4.11222
21
5.57789
0
LINE
8
BLACK
6
CONTINUOUS
10
-4.11222
20
5.57789
11
-4.11884
21
5.5757
0
LINE
8
BLACK
6
CONTINUOUS
10
-4.11884
20
5.5757
11
-4.12478
21
5.57203
0
LINE
8
BLACK
6
CONTINUOUS
10
-4.12478
20
5.57203
11
-4.12478
21
5.57203
0
LINE
8
BLACK
6
CONTINUOUS
10
-4.12478
20
5.57203
11
-4.12971
21
5.5671
0
LINE
8
BLACK
6
CONTINUOUS
10
-4.12971
20
5.5671
11
-4.12971
21
5.5671
0
LINE
8
BLACK
6
CONTINUOUS
10
-4.12971
20
5.5671
11
-4.13337
21
5.56116
0
LINE
8
BLACK
6
CONTINUOUS
10
-4.13337
20
5.56116
11
-4.13557
21
5.55454
0
LINE
8
BLACK
6
CONTINUOUS
10
-4.13557
20
5.55454
11
-4.13598
21
5.55045
0
LINE
8
BLACK
6
CONTINUOUS
10
-4.13598
20
5.55045
11
-4.13598
21
5.54862
0
LINE
8
BLACK
6
CONTINUOUS
10
-4.13598
20
5.54862
11
-4.11595
21
5.54862
0
LINE
8
BLACK
6
CONTINUOUS
10
-4.11595
20
5.54862
11
-4.11524
21
5.55223
0
LINE
8
BLACK
6
CONTINUOUS
10
-4.11524
20
5.55223
11
-4.1131
21
5.55542
0
LINE
8
BLACK
6
CONTINUOUS
10
-4.1131
20
5.55542
11
-4.10991
21
5.55756
0
LINE
8
BLACK
6
CONTINUOUS
10
-4.10991
20
5.55756
11
-4.10614
21
5.55831
0
LINE
8
BLACK
6
CONTINUOUS
10
-4.10614
20
5.55831
11
-4.07283
21
5.55831
0
LINE
8
BLACK
6
CONTINUOUS
10
-4.07283
20
5.55831
11
-4.07283
21
5.57831
0
LINE
8
BLACK
6
CONTINUOUS
10
-4.07283
20
5.57831
11
-4.10813
21
5.57831
0
LINE
8
BLACK
6
CONTINUOUS
10
-4.10813
20
5.57831
11
-4.10813
21
5.57831
0
LINE
8
BLACK
6
CONTINUOUS
10
-4.92291
20
5.55831
11
-4.88961
21
5.55831
0
LINE
8
BLACK
6
CONTINUOUS
10
-4.88961
20
5.55831
11
-4.88584
21
5.55756
0
LINE
8
BLACK
6
CONTINUOUS
10
-4.88584
20
5.55756
11
-4.88265
21
5.55542
0
LINE
8
BLACK
6
CONTINUOUS
10
-4.88265
20
5.55542
11
-4.88051
21
5.55223
0
LINE
8
BLACK
6
CONTINUOUS
10
-4.88051
20
5.55223
11
-4.8798
21
5.54862
0
LINE
8
BLACK
6
CONTINUOUS
10
-4.8798
20
5.54862
11
-4.85976
21
5.54862
0
LINE
8
BLACK
6
CONTINUOUS
10
-4.85976
20
5.54862
11
-4.85976
21
5.55045
0
LINE
8
BLACK
6
CONTINUOUS
10
-4.85976
20
5.55045
11
-4.85976
21
5.55045
0
LINE
8
BLACK
6
CONTINUOUS
10
-4.85976
20
5.55045
11
-4.86018
21
5.55454
0
LINE
8
BLACK
6
CONTINUOUS
10
-4.86018
20
5.55454
11
-4.86238
21
5.56116
0
LINE
8
BLACK
6
CONTINUOUS
10
-4.86238
20
5.56116
11
-4.86604
21
5.5671
0
LINE
8
BLACK
6
CONTINUOUS
10
-4.86604
20
5.5671
11
-4.86604
21
5.5671
0
LINE
8
BLACK
6
CONTINUOUS
10
-4.86604
20
5.5671
11
-4.87097
21
5.57203
0
LINE
8
BLACK
6
CONTINUOUS
10
-4.87097
20
5.57203
11
-4.87097
21
5.57203
0
LINE
8
BLACK
6
CONTINUOUS
10
-4.87097
20
5.57203
11
-4.87691
21
5.5757
0
LINE
8
BLACK
6
CONTINUOUS
10
-4.87691
20
5.5757
11
-4.88353
21
5.57789
0
LINE
8
BLACK
6
CONTINUOUS
10
-4.88353
20
5.57789
11
-4.88762
21
5.57831
0
LINE
8
BLACK
6
CONTINUOUS
10
-4.88762
20
5.57831
11
-4.88762
21
5.57831
0
LINE
8
BLACK
6
CONTINUOUS
10
-4.88762
20
5.57831
11
-4.92291
21
5.57831
0
LINE
8
BLACK
6
CONTINUOUS
10
-4.92291
20
5.57831
11
-4.92291
21
5.55831
0
LINE
8
BLACK
6
CONTINUOUS
10
-4.77519
20
5.60138
11
-4.77711
21
5.6001
0
LINE
8
BLACK
6
CONTINUOUS
10
-4.77711
20
5.6001
11
-4.77937
21
5.59965
0
LINE
8
BLACK
6
CONTINUOUS
10
-4.77937
20
5.59965
11
-4.79693
21
5.59965
0
LINE
8
BLACK
6
CONTINUOUS
10
-4.79693
20
5.59965
11
-4.79693
21
5.57965
0
LINE
8
BLACK
6
CONTINUOUS
10
-4.79693
20
5.57965
11
-4.77675
21
5.57965
0
LINE
8
BLACK
6
CONTINUOUS
10
-4.77675
20
5.57965
11
-4.77675
21
5.57965
0
LINE
8
BLACK
6
CONTINUOUS
10
-4.77675
20
5.57965
11
-4.77529
21
5.57976
0
LINE
8
BLACK
6
CONTINUOUS
10
-4.77529
20
5.57976
11
-4.769
21
5.58159
0
LINE
8
BLACK
6
CONTINUOUS
10
-4.769
20
5.58159
11
-4.76337
21
5.58492
0
LINE
8
BLACK
6
CONTINUOUS
10
-4.76337
20
5.58492
11
-4.75874
21
5.58955
0
LINE
8
BLACK
6
CONTINUOUS
10
-4.75874
20
5.58955
11
-4.75541
21
5.59518
0
LINE
8
BLACK
6
CONTINUOUS
10
-4.75541
20
5.59518
11
-4.75358
21
5.60146
0
LINE
8
BLACK
6
CONTINUOUS
10
-4.75358
20
5.60146
11
-4.77514
21
5.60146
0
LINE
8
BLACK
6
CONTINUOUS
10
-4.77514
20
5.60146
11
-4.77519
21
5.60138
0
LINE
8
BLACK
6
CONTINUOUS
10
-4.92545
20
5.63653
11
-4.92534
21
5.63608
0
LINE
8
BLACK
6
CONTINUOUS
10
-4.92534
20
5.63608
11
-4.92518
21
5.63507
0
LINE
8
BLACK
6
CONTINUOUS
10
-4.92518
20
5.63507
11
-4.92518
21
5.63507
0
LINE
8
BLACK
6
CONTINUOUS
10
-4.92518
20
5.63507
11
-4.92472
21
5.63415
0
LINE
8
BLACK
6
CONTINUOUS
10
-4.92472
20
5.63415
11
-4.92454
21
5.63373
0
LINE
8
BLACK
6
CONTINUOUS
10
-4.92454
20
5.63373
11
-4.92422
21
5.63275
0
LINE
8
BLACK
6
CONTINUOUS
10
-4.92422
20
5.63275
11
-4.92422
21
5.63275
0
LINE
8
BLACK
6
CONTINUOUS
10
-4.92422
20
5.63275
11
-4.92362
21
5.63192
0
LINE
8
BLACK
6
CONTINUOUS
10
-4.92362
20
5.63192
11
-4.92338
21
5.63153
0
LINE
8
BLACK
6
CONTINUOUS
10
-4.92338
20
5.63153
11
-4.92299
21
5.63077
0
LINE
8
BLACK
6
CONTINUOUS
10
-4.92299
20
5.63077
11
-4.92292
21
5.63062
0
LINE
8
BLACK
6
CONTINUOUS
10
-4.92292
20
5.63062
11
-4.92203
21
5.62973
0
LINE
8
BLACK
6
CONTINUOUS
10
-4.92203
20
5.62973
11
-4.92203
21
5.62973
0
LINE
8
BLACK
6
CONTINUOUS
10
-4.92203
20
5.62973
11
-4.92203
21
5.62973
0
LINE
8
BLACK
6
CONTINUOUS
10
-4.92203
20
5.62973
11
-4.89527
21
5.60297
0
LINE
8
BLACK
6
CONTINUOUS
10
-4.89527
20
5.60297
11
-4.89527
21
5.60297
0
LINE
8
BLACK
6
CONTINUOUS
10
-4.89527
20
5.60297
11
-4.89527
21
5.60297
0
LINE
8
BLACK
6
CONTINUOUS
10
-4.89527
20
5.60297
11
-4.89527
21
5.60297
0
LINE
8
BLACK
6
CONTINUOUS
10
-4.89527
20
5.60297
11
-4.89438
21
5.60208
0
LINE
8
BLACK
6
CONTINUOUS
10
-4.89438
20
5.60208
11
-4.89438
21
5.60208
0
LINE
8
BLACK
6
CONTINUOUS
10
-4.89438
20
5.60208
11
-4.89385
21
5.60181
0
LINE
8
BLACK
6
CONTINUOUS
10
-4.89385
20
5.60181
11
-4.89347
21
5.60162
0
LINE
8
BLACK
6
CONTINUOUS
10
-4.89347
20
5.60162
11
-4.89308
21
5.60138
0
LINE
8
BLACK
6
CONTINUOUS
10
-4.89308
20
5.60138
11
-4.89225
21
5.60078
0
LINE
8
BLACK
6
CONTINUOUS
10
-4.89225
20
5.60078
11
-4.8918
21
5.60063
0
LINE
8
BLACK
6
CONTINUOUS
10
-4.8918
20
5.60063
11
-4.89127
21
5.60046
0
LINE
8
BLACK
6
CONTINUOUS
10
-4.89127
20
5.60046
11
-4.89085
21
5.60028
0
LINE
8
BLACK
6
CONTINUOUS
10
-4.89085
20
5.60028
11
-4.88993
21
5.59982
0
LINE
8
BLACK
6
CONTINUOUS
10
-4.88993
20
5.59982
11
-4.88993
21
5.59982
0
LINE
8
BLACK
6
CONTINUOUS
10
-4.88993
20
5.59982
11
-4.88892
21
5.59966
0
LINE
8
BLACK
6
CONTINUOUS
10
-4.88892
20
5.59966
11
-4.88847
21
5.59955
0
LINE
8
BLACK
6
CONTINUOUS
10
-4.88847
20
5.59955
11
-4.8875
21
5.59923
0
LINE
8
BLACK
6
CONTINUOUS
10
-4.8875
20
5.59923
11
-4.8875
21
5.59923
0
LINE
8
BLACK
6
CONTINUOUS
10
-4.8875
20
5.59923
11
-4.88624
21
5.59923
0
LINE
8
BLACK
6
CONTINUOUS
10
-4.88624
20
5.59923
11
-4.88414
21
5.59923
0
LINE
8
BLACK
6
CONTINUOUS
10
-4.88414
20
5.59923
11
-4.88226
21
5.59855
0
LINE
8
BLACK
6
CONTINUOUS
10
-4.88226
20
5.59855
11
-4.882
21
5.59827
0
LINE
8
BLACK
6
CONTINUOUS
10
-4.882
20
5.59827
11
-4.882
21
5.59827
0
LINE
8
BLACK
6
CONTINUOUS
10
-4.882
20
5.59827
11
-4.88186
21
5.59814
0
LINE
8
BLACK
6
CONTINUOUS
10
-4.88186
20
5.59814
11
-4.87692
21
5.59435
0
LINE
8
BLACK
6
CONTINUOUS
10
-4.87692
20
5.59435
11
-4.87117
21
5.59197
0
LINE
8
BLACK
6
CONTINUOUS
10
-4.87117
20
5.59197
11
-4.865
21
5.59115
0
LINE
8
BLACK
6
CONTINUOUS
10
-4.865
20
5.59115
11
-4.865
21
5.59115
0
LINE
8
BLACK
6
CONTINUOUS
10
-4.865
20
5.59115
11
-4.85883
21
5.59197
0
LINE
8
BLACK
6
CONTINUOUS
10
-4.85883
20
5.59197
11
-4.85864
21
5.59199
0
LINE
8
BLACK
6
CONTINUOUS
10
-4.85864
20
5.59199
11
-4.85863
21
5.59189
0
LINE
8
BLACK
6
CONTINUOUS
10
-4.85863
20
5.59189
11
-4.85701
21
5.59175
0
LINE
8
BLACK
6
CONTINUOUS
10
-4.85701
20
5.59175
11
-4.85574
21
5.59059
0
LINE
8
BLACK
6
CONTINUOUS
10
-4.85574
20
5.59059
11
-4.85512
21
5.58955
0
LINE
8
BLACK
6
CONTINUOUS
10
-4.85512
20
5.58955
11
-4.85049
21
5.58492
0
LINE
8
BLACK
6
CONTINUOUS
10
-4.85049
20
5.58492
11
-4.84486
21
5.58159
0
LINE
8
BLACK
6
CONTINUOUS
10
-4.84486
20
5.58159
11
-4.83857
21
5.57976
0
LINE
8
BLACK
6
CONTINUOUS
10
-4.83857
20
5.57976
11
-4.8371
21
5.57965
0
LINE
8
BLACK
6
CONTINUOUS
10
-4.8371
20
5.57965
11
-4.81693
21
5.57965
0
LINE
8
BLACK
6
CONTINUOUS
10
-4.81693
20
5.57965
11
-4.81693
21
5.59965
0
LINE
8
BLACK
6
CONTINUOUS
10
-4.81693
20
5.59965
11
-4.83449
21
5.59965
0
LINE
8
BLACK
6
CONTINUOUS
10
-4.83449
20
5.59965
11
-4.83675
21
5.6001
0
LINE
8
BLACK
6
CONTINUOUS
10
-4.83675
20
5.6001
11
-4.83866
21
5.60138
0
LINE
8
BLACK
6
CONTINUOUS
10
-4.83866
20
5.60138
11
-4.83994
21
5.60329
0
LINE
8
BLACK
6
CONTINUOUS
10
-4.83994
20
5.60329
11
-4.84039
21
5.60555
0
LINE
8
BLACK
6
CONTINUOUS
10
-4.84039
20
5.60555
11
-4.84039
21
5.61736
0
LINE
8
BLACK
6
CONTINUOUS
10
-4.84039
20
5.61736
11
-4.83994
21
5.61962
0
LINE
8
BLACK
6
CONTINUOUS
10
-4.83994
20
5.61962
11
-4.83866
21
5.62154
0
LINE
8
BLACK
6
CONTINUOUS
10
-4.83866
20
5.62154
11
-4.83675
21
5.62282
0
LINE
8
BLACK
6
CONTINUOUS
10
-4.83675
20
5.62282
11
-4.83449
21
5.62327
0
LINE
8
BLACK
6
CONTINUOUS
10
-4.83449
20
5.62327
11
-4.77937
21
5.62327
0
LINE
8
BLACK
6
CONTINUOUS
10
-4.77937
20
5.62327
11
-4.77711
21
5.62282
0
LINE
8
BLACK
6
CONTINUOUS
10
-4.77711
20
5.62282
11
-4.77519
21
5.62154
0
LINE
8
BLACK
6
CONTINUOUS
10
-4.77519
20
5.62154
11
-4.77514
21
5.62146
0
LINE
8
BLACK
6
CONTINUOUS
10
-4.77514
20
5.62146
11
-4.75358
21
5.62146
0
LINE
8
BLACK
6
CONTINUOUS
10
-4.75358
20
5.62146
11
-4.75541
21
5.62773
0
LINE
8
BLACK
6
CONTINUOUS
10
-4.75541
20
5.62773
11
-4.75874
21
5.63337
0
LINE
8
BLACK
6
CONTINUOUS
10
-4.75874
20
5.63337
11
-4.76337
21
5.63799
0
LINE
8
BLACK
6
CONTINUOUS
10
-4.76337
20
5.63799
11
-4.76588
21
5.63948
0
LINE
8
BLACK
6
CONTINUOUS
10
-4.76588
20
5.63948
11
-4.76714
21
5.64102
0
LINE
8
BLACK
6
CONTINUOUS
10
-4.76714
20
5.64102
11
-4.76712
21
5.64301
0
LINE
8
BLACK
6
CONTINUOUS
10
-4.76712
20
5.64301
11
-4.76583
21
5.64453
0
LINE
8
BLACK
6
CONTINUOUS
10
-4.76583
20
5.64453
11
-4.7644
21
5.6449
0
LINE
8
BLACK
6
CONTINUOUS
10
-4.7644
20
5.6449
11
-4.65525
21
5.6449
0
LINE
8
BLACK
6
CONTINUOUS
10
-4.65525
20
5.6449
11
-4.655
21
5.64494
0
LINE
8
BLACK
6
CONTINUOUS
10
-4.655
20
5.64494
11
-4.65475
21
5.6449
0
LINE
8
BLACK
6
CONTINUOUS
10
-4.65475
20
5.6449
11
-4.48925
21
5.6449
0
LINE
8
BLACK
6
CONTINUOUS
10
-4.48925
20
5.6449
11
-4.48738
21
5.64422
0
LINE
8
BLACK
6
CONTINUOUS
10
-4.48738
20
5.64422
11
-4.48694
21
5.64376
0
LINE
8
BLACK
6
CONTINUOUS
10
-4.48694
20
5.64376
11
-4.48676
21
5.64352
0
LINE
8
BLACK
6
CONTINUOUS
10
-4.48676
20
5.64352
11
-4.48676
21
5.64352
0
LINE
8
BLACK
6
CONTINUOUS
10
-4.48676
20
5.64352
11
-4.48182
21
5.63973
0
LINE
8
BLACK
6
CONTINUOUS
10
-4.48182
20
5.63973
11
-4.47607
21
5.63735
0
LINE
8
BLACK
6
CONTINUOUS
10
-4.47607
20
5.63735
11
-4.4699
21
5.63654
0
LINE
8
BLACK
6
CONTINUOUS
10
-4.4699
20
5.63654
11
-4.46373
21
5.63735
0
LINE
8
BLACK
6
CONTINUOUS
10
-4.46373
20
5.63735
11
-4.46373
21
5.63735
0
LINE
8
BLACK
6
CONTINUOUS
10
-4.46373
20
5.63735
11
-4.45798
21
5.63973
0
LINE
8
BLACK
6
CONTINUOUS
10
-4.45798
20
5.63973
11
-4.45304
21
5.64352
0
LINE
8
BLACK
6
CONTINUOUS
10
-4.45304
20
5.64352
11
-4.45304
21
5.64352
0
LINE
8
BLACK
6
CONTINUOUS
10
-4.45304
20
5.64352
11
-4.44991
21
5.6476
0
LINE
8
BLACK
6
CONTINUOUS
10
-4.44991
20
5.6476
11
-4.44823
21
5.64867
0
LINE
8
BLACK
6
CONTINUOUS
10
-4.44823
20
5.64867
11
-4.44625
21
5.64841
0
LINE
8
BLACK
6
CONTINUOUS
10
-4.44625
20
5.64841
11
-4.44529
21
5.6476
0
LINE
8
BLACK
6
CONTINUOUS
10
-4.44529
20
5.6476
11
-4.44186
21
5.64314
0
LINE
8
BLACK
6
CONTINUOUS
10
-4.44186
20
5.64314
11
-4.44186
21
5.64314
0
LINE
8
BLACK
6
CONTINUOUS
10
-4.44186
20
5.64314
11
-4.43692
21
5.63935
0
LINE
8
BLACK
6
CONTINUOUS
10
-4.43692
20
5.63935
11
-4.43117
21
5.63697
0
LINE
8
BLACK
6
CONTINUOUS
10
-4.43117
20
5.63697
11
-4.425
21
5.63615
0
LINE
8
BLACK
6
CONTINUOUS
10
-4.425
20
5.63615
11
-4.425
21
5.63615
0
LINE
8
BLACK
6
CONTINUOUS
10
-4.425
20
5.63615
11
-4.42383
21
5.63631
0
LINE
8
BLACK
6
CONTINUOUS
10
-4.42383
20
5.63631
11
-4.41883
21
5.63697
0
LINE
8
BLACK
6
CONTINUOUS
10
-4.41883
20
5.63697
11
-4.41883
21
5.63697
0
LINE
8
BLACK
6
CONTINUOUS
10
-4.41883
20
5.63697
11
-4.41308
21
5.63935
0
LINE
8
BLACK
6
CONTINUOUS
10
-4.41308
20
5.63935
11
-4.40814
21
5.64314
0
LINE
8
BLACK
6
CONTINUOUS
10
-4.40814
20
5.64314
11
-4.40814
21
5.64314
0
LINE
8
BLACK
6
CONTINUOUS
10
-4.40814
20
5.64314
11
-4.40546
21
5.64663
0
LINE
8
BLACK
6
CONTINUOUS
10
-4.40546
20
5.64663
11
-4.40435
21
5.64808
0
LINE
8
BLACK
6
CONTINUOUS
10
-4.40435
20
5.64808
11
-4.40197
21
5.65383
0
LINE
8
BLACK
6
CONTINUOUS
10
-4.40197
20
5.65383
11
-4.40115
21
5.66
0
LINE
8
BLACK
6
CONTINUOUS
10
-4.40115
20
5.66
11
-4.40197
21
5.66617
0
LINE
8
BLACK
6
CONTINUOUS
10
-4.40197
20
5.66617
11
-4.40435
21
5.67192
0
LINE
8
BLACK
6
CONTINUOUS
10
-4.40435
20
5.67192
11
-4.40814
21
5.67686
0
LINE
8
BLACK
6
CONTINUOUS
10
-4.40814
20
5.67686
11
-4.41308
21
5.68065
0
LINE
8
BLACK
6
CONTINUOUS
10
-4.41308
20
5.68065
11
-4.41883
21
5.68303
0
LINE
8
BLACK
6
CONTINUOUS
10
-4.41883
20
5.68303
11
-4.425
21
5.68385
0
LINE
8
BLACK
6
CONTINUOUS
10
-4.425
20
5.68385
11
-4.425
21
5.68385
0
LINE
8
BLACK
6
CONTINUOUS
10
-4.425
20
5.68385
11
-4.425
21
5.68385
0
LINE
8
BLACK
6
CONTINUOUS
10
-4.425
20
5.68385
11
-4.42519
21
5.68385
0
LINE
8
BLACK
6
CONTINUOUS
10
-4.42519
20
5.68385
11
-4.42519
21
5.68391
0
LINE
8
BLACK
6
CONTINUOUS
10
-4.42519
20
5.68391
11
-4.42689
21
5.68428
0
LINE
8
BLACK
6
CONTINUOUS
10
-4.42689
20
5.68428
11
-4.42738
21
5.68468
0
LINE
8
BLACK
6
CONTINUOUS
10
-4.42738
20
5.68468
11
-4.44659
21
5.70389
0
LINE
8
BLACK
6
CONTINUOUS
10
-4.44659
20
5.70389
11
-4.44659
21
5.70389
0
LINE
8
BLACK
6
CONTINUOUS
10
-4.44659
20
5.70389
11
-4.44676
21
5.70405
0
LINE
8
BLACK
6
CONTINUOUS
10
-4.44676
20
5.70405
11
-4.44676
21
5.70405
0
LINE
8
BLACK
6
CONTINUOUS
10
-4.44676
20
5.70405
11
-4.44748
21
5.70478
0
LINE
8
BLACK
6
CONTINUOUS
10
-4.44748
20
5.70478
11
-4.44839
21
5.70524
0
LINE
8
BLACK
6
CONTINUOUS
10
-4.44839
20
5.70524
11
-4.44878
21
5.70548
0
LINE
8
BLACK
6
CONTINUOUS
10
-4.44878
20
5.70548
11
-4.44961
21
5.70609
0
LINE
8
BLACK
6
CONTINUOUS
10
-4.44961
20
5.70609
11
-4.45059
21
5.7064
0
LINE
8
BLACK
6
CONTINUOUS
10
-4.45059
20
5.7064
11
-4.45101
21
5.70658
0
LINE
8
BLACK
6
CONTINUOUS
10
-4.45101
20
5.70658
11
-4.45193
21
5.70704
0
LINE
8
BLACK
6
CONTINUOUS
10
-4.45193
20
5.70704
11
-4.45294
21
5.70721
0
LINE
8
BLACK
6
CONTINUOUS
10
-4.45294
20
5.70721
11
-4.45339
21
5.70731
0
LINE
8
BLACK
6
CONTINUOUS
10
-4.45339
20
5.70731
11
-4.45436
21
5.70763
0
LINE
8
BLACK
6
CONTINUOUS
10
-4.45436
20
5.70763
11
-4.71318
21
5.70763
0
LINE
8
BLACK
6
CONTINUOUS
10
-4.71318
20
5.70763
11
-4.71506
21
5.70831
0
LINE
8
BLACK
6
CONTINUOUS
10
-4.71506
20
5.70831
11
-4.71577
21
5.70955
0
LINE
8
BLACK
6
CONTINUOUS
10
-4.71577
20
5.70955
11
-4.71605
21
5.71004
0
LINE
8
BLACK
6
CONTINUOUS
10
-4.71605
20
5.71004
11
-4.71607
21
5.71016
0
LINE
8
BLACK
6
CONTINUOUS
10
-4.71607
20
5.71016
11
-4.7168
21
5.71572
0
LINE
8
BLACK
6
CONTINUOUS
10
-4.7168
20
5.71572
11
-4.71685
21
5.71605
0
LINE
8
BLACK
6
CONTINUOUS
10
-4.71685
20
5.71605
11
-4.71923
21
5.7218
0
LINE
8
BLACK
6
CONTINUOUS
10
-4.71923
20
5.7218
11
-4.72302
21
5.72674
0
LINE
8
BLACK
6
CONTINUOUS
10
-4.72302
20
5.72674
11
-4.72796
21
5.73053
0
LINE
8
BLACK
6
CONTINUOUS
10
-4.72796
20
5.73053
11
-4.72991
21
5.73134
0
LINE
8
BLACK
6
CONTINUOUS
10
-4.72991
20
5.73134
11
-4.73138
21
5.73269
0
LINE
8
BLACK
6
CONTINUOUS
10
-4.73138
20
5.73269
11
-4.73164
21
5.73466
0
LINE
8
BLACK
6
CONTINUOUS
10
-4.73164
20
5.73466
11
-4.73057
21
5.73634
0
LINE
8
BLACK
6
CONTINUOUS
10
-4.73057
20
5.73634
11
-4.72918
21
5.73692
0
LINE
8
BLACK
6
CONTINUOUS
10
-4.72918
20
5.73692
11
-4.72883
21
5.73697
0
LINE
8
BLACK
6
CONTINUOUS
10
-4.72883
20
5.73697
11
-4.72308
21
5.73935
0
LINE
8
BLACK
6
CONTINUOUS
10
-4.72308
20
5.73935
11
-4.71814
21
5.74314
0
LINE
8
BLACK
6
CONTINUOUS
10
-4.71814
20
5.74314
11
-4.718
21
5.74327
0
LINE
8
BLACK
6
CONTINUOUS
10
-4.718
20
5.74327
11
-4.71796
21
5.74323
0
LINE
8
BLACK
6
CONTINUOUS
10
-4.71796
20
5.74323
11
-4.71649
21
5.74416
0
LINE
8
BLACK
6
CONTINUOUS
10
-4.71649
20
5.74416
11
-4.71586
21
5.74423
0
LINE
8
BLACK
6
CONTINUOUS
10
-4.71586
20
5.74423
11
-4.62333
21
5.74423
0
LINE
8
BLACK
6
CONTINUOUS
10
-4.62333
20
5.74423
11
-4.62333
21
5.74423
0
LINE
8
BLACK
6
CONTINUOUS
10
-4.62333
20
5.74423
11
-4.62302
21
5.74433
0
LINE
8
BLACK
6
CONTINUOUS
10
-4.62302
20
5.74433
11
-4.62235
21
5.74455
0
LINE
8
BLACK
6
CONTINUOUS
10
-4.62235
20
5.74455
11
-4.62191
21
5.74466
0
LINE
8
BLACK
6
CONTINUOUS
10
-4.62191
20
5.74466
11
-4.62089
21
5.74482
0
LINE
8
BLACK
6
CONTINUOUS
10
-4.62089
20
5.74482
11
-4.62089
21
5.74482
0
LINE
8
BLACK
6
CONTINUOUS
10
-4.62089
20
5.74482
11
-4.61998
21
5.74528
0
LINE
8
BLACK
6
CONTINUOUS
10
-4.61998
20
5.74528
11
-4.61956
21
5.74546
0
LINE
8
BLACK
6
CONTINUOUS
10
-4.61956
20
5.74546
11
-4.61858
21
5.74578
0
LINE
8
BLACK
6
CONTINUOUS
10
-4.61858
20
5.74578
11
-4.61858
21
5.74578
0
LINE
8
BLACK
6
CONTINUOUS
10
-4.61858
20
5.74578
11
-4.61775
21
5.74638
0
LINE
8
BLACK
6
CONTINUOUS
10
-4.61775
20
5.74638
11
-4.61736
21
5.74662
0
LINE
8
BLACK
6
CONTINUOUS
10
-4.61736
20
5.74662
11
-4.61644
21
5.74708
0
LINE
8
BLACK
6
CONTINUOUS
10
-4.61644
20
5.74708
11
-4.61559
21
5.74793
0
LINE
8
BLACK
6
CONTINUOUS
10
-4.61559
20
5.74793
11
-4.61559
21
5.74793
0
LINE
8
BLACK
6
CONTINUOUS
10
-4.61559
20
5.74793
11
-4.59187
21
5.77165
0
LINE
8
BLACK
6
CONTINUOUS
10
-4.59187
20
5.77165
11
-4.54015
21
5.82338
0
LINE
8
BLACK
6
CONTINUOUS
10
-4.54015
20
5.82338
11
-4.53834
21
5.82422
0
LINE
8
BLACK
6
CONTINUOUS
10
-4.53834
20
5.82422
11
-4.53809
21
5.82423
0
LINE
8
BLACK
6
CONTINUOUS
10
-4.53809
20
5.82423
11
-4.49914
21
5.82423
0
LINE
8
BLACK
6
CONTINUOUS
10
-4.49914
20
5.82423
11
-4.49726
21
5.82355
0
LINE
8
BLACK
6
CONTINUOUS
10
-4.49726
20
5.82355
11
-4.497
21
5.82327
0
LINE
8
BLACK
6
CONTINUOUS
10
-4.497
20
5.82327
11
-4.497
21
5.82327
0
LINE
8
BLACK
6
CONTINUOUS
10
-4.497
20
5.82327
11
-4.49686
21
5.82314
0
LINE
8
BLACK
6
CONTINUOUS
10
-4.49686
20
5.82314
11
-4.49192
21
5.81935
0
LINE
8
BLACK
6
CONTINUOUS
10
-4.49192
20
5.81935
11
-4.48617
21
5.81697
0
LINE
8
BLACK
6
CONTINUOUS
10
-4.48617
20
5.81697
11
-4.48
21
5.81615
0
LINE
8
BLACK
6
CONTINUOUS
10
-4.48
20
5.81615
11
-4.47383
21
5.81697
0
LINE
8
BLACK
6
CONTINUOUS
10
-4.47383
20
5.81697
11
-4.47383
21
5.81697
0
LINE
8
BLACK
6
CONTINUOUS
10
-4.47383
20
5.81697
11
-4.46808
21
5.81935
0
LINE
8
BLACK
6
CONTINUOUS
10
-4.46808
20
5.81935
11
-4.46314
21
5.82314
0
LINE
8
BLACK
6
CONTINUOUS
10
-4.46314
20
5.82314
11
-4.463
21
5.82327
0
LINE
8
BLACK
6
CONTINUOUS
10
-4.463
20
5.82327
11
-4.46296
21
5.82323
0
LINE
8
BLACK
6
CONTINUOUS
10
-4.46296
20
5.82323
11
-4.46149
21
5.82416
0
LINE
8
BLACK
6
CONTINUOUS
10
-4.46149
20
5.82416
11
-4.46086
21
5.82423
0
LINE
8
BLACK
6
CONTINUOUS
10
-4.46086
20
5.82423
11
-4.32025
21
5.82423
0
LINE
8
BLACK
6
CONTINUOUS
10
-4.32025
20
5.82423
11
-4.32
21
5.82427
0
LINE
8
BLACK
6
CONTINUOUS
10
-4.32
20
5.82427
11
-4.31975
21
5.82423
0
LINE
8
BLACK
6
CONTINUOUS
10
-4.31975
20
5.82423
11
-4.23774
21
5.82423
0
LINE
8
BLACK
6
CONTINUOUS
10
-4.23774
20
5.82423
11
-4.23587
21
5.82355
0
LINE
8
BLACK
6
CONTINUOUS
10
-4.23587
20
5.82355
11
-4.23568
21
5.82338
0
LINE
8
BLACK
6
CONTINUOUS
10
-4.23568
20
5.82338
11
-4.21468
21
5.80238
0
LINE
8
BLACK
6
CONTINUOUS
10
-4.21468
20
5.80238
11
-4.21384
21
5.80058
0
LINE
8
BLACK
6
CONTINUOUS
10
-4.21384
20
5.80058
11
-4.21385
21
5.80019
0
LINE
8
BLACK
6
CONTINUOUS
10
-4.21385
20
5.80019
11
-4.21385
21
5.80019
0
LINE
8
BLACK
6
CONTINUOUS
10
-4.21385
20
5.80019
11
-4.21385
21
5.8
0
LINE
8
BLACK
6
CONTINUOUS
10
-4.21385
20
5.8
11
-4.21308
21
5.7942
0
LINE
8
BLACK
6
CONTINUOUS
10
-4.21308
20
5.7942
11
-4.21351
21
5.79225
0
LINE
8
BLACK
6
CONTINUOUS
10
-4.21351
20
5.79225
11
-4.21509
21
5.79104
0
LINE
8
BLACK
6
CONTINUOUS
10
-4.21509
20
5.79104
11
-4.21597
21
5.79091
0
LINE
8
BLACK
6
CONTINUOUS
10
-4.21597
20
5.79091
11
-4.21899
21
5.79091
0
LINE
8
BLACK
6
CONTINUOUS
10
-4.21899
20
5.79091
11
-4.22046
21
5.79079
0
LINE
8
BLACK
6
CONTINUOUS
10
-4.22046
20
5.79079
11
-4.22675
21
5.78896
0
LINE
8
BLACK
6
CONTINUOUS
10
-4.22675
20
5.78896
11
-4.23238
21
5.78563
0
LINE
8
BLACK
6
CONTINUOUS
10
-4.23238
20
5.78563
11
-4.23701
21
5.781
0
LINE
8
BLACK
6
CONTINUOUS
10
-4.23701
20
5.781
11
-4.24034
21
5.77537
0
LINE
8
BLACK
6
CONTINUOUS
10
-4.24034
20
5.77537
11
-4.24217
21
5.76909
0
LINE
8
BLACK
6
CONTINUOUS
10
-4.24217
20
5.76909
11
-4.22061
21
5.76909
0
LINE
8
BLACK
6
CONTINUOUS
10
-4.22061
20
5.76909
11
-4.22055
21
5.76918
0
LINE
8
BLACK
6
CONTINUOUS
10
-4.22055
20
5.76918
11
-4.21864
21
5.77046
0
LINE
8
BLACK
6
CONTINUOUS
10
-4.21864
20
5.77046
11
-4.21638
21
5.77091
0
LINE
8
BLACK
6
CONTINUOUS
10
-4.21638
20
5.77091
11
-4.16126
21
5.77091
0
LINE
8
BLACK
6
CONTINUOUS
10
-4.16126
20
5.77091
11
-4.159
21
5.77046
0
LINE
8
BLACK
6
CONTINUOUS
10
-4.159
20
5.77046
11
-4.15708
21
5.76918
0
LINE
8
BLACK
6
CONTINUOUS
10
-4.15708
20
5.76918
11
-4.15703
21
5.76909
0
LINE
8
BLACK
6
CONTINUOUS
10
-4.15703
20
5.76909
11
-4.13547
21
5.76909
0
LINE
8
BLACK
6
CONTINUOUS
10
-4.13547
20
5.76909
11
-4.1373
21
5.77537
0
LINE
8
BLACK
6
CONTINUOUS
10
-4.1373
20
5.77537
11
-4.13994
21
5.77984
0
LINE
8
BLACK
6
CONTINUOUS
10
-4.13994
20
5.77984
11
-4.1403
21
5.78179
0
LINE
8
BLACK
6
CONTINUOUS
10
-4.1403
20
5.78179
11
-4.13933
21
5.78353
0
LINE
8
BLACK
6
CONTINUOUS
10
-4.13933
20
5.78353
11
-4.13746
21
5.78423
0
LINE
8
BLACK
6
CONTINUOUS
10
-4.13746
20
5.78423
11
-4.13743
21
5.78423
0
LINE
8
BLACK
6
CONTINUOUS
10
-4.13743
20
5.78423
11
-4.13648
21
5.78423
0
LINE
8
BLACK
6
CONTINUOUS
10
-4.13648
20
5.78423
11
-4.13461
21
5.78355
0
LINE
8
BLACK
6
CONTINUOUS
10
-4.13461
20
5.78355
11
-4.13442
21
5.78338
0
LINE
8
BLACK
6
CONTINUOUS
10
-4.13442
20
5.78338
11
-4.09662
21
5.74558
0
LINE
8
BLACK
6
CONTINUOUS
10
-4.09662
20
5.74558
11
-4.09578
21
5.74378
0
LINE
8
BLACK
6
CONTINUOUS
10
-4.09578
20
5.74378
11
-4.09577
21
5.74352
0
LINE
8
BLACK
6
CONTINUOUS
10
-4.09577
20
5.74352
11
-4.09577
21
5.64774
0
LINE
8
BLACK
6
CONTINUOUS
10
-4.09577
20
5.64774
11
-4.09645
21
5.64587
0
LINE
8
BLACK
6
CONTINUOUS
10
-4.09645
20
5.64587
11
-4.09662
21
5.64568
0
LINE
8
BLACK
6
CONTINUOUS
10
-4.09662
20
5.64568
11
-4.10548
21
5.63682
0
LINE
8
BLACK
6
CONTINUOUS
10
-4.10548
20
5.63682
11
-4.11422
21
5.62808
0
LINE
8
BLACK
6
CONTINUOUS
10
-4.11422
20
5.62808
11
-4.11603
21
5.62724
0
LINE
8
BLACK
6
CONTINUOUS
10
-4.11603
20
5.62724
11
-4.11628
21
5.62722
0
LINE
8
BLACK
6
CONTINUOUS
10
-4.11628
20
5.62722
11
-4.1504
21
5.62722
0
LINE
8
BLACK
6
CONTINUOUS
10
-4.1504
20
5.62722
11
-4.15227
21
5.62791
0
LINE
8
BLACK
6
CONTINUOUS
10
-4.15227
20
5.62791
11
-4.15246
21
5.62808
0
LINE
8
BLACK
6
CONTINUOUS
10
-4.15246
20
5.62808
11
-4.15313
21
5.62875
0
LINE
8
BLACK
6
CONTINUOUS
10
-4.15313
20
5.62875
11
-4.15727
21
5.63077
0
LINE
8
BLACK
6
CONTINUOUS
10
-4.15727
20
5.63077
11
-4.15995
21
5.63116
0
LINE
8
BLACK
6
CONTINUOUS
10
-4.15995
20
5.63116
11
-4.21769
21
5.63116
0
LINE
8
BLACK
6
CONTINUOUS
10
-4.21769
20
5.63116
11
-4.22037
21
5.63077
0
LINE
8
BLACK
6
CONTINUOUS
10
-4.22037
20
5.63077
11
-4.22037
21
5.63077
0
LINE
8
BLACK
6
CONTINUOUS
10
-4.22037
20
5.63077
11
-4.22451
21
5.62875
0
LINE
8
BLACK
6
CONTINUOUS
10
-4.22451
20
5.62875
11
-4.22776
21
5.62549
0
LINE
8
BLACK
6
CONTINUOUS
10
-4.22776
20
5.62549
11
-4.22979
21
5.62135
0
LINE
8
BLACK
6
CONTINUOUS
10
-4.22979
20
5.62135
11
-4.22979
21
5.62135
0
LINE
8
BLACK
6
CONTINUOUS
10
-4.22979
20
5.62135
11
-4.23018
21
5.61867
0
LINE
8
BLACK
6
CONTINUOUS
10
-4.23018
20
5.61867
11
-4.23018
21
5.60424
0
LINE
8
BLACK
6
CONTINUOUS
10
-4.23018
20
5.60424
11
-4.22979
21
5.60156
0
LINE
8
BLACK
6
CONTINUOUS
10
-4.22979
20
5.60156
11
-4.22979
21
5.60156
0
LINE
8
BLACK
6
CONTINUOUS
10
-4.22979
20
5.60156
11
-4.22776
21
5.59742
0
LINE
8
BLACK
6
CONTINUOUS
10
-4.22776
20
5.59742
11
-4.22451
21
5.59417
0
LINE
8
BLACK
6
CONTINUOUS
10
-4.22451
20
5.59417
11
-4.22037
21
5.59214
0
LINE
8
BLACK
6
CONTINUOUS
10
-4.22037
20
5.59214
11
-4.21769
21
5.59175
0
LINE
8
BLACK
6
CONTINUOUS
10
-4.21769
20
5.59175
11
-4.21769
21
5.59175
0
LINE
8
BLACK
6
CONTINUOUS
10
-4.21769
20
5.59175
11
-4.15995
21
5.59175
0
LINE
8
BLACK
6
CONTINUOUS
10
-4.15995
20
5.59175
11
-4.15727
21
5.59214
0
LINE
8
BLACK
6
CONTINUOUS
10
-4.15727
20
5.59214
11
-4.15727
21
5.59214
0
LINE
8
BLACK
6
CONTINUOUS
10
-4.15727
20
5.59214
11
-4.15313
21
5.59417
0
LINE
8
BLACK
6
CONTINUOUS
10
-4.15313
20
5.59417
11
-4.15246
21
5.59484
0
LINE
8
BLACK
6
CONTINUOUS
10
-4.15246
20
5.59484
11
-4.15065
21
5.59568
0
LINE
8
BLACK
6
CONTINUOUS
10
-4.15065
20
5.59568
11
-4.1504
21
5.59569
0
LINE
8
BLACK
6
CONTINUOUS
10
-4.1504
20
5.59569
11
-4.10605
21
5.59569
0
LINE
8
BLACK
6
CONTINUOUS
10
-4.10605
20
5.59569
11
-4.10605
21
5.59569
0
LINE
8
BLACK
6
CONTINUOUS
10
-4.10605
20
5.59569
11
-4.10573
21
5.59579
0
LINE
8
BLACK
6
CONTINUOUS
10
-4.10573
20
5.59579
11
-4.10507
21
5.59601
0
LINE
8
BLACK
6
CONTINUOUS
10
-4.10507
20
5.59601
11
-4.10462
21
5.59611
0
LINE
8
BLACK
6
CONTINUOUS
10
-4.10462
20
5.59611
11
-4.10361
21
5.59627
0
LINE
8
BLACK
6
CONTINUOUS
10
-4.10361
20
5.59627
11
-4.10361
21
5.59627
0
LINE
8
BLACK
6
CONTINUOUS
10
-4.10361
20
5.59627
11
-4.10269
21
5.59674
0
LINE
8
BLACK
6
CONTINUOUS
10
-4.10269
20
5.59674
11
-4.10227
21
5.59692
0
LINE
8
BLACK
6
CONTINUOUS
10
-4.10227
20
5.59692
11
-4.1013
21
5.59723
0
LINE
8
BLACK
6
CONTINUOUS
10
-4.1013
20
5.59723
11
-4.1013
21
5.59723
0
LINE
8
BLACK
6
CONTINUOUS
10
-4.1013
20
5.59723
11
-4.10046
21
5.59784
0
LINE
8
BLACK
6
CONTINUOUS
10
-4.10046
20
5.59784
11
-4.10008
21
5.59807
0
LINE
8
BLACK
6
CONTINUOUS
10
-4.10008
20
5.59807
11
-4.09916
21
5.59854
0
LINE
8
BLACK
6
CONTINUOUS
10
-4.09916
20
5.59854
11
-4.09831
21
5.59939
0
LINE
8
BLACK
6
CONTINUOUS
10
-4.09831
20
5.59939
11
-4.09831
21
5.59939
0
LINE
8
BLACK
6
CONTINUOUS
10
-4.09831
20
5.59939
11
-4.06793
21
5.62977
0
LINE
8
BLACK
6
CONTINUOUS
10
-4.06793
20
5.62977
11
-4.06793
21
5.62977
0
LINE
8
BLACK
6
CONTINUOUS
10
-4.06793
20
5.62977
11
-4.06708
21
5.63062
0
LINE
8
BLACK
6
CONTINUOUS
10
-4.06708
20
5.63062
11
-4.06708
21
5.63062
0
LINE
8
BLACK
6
CONTINUOUS
10
-4.06708
20
5.63062
11
-4.06662
21
5.63153
0
LINE
8
BLACK
6
CONTINUOUS
10
-4.06662
20
5.63153
11
-4.06638
21
5.63192
0
LINE
8
BLACK
6
CONTINUOUS
10
-4.06638
20
5.63192
11
-4.06578
21
5.63275
0
LINE
8
BLACK
6
CONTINUOUS
10
-4.06578
20
5.63275
11
-4.06546
21
5.63373
0
LINE
8
BLACK
6
CONTINUOUS
10
-4.06546
20
5.63373
11
-4.06528
21
5.63415
0
LINE
8
BLACK
6
CONTINUOUS
10
-4.06528
20
5.63415
11
-4.06482
21
5.63507
0
LINE
8
BLACK
6
CONTINUOUS
10
-4.06482
20
5.63507
11
-4.06466
21
5.63608
0
LINE
8
BLACK
6
CONTINUOUS
10
-4.06466
20
5.63608
11
-4.06455
21
5.63653
0
LINE
8
BLACK
6
CONTINUOUS
10
-4.06455
20
5.63653
11
-4.06455
21
5.63654
0
LINE
8
BLACK
6
CONTINUOUS
10
-4.06455
20
5.63654
11
-4.06441
21
5.63697
0
LINE
8
BLACK
6
CONTINUOUS
10
-4.06441
20
5.63697
11
-4.06423
21
5.6375
0
LINE
8
BLACK
6
CONTINUOUS
10
-4.06423
20
5.6375
11
-4.06423
21
5.69473
0
LINE
8
BLACK
6
CONTINUOUS
10
-4.06423
20
5.69473
11
-4.06423
21
5.7525
0
LINE
8
BLACK
6
CONTINUOUS
10
-4.06423
20
5.7525
11
-4.06423
21
5.7525
0
LINE
8
BLACK
6
CONTINUOUS
10
-4.06423
20
5.7525
11
-4.06423
21
5.75274
0
LINE
8
BLACK
6
CONTINUOUS
10
-4.06423
20
5.75274
11
-4.06423
21
5.75274
0
LINE
8
BLACK
6
CONTINUOUS
10
-4.06423
20
5.75274
11
-4.06423
21
5.75376
0
LINE
8
BLACK
6
CONTINUOUS
10
-4.06423
20
5.75376
11
-4.06433
21
5.75407
0
LINE
8
BLACK
6
CONTINUOUS
10
-4.06433
20
5.75407
11
-4.06455
21
5.75473
0
LINE
8
BLACK
6
CONTINUOUS
10
-4.06455
20
5.75473
11
-4.06466
21
5.75518
0
LINE
8
BLACK
6
CONTINUOUS
10
-4.06466
20
5.75518
11
-4.06479
21
5.75605
0
LINE
8
BLACK
6
CONTINUOUS
10
-4.06479
20
5.75605
11
-4.06482
21
5.75619
0
LINE
8
BLACK
6
CONTINUOUS
10
-4.06482
20
5.75619
11
-4.06528
21
5.75711
0
LINE
8
BLACK
6
CONTINUOUS
10
-4.06528
20
5.75711
11
-4.06546
21
5.75753
0
LINE
8
BLACK
6
CONTINUOUS
10
-4.06546
20
5.75753
11
-4.06578
21
5.75851
0
LINE
8
BLACK
6
CONTINUOUS
10
-4.06578
20
5.75851
11
-4.06578
21
5.75851
0
LINE
8
BLACK
6
CONTINUOUS
10
-4.06578
20
5.75851
11
-4.06578
21
5.75851
0
LINE
8
BLACK
6
CONTINUOUS
10
-4.06578
20
5.75851
11
-4.06638
21
5.75934
0
LINE
8
BLACK
6
CONTINUOUS
10
-4.06638
20
5.75934
11
-4.06662
21
5.75973
0
LINE
8
BLACK
6
CONTINUOUS
10
-4.06662
20
5.75973
11
-4.06708
21
5.76064
0
LINE
8
BLACK
6
CONTINUOUS
10
-4.06708
20
5.76064
11
-4.06708
21
5.76064
0
LINE
8
BLACK
6
CONTINUOUS
10
-4.06708
20
5.76064
11
-4.07062
21
5.76418
0
LINE
8
BLACK
6
CONTINUOUS
10
-4.07062
20
5.76418
11
-4.08216
21
5.77572
0
LINE
8
BLACK
6
CONTINUOUS
10
-4.08216
20
5.77572
11
-4.09371
21
5.78727
0
LINE
8
BLACK
6
CONTINUOUS
10
-4.09371
20
5.78727
11
-4.09455
21
5.78908
0
LINE
8
BLACK
6
CONTINUOUS
10
-4.09455
20
5.78908
11
-4.09404
21
5.791
0
LINE
8
BLACK
6
CONTINUOUS
10
-4.09404
20
5.791
11
-4.09241
21
5.79214
0
LINE
8
BLACK
6
CONTINUOUS
10
-4.09241
20
5.79214
11
-4.09165
21
5.79224
0
LINE
8
BLACK
6
CONTINUOUS
10
-4.09165
20
5.79224
11
-4.07283
21
5.79224
0
LINE
8
BLACK
6
CONTINUOUS
10
-4.07283
20
5.79224
11
-4.07283
21
5.81224
0
LINE
8
BLACK
6
CONTINUOUS
10
-4.07283
20
5.81224
11
-4.10614
21
5.81224
0
LINE
8
BLACK
6
CONTINUOUS
10
-4.10614
20
5.81224
11
-4.10991
21
5.81299
0
LINE
8
BLACK
6
CONTINUOUS
10
-4.10991
20
5.81299
11
-4.1131
21
5.81513
0
LINE
8
BLACK
6
CONTINUOUS
10
-4.1131
20
5.81513
11
-4.11524
21
5.81832
0
LINE
8
BLACK
6
CONTINUOUS
10
-4.11524
20
5.81832
11
-4.11595
21
5.82193
0
LINE
8
BLACK
6
CONTINUOUS
10
-4.11595
20
5.82193
11
-4.13598
21
5.82193
0
LINE
8
BLACK
6
CONTINUOUS
10
-4.13598
20
5.82193
11
-4.13598
21
5.8201
0
LINE
8
BLACK
6
CONTINUOUS
10
-4.13598
20
5.8201
11
-4.13587
21
5.81898
0
LINE
8
BLACK
6
CONTINUOUS
10
-4.13587
20
5.81898
11
-4.13636
21
5.81704
0
LINE
8
BLACK
6
CONTINUOUS
10
-4.13636
20
5.81704
11
-4.13797
21
5.81588
0
LINE
8
BLACK
6
CONTINUOUS
10
-4.13797
20
5.81588
11
-4.13877
21
5.81577
0
LINE
8
BLACK
6
CONTINUOUS
10
-4.13877
20
5.81577
11
-4.17086
21
5.81577
0
LINE
8
BLACK
6
CONTINUOUS
10
-4.17086
20
5.81577
11
-4.17274
21
5.81645
0
LINE
8
BLACK
6
CONTINUOUS
10
-4.17274
20
5.81645
11
-4.173
21
5.81673
0
LINE
8
BLACK
6
CONTINUOUS
10
-4.173
20
5.81673
11
-4.173
21
5.81673
0
LINE
8
BLACK
6
CONTINUOUS
10
-4.173
20
5.81673
11
-4.17314
21
5.81686
0
LINE
8
BLACK
6
CONTINUOUS
10
-4.17314
20
5.81686
11
-4.17314
21
5.81686
0
LINE
8
BLACK
6
CONTINUOUS
10
-4.17314
20
5.81686
11
-4.17328
21
5.81697
0
LINE
8
BLACK
6
CONTINUOUS
10
-4.17328
20
5.81697
11
-4.17383
21
5.81739
0
LINE
8
BLACK
6
CONTINUOUS
10
-4.17383
20
5.81739
11
-4.17808
21
5.82065
0
LINE
8
BLACK
6
CONTINUOUS
10
-4.17808
20
5.82065
11
-4.18383
21
5.82303
0
LINE
8
BLACK
6
CONTINUOUS
10
-4.18383
20
5.82303
11
-4.19
21
5.82385
0
LINE
8
BLACK
6
CONTINUOUS
10
-4.19
20
5.82385
11
-4.19
21
5.82385
0
LINE
8
BLACK
6
CONTINUOUS
10
-4.19
20
5.82385
11
-4.19
21
5.82385
0
LINE
8
BLACK
6
CONTINUOUS
10
-4.19
20
5.82385
11
-4.19019
21
5.82385
0
LINE
8
BLACK
6
CONTINUOUS
10
-4.19019
20
5.82385
11
-4.19019
21
5.82391
0
LINE
8
BLACK
6
CONTINUOUS
10
-4.19019
20
5.82391
11
-4.19189
21
5.82428
0
LINE
8
BLACK
6
CONTINUOUS
10
-4.19189
20
5.82428
11
-4.19238
21
5.82468
0
LINE
8
BLACK
6
CONTINUOUS
10
-4.19238
20
5.82468
11
-4.20963
21
5.84193
0
LINE
8
BLACK
6
CONTINUOUS
10
-4.20963
20
5.84193
11
-4.21973
21
5.85203
0
LINE
8
BLACK
6
CONTINUOUS
10
-4.21973
20
5.85203
11
-4.21973
21
5.85203
0
LINE
8
BLACK
6
CONTINUOUS
10
-4.21973
20
5.85203
11
-4.21989
21
5.85219
0
LINE
8
BLACK
6
CONTINUOUS
10
-4.21989
20
5.85219
11
-4.21989
21
5.85219
0
LINE
8
BLACK
6
CONTINUOUS
10
-4.21989
20
5.85219
11
-4.22062
21
5.85292
0
LINE
8
BLACK
6
CONTINUOUS
10
-4.22062
20
5.85292
11
-4.22153
21
5.85338
0
LINE
8
BLACK
6
CONTINUOUS
10
-4.22153
20
5.85338
11
-4.22192
21
5.85362
0
LINE
8
BLACK
6
CONTINUOUS
10
-4.22192
20
5.85362
11
-4.22275
21
5.85422
0
LINE
8
BLACK
6
CONTINUOUS
10
-4.22275
20
5.85422
11
-4.22373
21
5.85454
0
LINE
8
BLACK
6
CONTINUOUS
10
-4.22373
20
5.85454
11
-4.22415
21
5.85472
0
LINE
8
BLACK
6
CONTINUOUS
10
-4.22415
20
5.85472
11
-4.22507
21
5.85518
0
LINE
8
BLACK
6
CONTINUOUS
10
-4.22507
20
5.85518
11
-4.22608
21
5.85534
0
LINE
8
BLACK
6
CONTINUOUS
10
-4.22608
20
5.85534
11
-4.22653
21
5.85545
0
LINE
8
BLACK
6
CONTINUOUS
10
-4.22653
20
5.85545
11
-4.2275
21
5.85577
0
LINE
8
BLACK
6
CONTINUOUS
10
-4.2275
20
5.85577
11
-4.46086
21
5.85577
0
LINE
8
BLACK
6
CONTINUOUS
10
-4.46086
20
5.85577
11
-4.46274
21
5.85645
0
LINE
8
BLACK
6
CONTINUOUS
10
-4.46274
20
5.85645
11
-4.463
21
5.85673
0
LINE
8
BLACK
6
CONTINUOUS
10
-4.463
20
5.85673
11
-4.463
21
5.85673
0
LINE
8
BLACK
6
CONTINUOUS
10
-4.463
20
5.85673
11
-4.46314
21
5.85686
0
LINE
8
BLACK
6
CONTINUOUS
10
-4.46314
20
5.85686
11
-4.46314
21
5.85686
0
LINE
8
BLACK
6
CONTINUOUS
10
-4.46314
20
5.85686
11
-4.46808
21
5.86065
0
LINE
8
BLACK
6
CONTINUOUS
10
-4.46808
20
5.86065
11
-4.47383
21
5.86303
0
LINE
8
BLACK
6
CONTINUOUS
10
-4.47383
20
5.86303
11
-4.48
21
5.86385
0
LINE
8
BLACK
6
CONTINUOUS
10
-4.48
20
5.86385
11
-4.48617
21
5.86303
0
LINE
8
BLACK
6
CONTINUOUS
10
-4.48617
20
5.86303
11
-4.49192
21
5.86065
0
LINE
8
BLACK
6
CONTINUOUS
10
-4.49192
20
5.86065
11
-4.49192
21
5.86065
0
LINE
8
BLACK
6
CONTINUOUS
10
-4.49192
20
5.86065
11
-4.49686
21
5.85686
0
LINE
8
BLACK
6
CONTINUOUS
10
-4.49686
20
5.85686
11
-4.497
21
5.85673
0
LINE
8
BLACK
6
CONTINUOUS
10
-4.497
20
5.85673
11
-4.49704
21
5.85677
0
LINE
8
BLACK
6
CONTINUOUS
10
-4.49704
20
5.85677
11
-4.49851
21
5.85584
0
LINE
8
BLACK
6
CONTINUOUS
10
-4.49851
20
5.85584
11
-4.49914
21
5.85577
0
LINE
8
BLACK
6
CONTINUOUS
10
-4.49914
20
5.85577
11
-4.54333
21
5.85577
0
LINE
8
BLACK
6
CONTINUOUS
10
-4.54333
20
5.85577
11
-4.54832
21
5.85577
0
LINE
8
BLACK
6
CONTINUOUS
10
-4.54832
20
5.85577
11
-4.5493
21
5.85545
0
LINE
8
BLACK
6
CONTINUOUS
10
-4.5493
20
5.85545
11
-4.54975
21
5.85534
0
LINE
8
BLACK
6
CONTINUOUS
10
-4.54975
20
5.85534
11
-4.55076
21
5.85518
0
LINE
8
BLACK
6
CONTINUOUS
10
-4.55076
20
5.85518
11
-4.55168
21
5.85472
0
LINE
8
BLACK
6
CONTINUOUS
10
-4.55168
20
5.85472
11
-4.5521
21
5.85454
0
LINE
8
BLACK
6
CONTINUOUS
10
-4.5521
20
5.85454
11
-4.55307
21
5.85422
0
LINE
8
BLACK
6
CONTINUOUS
10
-4.55307
20
5.85422
11
-4.55391
21
5.85362
0
LINE
8
BLACK
6
CONTINUOUS
10
-4.55391
20
5.85362
11
-4.5543
21
5.85338
0
LINE
8
BLACK
6
CONTINUOUS
10
-4.5543
20
5.85338
11
-4.55521
21
5.85292
0
LINE
8
BLACK
6
CONTINUOUS
10
-4.55521
20
5.85292
11
-4.55521
21
5.85292
0
LINE
8
BLACK
6
CONTINUOUS
10
-4.55521
20
5.85292
11
-4.55605
21
5.85207
0
LINE
8
BLACK
6
CONTINUOUS
10
-4.55605
20
5.85207
11
-4.55605
21
5.85207
0
LINE
8
BLACK
6
CONTINUOUS
10
-4.55605
20
5.85207
11
-4.6315
21
5.77662
0
LINE
8
BLACK
6
CONTINUOUS
10
-4.6315
20
5.77662
11
-4.63331
21
5.77578
0
LINE
8
BLACK
6
CONTINUOUS
10
-4.63331
20
5.77578
11
-4.63356
21
5.77577
0
LINE
8
BLACK
6
CONTINUOUS
10
-4.63356
20
5.77577
11
-4.71586
21
5.77577
0
LINE
8
BLACK
6
CONTINUOUS
10
-4.71586
20
5.77577
11
-4.71774
21
5.77645
0
LINE
8
BLACK
6
CONTINUOUS
10
-4.71774
20
5.77645
11
-4.718
21
5.77673
0
LINE
8
BLACK
6
CONTINUOUS
10
-4.718
20
5.77673
11
-4.718
21
5.77673
0
LINE
8
BLACK
6
CONTINUOUS
10
-4.718
20
5.77673
11
-4.71814
21
5.77686
0
LINE
8
BLACK
6
CONTINUOUS
10
-4.71814
20
5.77686
11
-4.71814
21
5.77686
0
LINE
8
BLACK
6
CONTINUOUS
10
-4.71814
20
5.77686
11
-4.72308
21
5.78065
0
LINE
8
BLACK
6
CONTINUOUS
10
-4.72308
20
5.78065
11
-4.72883
21
5.78303
0
LINE
8
BLACK
6
CONTINUOUS
10
-4.72883
20
5.78303
11
-4.735
21
5.78385
0
LINE
8
BLACK
6
CONTINUOUS
10
-4.735
20
5.78385
11
-4.74117
21
5.78303
0
LINE
8
BLACK
6
CONTINUOUS
10
-4.74117
20
5.78303
11
-4.74692
21
5.78065
0
LINE
8
BLACK
6
CONTINUOUS
10
-4.74692
20
5.78065
11
-4.74692
21
5.78065
0
LINE
8
BLACK
6
CONTINUOUS
10
-4.74692
20
5.78065
11
-4.75186
21
5.77686
0
LINE
8
BLACK
6
CONTINUOUS
10
-4.75186
20
5.77686
11
-4.752
21
5.77673
0
LINE
8
BLACK
6
CONTINUOUS
10
-4.752
20
5.77673
11
-4.75204
21
5.77677
0
LINE
8
BLACK
6
CONTINUOUS
10
-4.75204
20
5.77677
11
-4.75351
21
5.77584
0
LINE
8
BLACK
6
CONTINUOUS
10
-4.75351
20
5.77584
11
-4.75414
21
5.77577
0
LINE
8
BLACK
6
CONTINUOUS
10
-4.75414
20
5.77577
11
-4.76944
21
5.77577
0
LINE
8
BLACK
6
CONTINUOUS
10
-4.76944
20
5.77577
11
-4.77113
21
5.77631
0
LINE
8
BLACK
6
CONTINUOUS
10
-4.77113
20
5.77631
11
-4.77124
21
5.77639
0
LINE
8
BLACK
6
CONTINUOUS
10
-4.77124
20
5.77639
11
-4.77124
21
5.77639
0
LINE
8
BLACK
6
CONTINUOUS
10
-4.77124
20
5.77639
11
-4.77538
21
5.77841
0
LINE
8
BLACK
6
CONTINUOUS
10
-4.77538
20
5.77841
11
-4.77806
21
5.7788
0
LINE
8
BLACK
6
CONTINUOUS
10
-4.77806
20
5.7788
11
-4.8358
21
5.7788
0
LINE
8
BLACK
6
CONTINUOUS
10
-4.8358
20
5.7788
11
-4.83848
21
5.77841
0
LINE
8
BLACK
6
CONTINUOUS
10
-4.83848
20
5.77841
11
-4.83848
21
5.77841
0
LINE
8
BLACK
6
CONTINUOUS
10
-4.83848
20
5.77841
11
-4.84262
21
5.77639
0
LINE
8
BLACK
6
CONTINUOUS
10
-4.84262
20
5.77639
11
-4.84329
21
5.77572
0
LINE
8
BLACK
6
CONTINUOUS
10
-4.84329
20
5.77572
11
-4.84509
21
5.77487
0
LINE
8
BLACK
6
CONTINUOUS
10
-4.84509
20
5.77487
11
-4.84535
21
5.77486
0
LINE
8
BLACK
6
CONTINUOUS
10
-4.84535
20
5.77486
11
-4.86254
21
5.77486
0
LINE
8
BLACK
6
CONTINUOUS
10
-4.86254
20
5.77486
11
-4.86754
21
5.77486
0
LINE
8
BLACK
6
CONTINUOUS
10
-4.86754
20
5.77486
11
-4.86851
21
5.77454
0
LINE
8
BLACK
6
CONTINUOUS
10
-4.86851
20
5.77454
11
-4.86896
21
5.77444
0
LINE
8
BLACK
6
CONTINUOUS
10
-4.86896
20
5.77444
11
-4.86997
21
5.77428
0
LINE
8
BLACK
6
CONTINUOUS
10
-4.86997
20
5.77428
11
-4.87089
21
5.77381
0
LINE
8
BLACK
6
CONTINUOUS
10
-4.87089
20
5.77381
11
-4.87131
21
5.77364
0
LINE
8
BLACK
6
CONTINUOUS
10
-4.87131
20
5.77364
11
-4.87229
21
5.77332
0
LINE
8
BLACK
6
CONTINUOUS
10
-4.87229
20
5.77332
11
-4.87312
21
5.77271
0
LINE
8
BLACK
6
CONTINUOUS
10
-4.87312
20
5.77271
11
-4.87351
21
5.77248
0
LINE
8
BLACK
6
CONTINUOUS
10
-4.87351
20
5.77248
11
-4.87442
21
5.77201
0
LINE
8
BLACK
6
CONTINUOUS
10
-4.87442
20
5.77201
11
-4.87442
21
5.77201
0
LINE
8
BLACK
6
CONTINUOUS
10
-4.87442
20
5.77201
11
-4.87527
21
5.77117
0
LINE
8
BLACK
6
CONTINUOUS
10
-4.87527
20
5.77117
11
-4.87527
21
5.77117
0
LINE
8
BLACK
6
CONTINUOUS
10
-4.87527
20
5.77117
11
-4.92207
21
5.72437
0
LINE
8
BLACK
6
CONTINUOUS
10
-4.92207
20
5.72437
11
-4.92207
21
5.72437
0
LINE
8
BLACK
6
CONTINUOUS
10
-4.92207
20
5.72437
11
-4.92292
21
5.72352
0
LINE
8
BLACK
6
CONTINUOUS
10
-4.92292
20
5.72352
11
-4.92338
21
5.7226
0
LINE
8
BLACK
6
CONTINUOUS
10
-4.92338
20
5.7226
11
-4.92362
21
5.72221
0
LINE
8
BLACK
6
CONTINUOUS
10
-4.92362
20
5.72221
11
-4.92422
21
5.72138
0
LINE
8
BLACK
6
CONTINUOUS
10
-4.92422
20
5.72138
11
-4.92422
21
5.72138
0
LINE
8
BLACK
6
CONTINUOUS
10
-4.92422
20
5.72138
11
-4.92454
21
5.7204
0
LINE
8
BLACK
6
CONTINUOUS
10
-4.92454
20
5.7204
11
-4.92472
21
5.71998
0
LINE
8
BLACK
6
CONTINUOUS
10
-4.92472
20
5.71998
11
-4.92518
21
5.71907
0
LINE
8
BLACK
6
CONTINUOUS
10
-4.92518
20
5.71907
11
-4.92518
21
5.71907
0
LINE
8
BLACK
6
CONTINUOUS
10
-4.92518
20
5.71907
11
-4.92534
21
5.71805
0
LINE
8
BLACK
6
CONTINUOUS
10
-4.92534
20
5.71805
11
-4.92545
21
5.71761
0
LINE
8
BLACK
6
CONTINUOUS
10
-4.92545
20
5.71761
11
-4.92577
21
5.71663
0
LINE
8
BLACK
6
CONTINUOUS
10
-4.92577
20
5.71663
11
-4.92577
21
5.6375
0
LINE
8
BLACK
6
CONTINUOUS
10
-4.92577
20
5.6375
11
-4.92577
21
5.6375
0
LINE
8
BLACK
6
CONTINUOUS
10
-4.92577
20
5.6375
11
-4.92545
21
5.63653
0
LINE
8
BLACK
6
CONTINUOUS
10
-4.24034
20
5.74282
11
-4.23701
21
5.73719
0
LINE
8
BLACK
6
CONTINUOUS
10
-4.23701
20
5.73719
11
-4.23238
21
5.73256
0
LINE
8
BLACK
6
CONTINUOUS
10
-4.23238
20
5.73256
11
-4.22987
21
5.73107
0
LINE
8
BLACK
6
CONTINUOUS
10
-4.22987
20
5.73107
11
-4.2286
21
5.72953
0
LINE
8
BLACK
6
CONTINUOUS
10
-4.2286
20
5.72953
11
-4.22862
21
5.72754
0
LINE
8
BLACK
6
CONTINUOUS
10
-4.22862
20
5.72754
11
-4.22992
21
5.72602
0
LINE
8
BLACK
6
CONTINUOUS
10
-4.22992
20
5.72602
11
-4.23135
21
5.72565
0
LINE
8
BLACK
6
CONTINUOUS
10
-4.23135
20
5.72565
11
-4.37514
21
5.72565
0
LINE
8
BLACK
6
CONTINUOUS
10
-4.37514
20
5.72565
11
-4.37695
21
5.72631
0
LINE
8
BLACK
6
CONTINUOUS
10
-4.37695
20
5.72631
11
-4.37696
21
5.7263
0
LINE
8
BLACK
6
CONTINUOUS
10
-4.37696
20
5.7263
11
-4.377
21
5.72633
0
LINE
8
BLACK
6
CONTINUOUS
10
-4.377
20
5.72633
11
-4.37702
21
5.72633
0
LINE
8
BLACK
6
CONTINUOUS
10
-4.37702
20
5.72633
11
-4.37706
21
5.72637
0
LINE
8
BLACK
6
CONTINUOUS
10
-4.37706
20
5.72637
11
-4.37711
21
5.72641
0
LINE
8
BLACK
6
CONTINUOUS
10
-4.37711
20
5.72641
11
-4.37711
21
5.72641
0
LINE
8
BLACK
6
CONTINUOUS
10
-4.37711
20
5.72641
11
-4.38205
21
5.7302
0
LINE
8
BLACK
6
CONTINUOUS
10
-4.38205
20
5.7302
11
-4.3878
21
5.73258
0
LINE
8
BLACK
6
CONTINUOUS
10
-4.3878
20
5.73258
11
-4.39397
21
5.7334
0
LINE
8
BLACK
6
CONTINUOUS
10
-4.39397
20
5.7334
11
-4.40015
21
5.73258
0
LINE
8
BLACK
6
CONTINUOUS
10
-4.40015
20
5.73258
11
-4.4059
21
5.7302
0
LINE
8
BLACK
6
CONTINUOUS
10
-4.4059
20
5.7302
11
-4.40721
21
5.7292
0
LINE
8
BLACK
6
CONTINUOUS
10
-4.40721
20
5.7292
11
-4.41084
21
5.72641
0
LINE
8
BLACK
6
CONTINUOUS
10
-4.41084
20
5.72641
11
-4.41084
21
5.72641
0
LINE
8
BLACK
6
CONTINUOUS
10
-4.41084
20
5.72641
11
-4.41463
21
5.72147
0
LINE
8
BLACK
6
CONTINUOUS
10
-4.41463
20
5.72147
11
-4.41701
21
5.71572
0
LINE
8
BLACK
6
CONTINUOUS
10
-4.41701
20
5.71572
11
-4.41701
21
5.71572
0
LINE
8
BLACK
6
CONTINUOUS
10
-4.41701
20
5.71572
11
-4.41782
21
5.70955
0
LINE
8
BLACK
6
CONTINUOUS
10
-4.41782
20
5.70955
11
-4.41701
21
5.70338
0
LINE
8
BLACK
6
CONTINUOUS
10
-4.41701
20
5.70338
11
-4.41701
21
5.70338
0
LINE
8
BLACK
6
CONTINUOUS
10
-4.41701
20
5.70338
11
-4.41463
21
5.69763
0
LINE
8
BLACK
6
CONTINUOUS
10
-4.41463
20
5.69763
11
-4.41084
21
5.69269
0
LINE
8
BLACK
6
CONTINUOUS
10
-4.41084
20
5.69269
11
-4.41084
21
5.69269
0
LINE
8
BLACK
6
CONTINUOUS
10
-4.41084
20
5.69269
11
-4.4059
21
5.6889
0
LINE
8
BLACK
6
CONTINUOUS
10
-4.4059
20
5.6889
11
-4.40015
21
5.68652
0
LINE
8
BLACK
6
CONTINUOUS
10
-4.40015
20
5.68652
11
-4.39397
21
5.6857
0
LINE
8
BLACK
6
CONTINUOUS
10
-4.39397
20
5.6857
11
-4.3878
21
5.68652
0
LINE
8
BLACK
6
CONTINUOUS
10
-4.3878
20
5.68652
11
-4.3878
21
5.68652
0
LINE
8
BLACK
6
CONTINUOUS
10
-4.3878
20
5.68652
11
-4.38205
21
5.6889
0
LINE
8
BLACK
6
CONTINUOUS
10
-4.38205
20
5.6889
11
-4.38039
21
5.69018
0
LINE
8
BLACK
6
CONTINUOUS
10
-4.38039
20
5.69018
11
-4.37711
21
5.69269
0
LINE
8
BLACK
6
CONTINUOUS
10
-4.37711
20
5.69269
11
-4.37689
21
5.69297
0
LINE
8
BLACK
6
CONTINUOUS
10
-4.37689
20
5.69297
11
-4.37521
21
5.69405
0
LINE
8
BLACK
6
CONTINUOUS
10
-4.37521
20
5.69405
11
-4.37458
21
5.69411
0
LINE
8
BLACK
6
CONTINUOUS
10
-4.37458
20
5.69411
11
-4.22724
21
5.69411
0
LINE
8
BLACK
6
CONTINUOUS
10
-4.22724
20
5.69411
11
-4.22536
21
5.69343
0
LINE
8
BLACK
6
CONTINUOUS
10
-4.22536
20
5.69343
11
-4.22518
21
5.69326
0
LINE
8
BLACK
6
CONTINUOUS
10
-4.22518
20
5.69326
11
-4.22451
21
5.69259
0
LINE
8
BLACK
6
CONTINUOUS
10
-4.22451
20
5.69259
11
-4.22037
21
5.69057
0
LINE
8
BLACK
6
CONTINUOUS
10
-4.22037
20
5.69057
11
-4.21769
21
5.69018
0
LINE
8
BLACK
6
CONTINUOUS
10
-4.21769
20
5.69018
11
-4.21769
21
5.69018
0
LINE
8
BLACK
6
CONTINUOUS
10
-4.21769
20
5.69018
11
-4.15995
21
5.69018
0
LINE
8
BLACK
6
CONTINUOUS
10
-4.15995
20
5.69018
11
-4.15727
21
5.69057
0
LINE
8
BLACK
6
CONTINUOUS
10
-4.15727
20
5.69057
11
-4.15682
21
5.69079
0
LINE
8
BLACK
6
CONTINUOUS
10
-4.15682
20
5.69079
11
-4.15483
21
5.691
0
LINE
8
BLACK
6
CONTINUOUS
10
-4.15483
20
5.691
11
-4.15348
21
5.69023
0
LINE
8
BLACK
6
CONTINUOUS
10
-4.15348
20
5.69023
11
-4.14837
21
5.68513
0
LINE
8
BLACK
6
CONTINUOUS
10
-4.14837
20
5.68513
11
-4.14753
21
5.68332
0
LINE
8
BLACK
6
CONTINUOUS
10
-4.14753
20
5.68332
11
-4.14752
21
5.68307
0
LINE
8
BLACK
6
CONTINUOUS
10
-4.14752
20
5.68307
11
-4.14752
21
5.68157
0
LINE
8
BLACK
6
CONTINUOUS
10
-4.14752
20
5.68157
11
-4.1482
21
5.6797
0
LINE
8
BLACK
6
CONTINUOUS
10
-4.1482
20
5.6797
11
-4.14848
21
5.67943
0
LINE
8
BLACK
6
CONTINUOUS
10
-4.14848
20
5.67943
11
-4.14848
21
5.67943
0
LINE
8
BLACK
6
CONTINUOUS
10
-4.14848
20
5.67943
11
-4.14861
21
5.67929
0
LINE
8
BLACK
6
CONTINUOUS
10
-4.14861
20
5.67929
11
-4.14861
21
5.67929
0
LINE
8
BLACK
6
CONTINUOUS
10
-4.14861
20
5.67929
11
-4.14861
21
5.67929
0
LINE
8
BLACK
6
CONTINUOUS
10
-4.14861
20
5.67929
11
-4.14861
21
5.67929
0
LINE
8
BLACK
6
CONTINUOUS
10
-4.14861
20
5.67929
11
-4.14916
21
5.67858
0
LINE
8
BLACK
6
CONTINUOUS
10
-4.14916
20
5.67858
11
-4.15084
21
5.67751
0
LINE
8
BLACK
6
CONTINUOUS
10
-4.15084
20
5.67751
11
-4.15282
21
5.67777
0
LINE
8
BLACK
6
CONTINUOUS
10
-4.15282
20
5.67777
11
-4.1531
21
5.67795
0
LINE
8
BLACK
6
CONTINUOUS
10
-4.1531
20
5.67795
11
-4.15313
21
5.67796
0
LINE
8
BLACK
6
CONTINUOUS
10
-4.15313
20
5.67796
11
-4.15313
21
5.67796
0
LINE
8
BLACK
6
CONTINUOUS
10
-4.15313
20
5.67796
11
-4.15727
21
5.67998
0
LINE
8
BLACK
6
CONTINUOUS
10
-4.15727
20
5.67998
11
-4.15995
21
5.68037
0
LINE
8
BLACK
6
CONTINUOUS
10
-4.15995
20
5.68037
11
-4.21769
21
5.68037
0
LINE
8
BLACK
6
CONTINUOUS
10
-4.21769
20
5.68037
11
-4.22037
21
5.67998
0
LINE
8
BLACK
6
CONTINUOUS
10
-4.22037
20
5.67998
11
-4.22037
21
5.67998
0
LINE
8
BLACK
6
CONTINUOUS
10
-4.22037
20
5.67998
11
-4.22451
21
5.67796
0
LINE
8
BLACK
6
CONTINUOUS
10
-4.22451
20
5.67796
11
-4.22518
21
5.67729
0
LINE
8
BLACK
6
CONTINUOUS
10
-4.22518
20
5.67729
11
-4.22698
21
5.67645
0
LINE
8
BLACK
6
CONTINUOUS
10
-4.22698
20
5.67645
11
-4.22724
21
5.67644
0
LINE
8
BLACK
6
CONTINUOUS
10
-4.22724
20
5.67644
11
-4.23653
21
5.67644
0
LINE
8
BLACK
6
CONTINUOUS
10
-4.23653
20
5.67644
11
-4.2384
21
5.67712
0
LINE
8
BLACK
6
CONTINUOUS
10
-4.2384
20
5.67712
11
-4.23867
21
5.6774
0
LINE
8
BLACK
6
CONTINUOUS
10
-4.23867
20
5.6774
11
-4.23867
21
5.6774
0
LINE
8
BLACK
6
CONTINUOUS
10
-4.23867
20
5.6774
11
-4.23881
21
5.67753
0
LINE
8
BLACK
6
CONTINUOUS
10
-4.23881
20
5.67753
11
-4.23881
21
5.67753
0
LINE
8
BLACK
6
CONTINUOUS
10
-4.23881
20
5.67753
11
-4.24375
21
5.68132
0
LINE
8
BLACK
6
CONTINUOUS
10
-4.24375
20
5.68132
11
-4.2495
21
5.6837
0
LINE
8
BLACK
6
CONTINUOUS
10
-4.2495
20
5.6837
11
-4.25567
21
5.68452
0
LINE
8
BLACK
6
CONTINUOUS
10
-4.25567
20
5.68452
11
-4.26184
21
5.6837
0
LINE
8
BLACK
6
CONTINUOUS
10
-4.26184
20
5.6837
11
-4.26759
21
5.68132
0
LINE
8
BLACK
6
CONTINUOUS
10
-4.26759
20
5.68132
11
-4.26809
21
5.68094
0
LINE
8
BLACK
6
CONTINUOUS
10
-4.26809
20
5.68094
11
-4.27253
21
5.67753
0
LINE
8
BLACK
6
CONTINUOUS
10
-4.27253
20
5.67753
11
-4.27267
21
5.6774
0
LINE
8
BLACK
6
CONTINUOUS
10
-4.27267
20
5.6774
11
-4.27271
21
5.67744
0
LINE
8
BLACK
6
CONTINUOUS
10
-4.27271
20
5.67744
11
-4.27418
21
5.67651
0
LINE
8
BLACK
6
CONTINUOUS
10
-4.27418
20
5.67651
11
-4.27481
21
5.67644
0
LINE
8
BLACK
6
CONTINUOUS
10
-4.27481
20
5.67644
11
-4.3466
21
5.67644
0
LINE
8
BLACK
6
CONTINUOUS
10
-4.3466
20
5.67644
11
-4.34837
21
5.67704
0
LINE
8
BLACK
6
CONTINUOUS
10
-4.34837
20
5.67704
11
-4.35038
21
5.67858
0
LINE
8
BLACK
6
CONTINUOUS
10
-4.35038
20
5.67858
11
-4.35308
21
5.68065
0
LINE
8
BLACK
6
CONTINUOUS
10
-4.35308
20
5.68065
11
-4.35883
21
5.68303
0
LINE
8
BLACK
6
CONTINUOUS
10
-4.35883
20
5.68303
11
-4.365
21
5.68385
0
LINE
8
BLACK
6
CONTINUOUS
10
-4.365
20
5.68385
11
-4.37117
21
5.68303
0
LINE
8
BLACK
6
CONTINUOUS
10
-4.37117
20
5.68303
11
-4.37692
21
5.68065
0
LINE
8
BLACK
6
CONTINUOUS
10
-4.37692
20
5.68065
11
-4.37728
21
5.68037
0
LINE
8
BLACK
6
CONTINUOUS
10
-4.37728
20
5.68037
11
-4.38186
21
5.67686
0
LINE
8
BLACK
6
CONTINUOUS
10
-4.38186
20
5.67686
11
-4.38186
21
5.67686
0
LINE
8
BLACK
6
CONTINUOUS
10
-4.38186
20
5.67686
11
-4.38565
21
5.67192
0
LINE
8
BLACK
6
CONTINUOUS
10
-4.38565
20
5.67192
11
-4.38803
21
5.66617
0
LINE
8
BLACK
6
CONTINUOUS
10
-4.38803
20
5.66617
11
-4.38803
21
5.66617
0
LINE
8
BLACK
6
CONTINUOUS
10
-4.38803
20
5.66617
11
-4.38885
21
5.66
0
LINE
8
BLACK
6
CONTINUOUS
10
-4.38885
20
5.66
11
-4.38803
21
5.65383
0
LINE
8
BLACK
6
CONTINUOUS
10
-4.38803
20
5.65383
11
-4.38803
21
5.65383
0
LINE
8
BLACK
6
CONTINUOUS
10
-4.38803
20
5.65383
11
-4.38565
21
5.64808
0
LINE
8
BLACK
6
CONTINUOUS
10
-4.38565
20
5.64808
11
-4.38186
21
5.64314
0
LINE
8
BLACK
6
CONTINUOUS
10
-4.38186
20
5.64314
11
-4.38186
21
5.64314
0
LINE
8
BLACK
6
CONTINUOUS
10
-4.38186
20
5.64314
11
-4.37692
21
5.63935
0
LINE
8
BLACK
6
CONTINUOUS
10
-4.37692
20
5.63935
11
-4.37117
21
5.63697
0
LINE
8
BLACK
6
CONTINUOUS
10
-4.37117
20
5.63697
11
-4.365
21
5.63615
0
LINE
8
BLACK
6
CONTINUOUS
10
-4.365
20
5.63615
11
-4.365
21
5.63615
0
LINE
8
BLACK
6
CONTINUOUS
10
-4.365
20
5.63615
11
-4.36383
21
5.63631
0
LINE
8
BLACK
6
CONTINUOUS
10
-4.36383
20
5.63631
11
-4.35883
21
5.63697
0
LINE
8
BLACK
6
CONTINUOUS
10
-4.35883
20
5.63697
11
-4.35883
21
5.63697
0
LINE
8
BLACK
6
CONTINUOUS
10
-4.35883
20
5.63697
11
-4.35308
21
5.63935
0
LINE
8
BLACK
6
CONTINUOUS
10
-4.35308
20
5.63935
11
-4.34814
21
5.64314
0
LINE
8
BLACK
6
CONTINUOUS
10
-4.34814
20
5.64314
11
-4.34814
21
5.64314
0
LINE
8
BLACK
6
CONTINUOUS
10
-4.34814
20
5.64314
11
-4.34766
21
5.64376
0
LINE
8
BLACK
6
CONTINUOUS
10
-4.34766
20
5.64376
11
-4.34598
21
5.64483
0
LINE
8
BLACK
6
CONTINUOUS
10
-4.34598
20
5.64483
11
-4.34535
21
5.6449
0
LINE
8
BLACK
6
CONTINUOUS
10
-4.34535
20
5.6449
11
-4.27481
21
5.6449
0
LINE
8
BLACK
6
CONTINUOUS
10
-4.27481
20
5.6449
11
-4.27293
21
5.64422
0
LINE
8
BLACK
6
CONTINUOUS
10
-4.27293
20
5.64422
11
-4.27267
21
5.64394
0
LINE
8
BLACK
6
CONTINUOUS
10
-4.27267
20
5.64394
11
-4.27267
21
5.64394
0
LINE
8
BLACK
6
CONTINUOUS
10
-4.27267
20
5.64394
11
-4.27253
21
5.64381
0
LINE
8
BLACK
6
CONTINUOUS
10
-4.27253
20
5.64381
11
-4.26759
21
5.64002
0
LINE
8
BLACK
6
CONTINUOUS
10
-4.26759
20
5.64002
11
-4.26184
21
5.63764
0
LINE
8
BLACK
6
CONTINUOUS
10
-4.26184
20
5.63764
11
-4.25567
21
5.63682
0
LINE
8
BLACK
6
CONTINUOUS
10
-4.25567
20
5.63682
11
-4.25567
21
5.63682
0
LINE
8
BLACK
6
CONTINUOUS
10
-4.25567
20
5.63682
11
-4.25458
21
5.63697
0
LINE
8
BLACK
6
CONTINUOUS
10
-4.25458
20
5.63697
11
-4.2495
21
5.63764
0
LINE
8
BLACK
6
CONTINUOUS
10
-4.2495
20
5.63764
11
-4.2495
21
5.63764
0
LINE
8
BLACK
6
CONTINUOUS
10
-4.2495
20
5.63764
11
-4.24375
21
5.64002
0
LINE
8
BLACK
6
CONTINUOUS
10
-4.24375
20
5.64002
11
-4.23881
21
5.64381
0
LINE
8
BLACK
6
CONTINUOUS
10
-4.23881
20
5.64381
11
-4.23867
21
5.64394
0
LINE
8
BLACK
6
CONTINUOUS
10
-4.23867
20
5.64394
11
-4.23863
21
5.6439
0
LINE
8
BLACK
6
CONTINUOUS
10
-4.23863
20
5.6439
11
-4.23716
21
5.64483
0
LINE
8
BLACK
6
CONTINUOUS
10
-4.23716
20
5.64483
11
-4.23653
21
5.6449
0
LINE
8
BLACK
6
CONTINUOUS
10
-4.23653
20
5.6449
11
-4.22724
21
5.6449
0
LINE
8
BLACK
6
CONTINUOUS
10
-4.22724
20
5.6449
11
-4.22536
21
5.64422
0
LINE
8
BLACK
6
CONTINUOUS
10
-4.22536
20
5.64422
11
-4.22518
21
5.64405
0
LINE
8
BLACK
6
CONTINUOUS
10
-4.22518
20
5.64405
11
-4.22451
21
5.64338
0
LINE
8
BLACK
6
CONTINUOUS
10
-4.22451
20
5.64338
11
-4.22037
21
5.64136
0
LINE
8
BLACK
6
CONTINUOUS
10
-4.22037
20
5.64136
11
-4.21769
21
5.64096
0
LINE
8
BLACK
6
CONTINUOUS
10
-4.21769
20
5.64096
11
-4.21769
21
5.64096
0
LINE
8
BLACK
6
CONTINUOUS
10
-4.21769
20
5.64096
11
-4.15995
21
5.64096
0
LINE
8
BLACK
6
CONTINUOUS
10
-4.15995
20
5.64096
11
-4.15727
21
5.64136
0
LINE
8
BLACK
6
CONTINUOUS
10
-4.15727
20
5.64136
11
-4.15727
21
5.64136
0
LINE
8
BLACK
6
CONTINUOUS
10
-4.15727
20
5.64136
11
-4.15313
21
5.64338
0
LINE
8
BLACK
6
CONTINUOUS
10
-4.15313
20
5.64338
11
-4.15173
21
5.64477
0
LINE
8
BLACK
6
CONTINUOUS
10
-4.15173
20
5.64477
11
-4.14993
21
5.64562
0
LINE
8
BLACK
6
CONTINUOUS
10
-4.14993
20
5.64562
11
-4.148
21
5.6451
0
LINE
8
BLACK
6
CONTINUOUS
10
-4.148
20
5.6451
11
-4.1479
21
5.64502
0
LINE
8
BLACK
6
CONTINUOUS
10
-4.1479
20
5.64502
11
-4.14367
21
5.64178
0
LINE
8
BLACK
6
CONTINUOUS
10
-4.14367
20
5.64178
11
-4.13792
21
5.6394
0
LINE
8
BLACK
6
CONTINUOUS
10
-4.13792
20
5.6394
11
-4.13175
21
5.63859
0
LINE
8
BLACK
6
CONTINUOUS
10
-4.13175
20
5.63859
11
-4.12558
21
5.6394
0
LINE
8
BLACK
6
CONTINUOUS
10
-4.12558
20
5.6394
11
-4.12558
21
5.6394
0
LINE
8
BLACK
6
CONTINUOUS
10
-4.12558
20
5.6394
11
-4.11983
21
5.64178
0
LINE
8
BLACK
6
CONTINUOUS
10
-4.11983
20
5.64178
11
-4.11489
21
5.64557
0
LINE
8
BLACK
6
CONTINUOUS
10
-4.11489
20
5.64557
11
-4.11489
21
5.64557
0
LINE
8
BLACK
6
CONTINUOUS
10
-4.11489
20
5.64557
11
-4.1111
21
5.65051
0
LINE
8
BLACK
6
CONTINUOUS
10
-4.1111
20
5.65051
11
-4.1111
21
5.65051
0
LINE
8
BLACK
6
CONTINUOUS
10
-4.1111
20
5.65051
11
-4.10872
21
5.65626
0
LINE
8
BLACK
6
CONTINUOUS
10
-4.10872
20
5.65626
11
-4.10791
21
5.66243
0
LINE
8
BLACK
6
CONTINUOUS
10
-4.10791
20
5.66243
11
-4.10872
21
5.6686
0
LINE
8
BLACK
6
CONTINUOUS
10
-4.10872
20
5.6686
11
-4.1111
21
5.67436
0
LINE
8
BLACK
6
CONTINUOUS
10
-4.1111
20
5.67436
11
-4.11489
21
5.67929
0
LINE
8
BLACK
6
CONTINUOUS
10
-4.11489
20
5.67929
11
-4.11489
21
5.67929
0
LINE
8
BLACK
6
CONTINUOUS
10
-4.11489
20
5.67929
11
-4.11503
21
5.67943
0
LINE
8
BLACK
6
CONTINUOUS
10
-4.11503
20
5.67943
11
-4.11498
21
5.67947
0
LINE
8
BLACK
6
CONTINUOUS
10
-4.11498
20
5.67947
11
-4.11592
21
5.68094
0
LINE
8
BLACK
6
CONTINUOUS
10
-4.11592
20
5.68094
11
-4.11598
21
5.68157
0
LINE
8
BLACK
6
CONTINUOUS
10
-4.11598
20
5.68157
11
-4.11598
21
5.69228
0
LINE
8
BLACK
6
CONTINUOUS
10
-4.11598
20
5.69228
11
-4.11598
21
5.69228
0
LINE
8
BLACK
6
CONTINUOUS
10
-4.11598
20
5.69228
11
-4.11598
21
5.69259
0
LINE
8
BLACK
6
CONTINUOUS
10
-4.11598
20
5.69259
11
-4.11598
21
5.6933
0
LINE
8
BLACK
6
CONTINUOUS
10
-4.11598
20
5.6933
11
-4.11622
21
5.69405
0
LINE
8
BLACK
6
CONTINUOUS
10
-4.11622
20
5.69405
11
-4.1163
21
5.69428
0
LINE
8
BLACK
6
CONTINUOUS
10
-4.1163
20
5.69428
11
-4.11641
21
5.69473
0
LINE
8
BLACK
6
CONTINUOUS
10
-4.11641
20
5.69473
11
-4.11657
21
5.69574
0
LINE
8
BLACK
6
CONTINUOUS
10
-4.11657
20
5.69574
11
-4.11657
21
5.69574
0
LINE
8
BLACK
6
CONTINUOUS
10
-4.11657
20
5.69574
11
-4.11704
21
5.69666
0
LINE
8
BLACK
6
CONTINUOUS
10
-4.11704
20
5.69666
11
-4.11721
21
5.69708
0
LINE
8
BLACK
6
CONTINUOUS
10
-4.11721
20
5.69708
11
-4.11753
21
5.69805
0
LINE
8
BLACK
6
CONTINUOUS
10
-4.11753
20
5.69805
11
-4.11753
21
5.69805
0
LINE
8
BLACK
6
CONTINUOUS
10
-4.11753
20
5.69805
11
-4.11753
21
5.69805
0
LINE
8
BLACK
6
CONTINUOUS
10
-4.11753
20
5.69805
11
-4.11813
21
5.69889
0
LINE
8
BLACK
6
CONTINUOUS
10
-4.11813
20
5.69889
11
-4.11837
21
5.69928
0
LINE
8
BLACK
6
CONTINUOUS
10
-4.11837
20
5.69928
11
-4.11884
21
5.70019
0
LINE
8
BLACK
6
CONTINUOUS
10
-4.11884
20
5.70019
11
-4.11884
21
5.70019
0
LINE
8
BLACK
6
CONTINUOUS
10
-4.11884
20
5.70019
11
-4.12237
21
5.70372
0
LINE
8
BLACK
6
CONTINUOUS
10
-4.12237
20
5.70372
11
-4.14055
21
5.72191
0
LINE
8
BLACK
6
CONTINUOUS
10
-4.14055
20
5.72191
11
-4.14055
21
5.72191
0
LINE
8
BLACK
6
CONTINUOUS
10
-4.14055
20
5.72191
11
-4.14072
21
5.72207
0
LINE
8
BLACK
6
CONTINUOUS
10
-4.14072
20
5.72207
11
-4.14072
21
5.72207
0
LINE
8
BLACK
6
CONTINUOUS
10
-4.14072
20
5.72207
11
-4.14144
21
5.7228
0
LINE
8
BLACK
6
CONTINUOUS
10
-4.14144
20
5.7228
11
-4.14236
21
5.72326
0
LINE
8
BLACK
6
CONTINUOUS
10
-4.14236
20
5.72326
11
-4.14275
21
5.7235
0
LINE
8
BLACK
6
CONTINUOUS
10
-4.14275
20
5.7235
11
-4.14277
21
5.72352
0
LINE
8
BLACK
6
CONTINUOUS
10
-4.14277
20
5.72352
11
-4.14358
21
5.72411
0
LINE
8
BLACK
6
CONTINUOUS
10
-4.14358
20
5.72411
11
-4.14456
21
5.72442
0
LINE
8
BLACK
6
CONTINUOUS
10
-4.14456
20
5.72442
11
-4.14498
21
5.7246
0
LINE
8
BLACK
6
CONTINUOUS
10
-4.14498
20
5.7246
11
-4.14589
21
5.72506
0
LINE
8
BLACK
6
CONTINUOUS
10
-4.14589
20
5.72506
11
-4.14691
21
5.72523
0
LINE
8
BLACK
6
CONTINUOUS
10
-4.14691
20
5.72523
11
-4.14735
21
5.72533
0
LINE
8
BLACK
6
CONTINUOUS
10
-4.14735
20
5.72533
11
-4.14775
21
5.72546
0
LINE
8
BLACK
6
CONTINUOUS
10
-4.14775
20
5.72546
11
-4.14932
21
5.72669
0
LINE
8
BLACK
6
CONTINUOUS
10
-4.14932
20
5.72669
11
-4.14973
21
5.72864
0
LINE
8
BLACK
6
CONTINUOUS
10
-4.14973
20
5.72864
11
-4.1488
21
5.7304
0
LINE
8
BLACK
6
CONTINUOUS
10
-4.1488
20
5.7304
11
-4.14833
21
5.73074
0
LINE
8
BLACK
6
CONTINUOUS
10
-4.14833
20
5.73074
11
-4.14526
21
5.73256
0
LINE
8
BLACK
6
CONTINUOUS
10
-4.14526
20
5.73256
11
-4.14063
21
5.73719
0
LINE
8
BLACK
6
CONTINUOUS
10
-4.14063
20
5.73719
11
-4.1373
21
5.74282
0
LINE
8
BLACK
6
CONTINUOUS
10
-4.1373
20
5.74282
11
-4.13547
21
5.74909
0
LINE
8
BLACK
6
CONTINUOUS
10
-4.13547
20
5.74909
11
-4.15703
21
5.74909
0
LINE
8
BLACK
6
CONTINUOUS
10
-4.15703
20
5.74909
11
-4.15708
21
5.74901
0
LINE
8
BLACK
6
CONTINUOUS
10
-4.15708
20
5.74901
11
-4.159
21
5.74773
0
LINE
8
BLACK
6
CONTINUOUS
10
-4.159
20
5.74773
11
-4.16126
21
5.74728
0
LINE
8
BLACK
6
CONTINUOUS
10
-4.16126
20
5.74728
11
-4.21638
21
5.74728
0
LINE
8
BLACK
6
CONTINUOUS
10
-4.21638
20
5.74728
11
-4.21864
21
5.74773
0
LINE
8
BLACK
6
CONTINUOUS
10
-4.21864
20
5.74773
11
-4.22055
21
5.74901
0
LINE
8
BLACK
6
CONTINUOUS
10
-4.22055
20
5.74901
11
-4.22061
21
5.74909
0
LINE
8
BLACK
6
CONTINUOUS
10
-4.22061
20
5.74909
11
-4.24217
21
5.74909
0
LINE
8
BLACK
6
CONTINUOUS
10
-4.24217
20
5.74909
11
-4.24034
21
5.74282
0
LINE
8
BLACK
6
CONTINUOUS
10
-4.52922
20
5.76548
11
-4.52922
21
5.76548
0
LINE
8
BLACK
6
CONTINUOUS
10
-4.52922
20
5.76548
11
-4.52684
21
5.75973
0
LINE
8
BLACK
6
CONTINUOUS
10
-4.52684
20
5.75973
11
-4.52305
21
5.75479
0
LINE
8
BLACK
6
CONTINUOUS
10
-4.52305
20
5.75479
11
-4.52305
21
5.75479
0
LINE
8
BLACK
6
CONTINUOUS
10
-4.52305
20
5.75479
11
-4.51811
21
5.751
0
LINE
8
BLACK
6
CONTINUOUS
10
-4.51811
20
5.751
11
-4.51236
21
5.74862
0
LINE
8
BLACK
6
CONTINUOUS
10
-4.51236
20
5.74862
11
-4.50619
21
5.74781
0
LINE
8
BLACK
6
CONTINUOUS
10
-4.50619
20
5.74781
11
-4.50001
21
5.74862
0
LINE
8
BLACK
6
CONTINUOUS
10
-4.50001
20
5.74862
11
-4.50001
21
5.74862
0
LINE
8
BLACK
6
CONTINUOUS
10
-4.50001
20
5.74862
11
-4.49426
21
5.751
0
LINE
8
BLACK
6
CONTINUOUS
10
-4.49426
20
5.751
11
-4.48932
21
5.75479
0
LINE
8
BLACK
6
CONTINUOUS
10
-4.48932
20
5.75479
11
-4.48932
21
5.75479
0
LINE
8
BLACK
6
CONTINUOUS
10
-4.48932
20
5.75479
11
-4.48932
21
5.75479
0
LINE
8
BLACK
6
CONTINUOUS
10
-4.48932
20
5.75479
11
-4.48932
21
5.75479
0
LINE
8
BLACK
6
CONTINUOUS
10
-4.48932
20
5.75479
11
-4.48918
21
5.75498
0
LINE
8
BLACK
6
CONTINUOUS
10
-4.48918
20
5.75498
11
-4.4875
21
5.75605
0
LINE
8
BLACK
6
CONTINUOUS
10
-4.4875
20
5.75605
11
-4.48687
21
5.75612
0
LINE
8
BLACK
6
CONTINUOUS
10
-4.48687
20
5.75612
11
-4.35703
21
5.75612
0
LINE
8
BLACK
6
CONTINUOUS
10
-4.35703
20
5.75612
11
-4.35516
21
5.75544
0
LINE
8
BLACK
6
CONTINUOUS
10
-4.35516
20
5.75544
11
-4.35489
21
5.75516
0
LINE
8
BLACK
6
CONTINUOUS
10
-4.35489
20
5.75516
11
-4.35489
21
5.75516
0
LINE
8
BLACK
6
CONTINUOUS
10
-4.35489
20
5.75516
11
-4.35476
21
5.75503
0
LINE
8
BLACK
6
CONTINUOUS
10
-4.35476
20
5.75503
11
-4.34982
21
5.75124
0
LINE
8
BLACK
6
CONTINUOUS
10
-4.34982
20
5.75124
11
-4.34407
21
5.74886
0
LINE
8
BLACK
6
CONTINUOUS
10
-4.34407
20
5.74886
11
-4.33789
21
5.74804
0
LINE
8
BLACK
6
CONTINUOUS
10
-4.33789
20
5.74804
11
-4.33172
21
5.74886
0
LINE
8
BLACK
6
CONTINUOUS
10
-4.33172
20
5.74886
11
-4.33172
21
5.74886
0
LINE
8
BLACK
6
CONTINUOUS
10
-4.33172
20
5.74886
11
-4.32597
21
5.75124
0
LINE
8
BLACK
6
CONTINUOUS
10
-4.32597
20
5.75124
11
-4.32103
21
5.75503
0
LINE
8
BLACK
6
CONTINUOUS
10
-4.32103
20
5.75503
11
-4.32103
21
5.75503
0
LINE
8
BLACK
6
CONTINUOUS
10
-4.32103
20
5.75503
11
-4.31836
21
5.75851
0
LINE
8
BLACK
6
CONTINUOUS
10
-4.31836
20
5.75851
11
-4.31724
21
5.75997
0
LINE
8
BLACK
6
CONTINUOUS
10
-4.31724
20
5.75997
11
-4.31486
21
5.76572
0
LINE
8
BLACK
6
CONTINUOUS
10
-4.31486
20
5.76572
11
-4.31405
21
5.77189
0
LINE
8
BLACK
6
CONTINUOUS
10
-4.31405
20
5.77189
11
-4.31486
21
5.77806
0
LINE
8
BLACK
6
CONTINUOUS
10
-4.31486
20
5.77806
11
-4.31724
21
5.78381
0
LINE
8
BLACK
6
CONTINUOUS
10
-4.31724
20
5.78381
11
-4.32103
21
5.78875
0
LINE
8
BLACK
6
CONTINUOUS
10
-4.32103
20
5.78875
11
-4.32597
21
5.79254
0
LINE
8
BLACK
6
CONTINUOUS
10
-4.32597
20
5.79254
11
-4.33172
21
5.79492
0
LINE
8
BLACK
6
CONTINUOUS
10
-4.33172
20
5.79492
11
-4.33789
21
5.79574
0
LINE
8
BLACK
6
CONTINUOUS
10
-4.33789
20
5.79574
11
-4.34407
21
5.79492
0
LINE
8
BLACK
6
CONTINUOUS
10
-4.34407
20
5.79492
11
-4.34982
21
5.79254
0
LINE
8
BLACK
6
CONTINUOUS
10
-4.34982
20
5.79254
11
-4.3508
21
5.79178
0
LINE
8
BLACK
6
CONTINUOUS
10
-4.3508
20
5.79178
11
-4.35476
21
5.78875
0
LINE
8
BLACK
6
CONTINUOUS
10
-4.35476
20
5.78875
11
-4.35489
21
5.78862
0
LINE
8
BLACK
6
CONTINUOUS
10
-4.35489
20
5.78862
11
-4.35493
21
5.78866
0
LINE
8
BLACK
6
CONTINUOUS
10
-4.35493
20
5.78866
11
-4.3564
21
5.78773
0
LINE
8
BLACK
6
CONTINUOUS
10
-4.3564
20
5.78773
11
-4.35703
21
5.78766
0
LINE
8
BLACK
6
CONTINUOUS
10
-4.35703
20
5.78766
11
-4.48726
21
5.78766
0
LINE
8
BLACK
6
CONTINUOUS
10
-4.48726
20
5.78766
11
-4.48913
21
5.78834
0
LINE
8
BLACK
6
CONTINUOUS
10
-4.48913
20
5.78834
11
-4.48932
21
5.78851
0
LINE
8
BLACK
6
CONTINUOUS
10
-4.48932
20
5.78851
11
-4.48932
21
5.78851
0
LINE
8
BLACK
6
CONTINUOUS
10
-4.48932
20
5.78851
11
-4.48932
21
5.78852
0
LINE
8
BLACK
6
CONTINUOUS
10
-4.48932
20
5.78852
11
-4.48932
21
5.78852
0
LINE
8
BLACK
6
CONTINUOUS
10
-4.48932
20
5.78852
11
-4.48932
21
5.78852
0
LINE
8
BLACK
6
CONTINUOUS
10
-4.48932
20
5.78852
11
-4.49123
21
5.78998
0
LINE
8
BLACK
6
CONTINUOUS
10
-4.49123
20
5.78998
11
-4.49426
21
5.7923
0
LINE
8
BLACK
6
CONTINUOUS
10
-4.49426
20
5.7923
11
-4.50001
21
5.79469
0
LINE
8
BLACK
6
CONTINUOUS
10
-4.50001
20
5.79469
11
-4.50619
21
5.7955
0
LINE
8
BLACK
6
CONTINUOUS
10
-4.50619
20
5.7955
11
-4.51236
21
5.79469
0
LINE
8
BLACK
6
CONTINUOUS
10
-4.51236
20
5.79469
11
-4.51811
21
5.7923
0
LINE
8
BLACK
6
CONTINUOUS
10
-4.51811
20
5.7923
11
-4.51954
21
5.7912
0
LINE
8
BLACK
6
CONTINUOUS
10
-4.51954
20
5.7912
11
-4.52305
21
5.78852
0
LINE
8
BLACK
6
CONTINUOUS
10
-4.52305
20
5.78852
11
-4.52305
21
5.78851
0
LINE
8
BLACK
6
CONTINUOUS
10
-4.52305
20
5.78851
11
-4.52684
21
5.78358
0
LINE
8
BLACK
6
CONTINUOUS
10
-4.52684
20
5.78358
11
-4.52922
21
5.77783
0
LINE
8
BLACK
6
CONTINUOUS
10
-4.52922
20
5.77783
11
-4.52922
21
5.77783
0
LINE
8
BLACK
6
CONTINUOUS
10
-4.52922
20
5.77783
11
-4.53003
21
5.77165
0
LINE
8
BLACK
6
CONTINUOUS
10
-4.53003
20
5.77165
11
-4.52922
21
5.76548
0
LINE
8
BLACK
6
CONTINUOUS
10
-4.88051
20
5.81832
11
-4.88265
21
5.81513
0
LINE
8
BLACK
6
CONTINUOUS
10
-4.88265
20
5.81513
11
-4.88584
21
5.81299
0
LINE
8
BLACK
6
CONTINUOUS
10
-4.88584
20
5.81299
11
-4.88961
21
5.81224
0
LINE
8
BLACK
6
CONTINUOUS
10
-4.88961
20
5.81224
11
-4.92291
21
5.81224
0
LINE
8
BLACK
6
CONTINUOUS
10
-4.92291
20
5.81224
11
-4.92291
21
5.79224
0
LINE
8
BLACK
6
CONTINUOUS
10
-4.92291
20
5.79224
11
-4.88762
21
5.79224
0
LINE
8
BLACK
6
CONTINUOUS
10
-4.88762
20
5.79224
11
-4.88353
21
5.79266
0
LINE
8
BLACK
6
CONTINUOUS
10
-4.88353
20
5.79266
11
-4.87691
21
5.79486
0
LINE
8
BLACK
6
CONTINUOUS
10
-4.87691
20
5.79486
11
-4.87097
21
5.79852
0
LINE
8
BLACK
6
CONTINUOUS
10
-4.87097
20
5.79852
11
-4.87097
21
5.79852
0
LINE
8
BLACK
6
CONTINUOUS
10
-4.87097
20
5.79852
11
-4.86604
21
5.80345
0
LINE
8
BLACK
6
CONTINUOUS
10
-4.86604
20
5.80345
11
-4.86604
21
5.80345
0
LINE
8
BLACK
6
CONTINUOUS
10
-4.86604
20
5.80345
11
-4.86238
21
5.80939
0
LINE
8
BLACK
6
CONTINUOUS
10
-4.86238
20
5.80939
11
-4.86018
21
5.81601
0
LINE
8
BLACK
6
CONTINUOUS
10
-4.86018
20
5.81601
11
-4.85976
21
5.8201
0
LINE
8
BLACK
6
CONTINUOUS
10
-4.85976
20
5.8201
11
-4.85976
21
5.8201
0
LINE
8
BLACK
6
CONTINUOUS
10
-4.85976
20
5.8201
11
-4.85976
21
5.82193
0
LINE
8
BLACK
6
CONTINUOUS
10
-4.85976
20
5.82193
11
-4.8798
21
5.82193
0
LINE
8
BLACK
6
CONTINUOUS
10
-4.8798
20
5.82193
11
-4.88051
21
5.81832
0
LINE
8
BLACK
6
CONTINUOUS
10
-4.92291
20
5.85161
11
-4.88961
21
5.85161
0
LINE
8
BLACK
6
CONTINUOUS
10
-4.88961
20
5.85161
11
-4.88584
21
5.85086
0
LINE
8
BLACK
6
CONTINUOUS
10
-4.88584
20
5.85086
11
-4.88265
21
5.84873
0
LINE
8
BLACK
6
CONTINUOUS
10
-4.88265
20
5.84873
11
-4.88051
21
5.84554
0
LINE
8
BLACK
6
CONTINUOUS
10
-4.88051
20
5.84554
11
-4.8798
21
5.84193
0
LINE
8
BLACK
6
CONTINUOUS
10
-4.8798
20
5.84193
11
-4.85976
21
5.84193
0
LINE
8
BLACK
6
CONTINUOUS
10
-4.85976
20
5.84193
11
-4.85976
21
5.84376
0
LINE
8
BLACK
6
CONTINUOUS
10
-4.85976
20
5.84376
11
-4.85976
21
5.84376
0
LINE
8
BLACK
6
CONTINUOUS
10
-4.85976
20
5.84376
11
-4.86018
21
5.84785
0
LINE
8
BLACK
6
CONTINUOUS
10
-4.86018
20
5.84785
11
-4.86238
21
5.85447
0
LINE
8
BLACK
6
CONTINUOUS
10
-4.86238
20
5.85447
11
-4.86604
21
5.86041
0
LINE
8
BLACK
6
CONTINUOUS
10
-4.86604
20
5.86041
11
-4.86604
21
5.86041
0
LINE
8
BLACK
6
CONTINUOUS
10
-4.86604
20
5.86041
11
-4.87097
21
5.86534
0
LINE
8
BLACK
6
CONTINUOUS
10
-4.87097
20
5.86534
11
-4.87097
21
5.86534
0
LINE
8
BLACK
6
CONTINUOUS
10
-4.87097
20
5.86534
11
-4.87691
21
5.869
0
LINE
8
BLACK
6
CONTINUOUS
10
-4.87691
20
5.869
11
-4.88353
21
5.8712
0
LINE
8
BLACK
6
CONTINUOUS
10
-4.88353
20
5.8712
11
-4.88762
21
5.87161
0
LINE
8
BLACK
6
CONTINUOUS
10
-4.88762
20
5.87161
11
-4.88762
21
5.87161
0
LINE
8
BLACK
6
CONTINUOUS
10
-4.88762
20
5.87161
11
-4.92291
21
5.87161
0
LINE
8
BLACK
6
CONTINUOUS
10
-4.92291
20
5.87161
11
-4.92291
21
5.85161
0
LINE
8
BLACK
6
CONTINUOUS
10
-4.11595
20
5.84193
11
-4.11524
21
5.84554
0
LINE
8
BLACK
6
CONTINUOUS
10
-4.11524
20
5.84554
11
-4.1131
21
5.84873
0
LINE
8
BLACK
6
CONTINUOUS
10
-4.1131
20
5.84873
11
-4.10991
21
5.85086
0
LINE
8
BLACK
6
CONTINUOUS
10
-4.10991
20
5.85086
11
-4.10614
21
5.85161
0
LINE
8
BLACK
6
CONTINUOUS
10
-4.10614
20
5.85161
11
-4.07283
21
5.85161
0
LINE
8
BLACK
6
CONTINUOUS
10
-4.07283
20
5.85161
11
-4.07283
21
5.87161
0
LINE
8
BLACK
6
CONTINUOUS
10
-4.07283
20
5.87161
11
-4.10813
21
5.87161
0
LINE
8
BLACK
6
CONTINUOUS
10
-4.10813
20
5.87161
11
-4.10813
21
5.87161
0
LINE
8
BLACK
6
CONTINUOUS
10
-4.10813
20
5.87161
11
-4.11222
21
5.8712
0
LINE
8
BLACK
6
CONTINUOUS
10
-4.11222
20
5.8712
11
-4.11884
21
5.869
0
LINE
8
BLACK
6
CONTINUOUS
10
-4.11884
20
5.869
11
-4.12478
21
5.86534
0
LINE
8
BLACK
6
CONTINUOUS
10
-4.12478
20
5.86534
11
-4.12478
21
5.86534
0
LINE
8
BLACK
6
CONTINUOUS
10
-4.12478
20
5.86534
11
-4.12971
21
5.86041
0
LINE
8
BLACK
6
CONTINUOUS
10
-4.12971
20
5.86041
11
-4.12971
21
5.86041
0
LINE
8
BLACK
6
CONTINUOUS
10
-4.12971
20
5.86041
11
-4.13337
21
5.85447
0
LINE
8
BLACK
6
CONTINUOUS
10
-4.13337
20
5.85447
11
-4.13557
21
5.84785
0
LINE
8
BLACK
6
CONTINUOUS
10
-4.13557
20
5.84785
11
-4.13598
21
5.84376
0
LINE
8
BLACK
6
CONTINUOUS
10
-4.13598
20
5.84376
11
-4.13598
21
5.84193
0
LINE
8
BLACK
6
CONTINUOUS
10
-4.13598
20
5.84193
11
-4.11595
21
5.84193
0
CIRCLE
8
BLACK
10
-4.89157
20
5.39
40
0.00688976
0
CIRCLE
8
BLACK
10
-4.89157
20
5.98055
40
0.00688976
0
CIRCLE
8
BLACK
10
-4.10417
20
5.98055
40
0.00688976
0
CIRCLE
8
BLACK
10
-4.49787
20
5.98055
40
0.00688976
0
CIRCLE
8
BLACK
10
-4.10417
20
5.39
40
0.00688976
0
CIRCLE
8
BLACK
10
-4.49787
20
5.39
40
0.00688976
0
CIRCLE
8
BLACK
10
-4.08
20
5.47
40
0.00787402
0
CIRCLE
8
BLACK
10
-4.87
20
5.47
40
0.00787402
0
CIRCLE
8
BLACK
10
-4.08
20
5.9
40
0.00787402
0
CIRCLE
8
BLACK
10
-4.165
20
5.495
40
0.00787402
0
CIRCLE
8
BLACK
10
-4.81
20
5.935
40
0.00787402
0
CIRCLE
8
BLACK
10
-4.815
20
5.465
40
0.00787402
0
CIRCLE
8
BLACK
10
-4.745
20
5.56
40
0.00787402
0
CIRCLE
8
BLACK
10
-4.32
20
5.80852
40
0.00787402
0
CIRCLE
8
BLACK
10
-4.805
20
5.835
40
0.00787402
0
CIRCLE
8
BLACK
10
-4.045
20
5.65
40
0.00787402
0
CIRCLE
8
BLACK
10
-4.215
20
5.55
40
0.00787402
0
CIRCLE
8
BLACK
10
-4.745
20
5.835
40
0.00787402
0
CIRCLE
8
BLACK
10
-4.045
20
5.77
40
0.00787402
0
CIRCLE
8
BLACK
10
-4.6661
20
5.725
40
0.00787402
0
CIRCLE
8
BLACK
10
-4.95
20
5.47
40
0.00787402
0
CIRCLE
8
BLACK
10
-4.81
20
5.895
40
0.00787402
0
CIRCLE
8
BLACK
10
-4.215
20
5.445
40
0.00787402
0
CIRCLE
8
BLACK
10
-4.81
20
5.54
40
0.00787402
0
CIRCLE
8
BLACK
10
-4.95
20
5.92
40
0.00787402
0
CIRCLE
8
BLACK
10
-4.045
20
5.61
40
0.00787402
0
CIRCLE
8
BLACK
10
-4.165
20
5.55
40
0.00787402
0
CIRCLE
8
BLACK
10
-4.04
20
5.9
40
0.00787402
0
CIRCLE
8
BLACK
10
-4.04
20
5.47
40
0.00787402
0
CIRCLE
8
BLACK
10
-4.95
20
5.69
40
0.00787402
0
CIRCLE
8
BLACK
10
-4.215
20
5.495
40
0.00787402
0
CIRCLE
8
BLACK
10
-4.19
20
5.925
40
0.00787402
0
CIRCLE
8
BLACK
10
-4.24
20
5.925
40
0.00787402
0
CIRCLE
8
BLACK
10
-4.94054
20
5.75263
40
0.00787402
0
CIRCLE
8
BLACK
10
-4.95
20
5.605
40
0.00787402
0
CIRCLE
8
BLACK
10
-4.045
20
5.73
40
0.00787402
0
CIRCLE
8
BLACK
10
-4.47
20
5.535
40
0.00787402
0
CIRCLE
8
BLACK
10
-4.655
20
5.62919
40
0.00787402
0
CIRCLE
8
BLACK
10
-4.045
20
5.69
40
0.00787402
0
CIRCLE
8
BLACK
10
-4.33789
20
5.77189
40
0.00787402
0
CIRCLE
8
BLACK
10
-4.50619
20
5.77165
40
0.00787402
0
CIRCLE
8
BLACK
10
-4.735
20
5.76
40
0.00787402
0
CIRCLE
8
BLACK
10
-4.48
20
5.84
40
0.00787402
0
CIRCLE
8
BLACK
10
-4.19
20
5.8
40
0.00787402
0
CIRCLE
8
BLACK
10
-4.865
20
5.615
40
0.00787402
0
CIRCLE
8
BLACK
10
-4.875
20
5.66
40
0.00787402
0
CIRCLE
8
BLACK
10
-4.4699
20
5.66038
40
0.00787402
0
CIRCLE
8
BLACK
10
-4.73988
20
5.70988
40
0.00787402
0
CIRCLE
8
BLACK
10
-4.425
20
5.66
40
0.00787402
0
CIRCLE
8
BLACK
10
-4.365
20
5.66
40
0.00787402
0
CIRCLE
8
BLACK
10
-4.25567
20
5.66067
40
0.00787402
0
CIRCLE
8
BLACK
10
-4.39397
20
5.70955
40
0.00787402
0
CIRCLE
8
BLACK
10
-4.13175
20
5.66243
40
0.00787402
  0
ENDSEC
  0
EOF
