<?xml version='1.0' encoding='ASCII' standalone='yes'?>
<svg xmlns:svg="http://www.w3.org/2000/svg" xmlns="http://www.w3.org/2000/svg" xmlns:xlink="http://www.w3.org/1999/xlink" version="1.1" width="297.0022mm" height="210.0072mm" viewBox="0.0000 0.0000 297.0022 210.0072">
<title>SVG Image created as TFI2CEXT01-B_Fab.svg date 2024/02/23 00:52:01 </title>
  <desc>Image generated by PCBNEW </desc>
<g style="fill:#000084; fill-opacity:1.0000;stroke:#000084; stroke-opacity:1.0000; stroke-linecap:round; stroke-linejoin:round;" transform="translate(0 0) scale(1 1)">
</g>
<g style="fill:#000084; fill-opacity:0.0;  stroke:#000084; stroke-width:0.0000; stroke-opacity:1;  stroke-linecap:round; stroke-linejoin:round;">
</g>
<g style="fill:#000084; fill-opacity:0.0;  stroke:#000084; stroke-width:0.7085; stroke-opacity:1;  stroke-linecap:round; stroke-linejoin:round;">
<text x="146.1393" y="165.9388" textLength="10.4033" font-size="6.2982" lengthAdjust="spacingAndGlyphs" text-anchor="middle" opacity="0">R4</text>
<g class="stroked-text"><desc>R4</desc>
<path d="M145.3520 165.7254 L143.7775 163.4760 "/>
<path d="M142.6528 165.7254 L142.6528 161.0017 "/>
<path d="M142.6528 161.0017 L144.4523 161.0017 "/>
<path d="M144.4523 161.0017 L144.9021 161.2267 "/>
<path d="M144.9021 161.2267 L145.1271 161.4516 "/>
<path d="M145.1271 161.4516 L145.3520 161.9015 "/>
<path d="M145.3520 161.9015 L145.3520 162.5763 "/>
<path d="M145.3520 162.5763 L145.1271 163.0261 "/>
<path d="M145.1271 163.0261 L144.9021 163.2511 "/>
<path d="M144.9021 163.2511 L144.4523 163.4760 "/>
<path d="M144.4523 163.4760 L142.6528 163.4760 "/>
<path d="M149.4009 162.5763 L149.4009 165.7254 "/>
<path d="M148.2762 160.7768 L147.1515 164.1508 "/>
<path d="M147.1515 164.1508 L150.0757 164.1508 "/>
</g></g>
<g style="fill:#000084; fill-opacity:0.0;  stroke:#000084; stroke-width:1.1809; stroke-opacity:1;  stroke-linecap:round; stroke-linejoin:round;">
<g transform="rotate(90.000000 122.1431 105.0036)">
<text x="122.1431" y="107.9559" textLength="14.1710" font-size="7.8728" lengthAdjust="spacingAndGlyphs" text-anchor="middle" opacity="0">U2</text>
</g>
<g class="stroked-text"><desc>U2</desc>
<path d="M125.3775 100.5049 L120.5976 100.5049 "/>
<path d="M120.5976 100.5049 L120.0353 100.7861 "/>
<path d="M120.0353 100.7861 L119.7541 101.0672 "/>
<path d="M119.7541 101.0672 L119.4729 101.6296 "/>
<path d="M119.4729 101.6296 L119.4729 102.7542 "/>
<path d="M119.4729 102.7542 L119.7541 103.3166 "/>
<path d="M119.7541 103.3166 L120.0353 103.5978 "/>
<path d="M120.0353 103.5978 L120.5976 103.8789 "/>
<path d="M120.5976 103.8789 L125.3775 103.8789 "/>
<path d="M124.8152 106.4095 L125.0963 106.6906 "/>
<path d="M125.0963 106.6906 L125.3775 107.2530 "/>
<path d="M125.3775 107.2530 L125.3775 108.6588 "/>
<path d="M125.3775 108.6588 L125.0963 109.2212 "/>
<path d="M125.0963 109.2212 L124.8152 109.5023 "/>
<path d="M124.8152 109.5023 L124.2528 109.7835 "/>
<path d="M124.2528 109.7835 L123.6905 109.7835 "/>
<path d="M123.6905 109.7835 L122.8470 109.5023 "/>
<path d="M122.8470 109.5023 L119.4729 106.1283 "/>
<path d="M119.4729 106.1283 L119.4729 109.7835 "/>
</g></g>
<g style="fill:#000084; fill-opacity:0.0;  stroke:#000084; stroke-width:1.7714; stroke-opacity:1;  stroke-linecap:round; stroke-linejoin:round;">
<text x="217.6342" y="48.1520" textLength="17.3122" font-size="19.9968" lengthAdjust="spacingAndGlyphs" text-anchor="middle" opacity="0">K</text>
<g class="stroked-text"><desc>K</desc>
<path d="M213.7063 47.4993 L213.7063 32.5017 "/>
<path d="M222.2763 47.4993 L215.8488 38.9292 "/>
<path d="M222.2763 32.5017 L213.7063 41.0717 "/>
</g></g>
<g style="fill:#000084; fill-opacity:0.0;  stroke:#000084; stroke-width:0.7085; stroke-opacity:1;  stroke-linecap:round; stroke-linejoin:round;">
<g transform="rotate(90.000000 164.1364 130.2811)">
<text x="164.1364" y="132.6429" textLength="10.4033" font-size="6.2982" lengthAdjust="spacingAndGlyphs" text-anchor="middle" opacity="0">C2</text>
</g>
<g class="stroked-text"><desc>C2</desc>
<path d="M162.4379 129.4938 L162.2129 129.2689 "/>
<path d="M162.2129 129.2689 L161.9880 128.5941 "/>
<path d="M161.9880 128.5941 L161.9880 128.1442 "/>
<path d="M161.9880 128.1442 L162.2129 127.4694 "/>
<path d="M162.2129 127.4694 L162.6628 127.0195 "/>
<path d="M162.6628 127.0195 L163.1127 126.7946 "/>
<path d="M163.1127 126.7946 L164.0124 126.5696 "/>
<path d="M164.0124 126.5696 L164.6872 126.5696 "/>
<path d="M164.6872 126.5696 L165.5870 126.7946 "/>
<path d="M165.5870 126.7946 L166.0369 127.0195 "/>
<path d="M166.0369 127.0195 L166.4867 127.4694 "/>
<path d="M166.4867 127.4694 L166.7117 128.1442 "/>
<path d="M166.7117 128.1442 L166.7117 128.5941 "/>
<path d="M166.7117 128.5941 L166.4867 129.2689 "/>
<path d="M166.4867 129.2689 L166.2618 129.4938 "/>
<path d="M166.2618 131.2933 L166.4867 131.5182 "/>
<path d="M166.4867 131.5182 L166.7117 131.9681 "/>
<path d="M166.7117 131.9681 L166.7117 133.0928 "/>
<path d="M166.7117 133.0928 L166.4867 133.5427 "/>
<path d="M166.4867 133.5427 L166.2618 133.7676 "/>
<path d="M166.2618 133.7676 L165.8119 133.9925 "/>
<path d="M165.8119 133.9925 L165.3620 133.9925 "/>
<path d="M165.3620 133.9925 L164.6872 133.7676 "/>
<path d="M164.6872 133.7676 L161.9880 131.0684 "/>
<path d="M161.9880 131.0684 L161.9880 133.9925 "/>
</g></g>
<g style="fill:#000084; fill-opacity:0.0;  stroke:#000084; stroke-width:1.7714; stroke-opacity:1;  stroke-linecap:round; stroke-linejoin:round;">
<g transform="rotate(90.000000 224.1269 74.3589)">
<text x="224.1269" y="80.2634" textLength="26.0082" font-size="15.7455" lengthAdjust="spacingAndGlyphs" text-anchor="middle" opacity="0">D2</text>
</g>
<g class="stroked-text"><desc>D2</desc>
<path d="M218.7558 65.6426 L230.5650 65.6426 "/>
<path d="M230.5650 65.6426 L230.5650 68.4543 "/>
<path d="M230.5650 68.4543 L230.0026 70.1413 "/>
<path d="M230.0026 70.1413 L228.8780 71.2660 "/>
<path d="M228.8780 71.2660 L227.7533 71.8283 "/>
<path d="M227.7533 71.8283 L225.5039 72.3907 "/>
<path d="M225.5039 72.3907 L223.8169 72.3907 "/>
<path d="M223.8169 72.3907 L221.5676 71.8283 "/>
<path d="M221.5676 71.8283 L220.4429 71.2660 "/>
<path d="M220.4429 71.2660 L219.3182 70.1413 "/>
<path d="M219.3182 70.1413 L218.7558 68.4543 "/>
<path d="M218.7558 68.4543 L218.7558 65.6426 "/>
<path d="M229.4403 76.8894 L230.0026 77.4518 "/>
<path d="M230.0026 77.4518 L230.5650 78.5764 "/>
<path d="M230.5650 78.5764 L230.5650 81.3881 "/>
<path d="M230.5650 81.3881 L230.0026 82.5128 "/>
<path d="M230.0026 82.5128 L229.4403 83.0752 "/>
<path d="M229.4403 83.0752 L228.3156 83.6375 "/>
<path d="M228.3156 83.6375 L227.1910 83.6375 "/>
<path d="M227.1910 83.6375 L225.5039 83.0752 "/>
<path d="M225.5039 83.0752 L218.7558 76.3271 "/>
<path d="M218.7558 76.3271 L218.7558 83.6375 "/>
</g></g>
<g style="fill:#000084; fill-opacity:0.0;  stroke:#000084; stroke-width:0.7085; stroke-opacity:1;  stroke-linecap:round; stroke-linejoin:round;">
<g transform="rotate(90.000000 92.1479 165.0767)">
<text x="92.1479" y="167.4386" textLength="10.4033" font-size="6.2982" lengthAdjust="spacingAndGlyphs" text-anchor="middle" opacity="0">R5</text>
</g>
<g class="stroked-text"><desc>R5</desc>
<path d="M89.9995 164.2895 L92.2488 162.7149 "/>
<path d="M89.9995 161.5902 L94.7231 161.5902 "/>
<path d="M94.7231 161.5902 L94.7231 163.3897 "/>
<path d="M94.7231 163.3897 L94.4982 163.8396 "/>
<path d="M94.4982 163.8396 L94.2732 164.0645 "/>
<path d="M94.2732 164.0645 L93.8234 164.2895 "/>
<path d="M93.8234 164.2895 L93.1486 164.2895 "/>
<path d="M93.1486 164.2895 L92.6987 164.0645 "/>
<path d="M92.6987 164.0645 L92.4738 163.8396 "/>
<path d="M92.4738 163.8396 L92.2488 163.3897 "/>
<path d="M92.2488 163.3897 L92.2488 161.5902 "/>
<path d="M94.7231 168.5632 L94.7231 166.3139 "/>
<path d="M94.7231 166.3139 L92.4738 166.0889 "/>
<path d="M92.4738 166.0889 L92.6987 166.3139 "/>
<path d="M92.6987 166.3139 L92.9236 166.7638 "/>
<path d="M92.9236 166.7638 L92.9236 167.8884 "/>
<path d="M92.9236 167.8884 L92.6987 168.3383 "/>
<path d="M92.6987 168.3383 L92.4738 168.5632 "/>
<path d="M92.4738 168.5632 L92.0239 168.7882 "/>
<path d="M92.0239 168.7882 L90.8992 168.7882 "/>
<path d="M90.8992 168.7882 L90.4493 168.5632 "/>
<path d="M90.4493 168.5632 L90.2244 168.3383 "/>
<path d="M90.2244 168.3383 L89.9995 167.8884 "/>
<path d="M89.9995 167.8884 L89.9995 166.7638 "/>
<path d="M89.9995 166.7638 L90.2244 166.3139 "/>
<path d="M90.2244 166.3139 L90.4493 166.0889 "/>
</g><g transform="rotate(90.000000 162.6366 81.3912)">
<text x="162.6366" y="83.7530" textLength="10.4033" font-size="6.2982" lengthAdjust="spacingAndGlyphs" text-anchor="middle" opacity="0">C3</text>
</g>
<g class="stroked-text"><desc>C3</desc>
<path d="M160.9381 80.6039 L160.7132 80.3790 "/>
<path d="M160.7132 80.3790 L160.4882 79.7042 "/>
<path d="M160.4882 79.7042 L160.4882 79.2543 "/>
<path d="M160.4882 79.2543 L160.7132 78.5795 "/>
<path d="M160.7132 78.5795 L161.1631 78.1296 "/>
<path d="M161.1631 78.1296 L161.6129 77.9047 "/>
<path d="M161.6129 77.9047 L162.5127 77.6798 "/>
<path d="M162.5127 77.6798 L163.1875 77.6798 "/>
<path d="M163.1875 77.6798 L164.0872 77.9047 "/>
<path d="M164.0872 77.9047 L164.5371 78.1296 "/>
<path d="M164.5371 78.1296 L164.9870 78.5795 "/>
<path d="M164.9870 78.5795 L165.2119 79.2543 "/>
<path d="M165.2119 79.2543 L165.2119 79.7042 "/>
<path d="M165.2119 79.7042 L164.9870 80.3790 "/>
<path d="M164.9870 80.3790 L164.7620 80.6039 "/>
<path d="M165.2119 82.1785 L165.2119 85.1027 "/>
<path d="M165.2119 85.1027 L163.4124 83.5281 "/>
<path d="M163.4124 83.5281 L163.4124 84.2029 "/>
<path d="M163.4124 84.2029 L163.1875 84.6528 "/>
<path d="M163.1875 84.6528 L162.9625 84.8777 "/>
<path d="M162.9625 84.8777 L162.5127 85.1027 "/>
<path d="M162.5127 85.1027 L161.3880 85.1027 "/>
<path d="M161.3880 85.1027 L160.9381 84.8777 "/>
<path d="M160.9381 84.8777 L160.7132 84.6528 "/>
<path d="M160.7132 84.6528 L160.4882 84.2029 "/>
<path d="M160.4882 84.2029 L160.4882 82.8533 "/>
<path d="M160.4882 82.8533 L160.7132 82.4034 "/>
<path d="M160.7132 82.4034 L160.9381 82.1785 "/>
</g></g>
<g style="fill:#000084; fill-opacity:0.0;  stroke:#000084; stroke-width:1.7714; stroke-opacity:1;  stroke-linecap:round; stroke-linejoin:round;">
<g transform="rotate(90.000000 263.0498 105.0036)">
<text x="263.0498" y="110.9082" textLength="23.1965" font-size="15.7455" lengthAdjust="spacingAndGlyphs" text-anchor="middle" opacity="0">J1</text>
</g>
<g class="stroked-text"><desc>J1</desc>
<path d="M269.4879 101.0672 L261.0528 101.0672 "/>
<path d="M261.0528 101.0672 L259.3658 100.5049 "/>
<path d="M259.3658 100.5049 L258.2411 99.3802 "/>
<path d="M258.2411 99.3802 L257.6788 97.6932 "/>
<path d="M257.6788 97.6932 L257.6788 96.5685 "/>
<path d="M257.6788 112.8764 L257.6788 106.1283 "/>
<path d="M257.6788 109.5023 L269.4879 109.5023 "/>
<path d="M269.4879 109.5023 L267.8009 108.3777 "/>
<path d="M267.8009 108.3777 L266.6762 107.2530 "/>
<path d="M266.6762 107.2530 L266.1139 106.1283 "/>
</g></g>
<g style="fill:#000084; fill-opacity:0.0;  stroke:#000084; stroke-width:0.7085; stroke-opacity:1;  stroke-linecap:round; stroke-linejoin:round;">
<g transform="rotate(90.000000 195.6314 121.5836)">
<text x="195.6314" y="123.9455" textLength="10.6282" font-size="6.2982" lengthAdjust="spacingAndGlyphs" text-anchor="middle" opacity="0">U1</text>
</g>
<g class="stroked-text"><desc>U1</desc>
<path d="M198.2067 117.9847 L194.3827 117.9847 "/>
<path d="M194.3827 117.9847 L193.9329 118.2096 "/>
<path d="M193.9329 118.2096 L193.7079 118.4345 "/>
<path d="M193.7079 118.4345 L193.4830 118.8844 "/>
<path d="M193.4830 118.8844 L193.4830 119.7842 "/>
<path d="M193.4830 119.7842 L193.7079 120.2340 "/>
<path d="M193.7079 120.2340 L193.9329 120.4590 "/>
<path d="M193.9329 120.4590 L194.3827 120.6839 "/>
<path d="M194.3827 120.6839 L198.2067 120.6839 "/>
<path d="M193.4830 125.4076 L193.4830 122.7083 "/>
<path d="M193.4830 124.0580 L198.2067 124.0580 "/>
<path d="M198.2067 124.0580 L197.5318 123.6081 "/>
<path d="M197.5318 123.6081 L197.0820 123.1582 "/>
<path d="M197.0820 123.1582 L196.8570 122.7083 "/>
</g></g>
<g style="fill:#000084; fill-opacity:0.0;  stroke:#000084; stroke-width:1.7714; stroke-opacity:1;  stroke-linecap:round; stroke-linejoin:round;">
<text x="217.6342" y="178.0526" textLength="17.3122" font-size="19.9968" lengthAdjust="spacingAndGlyphs" text-anchor="middle" opacity="0">K</text>
<g class="stroked-text"><desc>K</desc>
<path d="M213.7063 177.3999 L213.7063 162.4023 "/>
<path d="M222.2763 177.3999 L215.8488 168.8298 "/>
<path d="M222.2763 162.4023 L213.7063 170.9723 "/>
</g></g>
<g style="fill:#000084; fill-opacity:0.0;  stroke:#000084; stroke-width:0.7085; stroke-opacity:1;  stroke-linecap:round; stroke-linejoin:round;">
<text x="145.8381" y="45.9579" textLength="10.4033" font-size="6.2982" lengthAdjust="spacingAndGlyphs" text-anchor="middle" opacity="0">R1</text>
<g class="stroked-text"><desc>R1</desc>
<path d="M145.0509 45.7445 L143.4763 43.4951 "/>
<path d="M142.3516 45.7445 L142.3516 41.0208 "/>
<path d="M142.3516 41.0208 L144.1511 41.0208 "/>
<path d="M144.1511 41.0208 L144.6010 41.2457 "/>
<path d="M144.6010 41.2457 L144.8259 41.4707 "/>
<path d="M144.8259 41.4707 L145.0509 41.9206 "/>
<path d="M145.0509 41.9206 L145.0509 42.5954 "/>
<path d="M145.0509 42.5954 L144.8259 43.0452 "/>
<path d="M144.8259 43.0452 L144.6010 43.2702 "/>
<path d="M144.6010 43.2702 L144.1511 43.4951 "/>
<path d="M144.1511 43.4951 L142.3516 43.4951 "/>
<path d="M149.5496 45.7445 L146.8504 45.7445 "/>
<path d="M148.2000 45.7445 L148.2000 41.0208 "/>
<path d="M148.2000 41.0208 L147.7501 41.6956 "/>
<path d="M147.7501 41.6956 L147.3002 42.1455 "/>
<path d="M147.3002 42.1455 L146.8504 42.3704 "/>
</g><g transform="rotate(90.000000 92.1479 45.3969)">
<text x="92.1479" y="47.7588" textLength="10.4033" font-size="6.2982" lengthAdjust="spacingAndGlyphs" text-anchor="middle" opacity="0">R6</text>
</g>
<g class="stroked-text"><desc>R6</desc>
<path d="M89.9995 44.6097 L92.2488 43.0351 "/>
<path d="M89.9995 41.9104 L94.7231 41.9104 "/>
<path d="M94.7231 41.9104 L94.7231 43.7099 "/>
<path d="M94.7231 43.7099 L94.4982 44.1598 "/>
<path d="M94.4982 44.1598 L94.2732 44.3847 "/>
<path d="M94.2732 44.3847 L93.8234 44.6097 "/>
<path d="M93.8234 44.6097 L93.1486 44.6097 "/>
<path d="M93.1486 44.6097 L92.6987 44.3847 "/>
<path d="M92.6987 44.3847 L92.4738 44.1598 "/>
<path d="M92.4738 44.1598 L92.2488 43.7099 "/>
<path d="M92.2488 43.7099 L92.2488 41.9104 "/>
<path d="M94.7231 48.6585 L94.7231 47.7588 "/>
<path d="M94.7231 47.7588 L94.4982 47.3089 "/>
<path d="M94.4982 47.3089 L94.2732 47.0840 "/>
<path d="M94.2732 47.0840 L93.5984 46.6341 "/>
<path d="M93.5984 46.6341 L92.6987 46.4092 "/>
<path d="M92.6987 46.4092 L90.8992 46.4092 "/>
<path d="M90.8992 46.4092 L90.4493 46.6341 "/>
<path d="M90.4493 46.6341 L90.2244 46.8590 "/>
<path d="M90.2244 46.8590 L89.9995 47.3089 "/>
<path d="M89.9995 47.3089 L89.9995 48.2087 "/>
<path d="M89.9995 48.2087 L90.2244 48.6585 "/>
<path d="M90.2244 48.6585 L90.4493 48.8835 "/>
<path d="M90.4493 48.8835 L90.8992 49.1084 "/>
<path d="M90.8992 49.1084 L92.0239 49.1084 "/>
<path d="M92.0239 49.1084 L92.4738 48.8835 "/>
<path d="M92.4738 48.8835 L92.6987 48.6585 "/>
<path d="M92.6987 48.6585 L92.9236 48.2087 "/>
<path d="M92.9236 48.2087 L92.9236 47.3089 "/>
<path d="M92.9236 47.3089 L92.6987 46.8590 "/>
<path d="M92.6987 46.8590 L92.4738 46.6341 "/>
<path d="M92.4738 46.6341 L92.0239 46.4092 "/>
</g><g transform="rotate(90.000000 116.1440 165.0767)">
<text x="116.1440" y="167.4386" textLength="10.4033" font-size="6.2982" lengthAdjust="spacingAndGlyphs" text-anchor="middle" opacity="0">R2</text>
</g>
<g class="stroked-text"><desc>R2</desc>
<path d="M113.9956 164.2895 L116.2450 162.7149 "/>
<path d="M113.9956 161.5902 L118.7193 161.5902 "/>
<path d="M118.7193 161.5902 L118.7193 163.3897 "/>
<path d="M118.7193 163.3897 L118.4944 163.8396 "/>
<path d="M118.4944 163.8396 L118.2694 164.0645 "/>
<path d="M118.2694 164.0645 L117.8195 164.2895 "/>
<path d="M117.8195 164.2895 L117.1448 164.2895 "/>
<path d="M117.1448 164.2895 L116.6949 164.0645 "/>
<path d="M116.6949 164.0645 L116.4699 163.8396 "/>
<path d="M116.4699 163.8396 L116.2450 163.3897 "/>
<path d="M116.2450 163.3897 L116.2450 161.5902 "/>
<path d="M118.2694 166.0889 L118.4944 166.3139 "/>
<path d="M118.4944 166.3139 L118.7193 166.7638 "/>
<path d="M118.7193 166.7638 L118.7193 167.8884 "/>
<path d="M118.7193 167.8884 L118.4944 168.3383 "/>
<path d="M118.4944 168.3383 L118.2694 168.5632 "/>
<path d="M118.2694 168.5632 L117.8195 168.7882 "/>
<path d="M117.8195 168.7882 L117.3697 168.7882 "/>
<path d="M117.3697 168.7882 L116.6949 168.5632 "/>
<path d="M116.6949 168.5632 L113.9956 165.8640 "/>
<path d="M113.9956 165.8640 L113.9956 168.7882 "/>
</g><g transform="rotate(90.000000 116.1440 45.3969)">
<text x="116.1440" y="47.7588" textLength="10.4033" font-size="6.2982" lengthAdjust="spacingAndGlyphs" text-anchor="middle" opacity="0">R3</text>
</g>
<g class="stroked-text"><desc>R3</desc>
<path d="M113.9956 44.6097 L116.2450 43.0351 "/>
<path d="M113.9956 41.9104 L118.7193 41.9104 "/>
<path d="M118.7193 41.9104 L118.7193 43.7099 "/>
<path d="M118.7193 43.7099 L118.4944 44.1598 "/>
<path d="M118.4944 44.1598 L118.2694 44.3847 "/>
<path d="M118.2694 44.3847 L117.8195 44.6097 "/>
<path d="M117.8195 44.6097 L117.1448 44.6097 "/>
<path d="M117.1448 44.6097 L116.6949 44.3847 "/>
<path d="M116.6949 44.3847 L116.4699 44.1598 "/>
<path d="M116.4699 44.1598 L116.2450 43.7099 "/>
<path d="M116.2450 43.7099 L116.2450 41.9104 "/>
<path d="M118.7193 46.1842 L118.7193 49.1084 "/>
<path d="M118.7193 49.1084 L116.9198 47.5338 "/>
<path d="M116.9198 47.5338 L116.9198 48.2087 "/>
<path d="M116.9198 48.2087 L116.6949 48.6585 "/>
<path d="M116.6949 48.6585 L116.4699 48.8835 "/>
<path d="M116.4699 48.8835 L116.0201 49.1084 "/>
<path d="M116.0201 49.1084 L114.8954 49.1084 "/>
<path d="M114.8954 49.1084 L114.4455 48.8835 "/>
<path d="M114.4455 48.8835 L114.2206 48.6585 "/>
<path d="M114.2206 48.6585 L113.9956 48.2087 "/>
<path d="M113.9956 48.2087 L113.9956 46.8590 "/>
<path d="M113.9956 46.8590 L114.2206 46.4092 "/>
<path d="M114.2206 46.4092 L114.4455 46.1842 "/>
</g></g>
<g style="fill:#000084; fill-opacity:0.0;  stroke:#000084; stroke-width:1.7714; stroke-opacity:1;  stroke-linecap:round; stroke-linejoin:round;">
<g transform="rotate(90.000000 33.9524 105.0036)">
<text x="33.9524" y="110.9082" textLength="23.1965" font-size="15.7455" lengthAdjust="spacingAndGlyphs" text-anchor="middle" opacity="0">J3</text>
</g>
<g class="stroked-text"><desc>J3</desc>
<path d="M40.3905 101.0672 L31.9554 101.0672 "/>
<path d="M31.9554 101.0672 L30.2684 100.5049 "/>
<path d="M30.2684 100.5049 L29.1437 99.3802 "/>
<path d="M29.1437 99.3802 L28.5814 97.6932 "/>
<path d="M28.5814 97.6932 L28.5814 96.5685 "/>
<path d="M40.3905 105.5660 L40.3905 112.8764 "/>
<path d="M40.3905 112.8764 L35.8918 108.9400 "/>
<path d="M35.8918 108.9400 L35.8918 110.6270 "/>
<path d="M35.8918 110.6270 L35.3295 111.7517 "/>
<path d="M35.3295 111.7517 L34.7671 112.3140 "/>
<path d="M34.7671 112.3140 L33.6424 112.8764 "/>
<path d="M33.6424 112.8764 L30.8307 112.8764 "/>
<path d="M30.8307 112.8764 L29.7061 112.3140 "/>
<path d="M29.7061 112.3140 L29.1437 111.7517 "/>
<path d="M29.1437 111.7517 L28.5814 110.6270 "/>
<path d="M28.5814 110.6270 L28.5814 107.2530 "/>
<path d="M28.5814 107.2530 L29.1437 106.1283 "/>
<path d="M29.1437 106.1283 L29.7061 105.5660 "/>
</g></g>
<g style="fill:#000084; fill-opacity:0.0;  stroke:#000084; stroke-width:0.9447; stroke-opacity:1;  stroke-linecap:round; stroke-linejoin:round;">
<g transform="rotate(90.000000 183.6333 77.3407)">
<text x="183.6333" y="80.2930" textLength="13.1812" font-size="7.8728" lengthAdjust="spacingAndGlyphs" text-anchor="middle" opacity="0">C1</text>
</g>
<g class="stroked-text"><desc>C1</desc>
<path d="M181.5132 76.3566 L181.2320 76.0754 "/>
<path d="M181.2320 76.0754 L180.9509 75.2319 "/>
<path d="M180.9509 75.2319 L180.9509 74.6696 "/>
<path d="M180.9509 74.6696 L181.2320 73.8261 "/>
<path d="M181.2320 73.8261 L181.7944 73.2637 "/>
<path d="M181.7944 73.2637 L182.3567 72.9825 "/>
<path d="M182.3567 72.9825 L183.4814 72.7014 "/>
<path d="M183.4814 72.7014 L184.3249 72.7014 "/>
<path d="M184.3249 72.7014 L185.4496 72.9825 "/>
<path d="M185.4496 72.9825 L186.0119 73.2637 "/>
<path d="M186.0119 73.2637 L186.5743 73.8261 "/>
<path d="M186.5743 73.8261 L186.8554 74.6696 "/>
<path d="M186.8554 74.6696 L186.8554 75.2319 "/>
<path d="M186.8554 75.2319 L186.5743 76.0754 "/>
<path d="M186.5743 76.0754 L186.2931 76.3566 "/>
<path d="M180.9509 81.9800 L180.9509 78.6060 "/>
<path d="M180.9509 80.2930 L186.8554 80.2930 "/>
<path d="M186.8554 80.2930 L186.0119 79.7306 "/>
<path d="M186.0119 79.7306 L185.4496 79.1683 "/>
<path d="M185.4496 79.1683 L185.1684 78.6060 "/>
</g></g>
<g style="fill:#000084; fill-opacity:0.0;  stroke:#000084; stroke-width:0.7085; stroke-opacity:1;  stroke-linecap:round; stroke-linejoin:round;">
<g transform="rotate(90.000000 87.6486 82.5898)">
<text x="87.6486" y="84.9517" textLength="10.4033" font-size="6.2982" lengthAdjust="spacingAndGlyphs" text-anchor="middle" opacity="0">C4</text>
</g>
<g class="stroked-text"><desc>C4</desc>
<path d="M85.9500 81.8026 L85.7251 81.5776 "/>
<path d="M85.7251 81.5776 L85.5002 80.9028 "/>
<path d="M85.5002 80.9028 L85.5002 80.4530 "/>
<path d="M85.5002 80.4530 L85.7251 79.7781 "/>
<path d="M85.7251 79.7781 L86.1750 79.3283 "/>
<path d="M86.1750 79.3283 L86.6249 79.1033 "/>
<path d="M86.6249 79.1033 L87.5246 78.8784 "/>
<path d="M87.5246 78.8784 L88.1994 78.8784 "/>
<path d="M88.1994 78.8784 L89.0992 79.1033 "/>
<path d="M89.0992 79.1033 L89.5490 79.3283 "/>
<path d="M89.5490 79.3283 L89.9989 79.7781 "/>
<path d="M89.9989 79.7781 L90.2238 80.4530 "/>
<path d="M90.2238 80.4530 L90.2238 80.9028 "/>
<path d="M90.2238 80.9028 L89.9989 81.5776 "/>
<path d="M89.9989 81.5776 L89.7740 81.8026 "/>
<path d="M88.6493 85.8514 L85.5002 85.8514 "/>
<path d="M90.4488 84.7267 L87.0747 83.6021 "/>
<path d="M87.0747 83.6021 L87.0747 86.5262 "/>
</g></g>
<g style="fill:#000084; fill-opacity:0.0;  stroke:#000084; stroke-width:1.1809; stroke-opacity:1;  stroke-linecap:round; stroke-linejoin:round;">
<path d="M136.6920 168.4482 L136.6920 158.7057 "/>
<path d="M136.6920 158.7057 L155.5866 158.7057 "/>
<path d="M155.5866 168.4482 L136.6920 168.4482 "/>
<path d="M155.5866 158.7057 L155.5866 168.4482 "/>
<path d="M139.8568 122.7173 L116.2385 122.7173 "/>
<path d="M104.4294 110.9082 L116.2385 122.7173 "/>
<path d="M104.4294 110.9082 L104.4294 87.2899 "/>
<path d="M139.8568 87.2899 L139.8568 122.7173 "/>
<path d="M104.4294 87.2899 L139.8568 87.2899 "/>
</g>
<g style="fill:#000084; fill-opacity:0.0;  stroke:#000084; stroke-width:1.7714; stroke-opacity:1;  stroke-linecap:round; stroke-linejoin:round;">
<path d="M166.2148 54.2243 L166.2148 25.8823 "/>
<path d="M166.2148 25.8823 L225.2605 25.8823 "/>
<path d="M225.2605 54.2243 L166.2148 54.2243 "/>
<path d="M225.2605 25.8823 L225.2605 54.2243 "/>
</g>
<g style="fill:#000084; fill-opacity:0.0;  stroke:#000084; stroke-width:1.1809; stroke-opacity:1;  stroke-linecap:round; stroke-linejoin:round;">
<path d="M169.0077 139.7284 L159.2651 139.7284 "/>
<path d="M159.2651 139.7284 L159.2651 120.8338 "/>
<path d="M169.0077 120.8338 L169.0077 139.7284 "/>
<path d="M159.2651 120.8338 L169.0077 120.8338 "/>
<path d="M214.4434 82.0348 L203.8151 82.0348 "/>
<path d="M203.8151 82.0348 L203.8151 66.6829 "/>
<path d="M211.4911 76.7207 L206.7674 76.7207 "/>
<path d="M209.1293 76.7207 L209.1293 78.4921 "/>
<path d="M209.1293 76.7207 L211.4911 73.1780 "/>
<path d="M211.4911 73.1780 L206.7674 73.1780 "/>
<path d="M209.1293 73.1780 L209.1293 71.4066 "/>
<path d="M206.7674 73.1780 L209.1293 76.7207 "/>
<path d="M214.4434 66.6829 L214.4434 82.0348 "/>
<path d="M203.8151 66.6829 L214.4434 66.6829 "/>
<path d="M97.0191 174.5240 L87.2766 174.5240 "/>
<path d="M87.2766 174.5240 L87.2766 155.6294 "/>
<path d="M97.0191 155.6294 L97.0191 174.5240 "/>
<path d="M87.2766 155.6294 L97.0191 155.6294 "/>
<path d="M167.5079 90.8385 L157.7654 90.8385 "/>
<path d="M157.7654 90.8385 L157.7654 71.9439 "/>
<path d="M167.5079 71.9439 L167.5079 90.8385 "/>
<path d="M157.7654 71.9439 L167.5079 71.9439 "/>
<path d="M291.9822 153.7163 L291.9822 56.2909 "/>
<path d="M244.1552 153.7163 L291.9822 153.7163 "/>
<path d="M244.1552 153.7163 L244.1552 56.2909 "/>
<path d="M244.1552 133.0503 L252.5055 127.1457 "/>
<path d="M252.5055 127.1457 L244.1552 121.2412 "/>
<path d="M244.1552 56.2909 L291.9822 56.2909 "/>
<path d="M212.7547 131.0310 L183.2318 131.0310 "/>
<path d="M183.2318 131.0310 L178.5081 126.3073 "/>
<path d="M178.5081 126.3073 L178.5081 112.1363 "/>
<path d="M212.7547 112.1363 L212.7547 131.0310 "/>
<path d="M178.5081 112.1363 L212.7547 112.1363 "/>
</g>
<g style="fill:#000084; fill-opacity:0.0;  stroke:#000084; stroke-width:1.7714; stroke-opacity:1;  stroke-linecap:round; stroke-linejoin:round;">
<path d="M166.2148 184.1249 L166.2148 155.7829 "/>
<path d="M166.2148 155.7829 L225.2605 155.7829 "/>
<path d="M225.2605 184.1249 L166.2148 184.1249 "/>
<path d="M225.2605 155.7829 L225.2605 184.1249 "/>
</g>
<g style="fill:#000084; fill-opacity:0.0;  stroke:#000084; stroke-width:1.1809; stroke-opacity:1;  stroke-linecap:round; stroke-linejoin:round;">
<path d="M136.3908 48.4673 L136.3908 38.7248 "/>
<path d="M136.3908 38.7248 L155.2855 38.7248 "/>
<path d="M155.2855 48.4673 L136.3908 48.4673 "/>
<path d="M155.2855 38.7248 L155.2855 48.4673 "/>
<path d="M87.2766 35.9496 L97.0191 35.9496 "/>
<path d="M97.0191 35.9496 L97.0191 54.8443 "/>
<path d="M87.2766 54.8443 L87.2766 35.9496 "/>
<path d="M97.0191 54.8443 L87.2766 54.8443 "/>
<path d="M121.0153 174.5240 L111.2728 174.5240 "/>
<path d="M111.2728 174.5240 L111.2728 155.6294 "/>
<path d="M121.0153 155.6294 L121.0153 174.5240 "/>
<path d="M111.2728 155.6294 L121.0153 155.6294 "/>
<path d="M111.2728 35.9496 L121.0153 35.9496 "/>
<path d="M121.0153 35.9496 L121.0153 54.8443 "/>
<path d="M111.2728 54.8443 L111.2728 35.9496 "/>
<path d="M121.0153 54.8443 L111.2728 54.8443 "/>
<path d="M5.0200 56.2909 L5.0200 153.7163 "/>
<path d="M52.8470 56.2909 L5.0200 56.2909 "/>
<path d="M52.8470 56.2909 L52.8470 153.7163 "/>
<path d="M52.8470 76.9569 L44.4967 82.8615 "/>
<path d="M44.4967 82.8615 L52.8470 88.7660 "/>
<path d="M52.8470 153.7163 L5.0200 153.7163 "/>
<path d="M191.0140 89.1498 L176.2526 89.1498 "/>
<path d="M176.2526 89.1498 L176.2526 65.5315 "/>
<path d="M191.0140 65.5315 L191.0140 89.1498 "/>
<path d="M176.2526 65.5315 L191.0140 65.5315 "/>
<path d="M92.5198 92.0372 L82.7773 92.0372 "/>
<path d="M82.7773 92.0372 L82.7773 73.1425 "/>
<path d="M92.5198 73.1425 L92.5198 92.0372 "/>
<path d="M82.7773 73.1425 L92.5198 73.1425 "/>
<g>
</g>
<g>
</g>
<g>
</g>
<g>
</g>
<g>
</g>
<g>
</g>
<g>
</g>
<g>
</g>
<g>
</g>
<g>
</g>
<g>
</g>
<g>
</g>
<g>
</g>
<g>
</g>
<g>
</g>
<g>
</g>
<g>
</g>
<g>
</g>
<g>
</g>
<g>
</g>
<g>
</g>
<g>
</g>
<g>
</g>
<g>
</g>
<g>
</g>
<g>
</g>
<g>
</g>
<g>
</g>
<g>
</g>
</g> 
<svg:g><svg:g><svg:title>SVG Image created as TFI2CEXT01-Edge_Cuts.svg date 2024/02/23 00:52:01 </svg:title>
  <svg:desc>Image generated by PCBNEW </svg:desc>
<svg:g style="fill:#C2C200; fill-opacity:1.0000;stroke:#C2C200; stroke-opacity:1.0000; stroke-linecap:round; stroke-linejoin:round;" transform="translate(0 0) scale(1 1)">
</svg:g>
<svg:g style="fill:#C2C200; fill-opacity:0.0;  stroke:#C2C200; stroke-width:0.0000; stroke-opacity:1;  stroke-linecap:round; stroke-linejoin:round;">
</svg:g>
<svg:g style="fill:#C2C200; fill-opacity:0.0;  stroke:#C2C200; stroke-width:1.7714; stroke-opacity:1;  stroke-linecap:round; stroke-linejoin:round;">
<svg:path d="M296.1154 16.4350 L0.8868 16.4350 "/>
<svg:path d="M0.8868 16.4350 L0.8868 193.5722 "/>
<svg:path d="M296.1154 16.4350 L296.1154 193.5722 "/>
<svg:path d="M296.1154 193.5722 L0.8868 193.5722 "/>
</svg:g>
<svg:g style="fill:#C2C200; fill-opacity:0.0;  stroke:#C2C200; stroke-width:0.5905; stroke-opacity:1;  stroke-linecap:round; stroke-linejoin:round;">
<svg:path d="M182.7476 31.7869 L182.7476 48.3197 "/>
<svg:path d="M186.2904 51.8624 L205.1850 51.8624 "/>
<svg:path d="M205.1850 28.2442 L186.2904 28.2442 "/>
<svg:path d="M208.7277 48.3197 L208.7277 31.7869 "/>
<svg:path d="M182.7476 48.3197 A3.5427 3.5427 0.0 0 0 186.2904 51.8624"/>
<svg:path d="M186.2904 28.2442 A3.5427 3.5427 0.0 0 0 182.7476 31.7869"/>
<svg:path d="M205.1850 51.8624 A3.5427 3.5427 0.0 0 0 208.7277 48.3197"/>
<svg:path d="M208.7277 31.7869 A3.5427 3.5427 0.0 0 0 205.1850 28.2442"/>
<svg:path d="M182.7476 161.6875 L182.7476 178.2203 "/>
<svg:path d="M186.2904 181.7630 L205.1850 181.7630 "/>
<svg:path d="M205.1850 158.1448 L186.2904 158.1448 "/>
<svg:path d="M208.7277 178.2203 L208.7277 161.6875 "/>
<svg:path d="M182.7476 178.2203 A3.5427 3.5427 0.0 0 0 186.2904 181.7630"/>
<svg:path d="M186.2904 158.1448 A3.5427 3.5427 0.0 0 0 182.7476 161.6875"/>
<svg:path d="M205.1850 181.7630 A3.5427 3.5427 0.0 0 0 208.7277 178.2203"/>
<svg:path d="M208.7277 161.6875 A3.5427 3.5427 0.0 0 0 205.1850 158.1448"/>
<svg:g>
</svg:g>
<svg:g>
</svg:g>
<svg:g>
</svg:g>
<svg:g>
</svg:g>
<svg:g>
</svg:g>
<svg:g>
</svg:g>
<svg:g>
</svg:g>
<svg:g>
</svg:g>
<svg:g>
</svg:g>
<svg:g>
</svg:g>
<svg:g>
</svg:g>
<svg:g>
</svg:g>
<svg:g>
</svg:g>
<svg:g>
</svg:g>
<svg:g>
</svg:g>
<svg:g>
</svg:g>
<svg:g>
</svg:g>
<svg:g>
</svg:g>
<svg:g>
</svg:g>
<svg:g>
</svg:g>
<svg:g>
</svg:g>
<svg:g>
</svg:g>
<svg:g>
</svg:g>
<svg:g>
</svg:g>
<svg:g>
</svg:g>
<svg:g>
</svg:g>
<svg:g>
</svg:g>
<svg:g>
</svg:g>
<svg:g>
</svg:g>
</svg:g> 
</svg:g></svg:g></svg>
