<?xml version='1.0' encoding='ASCII' standalone='yes'?>
<svg xmlns:svg="http://www.w3.org/2000/svg" xmlns="http://www.w3.org/2000/svg" xmlns:xlink="http://www.w3.org/1999/xlink" version="1.1" width="297.0022mm" height="210.0072mm" viewBox="0.0000 0.0000 297.0022 210.0072">
<title>SVG Image created as TFI2CEXT01-F_Fab.svg date 2024/02/23 00:52:01 </title>
  <desc>Image generated by PCBNEW </desc>
<g style="fill:#848484; fill-opacity:1.0000;stroke:#848484; stroke-opacity:1.0000; stroke-linecap:round; stroke-linejoin:round;" transform="translate(0 0) scale(1 1)">
</g>
<g style="fill:#848484; fill-opacity:0.0;  stroke:#848484; stroke-width:0.0000; stroke-opacity:1;  stroke-linecap:round; stroke-linejoin:round;">
</g>
<g style="fill:#848484; fill-opacity:0.0;  stroke:#848484; stroke-width:1.7714; stroke-opacity:1;  stroke-linecap:round; stroke-linejoin:round;">
<g transform="rotate(-90.000000 33.9524 105.0036)">
<text x="33.9524" y="110.9082" textLength="23.1965" font-size="15.7455" lengthAdjust="spacingAndGlyphs" text-anchor="middle" opacity="0">J2</text>
</g>
<g class="stroked-text"><desc>J2</desc>
<path d="M27.5143 108.9400 L35.9494 108.9400 "/>
<path d="M35.9494 108.9400 L37.6364 109.5023 "/>
<path d="M37.6364 109.5023 L38.7611 110.6270 "/>
<path d="M38.7611 110.6270 L39.3234 112.3140 "/>
<path d="M39.3234 112.3140 L39.3234 113.4387 "/>
<path d="M28.6389 103.8789 L28.0766 103.3166 "/>
<path d="M28.0766 103.3166 L27.5143 102.1919 "/>
<path d="M27.5143 102.1919 L27.5143 99.3802 "/>
<path d="M27.5143 99.3802 L28.0766 98.2555 "/>
<path d="M28.0766 98.2555 L28.6389 97.6932 "/>
<path d="M28.6389 97.6932 L29.7636 97.1308 "/>
<path d="M29.7636 97.1308 L30.8883 97.1308 "/>
<path d="M30.8883 97.1308 L32.5753 97.6932 "/>
<path d="M32.5753 97.6932 L39.3234 104.4413 "/>
<path d="M39.3234 104.4413 L39.3234 97.1308 "/>
</g><g transform="rotate(-90.000000 263.0498 105.0036)">
<text x="263.0498" y="110.9082" textLength="23.1965" font-size="15.7455" lengthAdjust="spacingAndGlyphs" text-anchor="middle" opacity="0">J4</text>
</g>
<g class="stroked-text"><desc>J4</desc>
<path d="M256.6117 108.9400 L265.0468 108.9400 "/>
<path d="M265.0468 108.9400 L266.7338 109.5023 "/>
<path d="M266.7338 109.5023 L267.8585 110.6270 "/>
<path d="M267.8585 110.6270 L268.4208 112.3140 "/>
<path d="M268.4208 112.3140 L268.4208 113.4387 "/>
<path d="M260.5481 98.2555 L268.4208 98.2555 "/>
<path d="M256.0493 101.0672 L264.4844 103.8789 "/>
<path d="M264.4844 103.8789 L264.4844 96.5685 "/>
</g><text x="77.2683" y="46.5578" transform="scale(-1 1) translate(-154.536670 0)" textLength="14.7614" font-size="15.7455" lengthAdjust="spacingAndGlyphs" text-anchor="middle" opacity="0">K</text>
<g class="stroked-text"><desc>K</desc>
<path d="M80.3612 46.0242 L80.3612 34.2151 "/>
<path d="M73.6131 46.0242 L78.6742 39.2762 "/>
<path d="M73.6131 34.2151 L80.3612 40.9632 "/>
</g><text x="77.2683" y="176.4584" transform="scale(-1 1) translate(-154.536670 0)" textLength="14.7614" font-size="15.7455" lengthAdjust="spacingAndGlyphs" text-anchor="middle" opacity="0">K</text>
<g class="stroked-text"><desc>K</desc>
<path d="M80.3612 175.9248 L80.3612 164.1157 "/>
<path d="M73.6131 175.9248 L78.6742 169.1768 "/>
<path d="M73.6131 164.1157 L80.3612 170.8638 "/>
</g></g>
<g style="fill:#848484; fill-opacity:0.0;  stroke:#848484; stroke-width:1.1809; stroke-opacity:1;  stroke-linecap:round; stroke-linejoin:round;">
<path d="M52.8470 56.2909 L5.0200 56.2909 "/>
<path d="M52.8470 56.2909 L52.8470 153.7163 "/>
<path d="M5.0200 56.2909 L5.0200 153.7163 "/>
<path d="M52.8470 76.9569 L44.4967 82.8615 "/>
<path d="M44.4967 82.8615 L52.8470 88.7660 "/>
<path d="M52.8470 153.7163 L5.0200 153.7163 "/>
<path d="M244.1552 153.7163 L291.9822 153.7163 "/>
<path d="M244.1552 153.7163 L244.1552 56.2909 "/>
<path d="M291.9822 153.7163 L291.9822 56.2909 "/>
<path d="M244.1552 133.0503 L252.5055 127.1457 "/>
<path d="M252.5055 127.1457 L244.1552 121.2412 "/>
<path d="M244.1552 56.2909 L291.9822 56.2909 "/>
<g>
</g>
<g>
</g>
<g>
</g>
<g>
</g>
<g>
</g>
<g>
</g>
<g>
</g>
<g>
</g>
<g>
</g>
<g>
</g>
<g>
</g>
<g>
</g>
<g>
</g>
<g>
</g>
<g>
</g>
<g>
</g>
<g>
</g>
<g>
</g>
<g>
</g>
<g>
</g>
<g>
</g>
<g>
</g>
<g>
</g>
<g>
</g>
<g>
</g>
<g>
</g>
<g>
</g>
<g>
</g>
<g>
</g>
</g> 
<svg:g><svg:g><svg:title>SVG Image created as TFI2CEXT01-Edge_Cuts.svg date 2024/02/23 00:52:01 </svg:title>
  <svg:desc>Image generated by PCBNEW </svg:desc>
<svg:g style="fill:#C2C200; fill-opacity:1.0000;stroke:#C2C200; stroke-opacity:1.0000; stroke-linecap:round; stroke-linejoin:round;" transform="translate(0 0) scale(1 1)">
</svg:g>
<svg:g style="fill:#C2C200; fill-opacity:0.0;  stroke:#C2C200; stroke-width:0.0000; stroke-opacity:1;  stroke-linecap:round; stroke-linejoin:round;">
</svg:g>
<svg:g style="fill:#C2C200; fill-opacity:0.0;  stroke:#C2C200; stroke-width:1.7714; stroke-opacity:1;  stroke-linecap:round; stroke-linejoin:round;">
<svg:path d="M0.8868 16.4350 L296.1154 16.4350 "/>
<svg:path d="M296.1154 16.4350 L296.1154 193.5722 "/>
<svg:path d="M0.8868 16.4350 L0.8868 193.5722 "/>
<svg:path d="M0.8868 193.5722 L296.1154 193.5722 "/>
</svg:g>
<svg:g style="fill:#C2C200; fill-opacity:0.0;  stroke:#C2C200; stroke-width:0.5905; stroke-opacity:1;  stroke-linecap:round; stroke-linejoin:round;">
<svg:path d="M114.2546 31.7869 L114.2546 48.3197 "/>
<svg:path d="M110.7118 51.8624 L91.8172 51.8624 "/>
<svg:path d="M91.8172 28.2442 L110.7118 28.2442 "/>
<svg:path d="M88.2745 48.3197 L88.2745 31.7869 "/>
<svg:path d="M110.7118 51.8624 A3.5427 3.5427 0.0 0 0 114.2546 48.3197"/>
<svg:path d="M114.2546 31.7869 A3.5427 3.5427 0.0 0 0 110.7118 28.2442"/>
<svg:path d="M88.2745 48.3197 A3.5427 3.5427 0.0 0 0 91.8172 51.8624"/>
<svg:path d="M91.8172 28.2442 A3.5427 3.5427 0.0 0 0 88.2745 31.7869"/>
<svg:path d="M114.2546 161.6875 L114.2546 178.2203 "/>
<svg:path d="M110.7118 181.7630 L91.8172 181.7630 "/>
<svg:path d="M91.8172 158.1448 L110.7118 158.1448 "/>
<svg:path d="M88.2745 178.2203 L88.2745 161.6875 "/>
<svg:path d="M110.7118 181.7630 A3.5427 3.5427 0.0 0 0 114.2546 178.2203"/>
<svg:path d="M114.2546 161.6875 A3.5427 3.5427 0.0 0 0 110.7118 158.1448"/>
<svg:path d="M88.2745 178.2203 A3.5427 3.5427 0.0 0 0 91.8172 181.7630"/>
<svg:path d="M91.8172 158.1448 A3.5427 3.5427 0.0 0 0 88.2745 161.6875"/>
<svg:g>
</svg:g>
<svg:g>
</svg:g>
<svg:g>
</svg:g>
<svg:g>
</svg:g>
<svg:g>
</svg:g>
<svg:g>
</svg:g>
<svg:g>
</svg:g>
<svg:g>
</svg:g>
<svg:g>
</svg:g>
<svg:g>
</svg:g>
<svg:g>
</svg:g>
<svg:g>
</svg:g>
<svg:g>
</svg:g>
<svg:g>
</svg:g>
<svg:g>
</svg:g>
<svg:g>
</svg:g>
<svg:g>
</svg:g>
<svg:g>
</svg:g>
<svg:g>
</svg:g>
<svg:g>
</svg:g>
<svg:g>
</svg:g>
<svg:g>
</svg:g>
<svg:g>
</svg:g>
<svg:g>
</svg:g>
<svg:g>
</svg:g>
<svg:g>
</svg:g>
<svg:g>
</svg:g>
<svg:g>
</svg:g>
<svg:g>
</svg:g>
</svg:g> 
</svg:g></svg:g></svg>
