M48
; DRILL file {KiCad 7.0.7-7.0.7~ubuntu23.04.1} date Wed Sep 27 16:22:00 2023
; FORMAT={3:3/ absolute / metric / suppress leading zeros}
; #@! TF.CreationDate,2023-09-27T16:22:00+00:00
; #@! TF.GenerationSoftware,Kicad,Pcbnew,7.0.7-7.0.7~ubuntu23.04.1
; #@! TF.FileFunction,Plated,1,2,PTH
FMAT,2
METRIC,TZ
; #@! TA.AperFunction,Plated,PTH,ViaDrill
T1C0.400
%
G90
G05
T1
X-125730Y150368
X-125730Y144526
X-125730Y142367
X-125730Y138938
X-125490Y146117
X-123825Y143764
X-123698Y138938
X-123571Y142621
X-122301Y138811
X-122174Y150749
X-122174Y149733
X-122174Y140716
X-122047Y148209
X-120523Y148209
X-120523Y141224
X-120393Y145031
X-120269Y146304
X-118519Y145415
X-118237Y142981
X-114457Y146600
X-113792Y148336
X-113538Y140589
X-113535Y143774
X-112395Y143764
X-111607Y145023
X-110871Y143764
X-110182Y146606
X-109728Y147536
X-108094Y143781
X-107696Y150495
X-107061Y140970
X-107061Y139573
X-107061Y138303
X-106426Y150495
X-106426Y147320
X-105791Y140970
X-105791Y139573
X-104947Y143826
X-103632Y149860
X-103632Y138938
X-102743Y146558
X-102743Y145542
X-102743Y144526
X-102743Y143510
X-102743Y142494
X-102616Y149860
X-102616Y138938
T0
M30
