%TF.GenerationSoftware,KiCad,Pcbnew,7.0.7-7.0.7~ubuntu23.04.1*%
%TF.CreationDate,2023-10-04T13:25:25+00:00*%
%TF.ProjectId,TFI2CEXT01,54464932-4345-4585-9430-312e6b696361,REV*%
%TF.SameCoordinates,PX78dfd90PY8290510*%
%TF.FileFunction,Soldermask,Bot*%
%TF.FilePolarity,Negative*%
%FSLAX46Y46*%
G04 Gerber Fmt 4.6, Leading zero omitted, Abs format (unit mm)*
G04 Created by KiCad (PCBNEW 7.0.7-7.0.7~ubuntu23.04.1) date 2023-10-04 13:25:25*
%MOMM*%
%LPD*%
G01*
G04 APERTURE LIST*
G04 Aperture macros list*
%AMRoundRect*
0 Rectangle with rounded corners*
0 $1 Rounding radius*
0 $2 $3 $4 $5 $6 $7 $8 $9 X,Y pos of 4 corners*
0 Add a 4 corners polygon primitive as box body*
4,1,4,$2,$3,$4,$5,$6,$7,$8,$9,$2,$3,0*
0 Add four circle primitives for the rounded corners*
1,1,$1+$1,$2,$3*
1,1,$1+$1,$4,$5*
1,1,$1+$1,$6,$7*
1,1,$1+$1,$8,$9*
0 Add four rect primitives between the rounded corners*
20,1,$1+$1,$2,$3,$4,$5,0*
20,1,$1+$1,$4,$5,$6,$7,0*
20,1,$1+$1,$6,$7,$8,$9,0*
20,1,$1+$1,$8,$9,$2,$3,0*%
G04 Aperture macros list end*
%ADD10C,3.000000*%
%ADD11RoundRect,0.400000X0.200000X0.275000X-0.200000X0.275000X-0.200000X-0.275000X0.200000X-0.275000X0*%
%ADD12RoundRect,0.200000X0.225000X0.725000X-0.225000X0.725000X-0.225000X-0.725000X0.225000X-0.725000X0*%
%ADD13RoundRect,0.366667X-0.458333X-0.583333X0.458333X-0.583333X0.458333X0.583333X-0.458333X0.583333X0*%
%ADD14RoundRect,0.366667X0.458333X0.583333X-0.458333X0.583333X-0.458333X-0.583333X0.458333X-0.583333X0*%
%ADD15RoundRect,0.400000X0.275000X-0.200000X0.275000X0.200000X-0.275000X0.200000X-0.275000X-0.200000X0*%
%ADD16RoundRect,0.200000X-0.350000X0.300000X-0.350000X-0.300000X0.350000X-0.300000X0.350000X0.300000X0*%
%ADD17RoundRect,0.350000X0.700000X-0.150000X0.700000X0.150000X-0.700000X0.150000X-0.700000X-0.150000X0*%
%ADD18RoundRect,0.450000X1.100000X-0.250000X1.100000X0.250000X-1.100000X0.250000X-1.100000X-0.250000X0*%
%ADD19RoundRect,0.350000X0.150000X-0.512500X0.150000X0.512500X-0.150000X0.512500X-0.150000X-0.512500X0*%
%ADD20RoundRect,0.400000X-0.275000X0.200000X-0.275000X-0.200000X0.275000X-0.200000X0.275000X0.200000X0*%
%ADD21RoundRect,0.350000X-0.700000X0.150000X-0.700000X-0.150000X0.700000X-0.150000X0.700000X0.150000X0*%
%ADD22RoundRect,0.450000X-1.100000X0.250000X-1.100000X-0.250000X1.100000X-0.250000X1.100000X0.250000X0*%
%ADD23RoundRect,0.450000X0.475000X-0.250000X0.475000X0.250000X-0.475000X0.250000X-0.475000X-0.250000X0*%
G04 APERTURE END LIST*
D10*
%TO.C,M3*%
X-124246000Y136906000D03*
%TD*%
%TO.C,M4*%
X-124246000Y151906000D03*
%TD*%
%TO.C,M5*%
X-104246000Y151906000D03*
%TD*%
%TO.C,M2*%
X-114246000Y151906000D03*
%TD*%
%TO.C,M6*%
X-104246000Y136906000D03*
%TD*%
%TO.C,M1*%
X-114246000Y136906000D03*
%TD*%
D11*
%TO.C,R4*%
X-113221000Y139446000D03*
X-114871000Y139446000D03*
%TD*%
D12*
%TO.C,U2*%
X-111039000Y142206000D03*
X-111689000Y142206000D03*
X-112339000Y142206000D03*
X-112989000Y142206000D03*
X-112989000Y146606000D03*
X-112339000Y146606000D03*
X-111689000Y146606000D03*
X-111039000Y146606000D03*
%TD*%
D13*
%TO.C,D1*%
X-120046000Y149906000D03*
D14*
X-116446000Y149906000D03*
%TD*%
D15*
%TO.C,C2*%
X-115570000Y141440500D03*
X-115570000Y143090500D03*
%TD*%
D16*
%TO.C,D2*%
X-119380000Y146301000D03*
X-119380000Y147701000D03*
%TD*%
D15*
%TO.C,R5*%
X-109474000Y138494000D03*
X-109474000Y140144000D03*
%TD*%
%TO.C,C3*%
X-115443000Y145580500D03*
X-115443000Y147230500D03*
%TD*%
D17*
%TO.C,J1*%
X-122096000Y142531000D03*
X-122096000Y143781000D03*
X-122096000Y145031000D03*
X-122096000Y146281000D03*
D18*
X-125296000Y140681000D03*
X-125296000Y148131000D03*
%TD*%
D19*
%TO.C,U1*%
X-117287000Y141864500D03*
X-118237000Y141864500D03*
X-119187000Y141864500D03*
X-119187000Y144139500D03*
X-117287000Y144139500D03*
%TD*%
D13*
%TO.C,D3*%
X-120046000Y138906000D03*
D14*
X-116446000Y138906000D03*
%TD*%
D11*
%TO.C,R1*%
X-113195500Y149606000D03*
X-114845500Y149606000D03*
%TD*%
D20*
%TO.C,R6*%
X-109474000Y150278500D03*
X-109474000Y148628500D03*
%TD*%
D15*
%TO.C,R2*%
X-111506000Y138494000D03*
X-111506000Y140144000D03*
%TD*%
D20*
%TO.C,R3*%
X-111506000Y150278500D03*
X-111506000Y148628500D03*
%TD*%
D21*
%TO.C,J3*%
X-106396000Y146281000D03*
X-106396000Y145031000D03*
X-106396000Y143781000D03*
X-106396000Y142531000D03*
D22*
X-103196000Y148131000D03*
X-103196000Y140681000D03*
%TD*%
D23*
%TO.C,C1*%
X-117221000Y145798500D03*
X-117221000Y147698500D03*
%TD*%
D15*
%TO.C,C4*%
X-109093000Y145479000D03*
X-109093000Y147129000D03*
%TD*%
M02*
