%TF.GenerationSoftware,KiCad,Pcbnew,8.0.3+1*%
%TF.CreationDate,2024-07-17T01:00:37+00:00*%
%TF.ProjectId,TFI2CEXT01,54464932-4345-4585-9430-312e6b696361,REV*%
%TF.SameCoordinates,PX78dfd90PY8290510*%
%TF.FileFunction,Copper,L2,Bot*%
%TF.FilePolarity,Positive*%
%FSLAX46Y46*%
G04 Gerber Fmt 4.6, Leading zero omitted, Abs format (unit mm)*
G04 Created by KiCad (PCBNEW 8.0.3+1) date 2024-07-17 01:00:37*
%MOMM*%
%LPD*%
G01*
G04 APERTURE LIST*
G04 Aperture macros list*
%AMRoundRect*
0 Rectangle with rounded corners*
0 $1 Rounding radius*
0 $2 $3 $4 $5 $6 $7 $8 $9 X,Y pos of 4 corners*
0 Add a 4 corners polygon primitive as box body*
4,1,4,$2,$3,$4,$5,$6,$7,$8,$9,$2,$3,0*
0 Add four circle primitives for the rounded corners*
1,1,$1+$1,$2,$3*
1,1,$1+$1,$4,$5*
1,1,$1+$1,$6,$7*
1,1,$1+$1,$8,$9*
0 Add four rect primitives between the rounded corners*
20,1,$1+$1,$2,$3,$4,$5,0*
20,1,$1+$1,$4,$5,$6,$7,0*
20,1,$1+$1,$6,$7,$8,$9,0*
20,1,$1+$1,$8,$9,$2,$3,0*%
G04 Aperture macros list end*
%TA.AperFunction,SMDPad,CuDef*%
%ADD10RoundRect,0.200000X0.200000X0.275000X-0.200000X0.275000X-0.200000X-0.275000X0.200000X-0.275000X0*%
%TD*%
%TA.AperFunction,SMDPad,CuDef*%
%ADD11R,0.450000X1.450000*%
%TD*%
%TA.AperFunction,SMDPad,CuDef*%
%ADD12RoundRect,0.166667X-0.458333X-0.583333X0.458333X-0.583333X0.458333X0.583333X-0.458333X0.583333X0*%
%TD*%
%TA.AperFunction,SMDPad,CuDef*%
%ADD13RoundRect,0.166667X0.458333X0.583333X-0.458333X0.583333X-0.458333X-0.583333X0.458333X-0.583333X0*%
%TD*%
%TA.AperFunction,SMDPad,CuDef*%
%ADD14RoundRect,0.200000X0.275000X-0.200000X0.275000X0.200000X-0.275000X0.200000X-0.275000X-0.200000X0*%
%TD*%
%TA.AperFunction,SMDPad,CuDef*%
%ADD15R,0.700000X0.600000*%
%TD*%
%TA.AperFunction,SMDPad,CuDef*%
%ADD16RoundRect,0.150000X0.700000X-0.150000X0.700000X0.150000X-0.700000X0.150000X-0.700000X-0.150000X0*%
%TD*%
%TA.AperFunction,SMDPad,CuDef*%
%ADD17RoundRect,0.250000X1.100000X-0.250000X1.100000X0.250000X-1.100000X0.250000X-1.100000X-0.250000X0*%
%TD*%
%TA.AperFunction,SMDPad,CuDef*%
%ADD18RoundRect,0.150000X0.150000X-0.512500X0.150000X0.512500X-0.150000X0.512500X-0.150000X-0.512500X0*%
%TD*%
%TA.AperFunction,SMDPad,CuDef*%
%ADD19RoundRect,0.200000X-0.275000X0.200000X-0.275000X-0.200000X0.275000X-0.200000X0.275000X0.200000X0*%
%TD*%
%TA.AperFunction,SMDPad,CuDef*%
%ADD20RoundRect,0.150000X-0.700000X0.150000X-0.700000X-0.150000X0.700000X-0.150000X0.700000X0.150000X0*%
%TD*%
%TA.AperFunction,SMDPad,CuDef*%
%ADD21RoundRect,0.250000X-1.100000X0.250000X-1.100000X-0.250000X1.100000X-0.250000X1.100000X0.250000X0*%
%TD*%
%TA.AperFunction,SMDPad,CuDef*%
%ADD22RoundRect,0.250000X0.475000X-0.250000X0.475000X0.250000X-0.475000X0.250000X-0.475000X-0.250000X0*%
%TD*%
%TA.AperFunction,ViaPad*%
%ADD23C,0.800000*%
%TD*%
%TA.AperFunction,Conductor*%
%ADD24C,0.400000*%
%TD*%
%TA.AperFunction,Conductor*%
%ADD25C,0.250000*%
%TD*%
G04 APERTURE END LIST*
D10*
%TO.P,R4,1*%
%TO.N,+3V3*%
X-113221000Y139446000D03*
%TO.P,R4,2*%
%TO.N,Net-(D3-A)*%
X-114871000Y139446000D03*
%TD*%
D11*
%TO.P,U2,1,EN*%
%TO.N,+3V3*%
X-111039000Y142206000D03*
%TO.P,U2,2,SCLout*%
%TO.N,/SCLout*%
X-111689000Y142206000D03*
%TO.P,U2,3,SCLin*%
%TO.N,/SCLin*%
X-112339000Y142206000D03*
%TO.P,U2,4,GND*%
%TO.N,GND*%
X-112989000Y142206000D03*
%TO.P,U2,5,READY*%
%TO.N,Net-(D3-A)*%
X-112989000Y146606000D03*
%TO.P,U2,6,SDAin*%
%TO.N,/SDAin*%
X-112339000Y146606000D03*
%TO.P,U2,7,SDAout*%
%TO.N,/SDAout*%
X-111689000Y146606000D03*
%TO.P,U2,8,VCC*%
%TO.N,+3V3*%
X-111039000Y146606000D03*
%TD*%
D12*
%TO.P,D1,1,K*%
%TO.N,GND*%
X-120046000Y149906000D03*
D13*
%TO.P,D1,2,A*%
%TO.N,Net-(D1-A)*%
X-116446000Y149906000D03*
%TD*%
D14*
%TO.P,C2,1*%
%TO.N,+5V*%
X-115570000Y141440500D03*
%TO.P,C2,2*%
%TO.N,GND*%
X-115570000Y143090500D03*
%TD*%
D15*
%TO.P,D2,1,K*%
%TO.N,+5V*%
X-119380000Y146301000D03*
%TO.P,D2,2,A*%
%TO.N,GND*%
X-119380000Y147701000D03*
%TD*%
D14*
%TO.P,R5,1*%
%TO.N,+3V3*%
X-109474000Y138494000D03*
%TO.P,R5,2*%
%TO.N,/SCLout*%
X-109474000Y140144000D03*
%TD*%
%TO.P,C3,1*%
%TO.N,+3V3*%
X-115443000Y145580500D03*
%TO.P,C3,2*%
%TO.N,GND*%
X-115443000Y147230500D03*
%TD*%
D16*
%TO.P,J1,1*%
%TO.N,+5V*%
X-122096000Y142531000D03*
%TO.P,J1,2*%
%TO.N,/SCLin*%
X-122096000Y143781000D03*
%TO.P,J1,3*%
%TO.N,/SDAin*%
X-122096000Y145031000D03*
%TO.P,J1,4*%
%TO.N,GND*%
X-122096000Y146281000D03*
D17*
%TO.P,J1,MP*%
X-125296000Y140681000D03*
X-125296000Y148131000D03*
%TD*%
D18*
%TO.P,U1,1,VIN*%
%TO.N,+5V*%
X-117287000Y141864500D03*
%TO.P,U1,2,GND*%
%TO.N,GND*%
X-118237000Y141864500D03*
%TO.P,U1,3,EN*%
%TO.N,+5V*%
X-119187000Y141864500D03*
%TO.P,U1,4,NC*%
%TO.N,unconnected-(U1-NC-Pad4)*%
X-119187000Y144139500D03*
%TO.P,U1,5,VOUT*%
%TO.N,+3V3*%
X-117287000Y144139500D03*
%TD*%
D12*
%TO.P,D3,1,K*%
%TO.N,GND*%
X-120046000Y138906000D03*
D13*
%TO.P,D3,2,A*%
%TO.N,Net-(D3-A)*%
X-116446000Y138906000D03*
%TD*%
D10*
%TO.P,R1,1*%
%TO.N,+5V*%
X-113195500Y149606000D03*
%TO.P,R1,2*%
%TO.N,Net-(D1-A)*%
X-114845500Y149606000D03*
%TD*%
D19*
%TO.P,R6,1*%
%TO.N,+3V3*%
X-109474000Y150278500D03*
%TO.P,R6,2*%
%TO.N,/SDAout*%
X-109474000Y148628500D03*
%TD*%
D14*
%TO.P,R2,1*%
%TO.N,+3V3*%
X-111506000Y138494000D03*
%TO.P,R2,2*%
%TO.N,/SCLin*%
X-111506000Y140144000D03*
%TD*%
D19*
%TO.P,R3,1*%
%TO.N,+3V3*%
X-111506000Y150278500D03*
%TO.P,R3,2*%
%TO.N,/SDAin*%
X-111506000Y148628500D03*
%TD*%
D20*
%TO.P,J3,1*%
%TO.N,+5V*%
X-106396000Y146281000D03*
%TO.P,J3,2*%
%TO.N,/SCLout*%
X-106396000Y145031000D03*
%TO.P,J3,3*%
%TO.N,/SDAout*%
X-106396000Y143781000D03*
%TO.P,J3,4*%
%TO.N,GND*%
X-106396000Y142531000D03*
D21*
%TO.P,J3,MP*%
X-103196000Y148131000D03*
X-103196000Y140681000D03*
%TD*%
D22*
%TO.P,C1,1*%
%TO.N,+5V*%
X-117221000Y145798500D03*
%TO.P,C1,2*%
%TO.N,GND*%
X-117221000Y147698500D03*
%TD*%
D14*
%TO.P,C4,1*%
%TO.N,+3V3*%
X-109093000Y145479000D03*
%TO.P,C4,2*%
%TO.N,GND*%
X-109093000Y147129000D03*
%TD*%
D23*
%TO.N,GND*%
X-103632000Y138938000D03*
X-123698000Y138938000D03*
X-103632000Y149860000D03*
X-105791000Y139573000D03*
X-122174000Y150749000D03*
X-122301000Y138811000D03*
X-120523000Y141224000D03*
X-109728000Y147536500D03*
X-122047000Y148209000D03*
X-102743000Y143510000D03*
X-107061000Y140970000D03*
X-120523000Y148209000D03*
X-102743000Y146558000D03*
X-118519002Y145415000D03*
X-125730000Y138938000D03*
X-122174000Y149733000D03*
X-107061000Y138303000D03*
X-122174000Y140716000D03*
X-125730000Y150368000D03*
X-102743000Y142494000D03*
X-105791000Y140970000D03*
X-102616000Y149860000D03*
X-102616000Y138938000D03*
X-125730000Y144526000D03*
X-107061000Y139573000D03*
X-106426000Y150495000D03*
X-107696000Y150495000D03*
X-125489629Y146116907D03*
X-125730000Y142367000D03*
X-102743000Y145542000D03*
X-113538000Y140589000D03*
X-118237000Y142981500D03*
X-102743000Y144526000D03*
%TO.N,+3V3*%
X-110182500Y146606000D03*
X-114457125Y146600000D03*
%TO.N,+5V*%
X-120269000Y146304000D03*
X-113792000Y148336000D03*
X-106426000Y147320000D03*
X-123571000Y142621000D03*
%TO.N,/SDAin*%
X-123825000Y143764000D03*
X-113535443Y143773778D03*
%TO.N,/SCLin*%
X-120393000Y145031000D03*
X-112395000Y143764000D03*
%TO.N,/SCLout*%
X-110871000Y143764000D03*
X-108094000Y143781000D03*
%TO.N,/SDAout*%
X-111606961Y145022566D03*
X-104946500Y143825798D03*
%TD*%
D24*
%TO.N,GND*%
X-118319011Y145215009D02*
X-118519002Y145415000D01*
X-109283000Y147091500D02*
X-109728000Y147536500D01*
X-117221000Y147701000D02*
X-116165511Y148756489D01*
X-109093000Y147091500D02*
X-109283000Y147091500D01*
X-112989000Y142206000D02*
X-112989000Y141138000D01*
X-118237000Y142981500D02*
X-118319011Y143063511D01*
X-115443000Y148756489D02*
X-115443000Y147193000D01*
X-121031000Y140716000D02*
X-120523000Y141224000D01*
X-118319011Y143063511D02*
X-118319011Y145215009D01*
X-119380000Y147701000D02*
X-117221000Y147701000D01*
X-125730000Y144526000D02*
X-125730000Y142367000D01*
X-118237000Y141864500D02*
X-118237000Y142981500D01*
X-125296000Y146310536D02*
X-125489629Y146116907D01*
X-112989000Y141138000D02*
X-113538000Y140589000D01*
X-122174000Y140716000D02*
X-121031000Y140716000D01*
X-125296000Y148131000D02*
X-125296000Y146310536D01*
X-116165511Y148756489D02*
X-115443000Y148756489D01*
%TO.N,+3V3*%
X-117175000Y144575000D02*
X-116325000Y144575000D01*
X-108599480Y141124480D02*
X-109093000Y141618000D01*
X-115443000Y145618000D02*
X-114465600Y146595400D01*
X-109918000Y141618000D02*
X-109093000Y141618000D01*
X-113258500Y139446000D02*
X-112420500Y139446000D01*
X-117287000Y144139500D02*
X-117287000Y144463000D01*
X-109093000Y141618000D02*
X-109093000Y143256000D01*
X-111506000Y138531500D02*
X-109474000Y138531500D01*
X-115443000Y145618000D02*
X-115443000Y145457000D01*
X-110506000Y142206000D02*
X-109918000Y141618000D01*
X-111039000Y146606000D02*
X-110182500Y146606000D01*
X-111039000Y142206000D02*
X-110506000Y142206000D01*
X-115443000Y145457000D02*
X-116325000Y144575000D01*
X-114465600Y146595400D02*
X-114457125Y146595400D01*
X-110617000Y150241000D02*
X-109474000Y150241000D01*
X-117287000Y143758500D02*
X-117287000Y143788000D01*
X-110182500Y146606000D02*
X-109093000Y145516500D01*
X-109474000Y138531500D02*
X-108599480Y139406020D01*
X-117287000Y144463000D02*
X-117175000Y144575000D01*
X-108218480Y146391020D02*
X-108218480Y148985480D01*
X-109093000Y143256000D02*
X-109093000Y145516500D01*
X-108599480Y139406020D02*
X-108599480Y141124480D01*
X-109093000Y145516500D02*
X-108218480Y146391020D01*
X-111506000Y150241000D02*
X-109474000Y150241000D01*
X-108218480Y148985480D02*
X-109474000Y150241000D01*
X-112420500Y139446000D02*
X-111506000Y138531500D01*
%TO.N,+5V*%
X-115956500Y141864500D02*
X-115570000Y141478000D01*
X-117686520Y140802480D02*
X-117287000Y141202000D01*
X-123481000Y142531000D02*
X-123571000Y142621000D01*
X-117287000Y141864500D02*
X-115956500Y141864500D01*
X-106426000Y147320000D02*
X-106426000Y146311000D01*
X-117287000Y141202000D02*
X-117287000Y141864500D01*
X-119380000Y146301000D02*
X-120266000Y146301000D01*
X-113792000Y148336000D02*
X-113792000Y149047000D01*
X-122096000Y142531000D02*
X-123481000Y142531000D01*
X-120266000Y146301000D02*
X-120269000Y146304000D01*
X-119187000Y141864500D02*
X-119187000Y141202000D01*
X-113792000Y149047000D02*
X-113233000Y149606000D01*
X-117726000Y146301000D02*
X-117221000Y145796000D01*
X-119380000Y146301000D02*
X-117726000Y146301000D01*
X-119853500Y142531000D02*
X-119187000Y141864500D01*
X-122096000Y142531000D02*
X-122081480Y142545520D01*
X-119187000Y141202000D02*
X-118787480Y140802480D01*
X-106426000Y146311000D02*
X-106396000Y146281000D01*
X-118787480Y140802480D02*
X-117686520Y140802480D01*
X-122096000Y142531000D02*
X-119853500Y142531000D01*
%TO.N,Net-(D1-A)*%
X-114808000Y149606000D02*
X-115871000Y149606000D01*
X-115871000Y149606000D02*
X-116171000Y149906000D01*
D25*
%TO.N,Net-(D3-A)*%
X-115906000Y139446000D02*
X-116446000Y138906000D01*
D24*
X-114427000Y139852500D02*
X-114833500Y139446000D01*
X-114427000Y144668000D02*
X-114427000Y139852500D01*
X-114833500Y139446000D02*
X-115631000Y139446000D01*
X-112989000Y146106000D02*
X-114427000Y144668000D01*
D25*
X-114871000Y139446000D02*
X-115906000Y139446000D01*
D24*
X-115631000Y139446000D02*
X-116171000Y138906000D01*
X-112989000Y146606000D02*
X-112989000Y146106000D01*
%TO.N,/SDAin*%
X-122096000Y145031000D02*
X-123447000Y145031000D01*
X-112406472Y144902749D02*
X-112406472Y145406332D01*
X-123825000Y144653000D02*
X-123825000Y143764000D01*
X-111506000Y148666000D02*
X-112339000Y147833000D01*
X-112339000Y147833000D02*
X-112339000Y146606000D01*
X-113535443Y143773778D02*
X-112406472Y144902749D01*
X-112339000Y145473804D02*
X-112339000Y146606000D01*
X-112406472Y145406332D02*
X-112339000Y145473804D01*
X-123447000Y145031000D02*
X-123825000Y144653000D01*
%TO.N,/SCLin*%
X-120633000Y143781000D02*
X-120393000Y144021000D01*
X-112339000Y143708000D02*
X-112339000Y142206000D01*
X-112395000Y143764000D02*
X-112339000Y143708000D01*
X-112339000Y142206000D02*
X-112339000Y140939500D01*
X-112339000Y140939500D02*
X-111506000Y140106500D01*
X-122096000Y143781000D02*
X-120633000Y143781000D01*
X-120393000Y144021000D02*
X-120393000Y145031000D01*
%TO.N,/SCLout*%
X-111689000Y141186880D02*
X-111445640Y140943520D01*
X-110311020Y140943520D02*
X-109474000Y140106500D01*
X-111689000Y142206000D02*
X-111689000Y141186880D01*
X-108094000Y144356000D02*
X-108094000Y143781000D01*
X-111689000Y143225120D02*
X-111689000Y142206000D01*
X-111445640Y140943520D02*
X-110311020Y140943520D01*
X-110871000Y143764000D02*
X-111150120Y143764000D01*
X-111150120Y143764000D02*
X-111689000Y143225120D01*
X-106396000Y145031000D02*
X-107419000Y145031000D01*
X-107419000Y145031000D02*
X-108094000Y144356000D01*
%TO.N,/SDAout*%
X-111606961Y145022566D02*
X-111689000Y145104605D01*
X-104946500Y143825798D02*
X-104991298Y143781000D01*
X-111689000Y145104605D02*
X-111689000Y146606000D01*
X-104991298Y143781000D02*
X-106396000Y143781000D01*
X-111689000Y146606000D02*
X-111689000Y147518000D01*
X-111378020Y147828980D02*
X-110986584Y147828980D01*
X-111689000Y147518000D02*
X-111378020Y147828980D01*
X-110149564Y148666000D02*
X-109474000Y148666000D01*
X-110986584Y147828980D02*
X-110149564Y148666000D01*
%TD*%
%TA.AperFunction,Conductor*%
%TO.N,GND*%
G36*
X-119481945Y151383826D02*
G01*
X-119460271Y151331500D01*
X-119481945Y151279174D01*
X-119493159Y151269971D01*
X-119556289Y151227789D01*
X-119598404Y151185674D01*
X-119650730Y151164000D01*
X-119792000Y151164000D01*
X-119792000Y150911522D01*
X-119797633Y150883205D01*
X-119815737Y150839497D01*
X-119815739Y150839491D01*
X-119836339Y150735925D01*
X-119840134Y150716843D01*
X-119846500Y150684840D01*
X-119846500Y149127159D01*
X-119815739Y148972508D01*
X-119815736Y148972498D01*
X-119797633Y148928795D01*
X-119792000Y148900477D01*
X-119792000Y148647999D01*
X-119774559Y148630558D01*
X-119752886Y148578232D01*
X-119774561Y148525906D01*
X-119818978Y148504657D01*
X-119839093Y148502495D01*
X-119839099Y148502493D01*
X-119975961Y148451447D01*
X-119975962Y148451446D01*
X-120092904Y148363903D01*
X-120180447Y148246961D01*
X-120180448Y148246960D01*
X-120231494Y148110098D01*
X-120231495Y148110093D01*
X-120238000Y148049590D01*
X-120238000Y147955000D01*
X-118494315Y147955000D01*
X-118489250Y147957098D01*
X-118478149Y147952500D01*
X-117041000Y147952500D01*
X-116988674Y147930826D01*
X-116967000Y147878500D01*
X-116967000Y146690500D01*
X-116695496Y146690500D01*
X-116591675Y146701106D01*
X-116443213Y146750302D01*
X-116386725Y146746187D01*
X-116356608Y146718341D01*
X-116279419Y146590655D01*
X-116157845Y146469081D01*
X-116010701Y146380130D01*
X-115846563Y146328983D01*
X-115846553Y146328981D01*
X-115783192Y146323223D01*
X-115733043Y146296902D01*
X-115716194Y146242829D01*
X-115742515Y146192680D01*
X-115778314Y146176438D01*
X-115843304Y146166146D01*
X-115843306Y146166145D01*
X-115843307Y146166145D01*
X-115884595Y146145107D01*
X-115956342Y146108550D01*
X-116046050Y146018842D01*
X-116103646Y145905804D01*
X-116103647Y145905802D01*
X-116103647Y145905801D01*
X-116118500Y145812019D01*
X-116118500Y145378545D01*
X-116140174Y145326219D01*
X-116243447Y145222946D01*
X-116295773Y145201272D01*
X-116348099Y145222946D01*
X-116369773Y145275272D01*
X-116355313Y145319215D01*
X-116350144Y145326219D01*
X-116343207Y145335618D01*
X-116302886Y145450848D01*
X-116298356Y145463795D01*
X-116298354Y145463801D01*
X-116295500Y145494234D01*
X-116295500Y146102766D01*
X-116298354Y146133199D01*
X-116343207Y146261382D01*
X-116423850Y146370650D01*
X-116533118Y146451293D01*
X-116661301Y146496146D01*
X-116691734Y146499000D01*
X-116691740Y146499000D01*
X-117326955Y146499000D01*
X-117379281Y146520674D01*
X-117415520Y146556913D01*
X-117459729Y146601121D01*
X-117481402Y146653446D01*
X-117475000Y146668901D01*
X-117475000Y147444500D01*
X-118481685Y147444500D01*
X-118486750Y147442402D01*
X-118497851Y147447000D01*
X-120238000Y147447000D01*
X-120238000Y147352409D01*
X-120231495Y147291906D01*
X-120231494Y147291901D01*
X-120180448Y147155039D01*
X-120180447Y147155038D01*
X-120092904Y147038095D01*
X-120092902Y147038093D01*
X-120073646Y147023678D01*
X-120044748Y146974969D01*
X-120058757Y146920091D01*
X-120107466Y146891193D01*
X-120127651Y146891073D01*
X-120269000Y146909682D01*
X-120425762Y146889044D01*
X-120571841Y146828536D01*
X-120571842Y146828535D01*
X-120697280Y146732284D01*
X-120700479Y146729085D01*
X-120752805Y146707411D01*
X-120805131Y146729085D01*
X-120816500Y146743743D01*
X-120871945Y146837496D01*
X-120871945Y146837497D01*
X-120989502Y146955054D01*
X-121132599Y147039681D01*
X-121292246Y147086064D01*
X-121329544Y147088999D01*
X-121842000Y147088999D01*
X-121842000Y146101000D01*
X-121863674Y146048674D01*
X-121916000Y146027000D01*
X-123450993Y146027000D01*
X-123404682Y145867598D01*
X-123320055Y145724501D01*
X-123202499Y145606945D01*
X-123138665Y145569195D01*
X-123104659Y145523903D01*
X-123112639Y145467831D01*
X-123157931Y145433825D01*
X-123176334Y145431500D01*
X-123389727Y145431500D01*
X-123389743Y145431501D01*
X-123394273Y145431501D01*
X-123499727Y145431501D01*
X-123499729Y145431501D01*
X-123601334Y145404275D01*
X-123601341Y145404273D01*
X-123601587Y145404207D01*
X-123692913Y145351480D01*
X-123767480Y145276913D01*
X-123767482Y145276911D01*
X-124145480Y144898913D01*
X-124145482Y144898910D01*
X-124145483Y144898909D01*
X-124198205Y144807592D01*
X-124198209Y144807583D01*
X-124205705Y144779608D01*
X-124205704Y144779608D01*
X-124212728Y144753394D01*
X-124221749Y144719724D01*
X-124225500Y144705726D01*
X-124225500Y144250092D01*
X-124247174Y144197766D01*
X-124252239Y144193324D01*
X-124253286Y144192278D01*
X-124349536Y144066841D01*
X-124410045Y143920761D01*
X-124410045Y143920760D01*
X-124430682Y143764000D01*
X-124410045Y143607239D01*
X-124410045Y143607238D01*
X-124349536Y143461158D01*
X-124253285Y143335720D01*
X-124253280Y143335715D01*
X-124127842Y143239464D01*
X-124001806Y143187258D01*
X-123961758Y143147209D01*
X-123961758Y143090572D01*
X-123985076Y143060184D01*
X-123999278Y143049286D01*
X-123999285Y143049279D01*
X-124095536Y142923841D01*
X-124156045Y142777761D01*
X-124156045Y142777760D01*
X-124176682Y142621000D01*
X-124156045Y142464239D01*
X-124156045Y142464238D01*
X-124095536Y142318158D01*
X-123999285Y142192720D01*
X-123999280Y142192715D01*
X-123873842Y142096464D01*
X-123727762Y142035955D01*
X-123571000Y142015318D01*
X-123414240Y142035955D01*
X-123414239Y142035955D01*
X-123268159Y142096464D01*
X-123243731Y142115208D01*
X-123198683Y142130500D01*
X-123071833Y142130500D01*
X-123019507Y142108826D01*
X-123002483Y142091801D01*
X-122897395Y142040427D01*
X-122829265Y142030500D01*
X-122829260Y142030500D01*
X-121362736Y142030500D01*
X-121294607Y142040427D01*
X-121294606Y142040427D01*
X-121189518Y142091801D01*
X-121172493Y142108826D01*
X-121120167Y142130500D01*
X-120050045Y142130500D01*
X-119997719Y142108826D01*
X-119709174Y141820281D01*
X-119687500Y141767955D01*
X-119687500Y141318735D01*
X-119677573Y141250606D01*
X-119677573Y141250605D01*
X-119626199Y141145517D01*
X-119626196Y141145513D01*
X-119585983Y141105300D01*
X-119566831Y141072130D01*
X-119560208Y141047412D01*
X-119560207Y141047410D01*
X-119507482Y140956088D01*
X-119083487Y140532093D01*
X-119061813Y140479767D01*
X-119083487Y140427441D01*
X-119121376Y140407189D01*
X-119124840Y140406500D01*
X-119124842Y140406500D01*
X-119279497Y140375737D01*
X-119279502Y140375735D01*
X-119425175Y140315396D01*
X-119425177Y140315395D01*
X-119425179Y140315394D01*
X-119542086Y140237279D01*
X-119556289Y140227789D01*
X-119598404Y140185674D01*
X-119650730Y140164000D01*
X-119792000Y140164000D01*
X-119792000Y139911522D01*
X-119797633Y139883205D01*
X-119815737Y139839497D01*
X-119815739Y139839491D01*
X-119830261Y139766480D01*
X-119842359Y139705657D01*
X-119846500Y139684840D01*
X-119846500Y138127159D01*
X-119815739Y137972508D01*
X-119815736Y137972498D01*
X-119797633Y137928795D01*
X-119792000Y137900477D01*
X-119792000Y137648000D01*
X-119650730Y137648000D01*
X-119598404Y137626326D01*
X-119556290Y137584212D01*
X-119556289Y137584210D01*
X-119493159Y137542029D01*
X-119461693Y137494937D01*
X-119472742Y137439388D01*
X-119519834Y137407922D01*
X-119534271Y137406500D01*
X-126171500Y137406500D01*
X-126223826Y137428174D01*
X-126245500Y137480500D01*
X-126245500Y138268130D01*
X-121179000Y138268130D01*
X-121172824Y138200167D01*
X-121172822Y138200157D01*
X-121124083Y138043746D01*
X-121039320Y137903530D01*
X-120923470Y137787680D01*
X-120783254Y137702917D01*
X-120626843Y137654178D01*
X-120626833Y137654176D01*
X-120558870Y137648000D01*
X-120300000Y137648000D01*
X-120300000Y138652000D01*
X-121179000Y138652000D01*
X-121179000Y138268130D01*
X-126245500Y138268130D01*
X-126245500Y139543869D01*
X-121179000Y139543869D01*
X-121179000Y139160000D01*
X-120300000Y139160000D01*
X-120300000Y140164000D01*
X-120558860Y140164000D01*
X-120558870Y140163999D01*
X-120626833Y140157823D01*
X-120626843Y140157821D01*
X-120783254Y140109082D01*
X-120923470Y140024319D01*
X-121039320Y139908469D01*
X-121124083Y139768253D01*
X-121172822Y139611842D01*
X-121172824Y139611832D01*
X-121179000Y139543869D01*
X-126245500Y139543869D01*
X-126245500Y139599000D01*
X-126223826Y139651326D01*
X-126171500Y139673000D01*
X-125550000Y139673000D01*
X-125042000Y139673000D01*
X-124145496Y139673000D01*
X-124041675Y139683606D01*
X-123873476Y139739342D01*
X-123722662Y139832365D01*
X-123722658Y139832368D01*
X-123597368Y139957658D01*
X-123597366Y139957661D01*
X-123504343Y140108475D01*
X-123448607Y140276674D01*
X-123438001Y140380495D01*
X-123438000Y140380497D01*
X-123438000Y140427000D01*
X-125042000Y140427000D01*
X-125042000Y139673000D01*
X-125550000Y139673000D01*
X-125550000Y140935000D01*
X-125042000Y140935000D01*
X-123438000Y140935000D01*
X-123438000Y140981502D01*
X-123438001Y140981504D01*
X-123448607Y141085325D01*
X-123504343Y141253524D01*
X-123597366Y141404338D01*
X-123597368Y141404342D01*
X-123722658Y141529632D01*
X-123722662Y141529634D01*
X-123873476Y141622657D01*
X-124041675Y141678393D01*
X-124145496Y141688999D01*
X-124145498Y141689000D01*
X-125042000Y141689000D01*
X-125042000Y140935000D01*
X-125550000Y140935000D01*
X-125550000Y141689000D01*
X-126171500Y141689000D01*
X-126223826Y141710674D01*
X-126245500Y141763000D01*
X-126245500Y146535000D01*
X-123450993Y146535000D01*
X-122350000Y146535000D01*
X-122350000Y147088999D01*
X-122862455Y147088999D01*
X-122862457Y147088998D01*
X-122899753Y147086064D01*
X-123059402Y147039681D01*
X-123202499Y146955054D01*
X-123320055Y146837498D01*
X-123404682Y146694401D01*
X-123450993Y146535000D01*
X-126245500Y146535000D01*
X-126245500Y147049000D01*
X-126223826Y147101326D01*
X-126171500Y147123000D01*
X-125550000Y147123000D01*
X-125042000Y147123000D01*
X-124145496Y147123000D01*
X-124041675Y147133606D01*
X-123873476Y147189342D01*
X-123722662Y147282365D01*
X-123722658Y147282368D01*
X-123597368Y147407658D01*
X-123597366Y147407661D01*
X-123504343Y147558475D01*
X-123448607Y147726674D01*
X-123438001Y147830495D01*
X-123438000Y147830497D01*
X-123438000Y147877000D01*
X-125042000Y147877000D01*
X-125042000Y147123000D01*
X-125550000Y147123000D01*
X-125550000Y148385000D01*
X-125042000Y148385000D01*
X-123438000Y148385000D01*
X-123438000Y148431502D01*
X-123438001Y148431504D01*
X-123448607Y148535325D01*
X-123504343Y148703524D01*
X-123597366Y148854338D01*
X-123597368Y148854342D01*
X-123722658Y148979632D01*
X-123722662Y148979634D01*
X-123873476Y149072657D01*
X-124041675Y149128393D01*
X-124145496Y149138999D01*
X-124145498Y149139000D01*
X-125042000Y149139000D01*
X-125042000Y148385000D01*
X-125550000Y148385000D01*
X-125550000Y149139000D01*
X-126171500Y149139000D01*
X-126223826Y149160674D01*
X-126245500Y149213000D01*
X-126245500Y149268130D01*
X-121179000Y149268130D01*
X-121172824Y149200167D01*
X-121172822Y149200157D01*
X-121124083Y149043746D01*
X-121039320Y148903530D01*
X-120923470Y148787680D01*
X-120783254Y148702917D01*
X-120626843Y148654178D01*
X-120626833Y148654176D01*
X-120558870Y148648000D01*
X-120300000Y148648000D01*
X-120300000Y149652000D01*
X-121179000Y149652000D01*
X-121179000Y149268130D01*
X-126245500Y149268130D01*
X-126245500Y150543869D01*
X-121179000Y150543869D01*
X-121179000Y150160000D01*
X-120300000Y150160000D01*
X-120300000Y151164000D01*
X-120558860Y151164000D01*
X-120558870Y151163999D01*
X-120626833Y151157823D01*
X-120626843Y151157821D01*
X-120783254Y151109082D01*
X-120923470Y151024319D01*
X-121039320Y150908469D01*
X-121124083Y150768253D01*
X-121172822Y150611842D01*
X-121172824Y150611832D01*
X-121179000Y150543869D01*
X-126245500Y150543869D01*
X-126245500Y151331500D01*
X-126223826Y151383826D01*
X-126171500Y151405500D01*
X-119534271Y151405500D01*
X-119481945Y151383826D01*
G37*
%TD.AperFunction*%
%TA.AperFunction,Conductor*%
G36*
X-102268174Y151383826D02*
G01*
X-102246500Y151331500D01*
X-102246500Y149213000D01*
X-102268174Y149160674D01*
X-102320500Y149139000D01*
X-102942000Y149139000D01*
X-102942000Y147123000D01*
X-102320500Y147123000D01*
X-102268174Y147101326D01*
X-102246500Y147049000D01*
X-102246500Y141763000D01*
X-102268174Y141710674D01*
X-102320500Y141689000D01*
X-102942000Y141689000D01*
X-102942000Y139673000D01*
X-102320500Y139673000D01*
X-102268174Y139651326D01*
X-102246500Y139599000D01*
X-102246500Y137480500D01*
X-102268174Y137428174D01*
X-102320500Y137406500D01*
X-116957729Y137406500D01*
X-117010055Y137428174D01*
X-117031729Y137480500D01*
X-117010055Y137532826D01*
X-116998841Y137542029D01*
X-116935712Y137584210D01*
X-116824211Y137695711D01*
X-116819396Y137702917D01*
X-116736606Y137826821D01*
X-116702228Y137909818D01*
X-116662180Y137949867D01*
X-116633861Y137955500D01*
X-115952816Y137955500D01*
X-115881451Y137965898D01*
X-115771366Y138019716D01*
X-115684717Y138106365D01*
X-115630899Y138216450D01*
X-115630898Y138216452D01*
X-115620500Y138287820D01*
X-115620500Y138859455D01*
X-115598826Y138911781D01*
X-115531456Y138979151D01*
X-115479130Y139000825D01*
X-115426804Y138979151D01*
X-115413196Y138960421D01*
X-115399050Y138932657D01*
X-115309344Y138842951D01*
X-115196302Y138785353D01*
X-115102520Y138770500D01*
X-115102519Y138770500D01*
X-114639480Y138770500D01*
X-114639480Y138770501D01*
X-114545696Y138785353D01*
X-114545694Y138785354D01*
X-114432658Y138842950D01*
X-114342952Y138932656D01*
X-114342951Y138932657D01*
X-114342950Y138932658D01*
X-114285354Y139045696D01*
X-114270500Y139139481D01*
X-114270501Y139411954D01*
X-114248827Y139464280D01*
X-114191281Y139521826D01*
X-114106520Y139606587D01*
X-114101113Y139615951D01*
X-114053796Y139697907D01*
X-114053794Y139697911D01*
X-114053793Y139697912D01*
X-114026500Y139799773D01*
X-114026500Y139905227D01*
X-114026500Y141432409D01*
X-113722000Y141432409D01*
X-113715495Y141371906D01*
X-113715494Y141371901D01*
X-113664448Y141235039D01*
X-113664447Y141235038D01*
X-113576904Y141118096D01*
X-113459962Y141030553D01*
X-113459961Y141030552D01*
X-113323099Y140979506D01*
X-113323094Y140979505D01*
X-113262591Y140973000D01*
X-113214000Y140973000D01*
X-113214000Y141981000D01*
X-113722000Y141981000D01*
X-113722000Y141432409D01*
X-114026500Y141432409D01*
X-114026500Y143243607D01*
X-114004826Y143295933D01*
X-113952500Y143317607D01*
X-113907452Y143302316D01*
X-113886745Y143286427D01*
X-113838284Y143249242D01*
X-113838283Y143249241D01*
X-113838282Y143249241D01*
X-113730327Y143204524D01*
X-113690279Y143164475D01*
X-113689311Y143110297D01*
X-113715495Y143040092D01*
X-113722000Y142979590D01*
X-113722000Y142431000D01*
X-112838500Y142431000D01*
X-112786174Y142409326D01*
X-112764500Y142357000D01*
X-112764500Y141461246D01*
X-112764356Y141459783D01*
X-112764000Y141452536D01*
X-112764000Y140973000D01*
X-112761174Y140970174D01*
X-112739500Y140917848D01*
X-112739500Y140886773D01*
X-112730947Y140854853D01*
X-112712207Y140784911D01*
X-112712205Y140784907D01*
X-112659482Y140693588D01*
X-112203174Y140237279D01*
X-112181500Y140184953D01*
X-112181500Y139912482D01*
X-112180155Y139903994D01*
X-112193380Y139848923D01*
X-112241673Y139819332D01*
X-112272394Y139820943D01*
X-112345550Y139840545D01*
X-112367772Y139846500D01*
X-112367773Y139846500D01*
X-112590107Y139846500D01*
X-112642433Y139868174D01*
X-112656041Y139886904D01*
X-112692950Y139959342D01*
X-112782658Y140049050D01*
X-112895696Y140106646D01*
X-112989481Y140121500D01*
X-113452518Y140121499D01*
X-113452520Y140121499D01*
X-113546305Y140106646D01*
X-113546307Y140106645D01*
X-113604939Y140076770D01*
X-113659342Y140049050D01*
X-113749050Y139959342D01*
X-113806646Y139846304D01*
X-113806647Y139846302D01*
X-113806647Y139846301D01*
X-113821500Y139752519D01*
X-113821500Y139139480D01*
X-113806647Y139045695D01*
X-113806646Y139045693D01*
X-113749050Y138932657D01*
X-113659344Y138842951D01*
X-113546302Y138785353D01*
X-113452520Y138770500D01*
X-113452519Y138770500D01*
X-112989480Y138770500D01*
X-112989480Y138770501D01*
X-112895696Y138785353D01*
X-112895694Y138785354D01*
X-112782658Y138842950D01*
X-112692953Y138932655D01*
X-112692952Y138932656D01*
X-112692950Y138932658D01*
X-112665134Y138987251D01*
X-112622069Y139024032D01*
X-112565606Y139019589D01*
X-112546875Y139005980D01*
X-112203174Y138662279D01*
X-112181500Y138609953D01*
X-112181500Y138262480D01*
X-112166647Y138168695D01*
X-112166646Y138168693D01*
X-112109050Y138055657D01*
X-112019344Y137965951D01*
X-111906302Y137908353D01*
X-111812520Y137893500D01*
X-111812519Y137893500D01*
X-111199480Y137893500D01*
X-111199480Y137893501D01*
X-111105696Y137908353D01*
X-111105694Y137908354D01*
X-110992658Y137965950D01*
X-110902951Y138055657D01*
X-110885148Y138090596D01*
X-110842081Y138127378D01*
X-110819214Y138131000D01*
X-110160786Y138131000D01*
X-110108460Y138109326D01*
X-110094852Y138090596D01*
X-110077050Y138055657D01*
X-109987344Y137965951D01*
X-109874302Y137908353D01*
X-109780520Y137893500D01*
X-109780519Y137893500D01*
X-109167480Y137893500D01*
X-109167480Y137893501D01*
X-109073696Y137908353D01*
X-109073694Y137908354D01*
X-108960658Y137965950D01*
X-108870952Y138055656D01*
X-108870951Y138055657D01*
X-108870950Y138055658D01*
X-108813354Y138168696D01*
X-108798500Y138262481D01*
X-108798501Y138609954D01*
X-108776827Y138662280D01*
X-108549000Y138890107D01*
X-108279000Y139160107D01*
X-108226273Y139251432D01*
X-108198980Y139353293D01*
X-108198980Y139458747D01*
X-108198980Y140380495D01*
X-105054000Y140380495D01*
X-105043394Y140276674D01*
X-104987658Y140108475D01*
X-104894635Y139957661D01*
X-104769339Y139832365D01*
X-104618525Y139739342D01*
X-104450326Y139683606D01*
X-104346505Y139673000D01*
X-103450000Y139673000D01*
X-103450000Y140427000D01*
X-105054000Y140427000D01*
X-105054000Y140380495D01*
X-108198980Y140380495D01*
X-108198980Y140981504D01*
X-105054000Y140981504D01*
X-105054000Y140935000D01*
X-103450000Y140935000D01*
X-103450000Y141689000D01*
X-104346502Y141689000D01*
X-104346505Y141688999D01*
X-104450326Y141678393D01*
X-104618525Y141622657D01*
X-104769339Y141529634D01*
X-104769342Y141529632D01*
X-104894632Y141404342D01*
X-104894635Y141404338D01*
X-104987658Y141253524D01*
X-105043394Y141085325D01*
X-105054000Y140981504D01*
X-108198980Y140981504D01*
X-108198980Y141067206D01*
X-108198979Y141067224D01*
X-108198979Y141177209D01*
X-108226272Y141279063D01*
X-108226273Y141279067D01*
X-108261453Y141340000D01*
X-108279000Y141370393D01*
X-108353567Y141444960D01*
X-108353570Y141444961D01*
X-108670827Y141762218D01*
X-108692500Y141814543D01*
X-108692500Y142277000D01*
X-107750993Y142277000D01*
X-107704682Y142117598D01*
X-107620055Y141974501D01*
X-107502499Y141856945D01*
X-107359402Y141772318D01*
X-107199755Y141725935D01*
X-107162456Y141723000D01*
X-106650000Y141723000D01*
X-106142000Y141723000D01*
X-105629546Y141723000D01*
X-105629544Y141723001D01*
X-105592248Y141725935D01*
X-105432599Y141772318D01*
X-105289502Y141856945D01*
X-105171946Y141974501D01*
X-105087319Y142117598D01*
X-105041007Y142277000D01*
X-106142000Y142277000D01*
X-106142000Y141723000D01*
X-106650000Y141723000D01*
X-106650000Y142277000D01*
X-107750993Y142277000D01*
X-108692500Y142277000D01*
X-108692500Y143356553D01*
X-108670826Y143408879D01*
X-108618500Y143430553D01*
X-108566174Y143408879D01*
X-108559792Y143401601D01*
X-108522285Y143352720D01*
X-108522280Y143352715D01*
X-108396842Y143256464D01*
X-108250762Y143195955D01*
X-108094000Y143175318D01*
X-107937240Y143195955D01*
X-107937239Y143195955D01*
X-107791159Y143256464D01*
X-107665721Y143352715D01*
X-107665716Y143352720D01*
X-107569465Y143478157D01*
X-107569464Y143478159D01*
X-107559764Y143501578D01*
X-107519718Y143541626D01*
X-107463080Y143541628D01*
X-107424916Y143505761D01*
X-107385198Y143424516D01*
X-107358341Y143397659D01*
X-107336668Y143345333D01*
X-107358343Y143293007D01*
X-107372999Y143281639D01*
X-107502499Y143205054D01*
X-107620055Y143087498D01*
X-107704682Y142944401D01*
X-107750993Y142785000D01*
X-105041007Y142785000D01*
X-105087319Y142944401D01*
X-105171947Y143087499D01*
X-105171949Y143087501D01*
X-105219075Y143134628D01*
X-105240750Y143186953D01*
X-105219076Y143239279D01*
X-105166751Y143260954D01*
X-105138432Y143255321D01*
X-105103265Y143240754D01*
X-105103261Y143240753D01*
X-104946500Y143220116D01*
X-104789740Y143240753D01*
X-104789739Y143240753D01*
X-104643659Y143301262D01*
X-104518221Y143397513D01*
X-104518216Y143397518D01*
X-104454049Y143481143D01*
X-104421964Y143522957D01*
X-104361456Y143669036D01*
X-104340818Y143825798D01*
X-104361456Y143982560D01*
X-104421964Y144128639D01*
X-104518218Y144254080D01*
X-104643659Y144350334D01*
X-104789738Y144410842D01*
X-104946500Y144431480D01*
X-105103262Y144410842D01*
X-105249341Y144350334D01*
X-105249342Y144350333D01*
X-105374780Y144254082D01*
X-105374784Y144254078D01*
X-105388665Y144235987D01*
X-105437714Y144207667D01*
X-105483260Y144219035D01*
X-105484008Y144217505D01*
X-105550667Y144250092D01*
X-105594607Y144271573D01*
X-105662740Y144281500D01*
X-107129260Y144281500D01*
X-107197393Y144271573D01*
X-107197395Y144271572D01*
X-107302483Y144220198D01*
X-107385198Y144137483D01*
X-107424916Y144056238D01*
X-107467369Y144018749D01*
X-107523898Y144022258D01*
X-107559764Y144060420D01*
X-107569464Y144083841D01*
X-107629950Y144162667D01*
X-107644608Y144217373D01*
X-107623567Y144260040D01*
X-107332672Y144550935D01*
X-107280346Y144572609D01*
X-107247847Y144565091D01*
X-107197393Y144540427D01*
X-107197394Y144540427D01*
X-107129265Y144530500D01*
X-107129260Y144530500D01*
X-105662736Y144530500D01*
X-105594607Y144540427D01*
X-105594606Y144540427D01*
X-105489518Y144591801D01*
X-105406802Y144674517D01*
X-105355428Y144779605D01*
X-105355427Y144779608D01*
X-105345500Y144847740D01*
X-105345500Y145214260D01*
X-105355427Y145282393D01*
X-105406802Y145387483D01*
X-105489517Y145470198D01*
X-105594607Y145521573D01*
X-105662740Y145531500D01*
X-107129260Y145531500D01*
X-107197393Y145521573D01*
X-107197395Y145521572D01*
X-107302483Y145470198D01*
X-107319507Y145453174D01*
X-107371833Y145431500D01*
X-107471727Y145431500D01*
X-107573588Y145404207D01*
X-107573593Y145404204D01*
X-107618035Y145378545D01*
X-107664913Y145351480D01*
X-108414480Y144601913D01*
X-108414482Y144601910D01*
X-108414483Y144601909D01*
X-108467205Y144510592D01*
X-108467207Y144510589D01*
X-108470572Y144498030D01*
X-108486292Y144439356D01*
X-108488402Y144431482D01*
X-108488403Y144431480D01*
X-108494500Y144408727D01*
X-108494500Y144267092D01*
X-108516174Y144214766D01*
X-108521239Y144210324D01*
X-108522286Y144209278D01*
X-108559792Y144160398D01*
X-108608841Y144132079D01*
X-108663548Y144146738D01*
X-108691867Y144195787D01*
X-108692500Y144205446D01*
X-108692500Y144848106D01*
X-108670826Y144900432D01*
X-108652096Y144914040D01*
X-108579658Y144950950D01*
X-108489952Y145040656D01*
X-108489951Y145040657D01*
X-108489950Y145040658D01*
X-108432354Y145153696D01*
X-108417500Y145247481D01*
X-108417501Y145594954D01*
X-108395827Y145647280D01*
X-108160263Y145882844D01*
X-107898000Y146145107D01*
X-107896769Y146147238D01*
X-107860938Y146209301D01*
X-107845273Y146236432D01*
X-107817980Y146338293D01*
X-107817980Y146443747D01*
X-107817980Y146464264D01*
X-107446500Y146464264D01*
X-107446500Y146097735D01*
X-107436573Y146029606D01*
X-107436573Y146029605D01*
X-107385199Y145924517D01*
X-107302483Y145841801D01*
X-107197395Y145790427D01*
X-107129265Y145780500D01*
X-107129260Y145780500D01*
X-105662736Y145780500D01*
X-105594607Y145790427D01*
X-105594606Y145790427D01*
X-105489518Y145841801D01*
X-105406802Y145924517D01*
X-105355428Y146029605D01*
X-105355427Y146029607D01*
X-105345500Y146097740D01*
X-105345500Y146464260D01*
X-105355427Y146532393D01*
X-105406802Y146637483D01*
X-105489517Y146720198D01*
X-105594607Y146771573D01*
X-105662740Y146781500D01*
X-105662746Y146781500D01*
X-105932234Y146781500D01*
X-105984560Y146803174D01*
X-106006234Y146855500D01*
X-105990942Y146900548D01*
X-105901465Y147017158D01*
X-105901464Y147017159D01*
X-105840956Y147163238D01*
X-105820318Y147320000D01*
X-105840956Y147476762D01*
X-105901464Y147622841D01*
X-105997718Y147748282D01*
X-106104860Y147830495D01*
X-105054000Y147830495D01*
X-105043394Y147726674D01*
X-104987658Y147558475D01*
X-104894635Y147407661D01*
X-104769339Y147282365D01*
X-104618525Y147189342D01*
X-104450326Y147133606D01*
X-104346505Y147123000D01*
X-103450000Y147123000D01*
X-103450000Y147877000D01*
X-105054000Y147877000D01*
X-105054000Y147830495D01*
X-106104860Y147830495D01*
X-106123159Y147844536D01*
X-106269238Y147905044D01*
X-106426000Y147925682D01*
X-106582762Y147905044D01*
X-106728841Y147844536D01*
X-106770655Y147812451D01*
X-106854280Y147748284D01*
X-106854285Y147748279D01*
X-106950536Y147622841D01*
X-107011045Y147476761D01*
X-107011045Y147476760D01*
X-107031682Y147320000D01*
X-107011045Y147163239D01*
X-107011045Y147163238D01*
X-106950536Y147017158D01*
X-106861058Y146900548D01*
X-106846399Y146845841D01*
X-106874718Y146796792D01*
X-106919766Y146781500D01*
X-107129260Y146781500D01*
X-107197393Y146771573D01*
X-107197395Y146771572D01*
X-107302483Y146720198D01*
X-107385199Y146637482D01*
X-107436573Y146532394D01*
X-107436573Y146532393D01*
X-107446500Y146464264D01*
X-107817980Y146464264D01*
X-107817980Y148431504D01*
X-105054000Y148431504D01*
X-105054000Y148385000D01*
X-103450000Y148385000D01*
X-103450000Y149139000D01*
X-104346502Y149139000D01*
X-104346505Y149138999D01*
X-104450326Y149128393D01*
X-104618525Y149072657D01*
X-104769339Y148979634D01*
X-104769342Y148979632D01*
X-104894632Y148854342D01*
X-104894635Y148854338D01*
X-104987658Y148703524D01*
X-105043394Y148535325D01*
X-105054000Y148431504D01*
X-107817980Y148431504D01*
X-107817980Y149038207D01*
X-107817980Y149038209D01*
X-107841814Y149127158D01*
X-107845273Y149140067D01*
X-107898000Y149231393D01*
X-107972567Y149305960D01*
X-108776828Y150110219D01*
X-108798501Y150162545D01*
X-108798501Y150510019D01*
X-108813354Y150603804D01*
X-108813355Y150603806D01*
X-108814432Y150605919D01*
X-108870950Y150716842D01*
X-108960658Y150806550D01*
X-109073696Y150864146D01*
X-109167481Y150879000D01*
X-109780518Y150878999D01*
X-109780520Y150878999D01*
X-109874305Y150864146D01*
X-109874307Y150864145D01*
X-109922680Y150839497D01*
X-109987342Y150806550D01*
X-109987343Y150806549D01*
X-110077050Y150716842D01*
X-110094852Y150681904D01*
X-110137919Y150645122D01*
X-110160786Y150641500D01*
X-110819214Y150641500D01*
X-110871540Y150663174D01*
X-110885148Y150681904D01*
X-110886645Y150684842D01*
X-110902950Y150716842D01*
X-110992658Y150806550D01*
X-111105696Y150864146D01*
X-111199481Y150879000D01*
X-111812518Y150878999D01*
X-111812520Y150878999D01*
X-111906305Y150864146D01*
X-111906307Y150864145D01*
X-111954680Y150839497D01*
X-112019342Y150806550D01*
X-112109050Y150716842D01*
X-112166646Y150603804D01*
X-112166647Y150603802D01*
X-112166647Y150603801D01*
X-112181500Y150510019D01*
X-112181500Y150046980D01*
X-112166647Y149953195D01*
X-112166646Y149953193D01*
X-112109050Y149840157D01*
X-112019344Y149750451D01*
X-111906302Y149692853D01*
X-111812520Y149678000D01*
X-111812519Y149678000D01*
X-111199480Y149678000D01*
X-111199480Y149678001D01*
X-111105696Y149692853D01*
X-111105694Y149692854D01*
X-110992658Y149750450D01*
X-110924282Y149818826D01*
X-110871956Y149840500D01*
X-110669727Y149840500D01*
X-110108044Y149840500D01*
X-110055718Y149818826D01*
X-109987344Y149750451D01*
X-109874302Y149692853D01*
X-109780520Y149678000D01*
X-109780519Y149678000D01*
X-109508046Y149678000D01*
X-109455720Y149656326D01*
X-109154720Y149355325D01*
X-109133046Y149302999D01*
X-109154720Y149250673D01*
X-109207044Y149228999D01*
X-109780518Y149228999D01*
X-109780520Y149228999D01*
X-109874305Y149214146D01*
X-109874307Y149214145D01*
X-109901759Y149200157D01*
X-109987342Y149156550D01*
X-109987343Y149156549D01*
X-110055718Y149088174D01*
X-110108044Y149066500D01*
X-110202291Y149066500D01*
X-110304152Y149039207D01*
X-110305884Y149038207D01*
X-110366950Y149002950D01*
X-110395477Y148986480D01*
X-110704177Y148677780D01*
X-110756501Y148656107D01*
X-110808827Y148677781D01*
X-110830501Y148730107D01*
X-110830501Y148860019D01*
X-110845354Y148953804D01*
X-110845355Y148953806D01*
X-110858515Y148979634D01*
X-110902950Y149066842D01*
X-110992658Y149156550D01*
X-111105696Y149214146D01*
X-111199481Y149229000D01*
X-111812518Y149228999D01*
X-111812520Y149228999D01*
X-111906305Y149214146D01*
X-111906307Y149214145D01*
X-111933759Y149200157D01*
X-112019342Y149156550D01*
X-112109050Y149066842D01*
X-112166646Y148953804D01*
X-112166647Y148953802D01*
X-112166647Y148953801D01*
X-112181500Y148860019D01*
X-112181500Y148587544D01*
X-112203174Y148535219D01*
X-112659480Y148078913D01*
X-112659482Y148078910D01*
X-112659483Y148078909D01*
X-112712207Y147987589D01*
X-112712209Y147987584D01*
X-112726165Y147935501D01*
X-112726164Y147935501D01*
X-112739500Y147885727D01*
X-112739500Y147605500D01*
X-112761174Y147553174D01*
X-112813500Y147531500D01*
X-113233748Y147531500D01*
X-113292231Y147519867D01*
X-113292233Y147519866D01*
X-113314440Y147505027D01*
X-113358552Y147475552D01*
X-113358553Y147475550D01*
X-113402867Y147409232D01*
X-113402867Y147409231D01*
X-113414169Y147352409D01*
X-113414500Y147350746D01*
X-113414500Y146277544D01*
X-113436174Y146225219D01*
X-114747480Y144913913D01*
X-114747482Y144913910D01*
X-114747483Y144913909D01*
X-114800207Y144822589D01*
X-114800209Y144822584D01*
X-114810256Y144785088D01*
X-114810255Y144785088D01*
X-114827500Y144720727D01*
X-114827500Y144720725D01*
X-114827500Y143966405D01*
X-114849174Y143914079D01*
X-114901500Y143892405D01*
X-114939783Y143903077D01*
X-115002300Y143940869D01*
X-115166438Y143992016D01*
X-115166448Y143992018D01*
X-115237773Y143998499D01*
X-115316000Y143998499D01*
X-115316000Y142910500D01*
X-115337674Y142858174D01*
X-115390000Y142836500D01*
X-116552999Y142836500D01*
X-116552999Y142833267D01*
X-116546519Y142761944D01*
X-116546518Y142761940D01*
X-116495370Y142597799D01*
X-116406419Y142450655D01*
X-116347089Y142391326D01*
X-116325415Y142339000D01*
X-116347089Y142286674D01*
X-116399415Y142265000D01*
X-116712500Y142265000D01*
X-116764826Y142286674D01*
X-116786500Y142339000D01*
X-116786500Y142410253D01*
X-116786500Y142410260D01*
X-116796427Y142478393D01*
X-116847802Y142583483D01*
X-116930517Y142666198D01*
X-117035607Y142717573D01*
X-117103740Y142727500D01*
X-117470260Y142727500D01*
X-117475996Y142726664D01*
X-117530899Y142740563D01*
X-117550366Y142762225D01*
X-117562946Y142783498D01*
X-117680502Y142901054D01*
X-117823602Y142985682D01*
X-117823601Y142985682D01*
X-117983000Y143031992D01*
X-117983000Y141684500D01*
X-118004674Y141632174D01*
X-118057000Y141610500D01*
X-118417000Y141610500D01*
X-118469326Y141632174D01*
X-118491000Y141684500D01*
X-118491000Y143031992D01*
X-118491001Y143031992D01*
X-118650400Y142985682D01*
X-118793499Y142901054D01*
X-118911055Y142783498D01*
X-118923638Y142762221D01*
X-118968930Y142728215D01*
X-118998005Y142726664D01*
X-119003740Y142727500D01*
X-119370260Y142727500D01*
X-119432454Y142718438D01*
X-119487357Y142732341D01*
X-119495439Y142739331D01*
X-119607587Y142851480D01*
X-119698912Y142904207D01*
X-119800773Y142931500D01*
X-119800774Y142931500D01*
X-121120167Y142931500D01*
X-121172493Y142953174D01*
X-121189517Y142970198D01*
X-121294607Y143021573D01*
X-121362740Y143031500D01*
X-122829260Y143031500D01*
X-122897393Y143021573D01*
X-122897395Y143021572D01*
X-123005967Y142968495D01*
X-123062495Y142964986D01*
X-123097174Y142989927D01*
X-123142718Y143049282D01*
X-123268159Y143145536D01*
X-123394195Y143197741D01*
X-123434243Y143237789D01*
X-123434243Y143294426D01*
X-123410926Y143324815D01*
X-123396720Y143335716D01*
X-123396716Y143335720D01*
X-123300464Y143461159D01*
X-123272733Y143528107D01*
X-123232685Y143568156D01*
X-123176048Y143568156D01*
X-123137885Y143532290D01*
X-123085198Y143424516D01*
X-123002483Y143341801D01*
X-122897395Y143290427D01*
X-122829265Y143280500D01*
X-122829260Y143280500D01*
X-121362736Y143280500D01*
X-121294607Y143290427D01*
X-121294606Y143290427D01*
X-121189518Y143341801D01*
X-121172493Y143358826D01*
X-121120167Y143380500D01*
X-120580274Y143380500D01*
X-120580273Y143380500D01*
X-120478412Y143407793D01*
X-120478408Y143407795D01*
X-120387091Y143460517D01*
X-120387090Y143460518D01*
X-120387087Y143460520D01*
X-120072520Y143775087D01*
X-120019793Y143866412D01*
X-119992500Y143968273D01*
X-119992500Y144073727D01*
X-119992500Y144544907D01*
X-119970826Y144597233D01*
X-119965759Y144601678D01*
X-119964714Y144602722D01*
X-119901379Y144685264D01*
X-119687500Y144685264D01*
X-119687500Y143593735D01*
X-119677573Y143525606D01*
X-119677573Y143525605D01*
X-119626199Y143420517D01*
X-119543483Y143337801D01*
X-119438395Y143286427D01*
X-119370265Y143276500D01*
X-119370260Y143276500D01*
X-119003736Y143276500D01*
X-118935607Y143286427D01*
X-118935606Y143286427D01*
X-118830518Y143337801D01*
X-118747802Y143420517D01*
X-118697723Y143522956D01*
X-118696427Y143525607D01*
X-118686500Y143593740D01*
X-118686500Y144685260D01*
X-118696427Y144753393D01*
X-118747802Y144858483D01*
X-118830517Y144941198D01*
X-118935607Y144992573D01*
X-119003740Y145002500D01*
X-119370260Y145002500D01*
X-119438393Y144992573D01*
X-119438395Y144992572D01*
X-119543483Y144941198D01*
X-119626199Y144858482D01*
X-119677573Y144753394D01*
X-119677573Y144753393D01*
X-119687500Y144685264D01*
X-119901379Y144685264D01*
X-119885677Y144705727D01*
X-119868464Y144728159D01*
X-119807956Y144874238D01*
X-119787318Y145031000D01*
X-119807956Y145187762D01*
X-119868464Y145333841D01*
X-119964718Y145459282D01*
X-120090159Y145555536D01*
X-120139712Y145576061D01*
X-120179760Y145616109D01*
X-120179760Y145672746D01*
X-120139712Y145712795D01*
X-120121055Y145717795D01*
X-120112238Y145718956D01*
X-119966159Y145779464D01*
X-119911961Y145821051D01*
X-119857254Y145835710D01*
X-119825803Y145823873D01*
X-119808232Y145812133D01*
X-119808233Y145812133D01*
X-119778990Y145806316D01*
X-119749748Y145800500D01*
X-119749746Y145800500D01*
X-119010254Y145800500D01*
X-119010252Y145800500D01*
X-118971264Y145808255D01*
X-118951768Y145812133D01*
X-118890110Y145853333D01*
X-118885448Y145856448D01*
X-118877988Y145867613D01*
X-118830896Y145899078D01*
X-118816460Y145900500D01*
X-118220500Y145900500D01*
X-118168174Y145878826D01*
X-118146500Y145826500D01*
X-118146500Y145494234D01*
X-118143914Y145466664D01*
X-118143645Y145463795D01*
X-118098794Y145335618D01*
X-118098793Y145335616D01*
X-118018154Y145226353D01*
X-118018147Y145226346D01*
X-117908884Y145145707D01*
X-117908882Y145145706D01*
X-117780705Y145100855D01*
X-117780706Y145100855D01*
X-117780701Y145100854D01*
X-117780699Y145100854D01*
X-117750266Y145098000D01*
X-117750260Y145098000D01*
X-117642598Y145098000D01*
X-117590272Y145076326D01*
X-117568598Y145024000D01*
X-117590272Y144971674D01*
X-117610098Y144957519D01*
X-117643483Y144941198D01*
X-117726199Y144858482D01*
X-117777573Y144753394D01*
X-117777573Y144753393D01*
X-117787500Y144685264D01*
X-117787500Y143593735D01*
X-117777573Y143525606D01*
X-117777573Y143525605D01*
X-117726199Y143420517D01*
X-117643483Y143337801D01*
X-117538395Y143286427D01*
X-117470265Y143276500D01*
X-117470260Y143276500D01*
X-117103736Y143276500D01*
X-117035607Y143286427D01*
X-117035606Y143286427D01*
X-116930518Y143337801D01*
X-116920587Y143347732D01*
X-116553000Y143347732D01*
X-116553000Y143344500D01*
X-115824000Y143344500D01*
X-115824000Y143998499D01*
X-115902221Y143998499D01*
X-115902233Y143998498D01*
X-115973556Y143992018D01*
X-115973560Y143992017D01*
X-116137701Y143940869D01*
X-116284845Y143851918D01*
X-116406419Y143730344D01*
X-116495370Y143583200D01*
X-116546517Y143419062D01*
X-116546519Y143419052D01*
X-116553000Y143347732D01*
X-116920587Y143347732D01*
X-116847802Y143420517D01*
X-116797723Y143522956D01*
X-116796427Y143525607D01*
X-116786500Y143593740D01*
X-116786500Y144100500D01*
X-116764826Y144152826D01*
X-116712500Y144174500D01*
X-116272274Y144174500D01*
X-116272273Y144174500D01*
X-116170412Y144201793D01*
X-116170408Y144201795D01*
X-116079091Y144254517D01*
X-116079090Y144254518D01*
X-116079087Y144254520D01*
X-115375281Y144958326D01*
X-115322955Y144980000D01*
X-115136480Y144980000D01*
X-115136480Y144980001D01*
X-115042696Y144994853D01*
X-115042694Y144994854D01*
X-114929658Y145052450D01*
X-114839952Y145142156D01*
X-114839950Y145142158D01*
X-114782354Y145255196D01*
X-114767500Y145348981D01*
X-114767501Y145696454D01*
X-114745827Y145748780D01*
X-114521072Y145973535D01*
X-114468746Y145995209D01*
X-114459093Y145994577D01*
X-114457126Y145994318D01*
X-114457125Y145994318D01*
X-114433360Y145997446D01*
X-114300365Y146014955D01*
X-114300364Y146014955D01*
X-114154284Y146075464D01*
X-114028846Y146171715D01*
X-114028841Y146171720D01*
X-113932590Y146297158D01*
X-113932589Y146297159D01*
X-113872081Y146443238D01*
X-113851443Y146600000D01*
X-113872081Y146756762D01*
X-113932589Y146902841D01*
X-114028843Y147028282D01*
X-114154284Y147124536D01*
X-114300363Y147185044D01*
X-114457125Y147205682D01*
X-114613887Y147185044D01*
X-114759966Y147124536D01*
X-114785055Y147105285D01*
X-114885403Y147028286D01*
X-114885405Y147028284D01*
X-114885406Y147028282D01*
X-114885407Y147028282D01*
X-114902927Y147005450D01*
X-114951974Y146977133D01*
X-114961633Y146976500D01*
X-115623000Y146976500D01*
X-115675326Y146998174D01*
X-115697000Y147050500D01*
X-115697000Y147484500D01*
X-115189000Y147484500D01*
X-114460001Y147484500D01*
X-114460001Y147487721D01*
X-114460002Y147487732D01*
X-114466482Y147559055D01*
X-114466483Y147559059D01*
X-114517631Y147723200D01*
X-114606582Y147870344D01*
X-114728156Y147991918D01*
X-114875300Y148080869D01*
X-115039438Y148132016D01*
X-115039448Y148132018D01*
X-115110773Y148138499D01*
X-115189000Y148138499D01*
X-115189000Y147484500D01*
X-115697000Y147484500D01*
X-115697000Y148138499D01*
X-115775221Y148138499D01*
X-115775234Y148138498D01*
X-115846553Y148132018D01*
X-115846560Y148132017D01*
X-115923748Y148107964D01*
X-115980153Y148113089D01*
X-116016008Y148155337D01*
X-116054342Y148271023D01*
X-116147366Y148421838D01*
X-116147368Y148421842D01*
X-116272658Y148547132D01*
X-116272662Y148547134D01*
X-116423476Y148640157D01*
X-116591676Y148695893D01*
X-116686920Y148705623D01*
X-116736773Y148732503D01*
X-116753017Y148786760D01*
X-116740932Y148820348D01*
X-116736606Y148826821D01*
X-116702228Y148909818D01*
X-116662180Y148949867D01*
X-116633861Y148955500D01*
X-115952816Y148955500D01*
X-115881451Y148965898D01*
X-115771366Y149019716D01*
X-115684717Y149106365D01*
X-115656540Y149164001D01*
X-115614087Y149201491D01*
X-115590059Y149205500D01*
X-115476393Y149205500D01*
X-115424067Y149183826D01*
X-115410459Y149165096D01*
X-115373549Y149092656D01*
X-115283844Y149002951D01*
X-115170802Y148945353D01*
X-115077020Y148930500D01*
X-115077019Y148930500D01*
X-114613980Y148930500D01*
X-114613980Y148930501D01*
X-114520196Y148945353D01*
X-114520194Y148945354D01*
X-114407158Y149002950D01*
X-114318826Y149091282D01*
X-114266500Y149112956D01*
X-114214174Y149091282D01*
X-114192500Y149038956D01*
X-114192500Y148822092D01*
X-114214174Y148769766D01*
X-114219239Y148765324D01*
X-114220286Y148764278D01*
X-114316536Y148638841D01*
X-114377045Y148492761D01*
X-114377045Y148492760D01*
X-114397682Y148336000D01*
X-114377045Y148179239D01*
X-114377045Y148179238D01*
X-114316536Y148033158D01*
X-114220285Y147907720D01*
X-114220280Y147907715D01*
X-114094842Y147811464D01*
X-113948762Y147750955D01*
X-113792000Y147730318D01*
X-113635240Y147750955D01*
X-113635239Y147750955D01*
X-113489159Y147811464D01*
X-113363721Y147907715D01*
X-113363716Y147907720D01*
X-113267465Y148033158D01*
X-113267464Y148033159D01*
X-113206956Y148179238D01*
X-113186318Y148336000D01*
X-113206956Y148492762D01*
X-113267464Y148638841D01*
X-113363718Y148764282D01*
X-113363723Y148764285D01*
X-113367145Y148767708D01*
X-113365814Y148769040D01*
X-113390867Y148812431D01*
X-113391500Y148822092D01*
X-113391500Y148850455D01*
X-113369826Y148902781D01*
X-113363781Y148908826D01*
X-113311455Y148930500D01*
X-112963980Y148930500D01*
X-112963980Y148930501D01*
X-112870196Y148945353D01*
X-112870194Y148945354D01*
X-112757158Y149002950D01*
X-112667452Y149092656D01*
X-112667450Y149092658D01*
X-112609854Y149205696D01*
X-112595000Y149299481D01*
X-112595001Y149912518D01*
X-112609854Y150006304D01*
X-112667450Y150119342D01*
X-112757158Y150209050D01*
X-112870196Y150266646D01*
X-112963981Y150281500D01*
X-113427018Y150281499D01*
X-113427020Y150281499D01*
X-113520805Y150266646D01*
X-113520807Y150266645D01*
X-113579439Y150236770D01*
X-113633842Y150209050D01*
X-113723550Y150119342D01*
X-113781146Y150006304D01*
X-113781147Y150006302D01*
X-113781147Y150006301D01*
X-113796000Y149912519D01*
X-113796000Y149640044D01*
X-113817674Y149587719D01*
X-114112480Y149292913D01*
X-114112482Y149292910D01*
X-114115909Y149289483D01*
X-114116912Y149290485D01*
X-114161359Y149264837D01*
X-114216063Y149279508D01*
X-114244370Y149328564D01*
X-114245001Y149338191D01*
X-114245001Y149912518D01*
X-114259854Y150006304D01*
X-114317450Y150119342D01*
X-114407158Y150209050D01*
X-114520196Y150266646D01*
X-114613981Y150281500D01*
X-115077018Y150281499D01*
X-115077020Y150281499D01*
X-115170805Y150266646D01*
X-115170807Y150266645D01*
X-115229439Y150236770D01*
X-115283842Y150209050D01*
X-115283843Y150209049D01*
X-115373549Y150119343D01*
X-115410459Y150046904D01*
X-115453526Y150010122D01*
X-115476393Y150006500D01*
X-115546500Y150006500D01*
X-115598826Y150028174D01*
X-115620500Y150080500D01*
X-115620500Y150524173D01*
X-115620500Y150524180D01*
X-115630898Y150595548D01*
X-115684717Y150705635D01*
X-115771365Y150792283D01*
X-115881452Y150846102D01*
X-115952820Y150856500D01*
X-115952826Y150856500D01*
X-116633861Y150856500D01*
X-116686187Y150878174D01*
X-116702228Y150902182D01*
X-116736604Y150985174D01*
X-116736606Y150985179D01*
X-116824211Y151116289D01*
X-116935711Y151227789D01*
X-116998842Y151269971D01*
X-117030307Y151317063D01*
X-117019258Y151372612D01*
X-116972166Y151404078D01*
X-116957729Y151405500D01*
X-102320500Y151405500D01*
X-102268174Y151383826D01*
G37*
%TD.AperFunction*%
%TA.AperFunction,Conductor*%
G36*
X-110015707Y148128814D02*
G01*
X-109987342Y148100449D01*
X-109874305Y148042854D01*
X-109821807Y148034539D01*
X-109773516Y148004946D01*
X-109760295Y147949873D01*
X-109789888Y147901582D01*
X-109795102Y147898122D01*
X-109807843Y147890420D01*
X-109929419Y147768844D01*
X-110018370Y147621700D01*
X-110069517Y147457562D01*
X-110069519Y147457552D01*
X-110076000Y147386232D01*
X-110076000Y147282041D01*
X-110097674Y147229715D01*
X-110150000Y147208041D01*
X-110159643Y147208672D01*
X-110182500Y147211682D01*
X-110339262Y147191044D01*
X-110485341Y147130536D01*
X-110494453Y147123544D01*
X-110549158Y147108886D01*
X-110598208Y147137204D01*
X-110613500Y147182253D01*
X-110613500Y147350746D01*
X-110613500Y147350748D01*
X-110625133Y147409231D01*
X-110657427Y147457562D01*
X-110673497Y147481612D01*
X-110672181Y147482491D01*
X-110690882Y147527629D01*
X-110669213Y147579958D01*
X-110120358Y148128813D01*
X-110068032Y148150487D01*
X-110015707Y148128814D01*
G37*
%TD.AperFunction*%
%TD*%
M02*
