%TF.GenerationSoftware,KiCad,Pcbnew,7.0.10-7.0.10~ubuntu23.04.1*%
%TF.CreationDate,2024-02-23T00:51:23+00:00*%
%TF.ProjectId,TFI2CEXT01,54464932-4345-4585-9430-312e6b696361,REV*%
%TF.SameCoordinates,PX78dfd90PY8290510*%
%TF.FileFunction,Profile,NP*%
%FSLAX46Y46*%
G04 Gerber Fmt 4.6, Leading zero omitted, Abs format (unit mm)*
G04 Created by KiCad (PCBNEW 7.0.10-7.0.10~ubuntu23.04.1) date 2024-02-23 00:51:23*
%MOMM*%
%LPD*%
G01*
G04 APERTURE LIST*
%TA.AperFunction,Profile*%
%ADD10C,0.150000*%
%TD*%
%TA.AperFunction,Profile*%
%ADD11C,0.050000*%
%TD*%
G04 APERTURE END LIST*
D10*
X-126746000Y151906000D02*
X-101746000Y151906000D01*
X-101746000Y151906000D02*
X-101746000Y136906000D01*
X-126746000Y151906000D02*
X-126746000Y136906000D01*
X-126746000Y136906000D02*
X-101746000Y136906000D01*
D11*
%TO.C,D1*%
X-117146000Y150606000D02*
X-117146000Y149206000D01*
X-117446000Y148906000D02*
X-119046000Y148906000D01*
X-119046000Y150906000D02*
X-117446000Y150906000D01*
X-119346000Y149206000D02*
X-119346000Y150606000D01*
X-117446000Y148906000D02*
G75*
G03*
X-117146000Y149206000I0J300000D01*
G01*
X-117146000Y150606000D02*
G75*
G03*
X-117446000Y150906000I-300000J0D01*
G01*
X-119346000Y149206000D02*
G75*
G03*
X-119046000Y148906000I300000J0D01*
G01*
X-119046000Y150906000D02*
G75*
G03*
X-119346000Y150606000I0J-300000D01*
G01*
%TO.C,D3*%
X-117146000Y139606000D02*
X-117146000Y138206000D01*
X-117446000Y137906000D02*
X-119046000Y137906000D01*
X-119046000Y139906000D02*
X-117446000Y139906000D01*
X-119346000Y138206000D02*
X-119346000Y139606000D01*
X-117446000Y137906000D02*
G75*
G03*
X-117146000Y138206000I0J300000D01*
G01*
X-117146000Y139606000D02*
G75*
G03*
X-117446000Y139906000I-300000J0D01*
G01*
X-119346000Y138206000D02*
G75*
G03*
X-119046000Y137906000I300000J0D01*
G01*
X-119046000Y139906000D02*
G75*
G03*
X-119346000Y139606000I0J-300000D01*
G01*
%TD*%
M02*
