%TF.GenerationSoftware,KiCad,Pcbnew,7.0.7-7.0.7~ubuntu23.04.1*%
%TF.CreationDate,2023-10-04T13:25:25+00:00*%
%TF.ProjectId,TFI2CEXT01,54464932-4345-4585-9430-312e6b696361,REV*%
%TF.SameCoordinates,PX78dfd90PY8290510*%
%TF.FileFunction,Legend,Top*%
%TF.FilePolarity,Positive*%
%FSLAX46Y46*%
G04 Gerber Fmt 4.6, Leading zero omitted, Abs format (unit mm)*
G04 Created by KiCad (PCBNEW 7.0.7-7.0.7~ubuntu23.04.1) date 2023-10-04 13:25:25*
%MOMM*%
%LPD*%
G01*
G04 APERTURE LIST*
%ADD10C,0.120000*%
%ADD11C,0.300000*%
%ADD12C,0.150000*%
G04 APERTURE END LIST*
D10*
X-113690400Y145275300D02*
X-114122200Y144843500D01*
X-113690400Y145288000D02*
X-114122200Y145719800D01*
X-116687600Y145288000D02*
X-113690400Y145288000D01*
D11*
X-116079109Y148512195D02*
X-116079109Y149812195D01*
X-116079109Y149812195D02*
X-115583871Y149812195D01*
X-115583871Y149812195D02*
X-115460061Y149750290D01*
X-115460061Y149750290D02*
X-115398156Y149688385D01*
X-115398156Y149688385D02*
X-115336252Y149564576D01*
X-115336252Y149564576D02*
X-115336252Y149378861D01*
X-115336252Y149378861D02*
X-115398156Y149255052D01*
X-115398156Y149255052D02*
X-115460061Y149193147D01*
X-115460061Y149193147D02*
X-115583871Y149131242D01*
X-115583871Y149131242D02*
X-116079109Y149131242D01*
X-114902918Y149812195D02*
X-114593394Y148512195D01*
X-114593394Y148512195D02*
X-114345775Y149440766D01*
X-114345775Y149440766D02*
X-114098156Y148512195D01*
X-114098156Y148512195D02*
X-113788632Y149812195D01*
X-112550538Y148512195D02*
X-112983871Y149131242D01*
X-113293395Y148512195D02*
X-113293395Y149812195D01*
X-113293395Y149812195D02*
X-112798157Y149812195D01*
X-112798157Y149812195D02*
X-112674347Y149750290D01*
X-112674347Y149750290D02*
X-112612442Y149688385D01*
X-112612442Y149688385D02*
X-112550538Y149564576D01*
X-112550538Y149564576D02*
X-112550538Y149378861D01*
X-112550538Y149378861D02*
X-112612442Y149255052D01*
X-112612442Y149255052D02*
X-112674347Y149193147D01*
X-112674347Y149193147D02*
X-112798157Y149131242D01*
X-112798157Y149131242D02*
X-113293395Y149131242D01*
X-115336252Y139114195D02*
X-115769585Y139733242D01*
X-116079109Y139114195D02*
X-116079109Y140414195D01*
X-116079109Y140414195D02*
X-115583871Y140414195D01*
X-115583871Y140414195D02*
X-115460061Y140352290D01*
X-115460061Y140352290D02*
X-115398156Y140290385D01*
X-115398156Y140290385D02*
X-115336252Y140166576D01*
X-115336252Y140166576D02*
X-115336252Y139980861D01*
X-115336252Y139980861D02*
X-115398156Y139857052D01*
X-115398156Y139857052D02*
X-115460061Y139795147D01*
X-115460061Y139795147D02*
X-115583871Y139733242D01*
X-115583871Y139733242D02*
X-116079109Y139733242D01*
X-114779109Y139795147D02*
X-114345775Y139795147D01*
X-114160061Y139114195D02*
X-114779109Y139114195D01*
X-114779109Y139114195D02*
X-114779109Y140414195D01*
X-114779109Y140414195D02*
X-114160061Y140414195D01*
X-113664823Y139485623D02*
X-113045776Y139485623D01*
X-113788633Y139114195D02*
X-113355300Y140414195D01*
X-113355300Y140414195D02*
X-112921966Y139114195D01*
X-112488633Y139114195D02*
X-112488633Y140414195D01*
X-112488633Y140414195D02*
X-112179109Y140414195D01*
X-112179109Y140414195D02*
X-111993395Y140352290D01*
X-111993395Y140352290D02*
X-111869585Y140228480D01*
X-111869585Y140228480D02*
X-111807680Y140104671D01*
X-111807680Y140104671D02*
X-111745776Y139857052D01*
X-111745776Y139857052D02*
X-111745776Y139671338D01*
X-111745776Y139671338D02*
X-111807680Y139423719D01*
X-111807680Y139423719D02*
X-111869585Y139299909D01*
X-111869585Y139299909D02*
X-111993395Y139176100D01*
X-111993395Y139176100D02*
X-112179109Y139114195D01*
X-112179109Y139114195D02*
X-112488633Y139114195D01*
X-110941014Y139733242D02*
X-110941014Y139114195D01*
X-111374347Y140414195D02*
X-110941014Y139733242D01*
X-110941014Y139733242D02*
X-110507680Y140414195D01*
D12*
X-119665143Y146023800D02*
X-119522286Y145976180D01*
X-119522286Y145976180D02*
X-119284191Y145976180D01*
X-119284191Y145976180D02*
X-119188953Y146023800D01*
X-119188953Y146023800D02*
X-119141334Y146071419D01*
X-119141334Y146071419D02*
X-119093715Y146166657D01*
X-119093715Y146166657D02*
X-119093715Y146261895D01*
X-119093715Y146261895D02*
X-119141334Y146357133D01*
X-119141334Y146357133D02*
X-119188953Y146404752D01*
X-119188953Y146404752D02*
X-119284191Y146452371D01*
X-119284191Y146452371D02*
X-119474667Y146499990D01*
X-119474667Y146499990D02*
X-119569905Y146547609D01*
X-119569905Y146547609D02*
X-119617524Y146595228D01*
X-119617524Y146595228D02*
X-119665143Y146690466D01*
X-119665143Y146690466D02*
X-119665143Y146785704D01*
X-119665143Y146785704D02*
X-119617524Y146880942D01*
X-119617524Y146880942D02*
X-119569905Y146928561D01*
X-119569905Y146928561D02*
X-119474667Y146976180D01*
X-119474667Y146976180D02*
X-119236572Y146976180D01*
X-119236572Y146976180D02*
X-119093715Y146928561D01*
X-118093715Y146071419D02*
X-118141334Y146023800D01*
X-118141334Y146023800D02*
X-118284191Y145976180D01*
X-118284191Y145976180D02*
X-118379429Y145976180D01*
X-118379429Y145976180D02*
X-118522286Y146023800D01*
X-118522286Y146023800D02*
X-118617524Y146119038D01*
X-118617524Y146119038D02*
X-118665143Y146214276D01*
X-118665143Y146214276D02*
X-118712762Y146404752D01*
X-118712762Y146404752D02*
X-118712762Y146547609D01*
X-118712762Y146547609D02*
X-118665143Y146738085D01*
X-118665143Y146738085D02*
X-118617524Y146833323D01*
X-118617524Y146833323D02*
X-118522286Y146928561D01*
X-118522286Y146928561D02*
X-118379429Y146976180D01*
X-118379429Y146976180D02*
X-118284191Y146976180D01*
X-118284191Y146976180D02*
X-118141334Y146928561D01*
X-118141334Y146928561D02*
X-118093715Y146880942D01*
X-117188953Y145976180D02*
X-117665143Y145976180D01*
X-117665143Y145976180D02*
X-117665143Y146976180D01*
X-115665143Y145976180D02*
X-115665143Y146976180D01*
X-115665143Y146023800D02*
X-115760381Y145976180D01*
X-115760381Y145976180D02*
X-115950857Y145976180D01*
X-115950857Y145976180D02*
X-116046095Y146023800D01*
X-116046095Y146023800D02*
X-116093714Y146071419D01*
X-116093714Y146071419D02*
X-116141333Y146166657D01*
X-116141333Y146166657D02*
X-116141333Y146452371D01*
X-116141333Y146452371D02*
X-116093714Y146547609D01*
X-116093714Y146547609D02*
X-116046095Y146595228D01*
X-116046095Y146595228D02*
X-115950857Y146642847D01*
X-115950857Y146642847D02*
X-115760381Y146642847D01*
X-115760381Y146642847D02*
X-115665143Y146595228D01*
X-115188952Y145976180D02*
X-115188952Y146642847D01*
X-115188952Y146976180D02*
X-115236571Y146928561D01*
X-115236571Y146928561D02*
X-115188952Y146880942D01*
X-115188952Y146880942D02*
X-115141333Y146928561D01*
X-115141333Y146928561D02*
X-115188952Y146976180D01*
X-115188952Y146976180D02*
X-115188952Y146880942D01*
X-114712762Y145976180D02*
X-114712762Y146642847D01*
X-114712762Y146452371D02*
X-114665143Y146547609D01*
X-114665143Y146547609D02*
X-114617524Y146595228D01*
X-114617524Y146595228D02*
X-114522286Y146642847D01*
X-114522286Y146642847D02*
X-114427048Y146642847D01*
X-113712762Y146023800D02*
X-113808000Y145976180D01*
X-113808000Y145976180D02*
X-113998476Y145976180D01*
X-113998476Y145976180D02*
X-114093714Y146023800D01*
X-114093714Y146023800D02*
X-114141333Y146119038D01*
X-114141333Y146119038D02*
X-114141333Y146499990D01*
X-114141333Y146499990D02*
X-114093714Y146595228D01*
X-114093714Y146595228D02*
X-113998476Y146642847D01*
X-113998476Y146642847D02*
X-113808000Y146642847D01*
X-113808000Y146642847D02*
X-113712762Y146595228D01*
X-113712762Y146595228D02*
X-113665143Y146499990D01*
X-113665143Y146499990D02*
X-113665143Y146404752D01*
X-113665143Y146404752D02*
X-114141333Y146309514D01*
X-112808000Y146023800D02*
X-112903238Y145976180D01*
X-112903238Y145976180D02*
X-113093714Y145976180D01*
X-113093714Y145976180D02*
X-113188952Y146023800D01*
X-113188952Y146023800D02*
X-113236571Y146071419D01*
X-113236571Y146071419D02*
X-113284190Y146166657D01*
X-113284190Y146166657D02*
X-113284190Y146452371D01*
X-113284190Y146452371D02*
X-113236571Y146547609D01*
X-113236571Y146547609D02*
X-113188952Y146595228D01*
X-113188952Y146595228D02*
X-113093714Y146642847D01*
X-113093714Y146642847D02*
X-112903238Y146642847D01*
X-112903238Y146642847D02*
X-112808000Y146595228D01*
X-112522285Y146642847D02*
X-112141333Y146642847D01*
X-112379428Y146976180D02*
X-112379428Y146119038D01*
X-112379428Y146119038D02*
X-112331809Y146023800D01*
X-112331809Y146023800D02*
X-112236571Y145976180D01*
X-112236571Y145976180D02*
X-112141333Y145976180D01*
X-111807999Y145976180D02*
X-111807999Y146642847D01*
X-111807999Y146976180D02*
X-111855618Y146928561D01*
X-111855618Y146928561D02*
X-111807999Y146880942D01*
X-111807999Y146880942D02*
X-111760380Y146928561D01*
X-111760380Y146928561D02*
X-111807999Y146976180D01*
X-111807999Y146976180D02*
X-111807999Y146880942D01*
X-111188952Y145976180D02*
X-111284190Y146023800D01*
X-111284190Y146023800D02*
X-111331809Y146071419D01*
X-111331809Y146071419D02*
X-111379428Y146166657D01*
X-111379428Y146166657D02*
X-111379428Y146452371D01*
X-111379428Y146452371D02*
X-111331809Y146547609D01*
X-111331809Y146547609D02*
X-111284190Y146595228D01*
X-111284190Y146595228D02*
X-111188952Y146642847D01*
X-111188952Y146642847D02*
X-111046095Y146642847D01*
X-111046095Y146642847D02*
X-110950857Y146595228D01*
X-110950857Y146595228D02*
X-110903238Y146547609D01*
X-110903238Y146547609D02*
X-110855619Y146452371D01*
X-110855619Y146452371D02*
X-110855619Y146166657D01*
X-110855619Y146166657D02*
X-110903238Y146071419D01*
X-110903238Y146071419D02*
X-110950857Y146023800D01*
X-110950857Y146023800D02*
X-111046095Y145976180D01*
X-111046095Y145976180D02*
X-111188952Y145976180D01*
X-110427047Y146642847D02*
X-110427047Y145976180D01*
X-110427047Y146547609D02*
X-110379428Y146595228D01*
X-110379428Y146595228D02*
X-110284190Y146642847D01*
X-110284190Y146642847D02*
X-110141333Y146642847D01*
X-110141333Y146642847D02*
X-110046095Y146595228D01*
X-110046095Y146595228D02*
X-109998476Y146499990D01*
X-109998476Y146499990D02*
X-109998476Y145976180D01*
D11*
X-109121396Y138656981D02*
X-109121396Y139399838D01*
X-107821396Y139028410D02*
X-109121396Y139028410D01*
X-108502348Y140266505D02*
X-108502348Y139833171D01*
X-107821396Y139833171D02*
X-109121396Y139833171D01*
X-109121396Y139833171D02*
X-109121396Y140452219D01*
X-107821396Y140947457D02*
X-109121396Y140947457D01*
X-108997586Y141504601D02*
X-109059491Y141566505D01*
X-109059491Y141566505D02*
X-109121396Y141690315D01*
X-109121396Y141690315D02*
X-109121396Y141999839D01*
X-109121396Y141999839D02*
X-109059491Y142123648D01*
X-109059491Y142123648D02*
X-108997586Y142185553D01*
X-108997586Y142185553D02*
X-108873777Y142247458D01*
X-108873777Y142247458D02*
X-108749967Y142247458D01*
X-108749967Y142247458D02*
X-108564253Y142185553D01*
X-108564253Y142185553D02*
X-107821396Y141442696D01*
X-107821396Y141442696D02*
X-107821396Y142247458D01*
X-107945205Y143547457D02*
X-107883300Y143485553D01*
X-107883300Y143485553D02*
X-107821396Y143299838D01*
X-107821396Y143299838D02*
X-107821396Y143176029D01*
X-107821396Y143176029D02*
X-107883300Y142990315D01*
X-107883300Y142990315D02*
X-108007110Y142866505D01*
X-108007110Y142866505D02*
X-108130920Y142804600D01*
X-108130920Y142804600D02*
X-108378539Y142742696D01*
X-108378539Y142742696D02*
X-108564253Y142742696D01*
X-108564253Y142742696D02*
X-108811872Y142804600D01*
X-108811872Y142804600D02*
X-108935681Y142866505D01*
X-108935681Y142866505D02*
X-109059491Y142990315D01*
X-109059491Y142990315D02*
X-109121396Y143176029D01*
X-109121396Y143176029D02*
X-109121396Y143299838D01*
X-109121396Y143299838D02*
X-109059491Y143485553D01*
X-109059491Y143485553D02*
X-108997586Y143547457D01*
X-108502348Y144104600D02*
X-108502348Y144537934D01*
X-107821396Y144723648D02*
X-107821396Y144104600D01*
X-107821396Y144104600D02*
X-109121396Y144104600D01*
X-109121396Y144104600D02*
X-109121396Y144723648D01*
X-109121396Y145156981D02*
X-107821396Y146023647D01*
X-109121396Y146023647D02*
X-107821396Y145156981D01*
X-109121396Y146333171D02*
X-109121396Y147076028D01*
X-107821396Y146704600D02*
X-109121396Y146704600D01*
X-109121396Y147756980D02*
X-109121396Y147880790D01*
X-109121396Y147880790D02*
X-109059491Y148004599D01*
X-109059491Y148004599D02*
X-108997586Y148066504D01*
X-108997586Y148066504D02*
X-108873777Y148128409D01*
X-108873777Y148128409D02*
X-108626158Y148190314D01*
X-108626158Y148190314D02*
X-108316634Y148190314D01*
X-108316634Y148190314D02*
X-108069015Y148128409D01*
X-108069015Y148128409D02*
X-107945205Y148066504D01*
X-107945205Y148066504D02*
X-107883300Y148004599D01*
X-107883300Y148004599D02*
X-107821396Y147880790D01*
X-107821396Y147880790D02*
X-107821396Y147756980D01*
X-107821396Y147756980D02*
X-107883300Y147633171D01*
X-107883300Y147633171D02*
X-107945205Y147571266D01*
X-107945205Y147571266D02*
X-108069015Y147509361D01*
X-108069015Y147509361D02*
X-108316634Y147447457D01*
X-108316634Y147447457D02*
X-108626158Y147447457D01*
X-108626158Y147447457D02*
X-108873777Y147509361D01*
X-108873777Y147509361D02*
X-108997586Y147571266D01*
X-108997586Y147571266D02*
X-109059491Y147633171D01*
X-109059491Y147633171D02*
X-109121396Y147756980D01*
X-107821396Y149428409D02*
X-107821396Y148685552D01*
X-107821396Y149056980D02*
X-109121396Y149056980D01*
X-109121396Y149056980D02*
X-108935681Y148933171D01*
X-108935681Y148933171D02*
X-108811872Y148809361D01*
X-108811872Y148809361D02*
X-108749967Y148685552D01*
X-108502348Y150418885D02*
X-108440443Y150604599D01*
X-108440443Y150604599D02*
X-108378539Y150666504D01*
X-108378539Y150666504D02*
X-108254729Y150728408D01*
X-108254729Y150728408D02*
X-108069015Y150728408D01*
X-108069015Y150728408D02*
X-107945205Y150666504D01*
X-107945205Y150666504D02*
X-107883300Y150604599D01*
X-107883300Y150604599D02*
X-107821396Y150480789D01*
X-107821396Y150480789D02*
X-107821396Y149985551D01*
X-107821396Y149985551D02*
X-109121396Y149985551D01*
X-109121396Y149985551D02*
X-109121396Y150418885D01*
X-109121396Y150418885D02*
X-109059491Y150542694D01*
X-109059491Y150542694D02*
X-108997586Y150604599D01*
X-108997586Y150604599D02*
X-108873777Y150666504D01*
X-108873777Y150666504D02*
X-108749967Y150666504D01*
X-108749967Y150666504D02*
X-108626158Y150604599D01*
X-108626158Y150604599D02*
X-108564253Y150542694D01*
X-108564253Y150542694D02*
X-108502348Y150418885D01*
X-108502348Y150418885D02*
X-108502348Y149985551D01*
D12*
X-124497181Y144065666D02*
X-123782896Y144065666D01*
X-123782896Y144065666D02*
X-123640039Y144018047D01*
X-123640039Y144018047D02*
X-123544800Y143922809D01*
X-123544800Y143922809D02*
X-123497181Y143779952D01*
X-123497181Y143779952D02*
X-123497181Y143684714D01*
X-124401943Y144494238D02*
X-124449562Y144541857D01*
X-124449562Y144541857D02*
X-124497181Y144637095D01*
X-124497181Y144637095D02*
X-124497181Y144875190D01*
X-124497181Y144875190D02*
X-124449562Y144970428D01*
X-124449562Y144970428D02*
X-124401943Y145018047D01*
X-124401943Y145018047D02*
X-124306705Y145065666D01*
X-124306705Y145065666D02*
X-124211467Y145065666D01*
X-124211467Y145065666D02*
X-124068610Y145018047D01*
X-124068610Y145018047D02*
X-123497181Y144446619D01*
X-123497181Y144446619D02*
X-123497181Y145065666D01*
X-104812181Y144751466D02*
X-104097896Y144751466D01*
X-104097896Y144751466D02*
X-103955039Y144703847D01*
X-103955039Y144703847D02*
X-103859800Y144608609D01*
X-103859800Y144608609D02*
X-103812181Y144465752D01*
X-103812181Y144465752D02*
X-103812181Y144370514D01*
X-104478848Y145656228D02*
X-103812181Y145656228D01*
X-104859800Y145418133D02*
X-104145515Y145180038D01*
X-104145515Y145180038D02*
X-104145515Y145799085D01*
%TO.C,G1*%
G36*
X-118467489Y143336469D02*
G01*
X-118762609Y143336469D01*
X-118762609Y142483900D01*
X-118952797Y142483900D01*
X-118952797Y143336469D01*
X-119247917Y143336469D01*
X-119247917Y143520099D01*
X-118467489Y143520099D01*
X-118467489Y143336469D01*
G37*
G36*
X-118172369Y143113490D02*
G01*
X-117693619Y143113490D01*
X-117693619Y143520099D01*
X-117503430Y143520099D01*
X-117503430Y142483900D01*
X-117693619Y142483900D01*
X-117693619Y142929859D01*
X-118172369Y142929859D01*
X-118172369Y142483900D01*
X-118362557Y142483900D01*
X-118362557Y143520099D01*
X-118172369Y143520099D01*
X-118172369Y143113490D01*
G37*
G36*
X-113502914Y143336469D02*
G01*
X-113975106Y143336469D01*
X-113975106Y143113490D01*
X-113614403Y143113490D01*
X-113614403Y142929859D01*
X-113975106Y142929859D01*
X-113975106Y142667530D01*
X-113489797Y142667530D01*
X-113489797Y142483900D01*
X-114171852Y142483900D01*
X-114171852Y143520099D01*
X-113502914Y143520099D01*
X-113502914Y143336469D01*
G37*
G36*
X-115841642Y143187270D02*
G01*
X-115621263Y142854440D01*
X-115621242Y143187270D01*
X-115621220Y143520099D01*
X-115431031Y143520099D01*
X-115431031Y142483900D01*
X-115586302Y142483900D01*
X-115823454Y142839684D01*
X-116060606Y143195467D01*
X-116060614Y142839684D01*
X-116060621Y142483900D01*
X-116250809Y142483900D01*
X-116250809Y143520099D01*
X-116062021Y143520099D01*
X-115841642Y143187270D01*
G37*
G36*
X-112382735Y142234343D02*
G01*
X-112354883Y142233267D01*
X-112337651Y142231342D01*
X-112329797Y142228462D01*
X-112328992Y142226806D01*
X-112330102Y142219245D01*
X-112333317Y142199766D01*
X-112338464Y142169369D01*
X-112345371Y142129053D01*
X-112353863Y142079819D01*
X-112363769Y142022665D01*
X-112374915Y141958592D01*
X-112387128Y141888599D01*
X-112400236Y141813684D01*
X-112414065Y141734849D01*
X-112417528Y141715142D01*
X-112431502Y141635544D01*
X-112444798Y141559656D01*
X-112457242Y141488472D01*
X-112468662Y141422989D01*
X-112478885Y141364203D01*
X-112487738Y141313109D01*
X-112495048Y141270703D01*
X-112500643Y141237980D01*
X-112504349Y141215938D01*
X-112505995Y141205571D01*
X-112506064Y141204923D01*
X-112512382Y141202350D01*
X-112530395Y141200359D01*
X-112558691Y141199043D01*
X-112595858Y141198498D01*
X-112601978Y141198488D01*
X-112697892Y141198488D01*
X-112694487Y141216523D01*
X-112692835Y141225734D01*
X-112689102Y141246834D01*
X-112683469Y141278793D01*
X-112676118Y141320579D01*
X-112667229Y141371161D01*
X-112656984Y141429510D01*
X-112645564Y141494593D01*
X-112633149Y141565380D01*
X-112619921Y141640841D01*
X-112606060Y141719944D01*
X-112603492Y141734609D01*
X-112515901Y142234659D01*
X-112422446Y142234673D01*
X-112382735Y142234343D01*
G37*
G36*
X-111136613Y144794034D02*
G01*
X-111138154Y144784833D01*
X-111141782Y144763739D01*
X-111147320Y144731781D01*
X-111154586Y144689985D01*
X-111163403Y144639378D01*
X-111173592Y144580987D01*
X-111184972Y144515839D01*
X-111197366Y144444962D01*
X-111210593Y144369382D01*
X-111224475Y144290127D01*
X-111227533Y144272679D01*
X-111315746Y143769359D01*
X-111409201Y143769335D01*
X-111447533Y143769585D01*
X-111474400Y143770456D01*
X-111491445Y143772101D01*
X-111500311Y143774674D01*
X-111502655Y143777993D01*
X-111501543Y143785855D01*
X-111498349Y143805425D01*
X-111493282Y143835499D01*
X-111486555Y143874876D01*
X-111478379Y143922351D01*
X-111468966Y143976722D01*
X-111458526Y144036787D01*
X-111447271Y144101341D01*
X-111435413Y144169181D01*
X-111423162Y144239106D01*
X-111410730Y144309911D01*
X-111398328Y144380394D01*
X-111386169Y144449352D01*
X-111374462Y144515581D01*
X-111363419Y144577879D01*
X-111353252Y144635043D01*
X-111344172Y144685869D01*
X-111336391Y144729155D01*
X-111330119Y144763697D01*
X-111325568Y144788293D01*
X-111322949Y144801739D01*
X-111322444Y144803872D01*
X-111317192Y144807382D01*
X-111303522Y144809830D01*
X-111280070Y144811332D01*
X-111245472Y144812006D01*
X-111226672Y144812069D01*
X-111133906Y144812069D01*
X-111136613Y144794034D01*
G37*
G36*
X-111879659Y144797313D02*
G01*
X-111881318Y144788607D01*
X-111885047Y144768015D01*
X-111890663Y144736571D01*
X-111897984Y144695311D01*
X-111906828Y144645270D01*
X-111917011Y144587483D01*
X-111928351Y144522985D01*
X-111940666Y144452811D01*
X-111953772Y144377996D01*
X-111967488Y144299575D01*
X-111968467Y144293970D01*
X-111982231Y144215236D01*
X-111995403Y144139961D01*
X-112007800Y144069188D01*
X-112019238Y144003962D01*
X-112029533Y143945327D01*
X-112038503Y143894326D01*
X-112045963Y143852005D01*
X-112051730Y143819407D01*
X-112055621Y143797577D01*
X-112057452Y143787558D01*
X-112057494Y143787347D01*
X-112061147Y143769312D01*
X-112251715Y143769312D01*
X-112248159Y143784068D01*
X-112246471Y143792813D01*
X-112242717Y143813425D01*
X-112237083Y143844849D01*
X-112229756Y143886033D01*
X-112220921Y143935920D01*
X-112210766Y143993457D01*
X-112199477Y144057590D01*
X-112187240Y144127263D01*
X-112174241Y144201423D01*
X-112162066Y144271016D01*
X-112148435Y144348930D01*
X-112135319Y144423770D01*
X-112122913Y144494424D01*
X-112111416Y144559780D01*
X-112101022Y144618725D01*
X-112091928Y144670146D01*
X-112084331Y144712932D01*
X-112078428Y144745969D01*
X-112074413Y144768146D01*
X-112072630Y144777639D01*
X-112065733Y144812069D01*
X-111876224Y144812069D01*
X-111879659Y144797313D01*
G37*
G36*
X-110864434Y142233774D02*
G01*
X-110847948Y142232892D01*
X-110838650Y142230970D01*
X-110834566Y142227805D01*
X-110833717Y142223657D01*
X-110834830Y142215530D01*
X-110838053Y142195496D01*
X-110843213Y142164565D01*
X-110850137Y142123745D01*
X-110858649Y142074047D01*
X-110868578Y142016478D01*
X-110879748Y141952050D01*
X-110891987Y141881770D01*
X-110905121Y141806648D01*
X-110918977Y141727693D01*
X-110922253Y141709066D01*
X-110936227Y141629597D01*
X-110949522Y141553898D01*
X-110961966Y141482958D01*
X-110973386Y141417765D01*
X-110983609Y141359310D01*
X-110992462Y141308581D01*
X-110999772Y141266569D01*
X-111005367Y141234261D01*
X-111009074Y141212647D01*
X-111010719Y141202717D01*
X-111010789Y141202178D01*
X-111016962Y141200873D01*
X-111033946Y141199771D01*
X-111059435Y141198961D01*
X-111091123Y141198533D01*
X-111105883Y141198488D01*
X-111139471Y141198807D01*
X-111167808Y141199685D01*
X-111188598Y141201003D01*
X-111199545Y141202641D01*
X-111200656Y141203407D01*
X-111199493Y141210487D01*
X-111196223Y141229500D01*
X-111191018Y141259461D01*
X-111184051Y141299388D01*
X-111175494Y141348295D01*
X-111165519Y141405198D01*
X-111154298Y141469114D01*
X-111142005Y141539058D01*
X-111128811Y141614047D01*
X-111114890Y141693097D01*
X-111110172Y141719867D01*
X-111020010Y142231409D01*
X-110926863Y142233228D01*
X-110890081Y142233819D01*
X-110864434Y142233774D01*
G37*
G36*
X-111583489Y142219932D02*
G01*
X-111585166Y142211233D01*
X-111588916Y142190645D01*
X-111594554Y142159198D01*
X-111601900Y142117924D01*
X-111610771Y142067853D01*
X-111620983Y142010019D01*
X-111632356Y141945451D01*
X-111644706Y141875181D01*
X-111657852Y141800241D01*
X-111671610Y141721661D01*
X-111673071Y141713309D01*
X-111686871Y141634508D01*
X-111700073Y141559313D01*
X-111712497Y141488746D01*
X-111723961Y141423830D01*
X-111734283Y141365587D01*
X-111743281Y141315040D01*
X-111750774Y141273211D01*
X-111756581Y141241122D01*
X-111760519Y141219795D01*
X-111762407Y141210254D01*
X-111762482Y141209965D01*
X-111765054Y141205428D01*
X-111770995Y141202261D01*
X-111782338Y141200223D01*
X-111801116Y141199075D01*
X-111829361Y141198578D01*
X-111859907Y141198488D01*
X-111896796Y141198608D01*
X-111922476Y141199126D01*
X-111938855Y141200284D01*
X-111947840Y141202319D01*
X-111951337Y141205472D01*
X-111951257Y141209965D01*
X-111949720Y141218134D01*
X-111946111Y141238198D01*
X-111940609Y141269132D01*
X-111933396Y141309909D01*
X-111924652Y141359503D01*
X-111914557Y141416888D01*
X-111903294Y141481039D01*
X-111891041Y141550929D01*
X-111877980Y141625532D01*
X-111864292Y141703822D01*
X-111863207Y141710030D01*
X-111849445Y141788764D01*
X-111836274Y141864039D01*
X-111823877Y141934812D01*
X-111812440Y142000038D01*
X-111802144Y142058674D01*
X-111793173Y142109674D01*
X-111785712Y142151995D01*
X-111779942Y142184593D01*
X-111776049Y142206423D01*
X-111774215Y142216442D01*
X-111774173Y142216653D01*
X-111770500Y142234688D01*
X-111579932Y142234688D01*
X-111583489Y142219932D01*
G37*
G36*
X-111463433Y143518838D02*
G01*
X-111452440Y143518645D01*
X-111361060Y143516820D01*
X-111431242Y143116769D01*
X-111443769Y143045333D01*
X-111455707Y142977193D01*
X-111466849Y142913540D01*
X-111476987Y142855565D01*
X-111485912Y142804458D01*
X-111493417Y142761410D01*
X-111499294Y142727612D01*
X-111503334Y142704255D01*
X-111505331Y142692529D01*
X-111505397Y142692124D01*
X-111509369Y142667530D01*
X-111332219Y142667530D01*
X-111279137Y142667467D01*
X-111237746Y142667218D01*
X-111206620Y142666698D01*
X-111184333Y142665821D01*
X-111169460Y142664501D01*
X-111160576Y142662651D01*
X-111156255Y142660185D01*
X-111155072Y142657018D01*
X-111155070Y142656827D01*
X-111156167Y142646503D01*
X-111159158Y142626158D01*
X-111163595Y142598676D01*
X-111169028Y142566941D01*
X-111169367Y142565011D01*
X-111183665Y142483900D01*
X-111457929Y142483900D01*
X-111516464Y142483938D01*
X-111570718Y142484046D01*
X-111619335Y142484216D01*
X-111660960Y142484441D01*
X-111694235Y142484711D01*
X-111717804Y142485019D01*
X-111730310Y142485357D01*
X-111731992Y142485540D01*
X-111730280Y142496623D01*
X-111726520Y142519000D01*
X-111720925Y142551487D01*
X-111713706Y142592901D01*
X-111705076Y142642057D01*
X-111695245Y142697771D01*
X-111684426Y142758860D01*
X-111672831Y142824139D01*
X-111660671Y142892425D01*
X-111648159Y142962533D01*
X-111635506Y143033280D01*
X-111622924Y143103481D01*
X-111610625Y143171953D01*
X-111598821Y143237511D01*
X-111587724Y143298972D01*
X-111577545Y143355152D01*
X-111568496Y143404867D01*
X-111560790Y143446932D01*
X-111554637Y143480165D01*
X-111550251Y143503380D01*
X-111547842Y143515394D01*
X-111547460Y143516830D01*
X-111539927Y143518022D01*
X-111521760Y143518786D01*
X-111495436Y143519074D01*
X-111463433Y143518838D01*
G37*
G36*
X-110442079Y144811891D02*
G01*
X-110413825Y144811400D01*
X-110393114Y144810664D01*
X-110382262Y144809749D01*
X-110381199Y144809341D01*
X-110382306Y144802361D01*
X-110385487Y144783658D01*
X-110390533Y144754425D01*
X-110397233Y144715853D01*
X-110405378Y144669137D01*
X-110414758Y144615467D01*
X-110425163Y144556038D01*
X-110436383Y144492041D01*
X-110448208Y144424670D01*
X-110460429Y144355117D01*
X-110472836Y144284575D01*
X-110485219Y144214237D01*
X-110497368Y144145295D01*
X-110509073Y144078941D01*
X-110520125Y144016370D01*
X-110530314Y143958772D01*
X-110539429Y143907342D01*
X-110547261Y143863271D01*
X-110553600Y143827753D01*
X-110558237Y143801980D01*
X-110560961Y143787144D01*
X-110561571Y143784068D01*
X-110563414Y143778300D01*
X-110567119Y143774273D01*
X-110574758Y143771673D01*
X-110588401Y143770190D01*
X-110610122Y143769510D01*
X-110641991Y143769320D01*
X-110659435Y143769312D01*
X-110696396Y143769431D01*
X-110722145Y143769947D01*
X-110738587Y143771098D01*
X-110747626Y143773123D01*
X-110751166Y143776260D01*
X-110751111Y143780748D01*
X-110751102Y143780789D01*
X-110749564Y143788957D01*
X-110745952Y143809021D01*
X-110740447Y143839954D01*
X-110733229Y143880730D01*
X-110724479Y143930323D01*
X-110714378Y143987708D01*
X-110703106Y144051857D01*
X-110690845Y144121746D01*
X-110677775Y144196348D01*
X-110664078Y144274637D01*
X-110662991Y144280853D01*
X-110649207Y144359686D01*
X-110636012Y144435135D01*
X-110623591Y144506148D01*
X-110612127Y144571671D01*
X-110601806Y144630650D01*
X-110592812Y144682034D01*
X-110585328Y144724768D01*
X-110579540Y144757800D01*
X-110575631Y144780075D01*
X-110573786Y144790542D01*
X-110573748Y144790755D01*
X-110569928Y144812069D01*
X-110475564Y144812069D01*
X-110442079Y144811891D01*
G37*
G36*
X-114970316Y143518366D02*
G01*
X-114901921Y143517595D01*
X-114845049Y143516736D01*
X-114798107Y143515566D01*
X-114759504Y143513860D01*
X-114727646Y143511395D01*
X-114700942Y143507944D01*
X-114677798Y143503285D01*
X-114656623Y143497193D01*
X-114635823Y143489443D01*
X-114613807Y143479811D01*
X-114588981Y143468072D01*
X-114578905Y143463218D01*
X-114547024Y143446855D01*
X-114521218Y143430729D01*
X-114497024Y143411610D01*
X-114469976Y143386270D01*
X-114463225Y143379566D01*
X-114436077Y143351279D01*
X-114415857Y143326820D01*
X-114399334Y143301720D01*
X-114383276Y143271511D01*
X-114379558Y143263886D01*
X-114361481Y143224943D01*
X-114347962Y143191274D01*
X-114338362Y143159730D01*
X-114332040Y143127160D01*
X-114328354Y143090412D01*
X-114326665Y143046336D01*
X-114326321Y143002000D01*
X-114326849Y142949240D01*
X-114328859Y142906449D01*
X-114332993Y142870506D01*
X-114339891Y142838292D01*
X-114350194Y142806685D01*
X-114364544Y142772565D01*
X-114380197Y142739671D01*
X-114418814Y142675641D01*
X-114467510Y142619409D01*
X-114525149Y142571973D01*
X-114590595Y142534328D01*
X-114634865Y142516247D01*
X-114659710Y142507988D01*
X-114683491Y142501245D01*
X-114707880Y142495870D01*
X-114734548Y142491711D01*
X-114765165Y142488620D01*
X-114801402Y142486447D01*
X-114844931Y142485041D01*
X-114897421Y142484252D01*
X-114960545Y142483932D01*
X-114995486Y142483900D01*
X-115221168Y142483900D01*
X-115221168Y143350487D01*
X-115030980Y143350487D01*
X-115030980Y142653323D01*
X-114885059Y142655508D01*
X-114739139Y142657693D01*
X-114695194Y142678511D01*
X-114644828Y142709006D01*
X-114603706Y142748459D01*
X-114571757Y142797005D01*
X-114548915Y142854779D01*
X-114535109Y142921915D01*
X-114530272Y142998549D01*
X-114530264Y143002000D01*
X-114534724Y143079038D01*
X-114548149Y143146573D01*
X-114570608Y143204740D01*
X-114602170Y143253674D01*
X-114642903Y143293508D01*
X-114692877Y143324379D01*
X-114695194Y143325488D01*
X-114739139Y143346307D01*
X-114885059Y143348397D01*
X-115030980Y143350487D01*
X-115221168Y143350487D01*
X-115221168Y143521063D01*
X-114970316Y143518366D01*
G37*
G36*
X-113052221Y143520041D02*
G01*
X-113002185Y143519815D01*
X-112962015Y143519344D01*
X-112930089Y143518550D01*
X-112904780Y143517356D01*
X-112884464Y143515683D01*
X-112867518Y143513456D01*
X-112852315Y143510595D01*
X-112837232Y143507024D01*
X-112836663Y143506879D01*
X-112772363Y143485296D01*
X-112718617Y143455941D01*
X-112675326Y143418688D01*
X-112642393Y143373411D01*
X-112619721Y143319982D01*
X-112607210Y143258277D01*
X-112604437Y143206914D01*
X-112609194Y143140888D01*
X-112623756Y143083140D01*
X-112648558Y143032772D01*
X-112684036Y142988883D01*
X-112727391Y142952813D01*
X-112748466Y142937567D01*
X-112764711Y142924889D01*
X-112773628Y142916769D01*
X-112774584Y142915219D01*
X-112771687Y142908642D01*
X-112763384Y142892083D01*
X-112750502Y142867102D01*
X-112733870Y142835259D01*
X-112714315Y142798114D01*
X-112692664Y142757225D01*
X-112669744Y142714152D01*
X-112646384Y142670455D01*
X-112623411Y142627693D01*
X-112601652Y142587425D01*
X-112581935Y142551212D01*
X-112567458Y142524889D01*
X-112544771Y142483900D01*
X-112651663Y142484039D01*
X-112758555Y142484177D01*
X-112857989Y142675867D01*
X-112957422Y142867556D01*
X-113148770Y142871186D01*
X-113148770Y142483900D01*
X-113338958Y142483900D01*
X-113338958Y143364000D01*
X-113148770Y143364000D01*
X-113148770Y143026910D01*
X-113038919Y143029211D01*
X-112998307Y143030148D01*
X-112968265Y143031252D01*
X-112946249Y143032898D01*
X-112929717Y143035461D01*
X-112916124Y143039317D01*
X-112902926Y143044842D01*
X-112890005Y143051186D01*
X-112852382Y143075231D01*
X-112826116Y143104362D01*
X-112809928Y143140143D01*
X-112806691Y143153143D01*
X-112801682Y143202247D01*
X-112807497Y143247031D01*
X-112823549Y143286079D01*
X-112849248Y143317971D01*
X-112884006Y143341288D01*
X-112884922Y143341719D01*
X-112899461Y143348155D01*
X-112912963Y143352860D01*
X-112927925Y143356164D01*
X-112946845Y143358397D01*
X-112972220Y143359889D01*
X-113006548Y143360970D01*
X-113035640Y143361625D01*
X-113148770Y143364000D01*
X-113338958Y143364000D01*
X-113338958Y143520099D01*
X-113113748Y143520099D01*
X-113052221Y143520041D01*
G37*
G36*
X-117115032Y143177432D02*
G01*
X-117114527Y143101499D01*
X-117114039Y143037498D01*
X-117113517Y142984243D01*
X-117112910Y142940549D01*
X-117112166Y142905232D01*
X-117111234Y142877106D01*
X-117110062Y142854986D01*
X-117108600Y142837689D01*
X-117106795Y142824028D01*
X-117104597Y142812818D01*
X-117101954Y142802875D01*
X-117098815Y142793014D01*
X-117098309Y142791501D01*
X-117075823Y142741790D01*
X-117045162Y142702332D01*
X-117006336Y142673135D01*
X-116959357Y142654203D01*
X-116904236Y142645544D01*
X-116840985Y142647164D01*
X-116836470Y142647639D01*
X-116784422Y142658283D01*
X-116740948Y142678101D01*
X-116705670Y142707516D01*
X-116678206Y142746947D01*
X-116658178Y142796818D01*
X-116645205Y142857549D01*
X-116644804Y142860379D01*
X-116643131Y142879360D01*
X-116641640Y142910248D01*
X-116640354Y142951838D01*
X-116639299Y143002921D01*
X-116638497Y143062290D01*
X-116637973Y143128738D01*
X-116637751Y143201058D01*
X-116637745Y143215617D01*
X-116637745Y143520099D01*
X-116447556Y143520099D01*
X-116447556Y143199221D01*
X-116447643Y143116904D01*
X-116447956Y143046442D01*
X-116448579Y142986574D01*
X-116449591Y142936039D01*
X-116451074Y142893577D01*
X-116453110Y142857928D01*
X-116455780Y142827829D01*
X-116459165Y142802021D01*
X-116463346Y142779243D01*
X-116468405Y142758234D01*
X-116474423Y142737733D01*
X-116478038Y142726617D01*
X-116506403Y142659389D01*
X-116543400Y142602018D01*
X-116589159Y142554374D01*
X-116643807Y142516329D01*
X-116707473Y142487754D01*
X-116719722Y142483662D01*
X-116755629Y142475294D01*
X-116800538Y142469419D01*
X-116850558Y142466134D01*
X-116901796Y142465535D01*
X-116950359Y142467719D01*
X-116992355Y142472784D01*
X-117009726Y142476440D01*
X-117077857Y142499596D01*
X-117137217Y142532335D01*
X-117188002Y142574853D01*
X-117230407Y142627344D01*
X-117264631Y142690004D01*
X-117287887Y142752894D01*
X-117291116Y142763851D01*
X-117293849Y142774480D01*
X-117296138Y142785950D01*
X-117298031Y142799429D01*
X-117299576Y142816083D01*
X-117300824Y142837082D01*
X-117301824Y142863593D01*
X-117302625Y142896785D01*
X-117303276Y142937824D01*
X-117303826Y142987879D01*
X-117304325Y143048118D01*
X-117304821Y143119709D01*
X-117305090Y143161037D01*
X-117307401Y143520099D01*
X-117117242Y143520099D01*
X-117115032Y143177432D01*
G37*
G36*
X-111924312Y143519983D02*
G01*
X-111866494Y143519695D01*
X-111814155Y143519237D01*
X-111768581Y143518630D01*
X-111731055Y143517895D01*
X-111702863Y143517052D01*
X-111685290Y143516121D01*
X-111679601Y143515181D01*
X-111680597Y143507223D01*
X-111683413Y143488882D01*
X-111687644Y143462700D01*
X-111692886Y143431220D01*
X-111694199Y143423453D01*
X-111708923Y143336645D01*
X-111921876Y143334917D01*
X-112134829Y143333190D01*
X-112152894Y143234817D01*
X-112159228Y143199711D01*
X-112164634Y143168568D01*
X-112168685Y143143953D01*
X-112170950Y143128433D01*
X-112171277Y143124966D01*
X-112170561Y143121424D01*
X-112167196Y143118693D01*
X-112159690Y143116669D01*
X-112146550Y143115246D01*
X-112126281Y143114322D01*
X-112097392Y143113790D01*
X-112058387Y143113548D01*
X-112007775Y143113490D01*
X-112007197Y143113490D01*
X-111956539Y143113437D01*
X-111917531Y143113210D01*
X-111888709Y143112704D01*
X-111868605Y143111815D01*
X-111855755Y143110438D01*
X-111848693Y143108468D01*
X-111845953Y143105802D01*
X-111846069Y143102335D01*
X-111846160Y143102013D01*
X-111848344Y143092144D01*
X-111852105Y143072874D01*
X-111856882Y143047313D01*
X-111862118Y143018573D01*
X-111867250Y142989765D01*
X-111871722Y142964001D01*
X-111874972Y142944390D01*
X-111876442Y142934046D01*
X-111876474Y142933446D01*
X-111882741Y142932470D01*
X-111900377Y142931594D01*
X-111927635Y142930856D01*
X-111962767Y142930295D01*
X-112004026Y142929947D01*
X-112042069Y142929849D01*
X-112207664Y142929839D01*
X-112232891Y142783928D01*
X-112241215Y142735831D01*
X-112249747Y142686610D01*
X-112257904Y142639620D01*
X-112265105Y142598218D01*
X-112270767Y142565759D01*
X-112271606Y142560959D01*
X-112285095Y142483900D01*
X-112379948Y142483900D01*
X-112416912Y142483952D01*
X-112442692Y142484315D01*
X-112459222Y142485298D01*
X-112468436Y142487212D01*
X-112472268Y142490365D01*
X-112472649Y142495068D01*
X-112472046Y142498656D01*
X-112470500Y142507328D01*
X-112466870Y142527901D01*
X-112461334Y142559357D01*
X-112454073Y142600678D01*
X-112445264Y142650845D01*
X-112435086Y142708839D01*
X-112423718Y142773642D01*
X-112411339Y142844236D01*
X-112398127Y142919602D01*
X-112384262Y142998722D01*
X-112381106Y143016737D01*
X-112292921Y143520063D01*
X-111986324Y143520081D01*
X-111924312Y143519983D01*
G37*
G36*
X-110322460Y143519702D02*
G01*
X-110294017Y143518898D01*
X-110276218Y143517373D01*
X-110267832Y143515031D01*
X-110267114Y143512435D01*
X-110271932Y143505923D01*
X-110284031Y143490033D01*
X-110302652Y143465751D01*
X-110327037Y143434060D01*
X-110356425Y143395947D01*
X-110390059Y143352396D01*
X-110427178Y143304392D01*
X-110467024Y143252920D01*
X-110486131Y143228258D01*
X-110526938Y143175577D01*
X-110565340Y143125958D01*
X-110600581Y143080380D01*
X-110631906Y143039820D01*
X-110658562Y143005257D01*
X-110679794Y142977668D01*
X-110694848Y142958031D01*
X-110702969Y142947323D01*
X-110704174Y142945657D01*
X-110705907Y142938463D01*
X-110709604Y142920153D01*
X-110714938Y142892526D01*
X-110721581Y142857382D01*
X-110729203Y142816520D01*
X-110737477Y142771739D01*
X-110746074Y142724837D01*
X-110754667Y142677614D01*
X-110762926Y142631869D01*
X-110770524Y142589400D01*
X-110777133Y142552008D01*
X-110782424Y142521490D01*
X-110786068Y142499646D01*
X-110787738Y142488275D01*
X-110787809Y142487293D01*
X-110793983Y142486094D01*
X-110810969Y142485081D01*
X-110836462Y142484336D01*
X-110868159Y142483942D01*
X-110883028Y142483900D01*
X-110978247Y142483900D01*
X-110974817Y142498656D01*
X-110972402Y142510695D01*
X-110968247Y142533190D01*
X-110962674Y142564269D01*
X-110956004Y142602064D01*
X-110948558Y142644705D01*
X-110940656Y142690320D01*
X-110932621Y142737040D01*
X-110924772Y142782994D01*
X-110917432Y142826314D01*
X-110910921Y142865128D01*
X-110905560Y142897566D01*
X-110901671Y142921759D01*
X-110899575Y142935836D01*
X-110899299Y142938494D01*
X-110901777Y142946404D01*
X-110908870Y142965130D01*
X-110920067Y142993417D01*
X-110934858Y143030006D01*
X-110952731Y143073641D01*
X-110973175Y143123066D01*
X-110995679Y143177024D01*
X-111014879Y143222744D01*
X-111038763Y143279530D01*
X-111061123Y143332854D01*
X-111081433Y143381448D01*
X-111099165Y143424042D01*
X-111113792Y143459368D01*
X-111124787Y143486157D01*
X-111131623Y143503140D01*
X-111133738Y143508798D01*
X-111134151Y143513231D01*
X-111131248Y143516311D01*
X-111123178Y143518226D01*
X-111108090Y143519162D01*
X-111084136Y143519310D01*
X-111049465Y143518856D01*
X-111036943Y143518635D01*
X-110936870Y143516820D01*
X-110854943Y143315155D01*
X-110835249Y143266992D01*
X-110816993Y143222949D01*
X-110800781Y143184442D01*
X-110787220Y143152888D01*
X-110776916Y143129700D01*
X-110770474Y143116295D01*
X-110768600Y143113490D01*
X-110763845Y143118581D01*
X-110752184Y143133094D01*
X-110734485Y143155890D01*
X-110711619Y143185827D01*
X-110684456Y143221766D01*
X-110653865Y143262567D01*
X-110620716Y143307089D01*
X-110613680Y143316577D01*
X-110463177Y143519664D01*
X-110362777Y143519882D01*
X-110322460Y143519702D01*
G37*
D10*
%TO.C,J2*%
X-122236000Y148641000D02*
X-122236000Y146841000D01*
X-123686000Y148641000D02*
X-122236000Y148641000D01*
X-126506000Y147371000D02*
X-126506000Y141441000D01*
X-122236000Y146841000D02*
X-121246000Y146841000D01*
X-122236000Y140171000D02*
X-122236000Y141971000D01*
X-123686000Y140171000D02*
X-122236000Y140171000D01*
%TO.C,J4*%
X-106256000Y140171000D02*
X-106256000Y141971000D01*
X-104806000Y140171000D02*
X-106256000Y140171000D01*
X-101986000Y141441000D02*
X-101986000Y147371000D01*
X-106256000Y141971000D02*
X-107246000Y141971000D01*
X-106256000Y148641000D02*
X-106256000Y146841000D01*
X-104806000Y148641000D02*
X-106256000Y148641000D01*
%TD*%
M02*
