%TF.GenerationSoftware,KiCad,Pcbnew,7.0.10-7.0.10~ubuntu23.04.1*%
%TF.CreationDate,2024-02-23T00:51:23+00:00*%
%TF.ProjectId,TFI2CEXT01,54464932-4345-4585-9430-312e6b696361,REV*%
%TF.SameCoordinates,PX78dfd90PY8290510*%
%TF.FileFunction,Copper,L2,Bot*%
%TF.FilePolarity,Positive*%
%FSLAX46Y46*%
G04 Gerber Fmt 4.6, Leading zero omitted, Abs format (unit mm)*
G04 Created by KiCad (PCBNEW 7.0.10-7.0.10~ubuntu23.04.1) date 2024-02-23 00:51:23*
%MOMM*%
%LPD*%
G01*
G04 APERTURE LIST*
G04 Aperture macros list*
%AMRoundRect*
0 Rectangle with rounded corners*
0 $1 Rounding radius*
0 $2 $3 $4 $5 $6 $7 $8 $9 X,Y pos of 4 corners*
0 Add a 4 corners polygon primitive as box body*
4,1,4,$2,$3,$4,$5,$6,$7,$8,$9,$2,$3,0*
0 Add four circle primitives for the rounded corners*
1,1,$1+$1,$2,$3*
1,1,$1+$1,$4,$5*
1,1,$1+$1,$6,$7*
1,1,$1+$1,$8,$9*
0 Add four rect primitives between the rounded corners*
20,1,$1+$1,$2,$3,$4,$5,0*
20,1,$1+$1,$4,$5,$6,$7,0*
20,1,$1+$1,$6,$7,$8,$9,0*
20,1,$1+$1,$8,$9,$2,$3,0*%
G04 Aperture macros list end*
%TA.AperFunction,SMDPad,CuDef*%
%ADD10RoundRect,0.200000X0.200000X0.275000X-0.200000X0.275000X-0.200000X-0.275000X0.200000X-0.275000X0*%
%TD*%
%TA.AperFunction,SMDPad,CuDef*%
%ADD11R,0.450000X1.450000*%
%TD*%
%TA.AperFunction,SMDPad,CuDef*%
%ADD12RoundRect,0.166667X-0.458333X-0.583333X0.458333X-0.583333X0.458333X0.583333X-0.458333X0.583333X0*%
%TD*%
%TA.AperFunction,SMDPad,CuDef*%
%ADD13RoundRect,0.166667X0.458333X0.583333X-0.458333X0.583333X-0.458333X-0.583333X0.458333X-0.583333X0*%
%TD*%
%TA.AperFunction,SMDPad,CuDef*%
%ADD14RoundRect,0.200000X0.275000X-0.200000X0.275000X0.200000X-0.275000X0.200000X-0.275000X-0.200000X0*%
%TD*%
%TA.AperFunction,SMDPad,CuDef*%
%ADD15R,0.700000X0.600000*%
%TD*%
%TA.AperFunction,SMDPad,CuDef*%
%ADD16RoundRect,0.150000X0.700000X-0.150000X0.700000X0.150000X-0.700000X0.150000X-0.700000X-0.150000X0*%
%TD*%
%TA.AperFunction,SMDPad,CuDef*%
%ADD17RoundRect,0.250000X1.100000X-0.250000X1.100000X0.250000X-1.100000X0.250000X-1.100000X-0.250000X0*%
%TD*%
%TA.AperFunction,SMDPad,CuDef*%
%ADD18RoundRect,0.150000X0.150000X-0.512500X0.150000X0.512500X-0.150000X0.512500X-0.150000X-0.512500X0*%
%TD*%
%TA.AperFunction,SMDPad,CuDef*%
%ADD19RoundRect,0.200000X-0.275000X0.200000X-0.275000X-0.200000X0.275000X-0.200000X0.275000X0.200000X0*%
%TD*%
%TA.AperFunction,SMDPad,CuDef*%
%ADD20RoundRect,0.150000X-0.700000X0.150000X-0.700000X-0.150000X0.700000X-0.150000X0.700000X0.150000X0*%
%TD*%
%TA.AperFunction,SMDPad,CuDef*%
%ADD21RoundRect,0.250000X-1.100000X0.250000X-1.100000X-0.250000X1.100000X-0.250000X1.100000X0.250000X0*%
%TD*%
%TA.AperFunction,SMDPad,CuDef*%
%ADD22RoundRect,0.250000X0.475000X-0.250000X0.475000X0.250000X-0.475000X0.250000X-0.475000X-0.250000X0*%
%TD*%
%TA.AperFunction,ViaPad*%
%ADD23C,0.800000*%
%TD*%
%TA.AperFunction,Conductor*%
%ADD24C,0.400000*%
%TD*%
%TA.AperFunction,Conductor*%
%ADD25C,0.250000*%
%TD*%
G04 APERTURE END LIST*
D10*
%TO.P,R4,1*%
%TO.N,+3V3*%
X-113221000Y139446000D03*
%TO.P,R4,2*%
%TO.N,Net-(D3-A)*%
X-114871000Y139446000D03*
%TD*%
D11*
%TO.P,U2,1,EN*%
%TO.N,+3V3*%
X-111039000Y142206000D03*
%TO.P,U2,2,SCLout*%
%TO.N,/SCLout*%
X-111689000Y142206000D03*
%TO.P,U2,3,SCLin*%
%TO.N,/SCLin*%
X-112339000Y142206000D03*
%TO.P,U2,4,GND*%
%TO.N,GND*%
X-112989000Y142206000D03*
%TO.P,U2,5,READY*%
%TO.N,Net-(D3-A)*%
X-112989000Y146606000D03*
%TO.P,U2,6,SDAin*%
%TO.N,/SDAin*%
X-112339000Y146606000D03*
%TO.P,U2,7,SDAout*%
%TO.N,/SDAout*%
X-111689000Y146606000D03*
%TO.P,U2,8,VCC*%
%TO.N,+3V3*%
X-111039000Y146606000D03*
%TD*%
D12*
%TO.P,D1,1,K*%
%TO.N,GND*%
X-120046000Y149906000D03*
D13*
%TO.P,D1,2,A*%
%TO.N,Net-(D1-A)*%
X-116446000Y149906000D03*
%TD*%
D14*
%TO.P,C2,1*%
%TO.N,+5V*%
X-115570000Y141440500D03*
%TO.P,C2,2*%
%TO.N,GND*%
X-115570000Y143090500D03*
%TD*%
D15*
%TO.P,D2,1,K*%
%TO.N,+5V*%
X-119380000Y146301000D03*
%TO.P,D2,2,A*%
%TO.N,GND*%
X-119380000Y147701000D03*
%TD*%
D14*
%TO.P,R5,1*%
%TO.N,+3V3*%
X-109474000Y138494000D03*
%TO.P,R5,2*%
%TO.N,/SCLout*%
X-109474000Y140144000D03*
%TD*%
%TO.P,C3,1*%
%TO.N,+3V3*%
X-115443000Y145580500D03*
%TO.P,C3,2*%
%TO.N,GND*%
X-115443000Y147230500D03*
%TD*%
D16*
%TO.P,J1,1*%
%TO.N,+5V*%
X-122096000Y142531000D03*
%TO.P,J1,2*%
%TO.N,/SCLin*%
X-122096000Y143781000D03*
%TO.P,J1,3*%
%TO.N,/SDAin*%
X-122096000Y145031000D03*
%TO.P,J1,4*%
%TO.N,GND*%
X-122096000Y146281000D03*
D17*
%TO.P,J1,MP*%
X-125296000Y140681000D03*
X-125296000Y148131000D03*
%TD*%
D18*
%TO.P,U1,1,VIN*%
%TO.N,+5V*%
X-117287000Y141864500D03*
%TO.P,U1,2,GND*%
%TO.N,GND*%
X-118237000Y141864500D03*
%TO.P,U1,3,EN*%
%TO.N,+5V*%
X-119187000Y141864500D03*
%TO.P,U1,4,NC*%
%TO.N,unconnected-(U1-NC-Pad4)*%
X-119187000Y144139500D03*
%TO.P,U1,5,VOUT*%
%TO.N,+3V3*%
X-117287000Y144139500D03*
%TD*%
D12*
%TO.P,D3,1,K*%
%TO.N,GND*%
X-120046000Y138906000D03*
D13*
%TO.P,D3,2,A*%
%TO.N,Net-(D3-A)*%
X-116446000Y138906000D03*
%TD*%
D10*
%TO.P,R1,1*%
%TO.N,+5V*%
X-113195500Y149606000D03*
%TO.P,R1,2*%
%TO.N,Net-(D1-A)*%
X-114845500Y149606000D03*
%TD*%
D19*
%TO.P,R6,1*%
%TO.N,+3V3*%
X-109474000Y150278500D03*
%TO.P,R6,2*%
%TO.N,/SDAout*%
X-109474000Y148628500D03*
%TD*%
D14*
%TO.P,R2,1*%
%TO.N,+3V3*%
X-111506000Y138494000D03*
%TO.P,R2,2*%
%TO.N,/SCLin*%
X-111506000Y140144000D03*
%TD*%
D19*
%TO.P,R3,1*%
%TO.N,+3V3*%
X-111506000Y150278500D03*
%TO.P,R3,2*%
%TO.N,/SDAin*%
X-111506000Y148628500D03*
%TD*%
D20*
%TO.P,J3,1*%
%TO.N,+5V*%
X-106396000Y146281000D03*
%TO.P,J3,2*%
%TO.N,/SCLout*%
X-106396000Y145031000D03*
%TO.P,J3,3*%
%TO.N,/SDAout*%
X-106396000Y143781000D03*
%TO.P,J3,4*%
%TO.N,GND*%
X-106396000Y142531000D03*
D21*
%TO.P,J3,MP*%
X-103196000Y148131000D03*
X-103196000Y140681000D03*
%TD*%
D22*
%TO.P,C1,1*%
%TO.N,+5V*%
X-117221000Y145798500D03*
%TO.P,C1,2*%
%TO.N,GND*%
X-117221000Y147698500D03*
%TD*%
D14*
%TO.P,C4,1*%
%TO.N,+3V3*%
X-109093000Y145479000D03*
%TO.P,C4,2*%
%TO.N,GND*%
X-109093000Y147129000D03*
%TD*%
D23*
%TO.N,GND*%
X-103632000Y138938000D03*
X-123698000Y138938000D03*
X-103632000Y149860000D03*
X-105791000Y139573000D03*
X-122174000Y150749000D03*
X-122301000Y138811000D03*
X-120523000Y141224000D03*
X-109728000Y147536500D03*
X-122047000Y148209000D03*
X-102743000Y143510000D03*
X-107061000Y140970000D03*
X-120523000Y148209000D03*
X-102743000Y146558000D03*
X-118519002Y145415000D03*
X-125730000Y138938000D03*
X-122174000Y149733000D03*
X-107061000Y138303000D03*
X-122174000Y140716000D03*
X-125730000Y150368000D03*
X-102743000Y142494000D03*
X-105791000Y140970000D03*
X-102616000Y149860000D03*
X-102616000Y138938000D03*
X-125730000Y144526000D03*
X-107061000Y139573000D03*
X-106426000Y150495000D03*
X-107696000Y150495000D03*
X-125489629Y146116907D03*
X-125730000Y142367000D03*
X-102743000Y145542000D03*
X-113538000Y140589000D03*
X-118237000Y142981500D03*
X-102743000Y144526000D03*
%TO.N,+3V3*%
X-110182500Y146606000D03*
X-114457125Y146600000D03*
%TO.N,+5V*%
X-120269000Y146304000D03*
X-113792000Y148336000D03*
X-106426000Y147320000D03*
X-123571000Y142621000D03*
%TO.N,/SDAin*%
X-123825000Y143764000D03*
X-113535443Y143773778D03*
%TO.N,/SCLin*%
X-120393000Y145031000D03*
X-112395000Y143764000D03*
%TO.N,/SCLout*%
X-110871000Y143764000D03*
X-108094000Y143781000D03*
%TO.N,/SDAout*%
X-111606961Y145022566D03*
X-104946500Y143825798D03*
%TD*%
D24*
%TO.N,GND*%
X-118319011Y145215009D02*
X-118519002Y145415000D01*
X-109283000Y147091500D02*
X-109728000Y147536500D01*
X-117221000Y147701000D02*
X-116165511Y148756489D01*
X-109093000Y147091500D02*
X-109283000Y147091500D01*
X-112989000Y142206000D02*
X-112989000Y141138000D01*
X-118237000Y142981500D02*
X-118319011Y143063511D01*
X-115443000Y148756489D02*
X-115443000Y147193000D01*
X-121031000Y140716000D02*
X-120523000Y141224000D01*
X-118319011Y143063511D02*
X-118319011Y145215009D01*
X-119380000Y147701000D02*
X-117221000Y147701000D01*
X-125730000Y144526000D02*
X-125730000Y142367000D01*
X-118237000Y141864500D02*
X-118237000Y142981500D01*
X-125296000Y146310536D02*
X-125489629Y146116907D01*
X-112989000Y141138000D02*
X-113538000Y140589000D01*
X-122174000Y140716000D02*
X-121031000Y140716000D01*
X-125296000Y148131000D02*
X-125296000Y146310536D01*
X-116165511Y148756489D02*
X-115443000Y148756489D01*
%TO.N,+3V3*%
X-117175000Y144575000D02*
X-116325000Y144575000D01*
X-108599480Y141124480D02*
X-109093000Y141618000D01*
X-115443000Y145618000D02*
X-114465600Y146595400D01*
X-109918000Y141618000D02*
X-109093000Y141618000D01*
X-113258500Y139446000D02*
X-112420500Y139446000D01*
X-117287000Y144139500D02*
X-117287000Y144463000D01*
X-109093000Y141618000D02*
X-109093000Y143256000D01*
X-111506000Y138531500D02*
X-109474000Y138531500D01*
X-115443000Y145618000D02*
X-115443000Y145457000D01*
X-110506000Y142206000D02*
X-109918000Y141618000D01*
X-111039000Y146606000D02*
X-110182500Y146606000D01*
X-111039000Y142206000D02*
X-110506000Y142206000D01*
X-115443000Y145457000D02*
X-116325000Y144575000D01*
X-114465600Y146595400D02*
X-114457125Y146595400D01*
X-110617000Y150241000D02*
X-109474000Y150241000D01*
X-117287000Y143758500D02*
X-117287000Y143788000D01*
X-110182500Y146606000D02*
X-109093000Y145516500D01*
X-109474000Y138531500D02*
X-108599480Y139406020D01*
X-117287000Y144463000D02*
X-117175000Y144575000D01*
X-108218480Y146391020D02*
X-108218480Y148985480D01*
X-109093000Y143256000D02*
X-109093000Y145516500D01*
X-108599480Y139406020D02*
X-108599480Y141124480D01*
X-109093000Y145516500D02*
X-108218480Y146391020D01*
X-111506000Y150241000D02*
X-109474000Y150241000D01*
X-108218480Y148985480D02*
X-109474000Y150241000D01*
X-112420500Y139446000D02*
X-111506000Y138531500D01*
%TO.N,+5V*%
X-115956500Y141864500D02*
X-115570000Y141478000D01*
X-117686520Y140802480D02*
X-117287000Y141202000D01*
X-123481000Y142531000D02*
X-123571000Y142621000D01*
X-117287000Y141864500D02*
X-115956500Y141864500D01*
X-106426000Y147320000D02*
X-106426000Y146311000D01*
X-117287000Y141202000D02*
X-117287000Y141864500D01*
X-119380000Y146301000D02*
X-120266000Y146301000D01*
X-113792000Y148336000D02*
X-113792000Y149047000D01*
X-122096000Y142531000D02*
X-123481000Y142531000D01*
X-120266000Y146301000D02*
X-120269000Y146304000D01*
X-119187000Y141864500D02*
X-119187000Y141202000D01*
X-113792000Y149047000D02*
X-113233000Y149606000D01*
X-117726000Y146301000D02*
X-117221000Y145796000D01*
X-119380000Y146301000D02*
X-117726000Y146301000D01*
X-119853500Y142531000D02*
X-119187000Y141864500D01*
X-122096000Y142531000D02*
X-122081480Y142545520D01*
X-119187000Y141202000D02*
X-118787480Y140802480D01*
X-106426000Y146311000D02*
X-106396000Y146281000D01*
X-118787480Y140802480D02*
X-117686520Y140802480D01*
X-122096000Y142531000D02*
X-119853500Y142531000D01*
%TO.N,Net-(D1-A)*%
X-114808000Y149606000D02*
X-115871000Y149606000D01*
X-115871000Y149606000D02*
X-116171000Y149906000D01*
D25*
%TO.N,Net-(D3-A)*%
X-115906000Y139446000D02*
X-116446000Y138906000D01*
D24*
X-114427000Y139852500D02*
X-114833500Y139446000D01*
X-114427000Y144668000D02*
X-114427000Y139852500D01*
X-114833500Y139446000D02*
X-115631000Y139446000D01*
X-112989000Y146106000D02*
X-114427000Y144668000D01*
D25*
X-114871000Y139446000D02*
X-115906000Y139446000D01*
D24*
X-115631000Y139446000D02*
X-116171000Y138906000D01*
X-112989000Y146606000D02*
X-112989000Y146106000D01*
%TO.N,/SDAin*%
X-122096000Y145031000D02*
X-123447000Y145031000D01*
X-112406472Y144902749D02*
X-112406472Y145406332D01*
X-123825000Y144653000D02*
X-123825000Y143764000D01*
X-111506000Y148666000D02*
X-112339000Y147833000D01*
X-112339000Y147833000D02*
X-112339000Y146606000D01*
X-113535443Y143773778D02*
X-112406472Y144902749D01*
X-112339000Y145473804D02*
X-112339000Y146606000D01*
X-112406472Y145406332D02*
X-112339000Y145473804D01*
X-123447000Y145031000D02*
X-123825000Y144653000D01*
%TO.N,/SCLin*%
X-120633000Y143781000D02*
X-120393000Y144021000D01*
X-112339000Y143708000D02*
X-112339000Y142206000D01*
X-112395000Y143764000D02*
X-112339000Y143708000D01*
X-112339000Y142206000D02*
X-112339000Y140939500D01*
X-112339000Y140939500D02*
X-111506000Y140106500D01*
X-122096000Y143781000D02*
X-120633000Y143781000D01*
X-120393000Y144021000D02*
X-120393000Y145031000D01*
%TO.N,/SCLout*%
X-111689000Y141186880D02*
X-111445640Y140943520D01*
X-110311020Y140943520D02*
X-109474000Y140106500D01*
X-111689000Y142206000D02*
X-111689000Y141186880D01*
X-108094000Y144356000D02*
X-108094000Y143781000D01*
X-111689000Y143225120D02*
X-111689000Y142206000D01*
X-111445640Y140943520D02*
X-110311020Y140943520D01*
X-110871000Y143764000D02*
X-111150120Y143764000D01*
X-111150120Y143764000D02*
X-111689000Y143225120D01*
X-106396000Y145031000D02*
X-107419000Y145031000D01*
X-107419000Y145031000D02*
X-108094000Y144356000D01*
%TO.N,/SDAout*%
X-111606961Y145022566D02*
X-111689000Y145104605D01*
X-104946500Y143825798D02*
X-104991298Y143781000D01*
X-111689000Y145104605D02*
X-111689000Y146606000D01*
X-104991298Y143781000D02*
X-106396000Y143781000D01*
X-111689000Y146606000D02*
X-111689000Y147518000D01*
X-111378020Y147828980D02*
X-110986584Y147828980D01*
X-111689000Y147518000D02*
X-111378020Y147828980D01*
X-110149564Y148666000D02*
X-109474000Y148666000D01*
X-110986584Y147828980D02*
X-110149564Y148666000D01*
%TD*%
%TA.AperFunction,Conductor*%
%TO.N,GND*%
G36*
X-119486705Y151388187D02*
G01*
X-119461395Y151344350D01*
X-119470185Y151294500D01*
X-119493159Y151269971D01*
X-119556289Y151227789D01*
X-119598404Y151185674D01*
X-119644280Y151164282D01*
X-119650730Y151164000D01*
X-119792000Y151164000D01*
X-119792000Y150911522D01*
X-119797633Y150883205D01*
X-119815737Y150839497D01*
X-119815739Y150839491D01*
X-119836339Y150735925D01*
X-119840134Y150716843D01*
X-119846500Y150684840D01*
X-119846500Y149127159D01*
X-119815739Y148972508D01*
X-119815736Y148972498D01*
X-119797633Y148928795D01*
X-119792000Y148900477D01*
X-119792000Y148647999D01*
X-119774559Y148630558D01*
X-119753168Y148584682D01*
X-119766269Y148535788D01*
X-119807734Y148506754D01*
X-119818978Y148504657D01*
X-119839093Y148502495D01*
X-119839099Y148502493D01*
X-119975961Y148451447D01*
X-119975962Y148451446D01*
X-120092904Y148363903D01*
X-120180447Y148246961D01*
X-120180448Y148246960D01*
X-120231494Y148110098D01*
X-120231495Y148110093D01*
X-120238000Y148049590D01*
X-120238000Y147955000D01*
X-118499594Y147955000D01*
X-118495700Y147956816D01*
X-118479592Y147952500D01*
X-117041000Y147952500D01*
X-116993434Y147935187D01*
X-116968124Y147891350D01*
X-116967000Y147878500D01*
X-116967000Y146690500D01*
X-116695496Y146690500D01*
X-116591675Y146701106D01*
X-116443213Y146750302D01*
X-116392615Y146748830D01*
X-116356608Y146718341D01*
X-116279419Y146590655D01*
X-116157845Y146469081D01*
X-116010701Y146380130D01*
X-115846563Y146328983D01*
X-115846553Y146328981D01*
X-115783192Y146323223D01*
X-115737388Y146301677D01*
X-115716150Y146255728D01*
X-115729416Y146206879D01*
X-115770978Y146177984D01*
X-115778308Y146176439D01*
X-115843304Y146166146D01*
X-115843306Y146166145D01*
X-115843307Y146166145D01*
X-115880413Y146147238D01*
X-115956342Y146108550D01*
X-116046050Y146018842D01*
X-116103646Y145905804D01*
X-116103647Y145905802D01*
X-116103647Y145905801D01*
X-116118500Y145812019D01*
X-116118500Y145378545D01*
X-116135813Y145330979D01*
X-116140174Y145326219D01*
X-116243447Y145222946D01*
X-116289323Y145201554D01*
X-116338218Y145214655D01*
X-116367252Y145256119D01*
X-116362840Y145306546D01*
X-116355313Y145319215D01*
X-116346631Y145330979D01*
X-116343207Y145335618D01*
X-116302886Y145450848D01*
X-116298356Y145463795D01*
X-116298354Y145463801D01*
X-116295500Y145494234D01*
X-116295500Y146102766D01*
X-116298354Y146133199D01*
X-116343207Y146261382D01*
X-116423850Y146370650D01*
X-116533118Y146451293D01*
X-116661301Y146496146D01*
X-116691734Y146499000D01*
X-116691740Y146499000D01*
X-117326955Y146499000D01*
X-117374521Y146516313D01*
X-117379281Y146520674D01*
X-117415520Y146556913D01*
X-117459729Y146601121D01*
X-117481120Y146646996D01*
X-117475000Y146669838D01*
X-117475000Y147444500D01*
X-118476406Y147444500D01*
X-118480300Y147442684D01*
X-118496408Y147447000D01*
X-120238000Y147447000D01*
X-120238000Y147352409D01*
X-120231495Y147291906D01*
X-120231494Y147291901D01*
X-120180448Y147155039D01*
X-120180447Y147155038D01*
X-120092904Y147038095D01*
X-120092902Y147038093D01*
X-120073646Y147023678D01*
X-120045944Y146981312D01*
X-120051955Y146931052D01*
X-120088867Y146896414D01*
X-120127652Y146891073D01*
X-120269000Y146909682D01*
X-120425762Y146889044D01*
X-120571841Y146828536D01*
X-120571842Y146828535D01*
X-120697280Y146732284D01*
X-120700479Y146729085D01*
X-120746355Y146707693D01*
X-120795250Y146720794D01*
X-120816500Y146743743D01*
X-120871945Y146837496D01*
X-120871945Y146837497D01*
X-120989502Y146955054D01*
X-121132599Y147039681D01*
X-121292246Y147086064D01*
X-121329544Y147088999D01*
X-121842000Y147088999D01*
X-121842000Y146101000D01*
X-121859313Y146053434D01*
X-121903150Y146028124D01*
X-121916000Y146027000D01*
X-123450993Y146027000D01*
X-123404682Y145867598D01*
X-123320055Y145724501D01*
X-123202499Y145606945D01*
X-123138665Y145569195D01*
X-123106536Y145530080D01*
X-123107065Y145479464D01*
X-123140007Y145441030D01*
X-123176334Y145431500D01*
X-123510434Y145431500D01*
X-123520889Y145428102D01*
X-123535249Y145423436D01*
X-123546533Y145420727D01*
X-123572304Y145416646D01*
X-123595557Y145404798D01*
X-123606275Y145400358D01*
X-123631089Y145392296D01*
X-123652203Y145376956D01*
X-123662097Y145370894D01*
X-123685342Y145359050D01*
X-123685343Y145359049D01*
X-123705320Y145339072D01*
X-123705330Y145339063D01*
X-124132341Y144912052D01*
X-124132348Y144912044D01*
X-124153051Y144891341D01*
X-124164897Y144868094D01*
X-124170962Y144858197D01*
X-124186297Y144837089D01*
X-124186298Y144837088D01*
X-124194359Y144812277D01*
X-124198802Y144801549D01*
X-124210647Y144778302D01*
X-124210649Y144778296D01*
X-124214730Y144752533D01*
X-124217438Y144741249D01*
X-124225500Y144716432D01*
X-124225500Y144250092D01*
X-124242813Y144202526D01*
X-124249895Y144195747D01*
X-124249855Y144195708D01*
X-124253286Y144192278D01*
X-124349536Y144066841D01*
X-124410045Y143920761D01*
X-124410045Y143920760D01*
X-124430682Y143764000D01*
X-124410045Y143607239D01*
X-124410045Y143607238D01*
X-124349536Y143461158D01*
X-124253285Y143335720D01*
X-124253280Y143335715D01*
X-124127842Y143239464D01*
X-124001806Y143187258D01*
X-123964486Y143153060D01*
X-123957879Y143102874D01*
X-123985076Y143060184D01*
X-123999278Y143049286D01*
X-123999285Y143049279D01*
X-124095536Y142923841D01*
X-124156045Y142777761D01*
X-124156045Y142777760D01*
X-124176682Y142621000D01*
X-124156045Y142464239D01*
X-124156045Y142464238D01*
X-124095536Y142318158D01*
X-123999285Y142192720D01*
X-123999280Y142192715D01*
X-123873842Y142096464D01*
X-123727762Y142035955D01*
X-123571000Y142015318D01*
X-123414240Y142035955D01*
X-123414239Y142035955D01*
X-123268159Y142096464D01*
X-123243731Y142115208D01*
X-123198683Y142130500D01*
X-123071833Y142130500D01*
X-123024267Y142113187D01*
X-123019507Y142108826D01*
X-123002483Y142091801D01*
X-122897395Y142040427D01*
X-122829265Y142030500D01*
X-122829260Y142030500D01*
X-121362736Y142030500D01*
X-121294607Y142040427D01*
X-121294606Y142040427D01*
X-121189518Y142091801D01*
X-121172493Y142108826D01*
X-121126617Y142130218D01*
X-121120167Y142130500D01*
X-120050045Y142130500D01*
X-120002479Y142113187D01*
X-119997719Y142108826D01*
X-119709174Y141820281D01*
X-119687782Y141774405D01*
X-119687500Y141767955D01*
X-119687500Y141318735D01*
X-119677573Y141250606D01*
X-119677573Y141250605D01*
X-119626199Y141145517D01*
X-119592520Y141111838D01*
X-119576934Y141081425D01*
X-119574445Y141082234D01*
X-119572646Y141076696D01*
X-119560800Y141053446D01*
X-119556359Y141042722D01*
X-119548298Y141017912D01*
X-119548297Y141017911D01*
X-119532957Y140996796D01*
X-119526893Y140986900D01*
X-119518371Y140970174D01*
X-119515050Y140963658D01*
X-119492487Y140941094D01*
X-119492484Y140941091D01*
X-119492480Y140941086D01*
X-119083487Y140532093D01*
X-119062095Y140486216D01*
X-119075196Y140437322D01*
X-119116660Y140408288D01*
X-119121376Y140407189D01*
X-119124840Y140406500D01*
X-119124842Y140406500D01*
X-119279497Y140375737D01*
X-119279502Y140375735D01*
X-119425175Y140315396D01*
X-119425177Y140315395D01*
X-119425179Y140315394D01*
X-119542086Y140237279D01*
X-119556289Y140227789D01*
X-119598404Y140185674D01*
X-119644280Y140164282D01*
X-119650730Y140164000D01*
X-119792000Y140164000D01*
X-119792000Y139911522D01*
X-119797633Y139883205D01*
X-119815737Y139839497D01*
X-119815739Y139839491D01*
X-119832950Y139752961D01*
X-119844833Y139693219D01*
X-119846500Y139684840D01*
X-119846500Y138127159D01*
X-119815739Y137972508D01*
X-119815736Y137972498D01*
X-119797633Y137928795D01*
X-119792000Y137900477D01*
X-119792000Y137648000D01*
X-119650730Y137648000D01*
X-119603164Y137630687D01*
X-119598404Y137626326D01*
X-119556290Y137584212D01*
X-119556289Y137584210D01*
X-119493159Y137542029D01*
X-119463227Y137501207D01*
X-119466538Y137450697D01*
X-119501542Y137414131D01*
X-119534271Y137406500D01*
X-126171500Y137406500D01*
X-126219066Y137423813D01*
X-126244376Y137467650D01*
X-126245500Y137480500D01*
X-126245500Y138652000D01*
X-121179000Y138652000D01*
X-121179000Y138268130D01*
X-121172824Y138200167D01*
X-121172822Y138200157D01*
X-121124083Y138043746D01*
X-121039320Y137903530D01*
X-120923470Y137787680D01*
X-120783254Y137702917D01*
X-120626843Y137654178D01*
X-120626833Y137654176D01*
X-120558870Y137648000D01*
X-120300000Y137648000D01*
X-120300000Y138652000D01*
X-121179000Y138652000D01*
X-126245500Y138652000D01*
X-126245500Y139160000D01*
X-121179000Y139160000D01*
X-120300000Y139160000D01*
X-120300000Y140164000D01*
X-120558860Y140164000D01*
X-120558870Y140163999D01*
X-120626833Y140157823D01*
X-120626843Y140157821D01*
X-120783254Y140109082D01*
X-120923470Y140024319D01*
X-121039320Y139908469D01*
X-121124083Y139768253D01*
X-121172822Y139611842D01*
X-121172824Y139611832D01*
X-121179000Y139543869D01*
X-121179000Y139160000D01*
X-126245500Y139160000D01*
X-126245500Y139599000D01*
X-126228187Y139646566D01*
X-126184350Y139671876D01*
X-126171500Y139673000D01*
X-125550000Y139673000D01*
X-125550000Y140427000D01*
X-125042000Y140427000D01*
X-125042000Y139673000D01*
X-124145496Y139673000D01*
X-124041675Y139683606D01*
X-123873476Y139739342D01*
X-123722662Y139832365D01*
X-123722658Y139832368D01*
X-123597368Y139957658D01*
X-123597366Y139957661D01*
X-123504343Y140108475D01*
X-123448607Y140276674D01*
X-123438001Y140380495D01*
X-123438000Y140380497D01*
X-123438000Y140427000D01*
X-125042000Y140427000D01*
X-125550000Y140427000D01*
X-125550000Y141689000D01*
X-125042000Y141689000D01*
X-125042000Y140935000D01*
X-123438000Y140935000D01*
X-123438000Y140981502D01*
X-123438001Y140981504D01*
X-123448607Y141085325D01*
X-123504343Y141253524D01*
X-123597366Y141404338D01*
X-123597368Y141404342D01*
X-123722658Y141529632D01*
X-123722662Y141529634D01*
X-123873476Y141622657D01*
X-124041675Y141678393D01*
X-124145496Y141688999D01*
X-124145498Y141689000D01*
X-125042000Y141689000D01*
X-125550000Y141689000D01*
X-126171500Y141689000D01*
X-126219066Y141706313D01*
X-126244376Y141750150D01*
X-126245500Y141763000D01*
X-126245500Y146535000D01*
X-123450993Y146535000D01*
X-122350000Y146535000D01*
X-122350000Y147088999D01*
X-122862455Y147088999D01*
X-122862457Y147088998D01*
X-122899753Y147086064D01*
X-123059402Y147039681D01*
X-123202499Y146955054D01*
X-123320055Y146837498D01*
X-123404682Y146694401D01*
X-123450993Y146535000D01*
X-126245500Y146535000D01*
X-126245500Y147049000D01*
X-126228187Y147096566D01*
X-126184350Y147121876D01*
X-126171500Y147123000D01*
X-125550000Y147123000D01*
X-125550000Y147877000D01*
X-125042000Y147877000D01*
X-125042000Y147123000D01*
X-124145496Y147123000D01*
X-124041675Y147133606D01*
X-123873476Y147189342D01*
X-123722662Y147282365D01*
X-123722658Y147282368D01*
X-123597368Y147407658D01*
X-123597366Y147407661D01*
X-123504343Y147558475D01*
X-123448607Y147726674D01*
X-123438001Y147830495D01*
X-123438000Y147830497D01*
X-123438000Y147877000D01*
X-125042000Y147877000D01*
X-125550000Y147877000D01*
X-125550000Y149139000D01*
X-125042000Y149139000D01*
X-125042000Y148385000D01*
X-123438000Y148385000D01*
X-123438000Y148431502D01*
X-123438001Y148431504D01*
X-123448607Y148535325D01*
X-123504343Y148703524D01*
X-123597366Y148854338D01*
X-123597368Y148854342D01*
X-123722658Y148979632D01*
X-123722662Y148979634D01*
X-123873476Y149072657D01*
X-124041675Y149128393D01*
X-124145496Y149138999D01*
X-124145498Y149139000D01*
X-125042000Y149139000D01*
X-125550000Y149139000D01*
X-126171500Y149139000D01*
X-126219066Y149156313D01*
X-126244376Y149200150D01*
X-126245500Y149213000D01*
X-126245500Y149652000D01*
X-121179000Y149652000D01*
X-121179000Y149268130D01*
X-121172824Y149200167D01*
X-121172822Y149200157D01*
X-121124083Y149043746D01*
X-121039320Y148903530D01*
X-120923470Y148787680D01*
X-120783254Y148702917D01*
X-120626843Y148654178D01*
X-120626833Y148654176D01*
X-120558870Y148648000D01*
X-120300000Y148648000D01*
X-120300000Y149652000D01*
X-121179000Y149652000D01*
X-126245500Y149652000D01*
X-126245500Y150160000D01*
X-121179000Y150160000D01*
X-120300000Y150160000D01*
X-120300000Y151164000D01*
X-120558860Y151164000D01*
X-120558870Y151163999D01*
X-120626833Y151157823D01*
X-120626843Y151157821D01*
X-120783254Y151109082D01*
X-120923470Y151024319D01*
X-121039320Y150908469D01*
X-121124083Y150768253D01*
X-121172822Y150611842D01*
X-121172824Y150611832D01*
X-121179000Y150543869D01*
X-121179000Y150160000D01*
X-126245500Y150160000D01*
X-126245500Y151331500D01*
X-126228187Y151379066D01*
X-126184350Y151404376D01*
X-126171500Y151405500D01*
X-119534271Y151405500D01*
X-119486705Y151388187D01*
G37*
%TD.AperFunction*%
%TA.AperFunction,Conductor*%
G36*
X-102272934Y151388187D02*
G01*
X-102247624Y151344350D01*
X-102246500Y151331500D01*
X-102246500Y149213000D01*
X-102263813Y149165434D01*
X-102307650Y149140124D01*
X-102320500Y149139000D01*
X-102942000Y149139000D01*
X-102942000Y147123000D01*
X-102320500Y147123000D01*
X-102272934Y147105687D01*
X-102247624Y147061850D01*
X-102246500Y147049000D01*
X-102246500Y141763000D01*
X-102263813Y141715434D01*
X-102307650Y141690124D01*
X-102320500Y141689000D01*
X-102942000Y141689000D01*
X-102942000Y139673000D01*
X-102320500Y139673000D01*
X-102272934Y139655687D01*
X-102247624Y139611850D01*
X-102246500Y139599000D01*
X-102246500Y137480500D01*
X-102263813Y137432934D01*
X-102307650Y137407624D01*
X-102320500Y137406500D01*
X-116957729Y137406500D01*
X-117005295Y137423813D01*
X-117030605Y137467650D01*
X-117021815Y137517500D01*
X-116998841Y137542029D01*
X-116935712Y137584210D01*
X-116824211Y137695711D01*
X-116819396Y137702917D01*
X-116736606Y137826821D01*
X-116702228Y137909818D01*
X-116668031Y137947139D01*
X-116633861Y137955500D01*
X-115952816Y137955500D01*
X-115881451Y137965898D01*
X-115771366Y138019716D01*
X-115684717Y138106365D01*
X-115630899Y138216450D01*
X-115630898Y138216452D01*
X-115620500Y138287820D01*
X-115620500Y138859455D01*
X-115603187Y138907021D01*
X-115598826Y138911781D01*
X-115531456Y138979151D01*
X-115485580Y139000543D01*
X-115436685Y138987442D01*
X-115413196Y138960421D01*
X-115399050Y138932657D01*
X-115309344Y138842951D01*
X-115196302Y138785353D01*
X-115102520Y138770500D01*
X-115102519Y138770500D01*
X-114639480Y138770500D01*
X-114639480Y138770501D01*
X-114545696Y138785353D01*
X-114545694Y138785354D01*
X-114432658Y138842950D01*
X-114342952Y138932656D01*
X-114342951Y138932657D01*
X-114342950Y138932658D01*
X-114285354Y139045696D01*
X-114270500Y139139481D01*
X-114270501Y139411954D01*
X-114253188Y139459520D01*
X-114248827Y139464280D01*
X-114118932Y139594175D01*
X-114118928Y139594180D01*
X-114098951Y139614157D01*
X-114098036Y139615951D01*
X-114087106Y139637403D01*
X-114081044Y139647297D01*
X-114065704Y139668411D01*
X-114057642Y139693225D01*
X-114053200Y139703948D01*
X-114041354Y139727196D01*
X-114037273Y139752967D01*
X-114034562Y139764257D01*
X-114031379Y139774050D01*
X-114026672Y139788537D01*
X-114026500Y139789065D01*
X-114026500Y141981000D01*
X-113722000Y141981000D01*
X-113722000Y141432409D01*
X-113715495Y141371906D01*
X-113715494Y141371901D01*
X-113664448Y141235039D01*
X-113664447Y141235038D01*
X-113576904Y141118096D01*
X-113459962Y141030553D01*
X-113459961Y141030552D01*
X-113323099Y140979506D01*
X-113323094Y140979505D01*
X-113262591Y140973000D01*
X-113214000Y140973000D01*
X-113214000Y141981000D01*
X-113722000Y141981000D01*
X-114026500Y141981000D01*
X-114026500Y143243607D01*
X-114009187Y143291173D01*
X-113965350Y143316483D01*
X-113915500Y143307693D01*
X-113907452Y143302316D01*
X-113888168Y143287519D01*
X-113838284Y143249242D01*
X-113838283Y143249241D01*
X-113838282Y143249241D01*
X-113730327Y143204524D01*
X-113693007Y143170326D01*
X-113686400Y143120140D01*
X-113689311Y143110297D01*
X-113715495Y143040092D01*
X-113722000Y142979590D01*
X-113722000Y142431000D01*
X-112838500Y142431000D01*
X-112790934Y142413687D01*
X-112765624Y142369850D01*
X-112764500Y142357000D01*
X-112764500Y141461246D01*
X-112764356Y141459783D01*
X-112764000Y141452536D01*
X-112764000Y140973000D01*
X-112761174Y140970174D01*
X-112739782Y140924298D01*
X-112739500Y140917848D01*
X-112739500Y140876068D01*
X-112739501Y140876068D01*
X-112731438Y140851251D01*
X-112728730Y140839967D01*
X-112724649Y140814202D01*
X-112724648Y140814199D01*
X-112712800Y140790946D01*
X-112708359Y140780222D01*
X-112700298Y140755412D01*
X-112700297Y140755411D01*
X-112684957Y140734296D01*
X-112678896Y140724403D01*
X-112667050Y140701158D01*
X-112644487Y140678594D01*
X-112644484Y140678591D01*
X-112644480Y140678586D01*
X-112203174Y140237279D01*
X-112181782Y140191402D01*
X-112181500Y140184953D01*
X-112181500Y139912482D01*
X-112180310Y139904973D01*
X-112189972Y139855285D01*
X-112229312Y139823431D01*
X-112279923Y139824317D01*
X-112286984Y139827461D01*
X-112295196Y139831646D01*
X-112320968Y139835727D01*
X-112332247Y139838434D01*
X-112357067Y139846500D01*
X-112590107Y139846500D01*
X-112637673Y139863813D01*
X-112656041Y139886904D01*
X-112692950Y139959342D01*
X-112782658Y140049050D01*
X-112895696Y140106646D01*
X-112989481Y140121500D01*
X-113452518Y140121499D01*
X-113452520Y140121499D01*
X-113546305Y140106646D01*
X-113546307Y140106645D01*
X-113604939Y140076770D01*
X-113659342Y140049050D01*
X-113749050Y139959342D01*
X-113806646Y139846304D01*
X-113806647Y139846302D01*
X-113806647Y139846301D01*
X-113821500Y139752519D01*
X-113821500Y139139480D01*
X-113806647Y139045695D01*
X-113806646Y139045693D01*
X-113749050Y138932657D01*
X-113659344Y138842951D01*
X-113546302Y138785353D01*
X-113452520Y138770500D01*
X-113452519Y138770500D01*
X-112989480Y138770500D01*
X-112989480Y138770501D01*
X-112895696Y138785353D01*
X-112895694Y138785354D01*
X-112782658Y138842950D01*
X-112692952Y138932656D01*
X-112692951Y138932657D01*
X-112692950Y138932658D01*
X-112665134Y138987250D01*
X-112628114Y139021772D01*
X-112577564Y139024420D01*
X-112546874Y139005980D01*
X-112203174Y138662280D01*
X-112181782Y138616404D01*
X-112181500Y138609954D01*
X-112181500Y138262480D01*
X-112166647Y138168695D01*
X-112166646Y138168693D01*
X-112109050Y138055657D01*
X-112019344Y137965951D01*
X-111906302Y137908353D01*
X-111812520Y137893500D01*
X-111812519Y137893500D01*
X-111199480Y137893500D01*
X-111199480Y137893501D01*
X-111105696Y137908353D01*
X-111105694Y137908354D01*
X-110992658Y137965950D01*
X-110902951Y138055657D01*
X-110885148Y138090596D01*
X-110848128Y138125118D01*
X-110819214Y138131000D01*
X-110160786Y138131000D01*
X-110113220Y138113687D01*
X-110094852Y138090596D01*
X-110077050Y138055657D01*
X-109987344Y137965951D01*
X-109874302Y137908353D01*
X-109780520Y137893500D01*
X-109780519Y137893500D01*
X-109167480Y137893500D01*
X-109167480Y137893501D01*
X-109073696Y137908353D01*
X-109073694Y137908354D01*
X-108960658Y137965950D01*
X-108870952Y138055656D01*
X-108870951Y138055657D01*
X-108870950Y138055658D01*
X-108813354Y138168696D01*
X-108798500Y138262481D01*
X-108798501Y138609954D01*
X-108781188Y138657520D01*
X-108776827Y138662280D01*
X-108291412Y139147695D01*
X-108291408Y139147700D01*
X-108271432Y139167676D01*
X-108271430Y139167678D01*
X-108259585Y139190926D01*
X-108253526Y139200813D01*
X-108238184Y139221930D01*
X-108230122Y139246746D01*
X-108225677Y139257474D01*
X-108213834Y139280715D01*
X-108209753Y139306483D01*
X-108207042Y139317776D01*
X-108198980Y139342587D01*
X-108198980Y140427000D01*
X-105054000Y140427000D01*
X-105054000Y140380495D01*
X-105043394Y140276674D01*
X-104987658Y140108475D01*
X-104894635Y139957661D01*
X-104769339Y139832365D01*
X-104618525Y139739342D01*
X-104450326Y139683606D01*
X-104346505Y139673000D01*
X-103450000Y139673000D01*
X-103450000Y140427000D01*
X-105054000Y140427000D01*
X-108198980Y140427000D01*
X-108198980Y140935000D01*
X-105054000Y140935000D01*
X-103450000Y140935000D01*
X-103450000Y141689000D01*
X-104346502Y141689000D01*
X-104346505Y141688999D01*
X-104450326Y141678393D01*
X-104618525Y141622657D01*
X-104769339Y141529634D01*
X-104769342Y141529632D01*
X-104894632Y141404342D01*
X-104894635Y141404338D01*
X-104987658Y141253524D01*
X-105043394Y141085325D01*
X-105054000Y140981504D01*
X-105054000Y140935000D01*
X-108198980Y140935000D01*
X-108198980Y141187914D01*
X-108198981Y141187916D01*
X-108207042Y141212725D01*
X-108209754Y141224020D01*
X-108213834Y141249782D01*
X-108213834Y141249784D01*
X-108225679Y141273028D01*
X-108230121Y141283752D01*
X-108238184Y141308569D01*
X-108253526Y141329685D01*
X-108259580Y141339562D01*
X-108271430Y141362822D01*
X-108289778Y141381169D01*
X-108289782Y141381174D01*
X-108293996Y141385387D01*
X-108293996Y141385389D01*
X-108670826Y141762219D01*
X-108692218Y141808095D01*
X-108692500Y141814545D01*
X-108692500Y142277000D01*
X-107750993Y142277000D01*
X-107704682Y142117598D01*
X-107620055Y141974501D01*
X-107502499Y141856945D01*
X-107359402Y141772318D01*
X-107199755Y141725935D01*
X-107162456Y141723000D01*
X-106650000Y141723000D01*
X-106650000Y142277000D01*
X-106142000Y142277000D01*
X-106142000Y141723000D01*
X-105629546Y141723000D01*
X-105629544Y141723001D01*
X-105592248Y141725935D01*
X-105432599Y141772318D01*
X-105289502Y141856945D01*
X-105171946Y141974501D01*
X-105087319Y142117598D01*
X-105041007Y142277000D01*
X-106142000Y142277000D01*
X-106650000Y142277000D01*
X-107750993Y142277000D01*
X-108692500Y142277000D01*
X-108692500Y143356553D01*
X-108675187Y143404119D01*
X-108631350Y143429429D01*
X-108581500Y143420639D01*
X-108559792Y143401601D01*
X-108522285Y143352720D01*
X-108522280Y143352715D01*
X-108396842Y143256464D01*
X-108250762Y143195955D01*
X-108094000Y143175318D01*
X-107937240Y143195955D01*
X-107937239Y143195955D01*
X-107791159Y143256464D01*
X-107665721Y143352715D01*
X-107665716Y143352720D01*
X-107569465Y143478157D01*
X-107569464Y143478159D01*
X-107559764Y143501579D01*
X-107525568Y143538898D01*
X-107475383Y143545506D01*
X-107432690Y143518310D01*
X-107424916Y143505761D01*
X-107385198Y143424516D01*
X-107358341Y143397659D01*
X-107336949Y143351782D01*
X-107350051Y143302888D01*
X-107372999Y143281639D01*
X-107502499Y143205054D01*
X-107620055Y143087498D01*
X-107704682Y142944401D01*
X-107750993Y142785000D01*
X-105041007Y142785000D01*
X-105087319Y142944401D01*
X-105171947Y143087499D01*
X-105171949Y143087501D01*
X-105219075Y143134628D01*
X-105240468Y143180504D01*
X-105227368Y143229398D01*
X-105185903Y143258432D01*
X-105138432Y143255321D01*
X-105103265Y143240754D01*
X-105103261Y143240753D01*
X-104946500Y143220116D01*
X-104789740Y143240753D01*
X-104789739Y143240753D01*
X-104643659Y143301262D01*
X-104518221Y143397513D01*
X-104518216Y143397518D01*
X-104454049Y143481143D01*
X-104421964Y143522957D01*
X-104361456Y143669036D01*
X-104340818Y143825798D01*
X-104361456Y143982560D01*
X-104421964Y144128639D01*
X-104518218Y144254080D01*
X-104643659Y144350334D01*
X-104789738Y144410842D01*
X-104946500Y144431480D01*
X-105103262Y144410842D01*
X-105249341Y144350334D01*
X-105249342Y144350333D01*
X-105374780Y144254082D01*
X-105374784Y144254078D01*
X-105388665Y144235987D01*
X-105431356Y144208788D01*
X-105481542Y144215395D01*
X-105488821Y144219857D01*
X-105489516Y144220196D01*
X-105489517Y144220198D01*
X-105594607Y144271573D01*
X-105662740Y144281500D01*
X-107129260Y144281500D01*
X-107197393Y144271573D01*
X-107247763Y144246949D01*
X-107302483Y144220198D01*
X-107385198Y144137483D01*
X-107424916Y144056238D01*
X-107461361Y144021109D01*
X-107511860Y144017624D01*
X-107552784Y144047415D01*
X-107559761Y144060414D01*
X-107569464Y144083841D01*
X-107629949Y144162667D01*
X-107645171Y144210943D01*
X-107625800Y144257709D01*
X-107623567Y144260041D01*
X-107332672Y144550936D01*
X-107286796Y144572328D01*
X-107247846Y144565091D01*
X-107197396Y144540428D01*
X-107197394Y144540427D01*
X-107129265Y144530500D01*
X-107129260Y144530500D01*
X-105662736Y144530500D01*
X-105594607Y144540427D01*
X-105594606Y144540427D01*
X-105489518Y144591801D01*
X-105406802Y144674517D01*
X-105355428Y144779605D01*
X-105355427Y144779607D01*
X-105345500Y144847740D01*
X-105345500Y145214260D01*
X-105355427Y145282393D01*
X-105406802Y145387483D01*
X-105489517Y145470198D01*
X-105594607Y145521573D01*
X-105662740Y145531500D01*
X-107129260Y145531500D01*
X-107197393Y145521573D01*
X-107197395Y145521572D01*
X-107302483Y145470198D01*
X-107319507Y145453174D01*
X-107365383Y145431782D01*
X-107371833Y145431500D01*
X-107482433Y145431500D01*
X-107507249Y145423436D01*
X-107518537Y145420727D01*
X-107544305Y145416646D01*
X-107567546Y145404803D01*
X-107578274Y145400358D01*
X-107591754Y145395979D01*
X-107603091Y145392296D01*
X-107624197Y145376960D01*
X-107634100Y145370892D01*
X-107657342Y145359050D01*
X-107679908Y145336484D01*
X-107679909Y145336483D01*
X-108040610Y144975782D01*
X-108401341Y144615052D01*
X-108401348Y144615044D01*
X-108422051Y144594341D01*
X-108433897Y144571094D01*
X-108439962Y144561197D01*
X-108455297Y144540089D01*
X-108455298Y144540088D01*
X-108463359Y144515277D01*
X-108467802Y144504549D01*
X-108479647Y144481302D01*
X-108479649Y144481296D01*
X-108483730Y144455533D01*
X-108486438Y144444249D01*
X-108494500Y144419432D01*
X-108494500Y144267092D01*
X-108511813Y144219526D01*
X-108518895Y144212747D01*
X-108518855Y144212708D01*
X-108522286Y144209278D01*
X-108559792Y144160398D01*
X-108602483Y144133200D01*
X-108652669Y144139807D01*
X-108686867Y144177127D01*
X-108692500Y144205446D01*
X-108692500Y144848106D01*
X-108675187Y144895672D01*
X-108652096Y144914040D01*
X-108579658Y144950950D01*
X-108489952Y145040656D01*
X-108489951Y145040657D01*
X-108489950Y145040658D01*
X-108432354Y145153696D01*
X-108417500Y145247481D01*
X-108417501Y145594954D01*
X-108400188Y145642520D01*
X-108395827Y145647280D01*
X-107945372Y146097735D01*
X-107446500Y146097735D01*
X-107436573Y146029606D01*
X-107436573Y146029605D01*
X-107385199Y145924517D01*
X-107302483Y145841801D01*
X-107197395Y145790427D01*
X-107129265Y145780500D01*
X-107129260Y145780500D01*
X-105662736Y145780500D01*
X-105594607Y145790427D01*
X-105594606Y145790427D01*
X-105489518Y145841801D01*
X-105406802Y145924517D01*
X-105355428Y146029605D01*
X-105355427Y146029607D01*
X-105345500Y146097740D01*
X-105345500Y146464260D01*
X-105355427Y146532393D01*
X-105406802Y146637483D01*
X-105489517Y146720198D01*
X-105594607Y146771573D01*
X-105662740Y146781500D01*
X-105662746Y146781500D01*
X-105932234Y146781500D01*
X-105979800Y146798813D01*
X-106005110Y146842650D01*
X-105996320Y146892500D01*
X-105990942Y146900548D01*
X-105901465Y147017158D01*
X-105901464Y147017159D01*
X-105840956Y147163238D01*
X-105820318Y147320000D01*
X-105840956Y147476762D01*
X-105901464Y147622841D01*
X-105997718Y147748282D01*
X-106123159Y147844536D01*
X-106201534Y147877000D01*
X-105054000Y147877000D01*
X-105054000Y147830495D01*
X-105043394Y147726674D01*
X-104987658Y147558475D01*
X-104894635Y147407661D01*
X-104769339Y147282365D01*
X-104618525Y147189342D01*
X-104450326Y147133606D01*
X-104346505Y147123000D01*
X-103450000Y147123000D01*
X-103450000Y147877000D01*
X-105054000Y147877000D01*
X-106201534Y147877000D01*
X-106269238Y147905044D01*
X-106426000Y147925682D01*
X-106582762Y147905044D01*
X-106728841Y147844536D01*
X-106770655Y147812451D01*
X-106854280Y147748284D01*
X-106854285Y147748279D01*
X-106950536Y147622841D01*
X-107011045Y147476761D01*
X-107011045Y147476760D01*
X-107031682Y147320000D01*
X-107011045Y147163239D01*
X-107011045Y147163238D01*
X-106950536Y147017158D01*
X-106861058Y146900548D01*
X-106845836Y146852272D01*
X-106865208Y146805506D01*
X-106910107Y146782133D01*
X-106919766Y146781500D01*
X-107129260Y146781500D01*
X-107197393Y146771573D01*
X-107197395Y146771572D01*
X-107302483Y146720198D01*
X-107385199Y146637482D01*
X-107436573Y146532394D01*
X-107436573Y146532393D01*
X-107446500Y146464264D01*
X-107446500Y146097735D01*
X-107945372Y146097735D01*
X-107910412Y146132695D01*
X-107910408Y146132700D01*
X-107890432Y146152676D01*
X-107890430Y146152678D01*
X-107878585Y146175926D01*
X-107872526Y146185813D01*
X-107857184Y146206930D01*
X-107849122Y146231746D01*
X-107844677Y146242474D01*
X-107832834Y146265715D01*
X-107828753Y146291483D01*
X-107826042Y146302776D01*
X-107817980Y146327587D01*
X-107817980Y148385000D01*
X-105054000Y148385000D01*
X-103450000Y148385000D01*
X-103450000Y149139000D01*
X-104346502Y149139000D01*
X-104346505Y149138999D01*
X-104450326Y149128393D01*
X-104618525Y149072657D01*
X-104769339Y148979634D01*
X-104769342Y148979632D01*
X-104894632Y148854342D01*
X-104894635Y148854338D01*
X-104987658Y148703524D01*
X-105043394Y148535325D01*
X-105054000Y148431504D01*
X-105054000Y148385000D01*
X-107817980Y148385000D01*
X-107817980Y149020043D01*
X-107817981Y149020068D01*
X-107817981Y149048915D01*
X-107826042Y149073721D01*
X-107828754Y149085018D01*
X-107829746Y149091282D01*
X-107832834Y149110784D01*
X-107844682Y149134035D01*
X-107849123Y149144758D01*
X-107852954Y149156549D01*
X-107857184Y149169570D01*
X-107872519Y149190673D01*
X-107878587Y149200577D01*
X-107890429Y149223820D01*
X-107890430Y149223822D01*
X-107980138Y149313530D01*
X-108776828Y150110218D01*
X-108798219Y150156094D01*
X-108798501Y150162544D01*
X-108798501Y150510019D01*
X-108813354Y150603804D01*
X-108813355Y150603806D01*
X-108814432Y150605919D01*
X-108870950Y150716842D01*
X-108960658Y150806550D01*
X-109073696Y150864146D01*
X-109167481Y150879000D01*
X-109780518Y150878999D01*
X-109780520Y150878999D01*
X-109874305Y150864146D01*
X-109874307Y150864145D01*
X-109922680Y150839497D01*
X-109987342Y150806550D01*
X-109987343Y150806549D01*
X-110077050Y150716842D01*
X-110094852Y150681904D01*
X-110131872Y150647382D01*
X-110160786Y150641500D01*
X-110819214Y150641500D01*
X-110866780Y150658813D01*
X-110885148Y150681904D01*
X-110886645Y150684842D01*
X-110902950Y150716842D01*
X-110992658Y150806550D01*
X-111105696Y150864146D01*
X-111199481Y150879000D01*
X-111812518Y150878999D01*
X-111812520Y150878999D01*
X-111906305Y150864146D01*
X-111906307Y150864145D01*
X-111954680Y150839497D01*
X-112019342Y150806550D01*
X-112109050Y150716842D01*
X-112166646Y150603804D01*
X-112166647Y150603802D01*
X-112166647Y150603801D01*
X-112181500Y150510019D01*
X-112181500Y150046980D01*
X-112166647Y149953195D01*
X-112166646Y149953193D01*
X-112109050Y149840157D01*
X-112019344Y149750451D01*
X-111906302Y149692853D01*
X-111812520Y149678000D01*
X-111812519Y149678000D01*
X-111199480Y149678000D01*
X-111199480Y149678001D01*
X-111105696Y149692853D01*
X-111105694Y149692854D01*
X-110992658Y149750450D01*
X-110924282Y149818826D01*
X-110878406Y149840218D01*
X-110871956Y149840500D01*
X-110648519Y149840500D01*
X-110108044Y149840500D01*
X-110060478Y149823187D01*
X-110055718Y149818826D01*
X-109987344Y149750451D01*
X-109874302Y149692853D01*
X-109780520Y149678000D01*
X-109780519Y149678000D01*
X-109508046Y149678000D01*
X-109460480Y149660687D01*
X-109455720Y149656326D01*
X-109154720Y149355325D01*
X-109133328Y149309448D01*
X-109146429Y149260554D01*
X-109187894Y149231520D01*
X-109207039Y149228999D01*
X-109780518Y149228999D01*
X-109780520Y149228999D01*
X-109874305Y149214146D01*
X-109874307Y149214145D01*
X-109920378Y149190670D01*
X-109987342Y149156550D01*
X-109987343Y149156549D01*
X-110055718Y149088174D01*
X-110101594Y149066782D01*
X-110108044Y149066500D01*
X-110212997Y149066500D01*
X-110237813Y149058436D01*
X-110249101Y149055727D01*
X-110274869Y149051646D01*
X-110298110Y149039803D01*
X-110308838Y149035358D01*
X-110333654Y149027296D01*
X-110354771Y149011954D01*
X-110364658Y149005895D01*
X-110387906Y148994050D01*
X-110387908Y148994048D01*
X-110407884Y148974072D01*
X-110407894Y148974063D01*
X-110704175Y148677782D01*
X-110750051Y148656390D01*
X-110798946Y148669491D01*
X-110827980Y148710955D01*
X-110830501Y148730108D01*
X-110830501Y148860019D01*
X-110845354Y148953804D01*
X-110845355Y148953806D01*
X-110851516Y148965898D01*
X-110902950Y149066842D01*
X-110992658Y149156550D01*
X-111105696Y149214146D01*
X-111199481Y149229000D01*
X-111812518Y149228999D01*
X-111812520Y149228999D01*
X-111906305Y149214146D01*
X-111906307Y149214145D01*
X-111952378Y149190670D01*
X-112019342Y149156550D01*
X-112109050Y149066842D01*
X-112166646Y148953804D01*
X-112166647Y148953802D01*
X-112166647Y148953801D01*
X-112181500Y148860019D01*
X-112181500Y148587545D01*
X-112198813Y148539979D01*
X-112203174Y148535219D01*
X-112646341Y148092052D01*
X-112646348Y148092044D01*
X-112667051Y148071341D01*
X-112678897Y148048094D01*
X-112684962Y148038197D01*
X-112700297Y148017089D01*
X-112700298Y148017088D01*
X-112708359Y147992277D01*
X-112712802Y147981549D01*
X-112724647Y147958302D01*
X-112724649Y147958296D01*
X-112728730Y147932533D01*
X-112731438Y147921249D01*
X-112739500Y147896432D01*
X-112739500Y147605500D01*
X-112756813Y147557934D01*
X-112800650Y147532624D01*
X-112813500Y147531500D01*
X-113233748Y147531500D01*
X-113292231Y147519867D01*
X-113292233Y147519866D01*
X-113314440Y147505027D01*
X-113358552Y147475552D01*
X-113358553Y147475550D01*
X-113402867Y147409232D01*
X-113402867Y147409231D01*
X-113414169Y147352409D01*
X-113414500Y147350746D01*
X-113414500Y146277544D01*
X-113431813Y146229978D01*
X-113436174Y146225218D01*
X-114085332Y145576061D01*
X-114734341Y144927052D01*
X-114734348Y144927044D01*
X-114755051Y144906341D01*
X-114766897Y144883094D01*
X-114772962Y144873197D01*
X-114788297Y144852089D01*
X-114788298Y144852088D01*
X-114796359Y144827277D01*
X-114800802Y144816549D01*
X-114812647Y144793302D01*
X-114812649Y144793296D01*
X-114816730Y144767533D01*
X-114819438Y144756249D01*
X-114827500Y144731432D01*
X-114827500Y143966405D01*
X-114844813Y143918839D01*
X-114888650Y143893529D01*
X-114938500Y143902319D01*
X-114939783Y143903077D01*
X-115002300Y143940869D01*
X-115166438Y143992016D01*
X-115166448Y143992018D01*
X-115237773Y143998499D01*
X-115316000Y143998499D01*
X-115316000Y142910500D01*
X-115333313Y142862934D01*
X-115377150Y142837624D01*
X-115390000Y142836500D01*
X-116552999Y142836500D01*
X-116552999Y142833267D01*
X-116546519Y142761944D01*
X-116546518Y142761940D01*
X-116495370Y142597799D01*
X-116406419Y142450655D01*
X-116347089Y142391326D01*
X-116325697Y142345450D01*
X-116338798Y142296555D01*
X-116380262Y142267521D01*
X-116399415Y142265000D01*
X-116712500Y142265000D01*
X-116760066Y142282313D01*
X-116785376Y142326150D01*
X-116786500Y142339000D01*
X-116786500Y142410253D01*
X-116786500Y142410260D01*
X-116796427Y142478393D01*
X-116847802Y142583483D01*
X-116930517Y142666198D01*
X-117035607Y142717573D01*
X-117103740Y142727500D01*
X-117470260Y142727500D01*
X-117475996Y142726664D01*
X-117525560Y142736934D01*
X-117550366Y142762225D01*
X-117562946Y142783498D01*
X-117680502Y142901054D01*
X-117823602Y142985682D01*
X-117823601Y142985682D01*
X-117983000Y143031992D01*
X-117983000Y141684500D01*
X-118000313Y141636934D01*
X-118044150Y141611624D01*
X-118057000Y141610500D01*
X-118417000Y141610500D01*
X-118464566Y141627813D01*
X-118489876Y141671650D01*
X-118491000Y141684500D01*
X-118491000Y143031992D01*
X-118491001Y143031992D01*
X-118650400Y142985682D01*
X-118793499Y142901054D01*
X-118911055Y142783498D01*
X-118923638Y142762221D01*
X-118962753Y142730091D01*
X-118998006Y142726664D01*
X-119003740Y142727500D01*
X-119370260Y142727500D01*
X-119432454Y142718438D01*
X-119482018Y142728712D01*
X-119495448Y142739340D01*
X-119533868Y142777760D01*
X-119592591Y142836484D01*
X-119592592Y142836484D01*
X-119596802Y142840695D01*
X-119596812Y142840702D01*
X-119615158Y142859050D01*
X-119638402Y142870892D01*
X-119648304Y142876961D01*
X-119669410Y142892296D01*
X-119694228Y142900359D01*
X-119704947Y142904798D01*
X-119728196Y142916646D01*
X-119753968Y142920727D01*
X-119765247Y142923434D01*
X-119790067Y142931500D01*
X-121120167Y142931500D01*
X-121167733Y142948813D01*
X-121172493Y142953174D01*
X-121189517Y142970198D01*
X-121294607Y143021573D01*
X-121362740Y143031500D01*
X-122829260Y143031500D01*
X-122897393Y143021573D01*
X-122897395Y143021572D01*
X-123005967Y142968495D01*
X-123056304Y142963158D01*
X-123097174Y142989927D01*
X-123142718Y143049282D01*
X-123268159Y143145536D01*
X-123394195Y143197741D01*
X-123431515Y143231938D01*
X-123438122Y143282124D01*
X-123410926Y143324815D01*
X-123396720Y143335716D01*
X-123396716Y143335720D01*
X-123300464Y143461159D01*
X-123272733Y143528107D01*
X-123238536Y143565428D01*
X-123188350Y143572035D01*
X-123145658Y143544838D01*
X-123137885Y143532290D01*
X-123085198Y143424516D01*
X-123002483Y143341801D01*
X-122897395Y143290427D01*
X-122829265Y143280500D01*
X-122829260Y143280500D01*
X-121362736Y143280500D01*
X-121294607Y143290427D01*
X-121294606Y143290427D01*
X-121189518Y143341801D01*
X-121172493Y143358826D01*
X-121126617Y143380218D01*
X-121120167Y143380500D01*
X-120569568Y143380500D01*
X-120569567Y143380500D01*
X-120561591Y143383091D01*
X-120544751Y143388562D01*
X-120533467Y143391270D01*
X-120507704Y143395351D01*
X-120507698Y143395353D01*
X-120484451Y143407198D01*
X-120473723Y143411641D01*
X-120448912Y143419702D01*
X-120448911Y143419703D01*
X-120427803Y143435038D01*
X-120417906Y143441103D01*
X-120394659Y143452949D01*
X-120373956Y143473652D01*
X-120373941Y143473666D01*
X-120253872Y143593735D01*
X-119687500Y143593735D01*
X-119677573Y143525606D01*
X-119677573Y143525605D01*
X-119626199Y143420517D01*
X-119543483Y143337801D01*
X-119438395Y143286427D01*
X-119370265Y143276500D01*
X-119370260Y143276500D01*
X-119003736Y143276500D01*
X-118935607Y143286427D01*
X-118935606Y143286427D01*
X-118830518Y143337801D01*
X-118747802Y143420517D01*
X-118697723Y143522956D01*
X-118696427Y143525607D01*
X-118686500Y143593740D01*
X-118686500Y144685260D01*
X-118696427Y144753393D01*
X-118747802Y144858483D01*
X-118830517Y144941198D01*
X-118935607Y144992573D01*
X-119003740Y145002500D01*
X-119370260Y145002500D01*
X-119438393Y144992573D01*
X-119472740Y144975782D01*
X-119543483Y144941198D01*
X-119626199Y144858482D01*
X-119677573Y144753394D01*
X-119677573Y144753393D01*
X-119687500Y144685264D01*
X-119687500Y143593735D01*
X-120253872Y143593735D01*
X-120087517Y143760091D01*
X-120083608Y143764000D01*
X-120064950Y143782658D01*
X-120053108Y143805900D01*
X-120047040Y143815803D01*
X-120031704Y143836909D01*
X-120023644Y143861718D01*
X-120019199Y143872449D01*
X-120007356Y143895691D01*
X-120007356Y143895693D01*
X-120007354Y143895696D01*
X-120003274Y143921464D01*
X-120000563Y143932757D01*
X-119998936Y143937762D01*
X-119992501Y143957567D01*
X-119992501Y143986840D01*
X-119992500Y143986870D01*
X-119992500Y144544907D01*
X-119975187Y144592473D01*
X-119968106Y144599254D01*
X-119968144Y144599293D01*
X-119964714Y144602722D01*
X-119887715Y144703070D01*
X-119868464Y144728159D01*
X-119807956Y144874238D01*
X-119787318Y145031000D01*
X-119807956Y145187762D01*
X-119868464Y145333841D01*
X-119964718Y145459282D01*
X-120090159Y145555536D01*
X-120139712Y145576061D01*
X-120177031Y145610258D01*
X-120183639Y145660444D01*
X-120156442Y145703136D01*
X-120121055Y145717795D01*
X-120112238Y145718956D01*
X-119966159Y145779464D01*
X-119911961Y145821051D01*
X-119863685Y145836273D01*
X-119825803Y145823873D01*
X-119808232Y145812133D01*
X-119808233Y145812133D01*
X-119778990Y145806316D01*
X-119749748Y145800500D01*
X-119749746Y145800500D01*
X-119010254Y145800500D01*
X-119010252Y145800500D01*
X-118971264Y145808255D01*
X-118951768Y145812133D01*
X-118890110Y145853333D01*
X-118885448Y145856448D01*
X-118877988Y145867613D01*
X-118837167Y145897544D01*
X-118816460Y145900500D01*
X-118220500Y145900500D01*
X-118172934Y145883187D01*
X-118147624Y145839350D01*
X-118146500Y145826500D01*
X-118146500Y145494234D01*
X-118144205Y145469765D01*
X-118143645Y145463795D01*
X-118098794Y145335618D01*
X-118098793Y145335616D01*
X-118018154Y145226353D01*
X-118018147Y145226346D01*
X-117908884Y145145707D01*
X-117908882Y145145706D01*
X-117780705Y145100855D01*
X-117780706Y145100855D01*
X-117780701Y145100854D01*
X-117780699Y145100854D01*
X-117750266Y145098000D01*
X-117750260Y145098000D01*
X-117642598Y145098000D01*
X-117595032Y145080687D01*
X-117569722Y145036850D01*
X-117578512Y144987000D01*
X-117610098Y144957519D01*
X-117643483Y144941198D01*
X-117726199Y144858482D01*
X-117777573Y144753394D01*
X-117777573Y144753393D01*
X-117787500Y144685264D01*
X-117787500Y143593735D01*
X-117777573Y143525606D01*
X-117777573Y143525605D01*
X-117726199Y143420517D01*
X-117643483Y143337801D01*
X-117538395Y143286427D01*
X-117470265Y143276500D01*
X-117470260Y143276500D01*
X-117103736Y143276500D01*
X-117035607Y143286427D01*
X-117035606Y143286427D01*
X-116930518Y143337801D01*
X-116923819Y143344500D01*
X-116553000Y143344500D01*
X-115824000Y143344500D01*
X-115824000Y143998499D01*
X-115902221Y143998499D01*
X-115902233Y143998498D01*
X-115973556Y143992018D01*
X-115973560Y143992017D01*
X-116137701Y143940869D01*
X-116284845Y143851918D01*
X-116406419Y143730344D01*
X-116495370Y143583200D01*
X-116546517Y143419062D01*
X-116546519Y143419052D01*
X-116553000Y143347732D01*
X-116553000Y143344500D01*
X-116923819Y143344500D01*
X-116847802Y143420517D01*
X-116797723Y143522956D01*
X-116796427Y143525607D01*
X-116786500Y143593740D01*
X-116786500Y144100500D01*
X-116769187Y144148066D01*
X-116725350Y144173376D01*
X-116712500Y144174500D01*
X-116261568Y144174500D01*
X-116261567Y144174500D01*
X-116253481Y144177127D01*
X-116236751Y144182562D01*
X-116225467Y144185270D01*
X-116199704Y144189351D01*
X-116199698Y144189353D01*
X-116176451Y144201198D01*
X-116165723Y144205641D01*
X-116140912Y144213702D01*
X-116140911Y144213703D01*
X-116119803Y144229038D01*
X-116109906Y144235103D01*
X-116086659Y144246949D01*
X-116065956Y144267652D01*
X-116065941Y144267666D01*
X-115724781Y144608826D01*
X-115375282Y144958326D01*
X-115329406Y144979718D01*
X-115322956Y144980000D01*
X-115136480Y144980000D01*
X-115136480Y144980001D01*
X-115042696Y144994853D01*
X-115042694Y144994854D01*
X-114929658Y145052450D01*
X-114839952Y145142156D01*
X-114839950Y145142158D01*
X-114782354Y145255196D01*
X-114767500Y145348981D01*
X-114767501Y145696454D01*
X-114750188Y145744020D01*
X-114745827Y145748780D01*
X-114638158Y145856449D01*
X-114521073Y145973535D01*
X-114475197Y145994927D01*
X-114459095Y145994577D01*
X-114457126Y145994318D01*
X-114457125Y145994318D01*
X-114300365Y146014955D01*
X-114300364Y146014955D01*
X-114154284Y146075464D01*
X-114028846Y146171715D01*
X-114028841Y146171720D01*
X-113947640Y146277544D01*
X-113932589Y146297159D01*
X-113872081Y146443238D01*
X-113851443Y146600000D01*
X-113872081Y146756762D01*
X-113932589Y146902841D01*
X-114028843Y147028282D01*
X-114154284Y147124536D01*
X-114300363Y147185044D01*
X-114457125Y147205682D01*
X-114613887Y147185044D01*
X-114759966Y147124536D01*
X-114781095Y147108323D01*
X-114885403Y147028286D01*
X-114885405Y147028284D01*
X-114885406Y147028282D01*
X-114885407Y147028282D01*
X-114902927Y147005450D01*
X-114945617Y146978254D01*
X-114961633Y146976500D01*
X-115623000Y146976500D01*
X-115670566Y146993813D01*
X-115695876Y147037650D01*
X-115697000Y147050500D01*
X-115697000Y148138499D01*
X-115189000Y148138499D01*
X-115189000Y147484500D01*
X-114460001Y147484500D01*
X-114460001Y147487721D01*
X-114460002Y147487732D01*
X-114466482Y147559055D01*
X-114466483Y147559059D01*
X-114517631Y147723200D01*
X-114606582Y147870344D01*
X-114728156Y147991918D01*
X-114875300Y148080869D01*
X-115039438Y148132016D01*
X-115039448Y148132018D01*
X-115110773Y148138499D01*
X-115189000Y148138499D01*
X-115697000Y148138499D01*
X-115775221Y148138499D01*
X-115775234Y148138498D01*
X-115846553Y148132018D01*
X-115846560Y148132017D01*
X-115923748Y148107964D01*
X-115974311Y148110341D01*
X-116011517Y148144664D01*
X-116016008Y148155337D01*
X-116054342Y148271023D01*
X-116147366Y148421838D01*
X-116147368Y148421842D01*
X-116272658Y148547132D01*
X-116272662Y148547134D01*
X-116423476Y148640157D01*
X-116591676Y148695893D01*
X-116686920Y148705623D01*
X-116732481Y148727680D01*
X-116753204Y148773862D01*
X-116740931Y148820348D01*
X-116736606Y148826821D01*
X-116702228Y148909818D01*
X-116668031Y148947139D01*
X-116633861Y148955500D01*
X-115952816Y148955500D01*
X-115881451Y148965898D01*
X-115771366Y149019716D01*
X-115684717Y149106365D01*
X-115656540Y149164001D01*
X-115620095Y149199130D01*
X-115590059Y149205500D01*
X-115476393Y149205500D01*
X-115428827Y149188187D01*
X-115410459Y149165096D01*
X-115373549Y149092656D01*
X-115283844Y149002951D01*
X-115170802Y148945353D01*
X-115077020Y148930500D01*
X-115077019Y148930500D01*
X-114613980Y148930500D01*
X-114613980Y148930501D01*
X-114520196Y148945353D01*
X-114520194Y148945354D01*
X-114407158Y149002950D01*
X-114318826Y149091282D01*
X-114272950Y149112674D01*
X-114224055Y149099573D01*
X-114195021Y149058109D01*
X-114192500Y149038956D01*
X-114192500Y148822092D01*
X-114209813Y148774526D01*
X-114216895Y148767747D01*
X-114216855Y148767708D01*
X-114220286Y148764278D01*
X-114316536Y148638841D01*
X-114377045Y148492761D01*
X-114377045Y148492760D01*
X-114397682Y148336000D01*
X-114377045Y148179239D01*
X-114377045Y148179238D01*
X-114316536Y148033158D01*
X-114220285Y147907720D01*
X-114220280Y147907715D01*
X-114094842Y147811464D01*
X-113948762Y147750955D01*
X-113792000Y147730318D01*
X-113635240Y147750955D01*
X-113635239Y147750955D01*
X-113489159Y147811464D01*
X-113363721Y147907715D01*
X-113363716Y147907720D01*
X-113267465Y148033158D01*
X-113267464Y148033159D01*
X-113206956Y148179238D01*
X-113186318Y148336000D01*
X-113206956Y148492762D01*
X-113267464Y148638841D01*
X-113363718Y148764282D01*
X-113363723Y148764285D01*
X-113367145Y148767708D01*
X-113366020Y148768833D01*
X-113389745Y148806073D01*
X-113391500Y148822092D01*
X-113391500Y148850456D01*
X-113374187Y148898022D01*
X-113369837Y148902771D01*
X-113363785Y148908823D01*
X-113317913Y148930218D01*
X-113311457Y148930500D01*
X-112963980Y148930500D01*
X-112963980Y148930501D01*
X-112870196Y148945353D01*
X-112870194Y148945354D01*
X-112757158Y149002950D01*
X-112667452Y149092656D01*
X-112667450Y149092658D01*
X-112609854Y149205696D01*
X-112595000Y149299481D01*
X-112595001Y149912518D01*
X-112609854Y150006304D01*
X-112667450Y150119342D01*
X-112757158Y150209050D01*
X-112870196Y150266646D01*
X-112963981Y150281500D01*
X-113427018Y150281499D01*
X-113427020Y150281499D01*
X-113520805Y150266646D01*
X-113520807Y150266645D01*
X-113579439Y150236770D01*
X-113633842Y150209050D01*
X-113723550Y150119342D01*
X-113781146Y150006304D01*
X-113781147Y150006302D01*
X-113781147Y150006301D01*
X-113796000Y149912519D01*
X-113796000Y149640044D01*
X-113813313Y149592478D01*
X-113817674Y149587718D01*
X-114099341Y149306052D01*
X-114099348Y149306044D01*
X-114118675Y149286717D01*
X-114164551Y149265325D01*
X-114213446Y149278426D01*
X-114242480Y149319890D01*
X-114245001Y149339035D01*
X-114245001Y149912518D01*
X-114259854Y150006304D01*
X-114317450Y150119342D01*
X-114407158Y150209050D01*
X-114520196Y150266646D01*
X-114613981Y150281500D01*
X-115077018Y150281499D01*
X-115077020Y150281499D01*
X-115170805Y150266646D01*
X-115170807Y150266645D01*
X-115229439Y150236770D01*
X-115283842Y150209050D01*
X-115373550Y150119342D01*
X-115393341Y150080500D01*
X-115410459Y150046904D01*
X-115447479Y150012382D01*
X-115476393Y150006500D01*
X-115546500Y150006500D01*
X-115594066Y150023813D01*
X-115619376Y150067650D01*
X-115620500Y150080500D01*
X-115620500Y150524173D01*
X-115620500Y150524180D01*
X-115630898Y150595548D01*
X-115684717Y150705635D01*
X-115771365Y150792283D01*
X-115881452Y150846102D01*
X-115952820Y150856500D01*
X-115952826Y150856500D01*
X-116633861Y150856500D01*
X-116681427Y150873813D01*
X-116702228Y150902182D01*
X-116736604Y150985174D01*
X-116736606Y150985179D01*
X-116824211Y151116289D01*
X-116935711Y151227789D01*
X-116998842Y151269971D01*
X-117028773Y151310793D01*
X-117025462Y151361303D01*
X-116990458Y151397869D01*
X-116957729Y151405500D01*
X-102320500Y151405500D01*
X-102272934Y151388187D01*
G37*
%TD.AperFunction*%
%TA.AperFunction,Conductor*%
G36*
X-110025587Y148137104D02*
G01*
X-110015707Y148128814D01*
X-109987342Y148100449D01*
X-109874305Y148042854D01*
X-109821807Y148034539D01*
X-109777535Y148009998D01*
X-109759395Y147962741D01*
X-109775876Y147914880D01*
X-109795102Y147898122D01*
X-109807843Y147890420D01*
X-109929419Y147768844D01*
X-110018370Y147621700D01*
X-110069517Y147457562D01*
X-110069519Y147457552D01*
X-110076000Y147386232D01*
X-110076000Y147282041D01*
X-110093313Y147234475D01*
X-110137150Y147209165D01*
X-110159654Y147208674D01*
X-110182500Y147211682D01*
X-110339262Y147191044D01*
X-110485341Y147130536D01*
X-110494453Y147123544D01*
X-110542727Y147108323D01*
X-110589493Y147127694D01*
X-110612867Y147172593D01*
X-110613500Y147182253D01*
X-110613500Y147350746D01*
X-110613500Y147350748D01*
X-110625133Y147409231D01*
X-110657427Y147457562D01*
X-110673497Y147481612D01*
X-110672466Y147482301D01*
X-110690600Y147521180D01*
X-110677504Y147570075D01*
X-110669208Y147579963D01*
X-110120358Y148128813D01*
X-110074482Y148150205D01*
X-110025587Y148137104D01*
G37*
%TD.AperFunction*%
%TD*%
M02*
