%TF.GenerationSoftware,KiCad,Pcbnew,7.0.10-7.0.10~ubuntu23.04.1*%
%TF.CreationDate,2024-02-23T00:51:23+00:00*%
%TF.ProjectId,TFI2CEXT01,54464932-4345-4585-9430-312e6b696361,REV*%
%TF.SameCoordinates,PX78dfd90PY8290510*%
%TF.FileFunction,Legend,Bot*%
%TF.FilePolarity,Positive*%
%FSLAX46Y46*%
G04 Gerber Fmt 4.6, Leading zero omitted, Abs format (unit mm)*
G04 Created by KiCad (PCBNEW 7.0.10-7.0.10~ubuntu23.04.1) date 2024-02-23 00:51:23*
%MOMM*%
%LPD*%
G01*
G04 APERTURE LIST*
%ADD10C,0.150000*%
%ADD11C,0.120000*%
G04 APERTURE END LIST*
D10*
X-102433715Y149198800D02*
X-102576572Y149151180D01*
X-102576572Y149151180D02*
X-102814667Y149151180D01*
X-102814667Y149151180D02*
X-102909905Y149198800D01*
X-102909905Y149198800D02*
X-102957524Y149246419D01*
X-102957524Y149246419D02*
X-103005143Y149341657D01*
X-103005143Y149341657D02*
X-103005143Y149436895D01*
X-103005143Y149436895D02*
X-102957524Y149532133D01*
X-102957524Y149532133D02*
X-102909905Y149579752D01*
X-102909905Y149579752D02*
X-102814667Y149627371D01*
X-102814667Y149627371D02*
X-102624191Y149674990D01*
X-102624191Y149674990D02*
X-102528953Y149722609D01*
X-102528953Y149722609D02*
X-102481334Y149770228D01*
X-102481334Y149770228D02*
X-102433715Y149865466D01*
X-102433715Y149865466D02*
X-102433715Y149960704D01*
X-102433715Y149960704D02*
X-102481334Y150055942D01*
X-102481334Y150055942D02*
X-102528953Y150103561D01*
X-102528953Y150103561D02*
X-102624191Y150151180D01*
X-102624191Y150151180D02*
X-102862286Y150151180D01*
X-102862286Y150151180D02*
X-103005143Y150103561D01*
X-103576572Y149151180D02*
X-103481334Y149198800D01*
X-103481334Y149198800D02*
X-103433715Y149294038D01*
X-103433715Y149294038D02*
X-103433715Y150151180D01*
X-104386096Y149151180D02*
X-104386096Y149674990D01*
X-104386096Y149674990D02*
X-104338477Y149770228D01*
X-104338477Y149770228D02*
X-104243239Y149817847D01*
X-104243239Y149817847D02*
X-104052763Y149817847D01*
X-104052763Y149817847D02*
X-103957525Y149770228D01*
X-104386096Y149198800D02*
X-104290858Y149151180D01*
X-104290858Y149151180D02*
X-104052763Y149151180D01*
X-104052763Y149151180D02*
X-103957525Y149198800D01*
X-103957525Y149198800D02*
X-103909906Y149294038D01*
X-103909906Y149294038D02*
X-103909906Y149389276D01*
X-103909906Y149389276D02*
X-103957525Y149484514D01*
X-103957525Y149484514D02*
X-104052763Y149532133D01*
X-104052763Y149532133D02*
X-104290858Y149532133D01*
X-104290858Y149532133D02*
X-104386096Y149579752D01*
X-104767049Y149817847D02*
X-105005144Y149151180D01*
X-105005144Y149151180D02*
X-105243239Y149817847D01*
X-106005144Y149198800D02*
X-105909906Y149151180D01*
X-105909906Y149151180D02*
X-105719430Y149151180D01*
X-105719430Y149151180D02*
X-105624192Y149198800D01*
X-105624192Y149198800D02*
X-105576573Y149294038D01*
X-105576573Y149294038D02*
X-105576573Y149674990D01*
X-105576573Y149674990D02*
X-105624192Y149770228D01*
X-105624192Y149770228D02*
X-105719430Y149817847D01*
X-105719430Y149817847D02*
X-105909906Y149817847D01*
X-105909906Y149817847D02*
X-106005144Y149770228D01*
X-106005144Y149770228D02*
X-106052763Y149674990D01*
X-106052763Y149674990D02*
X-106052763Y149579752D01*
X-106052763Y149579752D02*
X-105576573Y149484514D01*
X-106433716Y149198800D02*
X-106528954Y149151180D01*
X-106528954Y149151180D02*
X-106719430Y149151180D01*
X-106719430Y149151180D02*
X-106814668Y149198800D01*
X-106814668Y149198800D02*
X-106862287Y149294038D01*
X-106862287Y149294038D02*
X-106862287Y149341657D01*
X-106862287Y149341657D02*
X-106814668Y149436895D01*
X-106814668Y149436895D02*
X-106719430Y149484514D01*
X-106719430Y149484514D02*
X-106576573Y149484514D01*
X-106576573Y149484514D02*
X-106481335Y149532133D01*
X-106481335Y149532133D02*
X-106433716Y149627371D01*
X-106433716Y149627371D02*
X-106433716Y149674990D01*
X-106433716Y149674990D02*
X-106481335Y149770228D01*
X-106481335Y149770228D02*
X-106576573Y149817847D01*
X-106576573Y149817847D02*
X-106719430Y149817847D01*
X-106719430Y149817847D02*
X-106814668Y149770228D01*
X-121610715Y149151180D02*
X-121610715Y150151180D01*
X-121610715Y150151180D02*
X-121944048Y149436895D01*
X-121944048Y149436895D02*
X-122277381Y150151180D01*
X-122277381Y150151180D02*
X-122277381Y149151180D01*
X-123182143Y149151180D02*
X-123182143Y149674990D01*
X-123182143Y149674990D02*
X-123134524Y149770228D01*
X-123134524Y149770228D02*
X-123039286Y149817847D01*
X-123039286Y149817847D02*
X-122848810Y149817847D01*
X-122848810Y149817847D02*
X-122753572Y149770228D01*
X-123182143Y149198800D02*
X-123086905Y149151180D01*
X-123086905Y149151180D02*
X-122848810Y149151180D01*
X-122848810Y149151180D02*
X-122753572Y149198800D01*
X-122753572Y149198800D02*
X-122705953Y149294038D01*
X-122705953Y149294038D02*
X-122705953Y149389276D01*
X-122705953Y149389276D02*
X-122753572Y149484514D01*
X-122753572Y149484514D02*
X-122848810Y149532133D01*
X-122848810Y149532133D02*
X-123086905Y149532133D01*
X-123086905Y149532133D02*
X-123182143Y149579752D01*
X-123610715Y149198800D02*
X-123705953Y149151180D01*
X-123705953Y149151180D02*
X-123896429Y149151180D01*
X-123896429Y149151180D02*
X-123991667Y149198800D01*
X-123991667Y149198800D02*
X-124039286Y149294038D01*
X-124039286Y149294038D02*
X-124039286Y149341657D01*
X-124039286Y149341657D02*
X-123991667Y149436895D01*
X-123991667Y149436895D02*
X-123896429Y149484514D01*
X-123896429Y149484514D02*
X-123753572Y149484514D01*
X-123753572Y149484514D02*
X-123658334Y149532133D01*
X-123658334Y149532133D02*
X-123610715Y149627371D01*
X-123610715Y149627371D02*
X-123610715Y149674990D01*
X-123610715Y149674990D02*
X-123658334Y149770228D01*
X-123658334Y149770228D02*
X-123753572Y149817847D01*
X-123753572Y149817847D02*
X-123896429Y149817847D01*
X-123896429Y149817847D02*
X-123991667Y149770228D01*
X-124325001Y149817847D02*
X-124705953Y149817847D01*
X-124467858Y150151180D02*
X-124467858Y149294038D01*
X-124467858Y149294038D02*
X-124515477Y149198800D01*
X-124515477Y149198800D02*
X-124610715Y149151180D01*
X-124610715Y149151180D02*
X-124705953Y149151180D01*
X-125420239Y149198800D02*
X-125325001Y149151180D01*
X-125325001Y149151180D02*
X-125134525Y149151180D01*
X-125134525Y149151180D02*
X-125039287Y149198800D01*
X-125039287Y149198800D02*
X-124991668Y149294038D01*
X-124991668Y149294038D02*
X-124991668Y149674990D01*
X-124991668Y149674990D02*
X-125039287Y149770228D01*
X-125039287Y149770228D02*
X-125134525Y149817847D01*
X-125134525Y149817847D02*
X-125325001Y149817847D01*
X-125325001Y149817847D02*
X-125420239Y149770228D01*
X-125420239Y149770228D02*
X-125467858Y149674990D01*
X-125467858Y149674990D02*
X-125467858Y149579752D01*
X-125467858Y149579752D02*
X-124991668Y149484514D01*
X-125896430Y149151180D02*
X-125896430Y149817847D01*
X-125896430Y149627371D02*
X-125944049Y149722609D01*
X-125944049Y149722609D02*
X-125991668Y149770228D01*
X-125991668Y149770228D02*
X-126086906Y149817847D01*
X-126086906Y149817847D02*
X-126182144Y149817847D01*
X-124497181Y144732333D02*
X-123782896Y144732333D01*
X-123782896Y144732333D02*
X-123640039Y144779952D01*
X-123640039Y144779952D02*
X-123544800Y144875190D01*
X-123544800Y144875190D02*
X-123497181Y145018047D01*
X-123497181Y145018047D02*
X-123497181Y145113285D01*
X-123497181Y143732333D02*
X-123497181Y144303761D01*
X-123497181Y144018047D02*
X-124497181Y144018047D01*
X-124497181Y144018047D02*
X-124354324Y144113285D01*
X-124354324Y144113285D02*
X-124259086Y144208523D01*
X-124259086Y144208523D02*
X-124211467Y144303761D01*
X-104608981Y145341933D02*
X-103894696Y145341933D01*
X-103894696Y145341933D02*
X-103751839Y145389552D01*
X-103751839Y145389552D02*
X-103656600Y145484790D01*
X-103656600Y145484790D02*
X-103608981Y145627647D01*
X-103608981Y145627647D02*
X-103608981Y145722885D01*
X-104608981Y144960980D02*
X-104608981Y144341933D01*
X-104608981Y144341933D02*
X-104228029Y144675266D01*
X-104228029Y144675266D02*
X-104228029Y144532409D01*
X-104228029Y144532409D02*
X-104180410Y144437171D01*
X-104180410Y144437171D02*
X-104132791Y144389552D01*
X-104132791Y144389552D02*
X-104037553Y144341933D01*
X-104037553Y144341933D02*
X-103799458Y144341933D01*
X-103799458Y144341933D02*
X-103704220Y144389552D01*
X-103704220Y144389552D02*
X-103656600Y144437171D01*
X-103656600Y144437171D02*
X-103608981Y144532409D01*
X-103608981Y144532409D02*
X-103608981Y144818123D01*
X-103608981Y144818123D02*
X-103656600Y144913361D01*
X-103656600Y144913361D02*
X-103704220Y144960980D01*
D11*
%TO.C,R4*%
X-113808742Y138923500D02*
X-114283258Y138923500D01*
X-113808742Y139968500D02*
X-114283258Y139968500D01*
%TO.C,U2*%
X-110394000Y144406000D02*
X-110394000Y141406000D01*
X-113634000Y145406000D02*
X-113634000Y143406000D01*
%TO.C,C2*%
X-116092500Y142028242D02*
X-116092500Y142502758D01*
X-115047500Y142028242D02*
X-115047500Y142502758D01*
%TO.C,D2*%
X-118780000Y145851000D02*
X-119980000Y145851000D01*
X-119980000Y147701000D02*
X-119980000Y145851000D01*
X-118780000Y147701000D02*
X-118780000Y145851000D01*
%TO.C,R5*%
X-109996500Y139081742D02*
X-109996500Y139556258D01*
X-108951500Y139081742D02*
X-108951500Y139556258D01*
%TO.C,C3*%
X-115965500Y146168242D02*
X-115965500Y146642758D01*
X-114920500Y146168242D02*
X-114920500Y146642758D01*
%TO.C,J1*%
X-123686000Y140171000D02*
X-122236000Y140171000D01*
X-122236000Y140171000D02*
X-122236000Y141971000D01*
X-126506000Y141441000D02*
X-126506000Y147371000D01*
X-122236000Y141971000D02*
X-121246000Y141971000D01*
X-123686000Y148641000D02*
X-122236000Y148641000D01*
X-122236000Y148641000D02*
X-122236000Y146841000D01*
%TO.C,U1*%
X-119797000Y143002000D02*
X-119797000Y142202000D01*
X-119797000Y143002000D02*
X-119797000Y143802000D01*
X-116677000Y143002000D02*
X-116677000Y141202000D01*
X-116677000Y143002000D02*
X-116677000Y143802000D01*
%TO.C,R1*%
X-113783242Y149083500D02*
X-114257758Y149083500D01*
X-113783242Y150128500D02*
X-114257758Y150128500D01*
%TO.C,R6*%
X-108951500Y149690758D02*
X-108951500Y149216242D01*
X-109996500Y149690758D02*
X-109996500Y149216242D01*
%TO.C,R2*%
X-112028500Y139081742D02*
X-112028500Y139556258D01*
X-110983500Y139081742D02*
X-110983500Y139556258D01*
%TO.C,R3*%
X-110983500Y149690758D02*
X-110983500Y149216242D01*
X-112028500Y149690758D02*
X-112028500Y149216242D01*
%TO.C,J3*%
X-104806000Y148641000D02*
X-106256000Y148641000D01*
X-106256000Y148641000D02*
X-106256000Y146841000D01*
X-101986000Y147371000D02*
X-101986000Y141441000D01*
X-106256000Y146841000D02*
X-107246000Y146841000D01*
X-104806000Y140171000D02*
X-106256000Y140171000D01*
X-106256000Y140171000D02*
X-106256000Y141971000D01*
%TO.C,C1*%
X-117956000Y146487248D02*
X-117956000Y147009752D01*
X-116486000Y146487248D02*
X-116486000Y147009752D01*
%TO.C,C4*%
X-109615500Y146066742D02*
X-109615500Y146541258D01*
X-108570500Y146066742D02*
X-108570500Y146541258D01*
%TD*%
M02*
