%TF.GenerationSoftware,KiCad,Pcbnew,8.0.3+1*%
%TF.CreationDate,2024-07-17T01:00:37+00:00*%
%TF.ProjectId,TFI2CEXT01,54464932-4345-4585-9430-312e6b696361,REV*%
%TF.SameCoordinates,PX78dfd90PY8290510*%
%TF.FileFunction,Copper,L1,Top*%
%TF.FilePolarity,Positive*%
%FSLAX46Y46*%
G04 Gerber Fmt 4.6, Leading zero omitted, Abs format (unit mm)*
G04 Created by KiCad (PCBNEW 8.0.3+1) date 2024-07-17 01:00:37*
%MOMM*%
%LPD*%
G01*
G04 APERTURE LIST*
G04 Aperture macros list*
%AMRoundRect*
0 Rectangle with rounded corners*
0 $1 Rounding radius*
0 $2 $3 $4 $5 $6 $7 $8 $9 X,Y pos of 4 corners*
0 Add a 4 corners polygon primitive as box body*
4,1,4,$2,$3,$4,$5,$6,$7,$8,$9,$2,$3,0*
0 Add four circle primitives for the rounded corners*
1,1,$1+$1,$2,$3*
1,1,$1+$1,$4,$5*
1,1,$1+$1,$6,$7*
1,1,$1+$1,$8,$9*
0 Add four rect primitives between the rounded corners*
20,1,$1+$1,$2,$3,$4,$5,0*
20,1,$1+$1,$4,$5,$6,$7,0*
20,1,$1+$1,$6,$7,$8,$9,0*
20,1,$1+$1,$8,$9,$2,$3,0*%
G04 Aperture macros list end*
%TA.AperFunction,SMDPad,CuDef*%
%ADD10RoundRect,0.150000X-0.700000X0.150000X-0.700000X-0.150000X0.700000X-0.150000X0.700000X0.150000X0*%
%TD*%
%TA.AperFunction,SMDPad,CuDef*%
%ADD11RoundRect,0.250000X-1.100000X0.250000X-1.100000X-0.250000X1.100000X-0.250000X1.100000X0.250000X0*%
%TD*%
%TA.AperFunction,SMDPad,CuDef*%
%ADD12RoundRect,0.150000X0.700000X-0.150000X0.700000X0.150000X-0.700000X0.150000X-0.700000X-0.150000X0*%
%TD*%
%TA.AperFunction,SMDPad,CuDef*%
%ADD13RoundRect,0.250000X1.100000X-0.250000X1.100000X0.250000X-1.100000X0.250000X-1.100000X-0.250000X0*%
%TD*%
%TA.AperFunction,ViaPad*%
%ADD14C,0.800000*%
%TD*%
%TA.AperFunction,Conductor*%
%ADD15C,0.300000*%
%TD*%
%TA.AperFunction,Conductor*%
%ADD16C,0.400000*%
%TD*%
G04 APERTURE END LIST*
D10*
%TO.P,J2,1*%
%TO.N,+5V*%
X-122096000Y146281000D03*
%TO.P,J2,2*%
%TO.N,/SCLin*%
X-122096000Y145031000D03*
%TO.P,J2,3*%
%TO.N,/SDAin*%
X-122096000Y143781000D03*
%TO.P,J2,4*%
%TO.N,GND*%
X-122096000Y142531000D03*
D11*
%TO.P,J2,MP*%
X-125296000Y148131000D03*
X-125296000Y140681000D03*
%TD*%
D12*
%TO.P,J4,1*%
%TO.N,+5V*%
X-106396000Y142531000D03*
%TO.P,J4,2*%
%TO.N,/SCLout*%
X-106396000Y143781000D03*
%TO.P,J4,3*%
%TO.N,/SDAout*%
X-106396000Y145031000D03*
%TO.P,J4,4*%
%TO.N,GND*%
X-106396000Y146281000D03*
D13*
%TO.P,J4,MP*%
X-103196000Y140681000D03*
X-103196000Y148131000D03*
%TD*%
D14*
%TO.N,GND*%
X-103632000Y138938000D03*
X-123698000Y138938000D03*
X-103632000Y149860000D03*
X-105791000Y139573000D03*
X-122174000Y150749000D03*
X-122301000Y138811000D03*
X-120523000Y141224000D03*
X-109728000Y147536500D03*
X-122047000Y148209000D03*
X-102743000Y143510000D03*
X-107061000Y140970000D03*
X-120523000Y148209000D03*
X-102743000Y146558000D03*
X-118519002Y145415000D03*
X-125730000Y138938000D03*
X-122174000Y149733000D03*
X-107061000Y138303000D03*
X-122174000Y140716000D03*
X-125730000Y150368000D03*
X-102743000Y142494000D03*
X-105791000Y140970000D03*
X-102616000Y149860000D03*
X-102616000Y138938000D03*
X-125730000Y144526000D03*
X-107061000Y139573000D03*
X-106426000Y150495000D03*
X-107696000Y150495000D03*
X-125489629Y146116907D03*
X-125730000Y142367000D03*
X-102743000Y145542000D03*
X-113538000Y140589000D03*
X-118237000Y142981500D03*
X-102743000Y144526000D03*
%TO.N,+3V3*%
X-110182500Y146606000D03*
X-114457125Y146600000D03*
%TO.N,+5V*%
X-120269000Y146304000D03*
X-113792000Y148336000D03*
X-106426000Y147320000D03*
X-123571000Y142621000D03*
%TO.N,/SDAin*%
X-123825000Y143764000D03*
X-113535443Y143773778D03*
%TO.N,/SCLin*%
X-120393000Y145031000D03*
X-112395000Y143764000D03*
%TO.N,/SCLout*%
X-110871000Y143764000D03*
X-108094000Y143781000D03*
%TO.N,/SDAout*%
X-111606961Y145022566D03*
X-104946500Y143825798D03*
%TD*%
D15*
%TO.N,GND*%
X-106396000Y146281000D02*
X-104625000Y146281000D01*
D16*
X-122047000Y148209000D02*
X-120523000Y148209000D01*
X-125489629Y144766371D02*
X-125730000Y144526000D01*
X-125489629Y146116907D02*
X-125489629Y144766371D01*
%TO.N,+3V3*%
X-110182500Y146606000D02*
X-114446525Y146606000D01*
X-114446525Y146606000D02*
X-114457125Y146595400D01*
%TO.N,+5V*%
X-107442000Y148336000D02*
X-106426000Y147320000D01*
X-124714000Y143256000D02*
X-124079000Y142621000D01*
X-124714000Y145139000D02*
X-124714000Y143256000D01*
X-104870000Y147320000D02*
X-103632000Y146082000D01*
X-122096000Y146281000D02*
X-123572000Y146281000D01*
X-104357000Y142531000D02*
X-106396000Y142531000D01*
X-115464000Y148336000D02*
X-117496000Y146304000D01*
X-123572000Y146281000D02*
X-124714000Y145139000D01*
X-113792000Y148336000D02*
X-107442000Y148336000D01*
X-103632000Y146082000D02*
X-103632000Y143256000D01*
X-106426000Y147320000D02*
X-104870000Y147320000D01*
X-120269000Y146304000D02*
X-122073000Y146304000D01*
X-103632000Y143256000D02*
X-104357000Y142531000D01*
X-124079000Y142621000D02*
X-123571000Y142621000D01*
X-113792000Y148336000D02*
X-115464000Y148336000D01*
X-122073000Y146304000D02*
X-122096000Y146281000D01*
X-117496000Y146304000D02*
X-120269000Y146304000D01*
%TO.N,/SDAin*%
X-113535443Y143773778D02*
X-113542665Y143781000D01*
X-122113000Y143764000D02*
X-122096000Y143781000D01*
X-123825000Y143764000D02*
X-122113000Y143764000D01*
X-113542665Y143781000D02*
X-122096000Y143781000D01*
%TO.N,/SCLin*%
X-122096000Y145031000D02*
X-120393000Y145031000D01*
X-113204289Y144573289D02*
X-112395000Y143764000D01*
X-119935289Y144573289D02*
X-113204289Y144573289D01*
X-120393000Y145031000D02*
X-119935289Y144573289D01*
%TO.N,/SCLout*%
X-110871000Y143764000D02*
X-110854000Y143781000D01*
X-106396000Y143781000D02*
X-108094000Y143781000D01*
X-110854000Y143781000D02*
X-108094000Y143781000D01*
%TO.N,/SDAout*%
X-106396000Y145031000D02*
X-111598527Y145031000D01*
X-104946500Y144546500D02*
X-105431000Y145031000D01*
X-104946500Y143825798D02*
X-104946500Y144546500D01*
X-111598527Y145031000D02*
X-111606961Y145022566D01*
X-105431000Y145031000D02*
X-106396000Y145031000D01*
%TD*%
%TA.AperFunction,Conductor*%
%TO.N,GND*%
G36*
X-119481945Y151383826D02*
G01*
X-119460271Y151331500D01*
X-119481945Y151279174D01*
X-119493159Y151269971D01*
X-119556289Y151227789D01*
X-119667790Y151116288D01*
X-119755397Y150985174D01*
X-119815736Y150839501D01*
X-119815739Y150839491D01*
X-119846500Y150684840D01*
X-119846500Y149127159D01*
X-119815739Y148972508D01*
X-119815736Y148972498D01*
X-119755397Y148826825D01*
X-119667790Y148695711D01*
X-119667788Y148695710D01*
X-119556290Y148584212D01*
X-119556289Y148584210D01*
X-119483126Y148535325D01*
X-119425179Y148496606D01*
X-119425178Y148496605D01*
X-119425174Y148496603D01*
X-119425175Y148496603D01*
X-119279502Y148436264D01*
X-119279492Y148436261D01*
X-119168685Y148414220D01*
X-119124842Y148405500D01*
X-119124840Y148405500D01*
X-117367160Y148405500D01*
X-117367158Y148405500D01*
X-117316075Y148415661D01*
X-117212509Y148436261D01*
X-117212499Y148436264D01*
X-117066826Y148496603D01*
X-117066823Y148496605D01*
X-117066821Y148496606D01*
X-116935711Y148584211D01*
X-116824211Y148695711D01*
X-116736606Y148826821D01*
X-116725206Y148854342D01*
X-116676265Y148972498D01*
X-116676262Y148972508D01*
X-116645500Y149127159D01*
X-116645500Y150684840D01*
X-116676262Y150839491D01*
X-116676263Y150839497D01*
X-116736606Y150985179D01*
X-116824211Y151116289D01*
X-116935711Y151227789D01*
X-116998842Y151269971D01*
X-117030307Y151317063D01*
X-117019258Y151372612D01*
X-116972166Y151404078D01*
X-116957729Y151405500D01*
X-102320500Y151405500D01*
X-102268174Y151383826D01*
X-102246500Y151331500D01*
X-102246500Y149213000D01*
X-102268174Y149160674D01*
X-102320500Y149139000D01*
X-102942000Y149139000D01*
X-102942000Y147123000D01*
X-102320500Y147123000D01*
X-102268174Y147101326D01*
X-102246500Y147049000D01*
X-102246500Y141763000D01*
X-102268174Y141710674D01*
X-102320500Y141689000D01*
X-102942000Y141689000D01*
X-102942000Y139673000D01*
X-102320500Y139673000D01*
X-102268174Y139651326D01*
X-102246500Y139599000D01*
X-102246500Y137480500D01*
X-102268174Y137428174D01*
X-102320500Y137406500D01*
X-116957729Y137406500D01*
X-117010055Y137428174D01*
X-117031729Y137480500D01*
X-117010055Y137532826D01*
X-116998841Y137542029D01*
X-116935712Y137584210D01*
X-116824211Y137695711D01*
X-116736606Y137826821D01*
X-116676263Y137972503D01*
X-116645500Y138127158D01*
X-116645500Y138206000D01*
X-116645500Y138271892D01*
X-116645500Y139671892D01*
X-116645500Y139684842D01*
X-116676263Y139839497D01*
X-116736606Y139985179D01*
X-116824211Y140116289D01*
X-116935711Y140227789D01*
X-117066821Y140315394D01*
X-117212503Y140375737D01*
X-117236423Y140380495D01*
X-105054000Y140380495D01*
X-105043394Y140276674D01*
X-104987658Y140108475D01*
X-104894635Y139957661D01*
X-104769339Y139832365D01*
X-104618525Y139739342D01*
X-104450326Y139683606D01*
X-104346505Y139673000D01*
X-103450000Y139673000D01*
X-103450000Y140427000D01*
X-105054000Y140427000D01*
X-105054000Y140380495D01*
X-117236423Y140380495D01*
X-117367158Y140406500D01*
X-117380108Y140406500D01*
X-118980108Y140406500D01*
X-119046000Y140406500D01*
X-119124842Y140406500D01*
X-119279497Y140375737D01*
X-119279502Y140375735D01*
X-119425175Y140315396D01*
X-119425177Y140315395D01*
X-119425179Y140315394D01*
X-119556289Y140227789D01*
X-119667790Y140116288D01*
X-119755397Y139985174D01*
X-119815736Y139839501D01*
X-119815739Y139839491D01*
X-119846500Y139684840D01*
X-119846500Y138127159D01*
X-119815739Y137972508D01*
X-119815736Y137972498D01*
X-119755397Y137826825D01*
X-119667790Y137695711D01*
X-119667788Y137695710D01*
X-119556290Y137584212D01*
X-119556289Y137584210D01*
X-119493159Y137542029D01*
X-119461693Y137494937D01*
X-119472742Y137439388D01*
X-119519834Y137407922D01*
X-119534271Y137406500D01*
X-126171500Y137406500D01*
X-126223826Y137428174D01*
X-126245500Y137480500D01*
X-126245500Y139599000D01*
X-126223826Y139651326D01*
X-126171500Y139673000D01*
X-125550000Y139673000D01*
X-125042000Y139673000D01*
X-124145496Y139673000D01*
X-124041675Y139683606D01*
X-123873476Y139739342D01*
X-123722662Y139832365D01*
X-123722658Y139832368D01*
X-123597368Y139957658D01*
X-123597366Y139957661D01*
X-123504343Y140108475D01*
X-123448607Y140276674D01*
X-123438001Y140380495D01*
X-123438000Y140380497D01*
X-123438000Y140427000D01*
X-125042000Y140427000D01*
X-125042000Y139673000D01*
X-125550000Y139673000D01*
X-125550000Y140935000D01*
X-125042000Y140935000D01*
X-123438000Y140935000D01*
X-123438000Y140981502D01*
X-123438001Y140981504D01*
X-105054000Y140981504D01*
X-105054000Y140935000D01*
X-103450000Y140935000D01*
X-103450000Y141689000D01*
X-104346502Y141689000D01*
X-104346505Y141688999D01*
X-104450326Y141678393D01*
X-104618525Y141622657D01*
X-104769339Y141529634D01*
X-104769342Y141529632D01*
X-104894632Y141404342D01*
X-104894635Y141404338D01*
X-104987658Y141253524D01*
X-105043394Y141085325D01*
X-105054000Y140981504D01*
X-123438001Y140981504D01*
X-123448607Y141085325D01*
X-123504343Y141253524D01*
X-123597366Y141404338D01*
X-123597368Y141404342D01*
X-123722658Y141529632D01*
X-123722662Y141529634D01*
X-123873476Y141622657D01*
X-124041675Y141678393D01*
X-124145496Y141688999D01*
X-124145498Y141689000D01*
X-125042000Y141689000D01*
X-125042000Y140935000D01*
X-125550000Y140935000D01*
X-125550000Y141689000D01*
X-126171500Y141689000D01*
X-126223826Y141710674D01*
X-126245500Y141763000D01*
X-126245500Y145191727D01*
X-125114500Y145191727D01*
X-125114500Y143308727D01*
X-125114500Y143203273D01*
X-125103617Y143162658D01*
X-125087207Y143101411D01*
X-125087205Y143101407D01*
X-125034483Y143010090D01*
X-124399482Y142375089D01*
X-124324914Y142300520D01*
X-124233589Y142247793D01*
X-124233584Y142247791D01*
X-124131730Y142220499D01*
X-124057091Y142220499D01*
X-124004765Y142198825D01*
X-124000324Y142193760D01*
X-123999278Y142192713D01*
X-123873842Y142096464D01*
X-123727762Y142035955D01*
X-123571001Y142015318D01*
X-123571000Y142015318D01*
X-123414238Y142035956D01*
X-123409430Y142036589D01*
X-123409033Y142033572D01*
X-123362304Y142027339D01*
X-123335720Y142000988D01*
X-123320056Y141974502D01*
X-123202499Y141856945D01*
X-123059402Y141772318D01*
X-122899755Y141725935D01*
X-122862456Y141723000D01*
X-122350000Y141723000D01*
X-121842000Y141723000D01*
X-121329546Y141723000D01*
X-121329544Y141723001D01*
X-121292248Y141725935D01*
X-121132599Y141772318D01*
X-120989502Y141856945D01*
X-120871946Y141974501D01*
X-120787319Y142117598D01*
X-120741007Y142277000D01*
X-121842000Y142277000D01*
X-121842000Y141723000D01*
X-122350000Y141723000D01*
X-122350000Y142711000D01*
X-122328326Y142763326D01*
X-122276000Y142785000D01*
X-120741007Y142785000D01*
X-120787319Y142944401D01*
X-120871946Y143087498D01*
X-120989502Y143205054D01*
X-121053335Y143242805D01*
X-121087341Y143288097D01*
X-121079361Y143344169D01*
X-121034069Y143378175D01*
X-121015666Y143380500D01*
X-114027077Y143380500D01*
X-113974751Y143358826D01*
X-113968367Y143351546D01*
X-113963727Y143345498D01*
X-113963725Y143345495D01*
X-113838285Y143249242D01*
X-113692205Y143188733D01*
X-113535443Y143168096D01*
X-113378683Y143188733D01*
X-113378682Y143188733D01*
X-113232602Y143249242D01*
X-113107164Y143345493D01*
X-113107159Y143345498D01*
X-113027681Y143449076D01*
X-112978632Y143477395D01*
X-112923925Y143462736D01*
X-112910265Y143449076D01*
X-112823285Y143335720D01*
X-112823280Y143335715D01*
X-112697842Y143239464D01*
X-112551762Y143178955D01*
X-112395000Y143158318D01*
X-112238240Y143178955D01*
X-112238239Y143178955D01*
X-112092159Y143239464D01*
X-111966721Y143335715D01*
X-111966716Y143335720D01*
X-111898580Y143424517D01*
X-111870464Y143461159D01*
X-111809956Y143607238D01*
X-111789318Y143764000D01*
X-111809956Y143920762D01*
X-111870464Y144066841D01*
X-111966718Y144192282D01*
X-112092159Y144288536D01*
X-112238238Y144349044D01*
X-112395000Y144369682D01*
X-112395001Y144369681D01*
X-112395001Y144369682D01*
X-112399850Y144369682D01*
X-112399850Y144371566D01*
X-112448242Y144384530D01*
X-112455516Y144390907D01*
X-112958376Y144893769D01*
X-113049701Y144946496D01*
X-113151562Y144973789D01*
X-113151563Y144973789D01*
X-119714890Y144973789D01*
X-119767216Y144995463D01*
X-119780582Y145022566D01*
X-112212643Y145022566D01*
X-112192006Y144865805D01*
X-112192006Y144865804D01*
X-112131497Y144719724D01*
X-112035246Y144594286D01*
X-112035241Y144594281D01*
X-111909803Y144498030D01*
X-111763723Y144437521D01*
X-111606961Y144416884D01*
X-111450201Y144437521D01*
X-111450200Y144437521D01*
X-111304120Y144498030D01*
X-111261804Y144530500D01*
X-111178679Y144594284D01*
X-111173106Y144601548D01*
X-111124058Y144629867D01*
X-111114397Y144630500D01*
X-107371833Y144630500D01*
X-107319507Y144608826D01*
X-107302483Y144591801D01*
X-107197395Y144540427D01*
X-107129265Y144530500D01*
X-107129260Y144530500D01*
X-105662736Y144530500D01*
X-105594607Y144540427D01*
X-105583111Y144546047D01*
X-105526582Y144549555D01*
X-105498286Y144531891D01*
X-105368674Y144402280D01*
X-105347000Y144349954D01*
X-105347000Y144311890D01*
X-105368674Y144259564D01*
X-105373739Y144255122D01*
X-105374778Y144254083D01*
X-105374782Y144254080D01*
X-105374785Y144254076D01*
X-105374787Y144254074D01*
X-105388668Y144235985D01*
X-105437717Y144207667D01*
X-105483259Y144219037D01*
X-105484008Y144217505D01*
X-105552696Y144251084D01*
X-105594607Y144271573D01*
X-105662740Y144281500D01*
X-107129260Y144281500D01*
X-107197393Y144271573D01*
X-107197395Y144271572D01*
X-107302483Y144220198D01*
X-107319507Y144203174D01*
X-107371833Y144181500D01*
X-107607908Y144181500D01*
X-107660234Y144203174D01*
X-107664679Y144208241D01*
X-107665715Y144209277D01*
X-107665718Y144209282D01*
X-107791159Y144305536D01*
X-107937238Y144366044D01*
X-108094000Y144386682D01*
X-108250762Y144366044D01*
X-108396841Y144305536D01*
X-108418996Y144288536D01*
X-108522278Y144209286D01*
X-108525707Y144205856D01*
X-108527038Y144207186D01*
X-108570435Y144182133D01*
X-108580092Y144181500D01*
X-110403547Y144181500D01*
X-110448595Y144196792D01*
X-110499673Y144235985D01*
X-110568159Y144288536D01*
X-110714238Y144349044D01*
X-110871000Y144369682D01*
X-111027762Y144349044D01*
X-111173841Y144288536D01*
X-111183012Y144281499D01*
X-111299280Y144192284D01*
X-111299285Y144192279D01*
X-111395536Y144066841D01*
X-111456045Y143920761D01*
X-111456045Y143920760D01*
X-111476682Y143764000D01*
X-111456045Y143607239D01*
X-111456045Y143607238D01*
X-111395536Y143461158D01*
X-111299285Y143335720D01*
X-111299280Y143335715D01*
X-111173842Y143239464D01*
X-111027762Y143178955D01*
X-110871000Y143158318D01*
X-110714240Y143178955D01*
X-110714239Y143178955D01*
X-110568159Y143239464D01*
X-110442721Y143335715D01*
X-110442717Y143335719D01*
X-110430572Y143351547D01*
X-110381523Y143379867D01*
X-110371863Y143380500D01*
X-108580092Y143380500D01*
X-108527766Y143358826D01*
X-108523322Y143353758D01*
X-108522278Y143352713D01*
X-108396842Y143256464D01*
X-108250762Y143195955D01*
X-108094000Y143175318D01*
X-107937240Y143195955D01*
X-107937239Y143195955D01*
X-107791159Y143256464D01*
X-107665723Y143352713D01*
X-107662293Y143356144D01*
X-107660963Y143354813D01*
X-107617565Y143379867D01*
X-107607908Y143380500D01*
X-107371833Y143380500D01*
X-107319507Y143358826D01*
X-107302483Y143341801D01*
X-107197395Y143290427D01*
X-107129265Y143280500D01*
X-107129260Y143280500D01*
X-105662736Y143280500D01*
X-105594607Y143290427D01*
X-105594606Y143290427D01*
X-105489518Y143341801D01*
X-105454067Y143377252D01*
X-105401741Y143398926D01*
X-105356693Y143383635D01*
X-105249340Y143301261D01*
X-105103262Y143240753D01*
X-104946500Y143220116D01*
X-104789740Y143240753D01*
X-104789739Y143240753D01*
X-104643659Y143301262D01*
X-104518221Y143397513D01*
X-104518216Y143397518D01*
X-104421965Y143522956D01*
X-104421964Y143522957D01*
X-104361456Y143669036D01*
X-104340818Y143825798D01*
X-104361456Y143982560D01*
X-104421964Y144128639D01*
X-104518218Y144254080D01*
X-104518223Y144254083D01*
X-104521645Y144257506D01*
X-104520314Y144258838D01*
X-104545367Y144302229D01*
X-104546000Y144311890D01*
X-104546000Y144599229D01*
X-104573292Y144701082D01*
X-104573293Y144701087D01*
X-104626020Y144792413D01*
X-104700587Y144866980D01*
X-105185087Y145351480D01*
X-105276412Y145404207D01*
X-105351305Y145424273D01*
X-105396235Y145458750D01*
X-105403629Y145514903D01*
X-105369819Y145559446D01*
X-105289502Y145606945D01*
X-105171946Y145724501D01*
X-105087319Y145867598D01*
X-105041007Y146027000D01*
X-107750993Y146027000D01*
X-107704682Y145867598D01*
X-107620055Y145724501D01*
X-107502499Y145606945D01*
X-107438665Y145569195D01*
X-107404659Y145523903D01*
X-107412639Y145467831D01*
X-107457931Y145433825D01*
X-107476334Y145431500D01*
X-111128680Y145431500D01*
X-111173247Y145449959D01*
X-111174831Y145447895D01*
X-111178682Y145450850D01*
X-111304120Y145547102D01*
X-111450199Y145607610D01*
X-111606961Y145628248D01*
X-111763723Y145607610D01*
X-111909802Y145547102D01*
X-111909803Y145547101D01*
X-112035241Y145450850D01*
X-112035246Y145450845D01*
X-112131497Y145325407D01*
X-112192006Y145179327D01*
X-112192006Y145179326D01*
X-112212643Y145022566D01*
X-119780582Y145022566D01*
X-119788257Y145038130D01*
X-119806846Y145179326D01*
X-119807956Y145187762D01*
X-119868464Y145333841D01*
X-119964718Y145459282D01*
X-120090159Y145555536D01*
X-120139712Y145576061D01*
X-120179760Y145616109D01*
X-120179760Y145672746D01*
X-120139712Y145712795D01*
X-120121055Y145717795D01*
X-120112238Y145718956D01*
X-119966159Y145779464D01*
X-119840723Y145875713D01*
X-119837293Y145879144D01*
X-119835963Y145877813D01*
X-119792565Y145902867D01*
X-119782908Y145903500D01*
X-117443274Y145903500D01*
X-117443273Y145903500D01*
X-117341412Y145930793D01*
X-117341408Y145930795D01*
X-117250091Y145983517D01*
X-117250090Y145983518D01*
X-117250087Y145983520D01*
X-116633607Y146600000D01*
X-115062807Y146600000D01*
X-115042170Y146443239D01*
X-115042170Y146443238D01*
X-114981661Y146297158D01*
X-114885410Y146171720D01*
X-114885405Y146171715D01*
X-114759967Y146075464D01*
X-114613887Y146014955D01*
X-114457125Y145994318D01*
X-114300365Y146014955D01*
X-114300364Y146014955D01*
X-114154284Y146075464D01*
X-114028848Y146171713D01*
X-114028846Y146171715D01*
X-114028845Y146171716D01*
X-114028843Y146171718D01*
X-114025136Y146176550D01*
X-113976087Y146204867D01*
X-113966429Y146205500D01*
X-110668592Y146205500D01*
X-110616266Y146183826D01*
X-110611822Y146178758D01*
X-110610778Y146177713D01*
X-110485342Y146081464D01*
X-110339262Y146020955D01*
X-110182500Y146000318D01*
X-110025740Y146020955D01*
X-110025739Y146020955D01*
X-109879659Y146081464D01*
X-109754221Y146177715D01*
X-109754216Y146177720D01*
X-109657965Y146303158D01*
X-109657964Y146303159D01*
X-109597456Y146449238D01*
X-109576818Y146606000D01*
X-109597456Y146762762D01*
X-109657964Y146908841D01*
X-109754218Y147034282D01*
X-109879659Y147130536D01*
X-110025738Y147191044D01*
X-110182500Y147211682D01*
X-110339262Y147191044D01*
X-110485341Y147130536D01*
X-110495162Y147123000D01*
X-110610778Y147034286D01*
X-110614207Y147030856D01*
X-110615538Y147032186D01*
X-110658935Y147007133D01*
X-110668592Y147006500D01*
X-113976410Y147006500D01*
X-114024242Y147026312D01*
X-114024995Y147025330D01*
X-114028661Y147028142D01*
X-114028736Y147028174D01*
X-114028841Y147028279D01*
X-114028843Y147028282D01*
X-114028848Y147028285D01*
X-114028850Y147028288D01*
X-114077271Y147065441D01*
X-114154284Y147124536D01*
X-114300363Y147185044D01*
X-114457125Y147205682D01*
X-114613887Y147185044D01*
X-114759966Y147124536D01*
X-114768548Y147117951D01*
X-114885405Y147028284D01*
X-114885410Y147028279D01*
X-114981661Y146902841D01*
X-115042170Y146756761D01*
X-115042170Y146756760D01*
X-115062807Y146600000D01*
X-116633607Y146600000D01*
X-115319781Y147913826D01*
X-115267455Y147935500D01*
X-114278092Y147935500D01*
X-114225766Y147913826D01*
X-114221322Y147908758D01*
X-114220278Y147907713D01*
X-114094842Y147811464D01*
X-113948762Y147750955D01*
X-113792000Y147730318D01*
X-113635240Y147750955D01*
X-113635239Y147750955D01*
X-113489159Y147811464D01*
X-113363723Y147907713D01*
X-113360293Y147911144D01*
X-113358963Y147909813D01*
X-113315565Y147934867D01*
X-113305908Y147935500D01*
X-107638545Y147935500D01*
X-107586219Y147913826D01*
X-107052916Y147380521D01*
X-107031242Y147328195D01*
X-107031682Y147321478D01*
X-107031682Y147319999D01*
X-107012284Y147172658D01*
X-107026943Y147117951D01*
X-107075992Y147089632D01*
X-107085651Y147088999D01*
X-107162455Y147088999D01*
X-107162457Y147088998D01*
X-107199753Y147086064D01*
X-107359402Y147039681D01*
X-107502499Y146955054D01*
X-107620055Y146837498D01*
X-107704682Y146694401D01*
X-107750993Y146535000D01*
X-105041007Y146535000D01*
X-105087319Y146694402D01*
X-105154400Y146807831D01*
X-105162380Y146863903D01*
X-105128374Y146909195D01*
X-105090705Y146919500D01*
X-105066545Y146919500D01*
X-105014219Y146897826D01*
X-104054174Y145937781D01*
X-104032500Y145885455D01*
X-104032500Y143452545D01*
X-104054174Y143400219D01*
X-104501219Y142953174D01*
X-104553545Y142931500D01*
X-105420167Y142931500D01*
X-105472493Y142953174D01*
X-105489517Y142970198D01*
X-105594607Y143021573D01*
X-105662740Y143031500D01*
X-107129260Y143031500D01*
X-107197393Y143021573D01*
X-107197395Y143021572D01*
X-107302483Y142970198D01*
X-107385199Y142887482D01*
X-107436573Y142782394D01*
X-107436573Y142782393D01*
X-107446500Y142714264D01*
X-107446500Y142347735D01*
X-107436573Y142279606D01*
X-107436573Y142279605D01*
X-107385199Y142174517D01*
X-107302483Y142091801D01*
X-107197395Y142040427D01*
X-107129265Y142030500D01*
X-107129260Y142030500D01*
X-105662736Y142030500D01*
X-105594607Y142040427D01*
X-105594606Y142040427D01*
X-105489518Y142091801D01*
X-105472493Y142108826D01*
X-105420167Y142130500D01*
X-104304274Y142130500D01*
X-104304273Y142130500D01*
X-104202412Y142157793D01*
X-104202408Y142157795D01*
X-104111091Y142210517D01*
X-104111090Y142210518D01*
X-104111087Y142210520D01*
X-103311520Y143010087D01*
X-103299157Y143031499D01*
X-103258796Y143101407D01*
X-103258794Y143101411D01*
X-103258793Y143101412D01*
X-103231500Y143203273D01*
X-103231500Y143308727D01*
X-103231500Y146134727D01*
X-103231500Y146134729D01*
X-103258792Y146236582D01*
X-103258793Y146236587D01*
X-103311520Y146327913D01*
X-103386087Y146402480D01*
X-103980281Y146996674D01*
X-104001955Y147049000D01*
X-103980281Y147101326D01*
X-103927955Y147123000D01*
X-103450000Y147123000D01*
X-103450000Y147877000D01*
X-105054000Y147877000D01*
X-105054000Y147830495D01*
X-105051091Y147802021D01*
X-105067335Y147747763D01*
X-105117187Y147720883D01*
X-105124708Y147720500D01*
X-105939908Y147720500D01*
X-105992234Y147742174D01*
X-105996679Y147747241D01*
X-105997715Y147748277D01*
X-105997718Y147748282D01*
X-106001202Y147750955D01*
X-106015339Y147761802D01*
X-106123159Y147844536D01*
X-106269238Y147905044D01*
X-106426000Y147925682D01*
X-106426001Y147925681D01*
X-106426001Y147925682D01*
X-106430850Y147925682D01*
X-106430850Y147927566D01*
X-106479242Y147940530D01*
X-106486516Y147946907D01*
X-106971112Y148431504D01*
X-105054000Y148431504D01*
X-105054000Y148385000D01*
X-103450000Y148385000D01*
X-103450000Y149139000D01*
X-104346502Y149139000D01*
X-104346505Y149138999D01*
X-104450326Y149128393D01*
X-104618525Y149072657D01*
X-104769339Y148979634D01*
X-104769342Y148979632D01*
X-104894632Y148854342D01*
X-104894635Y148854338D01*
X-104987658Y148703524D01*
X-105043394Y148535325D01*
X-105054000Y148431504D01*
X-106971112Y148431504D01*
X-107196087Y148656480D01*
X-107287412Y148709207D01*
X-107389273Y148736500D01*
X-107389274Y148736500D01*
X-113305908Y148736500D01*
X-113358234Y148758174D01*
X-113362679Y148763241D01*
X-113363715Y148764277D01*
X-113363718Y148764282D01*
X-113489159Y148860536D01*
X-113635238Y148921044D01*
X-113792000Y148941682D01*
X-113948762Y148921044D01*
X-114094841Y148860536D01*
X-114094842Y148860535D01*
X-114220278Y148764286D01*
X-114223707Y148760856D01*
X-114225038Y148762186D01*
X-114268435Y148737133D01*
X-114278092Y148736500D01*
X-115411273Y148736500D01*
X-115516727Y148736500D01*
X-115618588Y148709207D01*
X-115709913Y148656480D01*
X-116725913Y147640480D01*
X-117640219Y146726174D01*
X-117692545Y146704500D01*
X-119782908Y146704500D01*
X-119835234Y146726174D01*
X-119839679Y146731241D01*
X-119840715Y146732277D01*
X-119840718Y146732282D01*
X-119966159Y146828536D01*
X-120112238Y146889044D01*
X-120269000Y146909682D01*
X-120425762Y146889044D01*
X-120571841Y146828536D01*
X-120571842Y146828535D01*
X-120697278Y146732286D01*
X-120700707Y146728856D01*
X-120702038Y146730186D01*
X-120745435Y146705133D01*
X-120755092Y146704500D01*
X-121143824Y146704500D01*
X-121186822Y146718274D01*
X-121189515Y146720195D01*
X-121189517Y146720198D01*
X-121294607Y146771573D01*
X-121362740Y146781500D01*
X-122829260Y146781500D01*
X-122897393Y146771573D01*
X-122897395Y146771572D01*
X-123002483Y146720198D01*
X-123019507Y146703174D01*
X-123071833Y146681500D01*
X-123519273Y146681500D01*
X-123624727Y146681500D01*
X-123726588Y146654207D01*
X-123726593Y146654204D01*
X-123810084Y146606000D01*
X-123817913Y146601480D01*
X-125034480Y145384913D01*
X-125034482Y145384910D01*
X-125034483Y145384909D01*
X-125087207Y145293589D01*
X-125087208Y145293585D01*
X-125093936Y145268479D01*
X-125093935Y145268479D01*
X-125114500Y145191727D01*
X-126245500Y145191727D01*
X-126245500Y147049000D01*
X-126223826Y147101326D01*
X-126171500Y147123000D01*
X-125550000Y147123000D01*
X-125042000Y147123000D01*
X-124145496Y147123000D01*
X-124041675Y147133606D01*
X-123873476Y147189342D01*
X-123722662Y147282365D01*
X-123722658Y147282368D01*
X-123597368Y147407658D01*
X-123597366Y147407661D01*
X-123504343Y147558475D01*
X-123448607Y147726674D01*
X-123438001Y147830495D01*
X-123438000Y147830497D01*
X-123438000Y147877000D01*
X-125042000Y147877000D01*
X-125042000Y147123000D01*
X-125550000Y147123000D01*
X-125550000Y148385000D01*
X-125042000Y148385000D01*
X-123438000Y148385000D01*
X-123438000Y148431502D01*
X-123438001Y148431504D01*
X-123448607Y148535325D01*
X-123504343Y148703524D01*
X-123597366Y148854338D01*
X-123597368Y148854342D01*
X-123722658Y148979632D01*
X-123722662Y148979634D01*
X-123873476Y149072657D01*
X-124041675Y149128393D01*
X-124145496Y149138999D01*
X-124145498Y149139000D01*
X-125042000Y149139000D01*
X-125042000Y148385000D01*
X-125550000Y148385000D01*
X-125550000Y149139000D01*
X-126171500Y149139000D01*
X-126223826Y149160674D01*
X-126245500Y149213000D01*
X-126245500Y151331500D01*
X-126223826Y151383826D01*
X-126171500Y151405500D01*
X-119534271Y151405500D01*
X-119481945Y151383826D01*
G37*
%TD.AperFunction*%
%TD*%
M02*
